M48
; DRILL file {KiCad 9.0.2+dfsg-1} date 2025-08-10T10:43:40+0800
; FORMAT={-:-/ absolute / metric / decimal}
; #@! TF.CreationDate,2025-08-10T10:43:40+08:00
; #@! TF.GenerationSoftware,Kicad,Pcbnew,9.0.2+dfsg-1
; #@! TF.FileFunction,Plated,1,4,PTH
FMAT,2
METRIC
; #@! TA.AperFunction,Plated,PTH,ViaDrill
T1C0.300
; #@! TA.AperFunction,Plated,PTH,ComponentDrill
T2C0.600
%
G90
G05
T1
X107.315Y-88.265
X107.315Y-89.535
X112.395Y-95.25
X114.3Y-74.93
X114.3Y-76.2
X114.3Y-78.74
X114.3Y-80.01
X116.205Y-102.235
X116.84Y-74.93
X116.84Y-76.2
X116.84Y-77.47
X116.84Y-78.74
X116.84Y-80.01
X118.745Y-89.535
X120.65Y-86.36
X121.92Y-86.36
X122.555Y-87.63
X124.46Y-84.455
X125.095Y-85.09
X130.81Y-88.9
X130.81Y-91.44
X137.16Y-85.09
X137.795Y-83.82
X138.43Y-88.9
X138.43Y-91.44
X141.605Y-82.55
T2
G00X104.66Y-84.58
M15
G01X104.06Y-84.58
M16
G05
G00X104.66Y-93.22
M15
G01X104.06Y-93.22
M16
G05
G00X109.09Y-84.58
M15
G01X107.99Y-84.58
M16
G05
G00X109.09Y-93.22
M15
G01X107.99Y-93.22
M16
G05
M30
