G04 #@! TF.GenerationSoftware,KiCad,Pcbnew,9.0.2+dfsg-1*
G04 #@! TF.CreationDate,2025-08-10T10:43:45+08:00*
G04 #@! TF.ProjectId,stlink,73746c69-6e6b-42e6-9b69-6361645f7063,a*
G04 #@! TF.SameCoordinates,Original*
G04 #@! TF.FileFunction,Copper,L3,Inr*
G04 #@! TF.FilePolarity,Positive*
%FSLAX46Y46*%
G04 Gerber Fmt 4.6, Leading zero omitted, Abs format (unit mm)*
G04 Created by KiCad (PCBNEW 9.0.2+dfsg-1) date 2025-08-10 10:43:45*
%MOMM*%
%LPD*%
G01*
G04 APERTURE LIST*
G04 #@! TA.AperFunction,ComponentPad*
%ADD10O,2.100000X1.000000*%
G04 #@! TD*
G04 #@! TA.AperFunction,ComponentPad*
%ADD11O,1.600000X1.000000*%
G04 #@! TD*
G04 #@! TA.AperFunction,ViaPad*
%ADD12C,0.600000*%
G04 #@! TD*
G04 APERTURE END LIST*
D10*
G04 #@! TO.N,GND*
G04 #@! TO.C,J1*
X108540000Y-84580000D03*
D11*
X104360000Y-84580000D03*
D10*
X108540000Y-93220000D03*
D11*
X104360000Y-93220000D03*
G04 #@! TD*
D12*
G04 #@! TO.N,GND*
X114300000Y-76200000D03*
X107315000Y-89535000D03*
X114300000Y-78740000D03*
X107315000Y-88265000D03*
X114300000Y-74930000D03*
G04 #@! TO.N,+3V3*
X116840000Y-77470000D03*
X114300000Y-80010000D03*
X116205000Y-102235000D03*
X116840000Y-78740000D03*
X116840000Y-74930000D03*
X141605000Y-82550000D03*
X116840000Y-76200000D03*
X112395000Y-95250000D03*
X116840000Y-80010000D03*
G04 #@! TO.N,T_DIO*
X138430000Y-88900000D03*
X122555000Y-87630000D03*
G04 #@! TO.N,T_CLK*
X121920000Y-86360000D03*
X130810000Y-88900000D03*
G04 #@! TO.N,T_RX*
X137795000Y-83820000D03*
X124460000Y-84455000D03*
G04 #@! TO.N,T_TX*
X137160000Y-85090000D03*
X125095000Y-85090000D03*
G04 #@! TO.N,T_RST*
X138430000Y-91440000D03*
X120650000Y-86360000D03*
G04 #@! TO.N,T_SWO*
X118745000Y-89535000D03*
X130810000Y-91440000D03*
G04 #@! TD*
G04 #@! TA.AperFunction,Conductor*
G04 #@! TO.N,GND*
G36*
X143512264Y-72415637D02*
G01*
X143539262Y-72417270D01*
X143808559Y-72433559D01*
X143817558Y-72434653D01*
X144107294Y-72487748D01*
X144116089Y-72489916D01*
X144397309Y-72577548D01*
X144405800Y-72580768D01*
X144674399Y-72701654D01*
X144682437Y-72705873D01*
X144934510Y-72858256D01*
X144941983Y-72863415D01*
X145173843Y-73045066D01*
X145180640Y-73051088D01*
X145388911Y-73259359D01*
X145394933Y-73266156D01*
X145576584Y-73498016D01*
X145581743Y-73505489D01*
X145734126Y-73757562D01*
X145738346Y-73765603D01*
X145859231Y-74034199D01*
X145862451Y-74042690D01*
X145950080Y-74323899D01*
X145952253Y-74332716D01*
X146005345Y-74622433D01*
X146006440Y-74631447D01*
X146024363Y-74927735D01*
X146024500Y-74932276D01*
X146024500Y-102867723D01*
X146024363Y-102872264D01*
X146006440Y-103168552D01*
X146005345Y-103177566D01*
X145952253Y-103467283D01*
X145950080Y-103476100D01*
X145862451Y-103757309D01*
X145859231Y-103765800D01*
X145738346Y-104034396D01*
X145734126Y-104042437D01*
X145581743Y-104294510D01*
X145576584Y-104301983D01*
X145394933Y-104533843D01*
X145388911Y-104540640D01*
X145180640Y-104748911D01*
X145173843Y-104754933D01*
X144941983Y-104936584D01*
X144934510Y-104941743D01*
X144682437Y-105094126D01*
X144674396Y-105098346D01*
X144405800Y-105219231D01*
X144397309Y-105222451D01*
X144116100Y-105310080D01*
X144107283Y-105312253D01*
X143817566Y-105365345D01*
X143808552Y-105366440D01*
X143512265Y-105384363D01*
X143507724Y-105384500D01*
X104142276Y-105384500D01*
X104137735Y-105384363D01*
X103841447Y-105366440D01*
X103832433Y-105365345D01*
X103542716Y-105312253D01*
X103533899Y-105310080D01*
X103252690Y-105222451D01*
X103244199Y-105219231D01*
X102975603Y-105098346D01*
X102967562Y-105094126D01*
X102715489Y-104941743D01*
X102708016Y-104936584D01*
X102476156Y-104754933D01*
X102469359Y-104748911D01*
X102261088Y-104540640D01*
X102255066Y-104533843D01*
X102073415Y-104301983D01*
X102068256Y-104294510D01*
X101915871Y-104042434D01*
X101911653Y-104034396D01*
X101790768Y-103765800D01*
X101787548Y-103757309D01*
X101765395Y-103686218D01*
X101699916Y-103476089D01*
X101697748Y-103467294D01*
X101644653Y-103177558D01*
X101643559Y-103168559D01*
X101625637Y-102872263D01*
X101625500Y-102867723D01*
X101625500Y-102771392D01*
X102887100Y-102771392D01*
X102887100Y-102968607D01*
X102917950Y-103163385D01*
X102917953Y-103163400D01*
X102978891Y-103350946D01*
X103068424Y-103526664D01*
X103184343Y-103686210D01*
X103184350Y-103686218D01*
X103323781Y-103825649D01*
X103323789Y-103825656D01*
X103323791Y-103825658D01*
X103361866Y-103853321D01*
X103483335Y-103941575D01*
X103659053Y-104031108D01*
X103846599Y-104092046D01*
X103846608Y-104092047D01*
X103846612Y-104092049D01*
X104041395Y-104122900D01*
X104041399Y-104122900D01*
X104238601Y-104122900D01*
X104238605Y-104122900D01*
X104433388Y-104092049D01*
X104433392Y-104092047D01*
X104433400Y-104092046D01*
X104571157Y-104047285D01*
X104620947Y-104031108D01*
X104796663Y-103941576D01*
X104956209Y-103825658D01*
X105095658Y-103686209D01*
X105211576Y-103526663D01*
X105301108Y-103350947D01*
X105317527Y-103300414D01*
X105362046Y-103163400D01*
X105362047Y-103163392D01*
X105362049Y-103163388D01*
X105392900Y-102968605D01*
X105392900Y-102771395D01*
X105392900Y-102771392D01*
X142257100Y-102771392D01*
X142257100Y-102968607D01*
X142287950Y-103163385D01*
X142287953Y-103163400D01*
X142348891Y-103350946D01*
X142438424Y-103526664D01*
X142554343Y-103686210D01*
X142554350Y-103686218D01*
X142693781Y-103825649D01*
X142693789Y-103825656D01*
X142693791Y-103825658D01*
X142731866Y-103853321D01*
X142853335Y-103941575D01*
X143029053Y-104031108D01*
X143216599Y-104092046D01*
X143216608Y-104092047D01*
X143216612Y-104092049D01*
X143411395Y-104122900D01*
X143411399Y-104122900D01*
X143608601Y-104122900D01*
X143608605Y-104122900D01*
X143803388Y-104092049D01*
X143803392Y-104092047D01*
X143803400Y-104092046D01*
X143941157Y-104047285D01*
X143990947Y-104031108D01*
X144166663Y-103941576D01*
X144326209Y-103825658D01*
X144465658Y-103686209D01*
X144581576Y-103526663D01*
X144671108Y-103350947D01*
X144687527Y-103300414D01*
X144732046Y-103163400D01*
X144732047Y-103163392D01*
X144732049Y-103163388D01*
X144762900Y-102968605D01*
X144762900Y-102771395D01*
X144732049Y-102576612D01*
X144732047Y-102576608D01*
X144732046Y-102576599D01*
X144671108Y-102389053D01*
X144581575Y-102213335D01*
X144470304Y-102060186D01*
X144465658Y-102053791D01*
X144465656Y-102053789D01*
X144465649Y-102053781D01*
X144326218Y-101914350D01*
X144326210Y-101914343D01*
X144166664Y-101798424D01*
X143990946Y-101708891D01*
X143803400Y-101647953D01*
X143803385Y-101647950D01*
X143608607Y-101617100D01*
X143608605Y-101617100D01*
X143411395Y-101617100D01*
X143411392Y-101617100D01*
X143216614Y-101647950D01*
X143216599Y-101647953D01*
X143029053Y-101708891D01*
X142853335Y-101798424D01*
X142693789Y-101914343D01*
X142693781Y-101914350D01*
X142554350Y-102053781D01*
X142554343Y-102053789D01*
X142438424Y-102213335D01*
X142348891Y-102389053D01*
X142287953Y-102576599D01*
X142287950Y-102576614D01*
X142257100Y-102771392D01*
X105392900Y-102771392D01*
X105362049Y-102576612D01*
X105362047Y-102576608D01*
X105362046Y-102576599D01*
X105301108Y-102389053D01*
X105252994Y-102294625D01*
X105211576Y-102213337D01*
X105183995Y-102175375D01*
X115752100Y-102175375D01*
X115752100Y-102294625D01*
X115782964Y-102409813D01*
X115782964Y-102409814D01*
X115842589Y-102513087D01*
X115926912Y-102597410D01*
X115986538Y-102631834D01*
X116030187Y-102657036D01*
X116145375Y-102687900D01*
X116145378Y-102687900D01*
X116264622Y-102687900D01*
X116264625Y-102687900D01*
X116379813Y-102657036D01*
X116483087Y-102597410D01*
X116567410Y-102513087D01*
X116627036Y-102409813D01*
X116657900Y-102294625D01*
X116657900Y-102175375D01*
X116627036Y-102060187D01*
X116623342Y-102053789D01*
X116567410Y-101956912D01*
X116483087Y-101872589D01*
X116379813Y-101812964D01*
X116264625Y-101782100D01*
X116145375Y-101782100D01*
X116058984Y-101805248D01*
X116030186Y-101812964D01*
X116030185Y-101812964D01*
X115926912Y-101872589D01*
X115842589Y-101956912D01*
X115782964Y-102060185D01*
X115782964Y-102060186D01*
X115782964Y-102060187D01*
X115752100Y-102175375D01*
X105183995Y-102175375D01*
X105095658Y-102053791D01*
X105095656Y-102053789D01*
X105095649Y-102053781D01*
X104956218Y-101914350D01*
X104956210Y-101914343D01*
X104796664Y-101798424D01*
X104620946Y-101708891D01*
X104433400Y-101647953D01*
X104433385Y-101647950D01*
X104238607Y-101617100D01*
X104238605Y-101617100D01*
X104041395Y-101617100D01*
X104041392Y-101617100D01*
X103846614Y-101647950D01*
X103846599Y-101647953D01*
X103659053Y-101708891D01*
X103483335Y-101798424D01*
X103323789Y-101914343D01*
X103323781Y-101914350D01*
X103184350Y-102053781D01*
X103184343Y-102053789D01*
X103068424Y-102213335D01*
X102978891Y-102389053D01*
X102917953Y-102576599D01*
X102917950Y-102576614D01*
X102887100Y-102771392D01*
X101625500Y-102771392D01*
X101625500Y-95190375D01*
X111942100Y-95190375D01*
X111942100Y-95309625D01*
X111972964Y-95424813D01*
X111972964Y-95424814D01*
X112032589Y-95528087D01*
X112116912Y-95612410D01*
X112176538Y-95646834D01*
X112220187Y-95672036D01*
X112335375Y-95702900D01*
X112335378Y-95702900D01*
X112454622Y-95702900D01*
X112454625Y-95702900D01*
X112569813Y-95672036D01*
X112673087Y-95612410D01*
X112757410Y-95528087D01*
X112817036Y-95424813D01*
X112847900Y-95309625D01*
X112847900Y-95190375D01*
X112817036Y-95075187D01*
X112817035Y-95075185D01*
X112757410Y-94971912D01*
X112673087Y-94887589D01*
X112569813Y-94827964D01*
X112454625Y-94797100D01*
X112335375Y-94797100D01*
X112248984Y-94820248D01*
X112220186Y-94827964D01*
X112220185Y-94827964D01*
X112116912Y-94887589D01*
X112032589Y-94971912D01*
X111972964Y-95075185D01*
X111972964Y-95075186D01*
X111972964Y-95075187D01*
X111942100Y-95190375D01*
X101625500Y-95190375D01*
X101625500Y-93067599D01*
X103425132Y-93067599D01*
X103425133Y-93067600D01*
X103801577Y-93067600D01*
X103780444Y-93104204D01*
X103760000Y-93180504D01*
X103760000Y-93259496D01*
X103780444Y-93335796D01*
X103801577Y-93372400D01*
X103425133Y-93372400D01*
X103432671Y-93410298D01*
X103481851Y-93529029D01*
X103553244Y-93635877D01*
X103553252Y-93635886D01*
X103644113Y-93726747D01*
X103644122Y-93726755D01*
X103750970Y-93798148D01*
X103869698Y-93847327D01*
X103869699Y-93847328D01*
X103995743Y-93872400D01*
X104207600Y-93872400D01*
X104207600Y-93520000D01*
X104512400Y-93520000D01*
X104512400Y-93872400D01*
X104724257Y-93872400D01*
X104850300Y-93847328D01*
X104850301Y-93847327D01*
X104969029Y-93798148D01*
X105075877Y-93726755D01*
X105075886Y-93726747D01*
X105166747Y-93635886D01*
X105166755Y-93635877D01*
X105238148Y-93529029D01*
X105287328Y-93410298D01*
X105294867Y-93372400D01*
X104918423Y-93372400D01*
X104939556Y-93335796D01*
X104960000Y-93259496D01*
X104960000Y-93180504D01*
X104939556Y-93104204D01*
X104918423Y-93067600D01*
X105294867Y-93067600D01*
X105294867Y-93067599D01*
X107355132Y-93067599D01*
X107355133Y-93067600D01*
X107731577Y-93067600D01*
X107710444Y-93104204D01*
X107690000Y-93180504D01*
X107690000Y-93259496D01*
X107710444Y-93335796D01*
X107731577Y-93372400D01*
X107355133Y-93372400D01*
X107362671Y-93410298D01*
X107411851Y-93529029D01*
X107483244Y-93635877D01*
X107483252Y-93635886D01*
X107574113Y-93726747D01*
X107574122Y-93726755D01*
X107680970Y-93798148D01*
X107799698Y-93847327D01*
X107799699Y-93847328D01*
X107925743Y-93872400D01*
X108387600Y-93872400D01*
X108387600Y-93520000D01*
X108692400Y-93520000D01*
X108692400Y-93872400D01*
X109154257Y-93872400D01*
X109280300Y-93847328D01*
X109280301Y-93847327D01*
X109399029Y-93798148D01*
X109505877Y-93726755D01*
X109505886Y-93726747D01*
X109596747Y-93635886D01*
X109596755Y-93635877D01*
X109668148Y-93529029D01*
X109717328Y-93410298D01*
X109724867Y-93372400D01*
X109348423Y-93372400D01*
X109369556Y-93335796D01*
X109390000Y-93259496D01*
X109390000Y-93180504D01*
X109369556Y-93104204D01*
X109348423Y-93067600D01*
X109724867Y-93067600D01*
X109724867Y-93067599D01*
X109717328Y-93029701D01*
X109668148Y-92910970D01*
X109596755Y-92804122D01*
X109596747Y-92804113D01*
X109505886Y-92713252D01*
X109505877Y-92713244D01*
X109399029Y-92641851D01*
X109280301Y-92592672D01*
X109280300Y-92592671D01*
X109154257Y-92567600D01*
X108692400Y-92567600D01*
X108692400Y-92920000D01*
X108387600Y-92920000D01*
X108387600Y-92567600D01*
X107925743Y-92567600D01*
X107799699Y-92592671D01*
X107799698Y-92592672D01*
X107680970Y-92641851D01*
X107574122Y-92713244D01*
X107574113Y-92713252D01*
X107483252Y-92804113D01*
X107483244Y-92804122D01*
X107411851Y-92910970D01*
X107362671Y-93029701D01*
X107355132Y-93067599D01*
X105294867Y-93067599D01*
X105287328Y-93029701D01*
X105238148Y-92910970D01*
X105166755Y-92804122D01*
X105166747Y-92804113D01*
X105075886Y-92713252D01*
X105075877Y-92713244D01*
X104969029Y-92641851D01*
X104850301Y-92592672D01*
X104850300Y-92592671D01*
X104724257Y-92567600D01*
X104512400Y-92567600D01*
X104512400Y-92920000D01*
X104207600Y-92920000D01*
X104207600Y-92567600D01*
X103995743Y-92567600D01*
X103869699Y-92592671D01*
X103869698Y-92592672D01*
X103750970Y-92641851D01*
X103644122Y-92713244D01*
X103644113Y-92713252D01*
X103553252Y-92804113D01*
X103553244Y-92804122D01*
X103481851Y-92910970D01*
X103432671Y-93029701D01*
X103425132Y-93067599D01*
X101625500Y-93067599D01*
X101625500Y-91727083D01*
X107532100Y-91727083D01*
X107532100Y-91852917D01*
X107564668Y-91974462D01*
X107564671Y-91974470D01*
X107627584Y-92083438D01*
X107716561Y-92172415D01*
X107825529Y-92235328D01*
X107825532Y-92235329D01*
X107825537Y-92235332D01*
X107947083Y-92267900D01*
X107947086Y-92267900D01*
X108072914Y-92267900D01*
X108072917Y-92267900D01*
X108194463Y-92235332D01*
X108303438Y-92172415D01*
X108392415Y-92083438D01*
X108455332Y-91974463D01*
X108487900Y-91852917D01*
X108487900Y-91727083D01*
X108455332Y-91605537D01*
X108455329Y-91605532D01*
X108455328Y-91605529D01*
X108392415Y-91496561D01*
X108303438Y-91407584D01*
X108256311Y-91380375D01*
X130357100Y-91380375D01*
X130357100Y-91499625D01*
X130385476Y-91605529D01*
X130387964Y-91614813D01*
X130387964Y-91614814D01*
X130447589Y-91718087D01*
X130531912Y-91802410D01*
X130591538Y-91836834D01*
X130635187Y-91862036D01*
X130750375Y-91892900D01*
X130750378Y-91892900D01*
X130869622Y-91892900D01*
X130869625Y-91892900D01*
X130984813Y-91862036D01*
X131088087Y-91802410D01*
X131172410Y-91718087D01*
X131232036Y-91614813D01*
X131262900Y-91499625D01*
X131262900Y-91380375D01*
X137977100Y-91380375D01*
X137977100Y-91499625D01*
X138005476Y-91605529D01*
X138007964Y-91614813D01*
X138007964Y-91614814D01*
X138067589Y-91718087D01*
X138151912Y-91802410D01*
X138211538Y-91836834D01*
X138255187Y-91862036D01*
X138370375Y-91892900D01*
X138370378Y-91892900D01*
X138489622Y-91892900D01*
X138489625Y-91892900D01*
X138604813Y-91862036D01*
X138708087Y-91802410D01*
X138792410Y-91718087D01*
X138852036Y-91614813D01*
X138882900Y-91499625D01*
X138882900Y-91380375D01*
X138852036Y-91265187D01*
X138852035Y-91265185D01*
X138792410Y-91161912D01*
X138708087Y-91077589D01*
X138604813Y-91017964D01*
X138489625Y-90987100D01*
X138370375Y-90987100D01*
X138283984Y-91010248D01*
X138255186Y-91017964D01*
X138255185Y-91017964D01*
X138151912Y-91077589D01*
X138067589Y-91161912D01*
X138007964Y-91265185D01*
X138007964Y-91265186D01*
X138007964Y-91265187D01*
X137977100Y-91380375D01*
X131262900Y-91380375D01*
X131232036Y-91265187D01*
X131232035Y-91265185D01*
X131172410Y-91161912D01*
X131088087Y-91077589D01*
X130984813Y-91017964D01*
X130869625Y-90987100D01*
X130750375Y-90987100D01*
X130663984Y-91010248D01*
X130635186Y-91017964D01*
X130635185Y-91017964D01*
X130531912Y-91077589D01*
X130447589Y-91161912D01*
X130387964Y-91265185D01*
X130387964Y-91265186D01*
X130387964Y-91265187D01*
X130357100Y-91380375D01*
X108256311Y-91380375D01*
X108194470Y-91344671D01*
X108194464Y-91344669D01*
X108194463Y-91344668D01*
X108072917Y-91312100D01*
X107947083Y-91312100D01*
X107825537Y-91344668D01*
X107825529Y-91344671D01*
X107716561Y-91407584D01*
X107627584Y-91496561D01*
X107564671Y-91605529D01*
X107564668Y-91605537D01*
X107532100Y-91727083D01*
X101625500Y-91727083D01*
X101625500Y-89475375D01*
X118292100Y-89475375D01*
X118292100Y-89594625D01*
X118322964Y-89709813D01*
X118322964Y-89709814D01*
X118382589Y-89813087D01*
X118466912Y-89897410D01*
X118526538Y-89931834D01*
X118570187Y-89957036D01*
X118685375Y-89987900D01*
X118685378Y-89987900D01*
X118804622Y-89987900D01*
X118804625Y-89987900D01*
X118919813Y-89957036D01*
X119023087Y-89897410D01*
X119107410Y-89813087D01*
X119167036Y-89709813D01*
X119197900Y-89594625D01*
X119197900Y-89475375D01*
X119167036Y-89360187D01*
X119162829Y-89352900D01*
X119107410Y-89256912D01*
X119023087Y-89172589D01*
X118919813Y-89112964D01*
X118804625Y-89082100D01*
X118685375Y-89082100D01*
X118598984Y-89105248D01*
X118570186Y-89112964D01*
X118570185Y-89112964D01*
X118466912Y-89172589D01*
X118382589Y-89256912D01*
X118322964Y-89360185D01*
X118322964Y-89360186D01*
X118322964Y-89360187D01*
X118292100Y-89475375D01*
X101625500Y-89475375D01*
X101625500Y-88840375D01*
X130357100Y-88840375D01*
X130357100Y-88959625D01*
X130387964Y-89074813D01*
X130387964Y-89074814D01*
X130447589Y-89178087D01*
X130531912Y-89262410D01*
X130591538Y-89296834D01*
X130635187Y-89322036D01*
X130750375Y-89352900D01*
X130750378Y-89352900D01*
X130869622Y-89352900D01*
X130869625Y-89352900D01*
X130984813Y-89322036D01*
X131088087Y-89262410D01*
X131172410Y-89178087D01*
X131232036Y-89074813D01*
X131262900Y-88959625D01*
X131262900Y-88840375D01*
X137977100Y-88840375D01*
X137977100Y-88959625D01*
X138007964Y-89074813D01*
X138007964Y-89074814D01*
X138067589Y-89178087D01*
X138151912Y-89262410D01*
X138211538Y-89296834D01*
X138255187Y-89322036D01*
X138370375Y-89352900D01*
X138370378Y-89352900D01*
X138489622Y-89352900D01*
X138489625Y-89352900D01*
X138604813Y-89322036D01*
X138708087Y-89262410D01*
X138792410Y-89178087D01*
X138852036Y-89074813D01*
X138882900Y-88959625D01*
X138882900Y-88840375D01*
X138852036Y-88725187D01*
X138852035Y-88725185D01*
X138792410Y-88621912D01*
X138708087Y-88537589D01*
X138604813Y-88477964D01*
X138489625Y-88447100D01*
X138370375Y-88447100D01*
X138283984Y-88470248D01*
X138255186Y-88477964D01*
X138255185Y-88477964D01*
X138151912Y-88537589D01*
X138067589Y-88621912D01*
X138007964Y-88725185D01*
X138007964Y-88725186D01*
X138007964Y-88725187D01*
X137977100Y-88840375D01*
X131262900Y-88840375D01*
X131232036Y-88725187D01*
X131232035Y-88725185D01*
X131172410Y-88621912D01*
X131088087Y-88537589D01*
X130984813Y-88477964D01*
X130869625Y-88447100D01*
X130750375Y-88447100D01*
X130663984Y-88470248D01*
X130635186Y-88477964D01*
X130635185Y-88477964D01*
X130531912Y-88537589D01*
X130447589Y-88621912D01*
X130387964Y-88725185D01*
X130387964Y-88725186D01*
X130387964Y-88725187D01*
X130357100Y-88840375D01*
X101625500Y-88840375D01*
X101625500Y-87570375D01*
X122102100Y-87570375D01*
X122102100Y-87689625D01*
X122132964Y-87804813D01*
X122132964Y-87804814D01*
X122192589Y-87908087D01*
X122276912Y-87992410D01*
X122336538Y-88026834D01*
X122380187Y-88052036D01*
X122495375Y-88082900D01*
X122495378Y-88082900D01*
X122614622Y-88082900D01*
X122614625Y-88082900D01*
X122729813Y-88052036D01*
X122833087Y-87992410D01*
X122917410Y-87908087D01*
X122977036Y-87804813D01*
X123007900Y-87689625D01*
X123007900Y-87570375D01*
X122977036Y-87455187D01*
X122977035Y-87455185D01*
X122917410Y-87351912D01*
X122833087Y-87267589D01*
X122729813Y-87207964D01*
X122614625Y-87177100D01*
X122495375Y-87177100D01*
X122408984Y-87200248D01*
X122380186Y-87207964D01*
X122380185Y-87207964D01*
X122276912Y-87267589D01*
X122192589Y-87351912D01*
X122132964Y-87455185D01*
X122132964Y-87455186D01*
X122132964Y-87455187D01*
X122102100Y-87570375D01*
X101625500Y-87570375D01*
X101625500Y-85947083D01*
X107532100Y-85947083D01*
X107532100Y-86072917D01*
X107562183Y-86185187D01*
X107564668Y-86194462D01*
X107564671Y-86194470D01*
X107627584Y-86303438D01*
X107716561Y-86392415D01*
X107825529Y-86455328D01*
X107825532Y-86455329D01*
X107825537Y-86455332D01*
X107947083Y-86487900D01*
X107947086Y-86487900D01*
X108072914Y-86487900D01*
X108072917Y-86487900D01*
X108194463Y-86455332D01*
X108303438Y-86392415D01*
X108392415Y-86303438D01*
X108394183Y-86300375D01*
X120197100Y-86300375D01*
X120197100Y-86419625D01*
X120215394Y-86487900D01*
X120227964Y-86534813D01*
X120227964Y-86534814D01*
X120287589Y-86638087D01*
X120371912Y-86722410D01*
X120431538Y-86756834D01*
X120475187Y-86782036D01*
X120590375Y-86812900D01*
X120590378Y-86812900D01*
X120709622Y-86812900D01*
X120709625Y-86812900D01*
X120824813Y-86782036D01*
X120928087Y-86722410D01*
X121012410Y-86638087D01*
X121072036Y-86534813D01*
X121102900Y-86419625D01*
X121102900Y-86300375D01*
X121467100Y-86300375D01*
X121467100Y-86419625D01*
X121485394Y-86487900D01*
X121497964Y-86534813D01*
X121497964Y-86534814D01*
X121557589Y-86638087D01*
X121641912Y-86722410D01*
X121701538Y-86756834D01*
X121745187Y-86782036D01*
X121860375Y-86812900D01*
X121860378Y-86812900D01*
X121979622Y-86812900D01*
X121979625Y-86812900D01*
X122094813Y-86782036D01*
X122198087Y-86722410D01*
X122282410Y-86638087D01*
X122342036Y-86534813D01*
X122372900Y-86419625D01*
X122372900Y-86300375D01*
X122342036Y-86185187D01*
X122342035Y-86185185D01*
X122282410Y-86081912D01*
X122198087Y-85997589D01*
X122094813Y-85937964D01*
X121979625Y-85907100D01*
X121860375Y-85907100D01*
X121773984Y-85930248D01*
X121745186Y-85937964D01*
X121745185Y-85937964D01*
X121641912Y-85997589D01*
X121557589Y-86081912D01*
X121497964Y-86185185D01*
X121497964Y-86185186D01*
X121487676Y-86223583D01*
X121467100Y-86300375D01*
X121102900Y-86300375D01*
X121072036Y-86185187D01*
X121072035Y-86185185D01*
X121012410Y-86081912D01*
X120928087Y-85997589D01*
X120824813Y-85937964D01*
X120709625Y-85907100D01*
X120590375Y-85907100D01*
X120503984Y-85930248D01*
X120475186Y-85937964D01*
X120475185Y-85937964D01*
X120371912Y-85997589D01*
X120287589Y-86081912D01*
X120227964Y-86185185D01*
X120227964Y-86185186D01*
X120217676Y-86223583D01*
X120197100Y-86300375D01*
X108394183Y-86300375D01*
X108455332Y-86194463D01*
X108487900Y-86072917D01*
X108487900Y-85947083D01*
X108455332Y-85825537D01*
X108455329Y-85825532D01*
X108455328Y-85825529D01*
X108392415Y-85716561D01*
X108303438Y-85627584D01*
X108194470Y-85564671D01*
X108194464Y-85564669D01*
X108194463Y-85564668D01*
X108072917Y-85532100D01*
X107947083Y-85532100D01*
X107825537Y-85564668D01*
X107825529Y-85564671D01*
X107716561Y-85627584D01*
X107627584Y-85716561D01*
X107564671Y-85825529D01*
X107564668Y-85825537D01*
X107532100Y-85947083D01*
X101625500Y-85947083D01*
X101625500Y-84427599D01*
X103425132Y-84427599D01*
X103425133Y-84427600D01*
X103801577Y-84427600D01*
X103780444Y-84464204D01*
X103760000Y-84540504D01*
X103760000Y-84619496D01*
X103780444Y-84695796D01*
X103801577Y-84732400D01*
X103425133Y-84732400D01*
X103432671Y-84770298D01*
X103481851Y-84889029D01*
X103553244Y-84995877D01*
X103553252Y-84995886D01*
X103644113Y-85086747D01*
X103644122Y-85086755D01*
X103750970Y-85158148D01*
X103869698Y-85207327D01*
X103869699Y-85207328D01*
X103995743Y-85232400D01*
X104207600Y-85232400D01*
X104207600Y-84880000D01*
X104512400Y-84880000D01*
X104512400Y-85232400D01*
X104724257Y-85232400D01*
X104850300Y-85207328D01*
X104850301Y-85207327D01*
X104969029Y-85158148D01*
X105075877Y-85086755D01*
X105075886Y-85086747D01*
X105166747Y-84995886D01*
X105166755Y-84995877D01*
X105238148Y-84889029D01*
X105287328Y-84770298D01*
X105294867Y-84732400D01*
X104918423Y-84732400D01*
X104939556Y-84695796D01*
X104960000Y-84619496D01*
X104960000Y-84540504D01*
X104939556Y-84464204D01*
X104918423Y-84427600D01*
X105294867Y-84427600D01*
X105294867Y-84427599D01*
X107355132Y-84427599D01*
X107355133Y-84427600D01*
X107731577Y-84427600D01*
X107710444Y-84464204D01*
X107690000Y-84540504D01*
X107690000Y-84619496D01*
X107710444Y-84695796D01*
X107731577Y-84732400D01*
X107355133Y-84732400D01*
X107362671Y-84770298D01*
X107411851Y-84889029D01*
X107483244Y-84995877D01*
X107483252Y-84995886D01*
X107574113Y-85086747D01*
X107574122Y-85086755D01*
X107680970Y-85158148D01*
X107799698Y-85207327D01*
X107799699Y-85207328D01*
X107925743Y-85232400D01*
X108387600Y-85232400D01*
X108387600Y-84880000D01*
X108692400Y-84880000D01*
X108692400Y-85232400D01*
X109154257Y-85232400D01*
X109280300Y-85207328D01*
X109280301Y-85207327D01*
X109399029Y-85158148D01*
X109505877Y-85086755D01*
X109505886Y-85086747D01*
X109596747Y-84995886D01*
X109596755Y-84995877D01*
X109668148Y-84889029D01*
X109717328Y-84770298D01*
X109724867Y-84732400D01*
X109348423Y-84732400D01*
X109369556Y-84695796D01*
X109390000Y-84619496D01*
X109390000Y-84540504D01*
X109369556Y-84464204D01*
X109348423Y-84427600D01*
X109724867Y-84427600D01*
X109724867Y-84427599D01*
X109720395Y-84405117D01*
X109718457Y-84395375D01*
X124007100Y-84395375D01*
X124007100Y-84514625D01*
X124031948Y-84607360D01*
X124037964Y-84629813D01*
X124037964Y-84629814D01*
X124097589Y-84733087D01*
X124181912Y-84817410D01*
X124241538Y-84851834D01*
X124285187Y-84877036D01*
X124400375Y-84907900D01*
X124400378Y-84907900D01*
X124519625Y-84907900D01*
X124561118Y-84896782D01*
X124612360Y-84901264D01*
X124648734Y-84937637D01*
X124653218Y-84988881D01*
X124642100Y-85030375D01*
X124642100Y-85149625D01*
X124664279Y-85232400D01*
X124672964Y-85264813D01*
X124672964Y-85264814D01*
X124732589Y-85368087D01*
X124816912Y-85452410D01*
X124876538Y-85486834D01*
X124920187Y-85512036D01*
X125035375Y-85542900D01*
X125035378Y-85542900D01*
X125154622Y-85542900D01*
X125154625Y-85542900D01*
X125269813Y-85512036D01*
X125373087Y-85452410D01*
X125457410Y-85368087D01*
X125517036Y-85264813D01*
X125547900Y-85149625D01*
X125547900Y-85030375D01*
X136707100Y-85030375D01*
X136707100Y-85149625D01*
X136729279Y-85232400D01*
X136737964Y-85264813D01*
X136737964Y-85264814D01*
X136797589Y-85368087D01*
X136881912Y-85452410D01*
X136941538Y-85486834D01*
X136985187Y-85512036D01*
X137100375Y-85542900D01*
X137100378Y-85542900D01*
X137219622Y-85542900D01*
X137219625Y-85542900D01*
X137334813Y-85512036D01*
X137438087Y-85452410D01*
X137522410Y-85368087D01*
X137582036Y-85264813D01*
X137612900Y-85149625D01*
X137612900Y-85030375D01*
X137582036Y-84915187D01*
X137577829Y-84907900D01*
X137522410Y-84811912D01*
X137438087Y-84727589D01*
X137334813Y-84667964D01*
X137219625Y-84637100D01*
X137100375Y-84637100D01*
X137013984Y-84660248D01*
X136985186Y-84667964D01*
X136985185Y-84667964D01*
X136881912Y-84727589D01*
X136797589Y-84811912D01*
X136737964Y-84915185D01*
X136737964Y-84915186D01*
X136737964Y-84915187D01*
X136707100Y-85030375D01*
X125547900Y-85030375D01*
X125517036Y-84915187D01*
X125512829Y-84907900D01*
X125457410Y-84811912D01*
X125373087Y-84727589D01*
X125269813Y-84667964D01*
X125154625Y-84637100D01*
X125035375Y-84637100D01*
X124993881Y-84648218D01*
X124942637Y-84643734D01*
X124906264Y-84607360D01*
X124901782Y-84556118D01*
X124912900Y-84514625D01*
X124912900Y-84395375D01*
X124882036Y-84280187D01*
X124877829Y-84272900D01*
X124822410Y-84176912D01*
X124738087Y-84092589D01*
X124634813Y-84032964D01*
X124519625Y-84002100D01*
X124400375Y-84002100D01*
X124313984Y-84025248D01*
X124285186Y-84032964D01*
X124285185Y-84032964D01*
X124181912Y-84092589D01*
X124097589Y-84176912D01*
X124037964Y-84280185D01*
X124037964Y-84280186D01*
X124037964Y-84280187D01*
X124007100Y-84395375D01*
X109718457Y-84395375D01*
X109717328Y-84389701D01*
X109668148Y-84270970D01*
X109596755Y-84164122D01*
X109596747Y-84164113D01*
X109505886Y-84073252D01*
X109505877Y-84073244D01*
X109399029Y-84001851D01*
X109280301Y-83952672D01*
X109280300Y-83952671D01*
X109154257Y-83927600D01*
X108692400Y-83927600D01*
X108692400Y-84280000D01*
X108387600Y-84280000D01*
X108387600Y-83927600D01*
X107925743Y-83927600D01*
X107799699Y-83952671D01*
X107799698Y-83952672D01*
X107680970Y-84001851D01*
X107574122Y-84073244D01*
X107574113Y-84073252D01*
X107483252Y-84164113D01*
X107483244Y-84164122D01*
X107411851Y-84270970D01*
X107362671Y-84389701D01*
X107355132Y-84427599D01*
X105294867Y-84427599D01*
X105287328Y-84389701D01*
X105238148Y-84270970D01*
X105166755Y-84164122D01*
X105166747Y-84164113D01*
X105075886Y-84073252D01*
X105075877Y-84073244D01*
X104969029Y-84001851D01*
X104850301Y-83952672D01*
X104850300Y-83952671D01*
X104724257Y-83927600D01*
X104512400Y-83927600D01*
X104512400Y-84280000D01*
X104207600Y-84280000D01*
X104207600Y-83927600D01*
X103995743Y-83927600D01*
X103869699Y-83952671D01*
X103869698Y-83952672D01*
X103750970Y-84001851D01*
X103644122Y-84073244D01*
X103644113Y-84073252D01*
X103553252Y-84164113D01*
X103553244Y-84164122D01*
X103481851Y-84270970D01*
X103432671Y-84389701D01*
X103425132Y-84427599D01*
X101625500Y-84427599D01*
X101625500Y-83760375D01*
X137342100Y-83760375D01*
X137342100Y-83879625D01*
X137361673Y-83952672D01*
X137372964Y-83994813D01*
X137372964Y-83994814D01*
X137432589Y-84098087D01*
X137516912Y-84182410D01*
X137576538Y-84216834D01*
X137620187Y-84242036D01*
X137735375Y-84272900D01*
X137735378Y-84272900D01*
X137854622Y-84272900D01*
X137854625Y-84272900D01*
X137969813Y-84242036D01*
X138073087Y-84182410D01*
X138157410Y-84098087D01*
X138217036Y-83994813D01*
X138247900Y-83879625D01*
X138247900Y-83760375D01*
X138217036Y-83645187D01*
X138217035Y-83645185D01*
X138157410Y-83541912D01*
X138073087Y-83457589D01*
X137969813Y-83397964D01*
X137854625Y-83367100D01*
X137735375Y-83367100D01*
X137648984Y-83390248D01*
X137620186Y-83397964D01*
X137620185Y-83397964D01*
X137516912Y-83457589D01*
X137432589Y-83541912D01*
X137372964Y-83645185D01*
X137372964Y-83645186D01*
X137372964Y-83645187D01*
X137342100Y-83760375D01*
X101625500Y-83760375D01*
X101625500Y-82490375D01*
X141152100Y-82490375D01*
X141152100Y-82609625D01*
X141182964Y-82724813D01*
X141182964Y-82724814D01*
X141242589Y-82828087D01*
X141326912Y-82912410D01*
X141386538Y-82946834D01*
X141430187Y-82972036D01*
X141545375Y-83002900D01*
X141545378Y-83002900D01*
X141664622Y-83002900D01*
X141664625Y-83002900D01*
X141779813Y-82972036D01*
X141883087Y-82912410D01*
X141967410Y-82828087D01*
X142027036Y-82724813D01*
X142057900Y-82609625D01*
X142057900Y-82490375D01*
X142027036Y-82375187D01*
X142027035Y-82375185D01*
X141967410Y-82271912D01*
X141883087Y-82187589D01*
X141779813Y-82127964D01*
X141664625Y-82097100D01*
X141545375Y-82097100D01*
X141458984Y-82120248D01*
X141430186Y-82127964D01*
X141430185Y-82127964D01*
X141326912Y-82187589D01*
X141242589Y-82271912D01*
X141182964Y-82375185D01*
X141182964Y-82375186D01*
X141182964Y-82375187D01*
X141152100Y-82490375D01*
X101625500Y-82490375D01*
X101625500Y-79950375D01*
X113847100Y-79950375D01*
X113847100Y-80069625D01*
X113877964Y-80184813D01*
X113877964Y-80184814D01*
X113937589Y-80288087D01*
X114021912Y-80372410D01*
X114081538Y-80406834D01*
X114125187Y-80432036D01*
X114240375Y-80462900D01*
X114240378Y-80462900D01*
X114359622Y-80462900D01*
X114359625Y-80462900D01*
X114474813Y-80432036D01*
X114578087Y-80372410D01*
X114662410Y-80288087D01*
X114722036Y-80184813D01*
X114752900Y-80069625D01*
X114752900Y-79950375D01*
X116387100Y-79950375D01*
X116387100Y-80069625D01*
X116417964Y-80184813D01*
X116417964Y-80184814D01*
X116477589Y-80288087D01*
X116561912Y-80372410D01*
X116621538Y-80406834D01*
X116665187Y-80432036D01*
X116780375Y-80462900D01*
X116780378Y-80462900D01*
X116899622Y-80462900D01*
X116899625Y-80462900D01*
X117014813Y-80432036D01*
X117118087Y-80372410D01*
X117202410Y-80288087D01*
X117262036Y-80184813D01*
X117292900Y-80069625D01*
X117292900Y-79950375D01*
X117262036Y-79835187D01*
X117262035Y-79835185D01*
X117202410Y-79731912D01*
X117118087Y-79647589D01*
X117014813Y-79587964D01*
X116899625Y-79557100D01*
X116780375Y-79557100D01*
X116693984Y-79580248D01*
X116665186Y-79587964D01*
X116665185Y-79587964D01*
X116561912Y-79647589D01*
X116477589Y-79731912D01*
X116417964Y-79835185D01*
X116417964Y-79835186D01*
X116417964Y-79835187D01*
X116387100Y-79950375D01*
X114752900Y-79950375D01*
X114722036Y-79835187D01*
X114722035Y-79835185D01*
X114662410Y-79731912D01*
X114578087Y-79647589D01*
X114474813Y-79587964D01*
X114359625Y-79557100D01*
X114240375Y-79557100D01*
X114153984Y-79580248D01*
X114125186Y-79587964D01*
X114125185Y-79587964D01*
X114021912Y-79647589D01*
X113937589Y-79731912D01*
X113877964Y-79835185D01*
X113877964Y-79835186D01*
X113877964Y-79835187D01*
X113847100Y-79950375D01*
X101625500Y-79950375D01*
X101625500Y-78680375D01*
X116387100Y-78680375D01*
X116387100Y-78799625D01*
X116417964Y-78914813D01*
X116417964Y-78914814D01*
X116477589Y-79018087D01*
X116561912Y-79102410D01*
X116621538Y-79136834D01*
X116665187Y-79162036D01*
X116780375Y-79192900D01*
X116780378Y-79192900D01*
X116899622Y-79192900D01*
X116899625Y-79192900D01*
X117014813Y-79162036D01*
X117118087Y-79102410D01*
X117202410Y-79018087D01*
X117262036Y-78914813D01*
X117292900Y-78799625D01*
X117292900Y-78680375D01*
X117262036Y-78565187D01*
X117262035Y-78565185D01*
X117202410Y-78461912D01*
X117118087Y-78377589D01*
X117014813Y-78317964D01*
X116899625Y-78287100D01*
X116780375Y-78287100D01*
X116693984Y-78310248D01*
X116665186Y-78317964D01*
X116665185Y-78317964D01*
X116561912Y-78377589D01*
X116477589Y-78461912D01*
X116417964Y-78565185D01*
X116417964Y-78565186D01*
X116417964Y-78565187D01*
X116387100Y-78680375D01*
X101625500Y-78680375D01*
X101625500Y-77410375D01*
X116387100Y-77410375D01*
X116387100Y-77529625D01*
X116417964Y-77644813D01*
X116417964Y-77644814D01*
X116477589Y-77748087D01*
X116561912Y-77832410D01*
X116621538Y-77866834D01*
X116665187Y-77892036D01*
X116780375Y-77922900D01*
X116780378Y-77922900D01*
X116899622Y-77922900D01*
X116899625Y-77922900D01*
X117014813Y-77892036D01*
X117118087Y-77832410D01*
X117202410Y-77748087D01*
X117262036Y-77644813D01*
X117292900Y-77529625D01*
X117292900Y-77410375D01*
X117262036Y-77295187D01*
X117262035Y-77295185D01*
X117202410Y-77191912D01*
X117118087Y-77107589D01*
X117014813Y-77047964D01*
X116899625Y-77017100D01*
X116780375Y-77017100D01*
X116693984Y-77040248D01*
X116665186Y-77047964D01*
X116665185Y-77047964D01*
X116561912Y-77107589D01*
X116477589Y-77191912D01*
X116417964Y-77295185D01*
X116417964Y-77295186D01*
X116417964Y-77295187D01*
X116387100Y-77410375D01*
X101625500Y-77410375D01*
X101625500Y-74932276D01*
X101625637Y-74927735D01*
X101631465Y-74831392D01*
X102887100Y-74831392D01*
X102887100Y-75028607D01*
X102917950Y-75223385D01*
X102917953Y-75223400D01*
X102978891Y-75410946D01*
X103068424Y-75586664D01*
X103184343Y-75746210D01*
X103184350Y-75746218D01*
X103323781Y-75885649D01*
X103323789Y-75885656D01*
X103323791Y-75885658D01*
X103411045Y-75949052D01*
X103483335Y-76001575D01*
X103659053Y-76091108D01*
X103846599Y-76152046D01*
X103846608Y-76152047D01*
X103846612Y-76152049D01*
X104041395Y-76182900D01*
X104041399Y-76182900D01*
X104238601Y-76182900D01*
X104238605Y-76182900D01*
X104433388Y-76152049D01*
X104433392Y-76152047D01*
X104433400Y-76152046D01*
X104469319Y-76140375D01*
X116387100Y-76140375D01*
X116387100Y-76259625D01*
X116417964Y-76374813D01*
X116417964Y-76374814D01*
X116477589Y-76478087D01*
X116561912Y-76562410D01*
X116621538Y-76596834D01*
X116665187Y-76622036D01*
X116780375Y-76652900D01*
X116780378Y-76652900D01*
X116899622Y-76652900D01*
X116899625Y-76652900D01*
X117014813Y-76622036D01*
X117118087Y-76562410D01*
X117202410Y-76478087D01*
X117262036Y-76374813D01*
X117292900Y-76259625D01*
X117292900Y-76140375D01*
X117262036Y-76025187D01*
X117248404Y-76001576D01*
X117202410Y-75921912D01*
X117118087Y-75837589D01*
X117014813Y-75777964D01*
X116899625Y-75747100D01*
X116780375Y-75747100D01*
X116693984Y-75770248D01*
X116665186Y-75777964D01*
X116665185Y-75777964D01*
X116561912Y-75837589D01*
X116477589Y-75921912D01*
X116417964Y-76025185D01*
X116417964Y-76025186D01*
X116417964Y-76025187D01*
X116387100Y-76140375D01*
X104469319Y-76140375D01*
X104571157Y-76107285D01*
X104620947Y-76091108D01*
X104796663Y-76001576D01*
X104956209Y-75885658D01*
X105095658Y-75746209D01*
X105211576Y-75586663D01*
X105301108Y-75410947D01*
X105320249Y-75352036D01*
X105362046Y-75223400D01*
X105362047Y-75223392D01*
X105362049Y-75223388D01*
X105392900Y-75028605D01*
X105392900Y-74870375D01*
X116387100Y-74870375D01*
X116387100Y-74989625D01*
X116417964Y-75104813D01*
X116417964Y-75104814D01*
X116477589Y-75208087D01*
X116561912Y-75292410D01*
X116621538Y-75326834D01*
X116665187Y-75352036D01*
X116780375Y-75382900D01*
X116780378Y-75382900D01*
X116899622Y-75382900D01*
X116899625Y-75382900D01*
X117014813Y-75352036D01*
X117118087Y-75292410D01*
X117202410Y-75208087D01*
X117262036Y-75104813D01*
X117292900Y-74989625D01*
X117292900Y-74870375D01*
X117282455Y-74831392D01*
X142257100Y-74831392D01*
X142257100Y-75028607D01*
X142287950Y-75223385D01*
X142287953Y-75223400D01*
X142348891Y-75410946D01*
X142438424Y-75586664D01*
X142554343Y-75746210D01*
X142554350Y-75746218D01*
X142693781Y-75885649D01*
X142693789Y-75885656D01*
X142693791Y-75885658D01*
X142781045Y-75949052D01*
X142853335Y-76001575D01*
X143029053Y-76091108D01*
X143216599Y-76152046D01*
X143216608Y-76152047D01*
X143216612Y-76152049D01*
X143411395Y-76182900D01*
X143411399Y-76182900D01*
X143608601Y-76182900D01*
X143608605Y-76182900D01*
X143803388Y-76152049D01*
X143803392Y-76152047D01*
X143803400Y-76152046D01*
X143941157Y-76107285D01*
X143990947Y-76091108D01*
X144166663Y-76001576D01*
X144326209Y-75885658D01*
X144465658Y-75746209D01*
X144581576Y-75586663D01*
X144671108Y-75410947D01*
X144690249Y-75352036D01*
X144732046Y-75223400D01*
X144732047Y-75223392D01*
X144732049Y-75223388D01*
X144762900Y-75028605D01*
X144762900Y-74831395D01*
X144732049Y-74636612D01*
X144732047Y-74636608D01*
X144732046Y-74636599D01*
X144671108Y-74449053D01*
X144581575Y-74273335D01*
X144529052Y-74201045D01*
X144465658Y-74113791D01*
X144465656Y-74113789D01*
X144465649Y-74113781D01*
X144326218Y-73974350D01*
X144326210Y-73974343D01*
X144166664Y-73858424D01*
X143990946Y-73768891D01*
X143803400Y-73707953D01*
X143803385Y-73707950D01*
X143608607Y-73677100D01*
X143608605Y-73677100D01*
X143411395Y-73677100D01*
X143411392Y-73677100D01*
X143216614Y-73707950D01*
X143216599Y-73707953D01*
X143029053Y-73768891D01*
X142853335Y-73858424D01*
X142693789Y-73974343D01*
X142693781Y-73974350D01*
X142554350Y-74113781D01*
X142554343Y-74113789D01*
X142438424Y-74273335D01*
X142348891Y-74449053D01*
X142287953Y-74636599D01*
X142287950Y-74636614D01*
X142257100Y-74831392D01*
X117282455Y-74831392D01*
X117262036Y-74755187D01*
X117262035Y-74755185D01*
X117202410Y-74651912D01*
X117118087Y-74567589D01*
X117014813Y-74507964D01*
X116983545Y-74499586D01*
X116899625Y-74477100D01*
X116780375Y-74477100D01*
X116696455Y-74499586D01*
X116665186Y-74507964D01*
X116665185Y-74507964D01*
X116561912Y-74567589D01*
X116477589Y-74651912D01*
X116417964Y-74755185D01*
X116417964Y-74755186D01*
X116417964Y-74755187D01*
X116387100Y-74870375D01*
X105392900Y-74870375D01*
X105392900Y-74831395D01*
X105362049Y-74636612D01*
X105362047Y-74636608D01*
X105362046Y-74636599D01*
X105301108Y-74449053D01*
X105211575Y-74273335D01*
X105159052Y-74201045D01*
X105095658Y-74113791D01*
X105095656Y-74113789D01*
X105095649Y-74113781D01*
X104956218Y-73974350D01*
X104956210Y-73974343D01*
X104796664Y-73858424D01*
X104620946Y-73768891D01*
X104433400Y-73707953D01*
X104433385Y-73707950D01*
X104238607Y-73677100D01*
X104238605Y-73677100D01*
X104041395Y-73677100D01*
X104041392Y-73677100D01*
X103846614Y-73707950D01*
X103846599Y-73707953D01*
X103659053Y-73768891D01*
X103483335Y-73858424D01*
X103323789Y-73974343D01*
X103323781Y-73974350D01*
X103184350Y-74113781D01*
X103184343Y-74113789D01*
X103068424Y-74273335D01*
X102978891Y-74449053D01*
X102917953Y-74636599D01*
X102917950Y-74636614D01*
X102887100Y-74831392D01*
X101631465Y-74831392D01*
X101631918Y-74823899D01*
X101631918Y-74823898D01*
X101634215Y-74785925D01*
X101643560Y-74631438D01*
X101644652Y-74622443D01*
X101697749Y-74332701D01*
X101699915Y-74323914D01*
X101787549Y-74042684D01*
X101790768Y-74034199D01*
X101817707Y-73974343D01*
X101911657Y-73765593D01*
X101915867Y-73757571D01*
X102068261Y-73505481D01*
X102073409Y-73498023D01*
X102255072Y-73266148D01*
X102261080Y-73259367D01*
X102469367Y-73051080D01*
X102476148Y-73045072D01*
X102708023Y-72863409D01*
X102715481Y-72858261D01*
X102967571Y-72705867D01*
X102975593Y-72701657D01*
X103244204Y-72580765D01*
X103252684Y-72577549D01*
X103533914Y-72489915D01*
X103542701Y-72487749D01*
X103832443Y-72434652D01*
X103841438Y-72433560D01*
X104113440Y-72417106D01*
X104137736Y-72415637D01*
X104142276Y-72415500D01*
X104148285Y-72415500D01*
X143501715Y-72415500D01*
X143507724Y-72415500D01*
X143512264Y-72415637D01*
G37*
G04 #@! TD.AperFunction*
G04 #@! TD*
M02*
