G04 #@! TF.GenerationSoftware,KiCad,Pcbnew,9.0.2+dfsg-1*
G04 #@! TF.CreationDate,2025-08-10T10:43:45+08:00*
G04 #@! TF.ProjectId,stlink,73746c69-6e6b-42e6-9b69-6361645f7063,a*
G04 #@! TF.SameCoordinates,Original*
G04 #@! TF.FileFunction,Copper,L2,Inr*
G04 #@! TF.FilePolarity,Positive*
%FSLAX46Y46*%
G04 Gerber Fmt 4.6, Leading zero omitted, Abs format (unit mm)*
G04 Created by KiCad (PCBNEW 9.0.2+dfsg-1) date 2025-08-10 10:43:45*
%MOMM*%
%LPD*%
G01*
G04 APERTURE LIST*
G04 #@! TA.AperFunction,ComponentPad*
%ADD10O,2.100000X1.000000*%
G04 #@! TD*
G04 #@! TA.AperFunction,ComponentPad*
%ADD11O,1.600000X1.000000*%
G04 #@! TD*
G04 #@! TA.AperFunction,ViaPad*
%ADD12C,0.600000*%
G04 #@! TD*
G04 APERTURE END LIST*
D10*
G04 #@! TO.N,GND*
G04 #@! TO.C,J1*
X108540000Y-84580000D03*
D11*
X104360000Y-84580000D03*
D10*
X108540000Y-93220000D03*
D11*
X104360000Y-93220000D03*
G04 #@! TD*
D12*
G04 #@! TO.N,GND*
X114300000Y-76200000D03*
X107315000Y-89535000D03*
X114300000Y-78740000D03*
X107315000Y-88265000D03*
X114300000Y-74930000D03*
G04 #@! TO.N,+3V3*
X116840000Y-77470000D03*
X114300000Y-80010000D03*
X116205000Y-102235000D03*
X116840000Y-78740000D03*
X116840000Y-74930000D03*
X141605000Y-82550000D03*
X116840000Y-76200000D03*
X112395000Y-95250000D03*
X116840000Y-80010000D03*
G04 #@! TO.N,T_DIO*
X138430000Y-88900000D03*
X122555000Y-87630000D03*
G04 #@! TO.N,T_CLK*
X121920000Y-86360000D03*
X130810000Y-88900000D03*
G04 #@! TO.N,T_RX*
X137795000Y-83820000D03*
X124460000Y-84455000D03*
G04 #@! TO.N,T_TX*
X137160000Y-85090000D03*
X125095000Y-85090000D03*
G04 #@! TO.N,T_RST*
X138430000Y-91440000D03*
X120650000Y-86360000D03*
G04 #@! TO.N,T_SWO*
X118745000Y-89535000D03*
X130810000Y-91440000D03*
G04 #@! TD*
G04 #@! TA.AperFunction,Conductor*
G04 #@! TO.N,+3V3*
G36*
X143512264Y-72415637D02*
G01*
X143539262Y-72417270D01*
X143808559Y-72433559D01*
X143817558Y-72434653D01*
X144107294Y-72487748D01*
X144116089Y-72489916D01*
X144397309Y-72577548D01*
X144405800Y-72580768D01*
X144674399Y-72701654D01*
X144682437Y-72705873D01*
X144934510Y-72858256D01*
X144941983Y-72863415D01*
X145173843Y-73045066D01*
X145180640Y-73051088D01*
X145388911Y-73259359D01*
X145394933Y-73266156D01*
X145576584Y-73498016D01*
X145581743Y-73505489D01*
X145734126Y-73757562D01*
X145738346Y-73765603D01*
X145859231Y-74034199D01*
X145862451Y-74042690D01*
X145950080Y-74323899D01*
X145952253Y-74332716D01*
X146005345Y-74622433D01*
X146006440Y-74631447D01*
X146024363Y-74927735D01*
X146024500Y-74932276D01*
X146024500Y-102867723D01*
X146024363Y-102872264D01*
X146006440Y-103168552D01*
X146005345Y-103177566D01*
X145952253Y-103467283D01*
X145950080Y-103476100D01*
X145862451Y-103757309D01*
X145859231Y-103765800D01*
X145738346Y-104034396D01*
X145734126Y-104042437D01*
X145581743Y-104294510D01*
X145576584Y-104301983D01*
X145394933Y-104533843D01*
X145388911Y-104540640D01*
X145180640Y-104748911D01*
X145173843Y-104754933D01*
X144941983Y-104936584D01*
X144934510Y-104941743D01*
X144682437Y-105094126D01*
X144674396Y-105098346D01*
X144405800Y-105219231D01*
X144397309Y-105222451D01*
X144116100Y-105310080D01*
X144107283Y-105312253D01*
X143817566Y-105365345D01*
X143808552Y-105366440D01*
X143512265Y-105384363D01*
X143507724Y-105384500D01*
X104142276Y-105384500D01*
X104137735Y-105384363D01*
X103841447Y-105366440D01*
X103832433Y-105365345D01*
X103542716Y-105312253D01*
X103533899Y-105310080D01*
X103252690Y-105222451D01*
X103244199Y-105219231D01*
X102975603Y-105098346D01*
X102967562Y-105094126D01*
X102715489Y-104941743D01*
X102708016Y-104936584D01*
X102476156Y-104754933D01*
X102469359Y-104748911D01*
X102261088Y-104540640D01*
X102255066Y-104533843D01*
X102073415Y-104301983D01*
X102068256Y-104294510D01*
X101915871Y-104042434D01*
X101911653Y-104034396D01*
X101790768Y-103765800D01*
X101787548Y-103757309D01*
X101765395Y-103686218D01*
X101699916Y-103476089D01*
X101697748Y-103467294D01*
X101644653Y-103177558D01*
X101643559Y-103168559D01*
X101625637Y-102872263D01*
X101625500Y-102867723D01*
X101625500Y-102771392D01*
X102887100Y-102771392D01*
X102887100Y-102968607D01*
X102917950Y-103163385D01*
X102917953Y-103163400D01*
X102978891Y-103350946D01*
X103068424Y-103526664D01*
X103184343Y-103686210D01*
X103184350Y-103686218D01*
X103323781Y-103825649D01*
X103323789Y-103825656D01*
X103323791Y-103825658D01*
X103361866Y-103853321D01*
X103483335Y-103941575D01*
X103659053Y-104031108D01*
X103846599Y-104092046D01*
X103846608Y-104092047D01*
X103846612Y-104092049D01*
X104041395Y-104122900D01*
X104041399Y-104122900D01*
X104238601Y-104122900D01*
X104238605Y-104122900D01*
X104433388Y-104092049D01*
X104433392Y-104092047D01*
X104433400Y-104092046D01*
X104571157Y-104047285D01*
X104620947Y-104031108D01*
X104796663Y-103941576D01*
X104956209Y-103825658D01*
X105095658Y-103686209D01*
X105211576Y-103526663D01*
X105301108Y-103350947D01*
X105317527Y-103300414D01*
X105362046Y-103163400D01*
X105362047Y-103163392D01*
X105362049Y-103163388D01*
X105392900Y-102968605D01*
X105392900Y-102771395D01*
X105392900Y-102771392D01*
X142257100Y-102771392D01*
X142257100Y-102968607D01*
X142287950Y-103163385D01*
X142287953Y-103163400D01*
X142348891Y-103350946D01*
X142438424Y-103526664D01*
X142554343Y-103686210D01*
X142554350Y-103686218D01*
X142693781Y-103825649D01*
X142693789Y-103825656D01*
X142693791Y-103825658D01*
X142731866Y-103853321D01*
X142853335Y-103941575D01*
X143029053Y-104031108D01*
X143216599Y-104092046D01*
X143216608Y-104092047D01*
X143216612Y-104092049D01*
X143411395Y-104122900D01*
X143411399Y-104122900D01*
X143608601Y-104122900D01*
X143608605Y-104122900D01*
X143803388Y-104092049D01*
X143803392Y-104092047D01*
X143803400Y-104092046D01*
X143941157Y-104047285D01*
X143990947Y-104031108D01*
X144166663Y-103941576D01*
X144326209Y-103825658D01*
X144465658Y-103686209D01*
X144581576Y-103526663D01*
X144671108Y-103350947D01*
X144687527Y-103300414D01*
X144732046Y-103163400D01*
X144732047Y-103163392D01*
X144732049Y-103163388D01*
X144762900Y-102968605D01*
X144762900Y-102771395D01*
X144732049Y-102576612D01*
X144732047Y-102576608D01*
X144732046Y-102576599D01*
X144671108Y-102389053D01*
X144581575Y-102213335D01*
X144529052Y-102141045D01*
X144465658Y-102053791D01*
X144465656Y-102053789D01*
X144465649Y-102053781D01*
X144326218Y-101914350D01*
X144326210Y-101914343D01*
X144166664Y-101798424D01*
X143990946Y-101708891D01*
X143803400Y-101647953D01*
X143803385Y-101647950D01*
X143608607Y-101617100D01*
X143608605Y-101617100D01*
X143411395Y-101617100D01*
X143411392Y-101617100D01*
X143216614Y-101647950D01*
X143216599Y-101647953D01*
X143029053Y-101708891D01*
X142853335Y-101798424D01*
X142693789Y-101914343D01*
X142693781Y-101914350D01*
X142554350Y-102053781D01*
X142554343Y-102053789D01*
X142438424Y-102213335D01*
X142348891Y-102389053D01*
X142287953Y-102576599D01*
X142287950Y-102576614D01*
X142257100Y-102771392D01*
X105392900Y-102771392D01*
X105362049Y-102576612D01*
X105362047Y-102576608D01*
X105362046Y-102576599D01*
X105301108Y-102389053D01*
X105211575Y-102213335D01*
X105159052Y-102141045D01*
X105095658Y-102053791D01*
X105095656Y-102053789D01*
X105095649Y-102053781D01*
X104956218Y-101914350D01*
X104956210Y-101914343D01*
X104796664Y-101798424D01*
X104620946Y-101708891D01*
X104433400Y-101647953D01*
X104433385Y-101647950D01*
X104238607Y-101617100D01*
X104238605Y-101617100D01*
X104041395Y-101617100D01*
X104041392Y-101617100D01*
X103846614Y-101647950D01*
X103846599Y-101647953D01*
X103659053Y-101708891D01*
X103483335Y-101798424D01*
X103323789Y-101914343D01*
X103323781Y-101914350D01*
X103184350Y-102053781D01*
X103184343Y-102053789D01*
X103068424Y-102213335D01*
X102978891Y-102389053D01*
X102917953Y-102576599D01*
X102917950Y-102576614D01*
X102887100Y-102771392D01*
X101625500Y-102771392D01*
X101625500Y-93155695D01*
X103407100Y-93155695D01*
X103407100Y-93284305D01*
X103432191Y-93410444D01*
X103481408Y-93529264D01*
X103552860Y-93636199D01*
X103552862Y-93636201D01*
X103552864Y-93636204D01*
X103643795Y-93727135D01*
X103643798Y-93727137D01*
X103643801Y-93727140D01*
X103750736Y-93798592D01*
X103869556Y-93847809D01*
X103945239Y-93862863D01*
X103995693Y-93872900D01*
X103995695Y-93872900D01*
X104724307Y-93872900D01*
X104766351Y-93864536D01*
X104850444Y-93847809D01*
X104969264Y-93798592D01*
X105076199Y-93727140D01*
X105167140Y-93636199D01*
X105238592Y-93529264D01*
X105287809Y-93410444D01*
X105312900Y-93284305D01*
X105312900Y-93155695D01*
X107337100Y-93155695D01*
X107337100Y-93284305D01*
X107362191Y-93410444D01*
X107411408Y-93529264D01*
X107482860Y-93636199D01*
X107482862Y-93636201D01*
X107482864Y-93636204D01*
X107573795Y-93727135D01*
X107573798Y-93727137D01*
X107573801Y-93727140D01*
X107680736Y-93798592D01*
X107799556Y-93847809D01*
X107875239Y-93862863D01*
X107925693Y-93872900D01*
X107925695Y-93872900D01*
X109154307Y-93872900D01*
X109196351Y-93864536D01*
X109280444Y-93847809D01*
X109399264Y-93798592D01*
X109506199Y-93727140D01*
X109597140Y-93636199D01*
X109668592Y-93529264D01*
X109717809Y-93410444D01*
X109742900Y-93284305D01*
X109742900Y-93155695D01*
X109717809Y-93029556D01*
X109668592Y-92910736D01*
X109597140Y-92803801D01*
X109597137Y-92803798D01*
X109597135Y-92803795D01*
X109506204Y-92712864D01*
X109506201Y-92712862D01*
X109506199Y-92712860D01*
X109399264Y-92641408D01*
X109280444Y-92592191D01*
X109280441Y-92592190D01*
X109280440Y-92592190D01*
X109154307Y-92567100D01*
X109154305Y-92567100D01*
X107925695Y-92567100D01*
X107925693Y-92567100D01*
X107799559Y-92592190D01*
X107799556Y-92592191D01*
X107680737Y-92641407D01*
X107573798Y-92712862D01*
X107573795Y-92712864D01*
X107482864Y-92803795D01*
X107482862Y-92803798D01*
X107411407Y-92910737D01*
X107362191Y-93029556D01*
X107337100Y-93155695D01*
X105312900Y-93155695D01*
X105287809Y-93029556D01*
X105238592Y-92910736D01*
X105167140Y-92803801D01*
X105167137Y-92803798D01*
X105167135Y-92803795D01*
X105076204Y-92712864D01*
X105076201Y-92712862D01*
X105076199Y-92712860D01*
X104969264Y-92641408D01*
X104850444Y-92592191D01*
X104850441Y-92592190D01*
X104850440Y-92592190D01*
X104724307Y-92567100D01*
X104724305Y-92567100D01*
X103995695Y-92567100D01*
X103995693Y-92567100D01*
X103869559Y-92592190D01*
X103869556Y-92592191D01*
X103750737Y-92641407D01*
X103643798Y-92712862D01*
X103643795Y-92712864D01*
X103552864Y-92803795D01*
X103552862Y-92803798D01*
X103481407Y-92910737D01*
X103432191Y-93029556D01*
X103407100Y-93155695D01*
X101625500Y-93155695D01*
X101625500Y-91727083D01*
X107532100Y-91727083D01*
X107532100Y-91852917D01*
X107564668Y-91974462D01*
X107564671Y-91974470D01*
X107627584Y-92083438D01*
X107716561Y-92172415D01*
X107825529Y-92235328D01*
X107825532Y-92235329D01*
X107825537Y-92235332D01*
X107947083Y-92267900D01*
X107947086Y-92267900D01*
X108072914Y-92267900D01*
X108072917Y-92267900D01*
X108194463Y-92235332D01*
X108303438Y-92172415D01*
X108392415Y-92083438D01*
X108455332Y-91974463D01*
X108487900Y-91852917D01*
X108487900Y-91727083D01*
X108455332Y-91605537D01*
X108455329Y-91605532D01*
X108455328Y-91605529D01*
X108392415Y-91496561D01*
X108303438Y-91407584D01*
X108256311Y-91380375D01*
X130357100Y-91380375D01*
X130357100Y-91499625D01*
X130385476Y-91605529D01*
X130387964Y-91614813D01*
X130387964Y-91614814D01*
X130447589Y-91718087D01*
X130531912Y-91802410D01*
X130591538Y-91836834D01*
X130635187Y-91862036D01*
X130750375Y-91892900D01*
X130750378Y-91892900D01*
X130869622Y-91892900D01*
X130869625Y-91892900D01*
X130984813Y-91862036D01*
X131088087Y-91802410D01*
X131172410Y-91718087D01*
X131232036Y-91614813D01*
X131262900Y-91499625D01*
X131262900Y-91380375D01*
X137977100Y-91380375D01*
X137977100Y-91499625D01*
X138005476Y-91605529D01*
X138007964Y-91614813D01*
X138007964Y-91614814D01*
X138067589Y-91718087D01*
X138151912Y-91802410D01*
X138211538Y-91836834D01*
X138255187Y-91862036D01*
X138370375Y-91892900D01*
X138370378Y-91892900D01*
X138489622Y-91892900D01*
X138489625Y-91892900D01*
X138604813Y-91862036D01*
X138708087Y-91802410D01*
X138792410Y-91718087D01*
X138852036Y-91614813D01*
X138882900Y-91499625D01*
X138882900Y-91380375D01*
X138852036Y-91265187D01*
X138852035Y-91265185D01*
X138792410Y-91161912D01*
X138708087Y-91077589D01*
X138604813Y-91017964D01*
X138489625Y-90987100D01*
X138370375Y-90987100D01*
X138283984Y-91010248D01*
X138255186Y-91017964D01*
X138255185Y-91017964D01*
X138151912Y-91077589D01*
X138067589Y-91161912D01*
X138007964Y-91265185D01*
X138007964Y-91265186D01*
X138007964Y-91265187D01*
X137977100Y-91380375D01*
X131262900Y-91380375D01*
X131232036Y-91265187D01*
X131232035Y-91265185D01*
X131172410Y-91161912D01*
X131088087Y-91077589D01*
X130984813Y-91017964D01*
X130869625Y-90987100D01*
X130750375Y-90987100D01*
X130663984Y-91010248D01*
X130635186Y-91017964D01*
X130635185Y-91017964D01*
X130531912Y-91077589D01*
X130447589Y-91161912D01*
X130387964Y-91265185D01*
X130387964Y-91265186D01*
X130387964Y-91265187D01*
X130357100Y-91380375D01*
X108256311Y-91380375D01*
X108194470Y-91344671D01*
X108194464Y-91344669D01*
X108194463Y-91344668D01*
X108072917Y-91312100D01*
X107947083Y-91312100D01*
X107825537Y-91344668D01*
X107825529Y-91344671D01*
X107716561Y-91407584D01*
X107627584Y-91496561D01*
X107564671Y-91605529D01*
X107564668Y-91605537D01*
X107532100Y-91727083D01*
X101625500Y-91727083D01*
X101625500Y-89475375D01*
X106862100Y-89475375D01*
X106862100Y-89594625D01*
X106892964Y-89709813D01*
X106892964Y-89709814D01*
X106952589Y-89813087D01*
X107036912Y-89897410D01*
X107096538Y-89931834D01*
X107140187Y-89957036D01*
X107255375Y-89987900D01*
X107255378Y-89987900D01*
X107374622Y-89987900D01*
X107374625Y-89987900D01*
X107489813Y-89957036D01*
X107593087Y-89897410D01*
X107677410Y-89813087D01*
X107737036Y-89709813D01*
X107767900Y-89594625D01*
X107767900Y-89475375D01*
X118292100Y-89475375D01*
X118292100Y-89594625D01*
X118322964Y-89709813D01*
X118322964Y-89709814D01*
X118382589Y-89813087D01*
X118466912Y-89897410D01*
X118526538Y-89931834D01*
X118570187Y-89957036D01*
X118685375Y-89987900D01*
X118685378Y-89987900D01*
X118804622Y-89987900D01*
X118804625Y-89987900D01*
X118919813Y-89957036D01*
X119023087Y-89897410D01*
X119107410Y-89813087D01*
X119167036Y-89709813D01*
X119197900Y-89594625D01*
X119197900Y-89475375D01*
X119167036Y-89360187D01*
X119162829Y-89352900D01*
X119107410Y-89256912D01*
X119023087Y-89172589D01*
X118919813Y-89112964D01*
X118804625Y-89082100D01*
X118685375Y-89082100D01*
X118598984Y-89105248D01*
X118570186Y-89112964D01*
X118570185Y-89112964D01*
X118466912Y-89172589D01*
X118382589Y-89256912D01*
X118322964Y-89360185D01*
X118322964Y-89360186D01*
X118322964Y-89360187D01*
X118292100Y-89475375D01*
X107767900Y-89475375D01*
X107737036Y-89360187D01*
X107732829Y-89352900D01*
X107677410Y-89256912D01*
X107593087Y-89172589D01*
X107489813Y-89112964D01*
X107374625Y-89082100D01*
X107255375Y-89082100D01*
X107168984Y-89105248D01*
X107140186Y-89112964D01*
X107140185Y-89112964D01*
X107036912Y-89172589D01*
X106952589Y-89256912D01*
X106892964Y-89360185D01*
X106892964Y-89360186D01*
X106892964Y-89360187D01*
X106862100Y-89475375D01*
X101625500Y-89475375D01*
X101625500Y-88840375D01*
X130357100Y-88840375D01*
X130357100Y-88959625D01*
X130387964Y-89074813D01*
X130387964Y-89074814D01*
X130447589Y-89178087D01*
X130531912Y-89262410D01*
X130591538Y-89296834D01*
X130635187Y-89322036D01*
X130750375Y-89352900D01*
X130750378Y-89352900D01*
X130869622Y-89352900D01*
X130869625Y-89352900D01*
X130984813Y-89322036D01*
X131088087Y-89262410D01*
X131172410Y-89178087D01*
X131232036Y-89074813D01*
X131262900Y-88959625D01*
X131262900Y-88840375D01*
X137977100Y-88840375D01*
X137977100Y-88959625D01*
X138007964Y-89074813D01*
X138007964Y-89074814D01*
X138067589Y-89178087D01*
X138151912Y-89262410D01*
X138211538Y-89296834D01*
X138255187Y-89322036D01*
X138370375Y-89352900D01*
X138370378Y-89352900D01*
X138489622Y-89352900D01*
X138489625Y-89352900D01*
X138604813Y-89322036D01*
X138708087Y-89262410D01*
X138792410Y-89178087D01*
X138852036Y-89074813D01*
X138882900Y-88959625D01*
X138882900Y-88840375D01*
X138852036Y-88725187D01*
X138847829Y-88717900D01*
X138792410Y-88621912D01*
X138708087Y-88537589D01*
X138604813Y-88477964D01*
X138489625Y-88447100D01*
X138370375Y-88447100D01*
X138283984Y-88470248D01*
X138255186Y-88477964D01*
X138255185Y-88477964D01*
X138151912Y-88537589D01*
X138067589Y-88621912D01*
X138007964Y-88725185D01*
X138007964Y-88725186D01*
X138007964Y-88725187D01*
X137977100Y-88840375D01*
X131262900Y-88840375D01*
X131232036Y-88725187D01*
X131227829Y-88717900D01*
X131172410Y-88621912D01*
X131088087Y-88537589D01*
X130984813Y-88477964D01*
X130869625Y-88447100D01*
X130750375Y-88447100D01*
X130663984Y-88470248D01*
X130635186Y-88477964D01*
X130635185Y-88477964D01*
X130531912Y-88537589D01*
X130447589Y-88621912D01*
X130387964Y-88725185D01*
X130387964Y-88725186D01*
X130387964Y-88725187D01*
X130357100Y-88840375D01*
X101625500Y-88840375D01*
X101625500Y-88205375D01*
X106862100Y-88205375D01*
X106862100Y-88324625D01*
X106892964Y-88439813D01*
X106892964Y-88439814D01*
X106952589Y-88543087D01*
X107036912Y-88627410D01*
X107096538Y-88661834D01*
X107140187Y-88687036D01*
X107255375Y-88717900D01*
X107255378Y-88717900D01*
X107374622Y-88717900D01*
X107374625Y-88717900D01*
X107489813Y-88687036D01*
X107593087Y-88627410D01*
X107677410Y-88543087D01*
X107737036Y-88439813D01*
X107767900Y-88324625D01*
X107767900Y-88205375D01*
X107737036Y-88090187D01*
X107732829Y-88082900D01*
X107677410Y-87986912D01*
X107593087Y-87902589D01*
X107489813Y-87842964D01*
X107374625Y-87812100D01*
X107255375Y-87812100D01*
X107168984Y-87835248D01*
X107140186Y-87842964D01*
X107140185Y-87842964D01*
X107036912Y-87902589D01*
X106952589Y-87986912D01*
X106892964Y-88090185D01*
X106892964Y-88090186D01*
X106892964Y-88090187D01*
X106862100Y-88205375D01*
X101625500Y-88205375D01*
X101625500Y-87570375D01*
X122102100Y-87570375D01*
X122102100Y-87689625D01*
X122132964Y-87804813D01*
X122132964Y-87804814D01*
X122192589Y-87908087D01*
X122276912Y-87992410D01*
X122336538Y-88026834D01*
X122380187Y-88052036D01*
X122495375Y-88082900D01*
X122495378Y-88082900D01*
X122614622Y-88082900D01*
X122614625Y-88082900D01*
X122729813Y-88052036D01*
X122833087Y-87992410D01*
X122917410Y-87908087D01*
X122977036Y-87804813D01*
X123007900Y-87689625D01*
X123007900Y-87570375D01*
X122977036Y-87455187D01*
X122977035Y-87455185D01*
X122917410Y-87351912D01*
X122833087Y-87267589D01*
X122729813Y-87207964D01*
X122614625Y-87177100D01*
X122495375Y-87177100D01*
X122408984Y-87200248D01*
X122380186Y-87207964D01*
X122380185Y-87207964D01*
X122276912Y-87267589D01*
X122192589Y-87351912D01*
X122132964Y-87455185D01*
X122132964Y-87455186D01*
X122132964Y-87455187D01*
X122102100Y-87570375D01*
X101625500Y-87570375D01*
X101625500Y-85947083D01*
X107532100Y-85947083D01*
X107532100Y-86072917D01*
X107562183Y-86185187D01*
X107564668Y-86194462D01*
X107564671Y-86194470D01*
X107627584Y-86303438D01*
X107716561Y-86392415D01*
X107825529Y-86455328D01*
X107825532Y-86455329D01*
X107825537Y-86455332D01*
X107947083Y-86487900D01*
X107947086Y-86487900D01*
X108072914Y-86487900D01*
X108072917Y-86487900D01*
X108194463Y-86455332D01*
X108303438Y-86392415D01*
X108392415Y-86303438D01*
X108394183Y-86300375D01*
X120197100Y-86300375D01*
X120197100Y-86419625D01*
X120215394Y-86487900D01*
X120227964Y-86534813D01*
X120227964Y-86534814D01*
X120287589Y-86638087D01*
X120371912Y-86722410D01*
X120431538Y-86756834D01*
X120475187Y-86782036D01*
X120590375Y-86812900D01*
X120590378Y-86812900D01*
X120709622Y-86812900D01*
X120709625Y-86812900D01*
X120824813Y-86782036D01*
X120928087Y-86722410D01*
X121012410Y-86638087D01*
X121072036Y-86534813D01*
X121102900Y-86419625D01*
X121102900Y-86300375D01*
X121467100Y-86300375D01*
X121467100Y-86419625D01*
X121485394Y-86487900D01*
X121497964Y-86534813D01*
X121497964Y-86534814D01*
X121557589Y-86638087D01*
X121641912Y-86722410D01*
X121701538Y-86756834D01*
X121745187Y-86782036D01*
X121860375Y-86812900D01*
X121860378Y-86812900D01*
X121979622Y-86812900D01*
X121979625Y-86812900D01*
X122094813Y-86782036D01*
X122198087Y-86722410D01*
X122282410Y-86638087D01*
X122342036Y-86534813D01*
X122372900Y-86419625D01*
X122372900Y-86300375D01*
X122342036Y-86185187D01*
X122342035Y-86185185D01*
X122282410Y-86081912D01*
X122198087Y-85997589D01*
X122094813Y-85937964D01*
X121979625Y-85907100D01*
X121860375Y-85907100D01*
X121773984Y-85930248D01*
X121745186Y-85937964D01*
X121745185Y-85937964D01*
X121641912Y-85997589D01*
X121557589Y-86081912D01*
X121497964Y-86185185D01*
X121497964Y-86185186D01*
X121487676Y-86223583D01*
X121467100Y-86300375D01*
X121102900Y-86300375D01*
X121072036Y-86185187D01*
X121072035Y-86185185D01*
X121012410Y-86081912D01*
X120928087Y-85997589D01*
X120824813Y-85937964D01*
X120709625Y-85907100D01*
X120590375Y-85907100D01*
X120503984Y-85930248D01*
X120475186Y-85937964D01*
X120475185Y-85937964D01*
X120371912Y-85997589D01*
X120287589Y-86081912D01*
X120227964Y-86185185D01*
X120227964Y-86185186D01*
X120217676Y-86223583D01*
X120197100Y-86300375D01*
X108394183Y-86300375D01*
X108455332Y-86194463D01*
X108487900Y-86072917D01*
X108487900Y-85947083D01*
X108455332Y-85825537D01*
X108455329Y-85825532D01*
X108455328Y-85825529D01*
X108392415Y-85716561D01*
X108303438Y-85627584D01*
X108194470Y-85564671D01*
X108194464Y-85564669D01*
X108194463Y-85564668D01*
X108072917Y-85532100D01*
X107947083Y-85532100D01*
X107825537Y-85564668D01*
X107825529Y-85564671D01*
X107716561Y-85627584D01*
X107627584Y-85716561D01*
X107564671Y-85825529D01*
X107564668Y-85825537D01*
X107532100Y-85947083D01*
X101625500Y-85947083D01*
X101625500Y-84515693D01*
X103407100Y-84515693D01*
X103407100Y-84644306D01*
X103432190Y-84770440D01*
X103432191Y-84770443D01*
X103476342Y-84877035D01*
X103481408Y-84889264D01*
X103552860Y-84996199D01*
X103552862Y-84996201D01*
X103552864Y-84996204D01*
X103643795Y-85087135D01*
X103643798Y-85087137D01*
X103643801Y-85087140D01*
X103750736Y-85158592D01*
X103869556Y-85207809D01*
X103945239Y-85222863D01*
X103995693Y-85232900D01*
X103995695Y-85232900D01*
X104724307Y-85232900D01*
X104766351Y-85224536D01*
X104850444Y-85207809D01*
X104969264Y-85158592D01*
X105076199Y-85087140D01*
X105167140Y-84996199D01*
X105238592Y-84889264D01*
X105287809Y-84770444D01*
X105312900Y-84644305D01*
X105312900Y-84515695D01*
X105312900Y-84515693D01*
X107337100Y-84515693D01*
X107337100Y-84644306D01*
X107362190Y-84770440D01*
X107362191Y-84770443D01*
X107406342Y-84877035D01*
X107411408Y-84889264D01*
X107482860Y-84996199D01*
X107482862Y-84996201D01*
X107482864Y-84996204D01*
X107573795Y-85087135D01*
X107573798Y-85087137D01*
X107573801Y-85087140D01*
X107680736Y-85158592D01*
X107799556Y-85207809D01*
X107875239Y-85222863D01*
X107925693Y-85232900D01*
X107925695Y-85232900D01*
X109154307Y-85232900D01*
X109196351Y-85224536D01*
X109280444Y-85207809D01*
X109399264Y-85158592D01*
X109506199Y-85087140D01*
X109597140Y-84996199D01*
X109668592Y-84889264D01*
X109717809Y-84770444D01*
X109742900Y-84644305D01*
X109742900Y-84515695D01*
X109742687Y-84514625D01*
X109720904Y-84405117D01*
X109718966Y-84395375D01*
X124007100Y-84395375D01*
X124007100Y-84514625D01*
X124031948Y-84607360D01*
X124037964Y-84629813D01*
X124037964Y-84629814D01*
X124097589Y-84733087D01*
X124181912Y-84817410D01*
X124241538Y-84851834D01*
X124285187Y-84877036D01*
X124400375Y-84907900D01*
X124400378Y-84907900D01*
X124519625Y-84907900D01*
X124561118Y-84896782D01*
X124612360Y-84901264D01*
X124648734Y-84937637D01*
X124653218Y-84988881D01*
X124642100Y-85030375D01*
X124642100Y-85149625D01*
X124644503Y-85158592D01*
X124672964Y-85264813D01*
X124672964Y-85264814D01*
X124732589Y-85368087D01*
X124816912Y-85452410D01*
X124876538Y-85486834D01*
X124920187Y-85512036D01*
X125035375Y-85542900D01*
X125035378Y-85542900D01*
X125154622Y-85542900D01*
X125154625Y-85542900D01*
X125269813Y-85512036D01*
X125373087Y-85452410D01*
X125457410Y-85368087D01*
X125517036Y-85264813D01*
X125547900Y-85149625D01*
X125547900Y-85030375D01*
X136707100Y-85030375D01*
X136707100Y-85149625D01*
X136709503Y-85158592D01*
X136737964Y-85264813D01*
X136737964Y-85264814D01*
X136797589Y-85368087D01*
X136881912Y-85452410D01*
X136941538Y-85486834D01*
X136985187Y-85512036D01*
X137100375Y-85542900D01*
X137100378Y-85542900D01*
X137219622Y-85542900D01*
X137219625Y-85542900D01*
X137334813Y-85512036D01*
X137438087Y-85452410D01*
X137522410Y-85368087D01*
X137582036Y-85264813D01*
X137612900Y-85149625D01*
X137612900Y-85030375D01*
X137582036Y-84915187D01*
X137577829Y-84907900D01*
X137522410Y-84811912D01*
X137438087Y-84727589D01*
X137334813Y-84667964D01*
X137219625Y-84637100D01*
X137100375Y-84637100D01*
X137013984Y-84660248D01*
X136985186Y-84667964D01*
X136985185Y-84667964D01*
X136881912Y-84727589D01*
X136797589Y-84811912D01*
X136737964Y-84915185D01*
X136737964Y-84915186D01*
X136737964Y-84915187D01*
X136707100Y-85030375D01*
X125547900Y-85030375D01*
X125517036Y-84915187D01*
X125512829Y-84907900D01*
X125457410Y-84811912D01*
X125373087Y-84727589D01*
X125269813Y-84667964D01*
X125154625Y-84637100D01*
X125035375Y-84637100D01*
X124993881Y-84648218D01*
X124942637Y-84643734D01*
X124906264Y-84607360D01*
X124901782Y-84556118D01*
X124912900Y-84514625D01*
X124912900Y-84395375D01*
X124882036Y-84280187D01*
X124876580Y-84270737D01*
X124822410Y-84176912D01*
X124738087Y-84092589D01*
X124634813Y-84032964D01*
X124519625Y-84002100D01*
X124400375Y-84002100D01*
X124313984Y-84025248D01*
X124285186Y-84032964D01*
X124285185Y-84032964D01*
X124181912Y-84092589D01*
X124097589Y-84176912D01*
X124037964Y-84280185D01*
X124037964Y-84280186D01*
X124037964Y-84280187D01*
X124007100Y-84395375D01*
X109718966Y-84395375D01*
X109717809Y-84389556D01*
X109668592Y-84270736D01*
X109597140Y-84163801D01*
X109597137Y-84163798D01*
X109597135Y-84163795D01*
X109506204Y-84072864D01*
X109506201Y-84072862D01*
X109506199Y-84072860D01*
X109399264Y-84001408D01*
X109383342Y-83994813D01*
X109364461Y-83986992D01*
X109280444Y-83952191D01*
X109280441Y-83952190D01*
X109280440Y-83952190D01*
X109154307Y-83927100D01*
X109154305Y-83927100D01*
X107925695Y-83927100D01*
X107925693Y-83927100D01*
X107799559Y-83952190D01*
X107799556Y-83952191D01*
X107680737Y-84001407D01*
X107573798Y-84072862D01*
X107573795Y-84072864D01*
X107482864Y-84163795D01*
X107482862Y-84163798D01*
X107411407Y-84270737D01*
X107362191Y-84389556D01*
X107362190Y-84389559D01*
X107337100Y-84515693D01*
X105312900Y-84515693D01*
X105312687Y-84514625D01*
X105290904Y-84405117D01*
X105287809Y-84389556D01*
X105238592Y-84270736D01*
X105167140Y-84163801D01*
X105167137Y-84163798D01*
X105167135Y-84163795D01*
X105076204Y-84072864D01*
X105076201Y-84072862D01*
X105076199Y-84072860D01*
X104969264Y-84001408D01*
X104953342Y-83994813D01*
X104934461Y-83986992D01*
X104850444Y-83952191D01*
X104850441Y-83952190D01*
X104850440Y-83952190D01*
X104724307Y-83927100D01*
X104724305Y-83927100D01*
X103995695Y-83927100D01*
X103995693Y-83927100D01*
X103869559Y-83952190D01*
X103869556Y-83952191D01*
X103750737Y-84001407D01*
X103643798Y-84072862D01*
X103643795Y-84072864D01*
X103552864Y-84163795D01*
X103552862Y-84163798D01*
X103481407Y-84270737D01*
X103432191Y-84389556D01*
X103432190Y-84389559D01*
X103407100Y-84515693D01*
X101625500Y-84515693D01*
X101625500Y-83760375D01*
X137342100Y-83760375D01*
X137342100Y-83879625D01*
X137361544Y-83952191D01*
X137372964Y-83994813D01*
X137372964Y-83994814D01*
X137432589Y-84098087D01*
X137516912Y-84182410D01*
X137576538Y-84216834D01*
X137620187Y-84242036D01*
X137735375Y-84272900D01*
X137735378Y-84272900D01*
X137854622Y-84272900D01*
X137854625Y-84272900D01*
X137969813Y-84242036D01*
X138073087Y-84182410D01*
X138157410Y-84098087D01*
X138217036Y-83994813D01*
X138247900Y-83879625D01*
X138247900Y-83760375D01*
X138217036Y-83645187D01*
X138217035Y-83645185D01*
X138157410Y-83541912D01*
X138073087Y-83457589D01*
X137969813Y-83397964D01*
X137854625Y-83367100D01*
X137735375Y-83367100D01*
X137648984Y-83390248D01*
X137620186Y-83397964D01*
X137620185Y-83397964D01*
X137516912Y-83457589D01*
X137432589Y-83541912D01*
X137372964Y-83645185D01*
X137372964Y-83645186D01*
X137372964Y-83645187D01*
X137342100Y-83760375D01*
X101625500Y-83760375D01*
X101625500Y-78680375D01*
X113847100Y-78680375D01*
X113847100Y-78799625D01*
X113877964Y-78914813D01*
X113877964Y-78914814D01*
X113937589Y-79018087D01*
X114021912Y-79102410D01*
X114081538Y-79136834D01*
X114125187Y-79162036D01*
X114240375Y-79192900D01*
X114240378Y-79192900D01*
X114359622Y-79192900D01*
X114359625Y-79192900D01*
X114474813Y-79162036D01*
X114578087Y-79102410D01*
X114662410Y-79018087D01*
X114722036Y-78914813D01*
X114752900Y-78799625D01*
X114752900Y-78680375D01*
X114722036Y-78565187D01*
X114722035Y-78565185D01*
X114662410Y-78461912D01*
X114578087Y-78377589D01*
X114474813Y-78317964D01*
X114359625Y-78287100D01*
X114240375Y-78287100D01*
X114153984Y-78310248D01*
X114125186Y-78317964D01*
X114125185Y-78317964D01*
X114021912Y-78377589D01*
X113937589Y-78461912D01*
X113877964Y-78565185D01*
X113877964Y-78565186D01*
X113877964Y-78565187D01*
X113847100Y-78680375D01*
X101625500Y-78680375D01*
X101625500Y-74932276D01*
X101625637Y-74927735D01*
X101631465Y-74831392D01*
X102887100Y-74831392D01*
X102887100Y-75028607D01*
X102917950Y-75223385D01*
X102917953Y-75223400D01*
X102978891Y-75410946D01*
X103068424Y-75586664D01*
X103184343Y-75746210D01*
X103184350Y-75746218D01*
X103323781Y-75885649D01*
X103323789Y-75885656D01*
X103323791Y-75885658D01*
X103411045Y-75949052D01*
X103483335Y-76001575D01*
X103659053Y-76091108D01*
X103846599Y-76152046D01*
X103846608Y-76152047D01*
X103846612Y-76152049D01*
X104041395Y-76182900D01*
X104041399Y-76182900D01*
X104238601Y-76182900D01*
X104238605Y-76182900D01*
X104433388Y-76152049D01*
X104433392Y-76152047D01*
X104433400Y-76152046D01*
X104469319Y-76140375D01*
X113847100Y-76140375D01*
X113847100Y-76259625D01*
X113877964Y-76374813D01*
X113877964Y-76374814D01*
X113937589Y-76478087D01*
X114021912Y-76562410D01*
X114081538Y-76596834D01*
X114125187Y-76622036D01*
X114240375Y-76652900D01*
X114240378Y-76652900D01*
X114359622Y-76652900D01*
X114359625Y-76652900D01*
X114474813Y-76622036D01*
X114578087Y-76562410D01*
X114662410Y-76478087D01*
X114722036Y-76374813D01*
X114752900Y-76259625D01*
X114752900Y-76140375D01*
X114722036Y-76025187D01*
X114708404Y-76001576D01*
X114662410Y-75921912D01*
X114578087Y-75837589D01*
X114474813Y-75777964D01*
X114359625Y-75747100D01*
X114240375Y-75747100D01*
X114153984Y-75770248D01*
X114125186Y-75777964D01*
X114125185Y-75777964D01*
X114021912Y-75837589D01*
X113937589Y-75921912D01*
X113877964Y-76025185D01*
X113877964Y-76025186D01*
X113877964Y-76025187D01*
X113847100Y-76140375D01*
X104469319Y-76140375D01*
X104571157Y-76107285D01*
X104620947Y-76091108D01*
X104796663Y-76001576D01*
X104956209Y-75885658D01*
X105095658Y-75746209D01*
X105211576Y-75586663D01*
X105301108Y-75410947D01*
X105320249Y-75352036D01*
X105362046Y-75223400D01*
X105362047Y-75223392D01*
X105362049Y-75223388D01*
X105392900Y-75028605D01*
X105392900Y-74870375D01*
X113847100Y-74870375D01*
X113847100Y-74989625D01*
X113877964Y-75104813D01*
X113877964Y-75104814D01*
X113937589Y-75208087D01*
X114021912Y-75292410D01*
X114081538Y-75326834D01*
X114125187Y-75352036D01*
X114240375Y-75382900D01*
X114240378Y-75382900D01*
X114359622Y-75382900D01*
X114359625Y-75382900D01*
X114474813Y-75352036D01*
X114578087Y-75292410D01*
X114662410Y-75208087D01*
X114722036Y-75104813D01*
X114752900Y-74989625D01*
X114752900Y-74870375D01*
X114742455Y-74831392D01*
X142257100Y-74831392D01*
X142257100Y-75028607D01*
X142287950Y-75223385D01*
X142287953Y-75223400D01*
X142348891Y-75410946D01*
X142438424Y-75586664D01*
X142554343Y-75746210D01*
X142554350Y-75746218D01*
X142693781Y-75885649D01*
X142693789Y-75885656D01*
X142693791Y-75885658D01*
X142781045Y-75949052D01*
X142853335Y-76001575D01*
X143029053Y-76091108D01*
X143216599Y-76152046D01*
X143216608Y-76152047D01*
X143216612Y-76152049D01*
X143411395Y-76182900D01*
X143411399Y-76182900D01*
X143608601Y-76182900D01*
X143608605Y-76182900D01*
X143803388Y-76152049D01*
X143803392Y-76152047D01*
X143803400Y-76152046D01*
X143941157Y-76107285D01*
X143990947Y-76091108D01*
X144166663Y-76001576D01*
X144326209Y-75885658D01*
X144465658Y-75746209D01*
X144581576Y-75586663D01*
X144671108Y-75410947D01*
X144690249Y-75352036D01*
X144732046Y-75223400D01*
X144732047Y-75223392D01*
X144732049Y-75223388D01*
X144762900Y-75028605D01*
X144762900Y-74831395D01*
X144732049Y-74636612D01*
X144732047Y-74636608D01*
X144732046Y-74636599D01*
X144671108Y-74449053D01*
X144581575Y-74273335D01*
X144529052Y-74201045D01*
X144465658Y-74113791D01*
X144465656Y-74113789D01*
X144465649Y-74113781D01*
X144326218Y-73974350D01*
X144326210Y-73974343D01*
X144166664Y-73858424D01*
X143990946Y-73768891D01*
X143803400Y-73707953D01*
X143803385Y-73707950D01*
X143608607Y-73677100D01*
X143608605Y-73677100D01*
X143411395Y-73677100D01*
X143411392Y-73677100D01*
X143216614Y-73707950D01*
X143216599Y-73707953D01*
X143029053Y-73768891D01*
X142853335Y-73858424D01*
X142693789Y-73974343D01*
X142693781Y-73974350D01*
X142554350Y-74113781D01*
X142554343Y-74113789D01*
X142438424Y-74273335D01*
X142348891Y-74449053D01*
X142287953Y-74636599D01*
X142287950Y-74636614D01*
X142257100Y-74831392D01*
X114742455Y-74831392D01*
X114722036Y-74755187D01*
X114722035Y-74755185D01*
X114662410Y-74651912D01*
X114578087Y-74567589D01*
X114474813Y-74507964D01*
X114443545Y-74499586D01*
X114359625Y-74477100D01*
X114240375Y-74477100D01*
X114156455Y-74499586D01*
X114125186Y-74507964D01*
X114125185Y-74507964D01*
X114021912Y-74567589D01*
X113937589Y-74651912D01*
X113877964Y-74755185D01*
X113877964Y-74755186D01*
X113877964Y-74755187D01*
X113847100Y-74870375D01*
X105392900Y-74870375D01*
X105392900Y-74831395D01*
X105362049Y-74636612D01*
X105362047Y-74636608D01*
X105362046Y-74636599D01*
X105301108Y-74449053D01*
X105211575Y-74273335D01*
X105159052Y-74201045D01*
X105095658Y-74113791D01*
X105095656Y-74113789D01*
X105095649Y-74113781D01*
X104956218Y-73974350D01*
X104956210Y-73974343D01*
X104796664Y-73858424D01*
X104620946Y-73768891D01*
X104433400Y-73707953D01*
X104433385Y-73707950D01*
X104238607Y-73677100D01*
X104238605Y-73677100D01*
X104041395Y-73677100D01*
X104041392Y-73677100D01*
X103846614Y-73707950D01*
X103846599Y-73707953D01*
X103659053Y-73768891D01*
X103483335Y-73858424D01*
X103323789Y-73974343D01*
X103323781Y-73974350D01*
X103184350Y-74113781D01*
X103184343Y-74113789D01*
X103068424Y-74273335D01*
X102978891Y-74449053D01*
X102917953Y-74636599D01*
X102917950Y-74636614D01*
X102887100Y-74831392D01*
X101631465Y-74831392D01*
X101631918Y-74823899D01*
X101631918Y-74823898D01*
X101634215Y-74785925D01*
X101643560Y-74631438D01*
X101644652Y-74622443D01*
X101697749Y-74332701D01*
X101699915Y-74323914D01*
X101787549Y-74042684D01*
X101790768Y-74034199D01*
X101817707Y-73974343D01*
X101911657Y-73765593D01*
X101915867Y-73757571D01*
X102068261Y-73505481D01*
X102073409Y-73498023D01*
X102255072Y-73266148D01*
X102261080Y-73259367D01*
X102469367Y-73051080D01*
X102476148Y-73045072D01*
X102708023Y-72863409D01*
X102715481Y-72858261D01*
X102967571Y-72705867D01*
X102975593Y-72701657D01*
X103244204Y-72580765D01*
X103252684Y-72577549D01*
X103533914Y-72489915D01*
X103542701Y-72487749D01*
X103832443Y-72434652D01*
X103841438Y-72433560D01*
X104113440Y-72417106D01*
X104137736Y-72415637D01*
X104142276Y-72415500D01*
X104148285Y-72415500D01*
X143501715Y-72415500D01*
X143507724Y-72415500D01*
X143512264Y-72415637D01*
G37*
G04 #@! TD.AperFunction*
G04 #@! TD*
M02*
