G04 #@! TF.GenerationSoftware,KiCad,Pcbnew,9.0.2+dfsg-1*
G04 #@! TF.CreationDate,2025-08-10T10:43:45+08:00*
G04 #@! TF.ProjectId,stlink,73746c69-6e6b-42e6-9b69-6361645f7063,a*
G04 #@! TF.SameCoordinates,Original*
G04 #@! TF.FileFunction,Copper,L1,Top*
G04 #@! TF.FilePolarity,Positive*
%FSLAX46Y46*%
G04 Gerber Fmt 4.6, Leading zero omitted, Abs format (unit mm)*
G04 Created by KiCad (PCBNEW 9.0.2+dfsg-1) date 2025-08-10 10:43:45*
%MOMM*%
%LPD*%
G01*
G04 APERTURE LIST*
G04 Aperture macros list*
%AMRoundRect*
0 Rectangle with rounded corners*
0 $1 Rounding radius*
0 $2 $3 $4 $5 $6 $7 $8 $9 X,Y pos of 4 corners*
0 Add a 4 corners polygon primitive as box body*
4,1,4,$2,$3,$4,$5,$6,$7,$8,$9,$2,$3,0*
0 Add four circle primitives for the rounded corners*
1,1,$1+$1,$2,$3*
1,1,$1+$1,$4,$5*
1,1,$1+$1,$6,$7*
1,1,$1+$1,$8,$9*
0 Add four rect primitives between the rounded corners*
20,1,$1+$1,$2,$3,$4,$5,0*
20,1,$1+$1,$4,$5,$6,$7,0*
20,1,$1+$1,$6,$7,$8,$9,0*
20,1,$1+$1,$8,$9,$2,$3,0*%
G04 Aperture macros list end*
G04 #@! TA.AperFunction,EtchedComponent*
%ADD10C,0.000000*%
G04 #@! TD*
G04 #@! TA.AperFunction,SMDPad,CuDef*
%ADD11RoundRect,0.250000X0.250000X0.475000X-0.250000X0.475000X-0.250000X-0.475000X0.250000X-0.475000X0*%
G04 #@! TD*
G04 #@! TA.AperFunction,SMDPad,CuDef*
%ADD12RoundRect,0.250000X-0.250000X-0.475000X0.250000X-0.475000X0.250000X0.475000X-0.250000X0.475000X0*%
G04 #@! TD*
G04 #@! TA.AperFunction,SMDPad,CuDef*
%ADD13RoundRect,0.135000X-0.185000X0.135000X-0.185000X-0.135000X0.185000X-0.135000X0.185000X0.135000X0*%
G04 #@! TD*
G04 #@! TA.AperFunction,SMDPad,CuDef*
%ADD14RoundRect,0.140000X-0.140000X-0.170000X0.140000X-0.170000X0.140000X0.170000X-0.140000X0.170000X0*%
G04 #@! TD*
G04 #@! TA.AperFunction,SMDPad,CuDef*
%ADD15RoundRect,0.140000X0.140000X0.170000X-0.140000X0.170000X-0.140000X-0.170000X0.140000X-0.170000X0*%
G04 #@! TD*
G04 #@! TA.AperFunction,SMDPad,CuDef*
%ADD16RoundRect,0.250000X-2.250000X-0.260000X2.250000X-0.260000X2.250000X0.260000X-2.250000X0.260000X0*%
G04 #@! TD*
G04 #@! TA.AperFunction,SMDPad,CuDef*
%ADD17RoundRect,0.218750X-0.256250X0.218750X-0.256250X-0.218750X0.256250X-0.218750X0.256250X0.218750X0*%
G04 #@! TD*
G04 #@! TA.AperFunction,SMDPad,CuDef*
%ADD18RoundRect,0.218750X0.256250X-0.218750X0.256250X0.218750X-0.256250X0.218750X-0.256250X-0.218750X0*%
G04 #@! TD*
G04 #@! TA.AperFunction,SMDPad,CuDef*
%ADD19RoundRect,0.135000X0.185000X-0.135000X0.185000X0.135000X-0.185000X0.135000X-0.185000X-0.135000X0*%
G04 #@! TD*
G04 #@! TA.AperFunction,SMDPad,CuDef*
%ADD20R,1.000000X1.000000*%
G04 #@! TD*
G04 #@! TA.AperFunction,SMDPad,CuDef*
%ADD21RoundRect,0.225000X0.225000X0.375000X-0.225000X0.375000X-0.225000X-0.375000X0.225000X-0.375000X0*%
G04 #@! TD*
G04 #@! TA.AperFunction,SMDPad,CuDef*
%ADD22RoundRect,0.075000X0.662500X0.075000X-0.662500X0.075000X-0.662500X-0.075000X0.662500X-0.075000X0*%
G04 #@! TD*
G04 #@! TA.AperFunction,SMDPad,CuDef*
%ADD23RoundRect,0.075000X0.075000X0.662500X-0.075000X0.662500X-0.075000X-0.662500X0.075000X-0.662500X0*%
G04 #@! TD*
G04 #@! TA.AperFunction,SMDPad,CuDef*
%ADD24RoundRect,0.135000X-0.135000X-0.185000X0.135000X-0.185000X0.135000X0.185000X-0.135000X0.185000X0*%
G04 #@! TD*
G04 #@! TA.AperFunction,SMDPad,CuDef*
%ADD25RoundRect,0.135000X0.135000X0.185000X-0.135000X0.185000X-0.135000X-0.185000X0.135000X-0.185000X0*%
G04 #@! TD*
G04 #@! TA.AperFunction,SMDPad,CuDef*
%ADD26RoundRect,0.150000X-0.150000X0.587500X-0.150000X-0.587500X0.150000X-0.587500X0.150000X0.587500X0*%
G04 #@! TD*
G04 #@! TA.AperFunction,SMDPad,CuDef*
%ADD27R,2.400000X2.000000*%
G04 #@! TD*
G04 #@! TA.AperFunction,SMDPad,CuDef*
%ADD28R,1.000000X1.500000*%
G04 #@! TD*
G04 #@! TA.AperFunction,SMDPad,CuDef*
%ADD29R,1.450000X0.600000*%
G04 #@! TD*
G04 #@! TA.AperFunction,SMDPad,CuDef*
%ADD30R,1.450000X0.300000*%
G04 #@! TD*
G04 #@! TA.AperFunction,ComponentPad*
%ADD31O,2.100000X1.000000*%
G04 #@! TD*
G04 #@! TA.AperFunction,ComponentPad*
%ADD32O,1.600000X1.000000*%
G04 #@! TD*
G04 #@! TA.AperFunction,SMDPad,CuDef*
%ADD33RoundRect,0.375000X-0.625000X-0.375000X0.625000X-0.375000X0.625000X0.375000X-0.625000X0.375000X0*%
G04 #@! TD*
G04 #@! TA.AperFunction,SMDPad,CuDef*
%ADD34RoundRect,0.500000X-0.500000X-1.400000X0.500000X-1.400000X0.500000X1.400000X-0.500000X1.400000X0*%
G04 #@! TD*
G04 #@! TA.AperFunction,ViaPad*
%ADD35C,0.600000*%
G04 #@! TD*
G04 #@! TA.AperFunction,Conductor*
%ADD36C,0.381000*%
G04 #@! TD*
G04 #@! TA.AperFunction,Conductor*
%ADD37C,0.228600*%
G04 #@! TD*
G04 APERTURE END LIST*
D10*
G04 #@! TA.AperFunction,EtchedComponent*
G04 #@! TO.C,JP1*
G36*
X128535000Y-77135000D02*
G01*
X128035000Y-77135000D01*
X128035000Y-76535000D01*
X128535000Y-76535000D01*
X128535000Y-77135000D01*
G37*
G04 #@! TD.AperFunction*
G04 #@! TD*
D11*
G04 #@! TO.P,C4,1*
G04 #@! TO.N,+5V*
X109535000Y-79375000D03*
G04 #@! TO.P,C4,2*
G04 #@! TO.N,GND*
X107635000Y-79375000D03*
G04 #@! TD*
D12*
G04 #@! TO.P,C5,1*
G04 #@! TO.N,+3V3*
X120970000Y-74930000D03*
G04 #@! TO.P,C5,2*
G04 #@! TO.N,GND*
X122870000Y-74930000D03*
G04 #@! TD*
D13*
G04 #@! TO.P,R5,1*
G04 #@! TO.N,D+*
X113030000Y-90930000D03*
G04 #@! TO.P,R5,2*
G04 #@! TO.N,Net-(Q1-E)*
X113030000Y-91950000D03*
G04 #@! TD*
D14*
G04 #@! TO.P,C6,1*
G04 #@! TO.N,+3V3*
X127155000Y-94615000D03*
G04 #@! TO.P,C6,2*
G04 #@! TO.N,GND*
X128115000Y-94615000D03*
G04 #@! TD*
G04 #@! TO.P,C7,1*
G04 #@! TO.N,+3V3*
X127155000Y-81915000D03*
G04 #@! TO.P,C7,2*
G04 #@! TO.N,GND*
X128115000Y-81915000D03*
G04 #@! TD*
D15*
G04 #@! TO.P,C8,1*
G04 #@! TO.N,+3V3*
X116685000Y-84455000D03*
G04 #@! TO.P,C8,2*
G04 #@! TO.N,GND*
X115725000Y-84455000D03*
G04 #@! TD*
G04 #@! TO.P,C9,1*
G04 #@! TO.N,+3V3*
X123515000Y-100330000D03*
G04 #@! TO.P,C9,2*
G04 #@! TO.N,GND*
X122555000Y-100330000D03*
G04 #@! TD*
D16*
G04 #@! TO.P,J2,1,Pin_1*
G04 #@! TO.N,+5V*
X133995000Y-83820000D03*
G04 #@! TO.P,J2,2,Pin_2*
G04 #@! TO.N,+3V3*
X141595000Y-83820000D03*
G04 #@! TO.P,J2,3,Pin_3*
G04 #@! TO.N,T_PWR*
X133995000Y-86360000D03*
G04 #@! TO.P,J2,4,Pin_4*
G04 #@! TO.N,GND*
X141595000Y-86360000D03*
G04 #@! TO.P,J2,5,Pin_5*
G04 #@! TO.N,T_CLK*
X133995000Y-88900000D03*
G04 #@! TO.P,J2,6,Pin_6*
G04 #@! TO.N,T_DIO*
X141595000Y-88900000D03*
G04 #@! TO.P,J2,7,Pin_7*
G04 #@! TO.N,T_SWO*
X133995000Y-91440000D03*
G04 #@! TO.P,J2,8,Pin_8*
G04 #@! TO.N,T_RST*
X141595000Y-91440000D03*
G04 #@! TO.P,J2,9,Pin_9*
G04 #@! TO.N,T_TX*
X133995000Y-93980000D03*
G04 #@! TO.P,J2,10,Pin_10*
G04 #@! TO.N,T_RX*
X141595000Y-93980000D03*
G04 #@! TD*
D14*
G04 #@! TO.P,C2,1*
G04 #@! TO.N,Net-(U1-PD0)*
X127155000Y-93345000D03*
G04 #@! TO.P,C2,2*
G04 #@! TO.N,GND*
X128115000Y-93345000D03*
G04 #@! TD*
G04 #@! TO.P,C3,1*
G04 #@! TO.N,Net-(U1-PD1)*
X127155000Y-85725000D03*
G04 #@! TO.P,C3,2*
G04 #@! TO.N,GND*
X128115000Y-85725000D03*
G04 #@! TD*
D17*
G04 #@! TO.P,D2,1,K*
G04 #@! TO.N,LED*
X132715000Y-102717500D03*
G04 #@! TO.P,D2,2,A*
G04 #@! TO.N,Net-(D2-A)*
X132715000Y-104292500D03*
G04 #@! TD*
D18*
G04 #@! TO.P,D3,1,K*
G04 #@! TO.N,Net-(D3-K)*
X130810000Y-104292500D03*
G04 #@! TO.P,D3,2,A*
G04 #@! TO.N,LED*
X130810000Y-102717500D03*
G04 #@! TD*
D19*
G04 #@! TO.P,R14,1*
G04 #@! TO.N,Net-(D2-A)*
X134620000Y-104015000D03*
G04 #@! TO.P,R14,2*
G04 #@! TO.N,+3V3*
X134620000Y-102995000D03*
G04 #@! TD*
D20*
G04 #@! TO.P,TP3,1,1*
G04 #@! TO.N,CLK*
X113665000Y-103505000D03*
G04 #@! TD*
D21*
G04 #@! TO.P,D1,1,K*
G04 #@! TO.N,+5V*
X109600000Y-81915000D03*
G04 #@! TO.P,D1,2,A*
G04 #@! TO.N,VBUS*
X106300000Y-81915000D03*
G04 #@! TD*
D22*
G04 #@! TO.P,U1,1,VBAT*
G04 #@! TO.N,+3V3*
X124812500Y-91650000D03*
G04 #@! TO.P,U1,2,PC13*
G04 #@! TO.N,Net-(U1-PC13)*
X124812500Y-91150000D03*
G04 #@! TO.P,U1,3,PC14*
G04 #@! TO.N,Net-(U1-PC14)*
X124812500Y-90650000D03*
G04 #@! TO.P,U1,4,PC15*
G04 #@! TO.N,unconnected-(U1-PC15-Pad4)*
X124812500Y-90150000D03*
G04 #@! TO.P,U1,5,PD0*
G04 #@! TO.N,Net-(U1-PD0)*
X124812500Y-89650000D03*
G04 #@! TO.P,U1,6,PD1*
G04 #@! TO.N,Net-(U1-PD1)*
X124812500Y-89150000D03*
G04 #@! TO.P,U1,7,NRST*
G04 #@! TO.N,Net-(U1-NRST)*
X124812500Y-88650000D03*
G04 #@! TO.P,U1,8,VSSA*
G04 #@! TO.N,GND*
X124812500Y-88150000D03*
G04 #@! TO.P,U1,9,VDDA*
G04 #@! TO.N,+3V3*
X124812500Y-87650000D03*
G04 #@! TO.P,U1,10,PA0*
G04 #@! TO.N,Net-(U1-PA0)*
X124812500Y-87150000D03*
G04 #@! TO.P,U1,11,PA1*
G04 #@! TO.N,unconnected-(U1-PA1-Pad11)*
X124812500Y-86650000D03*
G04 #@! TO.P,U1,12,PA2*
G04 #@! TO.N,T_TX*
X124812500Y-86150000D03*
D23*
G04 #@! TO.P,U1,13,PA3*
G04 #@! TO.N,T_RX*
X123400000Y-84737500D03*
G04 #@! TO.P,U1,14,PA4*
G04 #@! TO.N,unconnected-(U1-PA4-Pad14)*
X122900000Y-84737500D03*
G04 #@! TO.P,U1,15,PA5*
G04 #@! TO.N,T_CLK*
X122400000Y-84737500D03*
G04 #@! TO.P,U1,16,PA6*
G04 #@! TO.N,unconnected-(U1-PA6-Pad16)*
X121900000Y-84737500D03*
G04 #@! TO.P,U1,17,PA7*
G04 #@! TO.N,unconnected-(U1-PA7-Pad17)*
X121400000Y-84737500D03*
G04 #@! TO.P,U1,18,PB0*
G04 #@! TO.N,T_RST*
X120900000Y-84737500D03*
G04 #@! TO.P,U1,19,PB1*
G04 #@! TO.N,unconnected-(U1-PB1-Pad19)*
X120400000Y-84737500D03*
G04 #@! TO.P,U1,20,PB2*
G04 #@! TO.N,unconnected-(U1-PB2-Pad20)*
X119900000Y-84737500D03*
G04 #@! TO.P,U1,21,PB10*
G04 #@! TO.N,unconnected-(U1-PB10-Pad21)*
X119400000Y-84737500D03*
G04 #@! TO.P,U1,22,PB11*
G04 #@! TO.N,unconnected-(U1-PB11-Pad22)*
X118900000Y-84737500D03*
G04 #@! TO.P,U1,23,VSS*
G04 #@! TO.N,GND*
X118400000Y-84737500D03*
G04 #@! TO.P,U1,24,VDD*
G04 #@! TO.N,+3V3*
X117900000Y-84737500D03*
D22*
G04 #@! TO.P,U1,25,PB12*
G04 #@! TO.N,Net-(U1-PB12)*
X116487500Y-86150000D03*
G04 #@! TO.P,U1,26,PB13*
G04 #@! TO.N,T_CLK*
X116487500Y-86650000D03*
G04 #@! TO.P,U1,27,PB14*
G04 #@! TO.N,T_DIO*
X116487500Y-87150000D03*
G04 #@! TO.P,U1,28,PB15*
G04 #@! TO.N,unconnected-(U1-PB15-Pad28)*
X116487500Y-87650000D03*
G04 #@! TO.P,U1,29,PA8*
G04 #@! TO.N,unconnected-(U1-PA8-Pad29)*
X116487500Y-88150000D03*
G04 #@! TO.P,U1,30,PA9*
G04 #@! TO.N,LED*
X116487500Y-88650000D03*
G04 #@! TO.P,U1,31,PA10*
G04 #@! TO.N,T_SWO*
X116487500Y-89150000D03*
G04 #@! TO.P,U1,32,PA11*
G04 #@! TO.N,D-*
X116487500Y-89650000D03*
G04 #@! TO.P,U1,33,PA12*
G04 #@! TO.N,D+*
X116487500Y-90150000D03*
G04 #@! TO.P,U1,34,PA13*
G04 #@! TO.N,DIO*
X116487500Y-90650000D03*
G04 #@! TO.P,U1,35,VSS*
G04 #@! TO.N,GND*
X116487500Y-91150000D03*
G04 #@! TO.P,U1,36,VDD*
G04 #@! TO.N,+3V3*
X116487500Y-91650000D03*
D23*
G04 #@! TO.P,U1,37,PA14*
G04 #@! TO.N,CLK*
X117900000Y-93062500D03*
G04 #@! TO.P,U1,38,PA15*
G04 #@! TO.N,RENUM*
X118400000Y-93062500D03*
G04 #@! TO.P,U1,39,PB3*
G04 #@! TO.N,unconnected-(U1-PB3-Pad39)*
X118900000Y-93062500D03*
G04 #@! TO.P,U1,40,PB4*
G04 #@! TO.N,unconnected-(U1-PB4-Pad40)*
X119400000Y-93062500D03*
G04 #@! TO.P,U1,41,PB5*
G04 #@! TO.N,unconnected-(U1-PB5-Pad41)*
X119900000Y-93062500D03*
G04 #@! TO.P,U1,42,PB6*
G04 #@! TO.N,unconnected-(U1-PB6-Pad42)*
X120400000Y-93062500D03*
G04 #@! TO.P,U1,43,PB7*
G04 #@! TO.N,unconnected-(U1-PB7-Pad43)*
X120900000Y-93062500D03*
G04 #@! TO.P,U1,44,BOOT0*
G04 #@! TO.N,B0*
X121400000Y-93062500D03*
G04 #@! TO.P,U1,45,PB8*
G04 #@! TO.N,unconnected-(U1-PB8-Pad45)*
X121900000Y-93062500D03*
G04 #@! TO.P,U1,46,PB9*
G04 #@! TO.N,unconnected-(U1-PB9-Pad46)*
X122400000Y-93062500D03*
G04 #@! TO.P,U1,47,VSS*
G04 #@! TO.N,GND*
X122900000Y-93062500D03*
G04 #@! TO.P,U1,48,VDD*
G04 #@! TO.N,+3V3*
X123400000Y-93062500D03*
G04 #@! TD*
D14*
G04 #@! TO.P,C1,1*
G04 #@! TO.N,Net-(U1-NRST)*
X127155000Y-83185000D03*
G04 #@! TO.P,C1,2*
G04 #@! TO.N,GND*
X128115000Y-83185000D03*
G04 #@! TD*
D24*
G04 #@! TO.P,R1,1*
G04 #@! TO.N,Net-(U1-NRST)*
X127125000Y-84455000D03*
G04 #@! TO.P,R1,2*
G04 #@! TO.N,+3V3*
X128145000Y-84455000D03*
G04 #@! TD*
D25*
G04 #@! TO.P,R2,1*
G04 #@! TO.N,GND*
X128145000Y-98425000D03*
G04 #@! TO.P,R2,2*
G04 #@! TO.N,B0*
X127125000Y-98425000D03*
G04 #@! TD*
G04 #@! TO.P,R11,1*
G04 #@! TO.N,Net-(U1-PB12)*
X116715000Y-83185000D03*
G04 #@! TO.P,R11,2*
G04 #@! TO.N,T_DIO*
X115695000Y-83185000D03*
G04 #@! TD*
D26*
G04 #@! TO.P,Q1,1,B*
G04 #@! TO.N,Net-(Q1-B)*
X113345000Y-94947500D03*
G04 #@! TO.P,Q1,2,E*
G04 #@! TO.N,Net-(Q1-E)*
X111445000Y-94947500D03*
G04 #@! TO.P,Q1,3,C*
G04 #@! TO.N,+3V3*
X112395000Y-96822500D03*
G04 #@! TD*
D25*
G04 #@! TO.P,R8,1*
G04 #@! TO.N,Net-(Q1-B)*
X116080000Y-96520000D03*
G04 #@! TO.P,R8,2*
G04 #@! TO.N,+5V*
X115060000Y-96520000D03*
G04 #@! TD*
D24*
G04 #@! TO.P,R9,1*
G04 #@! TO.N,GND*
X115060000Y-95250000D03*
G04 #@! TO.P,R9,2*
G04 #@! TO.N,Net-(Q1-B)*
X116080000Y-95250000D03*
G04 #@! TD*
D20*
G04 #@! TO.P,TP1,1,1*
G04 #@! TO.N,+3V3*
X116205000Y-103505000D03*
G04 #@! TD*
G04 #@! TO.P,TP4,1,1*
G04 #@! TO.N,B0*
X118745000Y-103505000D03*
G04 #@! TD*
G04 #@! TO.P,TP5,1,1*
G04 #@! TO.N,GND*
X108585000Y-103505000D03*
G04 #@! TD*
D25*
G04 #@! TO.P,R6,1*
G04 #@! TO.N,GND*
X128145000Y-97155000D03*
G04 #@! TO.P,R6,2*
G04 #@! TO.N,Net-(U1-PC13)*
X127125000Y-97155000D03*
G04 #@! TD*
G04 #@! TO.P,R7,1*
G04 #@! TO.N,GND*
X128145000Y-95885000D03*
G04 #@! TO.P,R7,2*
G04 #@! TO.N,Net-(U1-PC14)*
X127125000Y-95885000D03*
G04 #@! TD*
D24*
G04 #@! TO.P,R12,1*
G04 #@! TO.N,Net-(U1-PA0)*
X127125000Y-79375000D03*
G04 #@! TO.P,R12,2*
G04 #@! TO.N,Net-(JP1-C)*
X128145000Y-79375000D03*
G04 #@! TD*
D20*
G04 #@! TO.P,TP2,1,1*
G04 #@! TO.N,DIO*
X111125000Y-103505000D03*
G04 #@! TD*
D25*
G04 #@! TO.P,R10,1*
G04 #@! TO.N,RENUM*
X118620000Y-95250000D03*
G04 #@! TO.P,R10,2*
G04 #@! TO.N,Net-(Q1-B)*
X117600000Y-95250000D03*
G04 #@! TD*
D27*
G04 #@! TO.P,Y1,1,1*
G04 #@! TO.N,Net-(U1-PD0)*
X128270000Y-91385000D03*
G04 #@! TO.P,Y1,2,2*
G04 #@! TO.N,Net-(U1-PD1)*
X128270000Y-87685000D03*
G04 #@! TD*
D13*
G04 #@! TO.P,R15,1*
G04 #@! TO.N,GND*
X128905000Y-102995000D03*
G04 #@! TO.P,R15,2*
G04 #@! TO.N,Net-(D3-K)*
X128905000Y-104015000D03*
G04 #@! TD*
D28*
G04 #@! TO.P,JP1,1,A*
G04 #@! TO.N,+3V3*
X127635000Y-76835000D03*
G04 #@! TO.P,JP1,2,C*
G04 #@! TO.N,Net-(JP1-C)*
X128935000Y-76835000D03*
G04 #@! TO.P,JP1,3,B*
G04 #@! TO.N,T_PWR*
X130235000Y-76835000D03*
G04 #@! TD*
D25*
G04 #@! TO.P,R13,1*
G04 #@! TO.N,GND*
X128145000Y-80645000D03*
G04 #@! TO.P,R13,2*
G04 #@! TO.N,Net-(U1-PA0)*
X127125000Y-80645000D03*
G04 #@! TD*
D19*
G04 #@! TO.P,R3,1*
G04 #@! TO.N,GND*
X111760000Y-91950000D03*
G04 #@! TO.P,R3,2*
G04 #@! TO.N,Net-(J1-CC2)*
X111760000Y-90930000D03*
G04 #@! TD*
D29*
G04 #@! TO.P,J1,A1,GND*
G04 #@! TO.N,GND*
X109455000Y-85650000D03*
G04 #@! TO.P,J1,A4,VBUS*
G04 #@! TO.N,VBUS*
X109455000Y-86450000D03*
D30*
G04 #@! TO.P,J1,A5,CC1*
G04 #@! TO.N,Net-(J1-CC1)*
X109455000Y-87650000D03*
G04 #@! TO.P,J1,A6,D+*
G04 #@! TO.N,D+*
X109455000Y-88650000D03*
G04 #@! TO.P,J1,A7,D-*
G04 #@! TO.N,D-*
X109455000Y-89150000D03*
G04 #@! TO.P,J1,A8,SBU1*
G04 #@! TO.N,unconnected-(J1-SBU1-PadA8)*
X109455000Y-90150000D03*
D29*
G04 #@! TO.P,J1,A9,VBUS*
G04 #@! TO.N,VBUS*
X109455000Y-91350000D03*
G04 #@! TO.P,J1,A12,GND*
G04 #@! TO.N,GND*
X109455000Y-92150000D03*
G04 #@! TO.P,J1,B1,GND*
X109455000Y-92150000D03*
G04 #@! TO.P,J1,B4,VBUS*
G04 #@! TO.N,VBUS*
X109455000Y-91350000D03*
D30*
G04 #@! TO.P,J1,B5,CC2*
G04 #@! TO.N,Net-(J1-CC2)*
X109455000Y-90650000D03*
G04 #@! TO.P,J1,B6,D+*
G04 #@! TO.N,D+*
X109455000Y-89650000D03*
G04 #@! TO.P,J1,B7,D-*
G04 #@! TO.N,D-*
X109455000Y-88150000D03*
G04 #@! TO.P,J1,B8,SBU2*
G04 #@! TO.N,unconnected-(J1-SBU2-PadB8)*
X109455000Y-87150000D03*
D29*
G04 #@! TO.P,J1,B9,VBUS*
G04 #@! TO.N,VBUS*
X109455000Y-86450000D03*
G04 #@! TO.P,J1,B12,GND*
G04 #@! TO.N,GND*
X109455000Y-85650000D03*
D31*
G04 #@! TO.P,J1,S1,SHIELD*
X108540000Y-84580000D03*
D32*
X104360000Y-84580000D03*
D31*
X108540000Y-93220000D03*
D32*
X104360000Y-93220000D03*
G04 #@! TD*
D14*
G04 #@! TO.P,C10,1*
G04 #@! TO.N,+3V3*
X121440000Y-76835000D03*
G04 #@! TO.P,C10,2*
G04 #@! TO.N,GND*
X122400000Y-76835000D03*
G04 #@! TD*
D13*
G04 #@! TO.P,R4,1*
G04 #@! TO.N,GND*
X111760000Y-86485000D03*
G04 #@! TO.P,R4,2*
G04 #@! TO.N,Net-(J1-CC1)*
X111760000Y-87505000D03*
G04 #@! TD*
D33*
G04 #@! TO.P,U3,1,GND*
G04 #@! TO.N,GND*
X112420000Y-75170000D03*
G04 #@! TO.P,U3,2,VO*
G04 #@! TO.N,+3V3*
X112420000Y-77470000D03*
D34*
X118720000Y-77470000D03*
D33*
G04 #@! TO.P,U3,3,VI*
G04 #@! TO.N,+5V*
X112420000Y-79770000D03*
G04 #@! TD*
D35*
G04 #@! TO.N,GND*
X114300000Y-76200000D03*
X107315000Y-89535000D03*
X114300000Y-78740000D03*
X107315000Y-88265000D03*
X114300000Y-74930000D03*
G04 #@! TO.N,+3V3*
X116840000Y-77470000D03*
X114300000Y-80010000D03*
X116205000Y-102235000D03*
X116840000Y-78740000D03*
X116840000Y-74930000D03*
X141605000Y-82550000D03*
X116840000Y-76200000D03*
X112395000Y-95250000D03*
X116840000Y-80010000D03*
G04 #@! TO.N,T_DIO*
X138430000Y-88900000D03*
X122555000Y-87630000D03*
G04 #@! TO.N,T_CLK*
X121920000Y-86360000D03*
X130810000Y-88900000D03*
G04 #@! TO.N,T_RX*
X137795000Y-83820000D03*
X124460000Y-84455000D03*
G04 #@! TO.N,T_TX*
X137160000Y-85090000D03*
X125095000Y-85090000D03*
G04 #@! TO.N,T_RST*
X138430000Y-91440000D03*
X120650000Y-86360000D03*
G04 #@! TO.N,T_SWO*
X118745000Y-89535000D03*
X130810000Y-91440000D03*
G04 #@! TD*
D36*
G04 #@! TO.N,+5V*
X112420000Y-81255000D02*
X112420000Y-79770000D01*
X133995000Y-83820000D02*
X133995000Y-75575000D01*
X109535000Y-73980000D02*
X109535000Y-79375000D01*
X111125000Y-79375000D02*
X109535000Y-79375000D01*
X110490000Y-73025000D02*
X109535000Y-73980000D01*
X131445000Y-73025000D02*
X110490000Y-73025000D01*
X112420000Y-79770000D02*
X111520000Y-79770000D01*
X109600000Y-81915000D02*
X111760000Y-81915000D01*
X133995000Y-75575000D02*
X131445000Y-73025000D01*
X111520000Y-79770000D02*
X111125000Y-79375000D01*
X111760000Y-81915000D02*
X112420000Y-81255000D01*
D37*
G04 #@! TO.N,+3V3*
X112395000Y-96822500D02*
X112395000Y-95250000D01*
D36*
X141595000Y-83820000D02*
X141595000Y-82560000D01*
D37*
X116205000Y-103505000D02*
X116205000Y-102235000D01*
D36*
X112420000Y-77470000D02*
X116840000Y-77470000D01*
X141595000Y-82560000D02*
X141605000Y-82550000D01*
G04 #@! TO.N,VBUS*
X106045000Y-84455000D02*
X106300000Y-84200000D01*
X108592200Y-91350000D02*
X108047200Y-90805000D01*
X108047200Y-90805000D02*
X106680000Y-90805000D01*
X106680000Y-90805000D02*
X106045000Y-90170000D01*
X109455000Y-86450000D02*
X108592200Y-86450000D01*
X106045000Y-86995000D02*
X106045000Y-84455000D01*
X106300000Y-84200000D02*
X106300000Y-81915000D01*
X108592200Y-86450000D02*
X108047200Y-86995000D01*
X108047200Y-86995000D02*
X106045000Y-86995000D01*
X106045000Y-90170000D02*
X106045000Y-86995000D01*
X109455000Y-91350000D02*
X108592200Y-91350000D01*
D37*
G04 #@! TO.N,D-*
X110447700Y-89067700D02*
X110447700Y-88189100D01*
X109455000Y-88150000D02*
X112245692Y-88150000D01*
X110408600Y-88150000D02*
X109455000Y-88150000D01*
X110365400Y-89150000D02*
X110447700Y-89067700D01*
X109455000Y-89150000D02*
X110365400Y-89150000D01*
X112245692Y-88150000D02*
X113745692Y-89650000D01*
X110447700Y-88189100D02*
X110408600Y-88150000D01*
X113745692Y-89650000D02*
X116487500Y-89650000D01*
G04 #@! TO.N,D+*
X108462300Y-89412300D02*
X108462300Y-88689100D01*
X108501400Y-88650000D02*
X109455000Y-88650000D01*
X108462300Y-89610900D02*
X108462300Y-88689100D01*
X108501400Y-89650000D02*
X108462300Y-89610900D01*
X113030000Y-90365692D02*
X113030000Y-90930000D01*
X109455000Y-89650000D02*
X108501400Y-89650000D01*
X112745692Y-89650000D02*
X109455000Y-89650000D01*
X113245692Y-90150000D02*
X113030000Y-90365692D01*
X108462300Y-88689100D02*
X108501400Y-88650000D01*
X116487500Y-90150000D02*
X113245692Y-90150000D01*
X113245692Y-90150000D02*
X112745692Y-89650000D01*
X109455000Y-89650000D02*
X108700000Y-89650000D01*
G04 #@! TO.N,T_DIO*
X120578335Y-87630000D02*
X122555000Y-87630000D01*
X138430000Y-88900000D02*
X141595000Y-88900000D01*
X116487500Y-87150000D02*
X120098335Y-87150000D01*
X120098335Y-87150000D02*
X120578335Y-87630000D01*
G04 #@! TO.N,T_CLK*
X120137150Y-86650000D02*
X116487500Y-86650000D01*
X122400000Y-85880000D02*
X122400000Y-84737500D01*
X120885150Y-86927700D02*
X120414850Y-86927700D01*
X120414850Y-86927700D02*
X120137150Y-86650000D01*
X121452850Y-86360000D02*
X120885150Y-86927700D01*
X121920000Y-86360000D02*
X122400000Y-85880000D01*
X133995000Y-88900000D02*
X130810000Y-88900000D01*
X121920000Y-86360000D02*
X121452850Y-86360000D01*
G04 #@! TO.N,T_RX*
X124460000Y-84455000D02*
X123682500Y-84455000D01*
X123682500Y-84455000D02*
X123400000Y-84737500D01*
X137795000Y-92680000D02*
X137795000Y-83820000D01*
X141595000Y-93980000D02*
X139095000Y-93980000D01*
X139095000Y-93980000D02*
X137795000Y-92680000D01*
G04 #@! TO.N,T_TX*
X136495000Y-93980000D02*
X137160000Y-93315000D01*
X125095000Y-85090000D02*
X125095000Y-85867500D01*
X137160000Y-93315000D02*
X137160000Y-85090000D01*
X133995000Y-93980000D02*
X136495000Y-93980000D01*
X125095000Y-85867500D02*
X124812500Y-86150000D01*
G04 #@! TO.N,T_RST*
X120900000Y-86110000D02*
X120650000Y-86360000D01*
X120900000Y-84737500D02*
X120900000Y-86110000D01*
X138430000Y-91440000D02*
X141595000Y-91440000D01*
G04 #@! TO.N,T_SWO*
X118360000Y-89150000D02*
X118745000Y-89535000D01*
X116487500Y-89150000D02*
X118360000Y-89150000D01*
X130810000Y-91440000D02*
X133995000Y-91440000D01*
G04 #@! TO.N,T_PWR*
X130235000Y-85785000D02*
X130810000Y-86360000D01*
X130810000Y-86360000D02*
X133995000Y-86360000D01*
X130235000Y-76835000D02*
X130235000Y-85785000D01*
G04 #@! TO.N,Net-(U1-PD0)*
X128270000Y-91385000D02*
X128270000Y-92075000D01*
X128270000Y-92075000D02*
X127155000Y-93190000D01*
X127155000Y-93190000D02*
X127155000Y-93345000D01*
X126535000Y-89650000D02*
X128270000Y-91385000D01*
X124812500Y-89650000D02*
X126535000Y-89650000D01*
G04 #@! TO.N,Net-(U1-PD1)*
X128270000Y-86995000D02*
X128270000Y-86840000D01*
X126805000Y-89150000D02*
X128270000Y-87685000D01*
X128270000Y-86840000D02*
X127155000Y-85725000D01*
X124812500Y-89150000D02*
X126805000Y-89150000D01*
G04 #@! TO.N,Net-(JP1-C)*
X128935000Y-78585000D02*
X128145000Y-79375000D01*
X128935000Y-76835000D02*
X128935000Y-78585000D01*
G04 #@! TO.N,Net-(Q1-E)*
X111445000Y-94947500D02*
X111445000Y-93535000D01*
X111445000Y-93535000D02*
X113030000Y-91950000D01*
G04 #@! TO.N,Net-(J1-CC1)*
X110470000Y-87650000D02*
X109455000Y-87650000D01*
X111760000Y-87505000D02*
X110615000Y-87505000D01*
X110615000Y-87505000D02*
X110470000Y-87650000D01*
G04 #@! TO.N,Net-(J1-CC2)*
X110335000Y-90650000D02*
X109455000Y-90650000D01*
X111760000Y-90930000D02*
X110615000Y-90930000D01*
X110615000Y-90930000D02*
X110335000Y-90650000D01*
G04 #@! TD*
G04 #@! TA.AperFunction,Conductor*
G04 #@! TO.N,+3V3*
G36*
X121893138Y-73385993D02*
G01*
X121918858Y-73430542D01*
X121920000Y-73443600D01*
X121920000Y-76409935D01*
X121902407Y-76458273D01*
X121857858Y-76483993D01*
X121807200Y-76475060D01*
X121791626Y-76463109D01*
X121748111Y-76419594D01*
X121748108Y-76419592D01*
X121648103Y-76375435D01*
X121623657Y-76372600D01*
X121592400Y-76372600D01*
X121592400Y-77297399D01*
X121623651Y-77297399D01*
X121648108Y-77294563D01*
X121748104Y-77250410D01*
X121748111Y-77250405D01*
X121791626Y-77206891D01*
X121838246Y-77185151D01*
X121887933Y-77198465D01*
X121917438Y-77240602D01*
X121920000Y-77260065D01*
X121920000Y-81204800D01*
X121902407Y-81253138D01*
X121857858Y-81278858D01*
X121844800Y-81280000D01*
X115645200Y-81280000D01*
X115596862Y-81262407D01*
X115571142Y-81217858D01*
X115570000Y-81204800D01*
X115570000Y-78935889D01*
X117567601Y-78935889D01*
X117570510Y-78972865D01*
X117570510Y-78972868D01*
X117616498Y-79131157D01*
X117700406Y-79273038D01*
X117700412Y-79273045D01*
X117816954Y-79389587D01*
X117816961Y-79389593D01*
X117958842Y-79473501D01*
X118117128Y-79519488D01*
X118117139Y-79519490D01*
X118154115Y-79522399D01*
X118567600Y-79522399D01*
X118872400Y-79522399D01*
X119285876Y-79522399D01*
X119285889Y-79522398D01*
X119322865Y-79519489D01*
X119322868Y-79519489D01*
X119481157Y-79473501D01*
X119623038Y-79389593D01*
X119623045Y-79389587D01*
X119739587Y-79273045D01*
X119739593Y-79273038D01*
X119823501Y-79131157D01*
X119869488Y-78972871D01*
X119869490Y-78972860D01*
X119872399Y-78935888D01*
X119872400Y-78935879D01*
X119872400Y-77622400D01*
X118872400Y-77622400D01*
X118872400Y-79522399D01*
X118567600Y-79522399D01*
X118567600Y-77622400D01*
X117567601Y-77622400D01*
X117567601Y-78935889D01*
X115570000Y-78935889D01*
X115570000Y-76004111D01*
X117567600Y-76004111D01*
X117567600Y-77317600D01*
X118567600Y-77317600D01*
X118872400Y-77317600D01*
X119872399Y-77317600D01*
X119872399Y-77048650D01*
X121007601Y-77048650D01*
X121010436Y-77073108D01*
X121054589Y-77173104D01*
X121054594Y-77173111D01*
X121131888Y-77250405D01*
X121131891Y-77250407D01*
X121231896Y-77294564D01*
X121256342Y-77297399D01*
X121287600Y-77297398D01*
X121287600Y-76987400D01*
X121007601Y-76987400D01*
X121007601Y-77048650D01*
X119872399Y-77048650D01*
X119872399Y-76621342D01*
X121007600Y-76621342D01*
X121007600Y-76682600D01*
X121287600Y-76682600D01*
X121287600Y-76372600D01*
X121287599Y-76372599D01*
X121256349Y-76372600D01*
X121231891Y-76375436D01*
X121131895Y-76419589D01*
X121131888Y-76419594D01*
X121054594Y-76496888D01*
X121054592Y-76496891D01*
X121010435Y-76596896D01*
X121007600Y-76621342D01*
X119872399Y-76621342D01*
X119872399Y-76004124D01*
X119872398Y-76004110D01*
X119869489Y-75967134D01*
X119869489Y-75967131D01*
X119823501Y-75808842D01*
X119739593Y-75666961D01*
X119739587Y-75666954D01*
X119623045Y-75550412D01*
X119623038Y-75550406D01*
X119481157Y-75466498D01*
X119378493Y-75436671D01*
X120317600Y-75436671D01*
X120332524Y-75530899D01*
X120390394Y-75644474D01*
X120480525Y-75734605D01*
X120594101Y-75792475D01*
X120594099Y-75792475D01*
X120688328Y-75807399D01*
X120688336Y-75807400D01*
X120817600Y-75807400D01*
X121122400Y-75807400D01*
X121251664Y-75807400D01*
X121251671Y-75807399D01*
X121345899Y-75792475D01*
X121459474Y-75734605D01*
X121549605Y-75644474D01*
X121607475Y-75530899D01*
X121622399Y-75436671D01*
X121622400Y-75436664D01*
X121622400Y-75082400D01*
X121122400Y-75082400D01*
X121122400Y-75807400D01*
X120817600Y-75807400D01*
X120817600Y-75082400D01*
X120317600Y-75082400D01*
X120317600Y-75436671D01*
X119378493Y-75436671D01*
X119322871Y-75420511D01*
X119322860Y-75420509D01*
X119285888Y-75417600D01*
X118872400Y-75417600D01*
X118872400Y-77317600D01*
X118567600Y-77317600D01*
X118567600Y-75417600D01*
X118154124Y-75417600D01*
X118154110Y-75417601D01*
X118117134Y-75420510D01*
X118117131Y-75420510D01*
X117958842Y-75466498D01*
X117816961Y-75550406D01*
X117816954Y-75550412D01*
X117700412Y-75666954D01*
X117700406Y-75666961D01*
X117616498Y-75808842D01*
X117570511Y-75967128D01*
X117570509Y-75967139D01*
X117567600Y-76004111D01*
X115570000Y-76004111D01*
X115570000Y-74423328D01*
X120317600Y-74423328D01*
X120317600Y-74777600D01*
X120817600Y-74777600D01*
X121122400Y-74777600D01*
X121622400Y-74777600D01*
X121622400Y-74423336D01*
X121622399Y-74423328D01*
X121607475Y-74329100D01*
X121549605Y-74215525D01*
X121459474Y-74125394D01*
X121345898Y-74067524D01*
X121345900Y-74067524D01*
X121251671Y-74052600D01*
X121122400Y-74052600D01*
X121122400Y-74777600D01*
X120817600Y-74777600D01*
X120817600Y-74052600D01*
X120688328Y-74052600D01*
X120594100Y-74067524D01*
X120480525Y-74125394D01*
X120390394Y-74215525D01*
X120332524Y-74329100D01*
X120317600Y-74423328D01*
X115570000Y-74423328D01*
X115570000Y-73443600D01*
X115587593Y-73395262D01*
X115632142Y-73369542D01*
X115645200Y-73368400D01*
X121844800Y-73368400D01*
X121893138Y-73385993D01*
G37*
G04 #@! TD.AperFunction*
G04 #@! TD*
G04 #@! TA.AperFunction,Conductor*
G04 #@! TO.N,GND*
G36*
X108545033Y-87070688D02*
G01*
X108574538Y-87112824D01*
X108577100Y-87132288D01*
X108577100Y-87315055D01*
X108577101Y-87315057D01*
X108585972Y-87359659D01*
X108588807Y-87366504D01*
X108587201Y-87367169D01*
X108597238Y-87408188D01*
X108588128Y-87433216D01*
X108588807Y-87433498D01*
X108585972Y-87440342D01*
X108577100Y-87484942D01*
X108577100Y-87815055D01*
X108577101Y-87815057D01*
X108585972Y-87859659D01*
X108588807Y-87866504D01*
X108587201Y-87867169D01*
X108597238Y-87908188D01*
X108588128Y-87933216D01*
X108588807Y-87933498D01*
X108585972Y-87940342D01*
X108577100Y-87984942D01*
X108577101Y-88307600D01*
X108559508Y-88355937D01*
X108514960Y-88381658D01*
X108501901Y-88382800D01*
X108448251Y-88382800D01*
X108406176Y-88400228D01*
X108350042Y-88423479D01*
X108338729Y-88434793D01*
X108310943Y-88462579D01*
X108287446Y-88486076D01*
X108235779Y-88537742D01*
X108229644Y-88552554D01*
X108195100Y-88635951D01*
X108195100Y-89557751D01*
X108195100Y-89664049D01*
X108235779Y-89762257D01*
X108274879Y-89801357D01*
X108350043Y-89876521D01*
X108448251Y-89917200D01*
X108501900Y-89917200D01*
X108550238Y-89934793D01*
X108575958Y-89979342D01*
X108577100Y-89992400D01*
X108577100Y-90315055D01*
X108577101Y-90315057D01*
X108585972Y-90359659D01*
X108588807Y-90366504D01*
X108587201Y-90367169D01*
X108597238Y-90408188D01*
X108588128Y-90433216D01*
X108588807Y-90433498D01*
X108585972Y-90440342D01*
X108577100Y-90484942D01*
X108577100Y-90667711D01*
X108559507Y-90716049D01*
X108514958Y-90741769D01*
X108464300Y-90732836D01*
X108448729Y-90720888D01*
X108258053Y-90530212D01*
X108179749Y-90485002D01*
X108179740Y-90484999D01*
X108156347Y-90478730D01*
X108156347Y-90478731D01*
X108114720Y-90467578D01*
X108092409Y-90461600D01*
X108092408Y-90461600D01*
X106853389Y-90461600D01*
X106805051Y-90444007D01*
X106800215Y-90439574D01*
X106410426Y-90049785D01*
X106388686Y-90003165D01*
X106388400Y-89996611D01*
X106388400Y-87413600D01*
X106405993Y-87365262D01*
X106450542Y-87339542D01*
X106463600Y-87338400D01*
X108092407Y-87338400D01*
X108092409Y-87338400D01*
X108156346Y-87321268D01*
X108179748Y-87314998D01*
X108258053Y-87269788D01*
X108448727Y-87079112D01*
X108495346Y-87057374D01*
X108545033Y-87070688D01*
G37*
G04 #@! TD.AperFunction*
G04 #@! TA.AperFunction,Conductor*
G36*
X143512264Y-72415637D02*
G01*
X143539262Y-72417270D01*
X143808559Y-72433559D01*
X143817558Y-72434653D01*
X144107294Y-72487748D01*
X144116089Y-72489916D01*
X144397309Y-72577548D01*
X144405800Y-72580768D01*
X144674399Y-72701654D01*
X144682434Y-72705871D01*
X144755786Y-72750214D01*
X144934510Y-72858256D01*
X144941983Y-72863415D01*
X145173843Y-73045066D01*
X145180640Y-73051088D01*
X145388911Y-73259359D01*
X145394933Y-73266156D01*
X145576584Y-73498016D01*
X145581743Y-73505489D01*
X145734126Y-73757562D01*
X145738346Y-73765603D01*
X145859231Y-74034199D01*
X145862451Y-74042690D01*
X145950080Y-74323899D01*
X145952253Y-74332716D01*
X146005345Y-74622433D01*
X146006440Y-74631447D01*
X146024363Y-74927735D01*
X146024500Y-74932276D01*
X146024500Y-102867723D01*
X146024363Y-102872264D01*
X146006440Y-103168552D01*
X146005345Y-103177566D01*
X145952253Y-103467283D01*
X145950080Y-103476100D01*
X145862451Y-103757309D01*
X145859231Y-103765800D01*
X145738346Y-104034396D01*
X145734126Y-104042437D01*
X145581743Y-104294510D01*
X145576584Y-104301983D01*
X145394933Y-104533843D01*
X145388911Y-104540640D01*
X145180640Y-104748911D01*
X145173843Y-104754933D01*
X144941983Y-104936584D01*
X144934510Y-104941743D01*
X144682437Y-105094126D01*
X144674396Y-105098346D01*
X144405800Y-105219231D01*
X144397309Y-105222451D01*
X144116100Y-105310080D01*
X144107283Y-105312253D01*
X143817566Y-105365345D01*
X143808552Y-105366440D01*
X143512265Y-105384363D01*
X143507724Y-105384500D01*
X104142276Y-105384500D01*
X104137735Y-105384363D01*
X103841447Y-105366440D01*
X103832433Y-105365345D01*
X103542716Y-105312253D01*
X103533899Y-105310080D01*
X103252690Y-105222451D01*
X103244199Y-105219231D01*
X102975603Y-105098346D01*
X102967562Y-105094126D01*
X102715489Y-104941743D01*
X102708016Y-104936584D01*
X102476156Y-104754933D01*
X102469359Y-104748911D01*
X102261088Y-104540640D01*
X102255066Y-104533843D01*
X102073415Y-104301983D01*
X102068256Y-104294510D01*
X101985672Y-104157899D01*
X101915871Y-104042434D01*
X101911653Y-104034396D01*
X101905179Y-104020012D01*
X101791354Y-103767102D01*
X101790768Y-103765800D01*
X101787548Y-103757309D01*
X101773624Y-103712625D01*
X101699916Y-103476089D01*
X101697748Y-103467294D01*
X101644653Y-103177558D01*
X101643559Y-103168559D01*
X101626998Y-102894764D01*
X101625637Y-102872263D01*
X101625500Y-102867723D01*
X101625500Y-102771392D01*
X102887100Y-102771392D01*
X102887100Y-102968607D01*
X102917950Y-103163385D01*
X102917953Y-103163400D01*
X102978891Y-103350946D01*
X103068424Y-103526664D01*
X103184343Y-103686210D01*
X103184350Y-103686218D01*
X103323781Y-103825649D01*
X103323789Y-103825656D01*
X103323791Y-103825658D01*
X103339424Y-103837016D01*
X103483335Y-103941575D01*
X103659053Y-104031108D01*
X103846599Y-104092046D01*
X103846608Y-104092047D01*
X103846612Y-104092049D01*
X104041395Y-104122900D01*
X104041399Y-104122900D01*
X104238601Y-104122900D01*
X104238605Y-104122900D01*
X104433388Y-104092049D01*
X104433392Y-104092047D01*
X104433400Y-104092046D01*
X104571157Y-104047285D01*
X104620947Y-104031108D01*
X104642724Y-104020012D01*
X107932600Y-104020012D01*
X107941441Y-104064462D01*
X107941442Y-104064464D01*
X107975126Y-104114873D01*
X108025535Y-104148557D01*
X108025537Y-104148558D01*
X108069987Y-104157400D01*
X108432600Y-104157400D01*
X108737400Y-104157400D01*
X109100013Y-104157400D01*
X109144462Y-104148558D01*
X109144464Y-104148557D01*
X109194873Y-104114873D01*
X109228557Y-104064464D01*
X109228558Y-104064462D01*
X109237400Y-104020012D01*
X109237400Y-103657400D01*
X108737400Y-103657400D01*
X108737400Y-104157400D01*
X108432600Y-104157400D01*
X108432600Y-103657400D01*
X107932600Y-103657400D01*
X107932600Y-104020012D01*
X104642724Y-104020012D01*
X104796663Y-103941576D01*
X104956209Y-103825658D01*
X105095658Y-103686209D01*
X105211576Y-103526663D01*
X105301108Y-103350947D01*
X105319116Y-103295525D01*
X105362046Y-103163400D01*
X105362047Y-103163392D01*
X105362049Y-103163388D01*
X105389513Y-102989987D01*
X107932600Y-102989987D01*
X107932600Y-103352600D01*
X108432600Y-103352600D01*
X108737400Y-103352600D01*
X109237400Y-103352600D01*
X109237400Y-102989988D01*
X109237399Y-102989986D01*
X109237390Y-102989942D01*
X110472100Y-102989942D01*
X110472100Y-104020055D01*
X110472101Y-104020057D01*
X110480972Y-104064659D01*
X110514764Y-104115232D01*
X110514765Y-104115232D01*
X110514766Y-104115234D01*
X110565342Y-104149028D01*
X110609943Y-104157900D01*
X111640056Y-104157899D01*
X111684658Y-104149028D01*
X111735234Y-104115234D01*
X111769028Y-104064658D01*
X111777900Y-104020057D01*
X111777899Y-102989944D01*
X111777899Y-102989942D01*
X113012100Y-102989942D01*
X113012100Y-104020055D01*
X113012101Y-104020057D01*
X113020972Y-104064659D01*
X113054764Y-104115232D01*
X113054765Y-104115232D01*
X113054766Y-104115234D01*
X113105342Y-104149028D01*
X113149943Y-104157900D01*
X114180056Y-104157899D01*
X114224658Y-104149028D01*
X114275234Y-104115234D01*
X114309028Y-104064658D01*
X114317900Y-104020057D01*
X114317899Y-102989944D01*
X114317899Y-102989942D01*
X115552100Y-102989942D01*
X115552100Y-104020055D01*
X115552101Y-104020057D01*
X115560972Y-104064659D01*
X115594764Y-104115232D01*
X115594765Y-104115232D01*
X115594766Y-104115234D01*
X115645342Y-104149028D01*
X115689943Y-104157900D01*
X116720056Y-104157899D01*
X116764658Y-104149028D01*
X116815234Y-104115234D01*
X116849028Y-104064658D01*
X116857900Y-104020057D01*
X116857899Y-102989944D01*
X116857899Y-102989942D01*
X118092100Y-102989942D01*
X118092100Y-104020055D01*
X118092101Y-104020057D01*
X118100972Y-104064659D01*
X118134764Y-104115232D01*
X118134765Y-104115232D01*
X118134766Y-104115234D01*
X118185342Y-104149028D01*
X118229943Y-104157900D01*
X119260056Y-104157899D01*
X119304658Y-104149028D01*
X119355234Y-104115234D01*
X119389028Y-104064658D01*
X119397900Y-104020057D01*
X119397900Y-103837018D01*
X128432100Y-103837018D01*
X128432100Y-104192981D01*
X128434892Y-104217055D01*
X128434893Y-104217057D01*
X128478369Y-104315521D01*
X128478370Y-104315522D01*
X128478372Y-104315525D01*
X128554474Y-104391627D01*
X128554477Y-104391629D01*
X128554479Y-104391631D01*
X128652943Y-104435107D01*
X128677016Y-104437900D01*
X128677018Y-104437900D01*
X129132982Y-104437900D01*
X129132984Y-104437900D01*
X129157057Y-104435107D01*
X129255521Y-104391631D01*
X129331631Y-104315521D01*
X129375107Y-104217057D01*
X129377900Y-104192984D01*
X129377900Y-104038467D01*
X130182100Y-104038467D01*
X130182100Y-104546532D01*
X130192624Y-104618761D01*
X130247102Y-104730195D01*
X130334804Y-104817897D01*
X130334805Y-104817897D01*
X130334807Y-104817899D01*
X130446238Y-104872375D01*
X130518467Y-104882899D01*
X130518475Y-104882899D01*
X130518478Y-104882900D01*
X130518480Y-104882900D01*
X131101520Y-104882900D01*
X131101522Y-104882900D01*
X131101524Y-104882899D01*
X131101532Y-104882899D01*
X131156298Y-104874919D01*
X131173762Y-104872375D01*
X131285193Y-104817899D01*
X131372899Y-104730193D01*
X131427375Y-104618762D01*
X131437900Y-104546522D01*
X131437900Y-104038478D01*
X131437899Y-104038476D01*
X131437899Y-104038467D01*
X132087100Y-104038467D01*
X132087100Y-104546532D01*
X132097624Y-104618761D01*
X132152102Y-104730195D01*
X132239804Y-104817897D01*
X132239805Y-104817897D01*
X132239807Y-104817899D01*
X132351238Y-104872375D01*
X132423467Y-104882899D01*
X132423475Y-104882899D01*
X132423478Y-104882900D01*
X132423480Y-104882900D01*
X133006520Y-104882900D01*
X133006522Y-104882900D01*
X133006524Y-104882899D01*
X133006532Y-104882899D01*
X133061298Y-104874919D01*
X133078762Y-104872375D01*
X133190193Y-104817899D01*
X133277899Y-104730193D01*
X133332375Y-104618762D01*
X133342900Y-104546522D01*
X133342900Y-104038478D01*
X133342899Y-104038476D01*
X133342899Y-104038467D01*
X133332375Y-103966238D01*
X133284286Y-103867872D01*
X133277899Y-103854807D01*
X133277897Y-103854805D01*
X133277897Y-103854804D01*
X133260111Y-103837018D01*
X134147100Y-103837018D01*
X134147100Y-104192981D01*
X134149892Y-104217055D01*
X134149893Y-104217057D01*
X134193369Y-104315521D01*
X134193370Y-104315522D01*
X134193372Y-104315525D01*
X134269474Y-104391627D01*
X134269477Y-104391629D01*
X134269479Y-104391631D01*
X134367943Y-104435107D01*
X134392016Y-104437900D01*
X134392018Y-104437900D01*
X134847982Y-104437900D01*
X134847984Y-104437900D01*
X134872057Y-104435107D01*
X134970521Y-104391631D01*
X135046631Y-104315521D01*
X135090107Y-104217057D01*
X135092900Y-104192984D01*
X135092900Y-103837016D01*
X135090107Y-103812943D01*
X135046631Y-103714479D01*
X135046629Y-103714477D01*
X135046627Y-103714474D01*
X134970525Y-103638372D01*
X134970522Y-103638370D01*
X134970521Y-103638369D01*
X134872057Y-103594893D01*
X134872055Y-103594892D01*
X134853568Y-103592747D01*
X134847984Y-103592100D01*
X134392016Y-103592100D01*
X134387012Y-103592680D01*
X134367944Y-103594892D01*
X134269477Y-103638370D01*
X134269474Y-103638372D01*
X134193372Y-103714474D01*
X134193370Y-103714477D01*
X134149892Y-103812944D01*
X134147100Y-103837018D01*
X133260111Y-103837018D01*
X133190195Y-103767102D01*
X133078761Y-103712624D01*
X133006532Y-103702100D01*
X133006522Y-103702100D01*
X132423478Y-103702100D01*
X132423467Y-103702100D01*
X132351238Y-103712624D01*
X132239804Y-103767102D01*
X132152102Y-103854804D01*
X132097624Y-103966238D01*
X132087100Y-104038467D01*
X131437899Y-104038467D01*
X131427375Y-103966238D01*
X131379286Y-103867872D01*
X131372899Y-103854807D01*
X131372897Y-103854805D01*
X131372897Y-103854804D01*
X131285195Y-103767102D01*
X131173761Y-103712624D01*
X131101532Y-103702100D01*
X131101522Y-103702100D01*
X130518478Y-103702100D01*
X130518467Y-103702100D01*
X130446238Y-103712624D01*
X130334804Y-103767102D01*
X130247102Y-103854804D01*
X130192624Y-103966238D01*
X130182100Y-104038467D01*
X129377900Y-104038467D01*
X129377900Y-103837016D01*
X129375107Y-103812943D01*
X129331631Y-103714479D01*
X129331629Y-103714477D01*
X129331627Y-103714474D01*
X129255525Y-103638372D01*
X129255522Y-103638370D01*
X129255521Y-103638369D01*
X129157057Y-103594893D01*
X129157055Y-103594892D01*
X129138568Y-103592747D01*
X129132984Y-103592100D01*
X128677016Y-103592100D01*
X128672012Y-103592680D01*
X128652944Y-103594892D01*
X128554477Y-103638370D01*
X128554474Y-103638372D01*
X128478372Y-103714474D01*
X128478370Y-103714477D01*
X128434892Y-103812944D01*
X128432100Y-103837018D01*
X119397900Y-103837018D01*
X119397899Y-103476100D01*
X119397899Y-103172906D01*
X128432600Y-103172906D01*
X128435388Y-103196940D01*
X128435388Y-103196942D01*
X128478786Y-103295229D01*
X128478791Y-103295236D01*
X128554763Y-103371208D01*
X128554770Y-103371213D01*
X128653058Y-103414611D01*
X128677094Y-103417400D01*
X128752600Y-103417400D01*
X129057400Y-103417400D01*
X129132906Y-103417400D01*
X129156940Y-103414611D01*
X129156942Y-103414611D01*
X129255229Y-103371213D01*
X129255236Y-103371208D01*
X129331208Y-103295236D01*
X129331213Y-103295229D01*
X129374611Y-103196942D01*
X129374611Y-103196940D01*
X129377400Y-103172906D01*
X129377400Y-103147400D01*
X129057400Y-103147400D01*
X129057400Y-103417400D01*
X128752600Y-103417400D01*
X128752600Y-103147400D01*
X128432600Y-103147400D01*
X128432600Y-103172906D01*
X119397899Y-103172906D01*
X119397899Y-103116251D01*
X119397899Y-102989944D01*
X119397899Y-102989943D01*
X119389028Y-102945342D01*
X119355235Y-102894767D01*
X119355234Y-102894765D01*
X119329316Y-102877447D01*
X119329314Y-102877447D01*
X119304658Y-102860972D01*
X119304656Y-102860971D01*
X119260057Y-102852100D01*
X118229944Y-102852100D01*
X118229942Y-102852101D01*
X118185340Y-102860972D01*
X118134767Y-102894764D01*
X118100972Y-102945342D01*
X118100971Y-102945343D01*
X118092100Y-102989942D01*
X116857899Y-102989942D01*
X116849028Y-102945342D01*
X116815234Y-102894766D01*
X116764658Y-102860972D01*
X116764656Y-102860971D01*
X116720057Y-102852100D01*
X116547400Y-102852100D01*
X116529040Y-102845417D01*
X116509800Y-102842025D01*
X116505439Y-102836828D01*
X116499062Y-102834507D01*
X116489292Y-102817584D01*
X116488880Y-102817093D01*
X128432600Y-102817093D01*
X128432600Y-102842600D01*
X128752600Y-102842600D01*
X129057400Y-102842600D01*
X129377400Y-102842600D01*
X129377400Y-102817093D01*
X129374611Y-102793059D01*
X129374611Y-102793057D01*
X129331213Y-102694770D01*
X129331208Y-102694763D01*
X129255236Y-102618791D01*
X129255229Y-102618786D01*
X129156941Y-102575388D01*
X129132906Y-102572600D01*
X129057400Y-102572600D01*
X129057400Y-102842600D01*
X128752600Y-102842600D01*
X128752600Y-102572600D01*
X128677094Y-102572600D01*
X128653059Y-102575388D01*
X128653057Y-102575388D01*
X128554770Y-102618786D01*
X128554763Y-102618791D01*
X128478791Y-102694763D01*
X128478786Y-102694770D01*
X128435388Y-102793057D01*
X128435388Y-102793059D01*
X128432600Y-102817093D01*
X116488880Y-102817093D01*
X116476735Y-102802620D01*
X116475012Y-102792851D01*
X116473342Y-102789958D01*
X116472200Y-102776900D01*
X116472200Y-102639446D01*
X116489793Y-102591108D01*
X116494226Y-102586272D01*
X116567410Y-102513087D01*
X116596059Y-102463467D01*
X130182100Y-102463467D01*
X130182100Y-102971532D01*
X130192624Y-103043761D01*
X130247102Y-103155195D01*
X130334804Y-103242897D01*
X130334805Y-103242897D01*
X130334807Y-103242899D01*
X130441848Y-103295229D01*
X130446238Y-103297375D01*
X130518467Y-103307899D01*
X130518475Y-103307899D01*
X130518478Y-103307900D01*
X130518480Y-103307900D01*
X131101520Y-103307900D01*
X131101522Y-103307900D01*
X131101524Y-103307899D01*
X131101532Y-103307899D01*
X131156298Y-103299919D01*
X131173762Y-103297375D01*
X131285193Y-103242899D01*
X131372899Y-103155193D01*
X131427375Y-103043762D01*
X131435216Y-102989943D01*
X131437899Y-102971532D01*
X131437900Y-102971520D01*
X131437900Y-102463479D01*
X131437899Y-102463467D01*
X132087100Y-102463467D01*
X132087100Y-102971532D01*
X132097624Y-103043761D01*
X132152102Y-103155195D01*
X132239804Y-103242897D01*
X132239805Y-103242897D01*
X132239807Y-103242899D01*
X132346848Y-103295229D01*
X132351238Y-103297375D01*
X132423467Y-103307899D01*
X132423475Y-103307899D01*
X132423478Y-103307900D01*
X132423480Y-103307900D01*
X133006520Y-103307900D01*
X133006522Y-103307900D01*
X133006524Y-103307899D01*
X133006532Y-103307899D01*
X133061298Y-103299919D01*
X133078762Y-103297375D01*
X133190193Y-103242899D01*
X133277899Y-103155193D01*
X133332375Y-103043762D01*
X133340216Y-102989943D01*
X133342899Y-102971532D01*
X133342900Y-102971520D01*
X133342900Y-102817016D01*
X134147100Y-102817016D01*
X134147100Y-103172984D01*
X134147632Y-103177566D01*
X134149892Y-103197055D01*
X134149893Y-103197057D01*
X134193369Y-103295521D01*
X134193370Y-103295522D01*
X134193372Y-103295525D01*
X134269474Y-103371627D01*
X134269477Y-103371629D01*
X134269479Y-103371631D01*
X134367943Y-103415107D01*
X134392016Y-103417900D01*
X134392018Y-103417900D01*
X134847982Y-103417900D01*
X134847984Y-103417900D01*
X134872057Y-103415107D01*
X134970521Y-103371631D01*
X135046631Y-103295521D01*
X135090107Y-103197057D01*
X135092900Y-103172984D01*
X135092900Y-102817016D01*
X135090107Y-102792943D01*
X135080591Y-102771392D01*
X142257100Y-102771392D01*
X142257100Y-102968607D01*
X142287950Y-103163385D01*
X142287953Y-103163400D01*
X142348891Y-103350946D01*
X142438424Y-103526664D01*
X142554343Y-103686210D01*
X142554350Y-103686218D01*
X142693781Y-103825649D01*
X142693789Y-103825656D01*
X142693791Y-103825658D01*
X142709424Y-103837016D01*
X142853335Y-103941575D01*
X143029053Y-104031108D01*
X143216599Y-104092046D01*
X143216608Y-104092047D01*
X143216612Y-104092049D01*
X143411395Y-104122900D01*
X143411399Y-104122900D01*
X143608601Y-104122900D01*
X143608605Y-104122900D01*
X143803388Y-104092049D01*
X143803392Y-104092047D01*
X143803400Y-104092046D01*
X143941157Y-104047285D01*
X143990947Y-104031108D01*
X144166663Y-103941576D01*
X144326209Y-103825658D01*
X144465658Y-103686209D01*
X144581576Y-103526663D01*
X144671108Y-103350947D01*
X144689116Y-103295525D01*
X144732046Y-103163400D01*
X144732047Y-103163392D01*
X144732049Y-103163388D01*
X144762900Y-102968605D01*
X144762900Y-102771395D01*
X144732049Y-102576612D01*
X144732047Y-102576608D01*
X144732046Y-102576599D01*
X144671108Y-102389053D01*
X144581575Y-102213335D01*
X144529052Y-102141045D01*
X144465658Y-102053791D01*
X144465656Y-102053789D01*
X144465649Y-102053781D01*
X144326218Y-101914350D01*
X144326210Y-101914343D01*
X144166664Y-101798424D01*
X143990946Y-101708891D01*
X143803400Y-101647953D01*
X143803385Y-101647950D01*
X143608607Y-101617100D01*
X143608605Y-101617100D01*
X143411395Y-101617100D01*
X143411392Y-101617100D01*
X143216614Y-101647950D01*
X143216599Y-101647953D01*
X143029053Y-101708891D01*
X142853335Y-101798424D01*
X142693789Y-101914343D01*
X142693781Y-101914350D01*
X142554350Y-102053781D01*
X142554343Y-102053789D01*
X142438424Y-102213335D01*
X142348891Y-102389053D01*
X142287953Y-102576599D01*
X142287950Y-102576614D01*
X142257100Y-102771392D01*
X135080591Y-102771392D01*
X135046631Y-102694479D01*
X135046629Y-102694477D01*
X135046627Y-102694474D01*
X134970525Y-102618372D01*
X134970522Y-102618370D01*
X134970521Y-102618369D01*
X134872057Y-102574893D01*
X134872055Y-102574892D01*
X134853568Y-102572747D01*
X134847984Y-102572100D01*
X134392016Y-102572100D01*
X134387012Y-102572680D01*
X134367944Y-102574892D01*
X134286522Y-102610843D01*
X134279995Y-102613726D01*
X134269477Y-102618370D01*
X134269474Y-102618372D01*
X134193372Y-102694474D01*
X134193370Y-102694477D01*
X134149892Y-102792944D01*
X134148770Y-102802620D01*
X134147100Y-102817016D01*
X133342900Y-102817016D01*
X133342900Y-102463479D01*
X133342899Y-102463467D01*
X133332375Y-102391238D01*
X133285143Y-102294625D01*
X133277899Y-102279807D01*
X133277897Y-102279805D01*
X133277897Y-102279804D01*
X133190195Y-102192102D01*
X133078761Y-102137624D01*
X133006532Y-102127100D01*
X133006522Y-102127100D01*
X132423478Y-102127100D01*
X132423467Y-102127100D01*
X132351238Y-102137624D01*
X132239804Y-102192102D01*
X132152102Y-102279804D01*
X132097624Y-102391238D01*
X132087100Y-102463467D01*
X131437899Y-102463467D01*
X131427375Y-102391238D01*
X131380143Y-102294625D01*
X131372899Y-102279807D01*
X131372897Y-102279805D01*
X131372897Y-102279804D01*
X131285195Y-102192102D01*
X131173761Y-102137624D01*
X131101532Y-102127100D01*
X131101522Y-102127100D01*
X130518478Y-102127100D01*
X130518467Y-102127100D01*
X130446238Y-102137624D01*
X130334804Y-102192102D01*
X130247102Y-102279804D01*
X130192624Y-102391238D01*
X130182100Y-102463467D01*
X116596059Y-102463467D01*
X116619332Y-102423157D01*
X116620407Y-102421292D01*
X116627036Y-102409813D01*
X116657900Y-102294625D01*
X116657900Y-102175375D01*
X116627036Y-102060187D01*
X116623342Y-102053789D01*
X116567410Y-101956912D01*
X116483087Y-101872589D01*
X116379813Y-101812964D01*
X116264625Y-101782100D01*
X116145375Y-101782100D01*
X116058984Y-101805248D01*
X116030186Y-101812964D01*
X116030185Y-101812964D01*
X115926912Y-101872589D01*
X115842589Y-101956912D01*
X115782964Y-102060185D01*
X115782964Y-102060186D01*
X115782964Y-102060187D01*
X115752100Y-102175375D01*
X115752100Y-102294625D01*
X115777987Y-102391238D01*
X115782964Y-102409813D01*
X115782964Y-102409814D01*
X115842589Y-102513087D01*
X115915774Y-102586272D01*
X115922711Y-102601148D01*
X115933265Y-102613726D01*
X115936115Y-102629893D01*
X115937514Y-102632892D01*
X115937800Y-102639446D01*
X115937800Y-102776900D01*
X115920207Y-102825238D01*
X115875658Y-102850958D01*
X115862600Y-102852100D01*
X115689944Y-102852100D01*
X115689942Y-102852101D01*
X115645340Y-102860972D01*
X115594767Y-102894764D01*
X115560972Y-102945342D01*
X115560971Y-102945343D01*
X115552100Y-102989942D01*
X114317899Y-102989942D01*
X114309028Y-102945342D01*
X114275234Y-102894766D01*
X114224658Y-102860972D01*
X114224656Y-102860971D01*
X114180057Y-102852100D01*
X113149944Y-102852100D01*
X113149942Y-102852101D01*
X113105340Y-102860972D01*
X113054767Y-102894764D01*
X113020972Y-102945342D01*
X113020971Y-102945343D01*
X113012100Y-102989942D01*
X111777899Y-102989942D01*
X111769028Y-102945342D01*
X111735234Y-102894766D01*
X111684658Y-102860972D01*
X111684656Y-102860971D01*
X111640057Y-102852100D01*
X110609944Y-102852100D01*
X110609942Y-102852101D01*
X110565340Y-102860972D01*
X110514767Y-102894764D01*
X110480972Y-102945342D01*
X110480971Y-102945343D01*
X110472100Y-102989942D01*
X109237390Y-102989942D01*
X109228558Y-102945537D01*
X109228557Y-102945535D01*
X109194873Y-102895126D01*
X109144464Y-102861442D01*
X109144462Y-102861441D01*
X109100013Y-102852600D01*
X108737400Y-102852600D01*
X108737400Y-103352600D01*
X108432600Y-103352600D01*
X108432600Y-102852600D01*
X108069987Y-102852600D01*
X108025537Y-102861441D01*
X108025535Y-102861442D01*
X107975126Y-102895126D01*
X107941442Y-102945535D01*
X107941441Y-102945537D01*
X107932600Y-102989987D01*
X105389513Y-102989987D01*
X105392900Y-102968605D01*
X105392900Y-102771395D01*
X105362049Y-102576612D01*
X105362047Y-102576608D01*
X105362046Y-102576599D01*
X105301108Y-102389053D01*
X105211575Y-102213335D01*
X105159052Y-102141045D01*
X105095658Y-102053791D01*
X105095656Y-102053789D01*
X105095649Y-102053781D01*
X104956218Y-101914350D01*
X104956210Y-101914343D01*
X104796664Y-101798424D01*
X104620946Y-101708891D01*
X104433400Y-101647953D01*
X104433385Y-101647950D01*
X104238607Y-101617100D01*
X104238605Y-101617100D01*
X104041395Y-101617100D01*
X104041392Y-101617100D01*
X103846614Y-101647950D01*
X103846599Y-101647953D01*
X103659053Y-101708891D01*
X103483335Y-101798424D01*
X103323789Y-101914343D01*
X103323781Y-101914350D01*
X103184350Y-102053781D01*
X103184343Y-102053789D01*
X103068424Y-102213335D01*
X102978891Y-102389053D01*
X102917953Y-102576599D01*
X102917950Y-102576614D01*
X102887100Y-102771392D01*
X101625500Y-102771392D01*
X101625500Y-100543650D01*
X122122601Y-100543650D01*
X122125436Y-100568108D01*
X122169589Y-100668104D01*
X122169594Y-100668111D01*
X122246888Y-100745405D01*
X122246891Y-100745407D01*
X122346896Y-100789564D01*
X122371342Y-100792399D01*
X122402600Y-100792398D01*
X122402600Y-100482400D01*
X122122601Y-100482400D01*
X122122601Y-100543650D01*
X101625500Y-100543650D01*
X101625500Y-100116342D01*
X122122600Y-100116342D01*
X122122600Y-100177600D01*
X122402600Y-100177600D01*
X122402600Y-99867600D01*
X122707400Y-99867600D01*
X122707400Y-100792399D01*
X122738651Y-100792399D01*
X122763108Y-100789563D01*
X122863104Y-100745410D01*
X122863111Y-100745405D01*
X122940405Y-100668111D01*
X122940408Y-100668107D01*
X122965933Y-100610297D01*
X123001551Y-100573184D01*
X123052692Y-100567649D01*
X123095427Y-100596281D01*
X123103517Y-100610293D01*
X123129172Y-100668396D01*
X123129173Y-100668397D01*
X123129175Y-100668400D01*
X123206599Y-100745824D01*
X123206601Y-100745825D01*
X123206604Y-100745828D01*
X123306779Y-100790059D01*
X123331266Y-100792900D01*
X123331268Y-100792900D01*
X123698732Y-100792900D01*
X123698734Y-100792900D01*
X123723221Y-100790059D01*
X123823396Y-100745828D01*
X123900828Y-100668396D01*
X123945059Y-100568221D01*
X123947900Y-100543734D01*
X123947900Y-100116266D01*
X123945059Y-100091779D01*
X123900828Y-99991604D01*
X123900825Y-99991601D01*
X123900824Y-99991599D01*
X123823400Y-99914175D01*
X123823397Y-99914173D01*
X123823396Y-99914172D01*
X123723221Y-99869941D01*
X123723219Y-99869940D01*
X123704414Y-99867758D01*
X123698734Y-99867100D01*
X123331266Y-99867100D01*
X123326176Y-99867690D01*
X123306780Y-99869940D01*
X123306779Y-99869941D01*
X123206604Y-99914172D01*
X123206599Y-99914175D01*
X123129175Y-99991599D01*
X123129173Y-99991602D01*
X123103520Y-100049702D01*
X123067901Y-100086814D01*
X123016759Y-100092349D01*
X122974025Y-100063716D01*
X122965935Y-100049702D01*
X122940410Y-99991895D01*
X122940405Y-99991888D01*
X122863111Y-99914594D01*
X122863108Y-99914592D01*
X122763103Y-99870435D01*
X122738657Y-99867600D01*
X122707400Y-99867600D01*
X122402600Y-99867600D01*
X122402599Y-99867599D01*
X122371349Y-99867600D01*
X122346891Y-99870436D01*
X122246895Y-99914589D01*
X122246888Y-99914594D01*
X122169594Y-99991888D01*
X122169592Y-99991891D01*
X122125435Y-100091896D01*
X122122600Y-100116342D01*
X101625500Y-100116342D01*
X101625500Y-98197018D01*
X126702100Y-98197018D01*
X126702100Y-98652981D01*
X126704892Y-98677055D01*
X126704893Y-98677057D01*
X126748369Y-98775521D01*
X126748370Y-98775522D01*
X126748372Y-98775525D01*
X126824474Y-98851627D01*
X126824477Y-98851629D01*
X126824479Y-98851631D01*
X126922943Y-98895107D01*
X126947016Y-98897900D01*
X126947018Y-98897900D01*
X127302982Y-98897900D01*
X127302984Y-98897900D01*
X127327057Y-98895107D01*
X127425521Y-98851631D01*
X127501631Y-98775521D01*
X127545107Y-98677057D01*
X127547900Y-98652984D01*
X127547900Y-98652906D01*
X127722600Y-98652906D01*
X127725388Y-98676940D01*
X127725388Y-98676942D01*
X127768786Y-98775229D01*
X127768791Y-98775236D01*
X127844763Y-98851208D01*
X127844770Y-98851213D01*
X127943058Y-98894611D01*
X127967094Y-98897400D01*
X127992600Y-98897400D01*
X128297400Y-98897400D01*
X128322906Y-98897400D01*
X128346940Y-98894611D01*
X128346942Y-98894611D01*
X128445229Y-98851213D01*
X128445236Y-98851208D01*
X128521208Y-98775236D01*
X128521213Y-98775229D01*
X128564611Y-98676942D01*
X128564611Y-98676940D01*
X128567400Y-98652906D01*
X128567400Y-98577400D01*
X128297400Y-98577400D01*
X128297400Y-98897400D01*
X127992600Y-98897400D01*
X127992600Y-98577400D01*
X127722600Y-98577400D01*
X127722600Y-98652906D01*
X127547900Y-98652906D01*
X127547900Y-98197093D01*
X127722600Y-98197093D01*
X127722600Y-98272600D01*
X127992600Y-98272600D01*
X128297400Y-98272600D01*
X128567400Y-98272600D01*
X128567400Y-98197093D01*
X128564611Y-98173059D01*
X128564611Y-98173057D01*
X128521213Y-98074770D01*
X128521208Y-98074763D01*
X128445236Y-97998791D01*
X128445229Y-97998786D01*
X128346941Y-97955388D01*
X128322906Y-97952600D01*
X128297400Y-97952600D01*
X128297400Y-98272600D01*
X127992600Y-98272600D01*
X127992600Y-97952600D01*
X127967094Y-97952600D01*
X127943059Y-97955388D01*
X127943057Y-97955388D01*
X127844770Y-97998786D01*
X127844763Y-97998791D01*
X127768791Y-98074763D01*
X127768786Y-98074770D01*
X127725388Y-98173057D01*
X127725388Y-98173059D01*
X127722600Y-98197093D01*
X127547900Y-98197093D01*
X127547900Y-98197016D01*
X127545107Y-98172943D01*
X127501631Y-98074479D01*
X127501629Y-98074477D01*
X127501627Y-98074474D01*
X127425525Y-97998372D01*
X127425522Y-97998370D01*
X127425521Y-97998369D01*
X127327057Y-97954893D01*
X127327055Y-97954892D01*
X127308568Y-97952747D01*
X127302984Y-97952100D01*
X126947016Y-97952100D01*
X126942012Y-97952680D01*
X126922944Y-97954892D01*
X126824477Y-97998370D01*
X126824474Y-97998372D01*
X126748372Y-98074474D01*
X126748370Y-98074477D01*
X126704892Y-98172944D01*
X126702100Y-98197018D01*
X101625500Y-98197018D01*
X101625500Y-94314776D01*
X110992100Y-94314776D01*
X110992100Y-95580223D01*
X110995037Y-95605548D01*
X111040780Y-95709145D01*
X111040782Y-95709148D01*
X111120851Y-95789217D01*
X111120854Y-95789219D01*
X111120855Y-95789220D01*
X111224450Y-95834962D01*
X111249774Y-95837900D01*
X111249776Y-95837900D01*
X111640224Y-95837900D01*
X111640226Y-95837900D01*
X111665550Y-95834962D01*
X111769145Y-95789220D01*
X111849220Y-95709145D01*
X111894962Y-95605550D01*
X111897900Y-95580226D01*
X111897900Y-95574088D01*
X111905706Y-95552638D01*
X111911732Y-95530625D01*
X111914387Y-95528786D01*
X111915493Y-95525750D01*
X111935263Y-95514335D01*
X111954027Y-95501347D01*
X111957243Y-95501645D01*
X111960042Y-95500030D01*
X111982521Y-95503993D01*
X112005246Y-95506105D01*
X112008252Y-95508531D01*
X112010700Y-95508963D01*
X112026559Y-95521200D01*
X112031493Y-95526187D01*
X112032590Y-95528087D01*
X112105873Y-95601370D01*
X112106059Y-95601558D01*
X112116739Y-95624785D01*
X112127514Y-95647892D01*
X112127529Y-95648254D01*
X112127548Y-95648294D01*
X112127533Y-95648345D01*
X112127800Y-95654446D01*
X112127800Y-95906635D01*
X112110207Y-95954973D01*
X112082977Y-95975427D01*
X112070855Y-95980779D01*
X112070851Y-95980782D01*
X111990782Y-96060851D01*
X111990780Y-96060854D01*
X111945037Y-96164451D01*
X111942100Y-96189776D01*
X111942100Y-97455223D01*
X111945037Y-97480548D01*
X111990780Y-97584145D01*
X111990782Y-97584148D01*
X112070851Y-97664217D01*
X112070854Y-97664219D01*
X112070855Y-97664220D01*
X112174450Y-97709962D01*
X112199774Y-97712900D01*
X112199776Y-97712900D01*
X112590224Y-97712900D01*
X112590226Y-97712900D01*
X112615550Y-97709962D01*
X112719145Y-97664220D01*
X112799220Y-97584145D01*
X112844962Y-97480550D01*
X112847900Y-97455226D01*
X112847900Y-96292018D01*
X114637100Y-96292018D01*
X114637100Y-96747981D01*
X114639892Y-96772055D01*
X114639893Y-96772057D01*
X114683369Y-96870521D01*
X114683370Y-96870522D01*
X114683372Y-96870525D01*
X114759474Y-96946627D01*
X114759477Y-96946629D01*
X114759479Y-96946631D01*
X114857943Y-96990107D01*
X114882016Y-96992900D01*
X114882018Y-96992900D01*
X115237982Y-96992900D01*
X115237984Y-96992900D01*
X115262057Y-96990107D01*
X115360521Y-96946631D01*
X115436631Y-96870521D01*
X115480107Y-96772057D01*
X115482900Y-96747984D01*
X115482900Y-96292018D01*
X115657100Y-96292018D01*
X115657100Y-96747981D01*
X115659892Y-96772055D01*
X115659893Y-96772057D01*
X115703369Y-96870521D01*
X115703370Y-96870522D01*
X115703372Y-96870525D01*
X115779474Y-96946627D01*
X115779477Y-96946629D01*
X115779479Y-96946631D01*
X115877943Y-96990107D01*
X115902016Y-96992900D01*
X115902018Y-96992900D01*
X116257982Y-96992900D01*
X116257984Y-96992900D01*
X116282057Y-96990107D01*
X116380521Y-96946631D01*
X116400134Y-96927018D01*
X126702100Y-96927018D01*
X126702100Y-97382981D01*
X126704892Y-97407055D01*
X126704893Y-97407057D01*
X126748369Y-97505521D01*
X126748370Y-97505522D01*
X126748372Y-97505525D01*
X126824474Y-97581627D01*
X126824477Y-97581629D01*
X126824479Y-97581631D01*
X126922943Y-97625107D01*
X126947016Y-97627900D01*
X126947018Y-97627900D01*
X127302982Y-97627900D01*
X127302984Y-97627900D01*
X127327057Y-97625107D01*
X127425521Y-97581631D01*
X127501631Y-97505521D01*
X127545107Y-97407057D01*
X127547900Y-97382984D01*
X127547900Y-97382906D01*
X127722600Y-97382906D01*
X127725388Y-97406940D01*
X127725388Y-97406942D01*
X127768786Y-97505229D01*
X127768791Y-97505236D01*
X127844763Y-97581208D01*
X127844770Y-97581213D01*
X127943058Y-97624611D01*
X127967094Y-97627400D01*
X127992600Y-97627400D01*
X128297400Y-97627400D01*
X128322906Y-97627400D01*
X128346940Y-97624611D01*
X128346942Y-97624611D01*
X128445229Y-97581213D01*
X128445236Y-97581208D01*
X128521208Y-97505236D01*
X128521213Y-97505229D01*
X128564611Y-97406942D01*
X128564611Y-97406940D01*
X128567400Y-97382906D01*
X128567400Y-97307400D01*
X128297400Y-97307400D01*
X128297400Y-97627400D01*
X127992600Y-97627400D01*
X127992600Y-97307400D01*
X127722600Y-97307400D01*
X127722600Y-97382906D01*
X127547900Y-97382906D01*
X127547900Y-96927093D01*
X127722600Y-96927093D01*
X127722600Y-97002600D01*
X127992600Y-97002600D01*
X128297400Y-97002600D01*
X128567400Y-97002600D01*
X128567400Y-96927093D01*
X128564611Y-96903059D01*
X128564611Y-96903057D01*
X128521213Y-96804770D01*
X128521208Y-96804763D01*
X128445236Y-96728791D01*
X128445229Y-96728786D01*
X128346941Y-96685388D01*
X128322906Y-96682600D01*
X128297400Y-96682600D01*
X128297400Y-97002600D01*
X127992600Y-97002600D01*
X127992600Y-96682600D01*
X127967094Y-96682600D01*
X127943059Y-96685388D01*
X127943057Y-96685388D01*
X127844770Y-96728786D01*
X127844763Y-96728791D01*
X127768791Y-96804763D01*
X127768786Y-96804770D01*
X127725388Y-96903057D01*
X127725388Y-96903059D01*
X127722600Y-96927093D01*
X127547900Y-96927093D01*
X127547900Y-96927016D01*
X127545107Y-96902943D01*
X127501631Y-96804479D01*
X127501629Y-96804477D01*
X127501627Y-96804474D01*
X127425525Y-96728372D01*
X127425522Y-96728370D01*
X127425521Y-96728369D01*
X127327057Y-96684893D01*
X127327055Y-96684892D01*
X127308568Y-96682747D01*
X127302984Y-96682100D01*
X126947016Y-96682100D01*
X126942012Y-96682680D01*
X126922944Y-96684892D01*
X126824477Y-96728370D01*
X126824474Y-96728372D01*
X126748372Y-96804474D01*
X126748370Y-96804477D01*
X126704892Y-96902944D01*
X126702100Y-96927018D01*
X116400134Y-96927018D01*
X116400136Y-96927016D01*
X116455483Y-96871670D01*
X116456627Y-96870525D01*
X116456631Y-96870521D01*
X116500107Y-96772057D01*
X116502900Y-96747984D01*
X116502900Y-96292016D01*
X116500107Y-96267943D01*
X116456631Y-96169479D01*
X116456629Y-96169477D01*
X116456627Y-96169474D01*
X116380525Y-96093372D01*
X116380522Y-96093370D01*
X116380521Y-96093369D01*
X116282057Y-96049893D01*
X116282055Y-96049892D01*
X116263568Y-96047747D01*
X116257984Y-96047100D01*
X115902016Y-96047100D01*
X115897012Y-96047680D01*
X115877944Y-96049892D01*
X115779477Y-96093370D01*
X115779474Y-96093372D01*
X115703372Y-96169474D01*
X115703370Y-96169477D01*
X115659892Y-96267944D01*
X115657100Y-96292018D01*
X115482900Y-96292018D01*
X115482900Y-96292016D01*
X115480107Y-96267943D01*
X115436631Y-96169479D01*
X115436629Y-96169477D01*
X115436627Y-96169474D01*
X115360525Y-96093372D01*
X115360522Y-96093370D01*
X115360521Y-96093369D01*
X115262057Y-96049893D01*
X115262055Y-96049892D01*
X115243568Y-96047747D01*
X115237984Y-96047100D01*
X114882016Y-96047100D01*
X114877012Y-96047680D01*
X114857944Y-96049892D01*
X114759477Y-96093370D01*
X114759474Y-96093372D01*
X114683372Y-96169474D01*
X114683370Y-96169477D01*
X114639892Y-96267944D01*
X114637100Y-96292018D01*
X112847900Y-96292018D01*
X112847900Y-96189774D01*
X112844962Y-96164450D01*
X112799220Y-96060855D01*
X112799219Y-96060854D01*
X112799217Y-96060851D01*
X112719148Y-95980782D01*
X112719144Y-95980779D01*
X112707023Y-95975427D01*
X112669912Y-95939807D01*
X112662200Y-95906635D01*
X112662200Y-95654446D01*
X112667748Y-95639200D01*
X112669076Y-95623031D01*
X112678625Y-95609315D01*
X112679793Y-95606108D01*
X112683941Y-95601558D01*
X112684126Y-95601370D01*
X112757410Y-95528087D01*
X112758506Y-95526187D01*
X112763441Y-95521200D01*
X112782677Y-95512103D01*
X112800625Y-95500670D01*
X112805499Y-95501311D01*
X112809944Y-95499210D01*
X112830527Y-95504607D01*
X112851625Y-95507385D01*
X112854946Y-95511010D01*
X112859702Y-95512257D01*
X112872000Y-95529621D01*
X112886376Y-95545311D01*
X112887650Y-95551720D01*
X112889432Y-95554235D01*
X112889057Y-95558793D01*
X112892100Y-95574088D01*
X112892100Y-95580223D01*
X112895037Y-95605548D01*
X112940780Y-95709145D01*
X112940782Y-95709148D01*
X113020851Y-95789217D01*
X113020854Y-95789219D01*
X113020855Y-95789220D01*
X113124450Y-95834962D01*
X113149774Y-95837900D01*
X113149776Y-95837900D01*
X113540224Y-95837900D01*
X113540226Y-95837900D01*
X113565550Y-95834962D01*
X113669145Y-95789220D01*
X113749220Y-95709145D01*
X113794962Y-95605550D01*
X113797900Y-95580226D01*
X113797900Y-95477906D01*
X114637600Y-95477906D01*
X114640388Y-95501940D01*
X114640388Y-95501942D01*
X114683786Y-95600229D01*
X114683791Y-95600236D01*
X114759763Y-95676208D01*
X114759770Y-95676213D01*
X114858058Y-95719611D01*
X114882094Y-95722400D01*
X114907600Y-95722400D01*
X115212400Y-95722400D01*
X115237906Y-95722400D01*
X115261940Y-95719611D01*
X115261942Y-95719611D01*
X115360229Y-95676213D01*
X115360236Y-95676208D01*
X115436208Y-95600236D01*
X115436213Y-95600229D01*
X115479611Y-95501942D01*
X115479611Y-95501940D01*
X115482400Y-95477906D01*
X115482400Y-95402400D01*
X115212400Y-95402400D01*
X115212400Y-95722400D01*
X114907600Y-95722400D01*
X114907600Y-95402400D01*
X114637600Y-95402400D01*
X114637600Y-95477906D01*
X113797900Y-95477906D01*
X113797900Y-95022093D01*
X114637600Y-95022093D01*
X114637600Y-95097600D01*
X114907600Y-95097600D01*
X115212400Y-95097600D01*
X115482400Y-95097600D01*
X115482400Y-95022093D01*
X115482391Y-95022018D01*
X115657100Y-95022018D01*
X115657100Y-95477981D01*
X115659892Y-95502055D01*
X115662942Y-95508963D01*
X115703369Y-95600521D01*
X115703370Y-95600522D01*
X115703372Y-95600525D01*
X115779474Y-95676627D01*
X115779477Y-95676629D01*
X115779479Y-95676631D01*
X115877943Y-95720107D01*
X115902016Y-95722900D01*
X115902018Y-95722900D01*
X116257982Y-95722900D01*
X116257984Y-95722900D01*
X116282057Y-95720107D01*
X116380521Y-95676631D01*
X116456631Y-95600521D01*
X116500107Y-95502057D01*
X116502900Y-95477984D01*
X116502900Y-95022018D01*
X117177100Y-95022018D01*
X117177100Y-95477981D01*
X117179892Y-95502055D01*
X117182942Y-95508963D01*
X117223369Y-95600521D01*
X117223370Y-95600522D01*
X117223372Y-95600525D01*
X117299474Y-95676627D01*
X117299477Y-95676629D01*
X117299479Y-95676631D01*
X117397943Y-95720107D01*
X117422016Y-95722900D01*
X117422018Y-95722900D01*
X117777982Y-95722900D01*
X117777984Y-95722900D01*
X117802057Y-95720107D01*
X117900521Y-95676631D01*
X117976631Y-95600521D01*
X118020107Y-95502057D01*
X118022900Y-95477984D01*
X118022900Y-95022018D01*
X118197100Y-95022018D01*
X118197100Y-95477981D01*
X118199892Y-95502055D01*
X118202942Y-95508963D01*
X118243369Y-95600521D01*
X118243370Y-95600522D01*
X118243372Y-95600525D01*
X118319474Y-95676627D01*
X118319477Y-95676629D01*
X118319479Y-95676631D01*
X118417943Y-95720107D01*
X118442016Y-95722900D01*
X118442018Y-95722900D01*
X118797982Y-95722900D01*
X118797984Y-95722900D01*
X118822057Y-95720107D01*
X118920521Y-95676631D01*
X118940134Y-95657018D01*
X126702100Y-95657018D01*
X126702100Y-96112981D01*
X126704892Y-96137055D01*
X126704893Y-96137057D01*
X126748369Y-96235521D01*
X126748370Y-96235522D01*
X126748372Y-96235525D01*
X126824474Y-96311627D01*
X126824477Y-96311629D01*
X126824479Y-96311631D01*
X126922943Y-96355107D01*
X126947016Y-96357900D01*
X126947018Y-96357900D01*
X127302982Y-96357900D01*
X127302984Y-96357900D01*
X127327057Y-96355107D01*
X127425521Y-96311631D01*
X127501631Y-96235521D01*
X127545107Y-96137057D01*
X127547900Y-96112984D01*
X127547900Y-96112906D01*
X127722600Y-96112906D01*
X127725388Y-96136940D01*
X127725388Y-96136942D01*
X127768786Y-96235229D01*
X127768791Y-96235236D01*
X127844763Y-96311208D01*
X127844770Y-96311213D01*
X127943058Y-96354611D01*
X127967094Y-96357400D01*
X127992600Y-96357400D01*
X128297400Y-96357400D01*
X128322906Y-96357400D01*
X128346940Y-96354611D01*
X128346942Y-96354611D01*
X128445229Y-96311213D01*
X128445236Y-96311208D01*
X128521208Y-96235236D01*
X128521213Y-96235229D01*
X128564611Y-96136942D01*
X128564611Y-96136940D01*
X128567400Y-96112906D01*
X128567400Y-96037400D01*
X128297400Y-96037400D01*
X128297400Y-96357400D01*
X127992600Y-96357400D01*
X127992600Y-96037400D01*
X127722600Y-96037400D01*
X127722600Y-96112906D01*
X127547900Y-96112906D01*
X127547900Y-95657093D01*
X127722600Y-95657093D01*
X127722600Y-95732600D01*
X127992600Y-95732600D01*
X128297400Y-95732600D01*
X128567400Y-95732600D01*
X128567400Y-95657093D01*
X128564611Y-95633059D01*
X128564611Y-95633057D01*
X128521213Y-95534770D01*
X128521208Y-95534763D01*
X128445236Y-95458791D01*
X128445229Y-95458786D01*
X128346941Y-95415388D01*
X128322906Y-95412600D01*
X128297400Y-95412600D01*
X128297400Y-95732600D01*
X127992600Y-95732600D01*
X127992600Y-95412600D01*
X127967094Y-95412600D01*
X127943059Y-95415388D01*
X127943057Y-95415388D01*
X127844770Y-95458786D01*
X127844763Y-95458791D01*
X127768791Y-95534763D01*
X127768786Y-95534770D01*
X127725388Y-95633057D01*
X127725388Y-95633059D01*
X127722600Y-95657093D01*
X127547900Y-95657093D01*
X127547900Y-95657016D01*
X127545107Y-95632943D01*
X127501631Y-95534479D01*
X127501629Y-95534477D01*
X127501627Y-95534474D01*
X127425525Y-95458372D01*
X127425522Y-95458370D01*
X127425521Y-95458369D01*
X127327057Y-95414893D01*
X127327055Y-95414892D01*
X127308568Y-95412747D01*
X127302984Y-95412100D01*
X126947016Y-95412100D01*
X126942012Y-95412680D01*
X126922944Y-95414892D01*
X126824477Y-95458370D01*
X126824474Y-95458372D01*
X126748372Y-95534474D01*
X126748370Y-95534477D01*
X126704892Y-95632944D01*
X126702100Y-95657018D01*
X118940134Y-95657018D01*
X118957952Y-95639200D01*
X118995483Y-95601670D01*
X118996627Y-95600525D01*
X118996631Y-95600521D01*
X119040107Y-95502057D01*
X119042900Y-95477984D01*
X119042900Y-95022016D01*
X119040107Y-94997943D01*
X118996631Y-94899479D01*
X118996629Y-94899477D01*
X118996627Y-94899474D01*
X118920525Y-94823372D01*
X118920522Y-94823370D01*
X118920521Y-94823369D01*
X118822057Y-94779893D01*
X118822055Y-94779892D01*
X118803568Y-94777747D01*
X118797984Y-94777100D01*
X118442016Y-94777100D01*
X118437012Y-94777680D01*
X118417944Y-94779892D01*
X118319477Y-94823370D01*
X118319474Y-94823372D01*
X118243372Y-94899474D01*
X118243370Y-94899477D01*
X118199892Y-94997944D01*
X118197100Y-95022018D01*
X118022900Y-95022018D01*
X118022900Y-95022016D01*
X118020107Y-94997943D01*
X117976631Y-94899479D01*
X117976629Y-94899477D01*
X117976627Y-94899474D01*
X117900525Y-94823372D01*
X117900522Y-94823370D01*
X117900521Y-94823369D01*
X117802057Y-94779893D01*
X117802055Y-94779892D01*
X117783568Y-94777747D01*
X117777984Y-94777100D01*
X117422016Y-94777100D01*
X117417012Y-94777680D01*
X117397944Y-94779892D01*
X117299477Y-94823370D01*
X117299474Y-94823372D01*
X117223372Y-94899474D01*
X117223370Y-94899477D01*
X117179892Y-94997944D01*
X117177100Y-95022018D01*
X116502900Y-95022018D01*
X116502900Y-95022016D01*
X116500107Y-94997943D01*
X116456631Y-94899479D01*
X116456629Y-94899477D01*
X116456627Y-94899474D01*
X116380525Y-94823372D01*
X116380522Y-94823370D01*
X116380521Y-94823369D01*
X116282057Y-94779893D01*
X116282055Y-94779892D01*
X116263568Y-94777747D01*
X116257984Y-94777100D01*
X115902016Y-94777100D01*
X115897012Y-94777680D01*
X115877944Y-94779892D01*
X115779477Y-94823370D01*
X115779474Y-94823372D01*
X115703372Y-94899474D01*
X115703370Y-94899477D01*
X115659892Y-94997944D01*
X115657100Y-95022018D01*
X115482391Y-95022018D01*
X115479611Y-94998059D01*
X115479611Y-94998057D01*
X115436213Y-94899770D01*
X115436208Y-94899763D01*
X115360236Y-94823791D01*
X115360229Y-94823786D01*
X115261941Y-94780388D01*
X115237906Y-94777600D01*
X115212400Y-94777600D01*
X115212400Y-95097600D01*
X114907600Y-95097600D01*
X114907600Y-94777600D01*
X114882094Y-94777600D01*
X114858059Y-94780388D01*
X114858057Y-94780388D01*
X114759770Y-94823786D01*
X114759763Y-94823791D01*
X114683791Y-94899763D01*
X114683786Y-94899770D01*
X114640388Y-94998057D01*
X114640388Y-94998059D01*
X114637600Y-95022093D01*
X113797900Y-95022093D01*
X113797900Y-94401268D01*
X126722100Y-94401268D01*
X126722100Y-94828731D01*
X126724940Y-94853219D01*
X126724941Y-94853221D01*
X126769172Y-94953396D01*
X126769173Y-94953397D01*
X126769175Y-94953400D01*
X126846599Y-95030824D01*
X126846601Y-95030825D01*
X126846604Y-95030828D01*
X126946779Y-95075059D01*
X126971266Y-95077900D01*
X126971268Y-95077900D01*
X127338732Y-95077900D01*
X127338734Y-95077900D01*
X127363221Y-95075059D01*
X127463396Y-95030828D01*
X127540828Y-94953396D01*
X127566480Y-94895297D01*
X127602097Y-94858185D01*
X127653238Y-94852650D01*
X127695973Y-94881282D01*
X127704064Y-94895296D01*
X127729590Y-94953105D01*
X127729594Y-94953111D01*
X127806888Y-95030405D01*
X127806891Y-95030407D01*
X127906896Y-95074564D01*
X127931342Y-95077399D01*
X128267400Y-95077399D01*
X128298651Y-95077399D01*
X128323108Y-95074563D01*
X128423104Y-95030410D01*
X128423111Y-95030405D01*
X128500405Y-94953111D01*
X128500407Y-94953108D01*
X128544564Y-94853103D01*
X128547400Y-94828657D01*
X128547400Y-94767400D01*
X128267400Y-94767400D01*
X128267400Y-95077399D01*
X127931342Y-95077399D01*
X127962600Y-95077398D01*
X127962600Y-94462600D01*
X128267400Y-94462600D01*
X128547399Y-94462600D01*
X128547399Y-94401349D01*
X128544563Y-94376891D01*
X128500410Y-94276895D01*
X128500405Y-94276888D01*
X128423111Y-94199594D01*
X128423108Y-94199592D01*
X128323103Y-94155435D01*
X128298657Y-94152600D01*
X128267400Y-94152600D01*
X128267400Y-94462600D01*
X127962600Y-94462600D01*
X127962600Y-94152600D01*
X127962599Y-94152599D01*
X127931349Y-94152600D01*
X127906891Y-94155436D01*
X127806895Y-94199589D01*
X127806888Y-94199594D01*
X127729594Y-94276888D01*
X127729589Y-94276895D01*
X127704065Y-94334703D01*
X127668446Y-94371816D01*
X127617305Y-94377350D01*
X127574571Y-94348717D01*
X127566480Y-94334702D01*
X127546500Y-94289451D01*
X127540828Y-94276604D01*
X127540825Y-94276601D01*
X127540824Y-94276599D01*
X127463400Y-94199175D01*
X127463397Y-94199173D01*
X127463396Y-94199172D01*
X127363221Y-94154941D01*
X127363219Y-94154940D01*
X127344414Y-94152758D01*
X127338734Y-94152100D01*
X126971266Y-94152100D01*
X126966176Y-94152690D01*
X126946780Y-94154940D01*
X126946779Y-94154941D01*
X126846604Y-94199172D01*
X126846599Y-94199175D01*
X126769175Y-94276599D01*
X126769172Y-94276604D01*
X126724941Y-94376779D01*
X126724940Y-94376780D01*
X126722100Y-94401268D01*
X113797900Y-94401268D01*
X113797900Y-94314774D01*
X113794962Y-94289450D01*
X113749220Y-94185855D01*
X113749219Y-94185854D01*
X113749217Y-94185851D01*
X113669148Y-94105782D01*
X113669145Y-94105780D01*
X113565548Y-94060037D01*
X113546100Y-94057781D01*
X113540226Y-94057100D01*
X113149774Y-94057100D01*
X113144510Y-94057710D01*
X113124451Y-94060037D01*
X113020854Y-94105780D01*
X113020851Y-94105782D01*
X112940782Y-94185851D01*
X112940780Y-94185854D01*
X112895037Y-94289451D01*
X112892100Y-94314776D01*
X112892100Y-94925911D01*
X112874507Y-94974249D01*
X112829958Y-94999969D01*
X112779300Y-94991036D01*
X112761162Y-94975131D01*
X112760896Y-94975398D01*
X112673087Y-94887589D01*
X112569813Y-94827964D01*
X112454625Y-94797100D01*
X112335375Y-94797100D01*
X112248984Y-94820248D01*
X112220186Y-94827964D01*
X112220185Y-94827964D01*
X112116912Y-94887589D01*
X112029104Y-94975398D01*
X112028263Y-94974557D01*
X111989365Y-94999331D01*
X111938367Y-94992609D01*
X111903620Y-94954679D01*
X111897900Y-94925911D01*
X111897900Y-94314776D01*
X111894962Y-94289451D01*
X111889415Y-94276888D01*
X111849220Y-94185855D01*
X111849219Y-94185854D01*
X111849217Y-94185851D01*
X111769148Y-94105782D01*
X111769144Y-94105779D01*
X111757023Y-94100427D01*
X111719912Y-94064807D01*
X111712200Y-94031635D01*
X111712200Y-93676826D01*
X111729793Y-93628488D01*
X111734226Y-93623652D01*
X112962952Y-92394926D01*
X113000212Y-92377551D01*
X117597100Y-92377551D01*
X117597100Y-93747447D01*
X117597101Y-93747448D01*
X117605915Y-93791763D01*
X117610323Y-93813922D01*
X117660693Y-93889307D01*
X117736078Y-93939677D01*
X117802553Y-93952900D01*
X117997446Y-93952899D01*
X117997447Y-93952899D01*
X117997447Y-93952898D01*
X118063922Y-93939677D01*
X118108221Y-93910078D01*
X118158187Y-93897851D01*
X118191777Y-93910076D01*
X118236078Y-93939677D01*
X118302553Y-93952900D01*
X118497446Y-93952899D01*
X118497447Y-93952899D01*
X118497447Y-93952898D01*
X118563922Y-93939677D01*
X118608221Y-93910078D01*
X118658187Y-93897851D01*
X118691777Y-93910076D01*
X118736078Y-93939677D01*
X118802553Y-93952900D01*
X118997446Y-93952899D01*
X118997447Y-93952899D01*
X118997447Y-93952898D01*
X119063922Y-93939677D01*
X119108221Y-93910078D01*
X119158187Y-93897851D01*
X119191777Y-93910076D01*
X119236078Y-93939677D01*
X119302553Y-93952900D01*
X119497446Y-93952899D01*
X119497447Y-93952899D01*
X119497447Y-93952898D01*
X119563922Y-93939677D01*
X119608221Y-93910078D01*
X119658187Y-93897851D01*
X119691777Y-93910076D01*
X119736078Y-93939677D01*
X119802553Y-93952900D01*
X119997446Y-93952899D01*
X119997447Y-93952899D01*
X119997447Y-93952898D01*
X120063922Y-93939677D01*
X120108221Y-93910078D01*
X120158187Y-93897851D01*
X120191777Y-93910076D01*
X120236078Y-93939677D01*
X120302553Y-93952900D01*
X120497446Y-93952899D01*
X120497447Y-93952899D01*
X120497447Y-93952898D01*
X120563922Y-93939677D01*
X120608221Y-93910078D01*
X120658187Y-93897851D01*
X120691777Y-93910076D01*
X120736078Y-93939677D01*
X120802553Y-93952900D01*
X120997446Y-93952899D01*
X120997447Y-93952899D01*
X120997447Y-93952898D01*
X121063922Y-93939677D01*
X121108221Y-93910078D01*
X121158187Y-93897851D01*
X121191777Y-93910076D01*
X121236078Y-93939677D01*
X121302553Y-93952900D01*
X121497446Y-93952899D01*
X121497447Y-93952899D01*
X121497447Y-93952898D01*
X121563922Y-93939677D01*
X121608221Y-93910078D01*
X121658187Y-93897851D01*
X121691777Y-93910076D01*
X121736078Y-93939677D01*
X121802553Y-93952900D01*
X121997446Y-93952899D01*
X121997447Y-93952899D01*
X121997447Y-93952898D01*
X122063922Y-93939677D01*
X122108221Y-93910078D01*
X122158187Y-93897851D01*
X122191777Y-93910076D01*
X122236078Y-93939677D01*
X122302553Y-93952900D01*
X122497446Y-93952899D01*
X122497447Y-93952899D01*
X122497447Y-93952898D01*
X122563922Y-93939677D01*
X122608671Y-93909776D01*
X122658636Y-93897550D01*
X122692229Y-93909777D01*
X122736271Y-93939205D01*
X122750000Y-93941935D01*
X122750000Y-92183062D01*
X123050000Y-92183062D01*
X123050000Y-93941935D01*
X123063727Y-93939205D01*
X123107770Y-93909776D01*
X123157735Y-93897549D01*
X123191325Y-93909774D01*
X123236078Y-93939677D01*
X123302553Y-93952900D01*
X123497446Y-93952899D01*
X123497447Y-93952899D01*
X123497447Y-93952898D01*
X123563922Y-93939677D01*
X123639307Y-93889307D01*
X123689677Y-93813922D01*
X123702900Y-93747447D01*
X123702899Y-92377554D01*
X123689677Y-92311078D01*
X123639307Y-92235693D01*
X123638765Y-92235331D01*
X123563922Y-92185323D01*
X123563919Y-92185322D01*
X123497448Y-92172100D01*
X123302552Y-92172100D01*
X123302551Y-92172101D01*
X123236076Y-92185323D01*
X123191327Y-92215223D01*
X123141361Y-92227449D01*
X123107770Y-92215223D01*
X123063725Y-92185793D01*
X123050000Y-92183062D01*
X122750000Y-92183062D01*
X122749999Y-92183062D01*
X122736274Y-92185793D01*
X122736271Y-92185794D01*
X122692228Y-92215223D01*
X122642262Y-92227449D01*
X122608673Y-92215223D01*
X122563924Y-92185324D01*
X122563919Y-92185322D01*
X122497448Y-92172100D01*
X122302552Y-92172100D01*
X122302551Y-92172101D01*
X122236076Y-92185323D01*
X122236074Y-92185324D01*
X122191776Y-92214922D01*
X122141811Y-92227148D01*
X122108221Y-92214922D01*
X122063922Y-92185323D01*
X122063919Y-92185322D01*
X121997448Y-92172100D01*
X121802552Y-92172100D01*
X121802551Y-92172101D01*
X121736076Y-92185323D01*
X121736074Y-92185324D01*
X121691776Y-92214922D01*
X121641811Y-92227148D01*
X121608221Y-92214922D01*
X121563922Y-92185323D01*
X121563919Y-92185322D01*
X121497448Y-92172100D01*
X121302552Y-92172100D01*
X121302551Y-92172101D01*
X121236076Y-92185323D01*
X121236074Y-92185324D01*
X121191776Y-92214922D01*
X121141811Y-92227148D01*
X121108221Y-92214922D01*
X121063922Y-92185323D01*
X121063919Y-92185322D01*
X120997448Y-92172100D01*
X120802552Y-92172100D01*
X120802551Y-92172101D01*
X120736076Y-92185323D01*
X120736074Y-92185324D01*
X120691776Y-92214922D01*
X120641811Y-92227148D01*
X120608221Y-92214922D01*
X120563922Y-92185323D01*
X120563919Y-92185322D01*
X120497448Y-92172100D01*
X120302552Y-92172100D01*
X120302551Y-92172101D01*
X120236076Y-92185323D01*
X120236074Y-92185324D01*
X120191776Y-92214922D01*
X120141811Y-92227148D01*
X120108221Y-92214922D01*
X120063922Y-92185323D01*
X120063919Y-92185322D01*
X119997448Y-92172100D01*
X119802552Y-92172100D01*
X119802551Y-92172101D01*
X119736076Y-92185323D01*
X119736074Y-92185324D01*
X119691776Y-92214922D01*
X119641811Y-92227148D01*
X119608221Y-92214922D01*
X119563922Y-92185323D01*
X119563919Y-92185322D01*
X119497448Y-92172100D01*
X119302552Y-92172100D01*
X119302551Y-92172101D01*
X119236076Y-92185323D01*
X119236074Y-92185324D01*
X119191776Y-92214922D01*
X119141811Y-92227148D01*
X119108221Y-92214922D01*
X119063922Y-92185323D01*
X119063919Y-92185322D01*
X118997448Y-92172100D01*
X118802552Y-92172100D01*
X118802551Y-92172101D01*
X118736076Y-92185323D01*
X118736074Y-92185324D01*
X118691776Y-92214922D01*
X118641811Y-92227148D01*
X118608221Y-92214922D01*
X118563922Y-92185323D01*
X118563919Y-92185322D01*
X118497448Y-92172100D01*
X118302552Y-92172100D01*
X118302551Y-92172101D01*
X118236076Y-92185323D01*
X118236074Y-92185324D01*
X118191776Y-92214922D01*
X118141811Y-92227148D01*
X118108221Y-92214922D01*
X118063922Y-92185323D01*
X118063919Y-92185322D01*
X117997448Y-92172100D01*
X117802552Y-92172100D01*
X117802551Y-92172101D01*
X117736078Y-92185323D01*
X117660692Y-92235693D01*
X117610323Y-92311077D01*
X117610322Y-92311080D01*
X117597100Y-92377551D01*
X113000212Y-92377551D01*
X113009572Y-92373186D01*
X113016126Y-92372900D01*
X113257982Y-92372900D01*
X113257984Y-92372900D01*
X113282057Y-92370107D01*
X113380521Y-92326631D01*
X113380944Y-92326208D01*
X113386468Y-92320685D01*
X113456627Y-92250525D01*
X113456631Y-92250521D01*
X113500107Y-92152057D01*
X113502900Y-92127984D01*
X113502900Y-91772016D01*
X113500107Y-91747943D01*
X113456631Y-91649479D01*
X113456629Y-91649477D01*
X113456627Y-91649474D01*
X113380525Y-91573372D01*
X113380522Y-91573370D01*
X113380521Y-91573369D01*
X113333373Y-91552551D01*
X115597100Y-91552551D01*
X115597100Y-91747447D01*
X115597101Y-91747448D01*
X115601456Y-91769342D01*
X115610323Y-91813922D01*
X115660693Y-91889307D01*
X115736078Y-91939677D01*
X115802553Y-91952900D01*
X117172446Y-91952899D01*
X117172447Y-91952899D01*
X117172447Y-91952898D01*
X117238922Y-91939677D01*
X117314307Y-91889307D01*
X117364677Y-91813922D01*
X117377900Y-91747447D01*
X117377899Y-91552554D01*
X117364677Y-91486078D01*
X117334775Y-91441327D01*
X117322550Y-91391362D01*
X117334777Y-91357769D01*
X117364205Y-91313727D01*
X117366936Y-91300000D01*
X115608064Y-91300000D01*
X115610794Y-91313728D01*
X115640222Y-91357770D01*
X115652449Y-91407736D01*
X115640224Y-91441326D01*
X115610323Y-91486078D01*
X115610322Y-91486080D01*
X115597100Y-91552551D01*
X113333373Y-91552551D01*
X113282057Y-91529893D01*
X113282055Y-91529892D01*
X113263568Y-91527747D01*
X113257984Y-91527100D01*
X112802016Y-91527100D01*
X112797012Y-91527680D01*
X112777944Y-91529892D01*
X112679477Y-91573370D01*
X112679474Y-91573372D01*
X112603372Y-91649474D01*
X112603370Y-91649477D01*
X112559892Y-91747944D01*
X112557100Y-91772018D01*
X112557100Y-92013874D01*
X112539507Y-92062212D01*
X112535084Y-92067037D01*
X112430022Y-92172100D01*
X112339675Y-92262447D01*
X112293055Y-92284186D01*
X112243368Y-92270872D01*
X112213863Y-92228735D01*
X112217709Y-92178896D01*
X112229611Y-92151940D01*
X112232400Y-92127906D01*
X112232400Y-92102400D01*
X111912400Y-92102400D01*
X111912400Y-92372400D01*
X111987906Y-92372400D01*
X112011940Y-92369611D01*
X112038896Y-92357709D01*
X112090221Y-92354278D01*
X112131744Y-92384641D01*
X112144036Y-92434590D01*
X112122446Y-92479675D01*
X111691152Y-92910970D01*
X111293643Y-93308479D01*
X111270079Y-93332043D01*
X111218479Y-93383642D01*
X111218479Y-93383643D01*
X111178473Y-93480228D01*
X111177800Y-93481852D01*
X111177800Y-94031635D01*
X111160207Y-94079973D01*
X111132977Y-94100427D01*
X111120855Y-94105779D01*
X111120851Y-94105782D01*
X111040782Y-94185851D01*
X111040780Y-94185854D01*
X110995037Y-94289451D01*
X110992100Y-94314776D01*
X101625500Y-94314776D01*
X101625500Y-93067599D01*
X103425132Y-93067599D01*
X103425133Y-93067600D01*
X103801577Y-93067600D01*
X103780444Y-93104204D01*
X103760000Y-93180504D01*
X103760000Y-93259496D01*
X103780444Y-93335796D01*
X103801577Y-93372400D01*
X103425133Y-93372400D01*
X103432671Y-93410298D01*
X103481851Y-93529029D01*
X103553244Y-93635877D01*
X103553252Y-93635886D01*
X103644113Y-93726747D01*
X103644122Y-93726755D01*
X103750970Y-93798148D01*
X103869698Y-93847327D01*
X103869699Y-93847328D01*
X103995743Y-93872400D01*
X104207600Y-93872400D01*
X104207600Y-93520000D01*
X104512400Y-93520000D01*
X104512400Y-93872400D01*
X104724257Y-93872400D01*
X104850300Y-93847328D01*
X104850301Y-93847327D01*
X104969029Y-93798148D01*
X105075877Y-93726755D01*
X105075886Y-93726747D01*
X105166747Y-93635886D01*
X105166755Y-93635877D01*
X105238148Y-93529029D01*
X105287328Y-93410298D01*
X105294867Y-93372400D01*
X104918423Y-93372400D01*
X104939556Y-93335796D01*
X104960000Y-93259496D01*
X104960000Y-93180504D01*
X104939556Y-93104204D01*
X104918423Y-93067600D01*
X105294867Y-93067600D01*
X105294867Y-93067599D01*
X107355132Y-93067599D01*
X107355133Y-93067600D01*
X107731577Y-93067600D01*
X107710444Y-93104204D01*
X107690000Y-93180504D01*
X107690000Y-93259496D01*
X107710444Y-93335796D01*
X107731577Y-93372400D01*
X107355133Y-93372400D01*
X107362671Y-93410298D01*
X107411851Y-93529029D01*
X107483244Y-93635877D01*
X107483252Y-93635886D01*
X107574113Y-93726747D01*
X107574122Y-93726755D01*
X107680970Y-93798148D01*
X107799698Y-93847327D01*
X107799699Y-93847328D01*
X107925743Y-93872400D01*
X108387600Y-93872400D01*
X108387600Y-93520000D01*
X108692400Y-93520000D01*
X108692400Y-93872400D01*
X109154257Y-93872400D01*
X109280300Y-93847328D01*
X109280301Y-93847327D01*
X109399029Y-93798148D01*
X109505877Y-93726755D01*
X109505886Y-93726747D01*
X109596747Y-93635886D01*
X109596755Y-93635877D01*
X109668148Y-93529029D01*
X109717328Y-93410298D01*
X109724867Y-93372400D01*
X109348423Y-93372400D01*
X109369556Y-93335796D01*
X109390000Y-93259496D01*
X109390000Y-93180504D01*
X109369556Y-93104204D01*
X109348423Y-93067600D01*
X109724867Y-93067600D01*
X109724867Y-93067599D01*
X109717328Y-93029701D01*
X109668148Y-92910970D01*
X109596755Y-92804122D01*
X109596747Y-92804113D01*
X109523679Y-92731045D01*
X109505036Y-92712682D01*
X109461511Y-92683600D01*
X109377800Y-92683600D01*
X109329462Y-92666007D01*
X109303742Y-92621458D01*
X109302600Y-92608400D01*
X109302600Y-92602400D01*
X109607400Y-92602400D01*
X110195013Y-92602400D01*
X110239462Y-92593558D01*
X110239464Y-92593557D01*
X110289873Y-92559873D01*
X110323557Y-92509464D01*
X110323558Y-92509462D01*
X110332400Y-92465012D01*
X110332400Y-92302400D01*
X109607400Y-92302400D01*
X109607400Y-92602400D01*
X109302600Y-92602400D01*
X109302600Y-92302400D01*
X108577600Y-92302400D01*
X108577600Y-92465014D01*
X108581853Y-92486399D01*
X108581854Y-92486400D01*
X108617200Y-92486400D01*
X108665538Y-92503993D01*
X108691258Y-92548542D01*
X108692400Y-92561600D01*
X108692400Y-92920000D01*
X108387600Y-92920000D01*
X108387600Y-92567600D01*
X107925743Y-92567600D01*
X107799699Y-92592671D01*
X107799698Y-92592672D01*
X107680970Y-92641851D01*
X107574122Y-92713244D01*
X107574113Y-92713252D01*
X107483252Y-92804113D01*
X107483244Y-92804122D01*
X107411851Y-92910970D01*
X107362671Y-93029701D01*
X107355132Y-93067599D01*
X105294867Y-93067599D01*
X105287328Y-93029701D01*
X105238148Y-92910970D01*
X105166755Y-92804122D01*
X105166747Y-92804113D01*
X105075886Y-92713252D01*
X105075877Y-92713244D01*
X104969029Y-92641851D01*
X104850301Y-92592672D01*
X104850300Y-92592671D01*
X104724257Y-92567600D01*
X104512400Y-92567600D01*
X104512400Y-92920000D01*
X104207600Y-92920000D01*
X104207600Y-92567600D01*
X103995743Y-92567600D01*
X103869699Y-92592671D01*
X103869698Y-92592672D01*
X103750970Y-92641851D01*
X103644122Y-92713244D01*
X103644113Y-92713252D01*
X103553252Y-92804113D01*
X103553244Y-92804122D01*
X103481851Y-92910970D01*
X103432671Y-93029701D01*
X103425132Y-93067599D01*
X101625500Y-93067599D01*
X101625500Y-84427599D01*
X103425132Y-84427599D01*
X103425133Y-84427600D01*
X103801577Y-84427600D01*
X103780444Y-84464204D01*
X103760000Y-84540504D01*
X103760000Y-84619496D01*
X103780444Y-84695796D01*
X103801577Y-84732400D01*
X103425133Y-84732400D01*
X103432671Y-84770298D01*
X103481851Y-84889029D01*
X103553244Y-84995877D01*
X103553252Y-84995886D01*
X103644113Y-85086747D01*
X103644122Y-85086755D01*
X103750970Y-85158148D01*
X103869698Y-85207327D01*
X103869699Y-85207328D01*
X103995743Y-85232400D01*
X104207600Y-85232400D01*
X104207600Y-84880000D01*
X104512400Y-84880000D01*
X104512400Y-85232400D01*
X104724257Y-85232400D01*
X104850300Y-85207328D01*
X104850301Y-85207327D01*
X104969029Y-85158148D01*
X105075877Y-85086755D01*
X105075886Y-85086747D01*
X105166747Y-84995886D01*
X105166755Y-84995877D01*
X105238148Y-84889029D01*
X105287328Y-84770298D01*
X105294867Y-84732400D01*
X104918423Y-84732400D01*
X104939556Y-84695796D01*
X104960000Y-84619496D01*
X104960000Y-84540504D01*
X104939556Y-84464204D01*
X104918423Y-84427600D01*
X105294867Y-84427600D01*
X105294867Y-84427599D01*
X105287328Y-84389701D01*
X105238148Y-84270970D01*
X105166755Y-84164122D01*
X105166747Y-84164113D01*
X105075886Y-84073252D01*
X105075877Y-84073244D01*
X104969029Y-84001851D01*
X104850301Y-83952672D01*
X104850300Y-83952671D01*
X104724257Y-83927600D01*
X104512400Y-83927600D01*
X104512400Y-84280000D01*
X104207600Y-84280000D01*
X104207600Y-83927600D01*
X103995743Y-83927600D01*
X103869699Y-83952671D01*
X103869698Y-83952672D01*
X103750970Y-84001851D01*
X103644122Y-84073244D01*
X103644113Y-84073252D01*
X103553252Y-84164113D01*
X103553244Y-84164122D01*
X103481851Y-84270970D01*
X103432671Y-84389701D01*
X103425132Y-84427599D01*
X101625500Y-84427599D01*
X101625500Y-81504126D01*
X105697100Y-81504126D01*
X105697100Y-82325858D01*
X105697101Y-82325863D01*
X105707801Y-82399317D01*
X105707802Y-82399319D01*
X105763195Y-82512627D01*
X105852371Y-82601803D01*
X105852373Y-82601804D01*
X105852375Y-82601806D01*
X105914428Y-82632142D01*
X105950126Y-82669175D01*
X105956600Y-82699699D01*
X105956600Y-84026610D01*
X105939007Y-84074948D01*
X105934574Y-84079784D01*
X105770214Y-84244144D01*
X105770213Y-84244144D01*
X105725001Y-84322452D01*
X105725002Y-84322453D01*
X105701600Y-84409791D01*
X105701600Y-86949790D01*
X105701600Y-86949791D01*
X105701600Y-90215209D01*
X105710238Y-90247446D01*
X105717558Y-90274767D01*
X105725002Y-90302547D01*
X105725002Y-90302548D01*
X105770213Y-90380855D01*
X106469144Y-91079786D01*
X106469146Y-91079787D01*
X106469147Y-91079788D01*
X106547452Y-91124998D01*
X106634791Y-91148400D01*
X106725210Y-91148400D01*
X107873811Y-91148400D01*
X107889238Y-91154015D01*
X107905592Y-91155446D01*
X107919036Y-91164860D01*
X107922149Y-91165993D01*
X107926985Y-91170426D01*
X107950866Y-91194307D01*
X107972606Y-91240927D01*
X107959292Y-91290614D01*
X107917155Y-91320119D01*
X107825537Y-91344668D01*
X107825529Y-91344671D01*
X107716561Y-91407584D01*
X107627584Y-91496561D01*
X107564671Y-91605529D01*
X107564668Y-91605537D01*
X107532100Y-91727083D01*
X107532100Y-91852917D01*
X107561710Y-91963424D01*
X107564668Y-91974462D01*
X107564671Y-91974470D01*
X107627584Y-92083438D01*
X107716561Y-92172415D01*
X107825529Y-92235328D01*
X107825532Y-92235329D01*
X107825537Y-92235332D01*
X107947083Y-92267900D01*
X107947086Y-92267900D01*
X108072914Y-92267900D01*
X108072917Y-92267900D01*
X108194463Y-92235332D01*
X108194470Y-92235328D01*
X108245050Y-92206126D01*
X108303438Y-92172415D01*
X108347947Y-92127906D01*
X111287600Y-92127906D01*
X111290388Y-92151940D01*
X111290388Y-92151942D01*
X111333786Y-92250229D01*
X111333791Y-92250236D01*
X111409763Y-92326208D01*
X111409770Y-92326213D01*
X111508058Y-92369611D01*
X111532094Y-92372400D01*
X111607600Y-92372400D01*
X111607600Y-92102400D01*
X111287600Y-92102400D01*
X111287600Y-92127906D01*
X108347947Y-92127906D01*
X108392415Y-92083438D01*
X108404670Y-92062212D01*
X108442615Y-91996488D01*
X108482020Y-91963424D01*
X108533459Y-91963424D01*
X108560914Y-91980915D01*
X108577599Y-91997600D01*
X110332400Y-91997600D01*
X110332400Y-91834988D01*
X110324091Y-91793222D01*
X110318841Y-91781755D01*
X110318063Y-91772093D01*
X111287600Y-91772093D01*
X111287600Y-91797600D01*
X111607600Y-91797600D01*
X111912400Y-91797600D01*
X112232400Y-91797600D01*
X112232400Y-91772093D01*
X112229611Y-91748059D01*
X112229611Y-91748057D01*
X112186213Y-91649770D01*
X112186208Y-91649763D01*
X112110236Y-91573791D01*
X112110229Y-91573786D01*
X112011941Y-91530388D01*
X111987906Y-91527600D01*
X111912400Y-91527600D01*
X111912400Y-91797600D01*
X111607600Y-91797600D01*
X111607600Y-91527600D01*
X111532094Y-91527600D01*
X111508059Y-91530388D01*
X111508057Y-91530388D01*
X111409770Y-91573786D01*
X111409763Y-91573791D01*
X111333791Y-91649763D01*
X111333786Y-91649770D01*
X111290388Y-91748057D01*
X111290388Y-91748059D01*
X111287600Y-91772093D01*
X110318063Y-91772093D01*
X110317230Y-91761753D01*
X110312461Y-91742264D01*
X110315081Y-91735063D01*
X110314713Y-91730481D01*
X110318890Y-91724602D01*
X110321754Y-91716733D01*
X110321193Y-91716501D01*
X110324025Y-91709661D01*
X110324028Y-91709658D01*
X110332900Y-91665057D01*
X110332899Y-91207325D01*
X110350492Y-91158988D01*
X110395040Y-91133268D01*
X110445699Y-91142201D01*
X110461273Y-91154152D01*
X110463640Y-91156519D01*
X110463641Y-91156519D01*
X110463643Y-91156521D01*
X110561851Y-91197200D01*
X110668149Y-91197200D01*
X111270905Y-91197200D01*
X111319243Y-91214793D01*
X111332946Y-91229903D01*
X111333372Y-91230525D01*
X111409474Y-91306627D01*
X111409477Y-91306629D01*
X111409479Y-91306631D01*
X111507943Y-91350107D01*
X111532016Y-91352900D01*
X111532018Y-91352900D01*
X111987982Y-91352900D01*
X111987984Y-91352900D01*
X112012057Y-91350107D01*
X112110521Y-91306631D01*
X112186631Y-91230521D01*
X112230107Y-91132057D01*
X112232900Y-91107984D01*
X112232900Y-90752016D01*
X112230107Y-90727943D01*
X112186631Y-90629479D01*
X112186629Y-90629477D01*
X112186627Y-90629474D01*
X112110525Y-90553372D01*
X112110522Y-90553370D01*
X112110521Y-90553369D01*
X112012057Y-90509893D01*
X112012055Y-90509892D01*
X111993568Y-90507747D01*
X111987984Y-90507100D01*
X111532016Y-90507100D01*
X111527012Y-90507680D01*
X111507944Y-90509892D01*
X111447978Y-90536370D01*
X111411330Y-90552552D01*
X111409477Y-90553370D01*
X111409474Y-90553372D01*
X111333372Y-90629474D01*
X111332946Y-90630097D01*
X111332256Y-90630590D01*
X111328441Y-90634406D01*
X111327808Y-90633773D01*
X111291114Y-90660034D01*
X111270905Y-90662800D01*
X110756826Y-90662800D01*
X110708488Y-90645207D01*
X110703662Y-90640784D01*
X110486357Y-90423479D01*
X110388149Y-90382800D01*
X110388148Y-90382800D01*
X110381306Y-90379966D01*
X110382454Y-90377192D01*
X110349448Y-90357160D01*
X110332899Y-90310097D01*
X110332899Y-89992399D01*
X110350492Y-89944062D01*
X110395041Y-89918342D01*
X110408099Y-89917200D01*
X112603866Y-89917200D01*
X112652204Y-89934793D01*
X112657040Y-89939226D01*
X112814639Y-90096825D01*
X112836379Y-90143445D01*
X112823065Y-90193132D01*
X112814641Y-90203172D01*
X112803480Y-90214333D01*
X112803479Y-90214334D01*
X112803479Y-90214335D01*
X112766941Y-90302547D01*
X112762800Y-90312544D01*
X112762800Y-90467578D01*
X112745207Y-90515916D01*
X112717976Y-90536370D01*
X112679481Y-90553367D01*
X112679475Y-90553371D01*
X112603372Y-90629474D01*
X112603370Y-90629477D01*
X112603369Y-90629478D01*
X112603369Y-90629479D01*
X112601473Y-90633773D01*
X112559892Y-90727944D01*
X112557100Y-90752018D01*
X112557100Y-91107981D01*
X112559892Y-91132055D01*
X112559893Y-91132057D01*
X112603369Y-91230521D01*
X112603370Y-91230522D01*
X112603372Y-91230525D01*
X112679474Y-91306627D01*
X112679477Y-91306629D01*
X112679479Y-91306631D01*
X112777943Y-91350107D01*
X112802016Y-91352900D01*
X112802018Y-91352900D01*
X113257982Y-91352900D01*
X113257984Y-91352900D01*
X113282057Y-91350107D01*
X113380521Y-91306631D01*
X113456631Y-91230521D01*
X113500107Y-91132057D01*
X113502900Y-91107984D01*
X113502900Y-90752016D01*
X113500107Y-90727943D01*
X113456631Y-90629479D01*
X113456629Y-90629477D01*
X113456627Y-90629474D01*
X113375594Y-90548441D01*
X113376874Y-90547160D01*
X113352148Y-90512605D01*
X113356107Y-90461318D01*
X113392106Y-90424574D01*
X113424583Y-90417200D01*
X115532392Y-90417200D01*
X115580730Y-90434793D01*
X115606450Y-90479342D01*
X115606147Y-90507071D01*
X115597100Y-90552551D01*
X115597100Y-90747447D01*
X115597101Y-90747448D01*
X115610323Y-90813923D01*
X115640223Y-90858672D01*
X115652449Y-90908637D01*
X115640223Y-90942228D01*
X115610794Y-90986271D01*
X115608064Y-91000000D01*
X117366935Y-91000000D01*
X117364205Y-90986271D01*
X117334777Y-90942229D01*
X117322550Y-90892264D01*
X117334776Y-90858672D01*
X117335078Y-90858220D01*
X117364677Y-90813922D01*
X117377900Y-90747447D01*
X117377899Y-90552554D01*
X117364677Y-90486078D01*
X117363918Y-90484942D01*
X117335077Y-90441777D01*
X117322851Y-90391812D01*
X117335075Y-90358224D01*
X117364677Y-90313922D01*
X117377900Y-90247447D01*
X117377900Y-90193132D01*
X117377899Y-90052552D01*
X117377898Y-90052551D01*
X117368852Y-90007071D01*
X117364677Y-89986078D01*
X117364676Y-89986076D01*
X117335077Y-89941777D01*
X117322851Y-89891812D01*
X117335075Y-89858224D01*
X117364677Y-89813922D01*
X117377900Y-89747447D01*
X117377899Y-89552554D01*
X117377898Y-89552551D01*
X117368852Y-89507071D01*
X117376677Y-89456230D01*
X117415352Y-89422313D01*
X117442607Y-89417200D01*
X118216900Y-89417200D01*
X118265238Y-89434793D01*
X118290958Y-89479342D01*
X118292100Y-89492400D01*
X118292100Y-89594625D01*
X118310702Y-89664049D01*
X118322964Y-89709813D01*
X118322964Y-89709814D01*
X118382589Y-89813087D01*
X118466912Y-89897410D01*
X118526538Y-89931834D01*
X118570187Y-89957036D01*
X118685375Y-89987900D01*
X118685378Y-89987900D01*
X118804622Y-89987900D01*
X118804625Y-89987900D01*
X118919813Y-89957036D01*
X119023087Y-89897410D01*
X119107410Y-89813087D01*
X119167036Y-89709813D01*
X119197900Y-89594625D01*
X119197900Y-89475375D01*
X119167036Y-89360187D01*
X119167035Y-89360185D01*
X119107410Y-89256912D01*
X119023087Y-89172589D01*
X118919813Y-89112964D01*
X118804625Y-89082100D01*
X118701126Y-89082100D01*
X118652788Y-89064507D01*
X118647962Y-89060084D01*
X118511357Y-88923479D01*
X118413149Y-88882800D01*
X118413148Y-88882800D01*
X117442608Y-88882800D01*
X117394270Y-88865207D01*
X117368550Y-88820658D01*
X117368853Y-88792929D01*
X117370180Y-88786253D01*
X117377900Y-88747447D01*
X117377899Y-88552554D01*
X117377898Y-88552551D01*
X123922100Y-88552551D01*
X123922100Y-88747447D01*
X123922101Y-88747448D01*
X123935323Y-88813923D01*
X123964922Y-88858222D01*
X123977148Y-88908188D01*
X123964923Y-88941777D01*
X123935323Y-88986078D01*
X123935322Y-88986080D01*
X123922100Y-89052551D01*
X123922100Y-89247447D01*
X123922101Y-89247448D01*
X123935323Y-89313923D01*
X123964922Y-89358222D01*
X123977148Y-89408188D01*
X123964923Y-89441777D01*
X123935323Y-89486078D01*
X123935322Y-89486080D01*
X123922100Y-89552551D01*
X123922100Y-89747447D01*
X123922101Y-89747448D01*
X123935323Y-89813923D01*
X123964922Y-89858222D01*
X123977148Y-89908188D01*
X123964923Y-89941777D01*
X123935323Y-89986078D01*
X123935322Y-89986080D01*
X123922100Y-90052551D01*
X123922101Y-90247446D01*
X123935323Y-90313923D01*
X123964922Y-90358222D01*
X123977148Y-90408188D01*
X123964923Y-90441777D01*
X123935323Y-90486078D01*
X123935322Y-90486080D01*
X123922100Y-90552551D01*
X123922100Y-90747447D01*
X123922101Y-90747448D01*
X123935323Y-90813923D01*
X123964922Y-90858222D01*
X123977148Y-90908188D01*
X123964923Y-90941777D01*
X123935323Y-90986078D01*
X123935322Y-90986080D01*
X123922100Y-91052551D01*
X123922100Y-91247447D01*
X123922101Y-91247448D01*
X123935323Y-91313923D01*
X123964922Y-91358222D01*
X123977148Y-91408188D01*
X123964923Y-91441777D01*
X123935323Y-91486078D01*
X123935322Y-91486080D01*
X123922100Y-91552551D01*
X123922100Y-91747447D01*
X123922101Y-91747448D01*
X123926456Y-91769342D01*
X123935323Y-91813922D01*
X123985693Y-91889307D01*
X124061078Y-91939677D01*
X124127553Y-91952900D01*
X125497446Y-91952899D01*
X125497447Y-91952899D01*
X125497447Y-91952898D01*
X125563922Y-91939677D01*
X125639307Y-91889307D01*
X125689677Y-91813922D01*
X125702900Y-91747447D01*
X125702899Y-91552554D01*
X125689677Y-91486078D01*
X125689676Y-91486076D01*
X125660077Y-91441777D01*
X125647851Y-91391812D01*
X125660075Y-91358224D01*
X125689677Y-91313922D01*
X125702900Y-91247447D01*
X125702899Y-91052554D01*
X125689677Y-90986078D01*
X125689676Y-90986076D01*
X125660077Y-90941777D01*
X125647851Y-90891812D01*
X125660075Y-90858224D01*
X125689677Y-90813922D01*
X125702900Y-90747447D01*
X125702899Y-90552554D01*
X125689677Y-90486078D01*
X125688918Y-90484942D01*
X125660077Y-90441777D01*
X125647851Y-90391812D01*
X125660075Y-90358224D01*
X125689677Y-90313922D01*
X125702900Y-90247447D01*
X125702900Y-90150000D01*
X125702899Y-90052553D01*
X125693852Y-90007071D01*
X125701677Y-89956230D01*
X125740352Y-89922313D01*
X125767607Y-89917200D01*
X126393174Y-89917200D01*
X126441512Y-89934793D01*
X126446348Y-89939226D01*
X126895074Y-90387952D01*
X126916814Y-90434572D01*
X126917100Y-90441126D01*
X126917100Y-92400055D01*
X126917101Y-92400057D01*
X126925972Y-92444659D01*
X126959764Y-92495232D01*
X126959765Y-92495232D01*
X126959766Y-92495234D01*
X127010342Y-92529028D01*
X127054943Y-92537900D01*
X127247673Y-92537899D01*
X127296009Y-92555492D01*
X127321729Y-92600040D01*
X127312797Y-92650699D01*
X127300847Y-92666273D01*
X127107048Y-92860074D01*
X127060427Y-92881814D01*
X127053873Y-92882100D01*
X126971266Y-92882100D01*
X126966176Y-92882690D01*
X126946780Y-92884940D01*
X126946779Y-92884941D01*
X126846604Y-92929172D01*
X126846599Y-92929175D01*
X126769175Y-93006599D01*
X126769172Y-93006604D01*
X126724941Y-93106779D01*
X126724940Y-93106780D01*
X126722100Y-93131268D01*
X126722100Y-93558731D01*
X126724940Y-93583219D01*
X126724941Y-93583221D01*
X126769172Y-93683396D01*
X126769173Y-93683397D01*
X126769175Y-93683400D01*
X126846599Y-93760824D01*
X126846601Y-93760825D01*
X126846604Y-93760828D01*
X126946779Y-93805059D01*
X126971266Y-93807900D01*
X126971268Y-93807900D01*
X127338732Y-93807900D01*
X127338734Y-93807900D01*
X127363221Y-93805059D01*
X127463396Y-93760828D01*
X127540828Y-93683396D01*
X127566480Y-93625297D01*
X127602097Y-93588185D01*
X127653238Y-93582650D01*
X127695973Y-93611282D01*
X127704064Y-93625296D01*
X127729590Y-93683105D01*
X127729594Y-93683111D01*
X127806888Y-93760405D01*
X127806891Y-93760407D01*
X127906896Y-93804564D01*
X127931342Y-93807399D01*
X128267400Y-93807399D01*
X128298651Y-93807399D01*
X128323108Y-93804563D01*
X128423104Y-93760410D01*
X128423111Y-93760405D01*
X128495227Y-93688289D01*
X131342100Y-93688289D01*
X131342100Y-94271710D01*
X131357043Y-94366056D01*
X131374985Y-94401268D01*
X131414984Y-94479771D01*
X131505229Y-94570016D01*
X131618943Y-94627956D01*
X131618945Y-94627957D01*
X131713292Y-94642900D01*
X131713296Y-94642900D01*
X136276704Y-94642900D01*
X136276708Y-94642900D01*
X136371055Y-94627957D01*
X136484771Y-94570016D01*
X136575016Y-94479771D01*
X136632957Y-94366055D01*
X136647900Y-94271708D01*
X136647900Y-94236126D01*
X136665493Y-94187788D01*
X136669926Y-94182952D01*
X137386519Y-93466359D01*
X137386521Y-93466357D01*
X137427200Y-93368149D01*
X137427200Y-93261851D01*
X137427200Y-92867819D01*
X137444793Y-92819481D01*
X137489342Y-92793761D01*
X137540000Y-92802694D01*
X137564927Y-92826041D01*
X137568480Y-92831359D01*
X138920074Y-94182952D01*
X138941814Y-94229572D01*
X138942100Y-94236126D01*
X138942100Y-94271710D01*
X138957043Y-94366056D01*
X138974985Y-94401268D01*
X139014984Y-94479771D01*
X139105229Y-94570016D01*
X139218943Y-94627956D01*
X139218945Y-94627957D01*
X139313292Y-94642900D01*
X139313296Y-94642900D01*
X143876704Y-94642900D01*
X143876708Y-94642900D01*
X143971055Y-94627957D01*
X144084771Y-94570016D01*
X144175016Y-94479771D01*
X144232957Y-94366055D01*
X144247900Y-94271708D01*
X144247900Y-93688292D01*
X144232957Y-93593945D01*
X144175016Y-93480229D01*
X144084771Y-93389984D01*
X143971055Y-93332043D01*
X143971057Y-93332043D01*
X143876710Y-93317100D01*
X143876708Y-93317100D01*
X139313292Y-93317100D01*
X139313289Y-93317100D01*
X139218943Y-93332043D01*
X139105230Y-93389983D01*
X139047219Y-93447994D01*
X139000599Y-93469733D01*
X138950912Y-93456419D01*
X138940871Y-93447993D01*
X138084226Y-92591348D01*
X138062486Y-92544728D01*
X138062200Y-92538174D01*
X138062200Y-91880864D01*
X138079793Y-91832526D01*
X138124342Y-91806806D01*
X138174998Y-91815738D01*
X138255187Y-91862036D01*
X138370375Y-91892900D01*
X138370378Y-91892900D01*
X138489622Y-91892900D01*
X138489625Y-91892900D01*
X138604813Y-91862036D01*
X138708087Y-91802410D01*
X138741155Y-91769342D01*
X138781272Y-91729226D01*
X138796148Y-91722288D01*
X138808726Y-91711735D01*
X138824893Y-91708884D01*
X138827892Y-91707486D01*
X138834446Y-91707200D01*
X138873992Y-91707200D01*
X138922330Y-91724793D01*
X138948050Y-91769342D01*
X138948257Y-91770583D01*
X138953376Y-91802900D01*
X138957043Y-91826056D01*
X138975376Y-91862036D01*
X139014984Y-91939771D01*
X139105229Y-92030016D01*
X139218943Y-92087956D01*
X139218945Y-92087957D01*
X139313292Y-92102900D01*
X139313296Y-92102900D01*
X143876704Y-92102900D01*
X143876708Y-92102900D01*
X143971055Y-92087957D01*
X144084771Y-92030016D01*
X144175016Y-91939771D01*
X144232957Y-91826055D01*
X144247900Y-91731708D01*
X144247900Y-91148292D01*
X144232957Y-91053945D01*
X144175016Y-90940229D01*
X144084771Y-90849984D01*
X143971055Y-90792043D01*
X143971057Y-90792043D01*
X143876710Y-90777100D01*
X143876708Y-90777100D01*
X139313292Y-90777100D01*
X139313289Y-90777100D01*
X139218943Y-90792043D01*
X139105228Y-90849984D01*
X139014984Y-90940228D01*
X138957043Y-91053943D01*
X138957043Y-91053945D01*
X138948485Y-91107984D01*
X138948266Y-91109364D01*
X138941529Y-91121516D01*
X138939117Y-91135200D01*
X138929447Y-91143313D01*
X138923328Y-91154354D01*
X138910355Y-91159333D01*
X138899712Y-91168265D01*
X138876367Y-91172381D01*
X138875305Y-91172789D01*
X138873992Y-91172800D01*
X138834446Y-91172800D01*
X138786108Y-91155207D01*
X138781272Y-91150774D01*
X138708087Y-91077589D01*
X138604813Y-91017964D01*
X138489625Y-90987100D01*
X138370375Y-90987100D01*
X138283984Y-91010248D01*
X138255186Y-91017964D01*
X138255185Y-91017964D01*
X138175000Y-91064260D01*
X138124342Y-91073193D01*
X138079793Y-91047473D01*
X138062200Y-90999135D01*
X138062200Y-89340864D01*
X138079793Y-89292526D01*
X138124342Y-89266806D01*
X138174998Y-89275738D01*
X138255187Y-89322036D01*
X138370375Y-89352900D01*
X138370378Y-89352900D01*
X138489622Y-89352900D01*
X138489625Y-89352900D01*
X138604813Y-89322036D01*
X138708087Y-89262410D01*
X138741155Y-89229342D01*
X138781272Y-89189226D01*
X138796148Y-89182288D01*
X138808726Y-89171735D01*
X138824893Y-89168884D01*
X138827892Y-89167486D01*
X138834446Y-89167200D01*
X138873992Y-89167200D01*
X138922330Y-89184793D01*
X138948050Y-89229342D01*
X138948257Y-89230583D01*
X138953298Y-89262410D01*
X138957043Y-89286056D01*
X139003732Y-89377687D01*
X139014984Y-89399771D01*
X139105229Y-89490016D01*
X139218943Y-89547956D01*
X139218945Y-89547957D01*
X139313292Y-89562900D01*
X139313296Y-89562900D01*
X143876704Y-89562900D01*
X143876708Y-89562900D01*
X143971055Y-89547957D01*
X144084771Y-89490016D01*
X144175016Y-89399771D01*
X144232957Y-89286055D01*
X144247900Y-89191708D01*
X144247900Y-88608292D01*
X144232957Y-88513945D01*
X144175016Y-88400229D01*
X144084771Y-88309984D01*
X143971055Y-88252043D01*
X143971057Y-88252043D01*
X143876710Y-88237100D01*
X143876708Y-88237100D01*
X139313292Y-88237100D01*
X139313289Y-88237100D01*
X139218943Y-88252043D01*
X139105228Y-88309984D01*
X139014984Y-88400228D01*
X138957043Y-88513943D01*
X138957043Y-88513945D01*
X138950929Y-88552552D01*
X138948266Y-88569364D01*
X138941529Y-88581516D01*
X138939117Y-88595200D01*
X138929447Y-88603313D01*
X138923328Y-88614354D01*
X138910355Y-88619333D01*
X138899712Y-88628265D01*
X138876367Y-88632381D01*
X138875305Y-88632789D01*
X138873992Y-88632800D01*
X138834446Y-88632800D01*
X138786108Y-88615207D01*
X138781272Y-88610774D01*
X138708087Y-88537589D01*
X138604813Y-88477964D01*
X138489625Y-88447100D01*
X138370375Y-88447100D01*
X138283984Y-88470248D01*
X138255186Y-88477964D01*
X138255185Y-88477964D01*
X138175000Y-88524260D01*
X138124342Y-88533193D01*
X138079793Y-88507473D01*
X138062200Y-88459135D01*
X138062200Y-86651671D01*
X138942600Y-86651671D01*
X138957524Y-86745899D01*
X139015394Y-86859474D01*
X139105525Y-86949605D01*
X139219101Y-87007475D01*
X139219099Y-87007475D01*
X139313328Y-87022399D01*
X139313336Y-87022400D01*
X141442600Y-87022400D01*
X141747400Y-87022400D01*
X143876664Y-87022400D01*
X143876671Y-87022399D01*
X143970899Y-87007475D01*
X144084474Y-86949605D01*
X144174605Y-86859474D01*
X144232475Y-86745899D01*
X144247399Y-86651671D01*
X144247400Y-86651664D01*
X144247400Y-86512400D01*
X141747400Y-86512400D01*
X141747400Y-87022400D01*
X141442600Y-87022400D01*
X141442600Y-86512400D01*
X138942600Y-86512400D01*
X138942600Y-86651671D01*
X138062200Y-86651671D01*
X138062200Y-86068328D01*
X138942600Y-86068328D01*
X138942600Y-86207600D01*
X141442600Y-86207600D01*
X141747400Y-86207600D01*
X144247400Y-86207600D01*
X144247400Y-86068336D01*
X144247399Y-86068328D01*
X144232475Y-85974100D01*
X144174605Y-85860525D01*
X144084474Y-85770394D01*
X143970898Y-85712524D01*
X143970900Y-85712524D01*
X143876671Y-85697600D01*
X141747400Y-85697600D01*
X141747400Y-86207600D01*
X141442600Y-86207600D01*
X141442600Y-85697600D01*
X139313328Y-85697600D01*
X139219100Y-85712524D01*
X139105525Y-85770394D01*
X139015394Y-85860525D01*
X138957524Y-85974100D01*
X138942600Y-86068328D01*
X138062200Y-86068328D01*
X138062200Y-84224446D01*
X138079793Y-84176108D01*
X138084226Y-84171272D01*
X138157410Y-84098087D01*
X138183700Y-84052552D01*
X138217036Y-83994813D01*
X138247900Y-83879625D01*
X138247900Y-83760375D01*
X138217036Y-83645187D01*
X138216676Y-83644563D01*
X138169549Y-83562937D01*
X138157410Y-83541912D01*
X138143787Y-83528289D01*
X138942100Y-83528289D01*
X138942100Y-84111710D01*
X138957043Y-84206056D01*
X138994815Y-84280187D01*
X139014984Y-84319771D01*
X139105229Y-84410016D01*
X139218943Y-84467956D01*
X139218945Y-84467957D01*
X139313292Y-84482900D01*
X139313296Y-84482900D01*
X143876704Y-84482900D01*
X143876708Y-84482900D01*
X143971055Y-84467957D01*
X144084771Y-84410016D01*
X144175016Y-84319771D01*
X144232957Y-84206055D01*
X144247900Y-84111708D01*
X144247900Y-83528292D01*
X144232957Y-83433945D01*
X144175016Y-83320229D01*
X144084771Y-83229984D01*
X143971055Y-83172043D01*
X143971057Y-83172043D01*
X143876710Y-83157100D01*
X143876708Y-83157100D01*
X142013600Y-83157100D01*
X141965262Y-83139507D01*
X141939542Y-83094958D01*
X141938400Y-83081900D01*
X141938400Y-82888245D01*
X141955993Y-82839907D01*
X141960417Y-82835079D01*
X141967410Y-82828087D01*
X142027036Y-82724813D01*
X142057900Y-82609625D01*
X142057900Y-82490375D01*
X142027036Y-82375187D01*
X142001425Y-82330828D01*
X141967410Y-82271912D01*
X141883087Y-82187589D01*
X141779813Y-82127964D01*
X141664625Y-82097100D01*
X141545375Y-82097100D01*
X141458984Y-82120248D01*
X141430186Y-82127964D01*
X141430185Y-82127964D01*
X141326912Y-82187589D01*
X141242589Y-82271912D01*
X141182964Y-82375185D01*
X141182964Y-82375186D01*
X141182371Y-82377399D01*
X141152100Y-82490375D01*
X141152100Y-82609625D01*
X141168056Y-82669175D01*
X141182964Y-82724813D01*
X141182964Y-82724814D01*
X141241525Y-82826243D01*
X141251600Y-82863843D01*
X141251600Y-83081900D01*
X141234007Y-83130238D01*
X141189458Y-83155958D01*
X141176400Y-83157100D01*
X139313289Y-83157100D01*
X139218943Y-83172043D01*
X139105228Y-83229984D01*
X139014984Y-83320228D01*
X138957043Y-83433943D01*
X138942100Y-83528289D01*
X138143787Y-83528289D01*
X138073087Y-83457589D01*
X137969813Y-83397964D01*
X137854625Y-83367100D01*
X137735375Y-83367100D01*
X137648984Y-83390248D01*
X137620186Y-83397964D01*
X137620185Y-83397964D01*
X137516912Y-83457589D01*
X137432589Y-83541912D01*
X137372964Y-83645185D01*
X137372964Y-83645186D01*
X137362676Y-83683583D01*
X137342100Y-83760375D01*
X137342100Y-83879625D01*
X137361673Y-83952672D01*
X137372964Y-83994813D01*
X137372964Y-83994814D01*
X137432589Y-84098087D01*
X137505774Y-84171272D01*
X137527514Y-84217892D01*
X137527800Y-84224446D01*
X137527800Y-84649135D01*
X137510207Y-84697473D01*
X137465658Y-84723193D01*
X137415000Y-84714260D01*
X137334813Y-84667964D01*
X137219625Y-84637100D01*
X137100375Y-84637100D01*
X137013984Y-84660248D01*
X136985186Y-84667964D01*
X136985185Y-84667964D01*
X136881912Y-84727589D01*
X136797589Y-84811912D01*
X136737964Y-84915185D01*
X136737964Y-84915186D01*
X136731949Y-84937637D01*
X136707100Y-85030375D01*
X136707100Y-85149625D01*
X136729279Y-85232400D01*
X136737964Y-85264813D01*
X136737964Y-85264814D01*
X136797589Y-85368087D01*
X136870774Y-85441272D01*
X136892514Y-85487892D01*
X136892800Y-85494446D01*
X136892800Y-93173172D01*
X136875207Y-93221510D01*
X136870774Y-93226347D01*
X136649127Y-93447993D01*
X136602507Y-93469732D01*
X136552820Y-93456418D01*
X136542779Y-93447992D01*
X136484771Y-93389984D01*
X136371055Y-93332043D01*
X136371057Y-93332043D01*
X136276710Y-93317100D01*
X136276708Y-93317100D01*
X131713292Y-93317100D01*
X131713289Y-93317100D01*
X131618943Y-93332043D01*
X131505228Y-93389984D01*
X131414984Y-93480228D01*
X131357043Y-93593943D01*
X131342100Y-93688289D01*
X128495227Y-93688289D01*
X128500405Y-93683111D01*
X128500409Y-93683105D01*
X128512837Y-93654961D01*
X128544563Y-93583104D01*
X128547400Y-93558657D01*
X128547400Y-93497400D01*
X128267400Y-93497400D01*
X128267400Y-93807399D01*
X127931342Y-93807399D01*
X127962600Y-93807398D01*
X127962600Y-93192600D01*
X128267400Y-93192600D01*
X128547399Y-93192600D01*
X128547399Y-93131349D01*
X128544563Y-93106891D01*
X128500410Y-93006895D01*
X128500405Y-93006888D01*
X128423111Y-92929594D01*
X128423108Y-92929592D01*
X128323103Y-92885435D01*
X128298657Y-92882600D01*
X128267400Y-92882600D01*
X128267400Y-93192600D01*
X127962600Y-93192600D01*
X127962600Y-92882599D01*
X127954613Y-92874613D01*
X127932873Y-92827993D01*
X127946186Y-92778306D01*
X127954613Y-92768264D01*
X128162952Y-92559925D01*
X128209572Y-92538185D01*
X128216126Y-92537899D01*
X129485056Y-92537899D01*
X129529658Y-92529028D01*
X129580234Y-92495234D01*
X129614028Y-92444658D01*
X129622900Y-92400057D01*
X129622899Y-91380375D01*
X130357100Y-91380375D01*
X130357100Y-91499625D01*
X130385476Y-91605529D01*
X130387964Y-91614813D01*
X130387964Y-91614814D01*
X130447589Y-91718087D01*
X130531912Y-91802410D01*
X130584075Y-91832526D01*
X130635187Y-91862036D01*
X130750375Y-91892900D01*
X130750378Y-91892900D01*
X130869622Y-91892900D01*
X130869625Y-91892900D01*
X130984813Y-91862036D01*
X131088087Y-91802410D01*
X131121155Y-91769342D01*
X131161272Y-91729226D01*
X131176148Y-91722288D01*
X131188726Y-91711735D01*
X131204893Y-91708884D01*
X131207892Y-91707486D01*
X131214446Y-91707200D01*
X131273992Y-91707200D01*
X131322330Y-91724793D01*
X131348050Y-91769342D01*
X131348257Y-91770583D01*
X131353376Y-91802900D01*
X131357043Y-91826056D01*
X131375376Y-91862036D01*
X131414984Y-91939771D01*
X131505229Y-92030016D01*
X131618943Y-92087956D01*
X131618945Y-92087957D01*
X131713292Y-92102900D01*
X131713296Y-92102900D01*
X136276704Y-92102900D01*
X136276708Y-92102900D01*
X136371055Y-92087957D01*
X136484771Y-92030016D01*
X136575016Y-91939771D01*
X136632957Y-91826055D01*
X136647900Y-91731708D01*
X136647900Y-91148292D01*
X136632957Y-91053945D01*
X136575016Y-90940229D01*
X136484771Y-90849984D01*
X136371055Y-90792043D01*
X136371057Y-90792043D01*
X136276710Y-90777100D01*
X136276708Y-90777100D01*
X131713292Y-90777100D01*
X131713289Y-90777100D01*
X131618943Y-90792043D01*
X131505228Y-90849984D01*
X131414984Y-90940228D01*
X131357043Y-91053943D01*
X131357043Y-91053945D01*
X131348485Y-91107984D01*
X131348266Y-91109364D01*
X131341529Y-91121516D01*
X131339117Y-91135200D01*
X131329447Y-91143313D01*
X131323328Y-91154354D01*
X131310355Y-91159333D01*
X131299712Y-91168265D01*
X131276367Y-91172381D01*
X131275305Y-91172789D01*
X131273992Y-91172800D01*
X131214446Y-91172800D01*
X131166108Y-91155207D01*
X131161272Y-91150774D01*
X131088087Y-91077589D01*
X130984813Y-91017964D01*
X130869625Y-90987100D01*
X130750375Y-90987100D01*
X130663984Y-91010248D01*
X130635186Y-91017964D01*
X130635185Y-91017964D01*
X130531912Y-91077589D01*
X130447589Y-91161912D01*
X130387964Y-91265185D01*
X130387964Y-91265186D01*
X130387964Y-91265187D01*
X130357100Y-91380375D01*
X129622899Y-91380375D01*
X129622899Y-90369944D01*
X129614028Y-90325342D01*
X129607154Y-90315055D01*
X129580235Y-90274767D01*
X129539348Y-90247447D01*
X129529658Y-90240972D01*
X129529656Y-90240971D01*
X129485057Y-90232100D01*
X127526126Y-90232100D01*
X127477788Y-90214507D01*
X127472952Y-90210074D01*
X126808453Y-89545574D01*
X126786713Y-89498954D01*
X126800027Y-89449267D01*
X126842164Y-89419762D01*
X126851342Y-89418553D01*
X126858147Y-89417200D01*
X126858149Y-89417200D01*
X126956357Y-89376521D01*
X127472952Y-88859924D01*
X127514875Y-88840375D01*
X130357100Y-88840375D01*
X130357100Y-88959625D01*
X130381999Y-89052551D01*
X130387964Y-89074813D01*
X130387964Y-89074814D01*
X130447589Y-89178087D01*
X130531912Y-89262410D01*
X130584075Y-89292526D01*
X130635187Y-89322036D01*
X130750375Y-89352900D01*
X130750378Y-89352900D01*
X130869622Y-89352900D01*
X130869625Y-89352900D01*
X130984813Y-89322036D01*
X131088087Y-89262410D01*
X131121155Y-89229342D01*
X131161272Y-89189226D01*
X131176148Y-89182288D01*
X131188726Y-89171735D01*
X131204893Y-89168884D01*
X131207892Y-89167486D01*
X131214446Y-89167200D01*
X131273992Y-89167200D01*
X131322330Y-89184793D01*
X131348050Y-89229342D01*
X131348257Y-89230583D01*
X131353298Y-89262410D01*
X131357043Y-89286056D01*
X131403732Y-89377687D01*
X131414984Y-89399771D01*
X131505229Y-89490016D01*
X131618943Y-89547956D01*
X131618945Y-89547957D01*
X131713292Y-89562900D01*
X131713296Y-89562900D01*
X136276704Y-89562900D01*
X136276708Y-89562900D01*
X136371055Y-89547957D01*
X136484771Y-89490016D01*
X136575016Y-89399771D01*
X136632957Y-89286055D01*
X136647900Y-89191708D01*
X136647900Y-88608292D01*
X136632957Y-88513945D01*
X136575016Y-88400229D01*
X136484771Y-88309984D01*
X136371055Y-88252043D01*
X136371057Y-88252043D01*
X136276710Y-88237100D01*
X136276708Y-88237100D01*
X131713292Y-88237100D01*
X131713289Y-88237100D01*
X131618943Y-88252043D01*
X131505228Y-88309984D01*
X131414984Y-88400228D01*
X131357043Y-88513943D01*
X131357043Y-88513945D01*
X131350929Y-88552552D01*
X131348266Y-88569364D01*
X131341529Y-88581516D01*
X131339117Y-88595200D01*
X131329447Y-88603313D01*
X131323328Y-88614354D01*
X131310355Y-88619333D01*
X131299712Y-88628265D01*
X131276367Y-88632381D01*
X131275305Y-88632789D01*
X131273992Y-88632800D01*
X131214446Y-88632800D01*
X131166108Y-88615207D01*
X131161272Y-88610774D01*
X131088087Y-88537589D01*
X130984813Y-88477964D01*
X130869625Y-88447100D01*
X130750375Y-88447100D01*
X130663984Y-88470248D01*
X130635186Y-88477964D01*
X130635185Y-88477964D01*
X130531912Y-88537589D01*
X130447589Y-88621912D01*
X130387964Y-88725185D01*
X130387964Y-88725186D01*
X130381999Y-88747448D01*
X130357100Y-88840375D01*
X127514875Y-88840375D01*
X127519572Y-88838185D01*
X127526126Y-88837899D01*
X129485056Y-88837899D01*
X129529658Y-88829028D01*
X129580234Y-88795234D01*
X129614028Y-88744658D01*
X129622900Y-88700057D01*
X129622899Y-86669944D01*
X129614028Y-86625342D01*
X129588088Y-86586521D01*
X129580235Y-86574767D01*
X129580231Y-86574764D01*
X129529658Y-86540972D01*
X129529656Y-86540971D01*
X129485057Y-86532100D01*
X128371126Y-86532100D01*
X128322788Y-86514507D01*
X128317952Y-86510074D01*
X127995277Y-86187399D01*
X128267400Y-86187399D01*
X128298651Y-86187399D01*
X128323108Y-86184563D01*
X128423104Y-86140410D01*
X128423111Y-86140405D01*
X128500405Y-86063111D01*
X128500407Y-86063108D01*
X128544564Y-85963103D01*
X128547400Y-85938657D01*
X128547400Y-85877400D01*
X128267400Y-85877400D01*
X128267400Y-86187399D01*
X127995277Y-86187399D01*
X127984626Y-86176748D01*
X127962886Y-86130128D01*
X127962600Y-86123574D01*
X127962600Y-85572600D01*
X128267400Y-85572600D01*
X128547399Y-85572600D01*
X128547399Y-85511349D01*
X128544563Y-85486891D01*
X128500410Y-85386895D01*
X128500405Y-85386888D01*
X128423111Y-85309594D01*
X128423108Y-85309592D01*
X128323103Y-85265435D01*
X128298657Y-85262600D01*
X128267400Y-85262600D01*
X128267400Y-85572600D01*
X127962600Y-85572600D01*
X127962600Y-85262600D01*
X127962599Y-85262599D01*
X127931349Y-85262600D01*
X127906891Y-85265436D01*
X127806895Y-85309589D01*
X127806888Y-85309594D01*
X127729594Y-85386888D01*
X127729589Y-85386895D01*
X127704065Y-85444703D01*
X127668446Y-85481816D01*
X127617305Y-85487350D01*
X127574571Y-85458717D01*
X127566480Y-85444702D01*
X127540828Y-85386604D01*
X127540825Y-85386601D01*
X127540824Y-85386599D01*
X127463400Y-85309175D01*
X127463397Y-85309173D01*
X127463396Y-85309172D01*
X127363221Y-85264941D01*
X127363219Y-85264940D01*
X127344414Y-85262758D01*
X127338734Y-85262100D01*
X126971266Y-85262100D01*
X126966176Y-85262690D01*
X126946780Y-85264940D01*
X126946779Y-85264941D01*
X126846604Y-85309172D01*
X126846599Y-85309175D01*
X126769175Y-85386599D01*
X126769172Y-85386604D01*
X126724941Y-85486779D01*
X126724940Y-85486780D01*
X126722100Y-85511268D01*
X126722100Y-85938731D01*
X126724940Y-85963219D01*
X126724941Y-85963221D01*
X126769172Y-86063396D01*
X126769173Y-86063397D01*
X126769175Y-86063400D01*
X126846599Y-86140824D01*
X126846601Y-86140825D01*
X126846604Y-86140828D01*
X126946779Y-86185059D01*
X126971266Y-86187900D01*
X127208874Y-86187900D01*
X127257212Y-86205493D01*
X127262048Y-86209926D01*
X127455848Y-86403726D01*
X127477588Y-86450346D01*
X127464274Y-86500033D01*
X127422137Y-86529538D01*
X127402674Y-86532100D01*
X127054944Y-86532100D01*
X127054942Y-86532101D01*
X127010340Y-86540972D01*
X126959767Y-86574764D01*
X126925972Y-86625342D01*
X126925971Y-86625343D01*
X126917100Y-86669942D01*
X126917100Y-88628872D01*
X126899507Y-88677210D01*
X126895075Y-88682046D01*
X126716348Y-88860774D01*
X126669727Y-88882514D01*
X126663173Y-88882800D01*
X125767608Y-88882800D01*
X125719270Y-88865207D01*
X125693550Y-88820658D01*
X125693853Y-88792929D01*
X125695180Y-88786253D01*
X125702900Y-88747447D01*
X125702899Y-88552554D01*
X125689677Y-88486078D01*
X125659775Y-88441327D01*
X125647550Y-88391362D01*
X125659777Y-88357769D01*
X125689205Y-88313727D01*
X125691936Y-88300000D01*
X123933064Y-88300000D01*
X123935794Y-88313728D01*
X123965222Y-88357770D01*
X123977449Y-88407736D01*
X123965224Y-88441326D01*
X123935323Y-88486078D01*
X123935322Y-88486080D01*
X123922100Y-88552551D01*
X117377898Y-88552551D01*
X117364677Y-88486078D01*
X117364676Y-88486076D01*
X117335077Y-88441777D01*
X117322851Y-88391812D01*
X117335075Y-88358224D01*
X117364677Y-88313922D01*
X117377900Y-88247447D01*
X117377899Y-88052554D01*
X117364677Y-87986078D01*
X117363918Y-87984942D01*
X117335077Y-87941777D01*
X117322851Y-87891812D01*
X117335075Y-87858224D01*
X117364677Y-87813922D01*
X117377900Y-87747447D01*
X117377899Y-87552554D01*
X117377898Y-87552551D01*
X117368852Y-87507071D01*
X117376677Y-87456230D01*
X117415352Y-87422313D01*
X117442607Y-87417200D01*
X119956509Y-87417200D01*
X120004847Y-87434793D01*
X120009683Y-87439226D01*
X120426975Y-87856519D01*
X120426976Y-87856519D01*
X120426978Y-87856521D01*
X120525186Y-87897200D01*
X120631484Y-87897200D01*
X122150554Y-87897200D01*
X122198892Y-87914793D01*
X122203728Y-87919226D01*
X122276912Y-87992410D01*
X122336538Y-88026834D01*
X122380187Y-88052036D01*
X122495375Y-88082900D01*
X122495378Y-88082900D01*
X122614622Y-88082900D01*
X122614625Y-88082900D01*
X122729813Y-88052036D01*
X122833087Y-87992410D01*
X122917410Y-87908087D01*
X122977036Y-87804813D01*
X123007900Y-87689625D01*
X123007900Y-87570375D01*
X122977036Y-87455187D01*
X122967821Y-87439226D01*
X122917410Y-87351912D01*
X122833087Y-87267589D01*
X122729813Y-87207964D01*
X122719113Y-87205097D01*
X122614625Y-87177100D01*
X122495375Y-87177100D01*
X122419382Y-87197462D01*
X122380186Y-87207964D01*
X122380185Y-87207964D01*
X122276912Y-87267589D01*
X122203728Y-87340774D01*
X122157108Y-87362514D01*
X122150554Y-87362800D01*
X120720161Y-87362800D01*
X120704733Y-87357184D01*
X120688380Y-87355754D01*
X120674935Y-87346339D01*
X120671823Y-87345207D01*
X120666987Y-87340774D01*
X120649487Y-87323274D01*
X120627747Y-87276654D01*
X120641061Y-87226967D01*
X120683198Y-87197462D01*
X120702661Y-87194900D01*
X120938297Y-87194900D01*
X120938299Y-87194900D01*
X121036507Y-87154221D01*
X121501942Y-86688784D01*
X121548560Y-86667046D01*
X121598247Y-86680360D01*
X121608288Y-86688786D01*
X121641912Y-86722410D01*
X121701538Y-86756834D01*
X121745187Y-86782036D01*
X121860375Y-86812900D01*
X121860378Y-86812900D01*
X121979622Y-86812900D01*
X121979625Y-86812900D01*
X122094813Y-86782036D01*
X122198087Y-86722410D01*
X122282410Y-86638087D01*
X122342036Y-86534813D01*
X122372900Y-86419625D01*
X122372900Y-86316126D01*
X122390493Y-86267788D01*
X122394926Y-86262951D01*
X122496740Y-86161137D01*
X122626521Y-86031357D01*
X122667200Y-85933149D01*
X122667200Y-85826851D01*
X122667200Y-85692607D01*
X122684793Y-85644269D01*
X122729342Y-85618549D01*
X122757066Y-85618851D01*
X122802553Y-85627900D01*
X122997446Y-85627899D01*
X122997447Y-85627899D01*
X122997447Y-85627898D01*
X123063922Y-85614677D01*
X123108221Y-85585078D01*
X123158187Y-85572851D01*
X123191777Y-85585076D01*
X123236078Y-85614677D01*
X123302553Y-85627900D01*
X123497446Y-85627899D01*
X123497447Y-85627899D01*
X123497447Y-85627898D01*
X123563922Y-85614677D01*
X123639307Y-85564307D01*
X123689677Y-85488922D01*
X123702900Y-85422447D01*
X123702899Y-84843626D01*
X123708513Y-84828199D01*
X123709945Y-84811845D01*
X123719359Y-84798399D01*
X123720492Y-84795289D01*
X123724925Y-84790452D01*
X123771153Y-84744225D01*
X123817774Y-84722486D01*
X123824327Y-84722200D01*
X124055554Y-84722200D01*
X124103892Y-84739793D01*
X124108728Y-84744226D01*
X124181912Y-84817410D01*
X124241538Y-84851834D01*
X124285187Y-84877036D01*
X124400375Y-84907900D01*
X124400378Y-84907900D01*
X124519625Y-84907900D01*
X124561118Y-84896782D01*
X124612360Y-84901264D01*
X124648734Y-84937637D01*
X124653218Y-84988881D01*
X124642100Y-85030375D01*
X124642100Y-85149625D01*
X124664279Y-85232400D01*
X124672964Y-85264813D01*
X124672964Y-85264814D01*
X124732589Y-85368087D01*
X124805774Y-85441272D01*
X124827514Y-85487892D01*
X124827800Y-85494446D01*
X124827800Y-85725672D01*
X124822184Y-85741099D01*
X124820754Y-85757453D01*
X124811339Y-85770897D01*
X124810207Y-85774010D01*
X124805774Y-85778846D01*
X124759546Y-85825074D01*
X124712926Y-85846814D01*
X124706372Y-85847100D01*
X124127552Y-85847100D01*
X124127551Y-85847101D01*
X124061078Y-85860323D01*
X123985692Y-85910693D01*
X123935323Y-85986077D01*
X123935322Y-85986080D01*
X123922100Y-86052551D01*
X123922100Y-86247447D01*
X123922101Y-86247448D01*
X123935323Y-86313923D01*
X123964922Y-86358222D01*
X123977148Y-86408188D01*
X123964923Y-86441777D01*
X123935323Y-86486078D01*
X123935322Y-86486080D01*
X123922100Y-86552551D01*
X123922100Y-86747447D01*
X123922101Y-86747448D01*
X123935323Y-86813923D01*
X123964922Y-86858222D01*
X123977148Y-86908188D01*
X123964923Y-86941777D01*
X123935323Y-86986078D01*
X123935322Y-86986080D01*
X123922100Y-87052551D01*
X123922100Y-87247447D01*
X123922101Y-87247448D01*
X123935323Y-87313923D01*
X123964922Y-87358222D01*
X123977148Y-87408188D01*
X123964923Y-87441777D01*
X123935323Y-87486078D01*
X123935322Y-87486080D01*
X123922100Y-87552551D01*
X123922100Y-87747447D01*
X123922101Y-87747448D01*
X123935323Y-87813923D01*
X123965223Y-87858672D01*
X123977449Y-87908637D01*
X123965223Y-87942228D01*
X123935794Y-87986271D01*
X123933064Y-88000000D01*
X125691935Y-88000000D01*
X125689205Y-87986271D01*
X125659777Y-87942229D01*
X125647550Y-87892264D01*
X125659776Y-87858672D01*
X125660078Y-87858220D01*
X125689677Y-87813922D01*
X125702900Y-87747447D01*
X125702899Y-87552554D01*
X125689677Y-87486078D01*
X125688918Y-87484942D01*
X125660077Y-87441777D01*
X125647851Y-87391812D01*
X125660075Y-87358224D01*
X125689677Y-87313922D01*
X125702900Y-87247447D01*
X125702899Y-87052554D01*
X125689677Y-86986078D01*
X125689676Y-86986076D01*
X125660077Y-86941777D01*
X125647851Y-86891812D01*
X125660075Y-86858224D01*
X125689677Y-86813922D01*
X125702900Y-86747447D01*
X125702899Y-86552554D01*
X125689677Y-86486078D01*
X125685536Y-86479880D01*
X125660077Y-86441777D01*
X125647851Y-86391812D01*
X125660075Y-86358224D01*
X125689677Y-86313922D01*
X125702900Y-86247447D01*
X125702899Y-86052554D01*
X125689677Y-85986078D01*
X125639307Y-85910693D01*
X125639268Y-85910667D01*
X125563922Y-85860323D01*
X125563919Y-85860322D01*
X125497449Y-85847100D01*
X125497447Y-85847100D01*
X125437400Y-85847100D01*
X125389062Y-85829507D01*
X125363342Y-85784958D01*
X125362200Y-85771900D01*
X125362200Y-85494446D01*
X125379793Y-85446108D01*
X125384226Y-85441272D01*
X125457410Y-85368087D01*
X125462800Y-85358751D01*
X125517036Y-85264813D01*
X125547900Y-85149625D01*
X125547900Y-85030375D01*
X125517036Y-84915187D01*
X125512829Y-84907900D01*
X125457410Y-84811912D01*
X125373087Y-84727589D01*
X125269813Y-84667964D01*
X125154625Y-84637100D01*
X125035375Y-84637100D01*
X124993881Y-84648218D01*
X124942637Y-84643734D01*
X124906264Y-84607360D01*
X124901782Y-84556118D01*
X124912900Y-84514625D01*
X124912900Y-84395375D01*
X124882036Y-84280187D01*
X124876714Y-84270970D01*
X124871792Y-84262444D01*
X124851339Y-84227018D01*
X126702100Y-84227018D01*
X126702100Y-84682981D01*
X126704892Y-84707055D01*
X126704893Y-84707057D01*
X126748369Y-84805521D01*
X126748370Y-84805522D01*
X126748372Y-84805525D01*
X126824474Y-84881627D01*
X126824477Y-84881629D01*
X126824479Y-84881631D01*
X126922943Y-84925107D01*
X126947016Y-84927900D01*
X126947018Y-84927900D01*
X127302982Y-84927900D01*
X127302984Y-84927900D01*
X127327057Y-84925107D01*
X127425521Y-84881631D01*
X127501631Y-84805521D01*
X127545107Y-84707057D01*
X127547900Y-84682984D01*
X127547900Y-84227018D01*
X127722100Y-84227018D01*
X127722100Y-84682981D01*
X127724892Y-84707055D01*
X127724893Y-84707057D01*
X127768369Y-84805521D01*
X127768370Y-84805522D01*
X127768372Y-84805525D01*
X127844474Y-84881627D01*
X127844477Y-84881629D01*
X127844479Y-84881631D01*
X127942943Y-84925107D01*
X127967016Y-84927900D01*
X127967018Y-84927900D01*
X128322982Y-84927900D01*
X128322984Y-84927900D01*
X128347057Y-84925107D01*
X128445521Y-84881631D01*
X128521631Y-84805521D01*
X128565107Y-84707057D01*
X128567900Y-84682984D01*
X128567900Y-84227016D01*
X128565107Y-84202943D01*
X128521631Y-84104479D01*
X128521629Y-84104477D01*
X128521627Y-84104474D01*
X128445525Y-84028372D01*
X128445522Y-84028370D01*
X128445521Y-84028369D01*
X128363379Y-83992100D01*
X128347055Y-83984892D01*
X128328568Y-83982747D01*
X128322984Y-83982100D01*
X127967016Y-83982100D01*
X127962012Y-83982680D01*
X127942944Y-83984892D01*
X127844477Y-84028370D01*
X127844474Y-84028372D01*
X127768372Y-84104474D01*
X127768370Y-84104477D01*
X127724892Y-84202944D01*
X127722100Y-84227018D01*
X127547900Y-84227018D01*
X127547900Y-84227016D01*
X127545107Y-84202943D01*
X127501631Y-84104479D01*
X127501629Y-84104477D01*
X127501627Y-84104474D01*
X127425525Y-84028372D01*
X127425522Y-84028370D01*
X127425521Y-84028369D01*
X127343379Y-83992100D01*
X127327055Y-83984892D01*
X127308568Y-83982747D01*
X127302984Y-83982100D01*
X126947016Y-83982100D01*
X126942012Y-83982680D01*
X126922944Y-83984892D01*
X126824477Y-84028370D01*
X126824474Y-84028372D01*
X126748372Y-84104474D01*
X126748370Y-84104477D01*
X126704892Y-84202944D01*
X126702100Y-84227018D01*
X124851339Y-84227018D01*
X124822410Y-84176912D01*
X124738087Y-84092589D01*
X124634813Y-84032964D01*
X124617675Y-84028372D01*
X124519625Y-84002100D01*
X124400375Y-84002100D01*
X124313984Y-84025248D01*
X124285186Y-84032964D01*
X124285185Y-84032964D01*
X124181912Y-84092589D01*
X124108728Y-84165774D01*
X124062108Y-84187514D01*
X124055554Y-84187800D01*
X123778099Y-84187800D01*
X123729761Y-84170207D01*
X123704041Y-84125658D01*
X123702899Y-84112600D01*
X123702899Y-84052552D01*
X123702898Y-84052551D01*
X123700321Y-84039594D01*
X123689677Y-83986078D01*
X123639307Y-83910693D01*
X123626518Y-83902148D01*
X123563922Y-83860323D01*
X123563919Y-83860322D01*
X123497448Y-83847100D01*
X123302552Y-83847100D01*
X123302551Y-83847101D01*
X123236076Y-83860323D01*
X123236074Y-83860324D01*
X123191776Y-83889922D01*
X123141811Y-83902148D01*
X123108221Y-83889922D01*
X123063922Y-83860323D01*
X123063919Y-83860322D01*
X122997448Y-83847100D01*
X122802552Y-83847100D01*
X122802551Y-83847101D01*
X122736076Y-83860323D01*
X122736074Y-83860324D01*
X122691776Y-83889922D01*
X122641811Y-83902148D01*
X122608221Y-83889922D01*
X122563922Y-83860323D01*
X122563919Y-83860322D01*
X122497448Y-83847100D01*
X122302552Y-83847100D01*
X122302551Y-83847101D01*
X122236076Y-83860323D01*
X122236074Y-83860324D01*
X122191776Y-83889922D01*
X122141811Y-83902148D01*
X122108221Y-83889922D01*
X122063922Y-83860323D01*
X122063919Y-83860322D01*
X121997448Y-83847100D01*
X121802552Y-83847100D01*
X121802551Y-83847101D01*
X121736076Y-83860323D01*
X121736074Y-83860324D01*
X121691776Y-83889922D01*
X121641811Y-83902148D01*
X121608221Y-83889922D01*
X121563922Y-83860323D01*
X121563919Y-83860322D01*
X121497448Y-83847100D01*
X121302552Y-83847100D01*
X121302551Y-83847101D01*
X121236076Y-83860323D01*
X121236074Y-83860324D01*
X121191776Y-83889922D01*
X121141811Y-83902148D01*
X121108221Y-83889922D01*
X121063922Y-83860323D01*
X121063919Y-83860322D01*
X120997448Y-83847100D01*
X120802552Y-83847100D01*
X120802551Y-83847101D01*
X120736076Y-83860323D01*
X120736074Y-83860324D01*
X120691776Y-83889922D01*
X120641811Y-83902148D01*
X120608221Y-83889922D01*
X120563922Y-83860323D01*
X120563919Y-83860322D01*
X120497448Y-83847100D01*
X120302552Y-83847100D01*
X120302551Y-83847101D01*
X120236076Y-83860323D01*
X120236074Y-83860324D01*
X120191776Y-83889922D01*
X120141811Y-83902148D01*
X120108221Y-83889922D01*
X120063922Y-83860323D01*
X120063919Y-83860322D01*
X119997448Y-83847100D01*
X119802552Y-83847100D01*
X119802551Y-83847101D01*
X119736076Y-83860323D01*
X119736074Y-83860324D01*
X119691776Y-83889922D01*
X119641811Y-83902148D01*
X119608221Y-83889922D01*
X119563922Y-83860323D01*
X119563919Y-83860322D01*
X119497448Y-83847100D01*
X119302552Y-83847100D01*
X119302551Y-83847101D01*
X119236076Y-83860323D01*
X119236074Y-83860324D01*
X119191776Y-83889922D01*
X119141811Y-83902148D01*
X119108221Y-83889922D01*
X119063922Y-83860323D01*
X119063919Y-83860322D01*
X118997448Y-83847100D01*
X118802552Y-83847100D01*
X118802551Y-83847101D01*
X118736076Y-83860323D01*
X118691327Y-83890223D01*
X118641361Y-83902449D01*
X118607770Y-83890223D01*
X118563725Y-83860793D01*
X118550000Y-83858062D01*
X118550000Y-85616935D01*
X118563727Y-85614205D01*
X118607770Y-85584776D01*
X118657735Y-85572549D01*
X118691325Y-85584774D01*
X118736078Y-85614677D01*
X118802553Y-85627900D01*
X118997446Y-85627899D01*
X118997447Y-85627899D01*
X118997447Y-85627898D01*
X119063922Y-85614677D01*
X119108221Y-85585078D01*
X119158187Y-85572851D01*
X119191777Y-85585076D01*
X119236078Y-85614677D01*
X119302553Y-85627900D01*
X119497446Y-85627899D01*
X119497447Y-85627899D01*
X119497447Y-85627898D01*
X119563922Y-85614677D01*
X119608221Y-85585078D01*
X119658187Y-85572851D01*
X119691777Y-85585076D01*
X119736078Y-85614677D01*
X119802553Y-85627900D01*
X119997446Y-85627899D01*
X119997447Y-85627899D01*
X119997447Y-85627898D01*
X120063922Y-85614677D01*
X120108221Y-85585078D01*
X120158187Y-85572851D01*
X120191777Y-85585076D01*
X120236078Y-85614677D01*
X120302553Y-85627900D01*
X120497446Y-85627899D01*
X120542930Y-85618852D01*
X120543788Y-85618984D01*
X120544542Y-85618549D01*
X120569120Y-85622883D01*
X120593770Y-85626677D01*
X120594343Y-85627330D01*
X120595200Y-85627482D01*
X120611243Y-85646601D01*
X120627687Y-85665352D01*
X120627891Y-85666441D01*
X120628265Y-85666887D01*
X120632800Y-85692607D01*
X120632800Y-85838029D01*
X120615207Y-85886367D01*
X120577063Y-85910666D01*
X120576966Y-85910693D01*
X120475187Y-85937964D01*
X120475185Y-85937964D01*
X120371912Y-85997589D01*
X120287589Y-86081912D01*
X120227964Y-86185185D01*
X120227964Y-86185186D01*
X120221335Y-86209926D01*
X120197100Y-86300375D01*
X120197100Y-86300377D01*
X120197100Y-86307600D01*
X120179507Y-86355938D01*
X120134958Y-86381658D01*
X120121900Y-86382800D01*
X117442608Y-86382800D01*
X117394270Y-86365207D01*
X117368550Y-86320658D01*
X117368853Y-86292929D01*
X117370817Y-86283057D01*
X117377900Y-86247447D01*
X117377899Y-86052554D01*
X117364677Y-85986078D01*
X117314307Y-85910693D01*
X117314268Y-85910667D01*
X117238922Y-85860323D01*
X117238919Y-85860322D01*
X117172448Y-85847100D01*
X115802552Y-85847100D01*
X115802551Y-85847101D01*
X115736078Y-85860323D01*
X115660692Y-85910693D01*
X115610323Y-85986077D01*
X115610322Y-85986080D01*
X115597100Y-86052551D01*
X115597100Y-86247447D01*
X115597101Y-86247448D01*
X115610323Y-86313923D01*
X115639922Y-86358222D01*
X115652148Y-86408188D01*
X115639923Y-86441777D01*
X115610323Y-86486078D01*
X115610322Y-86486080D01*
X115597100Y-86552551D01*
X115597100Y-86747447D01*
X115597101Y-86747448D01*
X115610323Y-86813923D01*
X115639922Y-86858222D01*
X115652148Y-86908188D01*
X115639923Y-86941777D01*
X115610323Y-86986078D01*
X115610322Y-86986080D01*
X115597100Y-87052551D01*
X115597100Y-87247447D01*
X115597101Y-87247448D01*
X115610323Y-87313923D01*
X115639922Y-87358222D01*
X115652148Y-87408188D01*
X115639923Y-87441777D01*
X115610323Y-87486078D01*
X115610322Y-87486080D01*
X115597100Y-87552551D01*
X115597100Y-87747447D01*
X115597101Y-87747448D01*
X115610323Y-87813923D01*
X115639922Y-87858222D01*
X115652148Y-87908188D01*
X115639923Y-87941777D01*
X115610323Y-87986078D01*
X115610322Y-87986080D01*
X115597100Y-88052551D01*
X115597100Y-88247447D01*
X115597101Y-88247448D01*
X115610323Y-88313923D01*
X115639922Y-88358222D01*
X115652148Y-88408188D01*
X115639923Y-88441777D01*
X115610323Y-88486078D01*
X115610322Y-88486080D01*
X115597100Y-88552551D01*
X115597100Y-88747447D01*
X115597101Y-88747448D01*
X115610323Y-88813923D01*
X115639922Y-88858222D01*
X115652148Y-88908188D01*
X115639923Y-88941777D01*
X115610323Y-88986078D01*
X115610322Y-88986080D01*
X115597100Y-89052551D01*
X115597100Y-89247446D01*
X115601587Y-89270000D01*
X115606067Y-89292526D01*
X115606148Y-89292929D01*
X115598323Y-89343770D01*
X115559648Y-89377687D01*
X115532393Y-89382800D01*
X113887518Y-89382800D01*
X113839180Y-89365207D01*
X113834344Y-89360774D01*
X112397051Y-87923480D01*
X112376079Y-87914793D01*
X112298841Y-87882800D01*
X112298840Y-87882800D01*
X112267917Y-87882800D01*
X112219579Y-87865207D01*
X112193859Y-87820658D01*
X112199125Y-87777225D01*
X112230106Y-87707059D01*
X112230107Y-87707057D01*
X112232900Y-87682984D01*
X112232900Y-87327016D01*
X112230107Y-87302943D01*
X112186631Y-87204479D01*
X112186629Y-87204477D01*
X112186627Y-87204474D01*
X112110525Y-87128372D01*
X112110522Y-87128370D01*
X112110521Y-87128369D01*
X112012057Y-87084893D01*
X112012055Y-87084892D01*
X111993568Y-87082747D01*
X111987984Y-87082100D01*
X111532016Y-87082100D01*
X111527012Y-87082680D01*
X111507944Y-87084892D01*
X111409477Y-87128370D01*
X111409474Y-87128372D01*
X111333372Y-87204474D01*
X111332946Y-87205097D01*
X111332256Y-87205590D01*
X111328441Y-87209406D01*
X111327808Y-87208773D01*
X111291114Y-87235034D01*
X111270905Y-87237800D01*
X110668149Y-87237800D01*
X110561851Y-87237800D01*
X110538559Y-87247448D01*
X110463640Y-87278480D01*
X110461270Y-87280851D01*
X110414648Y-87302587D01*
X110364962Y-87289270D01*
X110335460Y-87247131D01*
X110332899Y-87227678D01*
X110332899Y-86984944D01*
X110324028Y-86940342D01*
X110324027Y-86940340D01*
X110308283Y-86916777D01*
X110296057Y-86866812D01*
X110308282Y-86833222D01*
X110324028Y-86809658D01*
X110332900Y-86765057D01*
X110332900Y-86662906D01*
X111287600Y-86662906D01*
X111290388Y-86686940D01*
X111290388Y-86686942D01*
X111333786Y-86785229D01*
X111333791Y-86785236D01*
X111409763Y-86861208D01*
X111409770Y-86861213D01*
X111508058Y-86904611D01*
X111532094Y-86907400D01*
X111607600Y-86907400D01*
X111912400Y-86907400D01*
X111987906Y-86907400D01*
X112011940Y-86904611D01*
X112011942Y-86904611D01*
X112110229Y-86861213D01*
X112110236Y-86861208D01*
X112186208Y-86785236D01*
X112186213Y-86785229D01*
X112229611Y-86686942D01*
X112229611Y-86686940D01*
X112232400Y-86662906D01*
X112232400Y-86637400D01*
X111912400Y-86637400D01*
X111912400Y-86907400D01*
X111607600Y-86907400D01*
X111607600Y-86637400D01*
X111287600Y-86637400D01*
X111287600Y-86662906D01*
X110332900Y-86662906D01*
X110332899Y-86307093D01*
X111287600Y-86307093D01*
X111287600Y-86332600D01*
X111607600Y-86332600D01*
X111912400Y-86332600D01*
X112232400Y-86332600D01*
X112232400Y-86307093D01*
X112229611Y-86283059D01*
X112229611Y-86283057D01*
X112186213Y-86184770D01*
X112186208Y-86184763D01*
X112110236Y-86108791D01*
X112110229Y-86108786D01*
X112011941Y-86065388D01*
X111987906Y-86062600D01*
X111912400Y-86062600D01*
X111912400Y-86332600D01*
X111607600Y-86332600D01*
X111607600Y-86062600D01*
X111532094Y-86062600D01*
X111508059Y-86065388D01*
X111508057Y-86065388D01*
X111409770Y-86108786D01*
X111409763Y-86108791D01*
X111333791Y-86184763D01*
X111333786Y-86184770D01*
X111290388Y-86283057D01*
X111290388Y-86283059D01*
X111287600Y-86307093D01*
X110332899Y-86307093D01*
X110332899Y-86134944D01*
X110324028Y-86090342D01*
X110324027Y-86090340D01*
X110321193Y-86083496D01*
X110322626Y-86082902D01*
X110312462Y-86041363D01*
X110321469Y-86016619D01*
X110320723Y-86016310D01*
X110323557Y-86009466D01*
X110332400Y-85965012D01*
X110332400Y-85802400D01*
X109607400Y-85802400D01*
X109607400Y-85921900D01*
X109589807Y-85970238D01*
X109545258Y-85995958D01*
X109532200Y-85997100D01*
X109377800Y-85997100D01*
X109329462Y-85979507D01*
X109303742Y-85934958D01*
X109302600Y-85921900D01*
X109302600Y-85802400D01*
X108577599Y-85802400D01*
X108560914Y-85819085D01*
X108514293Y-85840824D01*
X108464606Y-85827510D01*
X108442615Y-85803510D01*
X108392415Y-85716561D01*
X108303438Y-85627584D01*
X108194470Y-85564671D01*
X108194464Y-85564669D01*
X108194463Y-85564668D01*
X108072917Y-85532100D01*
X107947083Y-85532100D01*
X107826888Y-85564306D01*
X107825537Y-85564668D01*
X107825529Y-85564671D01*
X107716561Y-85627584D01*
X107627584Y-85716561D01*
X107564671Y-85825529D01*
X107564668Y-85825537D01*
X107532100Y-85947083D01*
X107532100Y-86072917D01*
X107564668Y-86194462D01*
X107564671Y-86194470D01*
X107627584Y-86303438D01*
X107716561Y-86392415D01*
X107825529Y-86455328D01*
X107825532Y-86455329D01*
X107825537Y-86455332D01*
X107917156Y-86479881D01*
X107928016Y-86487485D01*
X107940824Y-86490917D01*
X107948430Y-86501779D01*
X107959292Y-86509385D01*
X107962723Y-86522191D01*
X107970329Y-86533053D01*
X107969173Y-86546262D01*
X107972606Y-86559072D01*
X107967002Y-86571089D01*
X107965847Y-86584297D01*
X107950868Y-86605691D01*
X107926985Y-86629573D01*
X107880367Y-86651314D01*
X107873811Y-86651600D01*
X106463600Y-86651600D01*
X106415262Y-86634007D01*
X106389542Y-86589458D01*
X106388400Y-86576400D01*
X106388400Y-84628389D01*
X106405993Y-84580051D01*
X106410426Y-84575215D01*
X106429525Y-84556116D01*
X106558042Y-84427599D01*
X107355132Y-84427599D01*
X107355133Y-84427600D01*
X107731577Y-84427600D01*
X107710444Y-84464204D01*
X107690000Y-84540504D01*
X107690000Y-84619496D01*
X107710444Y-84695796D01*
X107731577Y-84732400D01*
X107355133Y-84732400D01*
X107362671Y-84770298D01*
X107411851Y-84889029D01*
X107483244Y-84995877D01*
X107483252Y-84995886D01*
X107574113Y-85086747D01*
X107574122Y-85086755D01*
X107680970Y-85158148D01*
X107799698Y-85207327D01*
X107799699Y-85207328D01*
X107925743Y-85232400D01*
X108387600Y-85232400D01*
X108387600Y-84880000D01*
X108692400Y-84880000D01*
X108692400Y-85238400D01*
X108674807Y-85286738D01*
X108664504Y-85296859D01*
X108577600Y-85367180D01*
X108577600Y-85497600D01*
X110332400Y-85497600D01*
X110332400Y-85334987D01*
X110323558Y-85290537D01*
X110323557Y-85290535D01*
X110289873Y-85240126D01*
X110239464Y-85206442D01*
X110239462Y-85206441D01*
X110195013Y-85197600D01*
X109576582Y-85197600D01*
X109528244Y-85180007D01*
X109502524Y-85135458D01*
X109511457Y-85084800D01*
X109523408Y-85069226D01*
X109596747Y-84995886D01*
X109596755Y-84995877D01*
X109668148Y-84889029D01*
X109717328Y-84770298D01*
X109724867Y-84732400D01*
X109348423Y-84732400D01*
X109369556Y-84695796D01*
X109376830Y-84668650D01*
X115292601Y-84668650D01*
X115295436Y-84693108D01*
X115339589Y-84793104D01*
X115339594Y-84793111D01*
X115416888Y-84870405D01*
X115416891Y-84870407D01*
X115516896Y-84914564D01*
X115541342Y-84917399D01*
X115572600Y-84917398D01*
X115572600Y-84607400D01*
X115292601Y-84607400D01*
X115292601Y-84668650D01*
X109376830Y-84668650D01*
X109390000Y-84619496D01*
X109390000Y-84540504D01*
X109369556Y-84464204D01*
X109348423Y-84427600D01*
X109724867Y-84427600D01*
X109724867Y-84427599D01*
X109717328Y-84389701D01*
X109668147Y-84270969D01*
X109648351Y-84241342D01*
X115292600Y-84241342D01*
X115292600Y-84302600D01*
X115572600Y-84302600D01*
X115572600Y-83992600D01*
X115877400Y-83992600D01*
X115877400Y-84917399D01*
X115908651Y-84917399D01*
X115933108Y-84914563D01*
X116033104Y-84870410D01*
X116033111Y-84870405D01*
X116110405Y-84793111D01*
X116110408Y-84793107D01*
X116135933Y-84735297D01*
X116171551Y-84698184D01*
X116222692Y-84692649D01*
X116265427Y-84721281D01*
X116273517Y-84735293D01*
X116299172Y-84793396D01*
X116299173Y-84793397D01*
X116299175Y-84793400D01*
X116376599Y-84870824D01*
X116376601Y-84870825D01*
X116376604Y-84870828D01*
X116476779Y-84915059D01*
X116501266Y-84917900D01*
X116501268Y-84917900D01*
X116868732Y-84917900D01*
X116868734Y-84917900D01*
X116893221Y-84915059D01*
X116993396Y-84870828D01*
X117070828Y-84793396D01*
X117115059Y-84693221D01*
X117117900Y-84668734D01*
X117117900Y-84241266D01*
X117115059Y-84216779D01*
X117070828Y-84116604D01*
X117070825Y-84116601D01*
X117070824Y-84116599D01*
X117006776Y-84052551D01*
X117597100Y-84052551D01*
X117597100Y-85422447D01*
X117597101Y-85422448D01*
X117601528Y-85444703D01*
X117610323Y-85488922D01*
X117660693Y-85564307D01*
X117736078Y-85614677D01*
X117802553Y-85627900D01*
X117997446Y-85627899D01*
X117997447Y-85627899D01*
X117997447Y-85627898D01*
X118063922Y-85614677D01*
X118108671Y-85584776D01*
X118158636Y-85572550D01*
X118192229Y-85584777D01*
X118236271Y-85614205D01*
X118250000Y-85616935D01*
X118250000Y-83858062D01*
X118236274Y-83860793D01*
X118236271Y-83860794D01*
X118192228Y-83890223D01*
X118142262Y-83902449D01*
X118108673Y-83890223D01*
X118063924Y-83860324D01*
X118063919Y-83860322D01*
X117997448Y-83847100D01*
X117802552Y-83847100D01*
X117802551Y-83847101D01*
X117736078Y-83860323D01*
X117660692Y-83910693D01*
X117610323Y-83986077D01*
X117610322Y-83986080D01*
X117597100Y-84052551D01*
X117006776Y-84052551D01*
X116993400Y-84039175D01*
X116993397Y-84039173D01*
X116993396Y-84039172D01*
X116893221Y-83994941D01*
X116893219Y-83994940D01*
X116874414Y-83992758D01*
X116868734Y-83992100D01*
X116501266Y-83992100D01*
X116496176Y-83992690D01*
X116476780Y-83994940D01*
X116476779Y-83994941D01*
X116376604Y-84039172D01*
X116376599Y-84039175D01*
X116299175Y-84116599D01*
X116299173Y-84116602D01*
X116299172Y-84116603D01*
X116299172Y-84116604D01*
X116275505Y-84170207D01*
X116273520Y-84174702D01*
X116237901Y-84211814D01*
X116186759Y-84217349D01*
X116144025Y-84188716D01*
X116135935Y-84174702D01*
X116110410Y-84116895D01*
X116110405Y-84116888D01*
X116033111Y-84039594D01*
X116033108Y-84039592D01*
X115933103Y-83995435D01*
X115908657Y-83992600D01*
X115877400Y-83992600D01*
X115572600Y-83992600D01*
X115572599Y-83992599D01*
X115541349Y-83992600D01*
X115516891Y-83995436D01*
X115416895Y-84039589D01*
X115416888Y-84039594D01*
X115339594Y-84116888D01*
X115339592Y-84116891D01*
X115295435Y-84216896D01*
X115292600Y-84241342D01*
X109648351Y-84241342D01*
X109596755Y-84164122D01*
X109596747Y-84164113D01*
X109505886Y-84073252D01*
X109505877Y-84073244D01*
X109399029Y-84001851D01*
X109280301Y-83952672D01*
X109280300Y-83952671D01*
X109154257Y-83927600D01*
X108692400Y-83927600D01*
X108692400Y-84280000D01*
X108387600Y-84280000D01*
X108387600Y-83927600D01*
X107925743Y-83927600D01*
X107799699Y-83952671D01*
X107799698Y-83952672D01*
X107680970Y-84001851D01*
X107574122Y-84073244D01*
X107574113Y-84073252D01*
X107483252Y-84164113D01*
X107483244Y-84164122D01*
X107411851Y-84270970D01*
X107362671Y-84389701D01*
X107355132Y-84427599D01*
X106558042Y-84427599D01*
X106574788Y-84410853D01*
X106600889Y-84365643D01*
X106619998Y-84332547D01*
X106643400Y-84245209D01*
X106643400Y-82957018D01*
X115272100Y-82957018D01*
X115272100Y-83412981D01*
X115274892Y-83437055D01*
X115274893Y-83437057D01*
X115318369Y-83535521D01*
X115318370Y-83535522D01*
X115318372Y-83535525D01*
X115394474Y-83611627D01*
X115394477Y-83611629D01*
X115394479Y-83611631D01*
X115492943Y-83655107D01*
X115517016Y-83657900D01*
X115517018Y-83657900D01*
X115872982Y-83657900D01*
X115872984Y-83657900D01*
X115897057Y-83655107D01*
X115995521Y-83611631D01*
X116071631Y-83535521D01*
X116115107Y-83437057D01*
X116117900Y-83412984D01*
X116117900Y-82957018D01*
X116292100Y-82957018D01*
X116292100Y-83412981D01*
X116294892Y-83437055D01*
X116294893Y-83437057D01*
X116338369Y-83535521D01*
X116338370Y-83535522D01*
X116338372Y-83535525D01*
X116414474Y-83611627D01*
X116414477Y-83611629D01*
X116414479Y-83611631D01*
X116512943Y-83655107D01*
X116537016Y-83657900D01*
X116537018Y-83657900D01*
X116892982Y-83657900D01*
X116892984Y-83657900D01*
X116917057Y-83655107D01*
X117015521Y-83611631D01*
X117091631Y-83535521D01*
X117135107Y-83437057D01*
X117137900Y-83412984D01*
X117137900Y-82971268D01*
X126722100Y-82971268D01*
X126722100Y-83398731D01*
X126724940Y-83423219D01*
X126724941Y-83423221D01*
X126769172Y-83523396D01*
X126769173Y-83523397D01*
X126769175Y-83523400D01*
X126846599Y-83600824D01*
X126846601Y-83600825D01*
X126846604Y-83600828D01*
X126946779Y-83645059D01*
X126971266Y-83647900D01*
X126971268Y-83647900D01*
X127338732Y-83647900D01*
X127338734Y-83647900D01*
X127363221Y-83645059D01*
X127463396Y-83600828D01*
X127540828Y-83523396D01*
X127566480Y-83465297D01*
X127602097Y-83428185D01*
X127653238Y-83422650D01*
X127695973Y-83451282D01*
X127704064Y-83465296D01*
X127729590Y-83523105D01*
X127729594Y-83523111D01*
X127806888Y-83600405D01*
X127806891Y-83600407D01*
X127906896Y-83644564D01*
X127931342Y-83647399D01*
X128267400Y-83647399D01*
X128298651Y-83647399D01*
X128323108Y-83644563D01*
X128423104Y-83600410D01*
X128423111Y-83600405D01*
X128500405Y-83523111D01*
X128500407Y-83523108D01*
X128544564Y-83423103D01*
X128547400Y-83398657D01*
X128547400Y-83337400D01*
X128267400Y-83337400D01*
X128267400Y-83647399D01*
X127931342Y-83647399D01*
X127962600Y-83647398D01*
X127962600Y-83032600D01*
X128267400Y-83032600D01*
X128547399Y-83032600D01*
X128547399Y-82971349D01*
X128544563Y-82946891D01*
X128500410Y-82846895D01*
X128500405Y-82846888D01*
X128423111Y-82769594D01*
X128423108Y-82769592D01*
X128323103Y-82725435D01*
X128298657Y-82722600D01*
X128267400Y-82722600D01*
X128267400Y-83032600D01*
X127962600Y-83032600D01*
X127962600Y-82722600D01*
X127962599Y-82722599D01*
X127931349Y-82722600D01*
X127906891Y-82725436D01*
X127806895Y-82769589D01*
X127806888Y-82769594D01*
X127729594Y-82846888D01*
X127729589Y-82846895D01*
X127704065Y-82904703D01*
X127668446Y-82941816D01*
X127617305Y-82947350D01*
X127574571Y-82918717D01*
X127566480Y-82904702D01*
X127540828Y-82846604D01*
X127540825Y-82846601D01*
X127540824Y-82846599D01*
X127463400Y-82769175D01*
X127463397Y-82769173D01*
X127463396Y-82769172D01*
X127363221Y-82724941D01*
X127363219Y-82724940D01*
X127344414Y-82722758D01*
X127338734Y-82722100D01*
X126971266Y-82722100D01*
X126966176Y-82722690D01*
X126946780Y-82724940D01*
X126946779Y-82724941D01*
X126846604Y-82769172D01*
X126846599Y-82769175D01*
X126769175Y-82846599D01*
X126769172Y-82846604D01*
X126724941Y-82946779D01*
X126724940Y-82946780D01*
X126722100Y-82971268D01*
X117137900Y-82971268D01*
X117137900Y-82957016D01*
X117135107Y-82932943D01*
X117091631Y-82834479D01*
X117091629Y-82834477D01*
X117091627Y-82834474D01*
X117015525Y-82758372D01*
X117015522Y-82758370D01*
X117015521Y-82758369D01*
X116917057Y-82714893D01*
X116917055Y-82714892D01*
X116898568Y-82712747D01*
X116892984Y-82712100D01*
X116537016Y-82712100D01*
X116532012Y-82712680D01*
X116512944Y-82714892D01*
X116414477Y-82758370D01*
X116414474Y-82758372D01*
X116338372Y-82834474D01*
X116338370Y-82834477D01*
X116294892Y-82932944D01*
X116292100Y-82957018D01*
X116117900Y-82957018D01*
X116117900Y-82957016D01*
X116115107Y-82932943D01*
X116071631Y-82834479D01*
X116071629Y-82834477D01*
X116071627Y-82834474D01*
X115995525Y-82758372D01*
X115995522Y-82758370D01*
X115995521Y-82758369D01*
X115897057Y-82714893D01*
X115897055Y-82714892D01*
X115878568Y-82712747D01*
X115872984Y-82712100D01*
X115517016Y-82712100D01*
X115512012Y-82712680D01*
X115492944Y-82714892D01*
X115394477Y-82758370D01*
X115394474Y-82758372D01*
X115318372Y-82834474D01*
X115318370Y-82834477D01*
X115274892Y-82932944D01*
X115272100Y-82957018D01*
X106643400Y-82957018D01*
X106643400Y-82699699D01*
X106660993Y-82651361D01*
X106685569Y-82632142D01*
X106747625Y-82601806D01*
X106836806Y-82512625D01*
X106892198Y-82399319D01*
X106902177Y-82330827D01*
X106902899Y-82325873D01*
X106902899Y-82325869D01*
X106902900Y-82325863D01*
X106902899Y-81504138D01*
X106892198Y-81430681D01*
X106836806Y-81317375D01*
X106836804Y-81317373D01*
X106836804Y-81317372D01*
X106747627Y-81228195D01*
X106747625Y-81228194D01*
X106634319Y-81172802D01*
X106634318Y-81172801D01*
X106560867Y-81162100D01*
X106039141Y-81162100D01*
X106039136Y-81162101D01*
X105965682Y-81172801D01*
X105965680Y-81172802D01*
X105852372Y-81228195D01*
X105763195Y-81317372D01*
X105707802Y-81430681D01*
X105707801Y-81430681D01*
X105697100Y-81504126D01*
X101625500Y-81504126D01*
X101625500Y-79881671D01*
X106982600Y-79881671D01*
X106997524Y-79975899D01*
X107055394Y-80089474D01*
X107145525Y-80179605D01*
X107259101Y-80237475D01*
X107259099Y-80237475D01*
X107353328Y-80252399D01*
X107353336Y-80252400D01*
X107482600Y-80252400D01*
X107787400Y-80252400D01*
X107916664Y-80252400D01*
X107916671Y-80252399D01*
X108010899Y-80237475D01*
X108124474Y-80179605D01*
X108214605Y-80089474D01*
X108272475Y-79975899D01*
X108287399Y-79881671D01*
X108287400Y-79881664D01*
X108287400Y-79527400D01*
X107787400Y-79527400D01*
X107787400Y-80252400D01*
X107482600Y-80252400D01*
X107482600Y-79527400D01*
X106982600Y-79527400D01*
X106982600Y-79881671D01*
X101625500Y-79881671D01*
X101625500Y-78868328D01*
X106982600Y-78868328D01*
X106982600Y-79222600D01*
X107482600Y-79222600D01*
X107787400Y-79222600D01*
X108287400Y-79222600D01*
X108287400Y-78868336D01*
X108287399Y-78868327D01*
X108287393Y-78868289D01*
X108882100Y-78868289D01*
X108882100Y-79881710D01*
X108897043Y-79976056D01*
X108899417Y-79980715D01*
X108954984Y-80089771D01*
X109045229Y-80180016D01*
X109158943Y-80237956D01*
X109158945Y-80237957D01*
X109253292Y-80252900D01*
X109253296Y-80252900D01*
X109816704Y-80252900D01*
X109816708Y-80252900D01*
X109911055Y-80237957D01*
X110024771Y-80180016D01*
X110115016Y-80089771D01*
X110172957Y-79976055D01*
X110187900Y-79881708D01*
X110187900Y-79793600D01*
X110205493Y-79745262D01*
X110250042Y-79719542D01*
X110263100Y-79718400D01*
X110951611Y-79718400D01*
X110999949Y-79735993D01*
X111004785Y-79740426D01*
X111245074Y-79980715D01*
X111266814Y-80027335D01*
X111267100Y-80033889D01*
X111267100Y-80186325D01*
X111277288Y-80271164D01*
X111330523Y-80406161D01*
X111330524Y-80406162D01*
X111418209Y-80521791D01*
X111533838Y-80609476D01*
X111668837Y-80662712D01*
X111753673Y-80672900D01*
X112001400Y-80672899D01*
X112049737Y-80690492D01*
X112075457Y-80735040D01*
X112076600Y-80748099D01*
X112076600Y-81081611D01*
X112059007Y-81129949D01*
X112054574Y-81134785D01*
X111639785Y-81549574D01*
X111593165Y-81571314D01*
X111586611Y-81571600D01*
X110277736Y-81571600D01*
X110229398Y-81554007D01*
X110203678Y-81509458D01*
X110203350Y-81506821D01*
X110203291Y-81506830D01*
X110202175Y-81499172D01*
X110192198Y-81430681D01*
X110136806Y-81317375D01*
X110136804Y-81317373D01*
X110136804Y-81317372D01*
X110047627Y-81228195D01*
X110047625Y-81228194D01*
X109934319Y-81172802D01*
X109934318Y-81172801D01*
X109860867Y-81162100D01*
X109339141Y-81162100D01*
X109339136Y-81162101D01*
X109265682Y-81172801D01*
X109265680Y-81172802D01*
X109152372Y-81228195D01*
X109063195Y-81317372D01*
X109007802Y-81430681D01*
X109007801Y-81430681D01*
X108997100Y-81504126D01*
X108997100Y-82325858D01*
X108997101Y-82325863D01*
X109007801Y-82399317D01*
X109007802Y-82399319D01*
X109063195Y-82512627D01*
X109152372Y-82601804D01*
X109152373Y-82601804D01*
X109152375Y-82601806D01*
X109265681Y-82657198D01*
X109339137Y-82667900D01*
X109860862Y-82667899D01*
X109934319Y-82657198D01*
X110047625Y-82601806D01*
X110136806Y-82512625D01*
X110192198Y-82399319D01*
X110192198Y-82399318D01*
X110203293Y-82323170D01*
X110204862Y-82323398D01*
X110223793Y-82281206D01*
X110270091Y-82258790D01*
X110277737Y-82258400D01*
X111805208Y-82258400D01*
X111805209Y-82258400D01*
X111873872Y-82240002D01*
X111892548Y-82234998D01*
X111970853Y-82189788D01*
X112093241Y-82067400D01*
X112459374Y-81701268D01*
X126722100Y-81701268D01*
X126722100Y-82128731D01*
X126724940Y-82153219D01*
X126724941Y-82153221D01*
X126769172Y-82253396D01*
X126769173Y-82253397D01*
X126769175Y-82253400D01*
X126846599Y-82330824D01*
X126846601Y-82330825D01*
X126846604Y-82330828D01*
X126946779Y-82375059D01*
X126971266Y-82377900D01*
X126971268Y-82377900D01*
X127338732Y-82377900D01*
X127338734Y-82377900D01*
X127363221Y-82375059D01*
X127463396Y-82330828D01*
X127540828Y-82253396D01*
X127566480Y-82195297D01*
X127602097Y-82158185D01*
X127653238Y-82152650D01*
X127695973Y-82181282D01*
X127704064Y-82195296D01*
X127729590Y-82253105D01*
X127729594Y-82253111D01*
X127806888Y-82330405D01*
X127806891Y-82330407D01*
X127906896Y-82374564D01*
X127931342Y-82377399D01*
X128267400Y-82377399D01*
X128298651Y-82377399D01*
X128323108Y-82374563D01*
X128423104Y-82330410D01*
X128423111Y-82330405D01*
X128500405Y-82253111D01*
X128500407Y-82253108D01*
X128544564Y-82153103D01*
X128547400Y-82128657D01*
X128547400Y-82067400D01*
X128267400Y-82067400D01*
X128267400Y-82377399D01*
X127931342Y-82377399D01*
X127962600Y-82377398D01*
X127962600Y-81762600D01*
X128267400Y-81762600D01*
X128547399Y-81762600D01*
X128547399Y-81701349D01*
X128544563Y-81676891D01*
X128500410Y-81576895D01*
X128500405Y-81576888D01*
X128423111Y-81499594D01*
X128423108Y-81499592D01*
X128323103Y-81455435D01*
X128298657Y-81452600D01*
X128267400Y-81452600D01*
X128267400Y-81762600D01*
X127962600Y-81762600D01*
X127962600Y-81452600D01*
X127962599Y-81452599D01*
X127931349Y-81452600D01*
X127906891Y-81455436D01*
X127806895Y-81499589D01*
X127806888Y-81499594D01*
X127729594Y-81576888D01*
X127729589Y-81576895D01*
X127704065Y-81634703D01*
X127668446Y-81671816D01*
X127617305Y-81677350D01*
X127574571Y-81648717D01*
X127566480Y-81634702D01*
X127540828Y-81576604D01*
X127540825Y-81576601D01*
X127540824Y-81576599D01*
X127463400Y-81499175D01*
X127463397Y-81499173D01*
X127463396Y-81499172D01*
X127363221Y-81454941D01*
X127363219Y-81454940D01*
X127344414Y-81452758D01*
X127338734Y-81452100D01*
X126971266Y-81452100D01*
X126966176Y-81452690D01*
X126946780Y-81454940D01*
X126946779Y-81454941D01*
X126846604Y-81499172D01*
X126846599Y-81499175D01*
X126769175Y-81576599D01*
X126769172Y-81576604D01*
X126724941Y-81676779D01*
X126724940Y-81676780D01*
X126722100Y-81701268D01*
X112459374Y-81701268D01*
X112514722Y-81645920D01*
X112694784Y-81465857D01*
X112694788Y-81465853D01*
X112739998Y-81387548D01*
X112758800Y-81317375D01*
X112763400Y-81300209D01*
X112763400Y-80748099D01*
X112780993Y-80699761D01*
X112825542Y-80674041D01*
X112838600Y-80672899D01*
X113086326Y-80672899D01*
X113171163Y-80662712D01*
X113306162Y-80609476D01*
X113421791Y-80521791D01*
X113509476Y-80406162D01*
X113562712Y-80271163D01*
X113572900Y-80186327D01*
X113572899Y-79950375D01*
X113847100Y-79950375D01*
X113847100Y-80069625D01*
X113874558Y-80172100D01*
X113877964Y-80184813D01*
X113877964Y-80184814D01*
X113937589Y-80288087D01*
X114021912Y-80372410D01*
X114080371Y-80406161D01*
X114125187Y-80432036D01*
X114240375Y-80462900D01*
X114240378Y-80462900D01*
X114359622Y-80462900D01*
X114359625Y-80462900D01*
X114474813Y-80432036D01*
X114578087Y-80372410D01*
X114662410Y-80288087D01*
X114722036Y-80184813D01*
X114752900Y-80069625D01*
X114752900Y-79950375D01*
X114722036Y-79835187D01*
X114702660Y-79801627D01*
X114662410Y-79731912D01*
X114578087Y-79647589D01*
X114474813Y-79587964D01*
X114359625Y-79557100D01*
X114240375Y-79557100D01*
X114153984Y-79580248D01*
X114125186Y-79587964D01*
X114125185Y-79587964D01*
X114021912Y-79647589D01*
X113937589Y-79731912D01*
X113877964Y-79835185D01*
X113877964Y-79835186D01*
X113867676Y-79873583D01*
X113847100Y-79950375D01*
X113572899Y-79950375D01*
X113572899Y-79745262D01*
X113572899Y-79353674D01*
X113562712Y-79268837D01*
X113509476Y-79133838D01*
X113421791Y-79018209D01*
X113306162Y-78930524D01*
X113306161Y-78930523D01*
X113171165Y-78877288D01*
X113096619Y-78868336D01*
X113086327Y-78867100D01*
X113086326Y-78867100D01*
X111753674Y-78867100D01*
X111668835Y-78877288D01*
X111533838Y-78930523D01*
X111418208Y-79018209D01*
X111389959Y-79055461D01*
X111346732Y-79083345D01*
X111295695Y-79076920D01*
X111292440Y-79075146D01*
X111257555Y-79055005D01*
X111257549Y-79055003D01*
X111257548Y-79055002D01*
X111212381Y-79042900D01*
X111212381Y-79042899D01*
X111179120Y-79033987D01*
X111170209Y-79031600D01*
X111170208Y-79031600D01*
X110263100Y-79031600D01*
X110214762Y-79014007D01*
X110189042Y-78969458D01*
X110187900Y-78956400D01*
X110187900Y-78868296D01*
X110187900Y-78868292D01*
X110172957Y-78773945D01*
X110115016Y-78660229D01*
X110024771Y-78569984D01*
X109919459Y-78516325D01*
X109884378Y-78478705D01*
X109878400Y-78449322D01*
X109878400Y-75586286D01*
X111267601Y-75586286D01*
X111277778Y-75671043D01*
X111330964Y-75805912D01*
X111330967Y-75805917D01*
X111418565Y-75921434D01*
X111534082Y-76009032D01*
X111534087Y-76009035D01*
X111668956Y-76062221D01*
X111753712Y-76072399D01*
X112267600Y-76072399D01*
X112572400Y-76072399D01*
X113086287Y-76072399D01*
X113171043Y-76062221D01*
X113305912Y-76009035D01*
X113305917Y-76009032D01*
X113421434Y-75921434D01*
X113509032Y-75805917D01*
X113509035Y-75805912D01*
X113562221Y-75671043D01*
X113572400Y-75586287D01*
X113572400Y-75322400D01*
X112572400Y-75322400D01*
X112572400Y-76072399D01*
X112267600Y-76072399D01*
X112267600Y-75322400D01*
X111267601Y-75322400D01*
X111267601Y-75586286D01*
X109878400Y-75586286D01*
X109878400Y-74753712D01*
X111267600Y-74753712D01*
X111267600Y-75017600D01*
X112267600Y-75017600D01*
X112572400Y-75017600D01*
X113572399Y-75017600D01*
X113572399Y-74753713D01*
X113562221Y-74668956D01*
X113509035Y-74534087D01*
X113509032Y-74534082D01*
X113421434Y-74418565D01*
X113305917Y-74330967D01*
X113305912Y-74330964D01*
X113171043Y-74277778D01*
X113086288Y-74267600D01*
X112572400Y-74267600D01*
X112572400Y-75017600D01*
X112267600Y-75017600D01*
X112267600Y-74267600D01*
X111753713Y-74267600D01*
X111668956Y-74277778D01*
X111534087Y-74330964D01*
X111534082Y-74330967D01*
X111418565Y-74418565D01*
X111330967Y-74534082D01*
X111330964Y-74534087D01*
X111277778Y-74668956D01*
X111267600Y-74753712D01*
X109878400Y-74753712D01*
X109878400Y-74153389D01*
X109895993Y-74105051D01*
X109900426Y-74100215D01*
X110610215Y-73390426D01*
X110656835Y-73368686D01*
X110663389Y-73368400D01*
X115336900Y-73368400D01*
X115385238Y-73385993D01*
X115410958Y-73430542D01*
X115412100Y-73443600D01*
X115412100Y-77051400D01*
X115394507Y-77099738D01*
X115349958Y-77125458D01*
X115336900Y-77126600D01*
X113648097Y-77126600D01*
X113599759Y-77109007D01*
X113574039Y-77064458D01*
X113573030Y-77055877D01*
X113572899Y-77053683D01*
X113572899Y-77053674D01*
X113562712Y-76968837D01*
X113509476Y-76833838D01*
X113421791Y-76718209D01*
X113306162Y-76630524D01*
X113306161Y-76630523D01*
X113171165Y-76577288D01*
X113114605Y-76570496D01*
X113086327Y-76567100D01*
X113086326Y-76567100D01*
X111753674Y-76567100D01*
X111668835Y-76577288D01*
X111533838Y-76630523D01*
X111418209Y-76718209D01*
X111330523Y-76833838D01*
X111277288Y-76968834D01*
X111267100Y-77053673D01*
X111267100Y-77886325D01*
X111277288Y-77971164D01*
X111330523Y-78106161D01*
X111330524Y-78106162D01*
X111418209Y-78221791D01*
X111533838Y-78309476D01*
X111668837Y-78362712D01*
X111753673Y-78372900D01*
X113086326Y-78372899D01*
X113171163Y-78362712D01*
X113306162Y-78309476D01*
X113421791Y-78221791D01*
X113509476Y-78106162D01*
X113562712Y-77971163D01*
X113572900Y-77886327D01*
X113572900Y-77886322D01*
X113573033Y-77884108D01*
X113593483Y-77836908D01*
X113639488Y-77813895D01*
X113648099Y-77813400D01*
X115336900Y-77813400D01*
X115385238Y-77830993D01*
X115410958Y-77875542D01*
X115412100Y-77888600D01*
X115412100Y-78929683D01*
X115412100Y-81204800D01*
X115412447Y-81212764D01*
X115412700Y-81218565D01*
X115413543Y-81228194D01*
X115413842Y-81231615D01*
X115434396Y-81296807D01*
X115460115Y-81341355D01*
X115460118Y-81341359D01*
X115475905Y-81363904D01*
X115542856Y-81410783D01*
X115542857Y-81410783D01*
X115542859Y-81410785D01*
X115591197Y-81428378D01*
X115645195Y-81437899D01*
X115645196Y-81437900D01*
X115645200Y-81437900D01*
X121844790Y-81437900D01*
X121844800Y-81437900D01*
X121858557Y-81437300D01*
X121871615Y-81436158D01*
X121936807Y-81415604D01*
X121981356Y-81389884D01*
X122003904Y-81374095D01*
X122050785Y-81307141D01*
X122068378Y-81258803D01*
X122077899Y-81204804D01*
X122077900Y-81204804D01*
X122077900Y-80417018D01*
X126702100Y-80417018D01*
X126702100Y-80872981D01*
X126704892Y-80897055D01*
X126704893Y-80897057D01*
X126748369Y-80995521D01*
X126748370Y-80995522D01*
X126748372Y-80995525D01*
X126824474Y-81071627D01*
X126824477Y-81071629D01*
X126824479Y-81071631D01*
X126922943Y-81115107D01*
X126947016Y-81117900D01*
X126947018Y-81117900D01*
X127302982Y-81117900D01*
X127302984Y-81117900D01*
X127327057Y-81115107D01*
X127425521Y-81071631D01*
X127501631Y-80995521D01*
X127545107Y-80897057D01*
X127547900Y-80872984D01*
X127547900Y-80872906D01*
X127722600Y-80872906D01*
X127725388Y-80896940D01*
X127725388Y-80896942D01*
X127768786Y-80995229D01*
X127768791Y-80995236D01*
X127844763Y-81071208D01*
X127844770Y-81071213D01*
X127943058Y-81114611D01*
X127967094Y-81117400D01*
X127992600Y-81117400D01*
X128297400Y-81117400D01*
X128322906Y-81117400D01*
X128346940Y-81114611D01*
X128346942Y-81114611D01*
X128445229Y-81071213D01*
X128445236Y-81071208D01*
X128521208Y-80995236D01*
X128521213Y-80995229D01*
X128564611Y-80896942D01*
X128564611Y-80896940D01*
X128567400Y-80872906D01*
X128567400Y-80797400D01*
X128297400Y-80797400D01*
X128297400Y-81117400D01*
X127992600Y-81117400D01*
X127992600Y-80797400D01*
X127722600Y-80797400D01*
X127722600Y-80872906D01*
X127547900Y-80872906D01*
X127547900Y-80417093D01*
X127722600Y-80417093D01*
X127722600Y-80492600D01*
X127992600Y-80492600D01*
X128297400Y-80492600D01*
X128567400Y-80492600D01*
X128567400Y-80417093D01*
X128564611Y-80393059D01*
X128564611Y-80393057D01*
X128521213Y-80294770D01*
X128521208Y-80294763D01*
X128445236Y-80218791D01*
X128445229Y-80218786D01*
X128346941Y-80175388D01*
X128322906Y-80172600D01*
X128297400Y-80172600D01*
X128297400Y-80492600D01*
X127992600Y-80492600D01*
X127992600Y-80172600D01*
X127967094Y-80172600D01*
X127943059Y-80175388D01*
X127943057Y-80175388D01*
X127844770Y-80218786D01*
X127844763Y-80218791D01*
X127768791Y-80294763D01*
X127768786Y-80294770D01*
X127725388Y-80393057D01*
X127725388Y-80393059D01*
X127722600Y-80417093D01*
X127547900Y-80417093D01*
X127547900Y-80417016D01*
X127545107Y-80392943D01*
X127501631Y-80294479D01*
X127501629Y-80294477D01*
X127501627Y-80294474D01*
X127425525Y-80218372D01*
X127425522Y-80218370D01*
X127425521Y-80218369D01*
X127327057Y-80174893D01*
X127327055Y-80174892D01*
X127308568Y-80172747D01*
X127302984Y-80172100D01*
X126947016Y-80172100D01*
X126942012Y-80172680D01*
X126922944Y-80174892D01*
X126824477Y-80218370D01*
X126824474Y-80218372D01*
X126748372Y-80294474D01*
X126748370Y-80294477D01*
X126704892Y-80392944D01*
X126702100Y-80417018D01*
X122077900Y-80417018D01*
X122077900Y-79147018D01*
X126702100Y-79147018D01*
X126702100Y-79602981D01*
X126704892Y-79627055D01*
X126704893Y-79627057D01*
X126748369Y-79725521D01*
X126748370Y-79725522D01*
X126748372Y-79725525D01*
X126824474Y-79801627D01*
X126824477Y-79801629D01*
X126824479Y-79801631D01*
X126922943Y-79845107D01*
X126947016Y-79847900D01*
X126947018Y-79847900D01*
X127302982Y-79847900D01*
X127302984Y-79847900D01*
X127327057Y-79845107D01*
X127425521Y-79801631D01*
X127501631Y-79725521D01*
X127545107Y-79627057D01*
X127547900Y-79602984D01*
X127547900Y-79147016D01*
X127545107Y-79122943D01*
X127501631Y-79024479D01*
X127501629Y-79024477D01*
X127501627Y-79024474D01*
X127425525Y-78948372D01*
X127425522Y-78948370D01*
X127425521Y-78948369D01*
X127327057Y-78904893D01*
X127327055Y-78904892D01*
X127308568Y-78902747D01*
X127302984Y-78902100D01*
X126947016Y-78902100D01*
X126942012Y-78902680D01*
X126922944Y-78904892D01*
X126824477Y-78948370D01*
X126824474Y-78948372D01*
X126748372Y-79024474D01*
X126748370Y-79024477D01*
X126704892Y-79122944D01*
X126702100Y-79147018D01*
X122077900Y-79147018D01*
X122077900Y-77359638D01*
X122095493Y-77311300D01*
X122140042Y-77285580D01*
X122183478Y-77290847D01*
X122191895Y-77294563D01*
X122216342Y-77297399D01*
X122552400Y-77297399D01*
X122583651Y-77297399D01*
X122608108Y-77294563D01*
X122708104Y-77250410D01*
X122708111Y-77250405D01*
X122785405Y-77173111D01*
X122785407Y-77173108D01*
X122829564Y-77073103D01*
X122832400Y-77048657D01*
X122832400Y-76987400D01*
X122552400Y-76987400D01*
X122552400Y-77297399D01*
X122216342Y-77297399D01*
X122247600Y-77297398D01*
X122247600Y-76682600D01*
X122552400Y-76682600D01*
X122832399Y-76682600D01*
X122832399Y-76621349D01*
X122829563Y-76596891D01*
X122785410Y-76496895D01*
X122785405Y-76496888D01*
X122708111Y-76419594D01*
X122708108Y-76419592D01*
X122608103Y-76375435D01*
X122583657Y-76372600D01*
X122552400Y-76372600D01*
X122552400Y-76682600D01*
X122247600Y-76682600D01*
X122247600Y-76372600D01*
X122247599Y-76372599D01*
X122216349Y-76372600D01*
X122191892Y-76375436D01*
X122183472Y-76379154D01*
X122132146Y-76382582D01*
X122090625Y-76352216D01*
X122077900Y-76310360D01*
X122077900Y-76069942D01*
X126982100Y-76069942D01*
X126982100Y-77600055D01*
X126982101Y-77600057D01*
X126990972Y-77644659D01*
X127024764Y-77695232D01*
X127024765Y-77695232D01*
X127024766Y-77695234D01*
X127075342Y-77729028D01*
X127119943Y-77737900D01*
X128150056Y-77737899D01*
X128194658Y-77729028D01*
X128243221Y-77696578D01*
X128293186Y-77684352D01*
X128326779Y-77696579D01*
X128375338Y-77729026D01*
X128375340Y-77729027D01*
X128375342Y-77729028D01*
X128419943Y-77737900D01*
X128592600Y-77737899D01*
X128640937Y-77755492D01*
X128666657Y-77800040D01*
X128667800Y-77813099D01*
X128667800Y-78443174D01*
X128650207Y-78491512D01*
X128645774Y-78496348D01*
X128262048Y-78880074D01*
X128215428Y-78901814D01*
X128208874Y-78902100D01*
X127967016Y-78902100D01*
X127962012Y-78902680D01*
X127942944Y-78904892D01*
X127844477Y-78948370D01*
X127844474Y-78948372D01*
X127768372Y-79024474D01*
X127768370Y-79024477D01*
X127724892Y-79122944D01*
X127722100Y-79147018D01*
X127722100Y-79602981D01*
X127724892Y-79627055D01*
X127724893Y-79627057D01*
X127768369Y-79725521D01*
X127768370Y-79725522D01*
X127768372Y-79725525D01*
X127844474Y-79801627D01*
X127844477Y-79801629D01*
X127844479Y-79801631D01*
X127942943Y-79845107D01*
X127967016Y-79847900D01*
X127967018Y-79847900D01*
X128322982Y-79847900D01*
X128322984Y-79847900D01*
X128347057Y-79845107D01*
X128445521Y-79801631D01*
X128521631Y-79725521D01*
X128565107Y-79627057D01*
X128567900Y-79602984D01*
X128567900Y-79361126D01*
X128585493Y-79312788D01*
X128589926Y-79307952D01*
X129161519Y-78736359D01*
X129161521Y-78736357D01*
X129202200Y-78638149D01*
X129202200Y-78531851D01*
X129202200Y-77813099D01*
X129219793Y-77764761D01*
X129264342Y-77739041D01*
X129277400Y-77737899D01*
X129450056Y-77737899D01*
X129494658Y-77729028D01*
X129543221Y-77696578D01*
X129593186Y-77684352D01*
X129626779Y-77696579D01*
X129675338Y-77729026D01*
X129675340Y-77729027D01*
X129675342Y-77729028D01*
X129719943Y-77737900D01*
X129892600Y-77737899D01*
X129940937Y-77755492D01*
X129966657Y-77800040D01*
X129967800Y-77813099D01*
X129967800Y-85731851D01*
X129967800Y-85838149D01*
X130007150Y-85933149D01*
X130008480Y-85936359D01*
X130583479Y-86511357D01*
X130658643Y-86586521D01*
X130756851Y-86627200D01*
X131273992Y-86627200D01*
X131322330Y-86644793D01*
X131348050Y-86689342D01*
X131348266Y-86690636D01*
X131357043Y-86746056D01*
X131389449Y-86809656D01*
X131414984Y-86859771D01*
X131505229Y-86950016D01*
X131618943Y-87007956D01*
X131618945Y-87007957D01*
X131713292Y-87022900D01*
X131713296Y-87022900D01*
X136276704Y-87022900D01*
X136276708Y-87022900D01*
X136371055Y-87007957D01*
X136484771Y-86950016D01*
X136575016Y-86859771D01*
X136632957Y-86746055D01*
X136647900Y-86651708D01*
X136647900Y-86068292D01*
X136632957Y-85973945D01*
X136575016Y-85860229D01*
X136484771Y-85769984D01*
X136371055Y-85712043D01*
X136371057Y-85712043D01*
X136276710Y-85697100D01*
X136276708Y-85697100D01*
X131713292Y-85697100D01*
X131713289Y-85697100D01*
X131618943Y-85712043D01*
X131505228Y-85769984D01*
X131414984Y-85860228D01*
X131357043Y-85973943D01*
X131353419Y-85996825D01*
X131351971Y-86005972D01*
X131348266Y-86029364D01*
X131323328Y-86074354D01*
X131275305Y-86092789D01*
X131273992Y-86092800D01*
X130951826Y-86092800D01*
X130903488Y-86075207D01*
X130898652Y-86070774D01*
X130524226Y-85696348D01*
X130502486Y-85649728D01*
X130502200Y-85643174D01*
X130502200Y-77813099D01*
X130519793Y-77764761D01*
X130564342Y-77739041D01*
X130577400Y-77737899D01*
X130750056Y-77737899D01*
X130794658Y-77729028D01*
X130845234Y-77695234D01*
X130879028Y-77644658D01*
X130887900Y-77600057D01*
X130887899Y-76069944D01*
X130879028Y-76025342D01*
X130868981Y-76010306D01*
X130845235Y-75974767D01*
X130843221Y-75973421D01*
X130794658Y-75940972D01*
X130794656Y-75940971D01*
X130750057Y-75932100D01*
X129719944Y-75932100D01*
X129719942Y-75932101D01*
X129675340Y-75940972D01*
X129626777Y-75973421D01*
X129576812Y-75985647D01*
X129543220Y-75973420D01*
X129494661Y-75940973D01*
X129494656Y-75940971D01*
X129450057Y-75932100D01*
X128419944Y-75932100D01*
X128419942Y-75932101D01*
X128375340Y-75940972D01*
X128326777Y-75973421D01*
X128276812Y-75985647D01*
X128243220Y-75973420D01*
X128194661Y-75940973D01*
X128194656Y-75940971D01*
X128150057Y-75932100D01*
X127119944Y-75932100D01*
X127119942Y-75932101D01*
X127075340Y-75940972D01*
X127024767Y-75974764D01*
X126990972Y-76025342D01*
X126990971Y-76025343D01*
X126982100Y-76069942D01*
X122077900Y-76069942D01*
X122077900Y-75510143D01*
X122095493Y-75461805D01*
X122140042Y-75436085D01*
X122190700Y-75445018D01*
X122223765Y-75484423D01*
X122227374Y-75498380D01*
X122232524Y-75530899D01*
X122290394Y-75644474D01*
X122380525Y-75734605D01*
X122494101Y-75792475D01*
X122494099Y-75792475D01*
X122588328Y-75807399D01*
X122588336Y-75807400D01*
X122717600Y-75807400D01*
X123022400Y-75807400D01*
X123151664Y-75807400D01*
X123151671Y-75807399D01*
X123245899Y-75792475D01*
X123359474Y-75734605D01*
X123449605Y-75644474D01*
X123507475Y-75530899D01*
X123522399Y-75436671D01*
X123522400Y-75436664D01*
X123522400Y-75082400D01*
X123022400Y-75082400D01*
X123022400Y-75807400D01*
X122717600Y-75807400D01*
X122717600Y-74777600D01*
X123022400Y-74777600D01*
X123522400Y-74777600D01*
X123522400Y-74423336D01*
X123522399Y-74423328D01*
X123507475Y-74329100D01*
X123449605Y-74215525D01*
X123359474Y-74125394D01*
X123245898Y-74067524D01*
X123245900Y-74067524D01*
X123151671Y-74052600D01*
X123022400Y-74052600D01*
X123022400Y-74777600D01*
X122717600Y-74777600D01*
X122717600Y-74052600D01*
X122588328Y-74052600D01*
X122494100Y-74067524D01*
X122380525Y-74125394D01*
X122290394Y-74215525D01*
X122232524Y-74329100D01*
X122227374Y-74361620D01*
X122202436Y-74406610D01*
X122154413Y-74425045D01*
X122105775Y-74408297D01*
X122079282Y-74364205D01*
X122077900Y-74349856D01*
X122077900Y-73443600D01*
X122095493Y-73395262D01*
X122140042Y-73369542D01*
X122153100Y-73368400D01*
X131271611Y-73368400D01*
X131319949Y-73385993D01*
X131324785Y-73390426D01*
X133629574Y-75695215D01*
X133651314Y-75741835D01*
X133651600Y-75748389D01*
X133651600Y-83081900D01*
X133634007Y-83130238D01*
X133589458Y-83155958D01*
X133576400Y-83157100D01*
X131713289Y-83157100D01*
X131618943Y-83172043D01*
X131505228Y-83229984D01*
X131414984Y-83320228D01*
X131357043Y-83433943D01*
X131342100Y-83528289D01*
X131342100Y-84111710D01*
X131357043Y-84206056D01*
X131394815Y-84280187D01*
X131414984Y-84319771D01*
X131505229Y-84410016D01*
X131618943Y-84467956D01*
X131618945Y-84467957D01*
X131713292Y-84482900D01*
X131713296Y-84482900D01*
X136276704Y-84482900D01*
X136276708Y-84482900D01*
X136371055Y-84467957D01*
X136484771Y-84410016D01*
X136575016Y-84319771D01*
X136632957Y-84206055D01*
X136647900Y-84111708D01*
X136647900Y-83528292D01*
X136632957Y-83433945D01*
X136575016Y-83320229D01*
X136484771Y-83229984D01*
X136371055Y-83172043D01*
X136371057Y-83172043D01*
X136276710Y-83157100D01*
X136276708Y-83157100D01*
X134413600Y-83157100D01*
X134365262Y-83139507D01*
X134339542Y-83094958D01*
X134338400Y-83081900D01*
X134338400Y-75529793D01*
X134338400Y-75529791D01*
X134314998Y-75442453D01*
X134314998Y-75442452D01*
X134269788Y-75364147D01*
X134269787Y-75364146D01*
X134269786Y-75364144D01*
X133737034Y-74831392D01*
X142257100Y-74831392D01*
X142257100Y-75028607D01*
X142287950Y-75223385D01*
X142287953Y-75223400D01*
X142348891Y-75410946D01*
X142438424Y-75586664D01*
X142554343Y-75746210D01*
X142554350Y-75746218D01*
X142693781Y-75885649D01*
X142693789Y-75885656D01*
X142693791Y-75885658D01*
X142757714Y-75932101D01*
X142853335Y-76001575D01*
X143029053Y-76091108D01*
X143216599Y-76152046D01*
X143216608Y-76152047D01*
X143216612Y-76152049D01*
X143411395Y-76182900D01*
X143411399Y-76182900D01*
X143608601Y-76182900D01*
X143608605Y-76182900D01*
X143803388Y-76152049D01*
X143803392Y-76152047D01*
X143803400Y-76152046D01*
X143941157Y-76107285D01*
X143990947Y-76091108D01*
X144166663Y-76001576D01*
X144326209Y-75885658D01*
X144465658Y-75746209D01*
X144581576Y-75586663D01*
X144671108Y-75410947D01*
X144687285Y-75361157D01*
X144732046Y-75223400D01*
X144732047Y-75223392D01*
X144732049Y-75223388D01*
X144762900Y-75028605D01*
X144762900Y-74831395D01*
X144732049Y-74636612D01*
X144732047Y-74636608D01*
X144732046Y-74636599D01*
X144671108Y-74449053D01*
X144581575Y-74273335D01*
X144471797Y-74122241D01*
X144465658Y-74113791D01*
X144465656Y-74113789D01*
X144465649Y-74113781D01*
X144326218Y-73974350D01*
X144326210Y-73974343D01*
X144166664Y-73858424D01*
X143990946Y-73768891D01*
X143803400Y-73707953D01*
X143803385Y-73707950D01*
X143608607Y-73677100D01*
X143608605Y-73677100D01*
X143411395Y-73677100D01*
X143411392Y-73677100D01*
X143216614Y-73707950D01*
X143216599Y-73707953D01*
X143029053Y-73768891D01*
X142853335Y-73858424D01*
X142693789Y-73974343D01*
X142693781Y-73974350D01*
X142554350Y-74113781D01*
X142554343Y-74113789D01*
X142438424Y-74273335D01*
X142348891Y-74449053D01*
X142287953Y-74636599D01*
X142287950Y-74636614D01*
X142257100Y-74831392D01*
X133737034Y-74831392D01*
X131655855Y-72750213D01*
X131577549Y-72705002D01*
X131577540Y-72704999D01*
X131554147Y-72698730D01*
X131554147Y-72698731D01*
X131522177Y-72690165D01*
X131490209Y-72681600D01*
X110444791Y-72681600D01*
X110412822Y-72690165D01*
X110380853Y-72698731D01*
X110380852Y-72698730D01*
X110357459Y-72704999D01*
X110357450Y-72705002D01*
X110279144Y-72750213D01*
X110279144Y-72750214D01*
X109260214Y-73769144D01*
X109260213Y-73769144D01*
X109215001Y-73847452D01*
X109215002Y-73847453D01*
X109191600Y-73934791D01*
X109191600Y-73934793D01*
X109191600Y-78449322D01*
X109174007Y-78497660D01*
X109150541Y-78516324D01*
X109100971Y-78541581D01*
X109045228Y-78569984D01*
X108954984Y-78660228D01*
X108897043Y-78773943D01*
X108882100Y-78868289D01*
X108287393Y-78868289D01*
X108272475Y-78774100D01*
X108214605Y-78660525D01*
X108124474Y-78570394D01*
X108010898Y-78512524D01*
X108010900Y-78512524D01*
X107916671Y-78497600D01*
X107787400Y-78497600D01*
X107787400Y-79222600D01*
X107482600Y-79222600D01*
X107482600Y-78497600D01*
X107353328Y-78497600D01*
X107259100Y-78512524D01*
X107145525Y-78570394D01*
X107055394Y-78660525D01*
X106997524Y-78774100D01*
X106982600Y-78868328D01*
X101625500Y-78868328D01*
X101625500Y-74932276D01*
X101625637Y-74927735D01*
X101631465Y-74831392D01*
X102887100Y-74831392D01*
X102887100Y-75028607D01*
X102917950Y-75223385D01*
X102917953Y-75223400D01*
X102978891Y-75410946D01*
X103068424Y-75586664D01*
X103184343Y-75746210D01*
X103184350Y-75746218D01*
X103323781Y-75885649D01*
X103323789Y-75885656D01*
X103323791Y-75885658D01*
X103387714Y-75932101D01*
X103483335Y-76001575D01*
X103659053Y-76091108D01*
X103846599Y-76152046D01*
X103846608Y-76152047D01*
X103846612Y-76152049D01*
X104041395Y-76182900D01*
X104041399Y-76182900D01*
X104238601Y-76182900D01*
X104238605Y-76182900D01*
X104433388Y-76152049D01*
X104433392Y-76152047D01*
X104433400Y-76152046D01*
X104571157Y-76107285D01*
X104620947Y-76091108D01*
X104796663Y-76001576D01*
X104956209Y-75885658D01*
X105095658Y-75746209D01*
X105211576Y-75586663D01*
X105301108Y-75410947D01*
X105317285Y-75361157D01*
X105362046Y-75223400D01*
X105362047Y-75223392D01*
X105362049Y-75223388D01*
X105392900Y-75028605D01*
X105392900Y-74831395D01*
X105362049Y-74636612D01*
X105362047Y-74636608D01*
X105362046Y-74636599D01*
X105301108Y-74449053D01*
X105211575Y-74273335D01*
X105101797Y-74122241D01*
X105095658Y-74113791D01*
X105095656Y-74113789D01*
X105095649Y-74113781D01*
X104956218Y-73974350D01*
X104956210Y-73974343D01*
X104796664Y-73858424D01*
X104620946Y-73768891D01*
X104433400Y-73707953D01*
X104433385Y-73707950D01*
X104238607Y-73677100D01*
X104238605Y-73677100D01*
X104041395Y-73677100D01*
X104041392Y-73677100D01*
X103846614Y-73707950D01*
X103846599Y-73707953D01*
X103659053Y-73768891D01*
X103483335Y-73858424D01*
X103323789Y-73974343D01*
X103323781Y-73974350D01*
X103184350Y-74113781D01*
X103184343Y-74113789D01*
X103068424Y-74273335D01*
X102978891Y-74449053D01*
X102917953Y-74636599D01*
X102917950Y-74636614D01*
X102887100Y-74831392D01*
X101631465Y-74831392D01*
X101631918Y-74823899D01*
X101631918Y-74823898D01*
X101634215Y-74785925D01*
X101643560Y-74631438D01*
X101644652Y-74622443D01*
X101697749Y-74332701D01*
X101699915Y-74323914D01*
X101787549Y-74042684D01*
X101790768Y-74034199D01*
X101817707Y-73974343D01*
X101911657Y-73765593D01*
X101915867Y-73757571D01*
X102068261Y-73505481D01*
X102073409Y-73498023D01*
X102255072Y-73266148D01*
X102261080Y-73259367D01*
X102469367Y-73051080D01*
X102476148Y-73045072D01*
X102708023Y-72863409D01*
X102715481Y-72858261D01*
X102967571Y-72705867D01*
X102975593Y-72701657D01*
X103244204Y-72580765D01*
X103252684Y-72577549D01*
X103533914Y-72489915D01*
X103542701Y-72487749D01*
X103832443Y-72434652D01*
X103841438Y-72433560D01*
X104113440Y-72417106D01*
X104137736Y-72415637D01*
X104142276Y-72415500D01*
X104148285Y-72415500D01*
X143501715Y-72415500D01*
X143507724Y-72415500D01*
X143512264Y-72415637D01*
G37*
G04 #@! TD.AperFunction*
G04 #@! TD*
M02*
