G04 #@! TF.GenerationSoftware,KiCad,Pcbnew,9.0.2+dfsg-1*
G04 #@! TF.CreationDate,2025-08-10T10:43:45+08:00*
G04 #@! TF.ProjectId,stlink,73746c69-6e6b-42e6-9b69-6361645f7063,a*
G04 #@! TF.SameCoordinates,Original*
G04 #@! TF.FileFunction,Legend,Top*
G04 #@! TF.FilePolarity,Positive*
%FSLAX46Y46*%
G04 Gerber Fmt 4.6, Leading zero omitted, Abs format (unit mm)*
G04 Created by KiCad (PCBNEW 9.0.2+dfsg-1) date 2025-08-10 10:43:45*
%MOMM*%
%LPD*%
G01*
G04 APERTURE LIST*
%ADD10C,0.150000*%
%ADD11C,0.120000*%
G04 APERTURE END LIST*
D10*
X113951104Y-101488696D02*
X113989200Y-101526792D01*
X113989200Y-101526792D02*
X114027295Y-101641077D01*
X114027295Y-101641077D02*
X114027295Y-101717268D01*
X114027295Y-101717268D02*
X113989200Y-101831554D01*
X113989200Y-101831554D02*
X113913009Y-101907744D01*
X113913009Y-101907744D02*
X113836819Y-101945839D01*
X113836819Y-101945839D02*
X113684438Y-101983935D01*
X113684438Y-101983935D02*
X113570152Y-101983935D01*
X113570152Y-101983935D02*
X113417771Y-101945839D01*
X113417771Y-101945839D02*
X113341580Y-101907744D01*
X113341580Y-101907744D02*
X113265390Y-101831554D01*
X113265390Y-101831554D02*
X113227295Y-101717268D01*
X113227295Y-101717268D02*
X113227295Y-101641077D01*
X113227295Y-101641077D02*
X113265390Y-101526792D01*
X113265390Y-101526792D02*
X113303485Y-101488696D01*
X114027295Y-100764887D02*
X114027295Y-101145839D01*
X114027295Y-101145839D02*
X113227295Y-101145839D01*
X114027295Y-100498220D02*
X113227295Y-100498220D01*
X114027295Y-100041077D02*
X113570152Y-100383935D01*
X113227295Y-100041077D02*
X113684438Y-100498220D01*
X111487295Y-101945839D02*
X110687295Y-101945839D01*
X110687295Y-101945839D02*
X110687295Y-101755363D01*
X110687295Y-101755363D02*
X110725390Y-101641077D01*
X110725390Y-101641077D02*
X110801580Y-101564887D01*
X110801580Y-101564887D02*
X110877771Y-101526792D01*
X110877771Y-101526792D02*
X111030152Y-101488696D01*
X111030152Y-101488696D02*
X111144438Y-101488696D01*
X111144438Y-101488696D02*
X111296819Y-101526792D01*
X111296819Y-101526792D02*
X111373009Y-101564887D01*
X111373009Y-101564887D02*
X111449200Y-101641077D01*
X111449200Y-101641077D02*
X111487295Y-101755363D01*
X111487295Y-101755363D02*
X111487295Y-101945839D01*
X111487295Y-101145839D02*
X110687295Y-101145839D01*
X110687295Y-100612506D02*
X110687295Y-100460125D01*
X110687295Y-100460125D02*
X110725390Y-100383935D01*
X110725390Y-100383935D02*
X110801580Y-100307744D01*
X110801580Y-100307744D02*
X110953961Y-100269649D01*
X110953961Y-100269649D02*
X111220628Y-100269649D01*
X111220628Y-100269649D02*
X111373009Y-100307744D01*
X111373009Y-100307744D02*
X111449200Y-100383935D01*
X111449200Y-100383935D02*
X111487295Y-100460125D01*
X111487295Y-100460125D02*
X111487295Y-100612506D01*
X111487295Y-100612506D02*
X111449200Y-100688697D01*
X111449200Y-100688697D02*
X111373009Y-100764887D01*
X111373009Y-100764887D02*
X111220628Y-100802983D01*
X111220628Y-100802983D02*
X110953961Y-100802983D01*
X110953961Y-100802983D02*
X110801580Y-100764887D01*
X110801580Y-100764887D02*
X110725390Y-100688697D01*
X110725390Y-100688697D02*
X110687295Y-100612506D01*
X115767295Y-102022030D02*
X115767295Y-101526792D01*
X115767295Y-101526792D02*
X116072057Y-101793458D01*
X116072057Y-101793458D02*
X116072057Y-101679173D01*
X116072057Y-101679173D02*
X116110152Y-101602982D01*
X116110152Y-101602982D02*
X116148247Y-101564887D01*
X116148247Y-101564887D02*
X116224438Y-101526792D01*
X116224438Y-101526792D02*
X116414914Y-101526792D01*
X116414914Y-101526792D02*
X116491104Y-101564887D01*
X116491104Y-101564887D02*
X116529200Y-101602982D01*
X116529200Y-101602982D02*
X116567295Y-101679173D01*
X116567295Y-101679173D02*
X116567295Y-101907744D01*
X116567295Y-101907744D02*
X116529200Y-101983935D01*
X116529200Y-101983935D02*
X116491104Y-102022030D01*
X115767295Y-101298220D02*
X116567295Y-101031553D01*
X116567295Y-101031553D02*
X115767295Y-100764887D01*
X115767295Y-100574411D02*
X115767295Y-100079173D01*
X115767295Y-100079173D02*
X116072057Y-100345839D01*
X116072057Y-100345839D02*
X116072057Y-100231554D01*
X116072057Y-100231554D02*
X116110152Y-100155363D01*
X116110152Y-100155363D02*
X116148247Y-100117268D01*
X116148247Y-100117268D02*
X116224438Y-100079173D01*
X116224438Y-100079173D02*
X116414914Y-100079173D01*
X116414914Y-100079173D02*
X116491104Y-100117268D01*
X116491104Y-100117268D02*
X116529200Y-100155363D01*
X116529200Y-100155363D02*
X116567295Y-100231554D01*
X116567295Y-100231554D02*
X116567295Y-100460125D01*
X116567295Y-100460125D02*
X116529200Y-100536316D01*
X116529200Y-100536316D02*
X116491104Y-100574411D01*
X105911667Y-79661104D02*
X105873571Y-79699200D01*
X105873571Y-79699200D02*
X105759286Y-79737295D01*
X105759286Y-79737295D02*
X105683095Y-79737295D01*
X105683095Y-79737295D02*
X105568809Y-79699200D01*
X105568809Y-79699200D02*
X105492619Y-79623009D01*
X105492619Y-79623009D02*
X105454524Y-79546819D01*
X105454524Y-79546819D02*
X105416428Y-79394438D01*
X105416428Y-79394438D02*
X105416428Y-79280152D01*
X105416428Y-79280152D02*
X105454524Y-79127771D01*
X105454524Y-79127771D02*
X105492619Y-79051580D01*
X105492619Y-79051580D02*
X105568809Y-78975390D01*
X105568809Y-78975390D02*
X105683095Y-78937295D01*
X105683095Y-78937295D02*
X105759286Y-78937295D01*
X105759286Y-78937295D02*
X105873571Y-78975390D01*
X105873571Y-78975390D02*
X105911667Y-79013485D01*
X106597381Y-79203961D02*
X106597381Y-79737295D01*
X106406905Y-78899200D02*
X106216428Y-79470628D01*
X106216428Y-79470628D02*
X106711667Y-79470628D01*
X124326667Y-75216104D02*
X124288571Y-75254200D01*
X124288571Y-75254200D02*
X124174286Y-75292295D01*
X124174286Y-75292295D02*
X124098095Y-75292295D01*
X124098095Y-75292295D02*
X123983809Y-75254200D01*
X123983809Y-75254200D02*
X123907619Y-75178009D01*
X123907619Y-75178009D02*
X123869524Y-75101819D01*
X123869524Y-75101819D02*
X123831428Y-74949438D01*
X123831428Y-74949438D02*
X123831428Y-74835152D01*
X123831428Y-74835152D02*
X123869524Y-74682771D01*
X123869524Y-74682771D02*
X123907619Y-74606580D01*
X123907619Y-74606580D02*
X123983809Y-74530390D01*
X123983809Y-74530390D02*
X124098095Y-74492295D01*
X124098095Y-74492295D02*
X124174286Y-74492295D01*
X124174286Y-74492295D02*
X124288571Y-74530390D01*
X124288571Y-74530390D02*
X124326667Y-74568485D01*
X125050476Y-74492295D02*
X124669524Y-74492295D01*
X124669524Y-74492295D02*
X124631428Y-74873247D01*
X124631428Y-74873247D02*
X124669524Y-74835152D01*
X124669524Y-74835152D02*
X124745714Y-74797057D01*
X124745714Y-74797057D02*
X124936190Y-74797057D01*
X124936190Y-74797057D02*
X125012381Y-74835152D01*
X125012381Y-74835152D02*
X125050476Y-74873247D01*
X125050476Y-74873247D02*
X125088571Y-74949438D01*
X125088571Y-74949438D02*
X125088571Y-75139914D01*
X125088571Y-75139914D02*
X125050476Y-75216104D01*
X125050476Y-75216104D02*
X125012381Y-75254200D01*
X125012381Y-75254200D02*
X124936190Y-75292295D01*
X124936190Y-75292295D02*
X124745714Y-75292295D01*
X124745714Y-75292295D02*
X124669524Y-75254200D01*
X124669524Y-75254200D02*
X124631428Y-75216104D01*
X113392295Y-93478332D02*
X113011342Y-93744999D01*
X113392295Y-93935475D02*
X112592295Y-93935475D01*
X112592295Y-93935475D02*
X112592295Y-93630713D01*
X112592295Y-93630713D02*
X112630390Y-93554523D01*
X112630390Y-93554523D02*
X112668485Y-93516428D01*
X112668485Y-93516428D02*
X112744676Y-93478332D01*
X112744676Y-93478332D02*
X112858961Y-93478332D01*
X112858961Y-93478332D02*
X112935152Y-93516428D01*
X112935152Y-93516428D02*
X112973247Y-93554523D01*
X112973247Y-93554523D02*
X113011342Y-93630713D01*
X113011342Y-93630713D02*
X113011342Y-93935475D01*
X112592295Y-92754523D02*
X112592295Y-93135475D01*
X112592295Y-93135475D02*
X112973247Y-93173571D01*
X112973247Y-93173571D02*
X112935152Y-93135475D01*
X112935152Y-93135475D02*
X112897057Y-93059285D01*
X112897057Y-93059285D02*
X112897057Y-92868809D01*
X112897057Y-92868809D02*
X112935152Y-92792618D01*
X112935152Y-92792618D02*
X112973247Y-92754523D01*
X112973247Y-92754523D02*
X113049438Y-92716428D01*
X113049438Y-92716428D02*
X113239914Y-92716428D01*
X113239914Y-92716428D02*
X113316104Y-92754523D01*
X113316104Y-92754523D02*
X113354200Y-92792618D01*
X113354200Y-92792618D02*
X113392295Y-92868809D01*
X113392295Y-92868809D02*
X113392295Y-93059285D01*
X113392295Y-93059285D02*
X113354200Y-93135475D01*
X113354200Y-93135475D02*
X113316104Y-93173571D01*
X129251667Y-94901104D02*
X129213571Y-94939200D01*
X129213571Y-94939200D02*
X129099286Y-94977295D01*
X129099286Y-94977295D02*
X129023095Y-94977295D01*
X129023095Y-94977295D02*
X128908809Y-94939200D01*
X128908809Y-94939200D02*
X128832619Y-94863009D01*
X128832619Y-94863009D02*
X128794524Y-94786819D01*
X128794524Y-94786819D02*
X128756428Y-94634438D01*
X128756428Y-94634438D02*
X128756428Y-94520152D01*
X128756428Y-94520152D02*
X128794524Y-94367771D01*
X128794524Y-94367771D02*
X128832619Y-94291580D01*
X128832619Y-94291580D02*
X128908809Y-94215390D01*
X128908809Y-94215390D02*
X129023095Y-94177295D01*
X129023095Y-94177295D02*
X129099286Y-94177295D01*
X129099286Y-94177295D02*
X129213571Y-94215390D01*
X129213571Y-94215390D02*
X129251667Y-94253485D01*
X129937381Y-94177295D02*
X129785000Y-94177295D01*
X129785000Y-94177295D02*
X129708809Y-94215390D01*
X129708809Y-94215390D02*
X129670714Y-94253485D01*
X129670714Y-94253485D02*
X129594524Y-94367771D01*
X129594524Y-94367771D02*
X129556428Y-94520152D01*
X129556428Y-94520152D02*
X129556428Y-94824914D01*
X129556428Y-94824914D02*
X129594524Y-94901104D01*
X129594524Y-94901104D02*
X129632619Y-94939200D01*
X129632619Y-94939200D02*
X129708809Y-94977295D01*
X129708809Y-94977295D02*
X129861190Y-94977295D01*
X129861190Y-94977295D02*
X129937381Y-94939200D01*
X129937381Y-94939200D02*
X129975476Y-94901104D01*
X129975476Y-94901104D02*
X130013571Y-94824914D01*
X130013571Y-94824914D02*
X130013571Y-94634438D01*
X130013571Y-94634438D02*
X129975476Y-94558247D01*
X129975476Y-94558247D02*
X129937381Y-94520152D01*
X129937381Y-94520152D02*
X129861190Y-94482057D01*
X129861190Y-94482057D02*
X129708809Y-94482057D01*
X129708809Y-94482057D02*
X129632619Y-94520152D01*
X129632619Y-94520152D02*
X129594524Y-94558247D01*
X129594524Y-94558247D02*
X129556428Y-94634438D01*
X129406667Y-82201104D02*
X129368571Y-82239200D01*
X129368571Y-82239200D02*
X129254286Y-82277295D01*
X129254286Y-82277295D02*
X129178095Y-82277295D01*
X129178095Y-82277295D02*
X129063809Y-82239200D01*
X129063809Y-82239200D02*
X128987619Y-82163009D01*
X128987619Y-82163009D02*
X128949524Y-82086819D01*
X128949524Y-82086819D02*
X128911428Y-81934438D01*
X128911428Y-81934438D02*
X128911428Y-81820152D01*
X128911428Y-81820152D02*
X128949524Y-81667771D01*
X128949524Y-81667771D02*
X128987619Y-81591580D01*
X128987619Y-81591580D02*
X129063809Y-81515390D01*
X129063809Y-81515390D02*
X129178095Y-81477295D01*
X129178095Y-81477295D02*
X129254286Y-81477295D01*
X129254286Y-81477295D02*
X129368571Y-81515390D01*
X129368571Y-81515390D02*
X129406667Y-81553485D01*
X129673333Y-81477295D02*
X130206667Y-81477295D01*
X130206667Y-81477295D02*
X129863809Y-82277295D01*
X116071667Y-83741104D02*
X116033571Y-83779200D01*
X116033571Y-83779200D02*
X115919286Y-83817295D01*
X115919286Y-83817295D02*
X115843095Y-83817295D01*
X115843095Y-83817295D02*
X115728809Y-83779200D01*
X115728809Y-83779200D02*
X115652619Y-83703009D01*
X115652619Y-83703009D02*
X115614524Y-83626819D01*
X115614524Y-83626819D02*
X115576428Y-83474438D01*
X115576428Y-83474438D02*
X115576428Y-83360152D01*
X115576428Y-83360152D02*
X115614524Y-83207771D01*
X115614524Y-83207771D02*
X115652619Y-83131580D01*
X115652619Y-83131580D02*
X115728809Y-83055390D01*
X115728809Y-83055390D02*
X115843095Y-83017295D01*
X115843095Y-83017295D02*
X115919286Y-83017295D01*
X115919286Y-83017295D02*
X116033571Y-83055390D01*
X116033571Y-83055390D02*
X116071667Y-83093485D01*
X116528809Y-83360152D02*
X116452619Y-83322057D01*
X116452619Y-83322057D02*
X116414524Y-83283961D01*
X116414524Y-83283961D02*
X116376428Y-83207771D01*
X116376428Y-83207771D02*
X116376428Y-83169676D01*
X116376428Y-83169676D02*
X116414524Y-83093485D01*
X116414524Y-83093485D02*
X116452619Y-83055390D01*
X116452619Y-83055390D02*
X116528809Y-83017295D01*
X116528809Y-83017295D02*
X116681190Y-83017295D01*
X116681190Y-83017295D02*
X116757381Y-83055390D01*
X116757381Y-83055390D02*
X116795476Y-83093485D01*
X116795476Y-83093485D02*
X116833571Y-83169676D01*
X116833571Y-83169676D02*
X116833571Y-83207771D01*
X116833571Y-83207771D02*
X116795476Y-83283961D01*
X116795476Y-83283961D02*
X116757381Y-83322057D01*
X116757381Y-83322057D02*
X116681190Y-83360152D01*
X116681190Y-83360152D02*
X116528809Y-83360152D01*
X116528809Y-83360152D02*
X116452619Y-83398247D01*
X116452619Y-83398247D02*
X116414524Y-83436342D01*
X116414524Y-83436342D02*
X116376428Y-83512533D01*
X116376428Y-83512533D02*
X116376428Y-83664914D01*
X116376428Y-83664914D02*
X116414524Y-83741104D01*
X116414524Y-83741104D02*
X116452619Y-83779200D01*
X116452619Y-83779200D02*
X116528809Y-83817295D01*
X116528809Y-83817295D02*
X116681190Y-83817295D01*
X116681190Y-83817295D02*
X116757381Y-83779200D01*
X116757381Y-83779200D02*
X116795476Y-83741104D01*
X116795476Y-83741104D02*
X116833571Y-83664914D01*
X116833571Y-83664914D02*
X116833571Y-83512533D01*
X116833571Y-83512533D02*
X116795476Y-83436342D01*
X116795476Y-83436342D02*
X116757381Y-83398247D01*
X116757381Y-83398247D02*
X116681190Y-83360152D01*
X123401667Y-101786104D02*
X123363571Y-101824200D01*
X123363571Y-101824200D02*
X123249286Y-101862295D01*
X123249286Y-101862295D02*
X123173095Y-101862295D01*
X123173095Y-101862295D02*
X123058809Y-101824200D01*
X123058809Y-101824200D02*
X122982619Y-101748009D01*
X122982619Y-101748009D02*
X122944524Y-101671819D01*
X122944524Y-101671819D02*
X122906428Y-101519438D01*
X122906428Y-101519438D02*
X122906428Y-101405152D01*
X122906428Y-101405152D02*
X122944524Y-101252771D01*
X122944524Y-101252771D02*
X122982619Y-101176580D01*
X122982619Y-101176580D02*
X123058809Y-101100390D01*
X123058809Y-101100390D02*
X123173095Y-101062295D01*
X123173095Y-101062295D02*
X123249286Y-101062295D01*
X123249286Y-101062295D02*
X123363571Y-101100390D01*
X123363571Y-101100390D02*
X123401667Y-101138485D01*
X123782619Y-101862295D02*
X123935000Y-101862295D01*
X123935000Y-101862295D02*
X124011190Y-101824200D01*
X124011190Y-101824200D02*
X124049286Y-101786104D01*
X124049286Y-101786104D02*
X124125476Y-101671819D01*
X124125476Y-101671819D02*
X124163571Y-101519438D01*
X124163571Y-101519438D02*
X124163571Y-101214676D01*
X124163571Y-101214676D02*
X124125476Y-101138485D01*
X124125476Y-101138485D02*
X124087381Y-101100390D01*
X124087381Y-101100390D02*
X124011190Y-101062295D01*
X124011190Y-101062295D02*
X123858809Y-101062295D01*
X123858809Y-101062295D02*
X123782619Y-101100390D01*
X123782619Y-101100390D02*
X123744524Y-101138485D01*
X123744524Y-101138485D02*
X123706428Y-101214676D01*
X123706428Y-101214676D02*
X123706428Y-101405152D01*
X123706428Y-101405152D02*
X123744524Y-101481342D01*
X123744524Y-101481342D02*
X123782619Y-101519438D01*
X123782619Y-101519438D02*
X123858809Y-101557533D01*
X123858809Y-101557533D02*
X124011190Y-101557533D01*
X124011190Y-101557533D02*
X124087381Y-101519438D01*
X124087381Y-101519438D02*
X124125476Y-101481342D01*
X124125476Y-101481342D02*
X124163571Y-101405152D01*
X137528333Y-77302295D02*
X137528333Y-77873723D01*
X137528333Y-77873723D02*
X137490238Y-77988009D01*
X137490238Y-77988009D02*
X137414047Y-78064200D01*
X137414047Y-78064200D02*
X137299762Y-78102295D01*
X137299762Y-78102295D02*
X137223571Y-78102295D01*
X137871190Y-77378485D02*
X137909286Y-77340390D01*
X137909286Y-77340390D02*
X137985476Y-77302295D01*
X137985476Y-77302295D02*
X138175952Y-77302295D01*
X138175952Y-77302295D02*
X138252143Y-77340390D01*
X138252143Y-77340390D02*
X138290238Y-77378485D01*
X138290238Y-77378485D02*
X138328333Y-77454676D01*
X138328333Y-77454676D02*
X138328333Y-77530866D01*
X138328333Y-77530866D02*
X138290238Y-77645152D01*
X138290238Y-77645152D02*
X137833095Y-78102295D01*
X137833095Y-78102295D02*
X138328333Y-78102295D01*
X129251667Y-93681104D02*
X129213571Y-93719200D01*
X129213571Y-93719200D02*
X129099286Y-93757295D01*
X129099286Y-93757295D02*
X129023095Y-93757295D01*
X129023095Y-93757295D02*
X128908809Y-93719200D01*
X128908809Y-93719200D02*
X128832619Y-93643009D01*
X128832619Y-93643009D02*
X128794524Y-93566819D01*
X128794524Y-93566819D02*
X128756428Y-93414438D01*
X128756428Y-93414438D02*
X128756428Y-93300152D01*
X128756428Y-93300152D02*
X128794524Y-93147771D01*
X128794524Y-93147771D02*
X128832619Y-93071580D01*
X128832619Y-93071580D02*
X128908809Y-92995390D01*
X128908809Y-92995390D02*
X129023095Y-92957295D01*
X129023095Y-92957295D02*
X129099286Y-92957295D01*
X129099286Y-92957295D02*
X129213571Y-92995390D01*
X129213571Y-92995390D02*
X129251667Y-93033485D01*
X129556428Y-93033485D02*
X129594524Y-92995390D01*
X129594524Y-92995390D02*
X129670714Y-92957295D01*
X129670714Y-92957295D02*
X129861190Y-92957295D01*
X129861190Y-92957295D02*
X129937381Y-92995390D01*
X129937381Y-92995390D02*
X129975476Y-93033485D01*
X129975476Y-93033485D02*
X130013571Y-93109676D01*
X130013571Y-93109676D02*
X130013571Y-93185866D01*
X130013571Y-93185866D02*
X129975476Y-93300152D01*
X129975476Y-93300152D02*
X129518333Y-93757295D01*
X129518333Y-93757295D02*
X130013571Y-93757295D01*
X129406667Y-86011104D02*
X129368571Y-86049200D01*
X129368571Y-86049200D02*
X129254286Y-86087295D01*
X129254286Y-86087295D02*
X129178095Y-86087295D01*
X129178095Y-86087295D02*
X129063809Y-86049200D01*
X129063809Y-86049200D02*
X128987619Y-85973009D01*
X128987619Y-85973009D02*
X128949524Y-85896819D01*
X128949524Y-85896819D02*
X128911428Y-85744438D01*
X128911428Y-85744438D02*
X128911428Y-85630152D01*
X128911428Y-85630152D02*
X128949524Y-85477771D01*
X128949524Y-85477771D02*
X128987619Y-85401580D01*
X128987619Y-85401580D02*
X129063809Y-85325390D01*
X129063809Y-85325390D02*
X129178095Y-85287295D01*
X129178095Y-85287295D02*
X129254286Y-85287295D01*
X129254286Y-85287295D02*
X129368571Y-85325390D01*
X129368571Y-85325390D02*
X129406667Y-85363485D01*
X129673333Y-85287295D02*
X130168571Y-85287295D01*
X130168571Y-85287295D02*
X129901905Y-85592057D01*
X129901905Y-85592057D02*
X130016190Y-85592057D01*
X130016190Y-85592057D02*
X130092381Y-85630152D01*
X130092381Y-85630152D02*
X130130476Y-85668247D01*
X130130476Y-85668247D02*
X130168571Y-85744438D01*
X130168571Y-85744438D02*
X130168571Y-85934914D01*
X130168571Y-85934914D02*
X130130476Y-86011104D01*
X130130476Y-86011104D02*
X130092381Y-86049200D01*
X130092381Y-86049200D02*
X130016190Y-86087295D01*
X130016190Y-86087295D02*
X129787619Y-86087295D01*
X129787619Y-86087295D02*
X129711428Y-86049200D01*
X129711428Y-86049200D02*
X129673333Y-86011104D01*
X132352704Y-100944524D02*
X133152704Y-100944524D01*
X133152704Y-100944524D02*
X133152704Y-101135000D01*
X133152704Y-101135000D02*
X133114609Y-101249286D01*
X133114609Y-101249286D02*
X133038419Y-101325476D01*
X133038419Y-101325476D02*
X132962228Y-101363571D01*
X132962228Y-101363571D02*
X132809847Y-101401667D01*
X132809847Y-101401667D02*
X132695561Y-101401667D01*
X132695561Y-101401667D02*
X132543180Y-101363571D01*
X132543180Y-101363571D02*
X132466990Y-101325476D01*
X132466990Y-101325476D02*
X132390800Y-101249286D01*
X132390800Y-101249286D02*
X132352704Y-101135000D01*
X132352704Y-101135000D02*
X132352704Y-100944524D01*
X133076514Y-101706428D02*
X133114609Y-101744524D01*
X133114609Y-101744524D02*
X133152704Y-101820714D01*
X133152704Y-101820714D02*
X133152704Y-102011190D01*
X133152704Y-102011190D02*
X133114609Y-102087381D01*
X133114609Y-102087381D02*
X133076514Y-102125476D01*
X133076514Y-102125476D02*
X133000323Y-102163571D01*
X133000323Y-102163571D02*
X132924133Y-102163571D01*
X132924133Y-102163571D02*
X132809847Y-102125476D01*
X132809847Y-102125476D02*
X132352704Y-101668333D01*
X132352704Y-101668333D02*
X132352704Y-102163571D01*
X131172295Y-106065475D02*
X130372295Y-106065475D01*
X130372295Y-106065475D02*
X130372295Y-105874999D01*
X130372295Y-105874999D02*
X130410390Y-105760713D01*
X130410390Y-105760713D02*
X130486580Y-105684523D01*
X130486580Y-105684523D02*
X130562771Y-105646428D01*
X130562771Y-105646428D02*
X130715152Y-105608332D01*
X130715152Y-105608332D02*
X130829438Y-105608332D01*
X130829438Y-105608332D02*
X130981819Y-105646428D01*
X130981819Y-105646428D02*
X131058009Y-105684523D01*
X131058009Y-105684523D02*
X131134200Y-105760713D01*
X131134200Y-105760713D02*
X131172295Y-105874999D01*
X131172295Y-105874999D02*
X131172295Y-106065475D01*
X130372295Y-105341666D02*
X130372295Y-104846428D01*
X130372295Y-104846428D02*
X130677057Y-105113094D01*
X130677057Y-105113094D02*
X130677057Y-104998809D01*
X130677057Y-104998809D02*
X130715152Y-104922618D01*
X130715152Y-104922618D02*
X130753247Y-104884523D01*
X130753247Y-104884523D02*
X130829438Y-104846428D01*
X130829438Y-104846428D02*
X131019914Y-104846428D01*
X131019914Y-104846428D02*
X131096104Y-104884523D01*
X131096104Y-104884523D02*
X131134200Y-104922618D01*
X131134200Y-104922618D02*
X131172295Y-104998809D01*
X131172295Y-104998809D02*
X131172295Y-105227380D01*
X131172295Y-105227380D02*
X131134200Y-105303571D01*
X131134200Y-105303571D02*
X131096104Y-105341666D01*
X135982295Y-104019285D02*
X135601342Y-104285952D01*
X135982295Y-104476428D02*
X135182295Y-104476428D01*
X135182295Y-104476428D02*
X135182295Y-104171666D01*
X135182295Y-104171666D02*
X135220390Y-104095476D01*
X135220390Y-104095476D02*
X135258485Y-104057381D01*
X135258485Y-104057381D02*
X135334676Y-104019285D01*
X135334676Y-104019285D02*
X135448961Y-104019285D01*
X135448961Y-104019285D02*
X135525152Y-104057381D01*
X135525152Y-104057381D02*
X135563247Y-104095476D01*
X135563247Y-104095476D02*
X135601342Y-104171666D01*
X135601342Y-104171666D02*
X135601342Y-104476428D01*
X135982295Y-103257381D02*
X135982295Y-103714524D01*
X135982295Y-103485952D02*
X135182295Y-103485952D01*
X135182295Y-103485952D02*
X135296580Y-103562143D01*
X135296580Y-103562143D02*
X135372771Y-103638333D01*
X135372771Y-103638333D02*
X135410866Y-103714524D01*
X135448961Y-102571666D02*
X135982295Y-102571666D01*
X135144200Y-102762142D02*
X135715628Y-102952619D01*
X135715628Y-102952619D02*
X135715628Y-102457380D01*
X104184524Y-82277295D02*
X104184524Y-81477295D01*
X104184524Y-81477295D02*
X104375000Y-81477295D01*
X104375000Y-81477295D02*
X104489286Y-81515390D01*
X104489286Y-81515390D02*
X104565476Y-81591580D01*
X104565476Y-81591580D02*
X104603571Y-81667771D01*
X104603571Y-81667771D02*
X104641667Y-81820152D01*
X104641667Y-81820152D02*
X104641667Y-81934438D01*
X104641667Y-81934438D02*
X104603571Y-82086819D01*
X104603571Y-82086819D02*
X104565476Y-82163009D01*
X104565476Y-82163009D02*
X104489286Y-82239200D01*
X104489286Y-82239200D02*
X104375000Y-82277295D01*
X104375000Y-82277295D02*
X104184524Y-82277295D01*
X105403571Y-82277295D02*
X104946428Y-82277295D01*
X105175000Y-82277295D02*
X105175000Y-81477295D01*
X105175000Y-81477295D02*
X105098809Y-81591580D01*
X105098809Y-81591580D02*
X105022619Y-81667771D01*
X105022619Y-81667771D02*
X104946428Y-81705866D01*
X124485476Y-92907295D02*
X124485476Y-93554914D01*
X124485476Y-93554914D02*
X124523571Y-93631104D01*
X124523571Y-93631104D02*
X124561666Y-93669200D01*
X124561666Y-93669200D02*
X124637857Y-93707295D01*
X124637857Y-93707295D02*
X124790238Y-93707295D01*
X124790238Y-93707295D02*
X124866428Y-93669200D01*
X124866428Y-93669200D02*
X124904523Y-93631104D01*
X124904523Y-93631104D02*
X124942619Y-93554914D01*
X124942619Y-93554914D02*
X124942619Y-92907295D01*
X125742618Y-93707295D02*
X125285475Y-93707295D01*
X125514047Y-93707295D02*
X125514047Y-92907295D01*
X125514047Y-92907295D02*
X125437856Y-93021580D01*
X125437856Y-93021580D02*
X125361666Y-93097771D01*
X125361666Y-93097771D02*
X125285475Y-93135866D01*
X129406667Y-83471104D02*
X129368571Y-83509200D01*
X129368571Y-83509200D02*
X129254286Y-83547295D01*
X129254286Y-83547295D02*
X129178095Y-83547295D01*
X129178095Y-83547295D02*
X129063809Y-83509200D01*
X129063809Y-83509200D02*
X128987619Y-83433009D01*
X128987619Y-83433009D02*
X128949524Y-83356819D01*
X128949524Y-83356819D02*
X128911428Y-83204438D01*
X128911428Y-83204438D02*
X128911428Y-83090152D01*
X128911428Y-83090152D02*
X128949524Y-82937771D01*
X128949524Y-82937771D02*
X128987619Y-82861580D01*
X128987619Y-82861580D02*
X129063809Y-82785390D01*
X129063809Y-82785390D02*
X129178095Y-82747295D01*
X129178095Y-82747295D02*
X129254286Y-82747295D01*
X129254286Y-82747295D02*
X129368571Y-82785390D01*
X129368571Y-82785390D02*
X129406667Y-82823485D01*
X130168571Y-83547295D02*
X129711428Y-83547295D01*
X129940000Y-83547295D02*
X129940000Y-82747295D01*
X129940000Y-82747295D02*
X129863809Y-82861580D01*
X129863809Y-82861580D02*
X129787619Y-82937771D01*
X129787619Y-82937771D02*
X129711428Y-82975866D01*
X129406667Y-84817295D02*
X129140000Y-84436342D01*
X128949524Y-84817295D02*
X128949524Y-84017295D01*
X128949524Y-84017295D02*
X129254286Y-84017295D01*
X129254286Y-84017295D02*
X129330476Y-84055390D01*
X129330476Y-84055390D02*
X129368571Y-84093485D01*
X129368571Y-84093485D02*
X129406667Y-84169676D01*
X129406667Y-84169676D02*
X129406667Y-84283961D01*
X129406667Y-84283961D02*
X129368571Y-84360152D01*
X129368571Y-84360152D02*
X129330476Y-84398247D01*
X129330476Y-84398247D02*
X129254286Y-84436342D01*
X129254286Y-84436342D02*
X128949524Y-84436342D01*
X130168571Y-84817295D02*
X129711428Y-84817295D01*
X129940000Y-84817295D02*
X129940000Y-84017295D01*
X129940000Y-84017295D02*
X129863809Y-84131580D01*
X129863809Y-84131580D02*
X129787619Y-84207771D01*
X129787619Y-84207771D02*
X129711428Y-84245866D01*
X129406667Y-98787295D02*
X129140000Y-98406342D01*
X128949524Y-98787295D02*
X128949524Y-97987295D01*
X128949524Y-97987295D02*
X129254286Y-97987295D01*
X129254286Y-97987295D02*
X129330476Y-98025390D01*
X129330476Y-98025390D02*
X129368571Y-98063485D01*
X129368571Y-98063485D02*
X129406667Y-98139676D01*
X129406667Y-98139676D02*
X129406667Y-98253961D01*
X129406667Y-98253961D02*
X129368571Y-98330152D01*
X129368571Y-98330152D02*
X129330476Y-98368247D01*
X129330476Y-98368247D02*
X129254286Y-98406342D01*
X129254286Y-98406342D02*
X128949524Y-98406342D01*
X129711428Y-98063485D02*
X129749524Y-98025390D01*
X129749524Y-98025390D02*
X129825714Y-97987295D01*
X129825714Y-97987295D02*
X130016190Y-97987295D01*
X130016190Y-97987295D02*
X130092381Y-98025390D01*
X130092381Y-98025390D02*
X130130476Y-98063485D01*
X130130476Y-98063485D02*
X130168571Y-98139676D01*
X130168571Y-98139676D02*
X130168571Y-98215866D01*
X130168571Y-98215866D02*
X130130476Y-98330152D01*
X130130476Y-98330152D02*
X129673333Y-98787295D01*
X129673333Y-98787295D02*
X130168571Y-98787295D01*
X116719285Y-83822704D02*
X116985952Y-84203657D01*
X117176428Y-83822704D02*
X117176428Y-84622704D01*
X117176428Y-84622704D02*
X116871666Y-84622704D01*
X116871666Y-84622704D02*
X116795476Y-84584609D01*
X116795476Y-84584609D02*
X116757381Y-84546514D01*
X116757381Y-84546514D02*
X116719285Y-84470323D01*
X116719285Y-84470323D02*
X116719285Y-84356038D01*
X116719285Y-84356038D02*
X116757381Y-84279847D01*
X116757381Y-84279847D02*
X116795476Y-84241752D01*
X116795476Y-84241752D02*
X116871666Y-84203657D01*
X116871666Y-84203657D02*
X117176428Y-84203657D01*
X115957381Y-83822704D02*
X116414524Y-83822704D01*
X116185952Y-83822704D02*
X116185952Y-84622704D01*
X116185952Y-84622704D02*
X116262143Y-84508419D01*
X116262143Y-84508419D02*
X116338333Y-84432228D01*
X116338333Y-84432228D02*
X116414524Y-84394133D01*
X115195476Y-83822704D02*
X115652619Y-83822704D01*
X115424047Y-83822704D02*
X115424047Y-84622704D01*
X115424047Y-84622704D02*
X115500238Y-84508419D01*
X115500238Y-84508419D02*
X115576428Y-84432228D01*
X115576428Y-84432228D02*
X115652619Y-84394133D01*
X114083485Y-97461190D02*
X114045390Y-97537380D01*
X114045390Y-97537380D02*
X113969200Y-97613571D01*
X113969200Y-97613571D02*
X113854914Y-97727857D01*
X113854914Y-97727857D02*
X113816819Y-97804047D01*
X113816819Y-97804047D02*
X113816819Y-97880238D01*
X114007295Y-97842142D02*
X113969200Y-97918333D01*
X113969200Y-97918333D02*
X113893009Y-97994523D01*
X113893009Y-97994523D02*
X113740628Y-98032619D01*
X113740628Y-98032619D02*
X113473961Y-98032619D01*
X113473961Y-98032619D02*
X113321580Y-97994523D01*
X113321580Y-97994523D02*
X113245390Y-97918333D01*
X113245390Y-97918333D02*
X113207295Y-97842142D01*
X113207295Y-97842142D02*
X113207295Y-97689761D01*
X113207295Y-97689761D02*
X113245390Y-97613571D01*
X113245390Y-97613571D02*
X113321580Y-97537380D01*
X113321580Y-97537380D02*
X113473961Y-97499285D01*
X113473961Y-97499285D02*
X113740628Y-97499285D01*
X113740628Y-97499285D02*
X113893009Y-97537380D01*
X113893009Y-97537380D02*
X113969200Y-97613571D01*
X113969200Y-97613571D02*
X114007295Y-97689761D01*
X114007295Y-97689761D02*
X114007295Y-97842142D01*
X114007295Y-96737381D02*
X114007295Y-97194524D01*
X114007295Y-96965952D02*
X113207295Y-96965952D01*
X113207295Y-96965952D02*
X113321580Y-97042143D01*
X113321580Y-97042143D02*
X113397771Y-97118333D01*
X113397771Y-97118333D02*
X113435866Y-97194524D01*
X116682295Y-97823332D02*
X116301342Y-98089999D01*
X116682295Y-98280475D02*
X115882295Y-98280475D01*
X115882295Y-98280475D02*
X115882295Y-97975713D01*
X115882295Y-97975713D02*
X115920390Y-97899523D01*
X115920390Y-97899523D02*
X115958485Y-97861428D01*
X115958485Y-97861428D02*
X116034676Y-97823332D01*
X116034676Y-97823332D02*
X116148961Y-97823332D01*
X116148961Y-97823332D02*
X116225152Y-97861428D01*
X116225152Y-97861428D02*
X116263247Y-97899523D01*
X116263247Y-97899523D02*
X116301342Y-97975713D01*
X116301342Y-97975713D02*
X116301342Y-98280475D01*
X116225152Y-97366190D02*
X116187057Y-97442380D01*
X116187057Y-97442380D02*
X116148961Y-97480475D01*
X116148961Y-97480475D02*
X116072771Y-97518571D01*
X116072771Y-97518571D02*
X116034676Y-97518571D01*
X116034676Y-97518571D02*
X115958485Y-97480475D01*
X115958485Y-97480475D02*
X115920390Y-97442380D01*
X115920390Y-97442380D02*
X115882295Y-97366190D01*
X115882295Y-97366190D02*
X115882295Y-97213809D01*
X115882295Y-97213809D02*
X115920390Y-97137618D01*
X115920390Y-97137618D02*
X115958485Y-97099523D01*
X115958485Y-97099523D02*
X116034676Y-97061428D01*
X116034676Y-97061428D02*
X116072771Y-97061428D01*
X116072771Y-97061428D02*
X116148961Y-97099523D01*
X116148961Y-97099523D02*
X116187057Y-97137618D01*
X116187057Y-97137618D02*
X116225152Y-97213809D01*
X116225152Y-97213809D02*
X116225152Y-97366190D01*
X116225152Y-97366190D02*
X116263247Y-97442380D01*
X116263247Y-97442380D02*
X116301342Y-97480475D01*
X116301342Y-97480475D02*
X116377533Y-97518571D01*
X116377533Y-97518571D02*
X116529914Y-97518571D01*
X116529914Y-97518571D02*
X116606104Y-97480475D01*
X116606104Y-97480475D02*
X116644200Y-97442380D01*
X116644200Y-97442380D02*
X116682295Y-97366190D01*
X116682295Y-97366190D02*
X116682295Y-97213809D01*
X116682295Y-97213809D02*
X116644200Y-97137618D01*
X116644200Y-97137618D02*
X116606104Y-97099523D01*
X116606104Y-97099523D02*
X116529914Y-97061428D01*
X116529914Y-97061428D02*
X116377533Y-97061428D01*
X116377533Y-97061428D02*
X116301342Y-97099523D01*
X116301342Y-97099523D02*
X116263247Y-97137618D01*
X116263247Y-97137618D02*
X116225152Y-97213809D01*
X113686667Y-95612295D02*
X113420000Y-95231342D01*
X113229524Y-95612295D02*
X113229524Y-94812295D01*
X113229524Y-94812295D02*
X113534286Y-94812295D01*
X113534286Y-94812295D02*
X113610476Y-94850390D01*
X113610476Y-94850390D02*
X113648571Y-94888485D01*
X113648571Y-94888485D02*
X113686667Y-94964676D01*
X113686667Y-94964676D02*
X113686667Y-95078961D01*
X113686667Y-95078961D02*
X113648571Y-95155152D01*
X113648571Y-95155152D02*
X113610476Y-95193247D01*
X113610476Y-95193247D02*
X113534286Y-95231342D01*
X113534286Y-95231342D02*
X113229524Y-95231342D01*
X114067619Y-95612295D02*
X114220000Y-95612295D01*
X114220000Y-95612295D02*
X114296190Y-95574200D01*
X114296190Y-95574200D02*
X114334286Y-95536104D01*
X114334286Y-95536104D02*
X114410476Y-95421819D01*
X114410476Y-95421819D02*
X114448571Y-95269438D01*
X114448571Y-95269438D02*
X114448571Y-94964676D01*
X114448571Y-94964676D02*
X114410476Y-94888485D01*
X114410476Y-94888485D02*
X114372381Y-94850390D01*
X114372381Y-94850390D02*
X114296190Y-94812295D01*
X114296190Y-94812295D02*
X114143809Y-94812295D01*
X114143809Y-94812295D02*
X114067619Y-94850390D01*
X114067619Y-94850390D02*
X114029524Y-94888485D01*
X114029524Y-94888485D02*
X113991428Y-94964676D01*
X113991428Y-94964676D02*
X113991428Y-95155152D01*
X113991428Y-95155152D02*
X114029524Y-95231342D01*
X114029524Y-95231342D02*
X114067619Y-95269438D01*
X114067619Y-95269438D02*
X114143809Y-95307533D01*
X114143809Y-95307533D02*
X114296190Y-95307533D01*
X114296190Y-95307533D02*
X114372381Y-95269438D01*
X114372381Y-95269438D02*
X114410476Y-95231342D01*
X114410476Y-95231342D02*
X114448571Y-95155152D01*
X129406667Y-97517295D02*
X129140000Y-97136342D01*
X128949524Y-97517295D02*
X128949524Y-96717295D01*
X128949524Y-96717295D02*
X129254286Y-96717295D01*
X129254286Y-96717295D02*
X129330476Y-96755390D01*
X129330476Y-96755390D02*
X129368571Y-96793485D01*
X129368571Y-96793485D02*
X129406667Y-96869676D01*
X129406667Y-96869676D02*
X129406667Y-96983961D01*
X129406667Y-96983961D02*
X129368571Y-97060152D01*
X129368571Y-97060152D02*
X129330476Y-97098247D01*
X129330476Y-97098247D02*
X129254286Y-97136342D01*
X129254286Y-97136342D02*
X128949524Y-97136342D01*
X130092381Y-96717295D02*
X129940000Y-96717295D01*
X129940000Y-96717295D02*
X129863809Y-96755390D01*
X129863809Y-96755390D02*
X129825714Y-96793485D01*
X129825714Y-96793485D02*
X129749524Y-96907771D01*
X129749524Y-96907771D02*
X129711428Y-97060152D01*
X129711428Y-97060152D02*
X129711428Y-97364914D01*
X129711428Y-97364914D02*
X129749524Y-97441104D01*
X129749524Y-97441104D02*
X129787619Y-97479200D01*
X129787619Y-97479200D02*
X129863809Y-97517295D01*
X129863809Y-97517295D02*
X130016190Y-97517295D01*
X130016190Y-97517295D02*
X130092381Y-97479200D01*
X130092381Y-97479200D02*
X130130476Y-97441104D01*
X130130476Y-97441104D02*
X130168571Y-97364914D01*
X130168571Y-97364914D02*
X130168571Y-97174438D01*
X130168571Y-97174438D02*
X130130476Y-97098247D01*
X130130476Y-97098247D02*
X130092381Y-97060152D01*
X130092381Y-97060152D02*
X130016190Y-97022057D01*
X130016190Y-97022057D02*
X129863809Y-97022057D01*
X129863809Y-97022057D02*
X129787619Y-97060152D01*
X129787619Y-97060152D02*
X129749524Y-97098247D01*
X129749524Y-97098247D02*
X129711428Y-97174438D01*
X129406667Y-96247295D02*
X129140000Y-95866342D01*
X128949524Y-96247295D02*
X128949524Y-95447295D01*
X128949524Y-95447295D02*
X129254286Y-95447295D01*
X129254286Y-95447295D02*
X129330476Y-95485390D01*
X129330476Y-95485390D02*
X129368571Y-95523485D01*
X129368571Y-95523485D02*
X129406667Y-95599676D01*
X129406667Y-95599676D02*
X129406667Y-95713961D01*
X129406667Y-95713961D02*
X129368571Y-95790152D01*
X129368571Y-95790152D02*
X129330476Y-95828247D01*
X129330476Y-95828247D02*
X129254286Y-95866342D01*
X129254286Y-95866342D02*
X128949524Y-95866342D01*
X129673333Y-95447295D02*
X130206667Y-95447295D01*
X130206667Y-95447295D02*
X129863809Y-96247295D01*
X129025714Y-79737295D02*
X128759047Y-79356342D01*
X128568571Y-79737295D02*
X128568571Y-78937295D01*
X128568571Y-78937295D02*
X128873333Y-78937295D01*
X128873333Y-78937295D02*
X128949523Y-78975390D01*
X128949523Y-78975390D02*
X128987618Y-79013485D01*
X128987618Y-79013485D02*
X129025714Y-79089676D01*
X129025714Y-79089676D02*
X129025714Y-79203961D01*
X129025714Y-79203961D02*
X128987618Y-79280152D01*
X128987618Y-79280152D02*
X128949523Y-79318247D01*
X128949523Y-79318247D02*
X128873333Y-79356342D01*
X128873333Y-79356342D02*
X128568571Y-79356342D01*
X129787618Y-79737295D02*
X129330475Y-79737295D01*
X129559047Y-79737295D02*
X129559047Y-78937295D01*
X129559047Y-78937295D02*
X129482856Y-79051580D01*
X129482856Y-79051580D02*
X129406666Y-79127771D01*
X129406666Y-79127771D02*
X129330475Y-79165866D01*
X130092380Y-79013485D02*
X130130476Y-78975390D01*
X130130476Y-78975390D02*
X130206666Y-78937295D01*
X130206666Y-78937295D02*
X130397142Y-78937295D01*
X130397142Y-78937295D02*
X130473333Y-78975390D01*
X130473333Y-78975390D02*
X130511428Y-79013485D01*
X130511428Y-79013485D02*
X130549523Y-79089676D01*
X130549523Y-79089676D02*
X130549523Y-79165866D01*
X130549523Y-79165866D02*
X130511428Y-79280152D01*
X130511428Y-79280152D02*
X130054285Y-79737295D01*
X130054285Y-79737295D02*
X130549523Y-79737295D01*
X118624285Y-93887704D02*
X118890952Y-94268657D01*
X119081428Y-93887704D02*
X119081428Y-94687704D01*
X119081428Y-94687704D02*
X118776666Y-94687704D01*
X118776666Y-94687704D02*
X118700476Y-94649609D01*
X118700476Y-94649609D02*
X118662381Y-94611514D01*
X118662381Y-94611514D02*
X118624285Y-94535323D01*
X118624285Y-94535323D02*
X118624285Y-94421038D01*
X118624285Y-94421038D02*
X118662381Y-94344847D01*
X118662381Y-94344847D02*
X118700476Y-94306752D01*
X118700476Y-94306752D02*
X118776666Y-94268657D01*
X118776666Y-94268657D02*
X119081428Y-94268657D01*
X117862381Y-93887704D02*
X118319524Y-93887704D01*
X118090952Y-93887704D02*
X118090952Y-94687704D01*
X118090952Y-94687704D02*
X118167143Y-94573419D01*
X118167143Y-94573419D02*
X118243333Y-94497228D01*
X118243333Y-94497228D02*
X118319524Y-94459133D01*
X117367142Y-94687704D02*
X117290952Y-94687704D01*
X117290952Y-94687704D02*
X117214761Y-94649609D01*
X117214761Y-94649609D02*
X117176666Y-94611514D01*
X117176666Y-94611514D02*
X117138571Y-94535323D01*
X117138571Y-94535323D02*
X117100476Y-94382942D01*
X117100476Y-94382942D02*
X117100476Y-94192466D01*
X117100476Y-94192466D02*
X117138571Y-94040085D01*
X117138571Y-94040085D02*
X117176666Y-93963895D01*
X117176666Y-93963895D02*
X117214761Y-93925800D01*
X117214761Y-93925800D02*
X117290952Y-93887704D01*
X117290952Y-93887704D02*
X117367142Y-93887704D01*
X117367142Y-93887704D02*
X117443333Y-93925800D01*
X117443333Y-93925800D02*
X117481428Y-93963895D01*
X117481428Y-93963895D02*
X117519523Y-94040085D01*
X117519523Y-94040085D02*
X117557619Y-94192466D01*
X117557619Y-94192466D02*
X117557619Y-94382942D01*
X117557619Y-94382942D02*
X117519523Y-94535323D01*
X117519523Y-94535323D02*
X117481428Y-94611514D01*
X117481428Y-94611514D02*
X117443333Y-94649609D01*
X117443333Y-94649609D02*
X117367142Y-94687704D01*
X130838657Y-89154048D02*
X130457704Y-89154048D01*
X131257704Y-88887381D02*
X130838657Y-89154048D01*
X130838657Y-89154048D02*
X131257704Y-89420714D01*
X130457704Y-90106428D02*
X130457704Y-89649285D01*
X130457704Y-89877857D02*
X131257704Y-89877857D01*
X131257704Y-89877857D02*
X131143419Y-89801666D01*
X131143419Y-89801666D02*
X131067228Y-89725476D01*
X131067228Y-89725476D02*
X131029133Y-89649285D01*
X129317295Y-106069285D02*
X128936342Y-106335952D01*
X129317295Y-106526428D02*
X128517295Y-106526428D01*
X128517295Y-106526428D02*
X128517295Y-106221666D01*
X128517295Y-106221666D02*
X128555390Y-106145476D01*
X128555390Y-106145476D02*
X128593485Y-106107381D01*
X128593485Y-106107381D02*
X128669676Y-106069285D01*
X128669676Y-106069285D02*
X128783961Y-106069285D01*
X128783961Y-106069285D02*
X128860152Y-106107381D01*
X128860152Y-106107381D02*
X128898247Y-106145476D01*
X128898247Y-106145476D02*
X128936342Y-106221666D01*
X128936342Y-106221666D02*
X128936342Y-106526428D01*
X129317295Y-105307381D02*
X129317295Y-105764524D01*
X129317295Y-105535952D02*
X128517295Y-105535952D01*
X128517295Y-105535952D02*
X128631580Y-105612143D01*
X128631580Y-105612143D02*
X128707771Y-105688333D01*
X128707771Y-105688333D02*
X128745866Y-105764524D01*
X128517295Y-104583571D02*
X128517295Y-104964523D01*
X128517295Y-104964523D02*
X128898247Y-105002619D01*
X128898247Y-105002619D02*
X128860152Y-104964523D01*
X128860152Y-104964523D02*
X128822057Y-104888333D01*
X128822057Y-104888333D02*
X128822057Y-104697857D01*
X128822057Y-104697857D02*
X128860152Y-104621666D01*
X128860152Y-104621666D02*
X128898247Y-104583571D01*
X128898247Y-104583571D02*
X128974438Y-104545476D01*
X128974438Y-104545476D02*
X129164914Y-104545476D01*
X129164914Y-104545476D02*
X129241104Y-104583571D01*
X129241104Y-104583571D02*
X129279200Y-104621666D01*
X129279200Y-104621666D02*
X129317295Y-104697857D01*
X129317295Y-104697857D02*
X129317295Y-104888333D01*
X129317295Y-104888333D02*
X129279200Y-104964523D01*
X129279200Y-104964523D02*
X129241104Y-105002619D01*
X129025714Y-81007295D02*
X128759047Y-80626342D01*
X128568571Y-81007295D02*
X128568571Y-80207295D01*
X128568571Y-80207295D02*
X128873333Y-80207295D01*
X128873333Y-80207295D02*
X128949523Y-80245390D01*
X128949523Y-80245390D02*
X128987618Y-80283485D01*
X128987618Y-80283485D02*
X129025714Y-80359676D01*
X129025714Y-80359676D02*
X129025714Y-80473961D01*
X129025714Y-80473961D02*
X128987618Y-80550152D01*
X128987618Y-80550152D02*
X128949523Y-80588247D01*
X128949523Y-80588247D02*
X128873333Y-80626342D01*
X128873333Y-80626342D02*
X128568571Y-80626342D01*
X129787618Y-81007295D02*
X129330475Y-81007295D01*
X129559047Y-81007295D02*
X129559047Y-80207295D01*
X129559047Y-80207295D02*
X129482856Y-80321580D01*
X129482856Y-80321580D02*
X129406666Y-80397771D01*
X129406666Y-80397771D02*
X129330475Y-80435866D01*
X130054285Y-80207295D02*
X130549523Y-80207295D01*
X130549523Y-80207295D02*
X130282857Y-80512057D01*
X130282857Y-80512057D02*
X130397142Y-80512057D01*
X130397142Y-80512057D02*
X130473333Y-80550152D01*
X130473333Y-80550152D02*
X130511428Y-80588247D01*
X130511428Y-80588247D02*
X130549523Y-80664438D01*
X130549523Y-80664438D02*
X130549523Y-80854914D01*
X130549523Y-80854914D02*
X130511428Y-80931104D01*
X130511428Y-80931104D02*
X130473333Y-80969200D01*
X130473333Y-80969200D02*
X130397142Y-81007295D01*
X130397142Y-81007295D02*
X130168571Y-81007295D01*
X130168571Y-81007295D02*
X130092380Y-80969200D01*
X130092380Y-80969200D02*
X130054285Y-80931104D01*
X112122295Y-93478332D02*
X111741342Y-93744999D01*
X112122295Y-93935475D02*
X111322295Y-93935475D01*
X111322295Y-93935475D02*
X111322295Y-93630713D01*
X111322295Y-93630713D02*
X111360390Y-93554523D01*
X111360390Y-93554523D02*
X111398485Y-93516428D01*
X111398485Y-93516428D02*
X111474676Y-93478332D01*
X111474676Y-93478332D02*
X111588961Y-93478332D01*
X111588961Y-93478332D02*
X111665152Y-93516428D01*
X111665152Y-93516428D02*
X111703247Y-93554523D01*
X111703247Y-93554523D02*
X111741342Y-93630713D01*
X111741342Y-93630713D02*
X111741342Y-93935475D01*
X111322295Y-93211666D02*
X111322295Y-92716428D01*
X111322295Y-92716428D02*
X111627057Y-92983094D01*
X111627057Y-92983094D02*
X111627057Y-92868809D01*
X111627057Y-92868809D02*
X111665152Y-92792618D01*
X111665152Y-92792618D02*
X111703247Y-92754523D01*
X111703247Y-92754523D02*
X111779438Y-92716428D01*
X111779438Y-92716428D02*
X111969914Y-92716428D01*
X111969914Y-92716428D02*
X112046104Y-92754523D01*
X112046104Y-92754523D02*
X112084200Y-92792618D01*
X112084200Y-92792618D02*
X112122295Y-92868809D01*
X112122295Y-92868809D02*
X112122295Y-93097380D01*
X112122295Y-93097380D02*
X112084200Y-93173571D01*
X112084200Y-93173571D02*
X112046104Y-93211666D01*
X103167295Y-89166666D02*
X103738723Y-89166666D01*
X103738723Y-89166666D02*
X103853009Y-89204761D01*
X103853009Y-89204761D02*
X103929200Y-89280952D01*
X103929200Y-89280952D02*
X103967295Y-89395237D01*
X103967295Y-89395237D02*
X103967295Y-89471428D01*
X103967295Y-88366666D02*
X103967295Y-88823809D01*
X103967295Y-88595237D02*
X103167295Y-88595237D01*
X103167295Y-88595237D02*
X103281580Y-88671428D01*
X103281580Y-88671428D02*
X103357771Y-88747618D01*
X103357771Y-88747618D02*
X103395866Y-88823809D01*
X123945714Y-77121104D02*
X123907618Y-77159200D01*
X123907618Y-77159200D02*
X123793333Y-77197295D01*
X123793333Y-77197295D02*
X123717142Y-77197295D01*
X123717142Y-77197295D02*
X123602856Y-77159200D01*
X123602856Y-77159200D02*
X123526666Y-77083009D01*
X123526666Y-77083009D02*
X123488571Y-77006819D01*
X123488571Y-77006819D02*
X123450475Y-76854438D01*
X123450475Y-76854438D02*
X123450475Y-76740152D01*
X123450475Y-76740152D02*
X123488571Y-76587771D01*
X123488571Y-76587771D02*
X123526666Y-76511580D01*
X123526666Y-76511580D02*
X123602856Y-76435390D01*
X123602856Y-76435390D02*
X123717142Y-76397295D01*
X123717142Y-76397295D02*
X123793333Y-76397295D01*
X123793333Y-76397295D02*
X123907618Y-76435390D01*
X123907618Y-76435390D02*
X123945714Y-76473485D01*
X124707618Y-77197295D02*
X124250475Y-77197295D01*
X124479047Y-77197295D02*
X124479047Y-76397295D01*
X124479047Y-76397295D02*
X124402856Y-76511580D01*
X124402856Y-76511580D02*
X124326666Y-76587771D01*
X124326666Y-76587771D02*
X124250475Y-76625866D01*
X125202857Y-76397295D02*
X125279047Y-76397295D01*
X125279047Y-76397295D02*
X125355238Y-76435390D01*
X125355238Y-76435390D02*
X125393333Y-76473485D01*
X125393333Y-76473485D02*
X125431428Y-76549676D01*
X125431428Y-76549676D02*
X125469523Y-76702057D01*
X125469523Y-76702057D02*
X125469523Y-76892533D01*
X125469523Y-76892533D02*
X125431428Y-77044914D01*
X125431428Y-77044914D02*
X125393333Y-77121104D01*
X125393333Y-77121104D02*
X125355238Y-77159200D01*
X125355238Y-77159200D02*
X125279047Y-77197295D01*
X125279047Y-77197295D02*
X125202857Y-77197295D01*
X125202857Y-77197295D02*
X125126666Y-77159200D01*
X125126666Y-77159200D02*
X125088571Y-77121104D01*
X125088571Y-77121104D02*
X125050476Y-77044914D01*
X125050476Y-77044914D02*
X125012380Y-76892533D01*
X125012380Y-76892533D02*
X125012380Y-76702057D01*
X125012380Y-76702057D02*
X125050476Y-76549676D01*
X125050476Y-76549676D02*
X125088571Y-76473485D01*
X125088571Y-76473485D02*
X125126666Y-76435390D01*
X125126666Y-76435390D02*
X125202857Y-76397295D01*
X112122295Y-85223332D02*
X111741342Y-85489999D01*
X112122295Y-85680475D02*
X111322295Y-85680475D01*
X111322295Y-85680475D02*
X111322295Y-85375713D01*
X111322295Y-85375713D02*
X111360390Y-85299523D01*
X111360390Y-85299523D02*
X111398485Y-85261428D01*
X111398485Y-85261428D02*
X111474676Y-85223332D01*
X111474676Y-85223332D02*
X111588961Y-85223332D01*
X111588961Y-85223332D02*
X111665152Y-85261428D01*
X111665152Y-85261428D02*
X111703247Y-85299523D01*
X111703247Y-85299523D02*
X111741342Y-85375713D01*
X111741342Y-85375713D02*
X111741342Y-85680475D01*
X111588961Y-84537618D02*
X112122295Y-84537618D01*
X111284200Y-84728094D02*
X111855628Y-84918571D01*
X111855628Y-84918571D02*
X111855628Y-84423332D01*
X109245476Y-73857295D02*
X109245476Y-74504914D01*
X109245476Y-74504914D02*
X109283571Y-74581104D01*
X109283571Y-74581104D02*
X109321666Y-74619200D01*
X109321666Y-74619200D02*
X109397857Y-74657295D01*
X109397857Y-74657295D02*
X109550238Y-74657295D01*
X109550238Y-74657295D02*
X109626428Y-74619200D01*
X109626428Y-74619200D02*
X109664523Y-74581104D01*
X109664523Y-74581104D02*
X109702619Y-74504914D01*
X109702619Y-74504914D02*
X109702619Y-73857295D01*
X110007380Y-73857295D02*
X110502618Y-73857295D01*
X110502618Y-73857295D02*
X110235952Y-74162057D01*
X110235952Y-74162057D02*
X110350237Y-74162057D01*
X110350237Y-74162057D02*
X110426428Y-74200152D01*
X110426428Y-74200152D02*
X110464523Y-74238247D01*
X110464523Y-74238247D02*
X110502618Y-74314438D01*
X110502618Y-74314438D02*
X110502618Y-74504914D01*
X110502618Y-74504914D02*
X110464523Y-74581104D01*
X110464523Y-74581104D02*
X110426428Y-74619200D01*
X110426428Y-74619200D02*
X110350237Y-74657295D01*
X110350237Y-74657295D02*
X110121666Y-74657295D01*
X110121666Y-74657295D02*
X110045475Y-74619200D01*
X110045475Y-74619200D02*
X110007380Y-74581104D01*
D11*
G04 #@! TO.C,C4*
X108846252Y-78640000D02*
X108323748Y-78640000D01*
X108846252Y-80110000D02*
X108323748Y-80110000D01*
G04 #@! TO.C,C5*
X121658748Y-74195000D02*
X122181252Y-74195000D01*
X121658748Y-75665000D02*
X122181252Y-75665000D01*
G04 #@! TO.C,R5*
X112650000Y-91286359D02*
X112650000Y-91593641D01*
X113410000Y-91286359D02*
X113410000Y-91593641D01*
G04 #@! TO.C,C6*
X127527164Y-94255000D02*
X127742836Y-94255000D01*
X127527164Y-94975000D02*
X127742836Y-94975000D01*
G04 #@! TO.C,C7*
X127527164Y-81555000D02*
X127742836Y-81555000D01*
X127527164Y-82275000D02*
X127742836Y-82275000D01*
G04 #@! TO.C,C8*
X116312836Y-84095000D02*
X116097164Y-84095000D01*
X116312836Y-84815000D02*
X116097164Y-84815000D01*
G04 #@! TO.C,C9*
X123142836Y-99970000D02*
X122927164Y-99970000D01*
X123142836Y-100690000D02*
X122927164Y-100690000D01*
G04 #@! TO.C,J2*
X133210000Y-78630000D02*
X142380000Y-78630000D01*
X133210000Y-82810000D02*
X131710000Y-82810000D01*
X133210000Y-82810000D02*
X133210000Y-78630000D01*
X133210000Y-94990000D02*
X133210000Y-99170000D01*
X133210000Y-99170000D02*
X142380000Y-99170000D01*
X142380000Y-78630000D02*
X142380000Y-82810000D01*
X142380000Y-99170000D02*
X142380000Y-94990000D01*
G04 #@! TO.C,C2*
X127527164Y-92985000D02*
X127742836Y-92985000D01*
X127527164Y-93705000D02*
X127742836Y-93705000D01*
G04 #@! TO.C,C3*
X127527164Y-85365000D02*
X127742836Y-85365000D01*
X127527164Y-86085000D02*
X127742836Y-86085000D01*
G04 #@! TO.C,D2*
X131980000Y-102020000D02*
X131980000Y-104305000D01*
X133450000Y-102020000D02*
X131980000Y-102020000D01*
X133450000Y-104305000D02*
X133450000Y-102020000D01*
G04 #@! TO.C,D3*
X130075000Y-102705000D02*
X130075000Y-104990000D01*
X130075000Y-104990000D02*
X131545000Y-104990000D01*
X131545000Y-104990000D02*
X131545000Y-102705000D01*
G04 #@! TO.C,R14*
X134240000Y-103658641D02*
X134240000Y-103351359D01*
X135000000Y-103658641D02*
X135000000Y-103351359D01*
G04 #@! TO.C,TP3*
X112965000Y-102805000D02*
X114365000Y-102805000D01*
X112965000Y-104205000D02*
X112965000Y-102805000D01*
X114365000Y-102805000D02*
X114365000Y-104205000D01*
X114365000Y-104205000D02*
X112965000Y-104205000D01*
G04 #@! TO.C,D1*
X110310000Y-80915000D02*
X106300000Y-80915000D01*
X110310000Y-82915000D02*
X106300000Y-82915000D01*
X110310000Y-82915000D02*
X110310000Y-80915000D01*
G04 #@! TO.C,U1*
X117040000Y-85290000D02*
X117040000Y-85740000D01*
X117040000Y-92510000D02*
X117040000Y-92060000D01*
X117490000Y-85290000D02*
X117040000Y-85290000D01*
X117490000Y-92510000D02*
X117040000Y-92510000D01*
X123810000Y-85290000D02*
X124260000Y-85290000D01*
X123810000Y-92510000D02*
X124260000Y-92510000D01*
X124260000Y-85290000D02*
X124260000Y-85740000D01*
X124260000Y-92510000D02*
X124260000Y-92060000D01*
X125190000Y-92530000D02*
X124510000Y-92530000D01*
X124850000Y-92060000D01*
X125190000Y-92530000D01*
G36*
X125190000Y-92530000D02*
G01*
X124510000Y-92530000D01*
X124850000Y-92060000D01*
X125190000Y-92530000D01*
G37*
G04 #@! TO.C,C1*
X127527164Y-82825000D02*
X127742836Y-82825000D01*
X127527164Y-83545000D02*
X127742836Y-83545000D01*
G04 #@! TO.C,R1*
X127481359Y-84075000D02*
X127788641Y-84075000D01*
X127481359Y-84835000D02*
X127788641Y-84835000D01*
G04 #@! TO.C,R2*
X127788641Y-98045000D02*
X127481359Y-98045000D01*
X127788641Y-98805000D02*
X127481359Y-98805000D01*
G04 #@! TO.C,R11*
X116358641Y-82805000D02*
X116051359Y-82805000D01*
X116358641Y-83565000D02*
X116051359Y-83565000D01*
G04 #@! TO.C,Q1*
X110835000Y-95885000D02*
X110835000Y-95235000D01*
X110835000Y-95885000D02*
X110835000Y-96535000D01*
X113955000Y-95885000D02*
X113955000Y-95235000D01*
X113955000Y-95885000D02*
X113955000Y-96535000D01*
X114235000Y-94962500D02*
X113905000Y-94722500D01*
X114235000Y-94482500D01*
X114235000Y-94962500D01*
G36*
X114235000Y-94962500D02*
G01*
X113905000Y-94722500D01*
X114235000Y-94482500D01*
X114235000Y-94962500D01*
G37*
G04 #@! TO.C,R8*
X115723641Y-96140000D02*
X115416359Y-96140000D01*
X115723641Y-96900000D02*
X115416359Y-96900000D01*
G04 #@! TO.C,R9*
X115416359Y-94870000D02*
X115723641Y-94870000D01*
X115416359Y-95630000D02*
X115723641Y-95630000D01*
G04 #@! TO.C,TP1*
X115505000Y-102805000D02*
X116905000Y-102805000D01*
X115505000Y-104205000D02*
X115505000Y-102805000D01*
X116905000Y-102805000D02*
X116905000Y-104205000D01*
X116905000Y-104205000D02*
X115505000Y-104205000D01*
G04 #@! TO.C,TP4*
X118045000Y-102805000D02*
X119445000Y-102805000D01*
X118045000Y-104205000D02*
X118045000Y-102805000D01*
X119445000Y-102805000D02*
X119445000Y-104205000D01*
X119445000Y-104205000D02*
X118045000Y-104205000D01*
G04 #@! TO.C,TP5*
X107885000Y-102805000D02*
X109285000Y-102805000D01*
X107885000Y-104205000D02*
X107885000Y-102805000D01*
X109285000Y-102805000D02*
X109285000Y-104205000D01*
X109285000Y-104205000D02*
X107885000Y-104205000D01*
G04 #@! TO.C,R6*
X127788641Y-96775000D02*
X127481359Y-96775000D01*
X127788641Y-97535000D02*
X127481359Y-97535000D01*
G04 #@! TO.C,R7*
X127788641Y-95505000D02*
X127481359Y-95505000D01*
X127788641Y-96265000D02*
X127481359Y-96265000D01*
G04 #@! TO.C,R12*
X127481359Y-78995000D02*
X127788641Y-78995000D01*
X127481359Y-79755000D02*
X127788641Y-79755000D01*
G04 #@! TO.C,TP2*
X110425000Y-102805000D02*
X111825000Y-102805000D01*
X110425000Y-104205000D02*
X110425000Y-102805000D01*
X111825000Y-102805000D02*
X111825000Y-104205000D01*
X111825000Y-104205000D02*
X110425000Y-104205000D01*
G04 #@! TO.C,R10*
X118263641Y-94870000D02*
X117956359Y-94870000D01*
X118263641Y-95630000D02*
X117956359Y-95630000D01*
G04 #@! TO.C,Y1*
X126470000Y-86835000D02*
X126470000Y-92585000D01*
X126470000Y-92585000D02*
X130070000Y-92585000D01*
X130070000Y-92585000D02*
X130070000Y-86835000D01*
G04 #@! TO.C,R15*
X128525000Y-103351359D02*
X128525000Y-103658641D01*
X129285000Y-103351359D02*
X129285000Y-103658641D01*
G04 #@! TO.C,JP1*
X126885000Y-75835000D02*
X130985000Y-75835000D01*
X126885000Y-77835000D02*
X126885000Y-75835000D01*
X127335000Y-78335000D02*
X127935000Y-78335000D01*
X127635000Y-78035000D02*
X127335000Y-78335000D01*
X127635000Y-78035000D02*
X127935000Y-78335000D01*
X130985000Y-75835000D02*
X130985000Y-77835000D01*
X130985000Y-77835000D02*
X126885000Y-77835000D01*
G04 #@! TO.C,R13*
X127788641Y-80265000D02*
X127481359Y-80265000D01*
X127788641Y-81025000D02*
X127481359Y-81025000D01*
G04 #@! TO.C,R3*
X111380000Y-91593641D02*
X111380000Y-91286359D01*
X112140000Y-91593641D02*
X112140000Y-91286359D01*
G04 #@! TO.C,J1*
X101510000Y-84200000D02*
X101510000Y-93600000D01*
X103410000Y-84200000D02*
X101510000Y-84200000D01*
X103410000Y-93600000D02*
X101510000Y-93600000D01*
X107310000Y-84200000D02*
X105310000Y-84200000D01*
X107310000Y-93600000D02*
X105310000Y-93600000D01*
G04 #@! TO.C,C10*
X121812164Y-76475000D02*
X122027836Y-76475000D01*
X121812164Y-77195000D02*
X122027836Y-77195000D01*
G04 #@! TO.C,R4*
X111380000Y-86841359D02*
X111380000Y-87148641D01*
X112140000Y-86841359D02*
X112140000Y-87148641D01*
G04 #@! TO.C,U3*
X113720000Y-74060000D02*
X117480000Y-74060000D01*
X113720000Y-80880000D02*
X117480000Y-80880000D01*
X117480000Y-74060000D02*
X117480000Y-75320000D01*
X117480000Y-80880000D02*
X117480000Y-79620000D01*
X112440000Y-74160000D02*
X112200000Y-73830000D01*
X112680000Y-73830000D01*
X112440000Y-74160000D01*
G36*
X112440000Y-74160000D02*
G01*
X112200000Y-73830000D01*
X112680000Y-73830000D01*
X112440000Y-74160000D01*
G37*
G04 #@! TD*
M02*
