G04 #@! TF.GenerationSoftware,KiCad,Pcbnew,9.0.2+dfsg-1*
G04 #@! TF.CreationDate,2025-08-10T10:43:45+08:00*
G04 #@! TF.ProjectId,stlink,73746c69-6e6b-42e6-9b69-6361645f7063,a*
G04 #@! TF.SameCoordinates,Original*
G04 #@! TF.FileFunction,Legend,Bot*
G04 #@! TF.FilePolarity,Positive*
%FSLAX46Y46*%
G04 Gerber Fmt 4.6, Leading zero omitted, Abs format (unit mm)*
G04 Created by KiCad (PCBNEW 9.0.2+dfsg-1) date 2025-08-10 10:43:45*
%MOMM*%
%LPD*%
G01*
G04 APERTURE LIST*
%ADD10C,0.120000*%
%ADD11C,0.150000*%
G04 APERTURE END LIST*
D10*
X129540000Y-92075000D02*
X139700000Y-92075000D01*
X139700000Y-102235000D01*
X129540000Y-102235000D01*
X129540000Y-92075000D01*
G36*
X129540000Y-92075000D02*
G01*
X139700000Y-92075000D01*
X139700000Y-102235000D01*
X129540000Y-102235000D01*
X129540000Y-92075000D01*
G37*
D11*
X140045839Y-74532228D02*
X139902982Y-74579847D01*
X139902982Y-74579847D02*
X139664887Y-74579847D01*
X139664887Y-74579847D02*
X139569649Y-74532228D01*
X139569649Y-74532228D02*
X139522030Y-74484608D01*
X139522030Y-74484608D02*
X139474411Y-74389370D01*
X139474411Y-74389370D02*
X139474411Y-74294132D01*
X139474411Y-74294132D02*
X139522030Y-74198894D01*
X139522030Y-74198894D02*
X139569649Y-74151275D01*
X139569649Y-74151275D02*
X139664887Y-74103656D01*
X139664887Y-74103656D02*
X139855363Y-74056037D01*
X139855363Y-74056037D02*
X139950601Y-74008418D01*
X139950601Y-74008418D02*
X139998220Y-73960799D01*
X139998220Y-73960799D02*
X140045839Y-73865561D01*
X140045839Y-73865561D02*
X140045839Y-73770323D01*
X140045839Y-73770323D02*
X139998220Y-73675085D01*
X139998220Y-73675085D02*
X139950601Y-73627466D01*
X139950601Y-73627466D02*
X139855363Y-73579847D01*
X139855363Y-73579847D02*
X139617268Y-73579847D01*
X139617268Y-73579847D02*
X139474411Y-73627466D01*
X139188696Y-73579847D02*
X138617268Y-73579847D01*
X138902982Y-74579847D02*
X138902982Y-73579847D01*
X138283934Y-74579847D02*
X138283934Y-73579847D01*
X138283934Y-73579847D02*
X137950601Y-74294132D01*
X137950601Y-74294132D02*
X137617268Y-73579847D01*
X137617268Y-73579847D02*
X137617268Y-74579847D01*
X137236315Y-73579847D02*
X136617268Y-73579847D01*
X136617268Y-73579847D02*
X136950601Y-73960799D01*
X136950601Y-73960799D02*
X136807744Y-73960799D01*
X136807744Y-73960799D02*
X136712506Y-74008418D01*
X136712506Y-74008418D02*
X136664887Y-74056037D01*
X136664887Y-74056037D02*
X136617268Y-74151275D01*
X136617268Y-74151275D02*
X136617268Y-74389370D01*
X136617268Y-74389370D02*
X136664887Y-74484608D01*
X136664887Y-74484608D02*
X136712506Y-74532228D01*
X136712506Y-74532228D02*
X136807744Y-74579847D01*
X136807744Y-74579847D02*
X137093458Y-74579847D01*
X137093458Y-74579847D02*
X137188696Y-74532228D01*
X137188696Y-74532228D02*
X137236315Y-74484608D01*
X136236315Y-73675085D02*
X136188696Y-73627466D01*
X136188696Y-73627466D02*
X136093458Y-73579847D01*
X136093458Y-73579847D02*
X135855363Y-73579847D01*
X135855363Y-73579847D02*
X135760125Y-73627466D01*
X135760125Y-73627466D02*
X135712506Y-73675085D01*
X135712506Y-73675085D02*
X135664887Y-73770323D01*
X135664887Y-73770323D02*
X135664887Y-73865561D01*
X135664887Y-73865561D02*
X135712506Y-74008418D01*
X135712506Y-74008418D02*
X136283934Y-74579847D01*
X136283934Y-74579847D02*
X135664887Y-74579847D01*
X134474410Y-74579847D02*
X134474410Y-73579847D01*
X134474410Y-73579847D02*
X134093458Y-73579847D01*
X134093458Y-73579847D02*
X133998220Y-73627466D01*
X133998220Y-73627466D02*
X133950601Y-73675085D01*
X133950601Y-73675085D02*
X133902982Y-73770323D01*
X133902982Y-73770323D02*
X133902982Y-73913180D01*
X133902982Y-73913180D02*
X133950601Y-74008418D01*
X133950601Y-74008418D02*
X133998220Y-74056037D01*
X133998220Y-74056037D02*
X134093458Y-74103656D01*
X134093458Y-74103656D02*
X134474410Y-74103656D01*
X133474410Y-74579847D02*
X133474410Y-73913180D01*
X133474410Y-74103656D02*
X133426791Y-74008418D01*
X133426791Y-74008418D02*
X133379172Y-73960799D01*
X133379172Y-73960799D02*
X133283934Y-73913180D01*
X133283934Y-73913180D02*
X133188696Y-73913180D01*
X132712505Y-74579847D02*
X132807743Y-74532228D01*
X132807743Y-74532228D02*
X132855362Y-74484608D01*
X132855362Y-74484608D02*
X132902981Y-74389370D01*
X132902981Y-74389370D02*
X132902981Y-74103656D01*
X132902981Y-74103656D02*
X132855362Y-74008418D01*
X132855362Y-74008418D02*
X132807743Y-73960799D01*
X132807743Y-73960799D02*
X132712505Y-73913180D01*
X132712505Y-73913180D02*
X132569648Y-73913180D01*
X132569648Y-73913180D02*
X132474410Y-73960799D01*
X132474410Y-73960799D02*
X132426791Y-74008418D01*
X132426791Y-74008418D02*
X132379172Y-74103656D01*
X132379172Y-74103656D02*
X132379172Y-74389370D01*
X132379172Y-74389370D02*
X132426791Y-74484608D01*
X132426791Y-74484608D02*
X132474410Y-74532228D01*
X132474410Y-74532228D02*
X132569648Y-74579847D01*
X132569648Y-74579847D02*
X132712505Y-74579847D01*
X131522029Y-73913180D02*
X131522029Y-74722704D01*
X131522029Y-74722704D02*
X131569648Y-74817942D01*
X131569648Y-74817942D02*
X131617267Y-74865561D01*
X131617267Y-74865561D02*
X131712505Y-74913180D01*
X131712505Y-74913180D02*
X131855362Y-74913180D01*
X131855362Y-74913180D02*
X131950600Y-74865561D01*
X131522029Y-74532228D02*
X131617267Y-74579847D01*
X131617267Y-74579847D02*
X131807743Y-74579847D01*
X131807743Y-74579847D02*
X131902981Y-74532228D01*
X131902981Y-74532228D02*
X131950600Y-74484608D01*
X131950600Y-74484608D02*
X131998219Y-74389370D01*
X131998219Y-74389370D02*
X131998219Y-74103656D01*
X131998219Y-74103656D02*
X131950600Y-74008418D01*
X131950600Y-74008418D02*
X131902981Y-73960799D01*
X131902981Y-73960799D02*
X131807743Y-73913180D01*
X131807743Y-73913180D02*
X131617267Y-73913180D01*
X131617267Y-73913180D02*
X131522029Y-73960799D01*
X131045838Y-74579847D02*
X131045838Y-73913180D01*
X131045838Y-74103656D02*
X130998219Y-74008418D01*
X130998219Y-74008418D02*
X130950600Y-73960799D01*
X130950600Y-73960799D02*
X130855362Y-73913180D01*
X130855362Y-73913180D02*
X130760124Y-73913180D01*
X129998219Y-74579847D02*
X129998219Y-74056037D01*
X129998219Y-74056037D02*
X130045838Y-73960799D01*
X130045838Y-73960799D02*
X130141076Y-73913180D01*
X130141076Y-73913180D02*
X130331552Y-73913180D01*
X130331552Y-73913180D02*
X130426790Y-73960799D01*
X129998219Y-74532228D02*
X130093457Y-74579847D01*
X130093457Y-74579847D02*
X130331552Y-74579847D01*
X130331552Y-74579847D02*
X130426790Y-74532228D01*
X130426790Y-74532228D02*
X130474409Y-74436989D01*
X130474409Y-74436989D02*
X130474409Y-74341751D01*
X130474409Y-74341751D02*
X130426790Y-74246513D01*
X130426790Y-74246513D02*
X130331552Y-74198894D01*
X130331552Y-74198894D02*
X130093457Y-74198894D01*
X130093457Y-74198894D02*
X129998219Y-74151275D01*
X129522028Y-74579847D02*
X129522028Y-73913180D01*
X129522028Y-74008418D02*
X129474409Y-73960799D01*
X129474409Y-73960799D02*
X129379171Y-73913180D01*
X129379171Y-73913180D02*
X129236314Y-73913180D01*
X129236314Y-73913180D02*
X129141076Y-73960799D01*
X129141076Y-73960799D02*
X129093457Y-74056037D01*
X129093457Y-74056037D02*
X129093457Y-74579847D01*
X129093457Y-74056037D02*
X129045838Y-73960799D01*
X129045838Y-73960799D02*
X128950600Y-73913180D01*
X128950600Y-73913180D02*
X128807743Y-73913180D01*
X128807743Y-73913180D02*
X128712504Y-73960799D01*
X128712504Y-73960799D02*
X128664885Y-74056037D01*
X128664885Y-74056037D02*
X128664885Y-74579847D01*
X128188695Y-74579847D02*
X128188695Y-73913180D01*
X128188695Y-74008418D02*
X128141076Y-73960799D01*
X128141076Y-73960799D02*
X128045838Y-73913180D01*
X128045838Y-73913180D02*
X127902981Y-73913180D01*
X127902981Y-73913180D02*
X127807743Y-73960799D01*
X127807743Y-73960799D02*
X127760124Y-74056037D01*
X127760124Y-74056037D02*
X127760124Y-74579847D01*
X127760124Y-74056037D02*
X127712505Y-73960799D01*
X127712505Y-73960799D02*
X127617267Y-73913180D01*
X127617267Y-73913180D02*
X127474410Y-73913180D01*
X127474410Y-73913180D02*
X127379171Y-73960799D01*
X127379171Y-73960799D02*
X127331552Y-74056037D01*
X127331552Y-74056037D02*
X127331552Y-74579847D01*
X126474410Y-74532228D02*
X126569648Y-74579847D01*
X126569648Y-74579847D02*
X126760124Y-74579847D01*
X126760124Y-74579847D02*
X126855362Y-74532228D01*
X126855362Y-74532228D02*
X126902981Y-74436989D01*
X126902981Y-74436989D02*
X126902981Y-74056037D01*
X126902981Y-74056037D02*
X126855362Y-73960799D01*
X126855362Y-73960799D02*
X126760124Y-73913180D01*
X126760124Y-73913180D02*
X126569648Y-73913180D01*
X126569648Y-73913180D02*
X126474410Y-73960799D01*
X126474410Y-73960799D02*
X126426791Y-74056037D01*
X126426791Y-74056037D02*
X126426791Y-74151275D01*
X126426791Y-74151275D02*
X126902981Y-74246513D01*
X125998219Y-74579847D02*
X125998219Y-73913180D01*
X125998219Y-74103656D02*
X125950600Y-74008418D01*
X125950600Y-74008418D02*
X125902981Y-73960799D01*
X125902981Y-73960799D02*
X125807743Y-73913180D01*
X125807743Y-73913180D02*
X125712505Y-73913180D01*
X124664885Y-73675085D02*
X124617266Y-73627466D01*
X124617266Y-73627466D02*
X124522028Y-73579847D01*
X124522028Y-73579847D02*
X124283933Y-73579847D01*
X124283933Y-73579847D02*
X124188695Y-73627466D01*
X124188695Y-73627466D02*
X124141076Y-73675085D01*
X124141076Y-73675085D02*
X124093457Y-73770323D01*
X124093457Y-73770323D02*
X124093457Y-73865561D01*
X124093457Y-73865561D02*
X124141076Y-74008418D01*
X124141076Y-74008418D02*
X124712504Y-74579847D01*
X124712504Y-74579847D02*
X124093457Y-74579847D01*
X139998220Y-76189791D02*
X139998220Y-75523124D01*
X139998220Y-75713600D02*
X139950601Y-75618362D01*
X139950601Y-75618362D02*
X139902982Y-75570743D01*
X139902982Y-75570743D02*
X139807744Y-75523124D01*
X139807744Y-75523124D02*
X139712506Y-75523124D01*
X138998220Y-76142172D02*
X139093458Y-76189791D01*
X139093458Y-76189791D02*
X139283934Y-76189791D01*
X139283934Y-76189791D02*
X139379172Y-76142172D01*
X139379172Y-76142172D02*
X139426791Y-76046933D01*
X139426791Y-76046933D02*
X139426791Y-75665981D01*
X139426791Y-75665981D02*
X139379172Y-75570743D01*
X139379172Y-75570743D02*
X139283934Y-75523124D01*
X139283934Y-75523124D02*
X139093458Y-75523124D01*
X139093458Y-75523124D02*
X138998220Y-75570743D01*
X138998220Y-75570743D02*
X138950601Y-75665981D01*
X138950601Y-75665981D02*
X138950601Y-75761219D01*
X138950601Y-75761219D02*
X139426791Y-75856457D01*
X138617267Y-75523124D02*
X138379172Y-76189791D01*
X138379172Y-76189791D02*
X138141077Y-75523124D01*
X137760124Y-76094552D02*
X137712505Y-76142172D01*
X137712505Y-76142172D02*
X137760124Y-76189791D01*
X137760124Y-76189791D02*
X137807743Y-76142172D01*
X137807743Y-76142172D02*
X137760124Y-76094552D01*
X137760124Y-76094552D02*
X137760124Y-76189791D01*
X136093458Y-76189791D02*
X136093458Y-75665981D01*
X136093458Y-75665981D02*
X136141077Y-75570743D01*
X136141077Y-75570743D02*
X136236315Y-75523124D01*
X136236315Y-75523124D02*
X136426791Y-75523124D01*
X136426791Y-75523124D02*
X136522029Y-75570743D01*
X136093458Y-76142172D02*
X136188696Y-76189791D01*
X136188696Y-76189791D02*
X136426791Y-76189791D01*
X136426791Y-76189791D02*
X136522029Y-76142172D01*
X136522029Y-76142172D02*
X136569648Y-76046933D01*
X136569648Y-76046933D02*
X136569648Y-75951695D01*
X136569648Y-75951695D02*
X136522029Y-75856457D01*
X136522029Y-75856457D02*
X136426791Y-75808838D01*
X136426791Y-75808838D02*
X136188696Y-75808838D01*
X136188696Y-75808838D02*
X136093458Y-75761219D01*
M02*
