M48
; DRILL file {KiCad 6.0.7+dfsg-3} date Tue 18 Oct 2022 14:34:45 +08
; FORMAT={-:-/ absolute / metric / decimal}
; #@! TF.CreationDate,2022-10-18T14:34:45+08:00
; #@! TF.GenerationSoftware,Kicad,Pcbnew,6.0.7+dfsg-3
; #@! TF.FileFunction,NonPlated,1,4,NPTH
FMAT,2
METRIC
; #@! TA.AperFunction,NonPlated,NPTH,ComponentDrill
T1C0.500
%
G90
G05
T1
X19.35Y28.75
X19.35Y27.25
X19.35Y12.75
X19.35Y11.25
X20.15Y29.0
X20.15Y27.0
X20.15Y13.0
X20.15Y11.0
X20.85Y29.0
X20.85Y27.0
X20.85Y13.0
X20.85Y11.0
X21.65Y28.75
X21.65Y27.25
X21.65Y12.75
X21.65Y11.25
X36.85Y28.75
X36.85Y27.25
X36.85Y12.75
X36.85Y11.25
X37.65Y29.0
X37.65Y27.0
X37.65Y13.0
X37.65Y11.0
X38.35Y29.0
X38.35Y27.0
X38.35Y13.0
X38.35Y11.0
X39.15Y28.75
X39.15Y27.25
X39.15Y12.75
X39.15Y11.25
T0
M30
