G04 #@! TF.GenerationSoftware,KiCad,Pcbnew,6.0.7+dfsg-3*
G04 #@! TF.CreationDate,2022-10-18T14:34:48+08:00*
G04 #@! TF.ProjectId,stlink,73746c69-6e6b-42e6-9b69-6361645f7063,f*
G04 #@! TF.SameCoordinates,PX5c07920PY68e7780*
G04 #@! TF.FileFunction,Legend,Bot*
G04 #@! TF.FilePolarity,Positive*
%FSLAX46Y46*%
G04 Gerber Fmt 4.6, Leading zero omitted, Abs format (unit mm)*
G04 Created by KiCad (PCBNEW 6.0.7+dfsg-3) date 2022-10-18 14:34:48*
%MOMM*%
%LPD*%
G01*
G04 APERTURE LIST*
%ADD10C,0.150000*%
%ADD11C,0.120000*%
G04 APERTURE END LIST*
D10*
X21592500Y22262096D02*
X21592500Y23062096D01*
X21287738Y23062096D01*
X21211547Y23024000D01*
X21173452Y22985905D01*
X21135357Y22909715D01*
X21135357Y22795429D01*
X21173452Y22719239D01*
X21211547Y22681143D01*
X21287738Y22643048D01*
X21592500Y22643048D01*
X20868690Y23062096D02*
X20678214Y22262096D01*
X20525833Y22833524D01*
X20373452Y22262096D01*
X20182976Y23062096D01*
X19421071Y22262096D02*
X19687738Y22643048D01*
X19878214Y22262096D02*
X19878214Y23062096D01*
X19573452Y23062096D01*
X19497261Y23024000D01*
X19459166Y22985905D01*
X19421071Y22909715D01*
X19421071Y22795429D01*
X19459166Y22719239D01*
X19497261Y22681143D01*
X19573452Y22643048D01*
X19878214Y22643048D01*
X18506785Y23100191D02*
X19192500Y22071620D01*
X17821071Y23024000D02*
X17897261Y23062096D01*
X18011547Y23062096D01*
X18125833Y23024000D01*
X18202023Y22947810D01*
X18240119Y22871620D01*
X18278214Y22719239D01*
X18278214Y22604953D01*
X18240119Y22452572D01*
X18202023Y22376381D01*
X18125833Y22300191D01*
X18011547Y22262096D01*
X17935357Y22262096D01*
X17821071Y22300191D01*
X17782976Y22338286D01*
X17782976Y22604953D01*
X17935357Y22604953D01*
X17440119Y22262096D02*
X17440119Y23062096D01*
X16982976Y22262096D01*
X16982976Y23062096D01*
X16602023Y22262096D02*
X16602023Y23062096D01*
X16411547Y23062096D01*
X16297261Y23024000D01*
X16221071Y22947810D01*
X16182976Y22871620D01*
X16144880Y22719239D01*
X16144880Y22604953D01*
X16182976Y22452572D01*
X16221071Y22376381D01*
X16297261Y22300191D01*
X16411547Y22262096D01*
X16602023Y22262096D01*
X20449642Y19798286D02*
X20487738Y19760191D01*
X20602023Y19722096D01*
X20678214Y19722096D01*
X20792500Y19760191D01*
X20868690Y19836381D01*
X20906785Y19912572D01*
X20944880Y20064953D01*
X20944880Y20179239D01*
X20906785Y20331620D01*
X20868690Y20407810D01*
X20792500Y20484000D01*
X20678214Y20522096D01*
X20602023Y20522096D01*
X20487738Y20484000D01*
X20449642Y20445905D01*
X19725833Y19722096D02*
X20106785Y19722096D01*
X20106785Y20522096D01*
X19459166Y19722096D02*
X19459166Y20522096D01*
X19002023Y19722096D02*
X19344880Y20179239D01*
X19002023Y20522096D02*
X19459166Y20064953D01*
X18087738Y20560191D02*
X18773452Y19531620D01*
X17821071Y19722096D02*
X17821071Y20522096D01*
X17630595Y20522096D01*
X17516309Y20484000D01*
X17440119Y20407810D01*
X17402023Y20331620D01*
X17363928Y20179239D01*
X17363928Y20064953D01*
X17402023Y19912572D01*
X17440119Y19836381D01*
X17516309Y19760191D01*
X17630595Y19722096D01*
X17821071Y19722096D01*
X17021071Y19722096D02*
X17021071Y20522096D01*
X16487738Y20522096D02*
X16335357Y20522096D01*
X16259166Y20484000D01*
X16182976Y20407810D01*
X16144880Y20255429D01*
X16144880Y19988762D01*
X16182976Y19836381D01*
X16259166Y19760191D01*
X16335357Y19722096D01*
X16487738Y19722096D01*
X16563928Y19760191D01*
X16640119Y19836381D01*
X16678214Y19988762D01*
X16678214Y20255429D01*
X16640119Y20407810D01*
X16563928Y20484000D01*
X16487738Y20522096D01*
X21363928Y17220191D02*
X21249642Y17182096D01*
X21059166Y17182096D01*
X20982976Y17220191D01*
X20944880Y17258286D01*
X20906785Y17334477D01*
X20906785Y17410667D01*
X20944880Y17486858D01*
X20982976Y17524953D01*
X21059166Y17563048D01*
X21211547Y17601143D01*
X21287738Y17639239D01*
X21325833Y17677334D01*
X21363928Y17753524D01*
X21363928Y17829715D01*
X21325833Y17905905D01*
X21287738Y17944000D01*
X21211547Y17982096D01*
X21021071Y17982096D01*
X20906785Y17944000D01*
X20640119Y17982096D02*
X20449642Y17182096D01*
X20297261Y17753524D01*
X20144880Y17182096D01*
X19954404Y17982096D01*
X19497261Y17982096D02*
X19344880Y17982096D01*
X19268690Y17944000D01*
X19192500Y17867810D01*
X19154404Y17715429D01*
X19154404Y17448762D01*
X19192500Y17296381D01*
X19268690Y17220191D01*
X19344880Y17182096D01*
X19497261Y17182096D01*
X19573452Y17220191D01*
X19649642Y17296381D01*
X19687738Y17448762D01*
X19687738Y17715429D01*
X19649642Y17867810D01*
X19573452Y17944000D01*
X19497261Y17982096D01*
X18240119Y18020191D02*
X18925833Y16991620D01*
X17516309Y17182096D02*
X17782976Y17563048D01*
X17973452Y17182096D02*
X17973452Y17982096D01*
X17668690Y17982096D01*
X17592500Y17944000D01*
X17554404Y17905905D01*
X17516309Y17829715D01*
X17516309Y17715429D01*
X17554404Y17639239D01*
X17592500Y17601143D01*
X17668690Y17563048D01*
X17973452Y17563048D01*
X17211547Y17220191D02*
X17097261Y17182096D01*
X16906785Y17182096D01*
X16830595Y17220191D01*
X16792500Y17258286D01*
X16754404Y17334477D01*
X16754404Y17410667D01*
X16792500Y17486858D01*
X16830595Y17524953D01*
X16906785Y17563048D01*
X17059166Y17601143D01*
X17135357Y17639239D01*
X17173452Y17677334D01*
X17211547Y17753524D01*
X17211547Y17829715D01*
X17173452Y17905905D01*
X17135357Y17944000D01*
X17059166Y17982096D01*
X16868690Y17982096D01*
X16754404Y17944000D01*
X16525833Y17982096D02*
X16068690Y17982096D01*
X16297261Y17182096D02*
X16297261Y17982096D01*
X19687738Y15442096D02*
X19230595Y15442096D01*
X19459166Y14642096D02*
X19459166Y15442096D01*
X19040119Y15442096D02*
X18506785Y14642096D01*
X18506785Y15442096D02*
X19040119Y14642096D01*
X17630595Y15480191D02*
X18316309Y14451620D01*
X16906785Y14642096D02*
X17173452Y15023048D01*
X17363928Y14642096D02*
X17363928Y15442096D01*
X17059166Y15442096D01*
X16982976Y15404000D01*
X16944880Y15365905D01*
X16906785Y15289715D01*
X16906785Y15175429D01*
X16944880Y15099239D01*
X16982976Y15061143D01*
X17059166Y15023048D01*
X17363928Y15023048D01*
X16640119Y15442096D02*
X16106785Y14642096D01*
X16106785Y15442096D02*
X16640119Y14642096D01*
X30785714Y24926881D02*
X30823809Y24964977D01*
X30861904Y25079262D01*
X30861904Y25155453D01*
X30823809Y25269739D01*
X30747619Y25345929D01*
X30671428Y25384024D01*
X30519047Y25422120D01*
X30404761Y25422120D01*
X30252380Y25384024D01*
X30176190Y25345929D01*
X30100000Y25269739D01*
X30061904Y25155453D01*
X30061904Y25079262D01*
X30100000Y24964977D01*
X30138095Y24926881D01*
X30861904Y24203072D02*
X30861904Y24584024D01*
X30061904Y24584024D01*
X30861904Y23936405D02*
X30061904Y23936405D01*
X30861904Y23479262D02*
X30404761Y23822120D01*
X30061904Y23479262D02*
X30519047Y23936405D01*
X28410857Y25117358D02*
X28448952Y25003072D01*
X28487047Y24964977D01*
X28563238Y24926881D01*
X28677523Y24926881D01*
X28753714Y24964977D01*
X28791809Y25003072D01*
X28829904Y25079262D01*
X28829904Y25384024D01*
X28029904Y25384024D01*
X28029904Y25117358D01*
X28068000Y25041167D01*
X28106095Y25003072D01*
X28182285Y24964977D01*
X28258476Y24964977D01*
X28334666Y25003072D01*
X28372761Y25041167D01*
X28410857Y25117358D01*
X28410857Y25384024D01*
X28029904Y24431643D02*
X28029904Y24355453D01*
X28068000Y24279262D01*
X28106095Y24241167D01*
X28182285Y24203072D01*
X28334666Y24164977D01*
X28525142Y24164977D01*
X28677523Y24203072D01*
X28753714Y24241167D01*
X28791809Y24279262D01*
X28829904Y24355453D01*
X28829904Y24431643D01*
X28791809Y24507834D01*
X28753714Y24545929D01*
X28677523Y24584024D01*
X28525142Y24622120D01*
X28334666Y24622120D01*
X28182285Y24584024D01*
X28106095Y24545929D01*
X28068000Y24507834D01*
X28029904Y24431643D01*
X26036000Y24964977D02*
X25997904Y25041167D01*
X25997904Y25155453D01*
X26036000Y25269739D01*
X26112190Y25345929D01*
X26188380Y25384024D01*
X26340761Y25422120D01*
X26455047Y25422120D01*
X26607428Y25384024D01*
X26683619Y25345929D01*
X26759809Y25269739D01*
X26797904Y25155453D01*
X26797904Y25079262D01*
X26759809Y24964977D01*
X26721714Y24926881D01*
X26455047Y24926881D01*
X26455047Y25079262D01*
X26797904Y24584024D02*
X25997904Y24584024D01*
X26797904Y24126881D01*
X25997904Y24126881D01*
X26797904Y23745929D02*
X25997904Y23745929D01*
X25997904Y23555453D01*
X26036000Y23441167D01*
X26112190Y23364977D01*
X26188380Y23326881D01*
X26340761Y23288786D01*
X26455047Y23288786D01*
X26607428Y23326881D01*
X26683619Y23364977D01*
X26759809Y23441167D01*
X26797904Y23555453D01*
X26797904Y23745929D01*
X35292023Y20865239D02*
X35149166Y20817620D01*
X34911071Y20817620D01*
X34815833Y20865239D01*
X34768214Y20912858D01*
X34720595Y21008096D01*
X34720595Y21103334D01*
X34768214Y21198572D01*
X34815833Y21246191D01*
X34911071Y21293810D01*
X35101547Y21341429D01*
X35196785Y21389048D01*
X35244404Y21436667D01*
X35292023Y21531905D01*
X35292023Y21627143D01*
X35244404Y21722381D01*
X35196785Y21770000D01*
X35101547Y21817620D01*
X34863452Y21817620D01*
X34720595Y21770000D01*
X34434880Y21817620D02*
X33863452Y21817620D01*
X34149166Y20817620D02*
X34149166Y21817620D01*
X33530119Y20817620D02*
X33530119Y21817620D01*
X33196785Y21103334D01*
X32863452Y21817620D01*
X32863452Y20817620D01*
X32482500Y21817620D02*
X31863452Y21817620D01*
X32196785Y21436667D01*
X32053928Y21436667D01*
X31958690Y21389048D01*
X31911071Y21341429D01*
X31863452Y21246191D01*
X31863452Y21008096D01*
X31911071Y20912858D01*
X31958690Y20865239D01*
X32053928Y20817620D01*
X32339642Y20817620D01*
X32434880Y20865239D01*
X32482500Y20912858D01*
X31482500Y21722381D02*
X31434880Y21770000D01*
X31339642Y21817620D01*
X31101547Y21817620D01*
X31006309Y21770000D01*
X30958690Y21722381D01*
X30911071Y21627143D01*
X30911071Y21531905D01*
X30958690Y21389048D01*
X31530119Y20817620D01*
X30911071Y20817620D01*
X29720595Y20817620D02*
X29720595Y21817620D01*
X29339642Y21817620D01*
X29244404Y21770000D01*
X29196785Y21722381D01*
X29149166Y21627143D01*
X29149166Y21484286D01*
X29196785Y21389048D01*
X29244404Y21341429D01*
X29339642Y21293810D01*
X29720595Y21293810D01*
X28720595Y20817620D02*
X28720595Y21484286D01*
X28720595Y21293810D02*
X28672976Y21389048D01*
X28625357Y21436667D01*
X28530119Y21484286D01*
X28434880Y21484286D01*
X27958690Y20817620D02*
X28053928Y20865239D01*
X28101547Y20912858D01*
X28149166Y21008096D01*
X28149166Y21293810D01*
X28101547Y21389048D01*
X28053928Y21436667D01*
X27958690Y21484286D01*
X27815833Y21484286D01*
X27720595Y21436667D01*
X27672976Y21389048D01*
X27625357Y21293810D01*
X27625357Y21008096D01*
X27672976Y20912858D01*
X27720595Y20865239D01*
X27815833Y20817620D01*
X27958690Y20817620D01*
X26768214Y21484286D02*
X26768214Y20674762D01*
X26815833Y20579524D01*
X26863452Y20531905D01*
X26958690Y20484286D01*
X27101547Y20484286D01*
X27196785Y20531905D01*
X26768214Y20865239D02*
X26863452Y20817620D01*
X27053928Y20817620D01*
X27149166Y20865239D01*
X27196785Y20912858D01*
X27244404Y21008096D01*
X27244404Y21293810D01*
X27196785Y21389048D01*
X27149166Y21436667D01*
X27053928Y21484286D01*
X26863452Y21484286D01*
X26768214Y21436667D01*
X26292023Y20817620D02*
X26292023Y21484286D01*
X26292023Y21293810D02*
X26244404Y21389048D01*
X26196785Y21436667D01*
X26101547Y21484286D01*
X26006309Y21484286D01*
X25244404Y20817620D02*
X25244404Y21341429D01*
X25292023Y21436667D01*
X25387261Y21484286D01*
X25577738Y21484286D01*
X25672976Y21436667D01*
X25244404Y20865239D02*
X25339642Y20817620D01*
X25577738Y20817620D01*
X25672976Y20865239D01*
X25720595Y20960477D01*
X25720595Y21055715D01*
X25672976Y21150953D01*
X25577738Y21198572D01*
X25339642Y21198572D01*
X25244404Y21246191D01*
X24768214Y20817620D02*
X24768214Y21484286D01*
X24768214Y21389048D02*
X24720595Y21436667D01*
X24625357Y21484286D01*
X24482500Y21484286D01*
X24387261Y21436667D01*
X24339642Y21341429D01*
X24339642Y20817620D01*
X24339642Y21341429D02*
X24292023Y21436667D01*
X24196785Y21484286D01*
X24053928Y21484286D01*
X23958690Y21436667D01*
X23911071Y21341429D01*
X23911071Y20817620D01*
X23434880Y20817620D02*
X23434880Y21484286D01*
X23434880Y21389048D02*
X23387261Y21436667D01*
X23292023Y21484286D01*
X23149166Y21484286D01*
X23053928Y21436667D01*
X23006309Y21341429D01*
X23006309Y20817620D01*
X23006309Y21341429D02*
X22958690Y21436667D01*
X22863452Y21484286D01*
X22720595Y21484286D01*
X22625357Y21436667D01*
X22577738Y21341429D01*
X22577738Y20817620D01*
X21720595Y20865239D02*
X21815833Y20817620D01*
X22006309Y20817620D01*
X22101547Y20865239D01*
X22149166Y20960477D01*
X22149166Y21341429D01*
X22101547Y21436667D01*
X22006309Y21484286D01*
X21815833Y21484286D01*
X21720595Y21436667D01*
X21672976Y21341429D01*
X21672976Y21246191D01*
X22149166Y21150953D01*
X21244404Y20817620D02*
X21244404Y21484286D01*
X21244404Y21293810D02*
X21196785Y21389048D01*
X21149166Y21436667D01*
X21053928Y21484286D01*
X20958690Y21484286D01*
X35244404Y19207620D02*
X35244404Y19874286D01*
X35244404Y19683810D02*
X35196785Y19779048D01*
X35149166Y19826667D01*
X35053928Y19874286D01*
X34958690Y19874286D01*
X34244404Y19255239D02*
X34339642Y19207620D01*
X34530119Y19207620D01*
X34625357Y19255239D01*
X34672976Y19350477D01*
X34672976Y19731429D01*
X34625357Y19826667D01*
X34530119Y19874286D01*
X34339642Y19874286D01*
X34244404Y19826667D01*
X34196785Y19731429D01*
X34196785Y19636191D01*
X34672976Y19540953D01*
X33863452Y19874286D02*
X33625357Y19207620D01*
X33387261Y19874286D01*
X33006309Y19302858D02*
X32958690Y19255239D01*
X33006309Y19207620D01*
X33053928Y19255239D01*
X33006309Y19302858D01*
X33006309Y19207620D01*
X31911071Y19874286D02*
X31530119Y19874286D01*
X31768214Y19207620D02*
X31768214Y20064762D01*
X31720595Y20160000D01*
X31625357Y20207620D01*
X31530119Y20207620D01*
X32861904Y25384024D02*
X32061904Y25384024D01*
X32061904Y25193548D01*
X32100000Y25079262D01*
X32176190Y25003072D01*
X32252380Y24964977D01*
X32404761Y24926881D01*
X32519047Y24926881D01*
X32671428Y24964977D01*
X32747619Y25003072D01*
X32823809Y25079262D01*
X32861904Y25193548D01*
X32861904Y25384024D01*
X32861904Y24584024D02*
X32061904Y24584024D01*
X32061904Y24050691D02*
X32061904Y23898310D01*
X32100000Y23822120D01*
X32176190Y23745929D01*
X32328571Y23707834D01*
X32595238Y23707834D01*
X32747619Y23745929D01*
X32823809Y23822120D01*
X32861904Y23898310D01*
X32861904Y24050691D01*
X32823809Y24126881D01*
X32747619Y24203072D01*
X32595238Y24241167D01*
X32328571Y24241167D01*
X32176190Y24203072D01*
X32100000Y24126881D01*
X32061904Y24050691D01*
X35483452Y9438096D02*
X35483452Y8866667D01*
X35521547Y8752381D01*
X35597738Y8676191D01*
X35712023Y8638096D01*
X35788214Y8638096D01*
X34721547Y8638096D02*
X35102500Y8638096D01*
X35102500Y9438096D01*
X33997738Y8714286D02*
X34035833Y8676191D01*
X34150119Y8638096D01*
X34226309Y8638096D01*
X34340595Y8676191D01*
X34416785Y8752381D01*
X34454880Y8828572D01*
X34492976Y8980953D01*
X34492976Y9095239D01*
X34454880Y9247620D01*
X34416785Y9323810D01*
X34340595Y9400000D01*
X34226309Y9438096D01*
X34150119Y9438096D01*
X34035833Y9400000D01*
X33997738Y9361905D01*
X33426309Y9438096D02*
X33426309Y8866667D01*
X33464404Y8752381D01*
X33540595Y8676191D01*
X33654880Y8638096D01*
X33731071Y8638096D01*
X32664404Y8638096D02*
X33045357Y8638096D01*
X33045357Y9438096D01*
X31940595Y8714286D02*
X31978690Y8676191D01*
X32092976Y8638096D01*
X32169166Y8638096D01*
X32283452Y8676191D01*
X32359642Y8752381D01*
X32397738Y8828572D01*
X32435833Y8980953D01*
X32435833Y9095239D01*
X32397738Y9247620D01*
X32359642Y9323810D01*
X32283452Y9400000D01*
X32169166Y9438096D01*
X32092976Y9438096D01*
X31978690Y9400000D01*
X31940595Y9361905D01*
X31369166Y9438096D02*
X31369166Y8866667D01*
X31407261Y8752381D01*
X31483452Y8676191D01*
X31597738Y8638096D01*
X31673928Y8638096D01*
X30607261Y8638096D02*
X30988214Y8638096D01*
X30988214Y9438096D01*
X29883452Y8714286D02*
X29921547Y8676191D01*
X30035833Y8638096D01*
X30112023Y8638096D01*
X30226309Y8676191D01*
X30302500Y8752381D01*
X30340595Y8828572D01*
X30378690Y8980953D01*
X30378690Y9095239D01*
X30340595Y9247620D01*
X30302500Y9323810D01*
X30226309Y9400000D01*
X30112023Y9438096D01*
X30035833Y9438096D01*
X29921547Y9400000D01*
X29883452Y9361905D01*
X29312023Y9438096D02*
X29312023Y8866667D01*
X29350119Y8752381D01*
X29426309Y8676191D01*
X29540595Y8638096D01*
X29616785Y8638096D01*
X28550119Y8638096D02*
X28931071Y8638096D01*
X28931071Y9438096D01*
X27826309Y8714286D02*
X27864404Y8676191D01*
X27978690Y8638096D01*
X28054880Y8638096D01*
X28169166Y8676191D01*
X28245357Y8752381D01*
X28283452Y8828572D01*
X28321547Y8980953D01*
X28321547Y9095239D01*
X28283452Y9247620D01*
X28245357Y9323810D01*
X28169166Y9400000D01*
X28054880Y9438096D01*
X27978690Y9438096D01*
X27864404Y9400000D01*
X27826309Y9361905D01*
X19916309Y25602096D02*
X20297261Y25602096D01*
X20335357Y25221143D01*
X20297261Y25259239D01*
X20221071Y25297334D01*
X20030595Y25297334D01*
X19954404Y25259239D01*
X19916309Y25221143D01*
X19878214Y25144953D01*
X19878214Y24954477D01*
X19916309Y24878286D01*
X19954404Y24840191D01*
X20030595Y24802096D01*
X20221071Y24802096D01*
X20297261Y24840191D01*
X20335357Y24878286D01*
X19649642Y25602096D02*
X19382976Y24802096D01*
X19116309Y25602096D01*
X18278214Y25640191D02*
X18963928Y24611620D01*
X18087738Y25602096D02*
X17592500Y25602096D01*
X17859166Y25297334D01*
X17744880Y25297334D01*
X17668690Y25259239D01*
X17630595Y25221143D01*
X17592500Y25144953D01*
X17592500Y24954477D01*
X17630595Y24878286D01*
X17668690Y24840191D01*
X17744880Y24802096D01*
X17973452Y24802096D01*
X18049642Y24840191D01*
X18087738Y24878286D01*
X17363928Y25602096D02*
X17097261Y24802096D01*
X16830595Y25602096D01*
X16640119Y25602096D02*
X16144880Y25602096D01*
X16411547Y25297334D01*
X16297261Y25297334D01*
X16221071Y25259239D01*
X16182976Y25221143D01*
X16144880Y25144953D01*
X16144880Y24954477D01*
X16182976Y24878286D01*
X16221071Y24840191D01*
X16297261Y24802096D01*
X16525833Y24802096D01*
X16602023Y24840191D01*
X16640119Y24878286D01*
X34125904Y25460215D02*
X34125904Y24964977D01*
X34430666Y25231643D01*
X34430666Y25117358D01*
X34468761Y25041167D01*
X34506857Y25003072D01*
X34583047Y24964977D01*
X34773523Y24964977D01*
X34849714Y25003072D01*
X34887809Y25041167D01*
X34925904Y25117358D01*
X34925904Y25345929D01*
X34887809Y25422120D01*
X34849714Y25460215D01*
X34125904Y24736405D02*
X34925904Y24469739D01*
X34125904Y24203072D01*
X34125904Y24012596D02*
X34125904Y23517358D01*
X34430666Y23784024D01*
X34430666Y23669739D01*
X34468761Y23593548D01*
X34506857Y23555453D01*
X34583047Y23517358D01*
X34773523Y23517358D01*
X34849714Y23555453D01*
X34887809Y23593548D01*
X34925904Y23669739D01*
X34925904Y23898310D01*
X34887809Y23974500D01*
X34849714Y24012596D01*
D11*
G04 #@! TO.C,TP3*
X31200000Y26500000D02*
G75*
G03*
X31200000Y26500000I-700000J0D01*
G01*
G04 #@! TO.C,TP1*
X35264000Y26500000D02*
G75*
G03*
X35264000Y26500000I-700000J0D01*
G01*
G04 #@! TO.C,TP4*
X29168000Y26500000D02*
G75*
G03*
X29168000Y26500000I-700000J0D01*
G01*
G04 #@! TO.C,TP5*
X27136000Y26500000D02*
G75*
G03*
X27136000Y26500000I-700000J0D01*
G01*
G04 #@! TO.C,TP2*
X33200000Y26500000D02*
G75*
G03*
X33200000Y26500000I-700000J0D01*
G01*
G04 #@! TO.C,JP1*
X23900000Y14250000D02*
X28000000Y14250000D01*
X24650000Y16450000D02*
X24350000Y16750000D01*
X24350000Y16750000D02*
X24950000Y16750000D01*
X28000000Y14250000D02*
X28000000Y16250000D01*
X24650000Y16450000D02*
X24950000Y16750000D01*
X28000000Y16250000D02*
X23900000Y16250000D01*
X23900000Y16250000D02*
X23900000Y14250000D01*
G04 #@! TD*
M02*
