G04 #@! TF.GenerationSoftware,KiCad,Pcbnew,6.0.7+dfsg-3*
G04 #@! TF.CreationDate,2022-10-18T14:34:48+08:00*
G04 #@! TF.ProjectId,stlink,73746c69-6e6b-42e6-9b69-6361645f7063,f*
G04 #@! TF.SameCoordinates,PX5c07920PY68e7780*
G04 #@! TF.FileFunction,Profile,NP*
%FSLAX46Y46*%
G04 Gerber Fmt 4.6, Leading zero omitted, Abs format (unit mm)*
G04 Created by KiCad (PCBNEW 6.0.7+dfsg-3) date 2022-10-18 14:34:48*
%MOMM*%
%LPD*%
G01*
G04 APERTURE LIST*
G04 #@! TA.AperFunction,Profile*
%ADD10C,0.050000*%
G04 #@! TD*
G04 APERTURE END LIST*
D10*
X7000000Y33000000D02*
X49000000Y33000000D01*
X36500000Y12500000D02*
X22000000Y12500000D01*
X22000000Y11500000D02*
X36500000Y11500000D01*
X42500000Y12500000D02*
X39500000Y12500000D01*
X19000000Y11500000D02*
G75*
G03*
X19000000Y12500000I0J500000D01*
G01*
X22000000Y28500000D02*
G75*
G03*
X22000000Y27500000I0J-500000D01*
G01*
X7000000Y7000000D02*
X7000000Y33000000D01*
X22000000Y28500000D02*
X36500000Y28500000D01*
X36500000Y27500000D02*
X22000000Y27500000D01*
X11500000Y28500000D02*
X19000000Y28500000D01*
X12500000Y12500000D02*
X19000000Y12500000D01*
X42500000Y12500000D02*
G75*
G03*
X43500000Y13500000I0J1000000D01*
G01*
X39500000Y28500000D02*
G75*
G03*
X39500000Y27500000I0J-500000D01*
G01*
X22000000Y12500000D02*
G75*
G03*
X22000000Y11500000I0J-500000D01*
G01*
X39500000Y11500000D02*
X44500000Y11500000D01*
X43500000Y26500000D02*
G75*
G03*
X42500000Y27500000I-1000000J0D01*
G01*
X39500000Y27500000D02*
X42500000Y27500000D01*
X36500000Y27500000D02*
G75*
G03*
X36500000Y28500000I0J500000D01*
G01*
X49000000Y7000000D02*
X7000000Y7000000D01*
X36500000Y11500000D02*
G75*
G03*
X36500000Y12500000I0J500000D01*
G01*
X11500000Y11500000D02*
X11500000Y28500000D01*
X19000000Y27500000D02*
G75*
G03*
X19000000Y28500000I0J500000D01*
G01*
X39500000Y12500000D02*
G75*
G03*
X39500000Y11500000I0J-500000D01*
G01*
X44500000Y28500000D02*
X39500000Y28500000D01*
X44500000Y11500000D02*
X44500000Y28500000D01*
X12500000Y27500000D02*
X12500000Y12500000D01*
X19000000Y11500000D02*
X11500000Y11500000D01*
X19000000Y27500000D02*
X12500000Y27500000D01*
X49000000Y33000000D02*
X49000000Y7000000D01*
X43500000Y26500000D02*
X43500000Y13500000D01*
M02*
