G04 #@! TF.GenerationSoftware,KiCad,Pcbnew,6.0.7+dfsg-3*
G04 #@! TF.CreationDate,2022-10-18T14:34:48+08:00*
G04 #@! TF.ProjectId,stlink,73746c69-6e6b-42e6-9b69-6361645f7063,f*
G04 #@! TF.SameCoordinates,PX5c07920PY68e7780*
G04 #@! TF.FileFunction,Soldermask,Bot*
G04 #@! TF.FilePolarity,Negative*
%FSLAX46Y46*%
G04 Gerber Fmt 4.6, Leading zero omitted, Abs format (unit mm)*
G04 Created by KiCad (PCBNEW 6.0.7+dfsg-3) date 2022-10-18 14:34:48*
%MOMM*%
%LPD*%
G01*
G04 APERTURE LIST*
%ADD10C,1.800000*%
%ADD11O,3.500000X2.000000*%
%ADD12C,2.200000*%
%ADD13C,0.500000*%
%ADD14R,2.540000X1.524000*%
%ADD15C,1.000000*%
%ADD16R,1.000000X1.500000*%
G04 APERTURE END LIST*
D10*
G04 #@! TO.C,J1*
X38400000Y23500000D03*
X38400000Y21000000D03*
X38400000Y19000000D03*
X38400000Y16500000D03*
D11*
X40500000Y14150000D03*
X40500000Y25850000D03*
D12*
X40500000Y17700000D03*
X40500000Y22300000D03*
G04 #@! TD*
D13*
G04 #@! TO.C,H1*
X21650000Y28750000D03*
X19350000Y27250000D03*
X20150000Y29000000D03*
X20850000Y29000000D03*
X19350000Y28750000D03*
X21650000Y27250000D03*
X20150000Y27000000D03*
X20850000Y27000000D03*
G04 #@! TD*
G04 #@! TO.C,H2*
X20150000Y13000000D03*
X20850000Y11000000D03*
X19350000Y12750000D03*
X20850000Y13000000D03*
X19350000Y11250000D03*
X21650000Y12750000D03*
X20150000Y11000000D03*
X21650000Y11250000D03*
G04 #@! TD*
G04 #@! TO.C,H3*
X37650000Y29000000D03*
X36850000Y28750000D03*
X39150000Y27250000D03*
X37650000Y27000000D03*
X39150000Y28750000D03*
X38350000Y27000000D03*
X38350000Y29000000D03*
X36850000Y27250000D03*
G04 #@! TD*
G04 #@! TO.C,H4*
X39150000Y11250000D03*
X36850000Y11250000D03*
X39150000Y12750000D03*
X37650000Y13000000D03*
X38350000Y11000000D03*
X36850000Y12750000D03*
X38350000Y13000000D03*
X37650000Y11000000D03*
G04 #@! TD*
D14*
G04 #@! TO.C,J2*
X14000000Y25080000D03*
X14000000Y22540000D03*
X14000000Y20000000D03*
X14000000Y17460000D03*
X14000000Y14920000D03*
G04 #@! TD*
D15*
G04 #@! TO.C,TP3*
X30500000Y26500000D03*
G04 #@! TD*
G04 #@! TO.C,TP1*
X34564000Y26500000D03*
G04 #@! TD*
G04 #@! TO.C,TP4*
X28468000Y26500000D03*
G04 #@! TD*
G04 #@! TO.C,TP5*
X26436000Y26500000D03*
G04 #@! TD*
G04 #@! TO.C,TP2*
X32500000Y26500000D03*
G04 #@! TD*
D16*
G04 #@! TO.C,JP1*
X24650000Y15250000D03*
X25950000Y15250000D03*
X27250000Y15250000D03*
G04 #@! TD*
M02*
