G04 #@! TF.GenerationSoftware,KiCad,Pcbnew,6.0.7+dfsg-3*
G04 #@! TF.CreationDate,2022-10-18T14:34:48+08:00*
G04 #@! TF.ProjectId,stlink,73746c69-6e6b-42e6-9b69-6361645f7063,f*
G04 #@! TF.SameCoordinates,PX5c07920PY68e7780*
G04 #@! TF.FileFunction,Copper,L2,Inr*
G04 #@! TF.FilePolarity,Positive*
%FSLAX46Y46*%
G04 Gerber Fmt 4.6, Leading zero omitted, Abs format (unit mm)*
G04 Created by KiCad (PCBNEW 6.0.7+dfsg-3) date 2022-10-18 14:34:48*
%MOMM*%
%LPD*%
G01*
G04 APERTURE LIST*
G04 #@! TA.AperFunction,ComponentPad*
%ADD10C,1.800000*%
G04 #@! TD*
G04 #@! TA.AperFunction,ComponentPad*
%ADD11O,3.500000X2.000000*%
G04 #@! TD*
G04 #@! TA.AperFunction,ComponentPad*
%ADD12C,2.200000*%
G04 #@! TD*
G04 #@! TA.AperFunction,ViaPad*
%ADD13C,0.700000*%
G04 #@! TD*
G04 #@! TA.AperFunction,Conductor*
%ADD14C,0.381000*%
G04 #@! TD*
G04 APERTURE END LIST*
D10*
G04 #@! TO.N,VBUS*
G04 #@! TO.C,J1*
X38400000Y23500000D03*
G04 #@! TO.N,D-*
X38400000Y21000000D03*
G04 #@! TO.N,D+*
X38400000Y19000000D03*
G04 #@! TO.N,GND*
X38400000Y16500000D03*
D11*
X40500000Y14150000D03*
X40500000Y25850000D03*
D12*
X40500000Y17700000D03*
X40500000Y22300000D03*
G04 #@! TD*
D13*
G04 #@! TO.N,GND*
X36850000Y25037000D03*
X42500000Y24000000D03*
X42500000Y20000000D03*
X38000000Y26000000D03*
X24900000Y19900000D03*
X42500000Y15800000D03*
X16600000Y16300000D03*
X18500000Y13250000D03*
X27325000Y13250000D03*
X26000000Y22250000D03*
X35427600Y20236400D03*
X33040000Y13480000D03*
X19250000Y18750000D03*
X23000000Y24750000D03*
X35699941Y24018606D03*
X24750000Y22250000D03*
X19250000Y22500000D03*
G04 #@! TO.N,+5V*
X13990000Y26815000D03*
X31500000Y25500000D03*
G04 #@! TO.N,+3V3*
X34945000Y23132000D03*
X17286622Y17999861D03*
X33250000Y16250000D03*
X16000000Y24250000D03*
X24200000Y19200000D03*
X23000000Y23500000D03*
X33675000Y23132000D03*
X23000000Y14500000D03*
X29865000Y14750000D03*
X16000000Y25250000D03*
G04 #@! TO.N,D-*
X32230000Y20640000D03*
G04 #@! TO.N,D+*
X33260000Y20640000D03*
G04 #@! TO.N,LED*
X20250000Y16250000D03*
X27100000Y17200000D03*
G04 #@! TO.N,T_DIO*
X16772402Y20750000D03*
X28500000Y18500000D03*
G04 #@! TO.N,T_CLK*
X29250000Y17750000D03*
G04 #@! TO.N,CLK*
X29500000Y25500000D03*
G04 #@! TO.N,T_RX*
X22750000Y16000000D03*
X14000000Y13500000D03*
G04 #@! TO.N,T_TX*
X21750000Y16000000D03*
G04 #@! TO.N,T_RST*
X16800000Y17300000D03*
X26000000Y17200000D03*
G04 #@! TO.N,T_SWO*
X25600000Y19200000D03*
G04 #@! TO.N,DIO*
X28900000Y22000000D03*
G04 #@! TO.N,B0*
X26000000Y25500000D03*
G04 #@! TO.N,RENUM*
X33000000Y14750000D03*
X27300000Y22600000D03*
G04 #@! TO.N,Net-(R10-Pad1)*
X24500000Y17200000D03*
X22500000Y13750000D03*
G04 #@! TO.N,Net-(JP1-Pad2)*
X26500000Y14000000D03*
G04 #@! TD*
D14*
G04 #@! TO.N,+5V*
X13990000Y26815000D02*
X14654999Y26150001D01*
X30250000Y26750000D02*
X31500000Y25500000D01*
X22900001Y26150001D02*
X23500000Y26750000D01*
X23500000Y26750000D02*
X30250000Y26750000D01*
X14654997Y26150003D02*
X22899990Y26150003D01*
G04 #@! TD*
G04 #@! TA.AperFunction,Conductor*
G04 #@! TO.N,+3V3*
G36*
X13679039Y27329507D02*
G01*
X13704759Y27284958D01*
X13695826Y27234300D01*
X13670828Y27208301D01*
X13665239Y27204775D01*
X13665235Y27204772D01*
X13660709Y27201916D01*
X13653550Y27193810D01*
X13568897Y27097959D01*
X13568895Y27097956D01*
X13565351Y27093943D01*
X13561822Y27086427D01*
X13513236Y26982942D01*
X13504129Y26963546D01*
X13503305Y26958256D01*
X13503305Y26958255D01*
X13503203Y26957599D01*
X13481967Y26821207D01*
X13482661Y26815900D01*
X13482661Y26815897D01*
X13484402Y26802587D01*
X13500645Y26678370D01*
X13558662Y26546516D01*
X13562107Y26542418D01*
X13562108Y26542416D01*
X13603308Y26493403D01*
X13651354Y26436245D01*
X13771270Y26356423D01*
X13776388Y26354824D01*
X13903656Y26315062D01*
X13903659Y26315062D01*
X13908769Y26313465D01*
X13941813Y26312859D01*
X13977370Y26312207D01*
X14029165Y26290194D01*
X14399257Y25920102D01*
X14403690Y25915265D01*
X14430859Y25882886D01*
X14467387Y25861797D01*
X14467461Y25861754D01*
X14472993Y25858229D01*
X14502244Y25837747D01*
X14502246Y25837746D01*
X14507633Y25833974D01*
X14513987Y25832271D01*
X14517063Y25830837D01*
X14526838Y25826789D01*
X14530040Y25825624D01*
X14535736Y25822335D01*
X14542211Y25821193D01*
X14542212Y25821193D01*
X14577353Y25814997D01*
X14583759Y25813577D01*
X14624609Y25802631D01*
X14631161Y25803204D01*
X14631163Y25803204D01*
X14666743Y25806317D01*
X14673297Y25806603D01*
X22881708Y25806603D01*
X22888262Y25806317D01*
X22923838Y25803204D01*
X22923840Y25803204D01*
X22930392Y25802631D01*
X22971268Y25813584D01*
X22977674Y25815004D01*
X22998550Y25818685D01*
X23019251Y25822335D01*
X23024946Y25825623D01*
X23028210Y25826811D01*
X23038002Y25830868D01*
X23041011Y25832271D01*
X23047367Y25833974D01*
X23082070Y25858273D01*
X23087601Y25861797D01*
X23124128Y25882886D01*
X23151231Y25915186D01*
X23155663Y25920022D01*
X23620215Y26384574D01*
X23666835Y26406314D01*
X23673389Y26406600D01*
X30076611Y26406600D01*
X30124949Y26389007D01*
X30129785Y26384574D01*
X30971456Y25542903D01*
X30992847Y25499480D01*
X31010645Y25363370D01*
X31035953Y25305853D01*
X31059061Y25253337D01*
X31068662Y25231516D01*
X31072107Y25227418D01*
X31072108Y25227416D01*
X31116760Y25174296D01*
X31161354Y25121245D01*
X31281270Y25041423D01*
X31418769Y24998465D01*
X31492871Y24997107D01*
X31557436Y24995923D01*
X31557438Y24995923D01*
X31562798Y24995825D01*
X31567969Y24997235D01*
X31567971Y24997235D01*
X31657770Y25021717D01*
X31701779Y25033715D01*
X31717238Y25043207D01*
X36341967Y25043207D01*
X36342661Y25037900D01*
X36342661Y25037897D01*
X36348150Y24995923D01*
X36360645Y24900370D01*
X36418662Y24768516D01*
X36422107Y24764418D01*
X36422108Y24764416D01*
X36466812Y24711234D01*
X36511354Y24658245D01*
X36631270Y24578423D01*
X36768769Y24535465D01*
X36842871Y24534107D01*
X36907436Y24532923D01*
X36907438Y24532923D01*
X36912798Y24532825D01*
X36917969Y24534235D01*
X36917971Y24534235D01*
X37003805Y24557636D01*
X37051779Y24570715D01*
X37113253Y24608460D01*
X37169970Y24643284D01*
X37169973Y24643286D01*
X37174539Y24646090D01*
X37271210Y24752890D01*
X37276795Y24764416D01*
X37331682Y24877704D01*
X37331682Y24877705D01*
X37334020Y24882530D01*
X37357919Y25024587D01*
X37357959Y25027794D01*
X37357992Y25030568D01*
X37358071Y25037000D01*
X37357438Y25041423D01*
X37338409Y25174296D01*
X37338408Y25174300D01*
X37337649Y25179599D01*
X37321437Y25215257D01*
X37280245Y25305853D01*
X37278026Y25310734D01*
X37273538Y25315943D01*
X37187487Y25415810D01*
X37187484Y25415813D01*
X37183993Y25419864D01*
X37179502Y25422775D01*
X37067604Y25495303D01*
X37067603Y25495303D01*
X37063111Y25498215D01*
X36986402Y25521156D01*
X36930232Y25537955D01*
X36930229Y25537955D01*
X36925098Y25539490D01*
X36919743Y25539523D01*
X36919741Y25539523D01*
X36854524Y25539921D01*
X36781047Y25540370D01*
X36775897Y25538898D01*
X36775896Y25538898D01*
X36767572Y25536519D01*
X36642539Y25500785D01*
X36638013Y25497929D01*
X36638010Y25497928D01*
X36525237Y25426773D01*
X36520709Y25423916D01*
X36513550Y25415810D01*
X36428897Y25319959D01*
X36428895Y25319956D01*
X36425351Y25315943D01*
X36420614Y25305853D01*
X36374814Y25208303D01*
X36364129Y25185546D01*
X36341967Y25043207D01*
X31717238Y25043207D01*
X31754871Y25066314D01*
X31819970Y25106284D01*
X31819973Y25106286D01*
X31824539Y25109090D01*
X31921210Y25215890D01*
X31926795Y25227416D01*
X31981682Y25340704D01*
X31981682Y25340705D01*
X31984020Y25345530D01*
X32007919Y25487587D01*
X32008071Y25500000D01*
X32007659Y25502880D01*
X31988409Y25637296D01*
X31988408Y25637300D01*
X31987649Y25642599D01*
X31928026Y25773734D01*
X31920167Y25782855D01*
X31837487Y25878810D01*
X31837484Y25878813D01*
X31833993Y25882864D01*
X31829502Y25885775D01*
X31717604Y25958303D01*
X31717603Y25958303D01*
X31713111Y25961215D01*
X31624930Y25987587D01*
X31580232Y26000955D01*
X31580229Y26000955D01*
X31575098Y26002490D01*
X31569743Y26002523D01*
X31569741Y26002523D01*
X31546827Y26002663D01*
X31513464Y26002866D01*
X31465236Y26020754D01*
X31460750Y26024891D01*
X30505740Y26979901D01*
X30501307Y26984738D01*
X30483433Y27006039D01*
X30474138Y27017117D01*
X30468444Y27020405D01*
X30468441Y27020407D01*
X30437529Y27038255D01*
X30432000Y27041778D01*
X30402757Y27062253D01*
X30402754Y27062254D01*
X30397366Y27066027D01*
X30391015Y27067729D01*
X30387935Y27069165D01*
X30378160Y27073213D01*
X30374960Y27074378D01*
X30369261Y27077668D01*
X30342002Y27082475D01*
X30327637Y27085008D01*
X30321235Y27086427D01*
X30286747Y27095667D01*
X30280391Y27097370D01*
X30273839Y27096797D01*
X30273837Y27096797D01*
X30238284Y27093686D01*
X30231730Y27093400D01*
X23518270Y27093400D01*
X23511716Y27093686D01*
X23476163Y27096797D01*
X23476161Y27096797D01*
X23469609Y27097370D01*
X23463253Y27095667D01*
X23428765Y27086427D01*
X23422363Y27085008D01*
X23407998Y27082475D01*
X23380739Y27077668D01*
X23375040Y27074378D01*
X23371840Y27073213D01*
X23362065Y27069165D01*
X23358985Y27067729D01*
X23352634Y27066027D01*
X23347246Y27062254D01*
X23347243Y27062253D01*
X23318000Y27041778D01*
X23312471Y27038255D01*
X23281559Y27020407D01*
X23281556Y27020405D01*
X23275862Y27017117D01*
X23271636Y27012081D01*
X23271634Y27012079D01*
X23248691Y26984736D01*
X23244259Y26979900D01*
X22779788Y26515429D01*
X22733168Y26493689D01*
X22726614Y26493403D01*
X21056442Y26493403D01*
X21008104Y26510996D01*
X20982384Y26555545D01*
X20991317Y26606203D01*
X21022302Y26635607D01*
X21084494Y26667295D01*
X21084495Y26667296D01*
X21089771Y26669984D01*
X21180016Y26760229D01*
X21190709Y26781214D01*
X21231421Y26861117D01*
X21237957Y26873945D01*
X21244719Y26916637D01*
X21269658Y26961627D01*
X21317681Y26980061D01*
X21366318Y26963313D01*
X21372167Y26958046D01*
X21410229Y26919984D01*
X21415505Y26917296D01*
X21415506Y26917295D01*
X21457652Y26895821D01*
X21523945Y26862043D01*
X21529792Y26861117D01*
X21615374Y26847562D01*
X21615376Y26847562D01*
X21618292Y26847100D01*
X21681708Y26847100D01*
X21684624Y26847562D01*
X21684626Y26847562D01*
X21770208Y26861117D01*
X21776055Y26862043D01*
X21842348Y26895821D01*
X21884494Y26917295D01*
X21884495Y26917296D01*
X21889771Y26919984D01*
X21980016Y27010229D01*
X22037957Y27123945D01*
X22057922Y27250000D01*
X22056316Y27260139D01*
X22066133Y27310633D01*
X22106111Y27343004D01*
X22130591Y27347100D01*
X36369409Y27347100D01*
X36417747Y27329507D01*
X36443467Y27284958D01*
X36443684Y27260140D01*
X36442078Y27250000D01*
X36462043Y27123945D01*
X36519984Y27010229D01*
X36610229Y26919984D01*
X36615505Y26917296D01*
X36615506Y26917295D01*
X36657652Y26895821D01*
X36723945Y26862043D01*
X36729792Y26861117D01*
X36815374Y26847562D01*
X36815376Y26847562D01*
X36818292Y26847100D01*
X36881708Y26847100D01*
X36884624Y26847562D01*
X36884626Y26847562D01*
X36970208Y26861117D01*
X36976055Y26862043D01*
X37042348Y26895821D01*
X37084494Y26917295D01*
X37084495Y26917296D01*
X37089771Y26919984D01*
X37127833Y26958046D01*
X37174453Y26979786D01*
X37224140Y26966472D01*
X37253645Y26924335D01*
X37255281Y26916637D01*
X37262043Y26873945D01*
X37268579Y26861117D01*
X37309292Y26781214D01*
X37319984Y26760229D01*
X37410229Y26669984D01*
X37523945Y26612043D01*
X37534660Y26610346D01*
X37615374Y26597562D01*
X37615376Y26597562D01*
X37618292Y26597100D01*
X37681708Y26597100D01*
X37684624Y26597562D01*
X37684626Y26597562D01*
X37739182Y26606203D01*
X37757182Y26609054D01*
X37772079Y26606158D01*
X37774998Y26610477D01*
X37785006Y26616604D01*
X37884494Y26667295D01*
X37884495Y26667296D01*
X37889771Y26669984D01*
X37946826Y26727039D01*
X37993446Y26748779D01*
X38043133Y26735465D01*
X38053174Y26727039D01*
X38110229Y26669984D01*
X38115505Y26667296D01*
X38115506Y26667295D01*
X38216167Y26616006D01*
X38222043Y26609705D01*
X38223529Y26610346D01*
X38239690Y26609549D01*
X38315374Y26597562D01*
X38315376Y26597562D01*
X38318292Y26597100D01*
X38381708Y26597100D01*
X38384624Y26597562D01*
X38384626Y26597562D01*
X38465340Y26610346D01*
X38476055Y26612043D01*
X38589771Y26669984D01*
X38680016Y26760229D01*
X38690709Y26781214D01*
X38731421Y26861117D01*
X38737957Y26873945D01*
X38744719Y26916637D01*
X38769658Y26961627D01*
X38817681Y26980061D01*
X38866318Y26963313D01*
X38872167Y26958046D01*
X38910229Y26919984D01*
X38915505Y26917296D01*
X38915506Y26917295D01*
X39007928Y26870204D01*
X39043010Y26832583D01*
X39045702Y26781214D01*
X39018782Y26742946D01*
X38975254Y26710442D01*
X38831425Y26554848D01*
X38829590Y26551939D01*
X38829588Y26551937D01*
X38826168Y26546516D01*
X38718358Y26375648D01*
X38639841Y26178844D01*
X38639168Y26175460D01*
X38639167Y26175457D01*
X38633457Y26146751D01*
X38606771Y26102774D01*
X38558061Y26086240D01*
X38510119Y26104884D01*
X38488106Y26139405D01*
X38487649Y26142599D01*
X38428026Y26273734D01*
X38423538Y26278943D01*
X38337487Y26378810D01*
X38337484Y26378813D01*
X38333993Y26382864D01*
X38329502Y26385775D01*
X38217604Y26458303D01*
X38217603Y26458303D01*
X38213111Y26461215D01*
X38206381Y26463228D01*
X38205456Y26463916D01*
X38203116Y26464997D01*
X38203343Y26465488D01*
X38187020Y26477631D01*
X38172862Y26474363D01*
X38160480Y26476955D01*
X38159344Y26477295D01*
X38118764Y26489431D01*
X38080232Y26500955D01*
X38080229Y26500955D01*
X38075098Y26502490D01*
X38069743Y26502523D01*
X38069741Y26502523D01*
X38004524Y26502921D01*
X37931047Y26503370D01*
X37925897Y26501898D01*
X37925896Y26501898D01*
X37839810Y26477295D01*
X37814184Y26479109D01*
X37805404Y26469009D01*
X37799651Y26466134D01*
X37797692Y26465258D01*
X37792539Y26463785D01*
X37670709Y26386916D01*
X37657930Y26372446D01*
X37578897Y26282959D01*
X37578895Y26282956D01*
X37575351Y26278943D01*
X37514129Y26148546D01*
X37491967Y26006207D01*
X37492661Y26000900D01*
X37492661Y26000897D01*
X37494402Y25987587D01*
X37510645Y25863370D01*
X37546027Y25782959D01*
X37557994Y25755762D01*
X37568662Y25731516D01*
X37661354Y25621245D01*
X37683830Y25606284D01*
X37767891Y25550329D01*
X37781270Y25541423D01*
X37918769Y25498465D01*
X37992871Y25497107D01*
X38057436Y25495923D01*
X38057438Y25495923D01*
X38062798Y25495825D01*
X38067969Y25497235D01*
X38067971Y25497235D01*
X38168132Y25524542D01*
X38201779Y25533715D01*
X38254871Y25566314D01*
X38319970Y25606284D01*
X38319973Y25606286D01*
X38324539Y25609090D01*
X38421210Y25715890D01*
X38426795Y25727416D01*
X38453654Y25782855D01*
X38490562Y25818685D01*
X38541867Y25822408D01*
X38583562Y25792282D01*
X38595211Y25759068D01*
X38595730Y25759157D01*
X38596313Y25755766D01*
X38596313Y25755762D01*
X38614736Y25648546D01*
X38631613Y25550329D01*
X38704952Y25351537D01*
X38813289Y25169439D01*
X38815563Y25166846D01*
X38940752Y25024095D01*
X38952996Y25010133D01*
X38955702Y25007999D01*
X38955705Y25007997D01*
X39116691Y24881087D01*
X39116694Y24881085D01*
X39119396Y24878955D01*
X39122444Y24877352D01*
X39122446Y24877350D01*
X39303867Y24781899D01*
X39306914Y24780296D01*
X39310199Y24779276D01*
X39505983Y24718484D01*
X39505986Y24718483D01*
X39509272Y24717463D01*
X39512692Y24717058D01*
X39512693Y24717058D01*
X39545907Y24713127D01*
X39681316Y24697100D01*
X41303751Y24697100D01*
X41305446Y24697256D01*
X41305452Y24697256D01*
X41366450Y24702861D01*
X41460999Y24711549D01*
X41480533Y24717058D01*
X41504963Y24723948D01*
X41664932Y24769064D01*
X41668020Y24770587D01*
X41668023Y24770588D01*
X41761997Y24816931D01*
X41854969Y24862780D01*
X42024746Y24989558D01*
X42168575Y25145152D01*
X42190310Y25179599D01*
X42236321Y25252523D01*
X42281642Y25324352D01*
X42346766Y25487587D01*
X42358879Y25517947D01*
X42358880Y25517950D01*
X42360159Y25521156D01*
X42362658Y25533715D01*
X42400823Y25725590D01*
X42401496Y25728973D01*
X42404270Y25940843D01*
X42400770Y25961215D01*
X42368970Y26146279D01*
X42368970Y26146281D01*
X42368387Y26149671D01*
X42295048Y26348463D01*
X42186711Y26530561D01*
X42062367Y26672349D01*
X42049280Y26687272D01*
X42049278Y26687273D01*
X42047004Y26689867D01*
X42044298Y26692001D01*
X42044295Y26692003D01*
X41883309Y26818913D01*
X41883306Y26818915D01*
X41880604Y26821045D01*
X41877556Y26822648D01*
X41877554Y26822650D01*
X41696133Y26918101D01*
X41696132Y26918101D01*
X41693086Y26919704D01*
X41678172Y26924335D01*
X41494017Y26981516D01*
X41494014Y26981517D01*
X41490728Y26982537D01*
X41487308Y26982942D01*
X41487307Y26982942D01*
X41440761Y26988451D01*
X41318684Y27002900D01*
X39696249Y27002900D01*
X39694554Y27002744D01*
X39694548Y27002744D01*
X39601271Y26994173D01*
X39551526Y27007270D01*
X39521838Y27049278D01*
X39527386Y27103198D01*
X39535270Y27118671D01*
X39535270Y27118672D01*
X39537957Y27123945D01*
X39557922Y27250000D01*
X39556316Y27260139D01*
X39566133Y27310633D01*
X39606111Y27343004D01*
X39630591Y27347100D01*
X42469968Y27347100D01*
X42489430Y27344538D01*
X42500000Y27341706D01*
X42509562Y27344268D01*
X42519462Y27344268D01*
X42519462Y27343581D01*
X42528336Y27344309D01*
X42657892Y27331549D01*
X42672348Y27328673D01*
X42817083Y27284768D01*
X42830698Y27279129D01*
X42962284Y27208796D01*
X42964093Y27207829D01*
X42976351Y27199638D01*
X43093265Y27103688D01*
X43103688Y27093265D01*
X43170317Y27012078D01*
X43192757Y26984736D01*
X43199638Y26976351D01*
X43207828Y26964094D01*
X43275644Y26837220D01*
X43279128Y26830701D01*
X43284768Y26817083D01*
X43328119Y26674174D01*
X43328673Y26672349D01*
X43331549Y26657892D01*
X43343835Y26533154D01*
X43344309Y26528337D01*
X43343581Y26519462D01*
X43344268Y26519462D01*
X43344268Y26509562D01*
X43341706Y26500000D01*
X43344268Y26490439D01*
X43344538Y26489431D01*
X43347100Y26469968D01*
X43347100Y13530032D01*
X43344538Y13510570D01*
X43341706Y13500000D01*
X43344268Y13490438D01*
X43344268Y13480538D01*
X43343581Y13480538D01*
X43344309Y13471664D01*
X43332197Y13348688D01*
X43331549Y13342109D01*
X43328673Y13327652D01*
X43288704Y13195890D01*
X43284769Y13182919D01*
X43279129Y13169302D01*
X43211061Y13041954D01*
X43207829Y13035907D01*
X43199638Y13023649D01*
X43103688Y12906735D01*
X43093265Y12896312D01*
X42976351Y12800362D01*
X42964094Y12792172D01*
X42830698Y12720871D01*
X42817083Y12715232D01*
X42682265Y12674335D01*
X42672349Y12671327D01*
X42657892Y12668451D01*
X42528336Y12655691D01*
X42519462Y12656419D01*
X42519462Y12655732D01*
X42509562Y12655732D01*
X42500000Y12658294D01*
X42489431Y12655462D01*
X42469968Y12652900D01*
X39630591Y12652900D01*
X39582253Y12670493D01*
X39556533Y12715042D01*
X39556316Y12739861D01*
X39556996Y12744155D01*
X39557922Y12750000D01*
X39537957Y12876055D01*
X39535270Y12881328D01*
X39535269Y12881332D01*
X39526995Y12897571D01*
X39520727Y12948628D01*
X39548743Y12991768D01*
X39602837Y13006389D01*
X39681316Y12997100D01*
X41303751Y12997100D01*
X41305446Y12997256D01*
X41305452Y12997256D01*
X41366450Y13002861D01*
X41460999Y13011549D01*
X41481969Y13017463D01*
X41549536Y13036519D01*
X41664932Y13069064D01*
X41668020Y13070587D01*
X41668023Y13070588D01*
X41804633Y13137957D01*
X41854969Y13162780D01*
X42024746Y13289558D01*
X42168575Y13445152D01*
X42182731Y13467587D01*
X42226223Y13536519D01*
X42281642Y13624352D01*
X42334880Y13757794D01*
X42358879Y13817947D01*
X42358880Y13817950D01*
X42360159Y13821156D01*
X42365008Y13845530D01*
X42400823Y14025590D01*
X42401496Y14028973D01*
X42404270Y14240843D01*
X42402961Y14248465D01*
X42368970Y14446279D01*
X42368970Y14446281D01*
X42368387Y14449671D01*
X42295048Y14648463D01*
X42186711Y14830561D01*
X42047004Y14989867D01*
X42044298Y14992001D01*
X42044295Y14992003D01*
X41883309Y15118913D01*
X41883306Y15118915D01*
X41880604Y15121045D01*
X41877556Y15122648D01*
X41877554Y15122650D01*
X41696133Y15218101D01*
X41696132Y15218101D01*
X41693086Y15219704D01*
X41589403Y15251898D01*
X41494017Y15281516D01*
X41494014Y15281517D01*
X41490728Y15282537D01*
X41487308Y15282942D01*
X41487307Y15282942D01*
X41454093Y15286873D01*
X41318684Y15302900D01*
X39696249Y15302900D01*
X39694554Y15302744D01*
X39694548Y15302744D01*
X39634597Y15297235D01*
X39539001Y15288451D01*
X39535683Y15287515D01*
X39535682Y15287515D01*
X39514411Y15281516D01*
X39335068Y15230936D01*
X39331980Y15229413D01*
X39331977Y15229412D01*
X39289173Y15208303D01*
X39145031Y15137220D01*
X38975254Y15010442D01*
X38831425Y14854848D01*
X38718358Y14675648D01*
X38706222Y14645229D01*
X38642864Y14486420D01*
X38639841Y14478844D01*
X38639168Y14475463D01*
X38639167Y14475458D01*
X38605131Y14304345D01*
X38598504Y14271027D01*
X38595730Y14059157D01*
X38596313Y14055765D01*
X38596313Y14055763D01*
X38608758Y13983337D01*
X38631613Y13850329D01*
X38704952Y13651537D01*
X38813289Y13469439D01*
X38815563Y13466846D01*
X38943726Y13320704D01*
X38952996Y13310133D01*
X38955702Y13307999D01*
X38955705Y13307997D01*
X39021257Y13256321D01*
X39048325Y13212579D01*
X39040944Y13161672D01*
X39008841Y13130261D01*
X38972714Y13111853D01*
X38916798Y13083363D01*
X38910229Y13080016D01*
X38872167Y13041954D01*
X38825547Y13020214D01*
X38775860Y13033528D01*
X38746355Y13075665D01*
X38744719Y13083363D01*
X38738883Y13120209D01*
X38738883Y13120210D01*
X38737957Y13126055D01*
X38691914Y13216420D01*
X38682705Y13234494D01*
X38682704Y13234495D01*
X38680016Y13239771D01*
X38589771Y13330016D01*
X38476055Y13387957D01*
X38442605Y13393255D01*
X38384626Y13402438D01*
X38384624Y13402438D01*
X38381708Y13402900D01*
X38318292Y13402900D01*
X38315376Y13402438D01*
X38315374Y13402438D01*
X38257395Y13393255D01*
X38223945Y13387957D01*
X38110229Y13330016D01*
X38053174Y13272961D01*
X38006554Y13251221D01*
X37956867Y13264535D01*
X37946826Y13272961D01*
X37889771Y13330016D01*
X37776055Y13387957D01*
X37742605Y13393255D01*
X37684626Y13402438D01*
X37684624Y13402438D01*
X37681708Y13402900D01*
X37618292Y13402900D01*
X37615376Y13402438D01*
X37615374Y13402438D01*
X37557395Y13393255D01*
X37523945Y13387957D01*
X37410229Y13330016D01*
X37319984Y13239771D01*
X37317296Y13234495D01*
X37317295Y13234494D01*
X37308086Y13216420D01*
X37262043Y13126055D01*
X37261117Y13120210D01*
X37261117Y13120209D01*
X37255281Y13083363D01*
X37230342Y13038373D01*
X37182319Y13019939D01*
X37133682Y13036687D01*
X37127833Y13041954D01*
X37089771Y13080016D01*
X37083203Y13083363D01*
X37032710Y13109090D01*
X36976055Y13137957D01*
X36945040Y13142869D01*
X36884626Y13152438D01*
X36884624Y13152438D01*
X36881708Y13152900D01*
X36818292Y13152900D01*
X36815376Y13152438D01*
X36815374Y13152438D01*
X36754960Y13142869D01*
X36723945Y13137957D01*
X36667290Y13109090D01*
X36616798Y13083363D01*
X36610229Y13080016D01*
X36519984Y12989771D01*
X36517296Y12984495D01*
X36517295Y12984494D01*
X36507816Y12965890D01*
X36462043Y12876055D01*
X36442078Y12750000D01*
X36443004Y12744155D01*
X36443684Y12739861D01*
X36433867Y12689367D01*
X36393889Y12656996D01*
X36369409Y12652900D01*
X27579920Y12652900D01*
X27531582Y12670493D01*
X27505862Y12715042D01*
X27514795Y12765700D01*
X27540572Y12792184D01*
X27644970Y12856284D01*
X27644974Y12856287D01*
X27649539Y12859090D01*
X27667545Y12878982D01*
X27742612Y12961915D01*
X27746210Y12965890D01*
X27751024Y12975825D01*
X27806682Y13090704D01*
X27806682Y13090705D01*
X27809020Y13095530D01*
X27832919Y13237587D01*
X27833071Y13250000D01*
X27832659Y13252880D01*
X27813409Y13387296D01*
X27813408Y13387300D01*
X27812649Y13392599D01*
X27807966Y13402900D01*
X27770088Y13486207D01*
X32531967Y13486207D01*
X32532661Y13480900D01*
X32532661Y13480897D01*
X32537666Y13442623D01*
X32550645Y13343370D01*
X32573209Y13292090D01*
X32597191Y13237587D01*
X32608662Y13211516D01*
X32612107Y13207418D01*
X32612108Y13207416D01*
X32657364Y13153578D01*
X32701354Y13101245D01*
X32722745Y13087006D01*
X32804921Y13032306D01*
X32821270Y13021423D01*
X32958769Y12978465D01*
X33032871Y12977107D01*
X33097436Y12975923D01*
X33097438Y12975923D01*
X33102798Y12975825D01*
X33107969Y12977235D01*
X33107971Y12977235D01*
X33214907Y13006389D01*
X33241779Y13013715D01*
X33334406Y13070588D01*
X33359970Y13086284D01*
X33359973Y13086286D01*
X33364539Y13089090D01*
X33397357Y13125346D01*
X33457612Y13191915D01*
X33461210Y13195890D01*
X33466795Y13207416D01*
X33521682Y13320704D01*
X33521682Y13320705D01*
X33524020Y13325530D01*
X33547919Y13467587D01*
X33547958Y13470715D01*
X33548035Y13477091D01*
X33548071Y13480000D01*
X33547659Y13482880D01*
X33528409Y13617296D01*
X33528408Y13617300D01*
X33527649Y13622599D01*
X33525397Y13627554D01*
X33475898Y13736420D01*
X33468026Y13753734D01*
X33461337Y13761497D01*
X33377487Y13858810D01*
X33377484Y13858813D01*
X33373993Y13862864D01*
X33369502Y13865775D01*
X33257604Y13938303D01*
X33257603Y13938303D01*
X33253111Y13941215D01*
X33172721Y13965257D01*
X33120232Y13980955D01*
X33120229Y13980955D01*
X33115098Y13982490D01*
X33109743Y13982523D01*
X33109741Y13982523D01*
X33044524Y13982921D01*
X32971047Y13983370D01*
X32965897Y13981898D01*
X32965896Y13981898D01*
X32907670Y13965257D01*
X32832539Y13943785D01*
X32828013Y13940929D01*
X32828010Y13940928D01*
X32736047Y13882903D01*
X32710709Y13866916D01*
X32703550Y13858810D01*
X32618897Y13762959D01*
X32618895Y13762956D01*
X32615351Y13758943D01*
X32554129Y13628546D01*
X32553305Y13623256D01*
X32553305Y13623255D01*
X32549811Y13600816D01*
X32531967Y13486207D01*
X27770088Y13486207D01*
X27753026Y13523734D01*
X27748538Y13528943D01*
X27662487Y13628810D01*
X27662484Y13628813D01*
X27658993Y13632864D01*
X27654502Y13635775D01*
X27542604Y13708303D01*
X27542603Y13708303D01*
X27538111Y13711215D01*
X27449930Y13737587D01*
X27405232Y13750955D01*
X27405229Y13750955D01*
X27400098Y13752490D01*
X27394743Y13752523D01*
X27394741Y13752523D01*
X27329524Y13752921D01*
X27256047Y13753370D01*
X27250897Y13751898D01*
X27250896Y13751898D01*
X27211015Y13740500D01*
X27117539Y13713785D01*
X27113013Y13710929D01*
X27113010Y13710928D01*
X27055827Y13674848D01*
X27005558Y13663934D01*
X26960034Y13687885D01*
X26940557Y13735495D01*
X26948023Y13771233D01*
X26984020Y13845530D01*
X27007919Y13987587D01*
X27008071Y14000000D01*
X27007659Y14002880D01*
X26988409Y14137296D01*
X26988408Y14137300D01*
X26987649Y14142599D01*
X26957776Y14208303D01*
X26944545Y14237401D01*
X26928026Y14273734D01*
X26920640Y14282306D01*
X26837487Y14378810D01*
X26837484Y14378813D01*
X26833993Y14382864D01*
X26829502Y14385775D01*
X26717604Y14458303D01*
X26717603Y14458303D01*
X26713111Y14461215D01*
X26628832Y14486420D01*
X26580232Y14500955D01*
X26580229Y14500955D01*
X26575098Y14502490D01*
X26569743Y14502523D01*
X26569741Y14502523D01*
X26504524Y14502921D01*
X26431047Y14503370D01*
X26425897Y14501898D01*
X26425896Y14501898D01*
X26371739Y14486420D01*
X26292539Y14463785D01*
X26288013Y14460929D01*
X26288010Y14460928D01*
X26175237Y14389773D01*
X26170709Y14386916D01*
X26163550Y14378810D01*
X26078897Y14282959D01*
X26078895Y14282956D01*
X26075351Y14278943D01*
X26014129Y14148546D01*
X26013305Y14143256D01*
X26013305Y14143255D01*
X26011693Y14132903D01*
X25991967Y14006207D01*
X25992661Y14000900D01*
X25992661Y14000897D01*
X25995064Y13982523D01*
X26010645Y13863370D01*
X26018495Y13845530D01*
X26061034Y13748853D01*
X26068662Y13731516D01*
X26072107Y13727418D01*
X26072108Y13727416D01*
X26116296Y13674848D01*
X26161354Y13621245D01*
X26281270Y13541423D01*
X26418769Y13498465D01*
X26492871Y13497107D01*
X26557436Y13495923D01*
X26557438Y13495923D01*
X26562798Y13495825D01*
X26567969Y13497235D01*
X26567971Y13497235D01*
X26651953Y13520131D01*
X26701779Y13533715D01*
X26769644Y13575384D01*
X26820041Y13585684D01*
X26865269Y13561178D01*
X26884163Y13513334D01*
X26877062Y13479341D01*
X26841405Y13403395D01*
X26841404Y13403392D01*
X26839129Y13398546D01*
X26838305Y13393256D01*
X26838305Y13393255D01*
X26831366Y13348688D01*
X26816967Y13256207D01*
X26817661Y13250900D01*
X26817661Y13250897D01*
X26820732Y13227416D01*
X26835645Y13113370D01*
X26893662Y12981516D01*
X26897107Y12977418D01*
X26897108Y12977416D01*
X26902741Y12970715D01*
X26986354Y12871245D01*
X27008825Y12856287D01*
X27106270Y12791423D01*
X27104934Y12789417D01*
X27134544Y12759288D01*
X27138583Y12708007D01*
X27108714Y12666128D01*
X27066117Y12652900D01*
X22130591Y12652900D01*
X22082253Y12670493D01*
X22056533Y12715042D01*
X22056316Y12739861D01*
X22056996Y12744155D01*
X22057922Y12750000D01*
X22037957Y12876055D01*
X21992184Y12965890D01*
X21982705Y12984494D01*
X21982704Y12984495D01*
X21980016Y12989771D01*
X21889771Y13080016D01*
X21883203Y13083363D01*
X21832710Y13109090D01*
X21776055Y13137957D01*
X21745040Y13142869D01*
X21684626Y13152438D01*
X21684624Y13152438D01*
X21681708Y13152900D01*
X21618292Y13152900D01*
X21615376Y13152438D01*
X21615374Y13152438D01*
X21554960Y13142869D01*
X21523945Y13137957D01*
X21467290Y13109090D01*
X21416798Y13083363D01*
X21410229Y13080016D01*
X21372167Y13041954D01*
X21325547Y13020214D01*
X21275860Y13033528D01*
X21246355Y13075665D01*
X21244719Y13083363D01*
X21238883Y13120209D01*
X21238883Y13120210D01*
X21237957Y13126055D01*
X21191914Y13216420D01*
X21182705Y13234494D01*
X21182704Y13234495D01*
X21180016Y13239771D01*
X21089771Y13330016D01*
X20976055Y13387957D01*
X20942605Y13393255D01*
X20884626Y13402438D01*
X20884624Y13402438D01*
X20881708Y13402900D01*
X20818292Y13402900D01*
X20815376Y13402438D01*
X20815374Y13402438D01*
X20757395Y13393255D01*
X20723945Y13387957D01*
X20610229Y13330016D01*
X20553174Y13272961D01*
X20506554Y13251221D01*
X20456867Y13264535D01*
X20446826Y13272961D01*
X20389771Y13330016D01*
X20276055Y13387957D01*
X20242605Y13393255D01*
X20184626Y13402438D01*
X20184624Y13402438D01*
X20181708Y13402900D01*
X20118292Y13402900D01*
X20115376Y13402438D01*
X20115374Y13402438D01*
X20057395Y13393255D01*
X20023945Y13387957D01*
X19910229Y13330016D01*
X19819984Y13239771D01*
X19817296Y13234495D01*
X19817295Y13234494D01*
X19808086Y13216420D01*
X19762043Y13126055D01*
X19761117Y13120210D01*
X19761117Y13120209D01*
X19755281Y13083363D01*
X19730342Y13038373D01*
X19682319Y13019939D01*
X19633682Y13036687D01*
X19627833Y13041954D01*
X19589771Y13080016D01*
X19583203Y13083363D01*
X19532710Y13109090D01*
X19476055Y13137957D01*
X19445040Y13142869D01*
X19384626Y13152438D01*
X19384624Y13152438D01*
X19381708Y13152900D01*
X19318292Y13152900D01*
X19315376Y13152438D01*
X19315374Y13152438D01*
X19254960Y13142869D01*
X19223945Y13137957D01*
X19167290Y13109090D01*
X19115502Y13082703D01*
X19115501Y13082702D01*
X19110229Y13080016D01*
X19109807Y13079594D01*
X19062700Y13066085D01*
X19015707Y13087006D01*
X18993156Y13133240D01*
X18993786Y13153578D01*
X19004358Y13216420D01*
X19007919Y13237587D01*
X19008071Y13250000D01*
X19007659Y13252880D01*
X18988409Y13387296D01*
X18988408Y13387300D01*
X18987649Y13392599D01*
X18982966Y13402900D01*
X18945088Y13486207D01*
X18928026Y13523734D01*
X18923538Y13528943D01*
X18837487Y13628810D01*
X18837484Y13628813D01*
X18833993Y13632864D01*
X18829502Y13635775D01*
X18717604Y13708303D01*
X18717603Y13708303D01*
X18713111Y13711215D01*
X18624930Y13737587D01*
X18580232Y13750955D01*
X18580229Y13750955D01*
X18575098Y13752490D01*
X18569743Y13752523D01*
X18569741Y13752523D01*
X18504524Y13752921D01*
X18431047Y13753370D01*
X18425897Y13751898D01*
X18425896Y13751898D01*
X18386015Y13740500D01*
X18292539Y13713785D01*
X18288013Y13710929D01*
X18288010Y13710928D01*
X18180756Y13643255D01*
X18170709Y13636916D01*
X18163550Y13628810D01*
X18078897Y13532959D01*
X18078895Y13532956D01*
X18075351Y13528943D01*
X18060464Y13497235D01*
X18016406Y13403395D01*
X18014129Y13398546D01*
X18013305Y13393256D01*
X18013305Y13393255D01*
X18006366Y13348688D01*
X17991967Y13256207D01*
X17992661Y13250900D01*
X17992661Y13250897D01*
X17995732Y13227416D01*
X18010645Y13113370D01*
X18068662Y12981516D01*
X18072107Y12977418D01*
X18072108Y12977416D01*
X18077741Y12970715D01*
X18161354Y12871245D01*
X18183825Y12856287D01*
X18281270Y12791423D01*
X18279934Y12789417D01*
X18309544Y12759288D01*
X18313583Y12708007D01*
X18283714Y12666128D01*
X18241117Y12652900D01*
X12728100Y12652900D01*
X12679762Y12670493D01*
X12654042Y12715042D01*
X12652900Y12728100D01*
X12652900Y13506207D01*
X13491967Y13506207D01*
X13492661Y13500900D01*
X13492661Y13500897D01*
X13495394Y13480000D01*
X13510645Y13363370D01*
X13532928Y13312728D01*
X13557748Y13256321D01*
X13568662Y13231516D01*
X13572107Y13227418D01*
X13572108Y13227416D01*
X13601950Y13191915D01*
X13661354Y13121245D01*
X13781270Y13041423D01*
X13918769Y12998465D01*
X13992871Y12997107D01*
X14057436Y12995923D01*
X14057438Y12995923D01*
X14062798Y12995825D01*
X14067969Y12997235D01*
X14067971Y12997235D01*
X14156692Y13021423D01*
X14201779Y13033715D01*
X14259350Y13069064D01*
X14319970Y13106284D01*
X14319973Y13106286D01*
X14324539Y13109090D01*
X14334604Y13120209D01*
X14417612Y13211915D01*
X14421210Y13215890D01*
X14426795Y13227416D01*
X14481682Y13340704D01*
X14481682Y13340705D01*
X14484020Y13345530D01*
X14507919Y13487587D01*
X14508071Y13500000D01*
X14507659Y13502880D01*
X14488409Y13637296D01*
X14488408Y13637300D01*
X14487649Y13642599D01*
X14483586Y13651537D01*
X14445412Y13735495D01*
X14435995Y13756207D01*
X21991967Y13756207D01*
X21992661Y13750900D01*
X21992661Y13750897D01*
X21995732Y13727416D01*
X22010645Y13613370D01*
X22068662Y13481516D01*
X22072107Y13477418D01*
X22072108Y13477416D01*
X22080370Y13467587D01*
X22161354Y13371245D01*
X22281270Y13291423D01*
X22418769Y13248465D01*
X22492871Y13247107D01*
X22557436Y13245923D01*
X22557438Y13245923D01*
X22562798Y13245825D01*
X22567969Y13247235D01*
X22567971Y13247235D01*
X22662333Y13272961D01*
X22701779Y13283715D01*
X22762021Y13320704D01*
X22819970Y13356284D01*
X22819973Y13356286D01*
X22824539Y13359090D01*
X22921210Y13465890D01*
X22926795Y13477416D01*
X22981682Y13590704D01*
X22981682Y13590705D01*
X22984020Y13595530D01*
X23007919Y13737587D01*
X23008071Y13750000D01*
X23007659Y13752880D01*
X22988409Y13887296D01*
X22988408Y13887300D01*
X22987649Y13892599D01*
X22964848Y13942749D01*
X22947476Y13980955D01*
X22928026Y14023734D01*
X22923512Y14028973D01*
X22837487Y14128810D01*
X22837484Y14128813D01*
X22833993Y14132864D01*
X22829502Y14135775D01*
X22717604Y14208303D01*
X22717603Y14208303D01*
X22713111Y14211215D01*
X22614043Y14240843D01*
X22580232Y14250955D01*
X22580229Y14250955D01*
X22575098Y14252490D01*
X22569743Y14252523D01*
X22569741Y14252523D01*
X22504524Y14252921D01*
X22431047Y14253370D01*
X22425897Y14251898D01*
X22425896Y14251898D01*
X22387215Y14240843D01*
X22292539Y14213785D01*
X22288013Y14210929D01*
X22288010Y14210928D01*
X22180756Y14143255D01*
X22170709Y14136916D01*
X22163550Y14128810D01*
X22078897Y14032959D01*
X22078895Y14032956D01*
X22075351Y14028943D01*
X22070614Y14018853D01*
X22034028Y13940928D01*
X22014129Y13898546D01*
X22013305Y13893256D01*
X22013305Y13893255D01*
X22006622Y13850329D01*
X21991967Y13756207D01*
X14435995Y13756207D01*
X14428026Y13773734D01*
X14423538Y13778943D01*
X14337487Y13878810D01*
X14337484Y13878813D01*
X14333993Y13882864D01*
X14329502Y13885775D01*
X14217604Y13958303D01*
X14217603Y13958303D01*
X14213111Y13961215D01*
X14124930Y13987587D01*
X14080232Y14000955D01*
X14080229Y14000955D01*
X14075098Y14002490D01*
X14069743Y14002523D01*
X14069741Y14002523D01*
X14004524Y14002921D01*
X13931047Y14003370D01*
X13925897Y14001898D01*
X13925896Y14001898D01*
X13886015Y13990500D01*
X13792539Y13963785D01*
X13788013Y13960929D01*
X13788010Y13960928D01*
X13680756Y13893255D01*
X13670709Y13886916D01*
X13663550Y13878810D01*
X13578897Y13782959D01*
X13578895Y13782956D01*
X13575351Y13778943D01*
X13564676Y13756207D01*
X13517052Y13654771D01*
X13514129Y13648546D01*
X13513305Y13643256D01*
X13513305Y13643255D01*
X13505942Y13595963D01*
X13491967Y13506207D01*
X12652900Y13506207D01*
X12652900Y14756207D01*
X32491967Y14756207D01*
X32492661Y14750900D01*
X32492661Y14750897D01*
X32493159Y14747091D01*
X32510645Y14613370D01*
X32552580Y14518065D01*
X32559061Y14503337D01*
X32568662Y14481516D01*
X32572107Y14477418D01*
X32572108Y14477416D01*
X32625923Y14413396D01*
X32661354Y14371245D01*
X32781270Y14291423D01*
X32918769Y14248465D01*
X32992871Y14247107D01*
X33057436Y14245923D01*
X33057438Y14245923D01*
X33062798Y14245825D01*
X33067969Y14247235D01*
X33067971Y14247235D01*
X33155239Y14271027D01*
X33201779Y14283715D01*
X33254871Y14316314D01*
X33319970Y14356284D01*
X33319973Y14356286D01*
X33324539Y14359090D01*
X33421210Y14465890D01*
X33426795Y14477416D01*
X33481682Y14590704D01*
X33481682Y14590705D01*
X33484020Y14595530D01*
X33507919Y14737587D01*
X33508071Y14750000D01*
X33507659Y14752880D01*
X33488409Y14887296D01*
X33488408Y14887300D01*
X33487649Y14892599D01*
X33428026Y15023734D01*
X33423538Y15028943D01*
X33337487Y15128810D01*
X33337484Y15128813D01*
X33333993Y15132864D01*
X33329502Y15135775D01*
X33217604Y15208303D01*
X33217603Y15208303D01*
X33213111Y15211215D01*
X33136912Y15234003D01*
X33080232Y15250955D01*
X33080229Y15250955D01*
X33075098Y15252490D01*
X33069743Y15252523D01*
X33069741Y15252523D01*
X33004524Y15252921D01*
X32931047Y15253370D01*
X32925897Y15251898D01*
X32925896Y15251898D01*
X32861793Y15233577D01*
X32792539Y15213785D01*
X32788013Y15210929D01*
X32788010Y15210928D01*
X32675237Y15139773D01*
X32670709Y15136916D01*
X32663550Y15128810D01*
X32578897Y15032959D01*
X32578895Y15032956D01*
X32575351Y15028943D01*
X32514129Y14898546D01*
X32491967Y14756207D01*
X12652900Y14756207D01*
X12652900Y16306207D01*
X16091967Y16306207D01*
X16092661Y16300900D01*
X16092661Y16300897D01*
X16097449Y16264285D01*
X16110645Y16163370D01*
X16168662Y16031516D01*
X16172107Y16027418D01*
X16172108Y16027416D01*
X16219770Y15970715D01*
X16261354Y15921245D01*
X16381270Y15841423D01*
X16518769Y15798465D01*
X16592871Y15797107D01*
X16657436Y15795923D01*
X16657438Y15795923D01*
X16662798Y15795825D01*
X16667969Y15797235D01*
X16667971Y15797235D01*
X16743695Y15817880D01*
X16801779Y15833715D01*
X16858738Y15868688D01*
X16919970Y15906284D01*
X16919973Y15906286D01*
X16924539Y15909090D01*
X16992994Y15984717D01*
X17017612Y16011915D01*
X17021210Y16015890D01*
X17026795Y16027416D01*
X17081682Y16140704D01*
X17081682Y16140705D01*
X17084020Y16145530D01*
X17102640Y16256207D01*
X19741967Y16256207D01*
X19742661Y16250900D01*
X19742661Y16250897D01*
X19743159Y16247091D01*
X19760645Y16113370D01*
X19818662Y15981516D01*
X19822107Y15977418D01*
X19822108Y15977416D01*
X19861842Y15930147D01*
X19911354Y15871245D01*
X19951694Y15844393D01*
X20022539Y15797235D01*
X20031270Y15791423D01*
X20168769Y15748465D01*
X20242871Y15747107D01*
X20307436Y15745923D01*
X20307438Y15745923D01*
X20312798Y15745825D01*
X20317969Y15747235D01*
X20317971Y15747235D01*
X20409501Y15772189D01*
X20451779Y15783715D01*
X20537779Y15836519D01*
X20569970Y15856284D01*
X20569973Y15856286D01*
X20574539Y15859090D01*
X20602642Y15890137D01*
X20667612Y15961915D01*
X20671210Y15965890D01*
X20676795Y15977416D01*
X20690744Y16006207D01*
X21241967Y16006207D01*
X21242661Y16000900D01*
X21242661Y16000897D01*
X21245732Y15977416D01*
X21260645Y15863370D01*
X21318662Y15731516D01*
X21322107Y15727418D01*
X21322108Y15727416D01*
X21331797Y15715890D01*
X21411354Y15621245D01*
X21531270Y15541423D01*
X21668769Y15498465D01*
X21742871Y15497107D01*
X21807436Y15495923D01*
X21807438Y15495923D01*
X21812798Y15495825D01*
X21817969Y15497235D01*
X21817971Y15497235D01*
X21935786Y15529355D01*
X21951779Y15533715D01*
X22004871Y15566314D01*
X22069970Y15606284D01*
X22069973Y15606286D01*
X22074539Y15609090D01*
X22171210Y15715890D01*
X22181127Y15736359D01*
X22218037Y15772189D01*
X22269342Y15775911D01*
X22311036Y15745784D01*
X22313903Y15740598D01*
X22316504Y15736420D01*
X22318662Y15731516D01*
X22322107Y15727418D01*
X22322108Y15727416D01*
X22331797Y15715890D01*
X22411354Y15621245D01*
X22531270Y15541423D01*
X22668769Y15498465D01*
X22742871Y15497107D01*
X22807436Y15495923D01*
X22807438Y15495923D01*
X22812798Y15495825D01*
X22817969Y15497235D01*
X22817971Y15497235D01*
X22935786Y15529355D01*
X22951779Y15533715D01*
X23004871Y15566314D01*
X23069970Y15606284D01*
X23069973Y15606286D01*
X23074539Y15609090D01*
X23171210Y15715890D01*
X23176795Y15727416D01*
X23231682Y15840704D01*
X23231682Y15840705D01*
X23234020Y15845530D01*
X23257919Y15987587D01*
X23258071Y16000000D01*
X23257659Y16002880D01*
X23238409Y16137296D01*
X23238408Y16137300D01*
X23237649Y16142599D01*
X23230438Y16158460D01*
X23187508Y16252880D01*
X23178026Y16273734D01*
X23173538Y16278943D01*
X23087487Y16378810D01*
X23087484Y16378813D01*
X23083993Y16382864D01*
X23079502Y16385775D01*
X22967604Y16458303D01*
X22967603Y16458303D01*
X22963111Y16461215D01*
X22886912Y16484003D01*
X22830232Y16500955D01*
X22830229Y16500955D01*
X22825098Y16502490D01*
X22819743Y16502523D01*
X22819741Y16502523D01*
X22754524Y16502921D01*
X22681047Y16503370D01*
X22675897Y16501898D01*
X22675896Y16501898D01*
X22669255Y16500000D01*
X22542539Y16463785D01*
X22538013Y16460929D01*
X22538010Y16460928D01*
X22430756Y16393255D01*
X22420709Y16386916D01*
X22413550Y16378810D01*
X22328897Y16282959D01*
X22328895Y16282956D01*
X22325351Y16278943D01*
X22323075Y16274096D01*
X22323072Y16274091D01*
X22318468Y16264285D01*
X22281998Y16228008D01*
X22230742Y16223660D01*
X22188684Y16253276D01*
X22181946Y16265112D01*
X22178026Y16273734D01*
X22173538Y16278943D01*
X22087487Y16378810D01*
X22087484Y16378813D01*
X22083993Y16382864D01*
X22079502Y16385775D01*
X21967604Y16458303D01*
X21967603Y16458303D01*
X21963111Y16461215D01*
X21886912Y16484003D01*
X21830232Y16500955D01*
X21830229Y16500955D01*
X21825098Y16502490D01*
X21819743Y16502523D01*
X21819741Y16502523D01*
X21754524Y16502921D01*
X21681047Y16503370D01*
X21675897Y16501898D01*
X21675896Y16501898D01*
X21669255Y16500000D01*
X21542539Y16463785D01*
X21538013Y16460929D01*
X21538010Y16460928D01*
X21430756Y16393255D01*
X21420709Y16386916D01*
X21413550Y16378810D01*
X21328897Y16282959D01*
X21328895Y16282956D01*
X21325351Y16278943D01*
X21314676Y16256207D01*
X21268784Y16158460D01*
X21264129Y16148546D01*
X21263305Y16143256D01*
X21263305Y16143255D01*
X21255942Y16095963D01*
X21241967Y16006207D01*
X20690744Y16006207D01*
X20731682Y16090704D01*
X20731682Y16090705D01*
X20734020Y16095530D01*
X20757919Y16237587D01*
X20758071Y16250000D01*
X20757602Y16253276D01*
X20738409Y16387296D01*
X20738408Y16387300D01*
X20737649Y16392599D01*
X20707776Y16458303D01*
X20682101Y16514772D01*
X37342108Y16514772D01*
X37342416Y16511104D01*
X37342416Y16511101D01*
X37353525Y16378810D01*
X37359386Y16309012D01*
X37416301Y16110526D01*
X37510685Y15926875D01*
X37638942Y15765055D01*
X37641736Y15762677D01*
X37641737Y15762676D01*
X37701381Y15711915D01*
X37796188Y15631228D01*
X37799389Y15629439D01*
X37799392Y15629437D01*
X37819361Y15618277D01*
X37976433Y15530493D01*
X37979934Y15529356D01*
X37979935Y15529355D01*
X38021376Y15515890D01*
X38172811Y15466686D01*
X38244999Y15458078D01*
X38374185Y15442673D01*
X38374187Y15442673D01*
X38377843Y15442237D01*
X38583719Y15458078D01*
X38723963Y15497235D01*
X38779052Y15512616D01*
X38779054Y15512617D01*
X38782597Y15513606D01*
X38966902Y15606705D01*
X39112828Y15720715D01*
X39126715Y15731565D01*
X39129614Y15733830D01*
X39192088Y15806207D01*
X41991967Y15806207D01*
X41992661Y15800900D01*
X41992661Y15800897D01*
X41996415Y15772189D01*
X42010645Y15663370D01*
X42036308Y15605046D01*
X42066461Y15536519D01*
X42068662Y15531516D01*
X42072107Y15527418D01*
X42072108Y15527416D01*
X42097478Y15497235D01*
X42161354Y15421245D01*
X42281270Y15341423D01*
X42418769Y15298465D01*
X42492871Y15297107D01*
X42557436Y15295923D01*
X42557438Y15295923D01*
X42562798Y15295825D01*
X42567969Y15297235D01*
X42567971Y15297235D01*
X42643695Y15317880D01*
X42701779Y15333715D01*
X42754871Y15366314D01*
X42819970Y15406284D01*
X42819973Y15406286D01*
X42824539Y15409090D01*
X42854799Y15442520D01*
X42917612Y15511915D01*
X42921210Y15515890D01*
X42926795Y15527416D01*
X42981682Y15640704D01*
X42981682Y15640705D01*
X42984020Y15645530D01*
X43007919Y15787587D01*
X43008071Y15800000D01*
X43007659Y15802880D01*
X42988409Y15937296D01*
X42988408Y15937300D01*
X42987649Y15942599D01*
X42977060Y15965890D01*
X42947221Y16031516D01*
X42928026Y16073734D01*
X42923538Y16078943D01*
X42837487Y16178810D01*
X42837484Y16178813D01*
X42833993Y16182864D01*
X42829502Y16185775D01*
X42717604Y16258303D01*
X42717603Y16258303D01*
X42713111Y16261215D01*
X42624930Y16287587D01*
X42580232Y16300955D01*
X42580229Y16300955D01*
X42575098Y16302490D01*
X42569743Y16302523D01*
X42569741Y16302523D01*
X42504524Y16302921D01*
X42431047Y16303370D01*
X42425897Y16301898D01*
X42425896Y16301898D01*
X42386015Y16290500D01*
X42292539Y16263785D01*
X42288013Y16260929D01*
X42288010Y16260928D01*
X42175237Y16189773D01*
X42170709Y16186916D01*
X42163550Y16178810D01*
X42078897Y16082959D01*
X42078895Y16082956D01*
X42075351Y16078943D01*
X42072636Y16073160D01*
X42027684Y15977416D01*
X42014129Y15948546D01*
X41991967Y15806207D01*
X39192088Y15806207D01*
X39264535Y15890137D01*
X39310310Y15970715D01*
X39364711Y16066478D01*
X39364712Y16066479D01*
X39366527Y16069675D01*
X39431703Y16265603D01*
X39436049Y16300000D01*
X39457319Y16468370D01*
X39457583Y16470459D01*
X39457995Y16500000D01*
X39456188Y16518434D01*
X39438206Y16701832D01*
X39438205Y16701837D01*
X39437846Y16705499D01*
X39399950Y16831016D01*
X39402821Y16882375D01*
X39438034Y16919873D01*
X39489112Y16925964D01*
X39532406Y16896651D01*
X39532562Y16896782D01*
X39533022Y16896234D01*
X39533540Y16895883D01*
X39536557Y16891575D01*
X39691575Y16736557D01*
X39871157Y16610812D01*
X39874134Y16609424D01*
X40066866Y16519551D01*
X40066872Y16519549D01*
X40069846Y16518162D01*
X40073017Y16517312D01*
X40073018Y16517312D01*
X40096198Y16511101D01*
X40281605Y16461421D01*
X40500000Y16442314D01*
X40718395Y16461421D01*
X40903802Y16511101D01*
X40926982Y16517312D01*
X40926983Y16517312D01*
X40930154Y16518162D01*
X40933128Y16519549D01*
X40933134Y16519551D01*
X41125866Y16609424D01*
X41128843Y16610812D01*
X41308425Y16736557D01*
X41463443Y16891575D01*
X41589188Y17071157D01*
X41632188Y17163370D01*
X41680449Y17266866D01*
X41680451Y17266872D01*
X41681838Y17269846D01*
X41738579Y17481605D01*
X41757686Y17700000D01*
X41738579Y17918395D01*
X41681838Y18130154D01*
X41680451Y18133128D01*
X41680449Y18133134D01*
X41612783Y18278244D01*
X41589188Y18328843D01*
X41463443Y18508425D01*
X41308425Y18663443D01*
X41128843Y18789188D01*
X41066461Y18818277D01*
X40933134Y18880449D01*
X40933128Y18880451D01*
X40930154Y18881838D01*
X40926180Y18882903D01*
X40887545Y18893255D01*
X40718395Y18938579D01*
X40500000Y18957686D01*
X40281605Y18938579D01*
X40112455Y18893255D01*
X40073821Y18882903D01*
X40069846Y18881838D01*
X40066872Y18880451D01*
X40066866Y18880449D01*
X39933539Y18818277D01*
X39871157Y18789188D01*
X39691575Y18663443D01*
X39536557Y18508425D01*
X39410812Y18328843D01*
X39387217Y18278244D01*
X39319551Y18133134D01*
X39319549Y18133128D01*
X39318162Y18130154D01*
X39261421Y17918395D01*
X39242314Y17700000D01*
X39261421Y17481605D01*
X39317594Y17271966D01*
X39318162Y17269846D01*
X39317594Y17269694D01*
X39317597Y17220802D01*
X39284535Y17181395D01*
X39233877Y17172460D01*
X39188655Y17198989D01*
X39153045Y17242651D01*
X39153044Y17242652D01*
X39150722Y17245499D01*
X38991623Y17377118D01*
X38809990Y17475327D01*
X38612739Y17536386D01*
X38484065Y17549910D01*
X38411041Y17557585D01*
X38411039Y17557585D01*
X38407386Y17557969D01*
X38201752Y17539255D01*
X38102710Y17510105D01*
X38007197Y17481995D01*
X38007194Y17481994D01*
X38003668Y17480956D01*
X38000411Y17479253D01*
X38000408Y17479252D01*
X37823940Y17386996D01*
X37820681Y17385292D01*
X37817815Y17382987D01*
X37817814Y17382987D01*
X37699160Y17287587D01*
X37659760Y17255909D01*
X37527034Y17097732D01*
X37427559Y16916789D01*
X37365125Y16719970D01*
X37342108Y16514772D01*
X20682101Y16514772D01*
X20680245Y16518853D01*
X20678026Y16523734D01*
X20673538Y16528943D01*
X20587487Y16628810D01*
X20587484Y16628813D01*
X20583993Y16632864D01*
X20579502Y16635775D01*
X20467604Y16708303D01*
X20467603Y16708303D01*
X20463111Y16711215D01*
X20367450Y16739824D01*
X20330232Y16750955D01*
X20330229Y16750955D01*
X20325098Y16752490D01*
X20319743Y16752523D01*
X20319741Y16752523D01*
X20254524Y16752921D01*
X20181047Y16753370D01*
X20175897Y16751898D01*
X20175896Y16751898D01*
X20130364Y16738885D01*
X20042539Y16713785D01*
X20038013Y16710929D01*
X20038010Y16710928D01*
X19925237Y16639773D01*
X19920709Y16636916D01*
X19913550Y16628810D01*
X19828897Y16532959D01*
X19828895Y16532956D01*
X19825351Y16528943D01*
X19820614Y16518853D01*
X19784813Y16442600D01*
X19764129Y16398546D01*
X19763305Y16393256D01*
X19763305Y16393255D01*
X19761693Y16382903D01*
X19741967Y16256207D01*
X17102640Y16256207D01*
X17107919Y16287587D01*
X17108071Y16300000D01*
X17107659Y16302880D01*
X17088409Y16437296D01*
X17088408Y16437300D01*
X17087649Y16442599D01*
X17079316Y16460928D01*
X17030245Y16568853D01*
X17028026Y16573734D01*
X17023538Y16578943D01*
X16937487Y16678810D01*
X16937484Y16678813D01*
X16933993Y16682864D01*
X16929503Y16685774D01*
X16925461Y16689300D01*
X16926695Y16690714D01*
X16900314Y16725660D01*
X16902962Y16777032D01*
X16938011Y16814683D01*
X16952430Y16820261D01*
X16996608Y16832305D01*
X16996610Y16832306D01*
X17001779Y16833715D01*
X17066733Y16873597D01*
X17119970Y16906284D01*
X17119973Y16906286D01*
X17124539Y16909090D01*
X17135062Y16920715D01*
X17217612Y17011915D01*
X17221210Y17015890D01*
X17226795Y17027416D01*
X17281682Y17140704D01*
X17281682Y17140705D01*
X17284020Y17145530D01*
X17294228Y17206207D01*
X23991967Y17206207D01*
X23992661Y17200900D01*
X23992661Y17200897D01*
X23999210Y17150816D01*
X24010645Y17063370D01*
X24068662Y16931516D01*
X24072107Y16927418D01*
X24072108Y16927416D01*
X24109969Y16882375D01*
X24161354Y16821245D01*
X24195576Y16798465D01*
X24264595Y16752523D01*
X24281270Y16741423D01*
X24418769Y16698465D01*
X24492871Y16697107D01*
X24557436Y16695923D01*
X24557438Y16695923D01*
X24562798Y16695825D01*
X24567969Y16697235D01*
X24567971Y16697235D01*
X24672233Y16725660D01*
X24701779Y16733715D01*
X24785370Y16785040D01*
X24819970Y16806284D01*
X24819973Y16806286D01*
X24824539Y16809090D01*
X24921210Y16915890D01*
X24923805Y16921245D01*
X24981682Y17040704D01*
X24981682Y17040705D01*
X24984020Y17045530D01*
X25007919Y17187587D01*
X25008071Y17200000D01*
X25007659Y17202880D01*
X25007183Y17206207D01*
X25491967Y17206207D01*
X25492661Y17200900D01*
X25492661Y17200897D01*
X25499210Y17150816D01*
X25510645Y17063370D01*
X25568662Y16931516D01*
X25572107Y16927418D01*
X25572108Y16927416D01*
X25609969Y16882375D01*
X25661354Y16821245D01*
X25695576Y16798465D01*
X25764595Y16752523D01*
X25781270Y16741423D01*
X25918769Y16698465D01*
X25992871Y16697107D01*
X26057436Y16695923D01*
X26057438Y16695923D01*
X26062798Y16695825D01*
X26067969Y16697235D01*
X26067971Y16697235D01*
X26172233Y16725660D01*
X26201779Y16733715D01*
X26285370Y16785040D01*
X26319970Y16806284D01*
X26319973Y16806286D01*
X26324539Y16809090D01*
X26421210Y16915890D01*
X26483534Y17044527D01*
X26520440Y17080354D01*
X26571745Y17084077D01*
X26613440Y17053951D01*
X26620037Y17042024D01*
X26668662Y16931516D01*
X26672107Y16927418D01*
X26672108Y16927416D01*
X26709969Y16882375D01*
X26761354Y16821245D01*
X26795576Y16798465D01*
X26864595Y16752523D01*
X26881270Y16741423D01*
X27018769Y16698465D01*
X27092871Y16697107D01*
X27157436Y16695923D01*
X27157438Y16695923D01*
X27162798Y16695825D01*
X27167969Y16697235D01*
X27167971Y16697235D01*
X27272233Y16725660D01*
X27301779Y16733715D01*
X27385370Y16785040D01*
X27419970Y16806284D01*
X27419973Y16806286D01*
X27424539Y16809090D01*
X27521210Y16915890D01*
X27523805Y16921245D01*
X27581682Y17040704D01*
X27581682Y17040705D01*
X27584020Y17045530D01*
X27607919Y17187587D01*
X27608071Y17200000D01*
X27607659Y17202880D01*
X27588409Y17337296D01*
X27588408Y17337300D01*
X27587649Y17342599D01*
X27578344Y17363066D01*
X27530245Y17468853D01*
X27528026Y17473734D01*
X27524528Y17477794D01*
X27437487Y17578810D01*
X27437484Y17578813D01*
X27433993Y17582864D01*
X27429502Y17585775D01*
X27317604Y17658303D01*
X27317603Y17658303D01*
X27313111Y17661215D01*
X27230989Y17685775D01*
X27180232Y17700955D01*
X27180229Y17700955D01*
X27175098Y17702490D01*
X27169743Y17702523D01*
X27169741Y17702523D01*
X27104524Y17702921D01*
X27031047Y17703370D01*
X27025897Y17701898D01*
X27025896Y17701898D01*
X27019255Y17700000D01*
X26892539Y17663785D01*
X26888013Y17660929D01*
X26888010Y17660928D01*
X26812636Y17613370D01*
X26770709Y17586916D01*
X26763668Y17578943D01*
X26678897Y17482959D01*
X26678895Y17482956D01*
X26675351Y17478943D01*
X26673075Y17474095D01*
X26673073Y17474092D01*
X26617667Y17356082D01*
X26581198Y17319804D01*
X26529942Y17315455D01*
X26487883Y17345070D01*
X26481140Y17356916D01*
X26430245Y17468853D01*
X26428026Y17473734D01*
X26424528Y17477794D01*
X26337487Y17578810D01*
X26337484Y17578813D01*
X26333993Y17582864D01*
X26329502Y17585775D01*
X26217604Y17658303D01*
X26217603Y17658303D01*
X26213111Y17661215D01*
X26130989Y17685775D01*
X26080232Y17700955D01*
X26080229Y17700955D01*
X26075098Y17702490D01*
X26069743Y17702523D01*
X26069741Y17702523D01*
X26004524Y17702921D01*
X25931047Y17703370D01*
X25925897Y17701898D01*
X25925896Y17701898D01*
X25919255Y17700000D01*
X25792539Y17663785D01*
X25788013Y17660929D01*
X25788010Y17660928D01*
X25712636Y17613370D01*
X25670709Y17586916D01*
X25663668Y17578943D01*
X25578897Y17482959D01*
X25578895Y17482956D01*
X25575351Y17478943D01*
X25514129Y17348546D01*
X25513305Y17343256D01*
X25513305Y17343255D01*
X25507537Y17306207D01*
X25491967Y17206207D01*
X25007183Y17206207D01*
X24988409Y17337296D01*
X24988408Y17337300D01*
X24987649Y17342599D01*
X24978344Y17363066D01*
X24930245Y17468853D01*
X24928026Y17473734D01*
X24924528Y17477794D01*
X24837487Y17578810D01*
X24837484Y17578813D01*
X24833993Y17582864D01*
X24829502Y17585775D01*
X24717604Y17658303D01*
X24717603Y17658303D01*
X24713111Y17661215D01*
X24630989Y17685775D01*
X24580232Y17700955D01*
X24580229Y17700955D01*
X24575098Y17702490D01*
X24569743Y17702523D01*
X24569741Y17702523D01*
X24504524Y17702921D01*
X24431047Y17703370D01*
X24425897Y17701898D01*
X24425896Y17701898D01*
X24419255Y17700000D01*
X24292539Y17663785D01*
X24288013Y17660929D01*
X24288010Y17660928D01*
X24212636Y17613370D01*
X24170709Y17586916D01*
X24163668Y17578943D01*
X24078897Y17482959D01*
X24078895Y17482956D01*
X24075351Y17478943D01*
X24014129Y17348546D01*
X24013305Y17343256D01*
X24013305Y17343255D01*
X24007537Y17306207D01*
X23991967Y17206207D01*
X17294228Y17206207D01*
X17307919Y17287587D01*
X17308071Y17300000D01*
X17307659Y17302880D01*
X17288409Y17437296D01*
X17288408Y17437300D01*
X17287649Y17442599D01*
X17277060Y17465890D01*
X17244175Y17538216D01*
X17228026Y17573734D01*
X17224528Y17577794D01*
X17137487Y17678810D01*
X17137484Y17678813D01*
X17133993Y17682864D01*
X17129502Y17685775D01*
X17017604Y17758303D01*
X17017603Y17758303D01*
X17013111Y17761215D01*
X16936912Y17784003D01*
X16880232Y17800955D01*
X16880229Y17800955D01*
X16875098Y17802490D01*
X16869743Y17802523D01*
X16869741Y17802523D01*
X16804524Y17802921D01*
X16731047Y17803370D01*
X16725897Y17801898D01*
X16725896Y17801898D01*
X16661793Y17783578D01*
X16592539Y17763785D01*
X16588013Y17760929D01*
X16588010Y17760928D01*
X16495392Y17702490D01*
X16470709Y17686916D01*
X16463550Y17678810D01*
X16378897Y17582959D01*
X16378895Y17582956D01*
X16375351Y17578943D01*
X16355551Y17536770D01*
X16327684Y17477416D01*
X16314129Y17448546D01*
X16291967Y17306207D01*
X16292661Y17300900D01*
X16292661Y17300897D01*
X16298544Y17255909D01*
X16310645Y17163370D01*
X16368662Y17031516D01*
X16461354Y16921245D01*
X16465813Y16918277D01*
X16465814Y16918276D01*
X16470697Y16915026D01*
X16501188Y16873597D01*
X16497915Y16822262D01*
X16462411Y16785040D01*
X16449694Y16780120D01*
X16392539Y16763785D01*
X16388013Y16760929D01*
X16388010Y16760928D01*
X16284984Y16695923D01*
X16270709Y16686916D01*
X16263550Y16678810D01*
X16178897Y16582959D01*
X16178895Y16582956D01*
X16175351Y16578943D01*
X16170614Y16568853D01*
X16120040Y16461135D01*
X16114129Y16448546D01*
X16113305Y16443256D01*
X16113305Y16443255D01*
X16112377Y16437296D01*
X16091967Y16306207D01*
X12652900Y16306207D01*
X12652900Y18756207D01*
X18741967Y18756207D01*
X18742661Y18750900D01*
X18742661Y18750897D01*
X18743159Y18747091D01*
X18760645Y18613370D01*
X18818662Y18481516D01*
X18911354Y18371245D01*
X19031270Y18291423D01*
X19168769Y18248465D01*
X19242871Y18247107D01*
X19307436Y18245923D01*
X19307438Y18245923D01*
X19312798Y18245825D01*
X19317969Y18247235D01*
X19317971Y18247235D01*
X19393890Y18267933D01*
X19451779Y18283715D01*
X19529658Y18331533D01*
X19569970Y18356284D01*
X19569973Y18356286D01*
X19574539Y18359090D01*
X19602642Y18390137D01*
X19667612Y18461915D01*
X19671210Y18465890D01*
X19676795Y18477416D01*
X19690744Y18506207D01*
X27991967Y18506207D01*
X27992661Y18500900D01*
X27992661Y18500897D01*
X27995732Y18477416D01*
X28010645Y18363370D01*
X28027147Y18325866D01*
X28059061Y18253337D01*
X28068662Y18231516D01*
X28072107Y18227418D01*
X28072108Y18227416D01*
X28088174Y18208303D01*
X28161354Y18121245D01*
X28281270Y18041423D01*
X28418769Y17998465D01*
X28492871Y17997107D01*
X28557436Y17995923D01*
X28557438Y17995923D01*
X28562798Y17995825D01*
X28567969Y17997235D01*
X28567971Y17997235D01*
X28689041Y18030242D01*
X28740305Y18025982D01*
X28776836Y17989768D01*
X28781543Y17938544D01*
X28776892Y17925730D01*
X28764129Y17898546D01*
X28741967Y17756207D01*
X28742661Y17750900D01*
X28742661Y17750897D01*
X28748889Y17703269D01*
X28760645Y17613370D01*
X28818662Y17481516D01*
X28822107Y17477418D01*
X28822108Y17477416D01*
X28875923Y17413396D01*
X28911354Y17371245D01*
X29031270Y17291423D01*
X29168769Y17248465D01*
X29242871Y17247107D01*
X29307436Y17245923D01*
X29307438Y17245923D01*
X29312798Y17245825D01*
X29317969Y17247235D01*
X29317971Y17247235D01*
X29400907Y17269846D01*
X29451779Y17283715D01*
X29510556Y17319804D01*
X29569970Y17356284D01*
X29569973Y17356286D01*
X29574539Y17359090D01*
X29671210Y17465890D01*
X29674936Y17473579D01*
X29731682Y17590704D01*
X29731682Y17590705D01*
X29734020Y17595530D01*
X29757919Y17737587D01*
X29758071Y17750000D01*
X29757659Y17752880D01*
X29738409Y17887296D01*
X29738408Y17887300D01*
X29737649Y17892599D01*
X29725921Y17918395D01*
X29690074Y17997235D01*
X29678026Y18023734D01*
X29673183Y18029355D01*
X29587487Y18128810D01*
X29587484Y18128813D01*
X29583993Y18132864D01*
X29579502Y18135775D01*
X29467604Y18208303D01*
X29467603Y18208303D01*
X29463111Y18211215D01*
X29378180Y18236615D01*
X29330232Y18250955D01*
X29330229Y18250955D01*
X29325098Y18252490D01*
X29319743Y18252523D01*
X29319741Y18252523D01*
X29254524Y18252921D01*
X29181047Y18253370D01*
X29175897Y18251898D01*
X29175896Y18251898D01*
X29062164Y18219394D01*
X29010853Y18223027D01*
X28973882Y18258793D01*
X28968550Y18309956D01*
X28973822Y18324481D01*
X28984020Y18345530D01*
X29007919Y18487587D01*
X29008071Y18500000D01*
X29007659Y18502880D01*
X28988409Y18637296D01*
X28988408Y18637300D01*
X28987649Y18642599D01*
X28979231Y18661115D01*
X28945766Y18734717D01*
X28928026Y18773734D01*
X28923538Y18778943D01*
X28837487Y18878810D01*
X28837484Y18878813D01*
X28833993Y18882864D01*
X28829502Y18885775D01*
X28717604Y18958303D01*
X28717603Y18958303D01*
X28713111Y18961215D01*
X28636912Y18984003D01*
X28580232Y19000955D01*
X28580229Y19000955D01*
X28575098Y19002490D01*
X28569743Y19002523D01*
X28569741Y19002523D01*
X28504524Y19002921D01*
X28431047Y19003370D01*
X28425897Y19001898D01*
X28425896Y19001898D01*
X28419255Y19000000D01*
X28292539Y18963785D01*
X28288013Y18960929D01*
X28288010Y18960928D01*
X28180756Y18893255D01*
X28170709Y18886916D01*
X28166975Y18882688D01*
X28078897Y18782959D01*
X28078895Y18782956D01*
X28075351Y18778943D01*
X28014129Y18648546D01*
X28013305Y18643256D01*
X28013305Y18643255D01*
X28005942Y18595963D01*
X27991967Y18506207D01*
X19690744Y18506207D01*
X19731682Y18590704D01*
X19731682Y18590705D01*
X19734020Y18595530D01*
X19757919Y18737587D01*
X19758071Y18750000D01*
X19757659Y18752880D01*
X19738409Y18887296D01*
X19738408Y18887300D01*
X19737649Y18892599D01*
X19727060Y18915890D01*
X19680245Y19018853D01*
X19678026Y19023734D01*
X19673538Y19028943D01*
X19587487Y19128810D01*
X19587484Y19128813D01*
X19583993Y19132864D01*
X19579502Y19135775D01*
X19467604Y19208303D01*
X19467603Y19208303D01*
X19463111Y19211215D01*
X19386912Y19234003D01*
X19330232Y19250955D01*
X19330229Y19250955D01*
X19325098Y19252490D01*
X19319743Y19252523D01*
X19319741Y19252523D01*
X19254524Y19252921D01*
X19181047Y19253370D01*
X19175897Y19251898D01*
X19175896Y19251898D01*
X19111793Y19233578D01*
X19042539Y19213785D01*
X19038013Y19210929D01*
X19038010Y19210928D01*
X18925237Y19139773D01*
X18920709Y19136916D01*
X18913550Y19128810D01*
X18828897Y19032959D01*
X18828895Y19032956D01*
X18825351Y19028943D01*
X18820614Y19018853D01*
X18777684Y18927416D01*
X18764129Y18898546D01*
X18763305Y18893256D01*
X18763305Y18893255D01*
X18761311Y18880449D01*
X18741967Y18756207D01*
X12652900Y18756207D01*
X12652900Y19906207D01*
X24391967Y19906207D01*
X24392661Y19900900D01*
X24392661Y19900897D01*
X24398317Y19857645D01*
X24410645Y19763370D01*
X24468662Y19631516D01*
X24472107Y19627418D01*
X24472108Y19627416D01*
X24494694Y19600547D01*
X24561354Y19521245D01*
X24681270Y19441423D01*
X24818769Y19398465D01*
X24892871Y19397107D01*
X24957436Y19395923D01*
X24957438Y19395923D01*
X24962798Y19395825D01*
X24978350Y19400065D01*
X25016592Y19410490D01*
X25067855Y19406230D01*
X25104386Y19370015D01*
X25110676Y19326369D01*
X25091967Y19206207D01*
X25092661Y19200900D01*
X25092661Y19200897D01*
X25093159Y19197091D01*
X25110645Y19063370D01*
X25168662Y18931516D01*
X25172107Y18927418D01*
X25172108Y18927416D01*
X25211588Y18880449D01*
X25261354Y18821245D01*
X25279732Y18809012D01*
X25350182Y18762117D01*
X25381270Y18741423D01*
X25518769Y18698465D01*
X25592871Y18697107D01*
X25657436Y18695923D01*
X25657438Y18695923D01*
X25662798Y18695825D01*
X25667969Y18697235D01*
X25667971Y18697235D01*
X25743695Y18717880D01*
X25801779Y18733715D01*
X25881981Y18782959D01*
X25919970Y18806284D01*
X25919973Y18806286D01*
X25924539Y18809090D01*
X26021210Y18915890D01*
X26026795Y18927416D01*
X26069118Y19014772D01*
X37342108Y19014772D01*
X37342416Y19011104D01*
X37342416Y19011101D01*
X37353199Y18882688D01*
X37359386Y18809012D01*
X37416301Y18610526D01*
X37510685Y18426875D01*
X37638942Y18265055D01*
X37641736Y18262677D01*
X37641737Y18262676D01*
X37699184Y18213785D01*
X37796188Y18131228D01*
X37799389Y18129439D01*
X37799392Y18129437D01*
X37819361Y18118277D01*
X37976433Y18030493D01*
X37979934Y18029356D01*
X37979935Y18029355D01*
X37990316Y18025982D01*
X38172811Y17966686D01*
X38244999Y17958078D01*
X38374185Y17942673D01*
X38374187Y17942673D01*
X38377843Y17942237D01*
X38583719Y17958078D01*
X38723963Y17997235D01*
X38779052Y18012616D01*
X38779054Y18012617D01*
X38782597Y18013606D01*
X38966902Y18106705D01*
X39115787Y18223027D01*
X39126715Y18231565D01*
X39129614Y18233830D01*
X39264535Y18390137D01*
X39310310Y18470715D01*
X39364711Y18566478D01*
X39364712Y18566479D01*
X39366527Y18569675D01*
X39431703Y18765603D01*
X39438358Y18818277D01*
X39453448Y18937729D01*
X39457583Y18970459D01*
X39457995Y19000000D01*
X39456188Y19018434D01*
X39438206Y19201832D01*
X39438205Y19201837D01*
X39437846Y19205499D01*
X39378165Y19403171D01*
X39281227Y19585485D01*
X39258733Y19613066D01*
X39153045Y19742651D01*
X39153044Y19742652D01*
X39150722Y19745499D01*
X38991623Y19877118D01*
X38973364Y19886991D01*
X38937824Y19906207D01*
X38886689Y19933856D01*
X38852538Y19972322D01*
X38851592Y20006207D01*
X41991967Y20006207D01*
X41992661Y20000900D01*
X41992661Y20000897D01*
X41996333Y19972820D01*
X42010645Y19863370D01*
X42068662Y19731516D01*
X42072107Y19727418D01*
X42072108Y19727416D01*
X42125596Y19663785D01*
X42161354Y19621245D01*
X42281270Y19541423D01*
X42418769Y19498465D01*
X42492871Y19497107D01*
X42557436Y19495923D01*
X42557438Y19495923D01*
X42562798Y19495825D01*
X42567969Y19497235D01*
X42567971Y19497235D01*
X42671081Y19525346D01*
X42701779Y19533715D01*
X42754871Y19566314D01*
X42819970Y19606284D01*
X42819973Y19606286D01*
X42824539Y19609090D01*
X42921210Y19715890D01*
X42926795Y19727416D01*
X42981682Y19840704D01*
X42981682Y19840705D01*
X42984020Y19845530D01*
X43007919Y19987587D01*
X43008071Y20000000D01*
X43007659Y20002880D01*
X42988409Y20137296D01*
X42988408Y20137300D01*
X42987649Y20142599D01*
X42928026Y20273734D01*
X42924528Y20277794D01*
X42837487Y20378810D01*
X42837484Y20378813D01*
X42833993Y20382864D01*
X42829502Y20385775D01*
X42717604Y20458303D01*
X42717603Y20458303D01*
X42713111Y20461215D01*
X42614133Y20490816D01*
X42580232Y20500955D01*
X42580229Y20500955D01*
X42575098Y20502490D01*
X42569743Y20502523D01*
X42569741Y20502523D01*
X42504524Y20502921D01*
X42431047Y20503370D01*
X42425897Y20501898D01*
X42425896Y20501898D01*
X42371739Y20486420D01*
X42292539Y20463785D01*
X42288013Y20460929D01*
X42288010Y20460928D01*
X42195392Y20402490D01*
X42170709Y20386916D01*
X42164296Y20379655D01*
X42078897Y20282959D01*
X42078895Y20282956D01*
X42075351Y20278943D01*
X42059848Y20245923D01*
X42028401Y20178943D01*
X42014129Y20148546D01*
X42013305Y20143256D01*
X42013305Y20143255D01*
X42011154Y20129437D01*
X41991967Y20006207D01*
X38851592Y20006207D01*
X38851102Y20023742D01*
X38883053Y20064055D01*
X38888551Y20067127D01*
X38963618Y20105046D01*
X38963619Y20105047D01*
X38966902Y20106705D01*
X39129614Y20233830D01*
X39264535Y20390137D01*
X39266354Y20393339D01*
X39364711Y20566478D01*
X39364712Y20566479D01*
X39366527Y20569675D01*
X39431703Y20765603D01*
X39434602Y20788546D01*
X39457319Y20968370D01*
X39457583Y20970459D01*
X39457995Y21000000D01*
X39456151Y21018810D01*
X39438206Y21201832D01*
X39438205Y21201837D01*
X39437846Y21205499D01*
X39378165Y21403171D01*
X39281227Y21585485D01*
X39258733Y21613066D01*
X39153045Y21742651D01*
X39153044Y21742652D01*
X39150722Y21745499D01*
X38991623Y21877118D01*
X38809990Y21975327D01*
X38612739Y22036386D01*
X38484065Y22049910D01*
X38411041Y22057585D01*
X38411039Y22057585D01*
X38407386Y22057969D01*
X38201752Y22039255D01*
X38107438Y22011497D01*
X38007197Y21981995D01*
X38007194Y21981994D01*
X38003668Y21980956D01*
X38000411Y21979253D01*
X38000408Y21979252D01*
X37967246Y21961915D01*
X37820681Y21885292D01*
X37817815Y21882987D01*
X37817814Y21882987D01*
X37703931Y21791423D01*
X37659760Y21755909D01*
X37527034Y21597732D01*
X37427559Y21416789D01*
X37365125Y21219970D01*
X37342108Y21014772D01*
X37342416Y21011104D01*
X37342416Y21011101D01*
X37355036Y20860813D01*
X37359386Y20809012D01*
X37380690Y20734717D01*
X37412634Y20623316D01*
X37416301Y20610526D01*
X37510685Y20426875D01*
X37638942Y20265055D01*
X37641736Y20262677D01*
X37641737Y20262676D01*
X37683774Y20226900D01*
X37796188Y20131228D01*
X37799389Y20129439D01*
X37799392Y20129437D01*
X37913988Y20065392D01*
X37947600Y20026452D01*
X37948318Y19975017D01*
X37912143Y19933108D01*
X37820681Y19885292D01*
X37817815Y19882987D01*
X37817814Y19882987D01*
X37662933Y19758460D01*
X37659760Y19755909D01*
X37527034Y19597732D01*
X37525263Y19594510D01*
X37525262Y19594509D01*
X37520301Y19585485D01*
X37427559Y19416789D01*
X37365125Y19219970D01*
X37342108Y19014772D01*
X26069118Y19014772D01*
X26081682Y19040704D01*
X26081682Y19040705D01*
X26084020Y19045530D01*
X26107919Y19187587D01*
X26108071Y19200000D01*
X26107659Y19202880D01*
X26088409Y19337296D01*
X26088408Y19337300D01*
X26087649Y19342599D01*
X26062249Y19398465D01*
X26030245Y19468853D01*
X26028026Y19473734D01*
X26008907Y19495923D01*
X25937487Y19578810D01*
X25937484Y19578813D01*
X25933993Y19582864D01*
X25879357Y19618277D01*
X25817604Y19658303D01*
X25817603Y19658303D01*
X25813111Y19661215D01*
X25736912Y19684003D01*
X25680232Y19700955D01*
X25680229Y19700955D01*
X25675098Y19702490D01*
X25669743Y19702523D01*
X25669741Y19702523D01*
X25604524Y19702921D01*
X25531047Y19703370D01*
X25483737Y19689849D01*
X25432428Y19693482D01*
X25395456Y19729247D01*
X25388916Y19774630D01*
X25403845Y19863370D01*
X25407919Y19887587D01*
X25408071Y19900000D01*
X25407659Y19902880D01*
X25388409Y20037296D01*
X25388408Y20037300D01*
X25387649Y20042599D01*
X25369767Y20081930D01*
X25330245Y20168853D01*
X25328026Y20173734D01*
X25323538Y20178943D01*
X25237487Y20278810D01*
X25237484Y20278813D01*
X25233993Y20282864D01*
X25228354Y20286519D01*
X25117604Y20358303D01*
X25117603Y20358303D01*
X25113111Y20361215D01*
X25030989Y20385775D01*
X24980232Y20400955D01*
X24980229Y20400955D01*
X24975098Y20402490D01*
X24969743Y20402523D01*
X24969741Y20402523D01*
X24904524Y20402921D01*
X24831047Y20403370D01*
X24825897Y20401898D01*
X24825896Y20401898D01*
X24783471Y20389773D01*
X24692539Y20363785D01*
X24688013Y20360929D01*
X24688010Y20360928D01*
X24582559Y20294393D01*
X24570709Y20286916D01*
X24566638Y20282306D01*
X24478897Y20182959D01*
X24478895Y20182956D01*
X24475351Y20178943D01*
X24460577Y20147476D01*
X24421411Y20064055D01*
X24414129Y20048546D01*
X24413305Y20043256D01*
X24413305Y20043255D01*
X24407537Y20006207D01*
X24391967Y19906207D01*
X12652900Y19906207D01*
X12652900Y20756207D01*
X16264369Y20756207D01*
X16265063Y20750900D01*
X16265063Y20750897D01*
X16266629Y20738923D01*
X16283047Y20613370D01*
X16303680Y20566478D01*
X16331463Y20503337D01*
X16341064Y20481516D01*
X16344509Y20477418D01*
X16344510Y20477416D01*
X16372063Y20444638D01*
X16433756Y20371245D01*
X16553672Y20291423D01*
X16691171Y20248465D01*
X16765273Y20247107D01*
X16829838Y20245923D01*
X16829840Y20245923D01*
X16835200Y20245825D01*
X16840371Y20247235D01*
X16840373Y20247235D01*
X16919667Y20268853D01*
X16974181Y20283715D01*
X17027273Y20316314D01*
X17092372Y20356284D01*
X17092375Y20356286D01*
X17096941Y20359090D01*
X17125044Y20390137D01*
X17190014Y20461915D01*
X17193612Y20465890D01*
X17199197Y20477416D01*
X17254084Y20590704D01*
X17254084Y20590705D01*
X17256422Y20595530D01*
X17264948Y20646207D01*
X31721967Y20646207D01*
X31722661Y20640900D01*
X31722661Y20640897D01*
X31728594Y20595530D01*
X31740645Y20503370D01*
X31766488Y20444638D01*
X31795453Y20378810D01*
X31798662Y20371516D01*
X31802107Y20367418D01*
X31802108Y20367416D01*
X31811797Y20355890D01*
X31891354Y20261245D01*
X32011270Y20181423D01*
X32148769Y20138465D01*
X32222871Y20137107D01*
X32287436Y20135923D01*
X32287438Y20135923D01*
X32292798Y20135825D01*
X32297969Y20137235D01*
X32297971Y20137235D01*
X32413945Y20168853D01*
X32431779Y20173715D01*
X32513655Y20223987D01*
X32549970Y20246284D01*
X32549973Y20246286D01*
X32554539Y20249090D01*
X32566837Y20262676D01*
X32647612Y20351915D01*
X32651210Y20355890D01*
X32676850Y20408811D01*
X32713756Y20444638D01*
X32765061Y20448361D01*
X32806756Y20418235D01*
X32813352Y20406310D01*
X32828662Y20371516D01*
X32832107Y20367418D01*
X32832108Y20367416D01*
X32841797Y20355890D01*
X32921354Y20261245D01*
X33041270Y20181423D01*
X33178769Y20138465D01*
X33252871Y20137107D01*
X33317436Y20135923D01*
X33317438Y20135923D01*
X33322798Y20135825D01*
X33327969Y20137235D01*
X33327971Y20137235D01*
X33443945Y20168853D01*
X33461779Y20173715D01*
X33543655Y20223987D01*
X33573981Y20242607D01*
X34919567Y20242607D01*
X34920261Y20237300D01*
X34920261Y20237297D01*
X34920759Y20233491D01*
X34938245Y20099770D01*
X34953372Y20065392D01*
X34987607Y19987587D01*
X34996262Y19967916D01*
X34999707Y19963818D01*
X34999708Y19963816D01*
X35043687Y19911497D01*
X35088954Y19857645D01*
X35208870Y19777823D01*
X35346369Y19734865D01*
X35420471Y19733507D01*
X35485036Y19732323D01*
X35485038Y19732323D01*
X35490398Y19732225D01*
X35495569Y19733635D01*
X35495571Y19733635D01*
X35604638Y19763370D01*
X35629379Y19770115D01*
X35682471Y19802714D01*
X35747570Y19842684D01*
X35747573Y19842686D01*
X35752139Y19845490D01*
X35790244Y19887587D01*
X35845212Y19948315D01*
X35848810Y19952290D01*
X35854395Y19963816D01*
X35909282Y20077104D01*
X35909282Y20077105D01*
X35911620Y20081930D01*
X35935519Y20223987D01*
X35935671Y20236400D01*
X35935259Y20239280D01*
X35916009Y20373696D01*
X35916008Y20373700D01*
X35915249Y20378999D01*
X35912169Y20385775D01*
X35859799Y20500955D01*
X35855626Y20510134D01*
X35851138Y20515343D01*
X35765087Y20615210D01*
X35765084Y20615213D01*
X35761593Y20619264D01*
X35757102Y20622175D01*
X35645204Y20694703D01*
X35645203Y20694703D01*
X35640711Y20697615D01*
X35564512Y20720403D01*
X35507832Y20737355D01*
X35507829Y20737355D01*
X35502698Y20738890D01*
X35497343Y20738923D01*
X35497341Y20738923D01*
X35432124Y20739321D01*
X35358647Y20739770D01*
X35353497Y20738298D01*
X35353496Y20738298D01*
X35289393Y20719978D01*
X35220139Y20700185D01*
X35215613Y20697329D01*
X35215610Y20697328D01*
X35120141Y20637091D01*
X35098309Y20623316D01*
X35094222Y20618688D01*
X35006497Y20519359D01*
X35006495Y20519356D01*
X35002951Y20515343D01*
X34989372Y20486420D01*
X34945670Y20393339D01*
X34941729Y20384946D01*
X34940905Y20379656D01*
X34940905Y20379655D01*
X34938663Y20365257D01*
X34919567Y20242607D01*
X33573981Y20242607D01*
X33579970Y20246284D01*
X33579973Y20246286D01*
X33584539Y20249090D01*
X33596837Y20262676D01*
X33677612Y20351915D01*
X33681210Y20355890D01*
X33685749Y20365257D01*
X33741682Y20480704D01*
X33741682Y20480705D01*
X33744020Y20485530D01*
X33767919Y20627587D01*
X33768071Y20640000D01*
X33767659Y20642880D01*
X33748409Y20777296D01*
X33748408Y20777300D01*
X33747649Y20782599D01*
X33688026Y20913734D01*
X33683538Y20918943D01*
X33597487Y21018810D01*
X33597484Y21018813D01*
X33593993Y21022864D01*
X33589502Y21025775D01*
X33477604Y21098303D01*
X33477603Y21098303D01*
X33473111Y21101215D01*
X33396912Y21124003D01*
X33340232Y21140955D01*
X33340229Y21140955D01*
X33335098Y21142490D01*
X33329743Y21142523D01*
X33329741Y21142523D01*
X33264524Y21142921D01*
X33191047Y21143370D01*
X33185897Y21141898D01*
X33185896Y21141898D01*
X33121793Y21123577D01*
X33052539Y21103785D01*
X33048013Y21100929D01*
X33048010Y21100928D01*
X32935237Y21029773D01*
X32930709Y21026916D01*
X32923588Y21018853D01*
X32838897Y20922959D01*
X32838895Y20922956D01*
X32835351Y20918943D01*
X32833075Y20914096D01*
X32833074Y20914094D01*
X32813228Y20871824D01*
X32776759Y20835546D01*
X32725503Y20831198D01*
X32683444Y20860813D01*
X32676705Y20872651D01*
X32658026Y20913734D01*
X32653538Y20918943D01*
X32567487Y21018810D01*
X32567484Y21018813D01*
X32563993Y21022864D01*
X32559502Y21025775D01*
X32447604Y21098303D01*
X32447603Y21098303D01*
X32443111Y21101215D01*
X32366912Y21124003D01*
X32310232Y21140955D01*
X32310229Y21140955D01*
X32305098Y21142490D01*
X32299743Y21142523D01*
X32299741Y21142523D01*
X32234524Y21142921D01*
X32161047Y21143370D01*
X32155897Y21141898D01*
X32155896Y21141898D01*
X32091793Y21123577D01*
X32022539Y21103785D01*
X32018013Y21100929D01*
X32018010Y21100928D01*
X31905237Y21029773D01*
X31900709Y21026916D01*
X31893588Y21018853D01*
X31808897Y20922959D01*
X31808895Y20922956D01*
X31805351Y20918943D01*
X31800615Y20908856D01*
X31755460Y20812679D01*
X31744129Y20788546D01*
X31743305Y20783256D01*
X31743305Y20783255D01*
X31736403Y20738923D01*
X31721967Y20646207D01*
X17264948Y20646207D01*
X17280321Y20737587D01*
X17280473Y20750000D01*
X17280061Y20752880D01*
X17260811Y20887296D01*
X17260810Y20887300D01*
X17260051Y20892599D01*
X17252660Y20908856D01*
X17202647Y21018853D01*
X17200428Y21023734D01*
X17195940Y21028943D01*
X17109889Y21128810D01*
X17109886Y21128813D01*
X17106395Y21132864D01*
X17101904Y21135775D01*
X16990006Y21208303D01*
X16990005Y21208303D01*
X16985513Y21211215D01*
X16909314Y21234003D01*
X16852634Y21250955D01*
X16852631Y21250955D01*
X16847500Y21252490D01*
X16842145Y21252523D01*
X16842143Y21252523D01*
X16776926Y21252921D01*
X16703449Y21253370D01*
X16698299Y21251898D01*
X16698298Y21251898D01*
X16634195Y21233578D01*
X16564941Y21213785D01*
X16560415Y21210929D01*
X16560412Y21210928D01*
X16451945Y21142490D01*
X16443111Y21136916D01*
X16435952Y21128810D01*
X16351299Y21032959D01*
X16351297Y21032956D01*
X16347753Y21028943D01*
X16344917Y21022903D01*
X16291372Y20908856D01*
X16286531Y20898546D01*
X16285707Y20893256D01*
X16285707Y20893255D01*
X16282370Y20871824D01*
X16264369Y20756207D01*
X12652900Y20756207D01*
X12652900Y22506207D01*
X18741967Y22506207D01*
X18742661Y22500900D01*
X18742661Y22500897D01*
X18748297Y22457796D01*
X18760645Y22363370D01*
X18818662Y22231516D01*
X18822107Y22227418D01*
X18822108Y22227416D01*
X18875923Y22163396D01*
X18911354Y22121245D01*
X19031270Y22041423D01*
X19168769Y21998465D01*
X19242871Y21997107D01*
X19307436Y21995923D01*
X19307438Y21995923D01*
X19312798Y21995825D01*
X19317969Y21997235D01*
X19317971Y21997235D01*
X19393695Y22017880D01*
X19451779Y22033715D01*
X19524611Y22078434D01*
X19569970Y22106284D01*
X19569973Y22106286D01*
X19574539Y22109090D01*
X19671210Y22215890D01*
X19673805Y22221245D01*
X19690744Y22256207D01*
X24241967Y22256207D01*
X24242661Y22250900D01*
X24242661Y22250897D01*
X24246539Y22221245D01*
X24260645Y22113370D01*
X24318662Y21981516D01*
X24322107Y21977418D01*
X24322108Y21977416D01*
X24327741Y21970715D01*
X24411354Y21871245D01*
X24531270Y21791423D01*
X24668769Y21748465D01*
X24742871Y21747107D01*
X24807436Y21745923D01*
X24807438Y21745923D01*
X24812798Y21745825D01*
X24817969Y21747235D01*
X24817971Y21747235D01*
X24893695Y21767880D01*
X24951779Y21783715D01*
X25044595Y21840704D01*
X25069970Y21856284D01*
X25069973Y21856286D01*
X25074539Y21859090D01*
X25171210Y21965890D01*
X25174936Y21973579D01*
X25231682Y22090704D01*
X25231682Y22090705D01*
X25234020Y22095530D01*
X25257919Y22237587D01*
X25258071Y22250000D01*
X25257659Y22252880D01*
X25257183Y22256207D01*
X25491967Y22256207D01*
X25492661Y22250900D01*
X25492661Y22250897D01*
X25496539Y22221245D01*
X25510645Y22113370D01*
X25568662Y21981516D01*
X25572107Y21977418D01*
X25572108Y21977416D01*
X25577741Y21970715D01*
X25661354Y21871245D01*
X25781270Y21791423D01*
X25918769Y21748465D01*
X25992871Y21747107D01*
X26057436Y21745923D01*
X26057438Y21745923D01*
X26062798Y21745825D01*
X26067969Y21747235D01*
X26067971Y21747235D01*
X26143695Y21767880D01*
X26201779Y21783715D01*
X26294595Y21840704D01*
X26319970Y21856284D01*
X26319973Y21856286D01*
X26324539Y21859090D01*
X26421210Y21965890D01*
X26424936Y21973579D01*
X26440744Y22006207D01*
X28391967Y22006207D01*
X28392661Y22000900D01*
X28392661Y22000897D01*
X28396608Y21970715D01*
X28410645Y21863370D01*
X28468662Y21731516D01*
X28561354Y21621245D01*
X28681270Y21541423D01*
X28818769Y21498465D01*
X28892871Y21497107D01*
X28957436Y21495923D01*
X28957438Y21495923D01*
X28962798Y21495825D01*
X28967969Y21497235D01*
X28967971Y21497235D01*
X29043695Y21517880D01*
X29101779Y21533715D01*
X29186095Y21585485D01*
X29219970Y21606284D01*
X29219973Y21606286D01*
X29224539Y21609090D01*
X29321210Y21715890D01*
X29326795Y21727416D01*
X29381682Y21840704D01*
X29381682Y21840705D01*
X29384020Y21845530D01*
X29407919Y21987587D01*
X29408071Y22000000D01*
X29407659Y22002880D01*
X29388409Y22137296D01*
X29388408Y22137300D01*
X29387649Y22142599D01*
X29358694Y22206284D01*
X29345766Y22234717D01*
X29328026Y22273734D01*
X29323538Y22278943D01*
X29237487Y22378810D01*
X29237484Y22378813D01*
X29233993Y22382864D01*
X29229502Y22385775D01*
X29117604Y22458303D01*
X29117603Y22458303D01*
X29113111Y22461215D01*
X29024930Y22487587D01*
X28980232Y22500955D01*
X28980229Y22500955D01*
X28975098Y22502490D01*
X28969743Y22502523D01*
X28969741Y22502523D01*
X28904524Y22502921D01*
X28831047Y22503370D01*
X28825897Y22501898D01*
X28825896Y22501898D01*
X28786015Y22490500D01*
X28692539Y22463785D01*
X28688013Y22460929D01*
X28688010Y22460928D01*
X28580756Y22393255D01*
X28570709Y22386916D01*
X28563550Y22378810D01*
X28478897Y22282959D01*
X28478895Y22282956D01*
X28475351Y22278943D01*
X28414129Y22148546D01*
X28413305Y22143256D01*
X28413305Y22143255D01*
X28406581Y22100065D01*
X28391967Y22006207D01*
X26440744Y22006207D01*
X26481682Y22090704D01*
X26481682Y22090705D01*
X26484020Y22095530D01*
X26507919Y22237587D01*
X26508071Y22250000D01*
X26507659Y22252880D01*
X26488409Y22387296D01*
X26488408Y22387300D01*
X26487649Y22392599D01*
X26464952Y22442520D01*
X26432631Y22513606D01*
X26428026Y22523734D01*
X26422202Y22530493D01*
X26356963Y22606207D01*
X26791967Y22606207D01*
X26792661Y22600900D01*
X26792661Y22600897D01*
X26793159Y22597091D01*
X26810645Y22463370D01*
X26868662Y22331516D01*
X26872107Y22327418D01*
X26872108Y22327416D01*
X26909478Y22282959D01*
X26961354Y22221245D01*
X26983830Y22206284D01*
X27072177Y22147476D01*
X27081270Y22141423D01*
X27218769Y22098465D01*
X27292871Y22097107D01*
X27357436Y22095923D01*
X27357438Y22095923D01*
X27362798Y22095825D01*
X27367969Y22097235D01*
X27367971Y22097235D01*
X27471081Y22125346D01*
X27501779Y22133715D01*
X27554871Y22166314D01*
X27619970Y22206284D01*
X27619973Y22206286D01*
X27624539Y22209090D01*
X27635062Y22220715D01*
X27717612Y22311915D01*
X27721210Y22315890D01*
X27726795Y22327416D01*
X27781682Y22440704D01*
X27781682Y22440705D01*
X27784020Y22445530D01*
X27807919Y22587587D01*
X27808071Y22600000D01*
X27807659Y22602880D01*
X27788409Y22737296D01*
X27788408Y22737300D01*
X27787649Y22742599D01*
X27776131Y22767933D01*
X27730245Y22868853D01*
X27728026Y22873734D01*
X27724528Y22877794D01*
X27637487Y22978810D01*
X27637484Y22978813D01*
X27633993Y22982864D01*
X27629502Y22985775D01*
X27517604Y23058303D01*
X27517603Y23058303D01*
X27513111Y23061215D01*
X27436912Y23084003D01*
X27380232Y23100955D01*
X27380229Y23100955D01*
X27375098Y23102490D01*
X27369743Y23102523D01*
X27369741Y23102523D01*
X27304524Y23102921D01*
X27231047Y23103370D01*
X27225897Y23101898D01*
X27225896Y23101898D01*
X27161793Y23083577D01*
X27092539Y23063785D01*
X27088013Y23060929D01*
X27088010Y23060928D01*
X26995392Y23002490D01*
X26970709Y22986916D01*
X26963550Y22978810D01*
X26878897Y22882959D01*
X26878895Y22882956D01*
X26875351Y22878943D01*
X26870614Y22868853D01*
X26828401Y22778943D01*
X26814129Y22748546D01*
X26813305Y22743256D01*
X26813305Y22743255D01*
X26808946Y22715257D01*
X26791967Y22606207D01*
X26356963Y22606207D01*
X26337487Y22628810D01*
X26337484Y22628813D01*
X26333993Y22632864D01*
X26329502Y22635775D01*
X26217604Y22708303D01*
X26217603Y22708303D01*
X26213111Y22711215D01*
X26125903Y22737296D01*
X26080232Y22750955D01*
X26080229Y22750955D01*
X26075098Y22752490D01*
X26069743Y22752523D01*
X26069741Y22752523D01*
X26004524Y22752921D01*
X25931047Y22753370D01*
X25925897Y22751898D01*
X25925896Y22751898D01*
X25893359Y22742599D01*
X25792539Y22713785D01*
X25788013Y22710929D01*
X25788010Y22710928D01*
X25680756Y22643255D01*
X25670709Y22636916D01*
X25665686Y22631228D01*
X25578897Y22532959D01*
X25578895Y22532956D01*
X25575351Y22528943D01*
X25514129Y22398546D01*
X25513305Y22393256D01*
X25513305Y22393255D01*
X25505942Y22345963D01*
X25491967Y22256207D01*
X25257183Y22256207D01*
X25238409Y22387296D01*
X25238408Y22387300D01*
X25237649Y22392599D01*
X25214952Y22442520D01*
X25182631Y22513606D01*
X25178026Y22523734D01*
X25172202Y22530493D01*
X25087487Y22628810D01*
X25087484Y22628813D01*
X25083993Y22632864D01*
X25079502Y22635775D01*
X24967604Y22708303D01*
X24967603Y22708303D01*
X24963111Y22711215D01*
X24875903Y22737296D01*
X24830232Y22750955D01*
X24830229Y22750955D01*
X24825098Y22752490D01*
X24819743Y22752523D01*
X24819741Y22752523D01*
X24754524Y22752921D01*
X24681047Y22753370D01*
X24675897Y22751898D01*
X24675896Y22751898D01*
X24643359Y22742599D01*
X24542539Y22713785D01*
X24538013Y22710929D01*
X24538010Y22710928D01*
X24430756Y22643255D01*
X24420709Y22636916D01*
X24415686Y22631228D01*
X24328897Y22532959D01*
X24328895Y22532956D01*
X24325351Y22528943D01*
X24264129Y22398546D01*
X24263305Y22393256D01*
X24263305Y22393255D01*
X24255942Y22345963D01*
X24241967Y22256207D01*
X19690744Y22256207D01*
X19731682Y22340704D01*
X19731682Y22340705D01*
X19734020Y22345530D01*
X19757919Y22487587D01*
X19758071Y22500000D01*
X19757659Y22502880D01*
X19738409Y22637296D01*
X19738408Y22637300D01*
X19737649Y22642599D01*
X19707776Y22708303D01*
X19681972Y22765055D01*
X19678026Y22773734D01*
X19672417Y22780244D01*
X19587487Y22878810D01*
X19587484Y22878813D01*
X19583993Y22882864D01*
X19579502Y22885775D01*
X19467604Y22958303D01*
X19467603Y22958303D01*
X19463111Y22961215D01*
X19380989Y22985775D01*
X19330232Y23000955D01*
X19330229Y23000955D01*
X19325098Y23002490D01*
X19319743Y23002523D01*
X19319741Y23002523D01*
X19254524Y23002921D01*
X19181047Y23003370D01*
X19175897Y23001898D01*
X19175896Y23001898D01*
X19133471Y22989773D01*
X19042539Y22963785D01*
X19038013Y22960929D01*
X19038010Y22960928D01*
X18925814Y22890137D01*
X18920709Y22886916D01*
X18913668Y22878943D01*
X18828897Y22782959D01*
X18828895Y22782956D01*
X18825351Y22778943D01*
X18764129Y22648546D01*
X18763305Y22643256D01*
X18763305Y22643255D01*
X18757967Y22608970D01*
X18741967Y22506207D01*
X12652900Y22506207D01*
X12652900Y24024813D01*
X35191908Y24024813D01*
X35192602Y24019506D01*
X35192602Y24019503D01*
X35195533Y23997091D01*
X35210586Y23881976D01*
X35268603Y23750122D01*
X35272048Y23746024D01*
X35272049Y23746022D01*
X35281738Y23734496D01*
X35361295Y23639851D01*
X35481211Y23560029D01*
X35618710Y23517071D01*
X35692812Y23515713D01*
X35757377Y23514529D01*
X35757379Y23514529D01*
X35762739Y23514431D01*
X35763990Y23514772D01*
X37342108Y23514772D01*
X37342416Y23511104D01*
X37342416Y23511101D01*
X37345829Y23470459D01*
X37359386Y23309012D01*
X37416301Y23110526D01*
X37510685Y22926875D01*
X37638942Y22765055D01*
X37641736Y22762677D01*
X37641737Y22762676D01*
X37697454Y22715257D01*
X37796188Y22631228D01*
X37799389Y22629439D01*
X37799392Y22629437D01*
X37874275Y22587587D01*
X37976433Y22530493D01*
X37979934Y22529356D01*
X37979935Y22529355D01*
X38012257Y22518853D01*
X38172811Y22466686D01*
X38244999Y22458078D01*
X38374185Y22442673D01*
X38374187Y22442673D01*
X38377843Y22442237D01*
X38583719Y22458078D01*
X38737079Y22500897D01*
X38779052Y22512616D01*
X38779054Y22512617D01*
X38782597Y22513606D01*
X38929055Y22587587D01*
X38963618Y22605046D01*
X38963619Y22605047D01*
X38966902Y22606705D01*
X39129614Y22733830D01*
X39190745Y22804650D01*
X39235647Y22829746D01*
X39286176Y22820107D01*
X39318687Y22780244D01*
X39318340Y22730536D01*
X39318162Y22730154D01*
X39261421Y22518395D01*
X39242314Y22300000D01*
X39261421Y22081605D01*
X39318162Y21869846D01*
X39319549Y21866872D01*
X39319551Y21866866D01*
X39372604Y21753094D01*
X39410812Y21671157D01*
X39536557Y21491575D01*
X39691575Y21336557D01*
X39871157Y21210812D01*
X39874134Y21209424D01*
X40066866Y21119551D01*
X40066872Y21119549D01*
X40069846Y21118162D01*
X40281605Y21061421D01*
X40500000Y21042314D01*
X40718395Y21061421D01*
X40930154Y21118162D01*
X40933128Y21119549D01*
X40933134Y21119551D01*
X41125866Y21209424D01*
X41128843Y21210812D01*
X41308425Y21336557D01*
X41463443Y21491575D01*
X41589188Y21671157D01*
X41627396Y21753094D01*
X41680449Y21866866D01*
X41680451Y21866872D01*
X41681838Y21869846D01*
X41738579Y22081605D01*
X41757686Y22300000D01*
X41738579Y22518395D01*
X41681838Y22730154D01*
X41680451Y22733128D01*
X41680449Y22733134D01*
X41590576Y22925866D01*
X41589188Y22928843D01*
X41463443Y23108425D01*
X41308425Y23263443D01*
X41128843Y23389188D01*
X41078244Y23412783D01*
X40933134Y23480449D01*
X40933128Y23480451D01*
X40930154Y23481838D01*
X40718395Y23538579D01*
X40500000Y23557686D01*
X40281605Y23538579D01*
X40069846Y23481838D01*
X40066872Y23480451D01*
X40066866Y23480449D01*
X39921756Y23412783D01*
X39871157Y23389188D01*
X39691575Y23263443D01*
X39536557Y23108425D01*
X39532863Y23103150D01*
X39490729Y23073645D01*
X39439485Y23078126D01*
X39403110Y23114499D01*
X39399907Y23170018D01*
X39430543Y23262114D01*
X39430544Y23262120D01*
X39431703Y23265603D01*
X39457583Y23470459D01*
X39457938Y23495923D01*
X39457966Y23497901D01*
X39457966Y23497906D01*
X39457995Y23500000D01*
X39456580Y23514431D01*
X39438206Y23701832D01*
X39438205Y23701837D01*
X39437846Y23705499D01*
X39378165Y23903171D01*
X39323380Y24006207D01*
X41991967Y24006207D01*
X41992661Y24000900D01*
X41992661Y24000897D01*
X41993159Y23997091D01*
X42010645Y23863370D01*
X42068662Y23731516D01*
X42161354Y23621245D01*
X42183830Y23606284D01*
X42260686Y23555125D01*
X42281270Y23541423D01*
X42418769Y23498465D01*
X42492871Y23497107D01*
X42557436Y23495923D01*
X42557438Y23495923D01*
X42562798Y23495825D01*
X42567969Y23497235D01*
X42567971Y23497235D01*
X42646597Y23518671D01*
X42701779Y23533715D01*
X42754871Y23566314D01*
X42819970Y23606284D01*
X42819973Y23606286D01*
X42824539Y23609090D01*
X42911805Y23705499D01*
X42917612Y23711915D01*
X42921210Y23715890D01*
X42926795Y23727416D01*
X42981682Y23840704D01*
X42981682Y23840705D01*
X42984020Y23845530D01*
X43007919Y23987587D01*
X43008071Y24000000D01*
X43007659Y24002880D01*
X42988409Y24137296D01*
X42988408Y24137300D01*
X42987649Y24142599D01*
X42979190Y24161205D01*
X42942158Y24242651D01*
X42928026Y24273734D01*
X42920640Y24282306D01*
X42837487Y24378810D01*
X42837484Y24378813D01*
X42833993Y24382864D01*
X42829502Y24385775D01*
X42717604Y24458303D01*
X42717603Y24458303D01*
X42713111Y24461215D01*
X42628832Y24486420D01*
X42580232Y24500955D01*
X42580229Y24500955D01*
X42575098Y24502490D01*
X42569743Y24502523D01*
X42569741Y24502523D01*
X42504524Y24502921D01*
X42431047Y24503370D01*
X42425897Y24501898D01*
X42425896Y24501898D01*
X42371739Y24486420D01*
X42292539Y24463785D01*
X42288013Y24460929D01*
X42288010Y24460928D01*
X42187350Y24397416D01*
X42170709Y24386916D01*
X42163602Y24378869D01*
X42078897Y24282959D01*
X42078895Y24282956D01*
X42075351Y24278943D01*
X42060750Y24247845D01*
X42017583Y24155902D01*
X42014129Y24148546D01*
X41991967Y24006207D01*
X39323380Y24006207D01*
X39281227Y24085485D01*
X39229796Y24148546D01*
X39153045Y24242651D01*
X39153044Y24242652D01*
X39150722Y24245499D01*
X38991623Y24377118D01*
X38975613Y24385775D01*
X38932740Y24408956D01*
X38809990Y24475327D01*
X38612739Y24536386D01*
X38484065Y24549910D01*
X38411041Y24557585D01*
X38411039Y24557585D01*
X38407386Y24557969D01*
X38201752Y24539255D01*
X38102710Y24510105D01*
X38007197Y24481995D01*
X38007194Y24481994D01*
X38003668Y24480956D01*
X38000411Y24479253D01*
X38000408Y24479252D01*
X37829252Y24389773D01*
X37820681Y24385292D01*
X37817815Y24382987D01*
X37817814Y24382987D01*
X37686980Y24277794D01*
X37659760Y24255909D01*
X37527034Y24097732D01*
X37427559Y23916789D01*
X37365125Y23719970D01*
X37342108Y23514772D01*
X35763990Y23514772D01*
X35767910Y23515841D01*
X35767912Y23515841D01*
X35872640Y23544393D01*
X35901720Y23552321D01*
X35954812Y23584920D01*
X36019911Y23624890D01*
X36019914Y23624892D01*
X36024480Y23627696D01*
X36121151Y23734496D01*
X36126736Y23746022D01*
X36181623Y23859310D01*
X36181623Y23859311D01*
X36183961Y23864136D01*
X36207860Y24006193D01*
X36208012Y24018606D01*
X36207600Y24021486D01*
X36188350Y24155902D01*
X36188349Y24155906D01*
X36187590Y24161205D01*
X36127967Y24292340D01*
X36123479Y24297549D01*
X36037428Y24397416D01*
X36037425Y24397419D01*
X36033934Y24401470D01*
X36029443Y24404381D01*
X35917545Y24476909D01*
X35917544Y24476909D01*
X35913052Y24479821D01*
X35834310Y24503370D01*
X35780173Y24519561D01*
X35780170Y24519561D01*
X35775039Y24521096D01*
X35769684Y24521129D01*
X35769682Y24521129D01*
X35704465Y24521527D01*
X35630988Y24521976D01*
X35625838Y24520504D01*
X35625837Y24520504D01*
X35565886Y24503370D01*
X35492480Y24482391D01*
X35487954Y24479535D01*
X35487951Y24479534D01*
X35375178Y24408379D01*
X35370650Y24405522D01*
X35363491Y24397416D01*
X35278838Y24301565D01*
X35278836Y24301562D01*
X35275292Y24297549D01*
X35214070Y24167152D01*
X35213246Y24161862D01*
X35213246Y24161861D01*
X35211173Y24148546D01*
X35191908Y24024813D01*
X12652900Y24024813D01*
X12652900Y24756207D01*
X22491967Y24756207D01*
X22492661Y24750900D01*
X22492661Y24750897D01*
X22493159Y24747091D01*
X22510645Y24613370D01*
X22546086Y24532825D01*
X22559061Y24503337D01*
X22568662Y24481516D01*
X22572107Y24477418D01*
X22572108Y24477416D01*
X22585968Y24460928D01*
X22661354Y24371245D01*
X22781270Y24291423D01*
X22918769Y24248465D01*
X22992871Y24247107D01*
X23057436Y24245923D01*
X23057438Y24245923D01*
X23062798Y24245825D01*
X23067969Y24247235D01*
X23067971Y24247235D01*
X23147265Y24268853D01*
X23201779Y24283715D01*
X23254871Y24316314D01*
X23319970Y24356284D01*
X23319973Y24356286D01*
X23324539Y24359090D01*
X23421210Y24465890D01*
X23424936Y24473579D01*
X23481682Y24590704D01*
X23481682Y24590705D01*
X23484020Y24595530D01*
X23507919Y24737587D01*
X23508071Y24750000D01*
X23507659Y24752880D01*
X23488409Y24887296D01*
X23488408Y24887300D01*
X23487649Y24892599D01*
X23428026Y25023734D01*
X23420640Y25032306D01*
X23337487Y25128810D01*
X23337484Y25128813D01*
X23333993Y25132864D01*
X23329502Y25135775D01*
X23217604Y25208303D01*
X23217603Y25208303D01*
X23213111Y25211215D01*
X23128832Y25236420D01*
X23080232Y25250955D01*
X23080229Y25250955D01*
X23075098Y25252490D01*
X23069743Y25252523D01*
X23069741Y25252523D01*
X23004524Y25252921D01*
X22931047Y25253370D01*
X22925897Y25251898D01*
X22925896Y25251898D01*
X22871739Y25236420D01*
X22792539Y25213785D01*
X22788013Y25210929D01*
X22788010Y25210928D01*
X22718145Y25166846D01*
X22670709Y25136916D01*
X22663550Y25128810D01*
X22578897Y25032959D01*
X22578895Y25032956D01*
X22575351Y25028943D01*
X22514129Y24898546D01*
X22491967Y24756207D01*
X12652900Y24756207D01*
X12652900Y25506207D01*
X25491967Y25506207D01*
X25492661Y25500900D01*
X25492661Y25500897D01*
X25493393Y25495303D01*
X25510645Y25363370D01*
X25535953Y25305853D01*
X25559061Y25253337D01*
X25568662Y25231516D01*
X25572107Y25227418D01*
X25572108Y25227416D01*
X25616760Y25174296D01*
X25661354Y25121245D01*
X25781270Y25041423D01*
X25918769Y24998465D01*
X25992871Y24997107D01*
X26057436Y24995923D01*
X26057438Y24995923D01*
X26062798Y24995825D01*
X26067969Y24997235D01*
X26067971Y24997235D01*
X26157770Y25021717D01*
X26201779Y25033715D01*
X26254871Y25066314D01*
X26319970Y25106284D01*
X26319973Y25106286D01*
X26324539Y25109090D01*
X26421210Y25215890D01*
X26426795Y25227416D01*
X26481682Y25340704D01*
X26481682Y25340705D01*
X26484020Y25345530D01*
X26507919Y25487587D01*
X26508071Y25500000D01*
X26507659Y25502880D01*
X26507183Y25506207D01*
X28991967Y25506207D01*
X28992661Y25500900D01*
X28992661Y25500897D01*
X28993393Y25495303D01*
X29010645Y25363370D01*
X29035953Y25305853D01*
X29059061Y25253337D01*
X29068662Y25231516D01*
X29072107Y25227418D01*
X29072108Y25227416D01*
X29116760Y25174296D01*
X29161354Y25121245D01*
X29281270Y25041423D01*
X29418769Y24998465D01*
X29492871Y24997107D01*
X29557436Y24995923D01*
X29557438Y24995923D01*
X29562798Y24995825D01*
X29567969Y24997235D01*
X29567971Y24997235D01*
X29657770Y25021717D01*
X29701779Y25033715D01*
X29754871Y25066314D01*
X29819970Y25106284D01*
X29819973Y25106286D01*
X29824539Y25109090D01*
X29921210Y25215890D01*
X29926795Y25227416D01*
X29981682Y25340704D01*
X29981682Y25340705D01*
X29984020Y25345530D01*
X30007919Y25487587D01*
X30008071Y25500000D01*
X30007659Y25502880D01*
X29988409Y25637296D01*
X29988408Y25637300D01*
X29987649Y25642599D01*
X29928026Y25773734D01*
X29920167Y25782855D01*
X29837487Y25878810D01*
X29837484Y25878813D01*
X29833993Y25882864D01*
X29829502Y25885775D01*
X29717604Y25958303D01*
X29717603Y25958303D01*
X29713111Y25961215D01*
X29624930Y25987587D01*
X29580232Y26000955D01*
X29580229Y26000955D01*
X29575098Y26002490D01*
X29569743Y26002523D01*
X29569741Y26002523D01*
X29504524Y26002921D01*
X29431047Y26003370D01*
X29425897Y26001898D01*
X29425896Y26001898D01*
X29422394Y26000897D01*
X29292539Y25963785D01*
X29288013Y25960929D01*
X29288010Y25960928D01*
X29219619Y25917776D01*
X29170709Y25886916D01*
X29164246Y25879598D01*
X29078897Y25782959D01*
X29078895Y25782956D01*
X29075351Y25778943D01*
X29014129Y25648546D01*
X28991967Y25506207D01*
X26507183Y25506207D01*
X26488409Y25637296D01*
X26488408Y25637300D01*
X26487649Y25642599D01*
X26428026Y25773734D01*
X26420167Y25782855D01*
X26337487Y25878810D01*
X26337484Y25878813D01*
X26333993Y25882864D01*
X26329502Y25885775D01*
X26217604Y25958303D01*
X26217603Y25958303D01*
X26213111Y25961215D01*
X26124930Y25987587D01*
X26080232Y26000955D01*
X26080229Y26000955D01*
X26075098Y26002490D01*
X26069743Y26002523D01*
X26069741Y26002523D01*
X26004524Y26002921D01*
X25931047Y26003370D01*
X25925897Y26001898D01*
X25925896Y26001898D01*
X25922394Y26000897D01*
X25792539Y25963785D01*
X25788013Y25960929D01*
X25788010Y25960928D01*
X25719619Y25917776D01*
X25670709Y25886916D01*
X25664246Y25879598D01*
X25578897Y25782959D01*
X25578895Y25782956D01*
X25575351Y25778943D01*
X25514129Y25648546D01*
X25491967Y25506207D01*
X12652900Y25506207D01*
X12652900Y27271900D01*
X12670493Y27320238D01*
X12715042Y27345958D01*
X12728100Y27347100D01*
X13630701Y27347100D01*
X13679039Y27329507D01*
G37*
G04 #@! TD.AperFunction*
G04 #@! TD*
M02*
