G04 #@! TF.GenerationSoftware,KiCad,Pcbnew,6.0.11+dfsg-1*
G04 #@! TF.CreationDate,2023-04-16T09:36:04+08:00*
G04 #@! TF.ProjectId,stlink,73746c69-6e6b-42e6-9b69-6361645f7063,g*
G04 #@! TF.SameCoordinates,PX5c07920PY68e7780*
G04 #@! TF.FileFunction,Copper,L4,Bot*
G04 #@! TF.FilePolarity,Positive*
%FSLAX46Y46*%
G04 Gerber Fmt 4.6, Leading zero omitted, Abs format (unit mm)*
G04 Created by KiCad (PCBNEW 6.0.11+dfsg-1) date 2023-04-16 09:36:04*
%MOMM*%
%LPD*%
G01*
G04 APERTURE LIST*
G04 #@! TA.AperFunction,ComponentPad*
%ADD10C,1.800000*%
G04 #@! TD*
G04 #@! TA.AperFunction,ComponentPad*
%ADD11O,3.500000X2.000000*%
G04 #@! TD*
G04 #@! TA.AperFunction,ComponentPad*
%ADD12C,2.200000*%
G04 #@! TD*
G04 #@! TA.AperFunction,SMDPad,CuDef*
%ADD13R,2.540000X1.524000*%
G04 #@! TD*
G04 #@! TA.AperFunction,SMDPad,CuDef*
%ADD14R,1.000000X1.000000*%
G04 #@! TD*
G04 #@! TA.AperFunction,SMDPad,CuDef*
%ADD15R,1.000000X1.500000*%
G04 #@! TD*
G04 #@! TA.AperFunction,ViaPad*
%ADD16C,0.700000*%
G04 #@! TD*
G04 #@! TA.AperFunction,Conductor*
%ADD17C,0.381000*%
G04 #@! TD*
G04 #@! TA.AperFunction,Conductor*
%ADD18C,0.228600*%
G04 #@! TD*
G04 APERTURE END LIST*
G04 #@! TO.C,JP1*
G36*
X25550000Y14950000D02*
G01*
X25050000Y14950000D01*
X25050000Y15550000D01*
X25550000Y15550000D01*
X25550000Y14950000D01*
G37*
G04 #@! TD*
D10*
G04 #@! TO.P,J1,1,VBUS*
G04 #@! TO.N,VBUS*
X38400000Y23500000D03*
G04 #@! TO.P,J1,2,D-*
G04 #@! TO.N,D-*
X38400000Y21000000D03*
G04 #@! TO.P,J1,3,D+*
G04 #@! TO.N,D+*
X38400000Y19000000D03*
G04 #@! TO.P,J1,4,GND*
G04 #@! TO.N,GND*
X38400000Y16500000D03*
D11*
G04 #@! TO.P,J1,5,Shield*
X40500000Y14150000D03*
X40500000Y25850000D03*
D12*
X40500000Y17700000D03*
X40500000Y22300000D03*
G04 #@! TD*
D13*
G04 #@! TO.P,J2,1,Pin_1*
G04 #@! TO.N,+5V*
X14000000Y25080000D03*
G04 #@! TO.P,J2,3,Pin_3*
G04 #@! TO.N,T_PWR*
X14000000Y22540000D03*
G04 #@! TO.P,J2,5,Pin_5*
G04 #@! TO.N,T_CLK*
X14000000Y20000000D03*
G04 #@! TO.P,J2,7,Pin_7*
G04 #@! TO.N,T_SWO*
X14000000Y17460000D03*
G04 #@! TO.P,J2,9,Pin_9*
G04 #@! TO.N,T_TX*
X14000000Y14920000D03*
G04 #@! TD*
D14*
G04 #@! TO.P,TP3,1,1*
G04 #@! TO.N,CLK*
X29230000Y26500000D03*
G04 #@! TD*
G04 #@! TO.P,TP1,1,1*
G04 #@! TO.N,+3V3*
X34310000Y26500000D03*
G04 #@! TD*
G04 #@! TO.P,TP4,1,1*
G04 #@! TO.N,B0*
X26690000Y26500000D03*
G04 #@! TD*
G04 #@! TO.P,TP5,1,1*
G04 #@! TO.N,GND*
X24150000Y26500000D03*
G04 #@! TD*
G04 #@! TO.P,TP2,1,1*
G04 #@! TO.N,DIO*
X31770000Y26500000D03*
G04 #@! TD*
D15*
G04 #@! TO.P,JP1,1,A*
G04 #@! TO.N,+3V3*
X24650000Y15250000D03*
G04 #@! TO.P,JP1,2,C*
G04 #@! TO.N,Net-(JP1-Pad2)*
X25950000Y15250000D03*
G04 #@! TO.P,JP1,3,B*
G04 #@! TO.N,T_PWR*
X27250000Y15250000D03*
G04 #@! TD*
D16*
G04 #@! TO.N,GND*
X36850000Y25037000D03*
X42500000Y24000000D03*
X42500000Y20000000D03*
X38000000Y26000000D03*
X24900000Y19900000D03*
X42500000Y15800000D03*
X16600000Y16300000D03*
X18500000Y13250000D03*
X27325000Y13250000D03*
X26000000Y22250000D03*
X35427600Y20236400D03*
X33040000Y13480000D03*
X19250000Y18750000D03*
X23000000Y24750000D03*
X35699941Y24018606D03*
X24750000Y22250000D03*
X19250000Y22500000D03*
G04 #@! TO.N,+5V*
X13990000Y26815000D03*
X31500000Y25500000D03*
G04 #@! TO.N,+3V3*
X34945000Y23132000D03*
X17286622Y17999861D03*
X33250000Y16250000D03*
X16000000Y24250000D03*
X24200000Y19200000D03*
X23000000Y23500000D03*
X33675000Y23132000D03*
X23000000Y14500000D03*
X29865000Y14750000D03*
X16000000Y25250000D03*
G04 #@! TO.N,D-*
X32230000Y20640000D03*
G04 #@! TO.N,D+*
X33260000Y20640000D03*
G04 #@! TO.N,LED*
X20250000Y16250000D03*
X27100000Y17200000D03*
G04 #@! TO.N,T_DIO*
X16772402Y20750000D03*
X28500000Y18500000D03*
G04 #@! TO.N,T_CLK*
X29210000Y17145000D03*
X26670000Y18415000D03*
G04 #@! TO.N,CLK*
X29500000Y25500000D03*
G04 #@! TO.N,T_RX*
X22750000Y16000000D03*
X14000000Y13500000D03*
G04 #@! TO.N,T_TX*
X21750000Y16000000D03*
G04 #@! TO.N,T_RST*
X16800000Y17300000D03*
X26000000Y17200000D03*
G04 #@! TO.N,T_SWO*
X25600000Y19200000D03*
G04 #@! TO.N,DIO*
X28900000Y22000000D03*
G04 #@! TO.N,B0*
X26000000Y25500000D03*
G04 #@! TO.N,RENUM*
X33000000Y14750000D03*
X27300000Y22600000D03*
G04 #@! TO.N,Net-(R10-Pad1)*
X24500000Y17200000D03*
X22500000Y13750000D03*
G04 #@! TO.N,Net-(JP1-Pad2)*
X26500000Y14000000D03*
G04 #@! TD*
D17*
G04 #@! TO.N,+5V*
X14000000Y25080000D02*
X14000000Y26805000D01*
X14000000Y26805000D02*
X13990000Y26815000D01*
D18*
G04 #@! TO.N,+3V3*
X23750000Y15250000D02*
X23000000Y14500000D01*
X34310000Y26500000D02*
X34310000Y23767000D01*
X34310000Y23767000D02*
X34945000Y23132000D01*
X24650000Y15250000D02*
X23750000Y15250000D01*
G04 #@! TO.N,D-*
X32943739Y21366702D02*
X32943739Y21353739D01*
X32943739Y21353739D02*
X32230000Y20640000D01*
X38033298Y21366702D02*
X32943739Y21366702D01*
G04 #@! TO.N,D+*
X38400000Y19000000D02*
X33870000Y19000000D01*
X33870000Y19000000D02*
X33260000Y19610000D01*
X33260000Y19610000D02*
X33260000Y20640000D01*
G04 #@! TO.N,LED*
X20997713Y16997713D02*
X20250000Y16250000D01*
X25970849Y18197712D02*
X22558876Y18197711D01*
X21358881Y16997713D02*
X20997713Y16997713D01*
X22558876Y18197711D02*
X21358881Y16997713D01*
X26968561Y17200000D02*
X25970849Y18197712D01*
X27100000Y17200000D02*
X26968561Y17200000D01*
G04 #@! TO.N,T_DIO*
X28500000Y19198110D02*
X28500000Y18500000D01*
X17122401Y21099999D02*
X26598111Y21099999D01*
X16772402Y20750000D02*
X17122401Y21099999D01*
X26598111Y21099999D02*
X28500000Y19198110D01*
G04 #@! TO.N,T_CLK*
X25755000Y20600000D02*
X26670000Y19685000D01*
X27497718Y18415000D02*
X28767718Y17145000D01*
X26670000Y18415000D02*
X27497718Y18415000D01*
X23040000Y20600000D02*
X25755000Y20600000D01*
X26670000Y19685000D02*
X26670000Y18415000D01*
X14080000Y20080000D02*
X22520000Y20080000D01*
X22520000Y20080000D02*
X23040000Y20600000D01*
X28767718Y17145000D02*
X29210000Y17145000D01*
G04 #@! TO.N,CLK*
X29230000Y26500000D02*
X29230000Y25770000D01*
X29230000Y25770000D02*
X29500000Y25500000D01*
G04 #@! TO.N,T_RX*
X18072880Y13735598D02*
X14235598Y13735598D01*
X18203983Y13866701D02*
X18072880Y13735598D01*
X14235598Y13735598D02*
X14000000Y13500000D01*
X20616701Y13866701D02*
X18203983Y13866701D01*
X22750000Y16000000D02*
X20616701Y13866701D01*
G04 #@! TO.N,T_TX*
X21750000Y16000000D02*
X20750000Y15000000D01*
X20750000Y15000000D02*
X14080000Y15000000D01*
G04 #@! TO.N,T_RST*
X18300000Y15600000D02*
X16800000Y17100000D01*
X26000000Y17200000D02*
X25383299Y17816701D01*
X16800000Y17100000D02*
X16800000Y17300000D01*
X21516701Y16616702D02*
X21155530Y16616702D01*
X20866701Y15953983D02*
X20512718Y15600000D01*
X22716697Y17816701D02*
X21516701Y16616702D01*
X20866701Y16327873D02*
X20866701Y15953983D01*
X21155530Y16616702D02*
X20866701Y16327873D01*
X25383299Y17816701D02*
X22716697Y17816701D01*
X20512718Y15600000D02*
X18300000Y15600000D01*
G04 #@! TO.N,T_SWO*
X18065902Y18133299D02*
X17582639Y18616562D01*
X21955639Y18133299D02*
X18065902Y18133299D01*
X22401063Y18578723D02*
X21955639Y18133299D01*
X17582639Y18616562D02*
X15156562Y18616562D01*
X24978723Y18578723D02*
X22401063Y18578723D01*
X15156562Y18616562D02*
X14000000Y17460000D01*
X25600000Y19200000D02*
X24978723Y18578723D01*
G04 #@! TO.N,T_PWR*
X16220000Y22620000D02*
X17206701Y21633299D01*
X14080000Y22620000D02*
X16220000Y22620000D01*
X30250000Y16280000D02*
X29220000Y15250000D01*
X30250000Y18250000D02*
X30250000Y16280000D01*
X26866701Y21633299D02*
X30250000Y18250000D01*
X29220000Y15250000D02*
X27250000Y15250000D01*
X17206701Y21633299D02*
X26866701Y21633299D01*
G04 #@! TO.N,DIO*
X28900000Y22000000D02*
X30400000Y23500000D01*
X31100000Y26500000D02*
X31770000Y26500000D01*
X30400000Y25800000D02*
X31100000Y26500000D01*
X30400000Y23500000D02*
X30400000Y25800000D01*
G04 #@! TO.N,B0*
X26690000Y26500000D02*
X26690000Y26190000D01*
X26690000Y26190000D02*
X26000000Y25500000D01*
G04 #@! TO.N,RENUM*
X32000000Y17900000D02*
X32000000Y15750000D01*
X32000000Y15750000D02*
X33000000Y14750000D01*
X27300000Y22600000D02*
X32000000Y17900000D01*
G04 #@! TO.N,Net-(R10-Pad1)*
X24500000Y17200000D02*
X23883299Y16583299D01*
X23883299Y15922128D02*
X23077872Y15116701D01*
X22500000Y13750000D02*
X22500000Y14000000D01*
X23883299Y16583299D02*
X23883299Y15922128D01*
X22383299Y14796017D02*
X22383299Y14116701D01*
X22500000Y14000000D02*
X22383299Y14116701D01*
X22703983Y15116701D02*
X22383299Y14796017D01*
X23077872Y15116701D02*
X22703983Y15116701D01*
G04 #@! TO.N,Net-(JP1-Pad2)*
X25950000Y14550000D02*
X25950000Y15250000D01*
X26500000Y14000000D02*
X25950000Y14550000D01*
G04 #@! TD*
G04 #@! TA.AperFunction,Conductor*
G04 #@! TO.N,GND*
G36*
X42489430Y27344538D02*
G01*
X42500000Y27341706D01*
X42509562Y27344268D01*
X42519462Y27344268D01*
X42519462Y27343581D01*
X42528336Y27344309D01*
X42657892Y27331549D01*
X42672348Y27328673D01*
X42817083Y27284768D01*
X42830698Y27279129D01*
X42962284Y27208796D01*
X42964093Y27207829D01*
X42976351Y27199638D01*
X43093265Y27103688D01*
X43103688Y27093265D01*
X43199638Y26976351D01*
X43207828Y26964094D01*
X43275467Y26837551D01*
X43279128Y26830701D01*
X43284768Y26817083D01*
X43327418Y26676486D01*
X43328673Y26672349D01*
X43331549Y26657892D01*
X43344058Y26530890D01*
X43344309Y26528337D01*
X43343581Y26519462D01*
X43344268Y26519462D01*
X43344268Y26509562D01*
X43341706Y26500000D01*
X43344268Y26490439D01*
X43344538Y26489431D01*
X43347100Y26469968D01*
X43347100Y13530032D01*
X43344538Y13510570D01*
X43341706Y13500000D01*
X43344268Y13490438D01*
X43344268Y13480538D01*
X43343581Y13480538D01*
X43344309Y13471664D01*
X43331886Y13345530D01*
X43331549Y13342109D01*
X43328673Y13327652D01*
X43294771Y13215890D01*
X43284769Y13182919D01*
X43279129Y13169302D01*
X43212365Y13044393D01*
X43207829Y13035907D01*
X43199638Y13023649D01*
X43103688Y12906735D01*
X43093265Y12896312D01*
X42976351Y12800362D01*
X42964094Y12792172D01*
X42830698Y12720871D01*
X42817083Y12715232D01*
X42672349Y12671327D01*
X42657892Y12668451D01*
X42528336Y12655691D01*
X42519462Y12656419D01*
X42519462Y12655732D01*
X42509562Y12655732D01*
X42500000Y12658294D01*
X42489431Y12655462D01*
X42469968Y12652900D01*
X12728100Y12652900D01*
X12679762Y12670493D01*
X12654042Y12715042D01*
X12652900Y12728100D01*
X12652900Y13929900D01*
X12670493Y13978238D01*
X12715042Y14003958D01*
X12728100Y14005100D01*
X12746610Y14005100D01*
X13608344Y14005101D01*
X13656681Y13987508D01*
X13682401Y13942959D01*
X13673468Y13892301D01*
X13664708Y13880121D01*
X13578897Y13782959D01*
X13578895Y13782956D01*
X13575351Y13778943D01*
X13573075Y13774095D01*
X13517154Y13654988D01*
X13514129Y13648546D01*
X13513305Y13643256D01*
X13513305Y13643255D01*
X13506493Y13599501D01*
X13491967Y13506207D01*
X13492661Y13500900D01*
X13492661Y13500897D01*
X13500784Y13438780D01*
X13510645Y13363370D01*
X13568662Y13231516D01*
X13661354Y13121245D01*
X13781270Y13041423D01*
X13918769Y12998465D01*
X13992871Y12997107D01*
X14057436Y12995923D01*
X14057438Y12995923D01*
X14062798Y12995825D01*
X14067969Y12997235D01*
X14067971Y12997235D01*
X14147712Y13018975D01*
X14201779Y13033715D01*
X14281010Y13082363D01*
X14319970Y13106284D01*
X14319973Y13106286D01*
X14324539Y13109090D01*
X14421210Y13215890D01*
X14426795Y13227416D01*
X14481682Y13340704D01*
X14481682Y13340705D01*
X14484020Y13345530D01*
X14494139Y13405675D01*
X14519507Y13450423D01*
X14568296Y13468398D01*
X18039151Y13468398D01*
X18053822Y13466953D01*
X18072880Y13463162D01*
X18080144Y13464607D01*
X18169873Y13482456D01*
X18177137Y13483901D01*
X18243209Y13528049D01*
X18265521Y13542957D01*
X18276316Y13559113D01*
X18285668Y13570508D01*
X18292635Y13577475D01*
X18339255Y13599215D01*
X18345809Y13599501D01*
X20582972Y13599501D01*
X20597643Y13598056D01*
X20616701Y13594265D01*
X20623965Y13595710D01*
X20649634Y13600816D01*
X20691228Y13609090D01*
X20713694Y13613559D01*
X20720958Y13615004D01*
X20787030Y13659152D01*
X20809342Y13674060D01*
X20820137Y13690216D01*
X20829489Y13701611D01*
X21983934Y14856056D01*
X22030554Y14877796D01*
X22080241Y14864482D01*
X22109746Y14822345D01*
X22112276Y14803122D01*
X22110863Y14796017D01*
X22112308Y14788753D01*
X22114654Y14776959D01*
X22116099Y14762288D01*
X22116099Y14150430D01*
X22114654Y14135759D01*
X22110863Y14116701D01*
X22112308Y14109437D01*
X22112308Y14102029D01*
X22109409Y14102029D01*
X22103485Y14063576D01*
X22093926Y14049976D01*
X22087931Y14043187D01*
X22075351Y14028943D01*
X22063344Y14003370D01*
X22038732Y13950947D01*
X22014129Y13898546D01*
X22013305Y13893256D01*
X22013305Y13893255D01*
X22006139Y13847229D01*
X21991967Y13756207D01*
X21992661Y13750900D01*
X21992661Y13750897D01*
X21995732Y13727416D01*
X22010645Y13613370D01*
X22068662Y13481516D01*
X22072107Y13477418D01*
X22072108Y13477416D01*
X22125923Y13413396D01*
X22161354Y13371245D01*
X22281270Y13291423D01*
X22418769Y13248465D01*
X22492871Y13247107D01*
X22557436Y13245923D01*
X22557438Y13245923D01*
X22562798Y13245825D01*
X22567969Y13247235D01*
X22567971Y13247235D01*
X22643695Y13267880D01*
X22701779Y13283715D01*
X22796883Y13342109D01*
X22819970Y13356284D01*
X22819973Y13356286D01*
X22824539Y13359090D01*
X22921210Y13465890D01*
X22926795Y13477416D01*
X22981682Y13590704D01*
X22981682Y13590705D01*
X22984020Y13595530D01*
X23007919Y13737587D01*
X23008071Y13750000D01*
X23007183Y13756207D01*
X22988409Y13887291D01*
X22987649Y13892599D01*
X22985430Y13897479D01*
X22984806Y13899614D01*
X22988127Y13950947D01*
X23023666Y13988135D01*
X23052217Y13994531D01*
X23052126Y13995262D01*
X23057437Y13995923D01*
X23062798Y13995825D01*
X23067969Y13997235D01*
X23067971Y13997235D01*
X23152906Y14020391D01*
X23201779Y14033715D01*
X23270191Y14075720D01*
X23319970Y14106284D01*
X23319973Y14106286D01*
X23324539Y14109090D01*
X23421210Y14215890D01*
X23435714Y14245825D01*
X23481682Y14340704D01*
X23481682Y14340705D01*
X23484020Y14345530D01*
X23507919Y14487587D01*
X23508071Y14500000D01*
X23497094Y14576648D01*
X23507657Y14626992D01*
X23518360Y14640483D01*
X23838651Y14960774D01*
X23885271Y14982514D01*
X23891825Y14982800D01*
X23921901Y14982800D01*
X23970239Y14965207D01*
X23995959Y14920658D01*
X23997101Y14907600D01*
X23997101Y14484944D01*
X24005972Y14440342D01*
X24039766Y14389766D01*
X24045923Y14385652D01*
X24084183Y14360087D01*
X24084184Y14360086D01*
X24090342Y14355972D01*
X24134943Y14347100D01*
X24649930Y14347100D01*
X25165056Y14347101D01*
X25209658Y14355972D01*
X25258221Y14388421D01*
X25308187Y14400648D01*
X25341779Y14388421D01*
X25384183Y14360087D01*
X25384184Y14360086D01*
X25390342Y14355972D01*
X25434943Y14347100D01*
X25743874Y14347100D01*
X25792212Y14329507D01*
X25797048Y14325074D01*
X25981659Y14140463D01*
X26003399Y14093843D01*
X26002790Y14075720D01*
X26000881Y14063456D01*
X25991967Y14006207D01*
X25992661Y14000900D01*
X25992661Y14000897D01*
X25993498Y13994498D01*
X26010645Y13863370D01*
X26068662Y13731516D01*
X26072107Y13727418D01*
X26072108Y13727416D01*
X26098203Y13696372D01*
X26161354Y13621245D01*
X26281270Y13541423D01*
X26418769Y13498465D01*
X26492871Y13497107D01*
X26557436Y13495923D01*
X26557438Y13495923D01*
X26562798Y13495825D01*
X26567969Y13497235D01*
X26567971Y13497235D01*
X26651953Y13520131D01*
X26701779Y13533715D01*
X26794595Y13590704D01*
X26819970Y13606284D01*
X26819973Y13606286D01*
X26824539Y13609090D01*
X26921210Y13715890D01*
X26926795Y13727416D01*
X26981682Y13840704D01*
X26981682Y13840705D01*
X26984020Y13845530D01*
X27007919Y13987587D01*
X27007956Y13990611D01*
X38608016Y13990611D01*
X38631515Y13853851D01*
X38633290Y13847229D01*
X38704212Y13654988D01*
X38707169Y13648790D01*
X38811931Y13472699D01*
X38815969Y13467141D01*
X38951066Y13313092D01*
X38956051Y13308361D01*
X39116964Y13181508D01*
X39122719Y13177771D01*
X39304059Y13082363D01*
X39310391Y13079740D01*
X39506087Y13018975D01*
X39512797Y13017549D01*
X39679144Y12997861D01*
X39683565Y12997600D01*
X40334341Y12997600D01*
X40344498Y13001297D01*
X40347600Y13006669D01*
X40347600Y13010859D01*
X40652400Y13010859D01*
X40656097Y13000702D01*
X40661469Y12997600D01*
X41302015Y12997600D01*
X41305429Y12997756D01*
X41457475Y13011728D01*
X41464227Y13012979D01*
X41661436Y13068598D01*
X41667843Y13071057D01*
X41851614Y13161683D01*
X41857472Y13165273D01*
X42021646Y13287867D01*
X42026750Y13292463D01*
X42165839Y13442929D01*
X42170014Y13448369D01*
X42279358Y13621668D01*
X42282472Y13627782D01*
X42358398Y13818090D01*
X42360352Y13824685D01*
X42392159Y13984595D01*
X42390515Y13995279D01*
X42387900Y13997572D01*
X42387751Y13997600D01*
X40665659Y13997600D01*
X40655502Y13993903D01*
X40652400Y13988531D01*
X40652400Y13010859D01*
X40347600Y13010859D01*
X40347600Y13984341D01*
X40343903Y13994498D01*
X40338531Y13997600D01*
X38620074Y13997600D01*
X38609917Y13993903D01*
X38608016Y13990611D01*
X27007956Y13990611D01*
X27008071Y14000000D01*
X27007659Y14002880D01*
X26988409Y14137296D01*
X26988408Y14137300D01*
X26987649Y14142599D01*
X26984089Y14150430D01*
X26943011Y14240775D01*
X26939020Y14292060D01*
X26968927Y14333911D01*
X27011467Y14347100D01*
X27742920Y14347101D01*
X27765056Y14347101D01*
X27809658Y14355972D01*
X27860234Y14389766D01*
X27894028Y14440342D01*
X27902900Y14484943D01*
X27902900Y14907600D01*
X27920493Y14955938D01*
X27965042Y14981658D01*
X27978100Y14982800D01*
X29186271Y14982800D01*
X29200942Y14981355D01*
X29220000Y14977564D01*
X29227264Y14979009D01*
X29292643Y14992014D01*
X29343484Y14984189D01*
X29377401Y14945515D01*
X29379143Y14898575D01*
X29379129Y14898546D01*
X29356967Y14756207D01*
X29357661Y14750900D01*
X29357661Y14750897D01*
X29360712Y14727564D01*
X29375645Y14613370D01*
X29433662Y14481516D01*
X29437107Y14477418D01*
X29437108Y14477416D01*
X29462166Y14447606D01*
X29526354Y14371245D01*
X29569611Y14342451D01*
X29626293Y14304721D01*
X29646270Y14291423D01*
X29783769Y14248465D01*
X29857871Y14247107D01*
X29922436Y14245923D01*
X29922438Y14245923D01*
X29927798Y14245825D01*
X29932969Y14247235D01*
X29932971Y14247235D01*
X30008695Y14267880D01*
X30066779Y14283715D01*
X30134139Y14325074D01*
X30184970Y14356284D01*
X30184973Y14356286D01*
X30189539Y14359090D01*
X30286210Y14465890D01*
X30290777Y14475315D01*
X30346682Y14590704D01*
X30346682Y14590705D01*
X30349020Y14595530D01*
X30372919Y14737587D01*
X30373071Y14750000D01*
X30372659Y14752880D01*
X30353409Y14887296D01*
X30353408Y14887300D01*
X30352649Y14892599D01*
X30349160Y14900274D01*
X30300390Y15007537D01*
X30293026Y15023734D01*
X30288538Y15028943D01*
X30202487Y15128810D01*
X30202484Y15128813D01*
X30198993Y15132864D01*
X30194502Y15135775D01*
X30082604Y15208303D01*
X30082603Y15208303D01*
X30078111Y15211215D01*
X30001912Y15234003D01*
X29945232Y15250955D01*
X29945229Y15250955D01*
X29940098Y15252490D01*
X29934743Y15252523D01*
X29934741Y15252523D01*
X29868072Y15252930D01*
X29796047Y15253370D01*
X29790893Y15251897D01*
X29790827Y15251888D01*
X29740548Y15262757D01*
X29709019Y15303401D01*
X29710991Y15354803D01*
X29727444Y15379566D01*
X30415090Y16067212D01*
X30426486Y16076565D01*
X30436482Y16083244D01*
X30442641Y16087359D01*
X30501697Y16175743D01*
X30522436Y16280000D01*
X30518645Y16299058D01*
X30517200Y16313729D01*
X30517200Y18216275D01*
X30518645Y18230946D01*
X30520990Y18242735D01*
X30520990Y18242736D01*
X30522435Y18250000D01*
X30516138Y18281658D01*
X30503142Y18346993D01*
X30501697Y18354257D01*
X30487905Y18374899D01*
X30467617Y18405261D01*
X30446755Y18436484D01*
X30442641Y18442641D01*
X30426485Y18453436D01*
X30415090Y18462788D01*
X27079489Y21798389D01*
X27070136Y21809785D01*
X27063455Y21819784D01*
X27059342Y21825940D01*
X27037245Y21840704D01*
X27024449Y21849254D01*
X27024447Y21849255D01*
X27022111Y21850816D01*
X26970958Y21884996D01*
X26866701Y21905735D01*
X26859437Y21904290D01*
X26847643Y21901944D01*
X26832972Y21900499D01*
X17348527Y21900499D01*
X17300189Y21918092D01*
X17295353Y21922525D01*
X16611671Y22606207D01*
X26791967Y22606207D01*
X26792661Y22600900D01*
X26792661Y22600897D01*
X26793159Y22597091D01*
X26810645Y22463370D01*
X26868662Y22331516D01*
X26872107Y22327418D01*
X26872108Y22327416D01*
X26900544Y22293587D01*
X26961354Y22221245D01*
X27081270Y22141423D01*
X27218769Y22098465D01*
X27292871Y22097107D01*
X27357436Y22095923D01*
X27357438Y22095923D01*
X27362798Y22095825D01*
X27370024Y22097795D01*
X27370593Y22097950D01*
X27372463Y22097795D01*
X27373284Y22097897D01*
X27373305Y22097725D01*
X27421856Y22093692D01*
X27443549Y22078573D01*
X31710774Y17811348D01*
X31732514Y17764728D01*
X31732800Y17758174D01*
X31732800Y15783729D01*
X31731355Y15769058D01*
X31727564Y15750000D01*
X31729009Y15742736D01*
X31746683Y15653889D01*
X31748303Y15645743D01*
X31764672Y15621245D01*
X31807359Y15557359D01*
X31813518Y15553244D01*
X31823514Y15546565D01*
X31834910Y15537212D01*
X32481659Y14890463D01*
X32503399Y14843843D01*
X32502790Y14825720D01*
X32497389Y14791030D01*
X32491967Y14756207D01*
X32492661Y14750900D01*
X32492661Y14750897D01*
X32495712Y14727564D01*
X32510645Y14613370D01*
X32568662Y14481516D01*
X32572107Y14477418D01*
X32572108Y14477416D01*
X32597166Y14447606D01*
X32661354Y14371245D01*
X32704611Y14342451D01*
X32761293Y14304721D01*
X32781270Y14291423D01*
X32918769Y14248465D01*
X32992871Y14247107D01*
X33057436Y14245923D01*
X33057438Y14245923D01*
X33062798Y14245825D01*
X33067969Y14247235D01*
X33067971Y14247235D01*
X33143695Y14267880D01*
X33201779Y14283715D01*
X33253391Y14315405D01*
X38607841Y14315405D01*
X38609485Y14304721D01*
X38612100Y14302428D01*
X38612249Y14302400D01*
X40334341Y14302400D01*
X40344498Y14306097D01*
X40347600Y14311469D01*
X40347600Y14315659D01*
X40652400Y14315659D01*
X40656097Y14305502D01*
X40661469Y14302400D01*
X42379926Y14302400D01*
X42390083Y14306097D01*
X42391984Y14309389D01*
X42368485Y14446149D01*
X42366710Y14452771D01*
X42295788Y14645012D01*
X42292831Y14651210D01*
X42188069Y14827301D01*
X42184031Y14832859D01*
X42048934Y14986908D01*
X42043949Y14991639D01*
X41883036Y15118492D01*
X41877281Y15122229D01*
X41695941Y15217637D01*
X41689609Y15220260D01*
X41493913Y15281025D01*
X41487203Y15282451D01*
X41320856Y15302139D01*
X41316435Y15302400D01*
X40665659Y15302400D01*
X40655502Y15298703D01*
X40652400Y15293331D01*
X40652400Y14315659D01*
X40347600Y14315659D01*
X40347600Y15289141D01*
X40343903Y15299298D01*
X40338531Y15302400D01*
X39697985Y15302400D01*
X39694571Y15302244D01*
X39542525Y15288272D01*
X39535773Y15287021D01*
X39338564Y15231402D01*
X39332157Y15228943D01*
X39148386Y15138317D01*
X39142528Y15134727D01*
X38978354Y15012133D01*
X38973250Y15007537D01*
X38834161Y14857071D01*
X38829986Y14851631D01*
X38720642Y14678332D01*
X38717528Y14672218D01*
X38641602Y14481910D01*
X38639648Y14475315D01*
X38607841Y14315405D01*
X33253391Y14315405D01*
X33269139Y14325074D01*
X33319970Y14356284D01*
X33319973Y14356286D01*
X33324539Y14359090D01*
X33421210Y14465890D01*
X33425777Y14475315D01*
X33481682Y14590704D01*
X33481682Y14590705D01*
X33484020Y14595530D01*
X33507919Y14737587D01*
X33508071Y14750000D01*
X33507659Y14752880D01*
X33488409Y14887296D01*
X33488408Y14887300D01*
X33487649Y14892599D01*
X33484160Y14900274D01*
X33435390Y15007537D01*
X33428026Y15023734D01*
X33423538Y15028943D01*
X33337487Y15128810D01*
X33337484Y15128813D01*
X33333993Y15132864D01*
X33329502Y15135775D01*
X33217604Y15208303D01*
X33217603Y15208303D01*
X33213111Y15211215D01*
X33136912Y15234003D01*
X33080232Y15250955D01*
X33080229Y15250955D01*
X33075098Y15252490D01*
X33069743Y15252523D01*
X33069741Y15252523D01*
X33004524Y15252921D01*
X32931047Y15253370D01*
X32925895Y15251898D01*
X32920591Y15251171D01*
X32920255Y15253623D01*
X32878300Y15256601D01*
X32855784Y15272094D01*
X32473989Y15653889D01*
X37774646Y15653889D01*
X37775920Y15649135D01*
X37793681Y15634019D01*
X37799679Y15629850D01*
X37973423Y15532749D01*
X37980136Y15529816D01*
X38169421Y15468314D01*
X38176569Y15466742D01*
X38374196Y15443176D01*
X38381528Y15443023D01*
X38579964Y15458292D01*
X38587173Y15459563D01*
X38778870Y15513085D01*
X38785703Y15515736D01*
X38963347Y15605470D01*
X38969533Y15609395D01*
X39018335Y15647524D01*
X39024065Y15656693D01*
X39023457Y15661016D01*
X38409377Y16275097D01*
X38399578Y16279666D01*
X38393587Y16278061D01*
X37779215Y15663688D01*
X37774646Y15653889D01*
X32473989Y15653889D01*
X32289226Y15838652D01*
X32267486Y15885272D01*
X32267200Y15891826D01*
X32267200Y16256207D01*
X32741967Y16256207D01*
X32742661Y16250900D01*
X32742661Y16250897D01*
X32745654Y16228008D01*
X32760645Y16113370D01*
X32818662Y15981516D01*
X32911354Y15871245D01*
X33031270Y15791423D01*
X33168769Y15748465D01*
X33242871Y15747107D01*
X33307436Y15745923D01*
X33307438Y15745923D01*
X33312798Y15745825D01*
X33317969Y15747235D01*
X33317971Y15747235D01*
X33427900Y15777205D01*
X33451779Y15783715D01*
X33504871Y15816314D01*
X33569970Y15856284D01*
X33569973Y15856286D01*
X33574539Y15859090D01*
X33598548Y15885614D01*
X33667612Y15961915D01*
X33671210Y15965890D01*
X33676795Y15977416D01*
X33731682Y16090704D01*
X33731682Y16090705D01*
X33734020Y16095530D01*
X33757919Y16237587D01*
X33758071Y16250000D01*
X33757602Y16253276D01*
X33738409Y16387296D01*
X33738408Y16387300D01*
X33737649Y16392599D01*
X33724361Y16421826D01*
X33693450Y16489811D01*
X33683773Y16511094D01*
X37342919Y16511094D01*
X37359573Y16312769D01*
X37360895Y16305567D01*
X37415755Y16114247D01*
X37418451Y16107438D01*
X37509427Y15930420D01*
X37513393Y15924265D01*
X37547313Y15881468D01*
X37556522Y15875803D01*
X37560928Y15876454D01*
X38175097Y16490623D01*
X38179272Y16499578D01*
X38620334Y16499578D01*
X38621939Y16493587D01*
X39236668Y15878859D01*
X39246467Y15874290D01*
X39251317Y15875589D01*
X39261718Y15887640D01*
X39265943Y15893628D01*
X39364249Y16066678D01*
X39367229Y16073373D01*
X39430051Y16262220D01*
X39431674Y16269365D01*
X39456816Y16468384D01*
X39457109Y16472576D01*
X39457463Y16497901D01*
X39457287Y16502093D01*
X39437712Y16701734D01*
X39436288Y16708921D01*
X39435487Y16711575D01*
X39732331Y16711575D01*
X39733302Y16707950D01*
X39868718Y16613131D01*
X39874385Y16609859D01*
X40067039Y16520022D01*
X40073190Y16517783D01*
X40278521Y16462765D01*
X40284963Y16461629D01*
X40496731Y16443102D01*
X40503269Y16443102D01*
X40715037Y16461629D01*
X40721479Y16462765D01*
X40926810Y16517783D01*
X40932961Y16520022D01*
X41125615Y16609859D01*
X41131282Y16613131D01*
X41261615Y16704392D01*
X41267815Y16713245D01*
X41267488Y16716986D01*
X40509377Y17475097D01*
X40499578Y17479666D01*
X40493587Y17478061D01*
X39736900Y16721374D01*
X39732331Y16711575D01*
X39435487Y16711575D01*
X39392948Y16852473D01*
X39395820Y16903833D01*
X39431033Y16941331D01*
X39482111Y16947421D01*
X39508073Y16935807D01*
X39513246Y16932185D01*
X39516986Y16932512D01*
X40275097Y17690623D01*
X40279272Y17699578D01*
X40720334Y17699578D01*
X40721939Y17693587D01*
X41478626Y16936900D01*
X41488425Y16932331D01*
X41492050Y16933302D01*
X41586869Y17068718D01*
X41590141Y17074385D01*
X41679978Y17267039D01*
X41682217Y17273190D01*
X41737235Y17478521D01*
X41738371Y17484963D01*
X41756898Y17696731D01*
X41756898Y17703269D01*
X41738371Y17915037D01*
X41737235Y17921479D01*
X41682217Y18126810D01*
X41679978Y18132961D01*
X41590141Y18325615D01*
X41586869Y18331282D01*
X41495608Y18461615D01*
X41486755Y18467815D01*
X41483014Y18467488D01*
X40724903Y17709377D01*
X40720334Y17699578D01*
X40279272Y17699578D01*
X40279666Y17700422D01*
X40278061Y17706413D01*
X39521374Y18463100D01*
X39511575Y18467669D01*
X39507950Y18466698D01*
X39413131Y18331282D01*
X39409859Y18325615D01*
X39320022Y18132961D01*
X39317783Y18126810D01*
X39262765Y17921479D01*
X39261629Y17915037D01*
X39243102Y17703269D01*
X39243102Y17696731D01*
X39261629Y17484963D01*
X39262765Y17478521D01*
X39317783Y17273190D01*
X39320022Y17267039D01*
X39338022Y17228439D01*
X39342506Y17177195D01*
X39313001Y17135058D01*
X39263314Y17121744D01*
X39251014Y17125717D01*
X39239356Y17123829D01*
X38624903Y16509377D01*
X38620334Y16499578D01*
X38179272Y16499578D01*
X38179666Y16500422D01*
X38178061Y16506413D01*
X37564008Y17120465D01*
X37554209Y17125034D01*
X37549549Y17123786D01*
X37529813Y17100266D01*
X37525677Y17094225D01*
X37429796Y16919817D01*
X37426909Y16913081D01*
X37366730Y16723372D01*
X37365207Y16716207D01*
X37343022Y16518427D01*
X37342919Y16511094D01*
X33683773Y16511094D01*
X33678026Y16523734D01*
X33673538Y16528943D01*
X33587487Y16628810D01*
X33587484Y16628813D01*
X33583993Y16632864D01*
X33579502Y16635775D01*
X33467604Y16708303D01*
X33467603Y16708303D01*
X33463111Y16711215D01*
X33367450Y16739824D01*
X33330232Y16750955D01*
X33330229Y16750955D01*
X33325098Y16752490D01*
X33319743Y16752523D01*
X33319741Y16752523D01*
X33254524Y16752921D01*
X33181047Y16753370D01*
X33175897Y16751898D01*
X33175896Y16751898D01*
X33122085Y16736519D01*
X33042539Y16713785D01*
X33038013Y16710929D01*
X33038010Y16710928D01*
X32930933Y16643367D01*
X32920709Y16636916D01*
X32916529Y16632183D01*
X32828897Y16532959D01*
X32828895Y16532956D01*
X32825351Y16528943D01*
X32764129Y16398546D01*
X32763305Y16393256D01*
X32763305Y16393255D01*
X32756493Y16349502D01*
X32741967Y16256207D01*
X32267200Y16256207D01*
X32267200Y17343689D01*
X37775636Y17343689D01*
X37776331Y17339196D01*
X38390623Y16724903D01*
X38400422Y16720334D01*
X38406413Y16721939D01*
X39020181Y17335708D01*
X39024750Y17345507D01*
X39023526Y17350075D01*
X38994172Y17374360D01*
X38988113Y17378447D01*
X38813027Y17473115D01*
X38806283Y17475950D01*
X38616149Y17534806D01*
X38608982Y17536277D01*
X38411038Y17557082D01*
X38403725Y17557133D01*
X38205504Y17539094D01*
X38198318Y17537723D01*
X38007387Y17481529D01*
X38000600Y17478787D01*
X37824210Y17386573D01*
X37818093Y17382570D01*
X37781235Y17352935D01*
X37775636Y17343689D01*
X32267200Y17343689D01*
X32267200Y17866271D01*
X32268645Y17880942D01*
X32270991Y17892736D01*
X32272436Y17900000D01*
X32266848Y17928092D01*
X32253142Y17996994D01*
X32253141Y17996996D01*
X32251697Y18004256D01*
X32226176Y18042452D01*
X32192641Y18092641D01*
X32176485Y18103436D01*
X32165090Y18112788D01*
X29631671Y20646207D01*
X31721967Y20646207D01*
X31722661Y20640900D01*
X31722661Y20640897D01*
X31728594Y20595530D01*
X31740645Y20503370D01*
X31766488Y20444638D01*
X31790469Y20390137D01*
X31798662Y20371516D01*
X31802107Y20367418D01*
X31802108Y20367416D01*
X31831206Y20332800D01*
X31891354Y20261245D01*
X32011270Y20181423D01*
X32148769Y20138465D01*
X32222871Y20137107D01*
X32287436Y20135923D01*
X32287438Y20135923D01*
X32292798Y20135825D01*
X32297969Y20137235D01*
X32297971Y20137235D01*
X32424802Y20171813D01*
X32431779Y20173715D01*
X32497201Y20213884D01*
X32549970Y20246284D01*
X32549973Y20246286D01*
X32554539Y20249090D01*
X32566837Y20262676D01*
X32647612Y20351915D01*
X32651210Y20355890D01*
X32676850Y20408811D01*
X32713756Y20444638D01*
X32765061Y20448361D01*
X32806756Y20418235D01*
X32813352Y20406310D01*
X32828662Y20371516D01*
X32832107Y20367418D01*
X32832108Y20367416D01*
X32861206Y20332800D01*
X32921354Y20261245D01*
X32959269Y20236007D01*
X32989759Y20194577D01*
X32992800Y20173407D01*
X32992800Y19643729D01*
X32991355Y19629058D01*
X32987564Y19610000D01*
X33008303Y19505743D01*
X33029691Y19473734D01*
X33067359Y19417359D01*
X33083518Y19406562D01*
X33094913Y19397209D01*
X33657210Y18834913D01*
X33666562Y18823518D01*
X33677359Y18807359D01*
X33739852Y18765603D01*
X33765743Y18748303D01*
X33773005Y18746859D01*
X33773006Y18746858D01*
X33862735Y18729010D01*
X33870000Y18727565D01*
X33877264Y18729010D01*
X33877265Y18729010D01*
X33889054Y18731355D01*
X33903725Y18732800D01*
X37324572Y18732800D01*
X37372910Y18715207D01*
X37396859Y18678329D01*
X37416301Y18610526D01*
X37510685Y18426875D01*
X37638942Y18265055D01*
X37641736Y18262677D01*
X37641737Y18262676D01*
X37701381Y18211915D01*
X37796188Y18131228D01*
X37799389Y18129439D01*
X37799392Y18129437D01*
X37840067Y18106705D01*
X37976433Y18030493D01*
X37979934Y18029356D01*
X37979935Y18029355D01*
X37996139Y18024090D01*
X38172811Y17966686D01*
X38244999Y17958078D01*
X38374185Y17942673D01*
X38374187Y17942673D01*
X38377843Y17942237D01*
X38583719Y17958078D01*
X38724604Y17997414D01*
X38779052Y18012616D01*
X38779054Y18012617D01*
X38782597Y18013606D01*
X38939060Y18092641D01*
X38963618Y18105046D01*
X38963619Y18105047D01*
X38966902Y18106705D01*
X39129614Y18233830D01*
X39264535Y18390137D01*
X39290864Y18436484D01*
X39364711Y18566478D01*
X39364712Y18566479D01*
X39366527Y18569675D01*
X39405474Y18686755D01*
X39732185Y18686755D01*
X39732512Y18683014D01*
X40490623Y17924903D01*
X40500422Y17920334D01*
X40506413Y17921939D01*
X41263100Y18678626D01*
X41267669Y18688425D01*
X41266698Y18692050D01*
X41131282Y18786869D01*
X41125615Y18790141D01*
X40932961Y18879978D01*
X40926810Y18882217D01*
X40721479Y18937235D01*
X40715037Y18938371D01*
X40503269Y18956898D01*
X40496731Y18956898D01*
X40284963Y18938371D01*
X40278521Y18937235D01*
X40073190Y18882217D01*
X40067039Y18879978D01*
X39874385Y18790141D01*
X39868718Y18786869D01*
X39738385Y18695608D01*
X39732185Y18686755D01*
X39405474Y18686755D01*
X39431703Y18765603D01*
X39435267Y18793810D01*
X39457319Y18968370D01*
X39457583Y18970459D01*
X39457995Y19000000D01*
X39457790Y19002093D01*
X39438206Y19201832D01*
X39438205Y19201837D01*
X39437846Y19205499D01*
X39378165Y19403171D01*
X39281227Y19585485D01*
X39272368Y19596348D01*
X39153045Y19742651D01*
X39153044Y19742652D01*
X39150722Y19745499D01*
X38991623Y19877118D01*
X38973364Y19886991D01*
X38921728Y19914910D01*
X38886689Y19933856D01*
X38852538Y19972322D01*
X38851102Y20023742D01*
X38883053Y20064055D01*
X38888551Y20067127D01*
X38963618Y20105046D01*
X38963619Y20105047D01*
X38966902Y20106705D01*
X39129614Y20233830D01*
X39264535Y20390137D01*
X39310351Y20470788D01*
X39364711Y20566478D01*
X39364712Y20566479D01*
X39366527Y20569675D01*
X39431703Y20765603D01*
X39432342Y20770657D01*
X39451582Y20922959D01*
X39457583Y20970459D01*
X39457995Y21000000D01*
X39455753Y21022864D01*
X39438206Y21201832D01*
X39438205Y21201837D01*
X39437846Y21205499D01*
X39405820Y21311575D01*
X39732331Y21311575D01*
X39733302Y21307950D01*
X39868718Y21213131D01*
X39874385Y21209859D01*
X40067039Y21120022D01*
X40073190Y21117783D01*
X40278521Y21062765D01*
X40284963Y21061629D01*
X40496731Y21043102D01*
X40503269Y21043102D01*
X40715037Y21061629D01*
X40721479Y21062765D01*
X40926810Y21117783D01*
X40932961Y21120022D01*
X41125615Y21209859D01*
X41131282Y21213131D01*
X41261615Y21304392D01*
X41267815Y21313245D01*
X41267488Y21316986D01*
X40509377Y22075097D01*
X40499578Y22079666D01*
X40493587Y22078061D01*
X39736900Y21321374D01*
X39732331Y21311575D01*
X39405820Y21311575D01*
X39378165Y21403171D01*
X39281227Y21585485D01*
X39258733Y21613066D01*
X39153045Y21742651D01*
X39153044Y21742652D01*
X39150722Y21745499D01*
X38991623Y21877118D01*
X38984666Y21880880D01*
X38907645Y21922525D01*
X38809990Y21975327D01*
X38612739Y22036386D01*
X38484065Y22049910D01*
X38411041Y22057585D01*
X38411039Y22057585D01*
X38407386Y22057969D01*
X38201752Y22039255D01*
X38102710Y22010106D01*
X38007197Y21981995D01*
X38007194Y21981994D01*
X38003668Y21980956D01*
X38000411Y21979253D01*
X38000408Y21979252D01*
X37852533Y21901944D01*
X37820681Y21885292D01*
X37817815Y21882987D01*
X37817814Y21882987D01*
X37668509Y21762943D01*
X37659760Y21755909D01*
X37657398Y21753094D01*
X37579924Y21660764D01*
X37535375Y21635044D01*
X37522317Y21633902D01*
X32977464Y21633902D01*
X32962793Y21635347D01*
X32951004Y21637692D01*
X32951003Y21637692D01*
X32943739Y21639137D01*
X32917421Y21633902D01*
X32839483Y21618399D01*
X32751098Y21559343D01*
X32746984Y21553186D01*
X32714202Y21504123D01*
X32704849Y21492727D01*
X32374309Y21162187D01*
X32327689Y21140447D01*
X32310135Y21140983D01*
X32305098Y21142490D01*
X32299746Y21142523D01*
X32299744Y21142523D01*
X32232370Y21142934D01*
X32161047Y21143370D01*
X32155897Y21141898D01*
X32155896Y21141898D01*
X32150819Y21140447D01*
X32022539Y21103785D01*
X32018013Y21100929D01*
X32018010Y21100928D01*
X31905237Y21029773D01*
X31900709Y21026916D01*
X31896459Y21022104D01*
X31808897Y20922959D01*
X31808895Y20922956D01*
X31805351Y20918943D01*
X31800614Y20908853D01*
X31755460Y20812679D01*
X31744129Y20788546D01*
X31743305Y20783256D01*
X31743305Y20783255D01*
X31738290Y20751045D01*
X31721967Y20646207D01*
X29631671Y20646207D01*
X28910174Y21367704D01*
X28888434Y21414324D01*
X28901748Y21464011D01*
X28943885Y21493516D01*
X28954054Y21495501D01*
X28957444Y21495923D01*
X28962798Y21495825D01*
X28967961Y21497233D01*
X28967964Y21497233D01*
X29051745Y21520074D01*
X29101779Y21533715D01*
X29186095Y21585485D01*
X29219970Y21606284D01*
X29219973Y21606286D01*
X29224539Y21609090D01*
X29229240Y21614283D01*
X29317612Y21711915D01*
X29321210Y21715890D01*
X29325918Y21725606D01*
X29381682Y21840704D01*
X29381682Y21840705D01*
X29384020Y21845530D01*
X29407919Y21987587D01*
X29408071Y22000000D01*
X29407183Y22006207D01*
X29397094Y22076647D01*
X29407657Y22126991D01*
X29418360Y22140482D01*
X30416085Y23138207D01*
X33166967Y23138207D01*
X33167661Y23132900D01*
X33167661Y23132897D01*
X33171715Y23101898D01*
X33185645Y22995370D01*
X33216338Y22925615D01*
X33241314Y22868853D01*
X33243662Y22863516D01*
X33247107Y22859418D01*
X33247108Y22859416D01*
X33286427Y22812641D01*
X33336354Y22753245D01*
X33456270Y22673423D01*
X33593769Y22630465D01*
X33667871Y22629107D01*
X33732436Y22627923D01*
X33732438Y22627923D01*
X33737798Y22627825D01*
X33742969Y22629235D01*
X33742971Y22629235D01*
X33818695Y22649880D01*
X33876779Y22665715D01*
X33929871Y22698314D01*
X33994970Y22738284D01*
X33994973Y22738286D01*
X33999539Y22741090D01*
X34096210Y22847890D01*
X34101795Y22859416D01*
X34156682Y22972704D01*
X34156682Y22972705D01*
X34159020Y22977530D01*
X34182919Y23119587D01*
X34183071Y23132000D01*
X34182659Y23134880D01*
X34163409Y23269296D01*
X34163408Y23269300D01*
X34162649Y23274599D01*
X34156915Y23287212D01*
X34116005Y23377188D01*
X34112014Y23428473D01*
X34141922Y23470325D01*
X34191734Y23483160D01*
X34237635Y23461487D01*
X34426659Y23272463D01*
X34448399Y23225843D01*
X34447790Y23207720D01*
X34436967Y23138207D01*
X34437661Y23132900D01*
X34437661Y23132897D01*
X34441715Y23101898D01*
X34455645Y22995370D01*
X34486338Y22925615D01*
X34511314Y22868853D01*
X34513662Y22863516D01*
X34517107Y22859418D01*
X34517108Y22859416D01*
X34556427Y22812641D01*
X34606354Y22753245D01*
X34726270Y22673423D01*
X34863769Y22630465D01*
X34937871Y22629107D01*
X35002436Y22627923D01*
X35002438Y22627923D01*
X35007798Y22627825D01*
X35012969Y22629235D01*
X35012971Y22629235D01*
X35088695Y22649880D01*
X35146779Y22665715D01*
X35199871Y22698314D01*
X35264970Y22738284D01*
X35264973Y22738286D01*
X35269539Y22741090D01*
X35366210Y22847890D01*
X35371795Y22859416D01*
X35426682Y22972704D01*
X35426682Y22972705D01*
X35429020Y22977530D01*
X35452919Y23119587D01*
X35453071Y23132000D01*
X35452659Y23134880D01*
X35433409Y23269296D01*
X35433408Y23269300D01*
X35432649Y23274599D01*
X35426915Y23287212D01*
X35380368Y23389585D01*
X35373026Y23405734D01*
X35368538Y23410943D01*
X35282487Y23510810D01*
X35282484Y23510813D01*
X35279072Y23514772D01*
X37342108Y23514772D01*
X37342416Y23511104D01*
X37342416Y23511101D01*
X37359008Y23313516D01*
X37359386Y23309012D01*
X37384705Y23220715D01*
X37412868Y23122500D01*
X37416301Y23110526D01*
X37510685Y22926875D01*
X37638942Y22765055D01*
X37641736Y22762677D01*
X37641737Y22762676D01*
X37743119Y22676393D01*
X37796188Y22631228D01*
X37799389Y22629439D01*
X37799392Y22629437D01*
X37874275Y22587587D01*
X37976433Y22530493D01*
X37979934Y22529356D01*
X37979935Y22529355D01*
X38004175Y22521479D01*
X38172811Y22466686D01*
X38244999Y22458078D01*
X38374185Y22442673D01*
X38374187Y22442673D01*
X38377843Y22442237D01*
X38583719Y22458078D01*
X38740664Y22501898D01*
X38779052Y22512616D01*
X38779054Y22512617D01*
X38782597Y22513606D01*
X38929055Y22587587D01*
X38963618Y22605046D01*
X38963619Y22605047D01*
X38966902Y22606705D01*
X39129614Y22733830D01*
X39191667Y22805719D01*
X39236570Y22830815D01*
X39287099Y22821176D01*
X39319610Y22781313D01*
X39319257Y22730859D01*
X39317783Y22726810D01*
X39262765Y22521479D01*
X39261629Y22515037D01*
X39243102Y22303269D01*
X39243102Y22296731D01*
X39261629Y22084963D01*
X39262765Y22078521D01*
X39317783Y21873190D01*
X39320022Y21867039D01*
X39409859Y21674385D01*
X39413131Y21668718D01*
X39504392Y21538385D01*
X39513245Y21532185D01*
X39516986Y21532512D01*
X40275097Y22290623D01*
X40279272Y22299578D01*
X40720334Y22299578D01*
X40721939Y22293587D01*
X41478626Y21536900D01*
X41488425Y21532331D01*
X41492050Y21533302D01*
X41586869Y21668718D01*
X41590141Y21674385D01*
X41679978Y21867039D01*
X41682217Y21873190D01*
X41737235Y22078521D01*
X41738371Y22084963D01*
X41756898Y22296731D01*
X41756898Y22303269D01*
X41738371Y22515037D01*
X41737235Y22521479D01*
X41682217Y22726810D01*
X41679978Y22732961D01*
X41590141Y22925615D01*
X41586869Y22931282D01*
X41495608Y23061615D01*
X41486755Y23067815D01*
X41483014Y23067488D01*
X40724903Y22309377D01*
X40720334Y22299578D01*
X40279272Y22299578D01*
X40279666Y22300422D01*
X40278061Y22306413D01*
X39521374Y23063100D01*
X39511575Y23067669D01*
X39488328Y23061440D01*
X39487753Y23063587D01*
X39472929Y23056674D01*
X39423242Y23069988D01*
X39393737Y23112125D01*
X39395019Y23155324D01*
X39430543Y23262114D01*
X39430544Y23262120D01*
X39431703Y23265603D01*
X39432840Y23274599D01*
X39434376Y23286755D01*
X39732185Y23286755D01*
X39732512Y23283014D01*
X40490623Y22524903D01*
X40500422Y22520334D01*
X40506413Y22521939D01*
X41263100Y23278626D01*
X41267669Y23288425D01*
X41266698Y23292050D01*
X41131282Y23386869D01*
X41125615Y23390141D01*
X40932961Y23479978D01*
X40926810Y23482217D01*
X40721479Y23537235D01*
X40715037Y23538371D01*
X40503269Y23556898D01*
X40496731Y23556898D01*
X40284963Y23538371D01*
X40278521Y23537235D01*
X40073190Y23482217D01*
X40067039Y23479978D01*
X39874385Y23390141D01*
X39868718Y23386869D01*
X39738385Y23295608D01*
X39732185Y23286755D01*
X39434376Y23286755D01*
X39455617Y23454900D01*
X39457583Y23470459D01*
X39457894Y23492735D01*
X39457966Y23497901D01*
X39457966Y23497906D01*
X39457995Y23500000D01*
X39457713Y23502880D01*
X39438206Y23701832D01*
X39438205Y23701837D01*
X39437846Y23705499D01*
X39378165Y23903171D01*
X39281227Y24085485D01*
X39277627Y24089900D01*
X39153045Y24242651D01*
X39153044Y24242652D01*
X39150722Y24245499D01*
X38991623Y24377118D01*
X38972800Y24387296D01*
X38932740Y24408956D01*
X38809990Y24475327D01*
X38612739Y24536386D01*
X38484065Y24549910D01*
X38411041Y24557585D01*
X38411039Y24557585D01*
X38407386Y24557969D01*
X38201752Y24539255D01*
X38132432Y24518853D01*
X38007197Y24481995D01*
X38007194Y24481994D01*
X38003668Y24480956D01*
X38000411Y24479253D01*
X38000408Y24479252D01*
X37824514Y24387296D01*
X37820681Y24385292D01*
X37817815Y24382987D01*
X37817814Y24382987D01*
X37810515Y24377118D01*
X37659760Y24255909D01*
X37657398Y24253094D01*
X37561023Y24138238D01*
X37527034Y24097732D01*
X37427559Y23916789D01*
X37365125Y23719970D01*
X37342108Y23514772D01*
X35279072Y23514772D01*
X35278993Y23514864D01*
X35273485Y23518434D01*
X35162604Y23590303D01*
X35162603Y23590303D01*
X35158111Y23593215D01*
X35081912Y23616003D01*
X35025232Y23632955D01*
X35025229Y23632955D01*
X35020098Y23634490D01*
X35014743Y23634523D01*
X35014741Y23634523D01*
X34949524Y23634921D01*
X34876047Y23635370D01*
X34870895Y23633898D01*
X34865591Y23633171D01*
X34865255Y23635623D01*
X34823300Y23638601D01*
X34800784Y23654094D01*
X34599226Y23855652D01*
X34577486Y23902272D01*
X34577200Y23908826D01*
X34577200Y25690611D01*
X38608016Y25690611D01*
X38631515Y25553851D01*
X38633290Y25547229D01*
X38704212Y25354988D01*
X38707169Y25348790D01*
X38811931Y25172699D01*
X38815969Y25167141D01*
X38951066Y25013092D01*
X38956051Y25008361D01*
X39116964Y24881508D01*
X39122719Y24877771D01*
X39304059Y24782363D01*
X39310391Y24779740D01*
X39506087Y24718975D01*
X39512797Y24717549D01*
X39679144Y24697861D01*
X39683565Y24697600D01*
X40334341Y24697600D01*
X40344498Y24701297D01*
X40347600Y24706669D01*
X40347600Y24710859D01*
X40652400Y24710859D01*
X40656097Y24700702D01*
X40661469Y24697600D01*
X41302015Y24697600D01*
X41305429Y24697756D01*
X41457475Y24711728D01*
X41464227Y24712979D01*
X41661436Y24768598D01*
X41667843Y24771057D01*
X41851614Y24861683D01*
X41857472Y24865273D01*
X42021646Y24987867D01*
X42026750Y24992463D01*
X42165839Y25142929D01*
X42170014Y25148369D01*
X42279358Y25321668D01*
X42282472Y25327782D01*
X42358398Y25518090D01*
X42360352Y25524685D01*
X42392159Y25684595D01*
X42390515Y25695279D01*
X42387900Y25697572D01*
X42387751Y25697600D01*
X40665659Y25697600D01*
X40655502Y25693903D01*
X40652400Y25688531D01*
X40652400Y24710859D01*
X40347600Y24710859D01*
X40347600Y25684341D01*
X40343903Y25694498D01*
X40338531Y25697600D01*
X38620074Y25697600D01*
X38609917Y25693903D01*
X38608016Y25690611D01*
X34577200Y25690611D01*
X34577200Y25771901D01*
X34594793Y25820239D01*
X34639342Y25845959D01*
X34652400Y25847101D01*
X34825056Y25847101D01*
X34869658Y25855972D01*
X34920234Y25889766D01*
X34954028Y25940342D01*
X34962900Y25984943D01*
X34962900Y26015405D01*
X38607841Y26015405D01*
X38609485Y26004721D01*
X38612100Y26002428D01*
X38612249Y26002400D01*
X40334341Y26002400D01*
X40344498Y26006097D01*
X40347600Y26011469D01*
X40347600Y26015659D01*
X40652400Y26015659D01*
X40656097Y26005502D01*
X40661469Y26002400D01*
X42379926Y26002400D01*
X42390083Y26006097D01*
X42391984Y26009389D01*
X42368485Y26146149D01*
X42366710Y26152771D01*
X42295788Y26345012D01*
X42292831Y26351210D01*
X42188069Y26527301D01*
X42184031Y26532859D01*
X42048934Y26686908D01*
X42043949Y26691639D01*
X41883036Y26818492D01*
X41877281Y26822229D01*
X41695941Y26917637D01*
X41689609Y26920260D01*
X41493913Y26981025D01*
X41487203Y26982451D01*
X41320856Y27002139D01*
X41316435Y27002400D01*
X40665659Y27002400D01*
X40655502Y26998703D01*
X40652400Y26993331D01*
X40652400Y26015659D01*
X40347600Y26015659D01*
X40347600Y26989141D01*
X40343903Y26999298D01*
X40338531Y27002400D01*
X39697985Y27002400D01*
X39694571Y27002244D01*
X39542525Y26988272D01*
X39535773Y26987021D01*
X39338564Y26931402D01*
X39332157Y26928943D01*
X39148386Y26838317D01*
X39142528Y26834727D01*
X38978354Y26712133D01*
X38973250Y26707537D01*
X38834161Y26557071D01*
X38829986Y26551631D01*
X38720642Y26378332D01*
X38717528Y26372218D01*
X38641602Y26181910D01*
X38639648Y26175315D01*
X38607841Y26015405D01*
X34962900Y26015405D01*
X34962899Y27015056D01*
X34954028Y27059658D01*
X34920234Y27110234D01*
X34876972Y27139141D01*
X34875817Y27139913D01*
X34875816Y27139914D01*
X34869658Y27144028D01*
X34843165Y27149298D01*
X34828682Y27152179D01*
X34828681Y27152179D01*
X34825057Y27152900D01*
X34310070Y27152900D01*
X33794944Y27152899D01*
X33750342Y27144028D01*
X33699766Y27110234D01*
X33695652Y27104077D01*
X33682139Y27083853D01*
X33665972Y27059658D01*
X33657100Y27015057D01*
X33657101Y25984944D01*
X33665972Y25940342D01*
X33699766Y25889766D01*
X33705923Y25885652D01*
X33744183Y25860087D01*
X33744184Y25860086D01*
X33750342Y25855972D01*
X33757606Y25854527D01*
X33788805Y25848321D01*
X33794943Y25847100D01*
X33967600Y25847100D01*
X34015938Y25829507D01*
X34041658Y25784958D01*
X34042800Y25771900D01*
X34042800Y23800729D01*
X34041355Y23786058D01*
X34037564Y23767000D01*
X34058303Y23662743D01*
X34067637Y23648774D01*
X34079864Y23598812D01*
X34057115Y23552676D01*
X34010033Y23531957D01*
X33964210Y23543892D01*
X33892608Y23590301D01*
X33892604Y23590303D01*
X33888111Y23593215D01*
X33811912Y23616003D01*
X33755232Y23632955D01*
X33755229Y23632955D01*
X33750098Y23634490D01*
X33744743Y23634523D01*
X33744741Y23634523D01*
X33679524Y23634921D01*
X33606047Y23635370D01*
X33600897Y23633898D01*
X33600896Y23633898D01*
X33562075Y23622803D01*
X33467539Y23595785D01*
X33463013Y23592929D01*
X33463010Y23592928D01*
X33376543Y23538371D01*
X33345709Y23518916D01*
X33342049Y23514772D01*
X33253897Y23414959D01*
X33253895Y23414956D01*
X33250351Y23410943D01*
X33238696Y23386119D01*
X33196201Y23295608D01*
X33189129Y23280546D01*
X33188305Y23275256D01*
X33188305Y23275255D01*
X33182259Y23236420D01*
X33166967Y23138207D01*
X30416085Y23138207D01*
X30565090Y23287212D01*
X30576486Y23296565D01*
X30586485Y23303246D01*
X30592641Y23307359D01*
X30645268Y23386122D01*
X30651697Y23395743D01*
X30654721Y23410943D01*
X30670990Y23492735D01*
X30672435Y23500000D01*
X30668645Y23519054D01*
X30667200Y23533725D01*
X30667200Y25658174D01*
X30684793Y25706512D01*
X30689226Y25711348D01*
X30992023Y26014145D01*
X31038643Y26035885D01*
X31088330Y26022571D01*
X31118951Y25975642D01*
X31125972Y25940342D01*
X31133389Y25929241D01*
X31145616Y25879277D01*
X31127228Y25837683D01*
X31078897Y25782959D01*
X31078895Y25782955D01*
X31075351Y25778943D01*
X31067742Y25762736D01*
X31023550Y25668611D01*
X31014129Y25648546D01*
X31013305Y25643256D01*
X31013305Y25643255D01*
X31011693Y25632903D01*
X30991967Y25506207D01*
X30992661Y25500900D01*
X30992661Y25500897D01*
X30993159Y25497091D01*
X31010645Y25363370D01*
X31068662Y25231516D01*
X31161354Y25121245D01*
X31281270Y25041423D01*
X31418769Y24998465D01*
X31492871Y24997107D01*
X31557436Y24995923D01*
X31557438Y24995923D01*
X31562798Y24995825D01*
X31567969Y24997235D01*
X31567971Y24997235D01*
X31685302Y25029223D01*
X31701779Y25033715D01*
X31794595Y25090704D01*
X31819970Y25106284D01*
X31819973Y25106286D01*
X31824539Y25109090D01*
X31921210Y25215890D01*
X31926795Y25227416D01*
X31981682Y25340704D01*
X31981682Y25340705D01*
X31984020Y25345530D01*
X32007919Y25487587D01*
X32008071Y25500000D01*
X32007659Y25502880D01*
X31988409Y25637296D01*
X31988408Y25637300D01*
X31987649Y25642599D01*
X31979927Y25659584D01*
X31943011Y25740776D01*
X31939020Y25792061D01*
X31968928Y25833913D01*
X32011467Y25847101D01*
X32285056Y25847101D01*
X32329658Y25855972D01*
X32380234Y25889766D01*
X32414028Y25940342D01*
X32422900Y25984943D01*
X32422899Y27015056D01*
X32414028Y27059658D01*
X32380234Y27110234D01*
X32336972Y27139141D01*
X32335817Y27139913D01*
X32335816Y27139914D01*
X32329658Y27144028D01*
X32303165Y27149298D01*
X32288682Y27152179D01*
X32288681Y27152179D01*
X32285057Y27152900D01*
X31770070Y27152900D01*
X31254944Y27152899D01*
X31210342Y27144028D01*
X31159766Y27110234D01*
X31155652Y27104077D01*
X31142139Y27083853D01*
X31125972Y27059658D01*
X31117100Y27015057D01*
X31117100Y26837551D01*
X31099507Y26789213D01*
X31056572Y26763797D01*
X30995744Y26751697D01*
X30907359Y26692641D01*
X30903246Y26686485D01*
X30896565Y26676486D01*
X30887212Y26665090D01*
X30234910Y26012788D01*
X30223515Y26003436D01*
X30207359Y25992641D01*
X30203245Y25986484D01*
X30203244Y25986483D01*
X30192452Y25970331D01*
X30192451Y25970329D01*
X30168300Y25934184D01*
X30148303Y25904257D01*
X30127564Y25800000D01*
X30129009Y25792736D01*
X30131355Y25780942D01*
X30132800Y25766271D01*
X30132800Y25668611D01*
X30115207Y25620273D01*
X30070658Y25594553D01*
X30020000Y25603486D01*
X29988849Y25643144D01*
X29987649Y25642599D01*
X29975822Y25668611D01*
X29928026Y25773734D01*
X29884552Y25824188D01*
X29872238Y25838479D01*
X29854013Y25886583D01*
X29866680Y25929345D01*
X29869912Y25934182D01*
X29874028Y25940342D01*
X29882900Y25984943D01*
X29882899Y27015056D01*
X29874028Y27059658D01*
X29840234Y27110234D01*
X29796972Y27139141D01*
X29795817Y27139913D01*
X29795816Y27139914D01*
X29789658Y27144028D01*
X29763165Y27149298D01*
X29748682Y27152179D01*
X29748681Y27152179D01*
X29745057Y27152900D01*
X29230070Y27152900D01*
X28714944Y27152899D01*
X28670342Y27144028D01*
X28619766Y27110234D01*
X28615652Y27104077D01*
X28602139Y27083853D01*
X28585972Y27059658D01*
X28577100Y27015057D01*
X28577101Y25984944D01*
X28585972Y25940342D01*
X28619766Y25889766D01*
X28625923Y25885652D01*
X28664183Y25860087D01*
X28664184Y25860086D01*
X28670342Y25855972D01*
X28677606Y25854527D01*
X28708805Y25848321D01*
X28714943Y25847100D01*
X28883809Y25847100D01*
X28932147Y25829507D01*
X28957867Y25784958D01*
X28958683Y25775626D01*
X28957564Y25770000D01*
X28978303Y25665743D01*
X28982417Y25659586D01*
X28982418Y25659584D01*
X28993241Y25643387D01*
X29005019Y25590039D01*
X28991967Y25506207D01*
X28992661Y25500900D01*
X28992661Y25500897D01*
X28993159Y25497091D01*
X29010645Y25363370D01*
X29068662Y25231516D01*
X29161354Y25121245D01*
X29281270Y25041423D01*
X29418769Y24998465D01*
X29492871Y24997107D01*
X29557436Y24995923D01*
X29557438Y24995923D01*
X29562798Y24995825D01*
X29567969Y24997235D01*
X29567971Y24997235D01*
X29685302Y25029223D01*
X29701779Y25033715D01*
X29794595Y25090704D01*
X29819970Y25106284D01*
X29819973Y25106286D01*
X29824539Y25109090D01*
X29921210Y25215890D01*
X29926795Y25227416D01*
X29981685Y25340710D01*
X29981686Y25340712D01*
X29984020Y25345530D01*
X29984908Y25350809D01*
X29985961Y25354108D01*
X30017419Y25394808D01*
X30067678Y25405765D01*
X30113222Y25381852D01*
X30132800Y25331243D01*
X30132800Y23641826D01*
X30115207Y23593488D01*
X30110774Y23588652D01*
X29044309Y22522187D01*
X28997689Y22500447D01*
X28980135Y22500983D01*
X28975098Y22502490D01*
X28969746Y22502523D01*
X28969744Y22502523D01*
X28902370Y22502934D01*
X28831047Y22503370D01*
X28825897Y22501898D01*
X28825896Y22501898D01*
X28820819Y22500447D01*
X28692539Y22463785D01*
X28688013Y22460929D01*
X28688010Y22460928D01*
X28658387Y22442237D01*
X28570709Y22386916D01*
X28567164Y22382903D01*
X28567165Y22382903D01*
X28478897Y22282959D01*
X28478895Y22282956D01*
X28475351Y22278943D01*
X28414129Y22148546D01*
X28399967Y22057585D01*
X28398540Y22048422D01*
X28373719Y22003366D01*
X28325745Y21984806D01*
X28277064Y22001426D01*
X28271061Y22006817D01*
X27818396Y22459482D01*
X27796656Y22506102D01*
X27797412Y22525132D01*
X27807919Y22587587D01*
X27808071Y22600000D01*
X27807659Y22602880D01*
X27788409Y22737296D01*
X27788408Y22737300D01*
X27787649Y22742599D01*
X27776131Y22767933D01*
X27732672Y22863516D01*
X27728026Y22873734D01*
X27723538Y22878943D01*
X27637487Y22978810D01*
X27637484Y22978813D01*
X27633993Y22982864D01*
X27629502Y22985775D01*
X27517604Y23058303D01*
X27517603Y23058303D01*
X27513111Y23061215D01*
X27436912Y23084003D01*
X27380232Y23100955D01*
X27380229Y23100955D01*
X27375098Y23102490D01*
X27369743Y23102523D01*
X27369741Y23102523D01*
X27304524Y23102921D01*
X27231047Y23103370D01*
X27225897Y23101898D01*
X27225896Y23101898D01*
X27161793Y23083577D01*
X27092539Y23063785D01*
X27088013Y23060929D01*
X27088010Y23060928D01*
X26984984Y22995923D01*
X26970709Y22986916D01*
X26953732Y22967693D01*
X26878897Y22882959D01*
X26878895Y22882956D01*
X26875351Y22878943D01*
X26860401Y22847100D01*
X26818261Y22757346D01*
X26814129Y22748546D01*
X26791967Y22606207D01*
X16611671Y22606207D01*
X16432788Y22785090D01*
X16423435Y22796486D01*
X16416756Y22806482D01*
X16412641Y22812641D01*
X16361069Y22847100D01*
X16324257Y22871697D01*
X16316995Y22873142D01*
X16316994Y22873142D01*
X16227264Y22890991D01*
X16220000Y22892436D01*
X16212736Y22890991D01*
X16200942Y22888645D01*
X16186271Y22887200D01*
X15498099Y22887200D01*
X15449761Y22904793D01*
X15424041Y22949342D01*
X15422899Y22962400D01*
X15422899Y23317056D01*
X15414028Y23361658D01*
X15380234Y23412234D01*
X15355931Y23428473D01*
X15335817Y23441913D01*
X15335816Y23441914D01*
X15329658Y23446028D01*
X15285057Y23454900D01*
X14721377Y23454900D01*
X12728100Y23454899D01*
X12679762Y23472492D01*
X12660297Y23506207D01*
X22491967Y23506207D01*
X22492661Y23500900D01*
X22492661Y23500897D01*
X22496659Y23470325D01*
X22510645Y23363370D01*
X22568662Y23231516D01*
X22572107Y23227418D01*
X22572108Y23227416D01*
X22625923Y23163396D01*
X22661354Y23121245D01*
X22690419Y23101898D01*
X22758359Y23056674D01*
X22781270Y23041423D01*
X22918769Y22998465D01*
X22992871Y22997107D01*
X23057436Y22995923D01*
X23057438Y22995923D01*
X23062798Y22995825D01*
X23067969Y22997235D01*
X23067971Y22997235D01*
X23143695Y23017880D01*
X23201779Y23033715D01*
X23257316Y23067815D01*
X23319970Y23106284D01*
X23319973Y23106286D01*
X23324539Y23109090D01*
X23329040Y23114062D01*
X23417612Y23211915D01*
X23421210Y23215890D01*
X23426795Y23227416D01*
X23481682Y23340704D01*
X23481682Y23340705D01*
X23484020Y23345530D01*
X23507919Y23487587D01*
X23508071Y23500000D01*
X23507659Y23502880D01*
X23488409Y23637296D01*
X23488408Y23637300D01*
X23487649Y23642599D01*
X23475188Y23670007D01*
X23440074Y23747235D01*
X23428026Y23773734D01*
X23420640Y23782306D01*
X23337487Y23878810D01*
X23337484Y23878813D01*
X23333993Y23882864D01*
X23329502Y23885775D01*
X23217604Y23958303D01*
X23217603Y23958303D01*
X23213111Y23961215D01*
X23128832Y23986420D01*
X23080232Y24000955D01*
X23080229Y24000955D01*
X23075098Y24002490D01*
X23069743Y24002523D01*
X23069741Y24002523D01*
X23004524Y24002921D01*
X22931047Y24003370D01*
X22925897Y24001898D01*
X22925896Y24001898D01*
X22871739Y23986420D01*
X22792539Y23963785D01*
X22788013Y23960929D01*
X22788010Y23960928D01*
X22695047Y23902272D01*
X22670709Y23886916D01*
X22663550Y23878810D01*
X22578897Y23782959D01*
X22578895Y23782956D01*
X22575351Y23778943D01*
X22560464Y23747235D01*
X22517906Y23656590D01*
X22514129Y23648546D01*
X22513305Y23643256D01*
X22513305Y23643255D01*
X22510121Y23622803D01*
X22491967Y23506207D01*
X12660297Y23506207D01*
X12654042Y23517041D01*
X12652900Y23530099D01*
X12652900Y24089900D01*
X12670493Y24138238D01*
X12715042Y24163958D01*
X12728100Y24165100D01*
X14721290Y24165101D01*
X15285056Y24165101D01*
X15329658Y24173972D01*
X15380234Y24207766D01*
X15380265Y24207813D01*
X15423086Y24227781D01*
X15472773Y24214467D01*
X15502278Y24172330D01*
X15504205Y24162618D01*
X15510645Y24113370D01*
X15520972Y24089900D01*
X15559061Y24003337D01*
X15568662Y23981516D01*
X15572107Y23977418D01*
X15572108Y23977416D01*
X15585968Y23960928D01*
X15661354Y23871245D01*
X15781270Y23791423D01*
X15918769Y23748465D01*
X15992871Y23747107D01*
X16057436Y23745923D01*
X16057438Y23745923D01*
X16062798Y23745825D01*
X16067969Y23747235D01*
X16067971Y23747235D01*
X16147265Y23768853D01*
X16201779Y23783715D01*
X16254871Y23816314D01*
X16319970Y23856284D01*
X16319973Y23856286D01*
X16324539Y23859090D01*
X16421210Y23965890D01*
X16426795Y23977416D01*
X16481682Y24090704D01*
X16481682Y24090705D01*
X16484020Y24095530D01*
X16507919Y24237587D01*
X16508071Y24250000D01*
X16507225Y24255909D01*
X16488409Y24387296D01*
X16488408Y24387300D01*
X16487649Y24392599D01*
X16428026Y24523734D01*
X16423538Y24528943D01*
X16337487Y24628810D01*
X16337484Y24628813D01*
X16333993Y24632864D01*
X16329504Y24635773D01*
X16329499Y24635778D01*
X16250172Y24687194D01*
X16219178Y24728248D01*
X16221825Y24779620D01*
X16251725Y24814382D01*
X16319970Y24856284D01*
X16319973Y24856286D01*
X16324539Y24859090D01*
X16421210Y24965890D01*
X16426795Y24977416D01*
X16481682Y25090704D01*
X16481682Y25090705D01*
X16484020Y25095530D01*
X16507919Y25237587D01*
X16508071Y25250000D01*
X16507659Y25252880D01*
X16488409Y25387296D01*
X16488408Y25387300D01*
X16487649Y25392599D01*
X16435995Y25506207D01*
X25491967Y25506207D01*
X25492661Y25500900D01*
X25492661Y25500897D01*
X25493159Y25497091D01*
X25510645Y25363370D01*
X25568662Y25231516D01*
X25661354Y25121245D01*
X25781270Y25041423D01*
X25918769Y24998465D01*
X25992871Y24997107D01*
X26057436Y24995923D01*
X26057438Y24995923D01*
X26062798Y24995825D01*
X26067969Y24997235D01*
X26067971Y24997235D01*
X26185302Y25029223D01*
X26201779Y25033715D01*
X26294595Y25090704D01*
X26319970Y25106284D01*
X26319973Y25106286D01*
X26324539Y25109090D01*
X26421210Y25215890D01*
X26426795Y25227416D01*
X26481682Y25340704D01*
X26481682Y25340705D01*
X26484020Y25345530D01*
X26507919Y25487587D01*
X26508071Y25500000D01*
X26507183Y25506207D01*
X26497094Y25576647D01*
X26507657Y25626991D01*
X26518360Y25640482D01*
X26702953Y25825075D01*
X26749573Y25846815D01*
X26756127Y25847101D01*
X27205056Y25847101D01*
X27249658Y25855972D01*
X27300234Y25889766D01*
X27334028Y25940342D01*
X27342900Y25984943D01*
X27342899Y27015056D01*
X27334028Y27059658D01*
X27300234Y27110234D01*
X27256972Y27139141D01*
X27255817Y27139913D01*
X27255816Y27139914D01*
X27249658Y27144028D01*
X27223165Y27149298D01*
X27208682Y27152179D01*
X27208681Y27152179D01*
X27205057Y27152900D01*
X26690070Y27152900D01*
X26174944Y27152899D01*
X26130342Y27144028D01*
X26079766Y27110234D01*
X26075652Y27104077D01*
X26062139Y27083853D01*
X26045972Y27059658D01*
X26037100Y27015057D01*
X26037101Y26514720D01*
X26037101Y26078383D01*
X26019508Y26030045D01*
X25974959Y26004325D01*
X25961444Y26003184D01*
X25931047Y26003370D01*
X25925897Y26001898D01*
X25925896Y26001898D01*
X25893506Y25992641D01*
X25792539Y25963785D01*
X25788013Y25960929D01*
X25788010Y25960928D01*
X25686680Y25896993D01*
X25670709Y25886916D01*
X25663963Y25879277D01*
X25578897Y25782959D01*
X25578895Y25782956D01*
X25575351Y25778943D01*
X25567742Y25762736D01*
X25523550Y25668611D01*
X25514129Y25648546D01*
X25513305Y25643256D01*
X25513305Y25643255D01*
X25511693Y25632903D01*
X25491967Y25506207D01*
X16435995Y25506207D01*
X16428026Y25523734D01*
X16423538Y25528943D01*
X16337487Y25628810D01*
X16337484Y25628813D01*
X16333993Y25632864D01*
X16329502Y25635775D01*
X16217604Y25708303D01*
X16217603Y25708303D01*
X16213111Y25711215D01*
X16114267Y25740776D01*
X16080232Y25750955D01*
X16080229Y25750955D01*
X16075098Y25752490D01*
X16069743Y25752523D01*
X16069741Y25752523D01*
X16004524Y25752921D01*
X15931047Y25753370D01*
X15925897Y25751898D01*
X15925896Y25751898D01*
X15861793Y25733577D01*
X15792539Y25713785D01*
X15788013Y25710929D01*
X15788010Y25710928D01*
X15680965Y25643387D01*
X15670709Y25636916D01*
X15654894Y25619009D01*
X15578897Y25532959D01*
X15578895Y25532956D01*
X15575351Y25528943D01*
X15573075Y25524094D01*
X15573071Y25524089D01*
X15566169Y25509389D01*
X15529700Y25473111D01*
X15478444Y25468763D01*
X15436385Y25498379D01*
X15422899Y25541349D01*
X15422899Y25857056D01*
X15414028Y25901658D01*
X15380234Y25952234D01*
X15353150Y25970331D01*
X15335817Y25981913D01*
X15335816Y25981914D01*
X15329658Y25986028D01*
X15316306Y25988684D01*
X23497600Y25988684D01*
X23498321Y25981363D01*
X23504997Y25947802D01*
X23510558Y25934377D01*
X23536014Y25896280D01*
X23546280Y25886014D01*
X23584377Y25860558D01*
X23597802Y25854997D01*
X23631363Y25848321D01*
X23638684Y25847600D01*
X23984341Y25847600D01*
X23994498Y25851297D01*
X23997600Y25856669D01*
X23997600Y25860859D01*
X24302400Y25860859D01*
X24306097Y25850702D01*
X24311469Y25847600D01*
X24661316Y25847600D01*
X24668637Y25848321D01*
X24702198Y25854997D01*
X24715623Y25860558D01*
X24753720Y25886014D01*
X24763986Y25896280D01*
X24789442Y25934377D01*
X24795003Y25947802D01*
X24801679Y25981363D01*
X24802400Y25988684D01*
X24802400Y26334341D01*
X24798703Y26344498D01*
X24793331Y26347600D01*
X24315659Y26347600D01*
X24305502Y26343903D01*
X24302400Y26338531D01*
X24302400Y25860859D01*
X23997600Y25860859D01*
X23997600Y26334341D01*
X23993903Y26344498D01*
X23988531Y26347600D01*
X23510859Y26347600D01*
X23500702Y26343903D01*
X23497600Y26338531D01*
X23497600Y25988684D01*
X15316306Y25988684D01*
X15288682Y25994179D01*
X15288681Y25994179D01*
X15285057Y25994900D01*
X14418600Y25994900D01*
X14370262Y26012493D01*
X14344542Y26057042D01*
X14343400Y26070100D01*
X14343400Y26426996D01*
X14362848Y26477461D01*
X14407612Y26526915D01*
X14411210Y26530890D01*
X14416795Y26542416D01*
X14471682Y26655704D01*
X14471682Y26655705D01*
X14474020Y26660530D01*
X14474883Y26665659D01*
X23497600Y26665659D01*
X23501297Y26655502D01*
X23506669Y26652400D01*
X23984341Y26652400D01*
X23994498Y26656097D01*
X23997600Y26661469D01*
X23997600Y26665659D01*
X24302400Y26665659D01*
X24306097Y26655502D01*
X24311469Y26652400D01*
X24789141Y26652400D01*
X24799298Y26656097D01*
X24802400Y26661469D01*
X24802400Y27011316D01*
X24801679Y27018637D01*
X24795003Y27052198D01*
X24789442Y27065623D01*
X24763986Y27103720D01*
X24753720Y27113986D01*
X24715623Y27139442D01*
X24702198Y27145003D01*
X24668637Y27151679D01*
X24661316Y27152400D01*
X24315659Y27152400D01*
X24305502Y27148703D01*
X24302400Y27143331D01*
X24302400Y26665659D01*
X23997600Y26665659D01*
X23997600Y27139141D01*
X23993903Y27149298D01*
X23988531Y27152400D01*
X23638684Y27152400D01*
X23631363Y27151679D01*
X23597802Y27145003D01*
X23584377Y27139442D01*
X23546280Y27113986D01*
X23536014Y27103720D01*
X23510558Y27065623D01*
X23504997Y27052198D01*
X23498321Y27018637D01*
X23497600Y27011316D01*
X23497600Y26665659D01*
X14474883Y26665659D01*
X14497919Y26802587D01*
X14498071Y26815000D01*
X14497571Y26818492D01*
X14478409Y26952296D01*
X14478408Y26952300D01*
X14477649Y26957599D01*
X14474697Y26964093D01*
X14420245Y27083853D01*
X14418026Y27088734D01*
X14413538Y27093943D01*
X14327487Y27193810D01*
X14327484Y27193813D01*
X14323993Y27197864D01*
X14319502Y27200775D01*
X14307127Y27208796D01*
X14276134Y27249851D01*
X14278781Y27301223D01*
X14313830Y27338874D01*
X14348029Y27347100D01*
X42469968Y27347100D01*
X42489430Y27344538D01*
G37*
G04 #@! TD.AperFunction*
G04 #@! TA.AperFunction,Conductor*
G36*
X37315844Y21081909D02*
G01*
X37341564Y21037360D01*
X37342042Y21022111D01*
X37342570Y21022104D01*
X37342519Y21018433D01*
X37342108Y21014772D01*
X37342416Y21011104D01*
X37342416Y21011101D01*
X37357402Y20832641D01*
X37359386Y20809012D01*
X37416301Y20610526D01*
X37510685Y20426875D01*
X37512970Y20423992D01*
X37514232Y20422400D01*
X37638942Y20265055D01*
X37641736Y20262677D01*
X37641737Y20262676D01*
X37691704Y20220151D01*
X37796188Y20131228D01*
X37799389Y20129439D01*
X37799392Y20129437D01*
X37913988Y20065392D01*
X37947600Y20026452D01*
X37948318Y19975017D01*
X37912143Y19933108D01*
X37820681Y19885292D01*
X37817815Y19882987D01*
X37817814Y19882987D01*
X37697109Y19785938D01*
X37659760Y19755909D01*
X37527034Y19597732D01*
X37525263Y19594510D01*
X37525262Y19594509D01*
X37520301Y19585485D01*
X37427559Y19416789D01*
X37407449Y19353392D01*
X37396749Y19319662D01*
X37365363Y19278907D01*
X37325069Y19267200D01*
X34011825Y19267200D01*
X33963487Y19284793D01*
X33958651Y19289226D01*
X33549226Y19698652D01*
X33527486Y19745272D01*
X33527200Y19751826D01*
X33527200Y20171813D01*
X33544793Y20220151D01*
X33563052Y20235897D01*
X33579970Y20246284D01*
X33579973Y20246286D01*
X33584539Y20249090D01*
X33596837Y20262676D01*
X33677612Y20351915D01*
X33681210Y20355890D01*
X33685524Y20364793D01*
X33741682Y20480704D01*
X33741682Y20480705D01*
X33744020Y20485530D01*
X33767919Y20627587D01*
X33768071Y20640000D01*
X33767659Y20642880D01*
X33748409Y20777296D01*
X33748408Y20777300D01*
X33747649Y20782599D01*
X33743084Y20792641D01*
X33696828Y20894374D01*
X33688026Y20913734D01*
X33635051Y20975214D01*
X33616826Y21023317D01*
X33633785Y21071881D01*
X33677993Y21098182D01*
X33692020Y21099502D01*
X37267506Y21099502D01*
X37315844Y21081909D01*
G37*
G04 #@! TD.AperFunction*
G04 #@! TA.AperFunction,Conductor*
G36*
X16825055Y18331769D02*
G01*
X16850775Y18287220D01*
X16844788Y18242203D01*
X16803027Y18153256D01*
X16803026Y18153252D01*
X16800751Y18148407D01*
X16799927Y18143117D01*
X16799927Y18143116D01*
X16794043Y18105325D01*
X16778589Y18006068D01*
X16779283Y18000761D01*
X16779283Y18000758D01*
X16794199Y17886692D01*
X16783022Y17836482D01*
X16742184Y17805203D01*
X16733921Y17803352D01*
X16731047Y17803370D01*
X16592539Y17763785D01*
X16588013Y17760929D01*
X16588010Y17760928D01*
X16476584Y17690623D01*
X16470709Y17686916D01*
X16453732Y17667693D01*
X16378897Y17582959D01*
X16378895Y17582956D01*
X16375351Y17578943D01*
X16354613Y17534773D01*
X16328401Y17478943D01*
X16314129Y17448546D01*
X16291967Y17306207D01*
X16292661Y17300900D01*
X16292661Y17300897D01*
X16296284Y17273190D01*
X16310645Y17163370D01*
X16368662Y17031516D01*
X16461354Y16921245D01*
X16487512Y16903833D01*
X16530834Y16874996D01*
X16581270Y16841423D01*
X16632729Y16825346D01*
X16708215Y16801762D01*
X16738964Y16783158D01*
X18087212Y15434910D01*
X18096564Y15423515D01*
X18107359Y15407359D01*
X18113516Y15403245D01*
X18118755Y15398006D01*
X18117208Y15396459D01*
X18141416Y15363445D01*
X18138053Y15312116D01*
X18102483Y15274956D01*
X18069221Y15267200D01*
X15498099Y15267200D01*
X15449761Y15284793D01*
X15424041Y15329342D01*
X15422899Y15342400D01*
X15422899Y15697056D01*
X15414028Y15741658D01*
X15380234Y15792234D01*
X15352275Y15810916D01*
X15335817Y15821913D01*
X15335816Y15821914D01*
X15329658Y15826028D01*
X15285057Y15834900D01*
X14721377Y15834900D01*
X12728100Y15834899D01*
X12679762Y15852492D01*
X12654042Y15897041D01*
X12652900Y15910099D01*
X12652900Y16469900D01*
X12670493Y16518238D01*
X12715042Y16543958D01*
X12728100Y16545100D01*
X14721290Y16545101D01*
X15285056Y16545101D01*
X15329658Y16553972D01*
X15380234Y16587766D01*
X15394996Y16609859D01*
X15409913Y16632183D01*
X15409914Y16632184D01*
X15414028Y16638342D01*
X15422900Y16682943D01*
X15422899Y18237056D01*
X15418436Y18259493D01*
X15426261Y18310332D01*
X15464936Y18344249D01*
X15492191Y18349362D01*
X16776717Y18349362D01*
X16825055Y18331769D01*
G37*
G04 #@! TD.AperFunction*
G04 #@! TA.AperFunction,Conductor*
G36*
X25661512Y20315207D02*
G01*
X25666348Y20310774D01*
X26380774Y19596348D01*
X26402514Y19549728D01*
X26402800Y19543174D01*
X26402800Y18882563D01*
X26385207Y18834225D01*
X26367728Y18818965D01*
X26345241Y18804777D01*
X26345234Y18804771D01*
X26340709Y18801916D01*
X26333550Y18793810D01*
X26248897Y18697959D01*
X26248895Y18697956D01*
X26245351Y18693943D01*
X26240516Y18683645D01*
X26187007Y18569675D01*
X26184129Y18563546D01*
X26183306Y18558258D01*
X26183305Y18558256D01*
X26175316Y18506942D01*
X26150495Y18461886D01*
X26102521Y18443326D01*
X26077014Y18448134D01*
X26075106Y18449409D01*
X25970849Y18470148D01*
X25963585Y18468703D01*
X25951791Y18466357D01*
X25937120Y18464912D01*
X25424338Y18464912D01*
X25376000Y18482505D01*
X25350280Y18527054D01*
X25359213Y18577712D01*
X25371164Y18593286D01*
X25455708Y18677830D01*
X25502328Y18699570D01*
X25516948Y18699034D01*
X25518769Y18698465D01*
X25585873Y18697235D01*
X25657436Y18695923D01*
X25657438Y18695923D01*
X25662798Y18695825D01*
X25667969Y18697235D01*
X25667971Y18697235D01*
X25743695Y18717880D01*
X25801779Y18733715D01*
X25888349Y18786869D01*
X25919970Y18806284D01*
X25919973Y18806286D01*
X25924539Y18809090D01*
X25933478Y18818965D01*
X26017612Y18911915D01*
X26021210Y18915890D01*
X26026154Y18926093D01*
X26081682Y19040704D01*
X26081682Y19040705D01*
X26084020Y19045530D01*
X26107919Y19187587D01*
X26108071Y19200000D01*
X26107659Y19202880D01*
X26088409Y19337296D01*
X26088408Y19337300D01*
X26087649Y19342599D01*
X26055529Y19413245D01*
X26030245Y19468853D01*
X26028026Y19473734D01*
X26023538Y19478943D01*
X25937487Y19578810D01*
X25937484Y19578813D01*
X25933993Y19582864D01*
X25929502Y19585775D01*
X25817604Y19658303D01*
X25817603Y19658303D01*
X25813111Y19661215D01*
X25733580Y19685000D01*
X25680232Y19700955D01*
X25680229Y19700955D01*
X25675098Y19702490D01*
X25669743Y19702523D01*
X25669741Y19702523D01*
X25604524Y19702921D01*
X25531047Y19703370D01*
X25525897Y19701898D01*
X25525896Y19701898D01*
X25492187Y19692264D01*
X25392539Y19663785D01*
X25388013Y19660929D01*
X25388010Y19660928D01*
X25307295Y19610000D01*
X25270709Y19586916D01*
X25266581Y19582242D01*
X25178897Y19482959D01*
X25178895Y19482956D01*
X25175351Y19478943D01*
X25170614Y19468853D01*
X25136977Y19397209D01*
X25114129Y19348546D01*
X25091967Y19206207D01*
X25092661Y19200899D01*
X25092661Y19200897D01*
X25102933Y19122344D01*
X25091756Y19072133D01*
X25081542Y19059420D01*
X24890071Y18867949D01*
X24843451Y18846209D01*
X24836897Y18845923D01*
X24707306Y18845923D01*
X24658968Y18863516D01*
X24633248Y18908065D01*
X24639631Y18953911D01*
X24681682Y19040704D01*
X24681682Y19040705D01*
X24684020Y19045530D01*
X24707919Y19187587D01*
X24708071Y19200000D01*
X24707659Y19202880D01*
X24688409Y19337296D01*
X24688408Y19337300D01*
X24687649Y19342599D01*
X24655529Y19413245D01*
X24630245Y19468853D01*
X24628026Y19473734D01*
X24623538Y19478943D01*
X24537487Y19578810D01*
X24537484Y19578813D01*
X24533993Y19582864D01*
X24529502Y19585775D01*
X24417604Y19658303D01*
X24417603Y19658303D01*
X24413111Y19661215D01*
X24333580Y19685000D01*
X24280232Y19700955D01*
X24280229Y19700955D01*
X24275098Y19702490D01*
X24269743Y19702523D01*
X24269741Y19702523D01*
X24204524Y19702921D01*
X24131047Y19703370D01*
X24125897Y19701898D01*
X24125896Y19701898D01*
X24092187Y19692264D01*
X23992539Y19663785D01*
X23988013Y19660929D01*
X23988010Y19660928D01*
X23907295Y19610000D01*
X23870709Y19586916D01*
X23866581Y19582242D01*
X23778897Y19482959D01*
X23778895Y19482956D01*
X23775351Y19478943D01*
X23770614Y19468853D01*
X23736977Y19397209D01*
X23714129Y19348546D01*
X23691967Y19206207D01*
X23692661Y19200900D01*
X23692661Y19200897D01*
X23693159Y19197091D01*
X23710645Y19063370D01*
X23759909Y18951409D01*
X23763274Y18900080D01*
X23732857Y18858596D01*
X23691078Y18845923D01*
X22434792Y18845923D01*
X22420121Y18847368D01*
X22408327Y18849714D01*
X22401063Y18851159D01*
X22393799Y18849714D01*
X22304069Y18831865D01*
X22304067Y18831864D01*
X22296807Y18830420D01*
X22208422Y18771364D01*
X22204309Y18765208D01*
X22197628Y18755209D01*
X22188275Y18743813D01*
X21866987Y18422525D01*
X21820367Y18400785D01*
X21813813Y18400499D01*
X18207728Y18400499D01*
X18159390Y18418092D01*
X18154554Y18422525D01*
X17795427Y18781652D01*
X17786074Y18793048D01*
X17779395Y18803044D01*
X17775280Y18809203D01*
X17720324Y18845923D01*
X17686896Y18868259D01*
X17679634Y18869704D01*
X17679633Y18869704D01*
X17589903Y18887553D01*
X17582639Y18888998D01*
X17575375Y18887553D01*
X17563581Y18885207D01*
X17548910Y18883762D01*
X15190291Y18883762D01*
X15175620Y18885207D01*
X15163826Y18887553D01*
X15156562Y18888998D01*
X15149298Y18887553D01*
X15059568Y18869704D01*
X15059566Y18869703D01*
X15052306Y18868259D01*
X15039917Y18859981D01*
X14994559Y18829674D01*
X14963921Y18809203D01*
X14959808Y18803047D01*
X14953127Y18793048D01*
X14943774Y18781652D01*
X14559048Y18396926D01*
X14512428Y18375186D01*
X14505874Y18374900D01*
X13256007Y18374899D01*
X12728100Y18374899D01*
X12679762Y18392492D01*
X12654042Y18437041D01*
X12652900Y18450099D01*
X12652900Y19009900D01*
X12670493Y19058238D01*
X12715042Y19083958D01*
X12728100Y19085100D01*
X14721290Y19085101D01*
X15285056Y19085101D01*
X15329658Y19093972D01*
X15380234Y19127766D01*
X15404702Y19164385D01*
X15409913Y19172183D01*
X15409914Y19172184D01*
X15414028Y19178342D01*
X15415867Y19187587D01*
X15422179Y19219318D01*
X15422179Y19219319D01*
X15422900Y19222943D01*
X15422900Y19737600D01*
X15440493Y19785938D01*
X15485042Y19811658D01*
X15498100Y19812800D01*
X22486271Y19812800D01*
X22500942Y19811355D01*
X22520000Y19807564D01*
X22527264Y19809009D01*
X22616993Y19826858D01*
X22624257Y19828303D01*
X22690329Y19872451D01*
X22712641Y19887359D01*
X22723436Y19903515D01*
X22732788Y19914910D01*
X23128652Y20310774D01*
X23175272Y20332514D01*
X23181826Y20332800D01*
X25613174Y20332800D01*
X25661512Y20315207D01*
G37*
G04 #@! TD.AperFunction*
G04 #@! TD*
M02*
