M48
; DRILL file {KiCad 6.0.11+dfsg-1} date Sun 16 Apr 2023 09:36:38 +08
; FORMAT={-:-/ absolute / metric / decimal}
; #@! TF.CreationDate,2023-04-16T09:36:38+08:00
; #@! TF.GenerationSoftware,Kicad,Pcbnew,6.0.11+dfsg-1
; #@! TF.FileFunction,Plated,1,4,PTH
FMAT,2
METRIC
; #@! TA.AperFunction,Plated,PTH,ViaDrill
T1C0.350
; #@! TA.AperFunction,Plated,PTH,ComponentDrill
T2C1.000
; #@! TA.AperFunction,Plated,PTH,ComponentDrill
T3C1.200
%
G90
G05
T1
X13.99Y26.815
X14.0Y13.5
X16.0Y25.25
X16.0Y24.25
X16.6Y16.3
X16.772Y20.75
X16.8Y17.3
X17.287Y18.0
X18.5Y13.25
X19.25Y22.5
X19.25Y18.75
X20.25Y16.25
X21.75Y16.0
X22.5Y13.75
X22.75Y16.0
X23.0Y24.75
X23.0Y23.5
X23.0Y14.5
X24.2Y19.2
X24.5Y17.2
X24.75Y22.25
X24.9Y19.9
X25.6Y19.2
X26.0Y25.5
X26.0Y22.25
X26.0Y17.2
X26.5Y14.0
X26.67Y18.415
X27.1Y17.2
X27.3Y22.6
X27.325Y13.25
X28.5Y18.5
X28.9Y22.0
X29.21Y17.145
X29.5Y25.5
X29.865Y14.75
X31.5Y25.5
X32.23Y20.64
X33.0Y14.75
X33.04Y13.48
X33.25Y16.25
X33.26Y20.64
X33.675Y23.132
X34.945Y23.132
X35.428Y20.236
X35.7Y24.019
X36.85Y25.037
X38.0Y26.0
X42.5Y24.0
X42.5Y20.0
X42.5Y15.8
T2
X38.4Y23.5
X38.4Y21.0
X38.4Y19.0
X38.4Y16.5
T3
X40.5Y22.3
X40.5Y17.7
T2
G00X39.75Y25.85
M15
G01X41.25Y25.85
M16
G05
G00X39.75Y14.15
M15
G01X41.25Y14.15
M16
G05
T0
M30
