G04 #@! TF.GenerationSoftware,KiCad,Pcbnew,6.0.11+dfsg-1*
G04 #@! TF.CreationDate,2023-04-16T09:36:04+08:00*
G04 #@! TF.ProjectId,stlink,73746c69-6e6b-42e6-9b69-6361645f7063,g*
G04 #@! TF.SameCoordinates,PX5c07920PY68e7780*
G04 #@! TF.FileFunction,Copper,L3,Inr*
G04 #@! TF.FilePolarity,Positive*
%FSLAX46Y46*%
G04 Gerber Fmt 4.6, Leading zero omitted, Abs format (unit mm)*
G04 Created by KiCad (PCBNEW 6.0.11+dfsg-1) date 2023-04-16 09:36:04*
%MOMM*%
%LPD*%
G01*
G04 APERTURE LIST*
G04 #@! TA.AperFunction,ComponentPad*
%ADD10C,1.800000*%
G04 #@! TD*
G04 #@! TA.AperFunction,ComponentPad*
%ADD11O,3.500000X2.000000*%
G04 #@! TD*
G04 #@! TA.AperFunction,ComponentPad*
%ADD12C,2.200000*%
G04 #@! TD*
G04 #@! TA.AperFunction,ViaPad*
%ADD13C,0.700000*%
G04 #@! TD*
G04 APERTURE END LIST*
D10*
G04 #@! TO.N,VBUS*
G04 #@! TO.C,J1*
X38400000Y23500000D03*
G04 #@! TO.N,D-*
X38400000Y21000000D03*
G04 #@! TO.N,D+*
X38400000Y19000000D03*
G04 #@! TO.N,GND*
X38400000Y16500000D03*
D11*
X40500000Y14150000D03*
X40500000Y25850000D03*
D12*
X40500000Y17700000D03*
X40500000Y22300000D03*
G04 #@! TD*
D13*
G04 #@! TO.N,GND*
X36850000Y25037000D03*
X42500000Y24000000D03*
X42500000Y20000000D03*
X38000000Y26000000D03*
X24900000Y19900000D03*
X42500000Y15800000D03*
X16600000Y16300000D03*
X18500000Y13250000D03*
X27325000Y13250000D03*
X26000000Y22250000D03*
X35427600Y20236400D03*
X33040000Y13480000D03*
X19250000Y18750000D03*
X23000000Y24750000D03*
X35699941Y24018606D03*
X24750000Y22250000D03*
X19250000Y22500000D03*
G04 #@! TO.N,+5V*
X13990000Y26815000D03*
X31500000Y25500000D03*
G04 #@! TO.N,+3V3*
X34945000Y23132000D03*
X17286622Y17999861D03*
X33250000Y16250000D03*
X16000000Y24250000D03*
X24200000Y19200000D03*
X23000000Y23500000D03*
X33675000Y23132000D03*
X23000000Y14500000D03*
X29865000Y14750000D03*
X16000000Y25250000D03*
G04 #@! TO.N,D-*
X32230000Y20640000D03*
G04 #@! TO.N,D+*
X33260000Y20640000D03*
G04 #@! TO.N,LED*
X20250000Y16250000D03*
X27100000Y17200000D03*
G04 #@! TO.N,T_DIO*
X16772402Y20750000D03*
X28500000Y18500000D03*
G04 #@! TO.N,T_CLK*
X29210000Y17145000D03*
X26670000Y18415000D03*
G04 #@! TO.N,CLK*
X29500000Y25500000D03*
G04 #@! TO.N,T_RX*
X22750000Y16000000D03*
X14000000Y13500000D03*
G04 #@! TO.N,T_TX*
X21750000Y16000000D03*
G04 #@! TO.N,T_RST*
X16800000Y17300000D03*
X26000000Y17200000D03*
G04 #@! TO.N,T_SWO*
X25600000Y19200000D03*
G04 #@! TO.N,DIO*
X28900000Y22000000D03*
G04 #@! TO.N,B0*
X26000000Y25500000D03*
G04 #@! TO.N,RENUM*
X33000000Y14750000D03*
X27300000Y22600000D03*
G04 #@! TO.N,Net-(R10-Pad1)*
X24500000Y17200000D03*
X22500000Y13750000D03*
G04 #@! TO.N,Net-(JP1-Pad2)*
X26500000Y14000000D03*
G04 #@! TD*
G04 #@! TA.AperFunction,Conductor*
G04 #@! TO.N,GND*
G36*
X13679039Y27329507D02*
G01*
X13704759Y27284958D01*
X13695826Y27234300D01*
X13670828Y27208301D01*
X13665239Y27204775D01*
X13665235Y27204772D01*
X13660709Y27201916D01*
X13653550Y27193810D01*
X13568897Y27097959D01*
X13568895Y27097956D01*
X13565351Y27093943D01*
X13560614Y27083853D01*
X13515151Y26987021D01*
X13504129Y26963546D01*
X13481967Y26821207D01*
X13482661Y26815900D01*
X13482661Y26815897D01*
X13483159Y26812091D01*
X13500645Y26678370D01*
X13558662Y26546516D01*
X13562107Y26542418D01*
X13562108Y26542416D01*
X13605799Y26490439D01*
X13651354Y26436245D01*
X13771270Y26356423D01*
X13908769Y26313465D01*
X13982871Y26312107D01*
X14047436Y26310923D01*
X14047438Y26310923D01*
X14052798Y26310825D01*
X14057969Y26312235D01*
X14057971Y26312235D01*
X14178196Y26345012D01*
X14191779Y26348715D01*
X14244871Y26381314D01*
X14309970Y26421284D01*
X14309973Y26421286D01*
X14314539Y26424090D01*
X14411210Y26530890D01*
X14416795Y26542416D01*
X14471682Y26655704D01*
X14471682Y26655705D01*
X14474020Y26660530D01*
X14497919Y26802587D01*
X14498071Y26815000D01*
X14497571Y26818492D01*
X14478409Y26952296D01*
X14478408Y26952300D01*
X14477649Y26957599D01*
X14474697Y26964093D01*
X14420245Y27083853D01*
X14418026Y27088734D01*
X14413538Y27093943D01*
X14327487Y27193810D01*
X14327484Y27193813D01*
X14323993Y27197864D01*
X14319502Y27200775D01*
X14307127Y27208796D01*
X14276134Y27249851D01*
X14278781Y27301223D01*
X14313830Y27338874D01*
X14348029Y27347100D01*
X42469968Y27347100D01*
X42489430Y27344538D01*
X42500000Y27341706D01*
X42509562Y27344268D01*
X42519462Y27344268D01*
X42519462Y27343581D01*
X42528336Y27344309D01*
X42657892Y27331549D01*
X42672348Y27328673D01*
X42817083Y27284768D01*
X42830698Y27279129D01*
X42962284Y27208796D01*
X42964093Y27207829D01*
X42976351Y27199638D01*
X43093265Y27103688D01*
X43103688Y27093265D01*
X43199638Y26976351D01*
X43207828Y26964094D01*
X43225303Y26931402D01*
X43279128Y26830701D01*
X43284768Y26817083D01*
X43328336Y26673460D01*
X43328673Y26672349D01*
X43331549Y26657892D01*
X43344058Y26530890D01*
X43344309Y26528337D01*
X43343581Y26519462D01*
X43344268Y26519462D01*
X43344268Y26509562D01*
X43341706Y26500000D01*
X43344268Y26490439D01*
X43344538Y26489431D01*
X43347100Y26469968D01*
X43347100Y13530032D01*
X43344538Y13510570D01*
X43341706Y13500000D01*
X43344268Y13490438D01*
X43344268Y13480538D01*
X43343581Y13480538D01*
X43344309Y13471664D01*
X43331886Y13345530D01*
X43331549Y13342109D01*
X43328673Y13327652D01*
X43294771Y13215890D01*
X43284769Y13182919D01*
X43279129Y13169302D01*
X43212365Y13044393D01*
X43207829Y13035907D01*
X43199638Y13023649D01*
X43103688Y12906735D01*
X43093265Y12896312D01*
X42976351Y12800362D01*
X42964094Y12792172D01*
X42830698Y12720871D01*
X42817083Y12715232D01*
X42672349Y12671327D01*
X42657892Y12668451D01*
X42528336Y12655691D01*
X42519462Y12656419D01*
X42519462Y12655732D01*
X42509562Y12655732D01*
X42500000Y12658294D01*
X42489431Y12655462D01*
X42469968Y12652900D01*
X12728100Y12652900D01*
X12679762Y12670493D01*
X12654042Y12715042D01*
X12652900Y12728100D01*
X12652900Y13506207D01*
X13491967Y13506207D01*
X13492661Y13500900D01*
X13492661Y13500897D01*
X13500784Y13438780D01*
X13510645Y13363370D01*
X13568662Y13231516D01*
X13661354Y13121245D01*
X13781270Y13041423D01*
X13918769Y12998465D01*
X13992871Y12997107D01*
X14057436Y12995923D01*
X14057438Y12995923D01*
X14062798Y12995825D01*
X14067969Y12997235D01*
X14067971Y12997235D01*
X14147712Y13018975D01*
X14201779Y13033715D01*
X14281010Y13082363D01*
X14319970Y13106284D01*
X14319973Y13106286D01*
X14324539Y13109090D01*
X14421210Y13215890D01*
X14426795Y13227416D01*
X14481682Y13340704D01*
X14481682Y13340705D01*
X14484020Y13345530D01*
X14507919Y13487587D01*
X14508071Y13500000D01*
X14507659Y13502880D01*
X14488409Y13637296D01*
X14488408Y13637300D01*
X14487649Y13642599D01*
X14484835Y13648790D01*
X14445766Y13734717D01*
X14435995Y13756207D01*
X21991967Y13756207D01*
X21992661Y13750900D01*
X21992661Y13750897D01*
X21995732Y13727416D01*
X22010645Y13613370D01*
X22068662Y13481516D01*
X22072107Y13477418D01*
X22072108Y13477416D01*
X22125923Y13413396D01*
X22161354Y13371245D01*
X22281270Y13291423D01*
X22418769Y13248465D01*
X22492871Y13247107D01*
X22557436Y13245923D01*
X22557438Y13245923D01*
X22562798Y13245825D01*
X22567969Y13247235D01*
X22567971Y13247235D01*
X22643695Y13267880D01*
X22701779Y13283715D01*
X22796883Y13342109D01*
X22819970Y13356284D01*
X22819973Y13356286D01*
X22824539Y13359090D01*
X22921210Y13465890D01*
X22926795Y13477416D01*
X22981682Y13590704D01*
X22981682Y13590705D01*
X22984020Y13595530D01*
X23007919Y13737587D01*
X23008071Y13750000D01*
X23007183Y13756207D01*
X22989043Y13882864D01*
X22987649Y13892599D01*
X22985430Y13897479D01*
X22984806Y13899614D01*
X22988127Y13950947D01*
X23023666Y13988135D01*
X23052217Y13994531D01*
X23052126Y13995262D01*
X23057437Y13995923D01*
X23062798Y13995825D01*
X23067969Y13997235D01*
X23067971Y13997235D01*
X23100879Y14006207D01*
X25991967Y14006207D01*
X25992661Y14000900D01*
X25992661Y14000897D01*
X25993498Y13994498D01*
X26010645Y13863370D01*
X26068662Y13731516D01*
X26161354Y13621245D01*
X26281270Y13541423D01*
X26418769Y13498465D01*
X26492871Y13497107D01*
X26557436Y13495923D01*
X26557438Y13495923D01*
X26562798Y13495825D01*
X26567969Y13497235D01*
X26567971Y13497235D01*
X26651953Y13520131D01*
X26701779Y13533715D01*
X26794595Y13590704D01*
X26819970Y13606284D01*
X26819973Y13606286D01*
X26824539Y13609090D01*
X26921210Y13715890D01*
X26926795Y13727416D01*
X26981682Y13840704D01*
X26981682Y13840705D01*
X26984020Y13845530D01*
X27007919Y13987587D01*
X27007956Y13990611D01*
X38608016Y13990611D01*
X38631515Y13853851D01*
X38633290Y13847229D01*
X38704212Y13654988D01*
X38707169Y13648790D01*
X38811931Y13472699D01*
X38815969Y13467141D01*
X38951066Y13313092D01*
X38956051Y13308361D01*
X39116964Y13181508D01*
X39122719Y13177771D01*
X39304059Y13082363D01*
X39310391Y13079740D01*
X39506087Y13018975D01*
X39512797Y13017549D01*
X39679144Y12997861D01*
X39683565Y12997600D01*
X40334341Y12997600D01*
X40344498Y13001297D01*
X40347600Y13006669D01*
X40347600Y13010859D01*
X40652400Y13010859D01*
X40656097Y13000702D01*
X40661469Y12997600D01*
X41302015Y12997600D01*
X41305429Y12997756D01*
X41457475Y13011728D01*
X41464227Y13012979D01*
X41661436Y13068598D01*
X41667843Y13071057D01*
X41851614Y13161683D01*
X41857472Y13165273D01*
X42021646Y13287867D01*
X42026750Y13292463D01*
X42165839Y13442929D01*
X42170014Y13448369D01*
X42279358Y13621668D01*
X42282472Y13627782D01*
X42358398Y13818090D01*
X42360352Y13824685D01*
X42392159Y13984595D01*
X42390515Y13995279D01*
X42387900Y13997572D01*
X42387751Y13997600D01*
X40665659Y13997600D01*
X40655502Y13993903D01*
X40652400Y13988531D01*
X40652400Y13010859D01*
X40347600Y13010859D01*
X40347600Y13984341D01*
X40343903Y13994498D01*
X40338531Y13997600D01*
X38620074Y13997600D01*
X38609917Y13993903D01*
X38608016Y13990611D01*
X27007956Y13990611D01*
X27008071Y14000000D01*
X27007659Y14002880D01*
X26988409Y14137296D01*
X26988408Y14137300D01*
X26987649Y14142599D01*
X26928026Y14273734D01*
X26920640Y14282306D01*
X26837487Y14378810D01*
X26837484Y14378813D01*
X26833993Y14382864D01*
X26829502Y14385775D01*
X26717604Y14458303D01*
X26717603Y14458303D01*
X26713111Y14461215D01*
X26624930Y14487587D01*
X26580232Y14500955D01*
X26580229Y14500955D01*
X26575098Y14502490D01*
X26569743Y14502523D01*
X26569741Y14502523D01*
X26504524Y14502921D01*
X26431047Y14503370D01*
X26425897Y14501898D01*
X26425896Y14501898D01*
X26386015Y14490500D01*
X26292539Y14463785D01*
X26288013Y14460929D01*
X26288010Y14460928D01*
X26175237Y14389773D01*
X26170709Y14386916D01*
X26163550Y14378810D01*
X26078897Y14282959D01*
X26078895Y14282956D01*
X26075351Y14278943D01*
X26014129Y14148546D01*
X25991967Y14006207D01*
X23100879Y14006207D01*
X23143695Y14017880D01*
X23201779Y14033715D01*
X23254871Y14066314D01*
X23319970Y14106284D01*
X23319973Y14106286D01*
X23324539Y14109090D01*
X23421210Y14215890D01*
X23435714Y14245825D01*
X23481682Y14340704D01*
X23481682Y14340705D01*
X23484020Y14345530D01*
X23507919Y14487587D01*
X23508071Y14500000D01*
X23507659Y14502880D01*
X23488409Y14637296D01*
X23488408Y14637300D01*
X23487649Y14642599D01*
X23471403Y14678332D01*
X23435995Y14756207D01*
X29356967Y14756207D01*
X29357661Y14750900D01*
X29357661Y14750897D01*
X29358159Y14747091D01*
X29375645Y14613370D01*
X29417580Y14518065D01*
X29424061Y14503337D01*
X29433662Y14481516D01*
X29437107Y14477418D01*
X29437108Y14477416D01*
X29463391Y14446149D01*
X29526354Y14371245D01*
X29572236Y14340704D01*
X29626293Y14304721D01*
X29646270Y14291423D01*
X29783769Y14248465D01*
X29857871Y14247107D01*
X29922436Y14245923D01*
X29922438Y14245923D01*
X29927798Y14245825D01*
X29932969Y14247235D01*
X29932971Y14247235D01*
X30012265Y14268853D01*
X30066779Y14283715D01*
X30159595Y14340704D01*
X30184970Y14356284D01*
X30184973Y14356286D01*
X30189539Y14359090D01*
X30286210Y14465890D01*
X30290777Y14475315D01*
X30346682Y14590704D01*
X30346682Y14590705D01*
X30349020Y14595530D01*
X30372919Y14737587D01*
X30373071Y14750000D01*
X30372659Y14752880D01*
X30372183Y14756207D01*
X32491967Y14756207D01*
X32492661Y14750900D01*
X32492661Y14750897D01*
X32493159Y14747091D01*
X32510645Y14613370D01*
X32552580Y14518065D01*
X32559061Y14503337D01*
X32568662Y14481516D01*
X32572107Y14477418D01*
X32572108Y14477416D01*
X32598391Y14446149D01*
X32661354Y14371245D01*
X32707236Y14340704D01*
X32761293Y14304721D01*
X32781270Y14291423D01*
X32918769Y14248465D01*
X32992871Y14247107D01*
X33057436Y14245923D01*
X33057438Y14245923D01*
X33062798Y14245825D01*
X33067969Y14247235D01*
X33067971Y14247235D01*
X33147265Y14268853D01*
X33201779Y14283715D01*
X33253391Y14315405D01*
X38607841Y14315405D01*
X38609485Y14304721D01*
X38612100Y14302428D01*
X38612249Y14302400D01*
X40334341Y14302400D01*
X40344498Y14306097D01*
X40347600Y14311469D01*
X40347600Y14315659D01*
X40652400Y14315659D01*
X40656097Y14305502D01*
X40661469Y14302400D01*
X42379926Y14302400D01*
X42390083Y14306097D01*
X42391984Y14309389D01*
X42368485Y14446149D01*
X42366710Y14452771D01*
X42295788Y14645012D01*
X42292831Y14651210D01*
X42188069Y14827301D01*
X42184031Y14832859D01*
X42048934Y14986908D01*
X42043949Y14991639D01*
X41883036Y15118492D01*
X41877281Y15122229D01*
X41695941Y15217637D01*
X41689609Y15220260D01*
X41493913Y15281025D01*
X41487203Y15282451D01*
X41320856Y15302139D01*
X41316435Y15302400D01*
X40665659Y15302400D01*
X40655502Y15298703D01*
X40652400Y15293331D01*
X40652400Y14315659D01*
X40347600Y14315659D01*
X40347600Y15289141D01*
X40343903Y15299298D01*
X40338531Y15302400D01*
X39697985Y15302400D01*
X39694571Y15302244D01*
X39542525Y15288272D01*
X39535773Y15287021D01*
X39338564Y15231402D01*
X39332157Y15228943D01*
X39148386Y15138317D01*
X39142528Y15134727D01*
X38978354Y15012133D01*
X38973250Y15007537D01*
X38834161Y14857071D01*
X38829986Y14851631D01*
X38720642Y14678332D01*
X38717528Y14672218D01*
X38641602Y14481910D01*
X38639648Y14475315D01*
X38607841Y14315405D01*
X33253391Y14315405D01*
X33294595Y14340704D01*
X33319970Y14356284D01*
X33319973Y14356286D01*
X33324539Y14359090D01*
X33421210Y14465890D01*
X33425777Y14475315D01*
X33481682Y14590704D01*
X33481682Y14590705D01*
X33484020Y14595530D01*
X33507919Y14737587D01*
X33508071Y14750000D01*
X33507659Y14752880D01*
X33488409Y14887296D01*
X33488408Y14887300D01*
X33487649Y14892599D01*
X33457776Y14958303D01*
X33435390Y15007537D01*
X33428026Y15023734D01*
X33423538Y15028943D01*
X33337487Y15128810D01*
X33337484Y15128813D01*
X33333993Y15132864D01*
X33329502Y15135775D01*
X33217604Y15208303D01*
X33217603Y15208303D01*
X33213111Y15211215D01*
X33136912Y15234003D01*
X33080232Y15250955D01*
X33080229Y15250955D01*
X33075098Y15252490D01*
X33069743Y15252523D01*
X33069741Y15252523D01*
X33004524Y15252921D01*
X32931047Y15253370D01*
X32925897Y15251898D01*
X32925896Y15251898D01*
X32861793Y15233577D01*
X32792539Y15213785D01*
X32788013Y15210929D01*
X32788010Y15210928D01*
X32675237Y15139773D01*
X32670709Y15136916D01*
X32663550Y15128810D01*
X32578897Y15032959D01*
X32578895Y15032956D01*
X32575351Y15028943D01*
X32514129Y14898546D01*
X32513305Y14893256D01*
X32513305Y14893255D01*
X32511693Y14882903D01*
X32491967Y14756207D01*
X30372183Y14756207D01*
X30353409Y14887296D01*
X30353408Y14887300D01*
X30352649Y14892599D01*
X30322776Y14958303D01*
X30300390Y15007537D01*
X30293026Y15023734D01*
X30288538Y15028943D01*
X30202487Y15128810D01*
X30202484Y15128813D01*
X30198993Y15132864D01*
X30194502Y15135775D01*
X30082604Y15208303D01*
X30082603Y15208303D01*
X30078111Y15211215D01*
X30001912Y15234003D01*
X29945232Y15250955D01*
X29945229Y15250955D01*
X29940098Y15252490D01*
X29934743Y15252523D01*
X29934741Y15252523D01*
X29869524Y15252921D01*
X29796047Y15253370D01*
X29790897Y15251898D01*
X29790896Y15251898D01*
X29726793Y15233577D01*
X29657539Y15213785D01*
X29653013Y15210929D01*
X29653010Y15210928D01*
X29540237Y15139773D01*
X29535709Y15136916D01*
X29528550Y15128810D01*
X29443897Y15032959D01*
X29443895Y15032956D01*
X29440351Y15028943D01*
X29379129Y14898546D01*
X29378305Y14893256D01*
X29378305Y14893255D01*
X29376693Y14882903D01*
X29356967Y14756207D01*
X23435995Y14756207D01*
X23430245Y14768853D01*
X23428026Y14773734D01*
X23423538Y14778943D01*
X23337487Y14878810D01*
X23337484Y14878813D01*
X23333993Y14882864D01*
X23329502Y14885775D01*
X23217604Y14958303D01*
X23217603Y14958303D01*
X23213111Y14961215D01*
X23127200Y14986908D01*
X23080232Y15000955D01*
X23080229Y15000955D01*
X23075098Y15002490D01*
X23069743Y15002523D01*
X23069741Y15002523D01*
X23004524Y15002921D01*
X22931047Y15003370D01*
X22925897Y15001898D01*
X22925896Y15001898D01*
X22890000Y14991639D01*
X22792539Y14963785D01*
X22788013Y14960929D01*
X22788010Y14960928D01*
X22680756Y14893255D01*
X22670709Y14886916D01*
X22663550Y14878810D01*
X22578897Y14782959D01*
X22578895Y14782956D01*
X22575351Y14778943D01*
X22514129Y14648546D01*
X22513305Y14643256D01*
X22513305Y14643255D01*
X22505942Y14595963D01*
X22491967Y14506207D01*
X22492661Y14500900D01*
X22492661Y14500897D01*
X22499820Y14446149D01*
X22510645Y14363370D01*
X22512806Y14358459D01*
X22514244Y14353308D01*
X22513044Y14352973D01*
X22516031Y14307455D01*
X22485617Y14265970D01*
X22443377Y14253295D01*
X22439641Y14253317D01*
X22431047Y14253370D01*
X22425897Y14251898D01*
X22425896Y14251898D01*
X22404990Y14245923D01*
X22292539Y14213785D01*
X22288013Y14210929D01*
X22288010Y14210928D01*
X22180756Y14143255D01*
X22170709Y14136916D01*
X22167164Y14132903D01*
X22167165Y14132903D01*
X22078897Y14032959D01*
X22078895Y14032956D01*
X22075351Y14028943D01*
X22073075Y14024095D01*
X22038732Y13950947D01*
X22014129Y13898546D01*
X22013305Y13893256D01*
X22013305Y13893255D01*
X22006139Y13847229D01*
X21991967Y13756207D01*
X14435995Y13756207D01*
X14428026Y13773734D01*
X14423538Y13778943D01*
X14337487Y13878810D01*
X14337484Y13878813D01*
X14333993Y13882864D01*
X14329502Y13885775D01*
X14217604Y13958303D01*
X14217603Y13958303D01*
X14213111Y13961215D01*
X14124930Y13987587D01*
X14080232Y14000955D01*
X14080229Y14000955D01*
X14075098Y14002490D01*
X14069743Y14002523D01*
X14069741Y14002523D01*
X14004524Y14002921D01*
X13931047Y14003370D01*
X13925897Y14001898D01*
X13925896Y14001898D01*
X13902677Y13995262D01*
X13792539Y13963785D01*
X13788013Y13960929D01*
X13788010Y13960928D01*
X13696822Y13903392D01*
X13670709Y13886916D01*
X13663550Y13878810D01*
X13578897Y13782959D01*
X13578895Y13782956D01*
X13575351Y13778943D01*
X13570614Y13768853D01*
X13517154Y13654988D01*
X13514129Y13648546D01*
X13513305Y13643256D01*
X13513305Y13643255D01*
X13505942Y13595963D01*
X13491967Y13506207D01*
X12652900Y13506207D01*
X12652900Y16256207D01*
X19741967Y16256207D01*
X19742661Y16250900D01*
X19742661Y16250897D01*
X19743159Y16247091D01*
X19760645Y16113370D01*
X19818662Y15981516D01*
X19911354Y15871245D01*
X20031270Y15791423D01*
X20168769Y15748465D01*
X20242871Y15747107D01*
X20307436Y15745923D01*
X20307438Y15745923D01*
X20312798Y15745825D01*
X20317969Y15747235D01*
X20317971Y15747235D01*
X20409501Y15772189D01*
X20451779Y15783715D01*
X20544595Y15840704D01*
X20569970Y15856284D01*
X20569973Y15856286D01*
X20574539Y15859090D01*
X20671210Y15965890D01*
X20676795Y15977416D01*
X20690744Y16006207D01*
X21241967Y16006207D01*
X21242661Y16000900D01*
X21242661Y16000897D01*
X21245732Y15977416D01*
X21260645Y15863370D01*
X21318662Y15731516D01*
X21322107Y15727418D01*
X21322108Y15727416D01*
X21331797Y15715890D01*
X21411354Y15621245D01*
X21531270Y15541423D01*
X21668769Y15498465D01*
X21742871Y15497107D01*
X21807436Y15495923D01*
X21807438Y15495923D01*
X21812798Y15495825D01*
X21817969Y15497235D01*
X21817971Y15497235D01*
X21937477Y15529816D01*
X21951779Y15533715D01*
X22004871Y15566314D01*
X22069970Y15606284D01*
X22069973Y15606286D01*
X22074539Y15609090D01*
X22171210Y15715890D01*
X22181127Y15736359D01*
X22218037Y15772189D01*
X22269342Y15775911D01*
X22311036Y15745784D01*
X22313903Y15740598D01*
X22316504Y15736420D01*
X22318662Y15731516D01*
X22322107Y15727418D01*
X22322108Y15727416D01*
X22331797Y15715890D01*
X22411354Y15621245D01*
X22531270Y15541423D01*
X22668769Y15498465D01*
X22742871Y15497107D01*
X22807436Y15495923D01*
X22807438Y15495923D01*
X22812798Y15495825D01*
X22817969Y15497235D01*
X22817971Y15497235D01*
X22937477Y15529816D01*
X22951779Y15533715D01*
X23004871Y15566314D01*
X23069970Y15606284D01*
X23069973Y15606286D01*
X23074539Y15609090D01*
X23115089Y15653889D01*
X37774646Y15653889D01*
X37775920Y15649135D01*
X37793681Y15634019D01*
X37799679Y15629850D01*
X37973423Y15532749D01*
X37980136Y15529816D01*
X38169421Y15468314D01*
X38176569Y15466742D01*
X38374196Y15443176D01*
X38381528Y15443023D01*
X38579964Y15458292D01*
X38587173Y15459563D01*
X38778870Y15513085D01*
X38785703Y15515736D01*
X38963347Y15605470D01*
X38969533Y15609395D01*
X39018335Y15647524D01*
X39024065Y15656693D01*
X39023457Y15661016D01*
X38409377Y16275097D01*
X38399578Y16279666D01*
X38393587Y16278061D01*
X37779215Y15663688D01*
X37774646Y15653889D01*
X23115089Y15653889D01*
X23171210Y15715890D01*
X23176795Y15727416D01*
X23231682Y15840704D01*
X23231682Y15840705D01*
X23234020Y15845530D01*
X23257919Y15987587D01*
X23258071Y16000000D01*
X23257659Y16002880D01*
X23238409Y16137296D01*
X23238408Y16137300D01*
X23237649Y16142599D01*
X23185995Y16256207D01*
X32741967Y16256207D01*
X32742661Y16250900D01*
X32742661Y16250897D01*
X32743159Y16247091D01*
X32760645Y16113370D01*
X32818662Y15981516D01*
X32911354Y15871245D01*
X33031270Y15791423D01*
X33168769Y15748465D01*
X33242871Y15747107D01*
X33307436Y15745923D01*
X33307438Y15745923D01*
X33312798Y15745825D01*
X33317969Y15747235D01*
X33317971Y15747235D01*
X33409501Y15772189D01*
X33451779Y15783715D01*
X33544595Y15840704D01*
X33569970Y15856284D01*
X33569973Y15856286D01*
X33574539Y15859090D01*
X33671210Y15965890D01*
X33676795Y15977416D01*
X33731682Y16090704D01*
X33731682Y16090705D01*
X33734020Y16095530D01*
X33757919Y16237587D01*
X33758071Y16250000D01*
X33757602Y16253276D01*
X33738409Y16387296D01*
X33738408Y16387300D01*
X33737649Y16392599D01*
X33707776Y16458303D01*
X33700242Y16474872D01*
X33683773Y16511094D01*
X37342919Y16511094D01*
X37359573Y16312769D01*
X37360895Y16305567D01*
X37415755Y16114247D01*
X37418451Y16107438D01*
X37509427Y15930420D01*
X37513393Y15924265D01*
X37547313Y15881468D01*
X37556522Y15875803D01*
X37560928Y15876454D01*
X38175097Y16490623D01*
X38179272Y16499578D01*
X38620334Y16499578D01*
X38621939Y16493587D01*
X39236668Y15878859D01*
X39246467Y15874290D01*
X39251317Y15875589D01*
X39261718Y15887640D01*
X39265943Y15893628D01*
X39364249Y16066678D01*
X39367229Y16073373D01*
X39430051Y16262220D01*
X39431674Y16269365D01*
X39456816Y16468384D01*
X39457109Y16472576D01*
X39457463Y16497901D01*
X39457287Y16502093D01*
X39437712Y16701734D01*
X39436288Y16708921D01*
X39435487Y16711575D01*
X39732331Y16711575D01*
X39733302Y16707950D01*
X39868718Y16613131D01*
X39874385Y16609859D01*
X40067039Y16520022D01*
X40073190Y16517783D01*
X40278521Y16462765D01*
X40284963Y16461629D01*
X40496731Y16443102D01*
X40503269Y16443102D01*
X40715037Y16461629D01*
X40721479Y16462765D01*
X40926810Y16517783D01*
X40932961Y16520022D01*
X41125615Y16609859D01*
X41131282Y16613131D01*
X41261615Y16704392D01*
X41267815Y16713245D01*
X41267488Y16716986D01*
X40509377Y17475097D01*
X40499578Y17479666D01*
X40493587Y17478061D01*
X39736900Y16721374D01*
X39732331Y16711575D01*
X39435487Y16711575D01*
X39392948Y16852473D01*
X39395820Y16903833D01*
X39431033Y16941331D01*
X39482111Y16947421D01*
X39508073Y16935807D01*
X39513246Y16932185D01*
X39516986Y16932512D01*
X40275097Y17690623D01*
X40279272Y17699578D01*
X40720334Y17699578D01*
X40721939Y17693587D01*
X41478626Y16936900D01*
X41488425Y16932331D01*
X41492050Y16933302D01*
X41586869Y17068718D01*
X41590141Y17074385D01*
X41679978Y17267039D01*
X41682217Y17273190D01*
X41737235Y17478521D01*
X41738371Y17484963D01*
X41756898Y17696731D01*
X41756898Y17703269D01*
X41738371Y17915037D01*
X41737235Y17921479D01*
X41682217Y18126810D01*
X41679978Y18132961D01*
X41590141Y18325615D01*
X41586869Y18331282D01*
X41495608Y18461615D01*
X41486755Y18467815D01*
X41483014Y18467488D01*
X40724903Y17709377D01*
X40720334Y17699578D01*
X40279272Y17699578D01*
X40279666Y17700422D01*
X40278061Y17706413D01*
X39521374Y18463100D01*
X39511575Y18467669D01*
X39507950Y18466698D01*
X39413131Y18331282D01*
X39409859Y18325615D01*
X39320022Y18132961D01*
X39317783Y18126810D01*
X39262765Y17921479D01*
X39261629Y17915037D01*
X39243102Y17703269D01*
X39243102Y17696731D01*
X39261629Y17484963D01*
X39262765Y17478521D01*
X39317783Y17273190D01*
X39320022Y17267039D01*
X39338022Y17228439D01*
X39342506Y17177195D01*
X39313001Y17135058D01*
X39263314Y17121744D01*
X39251014Y17125717D01*
X39239356Y17123829D01*
X38624903Y16509377D01*
X38620334Y16499578D01*
X38179272Y16499578D01*
X38179666Y16500422D01*
X38178061Y16506413D01*
X37564008Y17120465D01*
X37554209Y17125034D01*
X37549549Y17123786D01*
X37529813Y17100266D01*
X37525677Y17094225D01*
X37429796Y16919817D01*
X37426909Y16913081D01*
X37366730Y16723372D01*
X37365207Y16716207D01*
X37343022Y16518427D01*
X37342919Y16511094D01*
X33683773Y16511094D01*
X33678026Y16523734D01*
X33673538Y16528943D01*
X33587487Y16628810D01*
X33587484Y16628813D01*
X33583993Y16632864D01*
X33579502Y16635775D01*
X33467604Y16708303D01*
X33467603Y16708303D01*
X33463111Y16711215D01*
X33367450Y16739824D01*
X33330232Y16750955D01*
X33330229Y16750955D01*
X33325098Y16752490D01*
X33319743Y16752523D01*
X33319741Y16752523D01*
X33254524Y16752921D01*
X33181047Y16753370D01*
X33175897Y16751898D01*
X33175896Y16751898D01*
X33122085Y16736519D01*
X33042539Y16713785D01*
X33038013Y16710929D01*
X33038010Y16710928D01*
X32930933Y16643367D01*
X32920709Y16636916D01*
X32913550Y16628810D01*
X32828897Y16532959D01*
X32828895Y16532956D01*
X32825351Y16528943D01*
X32764129Y16398546D01*
X32763305Y16393256D01*
X32763305Y16393255D01*
X32761693Y16382903D01*
X32741967Y16256207D01*
X23185995Y16256207D01*
X23178026Y16273734D01*
X23172915Y16279666D01*
X23087487Y16378810D01*
X23087484Y16378813D01*
X23083993Y16382864D01*
X23079502Y16385775D01*
X22967604Y16458303D01*
X22967603Y16458303D01*
X22963111Y16461215D01*
X22886912Y16484003D01*
X22830232Y16500955D01*
X22830229Y16500955D01*
X22825098Y16502490D01*
X22819743Y16502523D01*
X22819741Y16502523D01*
X22754524Y16502921D01*
X22681047Y16503370D01*
X22675897Y16501898D01*
X22675896Y16501898D01*
X22661911Y16497901D01*
X22542539Y16463785D01*
X22538013Y16460929D01*
X22538010Y16460928D01*
X22430756Y16393255D01*
X22420709Y16386916D01*
X22413550Y16378810D01*
X22328897Y16282959D01*
X22328895Y16282956D01*
X22325351Y16278943D01*
X22323075Y16274096D01*
X22323072Y16274091D01*
X22318468Y16264285D01*
X22281998Y16228008D01*
X22230742Y16223660D01*
X22188684Y16253276D01*
X22181946Y16265112D01*
X22178026Y16273734D01*
X22172915Y16279666D01*
X22087487Y16378810D01*
X22087484Y16378813D01*
X22083993Y16382864D01*
X22079502Y16385775D01*
X21967604Y16458303D01*
X21967603Y16458303D01*
X21963111Y16461215D01*
X21886912Y16484003D01*
X21830232Y16500955D01*
X21830229Y16500955D01*
X21825098Y16502490D01*
X21819743Y16502523D01*
X21819741Y16502523D01*
X21754524Y16502921D01*
X21681047Y16503370D01*
X21675897Y16501898D01*
X21675896Y16501898D01*
X21661911Y16497901D01*
X21542539Y16463785D01*
X21538013Y16460929D01*
X21538010Y16460928D01*
X21430756Y16393255D01*
X21420709Y16386916D01*
X21413550Y16378810D01*
X21328897Y16282959D01*
X21328895Y16282956D01*
X21325351Y16278943D01*
X21264129Y16148546D01*
X21263305Y16143256D01*
X21263305Y16143255D01*
X21255942Y16095963D01*
X21241967Y16006207D01*
X20690744Y16006207D01*
X20731682Y16090704D01*
X20731682Y16090705D01*
X20734020Y16095530D01*
X20757919Y16237587D01*
X20758071Y16250000D01*
X20757602Y16253276D01*
X20738409Y16387296D01*
X20738408Y16387300D01*
X20737649Y16392599D01*
X20707776Y16458303D01*
X20700242Y16474872D01*
X20678026Y16523734D01*
X20673538Y16528943D01*
X20587487Y16628810D01*
X20587484Y16628813D01*
X20583993Y16632864D01*
X20579502Y16635775D01*
X20467604Y16708303D01*
X20467603Y16708303D01*
X20463111Y16711215D01*
X20367450Y16739824D01*
X20330232Y16750955D01*
X20330229Y16750955D01*
X20325098Y16752490D01*
X20319743Y16752523D01*
X20319741Y16752523D01*
X20254524Y16752921D01*
X20181047Y16753370D01*
X20175897Y16751898D01*
X20175896Y16751898D01*
X20122085Y16736519D01*
X20042539Y16713785D01*
X20038013Y16710929D01*
X20038010Y16710928D01*
X19930933Y16643367D01*
X19920709Y16636916D01*
X19913550Y16628810D01*
X19828897Y16532959D01*
X19828895Y16532956D01*
X19825351Y16528943D01*
X19764129Y16398546D01*
X19763305Y16393256D01*
X19763305Y16393255D01*
X19761693Y16382903D01*
X19741967Y16256207D01*
X12652900Y16256207D01*
X12652900Y17306207D01*
X16291967Y17306207D01*
X16292661Y17300900D01*
X16292661Y17300897D01*
X16296284Y17273190D01*
X16310645Y17163370D01*
X16368662Y17031516D01*
X16461354Y16921245D01*
X16581270Y16841423D01*
X16718769Y16798465D01*
X16792871Y16797107D01*
X16857436Y16795923D01*
X16857438Y16795923D01*
X16862798Y16795825D01*
X16867969Y16797235D01*
X16867971Y16797235D01*
X16971081Y16825346D01*
X17001779Y16833715D01*
X17079474Y16881420D01*
X17119970Y16906284D01*
X17119973Y16906286D01*
X17124539Y16909090D01*
X17128152Y16913081D01*
X17217612Y17011915D01*
X17221210Y17015890D01*
X17226795Y17027416D01*
X17281682Y17140704D01*
X17281682Y17140705D01*
X17284020Y17145530D01*
X17294228Y17206207D01*
X23991967Y17206207D01*
X23992661Y17200900D01*
X23992661Y17200897D01*
X23998467Y17156497D01*
X24010645Y17063370D01*
X24068662Y16931516D01*
X24072107Y16927418D01*
X24072108Y16927416D01*
X24091932Y16903833D01*
X24161354Y16821245D01*
X24197424Y16797235D01*
X24264595Y16752523D01*
X24281270Y16741423D01*
X24418769Y16698465D01*
X24492871Y16697107D01*
X24557436Y16695923D01*
X24557438Y16695923D01*
X24562798Y16695825D01*
X24567969Y16697235D01*
X24567971Y16697235D01*
X24658584Y16721939D01*
X24701779Y16733715D01*
X24761438Y16770346D01*
X24819970Y16806284D01*
X24819973Y16806286D01*
X24824539Y16809090D01*
X24910297Y16903833D01*
X24917612Y16911915D01*
X24921210Y16915890D01*
X24923805Y16921245D01*
X24981682Y17040704D01*
X24981682Y17040705D01*
X24984020Y17045530D01*
X25007919Y17187587D01*
X25008071Y17200000D01*
X25007659Y17202880D01*
X25007183Y17206207D01*
X25491967Y17206207D01*
X25492661Y17200900D01*
X25492661Y17200897D01*
X25498467Y17156497D01*
X25510645Y17063370D01*
X25568662Y16931516D01*
X25572107Y16927418D01*
X25572108Y16927416D01*
X25591932Y16903833D01*
X25661354Y16821245D01*
X25697424Y16797235D01*
X25764595Y16752523D01*
X25781270Y16741423D01*
X25918769Y16698465D01*
X25992871Y16697107D01*
X26057436Y16695923D01*
X26057438Y16695923D01*
X26062798Y16695825D01*
X26067969Y16697235D01*
X26067971Y16697235D01*
X26158584Y16721939D01*
X26201779Y16733715D01*
X26261438Y16770346D01*
X26319970Y16806284D01*
X26319973Y16806286D01*
X26324539Y16809090D01*
X26410297Y16903833D01*
X26417612Y16911915D01*
X26421210Y16915890D01*
X26483534Y17044527D01*
X26520440Y17080354D01*
X26571745Y17084077D01*
X26613440Y17053951D01*
X26620037Y17042024D01*
X26668662Y16931516D01*
X26672107Y16927418D01*
X26672108Y16927416D01*
X26691932Y16903833D01*
X26761354Y16821245D01*
X26797424Y16797235D01*
X26864595Y16752523D01*
X26881270Y16741423D01*
X27018769Y16698465D01*
X27092871Y16697107D01*
X27157436Y16695923D01*
X27157438Y16695923D01*
X27162798Y16695825D01*
X27167969Y16697235D01*
X27167971Y16697235D01*
X27258584Y16721939D01*
X27301779Y16733715D01*
X27361438Y16770346D01*
X27419970Y16806284D01*
X27419973Y16806286D01*
X27424539Y16809090D01*
X27510297Y16903833D01*
X27517612Y16911915D01*
X27521210Y16915890D01*
X27523805Y16921245D01*
X27581682Y17040704D01*
X27581682Y17040705D01*
X27584020Y17045530D01*
X27601799Y17151207D01*
X28701967Y17151207D01*
X28702661Y17145900D01*
X28702661Y17145897D01*
X28705987Y17120465D01*
X28720645Y17008370D01*
X28778662Y16876516D01*
X28782107Y16872418D01*
X28782108Y16872416D01*
X28809505Y16839824D01*
X28871354Y16766245D01*
X28893830Y16751284D01*
X28973327Y16698367D01*
X28991270Y16686423D01*
X29128769Y16643465D01*
X29202871Y16642107D01*
X29267436Y16640923D01*
X29267438Y16640923D01*
X29272798Y16640825D01*
X29277969Y16642235D01*
X29277971Y16642235D01*
X29353695Y16662880D01*
X29411779Y16678715D01*
X29484510Y16723372D01*
X29529970Y16751284D01*
X29529973Y16751286D01*
X29534539Y16754090D01*
X29631210Y16860890D01*
X29636795Y16872416D01*
X29691682Y16985704D01*
X29691682Y16985705D01*
X29694020Y16990530D01*
X29717919Y17132587D01*
X29718071Y17145000D01*
X29717659Y17147880D01*
X29698409Y17282296D01*
X29698408Y17282300D01*
X29697649Y17287599D01*
X29693334Y17297091D01*
X29672147Y17343689D01*
X37775636Y17343689D01*
X37776331Y17339196D01*
X38390623Y16724903D01*
X38400422Y16720334D01*
X38406413Y16721939D01*
X39020181Y17335708D01*
X39024750Y17345507D01*
X39023526Y17350075D01*
X38994172Y17374360D01*
X38988113Y17378447D01*
X38813027Y17473115D01*
X38806283Y17475950D01*
X38616149Y17534806D01*
X38608982Y17536277D01*
X38411038Y17557082D01*
X38403725Y17557133D01*
X38205504Y17539094D01*
X38198318Y17537723D01*
X38007387Y17481529D01*
X38000600Y17478787D01*
X37824210Y17386573D01*
X37818093Y17382570D01*
X37781235Y17352935D01*
X37775636Y17343689D01*
X29672147Y17343689D01*
X29640245Y17413853D01*
X29638026Y17418734D01*
X29633538Y17423943D01*
X29547487Y17523810D01*
X29547484Y17523813D01*
X29543993Y17527864D01*
X29539502Y17530775D01*
X29427604Y17603303D01*
X29427603Y17603303D01*
X29423111Y17606215D01*
X29346912Y17629003D01*
X29290232Y17645955D01*
X29290229Y17645955D01*
X29285098Y17647490D01*
X29279743Y17647523D01*
X29279741Y17647523D01*
X29214524Y17647921D01*
X29141047Y17648370D01*
X29135897Y17646898D01*
X29135896Y17646898D01*
X29071793Y17628577D01*
X29002539Y17608785D01*
X28998013Y17605929D01*
X28998010Y17605928D01*
X28887784Y17536380D01*
X28880709Y17531916D01*
X28873550Y17523810D01*
X28788897Y17427959D01*
X28788895Y17427956D01*
X28785351Y17423943D01*
X28780614Y17413853D01*
X28753882Y17356916D01*
X28724129Y17293546D01*
X28723305Y17288256D01*
X28723305Y17288255D01*
X28720002Y17267039D01*
X28701967Y17151207D01*
X27601799Y17151207D01*
X27607919Y17187587D01*
X27608071Y17200000D01*
X27607659Y17202880D01*
X27588409Y17337296D01*
X27588408Y17337300D01*
X27587649Y17342599D01*
X27573209Y17374360D01*
X27530245Y17468853D01*
X27528026Y17473734D01*
X27524298Y17478061D01*
X27437487Y17578810D01*
X27437484Y17578813D01*
X27433993Y17582864D01*
X27429502Y17585775D01*
X27317604Y17658303D01*
X27317603Y17658303D01*
X27313111Y17661215D01*
X27236912Y17684003D01*
X27180232Y17700955D01*
X27180229Y17700955D01*
X27175098Y17702490D01*
X27169743Y17702523D01*
X27169741Y17702523D01*
X27104524Y17702921D01*
X27031047Y17703370D01*
X27025897Y17701898D01*
X27025896Y17701898D01*
X27007817Y17696731D01*
X26892539Y17663785D01*
X26888013Y17660929D01*
X26888010Y17660928D01*
X26811934Y17612927D01*
X26770709Y17586916D01*
X26763668Y17578943D01*
X26678897Y17482959D01*
X26678895Y17482956D01*
X26675351Y17478943D01*
X26673075Y17474095D01*
X26673073Y17474092D01*
X26617667Y17356082D01*
X26581198Y17319804D01*
X26529942Y17315455D01*
X26487883Y17345070D01*
X26481140Y17356916D01*
X26430245Y17468853D01*
X26428026Y17473734D01*
X26424298Y17478061D01*
X26337487Y17578810D01*
X26337484Y17578813D01*
X26333993Y17582864D01*
X26329502Y17585775D01*
X26217604Y17658303D01*
X26217603Y17658303D01*
X26213111Y17661215D01*
X26136912Y17684003D01*
X26080232Y17700955D01*
X26080229Y17700955D01*
X26075098Y17702490D01*
X26069743Y17702523D01*
X26069741Y17702523D01*
X26004524Y17702921D01*
X25931047Y17703370D01*
X25925897Y17701898D01*
X25925896Y17701898D01*
X25907817Y17696731D01*
X25792539Y17663785D01*
X25788013Y17660929D01*
X25788010Y17660928D01*
X25711934Y17612927D01*
X25670709Y17586916D01*
X25663668Y17578943D01*
X25578897Y17482959D01*
X25578895Y17482956D01*
X25575351Y17478943D01*
X25514129Y17348546D01*
X25513305Y17343256D01*
X25513305Y17343255D01*
X25507537Y17306207D01*
X25491967Y17206207D01*
X25007183Y17206207D01*
X24988409Y17337296D01*
X24988408Y17337300D01*
X24987649Y17342599D01*
X24973209Y17374360D01*
X24930245Y17468853D01*
X24928026Y17473734D01*
X24924298Y17478061D01*
X24837487Y17578810D01*
X24837484Y17578813D01*
X24833993Y17582864D01*
X24829502Y17585775D01*
X24717604Y17658303D01*
X24717603Y17658303D01*
X24713111Y17661215D01*
X24636912Y17684003D01*
X24580232Y17700955D01*
X24580229Y17700955D01*
X24575098Y17702490D01*
X24569743Y17702523D01*
X24569741Y17702523D01*
X24504524Y17702921D01*
X24431047Y17703370D01*
X24425897Y17701898D01*
X24425896Y17701898D01*
X24407817Y17696731D01*
X24292539Y17663785D01*
X24288013Y17660929D01*
X24288010Y17660928D01*
X24211934Y17612927D01*
X24170709Y17586916D01*
X24163668Y17578943D01*
X24078897Y17482959D01*
X24078895Y17482956D01*
X24075351Y17478943D01*
X24014129Y17348546D01*
X24013305Y17343256D01*
X24013305Y17343255D01*
X24007537Y17306207D01*
X23991967Y17206207D01*
X17294228Y17206207D01*
X17307919Y17287587D01*
X17308071Y17300000D01*
X17307183Y17306207D01*
X17296246Y17382570D01*
X17292012Y17412132D01*
X17302574Y17462475D01*
X17343026Y17494250D01*
X17349421Y17495682D01*
X17349420Y17495686D01*
X17488401Y17533576D01*
X17562072Y17578810D01*
X17606592Y17606145D01*
X17606595Y17606147D01*
X17611161Y17608951D01*
X17646842Y17648370D01*
X17704234Y17711776D01*
X17707832Y17715751D01*
X17731105Y17763785D01*
X17768304Y17840565D01*
X17768304Y17840566D01*
X17770642Y17845391D01*
X17794541Y17987448D01*
X17794693Y17999861D01*
X17794281Y18002741D01*
X17775031Y18137157D01*
X17775030Y18137161D01*
X17774271Y18142460D01*
X17770198Y18151420D01*
X17720588Y18260530D01*
X17714648Y18273595D01*
X17710160Y18278804D01*
X17624109Y18378671D01*
X17624106Y18378674D01*
X17620615Y18382725D01*
X17616124Y18385636D01*
X17561244Y18421207D01*
X26161967Y18421207D01*
X26162661Y18415900D01*
X26162661Y18415897D01*
X26166394Y18387350D01*
X26180645Y18278370D01*
X26206014Y18220715D01*
X26235698Y18153253D01*
X26238662Y18146516D01*
X26242107Y18142418D01*
X26242108Y18142416D01*
X26272126Y18106705D01*
X26331354Y18036245D01*
X26451270Y17956423D01*
X26588769Y17913465D01*
X26662871Y17912107D01*
X26727436Y17910923D01*
X26727438Y17910923D01*
X26732798Y17910825D01*
X26737969Y17912235D01*
X26737971Y17912235D01*
X26813695Y17932880D01*
X26871779Y17948715D01*
X26950341Y17996952D01*
X26989970Y18021284D01*
X26989973Y18021286D01*
X26994539Y18024090D01*
X27001960Y18032288D01*
X27087612Y18126915D01*
X27091210Y18130890D01*
X27094247Y18137157D01*
X27151682Y18255704D01*
X27151682Y18255705D01*
X27154020Y18260530D01*
X27177919Y18402587D01*
X27178071Y18415000D01*
X27177659Y18417880D01*
X27165010Y18506207D01*
X27991967Y18506207D01*
X27992661Y18500900D01*
X27992661Y18500897D01*
X27997906Y18460789D01*
X28010645Y18363370D01*
X28068662Y18231516D01*
X28161354Y18121245D01*
X28281270Y18041423D01*
X28418769Y17998465D01*
X28492871Y17997107D01*
X28557436Y17995923D01*
X28557438Y17995923D01*
X28562798Y17995825D01*
X28567969Y17997235D01*
X28567971Y17997235D01*
X28685786Y18029355D01*
X28701779Y18033715D01*
X28754871Y18066314D01*
X28819970Y18106284D01*
X28819973Y18106286D01*
X28824539Y18109090D01*
X28840674Y18126915D01*
X28917612Y18211915D01*
X28921210Y18215890D01*
X28926795Y18227416D01*
X28981682Y18340704D01*
X28981682Y18340705D01*
X28984020Y18345530D01*
X29007919Y18487587D01*
X29008071Y18500000D01*
X29007613Y18503198D01*
X28988409Y18637296D01*
X28988408Y18637300D01*
X28987649Y18642599D01*
X28966814Y18688425D01*
X28946221Y18733715D01*
X28928026Y18773734D01*
X28923538Y18778943D01*
X28837487Y18878810D01*
X28837484Y18878813D01*
X28833993Y18882864D01*
X28829502Y18885775D01*
X28717604Y18958303D01*
X28717603Y18958303D01*
X28713111Y18961215D01*
X28636912Y18984003D01*
X28580232Y19000955D01*
X28580229Y19000955D01*
X28575098Y19002490D01*
X28569743Y19002523D01*
X28569741Y19002523D01*
X28504524Y19002921D01*
X28431047Y19003370D01*
X28425897Y19001898D01*
X28425896Y19001898D01*
X28419255Y19000000D01*
X28292539Y18963785D01*
X28288013Y18960929D01*
X28288010Y18960928D01*
X28216733Y18915955D01*
X28170709Y18886916D01*
X28153732Y18867693D01*
X28078897Y18782959D01*
X28078895Y18782956D01*
X28075351Y18778943D01*
X28014129Y18648546D01*
X27991967Y18506207D01*
X27165010Y18506207D01*
X27158409Y18552296D01*
X27158408Y18552300D01*
X27157649Y18557599D01*
X27152159Y18569675D01*
X27102622Y18678626D01*
X27098026Y18688734D01*
X27090701Y18697235D01*
X27007487Y18793810D01*
X27007484Y18793813D01*
X27003993Y18797864D01*
X26999502Y18800775D01*
X26887604Y18873303D01*
X26887603Y18873303D01*
X26883111Y18876215D01*
X26806912Y18899003D01*
X26750232Y18915955D01*
X26750229Y18915955D01*
X26745098Y18917490D01*
X26739743Y18917523D01*
X26739741Y18917523D01*
X26674524Y18917921D01*
X26601047Y18918370D01*
X26595897Y18916898D01*
X26595896Y18916898D01*
X26592369Y18915890D01*
X26462539Y18878785D01*
X26458013Y18875929D01*
X26458010Y18875928D01*
X26358381Y18813066D01*
X26340709Y18801916D01*
X26333550Y18793810D01*
X26248897Y18697959D01*
X26248895Y18697956D01*
X26245351Y18693943D01*
X26242760Y18688425D01*
X26187007Y18569675D01*
X26184129Y18563546D01*
X26161967Y18421207D01*
X17561244Y18421207D01*
X17504226Y18458164D01*
X17504225Y18458164D01*
X17499733Y18461076D01*
X17401347Y18490500D01*
X17366854Y18500816D01*
X17366851Y18500816D01*
X17361720Y18502351D01*
X17356365Y18502384D01*
X17356363Y18502384D01*
X17291146Y18502782D01*
X17217669Y18503231D01*
X17212519Y18501759D01*
X17212518Y18501759D01*
X17196185Y18497091D01*
X17079161Y18463646D01*
X17074635Y18460790D01*
X17074632Y18460789D01*
X16967731Y18393339D01*
X16957331Y18386777D01*
X16950172Y18378671D01*
X16865519Y18282820D01*
X16865517Y18282817D01*
X16861973Y18278804D01*
X16800751Y18148407D01*
X16799927Y18143117D01*
X16799927Y18143116D01*
X16794000Y18105046D01*
X16778589Y18006068D01*
X16779283Y18000761D01*
X16779283Y18000758D01*
X16794199Y17886692D01*
X16783022Y17836482D01*
X16742184Y17805203D01*
X16733921Y17803352D01*
X16731047Y17803370D01*
X16592539Y17763785D01*
X16588013Y17760929D01*
X16588010Y17760928D01*
X16495392Y17702490D01*
X16470709Y17686916D01*
X16467164Y17682903D01*
X16467165Y17682903D01*
X16378897Y17582959D01*
X16378895Y17582956D01*
X16375351Y17578943D01*
X16354613Y17534773D01*
X16328401Y17478943D01*
X16314129Y17448546D01*
X16313305Y17443256D01*
X16313305Y17443255D01*
X16309487Y17418734D01*
X16291967Y17306207D01*
X12652900Y17306207D01*
X12652900Y19206207D01*
X23691967Y19206207D01*
X23692661Y19200900D01*
X23692661Y19200897D01*
X23693159Y19197091D01*
X23710645Y19063370D01*
X23739452Y18997901D01*
X23766146Y18937235D01*
X23768662Y18931516D01*
X23772107Y18927418D01*
X23772108Y18927416D01*
X23781742Y18915955D01*
X23861354Y18821245D01*
X23879732Y18809012D01*
X23950182Y18762117D01*
X23981270Y18741423D01*
X24118769Y18698465D01*
X24192871Y18697107D01*
X24257436Y18695923D01*
X24257438Y18695923D01*
X24262798Y18695825D01*
X24267969Y18697235D01*
X24267971Y18697235D01*
X24343695Y18717880D01*
X24401779Y18733715D01*
X24493678Y18790141D01*
X24519970Y18806284D01*
X24519973Y18806286D01*
X24524539Y18809090D01*
X24621210Y18915890D01*
X24626795Y18927416D01*
X24681682Y19040704D01*
X24681682Y19040705D01*
X24684020Y19045530D01*
X24707919Y19187587D01*
X24708071Y19200000D01*
X24707659Y19202880D01*
X24707183Y19206207D01*
X25091967Y19206207D01*
X25092661Y19200900D01*
X25092661Y19200897D01*
X25093159Y19197091D01*
X25110645Y19063370D01*
X25139452Y18997901D01*
X25166146Y18937235D01*
X25168662Y18931516D01*
X25172107Y18927418D01*
X25172108Y18927416D01*
X25181742Y18915955D01*
X25261354Y18821245D01*
X25279732Y18809012D01*
X25350182Y18762117D01*
X25381270Y18741423D01*
X25518769Y18698465D01*
X25592871Y18697107D01*
X25657436Y18695923D01*
X25657438Y18695923D01*
X25662798Y18695825D01*
X25667969Y18697235D01*
X25667971Y18697235D01*
X25743695Y18717880D01*
X25801779Y18733715D01*
X25893678Y18790141D01*
X25919970Y18806284D01*
X25919973Y18806286D01*
X25924539Y18809090D01*
X26021210Y18915890D01*
X26026795Y18927416D01*
X26069118Y19014772D01*
X37342108Y19014772D01*
X37342416Y19011104D01*
X37342416Y19011101D01*
X37353239Y18882217D01*
X37359386Y18809012D01*
X37416301Y18610526D01*
X37510685Y18426875D01*
X37638942Y18265055D01*
X37641736Y18262677D01*
X37641737Y18262676D01*
X37701381Y18211915D01*
X37796188Y18131228D01*
X37799389Y18129439D01*
X37799392Y18129437D01*
X37819361Y18118277D01*
X37976433Y18030493D01*
X37979934Y18029356D01*
X37979935Y18029355D01*
X37996139Y18024090D01*
X38172811Y17966686D01*
X38244999Y17958078D01*
X38374185Y17942673D01*
X38374187Y17942673D01*
X38377843Y17942237D01*
X38583719Y17958078D01*
X38719264Y17995923D01*
X38779052Y18012616D01*
X38779054Y18012617D01*
X38782597Y18013606D01*
X38966902Y18106705D01*
X39112828Y18220715D01*
X39126715Y18231565D01*
X39129614Y18233830D01*
X39264535Y18390137D01*
X39305140Y18461615D01*
X39364711Y18566478D01*
X39364712Y18566479D01*
X39366527Y18569675D01*
X39405474Y18686755D01*
X39732185Y18686755D01*
X39732512Y18683014D01*
X40490623Y17924903D01*
X40500422Y17920334D01*
X40506413Y17921939D01*
X41263100Y18678626D01*
X41267669Y18688425D01*
X41266698Y18692050D01*
X41131282Y18786869D01*
X41125615Y18790141D01*
X40932961Y18879978D01*
X40926810Y18882217D01*
X40721479Y18937235D01*
X40715037Y18938371D01*
X40503269Y18956898D01*
X40496731Y18956898D01*
X40284963Y18938371D01*
X40278521Y18937235D01*
X40073190Y18882217D01*
X40067039Y18879978D01*
X39874385Y18790141D01*
X39868718Y18786869D01*
X39738385Y18695608D01*
X39732185Y18686755D01*
X39405474Y18686755D01*
X39431703Y18765603D01*
X39435267Y18793810D01*
X39457319Y18968370D01*
X39457583Y18970459D01*
X39457995Y19000000D01*
X39439884Y19184717D01*
X39438206Y19201832D01*
X39438205Y19201837D01*
X39437846Y19205499D01*
X39378165Y19403171D01*
X39281227Y19585485D01*
X39187052Y19700955D01*
X39153045Y19742651D01*
X39153044Y19742652D01*
X39150722Y19745499D01*
X38991623Y19877118D01*
X38973364Y19886991D01*
X38945726Y19901934D01*
X38886689Y19933856D01*
X38852538Y19972322D01*
X38851102Y20023742D01*
X38883053Y20064055D01*
X38888551Y20067127D01*
X38963618Y20105046D01*
X38963619Y20105047D01*
X38966902Y20106705D01*
X39129614Y20233830D01*
X39264535Y20390137D01*
X39310310Y20470715D01*
X39364711Y20566478D01*
X39364712Y20566479D01*
X39366527Y20569675D01*
X39431703Y20765603D01*
X39434602Y20788546D01*
X39457319Y20968370D01*
X39457583Y20970459D01*
X39457995Y21000000D01*
X39456151Y21018810D01*
X39438206Y21201832D01*
X39438205Y21201837D01*
X39437846Y21205499D01*
X39405820Y21311575D01*
X39732331Y21311575D01*
X39733302Y21307950D01*
X39868718Y21213131D01*
X39874385Y21209859D01*
X40067039Y21120022D01*
X40073190Y21117783D01*
X40278521Y21062765D01*
X40284963Y21061629D01*
X40496731Y21043102D01*
X40503269Y21043102D01*
X40715037Y21061629D01*
X40721479Y21062765D01*
X40926810Y21117783D01*
X40932961Y21120022D01*
X41125615Y21209859D01*
X41131282Y21213131D01*
X41261615Y21304392D01*
X41267815Y21313245D01*
X41267488Y21316986D01*
X40509377Y22075097D01*
X40499578Y22079666D01*
X40493587Y22078061D01*
X39736900Y21321374D01*
X39732331Y21311575D01*
X39405820Y21311575D01*
X39378165Y21403171D01*
X39281227Y21585485D01*
X39258733Y21613066D01*
X39153045Y21742651D01*
X39153044Y21742652D01*
X39150722Y21745499D01*
X38991623Y21877118D01*
X38809990Y21975327D01*
X38612739Y22036386D01*
X38484065Y22049910D01*
X38411041Y22057585D01*
X38411039Y22057585D01*
X38407386Y22057969D01*
X38201752Y22039255D01*
X38107438Y22011497D01*
X38007197Y21981995D01*
X38007194Y21981994D01*
X38003668Y21980956D01*
X38000411Y21979253D01*
X38000408Y21979252D01*
X37989557Y21973579D01*
X37820681Y21885292D01*
X37817815Y21882987D01*
X37817814Y21882987D01*
X37787309Y21858460D01*
X37659760Y21755909D01*
X37527034Y21597732D01*
X37427559Y21416789D01*
X37365125Y21219970D01*
X37342108Y21014772D01*
X37342416Y21011104D01*
X37342416Y21011101D01*
X37355036Y20860813D01*
X37359386Y20809012D01*
X37416301Y20610526D01*
X37510685Y20426875D01*
X37638942Y20265055D01*
X37641736Y20262677D01*
X37641737Y20262676D01*
X37733719Y20184393D01*
X37796188Y20131228D01*
X37799389Y20129439D01*
X37799392Y20129437D01*
X37913988Y20065392D01*
X37947600Y20026452D01*
X37948318Y19975017D01*
X37912143Y19933108D01*
X37820681Y19885292D01*
X37817815Y19882987D01*
X37817814Y19882987D01*
X37810515Y19877118D01*
X37659760Y19755909D01*
X37527034Y19597732D01*
X37525263Y19594510D01*
X37525262Y19594509D01*
X37520301Y19585485D01*
X37427559Y19416789D01*
X37365125Y19219970D01*
X37342108Y19014772D01*
X26069118Y19014772D01*
X26081682Y19040704D01*
X26081682Y19040705D01*
X26084020Y19045530D01*
X26107919Y19187587D01*
X26108071Y19200000D01*
X26107659Y19202880D01*
X26088409Y19337296D01*
X26088408Y19337300D01*
X26087649Y19342599D01*
X26028026Y19473734D01*
X26023538Y19478943D01*
X25937487Y19578810D01*
X25937484Y19578813D01*
X25933993Y19582864D01*
X25929502Y19585775D01*
X25817604Y19658303D01*
X25817603Y19658303D01*
X25813111Y19661215D01*
X25736912Y19684003D01*
X25680232Y19700955D01*
X25680229Y19700955D01*
X25675098Y19702490D01*
X25669743Y19702523D01*
X25669741Y19702523D01*
X25604524Y19702921D01*
X25531047Y19703370D01*
X25525897Y19701898D01*
X25525896Y19701898D01*
X25461793Y19683577D01*
X25392539Y19663785D01*
X25388013Y19660929D01*
X25388010Y19660928D01*
X25292313Y19600547D01*
X25270709Y19586916D01*
X25266581Y19582242D01*
X25178897Y19482959D01*
X25178895Y19482956D01*
X25175351Y19478943D01*
X25170614Y19468853D01*
X25138123Y19399650D01*
X25114129Y19348546D01*
X25091967Y19206207D01*
X24707183Y19206207D01*
X24688409Y19337296D01*
X24688408Y19337300D01*
X24687649Y19342599D01*
X24628026Y19473734D01*
X24623538Y19478943D01*
X24537487Y19578810D01*
X24537484Y19578813D01*
X24533993Y19582864D01*
X24529502Y19585775D01*
X24417604Y19658303D01*
X24417603Y19658303D01*
X24413111Y19661215D01*
X24336912Y19684003D01*
X24280232Y19700955D01*
X24280229Y19700955D01*
X24275098Y19702490D01*
X24269743Y19702523D01*
X24269741Y19702523D01*
X24204524Y19702921D01*
X24131047Y19703370D01*
X24125897Y19701898D01*
X24125896Y19701898D01*
X24061793Y19683577D01*
X23992539Y19663785D01*
X23988013Y19660929D01*
X23988010Y19660928D01*
X23892313Y19600547D01*
X23870709Y19586916D01*
X23866581Y19582242D01*
X23778897Y19482959D01*
X23778895Y19482956D01*
X23775351Y19478943D01*
X23770614Y19468853D01*
X23738123Y19399650D01*
X23714129Y19348546D01*
X23691967Y19206207D01*
X12652900Y19206207D01*
X12652900Y20756207D01*
X16264369Y20756207D01*
X16265063Y20750900D01*
X16265063Y20750897D01*
X16265561Y20747091D01*
X16283047Y20613370D01*
X16341064Y20481516D01*
X16344509Y20477418D01*
X16344510Y20477416D01*
X16372063Y20444638D01*
X16433756Y20371245D01*
X16553672Y20291423D01*
X16691171Y20248465D01*
X16765273Y20247107D01*
X16829838Y20245923D01*
X16829840Y20245923D01*
X16835200Y20245825D01*
X16840371Y20247235D01*
X16840373Y20247235D01*
X16916292Y20267933D01*
X16974181Y20283715D01*
X17027273Y20316314D01*
X17092372Y20356284D01*
X17092375Y20356286D01*
X17096941Y20359090D01*
X17125044Y20390137D01*
X17190014Y20461915D01*
X17193612Y20465890D01*
X17199197Y20477416D01*
X17254084Y20590704D01*
X17254084Y20590705D01*
X17256422Y20595530D01*
X17264948Y20646207D01*
X31721967Y20646207D01*
X31722661Y20640900D01*
X31722661Y20640897D01*
X31728594Y20595530D01*
X31740645Y20503370D01*
X31766488Y20444638D01*
X31790469Y20390137D01*
X31798662Y20371516D01*
X31802107Y20367418D01*
X31802108Y20367416D01*
X31811797Y20355890D01*
X31891354Y20261245D01*
X32011270Y20181423D01*
X32148769Y20138465D01*
X32222871Y20137107D01*
X32287436Y20135923D01*
X32287438Y20135923D01*
X32292798Y20135825D01*
X32297969Y20137235D01*
X32297971Y20137235D01*
X32373695Y20157880D01*
X32431779Y20173715D01*
X32534222Y20236615D01*
X32549970Y20246284D01*
X32549973Y20246286D01*
X32554539Y20249090D01*
X32566837Y20262676D01*
X32647612Y20351915D01*
X32651210Y20355890D01*
X32676850Y20408811D01*
X32713756Y20444638D01*
X32765061Y20448361D01*
X32806756Y20418235D01*
X32813352Y20406310D01*
X32828662Y20371516D01*
X32832107Y20367418D01*
X32832108Y20367416D01*
X32841797Y20355890D01*
X32921354Y20261245D01*
X33041270Y20181423D01*
X33178769Y20138465D01*
X33252871Y20137107D01*
X33317436Y20135923D01*
X33317438Y20135923D01*
X33322798Y20135825D01*
X33327969Y20137235D01*
X33327971Y20137235D01*
X33403695Y20157880D01*
X33461779Y20173715D01*
X33564222Y20236615D01*
X33579970Y20246284D01*
X33579973Y20246286D01*
X33584539Y20249090D01*
X33596837Y20262676D01*
X33677612Y20351915D01*
X33681210Y20355890D01*
X33686795Y20367416D01*
X33741682Y20480704D01*
X33741682Y20480705D01*
X33744020Y20485530D01*
X33767919Y20627587D01*
X33768071Y20640000D01*
X33767659Y20642880D01*
X33748409Y20777296D01*
X33748408Y20777300D01*
X33747649Y20782599D01*
X33688026Y20913734D01*
X33683538Y20918943D01*
X33597487Y21018810D01*
X33597484Y21018813D01*
X33593993Y21022864D01*
X33589502Y21025775D01*
X33477604Y21098303D01*
X33477603Y21098303D01*
X33473111Y21101215D01*
X33396912Y21124003D01*
X33340232Y21140955D01*
X33340229Y21140955D01*
X33335098Y21142490D01*
X33329743Y21142523D01*
X33329741Y21142523D01*
X33264524Y21142921D01*
X33191047Y21143370D01*
X33185897Y21141898D01*
X33185896Y21141898D01*
X33121793Y21123577D01*
X33052539Y21103785D01*
X33048013Y21100929D01*
X33048010Y21100928D01*
X32935237Y21029773D01*
X32930709Y21026916D01*
X32923588Y21018853D01*
X32838897Y20922959D01*
X32838895Y20922956D01*
X32835351Y20918943D01*
X32833075Y20914096D01*
X32833074Y20914094D01*
X32813228Y20871824D01*
X32776759Y20835546D01*
X32725503Y20831198D01*
X32683444Y20860813D01*
X32676705Y20872651D01*
X32658026Y20913734D01*
X32653538Y20918943D01*
X32567487Y21018810D01*
X32567484Y21018813D01*
X32563993Y21022864D01*
X32559502Y21025775D01*
X32447604Y21098303D01*
X32447603Y21098303D01*
X32443111Y21101215D01*
X32366912Y21124003D01*
X32310232Y21140955D01*
X32310229Y21140955D01*
X32305098Y21142490D01*
X32299743Y21142523D01*
X32299741Y21142523D01*
X32234524Y21142921D01*
X32161047Y21143370D01*
X32155897Y21141898D01*
X32155896Y21141898D01*
X32091793Y21123577D01*
X32022539Y21103785D01*
X32018013Y21100929D01*
X32018010Y21100928D01*
X31905237Y21029773D01*
X31900709Y21026916D01*
X31893588Y21018853D01*
X31808897Y20922959D01*
X31808895Y20922956D01*
X31805351Y20918943D01*
X31800615Y20908856D01*
X31755460Y20812679D01*
X31744129Y20788546D01*
X31743305Y20783256D01*
X31743305Y20783255D01*
X31736648Y20740500D01*
X31721967Y20646207D01*
X17264948Y20646207D01*
X17280321Y20737587D01*
X17280473Y20750000D01*
X17280061Y20752880D01*
X17260811Y20887296D01*
X17260810Y20887300D01*
X17260051Y20892599D01*
X17252660Y20908856D01*
X17202647Y21018853D01*
X17200428Y21023734D01*
X17195940Y21028943D01*
X17109889Y21128810D01*
X17109886Y21128813D01*
X17106395Y21132864D01*
X17101904Y21135775D01*
X16990006Y21208303D01*
X16990005Y21208303D01*
X16985513Y21211215D01*
X16909314Y21234003D01*
X16852634Y21250955D01*
X16852631Y21250955D01*
X16847500Y21252490D01*
X16842145Y21252523D01*
X16842143Y21252523D01*
X16776926Y21252921D01*
X16703449Y21253370D01*
X16698299Y21251898D01*
X16698298Y21251898D01*
X16634195Y21233578D01*
X16564941Y21213785D01*
X16560415Y21210929D01*
X16560412Y21210928D01*
X16451945Y21142490D01*
X16443111Y21136916D01*
X16435952Y21128810D01*
X16351299Y21032959D01*
X16351297Y21032956D01*
X16347753Y21028943D01*
X16344917Y21022903D01*
X16291372Y20908856D01*
X16286531Y20898546D01*
X16285707Y20893256D01*
X16285707Y20893255D01*
X16282370Y20871824D01*
X16264369Y20756207D01*
X12652900Y20756207D01*
X12652900Y22006207D01*
X28391967Y22006207D01*
X28392661Y22000900D01*
X28392661Y22000897D01*
X28400784Y21938780D01*
X28410645Y21863370D01*
X28468662Y21731516D01*
X28561354Y21621245D01*
X28681270Y21541423D01*
X28818769Y21498465D01*
X28892871Y21497107D01*
X28957436Y21495923D01*
X28957438Y21495923D01*
X28962798Y21495825D01*
X28967969Y21497235D01*
X28967971Y21497235D01*
X29043695Y21517880D01*
X29101779Y21533715D01*
X29186095Y21585485D01*
X29219970Y21606284D01*
X29219973Y21606286D01*
X29224539Y21609090D01*
X29321210Y21715890D01*
X29326795Y21727416D01*
X29381682Y21840704D01*
X29381682Y21840705D01*
X29384020Y21845530D01*
X29407919Y21987587D01*
X29408071Y22000000D01*
X29407659Y22002880D01*
X29388409Y22137296D01*
X29388408Y22137300D01*
X29387649Y22142599D01*
X29358694Y22206284D01*
X29330245Y22268853D01*
X29328026Y22273734D01*
X29323538Y22278943D01*
X29237487Y22378810D01*
X29237484Y22378813D01*
X29233993Y22382864D01*
X29229502Y22385775D01*
X29117604Y22458303D01*
X29117603Y22458303D01*
X29113111Y22461215D01*
X29036912Y22484003D01*
X28980232Y22500955D01*
X28980229Y22500955D01*
X28975098Y22502490D01*
X28969743Y22502523D01*
X28969741Y22502523D01*
X28904524Y22502921D01*
X28831047Y22503370D01*
X28825897Y22501898D01*
X28825896Y22501898D01*
X28761793Y22483578D01*
X28692539Y22463785D01*
X28688013Y22460929D01*
X28688010Y22460928D01*
X28575237Y22389773D01*
X28570709Y22386916D01*
X28563550Y22378810D01*
X28478897Y22282959D01*
X28478895Y22282956D01*
X28475351Y22278943D01*
X28414129Y22148546D01*
X28391967Y22006207D01*
X12652900Y22006207D01*
X12652900Y22606207D01*
X26791967Y22606207D01*
X26792661Y22600900D01*
X26792661Y22600897D01*
X26793159Y22597091D01*
X26810645Y22463370D01*
X26868662Y22331516D01*
X26872107Y22327418D01*
X26872108Y22327416D01*
X26900544Y22293587D01*
X26961354Y22221245D01*
X26983830Y22206284D01*
X27072177Y22147476D01*
X27081270Y22141423D01*
X27218769Y22098465D01*
X27292871Y22097107D01*
X27357436Y22095923D01*
X27357438Y22095923D01*
X27362798Y22095825D01*
X27367969Y22097235D01*
X27367971Y22097235D01*
X27443695Y22117880D01*
X27501779Y22133715D01*
X27554871Y22166314D01*
X27619970Y22206284D01*
X27619973Y22206286D01*
X27624539Y22209090D01*
X27721210Y22315890D01*
X27726795Y22327416D01*
X27781682Y22440704D01*
X27781682Y22440705D01*
X27784020Y22445530D01*
X27807919Y22587587D01*
X27808071Y22600000D01*
X27807659Y22602880D01*
X27788409Y22737296D01*
X27788408Y22737300D01*
X27787649Y22742599D01*
X27776131Y22767933D01*
X27730245Y22868853D01*
X27728026Y22873734D01*
X27723538Y22878943D01*
X27637487Y22978810D01*
X27637484Y22978813D01*
X27633993Y22982864D01*
X27629502Y22985775D01*
X27517604Y23058303D01*
X27517603Y23058303D01*
X27513111Y23061215D01*
X27436912Y23084003D01*
X27380232Y23100955D01*
X27380229Y23100955D01*
X27375098Y23102490D01*
X27369743Y23102523D01*
X27369741Y23102523D01*
X27304524Y23102921D01*
X27231047Y23103370D01*
X27225897Y23101898D01*
X27225896Y23101898D01*
X27161793Y23083577D01*
X27092539Y23063785D01*
X27088013Y23060929D01*
X27088010Y23060928D01*
X26984984Y22995923D01*
X26970709Y22986916D01*
X26953732Y22967693D01*
X26878897Y22882959D01*
X26878895Y22882956D01*
X26875351Y22878943D01*
X26858905Y22843915D01*
X26818261Y22757346D01*
X26814129Y22748546D01*
X26791967Y22606207D01*
X12652900Y22606207D01*
X12652900Y23506207D01*
X22491967Y23506207D01*
X22492661Y23500900D01*
X22492661Y23500897D01*
X22496915Y23468370D01*
X22510645Y23363370D01*
X22568662Y23231516D01*
X22661354Y23121245D01*
X22690419Y23101898D01*
X22758359Y23056674D01*
X22781270Y23041423D01*
X22918769Y22998465D01*
X22992871Y22997107D01*
X23057436Y22995923D01*
X23057438Y22995923D01*
X23062798Y22995825D01*
X23067969Y22997235D01*
X23067971Y22997235D01*
X23143695Y23017880D01*
X23201779Y23033715D01*
X23257316Y23067815D01*
X23319970Y23106284D01*
X23319973Y23106286D01*
X23324539Y23109090D01*
X23329040Y23114062D01*
X23350895Y23138207D01*
X33166967Y23138207D01*
X33167661Y23132900D01*
X33167661Y23132897D01*
X33171715Y23101898D01*
X33185645Y22995370D01*
X33216338Y22925615D01*
X33241314Y22868853D01*
X33243662Y22863516D01*
X33336354Y22753245D01*
X33456270Y22673423D01*
X33593769Y22630465D01*
X33667871Y22629107D01*
X33732436Y22627923D01*
X33732438Y22627923D01*
X33737798Y22627825D01*
X33742969Y22629235D01*
X33742971Y22629235D01*
X33818695Y22649880D01*
X33876779Y22665715D01*
X33929871Y22698314D01*
X33994970Y22738284D01*
X33994973Y22738286D01*
X33999539Y22741090D01*
X34096210Y22847890D01*
X34101795Y22859416D01*
X34156682Y22972704D01*
X34156682Y22972705D01*
X34159020Y22977530D01*
X34182919Y23119587D01*
X34183071Y23132000D01*
X34182659Y23134880D01*
X34182183Y23138207D01*
X34436967Y23138207D01*
X34437661Y23132900D01*
X34437661Y23132897D01*
X34441715Y23101898D01*
X34455645Y22995370D01*
X34486338Y22925615D01*
X34511314Y22868853D01*
X34513662Y22863516D01*
X34606354Y22753245D01*
X34726270Y22673423D01*
X34863769Y22630465D01*
X34937871Y22629107D01*
X35002436Y22627923D01*
X35002438Y22627923D01*
X35007798Y22627825D01*
X35012969Y22629235D01*
X35012971Y22629235D01*
X35088695Y22649880D01*
X35146779Y22665715D01*
X35199871Y22698314D01*
X35264970Y22738284D01*
X35264973Y22738286D01*
X35269539Y22741090D01*
X35366210Y22847890D01*
X35371795Y22859416D01*
X35426682Y22972704D01*
X35426682Y22972705D01*
X35429020Y22977530D01*
X35452919Y23119587D01*
X35453071Y23132000D01*
X35452659Y23134880D01*
X35433409Y23269296D01*
X35433408Y23269300D01*
X35432649Y23274599D01*
X35417003Y23309012D01*
X35381603Y23386869D01*
X35373026Y23405734D01*
X35368538Y23410943D01*
X35282487Y23510810D01*
X35282484Y23510813D01*
X35279072Y23514772D01*
X37342108Y23514772D01*
X37342416Y23511104D01*
X37342416Y23511101D01*
X37356725Y23340704D01*
X37359386Y23309012D01*
X37381608Y23231516D01*
X37412868Y23122500D01*
X37416301Y23110526D01*
X37510685Y22926875D01*
X37638942Y22765055D01*
X37641736Y22762677D01*
X37641737Y22762676D01*
X37743119Y22676393D01*
X37796188Y22631228D01*
X37799389Y22629439D01*
X37799392Y22629437D01*
X37874275Y22587587D01*
X37976433Y22530493D01*
X37979934Y22529356D01*
X37979935Y22529355D01*
X38004175Y22521479D01*
X38172811Y22466686D01*
X38244999Y22458078D01*
X38374185Y22442673D01*
X38374187Y22442673D01*
X38377843Y22442237D01*
X38583719Y22458078D01*
X38703757Y22491593D01*
X38779052Y22512616D01*
X38779054Y22512617D01*
X38782597Y22513606D01*
X38929055Y22587587D01*
X38963618Y22605046D01*
X38963619Y22605047D01*
X38966902Y22606705D01*
X39129614Y22733830D01*
X39191667Y22805719D01*
X39236570Y22830815D01*
X39287099Y22821176D01*
X39319610Y22781313D01*
X39319257Y22730859D01*
X39317783Y22726810D01*
X39262765Y22521479D01*
X39261629Y22515037D01*
X39243102Y22303269D01*
X39243102Y22296731D01*
X39261629Y22084963D01*
X39262765Y22078521D01*
X39317783Y21873190D01*
X39320022Y21867039D01*
X39409859Y21674385D01*
X39413131Y21668718D01*
X39504392Y21538385D01*
X39513245Y21532185D01*
X39516986Y21532512D01*
X40275097Y22290623D01*
X40279272Y22299578D01*
X40720334Y22299578D01*
X40721939Y22293587D01*
X41478626Y21536900D01*
X41488425Y21532331D01*
X41492050Y21533302D01*
X41586869Y21668718D01*
X41590141Y21674385D01*
X41679978Y21867039D01*
X41682217Y21873190D01*
X41737235Y22078521D01*
X41738371Y22084963D01*
X41756898Y22296731D01*
X41756898Y22303269D01*
X41738371Y22515037D01*
X41737235Y22521479D01*
X41682217Y22726810D01*
X41679978Y22732961D01*
X41590141Y22925615D01*
X41586869Y22931282D01*
X41495608Y23061615D01*
X41486755Y23067815D01*
X41483014Y23067488D01*
X40724903Y22309377D01*
X40720334Y22299578D01*
X40279272Y22299578D01*
X40279666Y22300422D01*
X40278061Y22306413D01*
X39521374Y23063100D01*
X39511575Y23067669D01*
X39488328Y23061440D01*
X39487753Y23063587D01*
X39472929Y23056674D01*
X39423242Y23069988D01*
X39393737Y23112125D01*
X39395019Y23155324D01*
X39430543Y23262114D01*
X39430544Y23262120D01*
X39431703Y23265603D01*
X39432840Y23274599D01*
X39434376Y23286755D01*
X39732185Y23286755D01*
X39732512Y23283014D01*
X40490623Y22524903D01*
X40500422Y22520334D01*
X40506413Y22521939D01*
X41263100Y23278626D01*
X41267669Y23288425D01*
X41266698Y23292050D01*
X41131282Y23386869D01*
X41125615Y23390141D01*
X40932961Y23479978D01*
X40926810Y23482217D01*
X40721479Y23537235D01*
X40715037Y23538371D01*
X40503269Y23556898D01*
X40496731Y23556898D01*
X40284963Y23538371D01*
X40278521Y23537235D01*
X40073190Y23482217D01*
X40067039Y23479978D01*
X39874385Y23390141D01*
X39868718Y23386869D01*
X39738385Y23295608D01*
X39732185Y23286755D01*
X39434376Y23286755D01*
X39457319Y23468370D01*
X39457583Y23470459D01*
X39457863Y23490500D01*
X39457966Y23497901D01*
X39457966Y23497906D01*
X39457995Y23500000D01*
X39457713Y23502880D01*
X39438206Y23701832D01*
X39438205Y23701837D01*
X39437846Y23705499D01*
X39378165Y23903171D01*
X39281227Y24085485D01*
X39276971Y24090704D01*
X39153045Y24242651D01*
X39153044Y24242652D01*
X39150722Y24245499D01*
X38991623Y24377118D01*
X38972800Y24387296D01*
X38932740Y24408956D01*
X38809990Y24475327D01*
X38612739Y24536386D01*
X38484065Y24549910D01*
X38411041Y24557585D01*
X38411039Y24557585D01*
X38407386Y24557969D01*
X38201752Y24539255D01*
X38132432Y24518853D01*
X38007197Y24481995D01*
X38007194Y24481994D01*
X38003668Y24480956D01*
X38000411Y24479253D01*
X38000408Y24479252D01*
X37824514Y24387296D01*
X37820681Y24385292D01*
X37817815Y24382987D01*
X37817814Y24382987D01*
X37810515Y24377118D01*
X37659760Y24255909D01*
X37527034Y24097732D01*
X37427559Y23916789D01*
X37365125Y23719970D01*
X37342108Y23514772D01*
X35279072Y23514772D01*
X35278993Y23514864D01*
X35273485Y23518434D01*
X35162604Y23590303D01*
X35162603Y23590303D01*
X35158111Y23593215D01*
X35081912Y23616003D01*
X35025232Y23632955D01*
X35025229Y23632955D01*
X35020098Y23634490D01*
X35014743Y23634523D01*
X35014741Y23634523D01*
X34949524Y23634921D01*
X34876047Y23635370D01*
X34870897Y23633898D01*
X34870896Y23633898D01*
X34806793Y23615578D01*
X34737539Y23595785D01*
X34733013Y23592929D01*
X34733010Y23592928D01*
X34646543Y23538371D01*
X34615709Y23518916D01*
X34612049Y23514772D01*
X34523897Y23414959D01*
X34523895Y23414956D01*
X34520351Y23410943D01*
X34515614Y23400853D01*
X34466201Y23295608D01*
X34459129Y23280546D01*
X34436967Y23138207D01*
X34182183Y23138207D01*
X34163409Y23269296D01*
X34163408Y23269300D01*
X34162649Y23274599D01*
X34147003Y23309012D01*
X34111603Y23386869D01*
X34103026Y23405734D01*
X34098538Y23410943D01*
X34012487Y23510810D01*
X34012484Y23510813D01*
X34008993Y23514864D01*
X34003485Y23518434D01*
X33892604Y23590303D01*
X33892603Y23590303D01*
X33888111Y23593215D01*
X33811912Y23616003D01*
X33755232Y23632955D01*
X33755229Y23632955D01*
X33750098Y23634490D01*
X33744743Y23634523D01*
X33744741Y23634523D01*
X33679524Y23634921D01*
X33606047Y23635370D01*
X33600897Y23633898D01*
X33600896Y23633898D01*
X33536793Y23615578D01*
X33467539Y23595785D01*
X33463013Y23592929D01*
X33463010Y23592928D01*
X33376543Y23538371D01*
X33345709Y23518916D01*
X33342049Y23514772D01*
X33253897Y23414959D01*
X33253895Y23414956D01*
X33250351Y23410943D01*
X33245614Y23400853D01*
X33196201Y23295608D01*
X33189129Y23280546D01*
X33166967Y23138207D01*
X23350895Y23138207D01*
X23417612Y23211915D01*
X23421210Y23215890D01*
X23426795Y23227416D01*
X23481682Y23340704D01*
X23481682Y23340705D01*
X23484020Y23345530D01*
X23507919Y23487587D01*
X23508071Y23500000D01*
X23507659Y23502880D01*
X23488409Y23637296D01*
X23488408Y23637300D01*
X23487649Y23642599D01*
X23428026Y23773734D01*
X23420640Y23782306D01*
X23337487Y23878810D01*
X23337484Y23878813D01*
X23333993Y23882864D01*
X23329502Y23885775D01*
X23217604Y23958303D01*
X23217603Y23958303D01*
X23213111Y23961215D01*
X23128832Y23986420D01*
X23080232Y24000955D01*
X23080229Y24000955D01*
X23075098Y24002490D01*
X23069743Y24002523D01*
X23069741Y24002523D01*
X23004524Y24002921D01*
X22931047Y24003370D01*
X22925897Y24001898D01*
X22925896Y24001898D01*
X22871739Y23986420D01*
X22792539Y23963785D01*
X22788013Y23960929D01*
X22788010Y23960928D01*
X22690891Y23899650D01*
X22670709Y23886916D01*
X22663550Y23878810D01*
X22578897Y23782959D01*
X22578895Y23782956D01*
X22575351Y23778943D01*
X22514129Y23648546D01*
X22513305Y23643256D01*
X22513305Y23643255D01*
X22506143Y23597257D01*
X22491967Y23506207D01*
X12652900Y23506207D01*
X12652900Y24256207D01*
X15491967Y24256207D01*
X15492661Y24250900D01*
X15492661Y24250897D01*
X15494021Y24240500D01*
X15510645Y24113370D01*
X15521663Y24088330D01*
X15559061Y24003337D01*
X15568662Y23981516D01*
X15572107Y23977418D01*
X15572108Y23977416D01*
X15585968Y23960928D01*
X15661354Y23871245D01*
X15781270Y23791423D01*
X15918769Y23748465D01*
X15992871Y23747107D01*
X16057436Y23745923D01*
X16057438Y23745923D01*
X16062798Y23745825D01*
X16067969Y23747235D01*
X16067971Y23747235D01*
X16147265Y23768853D01*
X16201779Y23783715D01*
X16254871Y23816314D01*
X16319970Y23856284D01*
X16319973Y23856286D01*
X16324539Y23859090D01*
X16421210Y23965890D01*
X16426795Y23977416D01*
X16481682Y24090704D01*
X16481682Y24090705D01*
X16484020Y24095530D01*
X16507919Y24237587D01*
X16508071Y24250000D01*
X16507225Y24255909D01*
X16488409Y24387296D01*
X16488408Y24387300D01*
X16487649Y24392599D01*
X16428026Y24523734D01*
X16423538Y24528943D01*
X16337487Y24628810D01*
X16337484Y24628813D01*
X16333993Y24632864D01*
X16329504Y24635773D01*
X16329499Y24635778D01*
X16250172Y24687194D01*
X16219178Y24728248D01*
X16221825Y24779620D01*
X16251725Y24814382D01*
X16319970Y24856284D01*
X16319973Y24856286D01*
X16324539Y24859090D01*
X16421210Y24965890D01*
X16426795Y24977416D01*
X16481682Y25090704D01*
X16481682Y25090705D01*
X16484020Y25095530D01*
X16507919Y25237587D01*
X16508071Y25250000D01*
X16507659Y25252880D01*
X16488409Y25387296D01*
X16488408Y25387300D01*
X16487649Y25392599D01*
X16435995Y25506207D01*
X25491967Y25506207D01*
X25492661Y25500900D01*
X25492661Y25500897D01*
X25493159Y25497091D01*
X25510645Y25363370D01*
X25568662Y25231516D01*
X25661354Y25121245D01*
X25781270Y25041423D01*
X25918769Y24998465D01*
X25992871Y24997107D01*
X26057436Y24995923D01*
X26057438Y24995923D01*
X26062798Y24995825D01*
X26067969Y24997235D01*
X26067971Y24997235D01*
X26143695Y25017880D01*
X26201779Y25033715D01*
X26294595Y25090704D01*
X26319970Y25106284D01*
X26319973Y25106286D01*
X26324539Y25109090D01*
X26421210Y25215890D01*
X26426795Y25227416D01*
X26481682Y25340704D01*
X26481682Y25340705D01*
X26484020Y25345530D01*
X26507919Y25487587D01*
X26508071Y25500000D01*
X26507659Y25502880D01*
X26507183Y25506207D01*
X28991967Y25506207D01*
X28992661Y25500900D01*
X28992661Y25500897D01*
X28993159Y25497091D01*
X29010645Y25363370D01*
X29068662Y25231516D01*
X29161354Y25121245D01*
X29281270Y25041423D01*
X29418769Y24998465D01*
X29492871Y24997107D01*
X29557436Y24995923D01*
X29557438Y24995923D01*
X29562798Y24995825D01*
X29567969Y24997235D01*
X29567971Y24997235D01*
X29643695Y25017880D01*
X29701779Y25033715D01*
X29794595Y25090704D01*
X29819970Y25106284D01*
X29819973Y25106286D01*
X29824539Y25109090D01*
X29921210Y25215890D01*
X29926795Y25227416D01*
X29981682Y25340704D01*
X29981682Y25340705D01*
X29984020Y25345530D01*
X30007919Y25487587D01*
X30008071Y25500000D01*
X30007659Y25502880D01*
X30007183Y25506207D01*
X30991967Y25506207D01*
X30992661Y25500900D01*
X30992661Y25500897D01*
X30993159Y25497091D01*
X31010645Y25363370D01*
X31068662Y25231516D01*
X31161354Y25121245D01*
X31281270Y25041423D01*
X31418769Y24998465D01*
X31492871Y24997107D01*
X31557436Y24995923D01*
X31557438Y24995923D01*
X31562798Y24995825D01*
X31567969Y24997235D01*
X31567971Y24997235D01*
X31643695Y25017880D01*
X31701779Y25033715D01*
X31794595Y25090704D01*
X31819970Y25106284D01*
X31819973Y25106286D01*
X31824539Y25109090D01*
X31921210Y25215890D01*
X31926795Y25227416D01*
X31981682Y25340704D01*
X31981682Y25340705D01*
X31984020Y25345530D01*
X32007919Y25487587D01*
X32008071Y25500000D01*
X32007659Y25502880D01*
X31988409Y25637296D01*
X31988408Y25637300D01*
X31987649Y25642599D01*
X31965820Y25690611D01*
X38608016Y25690611D01*
X38631515Y25553851D01*
X38633290Y25547229D01*
X38704212Y25354988D01*
X38707169Y25348790D01*
X38811931Y25172699D01*
X38815969Y25167141D01*
X38951066Y25013092D01*
X38956051Y25008361D01*
X39116964Y24881508D01*
X39122719Y24877771D01*
X39304059Y24782363D01*
X39310391Y24779740D01*
X39506087Y24718975D01*
X39512797Y24717549D01*
X39679144Y24697861D01*
X39683565Y24697600D01*
X40334341Y24697600D01*
X40344498Y24701297D01*
X40347600Y24706669D01*
X40347600Y24710859D01*
X40652400Y24710859D01*
X40656097Y24700702D01*
X40661469Y24697600D01*
X41302015Y24697600D01*
X41305429Y24697756D01*
X41457475Y24711728D01*
X41464227Y24712979D01*
X41661436Y24768598D01*
X41667843Y24771057D01*
X41851614Y24861683D01*
X41857472Y24865273D01*
X42021646Y24987867D01*
X42026750Y24992463D01*
X42165839Y25142929D01*
X42170014Y25148369D01*
X42279358Y25321668D01*
X42282472Y25327782D01*
X42358398Y25518090D01*
X42360352Y25524685D01*
X42392159Y25684595D01*
X42390515Y25695279D01*
X42387900Y25697572D01*
X42387751Y25697600D01*
X40665659Y25697600D01*
X40655502Y25693903D01*
X40652400Y25688531D01*
X40652400Y24710859D01*
X40347600Y24710859D01*
X40347600Y25684341D01*
X40343903Y25694498D01*
X40338531Y25697600D01*
X38620074Y25697600D01*
X38609917Y25693903D01*
X38608016Y25690611D01*
X31965820Y25690611D01*
X31930245Y25768853D01*
X31928026Y25773734D01*
X31923538Y25778943D01*
X31837487Y25878810D01*
X31837484Y25878813D01*
X31833993Y25882864D01*
X31829502Y25885775D01*
X31717604Y25958303D01*
X31717603Y25958303D01*
X31713111Y25961215D01*
X31636912Y25984003D01*
X31580232Y26000955D01*
X31580229Y26000955D01*
X31575098Y26002490D01*
X31569743Y26002523D01*
X31569741Y26002523D01*
X31504524Y26002921D01*
X31431047Y26003370D01*
X31425897Y26001898D01*
X31425896Y26001898D01*
X31361793Y25983578D01*
X31292539Y25963785D01*
X31288013Y25960929D01*
X31288010Y25960928D01*
X31175237Y25889773D01*
X31170709Y25886916D01*
X31163550Y25878810D01*
X31078897Y25782959D01*
X31078895Y25782956D01*
X31075351Y25778943D01*
X31014129Y25648546D01*
X31013305Y25643256D01*
X31013305Y25643255D01*
X31011693Y25632903D01*
X30991967Y25506207D01*
X30007183Y25506207D01*
X29988409Y25637296D01*
X29988408Y25637300D01*
X29987649Y25642599D01*
X29965820Y25690611D01*
X29930245Y25768853D01*
X29928026Y25773734D01*
X29923538Y25778943D01*
X29837487Y25878810D01*
X29837484Y25878813D01*
X29833993Y25882864D01*
X29829502Y25885775D01*
X29717604Y25958303D01*
X29717603Y25958303D01*
X29713111Y25961215D01*
X29636912Y25984003D01*
X29580232Y26000955D01*
X29580229Y26000955D01*
X29575098Y26002490D01*
X29569743Y26002523D01*
X29569741Y26002523D01*
X29504524Y26002921D01*
X29431047Y26003370D01*
X29425897Y26001898D01*
X29425896Y26001898D01*
X29361793Y25983578D01*
X29292539Y25963785D01*
X29288013Y25960929D01*
X29288010Y25960928D01*
X29175237Y25889773D01*
X29170709Y25886916D01*
X29163550Y25878810D01*
X29078897Y25782959D01*
X29078895Y25782956D01*
X29075351Y25778943D01*
X29014129Y25648546D01*
X29013305Y25643256D01*
X29013305Y25643255D01*
X29011693Y25632903D01*
X28991967Y25506207D01*
X26507183Y25506207D01*
X26488409Y25637296D01*
X26488408Y25637300D01*
X26487649Y25642599D01*
X26465820Y25690611D01*
X26430245Y25768853D01*
X26428026Y25773734D01*
X26423538Y25778943D01*
X26337487Y25878810D01*
X26337484Y25878813D01*
X26333993Y25882864D01*
X26329502Y25885775D01*
X26217604Y25958303D01*
X26217603Y25958303D01*
X26213111Y25961215D01*
X26136912Y25984003D01*
X26080232Y26000955D01*
X26080229Y26000955D01*
X26075098Y26002490D01*
X26069743Y26002523D01*
X26069741Y26002523D01*
X26004524Y26002921D01*
X25931047Y26003370D01*
X25925897Y26001898D01*
X25925896Y26001898D01*
X25861793Y25983578D01*
X25792539Y25963785D01*
X25788013Y25960929D01*
X25788010Y25960928D01*
X25675237Y25889773D01*
X25670709Y25886916D01*
X25663550Y25878810D01*
X25578897Y25782959D01*
X25578895Y25782956D01*
X25575351Y25778943D01*
X25514129Y25648546D01*
X25513305Y25643256D01*
X25513305Y25643255D01*
X25511693Y25632903D01*
X25491967Y25506207D01*
X16435995Y25506207D01*
X16428026Y25523734D01*
X16423538Y25528943D01*
X16337487Y25628810D01*
X16337484Y25628813D01*
X16333993Y25632864D01*
X16329502Y25635775D01*
X16217604Y25708303D01*
X16217603Y25708303D01*
X16213111Y25711215D01*
X16136912Y25734003D01*
X16080232Y25750955D01*
X16080229Y25750955D01*
X16075098Y25752490D01*
X16069743Y25752523D01*
X16069741Y25752523D01*
X16004524Y25752921D01*
X15931047Y25753370D01*
X15925897Y25751898D01*
X15925896Y25751898D01*
X15861793Y25733577D01*
X15792539Y25713785D01*
X15788013Y25710929D01*
X15788010Y25710928D01*
X15680756Y25643255D01*
X15670709Y25636916D01*
X15663550Y25628810D01*
X15578897Y25532959D01*
X15578895Y25532956D01*
X15575351Y25528943D01*
X15514129Y25398546D01*
X15513305Y25393256D01*
X15513305Y25393255D01*
X15506382Y25348790D01*
X15491967Y25256207D01*
X15492661Y25250900D01*
X15492661Y25250897D01*
X15495732Y25227416D01*
X15510645Y25113370D01*
X15540996Y25044393D01*
X15565868Y24987867D01*
X15568662Y24981516D01*
X15661354Y24871245D01*
X15683830Y24856284D01*
X15750051Y24812204D01*
X15780541Y24770774D01*
X15777266Y24719438D01*
X15748510Y24686005D01*
X15670709Y24636916D01*
X15663550Y24628810D01*
X15578897Y24532959D01*
X15578895Y24532956D01*
X15575351Y24528943D01*
X15514129Y24398546D01*
X15491967Y24256207D01*
X12652900Y24256207D01*
X12652900Y26015405D01*
X38607841Y26015405D01*
X38609485Y26004721D01*
X38612100Y26002428D01*
X38612249Y26002400D01*
X40334341Y26002400D01*
X40344498Y26006097D01*
X40347600Y26011469D01*
X40347600Y26015659D01*
X40652400Y26015659D01*
X40656097Y26005502D01*
X40661469Y26002400D01*
X42379926Y26002400D01*
X42390083Y26006097D01*
X42391984Y26009389D01*
X42368485Y26146149D01*
X42366710Y26152771D01*
X42295788Y26345012D01*
X42292831Y26351210D01*
X42188069Y26527301D01*
X42184031Y26532859D01*
X42048934Y26686908D01*
X42043949Y26691639D01*
X41883036Y26818492D01*
X41877281Y26822229D01*
X41695941Y26917637D01*
X41689609Y26920260D01*
X41493913Y26981025D01*
X41487203Y26982451D01*
X41320856Y27002139D01*
X41316435Y27002400D01*
X40665659Y27002400D01*
X40655502Y26998703D01*
X40652400Y26993331D01*
X40652400Y26015659D01*
X40347600Y26015659D01*
X40347600Y26989141D01*
X40343903Y26999298D01*
X40338531Y27002400D01*
X39697985Y27002400D01*
X39694571Y27002244D01*
X39542525Y26988272D01*
X39535773Y26987021D01*
X39338564Y26931402D01*
X39332157Y26928943D01*
X39148386Y26838317D01*
X39142528Y26834727D01*
X38978354Y26712133D01*
X38973250Y26707537D01*
X38834161Y26557071D01*
X38829986Y26551631D01*
X38720642Y26378332D01*
X38717528Y26372218D01*
X38641602Y26181910D01*
X38639648Y26175315D01*
X38607841Y26015405D01*
X12652900Y26015405D01*
X12652900Y27271900D01*
X12670493Y27320238D01*
X12715042Y27345958D01*
X12728100Y27347100D01*
X13630701Y27347100D01*
X13679039Y27329507D01*
G37*
G04 #@! TD.AperFunction*
G04 #@! TD*
M02*
