G04 #@! TF.GenerationSoftware,KiCad,Pcbnew,6.0.11+dfsg-1*
G04 #@! TF.CreationDate,2023-04-16T09:36:04+08:00*
G04 #@! TF.ProjectId,stlink,73746c69-6e6b-42e6-9b69-6361645f7063,g*
G04 #@! TF.SameCoordinates,PX5c07920PY68e7780*
G04 #@! TF.FileFunction,Legend,Top*
G04 #@! TF.FilePolarity,Positive*
%FSLAX46Y46*%
G04 Gerber Fmt 4.6, Leading zero omitted, Abs format (unit mm)*
G04 Created by KiCad (PCBNEW 6.0.11+dfsg-1) date 2023-04-16 09:36:04*
%MOMM*%
%LPD*%
G01*
G04 APERTURE LIST*
%ADD10C,0.150000*%
%ADD11C,0.120000*%
%ADD12C,0.100000*%
G04 APERTURE END LIST*
D10*
G04 #@! TO.C,U1*
X36875476Y25983096D02*
X36875476Y25335477D01*
X36913571Y25259286D01*
X36951666Y25221191D01*
X37027857Y25183096D01*
X37180238Y25183096D01*
X37256428Y25221191D01*
X37294523Y25259286D01*
X37332619Y25335477D01*
X37332619Y25983096D01*
X38132619Y25183096D02*
X37675476Y25183096D01*
X37904047Y25183096D02*
X37904047Y25983096D01*
X37827857Y25868810D01*
X37751666Y25792620D01*
X37675476Y25754524D01*
G04 #@! TO.C,C4*
X32866666Y20464286D02*
X32828571Y20426191D01*
X32714285Y20388096D01*
X32638095Y20388096D01*
X32523809Y20426191D01*
X32447619Y20502381D01*
X32409523Y20578572D01*
X32371428Y20730953D01*
X32371428Y20845239D01*
X32409523Y20997620D01*
X32447619Y21073810D01*
X32523809Y21150000D01*
X32638095Y21188096D01*
X32714285Y21188096D01*
X32828571Y21150000D01*
X32866666Y21111905D01*
X33552380Y20921429D02*
X33552380Y20388096D01*
X33361904Y21226191D02*
X33171428Y20654762D01*
X33666666Y20654762D01*
G04 #@! TO.C,R3*
X32366666Y18388096D02*
X32100000Y18769048D01*
X31909523Y18388096D02*
X31909523Y19188096D01*
X32214285Y19188096D01*
X32290476Y19150000D01*
X32328571Y19111905D01*
X32366666Y19035715D01*
X32366666Y18921429D01*
X32328571Y18845239D01*
X32290476Y18807143D01*
X32214285Y18769048D01*
X31909523Y18769048D01*
X32633333Y19188096D02*
X33128571Y19188096D01*
X32861904Y18883334D01*
X32976190Y18883334D01*
X33052380Y18845239D01*
X33090476Y18807143D01*
X33128571Y18730953D01*
X33128571Y18540477D01*
X33090476Y18464286D01*
X33052380Y18426191D01*
X32976190Y18388096D01*
X32747619Y18388096D01*
X32671428Y18426191D01*
X32633333Y18464286D01*
G04 #@! TO.C,C6*
X21985714Y25866667D02*
X22023809Y25828572D01*
X22061904Y25714286D01*
X22061904Y25638096D01*
X22023809Y25523810D01*
X21947619Y25447620D01*
X21871428Y25409524D01*
X21719047Y25371429D01*
X21604761Y25371429D01*
X21452380Y25409524D01*
X21376190Y25447620D01*
X21300000Y25523810D01*
X21261904Y25638096D01*
X21261904Y25714286D01*
X21300000Y25828572D01*
X21338095Y25866667D01*
X21261904Y26552381D02*
X21261904Y26400000D01*
X21300000Y26323810D01*
X21338095Y26285715D01*
X21452380Y26209524D01*
X21604761Y26171429D01*
X21909523Y26171429D01*
X21985714Y26209524D01*
X22023809Y26247620D01*
X22061904Y26323810D01*
X22061904Y26476191D01*
X22023809Y26552381D01*
X21985714Y26590477D01*
X21909523Y26628572D01*
X21719047Y26628572D01*
X21642857Y26590477D01*
X21604761Y26552381D01*
X21566666Y26476191D01*
X21566666Y26323810D01*
X21604761Y26247620D01*
X21642857Y26209524D01*
X21719047Y26171429D01*
G04 #@! TO.C,C7*
X30285714Y25866667D02*
X30323809Y25828572D01*
X30361904Y25714286D01*
X30361904Y25638096D01*
X30323809Y25523810D01*
X30247619Y25447620D01*
X30171428Y25409524D01*
X30019047Y25371429D01*
X29904761Y25371429D01*
X29752380Y25409524D01*
X29676190Y25447620D01*
X29600000Y25523810D01*
X29561904Y25638096D01*
X29561904Y25714286D01*
X29600000Y25828572D01*
X29638095Y25866667D01*
X29561904Y26133334D02*
X29561904Y26666667D01*
X30361904Y26323810D01*
G04 #@! TO.C,C8*
X28515714Y13600667D02*
X28553809Y13562572D01*
X28591904Y13448286D01*
X28591904Y13372096D01*
X28553809Y13257810D01*
X28477619Y13181620D01*
X28401428Y13143524D01*
X28249047Y13105429D01*
X28134761Y13105429D01*
X27982380Y13143524D01*
X27906190Y13181620D01*
X27830000Y13257810D01*
X27791904Y13372096D01*
X27791904Y13448286D01*
X27830000Y13562572D01*
X27868095Y13600667D01*
X28134761Y14057810D02*
X28096666Y13981620D01*
X28058571Y13943524D01*
X27982380Y13905429D01*
X27944285Y13905429D01*
X27868095Y13943524D01*
X27830000Y13981620D01*
X27791904Y14057810D01*
X27791904Y14210191D01*
X27830000Y14286381D01*
X27868095Y14324477D01*
X27944285Y14362572D01*
X27982380Y14362572D01*
X28058571Y14324477D01*
X28096666Y14286381D01*
X28134761Y14210191D01*
X28134761Y14057810D01*
X28172857Y13981620D01*
X28210952Y13943524D01*
X28287142Y13905429D01*
X28439523Y13905429D01*
X28515714Y13943524D01*
X28553809Y13981620D01*
X28591904Y14057810D01*
X28591904Y14210191D01*
X28553809Y14286381D01*
X28515714Y14324477D01*
X28439523Y14362572D01*
X28287142Y14362572D01*
X28210952Y14324477D01*
X28172857Y14286381D01*
X28134761Y14210191D01*
G04 #@! TO.C,C9*
X20616666Y16044286D02*
X20578571Y16006191D01*
X20464285Y15968096D01*
X20388095Y15968096D01*
X20273809Y16006191D01*
X20197619Y16082381D01*
X20159523Y16158572D01*
X20121428Y16310953D01*
X20121428Y16425239D01*
X20159523Y16577620D01*
X20197619Y16653810D01*
X20273809Y16730000D01*
X20388095Y16768096D01*
X20464285Y16768096D01*
X20578571Y16730000D01*
X20616666Y16691905D01*
X20997619Y15968096D02*
X21150000Y15968096D01*
X21226190Y16006191D01*
X21264285Y16044286D01*
X21340476Y16158572D01*
X21378571Y16310953D01*
X21378571Y16615715D01*
X21340476Y16691905D01*
X21302380Y16730000D01*
X21226190Y16768096D01*
X21073809Y16768096D01*
X20997619Y16730000D01*
X20959523Y16691905D01*
X20921428Y16615715D01*
X20921428Y16425239D01*
X20959523Y16349048D01*
X20997619Y16310953D01*
X21073809Y16272858D01*
X21226190Y16272858D01*
X21302380Y16310953D01*
X21340476Y16349048D01*
X21378571Y16425239D01*
G04 #@! TO.C,C2*
X16366666Y26014286D02*
X16328571Y25976191D01*
X16214285Y25938096D01*
X16138095Y25938096D01*
X16023809Y25976191D01*
X15947619Y26052381D01*
X15909523Y26128572D01*
X15871428Y26280953D01*
X15871428Y26395239D01*
X15909523Y26547620D01*
X15947619Y26623810D01*
X16023809Y26700000D01*
X16138095Y26738096D01*
X16214285Y26738096D01*
X16328571Y26700000D01*
X16366666Y26661905D01*
X16671428Y26661905D02*
X16709523Y26700000D01*
X16785714Y26738096D01*
X16976190Y26738096D01*
X17052380Y26700000D01*
X17090476Y26661905D01*
X17128571Y26585715D01*
X17128571Y26509524D01*
X17090476Y26395239D01*
X16633333Y25938096D01*
X17128571Y25938096D01*
G04 #@! TO.C,C3*
X16396666Y18464286D02*
X16358571Y18426191D01*
X16244285Y18388096D01*
X16168095Y18388096D01*
X16053809Y18426191D01*
X15977619Y18502381D01*
X15939523Y18578572D01*
X15901428Y18730953D01*
X15901428Y18845239D01*
X15939523Y18997620D01*
X15977619Y19073810D01*
X16053809Y19150000D01*
X16168095Y19188096D01*
X16244285Y19188096D01*
X16358571Y19150000D01*
X16396666Y19111905D01*
X16663333Y19188096D02*
X17158571Y19188096D01*
X16891904Y18883334D01*
X17006190Y18883334D01*
X17082380Y18845239D01*
X17120476Y18807143D01*
X17158571Y18730953D01*
X17158571Y18540477D01*
X17120476Y18464286D01*
X17082380Y18426191D01*
X17006190Y18388096D01*
X16777619Y18388096D01*
X16701428Y18426191D01*
X16663333Y18464286D01*
G04 #@! TO.C,D2*
X15939523Y14388096D02*
X15939523Y15188096D01*
X16130000Y15188096D01*
X16244285Y15150000D01*
X16320476Y15073810D01*
X16358571Y14997620D01*
X16396666Y14845239D01*
X16396666Y14730953D01*
X16358571Y14578572D01*
X16320476Y14502381D01*
X16244285Y14426191D01*
X16130000Y14388096D01*
X15939523Y14388096D01*
X16701428Y15111905D02*
X16739523Y15150000D01*
X16815714Y15188096D01*
X17006190Y15188096D01*
X17082380Y15150000D01*
X17120476Y15111905D01*
X17158571Y15035715D01*
X17158571Y14959524D01*
X17120476Y14845239D01*
X16663333Y14388096D01*
X17158571Y14388096D01*
G04 #@! TO.C,D3*
X15939523Y15888096D02*
X15939523Y16688096D01*
X16130000Y16688096D01*
X16244285Y16650000D01*
X16320476Y16573810D01*
X16358571Y16497620D01*
X16396666Y16345239D01*
X16396666Y16230953D01*
X16358571Y16078572D01*
X16320476Y16002381D01*
X16244285Y15926191D01*
X16130000Y15888096D01*
X15939523Y15888096D01*
X16663333Y16688096D02*
X17158571Y16688096D01*
X16891904Y16383334D01*
X17006190Y16383334D01*
X17082380Y16345239D01*
X17120476Y16307143D01*
X17158571Y16230953D01*
X17158571Y16040477D01*
X17120476Y15964286D01*
X17082380Y15926191D01*
X17006190Y15888096D01*
X16777619Y15888096D01*
X16701428Y15926191D01*
X16663333Y15964286D01*
G04 #@! TO.C,R12*
X20985714Y13388096D02*
X20719047Y13769048D01*
X20528571Y13388096D02*
X20528571Y14188096D01*
X20833333Y14188096D01*
X20909523Y14150000D01*
X20947619Y14111905D01*
X20985714Y14035715D01*
X20985714Y13921429D01*
X20947619Y13845239D01*
X20909523Y13807143D01*
X20833333Y13769048D01*
X20528571Y13769048D01*
X21747619Y13388096D02*
X21290476Y13388096D01*
X21519047Y13388096D02*
X21519047Y14188096D01*
X21442857Y14073810D01*
X21366666Y13997620D01*
X21290476Y13959524D01*
X22052380Y14111905D02*
X22090476Y14150000D01*
X22166666Y14188096D01*
X22357142Y14188096D01*
X22433333Y14150000D01*
X22471428Y14111905D01*
X22509523Y14035715D01*
X22509523Y13959524D01*
X22471428Y13845239D01*
X22014285Y13388096D01*
X22509523Y13388096D01*
G04 #@! TO.C,D1*
X30609523Y26568096D02*
X30609523Y27368096D01*
X30800000Y27368096D01*
X30914285Y27330000D01*
X30990476Y27253810D01*
X31028571Y27177620D01*
X31066666Y27025239D01*
X31066666Y26910953D01*
X31028571Y26758572D01*
X30990476Y26682381D01*
X30914285Y26606191D01*
X30800000Y26568096D01*
X30609523Y26568096D01*
X31828571Y26568096D02*
X31371428Y26568096D01*
X31600000Y26568096D02*
X31600000Y27368096D01*
X31523809Y27253810D01*
X31447619Y27177620D01*
X31371428Y27139524D01*
G04 #@! TO.C,U2*
X25890476Y20438096D02*
X25890476Y19790477D01*
X25928571Y19714286D01*
X25966666Y19676191D01*
X26042857Y19638096D01*
X26195238Y19638096D01*
X26271428Y19676191D01*
X26309523Y19714286D01*
X26347619Y19790477D01*
X26347619Y20438096D01*
X26690476Y20361905D02*
X26728571Y20400000D01*
X26804761Y20438096D01*
X26995238Y20438096D01*
X27071428Y20400000D01*
X27109523Y20361905D01*
X27147619Y20285715D01*
X27147619Y20209524D01*
X27109523Y20095239D01*
X26652380Y19638096D01*
X27147619Y19638096D01*
G04 #@! TO.C,C1*
X21285714Y19616667D02*
X21323809Y19578572D01*
X21361904Y19464286D01*
X21361904Y19388096D01*
X21323809Y19273810D01*
X21247619Y19197620D01*
X21171428Y19159524D01*
X21019047Y19121429D01*
X20904761Y19121429D01*
X20752380Y19159524D01*
X20676190Y19197620D01*
X20600000Y19273810D01*
X20561904Y19388096D01*
X20561904Y19464286D01*
X20600000Y19578572D01*
X20638095Y19616667D01*
X21361904Y20378572D02*
X21361904Y19921429D01*
X21361904Y20150000D02*
X20561904Y20150000D01*
X20676190Y20073810D01*
X20752380Y19997620D01*
X20790476Y19921429D01*
G04 #@! TO.C,R1*
X16396666Y17138096D02*
X16130000Y17519048D01*
X15939523Y17138096D02*
X15939523Y17938096D01*
X16244285Y17938096D01*
X16320476Y17900000D01*
X16358571Y17861905D01*
X16396666Y17785715D01*
X16396666Y17671429D01*
X16358571Y17595239D01*
X16320476Y17557143D01*
X16244285Y17519048D01*
X15939523Y17519048D01*
X17158571Y17138096D02*
X16701428Y17138096D01*
X16930000Y17138096D02*
X16930000Y17938096D01*
X16853809Y17823810D01*
X16777619Y17747620D01*
X16701428Y17709524D01*
G04 #@! TO.C,R2*
X28531904Y26366667D02*
X28150952Y26100000D01*
X28531904Y25909524D02*
X27731904Y25909524D01*
X27731904Y26214286D01*
X27770000Y26290477D01*
X27808095Y26328572D01*
X27884285Y26366667D01*
X27998571Y26366667D01*
X28074761Y26328572D01*
X28112857Y26290477D01*
X28150952Y26214286D01*
X28150952Y25909524D01*
X27808095Y26671429D02*
X27770000Y26709524D01*
X27731904Y26785715D01*
X27731904Y26976191D01*
X27770000Y27052381D01*
X27808095Y27090477D01*
X27884285Y27128572D01*
X27960476Y27128572D01*
X28074761Y27090477D01*
X28531904Y26633334D01*
X28531904Y27128572D01*
G04 #@! TO.C,R9*
X30623904Y13600667D02*
X30242952Y13334000D01*
X30623904Y13143524D02*
X29823904Y13143524D01*
X29823904Y13448286D01*
X29862000Y13524477D01*
X29900095Y13562572D01*
X29976285Y13600667D01*
X30090571Y13600667D01*
X30166761Y13562572D01*
X30204857Y13524477D01*
X30242952Y13448286D01*
X30242952Y13143524D01*
X30623904Y13981620D02*
X30623904Y14134000D01*
X30585809Y14210191D01*
X30547714Y14248286D01*
X30433428Y14324477D01*
X30281047Y14362572D01*
X29976285Y14362572D01*
X29900095Y14324477D01*
X29862000Y14286381D01*
X29823904Y14210191D01*
X29823904Y14057810D01*
X29862000Y13981620D01*
X29900095Y13943524D01*
X29976285Y13905429D01*
X30166761Y13905429D01*
X30242952Y13943524D01*
X30281047Y13981620D01*
X30319142Y14057810D01*
X30319142Y14210191D01*
X30281047Y14286381D01*
X30242952Y14324477D01*
X30166761Y14362572D01*
G04 #@! TO.C,Q1*
X32098809Y15601905D02*
X32022619Y15640000D01*
X31946428Y15716191D01*
X31832142Y15830477D01*
X31755952Y15868572D01*
X31679761Y15868572D01*
X31717857Y15678096D02*
X31641666Y15716191D01*
X31565476Y15792381D01*
X31527380Y15944762D01*
X31527380Y16211429D01*
X31565476Y16363810D01*
X31641666Y16440000D01*
X31717857Y16478096D01*
X31870238Y16478096D01*
X31946428Y16440000D01*
X32022619Y16363810D01*
X32060714Y16211429D01*
X32060714Y15944762D01*
X32022619Y15792381D01*
X31946428Y15716191D01*
X31870238Y15678096D01*
X31717857Y15678096D01*
X32822619Y15678096D02*
X32365476Y15678096D01*
X32594047Y15678096D02*
X32594047Y16478096D01*
X32517857Y16363810D01*
X32441666Y16287620D01*
X32365476Y16249524D01*
G04 #@! TO.C,R4*
X35196666Y16888096D02*
X34930000Y17269048D01*
X34739523Y16888096D02*
X34739523Y17688096D01*
X35044285Y17688096D01*
X35120476Y17650000D01*
X35158571Y17611905D01*
X35196666Y17535715D01*
X35196666Y17421429D01*
X35158571Y17345239D01*
X35120476Y17307143D01*
X35044285Y17269048D01*
X34739523Y17269048D01*
X35882380Y17421429D02*
X35882380Y16888096D01*
X35691904Y17726191D02*
X35501428Y17154762D01*
X35996666Y17154762D01*
G04 #@! TO.C,R5*
X36861904Y13616667D02*
X36480952Y13350000D01*
X36861904Y13159524D02*
X36061904Y13159524D01*
X36061904Y13464286D01*
X36100000Y13540477D01*
X36138095Y13578572D01*
X36214285Y13616667D01*
X36328571Y13616667D01*
X36404761Y13578572D01*
X36442857Y13540477D01*
X36480952Y13464286D01*
X36480952Y13159524D01*
X36061904Y14340477D02*
X36061904Y13959524D01*
X36442857Y13921429D01*
X36404761Y13959524D01*
X36366666Y14035715D01*
X36366666Y14226191D01*
X36404761Y14302381D01*
X36442857Y14340477D01*
X36519047Y14378572D01*
X36709523Y14378572D01*
X36785714Y14340477D01*
X36823809Y14302381D01*
X36861904Y14226191D01*
X36861904Y14035715D01*
X36823809Y13959524D01*
X36785714Y13921429D01*
G04 #@! TO.C,R7*
X26281904Y26366667D02*
X25900952Y26100000D01*
X26281904Y25909524D02*
X25481904Y25909524D01*
X25481904Y26214286D01*
X25520000Y26290477D01*
X25558095Y26328572D01*
X25634285Y26366667D01*
X25748571Y26366667D01*
X25824761Y26328572D01*
X25862857Y26290477D01*
X25900952Y26214286D01*
X25900952Y25909524D01*
X25481904Y26633334D02*
X25481904Y27166667D01*
X26281904Y26823810D01*
G04 #@! TO.C,R8*
X24161904Y26366667D02*
X23780952Y26100000D01*
X24161904Y25909524D02*
X23361904Y25909524D01*
X23361904Y26214286D01*
X23400000Y26290477D01*
X23438095Y26328572D01*
X23514285Y26366667D01*
X23628571Y26366667D01*
X23704761Y26328572D01*
X23742857Y26290477D01*
X23780952Y26214286D01*
X23780952Y25909524D01*
X23704761Y26823810D02*
X23666666Y26747620D01*
X23628571Y26709524D01*
X23552380Y26671429D01*
X23514285Y26671429D01*
X23438095Y26709524D01*
X23400000Y26747620D01*
X23361904Y26823810D01*
X23361904Y26976191D01*
X23400000Y27052381D01*
X23438095Y27090477D01*
X23514285Y27128572D01*
X23552380Y27128572D01*
X23628571Y27090477D01*
X23666666Y27052381D01*
X23704761Y26976191D01*
X23704761Y26823810D01*
X23742857Y26747620D01*
X23780952Y26709524D01*
X23857142Y26671429D01*
X24009523Y26671429D01*
X24085714Y26709524D01*
X24123809Y26747620D01*
X24161904Y26823810D01*
X24161904Y26976191D01*
X24123809Y27052381D01*
X24085714Y27090477D01*
X24009523Y27128572D01*
X23857142Y27128572D01*
X23780952Y27090477D01*
X23742857Y27052381D01*
X23704761Y26976191D01*
G04 #@! TO.C,R10*
X27111904Y13235715D02*
X26730952Y12969048D01*
X27111904Y12778572D02*
X26311904Y12778572D01*
X26311904Y13083334D01*
X26350000Y13159524D01*
X26388095Y13197620D01*
X26464285Y13235715D01*
X26578571Y13235715D01*
X26654761Y13197620D01*
X26692857Y13159524D01*
X26730952Y13083334D01*
X26730952Y12778572D01*
X27111904Y13997620D02*
X27111904Y13540477D01*
X27111904Y13769048D02*
X26311904Y13769048D01*
X26426190Y13692858D01*
X26502380Y13616667D01*
X26540476Y13540477D01*
X26311904Y14492858D02*
X26311904Y14569048D01*
X26350000Y14645239D01*
X26388095Y14683334D01*
X26464285Y14721429D01*
X26616666Y14759524D01*
X26807142Y14759524D01*
X26959523Y14721429D01*
X27035714Y14683334D01*
X27073809Y14645239D01*
X27111904Y14569048D01*
X27111904Y14492858D01*
X27073809Y14416667D01*
X27035714Y14378572D01*
X26959523Y14340477D01*
X26807142Y14302381D01*
X26616666Y14302381D01*
X26464285Y14340477D01*
X26388095Y14378572D01*
X26350000Y14416667D01*
X26311904Y14492858D01*
G04 #@! TO.C,R6*
X34366666Y13388096D02*
X34100000Y13769048D01*
X33909523Y13388096D02*
X33909523Y14188096D01*
X34214285Y14188096D01*
X34290476Y14150000D01*
X34328571Y14111905D01*
X34366666Y14035715D01*
X34366666Y13921429D01*
X34328571Y13845239D01*
X34290476Y13807143D01*
X34214285Y13769048D01*
X33909523Y13769048D01*
X35052380Y14188096D02*
X34900000Y14188096D01*
X34823809Y14150000D01*
X34785714Y14111905D01*
X34709523Y13997620D01*
X34671428Y13845239D01*
X34671428Y13540477D01*
X34709523Y13464286D01*
X34747619Y13426191D01*
X34823809Y13388096D01*
X34976190Y13388096D01*
X35052380Y13426191D01*
X35090476Y13464286D01*
X35128571Y13540477D01*
X35128571Y13730953D01*
X35090476Y13807143D01*
X35052380Y13845239D01*
X34976190Y13883334D01*
X34823809Y13883334D01*
X34747619Y13845239D01*
X34709523Y13807143D01*
X34671428Y13730953D01*
G04 #@! TO.C,Y1*
X16680952Y22119048D02*
X17061904Y22119048D01*
X16261904Y21852381D02*
X16680952Y22119048D01*
X16261904Y22385715D01*
X17061904Y23071429D02*
X17061904Y22614286D01*
X17061904Y22842858D02*
X16261904Y22842858D01*
X16376190Y22766667D01*
X16452380Y22690477D01*
X16490476Y22614286D01*
G04 #@! TO.C,R13*
X14235714Y12838096D02*
X13969047Y13219048D01*
X13778571Y12838096D02*
X13778571Y13638096D01*
X14083333Y13638096D01*
X14159523Y13600000D01*
X14197619Y13561905D01*
X14235714Y13485715D01*
X14235714Y13371429D01*
X14197619Y13295239D01*
X14159523Y13257143D01*
X14083333Y13219048D01*
X13778571Y13219048D01*
X14997619Y12838096D02*
X14540476Y12838096D01*
X14769047Y12838096D02*
X14769047Y13638096D01*
X14692857Y13523810D01*
X14616666Y13447620D01*
X14540476Y13409524D01*
X15264285Y13638096D02*
X15759523Y13638096D01*
X15492857Y13333334D01*
X15607142Y13333334D01*
X15683333Y13295239D01*
X15721428Y13257143D01*
X15759523Y13180953D01*
X15759523Y12990477D01*
X15721428Y12914286D01*
X15683333Y12876191D01*
X15607142Y12838096D01*
X15378571Y12838096D01*
X15302380Y12876191D01*
X15264285Y12914286D01*
G04 #@! TO.C,R11*
X23361904Y13235715D02*
X22980952Y12969048D01*
X23361904Y12778572D02*
X22561904Y12778572D01*
X22561904Y13083334D01*
X22600000Y13159524D01*
X22638095Y13197620D01*
X22714285Y13235715D01*
X22828571Y13235715D01*
X22904761Y13197620D01*
X22942857Y13159524D01*
X22980952Y13083334D01*
X22980952Y12778572D01*
X23361904Y13997620D02*
X23361904Y13540477D01*
X23361904Y13769048D02*
X22561904Y13769048D01*
X22676190Y13692858D01*
X22752380Y13616667D01*
X22790476Y13540477D01*
X23361904Y14759524D02*
X23361904Y14302381D01*
X23361904Y14530953D02*
X22561904Y14530953D01*
X22676190Y14454762D01*
X22752380Y14378572D01*
X22790476Y14302381D01*
D11*
G04 #@! TO.C,U1*
X35580000Y21572000D02*
X36230000Y21572000D01*
X35580000Y24692000D02*
X36230000Y24692000D01*
X35580000Y24692000D02*
X33905000Y24692000D01*
X35580000Y21572000D02*
X34930000Y21572000D01*
G04 #@! TO.C,C4*
X35761252Y20985000D02*
X35238748Y20985000D01*
X35761252Y19515000D02*
X35238748Y19515000D01*
G04 #@! TO.C,C5*
X33385000Y22870748D02*
X33385000Y23393252D01*
X31915000Y22870748D02*
X31915000Y23393252D01*
G04 #@! TO.C,R3*
X32903641Y20180000D02*
X32596359Y20180000D01*
X32903641Y19420000D02*
X32596359Y19420000D01*
G04 #@! TO.C,C6*
X21890000Y24142164D02*
X21890000Y24357836D01*
X22610000Y24142164D02*
X22610000Y24357836D01*
G04 #@! TO.C,C7*
X30390000Y24142164D02*
X30390000Y24357836D01*
X31110000Y24142164D02*
X31110000Y24357836D01*
G04 #@! TO.C,C8*
X29590000Y13841836D02*
X29590000Y13626164D01*
X28870000Y13841836D02*
X28870000Y13626164D01*
G04 #@! TO.C,C9*
X20357836Y17140000D02*
X20142164Y17140000D01*
X20357836Y17860000D02*
X20142164Y17860000D01*
G04 #@! TO.C,C2*
X18357836Y26610000D02*
X18142164Y26610000D01*
X18357836Y25890000D02*
X18142164Y25890000D01*
G04 #@! TO.C,C3*
X18142164Y18390000D02*
X18357836Y18390000D01*
X18142164Y19110000D02*
X18357836Y19110000D01*
G04 #@! TO.C,D2*
X17015000Y15485000D02*
X17015000Y14015000D01*
X17015000Y14015000D02*
X19300000Y14015000D01*
X19300000Y15485000D02*
X17015000Y15485000D01*
G04 #@! TO.C,D3*
X17015000Y15515000D02*
X19300000Y15515000D01*
X17015000Y16985000D02*
X17015000Y15515000D01*
X19300000Y16985000D02*
X17015000Y16985000D01*
G04 #@! TO.C,R12*
X21346359Y15130000D02*
X21653641Y15130000D01*
X21346359Y14370000D02*
X21653641Y14370000D01*
G04 #@! TO.C,D1*
X32000000Y25180000D02*
X35900000Y25180000D01*
X32000000Y27180000D02*
X35900000Y27180000D01*
X32000000Y27180000D02*
X32000000Y25180000D01*
G04 #@! TO.C,U2*
X22890000Y23160000D02*
X21600000Y23160000D01*
X30110000Y23610000D02*
X30110000Y23160000D01*
X30110000Y16390000D02*
X30110000Y16840000D01*
X23340000Y16390000D02*
X22890000Y16390000D01*
X29660000Y23610000D02*
X30110000Y23610000D01*
X22890000Y23610000D02*
X22890000Y23160000D01*
X23340000Y23610000D02*
X22890000Y23610000D01*
X29660000Y16390000D02*
X30110000Y16390000D01*
X22890000Y16390000D02*
X22890000Y16840000D01*
D12*
G04 #@! TO.C,J1*
X58425000Y13875000D02*
X57875000Y13875000D01*
X42300000Y26125000D02*
X43075000Y26125000D01*
X58425000Y14575000D02*
X58425000Y13875000D01*
X58425000Y25400000D02*
X58425000Y26125000D01*
X43050000Y26125000D02*
X44000000Y26125000D01*
X42300000Y13875000D02*
X44075000Y13875000D01*
X58425000Y26125000D02*
X57825000Y26125000D01*
D11*
G04 #@! TO.C,C1*
X20357836Y18390000D02*
X20142164Y18390000D01*
X20357836Y19110000D02*
X20142164Y19110000D01*
G04 #@! TO.C,R1*
X18403641Y17120000D02*
X18096359Y17120000D01*
X18403641Y17880000D02*
X18096359Y17880000D01*
G04 #@! TO.C,R2*
X27380000Y26653641D02*
X27380000Y26346359D01*
X26620000Y26653641D02*
X26620000Y26346359D01*
G04 #@! TO.C,R9*
X31642000Y13580359D02*
X31642000Y13887641D01*
X30882000Y13580359D02*
X30882000Y13887641D01*
G04 #@! TO.C,Q1*
X33675000Y15730000D02*
X33025000Y15730000D01*
X33675000Y18850000D02*
X33025000Y18850000D01*
X33675000Y15730000D02*
X35350000Y15730000D01*
X33675000Y18850000D02*
X34325000Y18850000D01*
G04 #@! TO.C,R4*
X36120000Y17846359D02*
X36120000Y18153641D01*
X36880000Y17846359D02*
X36880000Y18153641D01*
G04 #@! TO.C,R5*
X36880000Y15346359D02*
X36880000Y15653641D01*
X36120000Y15346359D02*
X36120000Y15653641D01*
G04 #@! TO.C,R7*
X24370000Y26653641D02*
X24370000Y26346359D01*
X25130000Y26653641D02*
X25130000Y26346359D01*
G04 #@! TO.C,R8*
X22370000Y26653641D02*
X22370000Y26346359D01*
X23130000Y26653641D02*
X23130000Y26346359D01*
G04 #@! TO.C,R10*
X25120000Y13903641D02*
X25120000Y13596359D01*
X25880000Y13903641D02*
X25880000Y13596359D01*
G04 #@! TO.C,R6*
X34346359Y15130000D02*
X34653641Y15130000D01*
X34346359Y14370000D02*
X34653641Y14370000D01*
G04 #@! TO.C,Y1*
X21050000Y19800000D02*
X21050000Y25550000D01*
X17450000Y25550000D02*
X17450000Y19800000D01*
X21050000Y25550000D02*
X17450000Y25550000D01*
G04 #@! TO.C,R13*
X16953641Y12870000D02*
X16646359Y12870000D01*
X16953641Y13630000D02*
X16646359Y13630000D01*
G04 #@! TO.C,R11*
X24380000Y13596359D02*
X24380000Y13903641D01*
X23620000Y13596359D02*
X23620000Y13903641D01*
G04 #@! TD*
M02*
