G04 #@! TF.GenerationSoftware,KiCad,Pcbnew,6.0.11+dfsg-1*
G04 #@! TF.CreationDate,2023-04-16T09:36:05+08:00*
G04 #@! TF.ProjectId,stlink,73746c69-6e6b-42e6-9b69-6361645f7063,g*
G04 #@! TF.SameCoordinates,PX5c07920PY68e7780*
G04 #@! TF.FileFunction,Legend,Bot*
G04 #@! TF.FilePolarity,Positive*
%FSLAX46Y46*%
G04 Gerber Fmt 4.6, Leading zero omitted, Abs format (unit mm)*
G04 Created by KiCad (PCBNEW 6.0.11+dfsg-1) date 2023-04-16 09:36:05*
%MOMM*%
%LPD*%
G01*
G04 APERTURE LIST*
%ADD10C,0.150000*%
%ADD11C,0.120000*%
G04 APERTURE END LIST*
D10*
X21592500Y22262096D02*
X21592500Y23062096D01*
X21287738Y23062096D01*
X21211547Y23024000D01*
X21173452Y22985905D01*
X21135357Y22909715D01*
X21135357Y22795429D01*
X21173452Y22719239D01*
X21211547Y22681143D01*
X21287738Y22643048D01*
X21592500Y22643048D01*
X20868690Y23062096D02*
X20678214Y22262096D01*
X20525833Y22833524D01*
X20373452Y22262096D01*
X20182976Y23062096D01*
X19421071Y22262096D02*
X19687738Y22643048D01*
X19878214Y22262096D02*
X19878214Y23062096D01*
X19573452Y23062096D01*
X19497261Y23024000D01*
X19459166Y22985905D01*
X19421071Y22909715D01*
X19421071Y22795429D01*
X19459166Y22719239D01*
X19497261Y22681143D01*
X19573452Y22643048D01*
X19878214Y22643048D01*
X18506785Y23100191D02*
X19192500Y22071620D01*
X17821071Y23024000D02*
X17897261Y23062096D01*
X18011547Y23062096D01*
X18125833Y23024000D01*
X18202023Y22947810D01*
X18240119Y22871620D01*
X18278214Y22719239D01*
X18278214Y22604953D01*
X18240119Y22452572D01*
X18202023Y22376381D01*
X18125833Y22300191D01*
X18011547Y22262096D01*
X17935357Y22262096D01*
X17821071Y22300191D01*
X17782976Y22338286D01*
X17782976Y22604953D01*
X17935357Y22604953D01*
X17440119Y22262096D02*
X17440119Y23062096D01*
X16982976Y22262096D01*
X16982976Y23062096D01*
X16602023Y22262096D02*
X16602023Y23062096D01*
X16411547Y23062096D01*
X16297261Y23024000D01*
X16221071Y22947810D01*
X16182976Y22871620D01*
X16144880Y22719239D01*
X16144880Y22604953D01*
X16182976Y22452572D01*
X16221071Y22376381D01*
X16297261Y22300191D01*
X16411547Y22262096D01*
X16602023Y22262096D01*
X20449642Y19798286D02*
X20487738Y19760191D01*
X20602023Y19722096D01*
X20678214Y19722096D01*
X20792500Y19760191D01*
X20868690Y19836381D01*
X20906785Y19912572D01*
X20944880Y20064953D01*
X20944880Y20179239D01*
X20906785Y20331620D01*
X20868690Y20407810D01*
X20792500Y20484000D01*
X20678214Y20522096D01*
X20602023Y20522096D01*
X20487738Y20484000D01*
X20449642Y20445905D01*
X19725833Y19722096D02*
X20106785Y19722096D01*
X20106785Y20522096D01*
X19459166Y19722096D02*
X19459166Y20522096D01*
X19002023Y19722096D02*
X19344880Y20179239D01*
X19002023Y20522096D02*
X19459166Y20064953D01*
X18087738Y20560191D02*
X18773452Y19531620D01*
X17821071Y19722096D02*
X17821071Y20522096D01*
X17630595Y20522096D01*
X17516309Y20484000D01*
X17440119Y20407810D01*
X17402023Y20331620D01*
X17363928Y20179239D01*
X17363928Y20064953D01*
X17402023Y19912572D01*
X17440119Y19836381D01*
X17516309Y19760191D01*
X17630595Y19722096D01*
X17821071Y19722096D01*
X17021071Y19722096D02*
X17021071Y20522096D01*
X16487738Y20522096D02*
X16335357Y20522096D01*
X16259166Y20484000D01*
X16182976Y20407810D01*
X16144880Y20255429D01*
X16144880Y19988762D01*
X16182976Y19836381D01*
X16259166Y19760191D01*
X16335357Y19722096D01*
X16487738Y19722096D01*
X16563928Y19760191D01*
X16640119Y19836381D01*
X16678214Y19988762D01*
X16678214Y20255429D01*
X16640119Y20407810D01*
X16563928Y20484000D01*
X16487738Y20522096D01*
X21363928Y17220191D02*
X21249642Y17182096D01*
X21059166Y17182096D01*
X20982976Y17220191D01*
X20944880Y17258286D01*
X20906785Y17334477D01*
X20906785Y17410667D01*
X20944880Y17486858D01*
X20982976Y17524953D01*
X21059166Y17563048D01*
X21211547Y17601143D01*
X21287738Y17639239D01*
X21325833Y17677334D01*
X21363928Y17753524D01*
X21363928Y17829715D01*
X21325833Y17905905D01*
X21287738Y17944000D01*
X21211547Y17982096D01*
X21021071Y17982096D01*
X20906785Y17944000D01*
X20640119Y17982096D02*
X20449642Y17182096D01*
X20297261Y17753524D01*
X20144880Y17182096D01*
X19954404Y17982096D01*
X19497261Y17982096D02*
X19344880Y17982096D01*
X19268690Y17944000D01*
X19192500Y17867810D01*
X19154404Y17715429D01*
X19154404Y17448762D01*
X19192500Y17296381D01*
X19268690Y17220191D01*
X19344880Y17182096D01*
X19497261Y17182096D01*
X19573452Y17220191D01*
X19649642Y17296381D01*
X19687738Y17448762D01*
X19687738Y17715429D01*
X19649642Y17867810D01*
X19573452Y17944000D01*
X19497261Y17982096D01*
X18240119Y18020191D02*
X18925833Y16991620D01*
X17516309Y17182096D02*
X17782976Y17563048D01*
X17973452Y17182096D02*
X17973452Y17982096D01*
X17668690Y17982096D01*
X17592500Y17944000D01*
X17554404Y17905905D01*
X17516309Y17829715D01*
X17516309Y17715429D01*
X17554404Y17639239D01*
X17592500Y17601143D01*
X17668690Y17563048D01*
X17973452Y17563048D01*
X17211547Y17220191D02*
X17097261Y17182096D01*
X16906785Y17182096D01*
X16830595Y17220191D01*
X16792500Y17258286D01*
X16754404Y17334477D01*
X16754404Y17410667D01*
X16792500Y17486858D01*
X16830595Y17524953D01*
X16906785Y17563048D01*
X17059166Y17601143D01*
X17135357Y17639239D01*
X17173452Y17677334D01*
X17211547Y17753524D01*
X17211547Y17829715D01*
X17173452Y17905905D01*
X17135357Y17944000D01*
X17059166Y17982096D01*
X16868690Y17982096D01*
X16754404Y17944000D01*
X16525833Y17982096D02*
X16068690Y17982096D01*
X16297261Y17182096D02*
X16297261Y17982096D01*
X19687738Y15442096D02*
X19230595Y15442096D01*
X19459166Y14642096D02*
X19459166Y15442096D01*
X19040119Y15442096D02*
X18506785Y14642096D01*
X18506785Y15442096D02*
X19040119Y14642096D01*
X17630595Y15480191D02*
X18316309Y14451620D01*
X16906785Y14642096D02*
X17173452Y15023048D01*
X17363928Y14642096D02*
X17363928Y15442096D01*
X17059166Y15442096D01*
X16982976Y15404000D01*
X16944880Y15365905D01*
X16906785Y15289715D01*
X16906785Y15175429D01*
X16944880Y15099239D01*
X16982976Y15061143D01*
X17059166Y15023048D01*
X17363928Y15023048D01*
X16640119Y15442096D02*
X16106785Y14642096D01*
X16106785Y15442096D02*
X16640119Y14642096D01*
X29515714Y24926881D02*
X29553809Y24964977D01*
X29591904Y25079262D01*
X29591904Y25155453D01*
X29553809Y25269739D01*
X29477619Y25345929D01*
X29401428Y25384024D01*
X29249047Y25422120D01*
X29134761Y25422120D01*
X28982380Y25384024D01*
X28906190Y25345929D01*
X28830000Y25269739D01*
X28791904Y25155453D01*
X28791904Y25079262D01*
X28830000Y24964977D01*
X28868095Y24926881D01*
X29591904Y24203072D02*
X29591904Y24584024D01*
X28791904Y24584024D01*
X29591904Y23936405D02*
X28791904Y23936405D01*
X29591904Y23479262D02*
X29134761Y23822120D01*
X28791904Y23479262D02*
X29249047Y23936405D01*
X26632857Y25117358D02*
X26670952Y25003072D01*
X26709047Y24964977D01*
X26785238Y24926881D01*
X26899523Y24926881D01*
X26975714Y24964977D01*
X27013809Y25003072D01*
X27051904Y25079262D01*
X27051904Y25384024D01*
X26251904Y25384024D01*
X26251904Y25117358D01*
X26290000Y25041167D01*
X26328095Y25003072D01*
X26404285Y24964977D01*
X26480476Y24964977D01*
X26556666Y25003072D01*
X26594761Y25041167D01*
X26632857Y25117358D01*
X26632857Y25384024D01*
X26251904Y24431643D02*
X26251904Y24355453D01*
X26290000Y24279262D01*
X26328095Y24241167D01*
X26404285Y24203072D01*
X26556666Y24164977D01*
X26747142Y24164977D01*
X26899523Y24203072D01*
X26975714Y24241167D01*
X27013809Y24279262D01*
X27051904Y24355453D01*
X27051904Y24431643D01*
X27013809Y24507834D01*
X26975714Y24545929D01*
X26899523Y24584024D01*
X26747142Y24622120D01*
X26556666Y24622120D01*
X26404285Y24584024D01*
X26328095Y24545929D01*
X26290000Y24507834D01*
X26251904Y24431643D01*
X23750000Y24964977D02*
X23711904Y25041167D01*
X23711904Y25155453D01*
X23750000Y25269739D01*
X23826190Y25345929D01*
X23902380Y25384024D01*
X24054761Y25422120D01*
X24169047Y25422120D01*
X24321428Y25384024D01*
X24397619Y25345929D01*
X24473809Y25269739D01*
X24511904Y25155453D01*
X24511904Y25079262D01*
X24473809Y24964977D01*
X24435714Y24926881D01*
X24169047Y24926881D01*
X24169047Y25079262D01*
X24511904Y24584024D02*
X23711904Y24584024D01*
X24511904Y24126881D01*
X23711904Y24126881D01*
X24511904Y23745929D02*
X23711904Y23745929D01*
X23711904Y23555453D01*
X23750000Y23441167D01*
X23826190Y23364977D01*
X23902380Y23326881D01*
X24054761Y23288786D01*
X24169047Y23288786D01*
X24321428Y23326881D01*
X24397619Y23364977D01*
X24473809Y23441167D01*
X24511904Y23555453D01*
X24511904Y23745929D01*
X35292023Y20865239D02*
X35149166Y20817620D01*
X34911071Y20817620D01*
X34815833Y20865239D01*
X34768214Y20912858D01*
X34720595Y21008096D01*
X34720595Y21103334D01*
X34768214Y21198572D01*
X34815833Y21246191D01*
X34911071Y21293810D01*
X35101547Y21341429D01*
X35196785Y21389048D01*
X35244404Y21436667D01*
X35292023Y21531905D01*
X35292023Y21627143D01*
X35244404Y21722381D01*
X35196785Y21770000D01*
X35101547Y21817620D01*
X34863452Y21817620D01*
X34720595Y21770000D01*
X34434880Y21817620D02*
X33863452Y21817620D01*
X34149166Y20817620D02*
X34149166Y21817620D01*
X33530119Y20817620D02*
X33530119Y21817620D01*
X33196785Y21103334D01*
X32863452Y21817620D01*
X32863452Y20817620D01*
X32482500Y21817620D02*
X31863452Y21817620D01*
X32196785Y21436667D01*
X32053928Y21436667D01*
X31958690Y21389048D01*
X31911071Y21341429D01*
X31863452Y21246191D01*
X31863452Y21008096D01*
X31911071Y20912858D01*
X31958690Y20865239D01*
X32053928Y20817620D01*
X32339642Y20817620D01*
X32434880Y20865239D01*
X32482500Y20912858D01*
X31482500Y21722381D02*
X31434880Y21770000D01*
X31339642Y21817620D01*
X31101547Y21817620D01*
X31006309Y21770000D01*
X30958690Y21722381D01*
X30911071Y21627143D01*
X30911071Y21531905D01*
X30958690Y21389048D01*
X31530119Y20817620D01*
X30911071Y20817620D01*
X29720595Y20817620D02*
X29720595Y21817620D01*
X29339642Y21817620D01*
X29244404Y21770000D01*
X29196785Y21722381D01*
X29149166Y21627143D01*
X29149166Y21484286D01*
X29196785Y21389048D01*
X29244404Y21341429D01*
X29339642Y21293810D01*
X29720595Y21293810D01*
X28720595Y20817620D02*
X28720595Y21484286D01*
X28720595Y21293810D02*
X28672976Y21389048D01*
X28625357Y21436667D01*
X28530119Y21484286D01*
X28434880Y21484286D01*
X27958690Y20817620D02*
X28053928Y20865239D01*
X28101547Y20912858D01*
X28149166Y21008096D01*
X28149166Y21293810D01*
X28101547Y21389048D01*
X28053928Y21436667D01*
X27958690Y21484286D01*
X27815833Y21484286D01*
X27720595Y21436667D01*
X27672976Y21389048D01*
X27625357Y21293810D01*
X27625357Y21008096D01*
X27672976Y20912858D01*
X27720595Y20865239D01*
X27815833Y20817620D01*
X27958690Y20817620D01*
X26768214Y21484286D02*
X26768214Y20674762D01*
X26815833Y20579524D01*
X26863452Y20531905D01*
X26958690Y20484286D01*
X27101547Y20484286D01*
X27196785Y20531905D01*
X26768214Y20865239D02*
X26863452Y20817620D01*
X27053928Y20817620D01*
X27149166Y20865239D01*
X27196785Y20912858D01*
X27244404Y21008096D01*
X27244404Y21293810D01*
X27196785Y21389048D01*
X27149166Y21436667D01*
X27053928Y21484286D01*
X26863452Y21484286D01*
X26768214Y21436667D01*
X26292023Y20817620D02*
X26292023Y21484286D01*
X26292023Y21293810D02*
X26244404Y21389048D01*
X26196785Y21436667D01*
X26101547Y21484286D01*
X26006309Y21484286D01*
X25244404Y20817620D02*
X25244404Y21341429D01*
X25292023Y21436667D01*
X25387261Y21484286D01*
X25577738Y21484286D01*
X25672976Y21436667D01*
X25244404Y20865239D02*
X25339642Y20817620D01*
X25577738Y20817620D01*
X25672976Y20865239D01*
X25720595Y20960477D01*
X25720595Y21055715D01*
X25672976Y21150953D01*
X25577738Y21198572D01*
X25339642Y21198572D01*
X25244404Y21246191D01*
X24768214Y20817620D02*
X24768214Y21484286D01*
X24768214Y21389048D02*
X24720595Y21436667D01*
X24625357Y21484286D01*
X24482500Y21484286D01*
X24387261Y21436667D01*
X24339642Y21341429D01*
X24339642Y20817620D01*
X24339642Y21341429D02*
X24292023Y21436667D01*
X24196785Y21484286D01*
X24053928Y21484286D01*
X23958690Y21436667D01*
X23911071Y21341429D01*
X23911071Y20817620D01*
X23434880Y20817620D02*
X23434880Y21484286D01*
X23434880Y21389048D02*
X23387261Y21436667D01*
X23292023Y21484286D01*
X23149166Y21484286D01*
X23053928Y21436667D01*
X23006309Y21341429D01*
X23006309Y20817620D01*
X23006309Y21341429D02*
X22958690Y21436667D01*
X22863452Y21484286D01*
X22720595Y21484286D01*
X22625357Y21436667D01*
X22577738Y21341429D01*
X22577738Y20817620D01*
X21720595Y20865239D02*
X21815833Y20817620D01*
X22006309Y20817620D01*
X22101547Y20865239D01*
X22149166Y20960477D01*
X22149166Y21341429D01*
X22101547Y21436667D01*
X22006309Y21484286D01*
X21815833Y21484286D01*
X21720595Y21436667D01*
X21672976Y21341429D01*
X21672976Y21246191D01*
X22149166Y21150953D01*
X21244404Y20817620D02*
X21244404Y21484286D01*
X21244404Y21293810D02*
X21196785Y21389048D01*
X21149166Y21436667D01*
X21053928Y21484286D01*
X20958690Y21484286D01*
X35244404Y19207620D02*
X35244404Y19874286D01*
X35244404Y19683810D02*
X35196785Y19779048D01*
X35149166Y19826667D01*
X35053928Y19874286D01*
X34958690Y19874286D01*
X34244404Y19255239D02*
X34339642Y19207620D01*
X34530119Y19207620D01*
X34625357Y19255239D01*
X34672976Y19350477D01*
X34672976Y19731429D01*
X34625357Y19826667D01*
X34530119Y19874286D01*
X34339642Y19874286D01*
X34244404Y19826667D01*
X34196785Y19731429D01*
X34196785Y19636191D01*
X34672976Y19540953D01*
X33863452Y19874286D02*
X33625357Y19207620D01*
X33387261Y19874286D01*
X33006309Y19302858D02*
X32958690Y19255239D01*
X33006309Y19207620D01*
X33053928Y19255239D01*
X33006309Y19302858D01*
X33006309Y19207620D01*
X31339642Y19874286D02*
X31339642Y19064762D01*
X31387261Y18969524D01*
X31434880Y18921905D01*
X31530119Y18874286D01*
X31672976Y18874286D01*
X31768214Y18921905D01*
X31339642Y19255239D02*
X31434880Y19207620D01*
X31625357Y19207620D01*
X31720595Y19255239D01*
X31768214Y19302858D01*
X31815833Y19398096D01*
X31815833Y19683810D01*
X31768214Y19779048D01*
X31720595Y19826667D01*
X31625357Y19874286D01*
X31434880Y19874286D01*
X31339642Y19826667D01*
X32131904Y25384024D02*
X31331904Y25384024D01*
X31331904Y25193548D01*
X31370000Y25079262D01*
X31446190Y25003072D01*
X31522380Y24964977D01*
X31674761Y24926881D01*
X31789047Y24926881D01*
X31941428Y24964977D01*
X32017619Y25003072D01*
X32093809Y25079262D01*
X32131904Y25193548D01*
X32131904Y25384024D01*
X32131904Y24584024D02*
X31331904Y24584024D01*
X31331904Y24050691D02*
X31331904Y23898310D01*
X31370000Y23822120D01*
X31446190Y23745929D01*
X31598571Y23707834D01*
X31865238Y23707834D01*
X32017619Y23745929D01*
X32093809Y23822120D01*
X32131904Y23898310D01*
X32131904Y24050691D01*
X32093809Y24126881D01*
X32017619Y24203072D01*
X31865238Y24241167D01*
X31598571Y24241167D01*
X31446190Y24203072D01*
X31370000Y24126881D01*
X31331904Y24050691D01*
X35043452Y17583096D02*
X35043452Y17011667D01*
X35081547Y16897381D01*
X35157738Y16821191D01*
X35272023Y16783096D01*
X35348214Y16783096D01*
X34281547Y16783096D02*
X34662500Y16783096D01*
X34662500Y17583096D01*
X33557738Y16859286D02*
X33595833Y16821191D01*
X33710119Y16783096D01*
X33786309Y16783096D01*
X33900595Y16821191D01*
X33976785Y16897381D01*
X34014880Y16973572D01*
X34052976Y17125953D01*
X34052976Y17240239D01*
X34014880Y17392620D01*
X33976785Y17468810D01*
X33900595Y17545000D01*
X33786309Y17583096D01*
X33710119Y17583096D01*
X33595833Y17545000D01*
X33557738Y17506905D01*
X32986309Y17583096D02*
X32986309Y17011667D01*
X33024404Y16897381D01*
X33100595Y16821191D01*
X33214880Y16783096D01*
X33291071Y16783096D01*
X32224404Y16783096D02*
X32605357Y16783096D01*
X32605357Y17583096D01*
X31500595Y16859286D02*
X31538690Y16821191D01*
X31652976Y16783096D01*
X31729166Y16783096D01*
X31843452Y16821191D01*
X31919642Y16897381D01*
X31957738Y16973572D01*
X31995833Y17125953D01*
X31995833Y17240239D01*
X31957738Y17392620D01*
X31919642Y17468810D01*
X31843452Y17545000D01*
X31729166Y17583096D01*
X31652976Y17583096D01*
X31538690Y17545000D01*
X31500595Y17506905D01*
X30929166Y17583096D02*
X30929166Y17011667D01*
X30967261Y16897381D01*
X31043452Y16821191D01*
X31157738Y16783096D01*
X31233928Y16783096D01*
X30167261Y16783096D02*
X30548214Y16783096D01*
X30548214Y17583096D01*
X29443452Y16859286D02*
X29481547Y16821191D01*
X29595833Y16783096D01*
X29672023Y16783096D01*
X29786309Y16821191D01*
X29862500Y16897381D01*
X29900595Y16973572D01*
X29938690Y17125953D01*
X29938690Y17240239D01*
X29900595Y17392620D01*
X29862500Y17468810D01*
X29786309Y17545000D01*
X29672023Y17583096D01*
X29595833Y17583096D01*
X29481547Y17545000D01*
X29443452Y17506905D01*
X28872023Y17583096D02*
X28872023Y17011667D01*
X28910119Y16897381D01*
X28986309Y16821191D01*
X29100595Y16783096D01*
X29176785Y16783096D01*
X28110119Y16783096D02*
X28491071Y16783096D01*
X28491071Y17583096D01*
X27386309Y16859286D02*
X27424404Y16821191D01*
X27538690Y16783096D01*
X27614880Y16783096D01*
X27729166Y16821191D01*
X27805357Y16897381D01*
X27843452Y16973572D01*
X27881547Y17125953D01*
X27881547Y17240239D01*
X27843452Y17392620D01*
X27805357Y17468810D01*
X27729166Y17545000D01*
X27614880Y17583096D01*
X27538690Y17583096D01*
X27424404Y17545000D01*
X27386309Y17506905D01*
X19916309Y25602096D02*
X20297261Y25602096D01*
X20335357Y25221143D01*
X20297261Y25259239D01*
X20221071Y25297334D01*
X20030595Y25297334D01*
X19954404Y25259239D01*
X19916309Y25221143D01*
X19878214Y25144953D01*
X19878214Y24954477D01*
X19916309Y24878286D01*
X19954404Y24840191D01*
X20030595Y24802096D01*
X20221071Y24802096D01*
X20297261Y24840191D01*
X20335357Y24878286D01*
X19649642Y25602096D02*
X19382976Y24802096D01*
X19116309Y25602096D01*
X18278214Y25640191D02*
X18963928Y24611620D01*
X18087738Y25602096D02*
X17592500Y25602096D01*
X17859166Y25297334D01*
X17744880Y25297334D01*
X17668690Y25259239D01*
X17630595Y25221143D01*
X17592500Y25144953D01*
X17592500Y24954477D01*
X17630595Y24878286D01*
X17668690Y24840191D01*
X17744880Y24802096D01*
X17973452Y24802096D01*
X18049642Y24840191D01*
X18087738Y24878286D01*
X17363928Y25602096D02*
X17097261Y24802096D01*
X16830595Y25602096D01*
X16640119Y25602096D02*
X16144880Y25602096D01*
X16411547Y25297334D01*
X16297261Y25297334D01*
X16221071Y25259239D01*
X16182976Y25221143D01*
X16144880Y25144953D01*
X16144880Y24954477D01*
X16182976Y24878286D01*
X16221071Y24840191D01*
X16297261Y24802096D01*
X16525833Y24802096D01*
X16602023Y24840191D01*
X16640119Y24878286D01*
X33871904Y25460215D02*
X33871904Y24964977D01*
X34176666Y25231643D01*
X34176666Y25117358D01*
X34214761Y25041167D01*
X34252857Y25003072D01*
X34329047Y24964977D01*
X34519523Y24964977D01*
X34595714Y25003072D01*
X34633809Y25041167D01*
X34671904Y25117358D01*
X34671904Y25345929D01*
X34633809Y25422120D01*
X34595714Y25460215D01*
X33871904Y24736405D02*
X34671904Y24469739D01*
X33871904Y24203072D01*
X33871904Y24012596D02*
X33871904Y23517358D01*
X34176666Y23784024D01*
X34176666Y23669739D01*
X34214761Y23593548D01*
X34252857Y23555453D01*
X34329047Y23517358D01*
X34519523Y23517358D01*
X34595714Y23555453D01*
X34633809Y23593548D01*
X34671904Y23669739D01*
X34671904Y23898310D01*
X34633809Y23974500D01*
X34595714Y24012596D01*
D11*
G04 #@! TO.C,TP3*
X29930000Y25800000D02*
X29930000Y27200000D01*
X29930000Y27200000D02*
X28530000Y27200000D01*
X28530000Y27200000D02*
X28530000Y25800000D01*
X28530000Y25800000D02*
X29930000Y25800000D01*
G04 #@! TO.C,TP1*
X33610000Y25800000D02*
X35010000Y25800000D01*
X33610000Y27200000D02*
X33610000Y25800000D01*
X35010000Y27200000D02*
X33610000Y27200000D01*
X35010000Y25800000D02*
X35010000Y27200000D01*
G04 #@! TO.C,TP4*
X25990000Y25800000D02*
X27390000Y25800000D01*
X27390000Y27200000D02*
X25990000Y27200000D01*
X27390000Y25800000D02*
X27390000Y27200000D01*
X25990000Y27200000D02*
X25990000Y25800000D01*
G04 #@! TO.C,TP5*
X24850000Y25800000D02*
X24850000Y27200000D01*
X24850000Y27200000D02*
X23450000Y27200000D01*
X23450000Y25800000D02*
X24850000Y25800000D01*
X23450000Y27200000D02*
X23450000Y25800000D01*
G04 #@! TO.C,TP2*
X32470000Y27200000D02*
X31070000Y27200000D01*
X31070000Y25800000D02*
X32470000Y25800000D01*
X31070000Y27200000D02*
X31070000Y25800000D01*
X32470000Y25800000D02*
X32470000Y27200000D01*
G04 #@! TO.C,JP1*
X23900000Y14250000D02*
X28000000Y14250000D01*
X24650000Y16450000D02*
X24350000Y16750000D01*
X24350000Y16750000D02*
X24950000Y16750000D01*
X28000000Y14250000D02*
X28000000Y16250000D01*
X24650000Y16450000D02*
X24950000Y16750000D01*
X28000000Y16250000D02*
X23900000Y16250000D01*
X23900000Y16250000D02*
X23900000Y14250000D01*
G04 #@! TD*
M02*
