G04 #@! TF.GenerationSoftware,KiCad,Pcbnew,6.0.11+dfsg-1*
G04 #@! TF.CreationDate,2023-04-16T09:36:05+08:00*
G04 #@! TF.ProjectId,stlink,73746c69-6e6b-42e6-9b69-6361645f7063,g*
G04 #@! TF.SameCoordinates,PX5c07920PY68e7780*
G04 #@! TF.FileFunction,Soldermask,Top*
G04 #@! TF.FilePolarity,Negative*
%FSLAX46Y46*%
G04 Gerber Fmt 4.6, Leading zero omitted, Abs format (unit mm)*
G04 Created by KiCad (PCBNEW 6.0.11+dfsg-1) date 2023-04-16 09:36:05*
%MOMM*%
%LPD*%
G01*
G04 APERTURE LIST*
G04 Aperture macros list*
%AMRoundRect*
0 Rectangle with rounded corners*
0 $1 Rounding radius*
0 $2 $3 $4 $5 $6 $7 $8 $9 X,Y pos of 4 corners*
0 Add a 4 corners polygon primitive as box body*
4,1,4,$2,$3,$4,$5,$6,$7,$8,$9,$2,$3,0*
0 Add four circle primitives for the rounded corners*
1,1,$1+$1,$2,$3*
1,1,$1+$1,$4,$5*
1,1,$1+$1,$6,$7*
1,1,$1+$1,$8,$9*
0 Add four rect primitives between the rounded corners*
20,1,$1+$1,$2,$3,$4,$5,0*
20,1,$1+$1,$4,$5,$6,$7,0*
20,1,$1+$1,$6,$7,$8,$9,0*
20,1,$1+$1,$8,$9,$2,$3,0*%
G04 Aperture macros list end*
%ADD10RoundRect,0.150000X-0.587500X-0.150000X0.587500X-0.150000X0.587500X0.150000X-0.587500X0.150000X0*%
%ADD11RoundRect,0.250000X0.250000X0.475000X-0.250000X0.475000X-0.250000X-0.475000X0.250000X-0.475000X0*%
%ADD12RoundRect,0.250000X0.475000X-0.250000X0.475000X0.250000X-0.475000X0.250000X-0.475000X-0.250000X0*%
%ADD13RoundRect,0.135000X0.135000X0.185000X-0.135000X0.185000X-0.135000X-0.185000X0.135000X-0.185000X0*%
%ADD14RoundRect,0.140000X0.170000X-0.140000X0.170000X0.140000X-0.170000X0.140000X-0.170000X-0.140000X0*%
%ADD15RoundRect,0.140000X-0.170000X0.140000X-0.170000X-0.140000X0.170000X-0.140000X0.170000X0.140000X0*%
%ADD16RoundRect,0.140000X0.140000X0.170000X-0.140000X0.170000X-0.140000X-0.170000X0.140000X-0.170000X0*%
%ADD17RoundRect,0.140000X-0.140000X-0.170000X0.140000X-0.170000X0.140000X0.170000X-0.140000X0.170000X0*%
%ADD18RoundRect,0.218750X-0.218750X-0.256250X0.218750X-0.256250X0.218750X0.256250X-0.218750X0.256250X0*%
%ADD19RoundRect,0.135000X-0.135000X-0.185000X0.135000X-0.185000X0.135000X0.185000X-0.135000X0.185000X0*%
%ADD20R,0.900000X1.200000*%
%ADD21RoundRect,0.075000X-0.662500X-0.075000X0.662500X-0.075000X0.662500X0.075000X-0.662500X0.075000X0*%
%ADD22RoundRect,0.075000X-0.075000X-0.662500X0.075000X-0.662500X0.075000X0.662500X-0.075000X0.662500X0*%
%ADD23C,1.800000*%
%ADD24O,3.500000X2.000000*%
%ADD25C,2.200000*%
%ADD26RoundRect,0.135000X-0.185000X0.135000X-0.185000X-0.135000X0.185000X-0.135000X0.185000X0.135000X0*%
%ADD27RoundRect,0.135000X0.185000X-0.135000X0.185000X0.135000X-0.185000X0.135000X-0.185000X-0.135000X0*%
%ADD28RoundRect,0.150000X0.587500X0.150000X-0.587500X0.150000X-0.587500X-0.150000X0.587500X-0.150000X0*%
%ADD29R,2.400000X2.000000*%
%ADD30R,2.540000X1.524000*%
G04 APERTURE END LIST*
D10*
G04 #@! TO.C,U1*
X34642500Y24082000D03*
X34642500Y22182000D03*
X36517500Y23132000D03*
G04 #@! TD*
D11*
G04 #@! TO.C,C4*
X36450000Y20250000D03*
X34550000Y20250000D03*
G04 #@! TD*
D12*
G04 #@! TO.C,C5*
X32650000Y22182000D03*
X32650000Y24082000D03*
G04 #@! TD*
D13*
G04 #@! TO.C,R3*
X33260000Y19800000D03*
X32240000Y19800000D03*
G04 #@! TD*
D14*
G04 #@! TO.C,C6*
X22250000Y23770000D03*
X22250000Y24730000D03*
G04 #@! TD*
G04 #@! TO.C,C7*
X30750000Y23770000D03*
X30750000Y24730000D03*
G04 #@! TD*
D15*
G04 #@! TO.C,C8*
X29230000Y14214000D03*
X29230000Y13254000D03*
G04 #@! TD*
D16*
G04 #@! TO.C,C9*
X20730000Y17500000D03*
X19770000Y17500000D03*
G04 #@! TD*
G04 #@! TO.C,C2*
X18730000Y26250000D03*
X17770000Y26250000D03*
G04 #@! TD*
D17*
G04 #@! TO.C,C3*
X17770000Y18750000D03*
X18730000Y18750000D03*
G04 #@! TD*
D18*
G04 #@! TO.C,D2*
X17712500Y14750000D03*
X19287500Y14750000D03*
G04 #@! TD*
G04 #@! TO.C,D3*
X17712500Y16250000D03*
X19287500Y16250000D03*
G04 #@! TD*
D19*
G04 #@! TO.C,R12*
X20990000Y14750000D03*
X22010000Y14750000D03*
G04 #@! TD*
D20*
G04 #@! TO.C,D1*
X32600000Y26180000D03*
X35900000Y26180000D03*
G04 #@! TD*
D21*
G04 #@! TO.C,U2*
X22337500Y22750000D03*
X22337500Y22250000D03*
X22337500Y21750000D03*
X22337500Y21250000D03*
X22337500Y20750000D03*
X22337500Y20250000D03*
X22337500Y19750000D03*
X22337500Y19250000D03*
X22337500Y18750000D03*
X22337500Y18250000D03*
X22337500Y17750000D03*
X22337500Y17250000D03*
D22*
X23750000Y15837500D03*
X24250000Y15837500D03*
X24750000Y15837500D03*
X25250000Y15837500D03*
X25750000Y15837500D03*
X26250000Y15837500D03*
X26750000Y15837500D03*
X27250000Y15837500D03*
X27750000Y15837500D03*
X28250000Y15837500D03*
X28750000Y15837500D03*
X29250000Y15837500D03*
D21*
X30662500Y17250000D03*
X30662500Y17750000D03*
X30662500Y18250000D03*
X30662500Y18750000D03*
X30662500Y19250000D03*
X30662500Y19750000D03*
X30662500Y20250000D03*
X30662500Y20750000D03*
X30662500Y21250000D03*
X30662500Y21750000D03*
X30662500Y22250000D03*
X30662500Y22750000D03*
D22*
X29250000Y24162500D03*
X28750000Y24162500D03*
X28250000Y24162500D03*
X27750000Y24162500D03*
X27250000Y24162500D03*
X26750000Y24162500D03*
X26250000Y24162500D03*
X25750000Y24162500D03*
X25250000Y24162500D03*
X24750000Y24162500D03*
X24250000Y24162500D03*
X23750000Y24162500D03*
G04 #@! TD*
D23*
G04 #@! TO.C,J1*
X38400000Y23500000D03*
X38400000Y21000000D03*
X38400000Y19000000D03*
X38400000Y16500000D03*
D24*
X40500000Y14150000D03*
X40500000Y25850000D03*
D25*
X40500000Y17700000D03*
X40500000Y22300000D03*
G04 #@! TD*
D16*
G04 #@! TO.C,C1*
X20730000Y18750000D03*
X19770000Y18750000D03*
G04 #@! TD*
D13*
G04 #@! TO.C,R1*
X18760000Y17500000D03*
X17740000Y17500000D03*
G04 #@! TD*
D26*
G04 #@! TO.C,R2*
X27000000Y27010000D03*
X27000000Y25990000D03*
G04 #@! TD*
D27*
G04 #@! TO.C,R9*
X31262000Y13224000D03*
X31262000Y14244000D03*
G04 #@! TD*
D28*
G04 #@! TO.C,Q1*
X34612500Y16340000D03*
X34612500Y18240000D03*
X32737500Y17290000D03*
G04 #@! TD*
D27*
G04 #@! TO.C,R4*
X36500000Y17490000D03*
X36500000Y18510000D03*
G04 #@! TD*
G04 #@! TO.C,R5*
X36500000Y14990000D03*
X36500000Y16010000D03*
G04 #@! TD*
D26*
G04 #@! TO.C,R7*
X24750000Y27010000D03*
X24750000Y25990000D03*
G04 #@! TD*
G04 #@! TO.C,R8*
X22750000Y27010000D03*
X22750000Y25990000D03*
G04 #@! TD*
G04 #@! TO.C,R10*
X25500000Y14260000D03*
X25500000Y13240000D03*
G04 #@! TD*
D19*
G04 #@! TO.C,R6*
X33990000Y14750000D03*
X35010000Y14750000D03*
G04 #@! TD*
D29*
G04 #@! TO.C,Y1*
X19250000Y24350000D03*
X19250000Y20650000D03*
G04 #@! TD*
D13*
G04 #@! TO.C,R13*
X17310000Y13250000D03*
X16290000Y13250000D03*
G04 #@! TD*
D27*
G04 #@! TO.C,R11*
X24000000Y13240000D03*
X24000000Y14260000D03*
G04 #@! TD*
D30*
G04 #@! TO.C,J2*
X14000000Y25080000D03*
X14000000Y22540000D03*
X14000000Y20000000D03*
X14000000Y17460000D03*
X14000000Y14920000D03*
G04 #@! TD*
M02*
