G04 #@! TF.GenerationSoftware,KiCad,Pcbnew,6.0.7+dfsg-3*
G04 #@! TF.CreationDate,2022-10-18T10:37:57+08:00*
G04 #@! TF.ProjectId,stlink,73746c69-6e6b-42e6-9b69-6361645f7063,e*
G04 #@! TF.SameCoordinates,PX5ca1610PY6645a40*
G04 #@! TF.FileFunction,Copper,L1,Top*
G04 #@! TF.FilePolarity,Positive*
%FSLAX46Y46*%
G04 Gerber Fmt 4.6, Leading zero omitted, Abs format (unit mm)*
G04 Created by KiCad (PCBNEW 6.0.7+dfsg-3) date 2022-10-18 10:37:57*
%MOMM*%
%LPD*%
G01*
G04 APERTURE LIST*
G04 Aperture macros list*
%AMRoundRect*
0 Rectangle with rounded corners*
0 $1 Rounding radius*
0 $2 $3 $4 $5 $6 $7 $8 $9 X,Y pos of 4 corners*
0 Add a 4 corners polygon primitive as box body*
4,1,4,$2,$3,$4,$5,$6,$7,$8,$9,$2,$3,0*
0 Add four circle primitives for the rounded corners*
1,1,$1+$1,$2,$3*
1,1,$1+$1,$4,$5*
1,1,$1+$1,$6,$7*
1,1,$1+$1,$8,$9*
0 Add four rect primitives between the rounded corners*
20,1,$1+$1,$2,$3,$4,$5,0*
20,1,$1+$1,$4,$5,$6,$7,0*
20,1,$1+$1,$6,$7,$8,$9,0*
20,1,$1+$1,$8,$9,$2,$3,0*%
G04 Aperture macros list end*
G04 #@! TA.AperFunction,SMDPad,CuDef*
%ADD10RoundRect,0.150000X-0.587500X-0.150000X0.587500X-0.150000X0.587500X0.150000X-0.587500X0.150000X0*%
G04 #@! TD*
G04 #@! TA.AperFunction,SMDPad,CuDef*
%ADD11RoundRect,0.250000X0.250000X0.475000X-0.250000X0.475000X-0.250000X-0.475000X0.250000X-0.475000X0*%
G04 #@! TD*
G04 #@! TA.AperFunction,SMDPad,CuDef*
%ADD12RoundRect,0.250000X0.475000X-0.250000X0.475000X0.250000X-0.475000X0.250000X-0.475000X-0.250000X0*%
G04 #@! TD*
G04 #@! TA.AperFunction,SMDPad,CuDef*
%ADD13RoundRect,0.135000X0.135000X0.185000X-0.135000X0.185000X-0.135000X-0.185000X0.135000X-0.185000X0*%
G04 #@! TD*
G04 #@! TA.AperFunction,SMDPad,CuDef*
%ADD14RoundRect,0.140000X0.170000X-0.140000X0.170000X0.140000X-0.170000X0.140000X-0.170000X-0.140000X0*%
G04 #@! TD*
G04 #@! TA.AperFunction,SMDPad,CuDef*
%ADD15RoundRect,0.140000X-0.170000X0.140000X-0.170000X-0.140000X0.170000X-0.140000X0.170000X0.140000X0*%
G04 #@! TD*
G04 #@! TA.AperFunction,SMDPad,CuDef*
%ADD16RoundRect,0.140000X0.140000X0.170000X-0.140000X0.170000X-0.140000X-0.170000X0.140000X-0.170000X0*%
G04 #@! TD*
G04 #@! TA.AperFunction,SMDPad,CuDef*
%ADD17RoundRect,0.140000X-0.140000X-0.170000X0.140000X-0.170000X0.140000X0.170000X-0.140000X0.170000X0*%
G04 #@! TD*
G04 #@! TA.AperFunction,SMDPad,CuDef*
%ADD18RoundRect,0.218750X-0.218750X-0.256250X0.218750X-0.256250X0.218750X0.256250X-0.218750X0.256250X0*%
G04 #@! TD*
G04 #@! TA.AperFunction,SMDPad,CuDef*
%ADD19RoundRect,0.135000X-0.135000X-0.185000X0.135000X-0.185000X0.135000X0.185000X-0.135000X0.185000X0*%
G04 #@! TD*
G04 #@! TA.AperFunction,SMDPad,CuDef*
%ADD20R,0.900000X1.200000*%
G04 #@! TD*
G04 #@! TA.AperFunction,SMDPad,CuDef*
%ADD21RoundRect,0.075000X-0.662500X-0.075000X0.662500X-0.075000X0.662500X0.075000X-0.662500X0.075000X0*%
G04 #@! TD*
G04 #@! TA.AperFunction,SMDPad,CuDef*
%ADD22RoundRect,0.075000X-0.075000X-0.662500X0.075000X-0.662500X0.075000X0.662500X-0.075000X0.662500X0*%
G04 #@! TD*
G04 #@! TA.AperFunction,ComponentPad*
%ADD23C,1.800000*%
G04 #@! TD*
G04 #@! TA.AperFunction,ComponentPad*
%ADD24O,3.500000X2.000000*%
G04 #@! TD*
G04 #@! TA.AperFunction,ComponentPad*
%ADD25C,2.200000*%
G04 #@! TD*
G04 #@! TA.AperFunction,SMDPad,CuDef*
%ADD26RoundRect,0.135000X-0.185000X0.135000X-0.185000X-0.135000X0.185000X-0.135000X0.185000X0.135000X0*%
G04 #@! TD*
G04 #@! TA.AperFunction,SMDPad,CuDef*
%ADD27RoundRect,0.135000X0.185000X-0.135000X0.185000X0.135000X-0.185000X0.135000X-0.185000X-0.135000X0*%
G04 #@! TD*
G04 #@! TA.AperFunction,SMDPad,CuDef*
%ADD28RoundRect,0.150000X0.587500X0.150000X-0.587500X0.150000X-0.587500X-0.150000X0.587500X-0.150000X0*%
G04 #@! TD*
G04 #@! TA.AperFunction,SMDPad,CuDef*
%ADD29R,2.400000X2.000000*%
G04 #@! TD*
G04 #@! TA.AperFunction,SMDPad,CuDef*
%ADD30R,2.540000X1.524000*%
G04 #@! TD*
G04 #@! TA.AperFunction,ViaPad*
%ADD31C,0.700000*%
G04 #@! TD*
G04 #@! TA.AperFunction,Conductor*
%ADD32C,0.228600*%
G04 #@! TD*
G04 #@! TA.AperFunction,Conductor*
%ADD33C,0.381000*%
G04 #@! TD*
G04 #@! TA.AperFunction,Conductor*
%ADD34C,0.304800*%
G04 #@! TD*
G04 APERTURE END LIST*
D10*
G04 #@! TO.P,U1,1,GND*
G04 #@! TO.N,GND*
X34012500Y21322000D03*
G04 #@! TO.P,U1,2,VO*
G04 #@! TO.N,+3V3*
X34012500Y19422000D03*
G04 #@! TO.P,U1,3,VI*
G04 #@! TO.N,+5V*
X35887500Y20372000D03*
G04 #@! TD*
D11*
G04 #@! TO.P,C4,1*
G04 #@! TO.N,+5V*
X35820000Y17490000D03*
G04 #@! TO.P,C4,2*
G04 #@! TO.N,GND*
X33920000Y17490000D03*
G04 #@! TD*
D12*
G04 #@! TO.P,C5,1*
G04 #@! TO.N,+3V3*
X32020000Y19422000D03*
G04 #@! TO.P,C5,2*
G04 #@! TO.N,GND*
X32020000Y21322000D03*
G04 #@! TD*
D13*
G04 #@! TO.P,R3,1*
G04 #@! TO.N,D+*
X32630000Y17040000D03*
G04 #@! TO.P,R3,2*
G04 #@! TO.N,Net-(Q1-Pad2)*
X31610000Y17040000D03*
G04 #@! TD*
D14*
G04 #@! TO.P,C6,1*
G04 #@! TO.N,+3V3*
X21620000Y21010000D03*
G04 #@! TO.P,C6,2*
G04 #@! TO.N,GND*
X21620000Y21970000D03*
G04 #@! TD*
G04 #@! TO.P,C7,1*
G04 #@! TO.N,+3V3*
X30120000Y21010000D03*
G04 #@! TO.P,C7,2*
G04 #@! TO.N,GND*
X30120000Y21970000D03*
G04 #@! TD*
D15*
G04 #@! TO.P,C8,1*
G04 #@! TO.N,+3V3*
X28600000Y11454000D03*
G04 #@! TO.P,C8,2*
G04 #@! TO.N,GND*
X28600000Y10494000D03*
G04 #@! TD*
D16*
G04 #@! TO.P,C9,1*
G04 #@! TO.N,+3V3*
X20100000Y14740000D03*
G04 #@! TO.P,C9,2*
G04 #@! TO.N,GND*
X19140000Y14740000D03*
G04 #@! TD*
G04 #@! TO.P,C2,1*
G04 #@! TO.N,Net-(C2-Pad1)*
X18100000Y23490000D03*
G04 #@! TO.P,C2,2*
G04 #@! TO.N,GND*
X17140000Y23490000D03*
G04 #@! TD*
D17*
G04 #@! TO.P,C3,1*
G04 #@! TO.N,Net-(C3-Pad1)*
X17140000Y15990000D03*
G04 #@! TO.P,C3,2*
G04 #@! TO.N,GND*
X18100000Y15990000D03*
G04 #@! TD*
D18*
G04 #@! TO.P,D2,1,K*
G04 #@! TO.N,LED*
X17082500Y11990000D03*
G04 #@! TO.P,D2,2,A*
G04 #@! TO.N,Net-(D2-Pad2)*
X18657500Y11990000D03*
G04 #@! TD*
G04 #@! TO.P,D3,1,K*
G04 #@! TO.N,Net-(D3-Pad1)*
X17082500Y13490000D03*
G04 #@! TO.P,D3,2,A*
G04 #@! TO.N,LED*
X18657500Y13490000D03*
G04 #@! TD*
D19*
G04 #@! TO.P,R12,1*
G04 #@! TO.N,Net-(D2-Pad2)*
X20360000Y11990000D03*
G04 #@! TO.P,R12,2*
G04 #@! TO.N,+3V3*
X21380000Y11990000D03*
G04 #@! TD*
D20*
G04 #@! TO.P,D1,1,K*
G04 #@! TO.N,+5V*
X31970000Y23420000D03*
G04 #@! TO.P,D1,2,A*
G04 #@! TO.N,VBUS*
X35270000Y23420000D03*
G04 #@! TD*
D21*
G04 #@! TO.P,U2,1,VBAT*
G04 #@! TO.N,+3V3*
X21707500Y19990000D03*
G04 #@! TO.P,U2,2,PC13*
G04 #@! TO.N,Net-(R7-Pad2)*
X21707500Y19490000D03*
G04 #@! TO.P,U2,3,PC14*
G04 #@! TO.N,Net-(R8-Pad2)*
X21707500Y18990000D03*
G04 #@! TO.P,U2,4,PC15*
G04 #@! TO.N,unconnected-(U2-Pad4)*
X21707500Y18490000D03*
G04 #@! TO.P,U2,5,PD0*
G04 #@! TO.N,Net-(C2-Pad1)*
X21707500Y17990000D03*
G04 #@! TO.P,U2,6,PD1*
G04 #@! TO.N,Net-(C3-Pad1)*
X21707500Y17490000D03*
G04 #@! TO.P,U2,7,NRST*
G04 #@! TO.N,Net-(C1-Pad1)*
X21707500Y16990000D03*
G04 #@! TO.P,U2,8,VSSA*
G04 #@! TO.N,GND*
X21707500Y16490000D03*
G04 #@! TO.P,U2,9,VDDA*
G04 #@! TO.N,+3V3*
X21707500Y15990000D03*
G04 #@! TO.P,U2,10,PA0*
G04 #@! TO.N,Net-(R10-Pad1)*
X21707500Y15490000D03*
G04 #@! TO.P,U2,11,PA1*
G04 #@! TO.N,unconnected-(U2-Pad11)*
X21707500Y14990000D03*
G04 #@! TO.P,U2,12,PA2*
G04 #@! TO.N,T_TX*
X21707500Y14490000D03*
D22*
G04 #@! TO.P,U2,13,PA3*
G04 #@! TO.N,T_RX*
X23120000Y13077500D03*
G04 #@! TO.P,U2,14,PA4*
G04 #@! TO.N,unconnected-(U2-Pad14)*
X23620000Y13077500D03*
G04 #@! TO.P,U2,15,PA5*
G04 #@! TO.N,unconnected-(U2-Pad15)*
X24120000Y13077500D03*
G04 #@! TO.P,U2,16,PA6*
G04 #@! TO.N,unconnected-(U2-Pad16)*
X24620000Y13077500D03*
G04 #@! TO.P,U2,17,PA7*
G04 #@! TO.N,unconnected-(U2-Pad17)*
X25120000Y13077500D03*
G04 #@! TO.P,U2,18,PB0*
G04 #@! TO.N,T_RST*
X25620000Y13077500D03*
G04 #@! TO.P,U2,19,PB1*
G04 #@! TO.N,unconnected-(U2-Pad19)*
X26120000Y13077500D03*
G04 #@! TO.P,U2,20,PB2*
G04 #@! TO.N,unconnected-(U2-Pad20)*
X26620000Y13077500D03*
G04 #@! TO.P,U2,21,PB10*
G04 #@! TO.N,unconnected-(U2-Pad21)*
X27120000Y13077500D03*
G04 #@! TO.P,U2,22,PB11*
G04 #@! TO.N,unconnected-(U2-Pad22)*
X27620000Y13077500D03*
G04 #@! TO.P,U2,23,VSS*
G04 #@! TO.N,GND*
X28120000Y13077500D03*
G04 #@! TO.P,U2,24,VDD*
G04 #@! TO.N,+3V3*
X28620000Y13077500D03*
D21*
G04 #@! TO.P,U2,25,PB12*
G04 #@! TO.N,Net-(R9-Pad1)*
X30032500Y14490000D03*
G04 #@! TO.P,U2,26,PB13*
G04 #@! TO.N,T_CLK*
X30032500Y14990000D03*
G04 #@! TO.P,U2,27,PB14*
G04 #@! TO.N,T_DIO*
X30032500Y15490000D03*
G04 #@! TO.P,U2,28,PB15*
G04 #@! TO.N,unconnected-(U2-Pad28)*
X30032500Y15990000D03*
G04 #@! TO.P,U2,29,PA8*
G04 #@! TO.N,unconnected-(U2-Pad29)*
X30032500Y16490000D03*
G04 #@! TO.P,U2,30,PA9*
G04 #@! TO.N,LED*
X30032500Y16990000D03*
G04 #@! TO.P,U2,31,PA10*
G04 #@! TO.N,T_SWO*
X30032500Y17490000D03*
G04 #@! TO.P,U2,32,PA11*
G04 #@! TO.N,D-*
X30032500Y17990000D03*
G04 #@! TO.P,U2,33,PA12*
G04 #@! TO.N,D+*
X30032500Y18490000D03*
G04 #@! TO.P,U2,34,PA13*
G04 #@! TO.N,DIO*
X30032500Y18990000D03*
G04 #@! TO.P,U2,35,VSS*
G04 #@! TO.N,GND*
X30032500Y19490000D03*
G04 #@! TO.P,U2,36,VDD*
G04 #@! TO.N,+3V3*
X30032500Y19990000D03*
D22*
G04 #@! TO.P,U2,37,PA14*
G04 #@! TO.N,CLK*
X28620000Y21402500D03*
G04 #@! TO.P,U2,38,PA15*
G04 #@! TO.N,RENUM*
X28120000Y21402500D03*
G04 #@! TO.P,U2,39,PB3*
G04 #@! TO.N,unconnected-(U2-Pad39)*
X27620000Y21402500D03*
G04 #@! TO.P,U2,40,PB4*
G04 #@! TO.N,unconnected-(U2-Pad40)*
X27120000Y21402500D03*
G04 #@! TO.P,U2,41,PB5*
G04 #@! TO.N,unconnected-(U2-Pad41)*
X26620000Y21402500D03*
G04 #@! TO.P,U2,42,PB6*
G04 #@! TO.N,unconnected-(U2-Pad42)*
X26120000Y21402500D03*
G04 #@! TO.P,U2,43,PB7*
G04 #@! TO.N,unconnected-(U2-Pad43)*
X25620000Y21402500D03*
G04 #@! TO.P,U2,44,BOOT0*
G04 #@! TO.N,B0*
X25120000Y21402500D03*
G04 #@! TO.P,U2,45,PB8*
G04 #@! TO.N,unconnected-(U2-Pad45)*
X24620000Y21402500D03*
G04 #@! TO.P,U2,46,PB9*
G04 #@! TO.N,unconnected-(U2-Pad46)*
X24120000Y21402500D03*
G04 #@! TO.P,U2,47,VSS*
G04 #@! TO.N,GND*
X23620000Y21402500D03*
G04 #@! TO.P,U2,48,VDD*
G04 #@! TO.N,+3V3*
X23120000Y21402500D03*
G04 #@! TD*
D23*
G04 #@! TO.P,J1,1,VBUS*
G04 #@! TO.N,VBUS*
X37770000Y20740000D03*
G04 #@! TO.P,J1,2,D-*
G04 #@! TO.N,D-*
X37770000Y18240000D03*
G04 #@! TO.P,J1,3,D+*
G04 #@! TO.N,D+*
X37770000Y16240000D03*
G04 #@! TO.P,J1,4,GND*
G04 #@! TO.N,GND*
X37770000Y13740000D03*
D24*
G04 #@! TO.P,J1,5,Shield*
X39870000Y11390000D03*
X39870000Y23090000D03*
D25*
X39870000Y14940000D03*
X39870000Y19540000D03*
G04 #@! TD*
D16*
G04 #@! TO.P,C1,1*
G04 #@! TO.N,Net-(C1-Pad1)*
X20100000Y15990000D03*
G04 #@! TO.P,C1,2*
G04 #@! TO.N,GND*
X19140000Y15990000D03*
G04 #@! TD*
D13*
G04 #@! TO.P,R1,1*
G04 #@! TO.N,Net-(C1-Pad1)*
X18130000Y14740000D03*
G04 #@! TO.P,R1,2*
G04 #@! TO.N,+3V3*
X17110000Y14740000D03*
G04 #@! TD*
D26*
G04 #@! TO.P,R2,1*
G04 #@! TO.N,GND*
X26370000Y24250000D03*
G04 #@! TO.P,R2,2*
G04 #@! TO.N,B0*
X26370000Y23230000D03*
G04 #@! TD*
D27*
G04 #@! TO.P,R9,1*
G04 #@! TO.N,Net-(R9-Pad1)*
X30632000Y10464000D03*
G04 #@! TO.P,R9,2*
G04 #@! TO.N,T_DIO*
X30632000Y11484000D03*
G04 #@! TD*
D28*
G04 #@! TO.P,Q1,1,B*
G04 #@! TO.N,Net-(Q1-Pad1)*
X33982500Y13580000D03*
G04 #@! TO.P,Q1,2,E*
G04 #@! TO.N,Net-(Q1-Pad2)*
X33982500Y15480000D03*
G04 #@! TO.P,Q1,3,C*
G04 #@! TO.N,+3V3*
X32107500Y14530000D03*
G04 #@! TD*
D27*
G04 #@! TO.P,R4,1*
G04 #@! TO.N,Net-(Q1-Pad1)*
X35870000Y14730000D03*
G04 #@! TO.P,R4,2*
G04 #@! TO.N,+5V*
X35870000Y15750000D03*
G04 #@! TD*
G04 #@! TO.P,R5,1*
G04 #@! TO.N,GND*
X35870000Y12230000D03*
G04 #@! TO.P,R5,2*
G04 #@! TO.N,Net-(Q1-Pad1)*
X35870000Y13250000D03*
G04 #@! TD*
D26*
G04 #@! TO.P,R7,1*
G04 #@! TO.N,GND*
X24120000Y24250000D03*
G04 #@! TO.P,R7,2*
G04 #@! TO.N,Net-(R7-Pad2)*
X24120000Y23230000D03*
G04 #@! TD*
G04 #@! TO.P,R8,1*
G04 #@! TO.N,GND*
X22120000Y24250000D03*
G04 #@! TO.P,R8,2*
G04 #@! TO.N,Net-(R8-Pad2)*
X22120000Y23230000D03*
G04 #@! TD*
G04 #@! TO.P,R10,1*
G04 #@! TO.N,Net-(R10-Pad1)*
X24870000Y11500000D03*
G04 #@! TO.P,R10,2*
G04 #@! TO.N,Net-(JP1-Pad2)*
X24870000Y10480000D03*
G04 #@! TD*
D19*
G04 #@! TO.P,R6,1*
G04 #@! TO.N,RENUM*
X33360000Y11990000D03*
G04 #@! TO.P,R6,2*
G04 #@! TO.N,Net-(Q1-Pad1)*
X34380000Y11990000D03*
G04 #@! TD*
D29*
G04 #@! TO.P,Y1,1,1*
G04 #@! TO.N,Net-(C2-Pad1)*
X18620000Y21590000D03*
G04 #@! TO.P,Y1,2,2*
G04 #@! TO.N,Net-(C3-Pad1)*
X18620000Y17890000D03*
G04 #@! TD*
D13*
G04 #@! TO.P,R13,1*
G04 #@! TO.N,GND*
X16680000Y10490000D03*
G04 #@! TO.P,R13,2*
G04 #@! TO.N,Net-(D3-Pad1)*
X15660000Y10490000D03*
G04 #@! TD*
D27*
G04 #@! TO.P,R11,1*
G04 #@! TO.N,GND*
X23370000Y10480000D03*
G04 #@! TO.P,R11,2*
G04 #@! TO.N,Net-(R10-Pad1)*
X23370000Y11500000D03*
G04 #@! TD*
D30*
G04 #@! TO.P,J2,2,Pin_2*
G04 #@! TO.N,+3V3*
X13370000Y22320000D03*
G04 #@! TO.P,J2,4,Pin_4*
G04 #@! TO.N,GND*
X13370000Y19780000D03*
G04 #@! TO.P,J2,6,Pin_6*
G04 #@! TO.N,T_DIO*
X13370000Y17240000D03*
G04 #@! TO.P,J2,8,Pin_8*
G04 #@! TO.N,T_RST*
X13370000Y14700000D03*
G04 #@! TO.P,J2,10,Pin_10*
G04 #@! TO.N,T_RX*
X13370000Y12160000D03*
G04 #@! TD*
D31*
G04 #@! TO.N,GND*
X36220000Y22277000D03*
X41870000Y21240000D03*
X41870000Y17240000D03*
X37370000Y23240000D03*
X24270000Y17140000D03*
X41870000Y13040000D03*
X15970000Y13540000D03*
X17870000Y10490000D03*
X26695000Y10490000D03*
X25370000Y19490000D03*
X34797600Y17476400D03*
X32410000Y10720000D03*
X18620000Y15990000D03*
X22370000Y21990000D03*
X35069941Y21258606D03*
X24120000Y19490000D03*
X18620000Y19740000D03*
G04 #@! TO.N,+5V*
X13360000Y24055000D03*
X30870000Y22740000D03*
G04 #@! TO.N,+3V3*
X34315000Y20372000D03*
X16656622Y15239861D03*
X32620000Y13490000D03*
X15370000Y21490000D03*
X23570000Y16440000D03*
X22370000Y20740000D03*
X33045000Y20372000D03*
X22370000Y11740000D03*
X29235000Y11990000D03*
X15370000Y22490000D03*
G04 #@! TO.N,D-*
X31600000Y17880000D03*
G04 #@! TO.N,D+*
X32630000Y17880000D03*
G04 #@! TO.N,LED*
X19620000Y13490000D03*
X26470000Y14440000D03*
G04 #@! TO.N,T_DIO*
X16142402Y17990000D03*
X27870000Y15740000D03*
G04 #@! TO.N,T_CLK*
X28620000Y14990000D03*
G04 #@! TO.N,CLK*
X28870000Y22740000D03*
G04 #@! TO.N,T_RX*
X22120000Y13240000D03*
X13370000Y10740000D03*
G04 #@! TO.N,T_TX*
X21120000Y13240000D03*
G04 #@! TO.N,T_RST*
X16170000Y14540000D03*
X25370000Y14440000D03*
G04 #@! TO.N,T_SWO*
X24970000Y16440000D03*
G04 #@! TO.N,DIO*
X28270000Y19240000D03*
G04 #@! TO.N,B0*
X25370000Y22740000D03*
G04 #@! TO.N,RENUM*
X32370000Y11990000D03*
X26670000Y19840000D03*
G04 #@! TO.N,Net-(R10-Pad1)*
X23870000Y14440000D03*
X21870000Y10990000D03*
G04 #@! TO.N,Net-(JP1-Pad2)*
X25870000Y11240000D03*
G04 #@! TD*
D32*
G04 #@! TO.N,GND*
X19140000Y15990000D02*
X18620000Y15990000D01*
D33*
G04 #@! TO.N,+5V*
X31550000Y23420000D02*
X30870000Y22740000D01*
X31970000Y23420000D02*
X31550000Y23420000D01*
D34*
X35887500Y20372000D02*
X35887500Y21367075D01*
X34739375Y22515200D02*
X32874800Y22515200D01*
X35887500Y21367075D02*
X34739375Y22515200D01*
X35870000Y15750000D02*
X35870000Y17440000D01*
X32874800Y22515200D02*
X31970000Y23420000D01*
X35820000Y17490000D02*
X35820000Y20304500D01*
D32*
G04 #@! TO.N,+3V3*
X34315000Y20372000D02*
X34315000Y19724500D01*
X29215000Y12010000D02*
X28620000Y12010000D01*
X23120000Y21402500D02*
X23032500Y21402500D01*
X30120000Y20077500D02*
X30032500Y19990000D01*
X21707500Y15990000D02*
X20986746Y15990000D01*
X34315000Y20372000D02*
X33045000Y20372000D01*
X32120000Y19422000D02*
X31552000Y19990000D01*
X28620000Y12010000D02*
X28620000Y11474000D01*
X34315000Y19724500D02*
X34012500Y19422000D01*
X31552000Y19990000D02*
X30032500Y19990000D01*
X22120000Y11990000D02*
X22370000Y11740000D01*
X30120000Y21005000D02*
X30120000Y20077500D01*
X20105000Y15108254D02*
X20105000Y14740000D01*
X22105000Y21005000D02*
X22370000Y20740000D01*
X21707500Y19990000D02*
X21707500Y20077500D01*
X23120000Y15990000D02*
X21707500Y15990000D01*
X28620000Y11490000D02*
X28600000Y11470000D01*
X32107500Y14530000D02*
X32107500Y14002500D01*
X20986746Y15990000D02*
X20105000Y15108254D01*
X21620000Y21005000D02*
X22105000Y21005000D01*
X28620000Y13077500D02*
X28620000Y12010000D01*
X32120000Y19447000D02*
X33045000Y20372000D01*
X17110000Y14740000D02*
X16656622Y15193378D01*
X21355000Y11990000D02*
X22120000Y11990000D01*
D33*
X15370000Y22490000D02*
X13540000Y22490000D01*
D32*
X21707500Y20077500D02*
X22370000Y20740000D01*
X29235000Y11990000D02*
X29215000Y12010000D01*
X16656622Y15193378D02*
X16656622Y15239861D01*
X32107500Y14002500D02*
X32620000Y13490000D01*
X23570000Y16440000D02*
X23120000Y15990000D01*
D33*
X15370000Y22490000D02*
X15370000Y21490000D01*
D32*
X23032500Y21402500D02*
X22370000Y20740000D01*
X28620000Y11474000D02*
X28600000Y11454000D01*
D33*
G04 #@! TO.N,VBUS*
X35270000Y23240000D02*
X36370000Y23240000D01*
X36370000Y23240000D02*
X37770000Y21840000D01*
X37770000Y21840000D02*
X37770000Y20740000D01*
D32*
G04 #@! TO.N,D-*
X30032500Y17990000D02*
X31490000Y17990000D01*
X31490000Y17990000D02*
X31600000Y17880000D01*
G04 #@! TO.N,D+*
X32630000Y17880000D02*
X31955000Y18555000D01*
X32630000Y17040000D02*
X32630000Y17880000D01*
X31955000Y18555000D02*
X31205000Y18555000D01*
X31140000Y18490000D02*
X30032500Y18490000D01*
X31205000Y18555000D02*
X31140000Y18490000D01*
G04 #@! TO.N,Net-(D2-Pad2)*
X20385000Y11990000D02*
X18657500Y11990000D01*
G04 #@! TO.N,LED*
X26470000Y14440000D02*
X26470000Y16090000D01*
X26470000Y16090000D02*
X27370000Y16990000D01*
X27370000Y16990000D02*
X30032500Y16990000D01*
X17157500Y11990000D02*
X18657500Y13490000D01*
X19620000Y13490000D02*
X18657500Y13490000D01*
G04 #@! TO.N,Net-(D3-Pad1)*
X17082500Y13490000D02*
X16378290Y12785790D01*
X16378290Y11183290D02*
X15685000Y10490000D01*
X16378290Y12785790D02*
X16378290Y11183290D01*
G04 #@! TO.N,T_DIO*
X30632000Y12704580D02*
X31036710Y13109290D01*
X15472402Y17320000D02*
X16142402Y17990000D01*
X30770000Y15490000D02*
X31036710Y15223290D01*
X30632000Y11484000D02*
X30632000Y12704580D01*
X15472402Y17320000D02*
X13450000Y17320000D01*
X29061746Y15740000D02*
X29311746Y15490000D01*
X31036710Y15223290D02*
X31036710Y13109290D01*
X29311746Y15490000D02*
X30032500Y15490000D01*
X27870000Y15740000D02*
X29061746Y15740000D01*
X30032500Y15490000D02*
X30770000Y15490000D01*
G04 #@! TO.N,T_CLK*
X28620000Y14990000D02*
X30032500Y14990000D01*
G04 #@! TO.N,CLK*
X28620000Y21402500D02*
X28620000Y22490000D01*
X28620000Y22490000D02*
X28870000Y22740000D01*
G04 #@! TO.N,T_RX*
X22120000Y13240000D02*
X22957500Y13240000D01*
X22957500Y13240000D02*
X23120000Y13077500D01*
X13370000Y10740000D02*
X13370000Y12160000D01*
G04 #@! TO.N,T_TX*
X21707500Y14490000D02*
X21707500Y13827500D01*
X21707500Y13827500D02*
X21120000Y13240000D01*
G04 #@! TO.N,T_RST*
X25620000Y13077500D02*
X25620000Y14190000D01*
X16010000Y14700000D02*
X16170000Y14540000D01*
X13370000Y14700000D02*
X16010000Y14700000D01*
X25620000Y14190000D02*
X25370000Y14440000D01*
G04 #@! TO.N,T_SWO*
X30032500Y17490000D02*
X26620000Y17490000D01*
X25570000Y16440000D02*
X26620000Y17490000D01*
X24970000Y16440000D02*
X25570000Y16440000D01*
G04 #@! TO.N,DIO*
X28520000Y18990000D02*
X28270000Y19240000D01*
X30032500Y18990000D02*
X28520000Y18990000D01*
G04 #@! TO.N,B0*
X25120000Y22490000D02*
X25370000Y22740000D01*
X25120000Y21402500D02*
X25120000Y22490000D01*
X25860000Y23230000D02*
X25370000Y22740000D01*
X26370000Y23230000D02*
X25860000Y23230000D01*
G04 #@! TO.N,Net-(Q1-Pad2)*
X33170000Y15480000D02*
X31610000Y17040000D01*
X33982500Y15480000D02*
X33170000Y15480000D01*
G04 #@! TO.N,Net-(Q1-Pad1)*
X33982500Y13580000D02*
X33982500Y12387500D01*
X35870000Y14730000D02*
X35870000Y13250000D01*
X33982500Y12387500D02*
X34380000Y11990000D01*
X35540000Y13580000D02*
X35870000Y13250000D01*
X33982500Y13580000D02*
X35540000Y13580000D01*
G04 #@! TO.N,RENUM*
X27295000Y19840000D02*
X28120000Y20665000D01*
X26670000Y19840000D02*
X27295000Y19840000D01*
X28120000Y20665000D02*
X28120000Y21402500D01*
X32370000Y11990000D02*
X33360000Y11990000D01*
G04 #@! TO.N,Net-(C1-Pad1)*
X20100000Y15990000D02*
X19483298Y15373298D01*
X18763298Y15373298D02*
X18130000Y14740000D01*
X21707500Y16990000D02*
X20970000Y16990000D01*
X19483298Y15373298D02*
X18763298Y15373298D01*
X20970000Y16990000D02*
X20100000Y16120000D01*
G04 #@! TO.N,Net-(C2-Pad1)*
X18620000Y21590000D02*
X18620000Y22975000D01*
X21707500Y17990000D02*
X20970000Y17990000D01*
X18620000Y22975000D02*
X18105000Y23490000D01*
X20322279Y18637721D02*
X20322279Y19076807D01*
X20970000Y17990000D02*
X20322279Y18637721D01*
X20322279Y19076807D02*
X18620000Y20779086D01*
G04 #@! TO.N,Net-(C3-Pad1)*
X17135000Y16405000D02*
X18620000Y17890000D01*
X17135000Y15990000D02*
X17135000Y16405000D01*
X21707500Y17490000D02*
X19020000Y17490000D01*
G04 #@! TO.N,Net-(R7-Pad2)*
X22833290Y22693290D02*
X21432508Y22693290D01*
X20703290Y19773456D02*
X20703290Y21964072D01*
X23370000Y23230000D02*
X22833290Y22693290D01*
X21432508Y22693290D02*
X20703290Y21964072D01*
X20986746Y19490000D02*
X20703290Y19773456D01*
X23370000Y23230000D02*
X24120000Y23230000D01*
X21707500Y19490000D02*
X20986746Y19490000D01*
G04 #@! TO.N,Net-(R8-Pad2)*
X20947916Y18990000D02*
X20322279Y19615637D01*
X21110000Y23230000D02*
X22120000Y23230000D01*
X20322279Y19615637D02*
X20322279Y22442279D01*
X20322279Y22442279D02*
X21110000Y23230000D01*
X21707500Y18990000D02*
X20947916Y18990000D01*
G04 #@! TO.N,Net-(R9-Pad1)*
X30632000Y10464000D02*
X30032500Y11063500D01*
X30032500Y11063500D02*
X30032500Y14490000D01*
G04 #@! TO.N,Net-(R10-Pad1)*
X22782718Y11240000D02*
X22532718Y10990000D01*
X22532718Y10990000D02*
X21870000Y10990000D01*
X23370000Y11500000D02*
X24870000Y11500000D01*
X22820000Y15490000D02*
X23870000Y14440000D01*
X21707500Y15490000D02*
X22820000Y15490000D01*
X23110000Y11240000D02*
X22782718Y11240000D01*
X23370000Y11500000D02*
X23110000Y11240000D01*
G04 #@! TO.N,Net-(JP1-Pad2)*
X25630000Y11240000D02*
X24870000Y10480000D01*
X25870000Y11240000D02*
X25630000Y11240000D01*
G04 #@! TD*
G04 #@! TA.AperFunction,Conductor*
G04 #@! TO.N,GND*
G36*
X13049039Y24569507D02*
G01*
X13074759Y24524958D01*
X13065826Y24474300D01*
X13040828Y24448301D01*
X13035239Y24444775D01*
X13035235Y24444772D01*
X13030709Y24441916D01*
X13023550Y24433810D01*
X12938897Y24337959D01*
X12938895Y24337956D01*
X12935351Y24333943D01*
X12930614Y24323853D01*
X12877923Y24211626D01*
X12874129Y24203546D01*
X12873305Y24198256D01*
X12873305Y24198255D01*
X12873203Y24197599D01*
X12851967Y24061207D01*
X12852661Y24055900D01*
X12852661Y24055897D01*
X12855870Y24031361D01*
X12870645Y23918370D01*
X12928662Y23786516D01*
X12932107Y23782418D01*
X12932108Y23782416D01*
X12975799Y23730439D01*
X13021354Y23676245D01*
X13043830Y23661284D01*
X13134405Y23600993D01*
X13141270Y23596423D01*
X13278769Y23553465D01*
X13352871Y23552107D01*
X13417436Y23550923D01*
X13417438Y23550923D01*
X13422798Y23550825D01*
X13427969Y23552235D01*
X13427971Y23552235D01*
X13503695Y23572880D01*
X13561779Y23588715D01*
X13614871Y23621314D01*
X13670809Y23655659D01*
X16707600Y23655659D01*
X16711297Y23645502D01*
X16716669Y23642400D01*
X16974341Y23642400D01*
X16984498Y23646097D01*
X16987600Y23651469D01*
X16987600Y23939140D01*
X16983903Y23949297D01*
X16978531Y23952399D01*
X16958773Y23952399D01*
X16954356Y23952137D01*
X16936663Y23950033D01*
X16925908Y23947077D01*
X16837856Y23907966D01*
X16826612Y23900238D01*
X16759463Y23832972D01*
X16751750Y23821707D01*
X16712800Y23733605D01*
X16709858Y23722814D01*
X16707852Y23705608D01*
X16707600Y23701269D01*
X16707600Y23655659D01*
X13670809Y23655659D01*
X13679970Y23661284D01*
X13679973Y23661286D01*
X13684539Y23664090D01*
X13781210Y23770890D01*
X13786795Y23782416D01*
X13841682Y23895704D01*
X13841682Y23895705D01*
X13844020Y23900530D01*
X13867919Y24042587D01*
X13868071Y24055000D01*
X13867571Y24058492D01*
X13848409Y24192296D01*
X13848408Y24192300D01*
X13847649Y24197599D01*
X13844697Y24204093D01*
X13790245Y24323853D01*
X13788026Y24328734D01*
X13783538Y24333943D01*
X13697487Y24433810D01*
X13697484Y24433813D01*
X13693993Y24437864D01*
X13689502Y24440775D01*
X13677127Y24448796D01*
X13646134Y24489851D01*
X13648781Y24541223D01*
X13683830Y24578874D01*
X13718029Y24587100D01*
X18239409Y24587100D01*
X18287747Y24569507D01*
X18313467Y24524958D01*
X18313684Y24500140D01*
X18312078Y24490000D01*
X18332043Y24363945D01*
X18389984Y24250229D01*
X18480229Y24159984D01*
X18485505Y24157296D01*
X18485506Y24157295D01*
X18527652Y24135821D01*
X18593945Y24102043D01*
X18599792Y24101117D01*
X18685374Y24087562D01*
X18685376Y24087562D01*
X18688292Y24087100D01*
X18751708Y24087100D01*
X18754624Y24087562D01*
X18754626Y24087562D01*
X18840208Y24101117D01*
X18846055Y24102043D01*
X18912348Y24135821D01*
X18954494Y24157295D01*
X18954495Y24157296D01*
X18959771Y24159984D01*
X18997833Y24198046D01*
X19044453Y24219786D01*
X19094140Y24206472D01*
X19123645Y24164335D01*
X19125281Y24156637D01*
X19129463Y24130234D01*
X19132043Y24113945D01*
X19146375Y24085817D01*
X19179421Y24020961D01*
X19189984Y24000229D01*
X19280229Y23909984D01*
X19285505Y23907296D01*
X19285506Y23907295D01*
X19303963Y23897891D01*
X19393945Y23852043D01*
X19399792Y23851117D01*
X19485374Y23837562D01*
X19485376Y23837562D01*
X19488292Y23837100D01*
X19551708Y23837100D01*
X19554624Y23837562D01*
X19554626Y23837562D01*
X19640208Y23851117D01*
X19646055Y23852043D01*
X19736037Y23897891D01*
X19754494Y23907295D01*
X19754495Y23907296D01*
X19759771Y23909984D01*
X19816826Y23967039D01*
X19863446Y23988779D01*
X19913133Y23975465D01*
X19923174Y23967039D01*
X19980229Y23909984D01*
X19985505Y23907296D01*
X19985506Y23907295D01*
X20003963Y23897891D01*
X20093945Y23852043D01*
X20099792Y23851117D01*
X20185374Y23837562D01*
X20185376Y23837562D01*
X20188292Y23837100D01*
X20251708Y23837100D01*
X20254624Y23837562D01*
X20254626Y23837562D01*
X20340208Y23851117D01*
X20346055Y23852043D01*
X20436037Y23897891D01*
X20454494Y23907295D01*
X20454495Y23907296D01*
X20459771Y23909984D01*
X20550016Y24000229D01*
X20560580Y24020961D01*
X20587875Y24074532D01*
X21647600Y24074532D01*
X21647863Y24070090D01*
X21649915Y24052845D01*
X21652873Y24042085D01*
X21691227Y23955737D01*
X21698955Y23944493D01*
X21764902Y23878660D01*
X21776166Y23870948D01*
X21862572Y23832748D01*
X21873352Y23829810D01*
X21890142Y23827852D01*
X21894480Y23827600D01*
X21954341Y23827600D01*
X21964498Y23831297D01*
X21967600Y23836669D01*
X21967600Y23840859D01*
X22272400Y23840859D01*
X22276097Y23830702D01*
X22281469Y23827600D01*
X22345468Y23827600D01*
X22349910Y23827863D01*
X22367155Y23829915D01*
X22377915Y23832873D01*
X22464263Y23871227D01*
X22475507Y23878955D01*
X22541340Y23944902D01*
X22549052Y23956166D01*
X22587252Y24042572D01*
X22590190Y24053352D01*
X22592148Y24070142D01*
X22592400Y24074480D01*
X22592400Y24074532D01*
X23647600Y24074532D01*
X23647863Y24070090D01*
X23649915Y24052845D01*
X23652873Y24042085D01*
X23691227Y23955737D01*
X23698955Y23944493D01*
X23764902Y23878660D01*
X23776166Y23870948D01*
X23862572Y23832748D01*
X23873352Y23829810D01*
X23890142Y23827852D01*
X23894480Y23827600D01*
X23954341Y23827600D01*
X23964498Y23831297D01*
X23967600Y23836669D01*
X23967600Y23840859D01*
X24272400Y23840859D01*
X24276097Y23830702D01*
X24281469Y23827600D01*
X24345468Y23827600D01*
X24349910Y23827863D01*
X24367155Y23829915D01*
X24377915Y23832873D01*
X24464263Y23871227D01*
X24475507Y23878955D01*
X24541340Y23944902D01*
X24549052Y23956166D01*
X24587252Y24042572D01*
X24590190Y24053352D01*
X24592148Y24070142D01*
X24592400Y24074480D01*
X24592400Y24074532D01*
X25897600Y24074532D01*
X25897863Y24070090D01*
X25899915Y24052845D01*
X25902873Y24042085D01*
X25941227Y23955737D01*
X25948955Y23944493D01*
X26014902Y23878660D01*
X26026166Y23870948D01*
X26112572Y23832748D01*
X26123352Y23829810D01*
X26140142Y23827852D01*
X26144480Y23827600D01*
X26204341Y23827600D01*
X26214498Y23831297D01*
X26217600Y23836669D01*
X26217600Y23840859D01*
X26522400Y23840859D01*
X26526097Y23830702D01*
X26531469Y23827600D01*
X26595468Y23827600D01*
X26599910Y23827863D01*
X26617155Y23829915D01*
X26627915Y23832873D01*
X26714263Y23871227D01*
X26725507Y23878955D01*
X26791340Y23944902D01*
X26799052Y23956166D01*
X26837252Y24042572D01*
X26840190Y24053352D01*
X26842148Y24070142D01*
X26842400Y24074480D01*
X26842400Y24084341D01*
X26838703Y24094498D01*
X26833331Y24097600D01*
X26535659Y24097600D01*
X26525502Y24093903D01*
X26522400Y24088531D01*
X26522400Y23840859D01*
X26217600Y23840859D01*
X26217600Y24084341D01*
X26213903Y24094498D01*
X26208531Y24097600D01*
X25910859Y24097600D01*
X25900702Y24093903D01*
X25897600Y24088531D01*
X25897600Y24074532D01*
X24592400Y24074532D01*
X24592400Y24084341D01*
X24588703Y24094498D01*
X24583331Y24097600D01*
X24285659Y24097600D01*
X24275502Y24093903D01*
X24272400Y24088531D01*
X24272400Y23840859D01*
X23967600Y23840859D01*
X23967600Y24084341D01*
X23963903Y24094498D01*
X23958531Y24097600D01*
X23660859Y24097600D01*
X23650702Y24093903D01*
X23647600Y24088531D01*
X23647600Y24074532D01*
X22592400Y24074532D01*
X22592400Y24084341D01*
X22588703Y24094498D01*
X22583331Y24097600D01*
X22285659Y24097600D01*
X22275502Y24093903D01*
X22272400Y24088531D01*
X22272400Y23840859D01*
X21967600Y23840859D01*
X21967600Y24084341D01*
X21963903Y24094498D01*
X21958531Y24097600D01*
X21660859Y24097600D01*
X21650702Y24093903D01*
X21647600Y24088531D01*
X21647600Y24074532D01*
X20587875Y24074532D01*
X20593625Y24085817D01*
X20607957Y24113945D01*
X20610537Y24130234D01*
X20614719Y24156637D01*
X20639658Y24201627D01*
X20687681Y24220061D01*
X20736318Y24203313D01*
X20742167Y24198046D01*
X20780229Y24159984D01*
X20785505Y24157296D01*
X20785506Y24157295D01*
X20827652Y24135821D01*
X20893945Y24102043D01*
X20899792Y24101117D01*
X20985374Y24087562D01*
X20985376Y24087562D01*
X20988292Y24087100D01*
X21051708Y24087100D01*
X21054624Y24087562D01*
X21054626Y24087562D01*
X21140208Y24101117D01*
X21146055Y24102043D01*
X21212348Y24135821D01*
X21254494Y24157295D01*
X21254495Y24157296D01*
X21259771Y24159984D01*
X21350016Y24250229D01*
X21407957Y24363945D01*
X21427922Y24490000D01*
X21426316Y24500139D01*
X21436133Y24550633D01*
X21476111Y24583004D01*
X21500591Y24587100D01*
X21594609Y24587100D01*
X21642947Y24569507D01*
X21668667Y24524958D01*
X21663387Y24481493D01*
X21652749Y24457431D01*
X21649810Y24446648D01*
X21647852Y24429858D01*
X21647600Y24425520D01*
X21647600Y24415659D01*
X21651297Y24405502D01*
X21656669Y24402400D01*
X22579141Y24402400D01*
X22589298Y24406097D01*
X22592400Y24411469D01*
X22592400Y24425468D01*
X22592137Y24429910D01*
X22590085Y24447155D01*
X22587128Y24457912D01*
X22576707Y24481374D01*
X22573164Y24532692D01*
X22603437Y24574281D01*
X22645433Y24587100D01*
X23594609Y24587100D01*
X23642947Y24569507D01*
X23668667Y24524958D01*
X23663387Y24481493D01*
X23652749Y24457431D01*
X23649810Y24446648D01*
X23647852Y24429858D01*
X23647600Y24425520D01*
X23647600Y24415659D01*
X23651297Y24405502D01*
X23656669Y24402400D01*
X24579141Y24402400D01*
X24589298Y24406097D01*
X24592400Y24411469D01*
X24592400Y24425468D01*
X24592137Y24429910D01*
X24590085Y24447155D01*
X24587128Y24457912D01*
X24576707Y24481374D01*
X24573164Y24532692D01*
X24603437Y24574281D01*
X24645433Y24587100D01*
X25844609Y24587100D01*
X25892947Y24569507D01*
X25918667Y24524958D01*
X25913387Y24481493D01*
X25902749Y24457431D01*
X25899810Y24446648D01*
X25897852Y24429858D01*
X25897600Y24425520D01*
X25897600Y24415659D01*
X25901297Y24405502D01*
X25906669Y24402400D01*
X26829141Y24402400D01*
X26839298Y24406097D01*
X26842400Y24411469D01*
X26842400Y24425468D01*
X26842137Y24429910D01*
X26840085Y24447155D01*
X26837128Y24457912D01*
X26826707Y24481374D01*
X26823164Y24532692D01*
X26853437Y24574281D01*
X26895433Y24587100D01*
X35739409Y24587100D01*
X35787747Y24569507D01*
X35813467Y24524958D01*
X35813684Y24500140D01*
X35812078Y24490000D01*
X35832043Y24363945D01*
X35834730Y24358672D01*
X35834730Y24358671D01*
X35883638Y24262683D01*
X35889907Y24211626D01*
X35861890Y24168485D01*
X35812698Y24153446D01*
X35787854Y24159068D01*
X35785820Y24159910D01*
X35779658Y24164028D01*
X35735057Y24172900D01*
X35270063Y24172900D01*
X34804944Y24172899D01*
X34760342Y24164028D01*
X34709766Y24130234D01*
X34705652Y24124077D01*
X34680945Y24087100D01*
X34675972Y24079658D01*
X34667100Y24035057D01*
X34667101Y23432876D01*
X34667101Y22895700D01*
X34649508Y22847362D01*
X34604959Y22821642D01*
X34591901Y22820500D01*
X33032407Y22820500D01*
X32984069Y22838093D01*
X32979233Y22842526D01*
X32594926Y23226834D01*
X32573186Y23273454D01*
X32572900Y23280008D01*
X32572899Y24031359D01*
X32572899Y24035056D01*
X32564028Y24079658D01*
X32530234Y24130234D01*
X32495495Y24153446D01*
X32485817Y24159913D01*
X32485816Y24159914D01*
X32479658Y24164028D01*
X32435057Y24172900D01*
X31970063Y24172900D01*
X31504944Y24172899D01*
X31460342Y24164028D01*
X31409766Y24130234D01*
X31405652Y24124077D01*
X31380945Y24087100D01*
X31375972Y24079658D01*
X31367100Y24035057D01*
X31367100Y23754342D01*
X31349507Y23706004D01*
X31336334Y23694952D01*
X31336600Y23694635D01*
X31331564Y23690409D01*
X31325862Y23687117D01*
X31298691Y23654736D01*
X31294259Y23649900D01*
X30909420Y23265061D01*
X30862800Y23243321D01*
X30855787Y23243036D01*
X30836120Y23243156D01*
X30801047Y23243370D01*
X30795897Y23241898D01*
X30795896Y23241898D01*
X30740367Y23226028D01*
X30662539Y23203785D01*
X30658013Y23200929D01*
X30658010Y23200928D01*
X30552556Y23134391D01*
X30540709Y23126916D01*
X30533550Y23118810D01*
X30448897Y23022959D01*
X30448895Y23022956D01*
X30445351Y23018943D01*
X30440921Y23009508D01*
X30387414Y22895542D01*
X30384129Y22888546D01*
X30383305Y22883256D01*
X30383305Y22883255D01*
X30381056Y22868810D01*
X30361967Y22746207D01*
X30362661Y22740900D01*
X30362661Y22740897D01*
X30364098Y22729912D01*
X30380645Y22603370D01*
X30423525Y22505917D01*
X30426890Y22454589D01*
X30396473Y22413106D01*
X30345986Y22400938D01*
X30335608Y22402148D01*
X30331269Y22402400D01*
X30285659Y22402400D01*
X30275502Y22398703D01*
X30272400Y22393331D01*
X30272400Y22135659D01*
X30276097Y22125502D01*
X30281469Y22122400D01*
X30569140Y22122400D01*
X30579297Y22126097D01*
X30582399Y22131469D01*
X30582399Y22151227D01*
X30582137Y22155644D01*
X30580034Y22173332D01*
X30577334Y22183154D01*
X30581488Y22234426D01*
X30617626Y22271032D01*
X30672270Y22274862D01*
X30680451Y22272306D01*
X30788769Y22238465D01*
X30862871Y22237107D01*
X30927436Y22235923D01*
X30927438Y22235923D01*
X30932798Y22235825D01*
X30937969Y22237235D01*
X30937971Y22237235D01*
X31013695Y22257880D01*
X31071779Y22273715D01*
X31163481Y22330020D01*
X31189970Y22346284D01*
X31189973Y22346286D01*
X31194539Y22349090D01*
X31291210Y22455890D01*
X31294984Y22463678D01*
X31351682Y22580704D01*
X31351682Y22580705D01*
X31354020Y22585530D01*
X31354909Y22590813D01*
X31354910Y22590817D01*
X31359746Y22619566D01*
X31385115Y22664316D01*
X31433313Y22682289D01*
X31458122Y22677455D01*
X31460342Y22675972D01*
X31504943Y22667100D01*
X31588337Y22667100D01*
X32259992Y22667101D01*
X32308330Y22649508D01*
X32313166Y22645075D01*
X32619718Y22338523D01*
X32623362Y22334302D01*
X32625455Y22330020D01*
X32630544Y22325299D01*
X32630545Y22325298D01*
X32662655Y22295512D01*
X32664687Y22293554D01*
X32678997Y22279244D01*
X32681858Y22277282D01*
X32684523Y22275067D01*
X32684405Y22274925D01*
X32687635Y22272340D01*
X32708837Y22252672D01*
X32715284Y22250100D01*
X32715287Y22250098D01*
X32722324Y22247291D01*
X32736994Y22239458D01*
X32748968Y22231244D01*
X32755721Y22229641D01*
X32755722Y22229641D01*
X32777111Y22224565D01*
X32787602Y22221247D01*
X32814473Y22210527D01*
X32820868Y22209900D01*
X32830106Y22209900D01*
X32847471Y22207868D01*
X32859627Y22204983D01*
X32890708Y22209213D01*
X32900847Y22209900D01*
X34581768Y22209900D01*
X34630106Y22192307D01*
X34634942Y22187874D01*
X35560174Y21262641D01*
X35581914Y21216021D01*
X35582200Y21209467D01*
X35582200Y20900100D01*
X35564607Y20851762D01*
X35520058Y20826042D01*
X35507000Y20824900D01*
X35254996Y20824900D01*
X35252789Y20824637D01*
X35252782Y20824637D01*
X35234191Y20822425D01*
X35234189Y20822424D01*
X35228588Y20821758D01*
X35125464Y20775952D01*
X35106088Y20756542D01*
X35058000Y20708370D01*
X35045744Y20696093D01*
X35042937Y20689743D01*
X35042936Y20689742D01*
X35023474Y20645720D01*
X35000118Y20592889D01*
X34999463Y20587271D01*
X34998307Y20577352D01*
X34997100Y20567004D01*
X34997100Y20176996D01*
X34997363Y20174789D01*
X34997363Y20174782D01*
X34999575Y20156191D01*
X35000242Y20150588D01*
X35046048Y20047464D01*
X35050959Y20042562D01*
X35120683Y19972959D01*
X35125907Y19967744D01*
X35132257Y19964937D01*
X35132258Y19964936D01*
X35175353Y19945884D01*
X35229111Y19922118D01*
X35234729Y19921463D01*
X35252834Y19919352D01*
X35252835Y19919352D01*
X35254996Y19919100D01*
X35439500Y19919100D01*
X35487838Y19901507D01*
X35513558Y19856958D01*
X35514700Y19843900D01*
X35514700Y18428390D01*
X35497107Y18380052D01*
X35455211Y18356349D01*
X35455418Y18355711D01*
X35452281Y18354692D01*
X35451263Y18354116D01*
X35449791Y18353883D01*
X35449790Y18353883D01*
X35443945Y18352957D01*
X35438674Y18350271D01*
X35438673Y18350271D01*
X35343208Y18301629D01*
X35330229Y18295016D01*
X35239984Y18204771D01*
X35182043Y18091055D01*
X35181117Y18085208D01*
X35168312Y18004358D01*
X35167100Y17996708D01*
X35167100Y16983292D01*
X35167562Y16980376D01*
X35167562Y16980374D01*
X35168738Y16972952D01*
X35182043Y16888945D01*
X35239984Y16775229D01*
X35330229Y16684984D01*
X35443945Y16627043D01*
X35501264Y16617965D01*
X35546254Y16593027D01*
X35564700Y16543691D01*
X35564700Y16195510D01*
X35547107Y16147172D01*
X35530246Y16134480D01*
X35531175Y16133128D01*
X35525451Y16129194D01*
X35519107Y16126376D01*
X35490046Y16097264D01*
X35448652Y16055797D01*
X35443335Y16050471D01*
X35440528Y16044121D01*
X35440527Y16044120D01*
X35427253Y16014095D01*
X35399969Y15952379D01*
X35399314Y15946761D01*
X35397669Y15932648D01*
X35397100Y15927772D01*
X35397100Y15572228D01*
X35400087Y15547124D01*
X35443624Y15449107D01*
X35448535Y15444205D01*
X35448536Y15444203D01*
X35514615Y15378240D01*
X35519529Y15373335D01*
X35525879Y15370528D01*
X35525880Y15370527D01*
X35574370Y15349090D01*
X35617621Y15329969D01*
X35623239Y15329314D01*
X35640066Y15327352D01*
X35640067Y15327352D01*
X35642228Y15327100D01*
X36097772Y15327100D01*
X36099979Y15327363D01*
X36099986Y15327363D01*
X36117270Y15329420D01*
X36122876Y15330087D01*
X36220893Y15373624D01*
X36225795Y15378535D01*
X36225797Y15378536D01*
X36291760Y15444615D01*
X36291761Y15444616D01*
X36296665Y15449529D01*
X36306386Y15471516D01*
X36337743Y15542446D01*
X36340031Y15547621D01*
X36342900Y15572228D01*
X36342900Y15927772D01*
X36342585Y15930425D01*
X36340580Y15947270D01*
X36339913Y15952876D01*
X36296376Y16050893D01*
X36291465Y16055795D01*
X36291464Y16055797D01*
X36225385Y16121760D01*
X36225384Y16121761D01*
X36220471Y16126665D01*
X36214120Y16129473D01*
X36208393Y16133394D01*
X36210326Y16136218D01*
X36183005Y16162451D01*
X36175300Y16195610D01*
X36175300Y16254772D01*
X36712108Y16254772D01*
X36712416Y16251104D01*
X36712416Y16251101D01*
X36728014Y16065346D01*
X36729386Y16049012D01*
X36762681Y15932900D01*
X36779454Y15874406D01*
X36786301Y15850526D01*
X36880685Y15666875D01*
X36882970Y15663992D01*
X36887714Y15658006D01*
X37008942Y15505055D01*
X37011736Y15502677D01*
X37011737Y15502676D01*
X37079959Y15444615D01*
X37166188Y15371228D01*
X37169389Y15369439D01*
X37169392Y15369437D01*
X37240013Y15329969D01*
X37346433Y15270493D01*
X37349934Y15269356D01*
X37349935Y15269355D01*
X37351203Y15268943D01*
X37542811Y15206686D01*
X37655644Y15193231D01*
X37744185Y15182673D01*
X37744187Y15182673D01*
X37747843Y15182237D01*
X37953719Y15198078D01*
X38093963Y15237235D01*
X38149052Y15252616D01*
X38149054Y15252617D01*
X38152597Y15253606D01*
X38263593Y15309674D01*
X38333618Y15345046D01*
X38333619Y15345047D01*
X38336902Y15346705D01*
X38476652Y15455890D01*
X38496715Y15471565D01*
X38499614Y15473830D01*
X38634535Y15630137D01*
X38662451Y15679278D01*
X38734711Y15806478D01*
X38734712Y15806479D01*
X38736527Y15809675D01*
X38775474Y15926755D01*
X39102185Y15926755D01*
X39102512Y15923014D01*
X39860623Y15164903D01*
X39870422Y15160334D01*
X39876413Y15161939D01*
X40633100Y15918626D01*
X40637669Y15928425D01*
X40636698Y15932050D01*
X40501282Y16026869D01*
X40495615Y16030141D01*
X40302961Y16119978D01*
X40296810Y16122217D01*
X40091479Y16177235D01*
X40085037Y16178371D01*
X39873269Y16196898D01*
X39866731Y16196898D01*
X39654963Y16178371D01*
X39648521Y16177235D01*
X39443190Y16122217D01*
X39437039Y16119978D01*
X39244385Y16030141D01*
X39238718Y16026869D01*
X39108385Y15935608D01*
X39102185Y15926755D01*
X38775474Y15926755D01*
X38801703Y16005603D01*
X38808358Y16058277D01*
X38822164Y16167564D01*
X38827583Y16210459D01*
X38827890Y16232451D01*
X38827966Y16237901D01*
X38827966Y16237906D01*
X38827995Y16240000D01*
X38827364Y16246440D01*
X38808206Y16441832D01*
X38808205Y16441837D01*
X38807846Y16445499D01*
X38748165Y16643171D01*
X38651227Y16825485D01*
X38641342Y16837606D01*
X38523045Y16982651D01*
X38523044Y16982652D01*
X38520722Y16985499D01*
X38361623Y17117118D01*
X38343364Y17126991D01*
X38282159Y17160084D01*
X38256689Y17173856D01*
X38222538Y17212322D01*
X38221102Y17263742D01*
X38253053Y17304055D01*
X38258551Y17307127D01*
X38333618Y17345046D01*
X38333619Y17345047D01*
X38336902Y17346705D01*
X38499614Y17473830D01*
X38634535Y17630137D01*
X38661660Y17677886D01*
X38734711Y17806478D01*
X38734712Y17806479D01*
X38736527Y17809675D01*
X38801703Y18005603D01*
X38827583Y18210459D01*
X38827995Y18240000D01*
X38826151Y18258810D01*
X38808206Y18441832D01*
X38808205Y18441837D01*
X38807846Y18445499D01*
X38775820Y18551575D01*
X39102331Y18551575D01*
X39103302Y18547950D01*
X39238718Y18453131D01*
X39244385Y18449859D01*
X39437039Y18360022D01*
X39443190Y18357783D01*
X39648521Y18302765D01*
X39654963Y18301629D01*
X39866731Y18283102D01*
X39873269Y18283102D01*
X40085037Y18301629D01*
X40091479Y18302765D01*
X40296810Y18357783D01*
X40302961Y18360022D01*
X40495615Y18449859D01*
X40501282Y18453131D01*
X40631615Y18544392D01*
X40637815Y18553245D01*
X40637488Y18556986D01*
X39879377Y19315097D01*
X39869578Y19319666D01*
X39863587Y19318061D01*
X39106900Y18561374D01*
X39102331Y18551575D01*
X38775820Y18551575D01*
X38748165Y18643171D01*
X38651227Y18825485D01*
X38634354Y18846174D01*
X38523045Y18982651D01*
X38523044Y18982652D01*
X38520722Y18985499D01*
X38361623Y19117118D01*
X38324161Y19137374D01*
X38261464Y19171274D01*
X38179990Y19215327D01*
X37982739Y19276386D01*
X37825625Y19292899D01*
X37781041Y19297585D01*
X37781039Y19297585D01*
X37777386Y19297969D01*
X37571752Y19279255D01*
X37501195Y19258489D01*
X37377197Y19221995D01*
X37377194Y19221994D01*
X37373668Y19220956D01*
X37370411Y19219253D01*
X37370408Y19219252D01*
X37193940Y19126996D01*
X37190681Y19125292D01*
X37187815Y19122987D01*
X37187814Y19122987D01*
X37057296Y19018048D01*
X37029760Y18995909D01*
X37027398Y18993094D01*
X36900771Y18842185D01*
X36897034Y18837732D01*
X36797559Y18656789D01*
X36735125Y18459970D01*
X36712108Y18254772D01*
X36712416Y18251104D01*
X36712416Y18251101D01*
X36726360Y18085051D01*
X36729386Y18049012D01*
X36786301Y17850526D01*
X36787983Y17847254D01*
X36787983Y17847253D01*
X36796488Y17830704D01*
X36880685Y17666875D01*
X37008942Y17505055D01*
X37011736Y17502677D01*
X37011737Y17502676D01*
X37109658Y17419339D01*
X37166188Y17371228D01*
X37169389Y17369439D01*
X37169392Y17369437D01*
X37283988Y17305392D01*
X37317600Y17266452D01*
X37318318Y17215017D01*
X37282143Y17173108D01*
X37190681Y17125292D01*
X37187815Y17122987D01*
X37187814Y17122987D01*
X37067109Y17025938D01*
X37029760Y16995909D01*
X36897034Y16837732D01*
X36895263Y16834510D01*
X36895262Y16834509D01*
X36890301Y16825485D01*
X36797559Y16656789D01*
X36735125Y16459970D01*
X36712108Y16254772D01*
X36175300Y16254772D01*
X36175300Y16570385D01*
X36192893Y16618723D01*
X36216360Y16637389D01*
X36221485Y16640000D01*
X36260517Y16659888D01*
X36304494Y16682295D01*
X36304495Y16682296D01*
X36309771Y16684984D01*
X36400016Y16775229D01*
X36457957Y16888945D01*
X36471262Y16972952D01*
X36472438Y16980374D01*
X36472438Y16980376D01*
X36472900Y16983292D01*
X36472900Y17996708D01*
X36471689Y18004358D01*
X36458883Y18085208D01*
X36457957Y18091055D01*
X36400016Y18204771D01*
X36309771Y18295016D01*
X36296793Y18301629D01*
X36201327Y18350271D01*
X36201326Y18350271D01*
X36196055Y18352957D01*
X36190210Y18353883D01*
X36190209Y18353883D01*
X36188737Y18354116D01*
X36187669Y18354708D01*
X36184582Y18355711D01*
X36184777Y18356311D01*
X36143746Y18379054D01*
X36125300Y18428390D01*
X36125300Y19843900D01*
X36142893Y19892238D01*
X36187442Y19917958D01*
X36200500Y19919100D01*
X36520004Y19919100D01*
X36522211Y19919363D01*
X36522218Y19919363D01*
X36540809Y19921575D01*
X36540811Y19921576D01*
X36546412Y19922242D01*
X36649536Y19968048D01*
X36702708Y20021313D01*
X36724351Y20042993D01*
X36724352Y20042994D01*
X36729256Y20047907D01*
X36741190Y20074900D01*
X36766884Y20133020D01*
X36802520Y20170116D01*
X36853663Y20175627D01*
X36894596Y20149323D01*
X36956821Y20070815D01*
X37008942Y20005055D01*
X37011736Y20002677D01*
X37011737Y20002676D01*
X37117104Y19913002D01*
X37166188Y19871228D01*
X37169389Y19869439D01*
X37169392Y19869437D01*
X37241632Y19829064D01*
X37346433Y19770493D01*
X37349934Y19769356D01*
X37349935Y19769355D01*
X37374175Y19761479D01*
X37542811Y19706686D01*
X37614999Y19698078D01*
X37744185Y19682673D01*
X37744187Y19682673D01*
X37747843Y19682237D01*
X37953719Y19698078D01*
X38073757Y19731593D01*
X38149052Y19752616D01*
X38149054Y19752617D01*
X38152597Y19753606D01*
X38295818Y19825952D01*
X38333618Y19845046D01*
X38333619Y19845047D01*
X38336902Y19846705D01*
X38499614Y19973830D01*
X38561667Y20045719D01*
X38606570Y20070815D01*
X38657099Y20061176D01*
X38689610Y20021313D01*
X38689257Y19970859D01*
X38687783Y19966810D01*
X38632765Y19761479D01*
X38631629Y19755037D01*
X38613102Y19543269D01*
X38613102Y19536731D01*
X38631629Y19324963D01*
X38632765Y19318521D01*
X38687783Y19113190D01*
X38690022Y19107039D01*
X38779859Y18914385D01*
X38783131Y18908718D01*
X38874392Y18778385D01*
X38883245Y18772185D01*
X38886986Y18772512D01*
X39645097Y19530623D01*
X39649272Y19539578D01*
X40090334Y19539578D01*
X40091939Y19533587D01*
X40848626Y18776900D01*
X40858425Y18772331D01*
X40862050Y18773302D01*
X40956869Y18908718D01*
X40960141Y18914385D01*
X41049978Y19107039D01*
X41052217Y19113190D01*
X41107235Y19318521D01*
X41108371Y19324963D01*
X41126898Y19536731D01*
X41126898Y19543269D01*
X41108371Y19755037D01*
X41107235Y19761479D01*
X41052217Y19966810D01*
X41049978Y19972961D01*
X40960141Y20165615D01*
X40956869Y20171282D01*
X40865608Y20301615D01*
X40856755Y20307815D01*
X40853014Y20307488D01*
X40094903Y19549377D01*
X40090334Y19539578D01*
X39649272Y19539578D01*
X39649666Y19540422D01*
X39648061Y19546413D01*
X38891374Y20303100D01*
X38881575Y20307669D01*
X38858328Y20301440D01*
X38857753Y20303587D01*
X38842929Y20296674D01*
X38793242Y20309988D01*
X38763737Y20352125D01*
X38765019Y20395324D01*
X38800543Y20502114D01*
X38800544Y20502120D01*
X38801703Y20505603D01*
X38802601Y20512707D01*
X38804376Y20526755D01*
X39102185Y20526755D01*
X39102512Y20523014D01*
X39860623Y19764903D01*
X39870422Y19760334D01*
X39876413Y19761939D01*
X40633100Y20518626D01*
X40637669Y20528425D01*
X40636698Y20532050D01*
X40501282Y20626869D01*
X40495615Y20630141D01*
X40302961Y20719978D01*
X40296810Y20722217D01*
X40091479Y20777235D01*
X40085037Y20778371D01*
X39873269Y20796898D01*
X39866731Y20796898D01*
X39654963Y20778371D01*
X39648521Y20777235D01*
X39443190Y20722217D01*
X39437039Y20719978D01*
X39244385Y20630141D01*
X39238718Y20626869D01*
X39108385Y20535608D01*
X39102185Y20526755D01*
X38804376Y20526755D01*
X38822421Y20669600D01*
X38827583Y20710459D01*
X38827995Y20740000D01*
X38827474Y20745313D01*
X38808206Y20941832D01*
X38808205Y20941837D01*
X38807846Y20945499D01*
X38748165Y21143171D01*
X38651227Y21325485D01*
X38648652Y21328643D01*
X38523045Y21482651D01*
X38523044Y21482652D01*
X38520722Y21485499D01*
X38361623Y21617118D01*
X38342800Y21627296D01*
X38302740Y21648956D01*
X38179990Y21715327D01*
X38166364Y21719545D01*
X38125390Y21750644D01*
X38113400Y21791382D01*
X38113400Y21821730D01*
X38113686Y21828284D01*
X38116797Y21863837D01*
X38116797Y21863839D01*
X38117370Y21870391D01*
X38115219Y21878420D01*
X38106427Y21911235D01*
X38105008Y21917637D01*
X38102145Y21933871D01*
X38097668Y21959261D01*
X38094378Y21964960D01*
X38093213Y21968160D01*
X38089165Y21977935D01*
X38087729Y21981015D01*
X38086027Y21987366D01*
X38082254Y21992754D01*
X38082253Y21992757D01*
X38061778Y22022000D01*
X38058255Y22027529D01*
X38040407Y22058441D01*
X38040405Y22058444D01*
X38037117Y22064138D01*
X38032081Y22068364D01*
X38032079Y22068366D01*
X38004736Y22091309D01*
X37999900Y22095741D01*
X37165030Y22930611D01*
X37978016Y22930611D01*
X38001515Y22793851D01*
X38003290Y22787229D01*
X38074212Y22594988D01*
X38077169Y22588790D01*
X38181931Y22412699D01*
X38185969Y22407141D01*
X38321066Y22253092D01*
X38326051Y22248361D01*
X38486964Y22121508D01*
X38492719Y22117771D01*
X38674059Y22022363D01*
X38680391Y22019740D01*
X38876087Y21958975D01*
X38882797Y21957549D01*
X39049144Y21937861D01*
X39053565Y21937600D01*
X39704341Y21937600D01*
X39714498Y21941297D01*
X39717600Y21946669D01*
X39717600Y21950859D01*
X40022400Y21950859D01*
X40026097Y21940702D01*
X40031469Y21937600D01*
X40672015Y21937600D01*
X40675429Y21937756D01*
X40827475Y21951728D01*
X40834227Y21952979D01*
X41031436Y22008598D01*
X41037843Y22011057D01*
X41221614Y22101683D01*
X41227472Y22105273D01*
X41391646Y22227867D01*
X41396750Y22232463D01*
X41535839Y22382929D01*
X41540014Y22388369D01*
X41649358Y22561668D01*
X41652472Y22567782D01*
X41728398Y22758090D01*
X41730352Y22764685D01*
X41762159Y22924595D01*
X41760515Y22935279D01*
X41757900Y22937572D01*
X41757751Y22937600D01*
X40035659Y22937600D01*
X40025502Y22933903D01*
X40022400Y22928531D01*
X40022400Y21950859D01*
X39717600Y21950859D01*
X39717600Y22924341D01*
X39713903Y22934498D01*
X39708531Y22937600D01*
X37990074Y22937600D01*
X37979917Y22933903D01*
X37978016Y22930611D01*
X37165030Y22930611D01*
X36625740Y23469901D01*
X36621307Y23474738D01*
X36600135Y23499970D01*
X36594138Y23507117D01*
X36588444Y23510405D01*
X36588441Y23510407D01*
X36557529Y23528255D01*
X36552000Y23531778D01*
X36522757Y23552253D01*
X36522754Y23552254D01*
X36517366Y23556027D01*
X36511015Y23557729D01*
X36507935Y23559165D01*
X36498160Y23563213D01*
X36494960Y23564378D01*
X36489261Y23567668D01*
X36462002Y23572475D01*
X36447637Y23575008D01*
X36441235Y23576427D01*
X36406747Y23585667D01*
X36400391Y23587370D01*
X36393839Y23586797D01*
X36393837Y23586797D01*
X36358284Y23583686D01*
X36351730Y23583400D01*
X35948099Y23583400D01*
X35899761Y23600993D01*
X35874041Y23645542D01*
X35872899Y23658600D01*
X35872899Y24035056D01*
X35864028Y24079658D01*
X35865196Y24079890D01*
X35863285Y24123643D01*
X35894598Y24164455D01*
X35944818Y24175590D01*
X35977769Y24162444D01*
X35980229Y24159984D01*
X36093945Y24102043D01*
X36099792Y24101117D01*
X36185374Y24087562D01*
X36185376Y24087562D01*
X36188292Y24087100D01*
X36251708Y24087100D01*
X36254624Y24087562D01*
X36254626Y24087562D01*
X36340208Y24101117D01*
X36346055Y24102043D01*
X36412348Y24135821D01*
X36454494Y24157295D01*
X36454495Y24157296D01*
X36459771Y24159984D01*
X36497833Y24198046D01*
X36544453Y24219786D01*
X36594140Y24206472D01*
X36623645Y24164335D01*
X36625281Y24156637D01*
X36629463Y24130234D01*
X36632043Y24113945D01*
X36646375Y24085817D01*
X36679421Y24020961D01*
X36689984Y24000229D01*
X36780229Y23909984D01*
X36785505Y23907296D01*
X36785506Y23907295D01*
X36803963Y23897891D01*
X36893945Y23852043D01*
X36899792Y23851117D01*
X36985374Y23837562D01*
X36985376Y23837562D01*
X36988292Y23837100D01*
X37051708Y23837100D01*
X37054624Y23837562D01*
X37054626Y23837562D01*
X37140208Y23851117D01*
X37146055Y23852043D01*
X37236037Y23897891D01*
X37254494Y23907295D01*
X37254495Y23907296D01*
X37259771Y23909984D01*
X37316826Y23967039D01*
X37363446Y23988779D01*
X37413133Y23975465D01*
X37423174Y23967039D01*
X37480229Y23909984D01*
X37485505Y23907296D01*
X37485506Y23907295D01*
X37503963Y23897891D01*
X37593945Y23852043D01*
X37599792Y23851117D01*
X37685374Y23837562D01*
X37685376Y23837562D01*
X37688292Y23837100D01*
X37751708Y23837100D01*
X37754624Y23837562D01*
X37754626Y23837562D01*
X37840208Y23851117D01*
X37846055Y23852043D01*
X37936037Y23897891D01*
X37954494Y23907295D01*
X37954495Y23907296D01*
X37959771Y23909984D01*
X38050016Y24000229D01*
X38060580Y24020961D01*
X38093625Y24085817D01*
X38107957Y24113945D01*
X38110537Y24130234D01*
X38114719Y24156637D01*
X38139658Y24201627D01*
X38187681Y24220061D01*
X38236318Y24203313D01*
X38242167Y24198046D01*
X38280229Y24159984D01*
X38285505Y24157296D01*
X38285506Y24157295D01*
X38327652Y24135821D01*
X38359113Y24119791D01*
X38378425Y24109951D01*
X38413507Y24072330D01*
X38416199Y24020961D01*
X38389279Y23982693D01*
X38348354Y23952133D01*
X38343250Y23947537D01*
X38204161Y23797071D01*
X38199986Y23791631D01*
X38090642Y23618332D01*
X38087528Y23612218D01*
X38011602Y23421910D01*
X38009648Y23415315D01*
X37977841Y23255405D01*
X37979485Y23244721D01*
X37982100Y23242428D01*
X37982249Y23242400D01*
X39704341Y23242400D01*
X39714498Y23246097D01*
X39717600Y23251469D01*
X39717600Y23255659D01*
X40022400Y23255659D01*
X40026097Y23245502D01*
X40031469Y23242400D01*
X41749926Y23242400D01*
X41760083Y23246097D01*
X41761984Y23249389D01*
X41738485Y23386149D01*
X41736710Y23392771D01*
X41665788Y23585012D01*
X41662831Y23591210D01*
X41558069Y23767301D01*
X41554031Y23772859D01*
X41418934Y23926908D01*
X41413949Y23931639D01*
X41253036Y24058492D01*
X41247281Y24062229D01*
X41065941Y24157637D01*
X41059609Y24160260D01*
X40863913Y24221025D01*
X40857203Y24222451D01*
X40690856Y24242139D01*
X40686435Y24242400D01*
X40035659Y24242400D01*
X40025502Y24238703D01*
X40022400Y24233331D01*
X40022400Y23255659D01*
X39717600Y23255659D01*
X39717600Y24229141D01*
X39713903Y24239298D01*
X39708531Y24242400D01*
X39067985Y24242400D01*
X39064571Y24242244D01*
X38971002Y24233646D01*
X38921257Y24246743D01*
X38891569Y24288751D01*
X38897118Y24342672D01*
X38905269Y24358669D01*
X38905270Y24358672D01*
X38907957Y24363945D01*
X38927922Y24490000D01*
X38926316Y24500139D01*
X38936133Y24550633D01*
X38976111Y24583004D01*
X39000591Y24587100D01*
X41839968Y24587100D01*
X41859430Y24584538D01*
X41870000Y24581706D01*
X41879562Y24584268D01*
X41889462Y24584268D01*
X41889462Y24583581D01*
X41898336Y24584309D01*
X42027892Y24571549D01*
X42042348Y24568673D01*
X42187083Y24524768D01*
X42200698Y24519129D01*
X42332284Y24448796D01*
X42334093Y24447829D01*
X42346351Y24439638D01*
X42463265Y24343688D01*
X42473688Y24333265D01*
X42569638Y24216351D01*
X42577828Y24204094D01*
X42648225Y24072391D01*
X42649128Y24070701D01*
X42654768Y24057083D01*
X42698119Y23914174D01*
X42698673Y23912349D01*
X42701549Y23897892D01*
X42714058Y23770890D01*
X42714309Y23768337D01*
X42713581Y23759462D01*
X42714268Y23759462D01*
X42714268Y23749562D01*
X42711706Y23740000D01*
X42714268Y23730439D01*
X42714538Y23729431D01*
X42717100Y23709968D01*
X42717100Y10770032D01*
X42714538Y10750570D01*
X42711706Y10740000D01*
X42714268Y10730438D01*
X42714268Y10720538D01*
X42713581Y10720538D01*
X42714309Y10711664D01*
X42701886Y10585530D01*
X42701549Y10582109D01*
X42698673Y10567652D01*
X42664771Y10455890D01*
X42654769Y10422919D01*
X42649129Y10409302D01*
X42579923Y10279824D01*
X42577829Y10275907D01*
X42569638Y10263649D01*
X42473688Y10146735D01*
X42463265Y10136312D01*
X42346351Y10040362D01*
X42334094Y10032172D01*
X42200698Y9960871D01*
X42187083Y9955232D01*
X42081525Y9923211D01*
X42042349Y9911327D01*
X42027892Y9908451D01*
X41898336Y9895691D01*
X41889462Y9896419D01*
X41889462Y9895732D01*
X41879562Y9895732D01*
X41870000Y9898294D01*
X41859431Y9895462D01*
X41839968Y9892900D01*
X39000591Y9892900D01*
X38952253Y9910493D01*
X38926533Y9955042D01*
X38926316Y9979861D01*
X38926996Y9984155D01*
X38927922Y9990000D01*
X38907957Y10116055D01*
X38896722Y10138105D01*
X38890453Y10189161D01*
X38918470Y10232302D01*
X38972564Y10246924D01*
X39049142Y10237861D01*
X39053565Y10237600D01*
X39704341Y10237600D01*
X39714498Y10241297D01*
X39717600Y10246669D01*
X39717600Y10250859D01*
X40022400Y10250859D01*
X40026097Y10240702D01*
X40031469Y10237600D01*
X40672015Y10237600D01*
X40675429Y10237756D01*
X40827475Y10251728D01*
X40834227Y10252979D01*
X41031436Y10308598D01*
X41037843Y10311057D01*
X41221614Y10401683D01*
X41227472Y10405273D01*
X41391646Y10527867D01*
X41396750Y10532463D01*
X41535839Y10682929D01*
X41540014Y10688369D01*
X41649358Y10861668D01*
X41652472Y10867782D01*
X41728398Y11058090D01*
X41730352Y11064685D01*
X41762159Y11224595D01*
X41760515Y11235279D01*
X41757900Y11237572D01*
X41757751Y11237600D01*
X40035659Y11237600D01*
X40025502Y11233903D01*
X40022400Y11228531D01*
X40022400Y10250859D01*
X39717600Y10250859D01*
X39717600Y11224341D01*
X39713903Y11234498D01*
X39708531Y11237600D01*
X37990074Y11237600D01*
X37979917Y11233903D01*
X37978016Y11230611D01*
X38001515Y11093851D01*
X38003290Y11087229D01*
X38074212Y10894988D01*
X38077169Y10888790D01*
X38181931Y10712699D01*
X38185969Y10707141D01*
X38321066Y10553092D01*
X38326051Y10548361D01*
X38391747Y10496571D01*
X38418815Y10452829D01*
X38411434Y10401921D01*
X38379331Y10370511D01*
X38286798Y10323363D01*
X38280229Y10320016D01*
X38242167Y10281954D01*
X38195547Y10260214D01*
X38145860Y10273528D01*
X38116355Y10315665D01*
X38114719Y10323363D01*
X38108883Y10360209D01*
X38108883Y10360210D01*
X38107957Y10366055D01*
X38062184Y10455890D01*
X38052705Y10474494D01*
X38052704Y10474495D01*
X38050016Y10479771D01*
X37959771Y10570016D01*
X37949947Y10575022D01*
X37884679Y10608277D01*
X37846055Y10627957D01*
X37815040Y10632869D01*
X37754626Y10642438D01*
X37754624Y10642438D01*
X37751708Y10642900D01*
X37688292Y10642900D01*
X37685376Y10642438D01*
X37685374Y10642438D01*
X37624960Y10632869D01*
X37593945Y10627957D01*
X37555321Y10608277D01*
X37490054Y10575022D01*
X37480229Y10570016D01*
X37423174Y10512961D01*
X37376554Y10491221D01*
X37326867Y10504535D01*
X37316826Y10512961D01*
X37259771Y10570016D01*
X37249947Y10575022D01*
X37184679Y10608277D01*
X37146055Y10627957D01*
X37115040Y10632869D01*
X37054626Y10642438D01*
X37054624Y10642438D01*
X37051708Y10642900D01*
X36988292Y10642900D01*
X36985376Y10642438D01*
X36985374Y10642438D01*
X36924960Y10632869D01*
X36893945Y10627957D01*
X36855321Y10608277D01*
X36790054Y10575022D01*
X36780229Y10570016D01*
X36689984Y10479771D01*
X36687296Y10474495D01*
X36687295Y10474494D01*
X36677816Y10455890D01*
X36632043Y10366055D01*
X36631117Y10360210D01*
X36631117Y10360209D01*
X36625281Y10323363D01*
X36600342Y10278373D01*
X36552319Y10259939D01*
X36503682Y10276687D01*
X36497833Y10281954D01*
X36459771Y10320016D01*
X36453203Y10323363D01*
X36402710Y10349090D01*
X36346055Y10377957D01*
X36315040Y10382869D01*
X36254626Y10392438D01*
X36254624Y10392438D01*
X36251708Y10392900D01*
X36188292Y10392900D01*
X36185376Y10392438D01*
X36185374Y10392438D01*
X36124960Y10382869D01*
X36093945Y10377957D01*
X36037290Y10349090D01*
X35986798Y10323363D01*
X35980229Y10320016D01*
X35889984Y10229771D01*
X35887296Y10224495D01*
X35887295Y10224494D01*
X35864169Y10179107D01*
X35832043Y10116055D01*
X35812078Y9990000D01*
X35813004Y9984155D01*
X35813684Y9979861D01*
X35803867Y9929367D01*
X35763889Y9896996D01*
X35739409Y9892900D01*
X30882718Y9892900D01*
X30834380Y9910493D01*
X30808660Y9955042D01*
X30817593Y10005700D01*
X30856998Y10038765D01*
X30873833Y10042773D01*
X30879270Y10043420D01*
X30884876Y10044087D01*
X30982893Y10087624D01*
X30987795Y10092535D01*
X30987797Y10092536D01*
X31053760Y10158615D01*
X31053761Y10158616D01*
X31058665Y10163529D01*
X31066218Y10180612D01*
X31091527Y10237861D01*
X31102031Y10261621D01*
X31103839Y10277124D01*
X31104648Y10284066D01*
X31104648Y10284067D01*
X31104900Y10286228D01*
X31104900Y10641772D01*
X31104457Y10645502D01*
X31102580Y10661270D01*
X31101913Y10666876D01*
X31058376Y10764893D01*
X31053465Y10769795D01*
X31053464Y10769797D01*
X30987385Y10835760D01*
X30987384Y10835761D01*
X30982471Y10840665D01*
X30976121Y10843472D01*
X30976120Y10843473D01*
X30889554Y10881743D01*
X30889555Y10881743D01*
X30884379Y10884031D01*
X30875375Y10885081D01*
X30861934Y10886648D01*
X30861933Y10886648D01*
X30859772Y10886900D01*
X30618126Y10886900D01*
X30569788Y10904493D01*
X30564952Y10908926D01*
X30541152Y10932726D01*
X30519412Y10979346D01*
X30532726Y11029033D01*
X30574863Y11058538D01*
X30594326Y11061100D01*
X30859772Y11061100D01*
X30861979Y11061363D01*
X30861986Y11061363D01*
X30879270Y11063420D01*
X30884876Y11064087D01*
X30982893Y11107624D01*
X30987795Y11112535D01*
X30987797Y11112536D01*
X31053760Y11178615D01*
X31053761Y11178616D01*
X31058665Y11183529D01*
X31065985Y11200085D01*
X31089169Y11252527D01*
X31102031Y11281621D01*
X31104900Y11306228D01*
X31104900Y11661772D01*
X31101913Y11686876D01*
X31058376Y11784893D01*
X31053465Y11789795D01*
X31053464Y11789797D01*
X30987385Y11855760D01*
X30987384Y11855761D01*
X30982471Y11860665D01*
X30976121Y11863472D01*
X30976120Y11863473D01*
X30943993Y11877676D01*
X30906897Y11913312D01*
X30899200Y11946454D01*
X30899200Y12562754D01*
X30916793Y12611092D01*
X30921226Y12615928D01*
X31201800Y12896502D01*
X31213196Y12905855D01*
X31216429Y12908015D01*
X31229351Y12916649D01*
X31277228Y12988303D01*
X31288407Y13005033D01*
X31307116Y13099090D01*
X31307700Y13102025D01*
X31309145Y13109290D01*
X31305355Y13128344D01*
X31303910Y13143015D01*
X31303910Y14028844D01*
X31321503Y14077182D01*
X31366052Y14102902D01*
X31409515Y14097623D01*
X31449111Y14080118D01*
X31454729Y14079463D01*
X31472834Y14077352D01*
X31472835Y14077352D01*
X31474996Y14077100D01*
X31761309Y14077100D01*
X31809647Y14059507D01*
X31835367Y14014958D01*
X31836031Y14007363D01*
X31835064Y14002500D01*
X31836509Y13995236D01*
X31852241Y13916152D01*
X31855803Y13898243D01*
X31872761Y13872864D01*
X31914859Y13809859D01*
X31928284Y13800889D01*
X31931014Y13799065D01*
X31942410Y13789712D01*
X32101659Y13630463D01*
X32123399Y13583843D01*
X32122790Y13565720D01*
X32119494Y13544548D01*
X32111967Y13496207D01*
X32112661Y13490900D01*
X32112661Y13490897D01*
X32113159Y13487091D01*
X32130645Y13353370D01*
X32188662Y13221516D01*
X32192107Y13217418D01*
X32192108Y13217416D01*
X32231612Y13170420D01*
X32281354Y13111245D01*
X32335955Y13074900D01*
X32377683Y13047124D01*
X32401270Y13031423D01*
X32538769Y12988465D01*
X32612871Y12987107D01*
X32677436Y12985923D01*
X32677438Y12985923D01*
X32682798Y12985825D01*
X32687969Y12987235D01*
X32687971Y12987235D01*
X32763695Y13007880D01*
X32821779Y13023715D01*
X32880593Y13059827D01*
X32939970Y13096284D01*
X32939973Y13096286D01*
X32944539Y13099090D01*
X33018644Y13180959D01*
X33037612Y13201915D01*
X33041210Y13205890D01*
X33043894Y13211430D01*
X33044287Y13211812D01*
X33046541Y13215153D01*
X33047242Y13214680D01*
X33080804Y13247257D01*
X33132109Y13250977D01*
X33164695Y13231858D01*
X33215683Y13180959D01*
X33220907Y13175744D01*
X33227257Y13172937D01*
X33227258Y13172936D01*
X33246872Y13164265D01*
X33324111Y13130118D01*
X33329729Y13129463D01*
X33347834Y13127352D01*
X33347835Y13127352D01*
X33349996Y13127100D01*
X33640100Y13127100D01*
X33688438Y13109507D01*
X33714158Y13064958D01*
X33715300Y13051900D01*
X33715300Y12507892D01*
X33697707Y12459554D01*
X33653158Y12433834D01*
X33609695Y12439113D01*
X33562379Y12460031D01*
X33540028Y12462637D01*
X33539934Y12462648D01*
X33539933Y12462648D01*
X33537772Y12462900D01*
X33182228Y12462900D01*
X33180021Y12462637D01*
X33180014Y12462637D01*
X33163852Y12460713D01*
X33157124Y12459913D01*
X33059107Y12416376D01*
X33054205Y12411465D01*
X33054203Y12411464D01*
X32988240Y12345385D01*
X32983335Y12340471D01*
X32980528Y12334121D01*
X32980527Y12334120D01*
X32966324Y12301993D01*
X32930688Y12264897D01*
X32897546Y12257200D01*
X32838125Y12257200D01*
X32789787Y12274793D01*
X32781156Y12283312D01*
X32768131Y12298429D01*
X32737377Y12334120D01*
X32707487Y12368810D01*
X32707484Y12368813D01*
X32703993Y12372864D01*
X32699502Y12375775D01*
X32587604Y12448303D01*
X32587603Y12448303D01*
X32583111Y12451215D01*
X32506912Y12474003D01*
X32450232Y12490955D01*
X32450229Y12490955D01*
X32445098Y12492490D01*
X32439743Y12492523D01*
X32439741Y12492523D01*
X32374524Y12492921D01*
X32301047Y12493370D01*
X32295897Y12491898D01*
X32295896Y12491898D01*
X32255990Y12480493D01*
X32162539Y12453785D01*
X32158013Y12450929D01*
X32158010Y12450928D01*
X32056810Y12387075D01*
X32040709Y12376916D01*
X32033550Y12368810D01*
X31948897Y12272959D01*
X31948895Y12272956D01*
X31945351Y12268943D01*
X31884129Y12138546D01*
X31883305Y12133256D01*
X31883305Y12133255D01*
X31881900Y12124231D01*
X31861967Y11996207D01*
X31862661Y11990900D01*
X31862661Y11990897D01*
X31863605Y11983682D01*
X31880645Y11853370D01*
X31917342Y11769970D01*
X31929061Y11743337D01*
X31938662Y11721516D01*
X31942107Y11717418D01*
X31942108Y11717416D01*
X31987021Y11663986D01*
X32031354Y11611245D01*
X32081651Y11577765D01*
X32131293Y11544721D01*
X32151270Y11531423D01*
X32288769Y11488465D01*
X32362871Y11487107D01*
X32427436Y11485923D01*
X32427438Y11485923D01*
X32432798Y11485825D01*
X32437969Y11487235D01*
X32437971Y11487235D01*
X32517265Y11508853D01*
X32571779Y11523715D01*
X32632188Y11560806D01*
X32689970Y11596284D01*
X32689973Y11596286D01*
X32694539Y11599090D01*
X32784128Y11698066D01*
X32829608Y11722095D01*
X32839879Y11722800D01*
X32897567Y11722800D01*
X32945905Y11705207D01*
X32966292Y11678127D01*
X32983624Y11639107D01*
X32999896Y11622864D01*
X33054319Y11568536D01*
X33059529Y11563335D01*
X33065879Y11560528D01*
X33065880Y11560527D01*
X33099866Y11545502D01*
X33157621Y11519969D01*
X33163239Y11519314D01*
X33180066Y11517352D01*
X33180067Y11517352D01*
X33182228Y11517100D01*
X33537772Y11517100D01*
X33539979Y11517363D01*
X33539986Y11517363D01*
X33557270Y11519420D01*
X33562876Y11520087D01*
X33660893Y11563624D01*
X33665795Y11568535D01*
X33665797Y11568536D01*
X33731760Y11634615D01*
X33731761Y11634616D01*
X33736665Y11639529D01*
X33744359Y11656931D01*
X33765723Y11705257D01*
X33780031Y11737621D01*
X33782900Y11762228D01*
X33782900Y12027674D01*
X33800493Y12076012D01*
X33845042Y12101732D01*
X33895700Y12092799D01*
X33911274Y12080848D01*
X33935074Y12057048D01*
X33956814Y12010428D01*
X33957100Y12003874D01*
X33957100Y11762228D01*
X33957363Y11760021D01*
X33957363Y11760014D01*
X33959287Y11743852D01*
X33960087Y11737124D01*
X34003624Y11639107D01*
X34008535Y11634205D01*
X34008536Y11634203D01*
X34074615Y11568240D01*
X34079529Y11563335D01*
X34085879Y11560528D01*
X34085880Y11560527D01*
X34119866Y11545502D01*
X34177621Y11519969D01*
X34183239Y11519314D01*
X34200066Y11517352D01*
X34200067Y11517352D01*
X34202228Y11517100D01*
X34557772Y11517100D01*
X34559979Y11517363D01*
X34559986Y11517363D01*
X34577270Y11519420D01*
X34582876Y11520087D01*
X34662389Y11555405D01*
X37977841Y11555405D01*
X37979485Y11544721D01*
X37982100Y11542428D01*
X37982249Y11542400D01*
X39704341Y11542400D01*
X39714498Y11546097D01*
X39717600Y11551469D01*
X39717600Y11555659D01*
X40022400Y11555659D01*
X40026097Y11545502D01*
X40031469Y11542400D01*
X41749926Y11542400D01*
X41760083Y11546097D01*
X41761984Y11549389D01*
X41738485Y11686149D01*
X41736710Y11692771D01*
X41665788Y11885012D01*
X41662831Y11891210D01*
X41558069Y12067301D01*
X41554031Y12072859D01*
X41418934Y12226908D01*
X41413949Y12231639D01*
X41253036Y12358492D01*
X41247281Y12362229D01*
X41065941Y12457637D01*
X41059609Y12460260D01*
X40863913Y12521025D01*
X40857203Y12522451D01*
X40690856Y12542139D01*
X40686435Y12542400D01*
X40035659Y12542400D01*
X40025502Y12538703D01*
X40022400Y12533331D01*
X40022400Y11555659D01*
X39717600Y11555659D01*
X39717600Y12529141D01*
X39713903Y12539298D01*
X39708531Y12542400D01*
X39067985Y12542400D01*
X39064571Y12542244D01*
X38912525Y12528272D01*
X38905773Y12527021D01*
X38708564Y12471402D01*
X38702157Y12468943D01*
X38518386Y12378317D01*
X38512528Y12374727D01*
X38348354Y12252133D01*
X38343250Y12247537D01*
X38204161Y12097071D01*
X38199986Y12091631D01*
X38090642Y11918332D01*
X38087528Y11912218D01*
X38011602Y11721910D01*
X38009648Y11715315D01*
X37977841Y11555405D01*
X34662389Y11555405D01*
X34680893Y11563624D01*
X34685795Y11568535D01*
X34685797Y11568536D01*
X34751760Y11634615D01*
X34751761Y11634616D01*
X34756665Y11639529D01*
X34764359Y11656931D01*
X34785723Y11705257D01*
X34800031Y11737621D01*
X34802900Y11762228D01*
X34802900Y12054532D01*
X35397600Y12054532D01*
X35397863Y12050090D01*
X35399915Y12032845D01*
X35402873Y12022085D01*
X35441227Y11935737D01*
X35448955Y11924493D01*
X35514902Y11858660D01*
X35526166Y11850948D01*
X35612572Y11812748D01*
X35623352Y11809810D01*
X35640142Y11807852D01*
X35644480Y11807600D01*
X35704341Y11807600D01*
X35714498Y11811297D01*
X35717600Y11816669D01*
X35717600Y11820859D01*
X36022400Y11820859D01*
X36026097Y11810702D01*
X36031469Y11807600D01*
X36095468Y11807600D01*
X36099910Y11807863D01*
X36117155Y11809915D01*
X36127915Y11812873D01*
X36214263Y11851227D01*
X36225507Y11858955D01*
X36291340Y11924902D01*
X36299052Y11936166D01*
X36337252Y12022572D01*
X36340190Y12033352D01*
X36342148Y12050142D01*
X36342400Y12054480D01*
X36342400Y12064341D01*
X36338703Y12074498D01*
X36333331Y12077600D01*
X36035659Y12077600D01*
X36025502Y12073903D01*
X36022400Y12068531D01*
X36022400Y11820859D01*
X35717600Y11820859D01*
X35717600Y12064341D01*
X35713903Y12074498D01*
X35708531Y12077600D01*
X35410859Y12077600D01*
X35400702Y12073903D01*
X35397600Y12068531D01*
X35397600Y12054532D01*
X34802900Y12054532D01*
X34802900Y12217772D01*
X34801419Y12230224D01*
X34800580Y12237270D01*
X34799913Y12242876D01*
X34756376Y12340893D01*
X34751465Y12345795D01*
X34751464Y12345797D01*
X34701514Y12395659D01*
X35397600Y12395659D01*
X35401297Y12385502D01*
X35406669Y12382400D01*
X35704341Y12382400D01*
X35714498Y12386097D01*
X35717600Y12391469D01*
X35717600Y12395659D01*
X36022400Y12395659D01*
X36026097Y12385502D01*
X36031469Y12382400D01*
X36329141Y12382400D01*
X36339298Y12386097D01*
X36342400Y12391469D01*
X36342400Y12405468D01*
X36342137Y12409910D01*
X36340085Y12427155D01*
X36337127Y12437915D01*
X36298773Y12524263D01*
X36291045Y12535507D01*
X36225098Y12601340D01*
X36213834Y12609052D01*
X36127428Y12647252D01*
X36116648Y12650190D01*
X36099858Y12652148D01*
X36095520Y12652400D01*
X36035659Y12652400D01*
X36025502Y12648703D01*
X36022400Y12643331D01*
X36022400Y12395659D01*
X35717600Y12395659D01*
X35717600Y12639141D01*
X35713903Y12649298D01*
X35708531Y12652400D01*
X35644532Y12652400D01*
X35640090Y12652137D01*
X35622845Y12650085D01*
X35612085Y12647127D01*
X35525737Y12608773D01*
X35514493Y12601045D01*
X35448660Y12535098D01*
X35440948Y12523834D01*
X35402748Y12437428D01*
X35399810Y12426648D01*
X35397852Y12409858D01*
X35397600Y12405520D01*
X35397600Y12395659D01*
X34701514Y12395659D01*
X34685385Y12411760D01*
X34685384Y12411761D01*
X34680471Y12416665D01*
X34674121Y12419472D01*
X34674120Y12419473D01*
X34605424Y12449843D01*
X34582379Y12460031D01*
X34560028Y12462637D01*
X34559934Y12462648D01*
X34559933Y12462648D01*
X34557772Y12462900D01*
X34324900Y12462900D01*
X34276562Y12480493D01*
X34250842Y12525042D01*
X34249700Y12538100D01*
X34249700Y13051900D01*
X34267293Y13100238D01*
X34311842Y13125958D01*
X34324900Y13127100D01*
X34615004Y13127100D01*
X34617211Y13127363D01*
X34617218Y13127363D01*
X34635809Y13129575D01*
X34635811Y13129576D01*
X34641412Y13130242D01*
X34744536Y13176048D01*
X34824256Y13255907D01*
X34827063Y13262256D01*
X34827065Y13262259D01*
X34829605Y13268005D01*
X34865240Y13305102D01*
X34898384Y13312800D01*
X35321900Y13312800D01*
X35370238Y13295207D01*
X35395958Y13250658D01*
X35397100Y13237600D01*
X35397100Y13072228D01*
X35397363Y13070021D01*
X35397363Y13070014D01*
X35399224Y13054374D01*
X35400087Y13047124D01*
X35443624Y12949107D01*
X35448535Y12944205D01*
X35448536Y12944203D01*
X35514615Y12878240D01*
X35519529Y12873335D01*
X35525879Y12870528D01*
X35525880Y12870527D01*
X35573680Y12849395D01*
X35617621Y12829969D01*
X35623239Y12829314D01*
X35640066Y12827352D01*
X35640067Y12827352D01*
X35642228Y12827100D01*
X36097772Y12827100D01*
X36099979Y12827363D01*
X36099986Y12827363D01*
X36117270Y12829420D01*
X36122876Y12830087D01*
X36220893Y12873624D01*
X36225795Y12878535D01*
X36225797Y12878536D01*
X36241123Y12893889D01*
X37144646Y12893889D01*
X37145920Y12889135D01*
X37163681Y12874019D01*
X37169679Y12869850D01*
X37343423Y12772749D01*
X37350136Y12769816D01*
X37539421Y12708314D01*
X37546569Y12706742D01*
X37744196Y12683176D01*
X37751528Y12683023D01*
X37949964Y12698292D01*
X37957173Y12699563D01*
X38148870Y12753085D01*
X38155703Y12755736D01*
X38333347Y12845470D01*
X38339533Y12849395D01*
X38388335Y12887524D01*
X38394065Y12896693D01*
X38393457Y12901016D01*
X37779377Y13515097D01*
X37769578Y13519666D01*
X37763587Y13518061D01*
X37149215Y12903688D01*
X37144646Y12893889D01*
X36241123Y12893889D01*
X36291760Y12944615D01*
X36291761Y12944616D01*
X36296665Y12949529D01*
X36299579Y12956119D01*
X36329462Y13023715D01*
X36340031Y13047621D01*
X36342900Y13072228D01*
X36342900Y13427772D01*
X36339913Y13452876D01*
X36296376Y13550893D01*
X36291465Y13555795D01*
X36291464Y13555797D01*
X36225385Y13621760D01*
X36225384Y13621761D01*
X36220471Y13626665D01*
X36214121Y13629472D01*
X36214120Y13629473D01*
X36181993Y13643676D01*
X36144897Y13679312D01*
X36137200Y13712454D01*
X36137200Y13751094D01*
X36712919Y13751094D01*
X36729573Y13552769D01*
X36730895Y13545567D01*
X36785755Y13354247D01*
X36788451Y13347438D01*
X36879427Y13170420D01*
X36883393Y13164265D01*
X36917313Y13121468D01*
X36926522Y13115803D01*
X36930928Y13116454D01*
X37545097Y13730623D01*
X37549272Y13739578D01*
X37990334Y13739578D01*
X37991939Y13733587D01*
X38606668Y13118859D01*
X38616467Y13114290D01*
X38621317Y13115589D01*
X38631718Y13127640D01*
X38635943Y13133628D01*
X38734249Y13306678D01*
X38737229Y13313373D01*
X38800051Y13502220D01*
X38801674Y13509365D01*
X38826816Y13708384D01*
X38827109Y13712576D01*
X38827463Y13737901D01*
X38827287Y13742093D01*
X38807712Y13941734D01*
X38806288Y13948921D01*
X38805487Y13951575D01*
X39102331Y13951575D01*
X39103302Y13947950D01*
X39238718Y13853131D01*
X39244385Y13849859D01*
X39437039Y13760022D01*
X39443190Y13757783D01*
X39648521Y13702765D01*
X39654963Y13701629D01*
X39866731Y13683102D01*
X39873269Y13683102D01*
X40085037Y13701629D01*
X40091479Y13702765D01*
X40296810Y13757783D01*
X40302961Y13760022D01*
X40495615Y13849859D01*
X40501282Y13853131D01*
X40631615Y13944392D01*
X40637815Y13953245D01*
X40637488Y13956986D01*
X39879377Y14715097D01*
X39869578Y14719666D01*
X39863587Y14718061D01*
X39106900Y13961374D01*
X39102331Y13951575D01*
X38805487Y13951575D01*
X38762948Y14092473D01*
X38765820Y14143833D01*
X38801033Y14181331D01*
X38852111Y14187421D01*
X38878073Y14175807D01*
X38883246Y14172185D01*
X38886986Y14172512D01*
X39645097Y14930623D01*
X39649272Y14939578D01*
X40090334Y14939578D01*
X40091939Y14933587D01*
X40848626Y14176900D01*
X40858425Y14172331D01*
X40862050Y14173302D01*
X40956869Y14308718D01*
X40960141Y14314385D01*
X41049978Y14507039D01*
X41052217Y14513190D01*
X41107235Y14718521D01*
X41108371Y14724963D01*
X41126898Y14936731D01*
X41126898Y14943269D01*
X41108371Y15155037D01*
X41107235Y15161479D01*
X41052217Y15366810D01*
X41049978Y15372961D01*
X40960141Y15565615D01*
X40956869Y15571282D01*
X40865608Y15701615D01*
X40856755Y15707815D01*
X40853014Y15707488D01*
X40094903Y14949377D01*
X40090334Y14939578D01*
X39649272Y14939578D01*
X39649666Y14940422D01*
X39648061Y14946413D01*
X38891374Y15703100D01*
X38881575Y15707669D01*
X38877950Y15706698D01*
X38783131Y15571282D01*
X38779859Y15565615D01*
X38690022Y15372961D01*
X38687783Y15366810D01*
X38632765Y15161479D01*
X38631629Y15155037D01*
X38613102Y14943269D01*
X38613102Y14936731D01*
X38631629Y14724963D01*
X38632765Y14718521D01*
X38687783Y14513190D01*
X38690022Y14507039D01*
X38708022Y14468439D01*
X38712506Y14417195D01*
X38683001Y14375058D01*
X38633314Y14361744D01*
X38621014Y14365717D01*
X38609356Y14363829D01*
X37994903Y13749377D01*
X37990334Y13739578D01*
X37549272Y13739578D01*
X37549666Y13740422D01*
X37548061Y13746413D01*
X36934008Y14360465D01*
X36924209Y14365034D01*
X36919549Y14363786D01*
X36899813Y14340266D01*
X36895677Y14334225D01*
X36799796Y14159817D01*
X36796909Y14153081D01*
X36736730Y13963372D01*
X36735207Y13956207D01*
X36713022Y13758427D01*
X36712919Y13751094D01*
X36137200Y13751094D01*
X36137200Y14267567D01*
X36154793Y14315905D01*
X36181873Y14336292D01*
X36214551Y14350807D01*
X36220893Y14353624D01*
X36263806Y14396612D01*
X36291760Y14424615D01*
X36291761Y14424616D01*
X36296665Y14429529D01*
X36302568Y14442880D01*
X36328802Y14502222D01*
X36340031Y14527621D01*
X36342900Y14552228D01*
X36342900Y14583689D01*
X37145636Y14583689D01*
X37146331Y14579196D01*
X37760623Y13964903D01*
X37770422Y13960334D01*
X37776413Y13961939D01*
X38390181Y14575708D01*
X38394750Y14585507D01*
X38393526Y14590075D01*
X38364172Y14614360D01*
X38358113Y14618447D01*
X38183027Y14713115D01*
X38176283Y14715950D01*
X37986149Y14774806D01*
X37978982Y14776277D01*
X37781038Y14797082D01*
X37773725Y14797133D01*
X37575504Y14779094D01*
X37568318Y14777723D01*
X37377387Y14721529D01*
X37370600Y14718787D01*
X37194210Y14626573D01*
X37188093Y14622570D01*
X37151235Y14592935D01*
X37145636Y14583689D01*
X36342900Y14583689D01*
X36342900Y14907772D01*
X36339913Y14932876D01*
X36296376Y15030893D01*
X36291465Y15035795D01*
X36291464Y15035797D01*
X36225385Y15101760D01*
X36225384Y15101761D01*
X36220471Y15106665D01*
X36214121Y15109472D01*
X36214120Y15109473D01*
X36160326Y15133255D01*
X36122379Y15150031D01*
X36100028Y15152637D01*
X36099934Y15152648D01*
X36099933Y15152648D01*
X36097772Y15152900D01*
X35642228Y15152900D01*
X35640021Y15152637D01*
X35640014Y15152637D01*
X35623852Y15150713D01*
X35617124Y15149913D01*
X35519107Y15106376D01*
X35514205Y15101465D01*
X35514203Y15101464D01*
X35448240Y15035385D01*
X35443335Y15030471D01*
X35440528Y15024121D01*
X35440527Y15024120D01*
X35416919Y14970719D01*
X35399969Y14932379D01*
X35397100Y14907772D01*
X35397100Y14552228D01*
X35400087Y14527124D01*
X35443624Y14429107D01*
X35448535Y14424205D01*
X35448536Y14424203D01*
X35514615Y14358240D01*
X35519529Y14353335D01*
X35525879Y14350528D01*
X35525880Y14350527D01*
X35558007Y14336324D01*
X35595103Y14300688D01*
X35602800Y14267546D01*
X35602800Y13926191D01*
X35585207Y13877853D01*
X35540880Y13852261D01*
X35540000Y13852436D01*
X35536770Y13851793D01*
X35536765Y13851793D01*
X35520942Y13848645D01*
X35506271Y13847200D01*
X34898302Y13847200D01*
X34849964Y13864793D01*
X34829577Y13891872D01*
X34829481Y13892088D01*
X34823952Y13904536D01*
X34766449Y13961939D01*
X34749007Y13979351D01*
X34749006Y13979352D01*
X34744093Y13984256D01*
X34737743Y13987063D01*
X34737742Y13987064D01*
X34674646Y14014958D01*
X34640889Y14029882D01*
X34624576Y14031784D01*
X34617166Y14032648D01*
X34617165Y14032648D01*
X34615004Y14032900D01*
X33349996Y14032900D01*
X33347789Y14032637D01*
X33347782Y14032637D01*
X33329191Y14030425D01*
X33329189Y14030424D01*
X33323588Y14029758D01*
X33220464Y13983952D01*
X33187133Y13950563D01*
X33146080Y13909438D01*
X33140744Y13904093D01*
X33116391Y13849008D01*
X33080757Y13811913D01*
X33029613Y13806402D01*
X32990646Y13830328D01*
X32957491Y13868806D01*
X32957485Y13868811D01*
X32953993Y13872864D01*
X32949502Y13875775D01*
X32837604Y13948303D01*
X32837603Y13948303D01*
X32833111Y13951215D01*
X32827980Y13952749D01*
X32827979Y13952750D01*
X32814420Y13956805D01*
X32773150Y13987510D01*
X32761272Y14037560D01*
X32784344Y14083535D01*
X32805439Y14097577D01*
X32863194Y14123231D01*
X32869536Y14126048D01*
X32915593Y14172185D01*
X32944351Y14200993D01*
X32944352Y14200994D01*
X32949256Y14205907D01*
X32961114Y14232728D01*
X32980730Y14277100D01*
X32994882Y14309111D01*
X32997900Y14334996D01*
X32997900Y14725004D01*
X32996441Y14737274D01*
X32995425Y14745809D01*
X32995424Y14745811D01*
X32994758Y14751412D01*
X32948952Y14854536D01*
X32897803Y14905596D01*
X32874007Y14929351D01*
X32874006Y14929352D01*
X32869093Y14934256D01*
X32862743Y14937063D01*
X32862742Y14937064D01*
X32788273Y14969986D01*
X32765889Y14979882D01*
X32742260Y14982637D01*
X32742166Y14982648D01*
X32742165Y14982648D01*
X32740004Y14982900D01*
X31474996Y14982900D01*
X31472789Y14982637D01*
X31472782Y14982637D01*
X31454191Y14980425D01*
X31454189Y14980424D01*
X31448588Y14979758D01*
X31416705Y14965596D01*
X31409636Y14962456D01*
X31358318Y14958913D01*
X31316729Y14989186D01*
X31303910Y15031182D01*
X31303910Y15189561D01*
X31305355Y15204232D01*
X31307701Y15216026D01*
X31309146Y15223290D01*
X31303312Y15252616D01*
X31289852Y15320284D01*
X31289851Y15320286D01*
X31288407Y15327546D01*
X31256203Y15375744D01*
X31229351Y15415931D01*
X31213195Y15426726D01*
X31201800Y15436078D01*
X30982786Y15655092D01*
X30973436Y15666484D01*
X30962641Y15682641D01*
X30942933Y15695809D01*
X30927748Y15705955D01*
X30927746Y15705956D01*
X30922291Y15709601D01*
X30891875Y15751085D01*
X30895240Y15802414D01*
X30901544Y15813906D01*
X30905563Y15819921D01*
X30909677Y15826078D01*
X30915244Y15854062D01*
X30922179Y15888928D01*
X30922179Y15888929D01*
X30922900Y15892553D01*
X30922899Y16087446D01*
X30920947Y16097264D01*
X30913198Y16136218D01*
X30909677Y16153922D01*
X30900562Y16167564D01*
X30880078Y16198222D01*
X30867852Y16248188D01*
X30880078Y16281778D01*
X30905562Y16319919D01*
X30905562Y16319920D01*
X30909677Y16326078D01*
X30911248Y16333972D01*
X30922179Y16388928D01*
X30922179Y16388929D01*
X30922900Y16392553D01*
X30922899Y16587446D01*
X30922097Y16591482D01*
X30912673Y16638858D01*
X30909677Y16653922D01*
X30905176Y16660658D01*
X30880078Y16698222D01*
X30867852Y16748188D01*
X30880078Y16781778D01*
X30905562Y16819919D01*
X30905562Y16819920D01*
X30909677Y16826078D01*
X30921134Y16883672D01*
X30922179Y16888928D01*
X30922179Y16888929D01*
X30922900Y16892553D01*
X30922899Y17087446D01*
X30909677Y17153922D01*
X30905176Y17160658D01*
X30880078Y17198222D01*
X30867852Y17248188D01*
X30880078Y17281778D01*
X30905562Y17319919D01*
X30905562Y17319920D01*
X30909677Y17326078D01*
X30922900Y17392553D01*
X30922899Y17587446D01*
X30922011Y17591915D01*
X30913852Y17632930D01*
X30921677Y17683771D01*
X30960352Y17717687D01*
X30987607Y17722800D01*
X31070628Y17722800D01*
X31118966Y17705207D01*
X31139457Y17677891D01*
X31168662Y17611516D01*
X31172107Y17607418D01*
X31172108Y17607416D01*
X31192002Y17583749D01*
X31254756Y17509094D01*
X31272392Y17460773D01*
X31254841Y17412420D01*
X31250413Y17407579D01*
X31238652Y17395797D01*
X31233335Y17390471D01*
X31189969Y17292379D01*
X31187100Y17267772D01*
X31187100Y16812228D01*
X31190087Y16787124D01*
X31233624Y16689107D01*
X31238535Y16684205D01*
X31238536Y16684203D01*
X31304615Y16618240D01*
X31309529Y16613335D01*
X31315879Y16610528D01*
X31315880Y16610527D01*
X31359885Y16591073D01*
X31407621Y16569969D01*
X31413239Y16569314D01*
X31430066Y16567352D01*
X31430067Y16567352D01*
X31432228Y16567100D01*
X31673874Y16567100D01*
X31722212Y16549507D01*
X31727048Y16545074D01*
X32957210Y15314913D01*
X32966562Y15303518D01*
X32977359Y15287359D01*
X33039156Y15246068D01*
X33065743Y15228303D01*
X33073005Y15226858D01*
X33073006Y15226858D01*
X33074626Y15226536D01*
X33076436Y15225438D01*
X33079849Y15224024D01*
X33079631Y15223499D01*
X33118603Y15199850D01*
X33128680Y15183308D01*
X33141048Y15155464D01*
X33169870Y15126692D01*
X33215683Y15080959D01*
X33220907Y15075744D01*
X33227257Y15072937D01*
X33227258Y15072936D01*
X33270408Y15053860D01*
X33324111Y15030118D01*
X33329729Y15029463D01*
X33347834Y15027352D01*
X33347835Y15027352D01*
X33349996Y15027100D01*
X34615004Y15027100D01*
X34617211Y15027363D01*
X34617218Y15027363D01*
X34635809Y15029575D01*
X34635811Y15029576D01*
X34641412Y15030242D01*
X34744536Y15076048D01*
X34801319Y15132930D01*
X34819351Y15150993D01*
X34819352Y15150994D01*
X34824256Y15155907D01*
X34828885Y15166376D01*
X34860711Y15238367D01*
X34869882Y15259111D01*
X34872900Y15284996D01*
X34872900Y15675004D01*
X34872392Y15679278D01*
X34870425Y15695809D01*
X34870424Y15695811D01*
X34869758Y15701412D01*
X34823952Y15804536D01*
X34763922Y15864462D01*
X34749007Y15879351D01*
X34749006Y15879352D01*
X34744093Y15884256D01*
X34737743Y15887063D01*
X34737742Y15887064D01*
X34668150Y15917830D01*
X34640889Y15929882D01*
X34631804Y15930941D01*
X34617166Y15932648D01*
X34617165Y15932648D01*
X34615004Y15932900D01*
X33349996Y15932900D01*
X33347789Y15932637D01*
X33347782Y15932637D01*
X33329191Y15930425D01*
X33329189Y15930424D01*
X33323588Y15929758D01*
X33220464Y15883952D01*
X33219867Y15885296D01*
X33177756Y15874406D01*
X33131791Y15896086D01*
X32589152Y16438726D01*
X32567412Y16485346D01*
X32580726Y16535033D01*
X32622863Y16564538D01*
X32642326Y16567100D01*
X32807772Y16567100D01*
X32809979Y16567363D01*
X32809986Y16567363D01*
X32827270Y16569420D01*
X32832876Y16570087D01*
X32930893Y16613624D01*
X32935795Y16618535D01*
X32935797Y16618536D01*
X33001760Y16684615D01*
X33001761Y16684616D01*
X33006665Y16689529D01*
X33010309Y16697770D01*
X33042832Y16771337D01*
X33050031Y16787621D01*
X33052900Y16812228D01*
X33052900Y16986284D01*
X33267600Y16986284D01*
X33268062Y16980412D01*
X33281598Y16894949D01*
X33285211Y16883829D01*
X33337705Y16780804D01*
X33344584Y16771337D01*
X33426337Y16689584D01*
X33435804Y16682705D01*
X33538829Y16630211D01*
X33549949Y16626598D01*
X33635412Y16613062D01*
X33641284Y16612600D01*
X33754341Y16612600D01*
X33764498Y16616297D01*
X33767600Y16621669D01*
X33767600Y16625859D01*
X34072400Y16625859D01*
X34076097Y16615702D01*
X34081469Y16612600D01*
X34198716Y16612600D01*
X34204588Y16613062D01*
X34290051Y16626598D01*
X34301171Y16630211D01*
X34404196Y16682705D01*
X34413663Y16689584D01*
X34495416Y16771337D01*
X34502295Y16780804D01*
X34554789Y16883829D01*
X34558402Y16894949D01*
X34571938Y16980412D01*
X34572400Y16986284D01*
X34572400Y17324341D01*
X34568703Y17334498D01*
X34563331Y17337600D01*
X34085659Y17337600D01*
X34075502Y17333903D01*
X34072400Y17328531D01*
X34072400Y16625859D01*
X33767600Y16625859D01*
X33767600Y17324341D01*
X33763903Y17334498D01*
X33758531Y17337600D01*
X33280859Y17337600D01*
X33270702Y17333903D01*
X33267600Y17328531D01*
X33267600Y16986284D01*
X33052900Y16986284D01*
X33052900Y17267772D01*
X33052577Y17270493D01*
X33050580Y17287270D01*
X33049913Y17292876D01*
X33006376Y17390893D01*
X33001466Y17395795D01*
X33001462Y17395800D01*
X32983134Y17414095D01*
X32961353Y17460696D01*
X32974623Y17510395D01*
X32980509Y17517781D01*
X33047612Y17591915D01*
X33051210Y17595890D01*
X33055524Y17604793D01*
X33111682Y17720704D01*
X33111682Y17720705D01*
X33114020Y17725530D01*
X33118242Y17750626D01*
X33143611Y17795375D01*
X33191809Y17813348D01*
X33240283Y17796135D01*
X33266353Y17751790D01*
X33267600Y17738150D01*
X33267600Y17655659D01*
X33271297Y17645502D01*
X33276669Y17642400D01*
X33754341Y17642400D01*
X33764498Y17646097D01*
X33767600Y17651469D01*
X33767600Y17655659D01*
X34072400Y17655659D01*
X34076097Y17645502D01*
X34081469Y17642400D01*
X34559141Y17642400D01*
X34569298Y17646097D01*
X34572400Y17651469D01*
X34572400Y17993716D01*
X34571938Y17999588D01*
X34558402Y18085051D01*
X34554789Y18096171D01*
X34502295Y18199196D01*
X34495416Y18208663D01*
X34413663Y18290416D01*
X34404196Y18297295D01*
X34301171Y18349789D01*
X34290051Y18353402D01*
X34204588Y18366938D01*
X34198716Y18367400D01*
X34085659Y18367400D01*
X34075502Y18363703D01*
X34072400Y18358331D01*
X34072400Y17655659D01*
X33767600Y17655659D01*
X33767600Y18354141D01*
X33763903Y18364298D01*
X33758531Y18367400D01*
X33641284Y18367400D01*
X33635412Y18366938D01*
X33549949Y18353402D01*
X33538829Y18349789D01*
X33435804Y18297295D01*
X33426337Y18290416D01*
X33344584Y18208663D01*
X33337705Y18199196D01*
X33285211Y18096171D01*
X33281598Y18085051D01*
X33268818Y18004358D01*
X33243880Y17959367D01*
X33195857Y17940932D01*
X33147220Y17957679D01*
X33120104Y18005458D01*
X33118408Y18017297D01*
X33117649Y18022599D01*
X33099412Y18062711D01*
X33075024Y18116348D01*
X33058026Y18153734D01*
X33052557Y18160081D01*
X32967487Y18258810D01*
X32967484Y18258813D01*
X32963993Y18262864D01*
X32921485Y18290416D01*
X32847604Y18338303D01*
X32847603Y18338303D01*
X32843111Y18341215D01*
X32755555Y18367400D01*
X32710232Y18380955D01*
X32710229Y18380955D01*
X32705098Y18382490D01*
X32699743Y18382523D01*
X32699741Y18382523D01*
X32634524Y18382921D01*
X32561047Y18383370D01*
X32555895Y18381898D01*
X32550591Y18381171D01*
X32550255Y18383623D01*
X32508300Y18386601D01*
X32485784Y18402094D01*
X32247152Y18640726D01*
X32225412Y18687346D01*
X32238726Y18737033D01*
X32280863Y18766538D01*
X32300326Y18769100D01*
X32526708Y18769100D01*
X32529624Y18769562D01*
X32529626Y18769562D01*
X32615208Y18783117D01*
X32621055Y18784043D01*
X32681656Y18814921D01*
X32729494Y18839295D01*
X32729495Y18839296D01*
X32734771Y18841984D01*
X32825016Y18932229D01*
X32830196Y18942394D01*
X32861762Y19004348D01*
X32882957Y19045945D01*
X32892633Y19107039D01*
X32897438Y19137374D01*
X32897438Y19137376D01*
X32897900Y19140292D01*
X32897900Y19703708D01*
X32892001Y19740955D01*
X32885185Y19783989D01*
X32895000Y19834484D01*
X32934977Y19866856D01*
X32963748Y19869322D01*
X32963769Y19870465D01*
X33102442Y19867923D01*
X33102443Y19867923D01*
X33107798Y19867825D01*
X33107790Y19867368D01*
X33154477Y19856675D01*
X33185506Y19815647D01*
X33182903Y19764273D01*
X33175680Y19751052D01*
X33175649Y19751006D01*
X33170744Y19746093D01*
X33125118Y19642889D01*
X33122100Y19617004D01*
X33122100Y19226996D01*
X33122363Y19224789D01*
X33122363Y19224782D01*
X33123021Y19219252D01*
X33125242Y19200588D01*
X33171048Y19097464D01*
X33184787Y19083749D01*
X33245683Y19022959D01*
X33250907Y19017744D01*
X33257257Y19014937D01*
X33257258Y19014936D01*
X33275924Y19006684D01*
X33354111Y18972118D01*
X33359729Y18971463D01*
X33377834Y18969352D01*
X33377835Y18969352D01*
X33379996Y18969100D01*
X34645004Y18969100D01*
X34647211Y18969363D01*
X34647218Y18969363D01*
X34665809Y18971575D01*
X34665811Y18971576D01*
X34671412Y18972242D01*
X34774536Y19018048D01*
X34840123Y19083749D01*
X34849351Y19092993D01*
X34849352Y19092994D01*
X34854256Y19097907D01*
X34899882Y19201111D01*
X34901336Y19213579D01*
X34902648Y19224834D01*
X34902648Y19224835D01*
X34902900Y19226996D01*
X34902900Y19617004D01*
X34902199Y19622903D01*
X34900425Y19637809D01*
X34900424Y19637811D01*
X34899758Y19643412D01*
X34853952Y19746536D01*
X34802343Y19798055D01*
X34779007Y19821351D01*
X34779006Y19821352D01*
X34774093Y19826256D01*
X34767743Y19829063D01*
X34767742Y19829064D01*
X34673088Y19870910D01*
X34635992Y19906546D01*
X34630481Y19957690D01*
X34647742Y19990153D01*
X34650674Y19993392D01*
X34736210Y20087890D01*
X34744062Y20104095D01*
X34796682Y20212704D01*
X34796682Y20212705D01*
X34799020Y20217530D01*
X34822919Y20359587D01*
X34823071Y20372000D01*
X34822659Y20374880D01*
X34803409Y20509296D01*
X34803408Y20509300D01*
X34802649Y20514599D01*
X34798431Y20523878D01*
X34750478Y20629343D01*
X34743026Y20645734D01*
X34738422Y20651078D01*
X34648993Y20754864D01*
X34650755Y20756383D01*
X34630224Y20793582D01*
X34640131Y20844059D01*
X34673993Y20873936D01*
X34767903Y20915649D01*
X34779152Y20923379D01*
X34848931Y20993281D01*
X34856644Y21004546D01*
X34897100Y21096055D01*
X34900042Y21106846D01*
X34902148Y21124909D01*
X34902400Y21129248D01*
X34902400Y21156341D01*
X34898703Y21166498D01*
X34893331Y21169600D01*
X33135859Y21169600D01*
X33125702Y21165903D01*
X33122600Y21160531D01*
X33122600Y21129300D01*
X33122863Y21124858D01*
X33125070Y21106311D01*
X33128029Y21095546D01*
X33168647Y21004101D01*
X33176746Y20992316D01*
X33189624Y20942514D01*
X33167477Y20896086D01*
X33120668Y20874756D01*
X33114318Y20874525D01*
X32976047Y20875370D01*
X32970893Y20873897D01*
X32969149Y20873658D01*
X32918870Y20884527D01*
X32887341Y20925171D01*
X32884666Y20959925D01*
X32896938Y21037409D01*
X32897400Y21043284D01*
X32897400Y21156341D01*
X32893703Y21166498D01*
X32888331Y21169600D01*
X32185659Y21169600D01*
X32175502Y21165903D01*
X32172400Y21160531D01*
X32172400Y20682859D01*
X32176097Y20672702D01*
X32181469Y20669600D01*
X32510727Y20669600D01*
X32559065Y20652007D01*
X32584785Y20607458D01*
X32578798Y20562441D01*
X32561405Y20525395D01*
X32561404Y20525391D01*
X32559129Y20520546D01*
X32536967Y20378207D01*
X32537661Y20372899D01*
X32537661Y20372897D01*
X32547933Y20294344D01*
X32536756Y20244133D01*
X32526542Y20231420D01*
X32392048Y20096926D01*
X32345428Y20075186D01*
X32338874Y20074900D01*
X31876126Y20074900D01*
X31827788Y20092493D01*
X31822952Y20096926D01*
X31764788Y20155090D01*
X31755435Y20166486D01*
X31753010Y20170116D01*
X31744641Y20182641D01*
X31692425Y20217530D01*
X31656257Y20241697D01*
X31552000Y20262436D01*
X31544736Y20260991D01*
X31532942Y20258645D01*
X31518271Y20257200D01*
X30840373Y20257200D01*
X30798595Y20269873D01*
X30790082Y20275561D01*
X30783922Y20279677D01*
X30717447Y20292900D01*
X30462400Y20292900D01*
X30414062Y20310493D01*
X30388342Y20355042D01*
X30387200Y20368100D01*
X30387200Y20543758D01*
X30404793Y20592096D01*
X30431873Y20612483D01*
X30452432Y20621615D01*
X30458774Y20624432D01*
X30515384Y20681141D01*
X30530957Y20696741D01*
X30530958Y20696742D01*
X30535862Y20701655D01*
X30540433Y20711993D01*
X30560057Y20756383D01*
X30579982Y20801451D01*
X30580682Y20807458D01*
X30582648Y20824317D01*
X30582648Y20824318D01*
X30582900Y20826479D01*
X30582899Y21043284D01*
X31142600Y21043284D01*
X31143062Y21037412D01*
X31156598Y20951949D01*
X31160211Y20940829D01*
X31212705Y20837804D01*
X31219584Y20828337D01*
X31301337Y20746584D01*
X31310804Y20739705D01*
X31413829Y20687211D01*
X31424949Y20683598D01*
X31510412Y20670062D01*
X31516284Y20669600D01*
X31854341Y20669600D01*
X31864498Y20673297D01*
X31867600Y20678669D01*
X31867600Y21156341D01*
X31863903Y21166498D01*
X31858531Y21169600D01*
X31155859Y21169600D01*
X31145702Y21165903D01*
X31142600Y21160531D01*
X31142600Y21043284D01*
X30582899Y21043284D01*
X30582899Y21193520D01*
X30579862Y21219055D01*
X30535568Y21318774D01*
X30476000Y21378238D01*
X30463259Y21390957D01*
X30463258Y21390958D01*
X30458345Y21395862D01*
X30451994Y21398670D01*
X30400384Y21421487D01*
X30363288Y21457123D01*
X30359998Y21487659D01*
X31142600Y21487659D01*
X31146297Y21477502D01*
X31151669Y21474400D01*
X31854341Y21474400D01*
X31864498Y21478097D01*
X31867600Y21483469D01*
X31867600Y21487659D01*
X32172400Y21487659D01*
X32176097Y21477502D01*
X32181469Y21474400D01*
X32884141Y21474400D01*
X32894298Y21478097D01*
X32897400Y21483469D01*
X32897400Y21487659D01*
X33122600Y21487659D01*
X33126297Y21477502D01*
X33131669Y21474400D01*
X33846841Y21474400D01*
X33856998Y21478097D01*
X33860100Y21483469D01*
X33860100Y21487659D01*
X34164900Y21487659D01*
X34168597Y21477502D01*
X34173969Y21474400D01*
X34889141Y21474400D01*
X34899298Y21478097D01*
X34902400Y21483469D01*
X34902400Y21514700D01*
X34902137Y21519142D01*
X34899930Y21537689D01*
X34896971Y21548454D01*
X34856351Y21639903D01*
X34848621Y21651152D01*
X34778719Y21720931D01*
X34767454Y21728644D01*
X34675945Y21769100D01*
X34665154Y21772042D01*
X34647091Y21774148D01*
X34642752Y21774400D01*
X34178159Y21774400D01*
X34168002Y21770703D01*
X34164900Y21765331D01*
X34164900Y21487659D01*
X33860100Y21487659D01*
X33860100Y21761141D01*
X33856403Y21771298D01*
X33851031Y21774400D01*
X33382300Y21774400D01*
X33377858Y21774137D01*
X33359311Y21771930D01*
X33348546Y21768971D01*
X33257097Y21728351D01*
X33245848Y21720621D01*
X33176069Y21650719D01*
X33168356Y21639454D01*
X33127900Y21547945D01*
X33124958Y21537154D01*
X33122852Y21519091D01*
X33122600Y21514752D01*
X33122600Y21487659D01*
X32897400Y21487659D01*
X32897400Y21600716D01*
X32896938Y21606588D01*
X32883402Y21692051D01*
X32879789Y21703171D01*
X32827295Y21806196D01*
X32820416Y21815663D01*
X32738663Y21897416D01*
X32729196Y21904295D01*
X32626171Y21956789D01*
X32615051Y21960402D01*
X32529588Y21973938D01*
X32523716Y21974400D01*
X32185659Y21974400D01*
X32175502Y21970703D01*
X32172400Y21965331D01*
X32172400Y21487659D01*
X31867600Y21487659D01*
X31867600Y21961141D01*
X31863903Y21971298D01*
X31858531Y21974400D01*
X31516284Y21974400D01*
X31510412Y21973938D01*
X31424949Y21960402D01*
X31413829Y21956789D01*
X31310804Y21904295D01*
X31301337Y21897416D01*
X31219584Y21815663D01*
X31212705Y21806196D01*
X31160211Y21703171D01*
X31156598Y21692051D01*
X31143062Y21606588D01*
X31142600Y21600716D01*
X31142600Y21487659D01*
X30359998Y21487659D01*
X30357778Y21508267D01*
X30386431Y21550988D01*
X30400265Y21558990D01*
X30452142Y21582033D01*
X30463388Y21589762D01*
X30530537Y21657028D01*
X30538250Y21668293D01*
X30577200Y21756395D01*
X30580142Y21767186D01*
X30582148Y21784392D01*
X30582400Y21788731D01*
X30582400Y21804341D01*
X30578703Y21814498D01*
X30573331Y21817600D01*
X29670860Y21817600D01*
X29660703Y21813903D01*
X29657601Y21808531D01*
X29657601Y21788773D01*
X29657863Y21784356D01*
X29659967Y21766663D01*
X29662923Y21755908D01*
X29702034Y21667856D01*
X29709762Y21656612D01*
X29777028Y21589463D01*
X29788293Y21581750D01*
X29839616Y21559060D01*
X29876712Y21523424D01*
X29882222Y21472280D01*
X29853569Y21429559D01*
X29839735Y21421557D01*
X29788210Y21398670D01*
X29781226Y21395568D01*
X29760905Y21375211D01*
X29709460Y21323676D01*
X29704138Y21318345D01*
X29660018Y21218549D01*
X29657100Y21193521D01*
X29657101Y20826480D01*
X29660138Y20800945D01*
X29704432Y20701226D01*
X29715936Y20689742D01*
X29776441Y20629343D01*
X29781655Y20624138D01*
X29808007Y20612488D01*
X29845103Y20576853D01*
X29852800Y20543710D01*
X29852800Y20368099D01*
X29835207Y20319761D01*
X29790658Y20294041D01*
X29777600Y20292899D01*
X29347554Y20292899D01*
X29343931Y20292178D01*
X29343927Y20292178D01*
X29315853Y20286594D01*
X29281078Y20279677D01*
X29205693Y20229307D01*
X29155323Y20153922D01*
X29153879Y20146660D01*
X29153878Y20146659D01*
X29143148Y20092715D01*
X29142100Y20087447D01*
X29142101Y19892554D01*
X29142822Y19888931D01*
X29142822Y19888927D01*
X29147110Y19867368D01*
X29155323Y19826078D01*
X29159438Y19819920D01*
X29159438Y19819919D01*
X29185224Y19781328D01*
X29197450Y19731362D01*
X29185223Y19697770D01*
X29159911Y19659888D01*
X29156032Y19650523D01*
X29157294Y19642321D01*
X29159910Y19640027D01*
X29160056Y19640000D01*
X30898677Y19640000D01*
X30908834Y19643697D01*
X30910574Y19646710D01*
X30910573Y19646781D01*
X30927639Y19695307D01*
X30971905Y19721511D01*
X30985769Y19722800D01*
X31066900Y19722800D01*
X31115238Y19705207D01*
X31140958Y19660658D01*
X31142100Y19647600D01*
X31142100Y19140292D01*
X31142562Y19137376D01*
X31142562Y19137374D01*
X31147367Y19107039D01*
X31157043Y19045945D01*
X31194660Y18972118D01*
X31214984Y18932229D01*
X31213904Y18931679D01*
X31226376Y18888199D01*
X31205458Y18841205D01*
X31166030Y18819684D01*
X31108007Y18808142D01*
X31108006Y18808142D01*
X31100744Y18806697D01*
X31049311Y18772331D01*
X31045632Y18769873D01*
X31003854Y18757200D01*
X30987608Y18757200D01*
X30939270Y18774793D01*
X30913550Y18819342D01*
X30913853Y18847071D01*
X30922179Y18888928D01*
X30922179Y18888929D01*
X30922900Y18892553D01*
X30922899Y19087446D01*
X30921882Y19092562D01*
X30915371Y19125292D01*
X30909677Y19153922D01*
X30879776Y19198673D01*
X30867550Y19248638D01*
X30879777Y19282230D01*
X30905089Y19320112D01*
X30908968Y19329477D01*
X30907706Y19337679D01*
X30905090Y19339973D01*
X30904944Y19340000D01*
X29166323Y19340000D01*
X29156166Y19336303D01*
X29154426Y19333290D01*
X29154427Y19333219D01*
X29137361Y19284693D01*
X29093095Y19258489D01*
X29079231Y19257200D01*
X28840805Y19257200D01*
X28792467Y19274793D01*
X28766365Y19321739D01*
X28758409Y19377296D01*
X28758408Y19377300D01*
X28757649Y19382599D01*
X28754772Y19388928D01*
X28700245Y19508853D01*
X28698026Y19513734D01*
X28693538Y19518943D01*
X28607487Y19618810D01*
X28607484Y19618813D01*
X28603993Y19622864D01*
X28599502Y19625775D01*
X28487604Y19698303D01*
X28487603Y19698303D01*
X28483111Y19701215D01*
X28389179Y19729307D01*
X28350232Y19740955D01*
X28350229Y19740955D01*
X28345098Y19742490D01*
X28339743Y19742523D01*
X28339741Y19742523D01*
X28274524Y19742921D01*
X28201047Y19743370D01*
X28195897Y19741898D01*
X28195896Y19741898D01*
X28131793Y19723578D01*
X28062539Y19703785D01*
X28058013Y19700929D01*
X28058010Y19700928D01*
X27961446Y19640000D01*
X27940709Y19626916D01*
X27933550Y19618810D01*
X27848897Y19522959D01*
X27848895Y19522956D01*
X27845351Y19518943D01*
X27784129Y19388546D01*
X27761967Y19246207D01*
X27762661Y19240900D01*
X27762661Y19240897D01*
X27767129Y19206729D01*
X27780645Y19103370D01*
X27838662Y18971516D01*
X27931354Y18861245D01*
X27964329Y18839295D01*
X28039871Y18789011D01*
X28051270Y18781423D01*
X28188769Y18738465D01*
X28282170Y18736753D01*
X28327443Y18735923D01*
X28327444Y18735923D01*
X28332798Y18735825D01*
X28363900Y18744304D01*
X28411251Y18741304D01*
X28415743Y18738303D01*
X28520000Y18717565D01*
X28527264Y18719010D01*
X28527265Y18719010D01*
X28539054Y18721355D01*
X28553725Y18722800D01*
X29077392Y18722800D01*
X29125730Y18705207D01*
X29151450Y18660658D01*
X29151147Y18632929D01*
X29142100Y18587447D01*
X29142101Y18392554D01*
X29142822Y18388931D01*
X29142822Y18388927D01*
X29146017Y18372864D01*
X29155323Y18326078D01*
X29159440Y18319917D01*
X29159440Y18319916D01*
X29184922Y18281778D01*
X29197148Y18231812D01*
X29184922Y18198222D01*
X29159440Y18160084D01*
X29155323Y18153922D01*
X29153879Y18146660D01*
X29153878Y18146659D01*
X29143835Y18096171D01*
X29142100Y18087447D01*
X29142101Y17892554D01*
X29151112Y17847253D01*
X29151148Y17847070D01*
X29143323Y17796229D01*
X29104648Y17762313D01*
X29077393Y17757200D01*
X26653725Y17757200D01*
X26639054Y17758645D01*
X26627265Y17760990D01*
X26627264Y17760990D01*
X26620000Y17762435D01*
X26515743Y17741697D01*
X26510664Y17738303D01*
X26427359Y17682641D01*
X26423244Y17676482D01*
X26416563Y17666483D01*
X26407210Y17655087D01*
X25486693Y16734571D01*
X25440073Y16712831D01*
X25390386Y16726145D01*
X25376550Y16738658D01*
X25307490Y16818807D01*
X25307485Y16818811D01*
X25303993Y16822864D01*
X25299502Y16825775D01*
X25187604Y16898303D01*
X25187603Y16898303D01*
X25183111Y16901215D01*
X25092653Y16928268D01*
X25050232Y16940955D01*
X25050229Y16940955D01*
X25045098Y16942490D01*
X25039743Y16942523D01*
X25039741Y16942523D01*
X24974524Y16942921D01*
X24901047Y16943370D01*
X24895897Y16941898D01*
X24895896Y16941898D01*
X24848205Y16928268D01*
X24762539Y16903785D01*
X24758013Y16900929D01*
X24758010Y16900928D01*
X24652743Y16834509D01*
X24640709Y16826916D01*
X24629705Y16814456D01*
X24548897Y16722959D01*
X24548895Y16722956D01*
X24545351Y16718943D01*
X24535410Y16697770D01*
X24490331Y16601755D01*
X24484129Y16588546D01*
X24483305Y16583256D01*
X24483305Y16583255D01*
X24480831Y16567363D01*
X24461967Y16446207D01*
X24462661Y16440900D01*
X24462661Y16440897D01*
X24467281Y16405568D01*
X24480645Y16303370D01*
X24513344Y16229055D01*
X24536146Y16177235D01*
X24538662Y16171516D01*
X24542107Y16167418D01*
X24542108Y16167416D01*
X24559583Y16146627D01*
X24631354Y16061245D01*
X24649732Y16049012D01*
X24720182Y16002117D01*
X24751270Y15981423D01*
X24888769Y15938465D01*
X24962871Y15937107D01*
X25027436Y15935923D01*
X25027438Y15935923D01*
X25032798Y15935825D01*
X25037969Y15937235D01*
X25037971Y15937235D01*
X25114268Y15958036D01*
X25171779Y15973715D01*
X25263678Y16030141D01*
X25289970Y16046284D01*
X25289973Y16046286D01*
X25294539Y16049090D01*
X25384128Y16148066D01*
X25429608Y16172095D01*
X25439879Y16172800D01*
X25536271Y16172800D01*
X25550942Y16171355D01*
X25570000Y16167564D01*
X25577264Y16169009D01*
X25666993Y16186858D01*
X25674257Y16188303D01*
X25740329Y16232451D01*
X25762641Y16247359D01*
X25773438Y16263518D01*
X25782791Y16274913D01*
X26245701Y16737823D01*
X26708651Y17200774D01*
X26755271Y17222514D01*
X26761825Y17222800D01*
X27043375Y17222800D01*
X27091713Y17205207D01*
X27117433Y17160658D01*
X27108500Y17110000D01*
X27096549Y17094426D01*
X26700344Y16698222D01*
X26304913Y16302791D01*
X26293518Y16293438D01*
X26277359Y16282641D01*
X26273243Y16276481D01*
X26273242Y16276480D01*
X26262452Y16260331D01*
X26262451Y16260329D01*
X26225888Y16205608D01*
X26218303Y16194257D01*
X26197564Y16090000D01*
X26199009Y16082736D01*
X26201355Y16070942D01*
X26202800Y16056271D01*
X26202800Y14907563D01*
X26185207Y14859225D01*
X26167728Y14843965D01*
X26145241Y14829777D01*
X26145234Y14829771D01*
X26140709Y14826916D01*
X26134527Y14819916D01*
X26048897Y14722959D01*
X26048895Y14722956D01*
X26045351Y14718943D01*
X26043075Y14714095D01*
X26043073Y14714092D01*
X25987667Y14596082D01*
X25951198Y14559804D01*
X25899942Y14555455D01*
X25857883Y14585070D01*
X25851140Y14596916D01*
X25805079Y14698222D01*
X25798026Y14713734D01*
X25794298Y14718061D01*
X25707487Y14818810D01*
X25707484Y14818813D01*
X25703993Y14822864D01*
X25699502Y14825775D01*
X25587604Y14898303D01*
X25587603Y14898303D01*
X25583111Y14901215D01*
X25495990Y14927270D01*
X25450232Y14940955D01*
X25450229Y14940955D01*
X25445098Y14942490D01*
X25439743Y14942523D01*
X25439741Y14942523D01*
X25374524Y14942921D01*
X25301047Y14943370D01*
X25295897Y14941898D01*
X25295896Y14941898D01*
X25278982Y14937064D01*
X25162539Y14903785D01*
X25158013Y14900929D01*
X25158010Y14900928D01*
X25067730Y14843965D01*
X25040709Y14826916D01*
X25034527Y14819916D01*
X24948897Y14722959D01*
X24948895Y14722956D01*
X24945351Y14718943D01*
X24884129Y14588546D01*
X24883305Y14583256D01*
X24883305Y14583255D01*
X24882377Y14577296D01*
X24861967Y14446207D01*
X24862661Y14440900D01*
X24862661Y14440897D01*
X24870784Y14378780D01*
X24880645Y14303370D01*
X24938662Y14171516D01*
X24942107Y14167418D01*
X24942108Y14167416D01*
X24994765Y14104773D01*
X25015386Y14080242D01*
X25015499Y14080107D01*
X25033135Y14031784D01*
X25015584Y13983432D01*
X24972604Y13957964D01*
X24963345Y13956123D01*
X24963342Y13956122D01*
X24956078Y13954677D01*
X24949918Y13950561D01*
X24949916Y13950560D01*
X24911778Y13925078D01*
X24861812Y13912852D01*
X24828222Y13925078D01*
X24790081Y13950562D01*
X24790079Y13950563D01*
X24783922Y13954677D01*
X24776660Y13956121D01*
X24776659Y13956122D01*
X24721072Y13967179D01*
X24721071Y13967179D01*
X24717447Y13967900D01*
X24620027Y13967900D01*
X24522554Y13967899D01*
X24518931Y13967178D01*
X24518927Y13967178D01*
X24492589Y13961939D01*
X24456078Y13954677D01*
X24449918Y13950561D01*
X24449916Y13950560D01*
X24411778Y13925078D01*
X24361812Y13912852D01*
X24328222Y13925078D01*
X24290081Y13950562D01*
X24290079Y13950563D01*
X24283922Y13954677D01*
X24276231Y13956207D01*
X24269193Y13957607D01*
X24265854Y13958271D01*
X24221877Y13984956D01*
X24205342Y14033666D01*
X24224772Y14082491D01*
X24233808Y14092473D01*
X24291210Y14155890D01*
X24293805Y14161245D01*
X24351682Y14280704D01*
X24351682Y14280705D01*
X24354020Y14285530D01*
X24377919Y14427587D01*
X24378071Y14440000D01*
X24377659Y14442880D01*
X24358409Y14577296D01*
X24358408Y14577300D01*
X24357649Y14582599D01*
X24355376Y14587600D01*
X24305079Y14698222D01*
X24298026Y14713734D01*
X24294298Y14718061D01*
X24207487Y14818810D01*
X24207484Y14818813D01*
X24203993Y14822864D01*
X24199502Y14825775D01*
X24087604Y14898303D01*
X24087603Y14898303D01*
X24083111Y14901215D01*
X23995990Y14927270D01*
X23950232Y14940955D01*
X23950229Y14940955D01*
X23945098Y14942490D01*
X23939743Y14942523D01*
X23939741Y14942523D01*
X23874524Y14942921D01*
X23801047Y14943370D01*
X23795895Y14941898D01*
X23790591Y14941171D01*
X23790255Y14943621D01*
X23748286Y14946607D01*
X23725783Y14962094D01*
X23094630Y15593248D01*
X23072890Y15639868D01*
X23086204Y15689555D01*
X23133132Y15720176D01*
X23192519Y15731990D01*
X23216994Y15736858D01*
X23216995Y15736858D01*
X23224257Y15738303D01*
X23281393Y15776480D01*
X23312641Y15797359D01*
X23317437Y15804536D01*
X23323436Y15813515D01*
X23332788Y15824910D01*
X23372340Y15864462D01*
X23425707Y15917830D01*
X23472327Y15939570D01*
X23486948Y15939034D01*
X23488769Y15938465D01*
X23555873Y15937235D01*
X23627436Y15935923D01*
X23627438Y15935923D01*
X23632798Y15935825D01*
X23637969Y15937235D01*
X23637971Y15937235D01*
X23714268Y15958036D01*
X23771779Y15973715D01*
X23863678Y16030141D01*
X23889970Y16046284D01*
X23889973Y16046286D01*
X23894539Y16049090D01*
X23907744Y16063678D01*
X23987612Y16151915D01*
X23991210Y16155890D01*
X23996343Y16166483D01*
X24051682Y16280704D01*
X24051682Y16280705D01*
X24054020Y16285530D01*
X24077919Y16427587D01*
X24078071Y16440000D01*
X24077594Y16443331D01*
X24058409Y16577296D01*
X24058408Y16577300D01*
X24057649Y16582599D01*
X24053797Y16591073D01*
X24011453Y16684203D01*
X23998026Y16713734D01*
X23990461Y16722514D01*
X23907487Y16818810D01*
X23907484Y16818813D01*
X23903993Y16822864D01*
X23899502Y16825775D01*
X23787604Y16898303D01*
X23787603Y16898303D01*
X23783111Y16901215D01*
X23692653Y16928268D01*
X23650232Y16940955D01*
X23650229Y16940955D01*
X23645098Y16942490D01*
X23639743Y16942523D01*
X23639741Y16942523D01*
X23574524Y16942921D01*
X23501047Y16943370D01*
X23495897Y16941898D01*
X23495896Y16941898D01*
X23448205Y16928268D01*
X23362539Y16903785D01*
X23358013Y16900929D01*
X23358010Y16900928D01*
X23252743Y16834509D01*
X23240709Y16826916D01*
X23229705Y16814456D01*
X23148897Y16722959D01*
X23148895Y16722956D01*
X23145351Y16718943D01*
X23135410Y16697770D01*
X23090331Y16601755D01*
X23084129Y16588546D01*
X23083305Y16583256D01*
X23083305Y16583255D01*
X23080831Y16567363D01*
X23061967Y16446207D01*
X23062661Y16440899D01*
X23062661Y16440897D01*
X23072933Y16362344D01*
X23061756Y16312133D01*
X23051542Y16299420D01*
X23031348Y16279226D01*
X22984728Y16257486D01*
X22978174Y16257200D01*
X22659604Y16257200D01*
X22611266Y16274793D01*
X22585280Y16320958D01*
X22582706Y16337679D01*
X22580090Y16339973D01*
X22579944Y16340000D01*
X21632700Y16340000D01*
X21584362Y16357593D01*
X21558642Y16402142D01*
X21557500Y16415200D01*
X21557500Y16564800D01*
X21575093Y16613138D01*
X21619642Y16638858D01*
X21632700Y16640000D01*
X22573677Y16640000D01*
X22583834Y16643697D01*
X22585559Y16646684D01*
X22580089Y16659888D01*
X22554777Y16697770D01*
X22542550Y16747735D01*
X22554776Y16781328D01*
X22555523Y16782446D01*
X22584677Y16826078D01*
X22596134Y16883672D01*
X22597179Y16888928D01*
X22597179Y16888929D01*
X22597900Y16892553D01*
X22597899Y17087446D01*
X22584677Y17153922D01*
X22580176Y17160658D01*
X22555078Y17198222D01*
X22542852Y17248188D01*
X22555078Y17281778D01*
X22580562Y17319919D01*
X22580562Y17319920D01*
X22584677Y17326078D01*
X22597900Y17392553D01*
X22597899Y17587446D01*
X22597011Y17591915D01*
X22588771Y17633339D01*
X22584677Y17653922D01*
X22580398Y17660326D01*
X22555078Y17698222D01*
X22542852Y17748188D01*
X22555078Y17781778D01*
X22580562Y17819919D01*
X22580562Y17819920D01*
X22584677Y17826078D01*
X22587239Y17838954D01*
X22597179Y17888928D01*
X22597179Y17888929D01*
X22597900Y17892553D01*
X22597899Y18087446D01*
X22596133Y18096328D01*
X22588918Y18132599D01*
X22584677Y18153922D01*
X22580560Y18160084D01*
X22555078Y18198222D01*
X22542852Y18248188D01*
X22555078Y18281778D01*
X22580562Y18319919D01*
X22580562Y18319920D01*
X22584677Y18326078D01*
X22589490Y18350271D01*
X22597179Y18388928D01*
X22597179Y18388929D01*
X22597900Y18392553D01*
X22597899Y18587446D01*
X22593681Y18608656D01*
X22587899Y18637721D01*
X22584677Y18653922D01*
X22578070Y18663810D01*
X22555078Y18698222D01*
X22542852Y18748188D01*
X22555078Y18781778D01*
X22580562Y18819919D01*
X22580562Y18819920D01*
X22584677Y18826078D01*
X22587196Y18838738D01*
X22597179Y18888928D01*
X22597179Y18888929D01*
X22597900Y18892553D01*
X22597899Y19087446D01*
X22596882Y19092562D01*
X22590371Y19125292D01*
X22584677Y19153922D01*
X22573083Y19171274D01*
X22555078Y19198222D01*
X22542852Y19248188D01*
X22555078Y19281778D01*
X22580562Y19319919D01*
X22580562Y19319920D01*
X22584677Y19326078D01*
X22586636Y19335923D01*
X22597179Y19388928D01*
X22597179Y19388929D01*
X22597900Y19392553D01*
X22597899Y19587446D01*
X22596911Y19592417D01*
X22589480Y19629773D01*
X22584677Y19653922D01*
X22580176Y19660658D01*
X22555078Y19698222D01*
X22542852Y19748188D01*
X22555078Y19781778D01*
X22580562Y19819919D01*
X22580562Y19819920D01*
X22584677Y19826078D01*
X22592789Y19866856D01*
X22597179Y19888928D01*
X22597179Y19888929D01*
X22597900Y19892553D01*
X22597899Y20087446D01*
X22596896Y20092493D01*
X22591594Y20119147D01*
X22584677Y20153922D01*
X22580396Y20160329D01*
X22567582Y20179508D01*
X22555356Y20229473D01*
X22578108Y20275608D01*
X22590761Y20285370D01*
X22689970Y20346284D01*
X22689973Y20346286D01*
X22694539Y20349090D01*
X22704041Y20359587D01*
X22787612Y20451915D01*
X22791210Y20455890D01*
X22819292Y20513851D01*
X22856198Y20549678D01*
X22907503Y20553401D01*
X22928743Y20543588D01*
X22956078Y20525323D01*
X22963340Y20523879D01*
X22963341Y20523878D01*
X23013765Y20513848D01*
X23022553Y20512100D01*
X23119973Y20512100D01*
X23217446Y20512101D01*
X23221069Y20512822D01*
X23221073Y20512822D01*
X23254525Y20519476D01*
X23283922Y20525323D01*
X23328673Y20555224D01*
X23378638Y20567450D01*
X23412230Y20555223D01*
X23450112Y20529911D01*
X23459477Y20526032D01*
X23467679Y20527294D01*
X23469973Y20529910D01*
X23470000Y20530056D01*
X23470000Y20536323D01*
X23770000Y20536323D01*
X23773697Y20526166D01*
X23776684Y20524441D01*
X23789888Y20529911D01*
X23827770Y20555223D01*
X23877735Y20567450D01*
X23911327Y20555224D01*
X23956078Y20525323D01*
X23963340Y20523879D01*
X23963341Y20523878D01*
X24013765Y20513848D01*
X24022553Y20512100D01*
X24119973Y20512100D01*
X24217446Y20512101D01*
X24221069Y20512822D01*
X24221073Y20512822D01*
X24254525Y20519476D01*
X24283922Y20525323D01*
X24293990Y20532050D01*
X24328222Y20554922D01*
X24378188Y20567148D01*
X24411778Y20554922D01*
X24446010Y20532050D01*
X24456078Y20525323D01*
X24463340Y20523879D01*
X24463341Y20523878D01*
X24513765Y20513848D01*
X24522553Y20512100D01*
X24619973Y20512100D01*
X24717446Y20512101D01*
X24721069Y20512822D01*
X24721073Y20512822D01*
X24754525Y20519476D01*
X24783922Y20525323D01*
X24793990Y20532050D01*
X24828222Y20554922D01*
X24878188Y20567148D01*
X24911778Y20554922D01*
X24946010Y20532050D01*
X24956078Y20525323D01*
X24963340Y20523879D01*
X24963341Y20523878D01*
X25013765Y20513848D01*
X25022553Y20512100D01*
X25119973Y20512100D01*
X25217446Y20512101D01*
X25221069Y20512822D01*
X25221073Y20512822D01*
X25254525Y20519476D01*
X25283922Y20525323D01*
X25293990Y20532050D01*
X25328222Y20554922D01*
X25378188Y20567148D01*
X25411778Y20554922D01*
X25446010Y20532050D01*
X25456078Y20525323D01*
X25463340Y20523879D01*
X25463341Y20523878D01*
X25513765Y20513848D01*
X25522553Y20512100D01*
X25619973Y20512100D01*
X25717446Y20512101D01*
X25721069Y20512822D01*
X25721073Y20512822D01*
X25754525Y20519476D01*
X25783922Y20525323D01*
X25793990Y20532050D01*
X25828222Y20554922D01*
X25878188Y20567148D01*
X25911778Y20554922D01*
X25946010Y20532050D01*
X25956078Y20525323D01*
X25963340Y20523879D01*
X25963341Y20523878D01*
X26013765Y20513848D01*
X26022553Y20512100D01*
X26119973Y20512100D01*
X26217446Y20512101D01*
X26221069Y20512822D01*
X26221073Y20512822D01*
X26254525Y20519476D01*
X26283922Y20525323D01*
X26293990Y20532050D01*
X26328222Y20554922D01*
X26378188Y20567148D01*
X26411778Y20554922D01*
X26446010Y20532050D01*
X26456078Y20525323D01*
X26463340Y20523879D01*
X26463341Y20523878D01*
X26513765Y20513848D01*
X26522553Y20512100D01*
X26619973Y20512100D01*
X26717446Y20512101D01*
X26721069Y20512822D01*
X26721073Y20512822D01*
X26754525Y20519476D01*
X26783922Y20525323D01*
X26793990Y20532050D01*
X26828222Y20554922D01*
X26878188Y20567148D01*
X26911778Y20554922D01*
X26946010Y20532050D01*
X26956078Y20525323D01*
X26963340Y20523879D01*
X26963341Y20523878D01*
X27013765Y20513848D01*
X27022553Y20512100D01*
X27119973Y20512100D01*
X27217446Y20512101D01*
X27221069Y20512822D01*
X27221073Y20512822D01*
X27254525Y20519476D01*
X27283922Y20525323D01*
X27293990Y20532050D01*
X27328222Y20554922D01*
X27378188Y20567148D01*
X27411778Y20554922D01*
X27446010Y20532050D01*
X27456078Y20525323D01*
X27458696Y20524802D01*
X27494628Y20491878D01*
X27501344Y20440878D01*
X27481100Y20403978D01*
X27206348Y20129226D01*
X27159728Y20107486D01*
X27153174Y20107200D01*
X27138125Y20107200D01*
X27089787Y20124793D01*
X27081156Y20133312D01*
X27063398Y20153922D01*
X27048439Y20171282D01*
X27007487Y20218810D01*
X27007484Y20218813D01*
X27003993Y20222864D01*
X26999502Y20225775D01*
X26887604Y20298303D01*
X26887603Y20298303D01*
X26883111Y20301215D01*
X26806912Y20324003D01*
X26750232Y20340955D01*
X26750229Y20340955D01*
X26745098Y20342490D01*
X26739743Y20342523D01*
X26739741Y20342523D01*
X26674524Y20342921D01*
X26601047Y20343370D01*
X26595897Y20341898D01*
X26595896Y20341898D01*
X26531793Y20323577D01*
X26462539Y20303785D01*
X26458013Y20300929D01*
X26458010Y20300928D01*
X26351016Y20233419D01*
X26340709Y20226916D01*
X26323732Y20207693D01*
X26248897Y20122959D01*
X26248895Y20122956D01*
X26245351Y20118943D01*
X26184129Y19988546D01*
X26161967Y19846207D01*
X26162661Y19840900D01*
X26162661Y19840897D01*
X26170103Y19783989D01*
X26180645Y19703370D01*
X26215611Y19623903D01*
X26231276Y19588303D01*
X26238662Y19571516D01*
X26242107Y19567418D01*
X26242108Y19567416D01*
X26270544Y19533587D01*
X26331354Y19461245D01*
X26353830Y19446284D01*
X26442177Y19387476D01*
X26451270Y19381423D01*
X26588769Y19338465D01*
X26662871Y19337107D01*
X26727436Y19335923D01*
X26727438Y19335923D01*
X26732798Y19335825D01*
X26737969Y19337235D01*
X26737971Y19337235D01*
X26813695Y19357880D01*
X26871779Y19373715D01*
X26924871Y19406314D01*
X26989970Y19446284D01*
X26989973Y19446286D01*
X26994539Y19449090D01*
X27084128Y19548066D01*
X27129608Y19572095D01*
X27139879Y19572800D01*
X27261271Y19572800D01*
X27275942Y19571355D01*
X27295000Y19567564D01*
X27302264Y19569009D01*
X27391993Y19586858D01*
X27399257Y19588303D01*
X27465329Y19632451D01*
X27487641Y19647359D01*
X27498438Y19663518D01*
X27507791Y19674913D01*
X28285087Y20452210D01*
X28296483Y20461563D01*
X28306485Y20468246D01*
X28312641Y20472359D01*
X28339600Y20512707D01*
X28381083Y20543125D01*
X28432413Y20539761D01*
X28443906Y20533456D01*
X28456078Y20525323D01*
X28463340Y20523879D01*
X28463341Y20523878D01*
X28513765Y20513848D01*
X28522553Y20512100D01*
X28619973Y20512100D01*
X28717446Y20512101D01*
X28721069Y20512822D01*
X28721073Y20512822D01*
X28754525Y20519476D01*
X28783922Y20525323D01*
X28859307Y20575693D01*
X28863948Y20582638D01*
X28895154Y20629343D01*
X28909677Y20651078D01*
X28913362Y20669600D01*
X28922179Y20713928D01*
X28922179Y20713929D01*
X28922900Y20717553D01*
X28922899Y22087446D01*
X28921250Y22095741D01*
X28913310Y22135659D01*
X29657600Y22135659D01*
X29661297Y22125502D01*
X29666669Y22122400D01*
X29954341Y22122400D01*
X29964498Y22126097D01*
X29967600Y22131469D01*
X29967600Y22389140D01*
X29963903Y22399297D01*
X29958531Y22402399D01*
X29908773Y22402399D01*
X29904356Y22402137D01*
X29886663Y22400033D01*
X29875908Y22397077D01*
X29787856Y22357966D01*
X29776612Y22350238D01*
X29709463Y22282972D01*
X29701750Y22271707D01*
X29662800Y22183605D01*
X29659858Y22172814D01*
X29657852Y22155608D01*
X29657600Y22151269D01*
X29657600Y22135659D01*
X28913310Y22135659D01*
X28909677Y22153922D01*
X28912287Y22154441D01*
X28910562Y22193986D01*
X28941878Y22234795D01*
X28962500Y22243923D01*
X29071779Y22273715D01*
X29163481Y22330020D01*
X29189970Y22346284D01*
X29189973Y22346286D01*
X29194539Y22349090D01*
X29291210Y22455890D01*
X29294984Y22463678D01*
X29351682Y22580704D01*
X29351682Y22580705D01*
X29354020Y22585530D01*
X29377919Y22727587D01*
X29378071Y22740000D01*
X29377656Y22742900D01*
X29358409Y22877296D01*
X29358408Y22877300D01*
X29357649Y22882599D01*
X29351803Y22895458D01*
X29300245Y23008853D01*
X29298026Y23013734D01*
X29293538Y23018943D01*
X29207487Y23118810D01*
X29207484Y23118813D01*
X29203993Y23122864D01*
X29199502Y23125775D01*
X29087604Y23198303D01*
X29087603Y23198303D01*
X29083111Y23201215D01*
X28995311Y23227473D01*
X28950232Y23240955D01*
X28950229Y23240955D01*
X28945098Y23242490D01*
X28939743Y23242523D01*
X28939741Y23242523D01*
X28874524Y23242921D01*
X28801047Y23243370D01*
X28795897Y23241898D01*
X28795896Y23241898D01*
X28740367Y23226028D01*
X28662539Y23203785D01*
X28658013Y23200929D01*
X28658010Y23200928D01*
X28552556Y23134391D01*
X28540709Y23126916D01*
X28533550Y23118810D01*
X28448897Y23022959D01*
X28448895Y23022956D01*
X28445351Y23018943D01*
X28440921Y23009508D01*
X28387414Y22895542D01*
X28384129Y22888546D01*
X28383305Y22883256D01*
X28383305Y22883255D01*
X28381056Y22868810D01*
X28361967Y22746207D01*
X28362661Y22740900D01*
X28362661Y22740897D01*
X28364098Y22729912D01*
X28376186Y22637476D01*
X28376357Y22636166D01*
X28371441Y22598953D01*
X28368303Y22594257D01*
X28347564Y22490000D01*
X28349009Y22482736D01*
X28351355Y22470942D01*
X28352800Y22456271D01*
X28352800Y22357608D01*
X28335207Y22309270D01*
X28290658Y22283550D01*
X28262929Y22283853D01*
X28221072Y22292179D01*
X28221071Y22292179D01*
X28217447Y22292900D01*
X28120027Y22292900D01*
X28022554Y22292899D01*
X28018931Y22292178D01*
X28018927Y22292178D01*
X27990853Y22286594D01*
X27956078Y22279677D01*
X27949918Y22275561D01*
X27949916Y22275560D01*
X27911778Y22250078D01*
X27861812Y22237852D01*
X27828222Y22250078D01*
X27790081Y22275562D01*
X27790079Y22275563D01*
X27783922Y22279677D01*
X27776660Y22281121D01*
X27776659Y22281122D01*
X27721072Y22292179D01*
X27721071Y22292179D01*
X27717447Y22292900D01*
X27620027Y22292900D01*
X27522554Y22292899D01*
X27518931Y22292178D01*
X27518927Y22292178D01*
X27490853Y22286594D01*
X27456078Y22279677D01*
X27449918Y22275561D01*
X27449916Y22275560D01*
X27411778Y22250078D01*
X27361812Y22237852D01*
X27328222Y22250078D01*
X27290081Y22275562D01*
X27290079Y22275563D01*
X27283922Y22279677D01*
X27276660Y22281121D01*
X27276659Y22281122D01*
X27221072Y22292179D01*
X27221071Y22292179D01*
X27217447Y22292900D01*
X27120027Y22292900D01*
X27022554Y22292899D01*
X27018931Y22292178D01*
X27018927Y22292178D01*
X26990853Y22286594D01*
X26956078Y22279677D01*
X26949918Y22275561D01*
X26949916Y22275560D01*
X26911778Y22250078D01*
X26861812Y22237852D01*
X26828222Y22250078D01*
X26790081Y22275562D01*
X26790079Y22275563D01*
X26783922Y22279677D01*
X26776660Y22281121D01*
X26776659Y22281122D01*
X26721072Y22292179D01*
X26721071Y22292179D01*
X26717447Y22292900D01*
X26620027Y22292900D01*
X26522554Y22292899D01*
X26518931Y22292178D01*
X26518927Y22292178D01*
X26490853Y22286594D01*
X26456078Y22279677D01*
X26449918Y22275561D01*
X26449916Y22275560D01*
X26411778Y22250078D01*
X26361812Y22237852D01*
X26328222Y22250078D01*
X26290081Y22275562D01*
X26290079Y22275563D01*
X26283922Y22279677D01*
X26276660Y22281121D01*
X26276659Y22281122D01*
X26221072Y22292179D01*
X26221071Y22292179D01*
X26217447Y22292900D01*
X26120027Y22292900D01*
X26022554Y22292899D01*
X26018931Y22292178D01*
X26018927Y22292178D01*
X25990853Y22286594D01*
X25956078Y22279677D01*
X25949918Y22275561D01*
X25949916Y22275560D01*
X25911778Y22250078D01*
X25861812Y22237852D01*
X25828222Y22250078D01*
X25790080Y22275563D01*
X25790078Y22275564D01*
X25783922Y22279677D01*
X25776660Y22281122D01*
X25770768Y22283562D01*
X25732841Y22318313D01*
X25726126Y22369313D01*
X25743791Y22403503D01*
X25752115Y22412699D01*
X25791210Y22455890D01*
X25794984Y22463678D01*
X25851682Y22580704D01*
X25851682Y22580705D01*
X25854020Y22585530D01*
X25877919Y22727587D01*
X25878071Y22740000D01*
X25877493Y22744041D01*
X25867490Y22813881D01*
X25878052Y22864225D01*
X25918504Y22896000D01*
X25969917Y22894340D01*
X25995058Y22877763D01*
X26014319Y22858536D01*
X26019529Y22853335D01*
X26025879Y22850528D01*
X26025880Y22850527D01*
X26062730Y22834236D01*
X26117621Y22809969D01*
X26123239Y22809314D01*
X26140066Y22807352D01*
X26140067Y22807352D01*
X26142228Y22807100D01*
X26597772Y22807100D01*
X26599979Y22807363D01*
X26599986Y22807363D01*
X26617270Y22809420D01*
X26622876Y22810087D01*
X26720893Y22853624D01*
X26725795Y22858535D01*
X26725797Y22858536D01*
X26791760Y22924615D01*
X26791761Y22924616D01*
X26796665Y22929529D01*
X26801637Y22940774D01*
X26824889Y22993370D01*
X26840031Y23027621D01*
X26842900Y23052228D01*
X26842900Y23407772D01*
X26842003Y23415315D01*
X26840580Y23427270D01*
X26839913Y23432876D01*
X26796376Y23530893D01*
X26791465Y23535795D01*
X26791464Y23535797D01*
X26725385Y23601760D01*
X26725384Y23601761D01*
X26720471Y23606665D01*
X26714121Y23609472D01*
X26714120Y23609473D01*
X26632533Y23645542D01*
X26622379Y23650031D01*
X26613375Y23651081D01*
X26599934Y23652648D01*
X26599933Y23652648D01*
X26597772Y23652900D01*
X26142228Y23652900D01*
X26140021Y23652637D01*
X26140014Y23652637D01*
X26123852Y23650713D01*
X26117124Y23649913D01*
X26019107Y23606376D01*
X26014205Y23601465D01*
X26014203Y23601464D01*
X25948241Y23535386D01*
X25943335Y23530471D01*
X25943090Y23529917D01*
X25904026Y23501946D01*
X25869129Y23500620D01*
X25860000Y23502436D01*
X25852736Y23500991D01*
X25763006Y23483142D01*
X25763004Y23483141D01*
X25755744Y23481697D01*
X25667359Y23422641D01*
X25657424Y23407772D01*
X25656565Y23406486D01*
X25647212Y23395090D01*
X25514309Y23262187D01*
X25467689Y23240447D01*
X25450135Y23240983D01*
X25445098Y23242490D01*
X25439746Y23242523D01*
X25439744Y23242523D01*
X25372370Y23242934D01*
X25301047Y23243370D01*
X25295897Y23241898D01*
X25295896Y23241898D01*
X25240367Y23226028D01*
X25162539Y23203785D01*
X25158013Y23200929D01*
X25158010Y23200928D01*
X25052556Y23134391D01*
X25040709Y23126916D01*
X25033550Y23118810D01*
X24948897Y23022959D01*
X24948895Y23022956D01*
X24945351Y23018943D01*
X24940921Y23009508D01*
X24887414Y22895542D01*
X24884129Y22888546D01*
X24883305Y22883256D01*
X24883305Y22883255D01*
X24881056Y22868810D01*
X24861967Y22746207D01*
X24862661Y22740900D01*
X24862661Y22740897D01*
X24864098Y22729912D01*
X24876186Y22637476D01*
X24876357Y22636166D01*
X24871441Y22598953D01*
X24868303Y22594257D01*
X24847564Y22490000D01*
X24849009Y22482736D01*
X24851355Y22470942D01*
X24852800Y22456271D01*
X24852800Y22357608D01*
X24835207Y22309270D01*
X24790658Y22283550D01*
X24762929Y22283853D01*
X24721072Y22292179D01*
X24721071Y22292179D01*
X24717447Y22292900D01*
X24620027Y22292900D01*
X24522554Y22292899D01*
X24518931Y22292178D01*
X24518927Y22292178D01*
X24490853Y22286594D01*
X24456078Y22279677D01*
X24449918Y22275561D01*
X24449916Y22275560D01*
X24411778Y22250078D01*
X24361812Y22237852D01*
X24328222Y22250078D01*
X24290081Y22275562D01*
X24290079Y22275563D01*
X24283922Y22279677D01*
X24276660Y22281121D01*
X24276659Y22281122D01*
X24221072Y22292179D01*
X24221071Y22292179D01*
X24217447Y22292900D01*
X24120027Y22292900D01*
X24022554Y22292899D01*
X24018931Y22292178D01*
X24018927Y22292178D01*
X23990853Y22286594D01*
X23956078Y22279677D01*
X23949921Y22275563D01*
X23949919Y22275562D01*
X23939615Y22268677D01*
X23911327Y22249776D01*
X23861362Y22237550D01*
X23827770Y22249777D01*
X23789888Y22275089D01*
X23780523Y22278968D01*
X23772321Y22277706D01*
X23770027Y22275090D01*
X23770000Y22274944D01*
X23770000Y20536323D01*
X23470000Y20536323D01*
X23470000Y22268677D01*
X23466303Y22278834D01*
X23463316Y22280559D01*
X23450112Y22275089D01*
X23412230Y22249777D01*
X23362265Y22237550D01*
X23328673Y22249776D01*
X23283922Y22279677D01*
X23276660Y22281121D01*
X23276659Y22281122D01*
X23221072Y22292179D01*
X23221071Y22292179D01*
X23217447Y22292900D01*
X23120027Y22292900D01*
X23022554Y22292899D01*
X23018931Y22292178D01*
X23018927Y22292178D01*
X22990853Y22286594D01*
X22956078Y22279677D01*
X22880693Y22229307D01*
X22876581Y22223153D01*
X22865066Y22205919D01*
X22830323Y22153922D01*
X22828879Y22146660D01*
X22828878Y22146659D01*
X22823561Y22119927D01*
X22817100Y22087447D01*
X22817100Y21596126D01*
X22799507Y21547788D01*
X22795074Y21542952D01*
X22514309Y21262187D01*
X22467689Y21240447D01*
X22450135Y21240983D01*
X22445098Y21242490D01*
X22439746Y21242523D01*
X22439744Y21242523D01*
X22373073Y21242930D01*
X22301047Y21243370D01*
X22295897Y21241898D01*
X22295896Y21241898D01*
X22284214Y21238559D01*
X22232902Y21242190D01*
X22221775Y21248332D01*
X22209257Y21256697D01*
X22105000Y21277436D01*
X22101136Y21276667D01*
X22054656Y21293584D01*
X22041019Y21308598D01*
X22038387Y21312427D01*
X22035568Y21318774D01*
X21976000Y21378238D01*
X21963259Y21390957D01*
X21963258Y21390958D01*
X21958345Y21395862D01*
X21951994Y21398670D01*
X21900384Y21421487D01*
X21863288Y21457123D01*
X21857778Y21508267D01*
X21886431Y21550988D01*
X21900265Y21558990D01*
X21952142Y21582033D01*
X21963388Y21589762D01*
X22030537Y21657028D01*
X22038250Y21668293D01*
X22077200Y21756395D01*
X22080142Y21767186D01*
X22082148Y21784392D01*
X22082400Y21788731D01*
X22082400Y21804341D01*
X22078703Y21814498D01*
X22073331Y21817600D01*
X21542800Y21817600D01*
X21494462Y21835193D01*
X21468742Y21879742D01*
X21467600Y21892800D01*
X21467600Y22047200D01*
X21485193Y22095538D01*
X21529742Y22121258D01*
X21542800Y22122400D01*
X22069140Y22122400D01*
X22079297Y22126097D01*
X22082399Y22131469D01*
X22082399Y22151227D01*
X22082137Y22155644D01*
X22080033Y22173337D01*
X22077077Y22184092D01*
X22037966Y22272144D01*
X22030236Y22283391D01*
X22015933Y22297669D01*
X21994152Y22344270D01*
X22007422Y22393968D01*
X22049533Y22423510D01*
X22069060Y22426090D01*
X22799561Y22426090D01*
X22814232Y22424645D01*
X22833290Y22420854D01*
X22840554Y22422299D01*
X22930284Y22440148D01*
X22930285Y22440148D01*
X22937547Y22441593D01*
X22991416Y22477587D01*
X23025931Y22500649D01*
X23036726Y22516805D01*
X23046078Y22528200D01*
X23458652Y22940774D01*
X23505272Y22962514D01*
X23511826Y22962800D01*
X23632445Y22962800D01*
X23680783Y22945207D01*
X23691918Y22932947D01*
X23693624Y22929107D01*
X23698537Y22924203D01*
X23764319Y22858536D01*
X23769529Y22853335D01*
X23775879Y22850528D01*
X23775880Y22850527D01*
X23812730Y22834236D01*
X23867621Y22809969D01*
X23873239Y22809314D01*
X23890066Y22807352D01*
X23890067Y22807352D01*
X23892228Y22807100D01*
X24347772Y22807100D01*
X24349979Y22807363D01*
X24349986Y22807363D01*
X24367270Y22809420D01*
X24372876Y22810087D01*
X24470893Y22853624D01*
X24475795Y22858535D01*
X24475797Y22858536D01*
X24541760Y22924615D01*
X24541761Y22924616D01*
X24546665Y22929529D01*
X24551637Y22940774D01*
X24574889Y22993370D01*
X24590031Y23027621D01*
X24592900Y23052228D01*
X24592900Y23407772D01*
X24592003Y23415315D01*
X24590580Y23427270D01*
X24589913Y23432876D01*
X24546376Y23530893D01*
X24541465Y23535795D01*
X24541464Y23535797D01*
X24475385Y23601760D01*
X24475384Y23601761D01*
X24470471Y23606665D01*
X24464121Y23609472D01*
X24464120Y23609473D01*
X24382533Y23645542D01*
X24372379Y23650031D01*
X24363375Y23651081D01*
X24349934Y23652648D01*
X24349933Y23652648D01*
X24347772Y23652900D01*
X23892228Y23652900D01*
X23890021Y23652637D01*
X23890014Y23652637D01*
X23873852Y23650713D01*
X23867124Y23649913D01*
X23769107Y23606376D01*
X23764205Y23601465D01*
X23764203Y23601464D01*
X23698241Y23535386D01*
X23693335Y23530471D01*
X23692438Y23528442D01*
X23652669Y23499970D01*
X23632446Y23497200D01*
X23403729Y23497200D01*
X23389058Y23498645D01*
X23377264Y23500991D01*
X23370000Y23502436D01*
X23362736Y23500991D01*
X23273006Y23483142D01*
X23273004Y23483141D01*
X23265744Y23481697D01*
X23177359Y23422641D01*
X23167424Y23407772D01*
X23166565Y23406486D01*
X23157212Y23395090D01*
X22744638Y22982516D01*
X22698018Y22960776D01*
X22691464Y22960490D01*
X22666681Y22960490D01*
X22618343Y22978083D01*
X22592623Y23022632D01*
X22591987Y23044401D01*
X22592900Y23052228D01*
X22592900Y23407772D01*
X22592003Y23415315D01*
X22590580Y23427270D01*
X22589913Y23432876D01*
X22546376Y23530893D01*
X22541465Y23535795D01*
X22541464Y23535797D01*
X22475385Y23601760D01*
X22475384Y23601761D01*
X22470471Y23606665D01*
X22464121Y23609472D01*
X22464120Y23609473D01*
X22382533Y23645542D01*
X22372379Y23650031D01*
X22363375Y23651081D01*
X22349934Y23652648D01*
X22349933Y23652648D01*
X22347772Y23652900D01*
X21892228Y23652900D01*
X21890021Y23652637D01*
X21890014Y23652637D01*
X21873852Y23650713D01*
X21867124Y23649913D01*
X21769107Y23606376D01*
X21764205Y23601465D01*
X21764203Y23601464D01*
X21698241Y23535386D01*
X21693335Y23530471D01*
X21692438Y23528442D01*
X21652669Y23499970D01*
X21632446Y23497200D01*
X21143729Y23497200D01*
X21129058Y23498645D01*
X21117264Y23500991D01*
X21110000Y23502436D01*
X21102736Y23500991D01*
X21013006Y23483142D01*
X21013004Y23483141D01*
X21005744Y23481697D01*
X20917359Y23422641D01*
X20907424Y23407772D01*
X20906565Y23406486D01*
X20897212Y23395090D01*
X20157189Y22655067D01*
X20145794Y22645715D01*
X20129638Y22634920D01*
X20109685Y22605057D01*
X20105141Y22598257D01*
X20063660Y22567840D01*
X20012330Y22571203D01*
X19975171Y22606773D01*
X19968860Y22625364D01*
X19965473Y22642393D01*
X19965473Y22642394D01*
X19964028Y22649658D01*
X19930234Y22700234D01*
X19922125Y22705652D01*
X19885817Y22729913D01*
X19885816Y22729914D01*
X19879658Y22734028D01*
X19849636Y22740000D01*
X19838682Y22742179D01*
X19838681Y22742179D01*
X19835057Y22742900D01*
X18962400Y22742900D01*
X18914062Y22760493D01*
X18888342Y22805042D01*
X18887200Y22818100D01*
X18887200Y22941271D01*
X18888645Y22955942D01*
X18890991Y22967736D01*
X18892436Y22975000D01*
X18871697Y23079257D01*
X18862275Y23093359D01*
X18827549Y23145329D01*
X18827548Y23145331D01*
X18816756Y23161483D01*
X18816755Y23161484D01*
X18812641Y23167641D01*
X18796485Y23178436D01*
X18785090Y23187788D01*
X18554926Y23417952D01*
X18533186Y23464572D01*
X18532900Y23471126D01*
X18532899Y23701303D01*
X18532899Y23703520D01*
X18529862Y23729055D01*
X18485568Y23828774D01*
X18413979Y23900238D01*
X18413259Y23900957D01*
X18413258Y23900958D01*
X18408345Y23905862D01*
X18399022Y23909984D01*
X18368024Y23923688D01*
X18308549Y23949982D01*
X18290100Y23952133D01*
X18285683Y23952648D01*
X18285682Y23952648D01*
X18283521Y23952900D01*
X18101713Y23952900D01*
X17916480Y23952899D01*
X17890945Y23949862D01*
X17791226Y23905568D01*
X17764660Y23878955D01*
X17719460Y23833676D01*
X17714138Y23828345D01*
X17711331Y23821995D01*
X17711330Y23821994D01*
X17688513Y23770384D01*
X17652877Y23733288D01*
X17601733Y23727778D01*
X17559012Y23756431D01*
X17551010Y23770265D01*
X17527967Y23822142D01*
X17520238Y23833388D01*
X17452972Y23900537D01*
X17441707Y23908250D01*
X17353605Y23947200D01*
X17342814Y23950142D01*
X17325608Y23952148D01*
X17321269Y23952400D01*
X17305659Y23952400D01*
X17295502Y23948703D01*
X17292400Y23943331D01*
X17292400Y23040860D01*
X17296097Y23030703D01*
X17301469Y23027601D01*
X17321227Y23027601D01*
X17325644Y23027863D01*
X17343337Y23029967D01*
X17354092Y23032923D01*
X17442144Y23072034D01*
X17453388Y23079762D01*
X17520537Y23147028D01*
X17528250Y23158293D01*
X17550940Y23209616D01*
X17586576Y23246712D01*
X17637720Y23252222D01*
X17680441Y23223569D01*
X17688443Y23209735D01*
X17714432Y23151226D01*
X17735923Y23129773D01*
X17786321Y23079463D01*
X17791655Y23074138D01*
X17891451Y23030018D01*
X17897069Y23029363D01*
X17914317Y23027352D01*
X17914318Y23027352D01*
X17916479Y23027100D01*
X17934341Y23027100D01*
X18158873Y23027101D01*
X18207210Y23009508D01*
X18212047Y23005075D01*
X18330774Y22886348D01*
X18352514Y22839728D01*
X18352800Y22833174D01*
X18352800Y22818099D01*
X18335207Y22769761D01*
X18290658Y22744041D01*
X18277600Y22742899D01*
X17404944Y22742899D01*
X17360342Y22734028D01*
X17309766Y22700234D01*
X17305652Y22694077D01*
X17285915Y22664538D01*
X17275972Y22649658D01*
X17267100Y22605057D01*
X17267101Y20574944D01*
X17275972Y20530342D01*
X17309766Y20479766D01*
X17315923Y20475652D01*
X17354183Y20450087D01*
X17354184Y20450086D01*
X17360342Y20445972D01*
X17404943Y20437100D01*
X18552960Y20437100D01*
X18601298Y20419507D01*
X18606134Y20415074D01*
X19849934Y19171274D01*
X19871674Y19124654D01*
X19858360Y19074967D01*
X19816223Y19045462D01*
X19796760Y19042900D01*
X17618882Y19042899D01*
X17404944Y19042899D01*
X17360342Y19034028D01*
X17309766Y19000234D01*
X17305652Y18994077D01*
X17286978Y18966129D01*
X17275972Y18949658D01*
X17274527Y18942394D01*
X17268956Y18914385D01*
X17267100Y18905057D01*
X17267101Y17912344D01*
X17267101Y16946127D01*
X17249508Y16897789D01*
X17245075Y16892953D01*
X16969913Y16617791D01*
X16958518Y16608438D01*
X16942359Y16597641D01*
X16938244Y16591482D01*
X16928766Y16577296D01*
X16919044Y16562746D01*
X16883303Y16509257D01*
X16881858Y16501995D01*
X16881858Y16501994D01*
X16873267Y16458806D01*
X16846581Y16414829D01*
X16842105Y16411502D01*
X16837572Y16408387D01*
X16831226Y16405568D01*
X16826324Y16400657D01*
X16826320Y16400654D01*
X16759755Y16333972D01*
X16754138Y16328345D01*
X16751331Y16321995D01*
X16751330Y16321994D01*
X16741350Y16299420D01*
X16710018Y16228549D01*
X16707100Y16203521D01*
X16707101Y15996452D01*
X16707101Y15818163D01*
X16689508Y15769826D01*
X16644960Y15744105D01*
X16631442Y15742964D01*
X16610535Y15743091D01*
X16587669Y15743231D01*
X16582519Y15741759D01*
X16582518Y15741759D01*
X16518872Y15723569D01*
X16449161Y15703646D01*
X16444635Y15700790D01*
X16444632Y15700789D01*
X16357376Y15645734D01*
X16327331Y15626777D01*
X16323786Y15622764D01*
X16323787Y15622764D01*
X16235519Y15522820D01*
X16235517Y15522817D01*
X16231973Y15518804D01*
X16210636Y15473359D01*
X16183674Y15415931D01*
X16170751Y15388407D01*
X16169927Y15383117D01*
X16169927Y15383116D01*
X16167967Y15370527D01*
X16148589Y15246068D01*
X16149283Y15240761D01*
X16149283Y15240758D01*
X16164199Y15126692D01*
X16153022Y15076482D01*
X16112184Y15045203D01*
X16103921Y15043352D01*
X16101047Y15043370D01*
X15962539Y15003785D01*
X15958013Y15000929D01*
X15958010Y15000928D01*
X15939401Y14989186D01*
X15923345Y14979055D01*
X15922942Y14978801D01*
X15882814Y14967200D01*
X14868099Y14967200D01*
X14819761Y14984793D01*
X14794041Y15029342D01*
X14792899Y15042400D01*
X14792899Y15477056D01*
X14784028Y15521658D01*
X14750234Y15572234D01*
X14718785Y15593248D01*
X14705817Y15601913D01*
X14705816Y15601914D01*
X14699658Y15606028D01*
X14655057Y15614900D01*
X14091377Y15614900D01*
X12098100Y15614899D01*
X12049762Y15632492D01*
X12024042Y15677041D01*
X12022900Y15690099D01*
X12022900Y16249900D01*
X12040493Y16298238D01*
X12085042Y16323958D01*
X12098100Y16325100D01*
X14091290Y16325101D01*
X14655056Y16325101D01*
X14699658Y16333972D01*
X14750234Y16367766D01*
X14757615Y16378813D01*
X14779913Y16412183D01*
X14779914Y16412184D01*
X14784028Y16418342D01*
X14785867Y16427587D01*
X14792179Y16459318D01*
X14792179Y16459319D01*
X14792900Y16462943D01*
X14792900Y16977600D01*
X14810493Y17025938D01*
X14855042Y17051658D01*
X14868100Y17052800D01*
X15438673Y17052800D01*
X15453344Y17051355D01*
X15472402Y17047564D01*
X15479666Y17049009D01*
X15569395Y17066858D01*
X15576659Y17068303D01*
X15642731Y17112451D01*
X15665043Y17127359D01*
X15675838Y17143515D01*
X15685190Y17154910D01*
X15998110Y17467830D01*
X16044730Y17489570D01*
X16059350Y17489034D01*
X16061171Y17488465D01*
X16128275Y17487235D01*
X16199838Y17485923D01*
X16199840Y17485923D01*
X16205200Y17485825D01*
X16210371Y17487235D01*
X16210373Y17487235D01*
X16314558Y17515639D01*
X16344181Y17523715D01*
X16441956Y17583749D01*
X16462372Y17596284D01*
X16462375Y17596286D01*
X16466941Y17599090D01*
X16495044Y17630137D01*
X16560014Y17701915D01*
X16563612Y17705890D01*
X16570790Y17720704D01*
X16624084Y17830704D01*
X16624084Y17830705D01*
X16626422Y17835530D01*
X16650321Y17977587D01*
X16650473Y17990000D01*
X16649941Y17993716D01*
X16630811Y18127296D01*
X16630810Y18127300D01*
X16630051Y18132599D01*
X16625817Y18141913D01*
X16572647Y18258853D01*
X16570428Y18263734D01*
X16565940Y18268943D01*
X16479889Y18368810D01*
X16479886Y18368813D01*
X16476395Y18372864D01*
X16471904Y18375775D01*
X16360006Y18448303D01*
X16360005Y18448303D01*
X16355513Y18451215D01*
X16279314Y18474003D01*
X16222634Y18490955D01*
X16222631Y18490955D01*
X16217500Y18492490D01*
X16212145Y18492523D01*
X16212143Y18492523D01*
X16146926Y18492921D01*
X16073449Y18493370D01*
X16068299Y18491898D01*
X16068298Y18491898D01*
X16026996Y18480094D01*
X15934941Y18453785D01*
X15930415Y18450929D01*
X15930412Y18450928D01*
X15821945Y18382490D01*
X15813111Y18376916D01*
X15807712Y18370803D01*
X15721299Y18272959D01*
X15721297Y18272956D01*
X15717753Y18268943D01*
X15656531Y18138546D01*
X15655707Y18133256D01*
X15655707Y18133255D01*
X15649139Y18091072D01*
X15634369Y17996207D01*
X15635063Y17990899D01*
X15635063Y17990897D01*
X15645335Y17912344D01*
X15634158Y17862133D01*
X15623944Y17849420D01*
X15383750Y17609226D01*
X15337130Y17587486D01*
X15330576Y17587200D01*
X14868099Y17587200D01*
X14819761Y17604793D01*
X14794041Y17649342D01*
X14792899Y17662400D01*
X14792899Y18017056D01*
X14784028Y18061658D01*
X14750234Y18112234D01*
X14718774Y18133255D01*
X14705817Y18141913D01*
X14705816Y18141914D01*
X14699658Y18146028D01*
X14692394Y18147473D01*
X14658682Y18154179D01*
X14658681Y18154179D01*
X14655057Y18154900D01*
X14091377Y18154900D01*
X12098100Y18154899D01*
X12049762Y18172492D01*
X12024042Y18217041D01*
X12022900Y18230099D01*
X12022900Y18790400D01*
X12040493Y18838738D01*
X12085042Y18864458D01*
X12098100Y18865600D01*
X13204341Y18865600D01*
X13214498Y18869297D01*
X13217600Y18874669D01*
X13217600Y18878859D01*
X13522400Y18878859D01*
X13526097Y18868702D01*
X13531469Y18865600D01*
X14651316Y18865600D01*
X14658637Y18866321D01*
X14692198Y18872997D01*
X14705623Y18878558D01*
X14743720Y18904014D01*
X14753986Y18914280D01*
X14779442Y18952377D01*
X14785003Y18965802D01*
X14791679Y18999363D01*
X14792400Y19006684D01*
X14792400Y19614341D01*
X14788703Y19624498D01*
X14783331Y19627600D01*
X13535659Y19627600D01*
X13525502Y19623903D01*
X13522400Y19618531D01*
X13522400Y18878859D01*
X13217600Y18878859D01*
X13217600Y19945659D01*
X13522400Y19945659D01*
X13526097Y19935502D01*
X13531469Y19932400D01*
X14779141Y19932400D01*
X14789298Y19936097D01*
X14792400Y19941469D01*
X14792400Y20553316D01*
X14791679Y20560637D01*
X14785003Y20594198D01*
X14779442Y20607623D01*
X14753986Y20645720D01*
X14743720Y20655986D01*
X14705623Y20681442D01*
X14692198Y20687003D01*
X14658637Y20693679D01*
X14651316Y20694400D01*
X13535659Y20694400D01*
X13525502Y20690703D01*
X13522400Y20685331D01*
X13522400Y19945659D01*
X13217600Y19945659D01*
X13217600Y20681141D01*
X13213903Y20691298D01*
X13208531Y20694400D01*
X12098100Y20694400D01*
X12049762Y20711993D01*
X12024042Y20756542D01*
X12022900Y20769600D01*
X12022900Y21329900D01*
X12040493Y21378238D01*
X12085042Y21403958D01*
X12098100Y21405100D01*
X14091290Y21405101D01*
X14655056Y21405101D01*
X14699658Y21413972D01*
X14750234Y21447766D01*
X14750265Y21447813D01*
X14793086Y21467781D01*
X14842773Y21454467D01*
X14872278Y21412330D01*
X14874205Y21402618D01*
X14875089Y21395862D01*
X14880645Y21353370D01*
X14916361Y21272200D01*
X14930095Y21240987D01*
X14938662Y21221516D01*
X14942107Y21217418D01*
X14942108Y21217416D01*
X14982302Y21169600D01*
X15031354Y21111245D01*
X15151270Y21031423D01*
X15288769Y20988465D01*
X15362871Y20987107D01*
X15427436Y20985923D01*
X15427438Y20985923D01*
X15432798Y20985825D01*
X15437969Y20987235D01*
X15437971Y20987235D01*
X15513695Y21007880D01*
X15571779Y21023715D01*
X15624871Y21056314D01*
X15689970Y21096284D01*
X15689973Y21096286D01*
X15694539Y21099090D01*
X15791210Y21205890D01*
X15794622Y21212931D01*
X15851682Y21330704D01*
X15851682Y21330705D01*
X15854020Y21335530D01*
X15877919Y21477587D01*
X15878071Y21490000D01*
X15877225Y21495909D01*
X15858409Y21627296D01*
X15858408Y21627300D01*
X15857649Y21632599D01*
X15854533Y21639454D01*
X15814402Y21727717D01*
X15798026Y21763734D01*
X15731631Y21840789D01*
X15713400Y21889877D01*
X15713400Y22090947D01*
X15732848Y22141412D01*
X15787612Y22201914D01*
X15787615Y22201918D01*
X15791210Y22205890D01*
X15833017Y22292179D01*
X15851682Y22330704D01*
X15851682Y22330705D01*
X15854020Y22335530D01*
X15877919Y22477587D01*
X15878071Y22490000D01*
X15877659Y22492880D01*
X15858409Y22627296D01*
X15858408Y22627300D01*
X15857649Y22632599D01*
X15847093Y22655817D01*
X15807499Y22742899D01*
X15798026Y22763734D01*
X15792833Y22769761D01*
X15707487Y22868810D01*
X15707484Y22868813D01*
X15703993Y22872864D01*
X15699502Y22875775D01*
X15587604Y22948303D01*
X15587603Y22948303D01*
X15583111Y22951215D01*
X15503580Y22975000D01*
X15450232Y22990955D01*
X15450229Y22990955D01*
X15445098Y22992490D01*
X15439743Y22992523D01*
X15439741Y22992523D01*
X15374524Y22992921D01*
X15301047Y22993370D01*
X15295897Y22991898D01*
X15295896Y22991898D01*
X15263069Y22982516D01*
X15162539Y22953785D01*
X15158013Y22950929D01*
X15158010Y22950928D01*
X15055658Y22886348D01*
X15040709Y22876916D01*
X15034370Y22869738D01*
X15024727Y22858820D01*
X14979542Y22834236D01*
X14968362Y22833400D01*
X14868099Y22833400D01*
X14819761Y22850993D01*
X14794041Y22895542D01*
X14792899Y22908600D01*
X14792899Y23097056D01*
X14784028Y23141658D01*
X14750234Y23192234D01*
X14724042Y23209735D01*
X14705817Y23221913D01*
X14705816Y23221914D01*
X14699658Y23226028D01*
X14692394Y23227473D01*
X14658682Y23234179D01*
X14658681Y23234179D01*
X14655057Y23234900D01*
X14091377Y23234900D01*
X12098100Y23234899D01*
X12049762Y23252492D01*
X12034589Y23278773D01*
X16707601Y23278773D01*
X16707863Y23274356D01*
X16709967Y23256663D01*
X16712923Y23245908D01*
X16752034Y23157856D01*
X16759762Y23146612D01*
X16827028Y23079463D01*
X16838293Y23071750D01*
X16926395Y23032800D01*
X16937186Y23029858D01*
X16954392Y23027852D01*
X16958731Y23027600D01*
X16974341Y23027600D01*
X16984498Y23031297D01*
X16987600Y23036669D01*
X16987600Y23324341D01*
X16983903Y23334498D01*
X16978531Y23337600D01*
X16720860Y23337600D01*
X16710703Y23333903D01*
X16707601Y23328531D01*
X16707601Y23278773D01*
X12034589Y23278773D01*
X12024042Y23297041D01*
X12022900Y23310099D01*
X12022900Y24511900D01*
X12040493Y24560238D01*
X12085042Y24585958D01*
X12098100Y24587100D01*
X13000701Y24587100D01*
X13049039Y24569507D01*
G37*
G04 #@! TD.AperFunction*
G04 #@! TA.AperFunction,Conductor*
G36*
X20691712Y17205207D02*
G01*
X20717432Y17160658D01*
X20708499Y17110000D01*
X20696548Y17094426D01*
X20077047Y16474925D01*
X20030427Y16453185D01*
X20023873Y16452899D01*
X19916480Y16452899D01*
X19890945Y16449862D01*
X19791226Y16405568D01*
X19778235Y16392554D01*
X19723456Y16337679D01*
X19714138Y16328345D01*
X19711331Y16321995D01*
X19711330Y16321994D01*
X19688513Y16270384D01*
X19652877Y16233288D01*
X19601733Y16227778D01*
X19559012Y16256431D01*
X19551010Y16270265D01*
X19527967Y16322142D01*
X19520238Y16333388D01*
X19452972Y16400537D01*
X19441707Y16408250D01*
X19353605Y16447200D01*
X19342814Y16450142D01*
X19325608Y16452148D01*
X19321269Y16452400D01*
X19305659Y16452400D01*
X19295502Y16448703D01*
X19292400Y16443331D01*
X19292400Y15912800D01*
X19274807Y15864462D01*
X19230258Y15838742D01*
X19217200Y15837600D01*
X18720860Y15837600D01*
X18710703Y15833903D01*
X18707601Y15828531D01*
X18707601Y15778773D01*
X18707863Y15774356D01*
X18709967Y15756663D01*
X18712924Y15745905D01*
X18719724Y15730595D01*
X18723268Y15679278D01*
X18692996Y15637689D01*
X18673095Y15629404D01*
X18673149Y15629274D01*
X18666307Y15626440D01*
X18659042Y15624995D01*
X18610969Y15592874D01*
X18561006Y15580649D01*
X18514871Y15603400D01*
X18494154Y15650484D01*
X18500415Y15685809D01*
X18527200Y15746395D01*
X18530142Y15757186D01*
X18532148Y15774392D01*
X18532400Y15778731D01*
X18532400Y15824341D01*
X18528703Y15834498D01*
X18523331Y15837600D01*
X18265659Y15837600D01*
X18255502Y15833903D01*
X18252400Y15828531D01*
X18252400Y15540860D01*
X18256097Y15530703D01*
X18261469Y15527601D01*
X18281227Y15527601D01*
X18285644Y15527863D01*
X18303337Y15529967D01*
X18314092Y15532923D01*
X18359706Y15553184D01*
X18411024Y15556728D01*
X18452613Y15526456D01*
X18465014Y15476534D01*
X18443407Y15431285D01*
X18247048Y15234926D01*
X18200428Y15213186D01*
X18193874Y15212900D01*
X17952228Y15212900D01*
X17950021Y15212637D01*
X17950014Y15212637D01*
X17933852Y15210713D01*
X17927124Y15209913D01*
X17829107Y15166376D01*
X17824205Y15161465D01*
X17824203Y15161464D01*
X17758240Y15095385D01*
X17753335Y15090471D01*
X17750528Y15084121D01*
X17750527Y15084120D01*
X17746824Y15075744D01*
X17709969Y14992379D01*
X17709314Y14986761D01*
X17708357Y14978549D01*
X17707100Y14967772D01*
X17707100Y14512228D01*
X17710087Y14487124D01*
X17753624Y14389107D01*
X17758535Y14384205D01*
X17758536Y14384203D01*
X17824615Y14318240D01*
X17829529Y14313335D01*
X17835879Y14310528D01*
X17835880Y14310527D01*
X17880366Y14290860D01*
X17927621Y14269969D01*
X17933239Y14269314D01*
X17950066Y14267352D01*
X17950067Y14267352D01*
X17952228Y14267100D01*
X18307772Y14267100D01*
X18309979Y14267363D01*
X18309986Y14267363D01*
X18327270Y14269420D01*
X18332876Y14270087D01*
X18430893Y14313624D01*
X18435795Y14318535D01*
X18435797Y14318536D01*
X18501760Y14384615D01*
X18501761Y14384616D01*
X18506665Y14389529D01*
X18509636Y14396248D01*
X18547743Y14482446D01*
X18550031Y14487621D01*
X18551091Y14496712D01*
X18552648Y14510066D01*
X18552648Y14510067D01*
X18552900Y14512228D01*
X18552900Y14528773D01*
X18707601Y14528773D01*
X18707863Y14524356D01*
X18709967Y14506663D01*
X18712923Y14495908D01*
X18752034Y14407856D01*
X18759762Y14396612D01*
X18827028Y14329463D01*
X18838293Y14321750D01*
X18926395Y14282800D01*
X18937186Y14279858D01*
X18954392Y14277852D01*
X18958731Y14277600D01*
X18974341Y14277600D01*
X18984498Y14281297D01*
X18987600Y14286669D01*
X18987600Y14574341D01*
X18983903Y14584498D01*
X18978531Y14587600D01*
X18720860Y14587600D01*
X18710703Y14583903D01*
X18707601Y14578531D01*
X18707601Y14528773D01*
X18552900Y14528773D01*
X18552900Y14753874D01*
X18570493Y14802212D01*
X18574926Y14807048D01*
X18640117Y14872239D01*
X18686737Y14893979D01*
X18700883Y14890840D01*
X18701094Y14893256D01*
X18710882Y14892400D01*
X19217200Y14892400D01*
X19265538Y14874807D01*
X19291258Y14830258D01*
X19292400Y14817200D01*
X19292400Y14290860D01*
X19296097Y14280703D01*
X19301469Y14277601D01*
X19321227Y14277601D01*
X19325644Y14277863D01*
X19343337Y14279967D01*
X19354092Y14282923D01*
X19442144Y14322034D01*
X19453388Y14329762D01*
X19520537Y14397028D01*
X19528250Y14408293D01*
X19550940Y14459616D01*
X19586576Y14496712D01*
X19637720Y14502222D01*
X19680441Y14473569D01*
X19688443Y14459735D01*
X19714432Y14401226D01*
X19751938Y14363786D01*
X19786441Y14329343D01*
X19791655Y14324138D01*
X19798005Y14321331D01*
X19798006Y14321330D01*
X19821811Y14310806D01*
X19891451Y14280018D01*
X19897069Y14279363D01*
X19914317Y14277352D01*
X19914318Y14277352D01*
X19916479Y14277100D01*
X20098287Y14277100D01*
X20283520Y14277101D01*
X20309055Y14280138D01*
X20408774Y14324432D01*
X20451150Y14366882D01*
X20480957Y14396741D01*
X20480958Y14396742D01*
X20485862Y14401655D01*
X20491854Y14415207D01*
X20504088Y14442880D01*
X20529982Y14501451D01*
X20530986Y14510066D01*
X20532648Y14524317D01*
X20532648Y14524318D01*
X20532900Y14526479D01*
X20532899Y14953520D01*
X20529862Y14979055D01*
X20496634Y15053861D01*
X20493090Y15105177D01*
X20512185Y15137561D01*
X20713882Y15339258D01*
X20760502Y15360998D01*
X20810189Y15347684D01*
X20828509Y15324865D01*
X20830323Y15326077D01*
X20859922Y15281778D01*
X20872148Y15231812D01*
X20859922Y15198222D01*
X20835591Y15161806D01*
X20830323Y15153922D01*
X20828879Y15146660D01*
X20828878Y15146659D01*
X20826212Y15133255D01*
X20817100Y15087447D01*
X20817101Y14892554D01*
X20817822Y14888931D01*
X20817822Y14888927D01*
X20822351Y14866157D01*
X20830323Y14826078D01*
X20834440Y14819917D01*
X20834440Y14819916D01*
X20859922Y14781778D01*
X20872148Y14731812D01*
X20859922Y14698222D01*
X20834440Y14660084D01*
X20830323Y14653922D01*
X20828879Y14646660D01*
X20828878Y14646659D01*
X20818192Y14592935D01*
X20817100Y14587447D01*
X20817101Y14392554D01*
X20817822Y14388931D01*
X20817822Y14388927D01*
X20820581Y14375058D01*
X20830323Y14326078D01*
X20880693Y14250693D01*
X20956078Y14200323D01*
X20963340Y14198879D01*
X20963341Y14198878D01*
X21018873Y14187832D01*
X21022553Y14187100D01*
X21365100Y14187100D01*
X21413438Y14169507D01*
X21439158Y14124958D01*
X21440300Y14111900D01*
X21440300Y13969326D01*
X21422707Y13920988D01*
X21418274Y13916152D01*
X21264309Y13762187D01*
X21217689Y13740447D01*
X21200135Y13740983D01*
X21195098Y13742490D01*
X21189746Y13742523D01*
X21189744Y13742523D01*
X21122370Y13742934D01*
X21051047Y13743370D01*
X21045897Y13741898D01*
X21045896Y13741898D01*
X21031911Y13737901D01*
X20912539Y13703785D01*
X20908013Y13700929D01*
X20908010Y13700928D01*
X20799716Y13632599D01*
X20790709Y13626916D01*
X20783550Y13618810D01*
X20698897Y13522959D01*
X20698895Y13522956D01*
X20695351Y13518943D01*
X20634129Y13388546D01*
X20633305Y13383256D01*
X20633305Y13383255D01*
X20626247Y13337921D01*
X20611967Y13246207D01*
X20612661Y13240900D01*
X20612661Y13240897D01*
X20616515Y13211429D01*
X20630645Y13103370D01*
X20671488Y13010547D01*
X20683810Y12982544D01*
X20688662Y12971516D01*
X20692107Y12967418D01*
X20692108Y12967416D01*
X20729702Y12922693D01*
X20781354Y12861245D01*
X20901270Y12781423D01*
X21038769Y12738465D01*
X21112871Y12737107D01*
X21177436Y12735923D01*
X21177438Y12735923D01*
X21182798Y12735825D01*
X21187969Y12737235D01*
X21187971Y12737235D01*
X21307477Y12769816D01*
X21321779Y12773715D01*
X21408725Y12827100D01*
X21439970Y12846284D01*
X21439973Y12846286D01*
X21444539Y12849090D01*
X21464196Y12870806D01*
X21537612Y12951915D01*
X21541210Y12955890D01*
X21551127Y12976359D01*
X21588037Y13012189D01*
X21639342Y13015911D01*
X21681036Y12985784D01*
X21683903Y12980598D01*
X21686504Y12976420D01*
X21688662Y12971516D01*
X21692107Y12967418D01*
X21692108Y12967416D01*
X21729702Y12922693D01*
X21781354Y12861245D01*
X21901270Y12781423D01*
X22038769Y12738465D01*
X22112871Y12737107D01*
X22177436Y12735923D01*
X22177438Y12735923D01*
X22182798Y12735825D01*
X22187969Y12737235D01*
X22187971Y12737235D01*
X22307477Y12769816D01*
X22321779Y12773715D01*
X22408725Y12827100D01*
X22439970Y12846284D01*
X22439973Y12846286D01*
X22444539Y12849090D01*
X22534128Y12948066D01*
X22579608Y12972095D01*
X22589879Y12972800D01*
X22741901Y12972800D01*
X22790239Y12955207D01*
X22815959Y12910658D01*
X22817101Y12897600D01*
X22817101Y12392554D01*
X22817822Y12388931D01*
X22817822Y12388927D01*
X22821017Y12372864D01*
X22830323Y12326078D01*
X22880693Y12250693D01*
X22956078Y12200323D01*
X22963340Y12198879D01*
X22963341Y12198878D01*
X23018923Y12187822D01*
X23022553Y12187100D01*
X23119973Y12187100D01*
X23217446Y12187101D01*
X23221069Y12187822D01*
X23221073Y12187822D01*
X23249147Y12193406D01*
X23283922Y12200323D01*
X23291332Y12205274D01*
X23328222Y12229922D01*
X23378188Y12242148D01*
X23411778Y12229922D01*
X23448668Y12205274D01*
X23456078Y12200323D01*
X23463340Y12198879D01*
X23463341Y12198878D01*
X23518923Y12187822D01*
X23522553Y12187100D01*
X23619973Y12187100D01*
X23717446Y12187101D01*
X23721069Y12187822D01*
X23721073Y12187822D01*
X23749147Y12193406D01*
X23783922Y12200323D01*
X23791332Y12205274D01*
X23828222Y12229922D01*
X23878188Y12242148D01*
X23911778Y12229922D01*
X23948668Y12205274D01*
X23956078Y12200323D01*
X23963340Y12198879D01*
X23963341Y12198878D01*
X24018923Y12187822D01*
X24022553Y12187100D01*
X24119973Y12187100D01*
X24217446Y12187101D01*
X24221069Y12187822D01*
X24221073Y12187822D01*
X24249147Y12193406D01*
X24283922Y12200323D01*
X24291332Y12205274D01*
X24328222Y12229922D01*
X24378188Y12242148D01*
X24411778Y12229922D01*
X24448668Y12205274D01*
X24456078Y12200323D01*
X24463340Y12198879D01*
X24463341Y12198878D01*
X24518923Y12187822D01*
X24522553Y12187100D01*
X24619973Y12187100D01*
X24717446Y12187101D01*
X24721069Y12187822D01*
X24721073Y12187822D01*
X24749147Y12193406D01*
X24783922Y12200323D01*
X24791332Y12205274D01*
X24828222Y12229922D01*
X24878188Y12242148D01*
X24911778Y12229922D01*
X24948668Y12205274D01*
X24956078Y12200323D01*
X24963340Y12198879D01*
X24963341Y12198878D01*
X25018923Y12187822D01*
X25022553Y12187100D01*
X25119973Y12187100D01*
X25217446Y12187101D01*
X25221069Y12187822D01*
X25221073Y12187822D01*
X25249147Y12193406D01*
X25283922Y12200323D01*
X25291332Y12205274D01*
X25328222Y12229922D01*
X25378188Y12242148D01*
X25411778Y12229922D01*
X25448668Y12205274D01*
X25456078Y12200323D01*
X25463340Y12198879D01*
X25463341Y12198878D01*
X25518923Y12187822D01*
X25522553Y12187100D01*
X25619973Y12187100D01*
X25717446Y12187101D01*
X25721069Y12187822D01*
X25721073Y12187822D01*
X25749147Y12193406D01*
X25783922Y12200323D01*
X25791332Y12205274D01*
X25828222Y12229922D01*
X25878188Y12242148D01*
X25911778Y12229922D01*
X25948668Y12205274D01*
X25956078Y12200323D01*
X25963340Y12198879D01*
X25963341Y12198878D01*
X26018923Y12187822D01*
X26022553Y12187100D01*
X26119973Y12187100D01*
X26217446Y12187101D01*
X26221069Y12187822D01*
X26221073Y12187822D01*
X26249147Y12193406D01*
X26283922Y12200323D01*
X26291332Y12205274D01*
X26328222Y12229922D01*
X26378188Y12242148D01*
X26411778Y12229922D01*
X26448668Y12205274D01*
X26456078Y12200323D01*
X26463340Y12198879D01*
X26463341Y12198878D01*
X26518923Y12187822D01*
X26522553Y12187100D01*
X26619973Y12187100D01*
X26717446Y12187101D01*
X26721069Y12187822D01*
X26721073Y12187822D01*
X26749147Y12193406D01*
X26783922Y12200323D01*
X26791332Y12205274D01*
X26828222Y12229922D01*
X26878188Y12242148D01*
X26911778Y12229922D01*
X26948668Y12205274D01*
X26956078Y12200323D01*
X26963340Y12198879D01*
X26963341Y12198878D01*
X27018923Y12187822D01*
X27022553Y12187100D01*
X27119973Y12187100D01*
X27217446Y12187101D01*
X27221069Y12187822D01*
X27221073Y12187822D01*
X27249147Y12193406D01*
X27283922Y12200323D01*
X27291332Y12205274D01*
X27328222Y12229922D01*
X27378188Y12242148D01*
X27411778Y12229922D01*
X27448668Y12205274D01*
X27456078Y12200323D01*
X27463340Y12198879D01*
X27463341Y12198878D01*
X27518923Y12187822D01*
X27522553Y12187100D01*
X27619973Y12187100D01*
X27717446Y12187101D01*
X27721069Y12187822D01*
X27721073Y12187822D01*
X27749147Y12193406D01*
X27783922Y12200323D01*
X27828673Y12230224D01*
X27878638Y12242450D01*
X27912230Y12230223D01*
X27950112Y12204911D01*
X27959477Y12201032D01*
X27967679Y12202294D01*
X27969973Y12204910D01*
X27970000Y12205056D01*
X27970000Y13943677D01*
X27966303Y13953834D01*
X27963316Y13955559D01*
X27950112Y13950089D01*
X27912230Y13924777D01*
X27862265Y13912550D01*
X27828673Y13924776D01*
X27783922Y13954677D01*
X27776660Y13956121D01*
X27776659Y13956122D01*
X27721072Y13967179D01*
X27721071Y13967179D01*
X27717447Y13967900D01*
X27620027Y13967900D01*
X27522554Y13967899D01*
X27518931Y13967178D01*
X27518927Y13967178D01*
X27492589Y13961939D01*
X27456078Y13954677D01*
X27449918Y13950561D01*
X27449916Y13950560D01*
X27411778Y13925078D01*
X27361812Y13912852D01*
X27328222Y13925078D01*
X27290081Y13950562D01*
X27290079Y13950563D01*
X27283922Y13954677D01*
X27276660Y13956121D01*
X27276659Y13956122D01*
X27221072Y13967179D01*
X27221071Y13967179D01*
X27217447Y13967900D01*
X27120027Y13967900D01*
X27022554Y13967899D01*
X27018931Y13967178D01*
X27018927Y13967178D01*
X26992589Y13961939D01*
X26956078Y13954677D01*
X26949918Y13950561D01*
X26949916Y13950560D01*
X26911778Y13925078D01*
X26861812Y13912852D01*
X26828222Y13925078D01*
X26809725Y13937437D01*
X26779307Y13978920D01*
X26782671Y14030250D01*
X26795751Y14050429D01*
X26887612Y14151915D01*
X26891210Y14155890D01*
X26893805Y14161245D01*
X26951682Y14280704D01*
X26951682Y14280705D01*
X26954020Y14285530D01*
X26977919Y14427587D01*
X26978071Y14440000D01*
X26977659Y14442880D01*
X26958409Y14577296D01*
X26958408Y14577300D01*
X26957649Y14582599D01*
X26955376Y14587600D01*
X26905079Y14698222D01*
X26898026Y14713734D01*
X26894298Y14718061D01*
X26807487Y14818810D01*
X26807484Y14818813D01*
X26803993Y14822864D01*
X26799035Y14826078D01*
X26771498Y14843926D01*
X26740505Y14884981D01*
X26737200Y14907030D01*
X26737200Y15948174D01*
X26754793Y15996512D01*
X26759226Y16001348D01*
X27458651Y16700774D01*
X27505271Y16722514D01*
X27511825Y16722800D01*
X29077392Y16722800D01*
X29125730Y16705207D01*
X29151450Y16660658D01*
X29151147Y16632929D01*
X29143210Y16593027D01*
X29142100Y16587447D01*
X29142101Y16392554D01*
X29142822Y16388931D01*
X29142822Y16388927D01*
X29145952Y16373193D01*
X29155323Y16326078D01*
X29159440Y16319917D01*
X29159440Y16319916D01*
X29184922Y16281778D01*
X29197148Y16231812D01*
X29184922Y16198222D01*
X29164438Y16167564D01*
X29155323Y16153922D01*
X29153879Y16146660D01*
X29153878Y16146659D01*
X29144053Y16097264D01*
X29142100Y16087447D01*
X29142100Y16083751D01*
X29141738Y16080076D01*
X29139939Y16080253D01*
X29124507Y16037853D01*
X29079958Y16012133D01*
X29068366Y16011119D01*
X29061746Y16012436D01*
X29054482Y16010991D01*
X29042688Y16008645D01*
X29028017Y16007200D01*
X28338125Y16007200D01*
X28289787Y16024793D01*
X28281156Y16033312D01*
X28280583Y16033978D01*
X28237697Y16083749D01*
X28207487Y16118810D01*
X28207484Y16118813D01*
X28203993Y16122864D01*
X28198129Y16126665D01*
X28087604Y16198303D01*
X28087603Y16198303D01*
X28083111Y16201215D01*
X27991713Y16228549D01*
X27950232Y16240955D01*
X27950229Y16240955D01*
X27945098Y16242490D01*
X27939743Y16242523D01*
X27939741Y16242523D01*
X27874524Y16242921D01*
X27801047Y16243370D01*
X27795897Y16241898D01*
X27795896Y16241898D01*
X27731793Y16223577D01*
X27662539Y16203785D01*
X27658013Y16200929D01*
X27658010Y16200928D01*
X27555452Y16136218D01*
X27540709Y16126916D01*
X27535893Y16121463D01*
X27448897Y16022959D01*
X27448895Y16022956D01*
X27445351Y16018943D01*
X27440801Y16009251D01*
X27402403Y15927467D01*
X27384129Y15888546D01*
X27361967Y15746207D01*
X27362661Y15740900D01*
X27362661Y15740897D01*
X27367906Y15700789D01*
X27380645Y15603370D01*
X27438662Y15471516D01*
X27442107Y15467418D01*
X27442108Y15467416D01*
X27485386Y15415931D01*
X27531354Y15361245D01*
X27651270Y15281423D01*
X27788769Y15238465D01*
X27862871Y15237107D01*
X27927436Y15235923D01*
X27927438Y15235923D01*
X27932798Y15235825D01*
X27937969Y15237235D01*
X27937971Y15237235D01*
X28059041Y15270242D01*
X28110305Y15265982D01*
X28146836Y15229768D01*
X28151543Y15178544D01*
X28146892Y15165730D01*
X28139771Y15150562D01*
X28134129Y15138546D01*
X28133305Y15133256D01*
X28133305Y15133255D01*
X28126737Y15091072D01*
X28111967Y14996207D01*
X28112661Y14990900D01*
X28112661Y14990897D01*
X28118889Y14943269D01*
X28130645Y14853370D01*
X28164567Y14776277D01*
X28182167Y14736278D01*
X28188662Y14721516D01*
X28192107Y14717418D01*
X28192108Y14717416D01*
X28212138Y14693588D01*
X28281354Y14611245D01*
X28401270Y14531423D01*
X28538769Y14488465D01*
X28611929Y14487124D01*
X28677436Y14485923D01*
X28677438Y14485923D01*
X28682798Y14485825D01*
X28687969Y14487235D01*
X28687971Y14487235D01*
X28771714Y14510066D01*
X28821779Y14523715D01*
X28880556Y14559804D01*
X28939970Y14596284D01*
X28939973Y14596286D01*
X28944539Y14599090D01*
X28969416Y14626573D01*
X29018123Y14680384D01*
X29063604Y14704414D01*
X29113892Y14693588D01*
X29145455Y14652970D01*
X29147630Y14615248D01*
X29143192Y14592935D01*
X29142100Y14587447D01*
X29142101Y14392554D01*
X29142822Y14388931D01*
X29142822Y14388927D01*
X29145581Y14375058D01*
X29155323Y14326078D01*
X29205693Y14250693D01*
X29281078Y14200323D01*
X29288340Y14198879D01*
X29288341Y14198878D01*
X29343873Y14187832D01*
X29347553Y14187100D01*
X29690100Y14187100D01*
X29738438Y14169507D01*
X29764158Y14124958D01*
X29765300Y14111900D01*
X29765300Y12347517D01*
X29747707Y12299179D01*
X29703158Y12273459D01*
X29652500Y12282392D01*
X29633131Y12298429D01*
X29572487Y12368809D01*
X29572486Y12368810D01*
X29568993Y12372864D01*
X29564502Y12375775D01*
X29452604Y12448303D01*
X29452603Y12448303D01*
X29448111Y12451215D01*
X29371912Y12474003D01*
X29315232Y12490955D01*
X29315229Y12490955D01*
X29310098Y12492490D01*
X29304743Y12492523D01*
X29304741Y12492523D01*
X29239524Y12492921D01*
X29166047Y12493370D01*
X29160897Y12491898D01*
X29160896Y12491898D01*
X29032692Y12455258D01*
X29032690Y12455257D01*
X29027539Y12453785D01*
X29026901Y12453383D01*
X28977497Y12449843D01*
X28935829Y12480006D01*
X28922900Y12522165D01*
X28922899Y13758749D01*
X28922899Y13762446D01*
X28921836Y13767794D01*
X28915810Y13798088D01*
X28909677Y13828922D01*
X28859307Y13904307D01*
X28841580Y13916152D01*
X28793461Y13948303D01*
X28783922Y13954677D01*
X28776660Y13956121D01*
X28776659Y13956122D01*
X28721072Y13967179D01*
X28721071Y13967179D01*
X28717447Y13967900D01*
X28620027Y13967900D01*
X28522554Y13967899D01*
X28518931Y13967178D01*
X28518927Y13967178D01*
X28492589Y13961939D01*
X28456078Y13954677D01*
X28449921Y13950563D01*
X28449919Y13950562D01*
X28446010Y13947950D01*
X28411327Y13924776D01*
X28361362Y13912550D01*
X28327770Y13924777D01*
X28289888Y13950089D01*
X28280523Y13953968D01*
X28272321Y13952706D01*
X28270027Y13950090D01*
X28270000Y13949944D01*
X28270000Y12211323D01*
X28273697Y12201166D01*
X28276710Y12199426D01*
X28276781Y12199427D01*
X28325307Y12182361D01*
X28351511Y12138095D01*
X28352800Y12124231D01*
X28352800Y12043725D01*
X28351355Y12029054D01*
X28351081Y12027674D01*
X28347565Y12010000D01*
X28349010Y12002736D01*
X28349010Y12002735D01*
X28351355Y11990946D01*
X28352800Y11976275D01*
X28352800Y11929126D01*
X28335207Y11880788D01*
X28308126Y11860401D01*
X28261226Y11839568D01*
X28229314Y11807600D01*
X28191750Y11769970D01*
X28184138Y11762345D01*
X28181331Y11755995D01*
X28181330Y11755994D01*
X28175691Y11743239D01*
X28140018Y11662549D01*
X28137100Y11637521D01*
X28137101Y11270480D01*
X28140138Y11244945D01*
X28184432Y11145226D01*
X28206833Y11122864D01*
X28256441Y11073343D01*
X28261655Y11068138D01*
X28268005Y11065331D01*
X28268006Y11065330D01*
X28319616Y11042513D01*
X28356712Y11006877D01*
X28362222Y10955733D01*
X28333569Y10913012D01*
X28319735Y10905010D01*
X28267858Y10881967D01*
X28256612Y10874238D01*
X28189463Y10806972D01*
X28181750Y10795707D01*
X28142800Y10707605D01*
X28139858Y10696814D01*
X28137852Y10679608D01*
X28137600Y10675269D01*
X28137600Y10659659D01*
X28141297Y10649502D01*
X28146669Y10646400D01*
X29049140Y10646400D01*
X29059297Y10650097D01*
X29062399Y10655469D01*
X29062399Y10675227D01*
X29062137Y10679644D01*
X29060033Y10697337D01*
X29057077Y10708092D01*
X29017966Y10796144D01*
X29010238Y10807388D01*
X28942972Y10874537D01*
X28931707Y10882250D01*
X28880384Y10904940D01*
X28843288Y10940576D01*
X28837778Y10991720D01*
X28866431Y11034441D01*
X28880265Y11042443D01*
X28932430Y11065614D01*
X28938774Y11068432D01*
X28990778Y11120527D01*
X29010957Y11140741D01*
X29010958Y11140742D01*
X29015862Y11145655D01*
X29059982Y11245451D01*
X29062900Y11270479D01*
X29062899Y11415593D01*
X29080492Y11463930D01*
X29125040Y11489650D01*
X29149431Y11489820D01*
X29153769Y11488465D01*
X29209743Y11487439D01*
X29292436Y11485923D01*
X29292438Y11485923D01*
X29297798Y11485825D01*
X29302969Y11487235D01*
X29302971Y11487235D01*
X29382265Y11508853D01*
X29436779Y11523715D01*
X29497188Y11560806D01*
X29554970Y11596284D01*
X29554973Y11596286D01*
X29559539Y11599090D01*
X29601504Y11645452D01*
X29634348Y11681737D01*
X29679829Y11705767D01*
X29730117Y11694941D01*
X29761680Y11654322D01*
X29765300Y11631272D01*
X29765300Y11097229D01*
X29763855Y11082558D01*
X29763340Y11079969D01*
X29760064Y11063500D01*
X29780803Y10959243D01*
X29809253Y10916665D01*
X29839859Y10870859D01*
X29846015Y10866746D01*
X29856014Y10860065D01*
X29867410Y10850712D01*
X30137074Y10581048D01*
X30158814Y10534428D01*
X30159100Y10527874D01*
X30159100Y10286228D01*
X30159363Y10284021D01*
X30159363Y10284014D01*
X30160783Y10272085D01*
X30162087Y10261124D01*
X30205624Y10163107D01*
X30210535Y10158205D01*
X30210536Y10158203D01*
X30276615Y10092240D01*
X30281529Y10087335D01*
X30287879Y10084528D01*
X30287880Y10084527D01*
X30331378Y10065297D01*
X30379621Y10043969D01*
X30385239Y10043314D01*
X30389699Y10042794D01*
X30435674Y10019721D01*
X30456062Y9972494D01*
X30441323Y9923211D01*
X30398353Y9894932D01*
X30380990Y9892900D01*
X21500591Y9892900D01*
X21452253Y9910493D01*
X21426533Y9955042D01*
X21426316Y9979861D01*
X21426996Y9984155D01*
X21427922Y9990000D01*
X21407957Y10116055D01*
X21375831Y10179107D01*
X21352705Y10224494D01*
X21352704Y10224495D01*
X21350016Y10229771D01*
X21275255Y10304532D01*
X22897600Y10304532D01*
X22897863Y10300090D01*
X22899915Y10282845D01*
X22902873Y10272085D01*
X22941227Y10185737D01*
X22948955Y10174493D01*
X23014902Y10108660D01*
X23026166Y10100948D01*
X23112572Y10062748D01*
X23123352Y10059810D01*
X23140142Y10057852D01*
X23144480Y10057600D01*
X23204341Y10057600D01*
X23214498Y10061297D01*
X23217600Y10066669D01*
X23217600Y10070859D01*
X23522400Y10070859D01*
X23526097Y10060702D01*
X23531469Y10057600D01*
X23595468Y10057600D01*
X23599910Y10057863D01*
X23617155Y10059915D01*
X23627915Y10062873D01*
X23714263Y10101227D01*
X23725507Y10108955D01*
X23791340Y10174902D01*
X23799052Y10186166D01*
X23837252Y10272572D01*
X23840190Y10283352D01*
X23842148Y10300142D01*
X23842400Y10304480D01*
X23842400Y10314341D01*
X23838703Y10324498D01*
X23833331Y10327600D01*
X23535659Y10327600D01*
X23525502Y10323903D01*
X23522400Y10318531D01*
X23522400Y10070859D01*
X23217600Y10070859D01*
X23217600Y10314341D01*
X23213903Y10324498D01*
X23208531Y10327600D01*
X22910859Y10327600D01*
X22900702Y10323903D01*
X22897600Y10318531D01*
X22897600Y10304532D01*
X21275255Y10304532D01*
X21259771Y10320016D01*
X21253203Y10323363D01*
X21202710Y10349090D01*
X21146055Y10377957D01*
X21115040Y10382869D01*
X21054626Y10392438D01*
X21054624Y10392438D01*
X21051708Y10392900D01*
X20988292Y10392900D01*
X20985376Y10392438D01*
X20985374Y10392438D01*
X20924960Y10382869D01*
X20893945Y10377957D01*
X20837290Y10349090D01*
X20786798Y10323363D01*
X20780229Y10320016D01*
X20742167Y10281954D01*
X20695547Y10260214D01*
X20645860Y10273528D01*
X20616355Y10315665D01*
X20614719Y10323363D01*
X20608883Y10360209D01*
X20608883Y10360210D01*
X20607957Y10366055D01*
X20562184Y10455890D01*
X20552705Y10474494D01*
X20552704Y10474495D01*
X20550016Y10479771D01*
X20459771Y10570016D01*
X20449947Y10575022D01*
X20384679Y10608277D01*
X20346055Y10627957D01*
X20315040Y10632869D01*
X20254626Y10642438D01*
X20254624Y10642438D01*
X20251708Y10642900D01*
X20188292Y10642900D01*
X20185376Y10642438D01*
X20185374Y10642438D01*
X20124960Y10632869D01*
X20093945Y10627957D01*
X20055321Y10608277D01*
X19990054Y10575022D01*
X19980229Y10570016D01*
X19923174Y10512961D01*
X19876554Y10491221D01*
X19826867Y10504535D01*
X19816826Y10512961D01*
X19759771Y10570016D01*
X19749947Y10575022D01*
X19684679Y10608277D01*
X19646055Y10627957D01*
X19615040Y10632869D01*
X19554626Y10642438D01*
X19554624Y10642438D01*
X19551708Y10642900D01*
X19488292Y10642900D01*
X19485376Y10642438D01*
X19485374Y10642438D01*
X19424960Y10632869D01*
X19393945Y10627957D01*
X19355321Y10608277D01*
X19290054Y10575022D01*
X19280229Y10570016D01*
X19189984Y10479771D01*
X19187296Y10474495D01*
X19187295Y10474494D01*
X19177816Y10455890D01*
X19132043Y10366055D01*
X19131117Y10360210D01*
X19131117Y10360209D01*
X19125281Y10323363D01*
X19100342Y10278373D01*
X19052319Y10259939D01*
X19003682Y10276687D01*
X18997833Y10281954D01*
X18959771Y10320016D01*
X18953203Y10323363D01*
X18902710Y10349090D01*
X18846055Y10377957D01*
X18815040Y10382869D01*
X18754626Y10392438D01*
X18754624Y10392438D01*
X18751708Y10392900D01*
X18688292Y10392900D01*
X18685376Y10392438D01*
X18685374Y10392438D01*
X18624960Y10382869D01*
X18593945Y10377957D01*
X18537290Y10349090D01*
X18486798Y10323363D01*
X18480229Y10320016D01*
X18389984Y10229771D01*
X18387296Y10224495D01*
X18387295Y10224494D01*
X18364169Y10179107D01*
X18332043Y10116055D01*
X18312078Y9990000D01*
X18313004Y9984155D01*
X18313684Y9979861D01*
X18303867Y9929367D01*
X18263889Y9896996D01*
X18239409Y9892900D01*
X16949853Y9892900D01*
X16901515Y9910493D01*
X16875795Y9955042D01*
X16884728Y10005700D01*
X16919326Y10036825D01*
X16974263Y10061227D01*
X16985507Y10068955D01*
X17051340Y10134902D01*
X17059052Y10146166D01*
X17097252Y10232572D01*
X17100190Y10243352D01*
X17102148Y10260142D01*
X17102400Y10264480D01*
X17102400Y10324341D01*
X17098703Y10334498D01*
X17093331Y10337600D01*
X16270859Y10337600D01*
X16260702Y10333903D01*
X16257600Y10328531D01*
X16257600Y10264532D01*
X16257863Y10260090D01*
X16259915Y10242845D01*
X16262873Y10232085D01*
X16301227Y10145737D01*
X16308955Y10134493D01*
X16374902Y10068660D01*
X16386166Y10060948D01*
X16440609Y10036879D01*
X16477706Y10001243D01*
X16483217Y9950099D01*
X16454564Y9907378D01*
X16410203Y9892900D01*
X15931085Y9892900D01*
X15882747Y9910493D01*
X15857027Y9955042D01*
X15865960Y10005700D01*
X15900559Y10036825D01*
X15908522Y10040362D01*
X15960893Y10063624D01*
X15965795Y10068535D01*
X15965797Y10068536D01*
X16031760Y10134615D01*
X16031761Y10134616D01*
X16036665Y10139529D01*
X16052123Y10174493D01*
X16063081Y10199281D01*
X16080031Y10237621D01*
X16082900Y10262228D01*
X16082900Y10478874D01*
X16100493Y10527212D01*
X16104926Y10532048D01*
X16194151Y10621273D01*
X16240771Y10643013D01*
X16253880Y10643013D01*
X16260886Y10642400D01*
X16514341Y10642400D01*
X16524498Y10646097D01*
X16527600Y10651469D01*
X16527600Y10655659D01*
X16832400Y10655659D01*
X16836097Y10645502D01*
X16841469Y10642400D01*
X17089141Y10642400D01*
X17099298Y10646097D01*
X17102400Y10651469D01*
X17102400Y10715468D01*
X17102137Y10719910D01*
X17100085Y10737155D01*
X17097127Y10747915D01*
X17058773Y10834263D01*
X17051045Y10845507D01*
X16985098Y10911340D01*
X16973834Y10919052D01*
X16887428Y10957252D01*
X16876648Y10960190D01*
X16859858Y10962148D01*
X16855520Y10962400D01*
X16845659Y10962400D01*
X16835502Y10958703D01*
X16832400Y10953331D01*
X16832400Y10655659D01*
X16527600Y10655659D01*
X16527600Y10921501D01*
X16545193Y10969839D01*
X16561021Y10984027D01*
X16564773Y10986534D01*
X16564774Y10986535D01*
X16570931Y10990649D01*
X16587174Y11014958D01*
X16622901Y11068429D01*
X16622903Y11068432D01*
X16625872Y11072875D01*
X16629987Y11079033D01*
X16632935Y11093851D01*
X16649280Y11176025D01*
X16650725Y11183290D01*
X16646935Y11202344D01*
X16645490Y11217015D01*
X16645490Y11306273D01*
X16663083Y11354611D01*
X16707632Y11380331D01*
X16744715Y11375104D01*
X16745286Y11376951D01*
X16750864Y11375227D01*
X16756106Y11372665D01*
X16795014Y11366989D01*
X16825821Y11362494D01*
X16825826Y11362494D01*
X16828524Y11362100D01*
X17336476Y11362100D01*
X17339192Y11362500D01*
X17339195Y11362500D01*
X17383057Y11368957D01*
X17409524Y11372853D01*
X17414769Y11375428D01*
X17515012Y11424645D01*
X17515013Y11424646D01*
X17520588Y11427383D01*
X17524975Y11431777D01*
X17524977Y11431779D01*
X17603607Y11510547D01*
X17603608Y11510548D01*
X17608000Y11514948D01*
X17610729Y11520532D01*
X17610731Y11520534D01*
X17659773Y11620865D01*
X17662335Y11626106D01*
X17668406Y11667723D01*
X17672506Y11695821D01*
X17672506Y11695826D01*
X17672900Y11698524D01*
X17672900Y12096374D01*
X17690493Y12144712D01*
X17694926Y12149548D01*
X17947820Y12402442D01*
X17994440Y12424182D01*
X18044127Y12410868D01*
X18073632Y12368731D01*
X18075406Y12338412D01*
X18069683Y12299179D01*
X18067100Y12281476D01*
X18067100Y11698524D01*
X18067500Y11695808D01*
X18067500Y11695805D01*
X18070155Y11677772D01*
X18077853Y11625476D01*
X18080428Y11620232D01*
X18080428Y11620231D01*
X18129597Y11520087D01*
X18132383Y11514412D01*
X18136777Y11510025D01*
X18136779Y11510023D01*
X18215547Y11431393D01*
X18219948Y11427000D01*
X18225532Y11424271D01*
X18225534Y11424269D01*
X18243286Y11415592D01*
X18331106Y11372665D01*
X18370014Y11366989D01*
X18400821Y11362494D01*
X18400826Y11362494D01*
X18403524Y11362100D01*
X18911476Y11362100D01*
X18914192Y11362500D01*
X18914195Y11362500D01*
X18958057Y11368957D01*
X18984524Y11372853D01*
X18989769Y11375428D01*
X19090012Y11424645D01*
X19090013Y11424646D01*
X19095588Y11427383D01*
X19099975Y11431777D01*
X19099977Y11431779D01*
X19178607Y11510547D01*
X19178608Y11510548D01*
X19183000Y11514948D01*
X19185729Y11520532D01*
X19185731Y11520534D01*
X19234773Y11620865D01*
X19237335Y11626106D01*
X19240220Y11645880D01*
X19242055Y11658457D01*
X19266443Y11703748D01*
X19316467Y11722800D01*
X19897567Y11722800D01*
X19945905Y11705207D01*
X19966292Y11678127D01*
X19983624Y11639107D01*
X19999896Y11622864D01*
X20054319Y11568536D01*
X20059529Y11563335D01*
X20065879Y11560528D01*
X20065880Y11560527D01*
X20099866Y11545502D01*
X20157621Y11519969D01*
X20163239Y11519314D01*
X20180066Y11517352D01*
X20180067Y11517352D01*
X20182228Y11517100D01*
X20537772Y11517100D01*
X20539979Y11517363D01*
X20539986Y11517363D01*
X20557270Y11519420D01*
X20562876Y11520087D01*
X20660893Y11563624D01*
X20665795Y11568535D01*
X20665797Y11568536D01*
X20731760Y11634615D01*
X20731761Y11634616D01*
X20736665Y11639529D01*
X20744359Y11656931D01*
X20765723Y11705257D01*
X20780031Y11737621D01*
X20782900Y11762228D01*
X20957100Y11762228D01*
X20957363Y11760021D01*
X20957363Y11760014D01*
X20959287Y11743852D01*
X20960087Y11737124D01*
X21003624Y11639107D01*
X21008535Y11634205D01*
X21008536Y11634203D01*
X21074615Y11568240D01*
X21079529Y11563335D01*
X21085879Y11560528D01*
X21085880Y11560527D01*
X21119866Y11545502D01*
X21177621Y11519969D01*
X21183239Y11519314D01*
X21200066Y11517352D01*
X21200067Y11517352D01*
X21202228Y11517100D01*
X21502776Y11517100D01*
X21551114Y11499507D01*
X21576834Y11454958D01*
X21567901Y11404300D01*
X21548541Y11384164D01*
X21549320Y11383248D01*
X21545237Y11379773D01*
X21540709Y11376916D01*
X21537164Y11372903D01*
X21537165Y11372903D01*
X21448897Y11272959D01*
X21448895Y11272956D01*
X21445351Y11268943D01*
X21433537Y11243781D01*
X21387467Y11145655D01*
X21384129Y11138546D01*
X21383305Y11133256D01*
X21383305Y11133255D01*
X21376543Y11089822D01*
X21361967Y10996207D01*
X21362661Y10990900D01*
X21362661Y10990897D01*
X21370268Y10932726D01*
X21380645Y10853370D01*
X21410559Y10785385D01*
X21431276Y10738303D01*
X21438662Y10721516D01*
X21442107Y10717418D01*
X21442108Y10717416D01*
X21471560Y10682379D01*
X21531354Y10611245D01*
X21575125Y10582109D01*
X21646756Y10534428D01*
X21651270Y10531423D01*
X21788769Y10488465D01*
X21862871Y10487107D01*
X21927436Y10485923D01*
X21927438Y10485923D01*
X21932798Y10485825D01*
X21937969Y10487235D01*
X21937971Y10487235D01*
X22032333Y10512961D01*
X22071779Y10523715D01*
X22129282Y10559022D01*
X22189970Y10596284D01*
X22189973Y10596286D01*
X22194539Y10599090D01*
X22284128Y10698066D01*
X22329608Y10722095D01*
X22339879Y10722800D01*
X22498989Y10722800D01*
X22513660Y10721355D01*
X22532718Y10717564D01*
X22539982Y10719009D01*
X22544512Y10719910D01*
X22636975Y10738303D01*
X22700715Y10780893D01*
X22707438Y10785385D01*
X22725359Y10797359D01*
X22736154Y10813515D01*
X22745506Y10824910D01*
X22871370Y10950774D01*
X22917990Y10972514D01*
X22924544Y10972800D01*
X22954710Y10972800D01*
X23003048Y10955207D01*
X23028768Y10910658D01*
X23019835Y10860000D01*
X23007931Y10844472D01*
X22948660Y10785098D01*
X22940948Y10773834D01*
X22902748Y10687428D01*
X22899810Y10676648D01*
X22897852Y10659858D01*
X22897600Y10655520D01*
X22897600Y10645659D01*
X22901297Y10635502D01*
X22906669Y10632400D01*
X23204341Y10632400D01*
X23214498Y10636097D01*
X23217600Y10641469D01*
X23217600Y10645659D01*
X23522400Y10645659D01*
X23526097Y10635502D01*
X23531469Y10632400D01*
X23829141Y10632400D01*
X23839298Y10636097D01*
X23842400Y10641469D01*
X23842400Y10655468D01*
X23842137Y10659910D01*
X23840085Y10677155D01*
X23837127Y10687915D01*
X23798773Y10774263D01*
X23791045Y10785507D01*
X23725098Y10851340D01*
X23713834Y10859052D01*
X23627428Y10897252D01*
X23616648Y10900190D01*
X23599858Y10902148D01*
X23595520Y10902400D01*
X23535659Y10902400D01*
X23525502Y10898703D01*
X23522400Y10893331D01*
X23522400Y10645659D01*
X23217600Y10645659D01*
X23217600Y10889140D01*
X23208099Y10915244D01*
X23208099Y10966684D01*
X23236984Y11003489D01*
X23280329Y11032451D01*
X23283307Y11034441D01*
X23296484Y11043245D01*
X23302641Y11047359D01*
X23306755Y11053516D01*
X23308313Y11055074D01*
X23354933Y11076814D01*
X23361487Y11077100D01*
X23597772Y11077100D01*
X23599979Y11077363D01*
X23599986Y11077363D01*
X23617270Y11079420D01*
X23622876Y11080087D01*
X23720893Y11123624D01*
X23725795Y11128535D01*
X23725797Y11128536D01*
X23791760Y11194615D01*
X23791761Y11194616D01*
X23796665Y11199529D01*
X23797562Y11201558D01*
X23837331Y11230030D01*
X23857554Y11232800D01*
X24382445Y11232800D01*
X24430783Y11215207D01*
X24441918Y11202947D01*
X24443624Y11199107D01*
X24464152Y11178615D01*
X24514319Y11128536D01*
X24519529Y11123335D01*
X24525879Y11120528D01*
X24525880Y11120527D01*
X24561441Y11104806D01*
X24617621Y11079969D01*
X24623239Y11079314D01*
X24640066Y11077352D01*
X24640067Y11077352D01*
X24642228Y11077100D01*
X24907674Y11077100D01*
X24956012Y11059507D01*
X24981732Y11014958D01*
X24972799Y10964300D01*
X24960848Y10948726D01*
X24937048Y10924926D01*
X24890428Y10903186D01*
X24883874Y10902900D01*
X24642228Y10902900D01*
X24640021Y10902637D01*
X24640014Y10902637D01*
X24623852Y10900713D01*
X24617124Y10899913D01*
X24519107Y10856376D01*
X24514205Y10851465D01*
X24514203Y10851464D01*
X24448362Y10785507D01*
X24443335Y10780471D01*
X24440528Y10774121D01*
X24440527Y10774120D01*
X24423597Y10735825D01*
X24399969Y10682379D01*
X24397100Y10657772D01*
X24397100Y10302228D01*
X24400087Y10277124D01*
X24443624Y10179107D01*
X24448535Y10174205D01*
X24448536Y10174203D01*
X24514615Y10108240D01*
X24519529Y10103335D01*
X24525879Y10100528D01*
X24525880Y10100527D01*
X24555720Y10087335D01*
X24617621Y10059969D01*
X24623239Y10059314D01*
X24640066Y10057352D01*
X24640067Y10057352D01*
X24642228Y10057100D01*
X25097772Y10057100D01*
X25099979Y10057363D01*
X25099986Y10057363D01*
X25117270Y10059420D01*
X25122876Y10060087D01*
X25220893Y10103624D01*
X25225795Y10108535D01*
X25225797Y10108536D01*
X25291760Y10174615D01*
X25291761Y10174616D01*
X25296665Y10179529D01*
X25340031Y10277621D01*
X25342900Y10302228D01*
X25342900Y10312773D01*
X28137601Y10312773D01*
X28137863Y10308356D01*
X28139967Y10290663D01*
X28142923Y10279908D01*
X28182034Y10191856D01*
X28189762Y10180612D01*
X28257028Y10113463D01*
X28268293Y10105750D01*
X28356395Y10066800D01*
X28367186Y10063858D01*
X28384392Y10061852D01*
X28388731Y10061600D01*
X28434341Y10061600D01*
X28444498Y10065297D01*
X28447600Y10070669D01*
X28447600Y10074860D01*
X28752400Y10074860D01*
X28756097Y10064703D01*
X28761469Y10061601D01*
X28811227Y10061601D01*
X28815644Y10061863D01*
X28833337Y10063967D01*
X28844092Y10066923D01*
X28932144Y10106034D01*
X28943388Y10113762D01*
X29010537Y10181028D01*
X29018250Y10192293D01*
X29057200Y10280395D01*
X29060142Y10291186D01*
X29062148Y10308392D01*
X29062400Y10312731D01*
X29062400Y10328341D01*
X29058703Y10338498D01*
X29053331Y10341600D01*
X28765659Y10341600D01*
X28755502Y10337903D01*
X28752400Y10332531D01*
X28752400Y10074860D01*
X28447600Y10074860D01*
X28447600Y10328341D01*
X28443903Y10338498D01*
X28438531Y10341600D01*
X28150860Y10341600D01*
X28140703Y10337903D01*
X28137601Y10332531D01*
X28137601Y10312773D01*
X25342900Y10312773D01*
X25342900Y10543874D01*
X25360493Y10592212D01*
X25364926Y10597048D01*
X25546490Y10778612D01*
X25593110Y10800352D01*
X25641335Y10788036D01*
X25646806Y10784394D01*
X25646808Y10784393D01*
X25651270Y10781423D01*
X25788769Y10738465D01*
X25862871Y10737107D01*
X25927436Y10735923D01*
X25927438Y10735923D01*
X25932798Y10735825D01*
X25937969Y10737235D01*
X25937971Y10737235D01*
X26021953Y10760131D01*
X26071779Y10773715D01*
X26146626Y10819671D01*
X26189970Y10846284D01*
X26189973Y10846286D01*
X26194539Y10849090D01*
X26210521Y10866746D01*
X26287612Y10951915D01*
X26291210Y10955890D01*
X26294607Y10962900D01*
X26351682Y11080704D01*
X26351682Y11080705D01*
X26354020Y11085530D01*
X26377919Y11227587D01*
X26378071Y11240000D01*
X26377530Y11243781D01*
X26358409Y11377296D01*
X26358408Y11377300D01*
X26357649Y11382599D01*
X26347783Y11404300D01*
X26310074Y11487235D01*
X26298026Y11513734D01*
X26292654Y11519969D01*
X26207487Y11618810D01*
X26207484Y11618813D01*
X26203993Y11622864D01*
X26198991Y11626106D01*
X26087604Y11698303D01*
X26087603Y11698303D01*
X26083111Y11701215D01*
X25994930Y11727587D01*
X25950232Y11740955D01*
X25950229Y11740955D01*
X25945098Y11742490D01*
X25939743Y11742523D01*
X25939741Y11742523D01*
X25874524Y11742921D01*
X25801047Y11743370D01*
X25795897Y11741898D01*
X25795896Y11741898D01*
X25789255Y11740000D01*
X25662539Y11703785D01*
X25658013Y11700929D01*
X25658010Y11700928D01*
X25557517Y11637521D01*
X25540709Y11626916D01*
X25535365Y11620865D01*
X25474465Y11551909D01*
X25429280Y11527325D01*
X25378864Y11537536D01*
X25346807Y11577765D01*
X25342900Y11601689D01*
X25342900Y11677772D01*
X25342429Y11681737D01*
X25340580Y11697270D01*
X25339913Y11702876D01*
X25296376Y11800893D01*
X25291465Y11805795D01*
X25291464Y11805797D01*
X25225385Y11871760D01*
X25225384Y11871761D01*
X25220471Y11876665D01*
X25214121Y11879472D01*
X25214120Y11879473D01*
X25160719Y11903081D01*
X25122379Y11920031D01*
X25100028Y11922637D01*
X25099934Y11922648D01*
X25099933Y11922648D01*
X25097772Y11922900D01*
X24642228Y11922900D01*
X24640021Y11922637D01*
X24640014Y11922637D01*
X24623852Y11920713D01*
X24617124Y11919913D01*
X24519107Y11876376D01*
X24514205Y11871465D01*
X24514203Y11871464D01*
X24448240Y11805385D01*
X24443335Y11800471D01*
X24442438Y11798442D01*
X24402669Y11769970D01*
X24382446Y11767200D01*
X23857555Y11767200D01*
X23809217Y11784793D01*
X23798082Y11797053D01*
X23796376Y11800893D01*
X23728515Y11868635D01*
X23725385Y11871760D01*
X23725384Y11871761D01*
X23720471Y11876665D01*
X23714121Y11879472D01*
X23714120Y11879473D01*
X23660719Y11903081D01*
X23622379Y11920031D01*
X23600028Y11922637D01*
X23599934Y11922648D01*
X23599933Y11922648D01*
X23597772Y11922900D01*
X23142228Y11922900D01*
X23140021Y11922637D01*
X23140014Y11922637D01*
X23123852Y11920713D01*
X23117124Y11919913D01*
X23019107Y11876376D01*
X23014205Y11871465D01*
X23014203Y11871464D01*
X22984770Y11841979D01*
X22938169Y11820199D01*
X22888470Y11833469D01*
X22859372Y11874001D01*
X22858408Y11877297D01*
X22857649Y11882599D01*
X22841403Y11918332D01*
X22800245Y12008853D01*
X22798026Y12013734D01*
X22794528Y12017794D01*
X22707487Y12118810D01*
X22707484Y12118813D01*
X22703993Y12122864D01*
X22688974Y12132599D01*
X22587604Y12198303D01*
X22587603Y12198303D01*
X22583111Y12201215D01*
X22495231Y12227497D01*
X22450232Y12240955D01*
X22450229Y12240955D01*
X22445098Y12242490D01*
X22439743Y12242523D01*
X22439741Y12242523D01*
X22375226Y12242917D01*
X22301047Y12243370D01*
X22276198Y12236268D01*
X22228277Y12239011D01*
X22224257Y12241697D01*
X22120000Y12262436D01*
X22112736Y12260991D01*
X22100942Y12258645D01*
X22086271Y12257200D01*
X21842433Y12257200D01*
X21794095Y12274793D01*
X21773708Y12301873D01*
X21759193Y12334551D01*
X21756376Y12340893D01*
X21687238Y12409910D01*
X21685385Y12411760D01*
X21685384Y12411761D01*
X21680471Y12416665D01*
X21674121Y12419472D01*
X21674120Y12419473D01*
X21605424Y12449843D01*
X21582379Y12460031D01*
X21560028Y12462637D01*
X21559934Y12462648D01*
X21559933Y12462648D01*
X21557772Y12462900D01*
X21202228Y12462900D01*
X21200021Y12462637D01*
X21200014Y12462637D01*
X21183852Y12460713D01*
X21177124Y12459913D01*
X21079107Y12416376D01*
X21074205Y12411465D01*
X21074203Y12411464D01*
X21008240Y12345385D01*
X21003335Y12340471D01*
X21000528Y12334121D01*
X21000527Y12334120D01*
X20996972Y12326078D01*
X20959969Y12242379D01*
X20957100Y12217772D01*
X20957100Y11762228D01*
X20782900Y11762228D01*
X20782900Y12217772D01*
X20781419Y12230224D01*
X20780580Y12237270D01*
X20779913Y12242876D01*
X20736376Y12340893D01*
X20731465Y12345795D01*
X20731464Y12345797D01*
X20665385Y12411760D01*
X20665384Y12411761D01*
X20660471Y12416665D01*
X20654121Y12419472D01*
X20654120Y12419473D01*
X20585424Y12449843D01*
X20562379Y12460031D01*
X20540028Y12462637D01*
X20539934Y12462648D01*
X20539933Y12462648D01*
X20537772Y12462900D01*
X20182228Y12462900D01*
X20180021Y12462637D01*
X20180014Y12462637D01*
X20163852Y12460713D01*
X20157124Y12459913D01*
X20059107Y12416376D01*
X20054205Y12411465D01*
X20054203Y12411464D01*
X19988240Y12345385D01*
X19983335Y12340471D01*
X19980528Y12334121D01*
X19980527Y12334120D01*
X19966324Y12301993D01*
X19930688Y12264897D01*
X19897546Y12257200D01*
X19316414Y12257200D01*
X19268076Y12274793D01*
X19242016Y12321448D01*
X19239216Y12340471D01*
X19237147Y12354524D01*
X19230172Y12368731D01*
X19185355Y12460012D01*
X19185354Y12460013D01*
X19182617Y12465588D01*
X19178223Y12469975D01*
X19178221Y12469977D01*
X19099453Y12548607D01*
X19099452Y12548608D01*
X19095052Y12553000D01*
X19089468Y12555729D01*
X19089466Y12555731D01*
X18996762Y12601045D01*
X18983894Y12607335D01*
X18936132Y12614303D01*
X18914179Y12617506D01*
X18914174Y12617506D01*
X18911476Y12617900D01*
X18403524Y12617900D01*
X18400808Y12617500D01*
X18400805Y12617500D01*
X18346596Y12609520D01*
X18296211Y12619886D01*
X18264278Y12660214D01*
X18265737Y12711633D01*
X18282470Y12737092D01*
X18385452Y12840074D01*
X18432072Y12861814D01*
X18438626Y12862100D01*
X18911476Y12862100D01*
X18914192Y12862500D01*
X18914195Y12862500D01*
X18955862Y12868634D01*
X18984524Y12872853D01*
X19010943Y12885824D01*
X19090012Y12924645D01*
X19090013Y12924646D01*
X19095588Y12927383D01*
X19099975Y12931777D01*
X19099977Y12931779D01*
X19178607Y13010547D01*
X19178608Y13010548D01*
X19183000Y13014948D01*
X19204937Y13059827D01*
X19241971Y13095528D01*
X19293288Y13099072D01*
X19314167Y13089403D01*
X19377683Y13047124D01*
X19401270Y13031423D01*
X19538769Y12988465D01*
X19612871Y12987107D01*
X19677436Y12985923D01*
X19677438Y12985923D01*
X19682798Y12985825D01*
X19687969Y12987235D01*
X19687971Y12987235D01*
X19763695Y13007880D01*
X19821779Y13023715D01*
X19880593Y13059827D01*
X19939970Y13096284D01*
X19939973Y13096286D01*
X19944539Y13099090D01*
X20018644Y13180959D01*
X20037612Y13201915D01*
X20041210Y13205890D01*
X20046795Y13217416D01*
X20101682Y13330704D01*
X20101682Y13330705D01*
X20104020Y13335530D01*
X20127919Y13477587D01*
X20128071Y13490000D01*
X20127659Y13492880D01*
X20108409Y13627296D01*
X20108408Y13627300D01*
X20107649Y13632599D01*
X20077776Y13698303D01*
X20069877Y13715674D01*
X20048026Y13763734D01*
X20038315Y13775004D01*
X19957487Y13868810D01*
X19957484Y13868813D01*
X19953993Y13872864D01*
X19949502Y13875775D01*
X19837604Y13948303D01*
X19837603Y13948303D01*
X19833111Y13951215D01*
X19740068Y13979041D01*
X19700232Y13990955D01*
X19700229Y13990955D01*
X19695098Y13992490D01*
X19689743Y13992523D01*
X19689741Y13992523D01*
X19624524Y13992921D01*
X19551047Y13993370D01*
X19545897Y13991898D01*
X19545896Y13991898D01*
X19528982Y13987064D01*
X19412539Y13953785D01*
X19408013Y13950929D01*
X19408010Y13950928D01*
X19312179Y13890463D01*
X19261910Y13879549D01*
X19216386Y13903500D01*
X19204548Y13920920D01*
X19185355Y13960012D01*
X19185354Y13960013D01*
X19182617Y13965588D01*
X19178223Y13969975D01*
X19178221Y13969977D01*
X19099453Y14048607D01*
X19099452Y14048608D01*
X19095052Y14053000D01*
X19089468Y14055729D01*
X19089466Y14055731D01*
X18992963Y14102902D01*
X18983894Y14107335D01*
X18944986Y14113011D01*
X18914179Y14117506D01*
X18914174Y14117506D01*
X18911476Y14117900D01*
X18403524Y14117900D01*
X18400808Y14117500D01*
X18400805Y14117500D01*
X18362771Y14111901D01*
X18330476Y14107147D01*
X18325232Y14104572D01*
X18325231Y14104572D01*
X18224988Y14055355D01*
X18224987Y14055354D01*
X18219412Y14052617D01*
X18215025Y14048223D01*
X18215023Y14048221D01*
X18140648Y13973715D01*
X18132000Y13965052D01*
X18129271Y13959468D01*
X18129269Y13959466D01*
X18096229Y13891872D01*
X18077665Y13853894D01*
X18073253Y13823652D01*
X18067497Y13784195D01*
X18067100Y13781476D01*
X18067100Y13308626D01*
X18049507Y13260288D01*
X18045074Y13255452D01*
X17738644Y12949022D01*
X17692024Y12927282D01*
X17642337Y12940596D01*
X17612832Y12982733D01*
X17617909Y13035220D01*
X17662335Y13126106D01*
X17670292Y13180649D01*
X17672506Y13195821D01*
X17672506Y13195826D01*
X17672900Y13198524D01*
X17672900Y13781476D01*
X17672367Y13785101D01*
X17662998Y13848742D01*
X17662147Y13854524D01*
X17659572Y13859769D01*
X17610355Y13960012D01*
X17610354Y13960013D01*
X17607617Y13965588D01*
X17603223Y13969975D01*
X17603221Y13969977D01*
X17524453Y14048607D01*
X17524452Y14048608D01*
X17520052Y14053000D01*
X17514468Y14055729D01*
X17514466Y14055731D01*
X17417963Y14102902D01*
X17408894Y14107335D01*
X17369986Y14113011D01*
X17339179Y14117506D01*
X17339174Y14117506D01*
X17336476Y14117900D01*
X17302313Y14117900D01*
X17253975Y14135493D01*
X17228255Y14180042D01*
X17237188Y14230700D01*
X17276593Y14263765D01*
X17293428Y14267773D01*
X17312876Y14270087D01*
X17410893Y14313624D01*
X17415795Y14318535D01*
X17415797Y14318536D01*
X17481760Y14384615D01*
X17481761Y14384616D01*
X17486665Y14389529D01*
X17489636Y14396248D01*
X17527743Y14482446D01*
X17530031Y14487621D01*
X17531091Y14496712D01*
X17532648Y14510066D01*
X17532648Y14510067D01*
X17532900Y14512228D01*
X17532900Y14967772D01*
X17531747Y14977468D01*
X17530580Y14987270D01*
X17529913Y14992876D01*
X17486376Y15090893D01*
X17481465Y15095795D01*
X17481464Y15095797D01*
X17415385Y15161760D01*
X17415384Y15161761D01*
X17410471Y15166665D01*
X17404121Y15169472D01*
X17404120Y15169473D01*
X17325496Y15204232D01*
X17312379Y15210031D01*
X17303375Y15211081D01*
X17289934Y15212648D01*
X17289933Y15212648D01*
X17287772Y15212900D01*
X17233751Y15212900D01*
X17185413Y15230493D01*
X17159312Y15277436D01*
X17144271Y15382460D01*
X17126850Y15420776D01*
X17122858Y15472059D01*
X17152766Y15513911D01*
X17195305Y15527100D01*
X17319058Y15527101D01*
X17323520Y15527101D01*
X17349055Y15530138D01*
X17448774Y15574432D01*
X17499249Y15624995D01*
X17520957Y15646741D01*
X17520958Y15646742D01*
X17525862Y15651655D01*
X17532591Y15666875D01*
X17551487Y15709616D01*
X17587123Y15746712D01*
X17638267Y15752222D01*
X17680988Y15723569D01*
X17688990Y15709735D01*
X17712033Y15657858D01*
X17719762Y15646612D01*
X17787028Y15579463D01*
X17798293Y15571750D01*
X17886395Y15532800D01*
X17897186Y15529858D01*
X17914392Y15527852D01*
X17918731Y15527600D01*
X17934341Y15527600D01*
X17944498Y15531297D01*
X17947600Y15536669D01*
X17947600Y16155659D01*
X18252400Y16155659D01*
X18256097Y16145502D01*
X18261469Y16142400D01*
X18519140Y16142400D01*
X18529297Y16146097D01*
X18532399Y16151469D01*
X18532399Y16155659D01*
X18707600Y16155659D01*
X18711297Y16145502D01*
X18716669Y16142400D01*
X18974341Y16142400D01*
X18984498Y16146097D01*
X18987600Y16151469D01*
X18987600Y16439140D01*
X18983903Y16449297D01*
X18978531Y16452399D01*
X18958773Y16452399D01*
X18954356Y16452137D01*
X18936663Y16450033D01*
X18925908Y16447077D01*
X18837856Y16407966D01*
X18826612Y16400238D01*
X18759463Y16332972D01*
X18751750Y16321707D01*
X18712800Y16233605D01*
X18709858Y16222814D01*
X18707852Y16205608D01*
X18707600Y16201269D01*
X18707600Y16155659D01*
X18532399Y16155659D01*
X18532399Y16201227D01*
X18532137Y16205644D01*
X18530033Y16223337D01*
X18527077Y16234092D01*
X18487966Y16322144D01*
X18480238Y16333388D01*
X18412972Y16400537D01*
X18401707Y16408250D01*
X18313605Y16447200D01*
X18302814Y16450142D01*
X18285608Y16452148D01*
X18281269Y16452400D01*
X18265659Y16452400D01*
X18255502Y16448703D01*
X18252400Y16443331D01*
X18252400Y16155659D01*
X17947600Y16155659D01*
X17947600Y16439140D01*
X17943903Y16449297D01*
X17938531Y16452399D01*
X17918773Y16452399D01*
X17914356Y16452137D01*
X17896663Y16450033D01*
X17885908Y16447077D01*
X17797856Y16407966D01*
X17786612Y16400238D01*
X17719463Y16332972D01*
X17711750Y16321707D01*
X17689060Y16270384D01*
X17653424Y16233288D01*
X17602280Y16227778D01*
X17559559Y16256431D01*
X17551557Y16270265D01*
X17528389Y16322425D01*
X17528387Y16322428D01*
X17525568Y16328774D01*
X17523350Y16330988D01*
X17510980Y16378813D01*
X17532660Y16424782D01*
X17822952Y16715074D01*
X17869572Y16736814D01*
X17876126Y16737100D01*
X19623912Y16737101D01*
X19835056Y16737101D01*
X19879658Y16745972D01*
X19930234Y16779766D01*
X19953379Y16814404D01*
X19959913Y16824183D01*
X19959914Y16824184D01*
X19964028Y16830342D01*
X19972900Y16874943D01*
X19972900Y17147600D01*
X19990493Y17195938D01*
X20035042Y17221658D01*
X20048100Y17222800D01*
X20643374Y17222800D01*
X20691712Y17205207D01*
G37*
G04 #@! TD.AperFunction*
G04 #@! TA.AperFunction,Conductor*
G36*
X15666965Y14415207D02*
G01*
X15687457Y14387888D01*
X15738662Y14271516D01*
X15742107Y14267418D01*
X15742108Y14267416D01*
X15772971Y14230700D01*
X15831354Y14161245D01*
X15951270Y14081423D01*
X15956388Y14079824D01*
X15960662Y14078489D01*
X16088769Y14038465D01*
X16162871Y14037107D01*
X16227436Y14035923D01*
X16227438Y14035923D01*
X16232798Y14035825D01*
X16237969Y14037235D01*
X16237971Y14037235D01*
X16326039Y14061245D01*
X16371779Y14073715D01*
X16452424Y14123231D01*
X16489970Y14146284D01*
X16489973Y14146286D01*
X16494539Y14149090D01*
X16498152Y14153081D01*
X16587612Y14251915D01*
X16591210Y14255890D01*
X16635087Y14346452D01*
X16671993Y14382279D01*
X16723298Y14386002D01*
X16755888Y14366882D01*
X16804319Y14318536D01*
X16809529Y14313335D01*
X16815879Y14310528D01*
X16815880Y14310527D01*
X16860366Y14290860D01*
X16907621Y14269969D01*
X16913239Y14269314D01*
X16926276Y14267794D01*
X16972251Y14244721D01*
X16992639Y14197494D01*
X16977900Y14148211D01*
X16934930Y14119932D01*
X16917567Y14117900D01*
X16828524Y14117900D01*
X16825808Y14117500D01*
X16825805Y14117500D01*
X16787771Y14111901D01*
X16755476Y14107147D01*
X16750232Y14104572D01*
X16750231Y14104572D01*
X16649988Y14055355D01*
X16649987Y14055354D01*
X16644412Y14052617D01*
X16640025Y14048223D01*
X16640023Y14048221D01*
X16565648Y13973715D01*
X16557000Y13965052D01*
X16554271Y13959468D01*
X16554269Y13959466D01*
X16521229Y13891872D01*
X16502665Y13853894D01*
X16498253Y13823652D01*
X16492497Y13784195D01*
X16492100Y13781476D01*
X16492100Y13308626D01*
X16474507Y13260288D01*
X16470074Y13255452D01*
X16213200Y12998578D01*
X16201805Y12989226D01*
X16185649Y12978431D01*
X16181535Y12972274D01*
X16181534Y12972273D01*
X16170742Y12956121D01*
X16170741Y12956119D01*
X16131034Y12896693D01*
X16126593Y12890047D01*
X16105854Y12785790D01*
X16107299Y12778526D01*
X16109645Y12766732D01*
X16111090Y12752061D01*
X16111090Y11325116D01*
X16093497Y11276778D01*
X16089064Y11271941D01*
X15802047Y10984925D01*
X15755427Y10963186D01*
X15748873Y10962900D01*
X15482228Y10962900D01*
X15480021Y10962637D01*
X15480014Y10962637D01*
X15463864Y10960715D01*
X15457124Y10959913D01*
X15359107Y10916376D01*
X15354205Y10911465D01*
X15354203Y10911464D01*
X15288362Y10845507D01*
X15283335Y10840471D01*
X15280528Y10834121D01*
X15280527Y10834120D01*
X15264275Y10797359D01*
X15239969Y10742379D01*
X15239314Y10736761D01*
X15237537Y10721516D01*
X15237100Y10717772D01*
X15237100Y10262228D01*
X15240087Y10237124D01*
X15283624Y10139107D01*
X15288535Y10134205D01*
X15288536Y10134203D01*
X15354615Y10068240D01*
X15359529Y10063335D01*
X15419374Y10036878D01*
X15456470Y10001243D01*
X15461981Y9950099D01*
X15433328Y9907378D01*
X15388967Y9892900D01*
X12098100Y9892900D01*
X12049762Y9910493D01*
X12024042Y9955042D01*
X12022900Y9968100D01*
X12022900Y11169900D01*
X12040493Y11218238D01*
X12085042Y11243958D01*
X12098100Y11245100D01*
X12978342Y11245100D01*
X13026680Y11227507D01*
X13052400Y11182958D01*
X13043467Y11132300D01*
X13034707Y11120120D01*
X12948897Y11022959D01*
X12948895Y11022956D01*
X12945351Y11018943D01*
X12940614Y11008853D01*
X12887154Y10894988D01*
X12884129Y10888546D01*
X12883305Y10883256D01*
X12883305Y10883255D01*
X12879684Y10860000D01*
X12861967Y10746207D01*
X12862661Y10740900D01*
X12862661Y10740897D01*
X12870313Y10682379D01*
X12880645Y10603370D01*
X12906824Y10543874D01*
X12927638Y10496571D01*
X12938662Y10471516D01*
X12942107Y10467418D01*
X12942108Y10467416D01*
X12979512Y10422919D01*
X13031354Y10361245D01*
X13053830Y10346284D01*
X13123149Y10300142D01*
X13151270Y10281423D01*
X13288769Y10238465D01*
X13361929Y10237124D01*
X13427436Y10235923D01*
X13427438Y10235923D01*
X13432798Y10235825D01*
X13437969Y10237235D01*
X13437971Y10237235D01*
X13521248Y10259939D01*
X13571779Y10273715D01*
X13640101Y10315665D01*
X13689970Y10346284D01*
X13689973Y10346286D01*
X13694539Y10349090D01*
X13704604Y10360209D01*
X13787612Y10451915D01*
X13791210Y10455890D01*
X13796795Y10467416D01*
X13851682Y10580704D01*
X13851682Y10580705D01*
X13854020Y10585530D01*
X13877919Y10727587D01*
X13878071Y10740000D01*
X13877659Y10742880D01*
X13858409Y10877296D01*
X13858408Y10877300D01*
X13857649Y10882599D01*
X13854835Y10888790D01*
X13811533Y10984027D01*
X13798026Y11013734D01*
X13789062Y11024138D01*
X13706357Y11120120D01*
X13705760Y11120814D01*
X13687535Y11168916D01*
X13704494Y11217480D01*
X13748702Y11243781D01*
X13762729Y11245101D01*
X14655056Y11245101D01*
X14699658Y11253972D01*
X14750234Y11287766D01*
X14784028Y11338342D01*
X14788832Y11362494D01*
X14792179Y11379318D01*
X14792179Y11379319D01*
X14792900Y11382943D01*
X14792899Y12937056D01*
X14784028Y12981658D01*
X14750234Y13032234D01*
X14718798Y13053239D01*
X14705817Y13061913D01*
X14705816Y13061914D01*
X14699658Y13066028D01*
X14679620Y13070014D01*
X14658682Y13074179D01*
X14658681Y13074179D01*
X14655057Y13074900D01*
X14091377Y13074900D01*
X12098100Y13074899D01*
X12049762Y13092492D01*
X12024042Y13137041D01*
X12022900Y13150099D01*
X12022900Y13709900D01*
X12040493Y13758238D01*
X12085042Y13783958D01*
X12098100Y13785100D01*
X14091290Y13785101D01*
X14655056Y13785101D01*
X14699658Y13793972D01*
X14750234Y13827766D01*
X14762787Y13846553D01*
X14779913Y13872183D01*
X14779914Y13872184D01*
X14784028Y13878342D01*
X14789193Y13904307D01*
X14792179Y13919318D01*
X14792179Y13919319D01*
X14792900Y13922943D01*
X14792900Y14357600D01*
X14810493Y14405938D01*
X14855042Y14431658D01*
X14868100Y14432800D01*
X15618627Y14432800D01*
X15666965Y14415207D01*
G37*
G04 #@! TD.AperFunction*
G04 #@! TA.AperFunction,Conductor*
G36*
X36244949Y22879007D02*
G01*
X36249785Y22874574D01*
X37320807Y21803552D01*
X37342547Y21756932D01*
X37329233Y21707245D01*
X37302473Y21683736D01*
X37204658Y21632599D01*
X37190681Y21625292D01*
X37187815Y21622987D01*
X37187814Y21622987D01*
X37039213Y21503509D01*
X37029760Y21495909D01*
X36994986Y21454467D01*
X36931023Y21378238D01*
X36897034Y21337732D01*
X36797559Y21156789D01*
X36735125Y20959970D01*
X36722849Y20850526D01*
X36699977Y20804450D01*
X36652840Y20783856D01*
X36617713Y20790129D01*
X36545889Y20821882D01*
X36536804Y20822941D01*
X36522166Y20824648D01*
X36522165Y20824648D01*
X36520004Y20824900D01*
X36268000Y20824900D01*
X36219662Y20842493D01*
X36193942Y20887042D01*
X36192800Y20900100D01*
X36192800Y21311635D01*
X36193208Y21317194D01*
X36194756Y21321703D01*
X36192853Y21372391D01*
X36192800Y21375211D01*
X36192800Y21395468D01*
X36192166Y21398872D01*
X36191847Y21402324D01*
X36192019Y21402340D01*
X36191574Y21406458D01*
X36190750Y21428418D01*
X36190749Y21428421D01*
X36190489Y21435357D01*
X36187249Y21442899D01*
X36184758Y21448698D01*
X36179924Y21464610D01*
X36178536Y21472059D01*
X36178535Y21472061D01*
X36177264Y21478886D01*
X36173622Y21484795D01*
X36173621Y21484797D01*
X36162087Y21503509D01*
X36157009Y21513285D01*
X36147692Y21534972D01*
X36147690Y21534975D01*
X36145594Y21539854D01*
X36141515Y21544819D01*
X36134984Y21551350D01*
X36124143Y21565064D01*
X36121229Y21569792D01*
X36121228Y21569793D01*
X36117585Y21575703D01*
X36092604Y21594699D01*
X36084957Y21601377D01*
X35147609Y22538726D01*
X35125869Y22585346D01*
X35139183Y22635033D01*
X35181320Y22664538D01*
X35200783Y22667100D01*
X35720770Y22667101D01*
X35735056Y22667101D01*
X35779658Y22675972D01*
X35830234Y22709766D01*
X35844088Y22730500D01*
X35859913Y22754183D01*
X35859914Y22754184D01*
X35864028Y22760342D01*
X35872900Y22804943D01*
X35872900Y22821400D01*
X35890493Y22869738D01*
X35935042Y22895458D01*
X35948100Y22896600D01*
X36196611Y22896600D01*
X36244949Y22879007D01*
G37*
G04 #@! TD.AperFunction*
G04 #@! TD*
M02*
