G04 #@! TF.GenerationSoftware,KiCad,Pcbnew,6.0.7+dfsg-3*
G04 #@! TF.CreationDate,2022-10-18T10:37:57+08:00*
G04 #@! TF.ProjectId,stlink,73746c69-6e6b-42e6-9b69-6361645f7063,e*
G04 #@! TF.SameCoordinates,PX5ca1610PY6645a40*
G04 #@! TF.FileFunction,Copper,L3,Inr*
G04 #@! TF.FilePolarity,Positive*
%FSLAX46Y46*%
G04 Gerber Fmt 4.6, Leading zero omitted, Abs format (unit mm)*
G04 Created by KiCad (PCBNEW 6.0.7+dfsg-3) date 2022-10-18 10:37:57*
%MOMM*%
%LPD*%
G01*
G04 APERTURE LIST*
G04 #@! TA.AperFunction,ComponentPad*
%ADD10C,1.800000*%
G04 #@! TD*
G04 #@! TA.AperFunction,ComponentPad*
%ADD11O,3.500000X2.000000*%
G04 #@! TD*
G04 #@! TA.AperFunction,ComponentPad*
%ADD12C,2.200000*%
G04 #@! TD*
G04 #@! TA.AperFunction,ViaPad*
%ADD13C,0.700000*%
G04 #@! TD*
G04 APERTURE END LIST*
D10*
G04 #@! TO.N,VBUS*
G04 #@! TO.C,J1*
X37770000Y20740000D03*
G04 #@! TO.N,D-*
X37770000Y18240000D03*
G04 #@! TO.N,D+*
X37770000Y16240000D03*
G04 #@! TO.N,GND*
X37770000Y13740000D03*
D11*
X39870000Y11390000D03*
X39870000Y23090000D03*
D12*
X39870000Y14940000D03*
X39870000Y19540000D03*
G04 #@! TD*
D13*
G04 #@! TO.N,GND*
X36220000Y22277000D03*
X41870000Y21240000D03*
X41870000Y17240000D03*
X37370000Y23240000D03*
X24270000Y17140000D03*
X41870000Y13040000D03*
X15970000Y13540000D03*
X17870000Y10490000D03*
X26695000Y10490000D03*
X25370000Y19490000D03*
X34797600Y17476400D03*
X32410000Y10720000D03*
X18620000Y15990000D03*
X22370000Y21990000D03*
X35069941Y21258606D03*
X24120000Y19490000D03*
X18620000Y19740000D03*
G04 #@! TO.N,+5V*
X13360000Y24055000D03*
X30870000Y22740000D03*
G04 #@! TO.N,+3V3*
X34315000Y20372000D03*
X16656622Y15239861D03*
X32620000Y13490000D03*
X15370000Y21490000D03*
X23570000Y16440000D03*
X22370000Y20740000D03*
X33045000Y20372000D03*
X22370000Y11740000D03*
X29235000Y11990000D03*
X15370000Y22490000D03*
G04 #@! TO.N,D-*
X31600000Y17880000D03*
G04 #@! TO.N,D+*
X32630000Y17880000D03*
G04 #@! TO.N,LED*
X19620000Y13490000D03*
X26470000Y14440000D03*
G04 #@! TO.N,T_DIO*
X16142402Y17990000D03*
X27870000Y15740000D03*
G04 #@! TO.N,T_CLK*
X28620000Y14990000D03*
G04 #@! TO.N,CLK*
X28870000Y22740000D03*
G04 #@! TO.N,T_RX*
X22120000Y13240000D03*
X13370000Y10740000D03*
G04 #@! TO.N,T_TX*
X21120000Y13240000D03*
G04 #@! TO.N,T_RST*
X16170000Y14540000D03*
X25370000Y14440000D03*
G04 #@! TO.N,T_SWO*
X24970000Y16440000D03*
G04 #@! TO.N,DIO*
X28270000Y19240000D03*
G04 #@! TO.N,B0*
X25370000Y22740000D03*
G04 #@! TO.N,RENUM*
X32370000Y11990000D03*
X26670000Y19840000D03*
G04 #@! TO.N,Net-(R10-Pad1)*
X23870000Y14440000D03*
X21870000Y10990000D03*
G04 #@! TO.N,Net-(JP1-Pad2)*
X25870000Y11240000D03*
G04 #@! TD*
G04 #@! TA.AperFunction,Conductor*
G04 #@! TO.N,GND*
G36*
X13049039Y24569507D02*
G01*
X13074759Y24524958D01*
X13065826Y24474300D01*
X13040828Y24448301D01*
X13035239Y24444775D01*
X13035235Y24444772D01*
X13030709Y24441916D01*
X13023550Y24433810D01*
X12938897Y24337959D01*
X12938895Y24337956D01*
X12935351Y24333943D01*
X12930614Y24323853D01*
X12892249Y24242139D01*
X12874129Y24203546D01*
X12873305Y24198256D01*
X12873305Y24198255D01*
X12873203Y24197599D01*
X12851967Y24061207D01*
X12852661Y24055900D01*
X12852661Y24055897D01*
X12853159Y24052091D01*
X12870645Y23918370D01*
X12928662Y23786516D01*
X12932107Y23782418D01*
X12932108Y23782416D01*
X12975799Y23730439D01*
X13021354Y23676245D01*
X13141270Y23596423D01*
X13278769Y23553465D01*
X13352871Y23552107D01*
X13417436Y23550923D01*
X13417438Y23550923D01*
X13422798Y23550825D01*
X13427969Y23552235D01*
X13427971Y23552235D01*
X13548196Y23585012D01*
X13561779Y23588715D01*
X13614871Y23621314D01*
X13679970Y23661284D01*
X13679973Y23661286D01*
X13684539Y23664090D01*
X13781210Y23770890D01*
X13786795Y23782416D01*
X13841682Y23895704D01*
X13841682Y23895705D01*
X13844020Y23900530D01*
X13867919Y24042587D01*
X13868071Y24055000D01*
X13867571Y24058492D01*
X13848409Y24192296D01*
X13848408Y24192300D01*
X13847649Y24197599D01*
X13844697Y24204093D01*
X13790245Y24323853D01*
X13788026Y24328734D01*
X13783538Y24333943D01*
X13697487Y24433810D01*
X13697484Y24433813D01*
X13693993Y24437864D01*
X13689502Y24440775D01*
X13677127Y24448796D01*
X13646134Y24489851D01*
X13648781Y24541223D01*
X13683830Y24578874D01*
X13718029Y24587100D01*
X18239409Y24587100D01*
X18287747Y24569507D01*
X18313467Y24524958D01*
X18313684Y24500140D01*
X18312078Y24490000D01*
X18332043Y24363945D01*
X18389984Y24250229D01*
X18480229Y24159984D01*
X18485505Y24157296D01*
X18485506Y24157295D01*
X18527652Y24135821D01*
X18593945Y24102043D01*
X18599792Y24101117D01*
X18685374Y24087562D01*
X18685376Y24087562D01*
X18688292Y24087100D01*
X18751708Y24087100D01*
X18754624Y24087562D01*
X18754626Y24087562D01*
X18840208Y24101117D01*
X18846055Y24102043D01*
X18912348Y24135821D01*
X18954494Y24157295D01*
X18954495Y24157296D01*
X18959771Y24159984D01*
X18997833Y24198046D01*
X19044453Y24219786D01*
X19094140Y24206472D01*
X19123645Y24164335D01*
X19125281Y24156637D01*
X19132043Y24113945D01*
X19138579Y24101117D01*
X19179421Y24020961D01*
X19189984Y24000229D01*
X19280229Y23909984D01*
X19285505Y23907296D01*
X19285506Y23907295D01*
X19303963Y23897891D01*
X19393945Y23852043D01*
X19399792Y23851117D01*
X19485374Y23837562D01*
X19485376Y23837562D01*
X19488292Y23837100D01*
X19551708Y23837100D01*
X19554624Y23837562D01*
X19554626Y23837562D01*
X19640208Y23851117D01*
X19646055Y23852043D01*
X19736037Y23897891D01*
X19754494Y23907295D01*
X19754495Y23907296D01*
X19759771Y23909984D01*
X19816826Y23967039D01*
X19863446Y23988779D01*
X19913133Y23975465D01*
X19923174Y23967039D01*
X19980229Y23909984D01*
X19985505Y23907296D01*
X19985506Y23907295D01*
X20003963Y23897891D01*
X20093945Y23852043D01*
X20099792Y23851117D01*
X20185374Y23837562D01*
X20185376Y23837562D01*
X20188292Y23837100D01*
X20251708Y23837100D01*
X20254624Y23837562D01*
X20254626Y23837562D01*
X20340208Y23851117D01*
X20346055Y23852043D01*
X20436037Y23897891D01*
X20454494Y23907295D01*
X20454495Y23907296D01*
X20459771Y23909984D01*
X20550016Y24000229D01*
X20560580Y24020961D01*
X20601421Y24101117D01*
X20607957Y24113945D01*
X20614719Y24156637D01*
X20639658Y24201627D01*
X20687681Y24220061D01*
X20736318Y24203313D01*
X20742167Y24198046D01*
X20780229Y24159984D01*
X20785505Y24157296D01*
X20785506Y24157295D01*
X20827652Y24135821D01*
X20893945Y24102043D01*
X20899792Y24101117D01*
X20985374Y24087562D01*
X20985376Y24087562D01*
X20988292Y24087100D01*
X21051708Y24087100D01*
X21054624Y24087562D01*
X21054626Y24087562D01*
X21140208Y24101117D01*
X21146055Y24102043D01*
X21212348Y24135821D01*
X21254494Y24157295D01*
X21254495Y24157296D01*
X21259771Y24159984D01*
X21350016Y24250229D01*
X21407957Y24363945D01*
X21427922Y24490000D01*
X21426316Y24500139D01*
X21436133Y24550633D01*
X21476111Y24583004D01*
X21500591Y24587100D01*
X35739409Y24587100D01*
X35787747Y24569507D01*
X35813467Y24524958D01*
X35813684Y24500140D01*
X35812078Y24490000D01*
X35832043Y24363945D01*
X35889984Y24250229D01*
X35980229Y24159984D01*
X35985505Y24157296D01*
X35985506Y24157295D01*
X36027652Y24135821D01*
X36093945Y24102043D01*
X36099792Y24101117D01*
X36185374Y24087562D01*
X36185376Y24087562D01*
X36188292Y24087100D01*
X36251708Y24087100D01*
X36254624Y24087562D01*
X36254626Y24087562D01*
X36340208Y24101117D01*
X36346055Y24102043D01*
X36412348Y24135821D01*
X36454494Y24157295D01*
X36454495Y24157296D01*
X36459771Y24159984D01*
X36497833Y24198046D01*
X36544453Y24219786D01*
X36594140Y24206472D01*
X36623645Y24164335D01*
X36625281Y24156637D01*
X36632043Y24113945D01*
X36638579Y24101117D01*
X36679421Y24020961D01*
X36689984Y24000229D01*
X36780229Y23909984D01*
X36785505Y23907296D01*
X36785506Y23907295D01*
X36803963Y23897891D01*
X36893945Y23852043D01*
X36899792Y23851117D01*
X36985374Y23837562D01*
X36985376Y23837562D01*
X36988292Y23837100D01*
X37051708Y23837100D01*
X37054624Y23837562D01*
X37054626Y23837562D01*
X37140208Y23851117D01*
X37146055Y23852043D01*
X37236037Y23897891D01*
X37254494Y23907295D01*
X37254495Y23907296D01*
X37259771Y23909984D01*
X37316826Y23967039D01*
X37363446Y23988779D01*
X37413133Y23975465D01*
X37423174Y23967039D01*
X37480229Y23909984D01*
X37485505Y23907296D01*
X37485506Y23907295D01*
X37503963Y23897891D01*
X37593945Y23852043D01*
X37599792Y23851117D01*
X37685374Y23837562D01*
X37685376Y23837562D01*
X37688292Y23837100D01*
X37751708Y23837100D01*
X37754624Y23837562D01*
X37754626Y23837562D01*
X37840208Y23851117D01*
X37846055Y23852043D01*
X37936037Y23897891D01*
X37954494Y23907295D01*
X37954495Y23907296D01*
X37959771Y23909984D01*
X38050016Y24000229D01*
X38060580Y24020961D01*
X38101421Y24101117D01*
X38107957Y24113945D01*
X38114719Y24156637D01*
X38139658Y24201627D01*
X38187681Y24220061D01*
X38236318Y24203313D01*
X38242167Y24198046D01*
X38280229Y24159984D01*
X38285505Y24157296D01*
X38285506Y24157295D01*
X38327652Y24135821D01*
X38359113Y24119791D01*
X38378425Y24109951D01*
X38413507Y24072330D01*
X38416199Y24020961D01*
X38389279Y23982693D01*
X38348354Y23952133D01*
X38343250Y23947537D01*
X38204161Y23797071D01*
X38199986Y23791631D01*
X38090642Y23618332D01*
X38087528Y23612218D01*
X38011602Y23421910D01*
X38009648Y23415315D01*
X37977841Y23255405D01*
X37979485Y23244721D01*
X37982100Y23242428D01*
X37982249Y23242400D01*
X39704341Y23242400D01*
X39714498Y23246097D01*
X39717600Y23251469D01*
X39717600Y23255659D01*
X40022400Y23255659D01*
X40026097Y23245502D01*
X40031469Y23242400D01*
X41749926Y23242400D01*
X41760083Y23246097D01*
X41761984Y23249389D01*
X41738485Y23386149D01*
X41736710Y23392771D01*
X41665788Y23585012D01*
X41662831Y23591210D01*
X41558069Y23767301D01*
X41554031Y23772859D01*
X41418934Y23926908D01*
X41413949Y23931639D01*
X41253036Y24058492D01*
X41247281Y24062229D01*
X41065941Y24157637D01*
X41059609Y24160260D01*
X40863913Y24221025D01*
X40857203Y24222451D01*
X40690856Y24242139D01*
X40686435Y24242400D01*
X40035659Y24242400D01*
X40025502Y24238703D01*
X40022400Y24233331D01*
X40022400Y23255659D01*
X39717600Y23255659D01*
X39717600Y24229141D01*
X39713903Y24239298D01*
X39708531Y24242400D01*
X39067985Y24242400D01*
X39064571Y24242244D01*
X38971002Y24233646D01*
X38921257Y24246743D01*
X38891569Y24288751D01*
X38897118Y24342672D01*
X38905269Y24358669D01*
X38905270Y24358672D01*
X38907957Y24363945D01*
X38927922Y24490000D01*
X38926316Y24500139D01*
X38936133Y24550633D01*
X38976111Y24583004D01*
X39000591Y24587100D01*
X41839968Y24587100D01*
X41859430Y24584538D01*
X41870000Y24581706D01*
X41879562Y24584268D01*
X41889462Y24584268D01*
X41889462Y24583581D01*
X41898336Y24584309D01*
X42027892Y24571549D01*
X42042348Y24568673D01*
X42187083Y24524768D01*
X42200698Y24519129D01*
X42332284Y24448796D01*
X42334093Y24447829D01*
X42346351Y24439638D01*
X42463265Y24343688D01*
X42473688Y24333265D01*
X42569638Y24216351D01*
X42577828Y24204094D01*
X42640363Y24087100D01*
X42649128Y24070701D01*
X42654768Y24057083D01*
X42698119Y23914174D01*
X42698673Y23912349D01*
X42701549Y23897892D01*
X42714058Y23770890D01*
X42714309Y23768337D01*
X42713581Y23759462D01*
X42714268Y23759462D01*
X42714268Y23749562D01*
X42711706Y23740000D01*
X42714268Y23730439D01*
X42714538Y23729431D01*
X42717100Y23709968D01*
X42717100Y10770032D01*
X42714538Y10750570D01*
X42711706Y10740000D01*
X42714268Y10730438D01*
X42714268Y10720538D01*
X42713581Y10720538D01*
X42714309Y10711664D01*
X42701886Y10585530D01*
X42701549Y10582109D01*
X42698673Y10567652D01*
X42664771Y10455890D01*
X42654769Y10422919D01*
X42649129Y10409302D01*
X42582365Y10284393D01*
X42577829Y10275907D01*
X42569638Y10263649D01*
X42473688Y10146735D01*
X42463265Y10136312D01*
X42346351Y10040362D01*
X42334094Y10032172D01*
X42200698Y9960871D01*
X42187083Y9955232D01*
X42052265Y9914335D01*
X42042349Y9911327D01*
X42027892Y9908451D01*
X41898336Y9895691D01*
X41889462Y9896419D01*
X41889462Y9895732D01*
X41879562Y9895732D01*
X41870000Y9898294D01*
X41859431Y9895462D01*
X41839968Y9892900D01*
X39000591Y9892900D01*
X38952253Y9910493D01*
X38926533Y9955042D01*
X38926316Y9979861D01*
X38926996Y9984155D01*
X38927922Y9990000D01*
X38907957Y10116055D01*
X38896722Y10138105D01*
X38890453Y10189161D01*
X38918470Y10232302D01*
X38972564Y10246924D01*
X39049142Y10237861D01*
X39053565Y10237600D01*
X39704341Y10237600D01*
X39714498Y10241297D01*
X39717600Y10246669D01*
X39717600Y10250859D01*
X40022400Y10250859D01*
X40026097Y10240702D01*
X40031469Y10237600D01*
X40672015Y10237600D01*
X40675429Y10237756D01*
X40827475Y10251728D01*
X40834227Y10252979D01*
X41031436Y10308598D01*
X41037843Y10311057D01*
X41221614Y10401683D01*
X41227472Y10405273D01*
X41391646Y10527867D01*
X41396750Y10532463D01*
X41535839Y10682929D01*
X41540014Y10688369D01*
X41649358Y10861668D01*
X41652472Y10867782D01*
X41728398Y11058090D01*
X41730352Y11064685D01*
X41762159Y11224595D01*
X41760515Y11235279D01*
X41757900Y11237572D01*
X41757751Y11237600D01*
X40035659Y11237600D01*
X40025502Y11233903D01*
X40022400Y11228531D01*
X40022400Y10250859D01*
X39717600Y10250859D01*
X39717600Y11224341D01*
X39713903Y11234498D01*
X39708531Y11237600D01*
X37990074Y11237600D01*
X37979917Y11233903D01*
X37978016Y11230611D01*
X38001515Y11093851D01*
X38003290Y11087229D01*
X38074212Y10894988D01*
X38077169Y10888790D01*
X38181931Y10712699D01*
X38185969Y10707141D01*
X38321066Y10553092D01*
X38326051Y10548361D01*
X38391747Y10496571D01*
X38418815Y10452829D01*
X38411434Y10401921D01*
X38379331Y10370511D01*
X38286798Y10323363D01*
X38280229Y10320016D01*
X38242167Y10281954D01*
X38195547Y10260214D01*
X38145860Y10273528D01*
X38116355Y10315665D01*
X38114719Y10323363D01*
X38108883Y10360209D01*
X38108883Y10360210D01*
X38107957Y10366055D01*
X38062184Y10455890D01*
X38052705Y10474494D01*
X38052704Y10474495D01*
X38050016Y10479771D01*
X37959771Y10570016D01*
X37846055Y10627957D01*
X37815040Y10632869D01*
X37754626Y10642438D01*
X37754624Y10642438D01*
X37751708Y10642900D01*
X37688292Y10642900D01*
X37685376Y10642438D01*
X37685374Y10642438D01*
X37624960Y10632869D01*
X37593945Y10627957D01*
X37480229Y10570016D01*
X37423174Y10512961D01*
X37376554Y10491221D01*
X37326867Y10504535D01*
X37316826Y10512961D01*
X37259771Y10570016D01*
X37146055Y10627957D01*
X37115040Y10632869D01*
X37054626Y10642438D01*
X37054624Y10642438D01*
X37051708Y10642900D01*
X36988292Y10642900D01*
X36985376Y10642438D01*
X36985374Y10642438D01*
X36924960Y10632869D01*
X36893945Y10627957D01*
X36780229Y10570016D01*
X36689984Y10479771D01*
X36687296Y10474495D01*
X36687295Y10474494D01*
X36677816Y10455890D01*
X36632043Y10366055D01*
X36631117Y10360210D01*
X36631117Y10360209D01*
X36625281Y10323363D01*
X36600342Y10278373D01*
X36552319Y10259939D01*
X36503682Y10276687D01*
X36497833Y10281954D01*
X36459771Y10320016D01*
X36453203Y10323363D01*
X36402710Y10349090D01*
X36346055Y10377957D01*
X36315040Y10382869D01*
X36254626Y10392438D01*
X36254624Y10392438D01*
X36251708Y10392900D01*
X36188292Y10392900D01*
X36185376Y10392438D01*
X36185374Y10392438D01*
X36124960Y10382869D01*
X36093945Y10377957D01*
X36037290Y10349090D01*
X35986798Y10323363D01*
X35980229Y10320016D01*
X35889984Y10229771D01*
X35832043Y10116055D01*
X35812078Y9990000D01*
X35813004Y9984155D01*
X35813684Y9979861D01*
X35803867Y9929367D01*
X35763889Y9896996D01*
X35739409Y9892900D01*
X21500591Y9892900D01*
X21452253Y9910493D01*
X21426533Y9955042D01*
X21426316Y9979861D01*
X21426996Y9984155D01*
X21427922Y9990000D01*
X21407957Y10116055D01*
X21350016Y10229771D01*
X21259771Y10320016D01*
X21253203Y10323363D01*
X21202710Y10349090D01*
X21146055Y10377957D01*
X21115040Y10382869D01*
X21054626Y10392438D01*
X21054624Y10392438D01*
X21051708Y10392900D01*
X20988292Y10392900D01*
X20985376Y10392438D01*
X20985374Y10392438D01*
X20924960Y10382869D01*
X20893945Y10377957D01*
X20837290Y10349090D01*
X20786798Y10323363D01*
X20780229Y10320016D01*
X20742167Y10281954D01*
X20695547Y10260214D01*
X20645860Y10273528D01*
X20616355Y10315665D01*
X20614719Y10323363D01*
X20608883Y10360209D01*
X20608883Y10360210D01*
X20607957Y10366055D01*
X20562184Y10455890D01*
X20552705Y10474494D01*
X20552704Y10474495D01*
X20550016Y10479771D01*
X20459771Y10570016D01*
X20346055Y10627957D01*
X20315040Y10632869D01*
X20254626Y10642438D01*
X20254624Y10642438D01*
X20251708Y10642900D01*
X20188292Y10642900D01*
X20185376Y10642438D01*
X20185374Y10642438D01*
X20124960Y10632869D01*
X20093945Y10627957D01*
X19980229Y10570016D01*
X19923174Y10512961D01*
X19876554Y10491221D01*
X19826867Y10504535D01*
X19816826Y10512961D01*
X19759771Y10570016D01*
X19646055Y10627957D01*
X19615040Y10632869D01*
X19554626Y10642438D01*
X19554624Y10642438D01*
X19551708Y10642900D01*
X19488292Y10642900D01*
X19485376Y10642438D01*
X19485374Y10642438D01*
X19424960Y10632869D01*
X19393945Y10627957D01*
X19280229Y10570016D01*
X19189984Y10479771D01*
X19187296Y10474495D01*
X19187295Y10474494D01*
X19177816Y10455890D01*
X19132043Y10366055D01*
X19131117Y10360210D01*
X19131117Y10360209D01*
X19125281Y10323363D01*
X19100342Y10278373D01*
X19052319Y10259939D01*
X19003682Y10276687D01*
X18997833Y10281954D01*
X18959771Y10320016D01*
X18953203Y10323363D01*
X18902710Y10349090D01*
X18846055Y10377957D01*
X18815040Y10382869D01*
X18754626Y10392438D01*
X18754624Y10392438D01*
X18751708Y10392900D01*
X18688292Y10392900D01*
X18685376Y10392438D01*
X18685374Y10392438D01*
X18624960Y10382869D01*
X18593945Y10377957D01*
X18537290Y10349090D01*
X18486798Y10323363D01*
X18480229Y10320016D01*
X18389984Y10229771D01*
X18332043Y10116055D01*
X18312078Y9990000D01*
X18313004Y9984155D01*
X18313684Y9979861D01*
X18303867Y9929367D01*
X18263889Y9896996D01*
X18239409Y9892900D01*
X12098100Y9892900D01*
X12049762Y9910493D01*
X12024042Y9955042D01*
X12022900Y9968100D01*
X12022900Y10746207D01*
X12861967Y10746207D01*
X12862661Y10740900D01*
X12862661Y10740897D01*
X12870784Y10678780D01*
X12880645Y10603370D01*
X12908953Y10539036D01*
X12927638Y10496571D01*
X12938662Y10471516D01*
X12942107Y10467418D01*
X12942108Y10467416D01*
X12979512Y10422919D01*
X13031354Y10361245D01*
X13151270Y10281423D01*
X13288769Y10238465D01*
X13362871Y10237107D01*
X13427436Y10235923D01*
X13427438Y10235923D01*
X13432798Y10235825D01*
X13437969Y10237235D01*
X13437971Y10237235D01*
X13522257Y10260214D01*
X13571779Y10273715D01*
X13640101Y10315665D01*
X13689970Y10346284D01*
X13689973Y10346286D01*
X13694539Y10349090D01*
X13704604Y10360209D01*
X13787612Y10451915D01*
X13791210Y10455890D01*
X13796795Y10467416D01*
X13851682Y10580704D01*
X13851682Y10580705D01*
X13854020Y10585530D01*
X13877919Y10727587D01*
X13878071Y10740000D01*
X13877659Y10742880D01*
X13858409Y10877296D01*
X13858408Y10877300D01*
X13857649Y10882599D01*
X13854835Y10888790D01*
X13815766Y10974717D01*
X13805995Y10996207D01*
X21361967Y10996207D01*
X21362661Y10990900D01*
X21362661Y10990897D01*
X21365732Y10967416D01*
X21380645Y10853370D01*
X21438662Y10721516D01*
X21442107Y10717418D01*
X21442108Y10717416D01*
X21495923Y10653396D01*
X21531354Y10611245D01*
X21651270Y10531423D01*
X21788769Y10488465D01*
X21862871Y10487107D01*
X21927436Y10485923D01*
X21927438Y10485923D01*
X21932798Y10485825D01*
X21937969Y10487235D01*
X21937971Y10487235D01*
X22032333Y10512961D01*
X22071779Y10523715D01*
X22124871Y10556314D01*
X22189970Y10596284D01*
X22189973Y10596286D01*
X22194539Y10599090D01*
X22291210Y10705890D01*
X22296795Y10717416D01*
X22351682Y10830704D01*
X22351682Y10830705D01*
X22354020Y10835530D01*
X22377919Y10977587D01*
X22378071Y10990000D01*
X22377183Y10996207D01*
X22359043Y11122864D01*
X22357649Y11132599D01*
X22355430Y11137479D01*
X22354806Y11139614D01*
X22358127Y11190947D01*
X22393666Y11228135D01*
X22422217Y11234531D01*
X22422126Y11235262D01*
X22427437Y11235923D01*
X22432798Y11235825D01*
X22437969Y11237235D01*
X22437971Y11237235D01*
X22470879Y11246207D01*
X25361967Y11246207D01*
X25362661Y11240900D01*
X25362661Y11240897D01*
X25363498Y11234498D01*
X25380645Y11103370D01*
X25438662Y10971516D01*
X25531354Y10861245D01*
X25651270Y10781423D01*
X25788769Y10738465D01*
X25862871Y10737107D01*
X25927436Y10735923D01*
X25927438Y10735923D01*
X25932798Y10735825D01*
X25937969Y10737235D01*
X25937971Y10737235D01*
X26021953Y10760131D01*
X26071779Y10773715D01*
X26164595Y10830704D01*
X26189970Y10846284D01*
X26189973Y10846286D01*
X26194539Y10849090D01*
X26291210Y10955890D01*
X26296795Y10967416D01*
X26351682Y11080704D01*
X26351682Y11080705D01*
X26354020Y11085530D01*
X26377919Y11227587D01*
X26378071Y11240000D01*
X26377659Y11242880D01*
X26358409Y11377296D01*
X26358408Y11377300D01*
X26357649Y11382599D01*
X26298026Y11513734D01*
X26290640Y11522306D01*
X26207487Y11618810D01*
X26207484Y11618813D01*
X26203993Y11622864D01*
X26199502Y11625775D01*
X26087604Y11698303D01*
X26087603Y11698303D01*
X26083111Y11701215D01*
X25994930Y11727587D01*
X25950232Y11740955D01*
X25950229Y11740955D01*
X25945098Y11742490D01*
X25939743Y11742523D01*
X25939741Y11742523D01*
X25874524Y11742921D01*
X25801047Y11743370D01*
X25795897Y11741898D01*
X25795896Y11741898D01*
X25756015Y11730500D01*
X25662539Y11703785D01*
X25658013Y11700929D01*
X25658010Y11700928D01*
X25545237Y11629773D01*
X25540709Y11626916D01*
X25533550Y11618810D01*
X25448897Y11522959D01*
X25448895Y11522956D01*
X25445351Y11518943D01*
X25384129Y11388546D01*
X25361967Y11246207D01*
X22470879Y11246207D01*
X22513695Y11257880D01*
X22571779Y11273715D01*
X22624871Y11306314D01*
X22689970Y11346284D01*
X22689973Y11346286D01*
X22694539Y11349090D01*
X22791210Y11455890D01*
X22805714Y11485825D01*
X22851682Y11580704D01*
X22851682Y11580705D01*
X22854020Y11585530D01*
X22877919Y11727587D01*
X22878071Y11740000D01*
X22877659Y11742880D01*
X22858409Y11877296D01*
X22858408Y11877300D01*
X22857649Y11882599D01*
X22841403Y11918332D01*
X22805995Y11996207D01*
X28726967Y11996207D01*
X28727661Y11990900D01*
X28727661Y11990897D01*
X28728159Y11987091D01*
X28745645Y11853370D01*
X28787580Y11758065D01*
X28794061Y11743337D01*
X28803662Y11721516D01*
X28807107Y11717418D01*
X28807108Y11717416D01*
X28833391Y11686149D01*
X28896354Y11611245D01*
X28942236Y11580704D01*
X28996293Y11544721D01*
X29016270Y11531423D01*
X29153769Y11488465D01*
X29227871Y11487107D01*
X29292436Y11485923D01*
X29292438Y11485923D01*
X29297798Y11485825D01*
X29302969Y11487235D01*
X29302971Y11487235D01*
X29382265Y11508853D01*
X29436779Y11523715D01*
X29529595Y11580704D01*
X29554970Y11596284D01*
X29554973Y11596286D01*
X29559539Y11599090D01*
X29656210Y11705890D01*
X29660777Y11715315D01*
X29716682Y11830704D01*
X29716682Y11830705D01*
X29719020Y11835530D01*
X29742919Y11977587D01*
X29743071Y11990000D01*
X29742659Y11992880D01*
X29742183Y11996207D01*
X31861967Y11996207D01*
X31862661Y11990900D01*
X31862661Y11990897D01*
X31863159Y11987091D01*
X31880645Y11853370D01*
X31922580Y11758065D01*
X31929061Y11743337D01*
X31938662Y11721516D01*
X31942107Y11717418D01*
X31942108Y11717416D01*
X31968391Y11686149D01*
X32031354Y11611245D01*
X32077236Y11580704D01*
X32131293Y11544721D01*
X32151270Y11531423D01*
X32288769Y11488465D01*
X32362871Y11487107D01*
X32427436Y11485923D01*
X32427438Y11485923D01*
X32432798Y11485825D01*
X32437969Y11487235D01*
X32437971Y11487235D01*
X32517265Y11508853D01*
X32571779Y11523715D01*
X32623391Y11555405D01*
X37977841Y11555405D01*
X37979485Y11544721D01*
X37982100Y11542428D01*
X37982249Y11542400D01*
X39704341Y11542400D01*
X39714498Y11546097D01*
X39717600Y11551469D01*
X39717600Y11555659D01*
X40022400Y11555659D01*
X40026097Y11545502D01*
X40031469Y11542400D01*
X41749926Y11542400D01*
X41760083Y11546097D01*
X41761984Y11549389D01*
X41738485Y11686149D01*
X41736710Y11692771D01*
X41665788Y11885012D01*
X41662831Y11891210D01*
X41558069Y12067301D01*
X41554031Y12072859D01*
X41418934Y12226908D01*
X41413949Y12231639D01*
X41253036Y12358492D01*
X41247281Y12362229D01*
X41065941Y12457637D01*
X41059609Y12460260D01*
X40863913Y12521025D01*
X40857203Y12522451D01*
X40690856Y12542139D01*
X40686435Y12542400D01*
X40035659Y12542400D01*
X40025502Y12538703D01*
X40022400Y12533331D01*
X40022400Y11555659D01*
X39717600Y11555659D01*
X39717600Y12529141D01*
X39713903Y12539298D01*
X39708531Y12542400D01*
X39067985Y12542400D01*
X39064571Y12542244D01*
X38912525Y12528272D01*
X38905773Y12527021D01*
X38708564Y12471402D01*
X38702157Y12468943D01*
X38518386Y12378317D01*
X38512528Y12374727D01*
X38348354Y12252133D01*
X38343250Y12247537D01*
X38204161Y12097071D01*
X38199986Y12091631D01*
X38090642Y11918332D01*
X38087528Y11912218D01*
X38011602Y11721910D01*
X38009648Y11715315D01*
X37977841Y11555405D01*
X32623391Y11555405D01*
X32664595Y11580704D01*
X32689970Y11596284D01*
X32689973Y11596286D01*
X32694539Y11599090D01*
X32791210Y11705890D01*
X32795777Y11715315D01*
X32851682Y11830704D01*
X32851682Y11830705D01*
X32854020Y11835530D01*
X32877919Y11977587D01*
X32878071Y11990000D01*
X32877659Y11992880D01*
X32858409Y12127296D01*
X32858408Y12127300D01*
X32857649Y12132599D01*
X32827776Y12198303D01*
X32805390Y12247537D01*
X32798026Y12263734D01*
X32793538Y12268943D01*
X32707487Y12368810D01*
X32707484Y12368813D01*
X32703993Y12372864D01*
X32699502Y12375775D01*
X32587604Y12448303D01*
X32587603Y12448303D01*
X32583111Y12451215D01*
X32506912Y12474003D01*
X32450232Y12490955D01*
X32450229Y12490955D01*
X32445098Y12492490D01*
X32439743Y12492523D01*
X32439741Y12492523D01*
X32374524Y12492921D01*
X32301047Y12493370D01*
X32295897Y12491898D01*
X32295896Y12491898D01*
X32231793Y12473577D01*
X32162539Y12453785D01*
X32158013Y12450929D01*
X32158010Y12450928D01*
X32045237Y12379773D01*
X32040709Y12376916D01*
X32033550Y12368810D01*
X31948897Y12272959D01*
X31948895Y12272956D01*
X31945351Y12268943D01*
X31884129Y12138546D01*
X31883305Y12133256D01*
X31883305Y12133255D01*
X31881693Y12122903D01*
X31861967Y11996207D01*
X29742183Y11996207D01*
X29723409Y12127296D01*
X29723408Y12127300D01*
X29722649Y12132599D01*
X29692776Y12198303D01*
X29670390Y12247537D01*
X29663026Y12263734D01*
X29658538Y12268943D01*
X29572487Y12368810D01*
X29572484Y12368813D01*
X29568993Y12372864D01*
X29564502Y12375775D01*
X29452604Y12448303D01*
X29452603Y12448303D01*
X29448111Y12451215D01*
X29371912Y12474003D01*
X29315232Y12490955D01*
X29315229Y12490955D01*
X29310098Y12492490D01*
X29304743Y12492523D01*
X29304741Y12492523D01*
X29239524Y12492921D01*
X29166047Y12493370D01*
X29160897Y12491898D01*
X29160896Y12491898D01*
X29096793Y12473577D01*
X29027539Y12453785D01*
X29023013Y12450929D01*
X29023010Y12450928D01*
X28910237Y12379773D01*
X28905709Y12376916D01*
X28898550Y12368810D01*
X28813897Y12272959D01*
X28813895Y12272956D01*
X28810351Y12268943D01*
X28749129Y12138546D01*
X28748305Y12133256D01*
X28748305Y12133255D01*
X28746693Y12122903D01*
X28726967Y11996207D01*
X22805995Y11996207D01*
X22800245Y12008853D01*
X22798026Y12013734D01*
X22793538Y12018943D01*
X22707487Y12118810D01*
X22707484Y12118813D01*
X22703993Y12122864D01*
X22699502Y12125775D01*
X22587604Y12198303D01*
X22587603Y12198303D01*
X22583111Y12201215D01*
X22497200Y12226908D01*
X22450232Y12240955D01*
X22450229Y12240955D01*
X22445098Y12242490D01*
X22439743Y12242523D01*
X22439741Y12242523D01*
X22374524Y12242921D01*
X22301047Y12243370D01*
X22295897Y12241898D01*
X22295896Y12241898D01*
X22260000Y12231639D01*
X22162539Y12203785D01*
X22158013Y12200929D01*
X22158010Y12200928D01*
X22050756Y12133255D01*
X22040709Y12126916D01*
X22033550Y12118810D01*
X21948897Y12022959D01*
X21948895Y12022956D01*
X21945351Y12018943D01*
X21884129Y11888546D01*
X21883305Y11883256D01*
X21883305Y11883255D01*
X21875942Y11835963D01*
X21861967Y11746207D01*
X21862661Y11740900D01*
X21862661Y11740897D01*
X21869820Y11686149D01*
X21880645Y11603370D01*
X21882806Y11598459D01*
X21884244Y11593308D01*
X21883044Y11592973D01*
X21886031Y11547455D01*
X21855617Y11505970D01*
X21813377Y11493295D01*
X21809641Y11493317D01*
X21801047Y11493370D01*
X21795897Y11491898D01*
X21795896Y11491898D01*
X21774990Y11485923D01*
X21662539Y11453785D01*
X21658013Y11450929D01*
X21658010Y11450928D01*
X21550756Y11383255D01*
X21540709Y11376916D01*
X21537164Y11372903D01*
X21537165Y11372903D01*
X21448897Y11272959D01*
X21448895Y11272956D01*
X21445351Y11268943D01*
X21443075Y11264095D01*
X21408732Y11190947D01*
X21384129Y11138546D01*
X21383305Y11133256D01*
X21383305Y11133255D01*
X21376139Y11087229D01*
X21361967Y10996207D01*
X13805995Y10996207D01*
X13798026Y11013734D01*
X13793538Y11018943D01*
X13707487Y11118810D01*
X13707484Y11118813D01*
X13703993Y11122864D01*
X13699502Y11125775D01*
X13587604Y11198303D01*
X13587603Y11198303D01*
X13583111Y11201215D01*
X13494930Y11227587D01*
X13450232Y11240955D01*
X13450229Y11240955D01*
X13445098Y11242490D01*
X13439743Y11242523D01*
X13439741Y11242523D01*
X13374524Y11242921D01*
X13301047Y11243370D01*
X13295897Y11241898D01*
X13295896Y11241898D01*
X13272677Y11235262D01*
X13162539Y11203785D01*
X13158013Y11200929D01*
X13158010Y11200928D01*
X13066822Y11143392D01*
X13040709Y11126916D01*
X13033550Y11118810D01*
X12948897Y11022959D01*
X12948895Y11022956D01*
X12945351Y11018943D01*
X12940614Y11008853D01*
X12887154Y10894988D01*
X12884129Y10888546D01*
X12883305Y10883256D01*
X12883305Y10883255D01*
X12875942Y10835963D01*
X12861967Y10746207D01*
X12022900Y10746207D01*
X12022900Y13496207D01*
X19111967Y13496207D01*
X19112661Y13490900D01*
X19112661Y13490897D01*
X19113159Y13487091D01*
X19130645Y13353370D01*
X19188662Y13221516D01*
X19281354Y13111245D01*
X19401270Y13031423D01*
X19538769Y12988465D01*
X19612871Y12987107D01*
X19677436Y12985923D01*
X19677438Y12985923D01*
X19682798Y12985825D01*
X19687969Y12987235D01*
X19687971Y12987235D01*
X19779501Y13012189D01*
X19821779Y13023715D01*
X19914595Y13080704D01*
X19939970Y13096284D01*
X19939973Y13096286D01*
X19944539Y13099090D01*
X20041210Y13205890D01*
X20046795Y13217416D01*
X20060744Y13246207D01*
X20611967Y13246207D01*
X20612661Y13240900D01*
X20612661Y13240897D01*
X20615732Y13217416D01*
X20630645Y13103370D01*
X20688662Y12971516D01*
X20692107Y12967418D01*
X20692108Y12967416D01*
X20701797Y12955890D01*
X20781354Y12861245D01*
X20901270Y12781423D01*
X21038769Y12738465D01*
X21112871Y12737107D01*
X21177436Y12735923D01*
X21177438Y12735923D01*
X21182798Y12735825D01*
X21187969Y12737235D01*
X21187971Y12737235D01*
X21307477Y12769816D01*
X21321779Y12773715D01*
X21374871Y12806314D01*
X21439970Y12846284D01*
X21439973Y12846286D01*
X21444539Y12849090D01*
X21541210Y12955890D01*
X21551127Y12976359D01*
X21588037Y13012189D01*
X21639342Y13015911D01*
X21681036Y12985784D01*
X21683903Y12980598D01*
X21686504Y12976420D01*
X21688662Y12971516D01*
X21692107Y12967418D01*
X21692108Y12967416D01*
X21701797Y12955890D01*
X21781354Y12861245D01*
X21901270Y12781423D01*
X22038769Y12738465D01*
X22112871Y12737107D01*
X22177436Y12735923D01*
X22177438Y12735923D01*
X22182798Y12735825D01*
X22187969Y12737235D01*
X22187971Y12737235D01*
X22307477Y12769816D01*
X22321779Y12773715D01*
X22374871Y12806314D01*
X22439970Y12846284D01*
X22439973Y12846286D01*
X22444539Y12849090D01*
X22485089Y12893889D01*
X37144646Y12893889D01*
X37145920Y12889135D01*
X37163681Y12874019D01*
X37169679Y12869850D01*
X37343423Y12772749D01*
X37350136Y12769816D01*
X37539421Y12708314D01*
X37546569Y12706742D01*
X37744196Y12683176D01*
X37751528Y12683023D01*
X37949964Y12698292D01*
X37957173Y12699563D01*
X38148870Y12753085D01*
X38155703Y12755736D01*
X38333347Y12845470D01*
X38339533Y12849395D01*
X38388335Y12887524D01*
X38394065Y12896693D01*
X38393457Y12901016D01*
X37779377Y13515097D01*
X37769578Y13519666D01*
X37763587Y13518061D01*
X37149215Y12903688D01*
X37144646Y12893889D01*
X22485089Y12893889D01*
X22541210Y12955890D01*
X22546795Y12967416D01*
X22601682Y13080704D01*
X22601682Y13080705D01*
X22604020Y13085530D01*
X22627919Y13227587D01*
X22628071Y13240000D01*
X22627659Y13242880D01*
X22608409Y13377296D01*
X22608408Y13377300D01*
X22607649Y13382599D01*
X22555995Y13496207D01*
X32111967Y13496207D01*
X32112661Y13490900D01*
X32112661Y13490897D01*
X32113159Y13487091D01*
X32130645Y13353370D01*
X32188662Y13221516D01*
X32281354Y13111245D01*
X32401270Y13031423D01*
X32538769Y12988465D01*
X32612871Y12987107D01*
X32677436Y12985923D01*
X32677438Y12985923D01*
X32682798Y12985825D01*
X32687969Y12987235D01*
X32687971Y12987235D01*
X32779501Y13012189D01*
X32821779Y13023715D01*
X32914595Y13080704D01*
X32939970Y13096284D01*
X32939973Y13096286D01*
X32944539Y13099090D01*
X33041210Y13205890D01*
X33046795Y13217416D01*
X33101682Y13330704D01*
X33101682Y13330705D01*
X33104020Y13335530D01*
X33127919Y13477587D01*
X33128071Y13490000D01*
X33127602Y13493276D01*
X33108409Y13627296D01*
X33108408Y13627300D01*
X33107649Y13632599D01*
X33077776Y13698303D01*
X33070242Y13714872D01*
X33053773Y13751094D01*
X36712919Y13751094D01*
X36729573Y13552769D01*
X36730895Y13545567D01*
X36785755Y13354247D01*
X36788451Y13347438D01*
X36879427Y13170420D01*
X36883393Y13164265D01*
X36917313Y13121468D01*
X36926522Y13115803D01*
X36930928Y13116454D01*
X37545097Y13730623D01*
X37549272Y13739578D01*
X37990334Y13739578D01*
X37991939Y13733587D01*
X38606668Y13118859D01*
X38616467Y13114290D01*
X38621317Y13115589D01*
X38631718Y13127640D01*
X38635943Y13133628D01*
X38734249Y13306678D01*
X38737229Y13313373D01*
X38800051Y13502220D01*
X38801674Y13509365D01*
X38826816Y13708384D01*
X38827109Y13712576D01*
X38827463Y13737901D01*
X38827287Y13742093D01*
X38807712Y13941734D01*
X38806288Y13948921D01*
X38805487Y13951575D01*
X39102331Y13951575D01*
X39103302Y13947950D01*
X39238718Y13853131D01*
X39244385Y13849859D01*
X39437039Y13760022D01*
X39443190Y13757783D01*
X39648521Y13702765D01*
X39654963Y13701629D01*
X39866731Y13683102D01*
X39873269Y13683102D01*
X40085037Y13701629D01*
X40091479Y13702765D01*
X40296810Y13757783D01*
X40302961Y13760022D01*
X40495615Y13849859D01*
X40501282Y13853131D01*
X40631615Y13944392D01*
X40637815Y13953245D01*
X40637488Y13956986D01*
X39879377Y14715097D01*
X39869578Y14719666D01*
X39863587Y14718061D01*
X39106900Y13961374D01*
X39102331Y13951575D01*
X38805487Y13951575D01*
X38762948Y14092473D01*
X38765820Y14143833D01*
X38801033Y14181331D01*
X38852111Y14187421D01*
X38878073Y14175807D01*
X38883246Y14172185D01*
X38886986Y14172512D01*
X39645097Y14930623D01*
X39649272Y14939578D01*
X40090334Y14939578D01*
X40091939Y14933587D01*
X40848626Y14176900D01*
X40858425Y14172331D01*
X40862050Y14173302D01*
X40956869Y14308718D01*
X40960141Y14314385D01*
X41049978Y14507039D01*
X41052217Y14513190D01*
X41107235Y14718521D01*
X41108371Y14724963D01*
X41126898Y14936731D01*
X41126898Y14943269D01*
X41108371Y15155037D01*
X41107235Y15161479D01*
X41052217Y15366810D01*
X41049978Y15372961D01*
X40960141Y15565615D01*
X40956869Y15571282D01*
X40865608Y15701615D01*
X40856755Y15707815D01*
X40853014Y15707488D01*
X40094903Y14949377D01*
X40090334Y14939578D01*
X39649272Y14939578D01*
X39649666Y14940422D01*
X39648061Y14946413D01*
X38891374Y15703100D01*
X38881575Y15707669D01*
X38877950Y15706698D01*
X38783131Y15571282D01*
X38779859Y15565615D01*
X38690022Y15372961D01*
X38687783Y15366810D01*
X38632765Y15161479D01*
X38631629Y15155037D01*
X38613102Y14943269D01*
X38613102Y14936731D01*
X38631629Y14724963D01*
X38632765Y14718521D01*
X38687783Y14513190D01*
X38690022Y14507039D01*
X38708022Y14468439D01*
X38712506Y14417195D01*
X38683001Y14375058D01*
X38633314Y14361744D01*
X38621014Y14365717D01*
X38609356Y14363829D01*
X37994903Y13749377D01*
X37990334Y13739578D01*
X37549272Y13739578D01*
X37549666Y13740422D01*
X37548061Y13746413D01*
X36934008Y14360465D01*
X36924209Y14365034D01*
X36919549Y14363786D01*
X36899813Y14340266D01*
X36895677Y14334225D01*
X36799796Y14159817D01*
X36796909Y14153081D01*
X36736730Y13963372D01*
X36735207Y13956207D01*
X36713022Y13758427D01*
X36712919Y13751094D01*
X33053773Y13751094D01*
X33048026Y13763734D01*
X33043538Y13768943D01*
X32957487Y13868810D01*
X32957484Y13868813D01*
X32953993Y13872864D01*
X32949502Y13875775D01*
X32837604Y13948303D01*
X32837603Y13948303D01*
X32833111Y13951215D01*
X32737450Y13979824D01*
X32700232Y13990955D01*
X32700229Y13990955D01*
X32695098Y13992490D01*
X32689743Y13992523D01*
X32689741Y13992523D01*
X32624524Y13992921D01*
X32551047Y13993370D01*
X32545897Y13991898D01*
X32545896Y13991898D01*
X32492085Y13976519D01*
X32412539Y13953785D01*
X32408013Y13950929D01*
X32408010Y13950928D01*
X32295237Y13879773D01*
X32290709Y13876916D01*
X32283550Y13868810D01*
X32198897Y13772959D01*
X32198895Y13772956D01*
X32195351Y13768943D01*
X32134129Y13638546D01*
X32133305Y13633256D01*
X32133305Y13633255D01*
X32131693Y13622903D01*
X32111967Y13496207D01*
X22555995Y13496207D01*
X22548026Y13513734D01*
X22542915Y13519666D01*
X22457487Y13618810D01*
X22457484Y13618813D01*
X22453993Y13622864D01*
X22449502Y13625775D01*
X22337604Y13698303D01*
X22337603Y13698303D01*
X22333111Y13701215D01*
X22256912Y13724003D01*
X22200232Y13740955D01*
X22200229Y13740955D01*
X22195098Y13742490D01*
X22189743Y13742523D01*
X22189741Y13742523D01*
X22124524Y13742921D01*
X22051047Y13743370D01*
X22045897Y13741898D01*
X22045896Y13741898D01*
X22031911Y13737901D01*
X21912539Y13703785D01*
X21908013Y13700929D01*
X21908010Y13700928D01*
X21800756Y13633255D01*
X21790709Y13626916D01*
X21783550Y13618810D01*
X21698897Y13522959D01*
X21698895Y13522956D01*
X21695351Y13518943D01*
X21693075Y13514096D01*
X21693072Y13514091D01*
X21688468Y13504285D01*
X21651998Y13468008D01*
X21600742Y13463660D01*
X21558684Y13493276D01*
X21551946Y13505112D01*
X21548026Y13513734D01*
X21542915Y13519666D01*
X21457487Y13618810D01*
X21457484Y13618813D01*
X21453993Y13622864D01*
X21449502Y13625775D01*
X21337604Y13698303D01*
X21337603Y13698303D01*
X21333111Y13701215D01*
X21256912Y13724003D01*
X21200232Y13740955D01*
X21200229Y13740955D01*
X21195098Y13742490D01*
X21189743Y13742523D01*
X21189741Y13742523D01*
X21124524Y13742921D01*
X21051047Y13743370D01*
X21045897Y13741898D01*
X21045896Y13741898D01*
X21031911Y13737901D01*
X20912539Y13703785D01*
X20908013Y13700929D01*
X20908010Y13700928D01*
X20800756Y13633255D01*
X20790709Y13626916D01*
X20783550Y13618810D01*
X20698897Y13522959D01*
X20698895Y13522956D01*
X20695351Y13518943D01*
X20634129Y13388546D01*
X20633305Y13383256D01*
X20633305Y13383255D01*
X20625942Y13335963D01*
X20611967Y13246207D01*
X20060744Y13246207D01*
X20101682Y13330704D01*
X20101682Y13330705D01*
X20104020Y13335530D01*
X20127919Y13477587D01*
X20128071Y13490000D01*
X20127602Y13493276D01*
X20108409Y13627296D01*
X20108408Y13627300D01*
X20107649Y13632599D01*
X20077776Y13698303D01*
X20070242Y13714872D01*
X20048026Y13763734D01*
X20043538Y13768943D01*
X19957487Y13868810D01*
X19957484Y13868813D01*
X19953993Y13872864D01*
X19949502Y13875775D01*
X19837604Y13948303D01*
X19837603Y13948303D01*
X19833111Y13951215D01*
X19737450Y13979824D01*
X19700232Y13990955D01*
X19700229Y13990955D01*
X19695098Y13992490D01*
X19689743Y13992523D01*
X19689741Y13992523D01*
X19624524Y13992921D01*
X19551047Y13993370D01*
X19545897Y13991898D01*
X19545896Y13991898D01*
X19492085Y13976519D01*
X19412539Y13953785D01*
X19408013Y13950929D01*
X19408010Y13950928D01*
X19295237Y13879773D01*
X19290709Y13876916D01*
X19283550Y13868810D01*
X19198897Y13772959D01*
X19198895Y13772956D01*
X19195351Y13768943D01*
X19134129Y13638546D01*
X19133305Y13633256D01*
X19133305Y13633255D01*
X19131693Y13622903D01*
X19111967Y13496207D01*
X12022900Y13496207D01*
X12022900Y14546207D01*
X15661967Y14546207D01*
X15662661Y14540900D01*
X15662661Y14540897D01*
X15663159Y14537091D01*
X15680645Y14403370D01*
X15738662Y14271516D01*
X15831354Y14161245D01*
X15951270Y14081423D01*
X16088769Y14038465D01*
X16162871Y14037107D01*
X16227436Y14035923D01*
X16227438Y14035923D01*
X16232798Y14035825D01*
X16237969Y14037235D01*
X16237971Y14037235D01*
X16341081Y14065346D01*
X16371779Y14073715D01*
X16424871Y14106314D01*
X16489970Y14146284D01*
X16489973Y14146286D01*
X16494539Y14149090D01*
X16498152Y14153081D01*
X16587612Y14251915D01*
X16591210Y14255890D01*
X16596795Y14267416D01*
X16651682Y14380704D01*
X16651682Y14380705D01*
X16654020Y14385530D01*
X16664228Y14446207D01*
X23361967Y14446207D01*
X23362661Y14440900D01*
X23362661Y14440897D01*
X23369210Y14390816D01*
X23380645Y14303370D01*
X23438662Y14171516D01*
X23442107Y14167418D01*
X23442108Y14167416D01*
X23461932Y14143833D01*
X23531354Y14061245D01*
X23567424Y14037235D01*
X23634595Y13992523D01*
X23651270Y13981423D01*
X23788769Y13938465D01*
X23862871Y13937107D01*
X23927436Y13935923D01*
X23927438Y13935923D01*
X23932798Y13935825D01*
X23937969Y13937235D01*
X23937971Y13937235D01*
X24028584Y13961939D01*
X24071779Y13973715D01*
X24124871Y14006314D01*
X24189970Y14046284D01*
X24189973Y14046286D01*
X24194539Y14049090D01*
X24280297Y14143833D01*
X24287612Y14151915D01*
X24291210Y14155890D01*
X24293805Y14161245D01*
X24351682Y14280704D01*
X24351682Y14280705D01*
X24354020Y14285530D01*
X24377919Y14427587D01*
X24378071Y14440000D01*
X24377659Y14442880D01*
X24377183Y14446207D01*
X24861967Y14446207D01*
X24862661Y14440900D01*
X24862661Y14440897D01*
X24869210Y14390816D01*
X24880645Y14303370D01*
X24938662Y14171516D01*
X24942107Y14167418D01*
X24942108Y14167416D01*
X24961932Y14143833D01*
X25031354Y14061245D01*
X25067424Y14037235D01*
X25134595Y13992523D01*
X25151270Y13981423D01*
X25288769Y13938465D01*
X25362871Y13937107D01*
X25427436Y13935923D01*
X25427438Y13935923D01*
X25432798Y13935825D01*
X25437969Y13937235D01*
X25437971Y13937235D01*
X25528584Y13961939D01*
X25571779Y13973715D01*
X25624871Y14006314D01*
X25689970Y14046284D01*
X25689973Y14046286D01*
X25694539Y14049090D01*
X25780297Y14143833D01*
X25787612Y14151915D01*
X25791210Y14155890D01*
X25853534Y14284527D01*
X25890440Y14320354D01*
X25941745Y14324077D01*
X25983440Y14293951D01*
X25990037Y14282024D01*
X26038662Y14171516D01*
X26042107Y14167418D01*
X26042108Y14167416D01*
X26061932Y14143833D01*
X26131354Y14061245D01*
X26167424Y14037235D01*
X26234595Y13992523D01*
X26251270Y13981423D01*
X26388769Y13938465D01*
X26462871Y13937107D01*
X26527436Y13935923D01*
X26527438Y13935923D01*
X26532798Y13935825D01*
X26537969Y13937235D01*
X26537971Y13937235D01*
X26628584Y13961939D01*
X26671779Y13973715D01*
X26724871Y14006314D01*
X26789970Y14046284D01*
X26789973Y14046286D01*
X26794539Y14049090D01*
X26880297Y14143833D01*
X26887612Y14151915D01*
X26891210Y14155890D01*
X26893805Y14161245D01*
X26951682Y14280704D01*
X26951682Y14280705D01*
X26954020Y14285530D01*
X26977919Y14427587D01*
X26978071Y14440000D01*
X26977659Y14442880D01*
X26958409Y14577296D01*
X26958408Y14577300D01*
X26957649Y14582599D01*
X26948344Y14603066D01*
X26900245Y14708853D01*
X26898026Y14713734D01*
X26894298Y14718061D01*
X26807487Y14818810D01*
X26807484Y14818813D01*
X26803993Y14822864D01*
X26799502Y14825775D01*
X26687604Y14898303D01*
X26687603Y14898303D01*
X26683111Y14901215D01*
X26606912Y14924003D01*
X26550232Y14940955D01*
X26550229Y14940955D01*
X26545098Y14942490D01*
X26539743Y14942523D01*
X26539741Y14942523D01*
X26474524Y14942921D01*
X26401047Y14943370D01*
X26395897Y14941898D01*
X26395896Y14941898D01*
X26377817Y14936731D01*
X26262539Y14903785D01*
X26258013Y14900929D01*
X26258010Y14900928D01*
X26182636Y14853370D01*
X26140709Y14826916D01*
X26133668Y14818943D01*
X26048897Y14722959D01*
X26048895Y14722956D01*
X26045351Y14718943D01*
X26043075Y14714095D01*
X26043073Y14714092D01*
X25987667Y14596082D01*
X25951198Y14559804D01*
X25899942Y14555455D01*
X25857883Y14585070D01*
X25851140Y14596916D01*
X25800245Y14708853D01*
X25798026Y14713734D01*
X25794298Y14718061D01*
X25707487Y14818810D01*
X25707484Y14818813D01*
X25703993Y14822864D01*
X25699502Y14825775D01*
X25587604Y14898303D01*
X25587603Y14898303D01*
X25583111Y14901215D01*
X25506912Y14924003D01*
X25450232Y14940955D01*
X25450229Y14940955D01*
X25445098Y14942490D01*
X25439743Y14942523D01*
X25439741Y14942523D01*
X25374524Y14942921D01*
X25301047Y14943370D01*
X25295897Y14941898D01*
X25295896Y14941898D01*
X25277817Y14936731D01*
X25162539Y14903785D01*
X25158013Y14900929D01*
X25158010Y14900928D01*
X25082636Y14853370D01*
X25040709Y14826916D01*
X25033668Y14818943D01*
X24948897Y14722959D01*
X24948895Y14722956D01*
X24945351Y14718943D01*
X24884129Y14588546D01*
X24883305Y14583256D01*
X24883305Y14583255D01*
X24877537Y14546207D01*
X24861967Y14446207D01*
X24377183Y14446207D01*
X24358409Y14577296D01*
X24358408Y14577300D01*
X24357649Y14582599D01*
X24348344Y14603066D01*
X24300245Y14708853D01*
X24298026Y14713734D01*
X24294298Y14718061D01*
X24207487Y14818810D01*
X24207484Y14818813D01*
X24203993Y14822864D01*
X24199502Y14825775D01*
X24087604Y14898303D01*
X24087603Y14898303D01*
X24083111Y14901215D01*
X24006912Y14924003D01*
X23950232Y14940955D01*
X23950229Y14940955D01*
X23945098Y14942490D01*
X23939743Y14942523D01*
X23939741Y14942523D01*
X23874524Y14942921D01*
X23801047Y14943370D01*
X23795897Y14941898D01*
X23795896Y14941898D01*
X23777817Y14936731D01*
X23662539Y14903785D01*
X23658013Y14900929D01*
X23658010Y14900928D01*
X23582636Y14853370D01*
X23540709Y14826916D01*
X23533668Y14818943D01*
X23448897Y14722959D01*
X23448895Y14722956D01*
X23445351Y14718943D01*
X23384129Y14588546D01*
X23383305Y14583256D01*
X23383305Y14583255D01*
X23377537Y14546207D01*
X23361967Y14446207D01*
X16664228Y14446207D01*
X16677919Y14527587D01*
X16678071Y14540000D01*
X16677183Y14546207D01*
X16666246Y14622570D01*
X16662012Y14652132D01*
X16672574Y14702475D01*
X16713026Y14734250D01*
X16719421Y14735682D01*
X16719420Y14735686D01*
X16858401Y14773576D01*
X16932072Y14818810D01*
X16976592Y14846145D01*
X16976595Y14846147D01*
X16981161Y14848951D01*
X17028209Y14900928D01*
X17074234Y14951776D01*
X17077832Y14955751D01*
X17088412Y14977587D01*
X17138304Y15080565D01*
X17138304Y15080566D01*
X17140642Y15085391D01*
X17164541Y15227448D01*
X17164693Y15239861D01*
X17164281Y15242741D01*
X17145031Y15377157D01*
X17145030Y15377161D01*
X17144271Y15382460D01*
X17084648Y15513595D01*
X17080160Y15518804D01*
X16994109Y15618671D01*
X16994106Y15618674D01*
X16990615Y15622725D01*
X16986124Y15625636D01*
X16874226Y15698164D01*
X16874225Y15698164D01*
X16869733Y15701076D01*
X16771347Y15730500D01*
X16736854Y15740816D01*
X16736851Y15740816D01*
X16731720Y15742351D01*
X16726365Y15742384D01*
X16726363Y15742384D01*
X16661146Y15742782D01*
X16587669Y15743231D01*
X16582519Y15741759D01*
X16582518Y15741759D01*
X16566185Y15737091D01*
X16449161Y15703646D01*
X16444635Y15700790D01*
X16444632Y15700789D01*
X16396068Y15670147D01*
X16327331Y15626777D01*
X16320172Y15618671D01*
X16235519Y15522820D01*
X16235517Y15522817D01*
X16231973Y15518804D01*
X16170751Y15388407D01*
X16169927Y15383117D01*
X16169927Y15383116D01*
X16168346Y15372961D01*
X16148589Y15246068D01*
X16149283Y15240761D01*
X16149283Y15240758D01*
X16164199Y15126692D01*
X16153022Y15076482D01*
X16112184Y15045203D01*
X16103921Y15043352D01*
X16101047Y15043370D01*
X15962539Y15003785D01*
X15958013Y15000929D01*
X15958010Y15000928D01*
X15865392Y14942490D01*
X15840709Y14926916D01*
X15837164Y14922903D01*
X15837165Y14922903D01*
X15748897Y14822959D01*
X15748895Y14822956D01*
X15745351Y14818943D01*
X15724051Y14773576D01*
X15697684Y14717416D01*
X15684129Y14688546D01*
X15661967Y14546207D01*
X12022900Y14546207D01*
X12022900Y15746207D01*
X27361967Y15746207D01*
X27362661Y15740900D01*
X27362661Y15740897D01*
X27367906Y15700789D01*
X27380645Y15603370D01*
X27386169Y15590816D01*
X27429061Y15493337D01*
X27438662Y15471516D01*
X27442107Y15467418D01*
X27442108Y15467416D01*
X27458174Y15448303D01*
X27531354Y15361245D01*
X27651270Y15281423D01*
X27788769Y15238465D01*
X27862871Y15237107D01*
X27927436Y15235923D01*
X27927438Y15235923D01*
X27932798Y15235825D01*
X27937969Y15237235D01*
X27937971Y15237235D01*
X28059041Y15270242D01*
X28110305Y15265982D01*
X28146836Y15229768D01*
X28151543Y15178544D01*
X28146892Y15165730D01*
X28141872Y15155037D01*
X28134129Y15138546D01*
X28111967Y14996207D01*
X28112661Y14990900D01*
X28112661Y14990897D01*
X28118889Y14943269D01*
X28130645Y14853370D01*
X28188662Y14721516D01*
X28192107Y14717418D01*
X28192108Y14717416D01*
X28221375Y14682599D01*
X28281354Y14611245D01*
X28401270Y14531423D01*
X28538769Y14488465D01*
X28612871Y14487107D01*
X28677436Y14485923D01*
X28677438Y14485923D01*
X28682798Y14485825D01*
X28687969Y14487235D01*
X28687971Y14487235D01*
X28783173Y14513190D01*
X28821779Y14523715D01*
X28906458Y14575708D01*
X28919457Y14583689D01*
X37145636Y14583689D01*
X37146331Y14579196D01*
X37760623Y13964903D01*
X37770422Y13960334D01*
X37776413Y13961939D01*
X38390181Y14575708D01*
X38394750Y14585507D01*
X38393526Y14590075D01*
X38364172Y14614360D01*
X38358113Y14618447D01*
X38183027Y14713115D01*
X38176283Y14715950D01*
X37986149Y14774806D01*
X37978982Y14776277D01*
X37781038Y14797082D01*
X37773725Y14797133D01*
X37575504Y14779094D01*
X37568318Y14777723D01*
X37377387Y14721529D01*
X37370600Y14718787D01*
X37194210Y14626573D01*
X37188093Y14622570D01*
X37151235Y14592935D01*
X37145636Y14583689D01*
X28919457Y14583689D01*
X28939970Y14596284D01*
X28939973Y14596286D01*
X28944539Y14599090D01*
X28969416Y14626573D01*
X29037612Y14701915D01*
X29041210Y14705890D01*
X29044711Y14713115D01*
X29101682Y14830704D01*
X29101682Y14830705D01*
X29104020Y14835530D01*
X29127919Y14977587D01*
X29128071Y14990000D01*
X29127659Y14992880D01*
X29108409Y15127296D01*
X29108408Y15127300D01*
X29107649Y15132599D01*
X29092962Y15164903D01*
X29060074Y15237235D01*
X29048026Y15263734D01*
X29043183Y15269355D01*
X28957487Y15368810D01*
X28957484Y15368813D01*
X28953993Y15372864D01*
X28949502Y15375775D01*
X28837604Y15448303D01*
X28837603Y15448303D01*
X28833111Y15451215D01*
X28748180Y15476615D01*
X28700232Y15490955D01*
X28700229Y15490955D01*
X28695098Y15492490D01*
X28689743Y15492523D01*
X28689741Y15492523D01*
X28624524Y15492921D01*
X28551047Y15493370D01*
X28545897Y15491898D01*
X28545896Y15491898D01*
X28432164Y15459394D01*
X28380853Y15463027D01*
X28343882Y15498793D01*
X28338550Y15549956D01*
X28343822Y15564481D01*
X28354020Y15585530D01*
X28377919Y15727587D01*
X28378071Y15740000D01*
X28377613Y15743198D01*
X28358409Y15877296D01*
X28358408Y15877300D01*
X28357649Y15882599D01*
X28336814Y15928425D01*
X28316221Y15973715D01*
X28298026Y16013734D01*
X28293538Y16018943D01*
X28207487Y16118810D01*
X28207484Y16118813D01*
X28203993Y16122864D01*
X28199502Y16125775D01*
X28087604Y16198303D01*
X28087603Y16198303D01*
X28083111Y16201215D01*
X28006912Y16224003D01*
X27950232Y16240955D01*
X27950229Y16240955D01*
X27945098Y16242490D01*
X27939743Y16242523D01*
X27939741Y16242523D01*
X27874524Y16242921D01*
X27801047Y16243370D01*
X27795897Y16241898D01*
X27795896Y16241898D01*
X27789255Y16240000D01*
X27662539Y16203785D01*
X27658013Y16200929D01*
X27658010Y16200928D01*
X27594277Y16160715D01*
X27540709Y16126916D01*
X27536559Y16122217D01*
X27448897Y16022959D01*
X27448895Y16022956D01*
X27445351Y16018943D01*
X27384129Y15888546D01*
X27361967Y15746207D01*
X12022900Y15746207D01*
X12022900Y16446207D01*
X23061967Y16446207D01*
X23062661Y16440900D01*
X23062661Y16440897D01*
X23063159Y16437091D01*
X23080645Y16303370D01*
X23109452Y16237901D01*
X23136146Y16177235D01*
X23138662Y16171516D01*
X23231354Y16061245D01*
X23249732Y16049012D01*
X23320182Y16002117D01*
X23351270Y15981423D01*
X23488769Y15938465D01*
X23562871Y15937107D01*
X23627436Y15935923D01*
X23627438Y15935923D01*
X23632798Y15935825D01*
X23637969Y15937235D01*
X23637971Y15937235D01*
X23713695Y15957880D01*
X23771779Y15973715D01*
X23863678Y16030141D01*
X23889970Y16046284D01*
X23889973Y16046286D01*
X23894539Y16049090D01*
X23991210Y16155890D01*
X23996795Y16167416D01*
X24051682Y16280704D01*
X24051682Y16280705D01*
X24054020Y16285530D01*
X24077919Y16427587D01*
X24078071Y16440000D01*
X24077659Y16442880D01*
X24077183Y16446207D01*
X24461967Y16446207D01*
X24462661Y16440900D01*
X24462661Y16440897D01*
X24463159Y16437091D01*
X24480645Y16303370D01*
X24509452Y16237901D01*
X24536146Y16177235D01*
X24538662Y16171516D01*
X24631354Y16061245D01*
X24649732Y16049012D01*
X24720182Y16002117D01*
X24751270Y15981423D01*
X24888769Y15938465D01*
X24962871Y15937107D01*
X25027436Y15935923D01*
X25027438Y15935923D01*
X25032798Y15935825D01*
X25037969Y15937235D01*
X25037971Y15937235D01*
X25113695Y15957880D01*
X25171779Y15973715D01*
X25263678Y16030141D01*
X25289970Y16046284D01*
X25289973Y16046286D01*
X25294539Y16049090D01*
X25391210Y16155890D01*
X25396795Y16167416D01*
X25439118Y16254772D01*
X36712108Y16254772D01*
X36712416Y16251104D01*
X36712416Y16251101D01*
X36723239Y16122217D01*
X36729386Y16049012D01*
X36786301Y15850526D01*
X36880685Y15666875D01*
X37008942Y15505055D01*
X37011736Y15502677D01*
X37011737Y15502676D01*
X37069184Y15453785D01*
X37166188Y15371228D01*
X37169389Y15369439D01*
X37169392Y15369437D01*
X37189361Y15358277D01*
X37346433Y15270493D01*
X37349934Y15269356D01*
X37349935Y15269355D01*
X37360316Y15265982D01*
X37542811Y15206686D01*
X37614999Y15198078D01*
X37744185Y15182673D01*
X37744187Y15182673D01*
X37747843Y15182237D01*
X37953719Y15198078D01*
X38089264Y15235923D01*
X38149052Y15252616D01*
X38149054Y15252617D01*
X38152597Y15253606D01*
X38336902Y15346705D01*
X38485787Y15463027D01*
X38496715Y15471565D01*
X38499614Y15473830D01*
X38634535Y15630137D01*
X38675140Y15701615D01*
X38734711Y15806478D01*
X38734712Y15806479D01*
X38736527Y15809675D01*
X38775474Y15926755D01*
X39102185Y15926755D01*
X39102512Y15923014D01*
X39860623Y15164903D01*
X39870422Y15160334D01*
X39876413Y15161939D01*
X40633100Y15918626D01*
X40637669Y15928425D01*
X40636698Y15932050D01*
X40501282Y16026869D01*
X40495615Y16030141D01*
X40302961Y16119978D01*
X40296810Y16122217D01*
X40091479Y16177235D01*
X40085037Y16178371D01*
X39873269Y16196898D01*
X39866731Y16196898D01*
X39654963Y16178371D01*
X39648521Y16177235D01*
X39443190Y16122217D01*
X39437039Y16119978D01*
X39244385Y16030141D01*
X39238718Y16026869D01*
X39108385Y15935608D01*
X39102185Y15926755D01*
X38775474Y15926755D01*
X38801703Y16005603D01*
X38808358Y16058277D01*
X38827319Y16208370D01*
X38827583Y16210459D01*
X38827995Y16240000D01*
X38809884Y16424717D01*
X38808206Y16441832D01*
X38808205Y16441837D01*
X38807846Y16445499D01*
X38748165Y16643171D01*
X38651227Y16825485D01*
X38557052Y16940955D01*
X38523045Y16982651D01*
X38523044Y16982652D01*
X38520722Y16985499D01*
X38361623Y17117118D01*
X38343364Y17126991D01*
X38315726Y17141934D01*
X38256689Y17173856D01*
X38222538Y17212322D01*
X38221102Y17263742D01*
X38253053Y17304055D01*
X38258551Y17307127D01*
X38333618Y17345046D01*
X38333619Y17345047D01*
X38336902Y17346705D01*
X38499614Y17473830D01*
X38634535Y17630137D01*
X38680310Y17710715D01*
X38734711Y17806478D01*
X38734712Y17806479D01*
X38736527Y17809675D01*
X38801703Y18005603D01*
X38804602Y18028546D01*
X38827319Y18208370D01*
X38827583Y18210459D01*
X38827995Y18240000D01*
X38826151Y18258810D01*
X38808206Y18441832D01*
X38808205Y18441837D01*
X38807846Y18445499D01*
X38775820Y18551575D01*
X39102331Y18551575D01*
X39103302Y18547950D01*
X39238718Y18453131D01*
X39244385Y18449859D01*
X39437039Y18360022D01*
X39443190Y18357783D01*
X39648521Y18302765D01*
X39654963Y18301629D01*
X39866731Y18283102D01*
X39873269Y18283102D01*
X40085037Y18301629D01*
X40091479Y18302765D01*
X40296810Y18357783D01*
X40302961Y18360022D01*
X40495615Y18449859D01*
X40501282Y18453131D01*
X40631615Y18544392D01*
X40637815Y18553245D01*
X40637488Y18556986D01*
X39879377Y19315097D01*
X39869578Y19319666D01*
X39863587Y19318061D01*
X39106900Y18561374D01*
X39102331Y18551575D01*
X38775820Y18551575D01*
X38748165Y18643171D01*
X38651227Y18825485D01*
X38628733Y18853066D01*
X38523045Y18982651D01*
X38523044Y18982652D01*
X38520722Y18985499D01*
X38361623Y19117118D01*
X38179990Y19215327D01*
X37982739Y19276386D01*
X37854065Y19289910D01*
X37781041Y19297585D01*
X37781039Y19297585D01*
X37777386Y19297969D01*
X37571752Y19279255D01*
X37477438Y19251497D01*
X37377197Y19221995D01*
X37377194Y19221994D01*
X37373668Y19220956D01*
X37370411Y19219253D01*
X37370408Y19219252D01*
X37359557Y19213579D01*
X37190681Y19125292D01*
X37187815Y19122987D01*
X37187814Y19122987D01*
X37157309Y19098460D01*
X37029760Y18995909D01*
X36897034Y18837732D01*
X36797559Y18656789D01*
X36735125Y18459970D01*
X36712108Y18254772D01*
X36712416Y18251104D01*
X36712416Y18251101D01*
X36725036Y18100813D01*
X36729386Y18049012D01*
X36786301Y17850526D01*
X36880685Y17666875D01*
X37008942Y17505055D01*
X37011736Y17502677D01*
X37011737Y17502676D01*
X37103719Y17424393D01*
X37166188Y17371228D01*
X37169389Y17369439D01*
X37169392Y17369437D01*
X37283988Y17305392D01*
X37317600Y17266452D01*
X37318318Y17215017D01*
X37282143Y17173108D01*
X37190681Y17125292D01*
X37187815Y17122987D01*
X37187814Y17122987D01*
X37180515Y17117118D01*
X37029760Y16995909D01*
X36897034Y16837732D01*
X36895263Y16834510D01*
X36895262Y16834509D01*
X36890301Y16825485D01*
X36797559Y16656789D01*
X36735125Y16459970D01*
X36712108Y16254772D01*
X25439118Y16254772D01*
X25451682Y16280704D01*
X25451682Y16280705D01*
X25454020Y16285530D01*
X25477919Y16427587D01*
X25478071Y16440000D01*
X25477659Y16442880D01*
X25458409Y16577296D01*
X25458408Y16577300D01*
X25457649Y16582599D01*
X25398026Y16713734D01*
X25393538Y16718943D01*
X25307487Y16818810D01*
X25307484Y16818813D01*
X25303993Y16822864D01*
X25299502Y16825775D01*
X25187604Y16898303D01*
X25187603Y16898303D01*
X25183111Y16901215D01*
X25106912Y16924003D01*
X25050232Y16940955D01*
X25050229Y16940955D01*
X25045098Y16942490D01*
X25039743Y16942523D01*
X25039741Y16942523D01*
X24974524Y16942921D01*
X24901047Y16943370D01*
X24895897Y16941898D01*
X24895896Y16941898D01*
X24831793Y16923577D01*
X24762539Y16903785D01*
X24758013Y16900929D01*
X24758010Y16900928D01*
X24662313Y16840547D01*
X24640709Y16826916D01*
X24636581Y16822242D01*
X24548897Y16722959D01*
X24548895Y16722956D01*
X24545351Y16718943D01*
X24540614Y16708853D01*
X24508123Y16639650D01*
X24484129Y16588546D01*
X24461967Y16446207D01*
X24077183Y16446207D01*
X24058409Y16577296D01*
X24058408Y16577300D01*
X24057649Y16582599D01*
X23998026Y16713734D01*
X23993538Y16718943D01*
X23907487Y16818810D01*
X23907484Y16818813D01*
X23903993Y16822864D01*
X23899502Y16825775D01*
X23787604Y16898303D01*
X23787603Y16898303D01*
X23783111Y16901215D01*
X23706912Y16924003D01*
X23650232Y16940955D01*
X23650229Y16940955D01*
X23645098Y16942490D01*
X23639743Y16942523D01*
X23639741Y16942523D01*
X23574524Y16942921D01*
X23501047Y16943370D01*
X23495897Y16941898D01*
X23495896Y16941898D01*
X23431793Y16923577D01*
X23362539Y16903785D01*
X23358013Y16900929D01*
X23358010Y16900928D01*
X23262313Y16840547D01*
X23240709Y16826916D01*
X23236581Y16822242D01*
X23148897Y16722959D01*
X23148895Y16722956D01*
X23145351Y16718943D01*
X23140614Y16708853D01*
X23108123Y16639650D01*
X23084129Y16588546D01*
X23061967Y16446207D01*
X12022900Y16446207D01*
X12022900Y17996207D01*
X15634369Y17996207D01*
X15635063Y17990900D01*
X15635063Y17990897D01*
X15635561Y17987091D01*
X15653047Y17853370D01*
X15711064Y17721516D01*
X15714509Y17717418D01*
X15714510Y17717416D01*
X15742063Y17684638D01*
X15803756Y17611245D01*
X15923672Y17531423D01*
X16061171Y17488465D01*
X16135273Y17487107D01*
X16199838Y17485923D01*
X16199840Y17485923D01*
X16205200Y17485825D01*
X16210371Y17487235D01*
X16210373Y17487235D01*
X16286292Y17507933D01*
X16344181Y17523715D01*
X16397273Y17556314D01*
X16462372Y17596284D01*
X16462375Y17596286D01*
X16466941Y17599090D01*
X16495044Y17630137D01*
X16560014Y17701915D01*
X16563612Y17705890D01*
X16569197Y17717416D01*
X16624084Y17830704D01*
X16624084Y17830705D01*
X16626422Y17835530D01*
X16634948Y17886207D01*
X31091967Y17886207D01*
X31092661Y17880900D01*
X31092661Y17880897D01*
X31098594Y17835530D01*
X31110645Y17743370D01*
X31136488Y17684638D01*
X31160469Y17630137D01*
X31168662Y17611516D01*
X31172107Y17607418D01*
X31172108Y17607416D01*
X31181797Y17595890D01*
X31261354Y17501245D01*
X31381270Y17421423D01*
X31518769Y17378465D01*
X31592871Y17377107D01*
X31657436Y17375923D01*
X31657438Y17375923D01*
X31662798Y17375825D01*
X31667969Y17377235D01*
X31667971Y17377235D01*
X31743695Y17397880D01*
X31801779Y17413715D01*
X31904222Y17476615D01*
X31919970Y17486284D01*
X31919973Y17486286D01*
X31924539Y17489090D01*
X31936837Y17502676D01*
X32017612Y17591915D01*
X32021210Y17595890D01*
X32046850Y17648811D01*
X32083756Y17684638D01*
X32135061Y17688361D01*
X32176756Y17658235D01*
X32183352Y17646310D01*
X32198662Y17611516D01*
X32202107Y17607418D01*
X32202108Y17607416D01*
X32211797Y17595890D01*
X32291354Y17501245D01*
X32411270Y17421423D01*
X32548769Y17378465D01*
X32622871Y17377107D01*
X32687436Y17375923D01*
X32687438Y17375923D01*
X32692798Y17375825D01*
X32697969Y17377235D01*
X32697971Y17377235D01*
X32773695Y17397880D01*
X32831779Y17413715D01*
X32934222Y17476615D01*
X32949970Y17486284D01*
X32949973Y17486286D01*
X32954539Y17489090D01*
X32966837Y17502676D01*
X33047612Y17591915D01*
X33051210Y17595890D01*
X33056795Y17607416D01*
X33111682Y17720704D01*
X33111682Y17720705D01*
X33114020Y17725530D01*
X33137919Y17867587D01*
X33138071Y17880000D01*
X33137659Y17882880D01*
X33118409Y18017296D01*
X33118408Y18017300D01*
X33117649Y18022599D01*
X33058026Y18153734D01*
X33053538Y18158943D01*
X32967487Y18258810D01*
X32967484Y18258813D01*
X32963993Y18262864D01*
X32959502Y18265775D01*
X32847604Y18338303D01*
X32847603Y18338303D01*
X32843111Y18341215D01*
X32766912Y18364003D01*
X32710232Y18380955D01*
X32710229Y18380955D01*
X32705098Y18382490D01*
X32699743Y18382523D01*
X32699741Y18382523D01*
X32634524Y18382921D01*
X32561047Y18383370D01*
X32555897Y18381898D01*
X32555896Y18381898D01*
X32491793Y18363577D01*
X32422539Y18343785D01*
X32418013Y18340929D01*
X32418010Y18340928D01*
X32305237Y18269773D01*
X32300709Y18266916D01*
X32293588Y18258853D01*
X32208897Y18162959D01*
X32208895Y18162956D01*
X32205351Y18158943D01*
X32203075Y18154096D01*
X32203074Y18154094D01*
X32183228Y18111824D01*
X32146759Y18075546D01*
X32095503Y18071198D01*
X32053444Y18100813D01*
X32046705Y18112651D01*
X32028026Y18153734D01*
X32023538Y18158943D01*
X31937487Y18258810D01*
X31937484Y18258813D01*
X31933993Y18262864D01*
X31929502Y18265775D01*
X31817604Y18338303D01*
X31817603Y18338303D01*
X31813111Y18341215D01*
X31736912Y18364003D01*
X31680232Y18380955D01*
X31680229Y18380955D01*
X31675098Y18382490D01*
X31669743Y18382523D01*
X31669741Y18382523D01*
X31604524Y18382921D01*
X31531047Y18383370D01*
X31525897Y18381898D01*
X31525896Y18381898D01*
X31461793Y18363577D01*
X31392539Y18343785D01*
X31388013Y18340929D01*
X31388010Y18340928D01*
X31275237Y18269773D01*
X31270709Y18266916D01*
X31263588Y18258853D01*
X31178897Y18162959D01*
X31178895Y18162956D01*
X31175351Y18158943D01*
X31170615Y18148856D01*
X31125460Y18052679D01*
X31114129Y18028546D01*
X31113305Y18023256D01*
X31113305Y18023255D01*
X31106648Y17980500D01*
X31091967Y17886207D01*
X16634948Y17886207D01*
X16650321Y17977587D01*
X16650473Y17990000D01*
X16650061Y17992880D01*
X16630811Y18127296D01*
X16630810Y18127300D01*
X16630051Y18132599D01*
X16622660Y18148856D01*
X16572647Y18258853D01*
X16570428Y18263734D01*
X16565940Y18268943D01*
X16479889Y18368810D01*
X16479886Y18368813D01*
X16476395Y18372864D01*
X16471904Y18375775D01*
X16360006Y18448303D01*
X16360005Y18448303D01*
X16355513Y18451215D01*
X16279314Y18474003D01*
X16222634Y18490955D01*
X16222631Y18490955D01*
X16217500Y18492490D01*
X16212145Y18492523D01*
X16212143Y18492523D01*
X16146926Y18492921D01*
X16073449Y18493370D01*
X16068299Y18491898D01*
X16068298Y18491898D01*
X16004195Y18473578D01*
X15934941Y18453785D01*
X15930415Y18450929D01*
X15930412Y18450928D01*
X15821945Y18382490D01*
X15813111Y18376916D01*
X15805952Y18368810D01*
X15721299Y18272959D01*
X15721297Y18272956D01*
X15717753Y18268943D01*
X15714917Y18262903D01*
X15661372Y18148856D01*
X15656531Y18138546D01*
X15655707Y18133256D01*
X15655707Y18133255D01*
X15652370Y18111824D01*
X15634369Y17996207D01*
X12022900Y17996207D01*
X12022900Y19246207D01*
X27761967Y19246207D01*
X27762661Y19240900D01*
X27762661Y19240897D01*
X27770784Y19178780D01*
X27780645Y19103370D01*
X27838662Y18971516D01*
X27931354Y18861245D01*
X28051270Y18781423D01*
X28188769Y18738465D01*
X28262871Y18737107D01*
X28327436Y18735923D01*
X28327438Y18735923D01*
X28332798Y18735825D01*
X28337969Y18737235D01*
X28337971Y18737235D01*
X28413695Y18757880D01*
X28471779Y18773715D01*
X28556095Y18825485D01*
X28589970Y18846284D01*
X28589973Y18846286D01*
X28594539Y18849090D01*
X28691210Y18955890D01*
X28696795Y18967416D01*
X28751682Y19080704D01*
X28751682Y19080705D01*
X28754020Y19085530D01*
X28777919Y19227587D01*
X28778071Y19240000D01*
X28777659Y19242880D01*
X28758409Y19377296D01*
X28758408Y19377300D01*
X28757649Y19382599D01*
X28728694Y19446284D01*
X28700245Y19508853D01*
X28698026Y19513734D01*
X28693538Y19518943D01*
X28607487Y19618810D01*
X28607484Y19618813D01*
X28603993Y19622864D01*
X28599502Y19625775D01*
X28487604Y19698303D01*
X28487603Y19698303D01*
X28483111Y19701215D01*
X28406912Y19724003D01*
X28350232Y19740955D01*
X28350229Y19740955D01*
X28345098Y19742490D01*
X28339743Y19742523D01*
X28339741Y19742523D01*
X28274524Y19742921D01*
X28201047Y19743370D01*
X28195897Y19741898D01*
X28195896Y19741898D01*
X28131793Y19723578D01*
X28062539Y19703785D01*
X28058013Y19700929D01*
X28058010Y19700928D01*
X27945237Y19629773D01*
X27940709Y19626916D01*
X27933550Y19618810D01*
X27848897Y19522959D01*
X27848895Y19522956D01*
X27845351Y19518943D01*
X27784129Y19388546D01*
X27761967Y19246207D01*
X12022900Y19246207D01*
X12022900Y19846207D01*
X26161967Y19846207D01*
X26162661Y19840900D01*
X26162661Y19840897D01*
X26163159Y19837091D01*
X26180645Y19703370D01*
X26238662Y19571516D01*
X26242107Y19567418D01*
X26242108Y19567416D01*
X26270544Y19533587D01*
X26331354Y19461245D01*
X26353830Y19446284D01*
X26442177Y19387476D01*
X26451270Y19381423D01*
X26588769Y19338465D01*
X26662871Y19337107D01*
X26727436Y19335923D01*
X26727438Y19335923D01*
X26732798Y19335825D01*
X26737969Y19337235D01*
X26737971Y19337235D01*
X26813695Y19357880D01*
X26871779Y19373715D01*
X26924871Y19406314D01*
X26989970Y19446284D01*
X26989973Y19446286D01*
X26994539Y19449090D01*
X27091210Y19555890D01*
X27096795Y19567416D01*
X27151682Y19680704D01*
X27151682Y19680705D01*
X27154020Y19685530D01*
X27177919Y19827587D01*
X27178071Y19840000D01*
X27177659Y19842880D01*
X27158409Y19977296D01*
X27158408Y19977300D01*
X27157649Y19982599D01*
X27146131Y20007933D01*
X27100245Y20108853D01*
X27098026Y20113734D01*
X27093538Y20118943D01*
X27007487Y20218810D01*
X27007484Y20218813D01*
X27003993Y20222864D01*
X26999502Y20225775D01*
X26887604Y20298303D01*
X26887603Y20298303D01*
X26883111Y20301215D01*
X26806912Y20324003D01*
X26750232Y20340955D01*
X26750229Y20340955D01*
X26745098Y20342490D01*
X26739743Y20342523D01*
X26739741Y20342523D01*
X26674524Y20342921D01*
X26601047Y20343370D01*
X26595897Y20341898D01*
X26595896Y20341898D01*
X26531793Y20323577D01*
X26462539Y20303785D01*
X26458013Y20300929D01*
X26458010Y20300928D01*
X26354984Y20235923D01*
X26340709Y20226916D01*
X26323732Y20207693D01*
X26248897Y20122959D01*
X26248895Y20122956D01*
X26245351Y20118943D01*
X26228905Y20083915D01*
X26188261Y19997346D01*
X26184129Y19988546D01*
X26161967Y19846207D01*
X12022900Y19846207D01*
X12022900Y20746207D01*
X21861967Y20746207D01*
X21862661Y20740900D01*
X21862661Y20740897D01*
X21866915Y20708370D01*
X21880645Y20603370D01*
X21938662Y20471516D01*
X22031354Y20361245D01*
X22060419Y20341898D01*
X22128359Y20296674D01*
X22151270Y20281423D01*
X22288769Y20238465D01*
X22362871Y20237107D01*
X22427436Y20235923D01*
X22427438Y20235923D01*
X22432798Y20235825D01*
X22437969Y20237235D01*
X22437971Y20237235D01*
X22513695Y20257880D01*
X22571779Y20273715D01*
X22627316Y20307815D01*
X22689970Y20346284D01*
X22689973Y20346286D01*
X22694539Y20349090D01*
X22699040Y20354062D01*
X22720895Y20378207D01*
X32536967Y20378207D01*
X32537661Y20372900D01*
X32537661Y20372897D01*
X32541715Y20341898D01*
X32555645Y20235370D01*
X32586338Y20165615D01*
X32611314Y20108853D01*
X32613662Y20103516D01*
X32706354Y19993245D01*
X32826270Y19913423D01*
X32963769Y19870465D01*
X33037871Y19869107D01*
X33102436Y19867923D01*
X33102438Y19867923D01*
X33107798Y19867825D01*
X33112969Y19869235D01*
X33112971Y19869235D01*
X33188695Y19889880D01*
X33246779Y19905715D01*
X33299871Y19938314D01*
X33364970Y19978284D01*
X33364973Y19978286D01*
X33369539Y19981090D01*
X33466210Y20087890D01*
X33471795Y20099416D01*
X33526682Y20212704D01*
X33526682Y20212705D01*
X33529020Y20217530D01*
X33552919Y20359587D01*
X33553071Y20372000D01*
X33552659Y20374880D01*
X33552183Y20378207D01*
X33806967Y20378207D01*
X33807661Y20372900D01*
X33807661Y20372897D01*
X33811715Y20341898D01*
X33825645Y20235370D01*
X33856338Y20165615D01*
X33881314Y20108853D01*
X33883662Y20103516D01*
X33976354Y19993245D01*
X34096270Y19913423D01*
X34233769Y19870465D01*
X34307871Y19869107D01*
X34372436Y19867923D01*
X34372438Y19867923D01*
X34377798Y19867825D01*
X34382969Y19869235D01*
X34382971Y19869235D01*
X34458695Y19889880D01*
X34516779Y19905715D01*
X34569871Y19938314D01*
X34634970Y19978284D01*
X34634973Y19978286D01*
X34639539Y19981090D01*
X34736210Y20087890D01*
X34741795Y20099416D01*
X34796682Y20212704D01*
X34796682Y20212705D01*
X34799020Y20217530D01*
X34822919Y20359587D01*
X34823071Y20372000D01*
X34822659Y20374880D01*
X34803409Y20509296D01*
X34803408Y20509300D01*
X34802649Y20514599D01*
X34787003Y20549012D01*
X34751603Y20626869D01*
X34743026Y20645734D01*
X34738538Y20650943D01*
X34652487Y20750810D01*
X34652484Y20750813D01*
X34649072Y20754772D01*
X36712108Y20754772D01*
X36712416Y20751104D01*
X36712416Y20751101D01*
X36726725Y20580704D01*
X36729386Y20549012D01*
X36751608Y20471516D01*
X36782868Y20362500D01*
X36786301Y20350526D01*
X36880685Y20166875D01*
X37008942Y20005055D01*
X37011736Y20002677D01*
X37011737Y20002676D01*
X37113119Y19916393D01*
X37166188Y19871228D01*
X37169389Y19869439D01*
X37169392Y19869437D01*
X37244275Y19827587D01*
X37346433Y19770493D01*
X37349934Y19769356D01*
X37349935Y19769355D01*
X37374175Y19761479D01*
X37542811Y19706686D01*
X37614999Y19698078D01*
X37744185Y19682673D01*
X37744187Y19682673D01*
X37747843Y19682237D01*
X37953719Y19698078D01*
X38073757Y19731593D01*
X38149052Y19752616D01*
X38149054Y19752617D01*
X38152597Y19753606D01*
X38299055Y19827587D01*
X38333618Y19845046D01*
X38333619Y19845047D01*
X38336902Y19846705D01*
X38499614Y19973830D01*
X38561667Y20045719D01*
X38606570Y20070815D01*
X38657099Y20061176D01*
X38689610Y20021313D01*
X38689257Y19970859D01*
X38687783Y19966810D01*
X38632765Y19761479D01*
X38631629Y19755037D01*
X38613102Y19543269D01*
X38613102Y19536731D01*
X38631629Y19324963D01*
X38632765Y19318521D01*
X38687783Y19113190D01*
X38690022Y19107039D01*
X38779859Y18914385D01*
X38783131Y18908718D01*
X38874392Y18778385D01*
X38883245Y18772185D01*
X38886986Y18772512D01*
X39645097Y19530623D01*
X39649272Y19539578D01*
X40090334Y19539578D01*
X40091939Y19533587D01*
X40848626Y18776900D01*
X40858425Y18772331D01*
X40862050Y18773302D01*
X40956869Y18908718D01*
X40960141Y18914385D01*
X41049978Y19107039D01*
X41052217Y19113190D01*
X41107235Y19318521D01*
X41108371Y19324963D01*
X41126898Y19536731D01*
X41126898Y19543269D01*
X41108371Y19755037D01*
X41107235Y19761479D01*
X41052217Y19966810D01*
X41049978Y19972961D01*
X40960141Y20165615D01*
X40956869Y20171282D01*
X40865608Y20301615D01*
X40856755Y20307815D01*
X40853014Y20307488D01*
X40094903Y19549377D01*
X40090334Y19539578D01*
X39649272Y19539578D01*
X39649666Y19540422D01*
X39648061Y19546413D01*
X38891374Y20303100D01*
X38881575Y20307669D01*
X38858328Y20301440D01*
X38857753Y20303587D01*
X38842929Y20296674D01*
X38793242Y20309988D01*
X38763737Y20352125D01*
X38765019Y20395324D01*
X38800543Y20502114D01*
X38800544Y20502120D01*
X38801703Y20505603D01*
X38802840Y20514599D01*
X38804376Y20526755D01*
X39102185Y20526755D01*
X39102512Y20523014D01*
X39860623Y19764903D01*
X39870422Y19760334D01*
X39876413Y19761939D01*
X40633100Y20518626D01*
X40637669Y20528425D01*
X40636698Y20532050D01*
X40501282Y20626869D01*
X40495615Y20630141D01*
X40302961Y20719978D01*
X40296810Y20722217D01*
X40091479Y20777235D01*
X40085037Y20778371D01*
X39873269Y20796898D01*
X39866731Y20796898D01*
X39654963Y20778371D01*
X39648521Y20777235D01*
X39443190Y20722217D01*
X39437039Y20719978D01*
X39244385Y20630141D01*
X39238718Y20626869D01*
X39108385Y20535608D01*
X39102185Y20526755D01*
X38804376Y20526755D01*
X38827319Y20708370D01*
X38827583Y20710459D01*
X38827863Y20730500D01*
X38827966Y20737901D01*
X38827966Y20737906D01*
X38827995Y20740000D01*
X38827713Y20742880D01*
X38808206Y20941832D01*
X38808205Y20941837D01*
X38807846Y20945499D01*
X38748165Y21143171D01*
X38651227Y21325485D01*
X38646971Y21330704D01*
X38523045Y21482651D01*
X38523044Y21482652D01*
X38520722Y21485499D01*
X38361623Y21617118D01*
X38342800Y21627296D01*
X38302740Y21648956D01*
X38179990Y21715327D01*
X37982739Y21776386D01*
X37854065Y21789910D01*
X37781041Y21797585D01*
X37781039Y21797585D01*
X37777386Y21797969D01*
X37571752Y21779255D01*
X37502432Y21758853D01*
X37377197Y21721995D01*
X37377194Y21721994D01*
X37373668Y21720956D01*
X37370411Y21719253D01*
X37370408Y21719252D01*
X37194514Y21627296D01*
X37190681Y21625292D01*
X37187815Y21622987D01*
X37187814Y21622987D01*
X37180515Y21617118D01*
X37029760Y21495909D01*
X36897034Y21337732D01*
X36797559Y21156789D01*
X36735125Y20959970D01*
X36712108Y20754772D01*
X34649072Y20754772D01*
X34648993Y20754864D01*
X34643485Y20758434D01*
X34532604Y20830303D01*
X34532603Y20830303D01*
X34528111Y20833215D01*
X34451912Y20856003D01*
X34395232Y20872955D01*
X34395229Y20872955D01*
X34390098Y20874490D01*
X34384743Y20874523D01*
X34384741Y20874523D01*
X34319524Y20874921D01*
X34246047Y20875370D01*
X34240897Y20873898D01*
X34240896Y20873898D01*
X34176793Y20855578D01*
X34107539Y20835785D01*
X34103013Y20832929D01*
X34103010Y20832928D01*
X34016543Y20778371D01*
X33985709Y20758916D01*
X33982049Y20754772D01*
X33893897Y20654959D01*
X33893895Y20654956D01*
X33890351Y20650943D01*
X33885614Y20640853D01*
X33836201Y20535608D01*
X33829129Y20520546D01*
X33806967Y20378207D01*
X33552183Y20378207D01*
X33533409Y20509296D01*
X33533408Y20509300D01*
X33532649Y20514599D01*
X33517003Y20549012D01*
X33481603Y20626869D01*
X33473026Y20645734D01*
X33468538Y20650943D01*
X33382487Y20750810D01*
X33382484Y20750813D01*
X33378993Y20754864D01*
X33373485Y20758434D01*
X33262604Y20830303D01*
X33262603Y20830303D01*
X33258111Y20833215D01*
X33181912Y20856003D01*
X33125232Y20872955D01*
X33125229Y20872955D01*
X33120098Y20874490D01*
X33114743Y20874523D01*
X33114741Y20874523D01*
X33049524Y20874921D01*
X32976047Y20875370D01*
X32970897Y20873898D01*
X32970896Y20873898D01*
X32906793Y20855578D01*
X32837539Y20835785D01*
X32833013Y20832929D01*
X32833010Y20832928D01*
X32746543Y20778371D01*
X32715709Y20758916D01*
X32712049Y20754772D01*
X32623897Y20654959D01*
X32623895Y20654956D01*
X32620351Y20650943D01*
X32615614Y20640853D01*
X32566201Y20535608D01*
X32559129Y20520546D01*
X32536967Y20378207D01*
X22720895Y20378207D01*
X22787612Y20451915D01*
X22791210Y20455890D01*
X22796795Y20467416D01*
X22851682Y20580704D01*
X22851682Y20580705D01*
X22854020Y20585530D01*
X22877919Y20727587D01*
X22878071Y20740000D01*
X22877659Y20742880D01*
X22858409Y20877296D01*
X22858408Y20877300D01*
X22857649Y20882599D01*
X22798026Y21013734D01*
X22790640Y21022306D01*
X22707487Y21118810D01*
X22707484Y21118813D01*
X22703993Y21122864D01*
X22699502Y21125775D01*
X22587604Y21198303D01*
X22587603Y21198303D01*
X22583111Y21201215D01*
X22498832Y21226420D01*
X22450232Y21240955D01*
X22450229Y21240955D01*
X22445098Y21242490D01*
X22439743Y21242523D01*
X22439741Y21242523D01*
X22374524Y21242921D01*
X22301047Y21243370D01*
X22295897Y21241898D01*
X22295896Y21241898D01*
X22241739Y21226420D01*
X22162539Y21203785D01*
X22158013Y21200929D01*
X22158010Y21200928D01*
X22060891Y21139650D01*
X22040709Y21126916D01*
X22033550Y21118810D01*
X21948897Y21022959D01*
X21948895Y21022956D01*
X21945351Y21018943D01*
X21884129Y20888546D01*
X21883305Y20883256D01*
X21883305Y20883255D01*
X21876143Y20837257D01*
X21861967Y20746207D01*
X12022900Y20746207D01*
X12022900Y21496207D01*
X14861967Y21496207D01*
X14862661Y21490900D01*
X14862661Y21490897D01*
X14864021Y21480500D01*
X14880645Y21353370D01*
X14891663Y21328330D01*
X14929061Y21243337D01*
X14938662Y21221516D01*
X14942107Y21217418D01*
X14942108Y21217416D01*
X14955968Y21200928D01*
X15031354Y21111245D01*
X15151270Y21031423D01*
X15288769Y20988465D01*
X15362871Y20987107D01*
X15427436Y20985923D01*
X15427438Y20985923D01*
X15432798Y20985825D01*
X15437969Y20987235D01*
X15437971Y20987235D01*
X15517265Y21008853D01*
X15571779Y21023715D01*
X15624871Y21056314D01*
X15689970Y21096284D01*
X15689973Y21096286D01*
X15694539Y21099090D01*
X15791210Y21205890D01*
X15796795Y21217416D01*
X15851682Y21330704D01*
X15851682Y21330705D01*
X15854020Y21335530D01*
X15877919Y21477587D01*
X15878071Y21490000D01*
X15877225Y21495909D01*
X15858409Y21627296D01*
X15858408Y21627300D01*
X15857649Y21632599D01*
X15798026Y21763734D01*
X15793538Y21768943D01*
X15707487Y21868810D01*
X15707484Y21868813D01*
X15703993Y21872864D01*
X15699504Y21875773D01*
X15699499Y21875778D01*
X15620172Y21927194D01*
X15589178Y21968248D01*
X15591825Y22019620D01*
X15621725Y22054382D01*
X15689970Y22096284D01*
X15689973Y22096286D01*
X15694539Y22099090D01*
X15791210Y22205890D01*
X15796795Y22217416D01*
X15851682Y22330704D01*
X15851682Y22330705D01*
X15854020Y22335530D01*
X15877919Y22477587D01*
X15878071Y22490000D01*
X15877659Y22492880D01*
X15858409Y22627296D01*
X15858408Y22627300D01*
X15857649Y22632599D01*
X15805995Y22746207D01*
X24861967Y22746207D01*
X24862661Y22740900D01*
X24862661Y22740897D01*
X24863159Y22737091D01*
X24880645Y22603370D01*
X24938662Y22471516D01*
X25031354Y22361245D01*
X25151270Y22281423D01*
X25288769Y22238465D01*
X25362871Y22237107D01*
X25427436Y22235923D01*
X25427438Y22235923D01*
X25432798Y22235825D01*
X25437969Y22237235D01*
X25437971Y22237235D01*
X25513695Y22257880D01*
X25571779Y22273715D01*
X25664595Y22330704D01*
X25689970Y22346284D01*
X25689973Y22346286D01*
X25694539Y22349090D01*
X25791210Y22455890D01*
X25796795Y22467416D01*
X25851682Y22580704D01*
X25851682Y22580705D01*
X25854020Y22585530D01*
X25877919Y22727587D01*
X25878071Y22740000D01*
X25877659Y22742880D01*
X25877183Y22746207D01*
X28361967Y22746207D01*
X28362661Y22740900D01*
X28362661Y22740897D01*
X28363159Y22737091D01*
X28380645Y22603370D01*
X28438662Y22471516D01*
X28531354Y22361245D01*
X28651270Y22281423D01*
X28788769Y22238465D01*
X28862871Y22237107D01*
X28927436Y22235923D01*
X28927438Y22235923D01*
X28932798Y22235825D01*
X28937969Y22237235D01*
X28937971Y22237235D01*
X29013695Y22257880D01*
X29071779Y22273715D01*
X29164595Y22330704D01*
X29189970Y22346284D01*
X29189973Y22346286D01*
X29194539Y22349090D01*
X29291210Y22455890D01*
X29296795Y22467416D01*
X29351682Y22580704D01*
X29351682Y22580705D01*
X29354020Y22585530D01*
X29377919Y22727587D01*
X29378071Y22740000D01*
X29377659Y22742880D01*
X29377183Y22746207D01*
X30361967Y22746207D01*
X30362661Y22740900D01*
X30362661Y22740897D01*
X30363159Y22737091D01*
X30380645Y22603370D01*
X30438662Y22471516D01*
X30531354Y22361245D01*
X30651270Y22281423D01*
X30788769Y22238465D01*
X30862871Y22237107D01*
X30927436Y22235923D01*
X30927438Y22235923D01*
X30932798Y22235825D01*
X30937969Y22237235D01*
X30937971Y22237235D01*
X31013695Y22257880D01*
X31071779Y22273715D01*
X31164595Y22330704D01*
X31189970Y22346284D01*
X31189973Y22346286D01*
X31194539Y22349090D01*
X31291210Y22455890D01*
X31296795Y22467416D01*
X31351682Y22580704D01*
X31351682Y22580705D01*
X31354020Y22585530D01*
X31377919Y22727587D01*
X31378071Y22740000D01*
X31377659Y22742880D01*
X31358409Y22877296D01*
X31358408Y22877300D01*
X31357649Y22882599D01*
X31335820Y22930611D01*
X37978016Y22930611D01*
X38001515Y22793851D01*
X38003290Y22787229D01*
X38074212Y22594988D01*
X38077169Y22588790D01*
X38181931Y22412699D01*
X38185969Y22407141D01*
X38321066Y22253092D01*
X38326051Y22248361D01*
X38486964Y22121508D01*
X38492719Y22117771D01*
X38674059Y22022363D01*
X38680391Y22019740D01*
X38876087Y21958975D01*
X38882797Y21957549D01*
X39049144Y21937861D01*
X39053565Y21937600D01*
X39704341Y21937600D01*
X39714498Y21941297D01*
X39717600Y21946669D01*
X39717600Y21950859D01*
X40022400Y21950859D01*
X40026097Y21940702D01*
X40031469Y21937600D01*
X40672015Y21937600D01*
X40675429Y21937756D01*
X40827475Y21951728D01*
X40834227Y21952979D01*
X41031436Y22008598D01*
X41037843Y22011057D01*
X41221614Y22101683D01*
X41227472Y22105273D01*
X41391646Y22227867D01*
X41396750Y22232463D01*
X41535839Y22382929D01*
X41540014Y22388369D01*
X41649358Y22561668D01*
X41652472Y22567782D01*
X41728398Y22758090D01*
X41730352Y22764685D01*
X41762159Y22924595D01*
X41760515Y22935279D01*
X41757900Y22937572D01*
X41757751Y22937600D01*
X40035659Y22937600D01*
X40025502Y22933903D01*
X40022400Y22928531D01*
X40022400Y21950859D01*
X39717600Y21950859D01*
X39717600Y22924341D01*
X39713903Y22934498D01*
X39708531Y22937600D01*
X37990074Y22937600D01*
X37979917Y22933903D01*
X37978016Y22930611D01*
X31335820Y22930611D01*
X31300245Y23008853D01*
X31298026Y23013734D01*
X31293538Y23018943D01*
X31207487Y23118810D01*
X31207484Y23118813D01*
X31203993Y23122864D01*
X31199502Y23125775D01*
X31087604Y23198303D01*
X31087603Y23198303D01*
X31083111Y23201215D01*
X31006912Y23224003D01*
X30950232Y23240955D01*
X30950229Y23240955D01*
X30945098Y23242490D01*
X30939743Y23242523D01*
X30939741Y23242523D01*
X30874524Y23242921D01*
X30801047Y23243370D01*
X30795897Y23241898D01*
X30795896Y23241898D01*
X30731793Y23223578D01*
X30662539Y23203785D01*
X30658013Y23200929D01*
X30658010Y23200928D01*
X30545237Y23129773D01*
X30540709Y23126916D01*
X30533550Y23118810D01*
X30448897Y23022959D01*
X30448895Y23022956D01*
X30445351Y23018943D01*
X30384129Y22888546D01*
X30383305Y22883256D01*
X30383305Y22883255D01*
X30381693Y22872903D01*
X30361967Y22746207D01*
X29377183Y22746207D01*
X29358409Y22877296D01*
X29358408Y22877300D01*
X29357649Y22882599D01*
X29335820Y22930611D01*
X29300245Y23008853D01*
X29298026Y23013734D01*
X29293538Y23018943D01*
X29207487Y23118810D01*
X29207484Y23118813D01*
X29203993Y23122864D01*
X29199502Y23125775D01*
X29087604Y23198303D01*
X29087603Y23198303D01*
X29083111Y23201215D01*
X29006912Y23224003D01*
X28950232Y23240955D01*
X28950229Y23240955D01*
X28945098Y23242490D01*
X28939743Y23242523D01*
X28939741Y23242523D01*
X28874524Y23242921D01*
X28801047Y23243370D01*
X28795897Y23241898D01*
X28795896Y23241898D01*
X28731793Y23223578D01*
X28662539Y23203785D01*
X28658013Y23200929D01*
X28658010Y23200928D01*
X28545237Y23129773D01*
X28540709Y23126916D01*
X28533550Y23118810D01*
X28448897Y23022959D01*
X28448895Y23022956D01*
X28445351Y23018943D01*
X28384129Y22888546D01*
X28383305Y22883256D01*
X28383305Y22883255D01*
X28381693Y22872903D01*
X28361967Y22746207D01*
X25877183Y22746207D01*
X25858409Y22877296D01*
X25858408Y22877300D01*
X25857649Y22882599D01*
X25835820Y22930611D01*
X25800245Y23008853D01*
X25798026Y23013734D01*
X25793538Y23018943D01*
X25707487Y23118810D01*
X25707484Y23118813D01*
X25703993Y23122864D01*
X25699502Y23125775D01*
X25587604Y23198303D01*
X25587603Y23198303D01*
X25583111Y23201215D01*
X25506912Y23224003D01*
X25450232Y23240955D01*
X25450229Y23240955D01*
X25445098Y23242490D01*
X25439743Y23242523D01*
X25439741Y23242523D01*
X25374524Y23242921D01*
X25301047Y23243370D01*
X25295897Y23241898D01*
X25295896Y23241898D01*
X25231793Y23223578D01*
X25162539Y23203785D01*
X25158013Y23200929D01*
X25158010Y23200928D01*
X25045237Y23129773D01*
X25040709Y23126916D01*
X25033550Y23118810D01*
X24948897Y23022959D01*
X24948895Y23022956D01*
X24945351Y23018943D01*
X24884129Y22888546D01*
X24883305Y22883256D01*
X24883305Y22883255D01*
X24881693Y22872903D01*
X24861967Y22746207D01*
X15805995Y22746207D01*
X15798026Y22763734D01*
X15793538Y22768943D01*
X15707487Y22868810D01*
X15707484Y22868813D01*
X15703993Y22872864D01*
X15699502Y22875775D01*
X15587604Y22948303D01*
X15587603Y22948303D01*
X15583111Y22951215D01*
X15506912Y22974003D01*
X15450232Y22990955D01*
X15450229Y22990955D01*
X15445098Y22992490D01*
X15439743Y22992523D01*
X15439741Y22992523D01*
X15374524Y22992921D01*
X15301047Y22993370D01*
X15295897Y22991898D01*
X15295896Y22991898D01*
X15231793Y22973577D01*
X15162539Y22953785D01*
X15158013Y22950929D01*
X15158010Y22950928D01*
X15050756Y22883255D01*
X15040709Y22876916D01*
X15033550Y22868810D01*
X14948897Y22772959D01*
X14948895Y22772956D01*
X14945351Y22768943D01*
X14884129Y22638546D01*
X14883305Y22633256D01*
X14883305Y22633255D01*
X14876382Y22588790D01*
X14861967Y22496207D01*
X14862661Y22490900D01*
X14862661Y22490897D01*
X14865732Y22467416D01*
X14880645Y22353370D01*
X14910996Y22284393D01*
X14935868Y22227867D01*
X14938662Y22221516D01*
X15031354Y22111245D01*
X15053830Y22096284D01*
X15120051Y22052204D01*
X15150541Y22010774D01*
X15147266Y21959438D01*
X15118510Y21926005D01*
X15040709Y21876916D01*
X15033550Y21868810D01*
X14948897Y21772959D01*
X14948895Y21772956D01*
X14945351Y21768943D01*
X14884129Y21638546D01*
X14861967Y21496207D01*
X12022900Y21496207D01*
X12022900Y24511900D01*
X12040493Y24560238D01*
X12085042Y24585958D01*
X12098100Y24587100D01*
X13000701Y24587100D01*
X13049039Y24569507D01*
G37*
G04 #@! TD.AperFunction*
G04 #@! TD*
M02*
