M48
; DRILL file {KiCad 6.0.7+dfsg-3} date Tue 18 Oct 2022 10:38:02 +08
; FORMAT={-:-/ absolute / metric / decimal}
; #@! TF.CreationDate,2022-10-18T10:38:02+08:00
; #@! TF.GenerationSoftware,Kicad,Pcbnew,6.0.7+dfsg-3
; #@! TF.FileFunction,Plated,1,4,PTH
FMAT,2
METRIC
; #@! TA.AperFunction,Plated,PTH,ViaDrill
T1C0.350
; #@! TA.AperFunction,Plated,PTH,ComponentDrill
T2C1.000
; #@! TA.AperFunction,Plated,PTH,ComponentDrill
T3C1.200
%
G90
G05
T1
X13.36Y24.055
X13.37Y10.74
X15.37Y22.49
X15.37Y21.49
X15.97Y13.54
X16.142Y17.99
X16.17Y14.54
X16.657Y15.24
X17.87Y10.49
X18.62Y19.74
X18.62Y15.99
X19.62Y13.49
X21.12Y13.24
X21.87Y10.99
X22.12Y13.24
X22.37Y21.99
X22.37Y20.74
X22.37Y11.74
X23.57Y16.44
X23.87Y14.44
X24.12Y19.49
X24.27Y17.14
X24.97Y16.44
X25.37Y22.74
X25.37Y19.49
X25.37Y14.44
X25.87Y11.24
X26.47Y14.44
X26.67Y19.84
X26.695Y10.49
X27.87Y15.74
X28.27Y19.24
X28.62Y14.99
X28.87Y22.74
X29.235Y11.99
X30.87Y22.74
X31.6Y17.88
X32.37Y11.99
X32.41Y10.72
X32.62Y13.49
X32.63Y17.88
X33.045Y20.372
X34.315Y20.372
X34.798Y17.476
X35.07Y21.259
X36.22Y22.277
X37.37Y23.24
X41.87Y21.24
X41.87Y17.24
X41.87Y13.04
T2
X37.77Y20.74
X37.77Y18.24
X37.77Y16.24
X37.77Y13.74
T3
X39.87Y19.54
X39.87Y14.94
T2
G00X39.12Y23.09
M15
G01X40.62Y23.09
M16
G05
G00X39.12Y11.39
M15
G01X40.62Y11.39
M16
G05
T0
M30
