G04 #@! TF.GenerationSoftware,KiCad,Pcbnew,6.0.7+dfsg-3*
G04 #@! TF.CreationDate,2022-10-18T10:37:57+08:00*
G04 #@! TF.ProjectId,stlink,73746c69-6e6b-42e6-9b69-6361645f7063,e*
G04 #@! TF.SameCoordinates,PX5ca1610PY6645a40*
G04 #@! TF.FileFunction,Copper,L2,Inr*
G04 #@! TF.FilePolarity,Positive*
%FSLAX46Y46*%
G04 Gerber Fmt 4.6, Leading zero omitted, Abs format (unit mm)*
G04 Created by KiCad (PCBNEW 6.0.7+dfsg-3) date 2022-10-18 10:37:57*
%MOMM*%
%LPD*%
G01*
G04 APERTURE LIST*
G04 #@! TA.AperFunction,ComponentPad*
%ADD10C,1.800000*%
G04 #@! TD*
G04 #@! TA.AperFunction,ComponentPad*
%ADD11O,3.500000X2.000000*%
G04 #@! TD*
G04 #@! TA.AperFunction,ComponentPad*
%ADD12C,2.200000*%
G04 #@! TD*
G04 #@! TA.AperFunction,ViaPad*
%ADD13C,0.700000*%
G04 #@! TD*
G04 #@! TA.AperFunction,Conductor*
%ADD14C,0.381000*%
G04 #@! TD*
G04 APERTURE END LIST*
D10*
G04 #@! TO.N,VBUS*
G04 #@! TO.C,J1*
X37770000Y20740000D03*
G04 #@! TO.N,D-*
X37770000Y18240000D03*
G04 #@! TO.N,D+*
X37770000Y16240000D03*
G04 #@! TO.N,GND*
X37770000Y13740000D03*
D11*
X39870000Y11390000D03*
X39870000Y23090000D03*
D12*
X39870000Y14940000D03*
X39870000Y19540000D03*
G04 #@! TD*
D13*
G04 #@! TO.N,GND*
X36220000Y22277000D03*
X41870000Y21240000D03*
X41870000Y17240000D03*
X37370000Y23240000D03*
X24270000Y17140000D03*
X41870000Y13040000D03*
X15970000Y13540000D03*
X17870000Y10490000D03*
X26695000Y10490000D03*
X25370000Y19490000D03*
X34797600Y17476400D03*
X32410000Y10720000D03*
X18620000Y15990000D03*
X22370000Y21990000D03*
X35069941Y21258606D03*
X24120000Y19490000D03*
X18620000Y19740000D03*
G04 #@! TO.N,+5V*
X13360000Y24055000D03*
X30870000Y22740000D03*
G04 #@! TO.N,+3V3*
X34315000Y20372000D03*
X16656622Y15239861D03*
X32620000Y13490000D03*
X15370000Y21490000D03*
X23570000Y16440000D03*
X22370000Y20740000D03*
X33045000Y20372000D03*
X22370000Y11740000D03*
X29235000Y11990000D03*
X15370000Y22490000D03*
G04 #@! TO.N,D-*
X31600000Y17880000D03*
G04 #@! TO.N,D+*
X32630000Y17880000D03*
G04 #@! TO.N,LED*
X19620000Y13490000D03*
X26470000Y14440000D03*
G04 #@! TO.N,T_DIO*
X16142402Y17990000D03*
X27870000Y15740000D03*
G04 #@! TO.N,T_CLK*
X28620000Y14990000D03*
G04 #@! TO.N,CLK*
X28870000Y22740000D03*
G04 #@! TO.N,T_RX*
X22120000Y13240000D03*
X13370000Y10740000D03*
G04 #@! TO.N,T_TX*
X21120000Y13240000D03*
G04 #@! TO.N,T_RST*
X16170000Y14540000D03*
X25370000Y14440000D03*
G04 #@! TO.N,T_SWO*
X24970000Y16440000D03*
G04 #@! TO.N,DIO*
X28270000Y19240000D03*
G04 #@! TO.N,B0*
X25370000Y22740000D03*
G04 #@! TO.N,RENUM*
X32370000Y11990000D03*
X26670000Y19840000D03*
G04 #@! TO.N,Net-(R10-Pad1)*
X23870000Y14440000D03*
X21870000Y10990000D03*
G04 #@! TO.N,Net-(JP1-Pad2)*
X25870000Y11240000D03*
G04 #@! TD*
D14*
G04 #@! TO.N,+5V*
X13360000Y24055000D02*
X14024999Y23390001D01*
X29620000Y23990000D02*
X30870000Y22740000D01*
X22270001Y23390001D02*
X22870000Y23990000D01*
X22870000Y23990000D02*
X29620000Y23990000D01*
X14024997Y23390003D02*
X22269990Y23390003D01*
G04 #@! TD*
G04 #@! TA.AperFunction,Conductor*
G04 #@! TO.N,+3V3*
G36*
X13049039Y24569507D02*
G01*
X13074759Y24524958D01*
X13065826Y24474300D01*
X13040828Y24448301D01*
X13035239Y24444775D01*
X13035235Y24444772D01*
X13030709Y24441916D01*
X13023550Y24433810D01*
X12938897Y24337959D01*
X12938895Y24337956D01*
X12935351Y24333943D01*
X12931822Y24326427D01*
X12883236Y24222942D01*
X12874129Y24203546D01*
X12873305Y24198256D01*
X12873305Y24198255D01*
X12873203Y24197599D01*
X12851967Y24061207D01*
X12852661Y24055900D01*
X12852661Y24055897D01*
X12854402Y24042587D01*
X12870645Y23918370D01*
X12928662Y23786516D01*
X12932107Y23782418D01*
X12932108Y23782416D01*
X12973308Y23733403D01*
X13021354Y23676245D01*
X13141270Y23596423D01*
X13146388Y23594824D01*
X13273656Y23555062D01*
X13273659Y23555062D01*
X13278769Y23553465D01*
X13311813Y23552859D01*
X13347370Y23552207D01*
X13399165Y23530194D01*
X13769257Y23160102D01*
X13773690Y23155265D01*
X13800859Y23122886D01*
X13837387Y23101797D01*
X13837461Y23101754D01*
X13842993Y23098229D01*
X13872244Y23077747D01*
X13872246Y23077746D01*
X13877633Y23073974D01*
X13883987Y23072271D01*
X13887063Y23070837D01*
X13896838Y23066789D01*
X13900040Y23065624D01*
X13905736Y23062335D01*
X13912211Y23061193D01*
X13912212Y23061193D01*
X13947353Y23054997D01*
X13953759Y23053577D01*
X13994609Y23042631D01*
X14001161Y23043204D01*
X14001163Y23043204D01*
X14036743Y23046317D01*
X14043297Y23046603D01*
X22251708Y23046603D01*
X22258262Y23046317D01*
X22293838Y23043204D01*
X22293840Y23043204D01*
X22300392Y23042631D01*
X22341268Y23053584D01*
X22347674Y23055004D01*
X22368550Y23058685D01*
X22389251Y23062335D01*
X22394946Y23065623D01*
X22398210Y23066811D01*
X22408002Y23070868D01*
X22411011Y23072271D01*
X22417367Y23073974D01*
X22452070Y23098273D01*
X22457601Y23101797D01*
X22494128Y23122886D01*
X22521231Y23155186D01*
X22525663Y23160022D01*
X22990215Y23624574D01*
X23036835Y23646314D01*
X23043389Y23646600D01*
X29446611Y23646600D01*
X29494949Y23629007D01*
X29499785Y23624574D01*
X30341456Y22782903D01*
X30362847Y22739480D01*
X30380645Y22603370D01*
X30405953Y22545853D01*
X30429061Y22493337D01*
X30438662Y22471516D01*
X30442107Y22467418D01*
X30442108Y22467416D01*
X30486760Y22414296D01*
X30531354Y22361245D01*
X30651270Y22281423D01*
X30788769Y22238465D01*
X30862871Y22237107D01*
X30927436Y22235923D01*
X30927438Y22235923D01*
X30932798Y22235825D01*
X30937969Y22237235D01*
X30937971Y22237235D01*
X31027770Y22261717D01*
X31071779Y22273715D01*
X31087238Y22283207D01*
X35711967Y22283207D01*
X35712661Y22277900D01*
X35712661Y22277897D01*
X35718150Y22235923D01*
X35730645Y22140370D01*
X35788662Y22008516D01*
X35792107Y22004418D01*
X35792108Y22004416D01*
X35836812Y21951234D01*
X35881354Y21898245D01*
X36001270Y21818423D01*
X36138769Y21775465D01*
X36212871Y21774107D01*
X36277436Y21772923D01*
X36277438Y21772923D01*
X36282798Y21772825D01*
X36287969Y21774235D01*
X36287971Y21774235D01*
X36373805Y21797636D01*
X36421779Y21810715D01*
X36483253Y21848460D01*
X36539970Y21883284D01*
X36539973Y21883286D01*
X36544539Y21886090D01*
X36641210Y21992890D01*
X36646795Y22004416D01*
X36701682Y22117704D01*
X36701682Y22117705D01*
X36704020Y22122530D01*
X36727919Y22264587D01*
X36727959Y22267794D01*
X36727992Y22270568D01*
X36728071Y22277000D01*
X36727438Y22281423D01*
X36708409Y22414296D01*
X36708408Y22414300D01*
X36707649Y22419599D01*
X36691437Y22455257D01*
X36650245Y22545853D01*
X36648026Y22550734D01*
X36643538Y22555943D01*
X36557487Y22655810D01*
X36557484Y22655813D01*
X36553993Y22659864D01*
X36549502Y22662775D01*
X36437604Y22735303D01*
X36437603Y22735303D01*
X36433111Y22738215D01*
X36356402Y22761156D01*
X36300232Y22777955D01*
X36300229Y22777955D01*
X36295098Y22779490D01*
X36289743Y22779523D01*
X36289741Y22779523D01*
X36224524Y22779921D01*
X36151047Y22780370D01*
X36145897Y22778898D01*
X36145896Y22778898D01*
X36137572Y22776519D01*
X36012539Y22740785D01*
X36008013Y22737929D01*
X36008010Y22737928D01*
X35895237Y22666773D01*
X35890709Y22663916D01*
X35883550Y22655810D01*
X35798897Y22559959D01*
X35798895Y22559956D01*
X35795351Y22555943D01*
X35790614Y22545853D01*
X35744814Y22448303D01*
X35734129Y22425546D01*
X35711967Y22283207D01*
X31087238Y22283207D01*
X31124871Y22306314D01*
X31189970Y22346284D01*
X31189973Y22346286D01*
X31194539Y22349090D01*
X31291210Y22455890D01*
X31296795Y22467416D01*
X31351682Y22580704D01*
X31351682Y22580705D01*
X31354020Y22585530D01*
X31377919Y22727587D01*
X31378071Y22740000D01*
X31377659Y22742880D01*
X31358409Y22877296D01*
X31358408Y22877300D01*
X31357649Y22882599D01*
X31298026Y23013734D01*
X31290167Y23022855D01*
X31207487Y23118810D01*
X31207484Y23118813D01*
X31203993Y23122864D01*
X31199502Y23125775D01*
X31087604Y23198303D01*
X31087603Y23198303D01*
X31083111Y23201215D01*
X30994930Y23227587D01*
X30950232Y23240955D01*
X30950229Y23240955D01*
X30945098Y23242490D01*
X30939743Y23242523D01*
X30939741Y23242523D01*
X30916827Y23242663D01*
X30883464Y23242866D01*
X30835236Y23260754D01*
X30830750Y23264891D01*
X29875740Y24219901D01*
X29871307Y24224738D01*
X29853433Y24246039D01*
X29844138Y24257117D01*
X29838444Y24260405D01*
X29838441Y24260407D01*
X29807529Y24278255D01*
X29802000Y24281778D01*
X29772757Y24302253D01*
X29772754Y24302254D01*
X29767366Y24306027D01*
X29761015Y24307729D01*
X29757935Y24309165D01*
X29748160Y24313213D01*
X29744960Y24314378D01*
X29739261Y24317668D01*
X29712002Y24322475D01*
X29697637Y24325008D01*
X29691235Y24326427D01*
X29656747Y24335667D01*
X29650391Y24337370D01*
X29643839Y24336797D01*
X29643837Y24336797D01*
X29608284Y24333686D01*
X29601730Y24333400D01*
X22888270Y24333400D01*
X22881716Y24333686D01*
X22846163Y24336797D01*
X22846161Y24336797D01*
X22839609Y24337370D01*
X22833253Y24335667D01*
X22798765Y24326427D01*
X22792363Y24325008D01*
X22777998Y24322475D01*
X22750739Y24317668D01*
X22745040Y24314378D01*
X22741840Y24313213D01*
X22732065Y24309165D01*
X22728985Y24307729D01*
X22722634Y24306027D01*
X22717246Y24302254D01*
X22717243Y24302253D01*
X22688000Y24281778D01*
X22682471Y24278255D01*
X22651559Y24260407D01*
X22651556Y24260405D01*
X22645862Y24257117D01*
X22641636Y24252081D01*
X22641634Y24252079D01*
X22618691Y24224736D01*
X22614259Y24219900D01*
X22149788Y23755429D01*
X22103168Y23733689D01*
X22096614Y23733403D01*
X20426442Y23733403D01*
X20378104Y23750996D01*
X20352384Y23795545D01*
X20361317Y23846203D01*
X20392302Y23875607D01*
X20454494Y23907295D01*
X20454495Y23907296D01*
X20459771Y23909984D01*
X20550016Y24000229D01*
X20560709Y24021214D01*
X20601421Y24101117D01*
X20607957Y24113945D01*
X20614719Y24156637D01*
X20639658Y24201627D01*
X20687681Y24220061D01*
X20736318Y24203313D01*
X20742167Y24198046D01*
X20780229Y24159984D01*
X20785505Y24157296D01*
X20785506Y24157295D01*
X20827652Y24135821D01*
X20893945Y24102043D01*
X20899792Y24101117D01*
X20985374Y24087562D01*
X20985376Y24087562D01*
X20988292Y24087100D01*
X21051708Y24087100D01*
X21054624Y24087562D01*
X21054626Y24087562D01*
X21140208Y24101117D01*
X21146055Y24102043D01*
X21212348Y24135821D01*
X21254494Y24157295D01*
X21254495Y24157296D01*
X21259771Y24159984D01*
X21350016Y24250229D01*
X21407957Y24363945D01*
X21427922Y24490000D01*
X21426316Y24500139D01*
X21436133Y24550633D01*
X21476111Y24583004D01*
X21500591Y24587100D01*
X35739409Y24587100D01*
X35787747Y24569507D01*
X35813467Y24524958D01*
X35813684Y24500140D01*
X35812078Y24490000D01*
X35832043Y24363945D01*
X35889984Y24250229D01*
X35980229Y24159984D01*
X35985505Y24157296D01*
X35985506Y24157295D01*
X36027652Y24135821D01*
X36093945Y24102043D01*
X36099792Y24101117D01*
X36185374Y24087562D01*
X36185376Y24087562D01*
X36188292Y24087100D01*
X36251708Y24087100D01*
X36254624Y24087562D01*
X36254626Y24087562D01*
X36340208Y24101117D01*
X36346055Y24102043D01*
X36412348Y24135821D01*
X36454494Y24157295D01*
X36454495Y24157296D01*
X36459771Y24159984D01*
X36497833Y24198046D01*
X36544453Y24219786D01*
X36594140Y24206472D01*
X36623645Y24164335D01*
X36625281Y24156637D01*
X36632043Y24113945D01*
X36638579Y24101117D01*
X36679292Y24021214D01*
X36689984Y24000229D01*
X36780229Y23909984D01*
X36893945Y23852043D01*
X36904660Y23850346D01*
X36985374Y23837562D01*
X36985376Y23837562D01*
X36988292Y23837100D01*
X37051708Y23837100D01*
X37054624Y23837562D01*
X37054626Y23837562D01*
X37109182Y23846203D01*
X37127182Y23849054D01*
X37142079Y23846158D01*
X37144998Y23850477D01*
X37155006Y23856604D01*
X37254494Y23907295D01*
X37254495Y23907296D01*
X37259771Y23909984D01*
X37316826Y23967039D01*
X37363446Y23988779D01*
X37413133Y23975465D01*
X37423174Y23967039D01*
X37480229Y23909984D01*
X37485505Y23907296D01*
X37485506Y23907295D01*
X37586167Y23856006D01*
X37592043Y23849705D01*
X37593529Y23850346D01*
X37609690Y23849549D01*
X37685374Y23837562D01*
X37685376Y23837562D01*
X37688292Y23837100D01*
X37751708Y23837100D01*
X37754624Y23837562D01*
X37754626Y23837562D01*
X37835340Y23850346D01*
X37846055Y23852043D01*
X37959771Y23909984D01*
X38050016Y24000229D01*
X38060709Y24021214D01*
X38101421Y24101117D01*
X38107957Y24113945D01*
X38114719Y24156637D01*
X38139658Y24201627D01*
X38187681Y24220061D01*
X38236318Y24203313D01*
X38242167Y24198046D01*
X38280229Y24159984D01*
X38285505Y24157296D01*
X38285506Y24157295D01*
X38377928Y24110204D01*
X38413010Y24072583D01*
X38415702Y24021214D01*
X38388782Y23982946D01*
X38345254Y23950442D01*
X38201425Y23794848D01*
X38199590Y23791939D01*
X38199588Y23791937D01*
X38196168Y23786516D01*
X38088358Y23615648D01*
X38009841Y23418844D01*
X38009168Y23415460D01*
X38009167Y23415457D01*
X38003457Y23386751D01*
X37976771Y23342774D01*
X37928061Y23326240D01*
X37880119Y23344884D01*
X37858106Y23379405D01*
X37857649Y23382599D01*
X37798026Y23513734D01*
X37793538Y23518943D01*
X37707487Y23618810D01*
X37707484Y23618813D01*
X37703993Y23622864D01*
X37699502Y23625775D01*
X37587604Y23698303D01*
X37587603Y23698303D01*
X37583111Y23701215D01*
X37576381Y23703228D01*
X37575456Y23703916D01*
X37573116Y23704997D01*
X37573343Y23705488D01*
X37557020Y23717631D01*
X37542862Y23714363D01*
X37530480Y23716955D01*
X37529344Y23717295D01*
X37488764Y23729431D01*
X37450232Y23740955D01*
X37450229Y23740955D01*
X37445098Y23742490D01*
X37439743Y23742523D01*
X37439741Y23742523D01*
X37374524Y23742921D01*
X37301047Y23743370D01*
X37295897Y23741898D01*
X37295896Y23741898D01*
X37209810Y23717295D01*
X37184184Y23719109D01*
X37175404Y23709009D01*
X37169651Y23706134D01*
X37167692Y23705258D01*
X37162539Y23703785D01*
X37040709Y23626916D01*
X37027930Y23612446D01*
X36948897Y23522959D01*
X36948895Y23522956D01*
X36945351Y23518943D01*
X36884129Y23388546D01*
X36861967Y23246207D01*
X36862661Y23240900D01*
X36862661Y23240897D01*
X36864402Y23227587D01*
X36880645Y23103370D01*
X36916027Y23022959D01*
X36927994Y22995762D01*
X36938662Y22971516D01*
X37031354Y22861245D01*
X37053830Y22846284D01*
X37137891Y22790329D01*
X37151270Y22781423D01*
X37288769Y22738465D01*
X37362871Y22737107D01*
X37427436Y22735923D01*
X37427438Y22735923D01*
X37432798Y22735825D01*
X37437969Y22737235D01*
X37437971Y22737235D01*
X37538132Y22764542D01*
X37571779Y22773715D01*
X37624871Y22806314D01*
X37689970Y22846284D01*
X37689973Y22846286D01*
X37694539Y22849090D01*
X37791210Y22955890D01*
X37796795Y22967416D01*
X37823654Y23022855D01*
X37860562Y23058685D01*
X37911867Y23062408D01*
X37953562Y23032282D01*
X37965211Y22999068D01*
X37965730Y22999157D01*
X37966313Y22995766D01*
X37966313Y22995762D01*
X37984736Y22888546D01*
X38001613Y22790329D01*
X38074952Y22591537D01*
X38183289Y22409439D01*
X38185563Y22406846D01*
X38310752Y22264095D01*
X38322996Y22250133D01*
X38325702Y22247999D01*
X38325705Y22247997D01*
X38486691Y22121087D01*
X38486694Y22121085D01*
X38489396Y22118955D01*
X38492444Y22117352D01*
X38492446Y22117350D01*
X38673867Y22021899D01*
X38676914Y22020296D01*
X38680199Y22019276D01*
X38875983Y21958484D01*
X38875986Y21958483D01*
X38879272Y21957463D01*
X38882692Y21957058D01*
X38882693Y21957058D01*
X38915907Y21953127D01*
X39051316Y21937100D01*
X40673751Y21937100D01*
X40675446Y21937256D01*
X40675452Y21937256D01*
X40736450Y21942861D01*
X40830999Y21951549D01*
X40850533Y21957058D01*
X40874963Y21963948D01*
X41034932Y22009064D01*
X41038020Y22010587D01*
X41038023Y22010588D01*
X41131997Y22056931D01*
X41224969Y22102780D01*
X41394746Y22229558D01*
X41538575Y22385152D01*
X41560310Y22419599D01*
X41606321Y22492523D01*
X41651642Y22564352D01*
X41716766Y22727587D01*
X41728879Y22757947D01*
X41728880Y22757950D01*
X41730159Y22761156D01*
X41732658Y22773715D01*
X41770823Y22965590D01*
X41771496Y22968973D01*
X41774270Y23180843D01*
X41770770Y23201215D01*
X41738970Y23386279D01*
X41738970Y23386281D01*
X41738387Y23389671D01*
X41665048Y23588463D01*
X41556711Y23770561D01*
X41432367Y23912349D01*
X41419280Y23927272D01*
X41419278Y23927273D01*
X41417004Y23929867D01*
X41414298Y23932001D01*
X41414295Y23932003D01*
X41253309Y24058913D01*
X41253306Y24058915D01*
X41250604Y24061045D01*
X41247556Y24062648D01*
X41247554Y24062650D01*
X41066133Y24158101D01*
X41066132Y24158101D01*
X41063086Y24159704D01*
X41048172Y24164335D01*
X40864017Y24221516D01*
X40864014Y24221517D01*
X40860728Y24222537D01*
X40857308Y24222942D01*
X40857307Y24222942D01*
X40810761Y24228451D01*
X40688684Y24242900D01*
X39066249Y24242900D01*
X39064554Y24242744D01*
X39064548Y24242744D01*
X38971271Y24234173D01*
X38921526Y24247270D01*
X38891838Y24289278D01*
X38897386Y24343198D01*
X38905270Y24358671D01*
X38905270Y24358672D01*
X38907957Y24363945D01*
X38927922Y24490000D01*
X38926316Y24500139D01*
X38936133Y24550633D01*
X38976111Y24583004D01*
X39000591Y24587100D01*
X41839968Y24587100D01*
X41859430Y24584538D01*
X41870000Y24581706D01*
X41879562Y24584268D01*
X41889462Y24584268D01*
X41889462Y24583581D01*
X41898336Y24584309D01*
X42027892Y24571549D01*
X42042348Y24568673D01*
X42187083Y24524768D01*
X42200698Y24519129D01*
X42332284Y24448796D01*
X42334093Y24447829D01*
X42346351Y24439638D01*
X42463265Y24343688D01*
X42473688Y24333265D01*
X42540317Y24252078D01*
X42562757Y24224736D01*
X42569638Y24216351D01*
X42577828Y24204094D01*
X42645644Y24077220D01*
X42649128Y24070701D01*
X42654768Y24057083D01*
X42698119Y23914174D01*
X42698673Y23912349D01*
X42701549Y23897892D01*
X42713835Y23773154D01*
X42714309Y23768337D01*
X42713581Y23759462D01*
X42714268Y23759462D01*
X42714268Y23749562D01*
X42711706Y23740000D01*
X42714268Y23730439D01*
X42714538Y23729431D01*
X42717100Y23709968D01*
X42717100Y10770032D01*
X42714538Y10750570D01*
X42711706Y10740000D01*
X42714268Y10730438D01*
X42714268Y10720538D01*
X42713581Y10720538D01*
X42714309Y10711664D01*
X42702197Y10588688D01*
X42701549Y10582109D01*
X42698673Y10567652D01*
X42658704Y10435890D01*
X42654769Y10422919D01*
X42649129Y10409302D01*
X42581061Y10281954D01*
X42577829Y10275907D01*
X42569638Y10263649D01*
X42473688Y10146735D01*
X42463265Y10136312D01*
X42346351Y10040362D01*
X42334094Y10032172D01*
X42200698Y9960871D01*
X42187083Y9955232D01*
X42052265Y9914335D01*
X42042349Y9911327D01*
X42027892Y9908451D01*
X41898336Y9895691D01*
X41889462Y9896419D01*
X41889462Y9895732D01*
X41879562Y9895732D01*
X41870000Y9898294D01*
X41859431Y9895462D01*
X41839968Y9892900D01*
X39000591Y9892900D01*
X38952253Y9910493D01*
X38926533Y9955042D01*
X38926316Y9979861D01*
X38926996Y9984155D01*
X38927922Y9990000D01*
X38907957Y10116055D01*
X38905270Y10121328D01*
X38905269Y10121332D01*
X38896995Y10137571D01*
X38890727Y10188628D01*
X38918743Y10231768D01*
X38972837Y10246389D01*
X39051316Y10237100D01*
X40673751Y10237100D01*
X40675446Y10237256D01*
X40675452Y10237256D01*
X40736450Y10242861D01*
X40830999Y10251549D01*
X40851969Y10257463D01*
X40919536Y10276519D01*
X41034932Y10309064D01*
X41038020Y10310587D01*
X41038023Y10310588D01*
X41174633Y10377957D01*
X41224969Y10402780D01*
X41394746Y10529558D01*
X41538575Y10685152D01*
X41552731Y10707587D01*
X41596223Y10776519D01*
X41651642Y10864352D01*
X41704880Y10997794D01*
X41728879Y11057947D01*
X41728880Y11057950D01*
X41730159Y11061156D01*
X41735008Y11085530D01*
X41770823Y11265590D01*
X41771496Y11268973D01*
X41774270Y11480843D01*
X41772961Y11488465D01*
X41738970Y11686279D01*
X41738970Y11686281D01*
X41738387Y11689671D01*
X41665048Y11888463D01*
X41556711Y12070561D01*
X41417004Y12229867D01*
X41414298Y12232001D01*
X41414295Y12232003D01*
X41253309Y12358913D01*
X41253306Y12358915D01*
X41250604Y12361045D01*
X41247556Y12362648D01*
X41247554Y12362650D01*
X41066133Y12458101D01*
X41066132Y12458101D01*
X41063086Y12459704D01*
X40959403Y12491898D01*
X40864017Y12521516D01*
X40864014Y12521517D01*
X40860728Y12522537D01*
X40857308Y12522942D01*
X40857307Y12522942D01*
X40824093Y12526873D01*
X40688684Y12542900D01*
X39066249Y12542900D01*
X39064554Y12542744D01*
X39064548Y12542744D01*
X39004597Y12537235D01*
X38909001Y12528451D01*
X38905683Y12527515D01*
X38905682Y12527515D01*
X38884411Y12521516D01*
X38705068Y12470936D01*
X38701980Y12469413D01*
X38701977Y12469412D01*
X38659173Y12448303D01*
X38515031Y12377220D01*
X38345254Y12250442D01*
X38201425Y12094848D01*
X38088358Y11915648D01*
X38076222Y11885229D01*
X38012864Y11726420D01*
X38009841Y11718844D01*
X38009168Y11715463D01*
X38009167Y11715458D01*
X37975131Y11544345D01*
X37968504Y11511027D01*
X37965730Y11299157D01*
X37966313Y11295765D01*
X37966313Y11295763D01*
X37978758Y11223337D01*
X38001613Y11090329D01*
X38074952Y10891537D01*
X38183289Y10709439D01*
X38185563Y10706846D01*
X38313726Y10560704D01*
X38322996Y10550133D01*
X38325702Y10547999D01*
X38325705Y10547997D01*
X38391257Y10496321D01*
X38418325Y10452579D01*
X38410944Y10401672D01*
X38378841Y10370261D01*
X38342714Y10351853D01*
X38286798Y10323363D01*
X38280229Y10320016D01*
X38242167Y10281954D01*
X38195547Y10260214D01*
X38145860Y10273528D01*
X38116355Y10315665D01*
X38114719Y10323363D01*
X38108883Y10360209D01*
X38108883Y10360210D01*
X38107957Y10366055D01*
X38061914Y10456420D01*
X38052705Y10474494D01*
X38052704Y10474495D01*
X38050016Y10479771D01*
X37959771Y10570016D01*
X37846055Y10627957D01*
X37812605Y10633255D01*
X37754626Y10642438D01*
X37754624Y10642438D01*
X37751708Y10642900D01*
X37688292Y10642900D01*
X37685376Y10642438D01*
X37685374Y10642438D01*
X37627395Y10633255D01*
X37593945Y10627957D01*
X37480229Y10570016D01*
X37423174Y10512961D01*
X37376554Y10491221D01*
X37326867Y10504535D01*
X37316826Y10512961D01*
X37259771Y10570016D01*
X37146055Y10627957D01*
X37112605Y10633255D01*
X37054626Y10642438D01*
X37054624Y10642438D01*
X37051708Y10642900D01*
X36988292Y10642900D01*
X36985376Y10642438D01*
X36985374Y10642438D01*
X36927395Y10633255D01*
X36893945Y10627957D01*
X36780229Y10570016D01*
X36689984Y10479771D01*
X36687296Y10474495D01*
X36687295Y10474494D01*
X36678086Y10456420D01*
X36632043Y10366055D01*
X36631117Y10360210D01*
X36631117Y10360209D01*
X36625281Y10323363D01*
X36600342Y10278373D01*
X36552319Y10259939D01*
X36503682Y10276687D01*
X36497833Y10281954D01*
X36459771Y10320016D01*
X36453203Y10323363D01*
X36402710Y10349090D01*
X36346055Y10377957D01*
X36315040Y10382869D01*
X36254626Y10392438D01*
X36254624Y10392438D01*
X36251708Y10392900D01*
X36188292Y10392900D01*
X36185376Y10392438D01*
X36185374Y10392438D01*
X36124960Y10382869D01*
X36093945Y10377957D01*
X36037290Y10349090D01*
X35986798Y10323363D01*
X35980229Y10320016D01*
X35889984Y10229771D01*
X35887296Y10224495D01*
X35887295Y10224494D01*
X35877816Y10205890D01*
X35832043Y10116055D01*
X35812078Y9990000D01*
X35813004Y9984155D01*
X35813684Y9979861D01*
X35803867Y9929367D01*
X35763889Y9896996D01*
X35739409Y9892900D01*
X26949920Y9892900D01*
X26901582Y9910493D01*
X26875862Y9955042D01*
X26884795Y10005700D01*
X26910572Y10032184D01*
X27014970Y10096284D01*
X27014974Y10096287D01*
X27019539Y10099090D01*
X27037545Y10118982D01*
X27112612Y10201915D01*
X27116210Y10205890D01*
X27121024Y10215825D01*
X27176682Y10330704D01*
X27176682Y10330705D01*
X27179020Y10335530D01*
X27202919Y10477587D01*
X27203071Y10490000D01*
X27202659Y10492880D01*
X27183409Y10627296D01*
X27183408Y10627300D01*
X27182649Y10632599D01*
X27177966Y10642900D01*
X27140088Y10726207D01*
X31901967Y10726207D01*
X31902661Y10720900D01*
X31902661Y10720897D01*
X31907666Y10682623D01*
X31920645Y10583370D01*
X31943209Y10532090D01*
X31967191Y10477587D01*
X31978662Y10451516D01*
X31982107Y10447418D01*
X31982108Y10447416D01*
X32027364Y10393578D01*
X32071354Y10341245D01*
X32092745Y10327006D01*
X32174921Y10272306D01*
X32191270Y10261423D01*
X32328769Y10218465D01*
X32402871Y10217107D01*
X32467436Y10215923D01*
X32467438Y10215923D01*
X32472798Y10215825D01*
X32477969Y10217235D01*
X32477971Y10217235D01*
X32584907Y10246389D01*
X32611779Y10253715D01*
X32704406Y10310588D01*
X32729970Y10326284D01*
X32729973Y10326286D01*
X32734539Y10329090D01*
X32767357Y10365346D01*
X32827612Y10431915D01*
X32831210Y10435890D01*
X32836795Y10447416D01*
X32891682Y10560704D01*
X32891682Y10560705D01*
X32894020Y10565530D01*
X32917919Y10707587D01*
X32917958Y10710715D01*
X32918035Y10717091D01*
X32918071Y10720000D01*
X32917659Y10722880D01*
X32898409Y10857296D01*
X32898408Y10857300D01*
X32897649Y10862599D01*
X32895397Y10867554D01*
X32845898Y10976420D01*
X32838026Y10993734D01*
X32831337Y11001497D01*
X32747487Y11098810D01*
X32747484Y11098813D01*
X32743993Y11102864D01*
X32739502Y11105775D01*
X32627604Y11178303D01*
X32627603Y11178303D01*
X32623111Y11181215D01*
X32542721Y11205257D01*
X32490232Y11220955D01*
X32490229Y11220955D01*
X32485098Y11222490D01*
X32479743Y11222523D01*
X32479741Y11222523D01*
X32414524Y11222921D01*
X32341047Y11223370D01*
X32335897Y11221898D01*
X32335896Y11221898D01*
X32277670Y11205257D01*
X32202539Y11183785D01*
X32198013Y11180929D01*
X32198010Y11180928D01*
X32106047Y11122903D01*
X32080709Y11106916D01*
X32073550Y11098810D01*
X31988897Y11002959D01*
X31988895Y11002956D01*
X31985351Y10998943D01*
X31924129Y10868546D01*
X31923305Y10863256D01*
X31923305Y10863255D01*
X31919811Y10840816D01*
X31901967Y10726207D01*
X27140088Y10726207D01*
X27123026Y10763734D01*
X27118538Y10768943D01*
X27032487Y10868810D01*
X27032484Y10868813D01*
X27028993Y10872864D01*
X27024502Y10875775D01*
X26912604Y10948303D01*
X26912603Y10948303D01*
X26908111Y10951215D01*
X26819930Y10977587D01*
X26775232Y10990955D01*
X26775229Y10990955D01*
X26770098Y10992490D01*
X26764743Y10992523D01*
X26764741Y10992523D01*
X26699524Y10992921D01*
X26626047Y10993370D01*
X26620897Y10991898D01*
X26620896Y10991898D01*
X26581015Y10980500D01*
X26487539Y10953785D01*
X26483013Y10950929D01*
X26483010Y10950928D01*
X26425827Y10914848D01*
X26375558Y10903934D01*
X26330034Y10927885D01*
X26310557Y10975495D01*
X26318023Y11011233D01*
X26354020Y11085530D01*
X26377919Y11227587D01*
X26378071Y11240000D01*
X26377659Y11242880D01*
X26358409Y11377296D01*
X26358408Y11377300D01*
X26357649Y11382599D01*
X26327776Y11448303D01*
X26314545Y11477401D01*
X26298026Y11513734D01*
X26290640Y11522306D01*
X26207487Y11618810D01*
X26207484Y11618813D01*
X26203993Y11622864D01*
X26199502Y11625775D01*
X26087604Y11698303D01*
X26087603Y11698303D01*
X26083111Y11701215D01*
X25998832Y11726420D01*
X25950232Y11740955D01*
X25950229Y11740955D01*
X25945098Y11742490D01*
X25939743Y11742523D01*
X25939741Y11742523D01*
X25874524Y11742921D01*
X25801047Y11743370D01*
X25795897Y11741898D01*
X25795896Y11741898D01*
X25741739Y11726420D01*
X25662539Y11703785D01*
X25658013Y11700929D01*
X25658010Y11700928D01*
X25545237Y11629773D01*
X25540709Y11626916D01*
X25533550Y11618810D01*
X25448897Y11522959D01*
X25448895Y11522956D01*
X25445351Y11518943D01*
X25384129Y11388546D01*
X25383305Y11383256D01*
X25383305Y11383255D01*
X25381693Y11372903D01*
X25361967Y11246207D01*
X25362661Y11240900D01*
X25362661Y11240897D01*
X25365064Y11222523D01*
X25380645Y11103370D01*
X25388495Y11085530D01*
X25431034Y10988853D01*
X25438662Y10971516D01*
X25442107Y10967418D01*
X25442108Y10967416D01*
X25486296Y10914848D01*
X25531354Y10861245D01*
X25651270Y10781423D01*
X25788769Y10738465D01*
X25862871Y10737107D01*
X25927436Y10735923D01*
X25927438Y10735923D01*
X25932798Y10735825D01*
X25937969Y10737235D01*
X25937971Y10737235D01*
X26021953Y10760131D01*
X26071779Y10773715D01*
X26139644Y10815384D01*
X26190041Y10825684D01*
X26235269Y10801178D01*
X26254163Y10753334D01*
X26247062Y10719341D01*
X26211405Y10643395D01*
X26211404Y10643392D01*
X26209129Y10638546D01*
X26208305Y10633256D01*
X26208305Y10633255D01*
X26201366Y10588688D01*
X26186967Y10496207D01*
X26187661Y10490900D01*
X26187661Y10490897D01*
X26190732Y10467416D01*
X26205645Y10353370D01*
X26263662Y10221516D01*
X26267107Y10217418D01*
X26267108Y10217416D01*
X26272741Y10210715D01*
X26356354Y10111245D01*
X26378825Y10096287D01*
X26476270Y10031423D01*
X26474934Y10029417D01*
X26504544Y9999288D01*
X26508583Y9948007D01*
X26478714Y9906128D01*
X26436117Y9892900D01*
X21500591Y9892900D01*
X21452253Y9910493D01*
X21426533Y9955042D01*
X21426316Y9979861D01*
X21426996Y9984155D01*
X21427922Y9990000D01*
X21407957Y10116055D01*
X21362184Y10205890D01*
X21352705Y10224494D01*
X21352704Y10224495D01*
X21350016Y10229771D01*
X21259771Y10320016D01*
X21253203Y10323363D01*
X21202710Y10349090D01*
X21146055Y10377957D01*
X21115040Y10382869D01*
X21054626Y10392438D01*
X21054624Y10392438D01*
X21051708Y10392900D01*
X20988292Y10392900D01*
X20985376Y10392438D01*
X20985374Y10392438D01*
X20924960Y10382869D01*
X20893945Y10377957D01*
X20837290Y10349090D01*
X20786798Y10323363D01*
X20780229Y10320016D01*
X20742167Y10281954D01*
X20695547Y10260214D01*
X20645860Y10273528D01*
X20616355Y10315665D01*
X20614719Y10323363D01*
X20608883Y10360209D01*
X20608883Y10360210D01*
X20607957Y10366055D01*
X20561914Y10456420D01*
X20552705Y10474494D01*
X20552704Y10474495D01*
X20550016Y10479771D01*
X20459771Y10570016D01*
X20346055Y10627957D01*
X20312605Y10633255D01*
X20254626Y10642438D01*
X20254624Y10642438D01*
X20251708Y10642900D01*
X20188292Y10642900D01*
X20185376Y10642438D01*
X20185374Y10642438D01*
X20127395Y10633255D01*
X20093945Y10627957D01*
X19980229Y10570016D01*
X19923174Y10512961D01*
X19876554Y10491221D01*
X19826867Y10504535D01*
X19816826Y10512961D01*
X19759771Y10570016D01*
X19646055Y10627957D01*
X19612605Y10633255D01*
X19554626Y10642438D01*
X19554624Y10642438D01*
X19551708Y10642900D01*
X19488292Y10642900D01*
X19485376Y10642438D01*
X19485374Y10642438D01*
X19427395Y10633255D01*
X19393945Y10627957D01*
X19280229Y10570016D01*
X19189984Y10479771D01*
X19187296Y10474495D01*
X19187295Y10474494D01*
X19178086Y10456420D01*
X19132043Y10366055D01*
X19131117Y10360210D01*
X19131117Y10360209D01*
X19125281Y10323363D01*
X19100342Y10278373D01*
X19052319Y10259939D01*
X19003682Y10276687D01*
X18997833Y10281954D01*
X18959771Y10320016D01*
X18953203Y10323363D01*
X18902710Y10349090D01*
X18846055Y10377957D01*
X18815040Y10382869D01*
X18754626Y10392438D01*
X18754624Y10392438D01*
X18751708Y10392900D01*
X18688292Y10392900D01*
X18685376Y10392438D01*
X18685374Y10392438D01*
X18624960Y10382869D01*
X18593945Y10377957D01*
X18537290Y10349090D01*
X18485502Y10322703D01*
X18485501Y10322702D01*
X18480229Y10320016D01*
X18479807Y10319594D01*
X18432700Y10306085D01*
X18385707Y10327006D01*
X18363156Y10373240D01*
X18363786Y10393578D01*
X18374358Y10456420D01*
X18377919Y10477587D01*
X18378071Y10490000D01*
X18377659Y10492880D01*
X18358409Y10627296D01*
X18358408Y10627300D01*
X18357649Y10632599D01*
X18352966Y10642900D01*
X18315088Y10726207D01*
X18298026Y10763734D01*
X18293538Y10768943D01*
X18207487Y10868810D01*
X18207484Y10868813D01*
X18203993Y10872864D01*
X18199502Y10875775D01*
X18087604Y10948303D01*
X18087603Y10948303D01*
X18083111Y10951215D01*
X17994930Y10977587D01*
X17950232Y10990955D01*
X17950229Y10990955D01*
X17945098Y10992490D01*
X17939743Y10992523D01*
X17939741Y10992523D01*
X17874524Y10992921D01*
X17801047Y10993370D01*
X17795897Y10991898D01*
X17795896Y10991898D01*
X17756015Y10980500D01*
X17662539Y10953785D01*
X17658013Y10950929D01*
X17658010Y10950928D01*
X17550756Y10883255D01*
X17540709Y10876916D01*
X17533550Y10868810D01*
X17448897Y10772959D01*
X17448895Y10772956D01*
X17445351Y10768943D01*
X17430464Y10737235D01*
X17386406Y10643395D01*
X17384129Y10638546D01*
X17383305Y10633256D01*
X17383305Y10633255D01*
X17376366Y10588688D01*
X17361967Y10496207D01*
X17362661Y10490900D01*
X17362661Y10490897D01*
X17365732Y10467416D01*
X17380645Y10353370D01*
X17438662Y10221516D01*
X17442107Y10217418D01*
X17442108Y10217416D01*
X17447741Y10210715D01*
X17531354Y10111245D01*
X17553825Y10096287D01*
X17651270Y10031423D01*
X17649934Y10029417D01*
X17679544Y9999288D01*
X17683583Y9948007D01*
X17653714Y9906128D01*
X17611117Y9892900D01*
X12098100Y9892900D01*
X12049762Y9910493D01*
X12024042Y9955042D01*
X12022900Y9968100D01*
X12022900Y10746207D01*
X12861967Y10746207D01*
X12862661Y10740900D01*
X12862661Y10740897D01*
X12865394Y10720000D01*
X12880645Y10603370D01*
X12902928Y10552728D01*
X12927748Y10496321D01*
X12938662Y10471516D01*
X12942107Y10467418D01*
X12942108Y10467416D01*
X12971950Y10431915D01*
X13031354Y10361245D01*
X13151270Y10281423D01*
X13288769Y10238465D01*
X13362871Y10237107D01*
X13427436Y10235923D01*
X13427438Y10235923D01*
X13432798Y10235825D01*
X13437969Y10237235D01*
X13437971Y10237235D01*
X13526692Y10261423D01*
X13571779Y10273715D01*
X13629350Y10309064D01*
X13689970Y10346284D01*
X13689973Y10346286D01*
X13694539Y10349090D01*
X13704604Y10360209D01*
X13787612Y10451915D01*
X13791210Y10455890D01*
X13796795Y10467416D01*
X13851682Y10580704D01*
X13851682Y10580705D01*
X13854020Y10585530D01*
X13877919Y10727587D01*
X13878071Y10740000D01*
X13877659Y10742880D01*
X13858409Y10877296D01*
X13858408Y10877300D01*
X13857649Y10882599D01*
X13853586Y10891537D01*
X13815412Y10975495D01*
X13805995Y10996207D01*
X21361967Y10996207D01*
X21362661Y10990900D01*
X21362661Y10990897D01*
X21365732Y10967416D01*
X21380645Y10853370D01*
X21438662Y10721516D01*
X21442107Y10717418D01*
X21442108Y10717416D01*
X21450370Y10707587D01*
X21531354Y10611245D01*
X21651270Y10531423D01*
X21788769Y10488465D01*
X21862871Y10487107D01*
X21927436Y10485923D01*
X21927438Y10485923D01*
X21932798Y10485825D01*
X21937969Y10487235D01*
X21937971Y10487235D01*
X22032333Y10512961D01*
X22071779Y10523715D01*
X22132021Y10560704D01*
X22189970Y10596284D01*
X22189973Y10596286D01*
X22194539Y10599090D01*
X22291210Y10705890D01*
X22296795Y10717416D01*
X22351682Y10830704D01*
X22351682Y10830705D01*
X22354020Y10835530D01*
X22377919Y10977587D01*
X22378071Y10990000D01*
X22377659Y10992880D01*
X22358409Y11127296D01*
X22358408Y11127300D01*
X22357649Y11132599D01*
X22334848Y11182749D01*
X22317476Y11220955D01*
X22298026Y11263734D01*
X22293512Y11268973D01*
X22207487Y11368810D01*
X22207484Y11368813D01*
X22203993Y11372864D01*
X22199502Y11375775D01*
X22087604Y11448303D01*
X22087603Y11448303D01*
X22083111Y11451215D01*
X21984043Y11480843D01*
X21950232Y11490955D01*
X21950229Y11490955D01*
X21945098Y11492490D01*
X21939743Y11492523D01*
X21939741Y11492523D01*
X21874524Y11492921D01*
X21801047Y11493370D01*
X21795897Y11491898D01*
X21795896Y11491898D01*
X21757215Y11480843D01*
X21662539Y11453785D01*
X21658013Y11450929D01*
X21658010Y11450928D01*
X21550756Y11383255D01*
X21540709Y11376916D01*
X21533550Y11368810D01*
X21448897Y11272959D01*
X21448895Y11272956D01*
X21445351Y11268943D01*
X21440614Y11258853D01*
X21404028Y11180928D01*
X21384129Y11138546D01*
X21383305Y11133256D01*
X21383305Y11133255D01*
X21376622Y11090329D01*
X21361967Y10996207D01*
X13805995Y10996207D01*
X13798026Y11013734D01*
X13793538Y11018943D01*
X13707487Y11118810D01*
X13707484Y11118813D01*
X13703993Y11122864D01*
X13699502Y11125775D01*
X13587604Y11198303D01*
X13587603Y11198303D01*
X13583111Y11201215D01*
X13494930Y11227587D01*
X13450232Y11240955D01*
X13450229Y11240955D01*
X13445098Y11242490D01*
X13439743Y11242523D01*
X13439741Y11242523D01*
X13374524Y11242921D01*
X13301047Y11243370D01*
X13295897Y11241898D01*
X13295896Y11241898D01*
X13256015Y11230500D01*
X13162539Y11203785D01*
X13158013Y11200929D01*
X13158010Y11200928D01*
X13050756Y11133255D01*
X13040709Y11126916D01*
X13033550Y11118810D01*
X12948897Y11022959D01*
X12948895Y11022956D01*
X12945351Y11018943D01*
X12934676Y10996207D01*
X12887052Y10894771D01*
X12884129Y10888546D01*
X12883305Y10883256D01*
X12883305Y10883255D01*
X12875942Y10835963D01*
X12861967Y10746207D01*
X12022900Y10746207D01*
X12022900Y11996207D01*
X31861967Y11996207D01*
X31862661Y11990900D01*
X31862661Y11990897D01*
X31863159Y11987091D01*
X31880645Y11853370D01*
X31922580Y11758065D01*
X31929061Y11743337D01*
X31938662Y11721516D01*
X31942107Y11717418D01*
X31942108Y11717416D01*
X31995923Y11653396D01*
X32031354Y11611245D01*
X32151270Y11531423D01*
X32288769Y11488465D01*
X32362871Y11487107D01*
X32427436Y11485923D01*
X32427438Y11485923D01*
X32432798Y11485825D01*
X32437969Y11487235D01*
X32437971Y11487235D01*
X32525239Y11511027D01*
X32571779Y11523715D01*
X32624871Y11556314D01*
X32689970Y11596284D01*
X32689973Y11596286D01*
X32694539Y11599090D01*
X32791210Y11705890D01*
X32796795Y11717416D01*
X32851682Y11830704D01*
X32851682Y11830705D01*
X32854020Y11835530D01*
X32877919Y11977587D01*
X32878071Y11990000D01*
X32877659Y11992880D01*
X32858409Y12127296D01*
X32858408Y12127300D01*
X32857649Y12132599D01*
X32798026Y12263734D01*
X32793538Y12268943D01*
X32707487Y12368810D01*
X32707484Y12368813D01*
X32703993Y12372864D01*
X32699502Y12375775D01*
X32587604Y12448303D01*
X32587603Y12448303D01*
X32583111Y12451215D01*
X32506912Y12474003D01*
X32450232Y12490955D01*
X32450229Y12490955D01*
X32445098Y12492490D01*
X32439743Y12492523D01*
X32439741Y12492523D01*
X32374524Y12492921D01*
X32301047Y12493370D01*
X32295897Y12491898D01*
X32295896Y12491898D01*
X32231793Y12473577D01*
X32162539Y12453785D01*
X32158013Y12450929D01*
X32158010Y12450928D01*
X32045237Y12379773D01*
X32040709Y12376916D01*
X32033550Y12368810D01*
X31948897Y12272959D01*
X31948895Y12272956D01*
X31945351Y12268943D01*
X31884129Y12138546D01*
X31861967Y11996207D01*
X12022900Y11996207D01*
X12022900Y13546207D01*
X15461967Y13546207D01*
X15462661Y13540900D01*
X15462661Y13540897D01*
X15467449Y13504285D01*
X15480645Y13403370D01*
X15538662Y13271516D01*
X15542107Y13267418D01*
X15542108Y13267416D01*
X15589770Y13210715D01*
X15631354Y13161245D01*
X15751270Y13081423D01*
X15888769Y13038465D01*
X15962871Y13037107D01*
X16027436Y13035923D01*
X16027438Y13035923D01*
X16032798Y13035825D01*
X16037969Y13037235D01*
X16037971Y13037235D01*
X16113695Y13057880D01*
X16171779Y13073715D01*
X16228738Y13108688D01*
X16289970Y13146284D01*
X16289973Y13146286D01*
X16294539Y13149090D01*
X16362994Y13224717D01*
X16387612Y13251915D01*
X16391210Y13255890D01*
X16396795Y13267416D01*
X16451682Y13380704D01*
X16451682Y13380705D01*
X16454020Y13385530D01*
X16472640Y13496207D01*
X19111967Y13496207D01*
X19112661Y13490900D01*
X19112661Y13490897D01*
X19113159Y13487091D01*
X19130645Y13353370D01*
X19188662Y13221516D01*
X19192107Y13217418D01*
X19192108Y13217416D01*
X19231842Y13170147D01*
X19281354Y13111245D01*
X19321694Y13084393D01*
X19392539Y13037235D01*
X19401270Y13031423D01*
X19538769Y12988465D01*
X19612871Y12987107D01*
X19677436Y12985923D01*
X19677438Y12985923D01*
X19682798Y12985825D01*
X19687969Y12987235D01*
X19687971Y12987235D01*
X19779501Y13012189D01*
X19821779Y13023715D01*
X19907779Y13076519D01*
X19939970Y13096284D01*
X19939973Y13096286D01*
X19944539Y13099090D01*
X19972642Y13130137D01*
X20037612Y13201915D01*
X20041210Y13205890D01*
X20046795Y13217416D01*
X20060744Y13246207D01*
X20611967Y13246207D01*
X20612661Y13240900D01*
X20612661Y13240897D01*
X20615732Y13217416D01*
X20630645Y13103370D01*
X20688662Y12971516D01*
X20692107Y12967418D01*
X20692108Y12967416D01*
X20701797Y12955890D01*
X20781354Y12861245D01*
X20901270Y12781423D01*
X21038769Y12738465D01*
X21112871Y12737107D01*
X21177436Y12735923D01*
X21177438Y12735923D01*
X21182798Y12735825D01*
X21187969Y12737235D01*
X21187971Y12737235D01*
X21305786Y12769355D01*
X21321779Y12773715D01*
X21374871Y12806314D01*
X21439970Y12846284D01*
X21439973Y12846286D01*
X21444539Y12849090D01*
X21541210Y12955890D01*
X21551127Y12976359D01*
X21588037Y13012189D01*
X21639342Y13015911D01*
X21681036Y12985784D01*
X21683903Y12980598D01*
X21686504Y12976420D01*
X21688662Y12971516D01*
X21692107Y12967418D01*
X21692108Y12967416D01*
X21701797Y12955890D01*
X21781354Y12861245D01*
X21901270Y12781423D01*
X22038769Y12738465D01*
X22112871Y12737107D01*
X22177436Y12735923D01*
X22177438Y12735923D01*
X22182798Y12735825D01*
X22187969Y12737235D01*
X22187971Y12737235D01*
X22305786Y12769355D01*
X22321779Y12773715D01*
X22374871Y12806314D01*
X22439970Y12846284D01*
X22439973Y12846286D01*
X22444539Y12849090D01*
X22541210Y12955890D01*
X22546795Y12967416D01*
X22601682Y13080704D01*
X22601682Y13080705D01*
X22604020Y13085530D01*
X22627919Y13227587D01*
X22628071Y13240000D01*
X22627659Y13242880D01*
X22608409Y13377296D01*
X22608408Y13377300D01*
X22607649Y13382599D01*
X22600438Y13398460D01*
X22557508Y13492880D01*
X22548026Y13513734D01*
X22543538Y13518943D01*
X22457487Y13618810D01*
X22457484Y13618813D01*
X22453993Y13622864D01*
X22449502Y13625775D01*
X22337604Y13698303D01*
X22337603Y13698303D01*
X22333111Y13701215D01*
X22256912Y13724003D01*
X22200232Y13740955D01*
X22200229Y13740955D01*
X22195098Y13742490D01*
X22189743Y13742523D01*
X22189741Y13742523D01*
X22124524Y13742921D01*
X22051047Y13743370D01*
X22045897Y13741898D01*
X22045896Y13741898D01*
X22039255Y13740000D01*
X21912539Y13703785D01*
X21908013Y13700929D01*
X21908010Y13700928D01*
X21800756Y13633255D01*
X21790709Y13626916D01*
X21783550Y13618810D01*
X21698897Y13522959D01*
X21698895Y13522956D01*
X21695351Y13518943D01*
X21693075Y13514096D01*
X21693072Y13514091D01*
X21688468Y13504285D01*
X21651998Y13468008D01*
X21600742Y13463660D01*
X21558684Y13493276D01*
X21551946Y13505112D01*
X21548026Y13513734D01*
X21543538Y13518943D01*
X21457487Y13618810D01*
X21457484Y13618813D01*
X21453993Y13622864D01*
X21449502Y13625775D01*
X21337604Y13698303D01*
X21337603Y13698303D01*
X21333111Y13701215D01*
X21256912Y13724003D01*
X21200232Y13740955D01*
X21200229Y13740955D01*
X21195098Y13742490D01*
X21189743Y13742523D01*
X21189741Y13742523D01*
X21124524Y13742921D01*
X21051047Y13743370D01*
X21045897Y13741898D01*
X21045896Y13741898D01*
X21039255Y13740000D01*
X20912539Y13703785D01*
X20908013Y13700929D01*
X20908010Y13700928D01*
X20800756Y13633255D01*
X20790709Y13626916D01*
X20783550Y13618810D01*
X20698897Y13522959D01*
X20698895Y13522956D01*
X20695351Y13518943D01*
X20684676Y13496207D01*
X20638784Y13398460D01*
X20634129Y13388546D01*
X20633305Y13383256D01*
X20633305Y13383255D01*
X20625942Y13335963D01*
X20611967Y13246207D01*
X20060744Y13246207D01*
X20101682Y13330704D01*
X20101682Y13330705D01*
X20104020Y13335530D01*
X20127919Y13477587D01*
X20128071Y13490000D01*
X20127602Y13493276D01*
X20108409Y13627296D01*
X20108408Y13627300D01*
X20107649Y13632599D01*
X20077776Y13698303D01*
X20052101Y13754772D01*
X36712108Y13754772D01*
X36712416Y13751104D01*
X36712416Y13751101D01*
X36723525Y13618810D01*
X36729386Y13549012D01*
X36786301Y13350526D01*
X36880685Y13166875D01*
X37008942Y13005055D01*
X37011736Y13002677D01*
X37011737Y13002676D01*
X37071381Y12951915D01*
X37166188Y12871228D01*
X37169389Y12869439D01*
X37169392Y12869437D01*
X37189361Y12858277D01*
X37346433Y12770493D01*
X37349934Y12769356D01*
X37349935Y12769355D01*
X37391376Y12755890D01*
X37542811Y12706686D01*
X37614999Y12698078D01*
X37744185Y12682673D01*
X37744187Y12682673D01*
X37747843Y12682237D01*
X37953719Y12698078D01*
X38093963Y12737235D01*
X38149052Y12752616D01*
X38149054Y12752617D01*
X38152597Y12753606D01*
X38336902Y12846705D01*
X38482828Y12960715D01*
X38496715Y12971565D01*
X38499614Y12973830D01*
X38562088Y13046207D01*
X41361967Y13046207D01*
X41362661Y13040900D01*
X41362661Y13040897D01*
X41366415Y13012189D01*
X41380645Y12903370D01*
X41406308Y12845046D01*
X41436461Y12776519D01*
X41438662Y12771516D01*
X41442107Y12767418D01*
X41442108Y12767416D01*
X41467478Y12737235D01*
X41531354Y12661245D01*
X41651270Y12581423D01*
X41788769Y12538465D01*
X41862871Y12537107D01*
X41927436Y12535923D01*
X41927438Y12535923D01*
X41932798Y12535825D01*
X41937969Y12537235D01*
X41937971Y12537235D01*
X42013695Y12557880D01*
X42071779Y12573715D01*
X42124871Y12606314D01*
X42189970Y12646284D01*
X42189973Y12646286D01*
X42194539Y12649090D01*
X42224799Y12682520D01*
X42287612Y12751915D01*
X42291210Y12755890D01*
X42296795Y12767416D01*
X42351682Y12880704D01*
X42351682Y12880705D01*
X42354020Y12885530D01*
X42377919Y13027587D01*
X42378071Y13040000D01*
X42377659Y13042880D01*
X42358409Y13177296D01*
X42358408Y13177300D01*
X42357649Y13182599D01*
X42347060Y13205890D01*
X42317221Y13271516D01*
X42298026Y13313734D01*
X42293538Y13318943D01*
X42207487Y13418810D01*
X42207484Y13418813D01*
X42203993Y13422864D01*
X42199502Y13425775D01*
X42087604Y13498303D01*
X42087603Y13498303D01*
X42083111Y13501215D01*
X41994930Y13527587D01*
X41950232Y13540955D01*
X41950229Y13540955D01*
X41945098Y13542490D01*
X41939743Y13542523D01*
X41939741Y13542523D01*
X41874524Y13542921D01*
X41801047Y13543370D01*
X41795897Y13541898D01*
X41795896Y13541898D01*
X41756015Y13530500D01*
X41662539Y13503785D01*
X41658013Y13500929D01*
X41658010Y13500928D01*
X41545237Y13429773D01*
X41540709Y13426916D01*
X41533550Y13418810D01*
X41448897Y13322959D01*
X41448895Y13322956D01*
X41445351Y13318943D01*
X41442636Y13313160D01*
X41397684Y13217416D01*
X41384129Y13188546D01*
X41361967Y13046207D01*
X38562088Y13046207D01*
X38634535Y13130137D01*
X38680310Y13210715D01*
X38734711Y13306478D01*
X38734712Y13306479D01*
X38736527Y13309675D01*
X38801703Y13505603D01*
X38806049Y13540000D01*
X38827319Y13708370D01*
X38827583Y13710459D01*
X38827995Y13740000D01*
X38826188Y13758434D01*
X38808206Y13941832D01*
X38808205Y13941837D01*
X38807846Y13945499D01*
X38769950Y14071016D01*
X38772821Y14122375D01*
X38808034Y14159873D01*
X38859112Y14165964D01*
X38902406Y14136651D01*
X38902562Y14136782D01*
X38903022Y14136234D01*
X38903540Y14135883D01*
X38906557Y14131575D01*
X39061575Y13976557D01*
X39241157Y13850812D01*
X39244134Y13849424D01*
X39436866Y13759551D01*
X39436872Y13759549D01*
X39439846Y13758162D01*
X39443017Y13757312D01*
X39443018Y13757312D01*
X39466198Y13751101D01*
X39651605Y13701421D01*
X39870000Y13682314D01*
X40088395Y13701421D01*
X40273802Y13751101D01*
X40296982Y13757312D01*
X40296983Y13757312D01*
X40300154Y13758162D01*
X40303128Y13759549D01*
X40303134Y13759551D01*
X40495866Y13849424D01*
X40498843Y13850812D01*
X40678425Y13976557D01*
X40833443Y14131575D01*
X40959188Y14311157D01*
X41002188Y14403370D01*
X41050449Y14506866D01*
X41050451Y14506872D01*
X41051838Y14509846D01*
X41108579Y14721605D01*
X41127686Y14940000D01*
X41108579Y15158395D01*
X41051838Y15370154D01*
X41050451Y15373128D01*
X41050449Y15373134D01*
X40982783Y15518244D01*
X40959188Y15568843D01*
X40833443Y15748425D01*
X40678425Y15903443D01*
X40498843Y16029188D01*
X40436461Y16058277D01*
X40303134Y16120449D01*
X40303128Y16120451D01*
X40300154Y16121838D01*
X40296180Y16122903D01*
X40257545Y16133255D01*
X40088395Y16178579D01*
X39870000Y16197686D01*
X39651605Y16178579D01*
X39482455Y16133255D01*
X39443821Y16122903D01*
X39439846Y16121838D01*
X39436872Y16120451D01*
X39436866Y16120449D01*
X39303539Y16058277D01*
X39241157Y16029188D01*
X39061575Y15903443D01*
X38906557Y15748425D01*
X38780812Y15568843D01*
X38757217Y15518244D01*
X38689551Y15373134D01*
X38689549Y15373128D01*
X38688162Y15370154D01*
X38631421Y15158395D01*
X38612314Y14940000D01*
X38631421Y14721605D01*
X38687594Y14511966D01*
X38688162Y14509846D01*
X38687594Y14509694D01*
X38687597Y14460802D01*
X38654535Y14421395D01*
X38603877Y14412460D01*
X38558655Y14438989D01*
X38523045Y14482651D01*
X38523044Y14482652D01*
X38520722Y14485499D01*
X38361623Y14617118D01*
X38179990Y14715327D01*
X37982739Y14776386D01*
X37854065Y14789910D01*
X37781041Y14797585D01*
X37781039Y14797585D01*
X37777386Y14797969D01*
X37571752Y14779255D01*
X37472710Y14750105D01*
X37377197Y14721995D01*
X37377194Y14721994D01*
X37373668Y14720956D01*
X37370411Y14719253D01*
X37370408Y14719252D01*
X37193940Y14626996D01*
X37190681Y14625292D01*
X37187815Y14622987D01*
X37187814Y14622987D01*
X37069160Y14527587D01*
X37029760Y14495909D01*
X36897034Y14337732D01*
X36797559Y14156789D01*
X36735125Y13959970D01*
X36712108Y13754772D01*
X20052101Y13754772D01*
X20050245Y13758853D01*
X20048026Y13763734D01*
X20043538Y13768943D01*
X19957487Y13868810D01*
X19957484Y13868813D01*
X19953993Y13872864D01*
X19949502Y13875775D01*
X19837604Y13948303D01*
X19837603Y13948303D01*
X19833111Y13951215D01*
X19737450Y13979824D01*
X19700232Y13990955D01*
X19700229Y13990955D01*
X19695098Y13992490D01*
X19689743Y13992523D01*
X19689741Y13992523D01*
X19624524Y13992921D01*
X19551047Y13993370D01*
X19545897Y13991898D01*
X19545896Y13991898D01*
X19500364Y13978885D01*
X19412539Y13953785D01*
X19408013Y13950929D01*
X19408010Y13950928D01*
X19295237Y13879773D01*
X19290709Y13876916D01*
X19283550Y13868810D01*
X19198897Y13772959D01*
X19198895Y13772956D01*
X19195351Y13768943D01*
X19190614Y13758853D01*
X19154813Y13682600D01*
X19134129Y13638546D01*
X19133305Y13633256D01*
X19133305Y13633255D01*
X19131693Y13622903D01*
X19111967Y13496207D01*
X16472640Y13496207D01*
X16477919Y13527587D01*
X16478071Y13540000D01*
X16477659Y13542880D01*
X16458409Y13677296D01*
X16458408Y13677300D01*
X16457649Y13682599D01*
X16449316Y13700928D01*
X16400245Y13808853D01*
X16398026Y13813734D01*
X16393538Y13818943D01*
X16307487Y13918810D01*
X16307484Y13918813D01*
X16303993Y13922864D01*
X16299503Y13925774D01*
X16295461Y13929300D01*
X16296695Y13930714D01*
X16270314Y13965660D01*
X16272962Y14017032D01*
X16308011Y14054683D01*
X16322430Y14060261D01*
X16366608Y14072305D01*
X16366610Y14072306D01*
X16371779Y14073715D01*
X16436733Y14113597D01*
X16489970Y14146284D01*
X16489973Y14146286D01*
X16494539Y14149090D01*
X16505062Y14160715D01*
X16587612Y14251915D01*
X16591210Y14255890D01*
X16596795Y14267416D01*
X16651682Y14380704D01*
X16651682Y14380705D01*
X16654020Y14385530D01*
X16664228Y14446207D01*
X23361967Y14446207D01*
X23362661Y14440900D01*
X23362661Y14440897D01*
X23369210Y14390816D01*
X23380645Y14303370D01*
X23438662Y14171516D01*
X23442107Y14167418D01*
X23442108Y14167416D01*
X23479969Y14122375D01*
X23531354Y14061245D01*
X23565576Y14038465D01*
X23634595Y13992523D01*
X23651270Y13981423D01*
X23788769Y13938465D01*
X23862871Y13937107D01*
X23927436Y13935923D01*
X23927438Y13935923D01*
X23932798Y13935825D01*
X23937969Y13937235D01*
X23937971Y13937235D01*
X24042233Y13965660D01*
X24071779Y13973715D01*
X24155370Y14025040D01*
X24189970Y14046284D01*
X24189973Y14046286D01*
X24194539Y14049090D01*
X24291210Y14155890D01*
X24293805Y14161245D01*
X24351682Y14280704D01*
X24351682Y14280705D01*
X24354020Y14285530D01*
X24377919Y14427587D01*
X24378071Y14440000D01*
X24377659Y14442880D01*
X24377183Y14446207D01*
X24861967Y14446207D01*
X24862661Y14440900D01*
X24862661Y14440897D01*
X24869210Y14390816D01*
X24880645Y14303370D01*
X24938662Y14171516D01*
X24942107Y14167418D01*
X24942108Y14167416D01*
X24979969Y14122375D01*
X25031354Y14061245D01*
X25065576Y14038465D01*
X25134595Y13992523D01*
X25151270Y13981423D01*
X25288769Y13938465D01*
X25362871Y13937107D01*
X25427436Y13935923D01*
X25427438Y13935923D01*
X25432798Y13935825D01*
X25437969Y13937235D01*
X25437971Y13937235D01*
X25542233Y13965660D01*
X25571779Y13973715D01*
X25655370Y14025040D01*
X25689970Y14046284D01*
X25689973Y14046286D01*
X25694539Y14049090D01*
X25791210Y14155890D01*
X25853534Y14284527D01*
X25890440Y14320354D01*
X25941745Y14324077D01*
X25983440Y14293951D01*
X25990037Y14282024D01*
X26038662Y14171516D01*
X26042107Y14167418D01*
X26042108Y14167416D01*
X26079969Y14122375D01*
X26131354Y14061245D01*
X26165576Y14038465D01*
X26234595Y13992523D01*
X26251270Y13981423D01*
X26388769Y13938465D01*
X26462871Y13937107D01*
X26527436Y13935923D01*
X26527438Y13935923D01*
X26532798Y13935825D01*
X26537969Y13937235D01*
X26537971Y13937235D01*
X26642233Y13965660D01*
X26671779Y13973715D01*
X26755370Y14025040D01*
X26789970Y14046284D01*
X26789973Y14046286D01*
X26794539Y14049090D01*
X26891210Y14155890D01*
X26893805Y14161245D01*
X26951682Y14280704D01*
X26951682Y14280705D01*
X26954020Y14285530D01*
X26977919Y14427587D01*
X26978071Y14440000D01*
X26977659Y14442880D01*
X26958409Y14577296D01*
X26958408Y14577300D01*
X26957649Y14582599D01*
X26948344Y14603066D01*
X26900245Y14708853D01*
X26898026Y14713734D01*
X26894528Y14717794D01*
X26807487Y14818810D01*
X26807484Y14818813D01*
X26803993Y14822864D01*
X26799502Y14825775D01*
X26687604Y14898303D01*
X26687603Y14898303D01*
X26683111Y14901215D01*
X26600989Y14925775D01*
X26550232Y14940955D01*
X26550229Y14940955D01*
X26545098Y14942490D01*
X26539743Y14942523D01*
X26539741Y14942523D01*
X26474524Y14942921D01*
X26401047Y14943370D01*
X26395897Y14941898D01*
X26395896Y14941898D01*
X26389255Y14940000D01*
X26262539Y14903785D01*
X26258013Y14900929D01*
X26258010Y14900928D01*
X26182636Y14853370D01*
X26140709Y14826916D01*
X26133668Y14818943D01*
X26048897Y14722959D01*
X26048895Y14722956D01*
X26045351Y14718943D01*
X26043075Y14714095D01*
X26043073Y14714092D01*
X25987667Y14596082D01*
X25951198Y14559804D01*
X25899942Y14555455D01*
X25857883Y14585070D01*
X25851140Y14596916D01*
X25800245Y14708853D01*
X25798026Y14713734D01*
X25794528Y14717794D01*
X25707487Y14818810D01*
X25707484Y14818813D01*
X25703993Y14822864D01*
X25699502Y14825775D01*
X25587604Y14898303D01*
X25587603Y14898303D01*
X25583111Y14901215D01*
X25500989Y14925775D01*
X25450232Y14940955D01*
X25450229Y14940955D01*
X25445098Y14942490D01*
X25439743Y14942523D01*
X25439741Y14942523D01*
X25374524Y14942921D01*
X25301047Y14943370D01*
X25295897Y14941898D01*
X25295896Y14941898D01*
X25289255Y14940000D01*
X25162539Y14903785D01*
X25158013Y14900929D01*
X25158010Y14900928D01*
X25082636Y14853370D01*
X25040709Y14826916D01*
X25033668Y14818943D01*
X24948897Y14722959D01*
X24948895Y14722956D01*
X24945351Y14718943D01*
X24884129Y14588546D01*
X24883305Y14583256D01*
X24883305Y14583255D01*
X24877537Y14546207D01*
X24861967Y14446207D01*
X24377183Y14446207D01*
X24358409Y14577296D01*
X24358408Y14577300D01*
X24357649Y14582599D01*
X24348344Y14603066D01*
X24300245Y14708853D01*
X24298026Y14713734D01*
X24294528Y14717794D01*
X24207487Y14818810D01*
X24207484Y14818813D01*
X24203993Y14822864D01*
X24199502Y14825775D01*
X24087604Y14898303D01*
X24087603Y14898303D01*
X24083111Y14901215D01*
X24000989Y14925775D01*
X23950232Y14940955D01*
X23950229Y14940955D01*
X23945098Y14942490D01*
X23939743Y14942523D01*
X23939741Y14942523D01*
X23874524Y14942921D01*
X23801047Y14943370D01*
X23795897Y14941898D01*
X23795896Y14941898D01*
X23789255Y14940000D01*
X23662539Y14903785D01*
X23658013Y14900929D01*
X23658010Y14900928D01*
X23582636Y14853370D01*
X23540709Y14826916D01*
X23533668Y14818943D01*
X23448897Y14722959D01*
X23448895Y14722956D01*
X23445351Y14718943D01*
X23384129Y14588546D01*
X23383305Y14583256D01*
X23383305Y14583255D01*
X23377537Y14546207D01*
X23361967Y14446207D01*
X16664228Y14446207D01*
X16677919Y14527587D01*
X16678071Y14540000D01*
X16677659Y14542880D01*
X16658409Y14677296D01*
X16658408Y14677300D01*
X16657649Y14682599D01*
X16647060Y14705890D01*
X16614175Y14778216D01*
X16598026Y14813734D01*
X16594528Y14817794D01*
X16507487Y14918810D01*
X16507484Y14918813D01*
X16503993Y14922864D01*
X16499502Y14925775D01*
X16387604Y14998303D01*
X16387603Y14998303D01*
X16383111Y15001215D01*
X16306912Y15024003D01*
X16250232Y15040955D01*
X16250229Y15040955D01*
X16245098Y15042490D01*
X16239743Y15042523D01*
X16239741Y15042523D01*
X16174524Y15042921D01*
X16101047Y15043370D01*
X16095897Y15041898D01*
X16095896Y15041898D01*
X16031793Y15023578D01*
X15962539Y15003785D01*
X15958013Y15000929D01*
X15958010Y15000928D01*
X15865392Y14942490D01*
X15840709Y14926916D01*
X15833550Y14918810D01*
X15748897Y14822959D01*
X15748895Y14822956D01*
X15745351Y14818943D01*
X15725551Y14776770D01*
X15697684Y14717416D01*
X15684129Y14688546D01*
X15661967Y14546207D01*
X15662661Y14540900D01*
X15662661Y14540897D01*
X15668544Y14495909D01*
X15680645Y14403370D01*
X15738662Y14271516D01*
X15831354Y14161245D01*
X15835813Y14158277D01*
X15835814Y14158276D01*
X15840697Y14155026D01*
X15871188Y14113597D01*
X15867915Y14062262D01*
X15832411Y14025040D01*
X15819694Y14020120D01*
X15762539Y14003785D01*
X15758013Y14000929D01*
X15758010Y14000928D01*
X15654984Y13935923D01*
X15640709Y13926916D01*
X15633550Y13918810D01*
X15548897Y13822959D01*
X15548895Y13822956D01*
X15545351Y13818943D01*
X15540614Y13808853D01*
X15490040Y13701135D01*
X15484129Y13688546D01*
X15483305Y13683256D01*
X15483305Y13683255D01*
X15482377Y13677296D01*
X15461967Y13546207D01*
X12022900Y13546207D01*
X12022900Y15996207D01*
X18111967Y15996207D01*
X18112661Y15990900D01*
X18112661Y15990897D01*
X18113159Y15987091D01*
X18130645Y15853370D01*
X18188662Y15721516D01*
X18281354Y15611245D01*
X18401270Y15531423D01*
X18538769Y15488465D01*
X18612871Y15487107D01*
X18677436Y15485923D01*
X18677438Y15485923D01*
X18682798Y15485825D01*
X18687969Y15487235D01*
X18687971Y15487235D01*
X18763890Y15507933D01*
X18821779Y15523715D01*
X18899658Y15571533D01*
X18939970Y15596284D01*
X18939973Y15596286D01*
X18944539Y15599090D01*
X18972642Y15630137D01*
X19037612Y15701915D01*
X19041210Y15705890D01*
X19046795Y15717416D01*
X19060744Y15746207D01*
X27361967Y15746207D01*
X27362661Y15740900D01*
X27362661Y15740897D01*
X27365732Y15717416D01*
X27380645Y15603370D01*
X27397147Y15565866D01*
X27429061Y15493337D01*
X27438662Y15471516D01*
X27442107Y15467418D01*
X27442108Y15467416D01*
X27458174Y15448303D01*
X27531354Y15361245D01*
X27651270Y15281423D01*
X27788769Y15238465D01*
X27862871Y15237107D01*
X27927436Y15235923D01*
X27927438Y15235923D01*
X27932798Y15235825D01*
X27937969Y15237235D01*
X27937971Y15237235D01*
X28059041Y15270242D01*
X28110305Y15265982D01*
X28146836Y15229768D01*
X28151543Y15178544D01*
X28146892Y15165730D01*
X28134129Y15138546D01*
X28111967Y14996207D01*
X28112661Y14990900D01*
X28112661Y14990897D01*
X28118889Y14943269D01*
X28130645Y14853370D01*
X28188662Y14721516D01*
X28192107Y14717418D01*
X28192108Y14717416D01*
X28245923Y14653396D01*
X28281354Y14611245D01*
X28401270Y14531423D01*
X28538769Y14488465D01*
X28612871Y14487107D01*
X28677436Y14485923D01*
X28677438Y14485923D01*
X28682798Y14485825D01*
X28687969Y14487235D01*
X28687971Y14487235D01*
X28770907Y14509846D01*
X28821779Y14523715D01*
X28880556Y14559804D01*
X28939970Y14596284D01*
X28939973Y14596286D01*
X28944539Y14599090D01*
X29041210Y14705890D01*
X29044936Y14713579D01*
X29101682Y14830704D01*
X29101682Y14830705D01*
X29104020Y14835530D01*
X29127919Y14977587D01*
X29128071Y14990000D01*
X29127659Y14992880D01*
X29108409Y15127296D01*
X29108408Y15127300D01*
X29107649Y15132599D01*
X29095921Y15158395D01*
X29060074Y15237235D01*
X29048026Y15263734D01*
X29043183Y15269355D01*
X28957487Y15368810D01*
X28957484Y15368813D01*
X28953993Y15372864D01*
X28949502Y15375775D01*
X28837604Y15448303D01*
X28837603Y15448303D01*
X28833111Y15451215D01*
X28748180Y15476615D01*
X28700232Y15490955D01*
X28700229Y15490955D01*
X28695098Y15492490D01*
X28689743Y15492523D01*
X28689741Y15492523D01*
X28624524Y15492921D01*
X28551047Y15493370D01*
X28545897Y15491898D01*
X28545896Y15491898D01*
X28432164Y15459394D01*
X28380853Y15463027D01*
X28343882Y15498793D01*
X28338550Y15549956D01*
X28343822Y15564481D01*
X28354020Y15585530D01*
X28377919Y15727587D01*
X28378071Y15740000D01*
X28377659Y15742880D01*
X28358409Y15877296D01*
X28358408Y15877300D01*
X28357649Y15882599D01*
X28349231Y15901115D01*
X28315766Y15974717D01*
X28298026Y16013734D01*
X28293538Y16018943D01*
X28207487Y16118810D01*
X28207484Y16118813D01*
X28203993Y16122864D01*
X28199502Y16125775D01*
X28087604Y16198303D01*
X28087603Y16198303D01*
X28083111Y16201215D01*
X28006912Y16224003D01*
X27950232Y16240955D01*
X27950229Y16240955D01*
X27945098Y16242490D01*
X27939743Y16242523D01*
X27939741Y16242523D01*
X27874524Y16242921D01*
X27801047Y16243370D01*
X27795897Y16241898D01*
X27795896Y16241898D01*
X27789255Y16240000D01*
X27662539Y16203785D01*
X27658013Y16200929D01*
X27658010Y16200928D01*
X27550756Y16133255D01*
X27540709Y16126916D01*
X27536975Y16122688D01*
X27448897Y16022959D01*
X27448895Y16022956D01*
X27445351Y16018943D01*
X27384129Y15888546D01*
X27383305Y15883256D01*
X27383305Y15883255D01*
X27375942Y15835963D01*
X27361967Y15746207D01*
X19060744Y15746207D01*
X19101682Y15830704D01*
X19101682Y15830705D01*
X19104020Y15835530D01*
X19127919Y15977587D01*
X19128071Y15990000D01*
X19127659Y15992880D01*
X19108409Y16127296D01*
X19108408Y16127300D01*
X19107649Y16132599D01*
X19097060Y16155890D01*
X19050245Y16258853D01*
X19048026Y16263734D01*
X19043538Y16268943D01*
X18957487Y16368810D01*
X18957484Y16368813D01*
X18953993Y16372864D01*
X18949502Y16375775D01*
X18837604Y16448303D01*
X18837603Y16448303D01*
X18833111Y16451215D01*
X18756912Y16474003D01*
X18700232Y16490955D01*
X18700229Y16490955D01*
X18695098Y16492490D01*
X18689743Y16492523D01*
X18689741Y16492523D01*
X18624524Y16492921D01*
X18551047Y16493370D01*
X18545897Y16491898D01*
X18545896Y16491898D01*
X18481793Y16473578D01*
X18412539Y16453785D01*
X18408013Y16450929D01*
X18408010Y16450928D01*
X18295237Y16379773D01*
X18290709Y16376916D01*
X18283550Y16368810D01*
X18198897Y16272959D01*
X18198895Y16272956D01*
X18195351Y16268943D01*
X18190614Y16258853D01*
X18147684Y16167416D01*
X18134129Y16138546D01*
X18133305Y16133256D01*
X18133305Y16133255D01*
X18131311Y16120449D01*
X18111967Y15996207D01*
X12022900Y15996207D01*
X12022900Y17146207D01*
X23761967Y17146207D01*
X23762661Y17140900D01*
X23762661Y17140897D01*
X23768317Y17097645D01*
X23780645Y17003370D01*
X23838662Y16871516D01*
X23842107Y16867418D01*
X23842108Y16867416D01*
X23864694Y16840547D01*
X23931354Y16761245D01*
X24051270Y16681423D01*
X24188769Y16638465D01*
X24262871Y16637107D01*
X24327436Y16635923D01*
X24327438Y16635923D01*
X24332798Y16635825D01*
X24348350Y16640065D01*
X24386592Y16650490D01*
X24437855Y16646230D01*
X24474386Y16610015D01*
X24480676Y16566369D01*
X24461967Y16446207D01*
X24462661Y16440900D01*
X24462661Y16440897D01*
X24463159Y16437091D01*
X24480645Y16303370D01*
X24538662Y16171516D01*
X24542107Y16167418D01*
X24542108Y16167416D01*
X24581588Y16120449D01*
X24631354Y16061245D01*
X24649732Y16049012D01*
X24720182Y16002117D01*
X24751270Y15981423D01*
X24888769Y15938465D01*
X24962871Y15937107D01*
X25027436Y15935923D01*
X25027438Y15935923D01*
X25032798Y15935825D01*
X25037969Y15937235D01*
X25037971Y15937235D01*
X25113695Y15957880D01*
X25171779Y15973715D01*
X25251981Y16022959D01*
X25289970Y16046284D01*
X25289973Y16046286D01*
X25294539Y16049090D01*
X25391210Y16155890D01*
X25396795Y16167416D01*
X25439118Y16254772D01*
X36712108Y16254772D01*
X36712416Y16251104D01*
X36712416Y16251101D01*
X36723199Y16122688D01*
X36729386Y16049012D01*
X36786301Y15850526D01*
X36880685Y15666875D01*
X37008942Y15505055D01*
X37011736Y15502677D01*
X37011737Y15502676D01*
X37069184Y15453785D01*
X37166188Y15371228D01*
X37169389Y15369439D01*
X37169392Y15369437D01*
X37189361Y15358277D01*
X37346433Y15270493D01*
X37349934Y15269356D01*
X37349935Y15269355D01*
X37360316Y15265982D01*
X37542811Y15206686D01*
X37614999Y15198078D01*
X37744185Y15182673D01*
X37744187Y15182673D01*
X37747843Y15182237D01*
X37953719Y15198078D01*
X38093963Y15237235D01*
X38149052Y15252616D01*
X38149054Y15252617D01*
X38152597Y15253606D01*
X38336902Y15346705D01*
X38485787Y15463027D01*
X38496715Y15471565D01*
X38499614Y15473830D01*
X38634535Y15630137D01*
X38680310Y15710715D01*
X38734711Y15806478D01*
X38734712Y15806479D01*
X38736527Y15809675D01*
X38801703Y16005603D01*
X38808358Y16058277D01*
X38823448Y16177729D01*
X38827583Y16210459D01*
X38827995Y16240000D01*
X38826188Y16258434D01*
X38808206Y16441832D01*
X38808205Y16441837D01*
X38807846Y16445499D01*
X38748165Y16643171D01*
X38651227Y16825485D01*
X38628733Y16853066D01*
X38523045Y16982651D01*
X38523044Y16982652D01*
X38520722Y16985499D01*
X38361623Y17117118D01*
X38343364Y17126991D01*
X38307824Y17146207D01*
X38256689Y17173856D01*
X38222538Y17212322D01*
X38221592Y17246207D01*
X41361967Y17246207D01*
X41362661Y17240900D01*
X41362661Y17240897D01*
X41366333Y17212820D01*
X41380645Y17103370D01*
X41438662Y16971516D01*
X41442107Y16967418D01*
X41442108Y16967416D01*
X41495596Y16903785D01*
X41531354Y16861245D01*
X41651270Y16781423D01*
X41788769Y16738465D01*
X41862871Y16737107D01*
X41927436Y16735923D01*
X41927438Y16735923D01*
X41932798Y16735825D01*
X41937969Y16737235D01*
X41937971Y16737235D01*
X42041081Y16765346D01*
X42071779Y16773715D01*
X42124871Y16806314D01*
X42189970Y16846284D01*
X42189973Y16846286D01*
X42194539Y16849090D01*
X42291210Y16955890D01*
X42296795Y16967416D01*
X42351682Y17080704D01*
X42351682Y17080705D01*
X42354020Y17085530D01*
X42377919Y17227587D01*
X42378071Y17240000D01*
X42377659Y17242880D01*
X42358409Y17377296D01*
X42358408Y17377300D01*
X42357649Y17382599D01*
X42298026Y17513734D01*
X42294528Y17517794D01*
X42207487Y17618810D01*
X42207484Y17618813D01*
X42203993Y17622864D01*
X42199502Y17625775D01*
X42087604Y17698303D01*
X42087603Y17698303D01*
X42083111Y17701215D01*
X41984133Y17730816D01*
X41950232Y17740955D01*
X41950229Y17740955D01*
X41945098Y17742490D01*
X41939743Y17742523D01*
X41939741Y17742523D01*
X41874524Y17742921D01*
X41801047Y17743370D01*
X41795897Y17741898D01*
X41795896Y17741898D01*
X41741739Y17726420D01*
X41662539Y17703785D01*
X41658013Y17700929D01*
X41658010Y17700928D01*
X41565392Y17642490D01*
X41540709Y17626916D01*
X41534296Y17619655D01*
X41448897Y17522959D01*
X41448895Y17522956D01*
X41445351Y17518943D01*
X41429848Y17485923D01*
X41398401Y17418943D01*
X41384129Y17388546D01*
X41383305Y17383256D01*
X41383305Y17383255D01*
X41381154Y17369437D01*
X41361967Y17246207D01*
X38221592Y17246207D01*
X38221102Y17263742D01*
X38253053Y17304055D01*
X38258551Y17307127D01*
X38333618Y17345046D01*
X38333619Y17345047D01*
X38336902Y17346705D01*
X38499614Y17473830D01*
X38634535Y17630137D01*
X38636354Y17633339D01*
X38734711Y17806478D01*
X38734712Y17806479D01*
X38736527Y17809675D01*
X38801703Y18005603D01*
X38804602Y18028546D01*
X38827319Y18208370D01*
X38827583Y18210459D01*
X38827995Y18240000D01*
X38826151Y18258810D01*
X38808206Y18441832D01*
X38808205Y18441837D01*
X38807846Y18445499D01*
X38748165Y18643171D01*
X38651227Y18825485D01*
X38628733Y18853066D01*
X38523045Y18982651D01*
X38523044Y18982652D01*
X38520722Y18985499D01*
X38361623Y19117118D01*
X38179990Y19215327D01*
X37982739Y19276386D01*
X37854065Y19289910D01*
X37781041Y19297585D01*
X37781039Y19297585D01*
X37777386Y19297969D01*
X37571752Y19279255D01*
X37477438Y19251497D01*
X37377197Y19221995D01*
X37377194Y19221994D01*
X37373668Y19220956D01*
X37370411Y19219253D01*
X37370408Y19219252D01*
X37337246Y19201915D01*
X37190681Y19125292D01*
X37187815Y19122987D01*
X37187814Y19122987D01*
X37073931Y19031423D01*
X37029760Y18995909D01*
X36897034Y18837732D01*
X36797559Y18656789D01*
X36735125Y18459970D01*
X36712108Y18254772D01*
X36712416Y18251104D01*
X36712416Y18251101D01*
X36725036Y18100813D01*
X36729386Y18049012D01*
X36750690Y17974717D01*
X36782634Y17863316D01*
X36786301Y17850526D01*
X36880685Y17666875D01*
X37008942Y17505055D01*
X37011736Y17502677D01*
X37011737Y17502676D01*
X37053774Y17466900D01*
X37166188Y17371228D01*
X37169389Y17369439D01*
X37169392Y17369437D01*
X37283988Y17305392D01*
X37317600Y17266452D01*
X37318318Y17215017D01*
X37282143Y17173108D01*
X37190681Y17125292D01*
X37187815Y17122987D01*
X37187814Y17122987D01*
X37032933Y16998460D01*
X37029760Y16995909D01*
X36897034Y16837732D01*
X36895263Y16834510D01*
X36895262Y16834509D01*
X36890301Y16825485D01*
X36797559Y16656789D01*
X36735125Y16459970D01*
X36712108Y16254772D01*
X25439118Y16254772D01*
X25451682Y16280704D01*
X25451682Y16280705D01*
X25454020Y16285530D01*
X25477919Y16427587D01*
X25478071Y16440000D01*
X25477659Y16442880D01*
X25458409Y16577296D01*
X25458408Y16577300D01*
X25457649Y16582599D01*
X25432249Y16638465D01*
X25400245Y16708853D01*
X25398026Y16713734D01*
X25378907Y16735923D01*
X25307487Y16818810D01*
X25307484Y16818813D01*
X25303993Y16822864D01*
X25249357Y16858277D01*
X25187604Y16898303D01*
X25187603Y16898303D01*
X25183111Y16901215D01*
X25106912Y16924003D01*
X25050232Y16940955D01*
X25050229Y16940955D01*
X25045098Y16942490D01*
X25039743Y16942523D01*
X25039741Y16942523D01*
X24974524Y16942921D01*
X24901047Y16943370D01*
X24853737Y16929849D01*
X24802428Y16933482D01*
X24765456Y16969247D01*
X24758916Y17014630D01*
X24773845Y17103370D01*
X24777919Y17127587D01*
X24778071Y17140000D01*
X24777659Y17142880D01*
X24758409Y17277296D01*
X24758408Y17277300D01*
X24757649Y17282599D01*
X24739767Y17321930D01*
X24700245Y17408853D01*
X24698026Y17413734D01*
X24693538Y17418943D01*
X24607487Y17518810D01*
X24607484Y17518813D01*
X24603993Y17522864D01*
X24598354Y17526519D01*
X24487604Y17598303D01*
X24487603Y17598303D01*
X24483111Y17601215D01*
X24400989Y17625775D01*
X24350232Y17640955D01*
X24350229Y17640955D01*
X24345098Y17642490D01*
X24339743Y17642523D01*
X24339741Y17642523D01*
X24274524Y17642921D01*
X24201047Y17643370D01*
X24195897Y17641898D01*
X24195896Y17641898D01*
X24153471Y17629773D01*
X24062539Y17603785D01*
X24058013Y17600929D01*
X24058010Y17600928D01*
X23952559Y17534393D01*
X23940709Y17526916D01*
X23936638Y17522306D01*
X23848897Y17422959D01*
X23848895Y17422956D01*
X23845351Y17418943D01*
X23830577Y17387476D01*
X23791411Y17304055D01*
X23784129Y17288546D01*
X23783305Y17283256D01*
X23783305Y17283255D01*
X23777537Y17246207D01*
X23761967Y17146207D01*
X12022900Y17146207D01*
X12022900Y17996207D01*
X15634369Y17996207D01*
X15635063Y17990900D01*
X15635063Y17990897D01*
X15636629Y17978923D01*
X15653047Y17853370D01*
X15673680Y17806478D01*
X15701463Y17743337D01*
X15711064Y17721516D01*
X15714509Y17717418D01*
X15714510Y17717416D01*
X15742063Y17684638D01*
X15803756Y17611245D01*
X15923672Y17531423D01*
X16061171Y17488465D01*
X16135273Y17487107D01*
X16199838Y17485923D01*
X16199840Y17485923D01*
X16205200Y17485825D01*
X16210371Y17487235D01*
X16210373Y17487235D01*
X16289667Y17508853D01*
X16344181Y17523715D01*
X16397273Y17556314D01*
X16462372Y17596284D01*
X16462375Y17596286D01*
X16466941Y17599090D01*
X16495044Y17630137D01*
X16560014Y17701915D01*
X16563612Y17705890D01*
X16569197Y17717416D01*
X16624084Y17830704D01*
X16624084Y17830705D01*
X16626422Y17835530D01*
X16634948Y17886207D01*
X31091967Y17886207D01*
X31092661Y17880900D01*
X31092661Y17880897D01*
X31098594Y17835530D01*
X31110645Y17743370D01*
X31136488Y17684638D01*
X31165453Y17618810D01*
X31168662Y17611516D01*
X31172107Y17607418D01*
X31172108Y17607416D01*
X31181797Y17595890D01*
X31261354Y17501245D01*
X31381270Y17421423D01*
X31518769Y17378465D01*
X31592871Y17377107D01*
X31657436Y17375923D01*
X31657438Y17375923D01*
X31662798Y17375825D01*
X31667969Y17377235D01*
X31667971Y17377235D01*
X31783945Y17408853D01*
X31801779Y17413715D01*
X31883655Y17463987D01*
X31919970Y17486284D01*
X31919973Y17486286D01*
X31924539Y17489090D01*
X31936837Y17502676D01*
X32017612Y17591915D01*
X32021210Y17595890D01*
X32046850Y17648811D01*
X32083756Y17684638D01*
X32135061Y17688361D01*
X32176756Y17658235D01*
X32183352Y17646310D01*
X32198662Y17611516D01*
X32202107Y17607418D01*
X32202108Y17607416D01*
X32211797Y17595890D01*
X32291354Y17501245D01*
X32411270Y17421423D01*
X32548769Y17378465D01*
X32622871Y17377107D01*
X32687436Y17375923D01*
X32687438Y17375923D01*
X32692798Y17375825D01*
X32697969Y17377235D01*
X32697971Y17377235D01*
X32813945Y17408853D01*
X32831779Y17413715D01*
X32913655Y17463987D01*
X32943981Y17482607D01*
X34289567Y17482607D01*
X34290261Y17477300D01*
X34290261Y17477297D01*
X34290759Y17473491D01*
X34308245Y17339770D01*
X34323372Y17305392D01*
X34357607Y17227587D01*
X34366262Y17207916D01*
X34369707Y17203818D01*
X34369708Y17203816D01*
X34413687Y17151497D01*
X34458954Y17097645D01*
X34578870Y17017823D01*
X34716369Y16974865D01*
X34790471Y16973507D01*
X34855036Y16972323D01*
X34855038Y16972323D01*
X34860398Y16972225D01*
X34865569Y16973635D01*
X34865571Y16973635D01*
X34974638Y17003370D01*
X34999379Y17010115D01*
X35052471Y17042714D01*
X35117570Y17082684D01*
X35117573Y17082686D01*
X35122139Y17085490D01*
X35160244Y17127587D01*
X35215212Y17188315D01*
X35218810Y17192290D01*
X35224395Y17203816D01*
X35279282Y17317104D01*
X35279282Y17317105D01*
X35281620Y17321930D01*
X35305519Y17463987D01*
X35305671Y17476400D01*
X35305259Y17479280D01*
X35286009Y17613696D01*
X35286008Y17613700D01*
X35285249Y17618999D01*
X35282169Y17625775D01*
X35229799Y17740955D01*
X35225626Y17750134D01*
X35221138Y17755343D01*
X35135087Y17855210D01*
X35135084Y17855213D01*
X35131593Y17859264D01*
X35127102Y17862175D01*
X35015204Y17934703D01*
X35015203Y17934703D01*
X35010711Y17937615D01*
X34934512Y17960403D01*
X34877832Y17977355D01*
X34877829Y17977355D01*
X34872698Y17978890D01*
X34867343Y17978923D01*
X34867341Y17978923D01*
X34802124Y17979321D01*
X34728647Y17979770D01*
X34723497Y17978298D01*
X34723496Y17978298D01*
X34659393Y17959978D01*
X34590139Y17940185D01*
X34585613Y17937329D01*
X34585610Y17937328D01*
X34490141Y17877091D01*
X34468309Y17863316D01*
X34464222Y17858688D01*
X34376497Y17759359D01*
X34376495Y17759356D01*
X34372951Y17755343D01*
X34359372Y17726420D01*
X34315670Y17633339D01*
X34311729Y17624946D01*
X34310905Y17619656D01*
X34310905Y17619655D01*
X34308663Y17605257D01*
X34289567Y17482607D01*
X32943981Y17482607D01*
X32949970Y17486284D01*
X32949973Y17486286D01*
X32954539Y17489090D01*
X32966837Y17502676D01*
X33047612Y17591915D01*
X33051210Y17595890D01*
X33055749Y17605257D01*
X33111682Y17720704D01*
X33111682Y17720705D01*
X33114020Y17725530D01*
X33137919Y17867587D01*
X33138071Y17880000D01*
X33137659Y17882880D01*
X33118409Y18017296D01*
X33118408Y18017300D01*
X33117649Y18022599D01*
X33058026Y18153734D01*
X33053538Y18158943D01*
X32967487Y18258810D01*
X32967484Y18258813D01*
X32963993Y18262864D01*
X32959502Y18265775D01*
X32847604Y18338303D01*
X32847603Y18338303D01*
X32843111Y18341215D01*
X32766912Y18364003D01*
X32710232Y18380955D01*
X32710229Y18380955D01*
X32705098Y18382490D01*
X32699743Y18382523D01*
X32699741Y18382523D01*
X32634524Y18382921D01*
X32561047Y18383370D01*
X32555897Y18381898D01*
X32555896Y18381898D01*
X32491793Y18363577D01*
X32422539Y18343785D01*
X32418013Y18340929D01*
X32418010Y18340928D01*
X32305237Y18269773D01*
X32300709Y18266916D01*
X32293588Y18258853D01*
X32208897Y18162959D01*
X32208895Y18162956D01*
X32205351Y18158943D01*
X32203075Y18154096D01*
X32203074Y18154094D01*
X32183228Y18111824D01*
X32146759Y18075546D01*
X32095503Y18071198D01*
X32053444Y18100813D01*
X32046705Y18112651D01*
X32028026Y18153734D01*
X32023538Y18158943D01*
X31937487Y18258810D01*
X31937484Y18258813D01*
X31933993Y18262864D01*
X31929502Y18265775D01*
X31817604Y18338303D01*
X31817603Y18338303D01*
X31813111Y18341215D01*
X31736912Y18364003D01*
X31680232Y18380955D01*
X31680229Y18380955D01*
X31675098Y18382490D01*
X31669743Y18382523D01*
X31669741Y18382523D01*
X31604524Y18382921D01*
X31531047Y18383370D01*
X31525897Y18381898D01*
X31525896Y18381898D01*
X31461793Y18363577D01*
X31392539Y18343785D01*
X31388013Y18340929D01*
X31388010Y18340928D01*
X31275237Y18269773D01*
X31270709Y18266916D01*
X31263588Y18258853D01*
X31178897Y18162959D01*
X31178895Y18162956D01*
X31175351Y18158943D01*
X31170615Y18148856D01*
X31125460Y18052679D01*
X31114129Y18028546D01*
X31113305Y18023256D01*
X31113305Y18023255D01*
X31106403Y17978923D01*
X31091967Y17886207D01*
X16634948Y17886207D01*
X16650321Y17977587D01*
X16650473Y17990000D01*
X16650061Y17992880D01*
X16630811Y18127296D01*
X16630810Y18127300D01*
X16630051Y18132599D01*
X16622660Y18148856D01*
X16572647Y18258853D01*
X16570428Y18263734D01*
X16565940Y18268943D01*
X16479889Y18368810D01*
X16479886Y18368813D01*
X16476395Y18372864D01*
X16471904Y18375775D01*
X16360006Y18448303D01*
X16360005Y18448303D01*
X16355513Y18451215D01*
X16279314Y18474003D01*
X16222634Y18490955D01*
X16222631Y18490955D01*
X16217500Y18492490D01*
X16212145Y18492523D01*
X16212143Y18492523D01*
X16146926Y18492921D01*
X16073449Y18493370D01*
X16068299Y18491898D01*
X16068298Y18491898D01*
X16004195Y18473578D01*
X15934941Y18453785D01*
X15930415Y18450929D01*
X15930412Y18450928D01*
X15821945Y18382490D01*
X15813111Y18376916D01*
X15805952Y18368810D01*
X15721299Y18272959D01*
X15721297Y18272956D01*
X15717753Y18268943D01*
X15714917Y18262903D01*
X15661372Y18148856D01*
X15656531Y18138546D01*
X15655707Y18133256D01*
X15655707Y18133255D01*
X15652370Y18111824D01*
X15634369Y17996207D01*
X12022900Y17996207D01*
X12022900Y19746207D01*
X18111967Y19746207D01*
X18112661Y19740900D01*
X18112661Y19740897D01*
X18118297Y19697796D01*
X18130645Y19603370D01*
X18188662Y19471516D01*
X18192107Y19467418D01*
X18192108Y19467416D01*
X18245923Y19403396D01*
X18281354Y19361245D01*
X18401270Y19281423D01*
X18538769Y19238465D01*
X18612871Y19237107D01*
X18677436Y19235923D01*
X18677438Y19235923D01*
X18682798Y19235825D01*
X18687969Y19237235D01*
X18687971Y19237235D01*
X18763695Y19257880D01*
X18821779Y19273715D01*
X18894611Y19318434D01*
X18939970Y19346284D01*
X18939973Y19346286D01*
X18944539Y19349090D01*
X19041210Y19455890D01*
X19043805Y19461245D01*
X19060744Y19496207D01*
X23611967Y19496207D01*
X23612661Y19490900D01*
X23612661Y19490897D01*
X23616539Y19461245D01*
X23630645Y19353370D01*
X23688662Y19221516D01*
X23692107Y19217418D01*
X23692108Y19217416D01*
X23697741Y19210715D01*
X23781354Y19111245D01*
X23901270Y19031423D01*
X24038769Y18988465D01*
X24112871Y18987107D01*
X24177436Y18985923D01*
X24177438Y18985923D01*
X24182798Y18985825D01*
X24187969Y18987235D01*
X24187971Y18987235D01*
X24263695Y19007880D01*
X24321779Y19023715D01*
X24414595Y19080704D01*
X24439970Y19096284D01*
X24439973Y19096286D01*
X24444539Y19099090D01*
X24541210Y19205890D01*
X24544936Y19213579D01*
X24601682Y19330704D01*
X24601682Y19330705D01*
X24604020Y19335530D01*
X24627919Y19477587D01*
X24628071Y19490000D01*
X24627659Y19492880D01*
X24627183Y19496207D01*
X24861967Y19496207D01*
X24862661Y19490900D01*
X24862661Y19490897D01*
X24866539Y19461245D01*
X24880645Y19353370D01*
X24938662Y19221516D01*
X24942107Y19217418D01*
X24942108Y19217416D01*
X24947741Y19210715D01*
X25031354Y19111245D01*
X25151270Y19031423D01*
X25288769Y18988465D01*
X25362871Y18987107D01*
X25427436Y18985923D01*
X25427438Y18985923D01*
X25432798Y18985825D01*
X25437969Y18987235D01*
X25437971Y18987235D01*
X25513695Y19007880D01*
X25571779Y19023715D01*
X25664595Y19080704D01*
X25689970Y19096284D01*
X25689973Y19096286D01*
X25694539Y19099090D01*
X25791210Y19205890D01*
X25794936Y19213579D01*
X25810744Y19246207D01*
X27761967Y19246207D01*
X27762661Y19240900D01*
X27762661Y19240897D01*
X27766608Y19210715D01*
X27780645Y19103370D01*
X27838662Y18971516D01*
X27931354Y18861245D01*
X28051270Y18781423D01*
X28188769Y18738465D01*
X28262871Y18737107D01*
X28327436Y18735923D01*
X28327438Y18735923D01*
X28332798Y18735825D01*
X28337969Y18737235D01*
X28337971Y18737235D01*
X28413695Y18757880D01*
X28471779Y18773715D01*
X28556095Y18825485D01*
X28589970Y18846284D01*
X28589973Y18846286D01*
X28594539Y18849090D01*
X28691210Y18955890D01*
X28696795Y18967416D01*
X28751682Y19080704D01*
X28751682Y19080705D01*
X28754020Y19085530D01*
X28777919Y19227587D01*
X28778071Y19240000D01*
X28777659Y19242880D01*
X28758409Y19377296D01*
X28758408Y19377300D01*
X28757649Y19382599D01*
X28728694Y19446284D01*
X28715766Y19474717D01*
X28698026Y19513734D01*
X28693538Y19518943D01*
X28607487Y19618810D01*
X28607484Y19618813D01*
X28603993Y19622864D01*
X28599502Y19625775D01*
X28487604Y19698303D01*
X28487603Y19698303D01*
X28483111Y19701215D01*
X28394930Y19727587D01*
X28350232Y19740955D01*
X28350229Y19740955D01*
X28345098Y19742490D01*
X28339743Y19742523D01*
X28339741Y19742523D01*
X28274524Y19742921D01*
X28201047Y19743370D01*
X28195897Y19741898D01*
X28195896Y19741898D01*
X28156015Y19730500D01*
X28062539Y19703785D01*
X28058013Y19700929D01*
X28058010Y19700928D01*
X27950756Y19633255D01*
X27940709Y19626916D01*
X27933550Y19618810D01*
X27848897Y19522959D01*
X27848895Y19522956D01*
X27845351Y19518943D01*
X27784129Y19388546D01*
X27783305Y19383256D01*
X27783305Y19383255D01*
X27776581Y19340065D01*
X27761967Y19246207D01*
X25810744Y19246207D01*
X25851682Y19330704D01*
X25851682Y19330705D01*
X25854020Y19335530D01*
X25877919Y19477587D01*
X25878071Y19490000D01*
X25877659Y19492880D01*
X25858409Y19627296D01*
X25858408Y19627300D01*
X25857649Y19632599D01*
X25834952Y19682520D01*
X25802631Y19753606D01*
X25798026Y19763734D01*
X25792202Y19770493D01*
X25726963Y19846207D01*
X26161967Y19846207D01*
X26162661Y19840900D01*
X26162661Y19840897D01*
X26163159Y19837091D01*
X26180645Y19703370D01*
X26238662Y19571516D01*
X26242107Y19567418D01*
X26242108Y19567416D01*
X26279478Y19522959D01*
X26331354Y19461245D01*
X26353830Y19446284D01*
X26442177Y19387476D01*
X26451270Y19381423D01*
X26588769Y19338465D01*
X26662871Y19337107D01*
X26727436Y19335923D01*
X26727438Y19335923D01*
X26732798Y19335825D01*
X26737969Y19337235D01*
X26737971Y19337235D01*
X26841081Y19365346D01*
X26871779Y19373715D01*
X26924871Y19406314D01*
X26989970Y19446284D01*
X26989973Y19446286D01*
X26994539Y19449090D01*
X27005062Y19460715D01*
X27087612Y19551915D01*
X27091210Y19555890D01*
X27096795Y19567416D01*
X27151682Y19680704D01*
X27151682Y19680705D01*
X27154020Y19685530D01*
X27177919Y19827587D01*
X27178071Y19840000D01*
X27177659Y19842880D01*
X27158409Y19977296D01*
X27158408Y19977300D01*
X27157649Y19982599D01*
X27146131Y20007933D01*
X27100245Y20108853D01*
X27098026Y20113734D01*
X27094528Y20117794D01*
X27007487Y20218810D01*
X27007484Y20218813D01*
X27003993Y20222864D01*
X26999502Y20225775D01*
X26887604Y20298303D01*
X26887603Y20298303D01*
X26883111Y20301215D01*
X26806912Y20324003D01*
X26750232Y20340955D01*
X26750229Y20340955D01*
X26745098Y20342490D01*
X26739743Y20342523D01*
X26739741Y20342523D01*
X26674524Y20342921D01*
X26601047Y20343370D01*
X26595897Y20341898D01*
X26595896Y20341898D01*
X26531793Y20323577D01*
X26462539Y20303785D01*
X26458013Y20300929D01*
X26458010Y20300928D01*
X26365392Y20242490D01*
X26340709Y20226916D01*
X26333550Y20218810D01*
X26248897Y20122959D01*
X26248895Y20122956D01*
X26245351Y20118943D01*
X26240614Y20108853D01*
X26198401Y20018943D01*
X26184129Y19988546D01*
X26183305Y19983256D01*
X26183305Y19983255D01*
X26178946Y19955257D01*
X26161967Y19846207D01*
X25726963Y19846207D01*
X25707487Y19868810D01*
X25707484Y19868813D01*
X25703993Y19872864D01*
X25699502Y19875775D01*
X25587604Y19948303D01*
X25587603Y19948303D01*
X25583111Y19951215D01*
X25495903Y19977296D01*
X25450232Y19990955D01*
X25450229Y19990955D01*
X25445098Y19992490D01*
X25439743Y19992523D01*
X25439741Y19992523D01*
X25374524Y19992921D01*
X25301047Y19993370D01*
X25295897Y19991898D01*
X25295896Y19991898D01*
X25263359Y19982599D01*
X25162539Y19953785D01*
X25158013Y19950929D01*
X25158010Y19950928D01*
X25050756Y19883255D01*
X25040709Y19876916D01*
X25035686Y19871228D01*
X24948897Y19772959D01*
X24948895Y19772956D01*
X24945351Y19768943D01*
X24884129Y19638546D01*
X24883305Y19633256D01*
X24883305Y19633255D01*
X24875942Y19585963D01*
X24861967Y19496207D01*
X24627183Y19496207D01*
X24608409Y19627296D01*
X24608408Y19627300D01*
X24607649Y19632599D01*
X24584952Y19682520D01*
X24552631Y19753606D01*
X24548026Y19763734D01*
X24542202Y19770493D01*
X24457487Y19868810D01*
X24457484Y19868813D01*
X24453993Y19872864D01*
X24449502Y19875775D01*
X24337604Y19948303D01*
X24337603Y19948303D01*
X24333111Y19951215D01*
X24245903Y19977296D01*
X24200232Y19990955D01*
X24200229Y19990955D01*
X24195098Y19992490D01*
X24189743Y19992523D01*
X24189741Y19992523D01*
X24124524Y19992921D01*
X24051047Y19993370D01*
X24045897Y19991898D01*
X24045896Y19991898D01*
X24013359Y19982599D01*
X23912539Y19953785D01*
X23908013Y19950929D01*
X23908010Y19950928D01*
X23800756Y19883255D01*
X23790709Y19876916D01*
X23785686Y19871228D01*
X23698897Y19772959D01*
X23698895Y19772956D01*
X23695351Y19768943D01*
X23634129Y19638546D01*
X23633305Y19633256D01*
X23633305Y19633255D01*
X23625942Y19585963D01*
X23611967Y19496207D01*
X19060744Y19496207D01*
X19101682Y19580704D01*
X19101682Y19580705D01*
X19104020Y19585530D01*
X19127919Y19727587D01*
X19128071Y19740000D01*
X19127659Y19742880D01*
X19108409Y19877296D01*
X19108408Y19877300D01*
X19107649Y19882599D01*
X19077776Y19948303D01*
X19051972Y20005055D01*
X19048026Y20013734D01*
X19042417Y20020244D01*
X18957487Y20118810D01*
X18957484Y20118813D01*
X18953993Y20122864D01*
X18949502Y20125775D01*
X18837604Y20198303D01*
X18837603Y20198303D01*
X18833111Y20201215D01*
X18750989Y20225775D01*
X18700232Y20240955D01*
X18700229Y20240955D01*
X18695098Y20242490D01*
X18689743Y20242523D01*
X18689741Y20242523D01*
X18624524Y20242921D01*
X18551047Y20243370D01*
X18545897Y20241898D01*
X18545896Y20241898D01*
X18503471Y20229773D01*
X18412539Y20203785D01*
X18408013Y20200929D01*
X18408010Y20200928D01*
X18295814Y20130137D01*
X18290709Y20126916D01*
X18283668Y20118943D01*
X18198897Y20022959D01*
X18198895Y20022956D01*
X18195351Y20018943D01*
X18134129Y19888546D01*
X18133305Y19883256D01*
X18133305Y19883255D01*
X18127967Y19848970D01*
X18111967Y19746207D01*
X12022900Y19746207D01*
X12022900Y21264813D01*
X34561908Y21264813D01*
X34562602Y21259506D01*
X34562602Y21259503D01*
X34565533Y21237091D01*
X34580586Y21121976D01*
X34638603Y20990122D01*
X34642048Y20986024D01*
X34642049Y20986022D01*
X34651738Y20974496D01*
X34731295Y20879851D01*
X34851211Y20800029D01*
X34988710Y20757071D01*
X35062812Y20755713D01*
X35127377Y20754529D01*
X35127379Y20754529D01*
X35132739Y20754431D01*
X35133990Y20754772D01*
X36712108Y20754772D01*
X36712416Y20751104D01*
X36712416Y20751101D01*
X36715829Y20710459D01*
X36729386Y20549012D01*
X36786301Y20350526D01*
X36880685Y20166875D01*
X37008942Y20005055D01*
X37011736Y20002677D01*
X37011737Y20002676D01*
X37067454Y19955257D01*
X37166188Y19871228D01*
X37169389Y19869439D01*
X37169392Y19869437D01*
X37244275Y19827587D01*
X37346433Y19770493D01*
X37349934Y19769356D01*
X37349935Y19769355D01*
X37382257Y19758853D01*
X37542811Y19706686D01*
X37614999Y19698078D01*
X37744185Y19682673D01*
X37744187Y19682673D01*
X37747843Y19682237D01*
X37953719Y19698078D01*
X38107079Y19740897D01*
X38149052Y19752616D01*
X38149054Y19752617D01*
X38152597Y19753606D01*
X38299055Y19827587D01*
X38333618Y19845046D01*
X38333619Y19845047D01*
X38336902Y19846705D01*
X38499614Y19973830D01*
X38560745Y20044650D01*
X38605647Y20069746D01*
X38656176Y20060107D01*
X38688687Y20020244D01*
X38688340Y19970536D01*
X38688162Y19970154D01*
X38631421Y19758395D01*
X38612314Y19540000D01*
X38631421Y19321605D01*
X38688162Y19109846D01*
X38689549Y19106872D01*
X38689551Y19106866D01*
X38742604Y18993094D01*
X38780812Y18911157D01*
X38906557Y18731575D01*
X39061575Y18576557D01*
X39241157Y18450812D01*
X39244134Y18449424D01*
X39436866Y18359551D01*
X39436872Y18359549D01*
X39439846Y18358162D01*
X39651605Y18301421D01*
X39870000Y18282314D01*
X40088395Y18301421D01*
X40300154Y18358162D01*
X40303128Y18359549D01*
X40303134Y18359551D01*
X40495866Y18449424D01*
X40498843Y18450812D01*
X40678425Y18576557D01*
X40833443Y18731575D01*
X40959188Y18911157D01*
X40997396Y18993094D01*
X41050449Y19106866D01*
X41050451Y19106872D01*
X41051838Y19109846D01*
X41108579Y19321605D01*
X41127686Y19540000D01*
X41108579Y19758395D01*
X41051838Y19970154D01*
X41050451Y19973128D01*
X41050449Y19973134D01*
X40960576Y20165866D01*
X40959188Y20168843D01*
X40833443Y20348425D01*
X40678425Y20503443D01*
X40498843Y20629188D01*
X40448244Y20652783D01*
X40303134Y20720449D01*
X40303128Y20720451D01*
X40300154Y20721838D01*
X40088395Y20778579D01*
X39870000Y20797686D01*
X39651605Y20778579D01*
X39439846Y20721838D01*
X39436872Y20720451D01*
X39436866Y20720449D01*
X39291756Y20652783D01*
X39241157Y20629188D01*
X39061575Y20503443D01*
X38906557Y20348425D01*
X38902863Y20343150D01*
X38860729Y20313645D01*
X38809485Y20318126D01*
X38773110Y20354499D01*
X38769907Y20410018D01*
X38800543Y20502114D01*
X38800544Y20502120D01*
X38801703Y20505603D01*
X38827583Y20710459D01*
X38827938Y20735923D01*
X38827966Y20737901D01*
X38827966Y20737906D01*
X38827995Y20740000D01*
X38826580Y20754431D01*
X38808206Y20941832D01*
X38808205Y20941837D01*
X38807846Y20945499D01*
X38748165Y21143171D01*
X38693380Y21246207D01*
X41361967Y21246207D01*
X41362661Y21240900D01*
X41362661Y21240897D01*
X41363159Y21237091D01*
X41380645Y21103370D01*
X41438662Y20971516D01*
X41531354Y20861245D01*
X41553830Y20846284D01*
X41630686Y20795125D01*
X41651270Y20781423D01*
X41788769Y20738465D01*
X41862871Y20737107D01*
X41927436Y20735923D01*
X41927438Y20735923D01*
X41932798Y20735825D01*
X41937969Y20737235D01*
X41937971Y20737235D01*
X42016597Y20758671D01*
X42071779Y20773715D01*
X42124871Y20806314D01*
X42189970Y20846284D01*
X42189973Y20846286D01*
X42194539Y20849090D01*
X42281805Y20945499D01*
X42287612Y20951915D01*
X42291210Y20955890D01*
X42296795Y20967416D01*
X42351682Y21080704D01*
X42351682Y21080705D01*
X42354020Y21085530D01*
X42377919Y21227587D01*
X42378071Y21240000D01*
X42377659Y21242880D01*
X42358409Y21377296D01*
X42358408Y21377300D01*
X42357649Y21382599D01*
X42349190Y21401205D01*
X42312158Y21482651D01*
X42298026Y21513734D01*
X42290640Y21522306D01*
X42207487Y21618810D01*
X42207484Y21618813D01*
X42203993Y21622864D01*
X42199502Y21625775D01*
X42087604Y21698303D01*
X42087603Y21698303D01*
X42083111Y21701215D01*
X41998832Y21726420D01*
X41950232Y21740955D01*
X41950229Y21740955D01*
X41945098Y21742490D01*
X41939743Y21742523D01*
X41939741Y21742523D01*
X41874524Y21742921D01*
X41801047Y21743370D01*
X41795897Y21741898D01*
X41795896Y21741898D01*
X41741739Y21726420D01*
X41662539Y21703785D01*
X41658013Y21700929D01*
X41658010Y21700928D01*
X41557350Y21637416D01*
X41540709Y21626916D01*
X41533602Y21618869D01*
X41448897Y21522959D01*
X41448895Y21522956D01*
X41445351Y21518943D01*
X41430750Y21487845D01*
X41387583Y21395902D01*
X41384129Y21388546D01*
X41361967Y21246207D01*
X38693380Y21246207D01*
X38651227Y21325485D01*
X38599796Y21388546D01*
X38523045Y21482651D01*
X38523044Y21482652D01*
X38520722Y21485499D01*
X38361623Y21617118D01*
X38345613Y21625775D01*
X38302740Y21648956D01*
X38179990Y21715327D01*
X37982739Y21776386D01*
X37854065Y21789910D01*
X37781041Y21797585D01*
X37781039Y21797585D01*
X37777386Y21797969D01*
X37571752Y21779255D01*
X37472710Y21750105D01*
X37377197Y21721995D01*
X37377194Y21721994D01*
X37373668Y21720956D01*
X37370411Y21719253D01*
X37370408Y21719252D01*
X37199252Y21629773D01*
X37190681Y21625292D01*
X37187815Y21622987D01*
X37187814Y21622987D01*
X37056980Y21517794D01*
X37029760Y21495909D01*
X36897034Y21337732D01*
X36797559Y21156789D01*
X36735125Y20959970D01*
X36712108Y20754772D01*
X35133990Y20754772D01*
X35137910Y20755841D01*
X35137912Y20755841D01*
X35242640Y20784393D01*
X35271720Y20792321D01*
X35324812Y20824920D01*
X35389911Y20864890D01*
X35389914Y20864892D01*
X35394480Y20867696D01*
X35491151Y20974496D01*
X35496736Y20986022D01*
X35551623Y21099310D01*
X35551623Y21099311D01*
X35553961Y21104136D01*
X35577860Y21246193D01*
X35578012Y21258606D01*
X35577600Y21261486D01*
X35558350Y21395902D01*
X35558349Y21395906D01*
X35557590Y21401205D01*
X35497967Y21532340D01*
X35493479Y21537549D01*
X35407428Y21637416D01*
X35407425Y21637419D01*
X35403934Y21641470D01*
X35399443Y21644381D01*
X35287545Y21716909D01*
X35287544Y21716909D01*
X35283052Y21719821D01*
X35204310Y21743370D01*
X35150173Y21759561D01*
X35150170Y21759561D01*
X35145039Y21761096D01*
X35139684Y21761129D01*
X35139682Y21761129D01*
X35074465Y21761527D01*
X35000988Y21761976D01*
X34995838Y21760504D01*
X34995837Y21760504D01*
X34935886Y21743370D01*
X34862480Y21722391D01*
X34857954Y21719535D01*
X34857951Y21719534D01*
X34745178Y21648379D01*
X34740650Y21645522D01*
X34733491Y21637416D01*
X34648838Y21541565D01*
X34648836Y21541562D01*
X34645292Y21537549D01*
X34584070Y21407152D01*
X34583246Y21401862D01*
X34583246Y21401861D01*
X34581173Y21388546D01*
X34561908Y21264813D01*
X12022900Y21264813D01*
X12022900Y21996207D01*
X21861967Y21996207D01*
X21862661Y21990900D01*
X21862661Y21990897D01*
X21863159Y21987091D01*
X21880645Y21853370D01*
X21916086Y21772825D01*
X21929061Y21743337D01*
X21938662Y21721516D01*
X21942107Y21717418D01*
X21942108Y21717416D01*
X21955968Y21700928D01*
X22031354Y21611245D01*
X22151270Y21531423D01*
X22288769Y21488465D01*
X22362871Y21487107D01*
X22427436Y21485923D01*
X22427438Y21485923D01*
X22432798Y21485825D01*
X22437969Y21487235D01*
X22437971Y21487235D01*
X22517265Y21508853D01*
X22571779Y21523715D01*
X22624871Y21556314D01*
X22689970Y21596284D01*
X22689973Y21596286D01*
X22694539Y21599090D01*
X22791210Y21705890D01*
X22794936Y21713579D01*
X22851682Y21830704D01*
X22851682Y21830705D01*
X22854020Y21835530D01*
X22877919Y21977587D01*
X22878071Y21990000D01*
X22877659Y21992880D01*
X22858409Y22127296D01*
X22858408Y22127300D01*
X22857649Y22132599D01*
X22798026Y22263734D01*
X22790640Y22272306D01*
X22707487Y22368810D01*
X22707484Y22368813D01*
X22703993Y22372864D01*
X22699502Y22375775D01*
X22587604Y22448303D01*
X22587603Y22448303D01*
X22583111Y22451215D01*
X22498832Y22476420D01*
X22450232Y22490955D01*
X22450229Y22490955D01*
X22445098Y22492490D01*
X22439743Y22492523D01*
X22439741Y22492523D01*
X22374524Y22492921D01*
X22301047Y22493370D01*
X22295897Y22491898D01*
X22295896Y22491898D01*
X22241739Y22476420D01*
X22162539Y22453785D01*
X22158013Y22450929D01*
X22158010Y22450928D01*
X22088145Y22406846D01*
X22040709Y22376916D01*
X22033550Y22368810D01*
X21948897Y22272959D01*
X21948895Y22272956D01*
X21945351Y22268943D01*
X21884129Y22138546D01*
X21861967Y21996207D01*
X12022900Y21996207D01*
X12022900Y22746207D01*
X24861967Y22746207D01*
X24862661Y22740900D01*
X24862661Y22740897D01*
X24863393Y22735303D01*
X24880645Y22603370D01*
X24905953Y22545853D01*
X24929061Y22493337D01*
X24938662Y22471516D01*
X24942107Y22467418D01*
X24942108Y22467416D01*
X24986760Y22414296D01*
X25031354Y22361245D01*
X25151270Y22281423D01*
X25288769Y22238465D01*
X25362871Y22237107D01*
X25427436Y22235923D01*
X25427438Y22235923D01*
X25432798Y22235825D01*
X25437969Y22237235D01*
X25437971Y22237235D01*
X25527770Y22261717D01*
X25571779Y22273715D01*
X25624871Y22306314D01*
X25689970Y22346284D01*
X25689973Y22346286D01*
X25694539Y22349090D01*
X25791210Y22455890D01*
X25796795Y22467416D01*
X25851682Y22580704D01*
X25851682Y22580705D01*
X25854020Y22585530D01*
X25877919Y22727587D01*
X25878071Y22740000D01*
X25877659Y22742880D01*
X25877183Y22746207D01*
X28361967Y22746207D01*
X28362661Y22740900D01*
X28362661Y22740897D01*
X28363393Y22735303D01*
X28380645Y22603370D01*
X28405953Y22545853D01*
X28429061Y22493337D01*
X28438662Y22471516D01*
X28442107Y22467418D01*
X28442108Y22467416D01*
X28486760Y22414296D01*
X28531354Y22361245D01*
X28651270Y22281423D01*
X28788769Y22238465D01*
X28862871Y22237107D01*
X28927436Y22235923D01*
X28927438Y22235923D01*
X28932798Y22235825D01*
X28937969Y22237235D01*
X28937971Y22237235D01*
X29027770Y22261717D01*
X29071779Y22273715D01*
X29124871Y22306314D01*
X29189970Y22346284D01*
X29189973Y22346286D01*
X29194539Y22349090D01*
X29291210Y22455890D01*
X29296795Y22467416D01*
X29351682Y22580704D01*
X29351682Y22580705D01*
X29354020Y22585530D01*
X29377919Y22727587D01*
X29378071Y22740000D01*
X29377659Y22742880D01*
X29358409Y22877296D01*
X29358408Y22877300D01*
X29357649Y22882599D01*
X29298026Y23013734D01*
X29290167Y23022855D01*
X29207487Y23118810D01*
X29207484Y23118813D01*
X29203993Y23122864D01*
X29199502Y23125775D01*
X29087604Y23198303D01*
X29087603Y23198303D01*
X29083111Y23201215D01*
X28994930Y23227587D01*
X28950232Y23240955D01*
X28950229Y23240955D01*
X28945098Y23242490D01*
X28939743Y23242523D01*
X28939741Y23242523D01*
X28874524Y23242921D01*
X28801047Y23243370D01*
X28795897Y23241898D01*
X28795896Y23241898D01*
X28792394Y23240897D01*
X28662539Y23203785D01*
X28658013Y23200929D01*
X28658010Y23200928D01*
X28589619Y23157776D01*
X28540709Y23126916D01*
X28534246Y23119598D01*
X28448897Y23022959D01*
X28448895Y23022956D01*
X28445351Y23018943D01*
X28384129Y22888546D01*
X28361967Y22746207D01*
X25877183Y22746207D01*
X25858409Y22877296D01*
X25858408Y22877300D01*
X25857649Y22882599D01*
X25798026Y23013734D01*
X25790167Y23022855D01*
X25707487Y23118810D01*
X25707484Y23118813D01*
X25703993Y23122864D01*
X25699502Y23125775D01*
X25587604Y23198303D01*
X25587603Y23198303D01*
X25583111Y23201215D01*
X25494930Y23227587D01*
X25450232Y23240955D01*
X25450229Y23240955D01*
X25445098Y23242490D01*
X25439743Y23242523D01*
X25439741Y23242523D01*
X25374524Y23242921D01*
X25301047Y23243370D01*
X25295897Y23241898D01*
X25295896Y23241898D01*
X25292394Y23240897D01*
X25162539Y23203785D01*
X25158013Y23200929D01*
X25158010Y23200928D01*
X25089619Y23157776D01*
X25040709Y23126916D01*
X25034246Y23119598D01*
X24948897Y23022959D01*
X24948895Y23022956D01*
X24945351Y23018943D01*
X24884129Y22888546D01*
X24861967Y22746207D01*
X12022900Y22746207D01*
X12022900Y24511900D01*
X12040493Y24560238D01*
X12085042Y24585958D01*
X12098100Y24587100D01*
X13000701Y24587100D01*
X13049039Y24569507D01*
G37*
G04 #@! TD.AperFunction*
G04 #@! TD*
M02*
