G04 #@! TF.GenerationSoftware,KiCad,Pcbnew,6.0.7+dfsg-3*
G04 #@! TF.CreationDate,2022-10-18T10:37:57+08:00*
G04 #@! TF.ProjectId,stlink,73746c69-6e6b-42e6-9b69-6361645f7063,e*
G04 #@! TF.SameCoordinates,PX5ca1610PY6645a40*
G04 #@! TF.FileFunction,Paste,Top*
G04 #@! TF.FilePolarity,Positive*
%FSLAX46Y46*%
G04 Gerber Fmt 4.6, Leading zero omitted, Abs format (unit mm)*
G04 Created by KiCad (PCBNEW 6.0.7+dfsg-3) date 2022-10-18 10:37:57*
%MOMM*%
%LPD*%
G01*
G04 APERTURE LIST*
G04 Aperture macros list*
%AMRoundRect*
0 Rectangle with rounded corners*
0 $1 Rounding radius*
0 $2 $3 $4 $5 $6 $7 $8 $9 X,Y pos of 4 corners*
0 Add a 4 corners polygon primitive as box body*
4,1,4,$2,$3,$4,$5,$6,$7,$8,$9,$2,$3,0*
0 Add four circle primitives for the rounded corners*
1,1,$1+$1,$2,$3*
1,1,$1+$1,$4,$5*
1,1,$1+$1,$6,$7*
1,1,$1+$1,$8,$9*
0 Add four rect primitives between the rounded corners*
20,1,$1+$1,$2,$3,$4,$5,0*
20,1,$1+$1,$4,$5,$6,$7,0*
20,1,$1+$1,$6,$7,$8,$9,0*
20,1,$1+$1,$8,$9,$2,$3,0*%
G04 Aperture macros list end*
%ADD10RoundRect,0.150000X-0.587500X-0.150000X0.587500X-0.150000X0.587500X0.150000X-0.587500X0.150000X0*%
%ADD11RoundRect,0.250000X0.250000X0.475000X-0.250000X0.475000X-0.250000X-0.475000X0.250000X-0.475000X0*%
%ADD12RoundRect,0.250000X0.475000X-0.250000X0.475000X0.250000X-0.475000X0.250000X-0.475000X-0.250000X0*%
%ADD13RoundRect,0.135000X0.135000X0.185000X-0.135000X0.185000X-0.135000X-0.185000X0.135000X-0.185000X0*%
%ADD14RoundRect,0.140000X0.170000X-0.140000X0.170000X0.140000X-0.170000X0.140000X-0.170000X-0.140000X0*%
%ADD15RoundRect,0.140000X-0.170000X0.140000X-0.170000X-0.140000X0.170000X-0.140000X0.170000X0.140000X0*%
%ADD16RoundRect,0.140000X0.140000X0.170000X-0.140000X0.170000X-0.140000X-0.170000X0.140000X-0.170000X0*%
%ADD17RoundRect,0.140000X-0.140000X-0.170000X0.140000X-0.170000X0.140000X0.170000X-0.140000X0.170000X0*%
%ADD18RoundRect,0.218750X-0.218750X-0.256250X0.218750X-0.256250X0.218750X0.256250X-0.218750X0.256250X0*%
%ADD19RoundRect,0.135000X-0.135000X-0.185000X0.135000X-0.185000X0.135000X0.185000X-0.135000X0.185000X0*%
%ADD20R,0.900000X1.200000*%
%ADD21RoundRect,0.075000X-0.662500X-0.075000X0.662500X-0.075000X0.662500X0.075000X-0.662500X0.075000X0*%
%ADD22RoundRect,0.075000X-0.075000X-0.662500X0.075000X-0.662500X0.075000X0.662500X-0.075000X0.662500X0*%
%ADD23RoundRect,0.135000X-0.185000X0.135000X-0.185000X-0.135000X0.185000X-0.135000X0.185000X0.135000X0*%
%ADD24RoundRect,0.135000X0.185000X-0.135000X0.185000X0.135000X-0.185000X0.135000X-0.185000X-0.135000X0*%
%ADD25RoundRect,0.150000X0.587500X0.150000X-0.587500X0.150000X-0.587500X-0.150000X0.587500X-0.150000X0*%
%ADD26R,2.400000X2.000000*%
%ADD27R,2.540000X1.524000*%
G04 APERTURE END LIST*
D10*
G04 #@! TO.C,U1*
X34012500Y21322000D03*
X34012500Y19422000D03*
X35887500Y20372000D03*
G04 #@! TD*
D11*
G04 #@! TO.C,C4*
X35820000Y17490000D03*
X33920000Y17490000D03*
G04 #@! TD*
D12*
G04 #@! TO.C,C5*
X32020000Y19422000D03*
X32020000Y21322000D03*
G04 #@! TD*
D13*
G04 #@! TO.C,R3*
X32630000Y17040000D03*
X31610000Y17040000D03*
G04 #@! TD*
D14*
G04 #@! TO.C,C6*
X21620000Y21010000D03*
X21620000Y21970000D03*
G04 #@! TD*
G04 #@! TO.C,C7*
X30120000Y21010000D03*
X30120000Y21970000D03*
G04 #@! TD*
D15*
G04 #@! TO.C,C8*
X28600000Y11454000D03*
X28600000Y10494000D03*
G04 #@! TD*
D16*
G04 #@! TO.C,C9*
X20100000Y14740000D03*
X19140000Y14740000D03*
G04 #@! TD*
G04 #@! TO.C,C2*
X18100000Y23490000D03*
X17140000Y23490000D03*
G04 #@! TD*
D17*
G04 #@! TO.C,C3*
X17140000Y15990000D03*
X18100000Y15990000D03*
G04 #@! TD*
D18*
G04 #@! TO.C,D2*
X17082500Y11990000D03*
X18657500Y11990000D03*
G04 #@! TD*
G04 #@! TO.C,D3*
X17082500Y13490000D03*
X18657500Y13490000D03*
G04 #@! TD*
D19*
G04 #@! TO.C,R12*
X20360000Y11990000D03*
X21380000Y11990000D03*
G04 #@! TD*
D20*
G04 #@! TO.C,D1*
X31970000Y23420000D03*
X35270000Y23420000D03*
G04 #@! TD*
D21*
G04 #@! TO.C,U2*
X21707500Y19990000D03*
X21707500Y19490000D03*
X21707500Y18990000D03*
X21707500Y18490000D03*
X21707500Y17990000D03*
X21707500Y17490000D03*
X21707500Y16990000D03*
X21707500Y16490000D03*
X21707500Y15990000D03*
X21707500Y15490000D03*
X21707500Y14990000D03*
X21707500Y14490000D03*
D22*
X23120000Y13077500D03*
X23620000Y13077500D03*
X24120000Y13077500D03*
X24620000Y13077500D03*
X25120000Y13077500D03*
X25620000Y13077500D03*
X26120000Y13077500D03*
X26620000Y13077500D03*
X27120000Y13077500D03*
X27620000Y13077500D03*
X28120000Y13077500D03*
X28620000Y13077500D03*
D21*
X30032500Y14490000D03*
X30032500Y14990000D03*
X30032500Y15490000D03*
X30032500Y15990000D03*
X30032500Y16490000D03*
X30032500Y16990000D03*
X30032500Y17490000D03*
X30032500Y17990000D03*
X30032500Y18490000D03*
X30032500Y18990000D03*
X30032500Y19490000D03*
X30032500Y19990000D03*
D22*
X28620000Y21402500D03*
X28120000Y21402500D03*
X27620000Y21402500D03*
X27120000Y21402500D03*
X26620000Y21402500D03*
X26120000Y21402500D03*
X25620000Y21402500D03*
X25120000Y21402500D03*
X24620000Y21402500D03*
X24120000Y21402500D03*
X23620000Y21402500D03*
X23120000Y21402500D03*
G04 #@! TD*
D16*
G04 #@! TO.C,C1*
X20100000Y15990000D03*
X19140000Y15990000D03*
G04 #@! TD*
D13*
G04 #@! TO.C,R1*
X18130000Y14740000D03*
X17110000Y14740000D03*
G04 #@! TD*
D23*
G04 #@! TO.C,R2*
X26370000Y24250000D03*
X26370000Y23230000D03*
G04 #@! TD*
D24*
G04 #@! TO.C,R9*
X30632000Y10464000D03*
X30632000Y11484000D03*
G04 #@! TD*
D25*
G04 #@! TO.C,Q1*
X33982500Y13580000D03*
X33982500Y15480000D03*
X32107500Y14530000D03*
G04 #@! TD*
D24*
G04 #@! TO.C,R4*
X35870000Y14730000D03*
X35870000Y15750000D03*
G04 #@! TD*
G04 #@! TO.C,R5*
X35870000Y12230000D03*
X35870000Y13250000D03*
G04 #@! TD*
D23*
G04 #@! TO.C,R7*
X24120000Y24250000D03*
X24120000Y23230000D03*
G04 #@! TD*
G04 #@! TO.C,R8*
X22120000Y24250000D03*
X22120000Y23230000D03*
G04 #@! TD*
G04 #@! TO.C,R10*
X24870000Y11500000D03*
X24870000Y10480000D03*
G04 #@! TD*
D19*
G04 #@! TO.C,R6*
X33360000Y11990000D03*
X34380000Y11990000D03*
G04 #@! TD*
D26*
G04 #@! TO.C,Y1*
X18620000Y21590000D03*
X18620000Y17890000D03*
G04 #@! TD*
D13*
G04 #@! TO.C,R13*
X16680000Y10490000D03*
X15660000Y10490000D03*
G04 #@! TD*
D24*
G04 #@! TO.C,R11*
X23370000Y10480000D03*
X23370000Y11500000D03*
G04 #@! TD*
D27*
G04 #@! TO.C,J2*
X13370000Y22320000D03*
X13370000Y19780000D03*
X13370000Y17240000D03*
X13370000Y14700000D03*
X13370000Y12160000D03*
G04 #@! TD*
M02*
