G04 #@! TF.GenerationSoftware,KiCad,Pcbnew,6.0.7+dfsg-3*
G04 #@! TF.CreationDate,2022-10-18T10:37:57+08:00*
G04 #@! TF.ProjectId,stlink,73746c69-6e6b-42e6-9b69-6361645f7063,e*
G04 #@! TF.SameCoordinates,PX5ca1610PY6645a40*
G04 #@! TF.FileFunction,Profile,NP*
%FSLAX46Y46*%
G04 Gerber Fmt 4.6, Leading zero omitted, Abs format (unit mm)*
G04 Created by KiCad (PCBNEW 6.0.7+dfsg-3) date 2022-10-18 10:37:57*
%MOMM*%
%LPD*%
G01*
G04 APERTURE LIST*
G04 #@! TA.AperFunction,Profile*
%ADD10C,0.050000*%
G04 #@! TD*
G04 APERTURE END LIST*
D10*
X9370000Y27240000D02*
X45870000Y27240000D01*
X35870000Y9740000D02*
X21370000Y9740000D01*
X21370000Y8740000D02*
X35870000Y8740000D01*
X41870000Y9740000D02*
X38870000Y9740000D01*
X18370000Y8740000D02*
G75*
G03*
X18370000Y9740000I0J500000D01*
G01*
X21370000Y25740000D02*
G75*
G03*
X21370000Y24740000I0J-500000D01*
G01*
X9370000Y7240000D02*
X9370000Y27240000D01*
X21370000Y25740000D02*
X35870000Y25740000D01*
X35870000Y24740000D02*
X21370000Y24740000D01*
X10870000Y25740000D02*
X18370000Y25740000D01*
X11870000Y9740000D02*
X18370000Y9740000D01*
X41870000Y9740000D02*
G75*
G03*
X42870000Y10740000I0J1000000D01*
G01*
X38870000Y25740000D02*
G75*
G03*
X38870000Y24740000I0J-500000D01*
G01*
X21370000Y9740000D02*
G75*
G03*
X21370000Y8740000I0J-500000D01*
G01*
X38870000Y8740000D02*
X43870000Y8740000D01*
X42870000Y23740000D02*
G75*
G03*
X41870000Y24740000I-1000000J0D01*
G01*
X38870000Y24740000D02*
X41870000Y24740000D01*
X35870000Y24740000D02*
G75*
G03*
X35870000Y25740000I0J500000D01*
G01*
X45870000Y7240000D02*
X9370000Y7240000D01*
X35870000Y8740000D02*
G75*
G03*
X35870000Y9740000I0J500000D01*
G01*
X10870000Y8740000D02*
X10870000Y25740000D01*
X18370000Y24740000D02*
G75*
G03*
X18370000Y25740000I0J500000D01*
G01*
X38870000Y9740000D02*
G75*
G03*
X38870000Y8740000I0J-500000D01*
G01*
X43870000Y25740000D02*
X38870000Y25740000D01*
X43870000Y8740000D02*
X43870000Y25740000D01*
X11870000Y24740000D02*
X11870000Y9740000D01*
X18370000Y8740000D02*
X10870000Y8740000D01*
X18370000Y24740000D02*
X11870000Y24740000D01*
X45870000Y27240000D02*
X45870000Y7240000D01*
X42870000Y23740000D02*
X42870000Y10740000D01*
M02*
