M48
; DRILL file {KiCad 6.0.7+dfsg-3} date Tue 18 Oct 2022 10:38:02 +08
; FORMAT={-:-/ absolute / metric / decimal}
; #@! TF.CreationDate,2022-10-18T10:38:02+08:00
; #@! TF.GenerationSoftware,Kicad,Pcbnew,6.0.7+dfsg-3
; #@! TF.FileFunction,NonPlated,1,4,NPTH
FMAT,2
METRIC
; #@! TA.AperFunction,NonPlated,NPTH,ComponentDrill
T1C0.500
%
G90
G05
T1
X18.72Y25.99
X18.72Y24.49
X18.72Y9.99
X18.72Y8.49
X19.52Y26.24
X19.52Y24.24
X19.52Y10.24
X19.52Y8.24
X20.22Y26.24
X20.22Y24.24
X20.22Y10.24
X20.22Y8.24
X21.02Y25.99
X21.02Y24.49
X21.02Y9.99
X21.02Y8.49
X36.22Y25.99
X36.22Y24.49
X36.22Y9.99
X36.22Y8.49
X37.02Y26.24
X37.02Y24.24
X37.02Y10.24
X37.02Y8.24
X37.72Y26.24
X37.72Y24.24
X37.72Y10.24
X37.72Y8.24
X38.52Y25.99
X38.52Y24.49
X38.52Y9.99
X38.52Y8.49
T0
M30
