G04 #@! TF.GenerationSoftware,KiCad,Pcbnew,6.0.7+dfsg-3*
G04 #@! TF.CreationDate,2022-10-18T10:37:57+08:00*
G04 #@! TF.ProjectId,stlink,73746c69-6e6b-42e6-9b69-6361645f7063,e*
G04 #@! TF.SameCoordinates,PX5ca1610PY6645a40*
G04 #@! TF.FileFunction,Legend,Bot*
G04 #@! TF.FilePolarity,Positive*
%FSLAX46Y46*%
G04 Gerber Fmt 4.6, Leading zero omitted, Abs format (unit mm)*
G04 Created by KiCad (PCBNEW 6.0.7+dfsg-3) date 2022-10-18 10:37:57*
%MOMM*%
%LPD*%
G01*
G04 APERTURE LIST*
%ADD10C,0.150000*%
%ADD11C,0.120000*%
G04 APERTURE END LIST*
D10*
X20962500Y19502096D02*
X20962500Y20302096D01*
X20657738Y20302096D01*
X20581547Y20264000D01*
X20543452Y20225905D01*
X20505357Y20149715D01*
X20505357Y20035429D01*
X20543452Y19959239D01*
X20581547Y19921143D01*
X20657738Y19883048D01*
X20962500Y19883048D01*
X20238690Y20302096D02*
X20048214Y19502096D01*
X19895833Y20073524D01*
X19743452Y19502096D01*
X19552976Y20302096D01*
X18791071Y19502096D02*
X19057738Y19883048D01*
X19248214Y19502096D02*
X19248214Y20302096D01*
X18943452Y20302096D01*
X18867261Y20264000D01*
X18829166Y20225905D01*
X18791071Y20149715D01*
X18791071Y20035429D01*
X18829166Y19959239D01*
X18867261Y19921143D01*
X18943452Y19883048D01*
X19248214Y19883048D01*
X17876785Y20340191D02*
X18562500Y19311620D01*
X17191071Y20264000D02*
X17267261Y20302096D01*
X17381547Y20302096D01*
X17495833Y20264000D01*
X17572023Y20187810D01*
X17610119Y20111620D01*
X17648214Y19959239D01*
X17648214Y19844953D01*
X17610119Y19692572D01*
X17572023Y19616381D01*
X17495833Y19540191D01*
X17381547Y19502096D01*
X17305357Y19502096D01*
X17191071Y19540191D01*
X17152976Y19578286D01*
X17152976Y19844953D01*
X17305357Y19844953D01*
X16810119Y19502096D02*
X16810119Y20302096D01*
X16352976Y19502096D01*
X16352976Y20302096D01*
X15972023Y19502096D02*
X15972023Y20302096D01*
X15781547Y20302096D01*
X15667261Y20264000D01*
X15591071Y20187810D01*
X15552976Y20111620D01*
X15514880Y19959239D01*
X15514880Y19844953D01*
X15552976Y19692572D01*
X15591071Y19616381D01*
X15667261Y19540191D01*
X15781547Y19502096D01*
X15972023Y19502096D01*
X19819642Y17038286D02*
X19857738Y17000191D01*
X19972023Y16962096D01*
X20048214Y16962096D01*
X20162500Y17000191D01*
X20238690Y17076381D01*
X20276785Y17152572D01*
X20314880Y17304953D01*
X20314880Y17419239D01*
X20276785Y17571620D01*
X20238690Y17647810D01*
X20162500Y17724000D01*
X20048214Y17762096D01*
X19972023Y17762096D01*
X19857738Y17724000D01*
X19819642Y17685905D01*
X19095833Y16962096D02*
X19476785Y16962096D01*
X19476785Y17762096D01*
X18829166Y16962096D02*
X18829166Y17762096D01*
X18372023Y16962096D02*
X18714880Y17419239D01*
X18372023Y17762096D02*
X18829166Y17304953D01*
X17457738Y17800191D02*
X18143452Y16771620D01*
X17191071Y16962096D02*
X17191071Y17762096D01*
X17000595Y17762096D01*
X16886309Y17724000D01*
X16810119Y17647810D01*
X16772023Y17571620D01*
X16733928Y17419239D01*
X16733928Y17304953D01*
X16772023Y17152572D01*
X16810119Y17076381D01*
X16886309Y17000191D01*
X17000595Y16962096D01*
X17191071Y16962096D01*
X16391071Y16962096D02*
X16391071Y17762096D01*
X15857738Y17762096D02*
X15705357Y17762096D01*
X15629166Y17724000D01*
X15552976Y17647810D01*
X15514880Y17495429D01*
X15514880Y17228762D01*
X15552976Y17076381D01*
X15629166Y17000191D01*
X15705357Y16962096D01*
X15857738Y16962096D01*
X15933928Y17000191D01*
X16010119Y17076381D01*
X16048214Y17228762D01*
X16048214Y17495429D01*
X16010119Y17647810D01*
X15933928Y17724000D01*
X15857738Y17762096D01*
X20733928Y14460191D02*
X20619642Y14422096D01*
X20429166Y14422096D01*
X20352976Y14460191D01*
X20314880Y14498286D01*
X20276785Y14574477D01*
X20276785Y14650667D01*
X20314880Y14726858D01*
X20352976Y14764953D01*
X20429166Y14803048D01*
X20581547Y14841143D01*
X20657738Y14879239D01*
X20695833Y14917334D01*
X20733928Y14993524D01*
X20733928Y15069715D01*
X20695833Y15145905D01*
X20657738Y15184000D01*
X20581547Y15222096D01*
X20391071Y15222096D01*
X20276785Y15184000D01*
X20010119Y15222096D02*
X19819642Y14422096D01*
X19667261Y14993524D01*
X19514880Y14422096D01*
X19324404Y15222096D01*
X18867261Y15222096D02*
X18714880Y15222096D01*
X18638690Y15184000D01*
X18562500Y15107810D01*
X18524404Y14955429D01*
X18524404Y14688762D01*
X18562500Y14536381D01*
X18638690Y14460191D01*
X18714880Y14422096D01*
X18867261Y14422096D01*
X18943452Y14460191D01*
X19019642Y14536381D01*
X19057738Y14688762D01*
X19057738Y14955429D01*
X19019642Y15107810D01*
X18943452Y15184000D01*
X18867261Y15222096D01*
X17610119Y15260191D02*
X18295833Y14231620D01*
X16886309Y14422096D02*
X17152976Y14803048D01*
X17343452Y14422096D02*
X17343452Y15222096D01*
X17038690Y15222096D01*
X16962500Y15184000D01*
X16924404Y15145905D01*
X16886309Y15069715D01*
X16886309Y14955429D01*
X16924404Y14879239D01*
X16962500Y14841143D01*
X17038690Y14803048D01*
X17343452Y14803048D01*
X16581547Y14460191D02*
X16467261Y14422096D01*
X16276785Y14422096D01*
X16200595Y14460191D01*
X16162500Y14498286D01*
X16124404Y14574477D01*
X16124404Y14650667D01*
X16162500Y14726858D01*
X16200595Y14764953D01*
X16276785Y14803048D01*
X16429166Y14841143D01*
X16505357Y14879239D01*
X16543452Y14917334D01*
X16581547Y14993524D01*
X16581547Y15069715D01*
X16543452Y15145905D01*
X16505357Y15184000D01*
X16429166Y15222096D01*
X16238690Y15222096D01*
X16124404Y15184000D01*
X15895833Y15222096D02*
X15438690Y15222096D01*
X15667261Y14422096D02*
X15667261Y15222096D01*
X19057738Y12682096D02*
X18600595Y12682096D01*
X18829166Y11882096D02*
X18829166Y12682096D01*
X18410119Y12682096D02*
X17876785Y11882096D01*
X17876785Y12682096D02*
X18410119Y11882096D01*
X17000595Y12720191D02*
X17686309Y11691620D01*
X16276785Y11882096D02*
X16543452Y12263048D01*
X16733928Y11882096D02*
X16733928Y12682096D01*
X16429166Y12682096D01*
X16352976Y12644000D01*
X16314880Y12605905D01*
X16276785Y12529715D01*
X16276785Y12415429D01*
X16314880Y12339239D01*
X16352976Y12301143D01*
X16429166Y12263048D01*
X16733928Y12263048D01*
X16010119Y12682096D02*
X15476785Y11882096D01*
X15476785Y12682096D02*
X16010119Y11882096D01*
X30155714Y22166881D02*
X30193809Y22204977D01*
X30231904Y22319262D01*
X30231904Y22395453D01*
X30193809Y22509739D01*
X30117619Y22585929D01*
X30041428Y22624024D01*
X29889047Y22662120D01*
X29774761Y22662120D01*
X29622380Y22624024D01*
X29546190Y22585929D01*
X29470000Y22509739D01*
X29431904Y22395453D01*
X29431904Y22319262D01*
X29470000Y22204977D01*
X29508095Y22166881D01*
X30231904Y21443072D02*
X30231904Y21824024D01*
X29431904Y21824024D01*
X30231904Y21176405D02*
X29431904Y21176405D01*
X30231904Y20719262D02*
X29774761Y21062120D01*
X29431904Y20719262D02*
X29889047Y21176405D01*
X27780857Y22357358D02*
X27818952Y22243072D01*
X27857047Y22204977D01*
X27933238Y22166881D01*
X28047523Y22166881D01*
X28123714Y22204977D01*
X28161809Y22243072D01*
X28199904Y22319262D01*
X28199904Y22624024D01*
X27399904Y22624024D01*
X27399904Y22357358D01*
X27438000Y22281167D01*
X27476095Y22243072D01*
X27552285Y22204977D01*
X27628476Y22204977D01*
X27704666Y22243072D01*
X27742761Y22281167D01*
X27780857Y22357358D01*
X27780857Y22624024D01*
X27399904Y21671643D02*
X27399904Y21595453D01*
X27438000Y21519262D01*
X27476095Y21481167D01*
X27552285Y21443072D01*
X27704666Y21404977D01*
X27895142Y21404977D01*
X28047523Y21443072D01*
X28123714Y21481167D01*
X28161809Y21519262D01*
X28199904Y21595453D01*
X28199904Y21671643D01*
X28161809Y21747834D01*
X28123714Y21785929D01*
X28047523Y21824024D01*
X27895142Y21862120D01*
X27704666Y21862120D01*
X27552285Y21824024D01*
X27476095Y21785929D01*
X27438000Y21747834D01*
X27399904Y21671643D01*
X25406000Y22204977D02*
X25367904Y22281167D01*
X25367904Y22395453D01*
X25406000Y22509739D01*
X25482190Y22585929D01*
X25558380Y22624024D01*
X25710761Y22662120D01*
X25825047Y22662120D01*
X25977428Y22624024D01*
X26053619Y22585929D01*
X26129809Y22509739D01*
X26167904Y22395453D01*
X26167904Y22319262D01*
X26129809Y22204977D01*
X26091714Y22166881D01*
X25825047Y22166881D01*
X25825047Y22319262D01*
X26167904Y21824024D02*
X25367904Y21824024D01*
X26167904Y21366881D01*
X25367904Y21366881D01*
X26167904Y20985929D02*
X25367904Y20985929D01*
X25367904Y20795453D01*
X25406000Y20681167D01*
X25482190Y20604977D01*
X25558380Y20566881D01*
X25710761Y20528786D01*
X25825047Y20528786D01*
X25977428Y20566881D01*
X26053619Y20604977D01*
X26129809Y20681167D01*
X26167904Y20795453D01*
X26167904Y20985929D01*
X34662023Y18105239D02*
X34519166Y18057620D01*
X34281071Y18057620D01*
X34185833Y18105239D01*
X34138214Y18152858D01*
X34090595Y18248096D01*
X34090595Y18343334D01*
X34138214Y18438572D01*
X34185833Y18486191D01*
X34281071Y18533810D01*
X34471547Y18581429D01*
X34566785Y18629048D01*
X34614404Y18676667D01*
X34662023Y18771905D01*
X34662023Y18867143D01*
X34614404Y18962381D01*
X34566785Y19010000D01*
X34471547Y19057620D01*
X34233452Y19057620D01*
X34090595Y19010000D01*
X33804880Y19057620D02*
X33233452Y19057620D01*
X33519166Y18057620D02*
X33519166Y19057620D01*
X32900119Y18057620D02*
X32900119Y19057620D01*
X32566785Y18343334D01*
X32233452Y19057620D01*
X32233452Y18057620D01*
X31852500Y19057620D02*
X31233452Y19057620D01*
X31566785Y18676667D01*
X31423928Y18676667D01*
X31328690Y18629048D01*
X31281071Y18581429D01*
X31233452Y18486191D01*
X31233452Y18248096D01*
X31281071Y18152858D01*
X31328690Y18105239D01*
X31423928Y18057620D01*
X31709642Y18057620D01*
X31804880Y18105239D01*
X31852500Y18152858D01*
X30852500Y18962381D02*
X30804880Y19010000D01*
X30709642Y19057620D01*
X30471547Y19057620D01*
X30376309Y19010000D01*
X30328690Y18962381D01*
X30281071Y18867143D01*
X30281071Y18771905D01*
X30328690Y18629048D01*
X30900119Y18057620D01*
X30281071Y18057620D01*
X29090595Y18057620D02*
X29090595Y19057620D01*
X28709642Y19057620D01*
X28614404Y19010000D01*
X28566785Y18962381D01*
X28519166Y18867143D01*
X28519166Y18724286D01*
X28566785Y18629048D01*
X28614404Y18581429D01*
X28709642Y18533810D01*
X29090595Y18533810D01*
X28090595Y18057620D02*
X28090595Y18724286D01*
X28090595Y18533810D02*
X28042976Y18629048D01*
X27995357Y18676667D01*
X27900119Y18724286D01*
X27804880Y18724286D01*
X27328690Y18057620D02*
X27423928Y18105239D01*
X27471547Y18152858D01*
X27519166Y18248096D01*
X27519166Y18533810D01*
X27471547Y18629048D01*
X27423928Y18676667D01*
X27328690Y18724286D01*
X27185833Y18724286D01*
X27090595Y18676667D01*
X27042976Y18629048D01*
X26995357Y18533810D01*
X26995357Y18248096D01*
X27042976Y18152858D01*
X27090595Y18105239D01*
X27185833Y18057620D01*
X27328690Y18057620D01*
X26138214Y18724286D02*
X26138214Y17914762D01*
X26185833Y17819524D01*
X26233452Y17771905D01*
X26328690Y17724286D01*
X26471547Y17724286D01*
X26566785Y17771905D01*
X26138214Y18105239D02*
X26233452Y18057620D01*
X26423928Y18057620D01*
X26519166Y18105239D01*
X26566785Y18152858D01*
X26614404Y18248096D01*
X26614404Y18533810D01*
X26566785Y18629048D01*
X26519166Y18676667D01*
X26423928Y18724286D01*
X26233452Y18724286D01*
X26138214Y18676667D01*
X25662023Y18057620D02*
X25662023Y18724286D01*
X25662023Y18533810D02*
X25614404Y18629048D01*
X25566785Y18676667D01*
X25471547Y18724286D01*
X25376309Y18724286D01*
X24614404Y18057620D02*
X24614404Y18581429D01*
X24662023Y18676667D01*
X24757261Y18724286D01*
X24947738Y18724286D01*
X25042976Y18676667D01*
X24614404Y18105239D02*
X24709642Y18057620D01*
X24947738Y18057620D01*
X25042976Y18105239D01*
X25090595Y18200477D01*
X25090595Y18295715D01*
X25042976Y18390953D01*
X24947738Y18438572D01*
X24709642Y18438572D01*
X24614404Y18486191D01*
X24138214Y18057620D02*
X24138214Y18724286D01*
X24138214Y18629048D02*
X24090595Y18676667D01*
X23995357Y18724286D01*
X23852500Y18724286D01*
X23757261Y18676667D01*
X23709642Y18581429D01*
X23709642Y18057620D01*
X23709642Y18581429D02*
X23662023Y18676667D01*
X23566785Y18724286D01*
X23423928Y18724286D01*
X23328690Y18676667D01*
X23281071Y18581429D01*
X23281071Y18057620D01*
X22804880Y18057620D02*
X22804880Y18724286D01*
X22804880Y18629048D02*
X22757261Y18676667D01*
X22662023Y18724286D01*
X22519166Y18724286D01*
X22423928Y18676667D01*
X22376309Y18581429D01*
X22376309Y18057620D01*
X22376309Y18581429D02*
X22328690Y18676667D01*
X22233452Y18724286D01*
X22090595Y18724286D01*
X21995357Y18676667D01*
X21947738Y18581429D01*
X21947738Y18057620D01*
X21090595Y18105239D02*
X21185833Y18057620D01*
X21376309Y18057620D01*
X21471547Y18105239D01*
X21519166Y18200477D01*
X21519166Y18581429D01*
X21471547Y18676667D01*
X21376309Y18724286D01*
X21185833Y18724286D01*
X21090595Y18676667D01*
X21042976Y18581429D01*
X21042976Y18486191D01*
X21519166Y18390953D01*
X20614404Y18057620D02*
X20614404Y18724286D01*
X20614404Y18533810D02*
X20566785Y18629048D01*
X20519166Y18676667D01*
X20423928Y18724286D01*
X20328690Y18724286D01*
X34614404Y16447620D02*
X34614404Y17114286D01*
X34614404Y16923810D02*
X34566785Y17019048D01*
X34519166Y17066667D01*
X34423928Y17114286D01*
X34328690Y17114286D01*
X33614404Y16495239D02*
X33709642Y16447620D01*
X33900119Y16447620D01*
X33995357Y16495239D01*
X34042976Y16590477D01*
X34042976Y16971429D01*
X33995357Y17066667D01*
X33900119Y17114286D01*
X33709642Y17114286D01*
X33614404Y17066667D01*
X33566785Y16971429D01*
X33566785Y16876191D01*
X34042976Y16780953D01*
X33233452Y17114286D02*
X32995357Y16447620D01*
X32757261Y17114286D01*
X32376309Y16542858D02*
X32328690Y16495239D01*
X32376309Y16447620D01*
X32423928Y16495239D01*
X32376309Y16542858D01*
X32376309Y16447620D01*
X30757261Y16495239D02*
X30852500Y16447620D01*
X31042976Y16447620D01*
X31138214Y16495239D01*
X31185833Y16590477D01*
X31185833Y16971429D01*
X31138214Y17066667D01*
X31042976Y17114286D01*
X30852500Y17114286D01*
X30757261Y17066667D01*
X30709642Y16971429D01*
X30709642Y16876191D01*
X31185833Y16780953D01*
X32231904Y22624024D02*
X31431904Y22624024D01*
X31431904Y22433548D01*
X31470000Y22319262D01*
X31546190Y22243072D01*
X31622380Y22204977D01*
X31774761Y22166881D01*
X31889047Y22166881D01*
X32041428Y22204977D01*
X32117619Y22243072D01*
X32193809Y22319262D01*
X32231904Y22433548D01*
X32231904Y22624024D01*
X32231904Y21824024D02*
X31431904Y21824024D01*
X31431904Y21290691D02*
X31431904Y21138310D01*
X31470000Y21062120D01*
X31546190Y20985929D01*
X31698571Y20947834D01*
X31965238Y20947834D01*
X32117619Y20985929D01*
X32193809Y21062120D01*
X32231904Y21138310D01*
X32231904Y21290691D01*
X32193809Y21366881D01*
X32117619Y21443072D01*
X31965238Y21481167D01*
X31698571Y21481167D01*
X31546190Y21443072D01*
X31470000Y21366881D01*
X31431904Y21290691D01*
X34603452Y8428096D02*
X34603452Y7856667D01*
X34641547Y7742381D01*
X34717738Y7666191D01*
X34832023Y7628096D01*
X34908214Y7628096D01*
X33841547Y7628096D02*
X34222500Y7628096D01*
X34222500Y8428096D01*
X33117738Y7704286D02*
X33155833Y7666191D01*
X33270119Y7628096D01*
X33346309Y7628096D01*
X33460595Y7666191D01*
X33536785Y7742381D01*
X33574880Y7818572D01*
X33612976Y7970953D01*
X33612976Y8085239D01*
X33574880Y8237620D01*
X33536785Y8313810D01*
X33460595Y8390000D01*
X33346309Y8428096D01*
X33270119Y8428096D01*
X33155833Y8390000D01*
X33117738Y8351905D01*
X32546309Y8428096D02*
X32546309Y7856667D01*
X32584404Y7742381D01*
X32660595Y7666191D01*
X32774880Y7628096D01*
X32851071Y7628096D01*
X31784404Y7628096D02*
X32165357Y7628096D01*
X32165357Y8428096D01*
X31060595Y7704286D02*
X31098690Y7666191D01*
X31212976Y7628096D01*
X31289166Y7628096D01*
X31403452Y7666191D01*
X31479642Y7742381D01*
X31517738Y7818572D01*
X31555833Y7970953D01*
X31555833Y8085239D01*
X31517738Y8237620D01*
X31479642Y8313810D01*
X31403452Y8390000D01*
X31289166Y8428096D01*
X31212976Y8428096D01*
X31098690Y8390000D01*
X31060595Y8351905D01*
X30489166Y8428096D02*
X30489166Y7856667D01*
X30527261Y7742381D01*
X30603452Y7666191D01*
X30717738Y7628096D01*
X30793928Y7628096D01*
X29727261Y7628096D02*
X30108214Y7628096D01*
X30108214Y8428096D01*
X29003452Y7704286D02*
X29041547Y7666191D01*
X29155833Y7628096D01*
X29232023Y7628096D01*
X29346309Y7666191D01*
X29422500Y7742381D01*
X29460595Y7818572D01*
X29498690Y7970953D01*
X29498690Y8085239D01*
X29460595Y8237620D01*
X29422500Y8313810D01*
X29346309Y8390000D01*
X29232023Y8428096D01*
X29155833Y8428096D01*
X29041547Y8390000D01*
X29003452Y8351905D01*
X28432023Y8428096D02*
X28432023Y7856667D01*
X28470119Y7742381D01*
X28546309Y7666191D01*
X28660595Y7628096D01*
X28736785Y7628096D01*
X27670119Y7628096D02*
X28051071Y7628096D01*
X28051071Y8428096D01*
X26946309Y7704286D02*
X26984404Y7666191D01*
X27098690Y7628096D01*
X27174880Y7628096D01*
X27289166Y7666191D01*
X27365357Y7742381D01*
X27403452Y7818572D01*
X27441547Y7970953D01*
X27441547Y8085239D01*
X27403452Y8237620D01*
X27365357Y8313810D01*
X27289166Y8390000D01*
X27174880Y8428096D01*
X27098690Y8428096D01*
X26984404Y8390000D01*
X26946309Y8351905D01*
X19286309Y22842096D02*
X19667261Y22842096D01*
X19705357Y22461143D01*
X19667261Y22499239D01*
X19591071Y22537334D01*
X19400595Y22537334D01*
X19324404Y22499239D01*
X19286309Y22461143D01*
X19248214Y22384953D01*
X19248214Y22194477D01*
X19286309Y22118286D01*
X19324404Y22080191D01*
X19400595Y22042096D01*
X19591071Y22042096D01*
X19667261Y22080191D01*
X19705357Y22118286D01*
X19019642Y22842096D02*
X18752976Y22042096D01*
X18486309Y22842096D01*
X17648214Y22880191D02*
X18333928Y21851620D01*
X17457738Y22842096D02*
X16962500Y22842096D01*
X17229166Y22537334D01*
X17114880Y22537334D01*
X17038690Y22499239D01*
X17000595Y22461143D01*
X16962500Y22384953D01*
X16962500Y22194477D01*
X17000595Y22118286D01*
X17038690Y22080191D01*
X17114880Y22042096D01*
X17343452Y22042096D01*
X17419642Y22080191D01*
X17457738Y22118286D01*
X16733928Y22842096D02*
X16467261Y22042096D01*
X16200595Y22842096D01*
X16010119Y22842096D02*
X15514880Y22842096D01*
X15781547Y22537334D01*
X15667261Y22537334D01*
X15591071Y22499239D01*
X15552976Y22461143D01*
X15514880Y22384953D01*
X15514880Y22194477D01*
X15552976Y22118286D01*
X15591071Y22080191D01*
X15667261Y22042096D01*
X15895833Y22042096D01*
X15972023Y22080191D01*
X16010119Y22118286D01*
X33495904Y22700215D02*
X33495904Y22204977D01*
X33800666Y22471643D01*
X33800666Y22357358D01*
X33838761Y22281167D01*
X33876857Y22243072D01*
X33953047Y22204977D01*
X34143523Y22204977D01*
X34219714Y22243072D01*
X34257809Y22281167D01*
X34295904Y22357358D01*
X34295904Y22585929D01*
X34257809Y22662120D01*
X34219714Y22700215D01*
X33495904Y21976405D02*
X34295904Y21709739D01*
X33495904Y21443072D01*
X33495904Y21252596D02*
X33495904Y20757358D01*
X33800666Y21024024D01*
X33800666Y20909739D01*
X33838761Y20833548D01*
X33876857Y20795453D01*
X33953047Y20757358D01*
X34143523Y20757358D01*
X34219714Y20795453D01*
X34257809Y20833548D01*
X34295904Y20909739D01*
X34295904Y21138310D01*
X34257809Y21214500D01*
X34219714Y21252596D01*
D11*
G04 #@! TO.C,TP3*
X30570000Y23740000D02*
G75*
G03*
X30570000Y23740000I-700000J0D01*
G01*
G04 #@! TO.C,TP1*
X34634000Y23740000D02*
G75*
G03*
X34634000Y23740000I-700000J0D01*
G01*
G04 #@! TO.C,TP4*
X28538000Y23740000D02*
G75*
G03*
X28538000Y23740000I-700000J0D01*
G01*
G04 #@! TO.C,TP5*
X26506000Y23740000D02*
G75*
G03*
X26506000Y23740000I-700000J0D01*
G01*
G04 #@! TO.C,TP2*
X32570000Y23740000D02*
G75*
G03*
X32570000Y23740000I-700000J0D01*
G01*
G04 #@! TO.C,JP1*
X23270000Y11490000D02*
X27370000Y11490000D01*
X24020000Y13690000D02*
X23720000Y13990000D01*
X23720000Y13990000D02*
X24320000Y13990000D01*
X27370000Y11490000D02*
X27370000Y13490000D01*
X24020000Y13690000D02*
X24320000Y13990000D01*
X27370000Y13490000D02*
X23270000Y13490000D01*
X23270000Y13490000D02*
X23270000Y11490000D01*
G04 #@! TD*
M02*
