G04 #@! TF.GenerationSoftware,KiCad,Pcbnew,6.0.7+dfsg-3*
G04 #@! TF.CreationDate,2022-10-18T10:37:57+08:00*
G04 #@! TF.ProjectId,stlink,73746c69-6e6b-42e6-9b69-6361645f7063,e*
G04 #@! TF.SameCoordinates,PX5ca1610PY6645a40*
G04 #@! TF.FileFunction,Legend,Top*
G04 #@! TF.FilePolarity,Positive*
%FSLAX46Y46*%
G04 Gerber Fmt 4.6, Leading zero omitted, Abs format (unit mm)*
G04 Created by KiCad (PCBNEW 6.0.7+dfsg-3) date 2022-10-18 10:37:57*
%MOMM*%
%LPD*%
G01*
G04 APERTURE LIST*
%ADD10C,0.150000*%
%ADD11C,0.120000*%
%ADD12C,0.100000*%
G04 APERTURE END LIST*
D10*
G04 #@! TO.C,U1*
X36245476Y23223096D02*
X36245476Y22575477D01*
X36283571Y22499286D01*
X36321666Y22461191D01*
X36397857Y22423096D01*
X36550238Y22423096D01*
X36626428Y22461191D01*
X36664523Y22499286D01*
X36702619Y22575477D01*
X36702619Y23223096D01*
X37502619Y22423096D02*
X37045476Y22423096D01*
X37274047Y22423096D02*
X37274047Y23223096D01*
X37197857Y23108810D01*
X37121666Y23032620D01*
X37045476Y22994524D01*
G04 #@! TO.C,C4*
X32236666Y17704286D02*
X32198571Y17666191D01*
X32084285Y17628096D01*
X32008095Y17628096D01*
X31893809Y17666191D01*
X31817619Y17742381D01*
X31779523Y17818572D01*
X31741428Y17970953D01*
X31741428Y18085239D01*
X31779523Y18237620D01*
X31817619Y18313810D01*
X31893809Y18390000D01*
X32008095Y18428096D01*
X32084285Y18428096D01*
X32198571Y18390000D01*
X32236666Y18351905D01*
X32922380Y18161429D02*
X32922380Y17628096D01*
X32731904Y18466191D02*
X32541428Y17894762D01*
X33036666Y17894762D01*
G04 #@! TO.C,R3*
X31736666Y15628096D02*
X31470000Y16009048D01*
X31279523Y15628096D02*
X31279523Y16428096D01*
X31584285Y16428096D01*
X31660476Y16390000D01*
X31698571Y16351905D01*
X31736666Y16275715D01*
X31736666Y16161429D01*
X31698571Y16085239D01*
X31660476Y16047143D01*
X31584285Y16009048D01*
X31279523Y16009048D01*
X32003333Y16428096D02*
X32498571Y16428096D01*
X32231904Y16123334D01*
X32346190Y16123334D01*
X32422380Y16085239D01*
X32460476Y16047143D01*
X32498571Y15970953D01*
X32498571Y15780477D01*
X32460476Y15704286D01*
X32422380Y15666191D01*
X32346190Y15628096D01*
X32117619Y15628096D01*
X32041428Y15666191D01*
X32003333Y15704286D01*
G04 #@! TO.C,C6*
X21355714Y23106667D02*
X21393809Y23068572D01*
X21431904Y22954286D01*
X21431904Y22878096D01*
X21393809Y22763810D01*
X21317619Y22687620D01*
X21241428Y22649524D01*
X21089047Y22611429D01*
X20974761Y22611429D01*
X20822380Y22649524D01*
X20746190Y22687620D01*
X20670000Y22763810D01*
X20631904Y22878096D01*
X20631904Y22954286D01*
X20670000Y23068572D01*
X20708095Y23106667D01*
X20631904Y23792381D02*
X20631904Y23640000D01*
X20670000Y23563810D01*
X20708095Y23525715D01*
X20822380Y23449524D01*
X20974761Y23411429D01*
X21279523Y23411429D01*
X21355714Y23449524D01*
X21393809Y23487620D01*
X21431904Y23563810D01*
X21431904Y23716191D01*
X21393809Y23792381D01*
X21355714Y23830477D01*
X21279523Y23868572D01*
X21089047Y23868572D01*
X21012857Y23830477D01*
X20974761Y23792381D01*
X20936666Y23716191D01*
X20936666Y23563810D01*
X20974761Y23487620D01*
X21012857Y23449524D01*
X21089047Y23411429D01*
G04 #@! TO.C,C7*
X29655714Y23106667D02*
X29693809Y23068572D01*
X29731904Y22954286D01*
X29731904Y22878096D01*
X29693809Y22763810D01*
X29617619Y22687620D01*
X29541428Y22649524D01*
X29389047Y22611429D01*
X29274761Y22611429D01*
X29122380Y22649524D01*
X29046190Y22687620D01*
X28970000Y22763810D01*
X28931904Y22878096D01*
X28931904Y22954286D01*
X28970000Y23068572D01*
X29008095Y23106667D01*
X28931904Y23373334D02*
X28931904Y23906667D01*
X29731904Y23563810D01*
G04 #@! TO.C,C8*
X27885714Y10840667D02*
X27923809Y10802572D01*
X27961904Y10688286D01*
X27961904Y10612096D01*
X27923809Y10497810D01*
X27847619Y10421620D01*
X27771428Y10383524D01*
X27619047Y10345429D01*
X27504761Y10345429D01*
X27352380Y10383524D01*
X27276190Y10421620D01*
X27200000Y10497810D01*
X27161904Y10612096D01*
X27161904Y10688286D01*
X27200000Y10802572D01*
X27238095Y10840667D01*
X27504761Y11297810D02*
X27466666Y11221620D01*
X27428571Y11183524D01*
X27352380Y11145429D01*
X27314285Y11145429D01*
X27238095Y11183524D01*
X27200000Y11221620D01*
X27161904Y11297810D01*
X27161904Y11450191D01*
X27200000Y11526381D01*
X27238095Y11564477D01*
X27314285Y11602572D01*
X27352380Y11602572D01*
X27428571Y11564477D01*
X27466666Y11526381D01*
X27504761Y11450191D01*
X27504761Y11297810D01*
X27542857Y11221620D01*
X27580952Y11183524D01*
X27657142Y11145429D01*
X27809523Y11145429D01*
X27885714Y11183524D01*
X27923809Y11221620D01*
X27961904Y11297810D01*
X27961904Y11450191D01*
X27923809Y11526381D01*
X27885714Y11564477D01*
X27809523Y11602572D01*
X27657142Y11602572D01*
X27580952Y11564477D01*
X27542857Y11526381D01*
X27504761Y11450191D01*
G04 #@! TO.C,C9*
X19986666Y13284286D02*
X19948571Y13246191D01*
X19834285Y13208096D01*
X19758095Y13208096D01*
X19643809Y13246191D01*
X19567619Y13322381D01*
X19529523Y13398572D01*
X19491428Y13550953D01*
X19491428Y13665239D01*
X19529523Y13817620D01*
X19567619Y13893810D01*
X19643809Y13970000D01*
X19758095Y14008096D01*
X19834285Y14008096D01*
X19948571Y13970000D01*
X19986666Y13931905D01*
X20367619Y13208096D02*
X20520000Y13208096D01*
X20596190Y13246191D01*
X20634285Y13284286D01*
X20710476Y13398572D01*
X20748571Y13550953D01*
X20748571Y13855715D01*
X20710476Y13931905D01*
X20672380Y13970000D01*
X20596190Y14008096D01*
X20443809Y14008096D01*
X20367619Y13970000D01*
X20329523Y13931905D01*
X20291428Y13855715D01*
X20291428Y13665239D01*
X20329523Y13589048D01*
X20367619Y13550953D01*
X20443809Y13512858D01*
X20596190Y13512858D01*
X20672380Y13550953D01*
X20710476Y13589048D01*
X20748571Y13665239D01*
G04 #@! TO.C,C2*
X15736666Y23254286D02*
X15698571Y23216191D01*
X15584285Y23178096D01*
X15508095Y23178096D01*
X15393809Y23216191D01*
X15317619Y23292381D01*
X15279523Y23368572D01*
X15241428Y23520953D01*
X15241428Y23635239D01*
X15279523Y23787620D01*
X15317619Y23863810D01*
X15393809Y23940000D01*
X15508095Y23978096D01*
X15584285Y23978096D01*
X15698571Y23940000D01*
X15736666Y23901905D01*
X16041428Y23901905D02*
X16079523Y23940000D01*
X16155714Y23978096D01*
X16346190Y23978096D01*
X16422380Y23940000D01*
X16460476Y23901905D01*
X16498571Y23825715D01*
X16498571Y23749524D01*
X16460476Y23635239D01*
X16003333Y23178096D01*
X16498571Y23178096D01*
G04 #@! TO.C,C3*
X15766666Y15704286D02*
X15728571Y15666191D01*
X15614285Y15628096D01*
X15538095Y15628096D01*
X15423809Y15666191D01*
X15347619Y15742381D01*
X15309523Y15818572D01*
X15271428Y15970953D01*
X15271428Y16085239D01*
X15309523Y16237620D01*
X15347619Y16313810D01*
X15423809Y16390000D01*
X15538095Y16428096D01*
X15614285Y16428096D01*
X15728571Y16390000D01*
X15766666Y16351905D01*
X16033333Y16428096D02*
X16528571Y16428096D01*
X16261904Y16123334D01*
X16376190Y16123334D01*
X16452380Y16085239D01*
X16490476Y16047143D01*
X16528571Y15970953D01*
X16528571Y15780477D01*
X16490476Y15704286D01*
X16452380Y15666191D01*
X16376190Y15628096D01*
X16147619Y15628096D01*
X16071428Y15666191D01*
X16033333Y15704286D01*
G04 #@! TO.C,D2*
X15309523Y11628096D02*
X15309523Y12428096D01*
X15500000Y12428096D01*
X15614285Y12390000D01*
X15690476Y12313810D01*
X15728571Y12237620D01*
X15766666Y12085239D01*
X15766666Y11970953D01*
X15728571Y11818572D01*
X15690476Y11742381D01*
X15614285Y11666191D01*
X15500000Y11628096D01*
X15309523Y11628096D01*
X16071428Y12351905D02*
X16109523Y12390000D01*
X16185714Y12428096D01*
X16376190Y12428096D01*
X16452380Y12390000D01*
X16490476Y12351905D01*
X16528571Y12275715D01*
X16528571Y12199524D01*
X16490476Y12085239D01*
X16033333Y11628096D01*
X16528571Y11628096D01*
G04 #@! TO.C,D3*
X15309523Y13128096D02*
X15309523Y13928096D01*
X15500000Y13928096D01*
X15614285Y13890000D01*
X15690476Y13813810D01*
X15728571Y13737620D01*
X15766666Y13585239D01*
X15766666Y13470953D01*
X15728571Y13318572D01*
X15690476Y13242381D01*
X15614285Y13166191D01*
X15500000Y13128096D01*
X15309523Y13128096D01*
X16033333Y13928096D02*
X16528571Y13928096D01*
X16261904Y13623334D01*
X16376190Y13623334D01*
X16452380Y13585239D01*
X16490476Y13547143D01*
X16528571Y13470953D01*
X16528571Y13280477D01*
X16490476Y13204286D01*
X16452380Y13166191D01*
X16376190Y13128096D01*
X16147619Y13128096D01*
X16071428Y13166191D01*
X16033333Y13204286D01*
G04 #@! TO.C,R12*
X20355714Y10628096D02*
X20089047Y11009048D01*
X19898571Y10628096D02*
X19898571Y11428096D01*
X20203333Y11428096D01*
X20279523Y11390000D01*
X20317619Y11351905D01*
X20355714Y11275715D01*
X20355714Y11161429D01*
X20317619Y11085239D01*
X20279523Y11047143D01*
X20203333Y11009048D01*
X19898571Y11009048D01*
X21117619Y10628096D02*
X20660476Y10628096D01*
X20889047Y10628096D02*
X20889047Y11428096D01*
X20812857Y11313810D01*
X20736666Y11237620D01*
X20660476Y11199524D01*
X21422380Y11351905D02*
X21460476Y11390000D01*
X21536666Y11428096D01*
X21727142Y11428096D01*
X21803333Y11390000D01*
X21841428Y11351905D01*
X21879523Y11275715D01*
X21879523Y11199524D01*
X21841428Y11085239D01*
X21384285Y10628096D01*
X21879523Y10628096D01*
G04 #@! TO.C,D1*
X29979523Y23808096D02*
X29979523Y24608096D01*
X30170000Y24608096D01*
X30284285Y24570000D01*
X30360476Y24493810D01*
X30398571Y24417620D01*
X30436666Y24265239D01*
X30436666Y24150953D01*
X30398571Y23998572D01*
X30360476Y23922381D01*
X30284285Y23846191D01*
X30170000Y23808096D01*
X29979523Y23808096D01*
X31198571Y23808096D02*
X30741428Y23808096D01*
X30970000Y23808096D02*
X30970000Y24608096D01*
X30893809Y24493810D01*
X30817619Y24417620D01*
X30741428Y24379524D01*
G04 #@! TO.C,U2*
X25260476Y17678096D02*
X25260476Y17030477D01*
X25298571Y16954286D01*
X25336666Y16916191D01*
X25412857Y16878096D01*
X25565238Y16878096D01*
X25641428Y16916191D01*
X25679523Y16954286D01*
X25717619Y17030477D01*
X25717619Y17678096D01*
X26060476Y17601905D02*
X26098571Y17640000D01*
X26174761Y17678096D01*
X26365238Y17678096D01*
X26441428Y17640000D01*
X26479523Y17601905D01*
X26517619Y17525715D01*
X26517619Y17449524D01*
X26479523Y17335239D01*
X26022380Y16878096D01*
X26517619Y16878096D01*
G04 #@! TO.C,C1*
X20655714Y16856667D02*
X20693809Y16818572D01*
X20731904Y16704286D01*
X20731904Y16628096D01*
X20693809Y16513810D01*
X20617619Y16437620D01*
X20541428Y16399524D01*
X20389047Y16361429D01*
X20274761Y16361429D01*
X20122380Y16399524D01*
X20046190Y16437620D01*
X19970000Y16513810D01*
X19931904Y16628096D01*
X19931904Y16704286D01*
X19970000Y16818572D01*
X20008095Y16856667D01*
X20731904Y17618572D02*
X20731904Y17161429D01*
X20731904Y17390000D02*
X19931904Y17390000D01*
X20046190Y17313810D01*
X20122380Y17237620D01*
X20160476Y17161429D01*
G04 #@! TO.C,R1*
X15766666Y14378096D02*
X15500000Y14759048D01*
X15309523Y14378096D02*
X15309523Y15178096D01*
X15614285Y15178096D01*
X15690476Y15140000D01*
X15728571Y15101905D01*
X15766666Y15025715D01*
X15766666Y14911429D01*
X15728571Y14835239D01*
X15690476Y14797143D01*
X15614285Y14759048D01*
X15309523Y14759048D01*
X16528571Y14378096D02*
X16071428Y14378096D01*
X16300000Y14378096D02*
X16300000Y15178096D01*
X16223809Y15063810D01*
X16147619Y14987620D01*
X16071428Y14949524D01*
G04 #@! TO.C,R2*
X27901904Y23606667D02*
X27520952Y23340000D01*
X27901904Y23149524D02*
X27101904Y23149524D01*
X27101904Y23454286D01*
X27140000Y23530477D01*
X27178095Y23568572D01*
X27254285Y23606667D01*
X27368571Y23606667D01*
X27444761Y23568572D01*
X27482857Y23530477D01*
X27520952Y23454286D01*
X27520952Y23149524D01*
X27178095Y23911429D02*
X27140000Y23949524D01*
X27101904Y24025715D01*
X27101904Y24216191D01*
X27140000Y24292381D01*
X27178095Y24330477D01*
X27254285Y24368572D01*
X27330476Y24368572D01*
X27444761Y24330477D01*
X27901904Y23873334D01*
X27901904Y24368572D01*
G04 #@! TO.C,R9*
X29993904Y10840667D02*
X29612952Y10574000D01*
X29993904Y10383524D02*
X29193904Y10383524D01*
X29193904Y10688286D01*
X29232000Y10764477D01*
X29270095Y10802572D01*
X29346285Y10840667D01*
X29460571Y10840667D01*
X29536761Y10802572D01*
X29574857Y10764477D01*
X29612952Y10688286D01*
X29612952Y10383524D01*
X29993904Y11221620D02*
X29993904Y11374000D01*
X29955809Y11450191D01*
X29917714Y11488286D01*
X29803428Y11564477D01*
X29651047Y11602572D01*
X29346285Y11602572D01*
X29270095Y11564477D01*
X29232000Y11526381D01*
X29193904Y11450191D01*
X29193904Y11297810D01*
X29232000Y11221620D01*
X29270095Y11183524D01*
X29346285Y11145429D01*
X29536761Y11145429D01*
X29612952Y11183524D01*
X29651047Y11221620D01*
X29689142Y11297810D01*
X29689142Y11450191D01*
X29651047Y11526381D01*
X29612952Y11564477D01*
X29536761Y11602572D01*
G04 #@! TO.C,Q1*
X31468809Y12841905D02*
X31392619Y12880000D01*
X31316428Y12956191D01*
X31202142Y13070477D01*
X31125952Y13108572D01*
X31049761Y13108572D01*
X31087857Y12918096D02*
X31011666Y12956191D01*
X30935476Y13032381D01*
X30897380Y13184762D01*
X30897380Y13451429D01*
X30935476Y13603810D01*
X31011666Y13680000D01*
X31087857Y13718096D01*
X31240238Y13718096D01*
X31316428Y13680000D01*
X31392619Y13603810D01*
X31430714Y13451429D01*
X31430714Y13184762D01*
X31392619Y13032381D01*
X31316428Y12956191D01*
X31240238Y12918096D01*
X31087857Y12918096D01*
X32192619Y12918096D02*
X31735476Y12918096D01*
X31964047Y12918096D02*
X31964047Y13718096D01*
X31887857Y13603810D01*
X31811666Y13527620D01*
X31735476Y13489524D01*
G04 #@! TO.C,R4*
X34566666Y14128096D02*
X34300000Y14509048D01*
X34109523Y14128096D02*
X34109523Y14928096D01*
X34414285Y14928096D01*
X34490476Y14890000D01*
X34528571Y14851905D01*
X34566666Y14775715D01*
X34566666Y14661429D01*
X34528571Y14585239D01*
X34490476Y14547143D01*
X34414285Y14509048D01*
X34109523Y14509048D01*
X35252380Y14661429D02*
X35252380Y14128096D01*
X35061904Y14966191D02*
X34871428Y14394762D01*
X35366666Y14394762D01*
G04 #@! TO.C,R5*
X36231904Y10856667D02*
X35850952Y10590000D01*
X36231904Y10399524D02*
X35431904Y10399524D01*
X35431904Y10704286D01*
X35470000Y10780477D01*
X35508095Y10818572D01*
X35584285Y10856667D01*
X35698571Y10856667D01*
X35774761Y10818572D01*
X35812857Y10780477D01*
X35850952Y10704286D01*
X35850952Y10399524D01*
X35431904Y11580477D02*
X35431904Y11199524D01*
X35812857Y11161429D01*
X35774761Y11199524D01*
X35736666Y11275715D01*
X35736666Y11466191D01*
X35774761Y11542381D01*
X35812857Y11580477D01*
X35889047Y11618572D01*
X36079523Y11618572D01*
X36155714Y11580477D01*
X36193809Y11542381D01*
X36231904Y11466191D01*
X36231904Y11275715D01*
X36193809Y11199524D01*
X36155714Y11161429D01*
G04 #@! TO.C,R7*
X25651904Y23606667D02*
X25270952Y23340000D01*
X25651904Y23149524D02*
X24851904Y23149524D01*
X24851904Y23454286D01*
X24890000Y23530477D01*
X24928095Y23568572D01*
X25004285Y23606667D01*
X25118571Y23606667D01*
X25194761Y23568572D01*
X25232857Y23530477D01*
X25270952Y23454286D01*
X25270952Y23149524D01*
X24851904Y23873334D02*
X24851904Y24406667D01*
X25651904Y24063810D01*
G04 #@! TO.C,R8*
X23531904Y23606667D02*
X23150952Y23340000D01*
X23531904Y23149524D02*
X22731904Y23149524D01*
X22731904Y23454286D01*
X22770000Y23530477D01*
X22808095Y23568572D01*
X22884285Y23606667D01*
X22998571Y23606667D01*
X23074761Y23568572D01*
X23112857Y23530477D01*
X23150952Y23454286D01*
X23150952Y23149524D01*
X23074761Y24063810D02*
X23036666Y23987620D01*
X22998571Y23949524D01*
X22922380Y23911429D01*
X22884285Y23911429D01*
X22808095Y23949524D01*
X22770000Y23987620D01*
X22731904Y24063810D01*
X22731904Y24216191D01*
X22770000Y24292381D01*
X22808095Y24330477D01*
X22884285Y24368572D01*
X22922380Y24368572D01*
X22998571Y24330477D01*
X23036666Y24292381D01*
X23074761Y24216191D01*
X23074761Y24063810D01*
X23112857Y23987620D01*
X23150952Y23949524D01*
X23227142Y23911429D01*
X23379523Y23911429D01*
X23455714Y23949524D01*
X23493809Y23987620D01*
X23531904Y24063810D01*
X23531904Y24216191D01*
X23493809Y24292381D01*
X23455714Y24330477D01*
X23379523Y24368572D01*
X23227142Y24368572D01*
X23150952Y24330477D01*
X23112857Y24292381D01*
X23074761Y24216191D01*
G04 #@! TO.C,R10*
X26481904Y10475715D02*
X26100952Y10209048D01*
X26481904Y10018572D02*
X25681904Y10018572D01*
X25681904Y10323334D01*
X25720000Y10399524D01*
X25758095Y10437620D01*
X25834285Y10475715D01*
X25948571Y10475715D01*
X26024761Y10437620D01*
X26062857Y10399524D01*
X26100952Y10323334D01*
X26100952Y10018572D01*
X26481904Y11237620D02*
X26481904Y10780477D01*
X26481904Y11009048D02*
X25681904Y11009048D01*
X25796190Y10932858D01*
X25872380Y10856667D01*
X25910476Y10780477D01*
X25681904Y11732858D02*
X25681904Y11809048D01*
X25720000Y11885239D01*
X25758095Y11923334D01*
X25834285Y11961429D01*
X25986666Y11999524D01*
X26177142Y11999524D01*
X26329523Y11961429D01*
X26405714Y11923334D01*
X26443809Y11885239D01*
X26481904Y11809048D01*
X26481904Y11732858D01*
X26443809Y11656667D01*
X26405714Y11618572D01*
X26329523Y11580477D01*
X26177142Y11542381D01*
X25986666Y11542381D01*
X25834285Y11580477D01*
X25758095Y11618572D01*
X25720000Y11656667D01*
X25681904Y11732858D01*
G04 #@! TO.C,R6*
X33736666Y10628096D02*
X33470000Y11009048D01*
X33279523Y10628096D02*
X33279523Y11428096D01*
X33584285Y11428096D01*
X33660476Y11390000D01*
X33698571Y11351905D01*
X33736666Y11275715D01*
X33736666Y11161429D01*
X33698571Y11085239D01*
X33660476Y11047143D01*
X33584285Y11009048D01*
X33279523Y11009048D01*
X34422380Y11428096D02*
X34270000Y11428096D01*
X34193809Y11390000D01*
X34155714Y11351905D01*
X34079523Y11237620D01*
X34041428Y11085239D01*
X34041428Y10780477D01*
X34079523Y10704286D01*
X34117619Y10666191D01*
X34193809Y10628096D01*
X34346190Y10628096D01*
X34422380Y10666191D01*
X34460476Y10704286D01*
X34498571Y10780477D01*
X34498571Y10970953D01*
X34460476Y11047143D01*
X34422380Y11085239D01*
X34346190Y11123334D01*
X34193809Y11123334D01*
X34117619Y11085239D01*
X34079523Y11047143D01*
X34041428Y10970953D01*
G04 #@! TO.C,Y1*
X16050952Y19359048D02*
X16431904Y19359048D01*
X15631904Y19092381D02*
X16050952Y19359048D01*
X15631904Y19625715D01*
X16431904Y20311429D02*
X16431904Y19854286D01*
X16431904Y20082858D02*
X15631904Y20082858D01*
X15746190Y20006667D01*
X15822380Y19930477D01*
X15860476Y19854286D01*
G04 #@! TO.C,R13*
X13605714Y10078096D02*
X13339047Y10459048D01*
X13148571Y10078096D02*
X13148571Y10878096D01*
X13453333Y10878096D01*
X13529523Y10840000D01*
X13567619Y10801905D01*
X13605714Y10725715D01*
X13605714Y10611429D01*
X13567619Y10535239D01*
X13529523Y10497143D01*
X13453333Y10459048D01*
X13148571Y10459048D01*
X14367619Y10078096D02*
X13910476Y10078096D01*
X14139047Y10078096D02*
X14139047Y10878096D01*
X14062857Y10763810D01*
X13986666Y10687620D01*
X13910476Y10649524D01*
X14634285Y10878096D02*
X15129523Y10878096D01*
X14862857Y10573334D01*
X14977142Y10573334D01*
X15053333Y10535239D01*
X15091428Y10497143D01*
X15129523Y10420953D01*
X15129523Y10230477D01*
X15091428Y10154286D01*
X15053333Y10116191D01*
X14977142Y10078096D01*
X14748571Y10078096D01*
X14672380Y10116191D01*
X14634285Y10154286D01*
G04 #@! TO.C,R11*
X22731904Y10475715D02*
X22350952Y10209048D01*
X22731904Y10018572D02*
X21931904Y10018572D01*
X21931904Y10323334D01*
X21970000Y10399524D01*
X22008095Y10437620D01*
X22084285Y10475715D01*
X22198571Y10475715D01*
X22274761Y10437620D01*
X22312857Y10399524D01*
X22350952Y10323334D01*
X22350952Y10018572D01*
X22731904Y11237620D02*
X22731904Y10780477D01*
X22731904Y11009048D02*
X21931904Y11009048D01*
X22046190Y10932858D01*
X22122380Y10856667D01*
X22160476Y10780477D01*
X22731904Y11999524D02*
X22731904Y11542381D01*
X22731904Y11770953D02*
X21931904Y11770953D01*
X22046190Y11694762D01*
X22122380Y11618572D01*
X22160476Y11542381D01*
D11*
G04 #@! TO.C,U1*
X34950000Y18812000D02*
X35600000Y18812000D01*
X34950000Y21932000D02*
X35600000Y21932000D01*
X34950000Y21932000D02*
X33275000Y21932000D01*
X34950000Y18812000D02*
X34300000Y18812000D01*
G04 #@! TO.C,C4*
X35131252Y18225000D02*
X34608748Y18225000D01*
X35131252Y16755000D02*
X34608748Y16755000D01*
G04 #@! TO.C,C5*
X32755000Y20110748D02*
X32755000Y20633252D01*
X31285000Y20110748D02*
X31285000Y20633252D01*
G04 #@! TO.C,R3*
X32273641Y17420000D02*
X31966359Y17420000D01*
X32273641Y16660000D02*
X31966359Y16660000D01*
G04 #@! TO.C,C6*
X21260000Y21382164D02*
X21260000Y21597836D01*
X21980000Y21382164D02*
X21980000Y21597836D01*
G04 #@! TO.C,C7*
X29760000Y21382164D02*
X29760000Y21597836D01*
X30480000Y21382164D02*
X30480000Y21597836D01*
G04 #@! TO.C,C8*
X28960000Y11081836D02*
X28960000Y10866164D01*
X28240000Y11081836D02*
X28240000Y10866164D01*
G04 #@! TO.C,C9*
X19727836Y14380000D02*
X19512164Y14380000D01*
X19727836Y15100000D02*
X19512164Y15100000D01*
G04 #@! TO.C,C2*
X17727836Y23850000D02*
X17512164Y23850000D01*
X17727836Y23130000D02*
X17512164Y23130000D01*
G04 #@! TO.C,C3*
X17512164Y15630000D02*
X17727836Y15630000D01*
X17512164Y16350000D02*
X17727836Y16350000D01*
G04 #@! TO.C,D2*
X16385000Y12725000D02*
X16385000Y11255000D01*
X16385000Y11255000D02*
X18670000Y11255000D01*
X18670000Y12725000D02*
X16385000Y12725000D01*
G04 #@! TO.C,D3*
X16385000Y12755000D02*
X18670000Y12755000D01*
X16385000Y14225000D02*
X16385000Y12755000D01*
X18670000Y14225000D02*
X16385000Y14225000D01*
G04 #@! TO.C,R12*
X20716359Y12370000D02*
X21023641Y12370000D01*
X20716359Y11610000D02*
X21023641Y11610000D01*
G04 #@! TO.C,D1*
X31370000Y22420000D02*
X35270000Y22420000D01*
X31370000Y24420000D02*
X35270000Y24420000D01*
X31370000Y24420000D02*
X31370000Y22420000D01*
G04 #@! TO.C,U2*
X22260000Y20400000D02*
X20970000Y20400000D01*
X29480000Y20850000D02*
X29480000Y20400000D01*
X29480000Y13630000D02*
X29480000Y14080000D01*
X22710000Y13630000D02*
X22260000Y13630000D01*
X29030000Y20850000D02*
X29480000Y20850000D01*
X22260000Y20850000D02*
X22260000Y20400000D01*
X22710000Y20850000D02*
X22260000Y20850000D01*
X29030000Y13630000D02*
X29480000Y13630000D01*
X22260000Y13630000D02*
X22260000Y14080000D01*
D12*
G04 #@! TO.C,J1*
X57795000Y11115000D02*
X57245000Y11115000D01*
X41670000Y23365000D02*
X42445000Y23365000D01*
X57795000Y11815000D02*
X57795000Y11115000D01*
X57795000Y22640000D02*
X57795000Y23365000D01*
X42420000Y23365000D02*
X43370000Y23365000D01*
X41670000Y11115000D02*
X43445000Y11115000D01*
X57795000Y23365000D02*
X57195000Y23365000D01*
D11*
G04 #@! TO.C,C1*
X19727836Y15630000D02*
X19512164Y15630000D01*
X19727836Y16350000D02*
X19512164Y16350000D01*
G04 #@! TO.C,R1*
X17773641Y14360000D02*
X17466359Y14360000D01*
X17773641Y15120000D02*
X17466359Y15120000D01*
G04 #@! TO.C,R2*
X26750000Y23893641D02*
X26750000Y23586359D01*
X25990000Y23893641D02*
X25990000Y23586359D01*
G04 #@! TO.C,R9*
X31012000Y10820359D02*
X31012000Y11127641D01*
X30252000Y10820359D02*
X30252000Y11127641D01*
D12*
G04 #@! TO.C,H1*
X18370000Y24740000D02*
G75*
G03*
X18370000Y25740000I0J500000D01*
G01*
X21370000Y25740000D02*
G75*
G03*
X21370000Y24740000I0J-500000D01*
G01*
G04 #@! TO.C,H2*
X21370000Y9740000D02*
G75*
G03*
X21370000Y8740000I0J-500000D01*
G01*
X18370000Y8740000D02*
G75*
G03*
X18370000Y9740000I0J500000D01*
G01*
G04 #@! TO.C,H3*
X35870000Y24740000D02*
G75*
G03*
X35870000Y25740000I0J500000D01*
G01*
X38870000Y25740000D02*
G75*
G03*
X38870000Y24740000I0J-500000D01*
G01*
G04 #@! TO.C,H4*
X38870000Y9740000D02*
G75*
G03*
X38870000Y8740000I0J-500000D01*
G01*
X35870000Y8740000D02*
G75*
G03*
X35870000Y9740000I0J500000D01*
G01*
D11*
G04 #@! TO.C,Q1*
X33045000Y12970000D02*
X32395000Y12970000D01*
X33045000Y16090000D02*
X32395000Y16090000D01*
X33045000Y12970000D02*
X34720000Y12970000D01*
X33045000Y16090000D02*
X33695000Y16090000D01*
G04 #@! TO.C,R4*
X35490000Y15086359D02*
X35490000Y15393641D01*
X36250000Y15086359D02*
X36250000Y15393641D01*
G04 #@! TO.C,R5*
X36250000Y12586359D02*
X36250000Y12893641D01*
X35490000Y12586359D02*
X35490000Y12893641D01*
G04 #@! TO.C,R7*
X23740000Y23893641D02*
X23740000Y23586359D01*
X24500000Y23893641D02*
X24500000Y23586359D01*
G04 #@! TO.C,R8*
X21740000Y23893641D02*
X21740000Y23586359D01*
X22500000Y23893641D02*
X22500000Y23586359D01*
G04 #@! TO.C,R10*
X24490000Y11143641D02*
X24490000Y10836359D01*
X25250000Y11143641D02*
X25250000Y10836359D01*
G04 #@! TO.C,R6*
X33716359Y12370000D02*
X34023641Y12370000D01*
X33716359Y11610000D02*
X34023641Y11610000D01*
G04 #@! TO.C,Y1*
X20420000Y17040000D02*
X20420000Y22790000D01*
X16820000Y22790000D02*
X16820000Y17040000D01*
X20420000Y22790000D02*
X16820000Y22790000D01*
G04 #@! TO.C,R13*
X16323641Y10110000D02*
X16016359Y10110000D01*
X16323641Y10870000D02*
X16016359Y10870000D01*
G04 #@! TO.C,R11*
X23750000Y10836359D02*
X23750000Y11143641D01*
X22990000Y10836359D02*
X22990000Y11143641D01*
G04 #@! TD*
M02*
