%TF.GenerationSoftware,KiCad,Pcbnew,5.1.9+dfsg1-1*%
%TF.CreationDate,2021-07-11T15:28:01+08:00*%
%TF.ProjectId,stlink,73746c69-6e6b-42e6-9b69-6361645f7063,a*%
%TF.SameCoordinates,Original*%
%TF.FileFunction,Paste,Top*%
%TF.FilePolarity,Positive*%
%FSLAX46Y46*%
G04 Gerber Fmt 4.6, Leading zero omitted, Abs format (unit mm)*
G04 Created by KiCad (PCBNEW 5.1.9+dfsg1-1) date 2021-07-11 15:28:01*
%MOMM*%
%LPD*%
G01*
G04 APERTURE LIST*
%ADD10R,0.900000X0.800000*%
%ADD11R,2.400000X2.000000*%
%ADD12R,2.540000X1.524000*%
%ADD13R,0.900000X1.200000*%
G04 APERTURE END LIST*
%TO.C,R11*%
G36*
G01*
X123250000Y-96935000D02*
X123250000Y-96565000D01*
G75*
G02*
X123385000Y-96430000I135000J0D01*
G01*
X123655000Y-96430000D01*
G75*
G02*
X123790000Y-96565000I0J-135000D01*
G01*
X123790000Y-96935000D01*
G75*
G02*
X123655000Y-97070000I-135000J0D01*
G01*
X123385000Y-97070000D01*
G75*
G02*
X123250000Y-96935000I0J135000D01*
G01*
G37*
G36*
G01*
X122230000Y-96935000D02*
X122230000Y-96565000D01*
G75*
G02*
X122365000Y-96430000I135000J0D01*
G01*
X122635000Y-96430000D01*
G75*
G02*
X122770000Y-96565000I0J-135000D01*
G01*
X122770000Y-96935000D01*
G75*
G02*
X122635000Y-97070000I-135000J0D01*
G01*
X122365000Y-97070000D01*
G75*
G02*
X122230000Y-96935000I0J135000D01*
G01*
G37*
%TD*%
%TO.C,R10*%
G36*
G01*
X121240000Y-96935000D02*
X121240000Y-96565000D01*
G75*
G02*
X121375000Y-96430000I135000J0D01*
G01*
X121645000Y-96430000D01*
G75*
G02*
X121780000Y-96565000I0J-135000D01*
G01*
X121780000Y-96935000D01*
G75*
G02*
X121645000Y-97070000I-135000J0D01*
G01*
X121375000Y-97070000D01*
G75*
G02*
X121240000Y-96935000I0J135000D01*
G01*
G37*
G36*
G01*
X120220000Y-96935000D02*
X120220000Y-96565000D01*
G75*
G02*
X120355000Y-96430000I135000J0D01*
G01*
X120625000Y-96430000D01*
G75*
G02*
X120760000Y-96565000I0J-135000D01*
G01*
X120760000Y-96935000D01*
G75*
G02*
X120625000Y-97070000I-135000J0D01*
G01*
X120355000Y-97070000D01*
G75*
G02*
X120220000Y-96935000I0J135000D01*
G01*
G37*
%TD*%
%TO.C,R8*%
G36*
G01*
X123490000Y-95935000D02*
X123490000Y-95565000D01*
G75*
G02*
X123625000Y-95430000I135000J0D01*
G01*
X123895000Y-95430000D01*
G75*
G02*
X124030000Y-95565000I0J-135000D01*
G01*
X124030000Y-95935000D01*
G75*
G02*
X123895000Y-96070000I-135000J0D01*
G01*
X123625000Y-96070000D01*
G75*
G02*
X123490000Y-95935000I0J135000D01*
G01*
G37*
G36*
G01*
X122470000Y-95935000D02*
X122470000Y-95565000D01*
G75*
G02*
X122605000Y-95430000I135000J0D01*
G01*
X122875000Y-95430000D01*
G75*
G02*
X123010000Y-95565000I0J-135000D01*
G01*
X123010000Y-95935000D01*
G75*
G02*
X122875000Y-96070000I-135000J0D01*
G01*
X122605000Y-96070000D01*
G75*
G02*
X122470000Y-95935000I0J135000D01*
G01*
G37*
%TD*%
%TO.C,R7*%
G36*
G01*
X121240000Y-95935000D02*
X121240000Y-95565000D01*
G75*
G02*
X121375000Y-95430000I135000J0D01*
G01*
X121645000Y-95430000D01*
G75*
G02*
X121780000Y-95565000I0J-135000D01*
G01*
X121780000Y-95935000D01*
G75*
G02*
X121645000Y-96070000I-135000J0D01*
G01*
X121375000Y-96070000D01*
G75*
G02*
X121240000Y-95935000I0J135000D01*
G01*
G37*
G36*
G01*
X120220000Y-95935000D02*
X120220000Y-95565000D01*
G75*
G02*
X120355000Y-95430000I135000J0D01*
G01*
X120625000Y-95430000D01*
G75*
G02*
X120760000Y-95565000I0J-135000D01*
G01*
X120760000Y-95935000D01*
G75*
G02*
X120625000Y-96070000I-135000J0D01*
G01*
X120355000Y-96070000D01*
G75*
G02*
X120220000Y-95935000I0J135000D01*
G01*
G37*
%TD*%
%TO.C,R6*%
G36*
G01*
X131240000Y-95435000D02*
X131240000Y-95065000D01*
G75*
G02*
X131375000Y-94930000I135000J0D01*
G01*
X131645000Y-94930000D01*
G75*
G02*
X131780000Y-95065000I0J-135000D01*
G01*
X131780000Y-95435000D01*
G75*
G02*
X131645000Y-95570000I-135000J0D01*
G01*
X131375000Y-95570000D01*
G75*
G02*
X131240000Y-95435000I0J135000D01*
G01*
G37*
G36*
G01*
X130220000Y-95435000D02*
X130220000Y-95065000D01*
G75*
G02*
X130355000Y-94930000I135000J0D01*
G01*
X130625000Y-94930000D01*
G75*
G02*
X130760000Y-95065000I0J-135000D01*
G01*
X130760000Y-95435000D01*
G75*
G02*
X130625000Y-95570000I-135000J0D01*
G01*
X130355000Y-95570000D01*
G75*
G02*
X130220000Y-95435000I0J135000D01*
G01*
G37*
%TD*%
%TO.C,R5*%
G36*
G01*
X132935000Y-93760000D02*
X132565000Y-93760000D01*
G75*
G02*
X132430000Y-93625000I0J135000D01*
G01*
X132430000Y-93355000D01*
G75*
G02*
X132565000Y-93220000I135000J0D01*
G01*
X132935000Y-93220000D01*
G75*
G02*
X133070000Y-93355000I0J-135000D01*
G01*
X133070000Y-93625000D01*
G75*
G02*
X132935000Y-93760000I-135000J0D01*
G01*
G37*
G36*
G01*
X132935000Y-94780000D02*
X132565000Y-94780000D01*
G75*
G02*
X132430000Y-94645000I0J135000D01*
G01*
X132430000Y-94375000D01*
G75*
G02*
X132565000Y-94240000I135000J0D01*
G01*
X132935000Y-94240000D01*
G75*
G02*
X133070000Y-94375000I0J-135000D01*
G01*
X133070000Y-94645000D01*
G75*
G02*
X132935000Y-94780000I-135000J0D01*
G01*
G37*
%TD*%
%TO.C,R4*%
G36*
G01*
X133185000Y-91760000D02*
X132815000Y-91760000D01*
G75*
G02*
X132680000Y-91625000I0J135000D01*
G01*
X132680000Y-91355000D01*
G75*
G02*
X132815000Y-91220000I135000J0D01*
G01*
X133185000Y-91220000D01*
G75*
G02*
X133320000Y-91355000I0J-135000D01*
G01*
X133320000Y-91625000D01*
G75*
G02*
X133185000Y-91760000I-135000J0D01*
G01*
G37*
G36*
G01*
X133185000Y-92780000D02*
X132815000Y-92780000D01*
G75*
G02*
X132680000Y-92645000I0J135000D01*
G01*
X132680000Y-92375000D01*
G75*
G02*
X132815000Y-92240000I135000J0D01*
G01*
X133185000Y-92240000D01*
G75*
G02*
X133320000Y-92375000I0J-135000D01*
G01*
X133320000Y-92645000D01*
G75*
G02*
X133185000Y-92780000I-135000J0D01*
G01*
G37*
%TD*%
D10*
%TO.C,Q1*%
X129250000Y-92750000D03*
X131250000Y-91800000D03*
X131250000Y-93700000D03*
%TD*%
%TO.C,R9*%
G36*
G01*
X129010000Y-90315000D02*
X129010000Y-90685000D01*
G75*
G02*
X128875000Y-90820000I-135000J0D01*
G01*
X128605000Y-90820000D01*
G75*
G02*
X128470000Y-90685000I0J135000D01*
G01*
X128470000Y-90315000D01*
G75*
G02*
X128605000Y-90180000I135000J0D01*
G01*
X128875000Y-90180000D01*
G75*
G02*
X129010000Y-90315000I0J-135000D01*
G01*
G37*
G36*
G01*
X130030000Y-90315000D02*
X130030000Y-90685000D01*
G75*
G02*
X129895000Y-90820000I-135000J0D01*
G01*
X129625000Y-90820000D01*
G75*
G02*
X129490000Y-90685000I0J135000D01*
G01*
X129490000Y-90315000D01*
G75*
G02*
X129625000Y-90180000I135000J0D01*
G01*
X129895000Y-90180000D01*
G75*
G02*
X130030000Y-90315000I0J-135000D01*
G01*
G37*
%TD*%
%TO.C,R2*%
G36*
G01*
X121990000Y-83685000D02*
X121990000Y-83315000D01*
G75*
G02*
X122125000Y-83180000I135000J0D01*
G01*
X122395000Y-83180000D01*
G75*
G02*
X122530000Y-83315000I0J-135000D01*
G01*
X122530000Y-83685000D01*
G75*
G02*
X122395000Y-83820000I-135000J0D01*
G01*
X122125000Y-83820000D01*
G75*
G02*
X121990000Y-83685000I0J135000D01*
G01*
G37*
G36*
G01*
X120970000Y-83685000D02*
X120970000Y-83315000D01*
G75*
G02*
X121105000Y-83180000I135000J0D01*
G01*
X121375000Y-83180000D01*
G75*
G02*
X121510000Y-83315000I0J-135000D01*
G01*
X121510000Y-83685000D01*
G75*
G02*
X121375000Y-83820000I-135000J0D01*
G01*
X121105000Y-83820000D01*
G75*
G02*
X120970000Y-83685000I0J135000D01*
G01*
G37*
%TD*%
%TO.C,R1*%
G36*
G01*
X114510000Y-92315000D02*
X114510000Y-92685000D01*
G75*
G02*
X114375000Y-92820000I-135000J0D01*
G01*
X114105000Y-92820000D01*
G75*
G02*
X113970000Y-92685000I0J135000D01*
G01*
X113970000Y-92315000D01*
G75*
G02*
X114105000Y-92180000I135000J0D01*
G01*
X114375000Y-92180000D01*
G75*
G02*
X114510000Y-92315000I0J-135000D01*
G01*
G37*
G36*
G01*
X115530000Y-92315000D02*
X115530000Y-92685000D01*
G75*
G02*
X115395000Y-92820000I-135000J0D01*
G01*
X115125000Y-92820000D01*
G75*
G02*
X114990000Y-92685000I0J135000D01*
G01*
X114990000Y-92315000D01*
G75*
G02*
X115125000Y-92180000I135000J0D01*
G01*
X115395000Y-92180000D01*
G75*
G02*
X115530000Y-92315000I0J-135000D01*
G01*
G37*
%TD*%
%TO.C,C1*%
G36*
G01*
X116550000Y-91080000D02*
X116550000Y-91420000D01*
G75*
G02*
X116410000Y-91560000I-140000J0D01*
G01*
X116130000Y-91560000D01*
G75*
G02*
X115990000Y-91420000I0J140000D01*
G01*
X115990000Y-91080000D01*
G75*
G02*
X116130000Y-90940000I140000J0D01*
G01*
X116410000Y-90940000D01*
G75*
G02*
X116550000Y-91080000I0J-140000D01*
G01*
G37*
G36*
G01*
X117510000Y-91080000D02*
X117510000Y-91420000D01*
G75*
G02*
X117370000Y-91560000I-140000J0D01*
G01*
X117090000Y-91560000D01*
G75*
G02*
X116950000Y-91420000I0J140000D01*
G01*
X116950000Y-91080000D01*
G75*
G02*
X117090000Y-90940000I140000J0D01*
G01*
X117370000Y-90940000D01*
G75*
G02*
X117510000Y-91080000I0J-140000D01*
G01*
G37*
%TD*%
%TO.C,R13*%
G36*
G01*
X114060000Y-96577500D02*
X114060000Y-96922500D01*
G75*
G02*
X113912500Y-97070000I-147500J0D01*
G01*
X113617500Y-97070000D01*
G75*
G02*
X113470000Y-96922500I0J147500D01*
G01*
X113470000Y-96577500D01*
G75*
G02*
X113617500Y-96430000I147500J0D01*
G01*
X113912500Y-96430000D01*
G75*
G02*
X114060000Y-96577500I0J-147500D01*
G01*
G37*
G36*
G01*
X115030000Y-96577500D02*
X115030000Y-96922500D01*
G75*
G02*
X114882500Y-97070000I-147500J0D01*
G01*
X114587500Y-97070000D01*
G75*
G02*
X114440000Y-96922500I0J147500D01*
G01*
X114440000Y-96577500D01*
G75*
G02*
X114587500Y-96430000I147500J0D01*
G01*
X114882500Y-96430000D01*
G75*
G02*
X115030000Y-96577500I0J-147500D01*
G01*
G37*
%TD*%
%TO.C,R12*%
G36*
G01*
X118190000Y-95422500D02*
X118190000Y-95077500D01*
G75*
G02*
X118337500Y-94930000I147500J0D01*
G01*
X118632500Y-94930000D01*
G75*
G02*
X118780000Y-95077500I0J-147500D01*
G01*
X118780000Y-95422500D01*
G75*
G02*
X118632500Y-95570000I-147500J0D01*
G01*
X118337500Y-95570000D01*
G75*
G02*
X118190000Y-95422500I0J147500D01*
G01*
G37*
G36*
G01*
X117220000Y-95422500D02*
X117220000Y-95077500D01*
G75*
G02*
X117367500Y-94930000I147500J0D01*
G01*
X117662500Y-94930000D01*
G75*
G02*
X117810000Y-95077500I0J-147500D01*
G01*
X117810000Y-95422500D01*
G75*
G02*
X117662500Y-95570000I-147500J0D01*
G01*
X117367500Y-95570000D01*
G75*
G02*
X117220000Y-95422500I0J147500D01*
G01*
G37*
%TD*%
%TO.C,D3*%
G36*
G01*
X115350000Y-94006250D02*
X115350000Y-93493750D01*
G75*
G02*
X115568750Y-93275000I218750J0D01*
G01*
X116006250Y-93275000D01*
G75*
G02*
X116225000Y-93493750I0J-218750D01*
G01*
X116225000Y-94006250D01*
G75*
G02*
X116006250Y-94225000I-218750J0D01*
G01*
X115568750Y-94225000D01*
G75*
G02*
X115350000Y-94006250I0J218750D01*
G01*
G37*
G36*
G01*
X113775000Y-94006250D02*
X113775000Y-93493750D01*
G75*
G02*
X113993750Y-93275000I218750J0D01*
G01*
X114431250Y-93275000D01*
G75*
G02*
X114650000Y-93493750I0J-218750D01*
G01*
X114650000Y-94006250D01*
G75*
G02*
X114431250Y-94225000I-218750J0D01*
G01*
X113993750Y-94225000D01*
G75*
G02*
X113775000Y-94006250I0J218750D01*
G01*
G37*
%TD*%
%TO.C,D2*%
G36*
G01*
X115350000Y-95506250D02*
X115350000Y-94993750D01*
G75*
G02*
X115568750Y-94775000I218750J0D01*
G01*
X116006250Y-94775000D01*
G75*
G02*
X116225000Y-94993750I0J-218750D01*
G01*
X116225000Y-95506250D01*
G75*
G02*
X116006250Y-95725000I-218750J0D01*
G01*
X115568750Y-95725000D01*
G75*
G02*
X115350000Y-95506250I0J218750D01*
G01*
G37*
G36*
G01*
X113775000Y-95506250D02*
X113775000Y-94993750D01*
G75*
G02*
X113993750Y-94775000I218750J0D01*
G01*
X114431250Y-94775000D01*
G75*
G02*
X114650000Y-94993750I0J-218750D01*
G01*
X114650000Y-95506250D01*
G75*
G02*
X114431250Y-95725000I-218750J0D01*
G01*
X113993750Y-95725000D01*
G75*
G02*
X113775000Y-95506250I0J218750D01*
G01*
G37*
%TD*%
D11*
%TO.C,Y1*%
X115750000Y-89350000D03*
X115750000Y-85650000D03*
%TD*%
%TO.C,C3*%
G36*
G01*
X114940000Y-91422500D02*
X114940000Y-91077500D01*
G75*
G02*
X115087500Y-90930000I147500J0D01*
G01*
X115382500Y-90930000D01*
G75*
G02*
X115530000Y-91077500I0J-147500D01*
G01*
X115530000Y-91422500D01*
G75*
G02*
X115382500Y-91570000I-147500J0D01*
G01*
X115087500Y-91570000D01*
G75*
G02*
X114940000Y-91422500I0J147500D01*
G01*
G37*
G36*
G01*
X113970000Y-91422500D02*
X113970000Y-91077500D01*
G75*
G02*
X114117500Y-90930000I147500J0D01*
G01*
X114412500Y-90930000D01*
G75*
G02*
X114560000Y-91077500I0J-147500D01*
G01*
X114560000Y-91422500D01*
G75*
G02*
X114412500Y-91570000I-147500J0D01*
G01*
X114117500Y-91570000D01*
G75*
G02*
X113970000Y-91422500I0J147500D01*
G01*
G37*
%TD*%
%TO.C,C2*%
G36*
G01*
X114560000Y-83577500D02*
X114560000Y-83922500D01*
G75*
G02*
X114412500Y-84070000I-147500J0D01*
G01*
X114117500Y-84070000D01*
G75*
G02*
X113970000Y-83922500I0J147500D01*
G01*
X113970000Y-83577500D01*
G75*
G02*
X114117500Y-83430000I147500J0D01*
G01*
X114412500Y-83430000D01*
G75*
G02*
X114560000Y-83577500I0J-147500D01*
G01*
G37*
G36*
G01*
X115530000Y-83577500D02*
X115530000Y-83922500D01*
G75*
G02*
X115382500Y-84070000I-147500J0D01*
G01*
X115087500Y-84070000D01*
G75*
G02*
X114940000Y-83922500I0J147500D01*
G01*
X114940000Y-83577500D01*
G75*
G02*
X115087500Y-83430000I147500J0D01*
G01*
X115382500Y-83430000D01*
G75*
G02*
X115530000Y-83577500I0J-147500D01*
G01*
G37*
%TD*%
D12*
%TO.C,J2*%
X111500000Y-95000000D03*
X111500000Y-92460000D03*
X111500000Y-89920000D03*
X111500000Y-87380000D03*
X111500000Y-84840000D03*
%TD*%
%TO.C,C9*%
G36*
G01*
X116560000Y-92327500D02*
X116560000Y-92672500D01*
G75*
G02*
X116412500Y-92820000I-147500J0D01*
G01*
X116117500Y-92820000D01*
G75*
G02*
X115970000Y-92672500I0J147500D01*
G01*
X115970000Y-92327500D01*
G75*
G02*
X116117500Y-92180000I147500J0D01*
G01*
X116412500Y-92180000D01*
G75*
G02*
X116560000Y-92327500I0J-147500D01*
G01*
G37*
G36*
G01*
X117530000Y-92327500D02*
X117530000Y-92672500D01*
G75*
G02*
X117382500Y-92820000I-147500J0D01*
G01*
X117087500Y-92820000D01*
G75*
G02*
X116940000Y-92672500I0J147500D01*
G01*
X116940000Y-92327500D01*
G75*
G02*
X117087500Y-92180000I147500J0D01*
G01*
X117382500Y-92180000D01*
G75*
G02*
X117530000Y-92327500I0J-147500D01*
G01*
G37*
%TD*%
%TO.C,C8*%
G36*
G01*
X127077500Y-94440000D02*
X127422500Y-94440000D01*
G75*
G02*
X127570000Y-94587500I0J-147500D01*
G01*
X127570000Y-94882500D01*
G75*
G02*
X127422500Y-95030000I-147500J0D01*
G01*
X127077500Y-95030000D01*
G75*
G02*
X126930000Y-94882500I0J147500D01*
G01*
X126930000Y-94587500D01*
G75*
G02*
X127077500Y-94440000I147500J0D01*
G01*
G37*
G36*
G01*
X127077500Y-93470000D02*
X127422500Y-93470000D01*
G75*
G02*
X127570000Y-93617500I0J-147500D01*
G01*
X127570000Y-93912500D01*
G75*
G02*
X127422500Y-94060000I-147500J0D01*
G01*
X127077500Y-94060000D01*
G75*
G02*
X126930000Y-93912500I0J147500D01*
G01*
X126930000Y-93617500D01*
G75*
G02*
X127077500Y-93470000I147500J0D01*
G01*
G37*
%TD*%
%TO.C,C7*%
G36*
G01*
X127422500Y-85560000D02*
X127077500Y-85560000D01*
G75*
G02*
X126930000Y-85412500I0J147500D01*
G01*
X126930000Y-85117500D01*
G75*
G02*
X127077500Y-84970000I147500J0D01*
G01*
X127422500Y-84970000D01*
G75*
G02*
X127570000Y-85117500I0J-147500D01*
G01*
X127570000Y-85412500D01*
G75*
G02*
X127422500Y-85560000I-147500J0D01*
G01*
G37*
G36*
G01*
X127422500Y-86530000D02*
X127077500Y-86530000D01*
G75*
G02*
X126930000Y-86382500I0J147500D01*
G01*
X126930000Y-86087500D01*
G75*
G02*
X127077500Y-85940000I147500J0D01*
G01*
X127422500Y-85940000D01*
G75*
G02*
X127570000Y-86087500I0J-147500D01*
G01*
X127570000Y-86382500D01*
G75*
G02*
X127422500Y-86530000I-147500J0D01*
G01*
G37*
%TD*%
%TO.C,C6*%
G36*
G01*
X118922500Y-85560000D02*
X118577500Y-85560000D01*
G75*
G02*
X118430000Y-85412500I0J147500D01*
G01*
X118430000Y-85117500D01*
G75*
G02*
X118577500Y-84970000I147500J0D01*
G01*
X118922500Y-84970000D01*
G75*
G02*
X119070000Y-85117500I0J-147500D01*
G01*
X119070000Y-85412500D01*
G75*
G02*
X118922500Y-85560000I-147500J0D01*
G01*
G37*
G36*
G01*
X118922500Y-86530000D02*
X118577500Y-86530000D01*
G75*
G02*
X118430000Y-86382500I0J147500D01*
G01*
X118430000Y-86087500D01*
G75*
G02*
X118577500Y-85940000I147500J0D01*
G01*
X118922500Y-85940000D01*
G75*
G02*
X119070000Y-86087500I0J-147500D01*
G01*
X119070000Y-86382500D01*
G75*
G02*
X118922500Y-86530000I-147500J0D01*
G01*
G37*
%TD*%
%TO.C,R3*%
G36*
G01*
X129440000Y-89422500D02*
X129440000Y-89077500D01*
G75*
G02*
X129587500Y-88930000I147500J0D01*
G01*
X129882500Y-88930000D01*
G75*
G02*
X130030000Y-89077500I0J-147500D01*
G01*
X130030000Y-89422500D01*
G75*
G02*
X129882500Y-89570000I-147500J0D01*
G01*
X129587500Y-89570000D01*
G75*
G02*
X129440000Y-89422500I0J147500D01*
G01*
G37*
G36*
G01*
X128470000Y-89422500D02*
X128470000Y-89077500D01*
G75*
G02*
X128617500Y-88930000I147500J0D01*
G01*
X128912500Y-88930000D01*
G75*
G02*
X129060000Y-89077500I0J-147500D01*
G01*
X129060000Y-89422500D01*
G75*
G02*
X128912500Y-89570000I-147500J0D01*
G01*
X128617500Y-89570000D01*
G75*
G02*
X128470000Y-89422500I0J147500D01*
G01*
G37*
%TD*%
D13*
%TO.C,D1*%
X132900000Y-84000000D03*
X129600000Y-84000000D03*
%TD*%
%TO.C,C5*%
G36*
G01*
X129706250Y-86550000D02*
X128793750Y-86550000D01*
G75*
G02*
X128550000Y-86306250I0J243750D01*
G01*
X128550000Y-85818750D01*
G75*
G02*
X128793750Y-85575000I243750J0D01*
G01*
X129706250Y-85575000D01*
G75*
G02*
X129950000Y-85818750I0J-243750D01*
G01*
X129950000Y-86306250D01*
G75*
G02*
X129706250Y-86550000I-243750J0D01*
G01*
G37*
G36*
G01*
X129706250Y-88425000D02*
X128793750Y-88425000D01*
G75*
G02*
X128550000Y-88181250I0J243750D01*
G01*
X128550000Y-87693750D01*
G75*
G02*
X128793750Y-87450000I243750J0D01*
G01*
X129706250Y-87450000D01*
G75*
G02*
X129950000Y-87693750I0J-243750D01*
G01*
X129950000Y-88181250D01*
G75*
G02*
X129706250Y-88425000I-243750J0D01*
G01*
G37*
%TD*%
%TO.C,C4*%
G36*
G01*
X131550000Y-89293750D02*
X131550000Y-90206250D01*
G75*
G02*
X131306250Y-90450000I-243750J0D01*
G01*
X130818750Y-90450000D01*
G75*
G02*
X130575000Y-90206250I0J243750D01*
G01*
X130575000Y-89293750D01*
G75*
G02*
X130818750Y-89050000I243750J0D01*
G01*
X131306250Y-89050000D01*
G75*
G02*
X131550000Y-89293750I0J-243750D01*
G01*
G37*
G36*
G01*
X133425000Y-89293750D02*
X133425000Y-90206250D01*
G75*
G02*
X133181250Y-90450000I-243750J0D01*
G01*
X132693750Y-90450000D01*
G75*
G02*
X132450000Y-90206250I0J243750D01*
G01*
X132450000Y-89293750D01*
G75*
G02*
X132693750Y-89050000I243750J0D01*
G01*
X133181250Y-89050000D01*
G75*
G02*
X133425000Y-89293750I0J-243750D01*
G01*
G37*
%TD*%
D10*
%TO.C,U1*%
X133000000Y-87000000D03*
X131000000Y-87950000D03*
X131000000Y-86050000D03*
%TD*%
%TO.C,U2*%
G36*
G01*
X120100000Y-86500000D02*
X120100000Y-85175000D01*
G75*
G02*
X120175000Y-85100000I75000J0D01*
G01*
X120325000Y-85100000D01*
G75*
G02*
X120400000Y-85175000I0J-75000D01*
G01*
X120400000Y-86500000D01*
G75*
G02*
X120325000Y-86575000I-75000J0D01*
G01*
X120175000Y-86575000D01*
G75*
G02*
X120100000Y-86500000I0J75000D01*
G01*
G37*
G36*
G01*
X120600000Y-86500000D02*
X120600000Y-85175000D01*
G75*
G02*
X120675000Y-85100000I75000J0D01*
G01*
X120825000Y-85100000D01*
G75*
G02*
X120900000Y-85175000I0J-75000D01*
G01*
X120900000Y-86500000D01*
G75*
G02*
X120825000Y-86575000I-75000J0D01*
G01*
X120675000Y-86575000D01*
G75*
G02*
X120600000Y-86500000I0J75000D01*
G01*
G37*
G36*
G01*
X121100000Y-86500000D02*
X121100000Y-85175000D01*
G75*
G02*
X121175000Y-85100000I75000J0D01*
G01*
X121325000Y-85100000D01*
G75*
G02*
X121400000Y-85175000I0J-75000D01*
G01*
X121400000Y-86500000D01*
G75*
G02*
X121325000Y-86575000I-75000J0D01*
G01*
X121175000Y-86575000D01*
G75*
G02*
X121100000Y-86500000I0J75000D01*
G01*
G37*
G36*
G01*
X121600000Y-86500000D02*
X121600000Y-85175000D01*
G75*
G02*
X121675000Y-85100000I75000J0D01*
G01*
X121825000Y-85100000D01*
G75*
G02*
X121900000Y-85175000I0J-75000D01*
G01*
X121900000Y-86500000D01*
G75*
G02*
X121825000Y-86575000I-75000J0D01*
G01*
X121675000Y-86575000D01*
G75*
G02*
X121600000Y-86500000I0J75000D01*
G01*
G37*
G36*
G01*
X122100000Y-86500000D02*
X122100000Y-85175000D01*
G75*
G02*
X122175000Y-85100000I75000J0D01*
G01*
X122325000Y-85100000D01*
G75*
G02*
X122400000Y-85175000I0J-75000D01*
G01*
X122400000Y-86500000D01*
G75*
G02*
X122325000Y-86575000I-75000J0D01*
G01*
X122175000Y-86575000D01*
G75*
G02*
X122100000Y-86500000I0J75000D01*
G01*
G37*
G36*
G01*
X122600000Y-86500000D02*
X122600000Y-85175000D01*
G75*
G02*
X122675000Y-85100000I75000J0D01*
G01*
X122825000Y-85100000D01*
G75*
G02*
X122900000Y-85175000I0J-75000D01*
G01*
X122900000Y-86500000D01*
G75*
G02*
X122825000Y-86575000I-75000J0D01*
G01*
X122675000Y-86575000D01*
G75*
G02*
X122600000Y-86500000I0J75000D01*
G01*
G37*
G36*
G01*
X123100000Y-86500000D02*
X123100000Y-85175000D01*
G75*
G02*
X123175000Y-85100000I75000J0D01*
G01*
X123325000Y-85100000D01*
G75*
G02*
X123400000Y-85175000I0J-75000D01*
G01*
X123400000Y-86500000D01*
G75*
G02*
X123325000Y-86575000I-75000J0D01*
G01*
X123175000Y-86575000D01*
G75*
G02*
X123100000Y-86500000I0J75000D01*
G01*
G37*
G36*
G01*
X123600000Y-86500000D02*
X123600000Y-85175000D01*
G75*
G02*
X123675000Y-85100000I75000J0D01*
G01*
X123825000Y-85100000D01*
G75*
G02*
X123900000Y-85175000I0J-75000D01*
G01*
X123900000Y-86500000D01*
G75*
G02*
X123825000Y-86575000I-75000J0D01*
G01*
X123675000Y-86575000D01*
G75*
G02*
X123600000Y-86500000I0J75000D01*
G01*
G37*
G36*
G01*
X124100000Y-86500000D02*
X124100000Y-85175000D01*
G75*
G02*
X124175000Y-85100000I75000J0D01*
G01*
X124325000Y-85100000D01*
G75*
G02*
X124400000Y-85175000I0J-75000D01*
G01*
X124400000Y-86500000D01*
G75*
G02*
X124325000Y-86575000I-75000J0D01*
G01*
X124175000Y-86575000D01*
G75*
G02*
X124100000Y-86500000I0J75000D01*
G01*
G37*
G36*
G01*
X124600000Y-86500000D02*
X124600000Y-85175000D01*
G75*
G02*
X124675000Y-85100000I75000J0D01*
G01*
X124825000Y-85100000D01*
G75*
G02*
X124900000Y-85175000I0J-75000D01*
G01*
X124900000Y-86500000D01*
G75*
G02*
X124825000Y-86575000I-75000J0D01*
G01*
X124675000Y-86575000D01*
G75*
G02*
X124600000Y-86500000I0J75000D01*
G01*
G37*
G36*
G01*
X125100000Y-86500000D02*
X125100000Y-85175000D01*
G75*
G02*
X125175000Y-85100000I75000J0D01*
G01*
X125325000Y-85100000D01*
G75*
G02*
X125400000Y-85175000I0J-75000D01*
G01*
X125400000Y-86500000D01*
G75*
G02*
X125325000Y-86575000I-75000J0D01*
G01*
X125175000Y-86575000D01*
G75*
G02*
X125100000Y-86500000I0J75000D01*
G01*
G37*
G36*
G01*
X125600000Y-86500000D02*
X125600000Y-85175000D01*
G75*
G02*
X125675000Y-85100000I75000J0D01*
G01*
X125825000Y-85100000D01*
G75*
G02*
X125900000Y-85175000I0J-75000D01*
G01*
X125900000Y-86500000D01*
G75*
G02*
X125825000Y-86575000I-75000J0D01*
G01*
X125675000Y-86575000D01*
G75*
G02*
X125600000Y-86500000I0J75000D01*
G01*
G37*
G36*
G01*
X126425000Y-87325000D02*
X126425000Y-87175000D01*
G75*
G02*
X126500000Y-87100000I75000J0D01*
G01*
X127825000Y-87100000D01*
G75*
G02*
X127900000Y-87175000I0J-75000D01*
G01*
X127900000Y-87325000D01*
G75*
G02*
X127825000Y-87400000I-75000J0D01*
G01*
X126500000Y-87400000D01*
G75*
G02*
X126425000Y-87325000I0J75000D01*
G01*
G37*
G36*
G01*
X126425000Y-87825000D02*
X126425000Y-87675000D01*
G75*
G02*
X126500000Y-87600000I75000J0D01*
G01*
X127825000Y-87600000D01*
G75*
G02*
X127900000Y-87675000I0J-75000D01*
G01*
X127900000Y-87825000D01*
G75*
G02*
X127825000Y-87900000I-75000J0D01*
G01*
X126500000Y-87900000D01*
G75*
G02*
X126425000Y-87825000I0J75000D01*
G01*
G37*
G36*
G01*
X126425000Y-88325000D02*
X126425000Y-88175000D01*
G75*
G02*
X126500000Y-88100000I75000J0D01*
G01*
X127825000Y-88100000D01*
G75*
G02*
X127900000Y-88175000I0J-75000D01*
G01*
X127900000Y-88325000D01*
G75*
G02*
X127825000Y-88400000I-75000J0D01*
G01*
X126500000Y-88400000D01*
G75*
G02*
X126425000Y-88325000I0J75000D01*
G01*
G37*
G36*
G01*
X126425000Y-88825000D02*
X126425000Y-88675000D01*
G75*
G02*
X126500000Y-88600000I75000J0D01*
G01*
X127825000Y-88600000D01*
G75*
G02*
X127900000Y-88675000I0J-75000D01*
G01*
X127900000Y-88825000D01*
G75*
G02*
X127825000Y-88900000I-75000J0D01*
G01*
X126500000Y-88900000D01*
G75*
G02*
X126425000Y-88825000I0J75000D01*
G01*
G37*
G36*
G01*
X126425000Y-89325000D02*
X126425000Y-89175000D01*
G75*
G02*
X126500000Y-89100000I75000J0D01*
G01*
X127825000Y-89100000D01*
G75*
G02*
X127900000Y-89175000I0J-75000D01*
G01*
X127900000Y-89325000D01*
G75*
G02*
X127825000Y-89400000I-75000J0D01*
G01*
X126500000Y-89400000D01*
G75*
G02*
X126425000Y-89325000I0J75000D01*
G01*
G37*
G36*
G01*
X126425000Y-89825000D02*
X126425000Y-89675000D01*
G75*
G02*
X126500000Y-89600000I75000J0D01*
G01*
X127825000Y-89600000D01*
G75*
G02*
X127900000Y-89675000I0J-75000D01*
G01*
X127900000Y-89825000D01*
G75*
G02*
X127825000Y-89900000I-75000J0D01*
G01*
X126500000Y-89900000D01*
G75*
G02*
X126425000Y-89825000I0J75000D01*
G01*
G37*
G36*
G01*
X126425000Y-90325000D02*
X126425000Y-90175000D01*
G75*
G02*
X126500000Y-90100000I75000J0D01*
G01*
X127825000Y-90100000D01*
G75*
G02*
X127900000Y-90175000I0J-75000D01*
G01*
X127900000Y-90325000D01*
G75*
G02*
X127825000Y-90400000I-75000J0D01*
G01*
X126500000Y-90400000D01*
G75*
G02*
X126425000Y-90325000I0J75000D01*
G01*
G37*
G36*
G01*
X126425000Y-90825000D02*
X126425000Y-90675000D01*
G75*
G02*
X126500000Y-90600000I75000J0D01*
G01*
X127825000Y-90600000D01*
G75*
G02*
X127900000Y-90675000I0J-75000D01*
G01*
X127900000Y-90825000D01*
G75*
G02*
X127825000Y-90900000I-75000J0D01*
G01*
X126500000Y-90900000D01*
G75*
G02*
X126425000Y-90825000I0J75000D01*
G01*
G37*
G36*
G01*
X126425000Y-91325000D02*
X126425000Y-91175000D01*
G75*
G02*
X126500000Y-91100000I75000J0D01*
G01*
X127825000Y-91100000D01*
G75*
G02*
X127900000Y-91175000I0J-75000D01*
G01*
X127900000Y-91325000D01*
G75*
G02*
X127825000Y-91400000I-75000J0D01*
G01*
X126500000Y-91400000D01*
G75*
G02*
X126425000Y-91325000I0J75000D01*
G01*
G37*
G36*
G01*
X126425000Y-91825000D02*
X126425000Y-91675000D01*
G75*
G02*
X126500000Y-91600000I75000J0D01*
G01*
X127825000Y-91600000D01*
G75*
G02*
X127900000Y-91675000I0J-75000D01*
G01*
X127900000Y-91825000D01*
G75*
G02*
X127825000Y-91900000I-75000J0D01*
G01*
X126500000Y-91900000D01*
G75*
G02*
X126425000Y-91825000I0J75000D01*
G01*
G37*
G36*
G01*
X126425000Y-92325000D02*
X126425000Y-92175000D01*
G75*
G02*
X126500000Y-92100000I75000J0D01*
G01*
X127825000Y-92100000D01*
G75*
G02*
X127900000Y-92175000I0J-75000D01*
G01*
X127900000Y-92325000D01*
G75*
G02*
X127825000Y-92400000I-75000J0D01*
G01*
X126500000Y-92400000D01*
G75*
G02*
X126425000Y-92325000I0J75000D01*
G01*
G37*
G36*
G01*
X126425000Y-92825000D02*
X126425000Y-92675000D01*
G75*
G02*
X126500000Y-92600000I75000J0D01*
G01*
X127825000Y-92600000D01*
G75*
G02*
X127900000Y-92675000I0J-75000D01*
G01*
X127900000Y-92825000D01*
G75*
G02*
X127825000Y-92900000I-75000J0D01*
G01*
X126500000Y-92900000D01*
G75*
G02*
X126425000Y-92825000I0J75000D01*
G01*
G37*
G36*
G01*
X125600000Y-94825000D02*
X125600000Y-93500000D01*
G75*
G02*
X125675000Y-93425000I75000J0D01*
G01*
X125825000Y-93425000D01*
G75*
G02*
X125900000Y-93500000I0J-75000D01*
G01*
X125900000Y-94825000D01*
G75*
G02*
X125825000Y-94900000I-75000J0D01*
G01*
X125675000Y-94900000D01*
G75*
G02*
X125600000Y-94825000I0J75000D01*
G01*
G37*
G36*
G01*
X125100000Y-94825000D02*
X125100000Y-93500000D01*
G75*
G02*
X125175000Y-93425000I75000J0D01*
G01*
X125325000Y-93425000D01*
G75*
G02*
X125400000Y-93500000I0J-75000D01*
G01*
X125400000Y-94825000D01*
G75*
G02*
X125325000Y-94900000I-75000J0D01*
G01*
X125175000Y-94900000D01*
G75*
G02*
X125100000Y-94825000I0J75000D01*
G01*
G37*
G36*
G01*
X124600000Y-94825000D02*
X124600000Y-93500000D01*
G75*
G02*
X124675000Y-93425000I75000J0D01*
G01*
X124825000Y-93425000D01*
G75*
G02*
X124900000Y-93500000I0J-75000D01*
G01*
X124900000Y-94825000D01*
G75*
G02*
X124825000Y-94900000I-75000J0D01*
G01*
X124675000Y-94900000D01*
G75*
G02*
X124600000Y-94825000I0J75000D01*
G01*
G37*
G36*
G01*
X124100000Y-94825000D02*
X124100000Y-93500000D01*
G75*
G02*
X124175000Y-93425000I75000J0D01*
G01*
X124325000Y-93425000D01*
G75*
G02*
X124400000Y-93500000I0J-75000D01*
G01*
X124400000Y-94825000D01*
G75*
G02*
X124325000Y-94900000I-75000J0D01*
G01*
X124175000Y-94900000D01*
G75*
G02*
X124100000Y-94825000I0J75000D01*
G01*
G37*
G36*
G01*
X123600000Y-94825000D02*
X123600000Y-93500000D01*
G75*
G02*
X123675000Y-93425000I75000J0D01*
G01*
X123825000Y-93425000D01*
G75*
G02*
X123900000Y-93500000I0J-75000D01*
G01*
X123900000Y-94825000D01*
G75*
G02*
X123825000Y-94900000I-75000J0D01*
G01*
X123675000Y-94900000D01*
G75*
G02*
X123600000Y-94825000I0J75000D01*
G01*
G37*
G36*
G01*
X123100000Y-94825000D02*
X123100000Y-93500000D01*
G75*
G02*
X123175000Y-93425000I75000J0D01*
G01*
X123325000Y-93425000D01*
G75*
G02*
X123400000Y-93500000I0J-75000D01*
G01*
X123400000Y-94825000D01*
G75*
G02*
X123325000Y-94900000I-75000J0D01*
G01*
X123175000Y-94900000D01*
G75*
G02*
X123100000Y-94825000I0J75000D01*
G01*
G37*
G36*
G01*
X122600000Y-94825000D02*
X122600000Y-93500000D01*
G75*
G02*
X122675000Y-93425000I75000J0D01*
G01*
X122825000Y-93425000D01*
G75*
G02*
X122900000Y-93500000I0J-75000D01*
G01*
X122900000Y-94825000D01*
G75*
G02*
X122825000Y-94900000I-75000J0D01*
G01*
X122675000Y-94900000D01*
G75*
G02*
X122600000Y-94825000I0J75000D01*
G01*
G37*
G36*
G01*
X122100000Y-94825000D02*
X122100000Y-93500000D01*
G75*
G02*
X122175000Y-93425000I75000J0D01*
G01*
X122325000Y-93425000D01*
G75*
G02*
X122400000Y-93500000I0J-75000D01*
G01*
X122400000Y-94825000D01*
G75*
G02*
X122325000Y-94900000I-75000J0D01*
G01*
X122175000Y-94900000D01*
G75*
G02*
X122100000Y-94825000I0J75000D01*
G01*
G37*
G36*
G01*
X121600000Y-94825000D02*
X121600000Y-93500000D01*
G75*
G02*
X121675000Y-93425000I75000J0D01*
G01*
X121825000Y-93425000D01*
G75*
G02*
X121900000Y-93500000I0J-75000D01*
G01*
X121900000Y-94825000D01*
G75*
G02*
X121825000Y-94900000I-75000J0D01*
G01*
X121675000Y-94900000D01*
G75*
G02*
X121600000Y-94825000I0J75000D01*
G01*
G37*
G36*
G01*
X121100000Y-94825000D02*
X121100000Y-93500000D01*
G75*
G02*
X121175000Y-93425000I75000J0D01*
G01*
X121325000Y-93425000D01*
G75*
G02*
X121400000Y-93500000I0J-75000D01*
G01*
X121400000Y-94825000D01*
G75*
G02*
X121325000Y-94900000I-75000J0D01*
G01*
X121175000Y-94900000D01*
G75*
G02*
X121100000Y-94825000I0J75000D01*
G01*
G37*
G36*
G01*
X120600000Y-94825000D02*
X120600000Y-93500000D01*
G75*
G02*
X120675000Y-93425000I75000J0D01*
G01*
X120825000Y-93425000D01*
G75*
G02*
X120900000Y-93500000I0J-75000D01*
G01*
X120900000Y-94825000D01*
G75*
G02*
X120825000Y-94900000I-75000J0D01*
G01*
X120675000Y-94900000D01*
G75*
G02*
X120600000Y-94825000I0J75000D01*
G01*
G37*
G36*
G01*
X120100000Y-94825000D02*
X120100000Y-93500000D01*
G75*
G02*
X120175000Y-93425000I75000J0D01*
G01*
X120325000Y-93425000D01*
G75*
G02*
X120400000Y-93500000I0J-75000D01*
G01*
X120400000Y-94825000D01*
G75*
G02*
X120325000Y-94900000I-75000J0D01*
G01*
X120175000Y-94900000D01*
G75*
G02*
X120100000Y-94825000I0J75000D01*
G01*
G37*
G36*
G01*
X118100000Y-92825000D02*
X118100000Y-92675000D01*
G75*
G02*
X118175000Y-92600000I75000J0D01*
G01*
X119500000Y-92600000D01*
G75*
G02*
X119575000Y-92675000I0J-75000D01*
G01*
X119575000Y-92825000D01*
G75*
G02*
X119500000Y-92900000I-75000J0D01*
G01*
X118175000Y-92900000D01*
G75*
G02*
X118100000Y-92825000I0J75000D01*
G01*
G37*
G36*
G01*
X118100000Y-92325000D02*
X118100000Y-92175000D01*
G75*
G02*
X118175000Y-92100000I75000J0D01*
G01*
X119500000Y-92100000D01*
G75*
G02*
X119575000Y-92175000I0J-75000D01*
G01*
X119575000Y-92325000D01*
G75*
G02*
X119500000Y-92400000I-75000J0D01*
G01*
X118175000Y-92400000D01*
G75*
G02*
X118100000Y-92325000I0J75000D01*
G01*
G37*
G36*
G01*
X118100000Y-91825000D02*
X118100000Y-91675000D01*
G75*
G02*
X118175000Y-91600000I75000J0D01*
G01*
X119500000Y-91600000D01*
G75*
G02*
X119575000Y-91675000I0J-75000D01*
G01*
X119575000Y-91825000D01*
G75*
G02*
X119500000Y-91900000I-75000J0D01*
G01*
X118175000Y-91900000D01*
G75*
G02*
X118100000Y-91825000I0J75000D01*
G01*
G37*
G36*
G01*
X118100000Y-91325000D02*
X118100000Y-91175000D01*
G75*
G02*
X118175000Y-91100000I75000J0D01*
G01*
X119500000Y-91100000D01*
G75*
G02*
X119575000Y-91175000I0J-75000D01*
G01*
X119575000Y-91325000D01*
G75*
G02*
X119500000Y-91400000I-75000J0D01*
G01*
X118175000Y-91400000D01*
G75*
G02*
X118100000Y-91325000I0J75000D01*
G01*
G37*
G36*
G01*
X118100000Y-90825000D02*
X118100000Y-90675000D01*
G75*
G02*
X118175000Y-90600000I75000J0D01*
G01*
X119500000Y-90600000D01*
G75*
G02*
X119575000Y-90675000I0J-75000D01*
G01*
X119575000Y-90825000D01*
G75*
G02*
X119500000Y-90900000I-75000J0D01*
G01*
X118175000Y-90900000D01*
G75*
G02*
X118100000Y-90825000I0J75000D01*
G01*
G37*
G36*
G01*
X118100000Y-90325000D02*
X118100000Y-90175000D01*
G75*
G02*
X118175000Y-90100000I75000J0D01*
G01*
X119500000Y-90100000D01*
G75*
G02*
X119575000Y-90175000I0J-75000D01*
G01*
X119575000Y-90325000D01*
G75*
G02*
X119500000Y-90400000I-75000J0D01*
G01*
X118175000Y-90400000D01*
G75*
G02*
X118100000Y-90325000I0J75000D01*
G01*
G37*
G36*
G01*
X118100000Y-89825000D02*
X118100000Y-89675000D01*
G75*
G02*
X118175000Y-89600000I75000J0D01*
G01*
X119500000Y-89600000D01*
G75*
G02*
X119575000Y-89675000I0J-75000D01*
G01*
X119575000Y-89825000D01*
G75*
G02*
X119500000Y-89900000I-75000J0D01*
G01*
X118175000Y-89900000D01*
G75*
G02*
X118100000Y-89825000I0J75000D01*
G01*
G37*
G36*
G01*
X118100000Y-89325000D02*
X118100000Y-89175000D01*
G75*
G02*
X118175000Y-89100000I75000J0D01*
G01*
X119500000Y-89100000D01*
G75*
G02*
X119575000Y-89175000I0J-75000D01*
G01*
X119575000Y-89325000D01*
G75*
G02*
X119500000Y-89400000I-75000J0D01*
G01*
X118175000Y-89400000D01*
G75*
G02*
X118100000Y-89325000I0J75000D01*
G01*
G37*
G36*
G01*
X118100000Y-88825000D02*
X118100000Y-88675000D01*
G75*
G02*
X118175000Y-88600000I75000J0D01*
G01*
X119500000Y-88600000D01*
G75*
G02*
X119575000Y-88675000I0J-75000D01*
G01*
X119575000Y-88825000D01*
G75*
G02*
X119500000Y-88900000I-75000J0D01*
G01*
X118175000Y-88900000D01*
G75*
G02*
X118100000Y-88825000I0J75000D01*
G01*
G37*
G36*
G01*
X118100000Y-88325000D02*
X118100000Y-88175000D01*
G75*
G02*
X118175000Y-88100000I75000J0D01*
G01*
X119500000Y-88100000D01*
G75*
G02*
X119575000Y-88175000I0J-75000D01*
G01*
X119575000Y-88325000D01*
G75*
G02*
X119500000Y-88400000I-75000J0D01*
G01*
X118175000Y-88400000D01*
G75*
G02*
X118100000Y-88325000I0J75000D01*
G01*
G37*
G36*
G01*
X118100000Y-87825000D02*
X118100000Y-87675000D01*
G75*
G02*
X118175000Y-87600000I75000J0D01*
G01*
X119500000Y-87600000D01*
G75*
G02*
X119575000Y-87675000I0J-75000D01*
G01*
X119575000Y-87825000D01*
G75*
G02*
X119500000Y-87900000I-75000J0D01*
G01*
X118175000Y-87900000D01*
G75*
G02*
X118100000Y-87825000I0J75000D01*
G01*
G37*
G36*
G01*
X118100000Y-87325000D02*
X118100000Y-87175000D01*
G75*
G02*
X118175000Y-87100000I75000J0D01*
G01*
X119500000Y-87100000D01*
G75*
G02*
X119575000Y-87175000I0J-75000D01*
G01*
X119575000Y-87325000D01*
G75*
G02*
X119500000Y-87400000I-75000J0D01*
G01*
X118175000Y-87400000D01*
G75*
G02*
X118100000Y-87325000I0J75000D01*
G01*
G37*
%TD*%
M02*
