%TF.GenerationSoftware,KiCad,Pcbnew,5.1.6+dfsg1-1*%
%TF.CreationDate,2020-06-28T19:58:20+08:00*%
%TF.ProjectId,stlink,73746c69-6e6b-42e6-9b69-6361645f7063,rev?*%
%TF.SameCoordinates,Original*%
%TF.FileFunction,Legend,Top*%
%TF.FilePolarity,Positive*%
%FSLAX46Y46*%
G04 Gerber Fmt 4.6, Leading zero omitted, Abs format (unit mm)*
G04 Created by KiCad (PCBNEW 5.1.6+dfsg1-1) date 2020-06-28 19:58:20*
%MOMM*%
%LPD*%
G01*
G04 APERTURE LIST*
%ADD10C,0.120000*%
%ADD11C,0.150000*%
G04 APERTURE END LIST*
D10*
%TO.C,D3*%
X136515000Y-84235000D02*
X138800000Y-84235000D01*
X136515000Y-82765000D02*
X136515000Y-84235000D01*
X138800000Y-82765000D02*
X136515000Y-82765000D01*
%TO.C,D2*%
X139485000Y-95765000D02*
X137200000Y-95765000D01*
X139485000Y-97235000D02*
X139485000Y-95765000D01*
X137200000Y-97235000D02*
X139485000Y-97235000D01*
%TO.C,Y1*%
X114700000Y-84950000D02*
X114700000Y-90700000D01*
X118300000Y-84950000D02*
X114700000Y-84950000D01*
X118300000Y-90700000D02*
X118300000Y-84950000D01*
%TO.C,D1*%
X127250000Y-95000000D02*
X127250000Y-97000000D01*
X127250000Y-97000000D02*
X131150000Y-97000000D01*
X127250000Y-95000000D02*
X131150000Y-95000000D01*
%TO.C,C2*%
X119290000Y-95758578D02*
X119290000Y-95241422D01*
X120710000Y-95758578D02*
X120710000Y-95241422D01*
%TO.C,C1*%
X126710000Y-95241422D02*
X126710000Y-95758578D01*
X125290000Y-95241422D02*
X125290000Y-95758578D01*
%TO.C,U2*%
X123760000Y-97080000D02*
X123760000Y-96150000D01*
X123760000Y-93920000D02*
X123760000Y-94850000D01*
X123760000Y-93920000D02*
X121600000Y-93920000D01*
X123760000Y-97080000D02*
X122300000Y-97080000D01*
%TO.C,U1*%
X120390000Y-84840000D02*
X119100000Y-84840000D01*
X120390000Y-84390000D02*
X120390000Y-84840000D01*
X120840000Y-84390000D02*
X120390000Y-84390000D01*
X127610000Y-84390000D02*
X127610000Y-84840000D01*
X127160000Y-84390000D02*
X127610000Y-84390000D01*
X120390000Y-91610000D02*
X120390000Y-91160000D01*
X120840000Y-91610000D02*
X120390000Y-91610000D01*
X127610000Y-91610000D02*
X127610000Y-91160000D01*
X127160000Y-91610000D02*
X127610000Y-91610000D01*
%TO.C,J1*%
X141400000Y-94700000D02*
X141400000Y-85300000D01*
X135600000Y-85300000D02*
X137600000Y-85300000D01*
X139500000Y-85300000D02*
X141400000Y-85300000D01*
X135600000Y-94700000D02*
X137600000Y-94700000D01*
X139500000Y-94700000D02*
X141400000Y-94700000D01*
%TO.C,R7*%
D11*
X134833333Y-82782380D02*
X134500000Y-82306190D01*
X134261904Y-82782380D02*
X134261904Y-81782380D01*
X134642857Y-81782380D01*
X134738095Y-81830000D01*
X134785714Y-81877619D01*
X134833333Y-81972857D01*
X134833333Y-82115714D01*
X134785714Y-82210952D01*
X134738095Y-82258571D01*
X134642857Y-82306190D01*
X134261904Y-82306190D01*
X135166666Y-81782380D02*
X135833333Y-81782380D01*
X135404761Y-82782380D01*
%TO.C,R6*%
X134833333Y-98122380D02*
X134500000Y-97646190D01*
X134261904Y-98122380D02*
X134261904Y-97122380D01*
X134642857Y-97122380D01*
X134738095Y-97170000D01*
X134785714Y-97217619D01*
X134833333Y-97312857D01*
X134833333Y-97455714D01*
X134785714Y-97550952D01*
X134738095Y-97598571D01*
X134642857Y-97646190D01*
X134261904Y-97646190D01*
X135690476Y-97122380D02*
X135500000Y-97122380D01*
X135404761Y-97170000D01*
X135357142Y-97217619D01*
X135261904Y-97360476D01*
X135214285Y-97550952D01*
X135214285Y-97931904D01*
X135261904Y-98027142D01*
X135309523Y-98074761D01*
X135404761Y-98122380D01*
X135595238Y-98122380D01*
X135690476Y-98074761D01*
X135738095Y-98027142D01*
X135785714Y-97931904D01*
X135785714Y-97693809D01*
X135738095Y-97598571D01*
X135690476Y-97550952D01*
X135595238Y-97503333D01*
X135404761Y-97503333D01*
X135309523Y-97550952D01*
X135261904Y-97598571D01*
X135214285Y-97693809D01*
%TO.C,D3*%
X137261904Y-82522380D02*
X137261904Y-81522380D01*
X137500000Y-81522380D01*
X137642857Y-81570000D01*
X137738095Y-81665238D01*
X137785714Y-81760476D01*
X137833333Y-81950952D01*
X137833333Y-82093809D01*
X137785714Y-82284285D01*
X137738095Y-82379523D01*
X137642857Y-82474761D01*
X137500000Y-82522380D01*
X137261904Y-82522380D01*
X138166666Y-81522380D02*
X138785714Y-81522380D01*
X138452380Y-81903333D01*
X138595238Y-81903333D01*
X138690476Y-81950952D01*
X138738095Y-81998571D01*
X138785714Y-82093809D01*
X138785714Y-82331904D01*
X138738095Y-82427142D01*
X138690476Y-82474761D01*
X138595238Y-82522380D01*
X138309523Y-82522380D01*
X138214285Y-82474761D01*
X138166666Y-82427142D01*
%TO.C,D2*%
X137261904Y-98382380D02*
X137261904Y-97382380D01*
X137500000Y-97382380D01*
X137642857Y-97430000D01*
X137738095Y-97525238D01*
X137785714Y-97620476D01*
X137833333Y-97810952D01*
X137833333Y-97953809D01*
X137785714Y-98144285D01*
X137738095Y-98239523D01*
X137642857Y-98334761D01*
X137500000Y-98382380D01*
X137261904Y-98382380D01*
X138214285Y-97477619D02*
X138261904Y-97430000D01*
X138357142Y-97382380D01*
X138595238Y-97382380D01*
X138690476Y-97430000D01*
X138738095Y-97477619D01*
X138785714Y-97572857D01*
X138785714Y-97668095D01*
X138738095Y-97810952D01*
X138166666Y-98382380D01*
X138785714Y-98382380D01*
%TO.C,Y1*%
X119276190Y-88476190D02*
X119752380Y-88476190D01*
X118752380Y-88809523D02*
X119276190Y-88476190D01*
X118752380Y-88142857D01*
X119752380Y-87285714D02*
X119752380Y-87857142D01*
X119752380Y-87571428D02*
X118752380Y-87571428D01*
X118895238Y-87666666D01*
X118990476Y-87761904D01*
X119038095Y-87857142D01*
%TO.C,C8*%
X116333333Y-93527142D02*
X116285714Y-93574761D01*
X116142857Y-93622380D01*
X116047619Y-93622380D01*
X115904761Y-93574761D01*
X115809523Y-93479523D01*
X115761904Y-93384285D01*
X115714285Y-93193809D01*
X115714285Y-93050952D01*
X115761904Y-92860476D01*
X115809523Y-92765238D01*
X115904761Y-92670000D01*
X116047619Y-92622380D01*
X116142857Y-92622380D01*
X116285714Y-92670000D01*
X116333333Y-92717619D01*
X116904761Y-93050952D02*
X116809523Y-93003333D01*
X116761904Y-92955714D01*
X116714285Y-92860476D01*
X116714285Y-92812857D01*
X116761904Y-92717619D01*
X116809523Y-92670000D01*
X116904761Y-92622380D01*
X117095238Y-92622380D01*
X117190476Y-92670000D01*
X117238095Y-92717619D01*
X117285714Y-92812857D01*
X117285714Y-92860476D01*
X117238095Y-92955714D01*
X117190476Y-93003333D01*
X117095238Y-93050952D01*
X116904761Y-93050952D01*
X116809523Y-93098571D01*
X116761904Y-93146190D01*
X116714285Y-93241428D01*
X116714285Y-93431904D01*
X116761904Y-93527142D01*
X116809523Y-93574761D01*
X116904761Y-93622380D01*
X117095238Y-93622380D01*
X117190476Y-93574761D01*
X117238095Y-93527142D01*
X117285714Y-93431904D01*
X117285714Y-93241428D01*
X117238095Y-93146190D01*
X117190476Y-93098571D01*
X117095238Y-93050952D01*
%TO.C,C7*%
X116333333Y-85527142D02*
X116285714Y-85574761D01*
X116142857Y-85622380D01*
X116047619Y-85622380D01*
X115904761Y-85574761D01*
X115809523Y-85479523D01*
X115761904Y-85384285D01*
X115714285Y-85193809D01*
X115714285Y-85050952D01*
X115761904Y-84860476D01*
X115809523Y-84765238D01*
X115904761Y-84670000D01*
X116047619Y-84622380D01*
X116142857Y-84622380D01*
X116285714Y-84670000D01*
X116333333Y-84717619D01*
X116666666Y-84622380D02*
X117333333Y-84622380D01*
X116904761Y-85622380D01*
%TO.C,J2*%
X109896666Y-88872380D02*
X109896666Y-89586666D01*
X109849047Y-89729523D01*
X109753809Y-89824761D01*
X109610952Y-89872380D01*
X109515714Y-89872380D01*
X110325238Y-88967619D02*
X110372857Y-88920000D01*
X110468095Y-88872380D01*
X110706190Y-88872380D01*
X110801428Y-88920000D01*
X110849047Y-88967619D01*
X110896666Y-89062857D01*
X110896666Y-89158095D01*
X110849047Y-89300952D01*
X110277619Y-89872380D01*
X110896666Y-89872380D01*
%TO.C,R5*%
X130833333Y-86277380D02*
X130500000Y-85801190D01*
X130261904Y-86277380D02*
X130261904Y-85277380D01*
X130642857Y-85277380D01*
X130738095Y-85325000D01*
X130785714Y-85372619D01*
X130833333Y-85467857D01*
X130833333Y-85610714D01*
X130785714Y-85705952D01*
X130738095Y-85753571D01*
X130642857Y-85801190D01*
X130261904Y-85801190D01*
X131738095Y-85277380D02*
X131261904Y-85277380D01*
X131214285Y-85753571D01*
X131261904Y-85705952D01*
X131357142Y-85658333D01*
X131595238Y-85658333D01*
X131690476Y-85705952D01*
X131738095Y-85753571D01*
X131785714Y-85848809D01*
X131785714Y-86086904D01*
X131738095Y-86182142D01*
X131690476Y-86229761D01*
X131595238Y-86277380D01*
X131357142Y-86277380D01*
X131261904Y-86229761D01*
X131214285Y-86182142D01*
%TO.C,R4*%
X130833333Y-92282380D02*
X130500000Y-91806190D01*
X130261904Y-92282380D02*
X130261904Y-91282380D01*
X130642857Y-91282380D01*
X130738095Y-91330000D01*
X130785714Y-91377619D01*
X130833333Y-91472857D01*
X130833333Y-91615714D01*
X130785714Y-91710952D01*
X130738095Y-91758571D01*
X130642857Y-91806190D01*
X130261904Y-91806190D01*
X131690476Y-91615714D02*
X131690476Y-92282380D01*
X131452380Y-91234761D02*
X131214285Y-91949047D01*
X131833333Y-91949047D01*
%TO.C,C6*%
X119333333Y-91687142D02*
X119285714Y-91734761D01*
X119142857Y-91782380D01*
X119047619Y-91782380D01*
X118904761Y-91734761D01*
X118809523Y-91639523D01*
X118761904Y-91544285D01*
X118714285Y-91353809D01*
X118714285Y-91210952D01*
X118761904Y-91020476D01*
X118809523Y-90925238D01*
X118904761Y-90830000D01*
X119047619Y-90782380D01*
X119142857Y-90782380D01*
X119285714Y-90830000D01*
X119333333Y-90877619D01*
X120190476Y-90782380D02*
X120000000Y-90782380D01*
X119904761Y-90830000D01*
X119857142Y-90877619D01*
X119761904Y-91020476D01*
X119714285Y-91210952D01*
X119714285Y-91591904D01*
X119761904Y-91687142D01*
X119809523Y-91734761D01*
X119904761Y-91782380D01*
X120095238Y-91782380D01*
X120190476Y-91734761D01*
X120238095Y-91687142D01*
X120285714Y-91591904D01*
X120285714Y-91353809D01*
X120238095Y-91258571D01*
X120190476Y-91210952D01*
X120095238Y-91163333D01*
X119904761Y-91163333D01*
X119809523Y-91210952D01*
X119761904Y-91258571D01*
X119714285Y-91353809D01*
%TO.C,C5*%
X128333333Y-91687142D02*
X128285714Y-91734761D01*
X128142857Y-91782380D01*
X128047619Y-91782380D01*
X127904761Y-91734761D01*
X127809523Y-91639523D01*
X127761904Y-91544285D01*
X127714285Y-91353809D01*
X127714285Y-91210952D01*
X127761904Y-91020476D01*
X127809523Y-90925238D01*
X127904761Y-90830000D01*
X128047619Y-90782380D01*
X128142857Y-90782380D01*
X128285714Y-90830000D01*
X128333333Y-90877619D01*
X129238095Y-90782380D02*
X128761904Y-90782380D01*
X128714285Y-91258571D01*
X128761904Y-91210952D01*
X128857142Y-91163333D01*
X129095238Y-91163333D01*
X129190476Y-91210952D01*
X129238095Y-91258571D01*
X129285714Y-91353809D01*
X129285714Y-91591904D01*
X129238095Y-91687142D01*
X129190476Y-91734761D01*
X129095238Y-91782380D01*
X128857142Y-91782380D01*
X128761904Y-91734761D01*
X128714285Y-91687142D01*
%TO.C,C4*%
X128348333Y-82687142D02*
X128300714Y-82734761D01*
X128157857Y-82782380D01*
X128062619Y-82782380D01*
X127919761Y-82734761D01*
X127824523Y-82639523D01*
X127776904Y-82544285D01*
X127729285Y-82353809D01*
X127729285Y-82210952D01*
X127776904Y-82020476D01*
X127824523Y-81925238D01*
X127919761Y-81830000D01*
X128062619Y-81782380D01*
X128157857Y-81782380D01*
X128300714Y-81830000D01*
X128348333Y-81877619D01*
X129205476Y-82115714D02*
X129205476Y-82782380D01*
X128967380Y-81734761D02*
X128729285Y-82449047D01*
X129348333Y-82449047D01*
%TO.C,C3*%
X119333333Y-85027142D02*
X119285714Y-85074761D01*
X119142857Y-85122380D01*
X119047619Y-85122380D01*
X118904761Y-85074761D01*
X118809523Y-84979523D01*
X118761904Y-84884285D01*
X118714285Y-84693809D01*
X118714285Y-84550952D01*
X118761904Y-84360476D01*
X118809523Y-84265238D01*
X118904761Y-84170000D01*
X119047619Y-84122380D01*
X119142857Y-84122380D01*
X119285714Y-84170000D01*
X119333333Y-84217619D01*
X119666666Y-84122380D02*
X120285714Y-84122380D01*
X119952380Y-84503333D01*
X120095238Y-84503333D01*
X120190476Y-84550952D01*
X120238095Y-84598571D01*
X120285714Y-84693809D01*
X120285714Y-84931904D01*
X120238095Y-85027142D01*
X120190476Y-85074761D01*
X120095238Y-85122380D01*
X119809523Y-85122380D01*
X119714285Y-85074761D01*
X119666666Y-85027142D01*
%TO.C,R3*%
X130833333Y-90782380D02*
X130500000Y-90306190D01*
X130261904Y-90782380D02*
X130261904Y-89782380D01*
X130642857Y-89782380D01*
X130738095Y-89830000D01*
X130785714Y-89877619D01*
X130833333Y-89972857D01*
X130833333Y-90115714D01*
X130785714Y-90210952D01*
X130738095Y-90258571D01*
X130642857Y-90306190D01*
X130261904Y-90306190D01*
X131166666Y-89782380D02*
X131785714Y-89782380D01*
X131452380Y-90163333D01*
X131595238Y-90163333D01*
X131690476Y-90210952D01*
X131738095Y-90258571D01*
X131785714Y-90353809D01*
X131785714Y-90591904D01*
X131738095Y-90687142D01*
X131690476Y-90734761D01*
X131595238Y-90782380D01*
X131309523Y-90782380D01*
X131214285Y-90734761D01*
X131166666Y-90687142D01*
%TO.C,R2*%
X130833333Y-87782380D02*
X130500000Y-87306190D01*
X130261904Y-87782380D02*
X130261904Y-86782380D01*
X130642857Y-86782380D01*
X130738095Y-86830000D01*
X130785714Y-86877619D01*
X130833333Y-86972857D01*
X130833333Y-87115714D01*
X130785714Y-87210952D01*
X130738095Y-87258571D01*
X130642857Y-87306190D01*
X130261904Y-87306190D01*
X131214285Y-86877619D02*
X131261904Y-86830000D01*
X131357142Y-86782380D01*
X131595238Y-86782380D01*
X131690476Y-86830000D01*
X131738095Y-86877619D01*
X131785714Y-86972857D01*
X131785714Y-87068095D01*
X131738095Y-87210952D01*
X131166666Y-87782380D01*
X131785714Y-87782380D01*
%TO.C,R1*%
X130833333Y-89282380D02*
X130500000Y-88806190D01*
X130261904Y-89282380D02*
X130261904Y-88282380D01*
X130642857Y-88282380D01*
X130738095Y-88330000D01*
X130785714Y-88377619D01*
X130833333Y-88472857D01*
X130833333Y-88615714D01*
X130785714Y-88710952D01*
X130738095Y-88758571D01*
X130642857Y-88806190D01*
X130261904Y-88806190D01*
X131785714Y-89282380D02*
X131214285Y-89282380D01*
X131500000Y-89282380D02*
X131500000Y-88282380D01*
X131404761Y-88425238D01*
X131309523Y-88520476D01*
X131214285Y-88568095D01*
%TO.C,D1*%
X128761904Y-94452380D02*
X128761904Y-93452380D01*
X129000000Y-93452380D01*
X129142857Y-93500000D01*
X129238095Y-93595238D01*
X129285714Y-93690476D01*
X129333333Y-93880952D01*
X129333333Y-94023809D01*
X129285714Y-94214285D01*
X129238095Y-94309523D01*
X129142857Y-94404761D01*
X129000000Y-94452380D01*
X128761904Y-94452380D01*
X130285714Y-94452380D02*
X129714285Y-94452380D01*
X130000000Y-94452380D02*
X130000000Y-93452380D01*
X129904761Y-93595238D01*
X129809523Y-93690476D01*
X129714285Y-93738095D01*
%TO.C,C2*%
X118707142Y-95666666D02*
X118754761Y-95714285D01*
X118802380Y-95857142D01*
X118802380Y-95952380D01*
X118754761Y-96095238D01*
X118659523Y-96190476D01*
X118564285Y-96238095D01*
X118373809Y-96285714D01*
X118230952Y-96285714D01*
X118040476Y-96238095D01*
X117945238Y-96190476D01*
X117850000Y-96095238D01*
X117802380Y-95952380D01*
X117802380Y-95857142D01*
X117850000Y-95714285D01*
X117897619Y-95666666D01*
X117897619Y-95285714D02*
X117850000Y-95238095D01*
X117802380Y-95142857D01*
X117802380Y-94904761D01*
X117850000Y-94809523D01*
X117897619Y-94761904D01*
X117992857Y-94714285D01*
X118088095Y-94714285D01*
X118230952Y-94761904D01*
X118802380Y-95333333D01*
X118802380Y-94714285D01*
%TO.C,C1*%
X128007142Y-95666666D02*
X128054761Y-95714285D01*
X128102380Y-95857142D01*
X128102380Y-95952380D01*
X128054761Y-96095238D01*
X127959523Y-96190476D01*
X127864285Y-96238095D01*
X127673809Y-96285714D01*
X127530952Y-96285714D01*
X127340476Y-96238095D01*
X127245238Y-96190476D01*
X127150000Y-96095238D01*
X127102380Y-95952380D01*
X127102380Y-95857142D01*
X127150000Y-95714285D01*
X127197619Y-95666666D01*
X128102380Y-94714285D02*
X128102380Y-95285714D01*
X128102380Y-95000000D02*
X127102380Y-95000000D01*
X127245238Y-95095238D01*
X127340476Y-95190476D01*
X127388095Y-95285714D01*
%TO.C,U2*%
X122238095Y-92452380D02*
X122238095Y-93261904D01*
X122285714Y-93357142D01*
X122333333Y-93404761D01*
X122428571Y-93452380D01*
X122619047Y-93452380D01*
X122714285Y-93404761D01*
X122761904Y-93357142D01*
X122809523Y-93261904D01*
X122809523Y-92452380D01*
X123238095Y-92547619D02*
X123285714Y-92500000D01*
X123380952Y-92452380D01*
X123619047Y-92452380D01*
X123714285Y-92500000D01*
X123761904Y-92547619D01*
X123809523Y-92642857D01*
X123809523Y-92738095D01*
X123761904Y-92880952D01*
X123190476Y-93452380D01*
X123809523Y-93452380D01*
%TO.C,U1*%
X123238095Y-81602380D02*
X123238095Y-82411904D01*
X123285714Y-82507142D01*
X123333333Y-82554761D01*
X123428571Y-82602380D01*
X123619047Y-82602380D01*
X123714285Y-82554761D01*
X123761904Y-82507142D01*
X123809523Y-82411904D01*
X123809523Y-81602380D01*
X124809523Y-82602380D02*
X124238095Y-82602380D01*
X124523809Y-82602380D02*
X124523809Y-81602380D01*
X124428571Y-81745238D01*
X124333333Y-81840476D01*
X124238095Y-81888095D01*
%TO.C,J1*%
X138757380Y-90333333D02*
X139471666Y-90333333D01*
X139614523Y-90380952D01*
X139709761Y-90476190D01*
X139757380Y-90619047D01*
X139757380Y-90714285D01*
X139757380Y-89333333D02*
X139757380Y-89904761D01*
X139757380Y-89619047D02*
X138757380Y-89619047D01*
X138900238Y-89714285D01*
X138995476Y-89809523D01*
X139043095Y-89904761D01*
%TD*%
M02*
