G04 #@! TF.GenerationSoftware,KiCad,Pcbnew,5.1.9+dfsg1-1*
G04 #@! TF.CreationDate,2021-07-12T18:29:50+08:00*
G04 #@! TF.ProjectId,stlink,73746c69-6e6b-42e6-9b69-6361645f7063,a*
G04 #@! TF.SameCoordinates,Original*
G04 #@! TF.FileFunction,Copper,L3,Inr*
G04 #@! TF.FilePolarity,Positive*
%FSLAX46Y46*%
G04 Gerber Fmt 4.6, Leading zero omitted, Abs format (unit mm)*
G04 Created by KiCad (PCBNEW 5.1.9+dfsg1-1) date 2021-07-12 18:29:50*
%MOMM*%
%LPD*%
G01*
G04 APERTURE LIST*
G04 #@! TA.AperFunction,ComponentPad*
%ADD10C,1.800000*%
G04 #@! TD*
G04 #@! TA.AperFunction,ComponentPad*
%ADD11C,2.200000*%
G04 #@! TD*
G04 #@! TA.AperFunction,ComponentPad*
%ADD12O,3.500000X2.000000*%
G04 #@! TD*
G04 #@! TA.AperFunction,ViaPad*
%ADD13C,0.700000*%
G04 #@! TD*
G04 #@! TA.AperFunction,Conductor*
%ADD14C,0.152400*%
G04 #@! TD*
G04 #@! TA.AperFunction,Conductor*
%ADD15C,0.100000*%
G04 #@! TD*
G04 APERTURE END LIST*
D10*
G04 #@! TO.N,VBUS*
G04 #@! TO.C,J1*
X134900000Y-86500000D03*
G04 #@! TO.N,D-*
X134900000Y-89000000D03*
G04 #@! TO.N,D+*
X134900000Y-91000000D03*
G04 #@! TO.N,GND*
X134900000Y-93500000D03*
D11*
X137000000Y-87700000D03*
X137000000Y-92300000D03*
D12*
X137000000Y-84150000D03*
X137000000Y-95850000D03*
G04 #@! TD*
D13*
G04 #@! TO.N,GND*
X115750000Y-87500000D03*
X132000000Y-86000000D03*
X133500000Y-85250000D03*
X139000000Y-86000000D03*
X139000000Y-90000000D03*
X134500000Y-84000000D03*
X115750000Y-91250000D03*
X121400000Y-90100000D03*
X139000000Y-94200000D03*
X113100000Y-93700000D03*
X119500000Y-85250000D03*
X115000000Y-96750000D03*
X121250000Y-87750000D03*
X122500000Y-87750000D03*
X124000000Y-96750000D03*
X125000000Y-96750000D03*
G04 #@! TO.N,+5V*
X128000000Y-84500000D03*
X111500000Y-83500000D03*
G04 #@! TO.N,+3V3*
X131000000Y-87000000D03*
X132000000Y-88000000D03*
X119500000Y-86500000D03*
X129750000Y-93750000D03*
X120700000Y-90800000D03*
X119500000Y-95500000D03*
X113786622Y-92000139D03*
X126500000Y-94250000D03*
X132000000Y-87000000D03*
X113500000Y-84750000D03*
X113500000Y-85750000D03*
G04 #@! TO.N,D-*
X128755363Y-89321674D03*
G04 #@! TO.N,D+*
X129750000Y-89250000D03*
G04 #@! TO.N,LED*
X123600000Y-92800000D03*
X116750000Y-93750000D03*
G04 #@! TO.N,T_DIO*
X113272402Y-89250000D03*
X125000000Y-91500000D03*
G04 #@! TO.N,T_CLK*
X125750000Y-92250000D03*
G04 #@! TO.N,CLK*
X126000000Y-84500000D03*
G04 #@! TO.N,T_RX*
X111500000Y-96264402D03*
X119250000Y-94000000D03*
G04 #@! TO.N,T_TX*
X118250000Y-94000000D03*
G04 #@! TO.N,T_RST*
X122500000Y-92800000D03*
X113300000Y-92700000D03*
G04 #@! TO.N,T_SWO*
X122100000Y-90800000D03*
G04 #@! TO.N,DIO*
X125400000Y-88000000D03*
G04 #@! TO.N,B0*
X122500000Y-84500000D03*
G04 #@! TO.N,RENUM*
X123800000Y-87400000D03*
X129500000Y-95250000D03*
G04 #@! TO.N,Net-(R10-Pad1)*
X121000000Y-92800000D03*
X119000000Y-96250000D03*
G04 #@! TO.N,Net-(JP1-Pad2)*
X123000000Y-96000000D03*
G04 #@! TD*
D14*
G04 #@! TO.N,GND*
X115371400Y-82797138D02*
X115389792Y-82889603D01*
X115425870Y-82976702D01*
X115478247Y-83055090D01*
X115544910Y-83121753D01*
X115623298Y-83174130D01*
X115710397Y-83210208D01*
X115802862Y-83228600D01*
X115897138Y-83228600D01*
X115989603Y-83210208D01*
X116076702Y-83174130D01*
X116155090Y-83121753D01*
X116181073Y-83095770D01*
X116189792Y-83139603D01*
X116225870Y-83226702D01*
X116278247Y-83305090D01*
X116344910Y-83371753D01*
X116423298Y-83424130D01*
X116510397Y-83460208D01*
X116602862Y-83478600D01*
X116697138Y-83478600D01*
X116789603Y-83460208D01*
X116876702Y-83424130D01*
X116955090Y-83371753D01*
X117000000Y-83326843D01*
X117044910Y-83371753D01*
X117123298Y-83424130D01*
X117210397Y-83460208D01*
X117302862Y-83478600D01*
X117397138Y-83478600D01*
X117489603Y-83460208D01*
X117576702Y-83424130D01*
X117655090Y-83371753D01*
X117721753Y-83305090D01*
X117774130Y-83226702D01*
X117810208Y-83139603D01*
X117818927Y-83095770D01*
X117844910Y-83121753D01*
X117923298Y-83174130D01*
X118010397Y-83210208D01*
X118102862Y-83228600D01*
X118197138Y-83228600D01*
X118289603Y-83210208D01*
X118376702Y-83174130D01*
X118455090Y-83121753D01*
X118521753Y-83055090D01*
X118574130Y-82976702D01*
X118610208Y-82889603D01*
X118628600Y-82797138D01*
X118628600Y-82753600D01*
X132871400Y-82753600D01*
X132871400Y-82797138D01*
X132889792Y-82889603D01*
X132925870Y-82976702D01*
X132978247Y-83055090D01*
X133044910Y-83121753D01*
X133123298Y-83174130D01*
X133210397Y-83210208D01*
X133302862Y-83228600D01*
X133397138Y-83228600D01*
X133489603Y-83210208D01*
X133576702Y-83174130D01*
X133655090Y-83121753D01*
X133681073Y-83095770D01*
X133689792Y-83139603D01*
X133725870Y-83226702D01*
X133778247Y-83305090D01*
X133844910Y-83371753D01*
X133923298Y-83424130D01*
X134010397Y-83460208D01*
X134102862Y-83478600D01*
X134197138Y-83478600D01*
X134289603Y-83460208D01*
X134376702Y-83424130D01*
X134455090Y-83371753D01*
X134500000Y-83326843D01*
X134544910Y-83371753D01*
X134623298Y-83424130D01*
X134710397Y-83460208D01*
X134802862Y-83478600D01*
X134897138Y-83478600D01*
X134989603Y-83460208D01*
X135076702Y-83424130D01*
X135155090Y-83371753D01*
X135221753Y-83305090D01*
X135274130Y-83226702D01*
X135310208Y-83139603D01*
X135318927Y-83095770D01*
X135344910Y-83121753D01*
X135423298Y-83174130D01*
X135476696Y-83196248D01*
X135327367Y-83335130D01*
X135186122Y-83530784D01*
X135085761Y-83750234D01*
X135050782Y-83882913D01*
X135081031Y-84073800D01*
X136923800Y-84073800D01*
X136923800Y-82921400D01*
X137076200Y-82921400D01*
X137076200Y-84073800D01*
X138918969Y-84073800D01*
X138949218Y-83882913D01*
X138914239Y-83750234D01*
X138813878Y-83530784D01*
X138672633Y-83335130D01*
X138495932Y-83170791D01*
X138290565Y-83044082D01*
X138064424Y-82959873D01*
X137826200Y-82921400D01*
X137076200Y-82921400D01*
X136923800Y-82921400D01*
X136173800Y-82921400D01*
X136091534Y-82934686D01*
X136110208Y-82889603D01*
X136128600Y-82797138D01*
X136128600Y-82753600D01*
X138987593Y-82753600D01*
X139144744Y-82769009D01*
X139283964Y-82811042D01*
X139412378Y-82879320D01*
X139525083Y-82971240D01*
X139617786Y-83083299D01*
X139686957Y-83211228D01*
X139729963Y-83350160D01*
X139746400Y-83506541D01*
X139746401Y-96487583D01*
X139730991Y-96644742D01*
X139688957Y-96783968D01*
X139620679Y-96912379D01*
X139528760Y-97025083D01*
X139416701Y-97117786D01*
X139288772Y-97186957D01*
X139149840Y-97229963D01*
X138993459Y-97246400D01*
X136128600Y-97246400D01*
X136128600Y-97202862D01*
X136110208Y-97110397D01*
X136091534Y-97065314D01*
X136173800Y-97078600D01*
X136923800Y-97078600D01*
X136923800Y-95926200D01*
X137076200Y-95926200D01*
X137076200Y-97078600D01*
X137826200Y-97078600D01*
X138064424Y-97040127D01*
X138290565Y-96955918D01*
X138495932Y-96829209D01*
X138672633Y-96664870D01*
X138813878Y-96469216D01*
X138914239Y-96249766D01*
X138949218Y-96117087D01*
X138918969Y-95926200D01*
X137076200Y-95926200D01*
X136923800Y-95926200D01*
X135081031Y-95926200D01*
X135050782Y-96117087D01*
X135085761Y-96249766D01*
X135186122Y-96469216D01*
X135327367Y-96664870D01*
X135476696Y-96803752D01*
X135423298Y-96825870D01*
X135344910Y-96878247D01*
X135318927Y-96904230D01*
X135310208Y-96860397D01*
X135274130Y-96773298D01*
X135221753Y-96694910D01*
X135155090Y-96628247D01*
X135076702Y-96575870D01*
X134989603Y-96539792D01*
X134897138Y-96521400D01*
X134802862Y-96521400D01*
X134710397Y-96539792D01*
X134623298Y-96575870D01*
X134544910Y-96628247D01*
X134500000Y-96673157D01*
X134455090Y-96628247D01*
X134376702Y-96575870D01*
X134289603Y-96539792D01*
X134197138Y-96521400D01*
X134102862Y-96521400D01*
X134010397Y-96539792D01*
X133923298Y-96575870D01*
X133844910Y-96628247D01*
X133778247Y-96694910D01*
X133725870Y-96773298D01*
X133689792Y-96860397D01*
X133681073Y-96904230D01*
X133655090Y-96878247D01*
X133576702Y-96825870D01*
X133489603Y-96789792D01*
X133397138Y-96771400D01*
X133302862Y-96771400D01*
X133210397Y-96789792D01*
X133123298Y-96825870D01*
X133044910Y-96878247D01*
X132978247Y-96944910D01*
X132925870Y-97023298D01*
X132889792Y-97110397D01*
X132871400Y-97202862D01*
X132871400Y-97246400D01*
X118628600Y-97246400D01*
X118628600Y-97202862D01*
X118610208Y-97110397D01*
X118574130Y-97023298D01*
X118521753Y-96944910D01*
X118455090Y-96878247D01*
X118376702Y-96825870D01*
X118289603Y-96789792D01*
X118197138Y-96771400D01*
X118102862Y-96771400D01*
X118010397Y-96789792D01*
X117923298Y-96825870D01*
X117844910Y-96878247D01*
X117818927Y-96904230D01*
X117810208Y-96860397D01*
X117774130Y-96773298D01*
X117721753Y-96694910D01*
X117655090Y-96628247D01*
X117576702Y-96575870D01*
X117489603Y-96539792D01*
X117397138Y-96521400D01*
X117302862Y-96521400D01*
X117210397Y-96539792D01*
X117123298Y-96575870D01*
X117044910Y-96628247D01*
X117000000Y-96673157D01*
X116955090Y-96628247D01*
X116876702Y-96575870D01*
X116789603Y-96539792D01*
X116697138Y-96521400D01*
X116602862Y-96521400D01*
X116510397Y-96539792D01*
X116423298Y-96575870D01*
X116344910Y-96628247D01*
X116278247Y-96694910D01*
X116225870Y-96773298D01*
X116189792Y-96860397D01*
X116181073Y-96904230D01*
X116155090Y-96878247D01*
X116076702Y-96825870D01*
X115989603Y-96789792D01*
X115897138Y-96771400D01*
X115802862Y-96771400D01*
X115710397Y-96789792D01*
X115623298Y-96825870D01*
X115544910Y-96878247D01*
X115478247Y-96944910D01*
X115425870Y-97023298D01*
X115389792Y-97110397D01*
X115371400Y-97202862D01*
X115371400Y-97246400D01*
X110253600Y-97246400D01*
X110253600Y-96207415D01*
X110921400Y-96207415D01*
X110921400Y-96321389D01*
X110943635Y-96433174D01*
X110987251Y-96538472D01*
X111050572Y-96633238D01*
X111131164Y-96713830D01*
X111225930Y-96777151D01*
X111331228Y-96820767D01*
X111443013Y-96843002D01*
X111556987Y-96843002D01*
X111668772Y-96820767D01*
X111774070Y-96777151D01*
X111868836Y-96713830D01*
X111949428Y-96633238D01*
X112012749Y-96538472D01*
X112056365Y-96433174D01*
X112078600Y-96321389D01*
X112078600Y-96207415D01*
X112075736Y-96193013D01*
X118421400Y-96193013D01*
X118421400Y-96306987D01*
X118443635Y-96418772D01*
X118487251Y-96524070D01*
X118550572Y-96618836D01*
X118631164Y-96699428D01*
X118725930Y-96762749D01*
X118831228Y-96806365D01*
X118943013Y-96828600D01*
X119056987Y-96828600D01*
X119168772Y-96806365D01*
X119274070Y-96762749D01*
X119368836Y-96699428D01*
X119449428Y-96618836D01*
X119512749Y-96524070D01*
X119556365Y-96418772D01*
X119578600Y-96306987D01*
X119578600Y-96193013D01*
X119556365Y-96081228D01*
X119555276Y-96078600D01*
X119556987Y-96078600D01*
X119668772Y-96056365D01*
X119774070Y-96012749D01*
X119868836Y-95949428D01*
X119875251Y-95943013D01*
X122421400Y-95943013D01*
X122421400Y-96056987D01*
X122443635Y-96168772D01*
X122487251Y-96274070D01*
X122550572Y-96368836D01*
X122631164Y-96449428D01*
X122725930Y-96512749D01*
X122831228Y-96556365D01*
X122943013Y-96578600D01*
X123056987Y-96578600D01*
X123168772Y-96556365D01*
X123274070Y-96512749D01*
X123368836Y-96449428D01*
X123449428Y-96368836D01*
X123512749Y-96274070D01*
X123556365Y-96168772D01*
X123578600Y-96056987D01*
X123578600Y-95943013D01*
X123556365Y-95831228D01*
X123512749Y-95725930D01*
X123449428Y-95631164D01*
X123368836Y-95550572D01*
X123274070Y-95487251D01*
X123168772Y-95443635D01*
X123056987Y-95421400D01*
X122943013Y-95421400D01*
X122831228Y-95443635D01*
X122725930Y-95487251D01*
X122631164Y-95550572D01*
X122550572Y-95631164D01*
X122487251Y-95725930D01*
X122443635Y-95831228D01*
X122421400Y-95943013D01*
X119875251Y-95943013D01*
X119949428Y-95868836D01*
X120012749Y-95774070D01*
X120056365Y-95668772D01*
X120078600Y-95556987D01*
X120078600Y-95443013D01*
X120056365Y-95331228D01*
X120012749Y-95225930D01*
X119990755Y-95193013D01*
X128921400Y-95193013D01*
X128921400Y-95306987D01*
X128943635Y-95418772D01*
X128987251Y-95524070D01*
X129050572Y-95618836D01*
X129131164Y-95699428D01*
X129225930Y-95762749D01*
X129331228Y-95806365D01*
X129443013Y-95828600D01*
X129556987Y-95828600D01*
X129668772Y-95806365D01*
X129774070Y-95762749D01*
X129868836Y-95699428D01*
X129949428Y-95618836D01*
X129973431Y-95582913D01*
X135050782Y-95582913D01*
X135081031Y-95773800D01*
X136923800Y-95773800D01*
X136923800Y-94621400D01*
X137076200Y-94621400D01*
X137076200Y-95773800D01*
X138918969Y-95773800D01*
X138949218Y-95582913D01*
X138914239Y-95450234D01*
X138813878Y-95230784D01*
X138672633Y-95035130D01*
X138495932Y-94870791D01*
X138290565Y-94744082D01*
X138064424Y-94659873D01*
X137826200Y-94621400D01*
X137076200Y-94621400D01*
X136923800Y-94621400D01*
X136173800Y-94621400D01*
X135935576Y-94659873D01*
X135709435Y-94744082D01*
X135504068Y-94870791D01*
X135327367Y-95035130D01*
X135186122Y-95230784D01*
X135085761Y-95450234D01*
X135050782Y-95582913D01*
X129973431Y-95582913D01*
X130012749Y-95524070D01*
X130056365Y-95418772D01*
X130078600Y-95306987D01*
X130078600Y-95193013D01*
X130056365Y-95081228D01*
X130012749Y-94975930D01*
X129949428Y-94881164D01*
X129868836Y-94800572D01*
X129774070Y-94737251D01*
X129668772Y-94693635D01*
X129556987Y-94671400D01*
X129443013Y-94671400D01*
X129331228Y-94693635D01*
X129225930Y-94737251D01*
X129131164Y-94800572D01*
X129050572Y-94881164D01*
X128987251Y-94975930D01*
X128943635Y-95081228D01*
X128921400Y-95193013D01*
X119990755Y-95193013D01*
X119949428Y-95131164D01*
X119868836Y-95050572D01*
X119774070Y-94987251D01*
X119668772Y-94943635D01*
X119556987Y-94921400D01*
X119443013Y-94921400D01*
X119331228Y-94943635D01*
X119225930Y-94987251D01*
X119131164Y-95050572D01*
X119050572Y-95131164D01*
X118987251Y-95225930D01*
X118943635Y-95331228D01*
X118921400Y-95443013D01*
X118921400Y-95556987D01*
X118943635Y-95668772D01*
X118944724Y-95671400D01*
X118943013Y-95671400D01*
X118831228Y-95693635D01*
X118725930Y-95737251D01*
X118631164Y-95800572D01*
X118550572Y-95881164D01*
X118487251Y-95975930D01*
X118443635Y-96081228D01*
X118421400Y-96193013D01*
X112075736Y-96193013D01*
X112056365Y-96095630D01*
X112012749Y-95990332D01*
X111949428Y-95895566D01*
X111868836Y-95814974D01*
X111774070Y-95751653D01*
X111668772Y-95708037D01*
X111556987Y-95685802D01*
X111443013Y-95685802D01*
X111331228Y-95708037D01*
X111225930Y-95751653D01*
X111131164Y-95814974D01*
X111050572Y-95895566D01*
X110987251Y-95990332D01*
X110943635Y-96095630D01*
X110921400Y-96207415D01*
X110253600Y-96207415D01*
X110253600Y-93693013D01*
X116171400Y-93693013D01*
X116171400Y-93806987D01*
X116193635Y-93918772D01*
X116237251Y-94024070D01*
X116300572Y-94118836D01*
X116381164Y-94199428D01*
X116475930Y-94262749D01*
X116581228Y-94306365D01*
X116693013Y-94328600D01*
X116806987Y-94328600D01*
X116918772Y-94306365D01*
X117024070Y-94262749D01*
X117118836Y-94199428D01*
X117199428Y-94118836D01*
X117262749Y-94024070D01*
X117296324Y-93943013D01*
X117671400Y-93943013D01*
X117671400Y-94056987D01*
X117693635Y-94168772D01*
X117737251Y-94274070D01*
X117800572Y-94368836D01*
X117881164Y-94449428D01*
X117975930Y-94512749D01*
X118081228Y-94556365D01*
X118193013Y-94578600D01*
X118306987Y-94578600D01*
X118418772Y-94556365D01*
X118524070Y-94512749D01*
X118618836Y-94449428D01*
X118699428Y-94368836D01*
X118750000Y-94293150D01*
X118800572Y-94368836D01*
X118881164Y-94449428D01*
X118975930Y-94512749D01*
X119081228Y-94556365D01*
X119193013Y-94578600D01*
X119306987Y-94578600D01*
X119418772Y-94556365D01*
X119524070Y-94512749D01*
X119618836Y-94449428D01*
X119699428Y-94368836D01*
X119762749Y-94274070D01*
X119796324Y-94193013D01*
X125921400Y-94193013D01*
X125921400Y-94306987D01*
X125943635Y-94418772D01*
X125987251Y-94524070D01*
X126050572Y-94618836D01*
X126131164Y-94699428D01*
X126225930Y-94762749D01*
X126331228Y-94806365D01*
X126443013Y-94828600D01*
X126556987Y-94828600D01*
X126668772Y-94806365D01*
X126774070Y-94762749D01*
X126868836Y-94699428D01*
X126949428Y-94618836D01*
X127012749Y-94524070D01*
X127056365Y-94418772D01*
X127078600Y-94306987D01*
X127078600Y-94193013D01*
X127056365Y-94081228D01*
X127012749Y-93975930D01*
X126949428Y-93881164D01*
X126868836Y-93800572D01*
X126774070Y-93737251D01*
X126668772Y-93693635D01*
X126665645Y-93693013D01*
X129171400Y-93693013D01*
X129171400Y-93806987D01*
X129193635Y-93918772D01*
X129237251Y-94024070D01*
X129300572Y-94118836D01*
X129381164Y-94199428D01*
X129475930Y-94262749D01*
X129581228Y-94306365D01*
X129693013Y-94328600D01*
X129806987Y-94328600D01*
X129883082Y-94313464D01*
X134194299Y-94313464D01*
X134296569Y-94460190D01*
X134495488Y-94559464D01*
X134709952Y-94618023D01*
X134931719Y-94633617D01*
X135152267Y-94605647D01*
X135363121Y-94535187D01*
X135503431Y-94460190D01*
X135605701Y-94313464D01*
X134900000Y-93607763D01*
X134194299Y-94313464D01*
X129883082Y-94313464D01*
X129918772Y-94306365D01*
X130024070Y-94262749D01*
X130118836Y-94199428D01*
X130199428Y-94118836D01*
X130262749Y-94024070D01*
X130306365Y-93918772D01*
X130328600Y-93806987D01*
X130328600Y-93693013D01*
X130306365Y-93581228D01*
X130285858Y-93531719D01*
X133766383Y-93531719D01*
X133794353Y-93752267D01*
X133864813Y-93963121D01*
X133939810Y-94103431D01*
X134086536Y-94205701D01*
X134792237Y-93500000D01*
X135007763Y-93500000D01*
X135713464Y-94205701D01*
X135860190Y-94103431D01*
X135959464Y-93904512D01*
X136018023Y-93690048D01*
X136033617Y-93468281D01*
X136006679Y-93255870D01*
X136151893Y-93255870D01*
X136278216Y-93423090D01*
X136511188Y-93542323D01*
X136762946Y-93613815D01*
X137023813Y-93634817D01*
X137283765Y-93604524D01*
X137532813Y-93524097D01*
X137721784Y-93423090D01*
X137848107Y-93255870D01*
X137000000Y-92407763D01*
X136151893Y-93255870D01*
X136006679Y-93255870D01*
X136005647Y-93247733D01*
X135948119Y-93075577D01*
X136044130Y-93148107D01*
X136892237Y-92300000D01*
X137107763Y-92300000D01*
X137955870Y-93148107D01*
X138123090Y-93021784D01*
X138242323Y-92788812D01*
X138313815Y-92537054D01*
X138334817Y-92276187D01*
X138304524Y-92016235D01*
X138224097Y-91767187D01*
X138123090Y-91578216D01*
X137955870Y-91451893D01*
X137107763Y-92300000D01*
X136892237Y-92300000D01*
X136044130Y-91451893D01*
X135876910Y-91578216D01*
X135757677Y-91811188D01*
X135686185Y-92062946D01*
X135665183Y-92323813D01*
X135695476Y-92583765D01*
X135775903Y-92832813D01*
X135780168Y-92840793D01*
X135713464Y-92794299D01*
X135007763Y-93500000D01*
X134792237Y-93500000D01*
X134086536Y-92794299D01*
X133939810Y-92896569D01*
X133840536Y-93095488D01*
X133781977Y-93309952D01*
X133766383Y-93531719D01*
X130285858Y-93531719D01*
X130262749Y-93475930D01*
X130199428Y-93381164D01*
X130118836Y-93300572D01*
X130024070Y-93237251D01*
X129918772Y-93193635D01*
X129806987Y-93171400D01*
X129693013Y-93171400D01*
X129581228Y-93193635D01*
X129475930Y-93237251D01*
X129381164Y-93300572D01*
X129300572Y-93381164D01*
X129237251Y-93475930D01*
X129193635Y-93581228D01*
X129171400Y-93693013D01*
X126665645Y-93693013D01*
X126556987Y-93671400D01*
X126443013Y-93671400D01*
X126331228Y-93693635D01*
X126225930Y-93737251D01*
X126131164Y-93800572D01*
X126050572Y-93881164D01*
X125987251Y-93975930D01*
X125943635Y-94081228D01*
X125921400Y-94193013D01*
X119796324Y-94193013D01*
X119806365Y-94168772D01*
X119828600Y-94056987D01*
X119828600Y-93943013D01*
X119806365Y-93831228D01*
X119762749Y-93725930D01*
X119699428Y-93631164D01*
X119618836Y-93550572D01*
X119524070Y-93487251D01*
X119418772Y-93443635D01*
X119306987Y-93421400D01*
X119193013Y-93421400D01*
X119081228Y-93443635D01*
X118975930Y-93487251D01*
X118881164Y-93550572D01*
X118800572Y-93631164D01*
X118750000Y-93706850D01*
X118699428Y-93631164D01*
X118618836Y-93550572D01*
X118524070Y-93487251D01*
X118418772Y-93443635D01*
X118306987Y-93421400D01*
X118193013Y-93421400D01*
X118081228Y-93443635D01*
X117975930Y-93487251D01*
X117881164Y-93550572D01*
X117800572Y-93631164D01*
X117737251Y-93725930D01*
X117693635Y-93831228D01*
X117671400Y-93943013D01*
X117296324Y-93943013D01*
X117306365Y-93918772D01*
X117328600Y-93806987D01*
X117328600Y-93693013D01*
X117306365Y-93581228D01*
X117262749Y-93475930D01*
X117199428Y-93381164D01*
X117118836Y-93300572D01*
X117024070Y-93237251D01*
X116918772Y-93193635D01*
X116806987Y-93171400D01*
X116693013Y-93171400D01*
X116581228Y-93193635D01*
X116475930Y-93237251D01*
X116381164Y-93300572D01*
X116300572Y-93381164D01*
X116237251Y-93475930D01*
X116193635Y-93581228D01*
X116171400Y-93693013D01*
X110253600Y-93693013D01*
X110253600Y-92643013D01*
X112721400Y-92643013D01*
X112721400Y-92756987D01*
X112743635Y-92868772D01*
X112787251Y-92974070D01*
X112850572Y-93068836D01*
X112931164Y-93149428D01*
X113025930Y-93212749D01*
X113131228Y-93256365D01*
X113243013Y-93278600D01*
X113356987Y-93278600D01*
X113468772Y-93256365D01*
X113574070Y-93212749D01*
X113668836Y-93149428D01*
X113749428Y-93068836D01*
X113812749Y-92974070D01*
X113856365Y-92868772D01*
X113878600Y-92756987D01*
X113878600Y-92743013D01*
X120421400Y-92743013D01*
X120421400Y-92856987D01*
X120443635Y-92968772D01*
X120487251Y-93074070D01*
X120550572Y-93168836D01*
X120631164Y-93249428D01*
X120725930Y-93312749D01*
X120831228Y-93356365D01*
X120943013Y-93378600D01*
X121056987Y-93378600D01*
X121168772Y-93356365D01*
X121274070Y-93312749D01*
X121368836Y-93249428D01*
X121449428Y-93168836D01*
X121512749Y-93074070D01*
X121556365Y-92968772D01*
X121578600Y-92856987D01*
X121578600Y-92743013D01*
X121921400Y-92743013D01*
X121921400Y-92856987D01*
X121943635Y-92968772D01*
X121987251Y-93074070D01*
X122050572Y-93168836D01*
X122131164Y-93249428D01*
X122225930Y-93312749D01*
X122331228Y-93356365D01*
X122443013Y-93378600D01*
X122556987Y-93378600D01*
X122668772Y-93356365D01*
X122774070Y-93312749D01*
X122868836Y-93249428D01*
X122949428Y-93168836D01*
X123012749Y-93074070D01*
X123050000Y-92984138D01*
X123087251Y-93074070D01*
X123150572Y-93168836D01*
X123231164Y-93249428D01*
X123325930Y-93312749D01*
X123431228Y-93356365D01*
X123543013Y-93378600D01*
X123656987Y-93378600D01*
X123768772Y-93356365D01*
X123874070Y-93312749D01*
X123968836Y-93249428D01*
X124049428Y-93168836D01*
X124112749Y-93074070D01*
X124156365Y-92968772D01*
X124178600Y-92856987D01*
X124178600Y-92743013D01*
X124156365Y-92631228D01*
X124112749Y-92525930D01*
X124049428Y-92431164D01*
X123968836Y-92350572D01*
X123874070Y-92287251D01*
X123768772Y-92243635D01*
X123656987Y-92221400D01*
X123543013Y-92221400D01*
X123431228Y-92243635D01*
X123325930Y-92287251D01*
X123231164Y-92350572D01*
X123150572Y-92431164D01*
X123087251Y-92525930D01*
X123050000Y-92615862D01*
X123012749Y-92525930D01*
X122949428Y-92431164D01*
X122868836Y-92350572D01*
X122774070Y-92287251D01*
X122668772Y-92243635D01*
X122556987Y-92221400D01*
X122443013Y-92221400D01*
X122331228Y-92243635D01*
X122225930Y-92287251D01*
X122131164Y-92350572D01*
X122050572Y-92431164D01*
X121987251Y-92525930D01*
X121943635Y-92631228D01*
X121921400Y-92743013D01*
X121578600Y-92743013D01*
X121556365Y-92631228D01*
X121512749Y-92525930D01*
X121449428Y-92431164D01*
X121368836Y-92350572D01*
X121274070Y-92287251D01*
X121168772Y-92243635D01*
X121056987Y-92221400D01*
X120943013Y-92221400D01*
X120831228Y-92243635D01*
X120725930Y-92287251D01*
X120631164Y-92350572D01*
X120550572Y-92431164D01*
X120487251Y-92525930D01*
X120443635Y-92631228D01*
X120421400Y-92743013D01*
X113878600Y-92743013D01*
X113878600Y-92643013D01*
X113864970Y-92574490D01*
X113955394Y-92556504D01*
X114060692Y-92512888D01*
X114155458Y-92449567D01*
X114236050Y-92368975D01*
X114299371Y-92274209D01*
X114342987Y-92168911D01*
X114365222Y-92057126D01*
X114365222Y-91943152D01*
X114342987Y-91831367D01*
X114299371Y-91726069D01*
X114236050Y-91631303D01*
X114155458Y-91550711D01*
X114060692Y-91487390D01*
X113955394Y-91443774D01*
X113951569Y-91443013D01*
X124421400Y-91443013D01*
X124421400Y-91556987D01*
X124443635Y-91668772D01*
X124487251Y-91774070D01*
X124550572Y-91868836D01*
X124631164Y-91949428D01*
X124725930Y-92012749D01*
X124831228Y-92056365D01*
X124943013Y-92078600D01*
X125056987Y-92078600D01*
X125168772Y-92056365D01*
X125211216Y-92038784D01*
X125193635Y-92081228D01*
X125171400Y-92193013D01*
X125171400Y-92306987D01*
X125193635Y-92418772D01*
X125237251Y-92524070D01*
X125300572Y-92618836D01*
X125381164Y-92699428D01*
X125475930Y-92762749D01*
X125581228Y-92806365D01*
X125693013Y-92828600D01*
X125806987Y-92828600D01*
X125918772Y-92806365D01*
X126024070Y-92762749D01*
X126118836Y-92699428D01*
X126131728Y-92686536D01*
X134194299Y-92686536D01*
X134900000Y-93392237D01*
X135605701Y-92686536D01*
X135503431Y-92539810D01*
X135304512Y-92440536D01*
X135090048Y-92381977D01*
X134868281Y-92366383D01*
X134647733Y-92394353D01*
X134436879Y-92464813D01*
X134296569Y-92539810D01*
X134194299Y-92686536D01*
X126131728Y-92686536D01*
X126199428Y-92618836D01*
X126262749Y-92524070D01*
X126306365Y-92418772D01*
X126328600Y-92306987D01*
X126328600Y-92193013D01*
X126306365Y-92081228D01*
X126262749Y-91975930D01*
X126199428Y-91881164D01*
X126118836Y-91800572D01*
X126024070Y-91737251D01*
X125918772Y-91693635D01*
X125806987Y-91671400D01*
X125693013Y-91671400D01*
X125581228Y-91693635D01*
X125538784Y-91711216D01*
X125556365Y-91668772D01*
X125578600Y-91556987D01*
X125578600Y-91443013D01*
X125556365Y-91331228D01*
X125512749Y-91225930D01*
X125449428Y-91131164D01*
X125368836Y-91050572D01*
X125274070Y-90987251D01*
X125168772Y-90943635D01*
X125056987Y-90921400D01*
X124943013Y-90921400D01*
X124831228Y-90943635D01*
X124725930Y-90987251D01*
X124631164Y-91050572D01*
X124550572Y-91131164D01*
X124487251Y-91225930D01*
X124443635Y-91331228D01*
X124421400Y-91443013D01*
X113951569Y-91443013D01*
X113843609Y-91421539D01*
X113729635Y-91421539D01*
X113617850Y-91443774D01*
X113512552Y-91487390D01*
X113417786Y-91550711D01*
X113337194Y-91631303D01*
X113273873Y-91726069D01*
X113230257Y-91831367D01*
X113208022Y-91943152D01*
X113208022Y-92057126D01*
X113221652Y-92125649D01*
X113131228Y-92143635D01*
X113025930Y-92187251D01*
X112931164Y-92250572D01*
X112850572Y-92331164D01*
X112787251Y-92425930D01*
X112743635Y-92531228D01*
X112721400Y-92643013D01*
X110253600Y-92643013D01*
X110253600Y-90743013D01*
X120121400Y-90743013D01*
X120121400Y-90856987D01*
X120143635Y-90968772D01*
X120187251Y-91074070D01*
X120250572Y-91168836D01*
X120331164Y-91249428D01*
X120425930Y-91312749D01*
X120531228Y-91356365D01*
X120643013Y-91378600D01*
X120756987Y-91378600D01*
X120868772Y-91356365D01*
X120974070Y-91312749D01*
X121068836Y-91249428D01*
X121149428Y-91168836D01*
X121212749Y-91074070D01*
X121256365Y-90968772D01*
X121278600Y-90856987D01*
X121278600Y-90743013D01*
X121521400Y-90743013D01*
X121521400Y-90856987D01*
X121543635Y-90968772D01*
X121587251Y-91074070D01*
X121650572Y-91168836D01*
X121731164Y-91249428D01*
X121825930Y-91312749D01*
X121931228Y-91356365D01*
X122043013Y-91378600D01*
X122156987Y-91378600D01*
X122268772Y-91356365D01*
X122374070Y-91312749D01*
X122468836Y-91249428D01*
X122549428Y-91168836D01*
X122612749Y-91074070D01*
X122656365Y-90968772D01*
X122678600Y-90856987D01*
X122678600Y-90743013D01*
X122656365Y-90631228D01*
X122612749Y-90525930D01*
X122549428Y-90431164D01*
X122468836Y-90350572D01*
X122374070Y-90287251D01*
X122268772Y-90243635D01*
X122156987Y-90221400D01*
X122043013Y-90221400D01*
X121931228Y-90243635D01*
X121825930Y-90287251D01*
X121731164Y-90350572D01*
X121650572Y-90431164D01*
X121587251Y-90525930D01*
X121543635Y-90631228D01*
X121521400Y-90743013D01*
X121278600Y-90743013D01*
X121256365Y-90631228D01*
X121212749Y-90525930D01*
X121149428Y-90431164D01*
X121068836Y-90350572D01*
X120974070Y-90287251D01*
X120868772Y-90243635D01*
X120756987Y-90221400D01*
X120643013Y-90221400D01*
X120531228Y-90243635D01*
X120425930Y-90287251D01*
X120331164Y-90350572D01*
X120250572Y-90431164D01*
X120187251Y-90525930D01*
X120143635Y-90631228D01*
X120121400Y-90743013D01*
X110253600Y-90743013D01*
X110253600Y-89193013D01*
X112693802Y-89193013D01*
X112693802Y-89306987D01*
X112716037Y-89418772D01*
X112759653Y-89524070D01*
X112822974Y-89618836D01*
X112903566Y-89699428D01*
X112998332Y-89762749D01*
X113103630Y-89806365D01*
X113215415Y-89828600D01*
X113329389Y-89828600D01*
X113441174Y-89806365D01*
X113546472Y-89762749D01*
X113641238Y-89699428D01*
X113721830Y-89618836D01*
X113785151Y-89524070D01*
X113828767Y-89418772D01*
X113851002Y-89306987D01*
X113851002Y-89264687D01*
X128176763Y-89264687D01*
X128176763Y-89378661D01*
X128198998Y-89490446D01*
X128242614Y-89595744D01*
X128305935Y-89690510D01*
X128386527Y-89771102D01*
X128481293Y-89834423D01*
X128586591Y-89878039D01*
X128698376Y-89900274D01*
X128812350Y-89900274D01*
X128924135Y-89878039D01*
X129029433Y-89834423D01*
X129124199Y-89771102D01*
X129204791Y-89690510D01*
X129268112Y-89595744D01*
X129274629Y-89580010D01*
X129300572Y-89618836D01*
X129381164Y-89699428D01*
X129475930Y-89762749D01*
X129581228Y-89806365D01*
X129693013Y-89828600D01*
X129806987Y-89828600D01*
X129918772Y-89806365D01*
X130024070Y-89762749D01*
X130118836Y-89699428D01*
X130199428Y-89618836D01*
X130262749Y-89524070D01*
X130306365Y-89418772D01*
X130328600Y-89306987D01*
X130328600Y-89193013D01*
X130306365Y-89081228D01*
X130262749Y-88975930D01*
X130204559Y-88888843D01*
X133771400Y-88888843D01*
X133771400Y-89111157D01*
X133814771Y-89329201D01*
X133899847Y-89534593D01*
X134023359Y-89719441D01*
X134180559Y-89876641D01*
X134365178Y-90000000D01*
X134180559Y-90123359D01*
X134023359Y-90280559D01*
X133899847Y-90465407D01*
X133814771Y-90670799D01*
X133771400Y-90888843D01*
X133771400Y-91111157D01*
X133814771Y-91329201D01*
X133899847Y-91534593D01*
X134023359Y-91719441D01*
X134180559Y-91876641D01*
X134365407Y-92000153D01*
X134570799Y-92085229D01*
X134788843Y-92128600D01*
X135011157Y-92128600D01*
X135229201Y-92085229D01*
X135434593Y-92000153D01*
X135619441Y-91876641D01*
X135776641Y-91719441D01*
X135900153Y-91534593D01*
X135979045Y-91344130D01*
X136151893Y-91344130D01*
X137000000Y-92192237D01*
X137848107Y-91344130D01*
X137721784Y-91176910D01*
X137488812Y-91057677D01*
X137237054Y-90986185D01*
X136976187Y-90965183D01*
X136716235Y-90995476D01*
X136467187Y-91075903D01*
X136278216Y-91176910D01*
X136151893Y-91344130D01*
X135979045Y-91344130D01*
X135985229Y-91329201D01*
X136028600Y-91111157D01*
X136028600Y-90888843D01*
X135985229Y-90670799D01*
X135900153Y-90465407D01*
X135776641Y-90280559D01*
X135619441Y-90123359D01*
X135434822Y-90000000D01*
X135619441Y-89876641D01*
X135776641Y-89719441D01*
X135900153Y-89534593D01*
X135985229Y-89329201D01*
X136028600Y-89111157D01*
X136028600Y-88888843D01*
X135985229Y-88670799D01*
X135979046Y-88655870D01*
X136151893Y-88655870D01*
X136278216Y-88823090D01*
X136511188Y-88942323D01*
X136762946Y-89013815D01*
X137023813Y-89034817D01*
X137283765Y-89004524D01*
X137532813Y-88924097D01*
X137721784Y-88823090D01*
X137848107Y-88655870D01*
X137000000Y-87807763D01*
X136151893Y-88655870D01*
X135979046Y-88655870D01*
X135900153Y-88465407D01*
X135776641Y-88280559D01*
X135619441Y-88123359D01*
X135434593Y-87999847D01*
X135229201Y-87914771D01*
X135011157Y-87871400D01*
X134788843Y-87871400D01*
X134570799Y-87914771D01*
X134365407Y-87999847D01*
X134180559Y-88123359D01*
X134023359Y-88280559D01*
X133899847Y-88465407D01*
X133814771Y-88670799D01*
X133771400Y-88888843D01*
X130204559Y-88888843D01*
X130199428Y-88881164D01*
X130118836Y-88800572D01*
X130024070Y-88737251D01*
X129918772Y-88693635D01*
X129806987Y-88671400D01*
X129693013Y-88671400D01*
X129581228Y-88693635D01*
X129475930Y-88737251D01*
X129381164Y-88800572D01*
X129300572Y-88881164D01*
X129237251Y-88975930D01*
X129230734Y-88991664D01*
X129204791Y-88952838D01*
X129124199Y-88872246D01*
X129029433Y-88808925D01*
X128924135Y-88765309D01*
X128812350Y-88743074D01*
X128698376Y-88743074D01*
X128586591Y-88765309D01*
X128481293Y-88808925D01*
X128386527Y-88872246D01*
X128305935Y-88952838D01*
X128242614Y-89047604D01*
X128198998Y-89152902D01*
X128176763Y-89264687D01*
X113851002Y-89264687D01*
X113851002Y-89193013D01*
X113828767Y-89081228D01*
X113785151Y-88975930D01*
X113721830Y-88881164D01*
X113641238Y-88800572D01*
X113546472Y-88737251D01*
X113441174Y-88693635D01*
X113329389Y-88671400D01*
X113215415Y-88671400D01*
X113103630Y-88693635D01*
X112998332Y-88737251D01*
X112903566Y-88800572D01*
X112822974Y-88881164D01*
X112759653Y-88975930D01*
X112716037Y-89081228D01*
X112693802Y-89193013D01*
X110253600Y-89193013D01*
X110253600Y-87343013D01*
X123221400Y-87343013D01*
X123221400Y-87456987D01*
X123243635Y-87568772D01*
X123287251Y-87674070D01*
X123350572Y-87768836D01*
X123431164Y-87849428D01*
X123525930Y-87912749D01*
X123631228Y-87956365D01*
X123743013Y-87978600D01*
X123856987Y-87978600D01*
X123968772Y-87956365D01*
X124001006Y-87943013D01*
X124821400Y-87943013D01*
X124821400Y-88056987D01*
X124843635Y-88168772D01*
X124887251Y-88274070D01*
X124950572Y-88368836D01*
X125031164Y-88449428D01*
X125125930Y-88512749D01*
X125231228Y-88556365D01*
X125343013Y-88578600D01*
X125456987Y-88578600D01*
X125568772Y-88556365D01*
X125674070Y-88512749D01*
X125768836Y-88449428D01*
X125849428Y-88368836D01*
X125912749Y-88274070D01*
X125956365Y-88168772D01*
X125978600Y-88056987D01*
X125978600Y-87943013D01*
X125956365Y-87831228D01*
X125912749Y-87725930D01*
X125849428Y-87631164D01*
X125768836Y-87550572D01*
X125674070Y-87487251D01*
X125568772Y-87443635D01*
X125456987Y-87421400D01*
X125343013Y-87421400D01*
X125231228Y-87443635D01*
X125125930Y-87487251D01*
X125031164Y-87550572D01*
X124950572Y-87631164D01*
X124887251Y-87725930D01*
X124843635Y-87831228D01*
X124821400Y-87943013D01*
X124001006Y-87943013D01*
X124074070Y-87912749D01*
X124168836Y-87849428D01*
X124249428Y-87768836D01*
X124312749Y-87674070D01*
X124356365Y-87568772D01*
X124378600Y-87456987D01*
X124378600Y-87343013D01*
X124356365Y-87231228D01*
X124312749Y-87125930D01*
X124249428Y-87031164D01*
X124168836Y-86950572D01*
X124157524Y-86943013D01*
X130421400Y-86943013D01*
X130421400Y-87056987D01*
X130443635Y-87168772D01*
X130487251Y-87274070D01*
X130550572Y-87368836D01*
X130631164Y-87449428D01*
X130725930Y-87512749D01*
X130831228Y-87556365D01*
X130943013Y-87578600D01*
X131056987Y-87578600D01*
X131168772Y-87556365D01*
X131274070Y-87512749D01*
X131368836Y-87449428D01*
X131449428Y-87368836D01*
X131500000Y-87293150D01*
X131550572Y-87368836D01*
X131631164Y-87449428D01*
X131706850Y-87500000D01*
X131631164Y-87550572D01*
X131550572Y-87631164D01*
X131487251Y-87725930D01*
X131443635Y-87831228D01*
X131421400Y-87943013D01*
X131421400Y-88056987D01*
X131443635Y-88168772D01*
X131487251Y-88274070D01*
X131550572Y-88368836D01*
X131631164Y-88449428D01*
X131725930Y-88512749D01*
X131831228Y-88556365D01*
X131943013Y-88578600D01*
X132056987Y-88578600D01*
X132168772Y-88556365D01*
X132274070Y-88512749D01*
X132368836Y-88449428D01*
X132449428Y-88368836D01*
X132512749Y-88274070D01*
X132556365Y-88168772D01*
X132578600Y-88056987D01*
X132578600Y-87943013D01*
X132556365Y-87831228D01*
X132512749Y-87725930D01*
X132449428Y-87631164D01*
X132368836Y-87550572D01*
X132293150Y-87500000D01*
X132368836Y-87449428D01*
X132449428Y-87368836D01*
X132512749Y-87274070D01*
X132556365Y-87168772D01*
X132578600Y-87056987D01*
X132578600Y-86943013D01*
X132556365Y-86831228D01*
X132512749Y-86725930D01*
X132449428Y-86631164D01*
X132368836Y-86550572D01*
X132274070Y-86487251D01*
X132168772Y-86443635D01*
X132056987Y-86421400D01*
X131943013Y-86421400D01*
X131831228Y-86443635D01*
X131725930Y-86487251D01*
X131631164Y-86550572D01*
X131550572Y-86631164D01*
X131500000Y-86706850D01*
X131449428Y-86631164D01*
X131368836Y-86550572D01*
X131274070Y-86487251D01*
X131168772Y-86443635D01*
X131056987Y-86421400D01*
X130943013Y-86421400D01*
X130831228Y-86443635D01*
X130725930Y-86487251D01*
X130631164Y-86550572D01*
X130550572Y-86631164D01*
X130487251Y-86725930D01*
X130443635Y-86831228D01*
X130421400Y-86943013D01*
X124157524Y-86943013D01*
X124074070Y-86887251D01*
X123968772Y-86843635D01*
X123856987Y-86821400D01*
X123743013Y-86821400D01*
X123631228Y-86843635D01*
X123525930Y-86887251D01*
X123431164Y-86950572D01*
X123350572Y-87031164D01*
X123287251Y-87125930D01*
X123243635Y-87231228D01*
X123221400Y-87343013D01*
X110253600Y-87343013D01*
X110253600Y-86443013D01*
X118921400Y-86443013D01*
X118921400Y-86556987D01*
X118943635Y-86668772D01*
X118987251Y-86774070D01*
X119050572Y-86868836D01*
X119131164Y-86949428D01*
X119225930Y-87012749D01*
X119331228Y-87056365D01*
X119443013Y-87078600D01*
X119556987Y-87078600D01*
X119668772Y-87056365D01*
X119774070Y-87012749D01*
X119868836Y-86949428D01*
X119949428Y-86868836D01*
X120012749Y-86774070D01*
X120056365Y-86668772D01*
X120078600Y-86556987D01*
X120078600Y-86443013D01*
X120067826Y-86388843D01*
X133771400Y-86388843D01*
X133771400Y-86611157D01*
X133814771Y-86829201D01*
X133899847Y-87034593D01*
X134023359Y-87219441D01*
X134180559Y-87376641D01*
X134365407Y-87500153D01*
X134570799Y-87585229D01*
X134788843Y-87628600D01*
X135011157Y-87628600D01*
X135229201Y-87585229D01*
X135434593Y-87500153D01*
X135619441Y-87376641D01*
X135746883Y-87249199D01*
X135686185Y-87462946D01*
X135665183Y-87723813D01*
X135695476Y-87983765D01*
X135775903Y-88232813D01*
X135876910Y-88421784D01*
X136044130Y-88548107D01*
X136892237Y-87700000D01*
X137107763Y-87700000D01*
X137955870Y-88548107D01*
X138123090Y-88421784D01*
X138242323Y-88188812D01*
X138313815Y-87937054D01*
X138334817Y-87676187D01*
X138304524Y-87416235D01*
X138224097Y-87167187D01*
X138123090Y-86978216D01*
X137955870Y-86851893D01*
X137107763Y-87700000D01*
X136892237Y-87700000D01*
X136044130Y-86851893D01*
X135944725Y-86926987D01*
X135985229Y-86829201D01*
X136002150Y-86744130D01*
X136151893Y-86744130D01*
X137000000Y-87592237D01*
X137848107Y-86744130D01*
X137721784Y-86576910D01*
X137488812Y-86457677D01*
X137237054Y-86386185D01*
X136976187Y-86365183D01*
X136716235Y-86395476D01*
X136467187Y-86475903D01*
X136278216Y-86576910D01*
X136151893Y-86744130D01*
X136002150Y-86744130D01*
X136028600Y-86611157D01*
X136028600Y-86388843D01*
X135985229Y-86170799D01*
X135900153Y-85965407D01*
X135776641Y-85780559D01*
X135619441Y-85623359D01*
X135434593Y-85499847D01*
X135229201Y-85414771D01*
X135011157Y-85371400D01*
X134788843Y-85371400D01*
X134570799Y-85414771D01*
X134365407Y-85499847D01*
X134180559Y-85623359D01*
X134023359Y-85780559D01*
X133899847Y-85965407D01*
X133814771Y-86170799D01*
X133771400Y-86388843D01*
X120067826Y-86388843D01*
X120056365Y-86331228D01*
X120012749Y-86225930D01*
X119949428Y-86131164D01*
X119868836Y-86050572D01*
X119774070Y-85987251D01*
X119668772Y-85943635D01*
X119556987Y-85921400D01*
X119443013Y-85921400D01*
X119331228Y-85943635D01*
X119225930Y-85987251D01*
X119131164Y-86050572D01*
X119050572Y-86131164D01*
X118987251Y-86225930D01*
X118943635Y-86331228D01*
X118921400Y-86443013D01*
X110253600Y-86443013D01*
X110253600Y-84693013D01*
X112921400Y-84693013D01*
X112921400Y-84806987D01*
X112943635Y-84918772D01*
X112987251Y-85024070D01*
X113050572Y-85118836D01*
X113131164Y-85199428D01*
X113206850Y-85250000D01*
X113131164Y-85300572D01*
X113050572Y-85381164D01*
X112987251Y-85475930D01*
X112943635Y-85581228D01*
X112921400Y-85693013D01*
X112921400Y-85806987D01*
X112943635Y-85918772D01*
X112987251Y-86024070D01*
X113050572Y-86118836D01*
X113131164Y-86199428D01*
X113225930Y-86262749D01*
X113331228Y-86306365D01*
X113443013Y-86328600D01*
X113556987Y-86328600D01*
X113668772Y-86306365D01*
X113774070Y-86262749D01*
X113868836Y-86199428D01*
X113949428Y-86118836D01*
X114012749Y-86024070D01*
X114056365Y-85918772D01*
X114078600Y-85806987D01*
X114078600Y-85693013D01*
X114056365Y-85581228D01*
X114012749Y-85475930D01*
X113949428Y-85381164D01*
X113868836Y-85300572D01*
X113793150Y-85250000D01*
X113868836Y-85199428D01*
X113949428Y-85118836D01*
X114012749Y-85024070D01*
X114056365Y-84918772D01*
X114078600Y-84806987D01*
X114078600Y-84693013D01*
X114056365Y-84581228D01*
X114012749Y-84475930D01*
X113990755Y-84443013D01*
X121921400Y-84443013D01*
X121921400Y-84556987D01*
X121943635Y-84668772D01*
X121987251Y-84774070D01*
X122050572Y-84868836D01*
X122131164Y-84949428D01*
X122225930Y-85012749D01*
X122331228Y-85056365D01*
X122443013Y-85078600D01*
X122556987Y-85078600D01*
X122668772Y-85056365D01*
X122774070Y-85012749D01*
X122868836Y-84949428D01*
X122949428Y-84868836D01*
X123012749Y-84774070D01*
X123056365Y-84668772D01*
X123078600Y-84556987D01*
X123078600Y-84443013D01*
X125421400Y-84443013D01*
X125421400Y-84556987D01*
X125443635Y-84668772D01*
X125487251Y-84774070D01*
X125550572Y-84868836D01*
X125631164Y-84949428D01*
X125725930Y-85012749D01*
X125831228Y-85056365D01*
X125943013Y-85078600D01*
X126056987Y-85078600D01*
X126168772Y-85056365D01*
X126274070Y-85012749D01*
X126368836Y-84949428D01*
X126449428Y-84868836D01*
X126512749Y-84774070D01*
X126556365Y-84668772D01*
X126578600Y-84556987D01*
X126578600Y-84443013D01*
X127421400Y-84443013D01*
X127421400Y-84556987D01*
X127443635Y-84668772D01*
X127487251Y-84774070D01*
X127550572Y-84868836D01*
X127631164Y-84949428D01*
X127725930Y-85012749D01*
X127831228Y-85056365D01*
X127943013Y-85078600D01*
X128056987Y-85078600D01*
X128168772Y-85056365D01*
X128274070Y-85012749D01*
X128368836Y-84949428D01*
X128449428Y-84868836D01*
X128512749Y-84774070D01*
X128556365Y-84668772D01*
X128578600Y-84556987D01*
X128578600Y-84443013D01*
X128573444Y-84417087D01*
X135050782Y-84417087D01*
X135085761Y-84549766D01*
X135186122Y-84769216D01*
X135327367Y-84964870D01*
X135504068Y-85129209D01*
X135709435Y-85255918D01*
X135935576Y-85340127D01*
X136173800Y-85378600D01*
X136923800Y-85378600D01*
X136923800Y-84226200D01*
X137076200Y-84226200D01*
X137076200Y-85378600D01*
X137826200Y-85378600D01*
X138064424Y-85340127D01*
X138290565Y-85255918D01*
X138495932Y-85129209D01*
X138672633Y-84964870D01*
X138813878Y-84769216D01*
X138914239Y-84549766D01*
X138949218Y-84417087D01*
X138918969Y-84226200D01*
X137076200Y-84226200D01*
X136923800Y-84226200D01*
X135081031Y-84226200D01*
X135050782Y-84417087D01*
X128573444Y-84417087D01*
X128556365Y-84331228D01*
X128512749Y-84225930D01*
X128449428Y-84131164D01*
X128368836Y-84050572D01*
X128274070Y-83987251D01*
X128168772Y-83943635D01*
X128056987Y-83921400D01*
X127943013Y-83921400D01*
X127831228Y-83943635D01*
X127725930Y-83987251D01*
X127631164Y-84050572D01*
X127550572Y-84131164D01*
X127487251Y-84225930D01*
X127443635Y-84331228D01*
X127421400Y-84443013D01*
X126578600Y-84443013D01*
X126556365Y-84331228D01*
X126512749Y-84225930D01*
X126449428Y-84131164D01*
X126368836Y-84050572D01*
X126274070Y-83987251D01*
X126168772Y-83943635D01*
X126056987Y-83921400D01*
X125943013Y-83921400D01*
X125831228Y-83943635D01*
X125725930Y-83987251D01*
X125631164Y-84050572D01*
X125550572Y-84131164D01*
X125487251Y-84225930D01*
X125443635Y-84331228D01*
X125421400Y-84443013D01*
X123078600Y-84443013D01*
X123056365Y-84331228D01*
X123012749Y-84225930D01*
X122949428Y-84131164D01*
X122868836Y-84050572D01*
X122774070Y-83987251D01*
X122668772Y-83943635D01*
X122556987Y-83921400D01*
X122443013Y-83921400D01*
X122331228Y-83943635D01*
X122225930Y-83987251D01*
X122131164Y-84050572D01*
X122050572Y-84131164D01*
X121987251Y-84225930D01*
X121943635Y-84331228D01*
X121921400Y-84443013D01*
X113990755Y-84443013D01*
X113949428Y-84381164D01*
X113868836Y-84300572D01*
X113774070Y-84237251D01*
X113668772Y-84193635D01*
X113556987Y-84171400D01*
X113443013Y-84171400D01*
X113331228Y-84193635D01*
X113225930Y-84237251D01*
X113131164Y-84300572D01*
X113050572Y-84381164D01*
X112987251Y-84475930D01*
X112943635Y-84581228D01*
X112921400Y-84693013D01*
X110253600Y-84693013D01*
X110253600Y-83443013D01*
X110921400Y-83443013D01*
X110921400Y-83556987D01*
X110943635Y-83668772D01*
X110987251Y-83774070D01*
X111050572Y-83868836D01*
X111131164Y-83949428D01*
X111225930Y-84012749D01*
X111331228Y-84056365D01*
X111443013Y-84078600D01*
X111556987Y-84078600D01*
X111668772Y-84056365D01*
X111774070Y-84012749D01*
X111868836Y-83949428D01*
X111949428Y-83868836D01*
X112012749Y-83774070D01*
X112056365Y-83668772D01*
X112078600Y-83556987D01*
X112078600Y-83443013D01*
X112056365Y-83331228D01*
X112012749Y-83225930D01*
X111949428Y-83131164D01*
X111868836Y-83050572D01*
X111774070Y-82987251D01*
X111668772Y-82943635D01*
X111556987Y-82921400D01*
X111443013Y-82921400D01*
X111331228Y-82943635D01*
X111225930Y-82987251D01*
X111131164Y-83050572D01*
X111050572Y-83131164D01*
X110987251Y-83225930D01*
X110943635Y-83331228D01*
X110921400Y-83443013D01*
X110253600Y-83443013D01*
X110253600Y-82753600D01*
X115371400Y-82753600D01*
X115371400Y-82797138D01*
G04 #@! TA.AperFunction,Conductor*
D15*
G36*
X115371400Y-82797138D02*
G01*
X115389792Y-82889603D01*
X115425870Y-82976702D01*
X115478247Y-83055090D01*
X115544910Y-83121753D01*
X115623298Y-83174130D01*
X115710397Y-83210208D01*
X115802862Y-83228600D01*
X115897138Y-83228600D01*
X115989603Y-83210208D01*
X116076702Y-83174130D01*
X116155090Y-83121753D01*
X116181073Y-83095770D01*
X116189792Y-83139603D01*
X116225870Y-83226702D01*
X116278247Y-83305090D01*
X116344910Y-83371753D01*
X116423298Y-83424130D01*
X116510397Y-83460208D01*
X116602862Y-83478600D01*
X116697138Y-83478600D01*
X116789603Y-83460208D01*
X116876702Y-83424130D01*
X116955090Y-83371753D01*
X117000000Y-83326843D01*
X117044910Y-83371753D01*
X117123298Y-83424130D01*
X117210397Y-83460208D01*
X117302862Y-83478600D01*
X117397138Y-83478600D01*
X117489603Y-83460208D01*
X117576702Y-83424130D01*
X117655090Y-83371753D01*
X117721753Y-83305090D01*
X117774130Y-83226702D01*
X117810208Y-83139603D01*
X117818927Y-83095770D01*
X117844910Y-83121753D01*
X117923298Y-83174130D01*
X118010397Y-83210208D01*
X118102862Y-83228600D01*
X118197138Y-83228600D01*
X118289603Y-83210208D01*
X118376702Y-83174130D01*
X118455090Y-83121753D01*
X118521753Y-83055090D01*
X118574130Y-82976702D01*
X118610208Y-82889603D01*
X118628600Y-82797138D01*
X118628600Y-82753600D01*
X132871400Y-82753600D01*
X132871400Y-82797138D01*
X132889792Y-82889603D01*
X132925870Y-82976702D01*
X132978247Y-83055090D01*
X133044910Y-83121753D01*
X133123298Y-83174130D01*
X133210397Y-83210208D01*
X133302862Y-83228600D01*
X133397138Y-83228600D01*
X133489603Y-83210208D01*
X133576702Y-83174130D01*
X133655090Y-83121753D01*
X133681073Y-83095770D01*
X133689792Y-83139603D01*
X133725870Y-83226702D01*
X133778247Y-83305090D01*
X133844910Y-83371753D01*
X133923298Y-83424130D01*
X134010397Y-83460208D01*
X134102862Y-83478600D01*
X134197138Y-83478600D01*
X134289603Y-83460208D01*
X134376702Y-83424130D01*
X134455090Y-83371753D01*
X134500000Y-83326843D01*
X134544910Y-83371753D01*
X134623298Y-83424130D01*
X134710397Y-83460208D01*
X134802862Y-83478600D01*
X134897138Y-83478600D01*
X134989603Y-83460208D01*
X135076702Y-83424130D01*
X135155090Y-83371753D01*
X135221753Y-83305090D01*
X135274130Y-83226702D01*
X135310208Y-83139603D01*
X135318927Y-83095770D01*
X135344910Y-83121753D01*
X135423298Y-83174130D01*
X135476696Y-83196248D01*
X135327367Y-83335130D01*
X135186122Y-83530784D01*
X135085761Y-83750234D01*
X135050782Y-83882913D01*
X135081031Y-84073800D01*
X136923800Y-84073800D01*
X136923800Y-82921400D01*
X137076200Y-82921400D01*
X137076200Y-84073800D01*
X138918969Y-84073800D01*
X138949218Y-83882913D01*
X138914239Y-83750234D01*
X138813878Y-83530784D01*
X138672633Y-83335130D01*
X138495932Y-83170791D01*
X138290565Y-83044082D01*
X138064424Y-82959873D01*
X137826200Y-82921400D01*
X137076200Y-82921400D01*
X136923800Y-82921400D01*
X136173800Y-82921400D01*
X136091534Y-82934686D01*
X136110208Y-82889603D01*
X136128600Y-82797138D01*
X136128600Y-82753600D01*
X138987593Y-82753600D01*
X139144744Y-82769009D01*
X139283964Y-82811042D01*
X139412378Y-82879320D01*
X139525083Y-82971240D01*
X139617786Y-83083299D01*
X139686957Y-83211228D01*
X139729963Y-83350160D01*
X139746400Y-83506541D01*
X139746401Y-96487583D01*
X139730991Y-96644742D01*
X139688957Y-96783968D01*
X139620679Y-96912379D01*
X139528760Y-97025083D01*
X139416701Y-97117786D01*
X139288772Y-97186957D01*
X139149840Y-97229963D01*
X138993459Y-97246400D01*
X136128600Y-97246400D01*
X136128600Y-97202862D01*
X136110208Y-97110397D01*
X136091534Y-97065314D01*
X136173800Y-97078600D01*
X136923800Y-97078600D01*
X136923800Y-95926200D01*
X137076200Y-95926200D01*
X137076200Y-97078600D01*
X137826200Y-97078600D01*
X138064424Y-97040127D01*
X138290565Y-96955918D01*
X138495932Y-96829209D01*
X138672633Y-96664870D01*
X138813878Y-96469216D01*
X138914239Y-96249766D01*
X138949218Y-96117087D01*
X138918969Y-95926200D01*
X137076200Y-95926200D01*
X136923800Y-95926200D01*
X135081031Y-95926200D01*
X135050782Y-96117087D01*
X135085761Y-96249766D01*
X135186122Y-96469216D01*
X135327367Y-96664870D01*
X135476696Y-96803752D01*
X135423298Y-96825870D01*
X135344910Y-96878247D01*
X135318927Y-96904230D01*
X135310208Y-96860397D01*
X135274130Y-96773298D01*
X135221753Y-96694910D01*
X135155090Y-96628247D01*
X135076702Y-96575870D01*
X134989603Y-96539792D01*
X134897138Y-96521400D01*
X134802862Y-96521400D01*
X134710397Y-96539792D01*
X134623298Y-96575870D01*
X134544910Y-96628247D01*
X134500000Y-96673157D01*
X134455090Y-96628247D01*
X134376702Y-96575870D01*
X134289603Y-96539792D01*
X134197138Y-96521400D01*
X134102862Y-96521400D01*
X134010397Y-96539792D01*
X133923298Y-96575870D01*
X133844910Y-96628247D01*
X133778247Y-96694910D01*
X133725870Y-96773298D01*
X133689792Y-96860397D01*
X133681073Y-96904230D01*
X133655090Y-96878247D01*
X133576702Y-96825870D01*
X133489603Y-96789792D01*
X133397138Y-96771400D01*
X133302862Y-96771400D01*
X133210397Y-96789792D01*
X133123298Y-96825870D01*
X133044910Y-96878247D01*
X132978247Y-96944910D01*
X132925870Y-97023298D01*
X132889792Y-97110397D01*
X132871400Y-97202862D01*
X132871400Y-97246400D01*
X118628600Y-97246400D01*
X118628600Y-97202862D01*
X118610208Y-97110397D01*
X118574130Y-97023298D01*
X118521753Y-96944910D01*
X118455090Y-96878247D01*
X118376702Y-96825870D01*
X118289603Y-96789792D01*
X118197138Y-96771400D01*
X118102862Y-96771400D01*
X118010397Y-96789792D01*
X117923298Y-96825870D01*
X117844910Y-96878247D01*
X117818927Y-96904230D01*
X117810208Y-96860397D01*
X117774130Y-96773298D01*
X117721753Y-96694910D01*
X117655090Y-96628247D01*
X117576702Y-96575870D01*
X117489603Y-96539792D01*
X117397138Y-96521400D01*
X117302862Y-96521400D01*
X117210397Y-96539792D01*
X117123298Y-96575870D01*
X117044910Y-96628247D01*
X117000000Y-96673157D01*
X116955090Y-96628247D01*
X116876702Y-96575870D01*
X116789603Y-96539792D01*
X116697138Y-96521400D01*
X116602862Y-96521400D01*
X116510397Y-96539792D01*
X116423298Y-96575870D01*
X116344910Y-96628247D01*
X116278247Y-96694910D01*
X116225870Y-96773298D01*
X116189792Y-96860397D01*
X116181073Y-96904230D01*
X116155090Y-96878247D01*
X116076702Y-96825870D01*
X115989603Y-96789792D01*
X115897138Y-96771400D01*
X115802862Y-96771400D01*
X115710397Y-96789792D01*
X115623298Y-96825870D01*
X115544910Y-96878247D01*
X115478247Y-96944910D01*
X115425870Y-97023298D01*
X115389792Y-97110397D01*
X115371400Y-97202862D01*
X115371400Y-97246400D01*
X110253600Y-97246400D01*
X110253600Y-96207415D01*
X110921400Y-96207415D01*
X110921400Y-96321389D01*
X110943635Y-96433174D01*
X110987251Y-96538472D01*
X111050572Y-96633238D01*
X111131164Y-96713830D01*
X111225930Y-96777151D01*
X111331228Y-96820767D01*
X111443013Y-96843002D01*
X111556987Y-96843002D01*
X111668772Y-96820767D01*
X111774070Y-96777151D01*
X111868836Y-96713830D01*
X111949428Y-96633238D01*
X112012749Y-96538472D01*
X112056365Y-96433174D01*
X112078600Y-96321389D01*
X112078600Y-96207415D01*
X112075736Y-96193013D01*
X118421400Y-96193013D01*
X118421400Y-96306987D01*
X118443635Y-96418772D01*
X118487251Y-96524070D01*
X118550572Y-96618836D01*
X118631164Y-96699428D01*
X118725930Y-96762749D01*
X118831228Y-96806365D01*
X118943013Y-96828600D01*
X119056987Y-96828600D01*
X119168772Y-96806365D01*
X119274070Y-96762749D01*
X119368836Y-96699428D01*
X119449428Y-96618836D01*
X119512749Y-96524070D01*
X119556365Y-96418772D01*
X119578600Y-96306987D01*
X119578600Y-96193013D01*
X119556365Y-96081228D01*
X119555276Y-96078600D01*
X119556987Y-96078600D01*
X119668772Y-96056365D01*
X119774070Y-96012749D01*
X119868836Y-95949428D01*
X119875251Y-95943013D01*
X122421400Y-95943013D01*
X122421400Y-96056987D01*
X122443635Y-96168772D01*
X122487251Y-96274070D01*
X122550572Y-96368836D01*
X122631164Y-96449428D01*
X122725930Y-96512749D01*
X122831228Y-96556365D01*
X122943013Y-96578600D01*
X123056987Y-96578600D01*
X123168772Y-96556365D01*
X123274070Y-96512749D01*
X123368836Y-96449428D01*
X123449428Y-96368836D01*
X123512749Y-96274070D01*
X123556365Y-96168772D01*
X123578600Y-96056987D01*
X123578600Y-95943013D01*
X123556365Y-95831228D01*
X123512749Y-95725930D01*
X123449428Y-95631164D01*
X123368836Y-95550572D01*
X123274070Y-95487251D01*
X123168772Y-95443635D01*
X123056987Y-95421400D01*
X122943013Y-95421400D01*
X122831228Y-95443635D01*
X122725930Y-95487251D01*
X122631164Y-95550572D01*
X122550572Y-95631164D01*
X122487251Y-95725930D01*
X122443635Y-95831228D01*
X122421400Y-95943013D01*
X119875251Y-95943013D01*
X119949428Y-95868836D01*
X120012749Y-95774070D01*
X120056365Y-95668772D01*
X120078600Y-95556987D01*
X120078600Y-95443013D01*
X120056365Y-95331228D01*
X120012749Y-95225930D01*
X119990755Y-95193013D01*
X128921400Y-95193013D01*
X128921400Y-95306987D01*
X128943635Y-95418772D01*
X128987251Y-95524070D01*
X129050572Y-95618836D01*
X129131164Y-95699428D01*
X129225930Y-95762749D01*
X129331228Y-95806365D01*
X129443013Y-95828600D01*
X129556987Y-95828600D01*
X129668772Y-95806365D01*
X129774070Y-95762749D01*
X129868836Y-95699428D01*
X129949428Y-95618836D01*
X129973431Y-95582913D01*
X135050782Y-95582913D01*
X135081031Y-95773800D01*
X136923800Y-95773800D01*
X136923800Y-94621400D01*
X137076200Y-94621400D01*
X137076200Y-95773800D01*
X138918969Y-95773800D01*
X138949218Y-95582913D01*
X138914239Y-95450234D01*
X138813878Y-95230784D01*
X138672633Y-95035130D01*
X138495932Y-94870791D01*
X138290565Y-94744082D01*
X138064424Y-94659873D01*
X137826200Y-94621400D01*
X137076200Y-94621400D01*
X136923800Y-94621400D01*
X136173800Y-94621400D01*
X135935576Y-94659873D01*
X135709435Y-94744082D01*
X135504068Y-94870791D01*
X135327367Y-95035130D01*
X135186122Y-95230784D01*
X135085761Y-95450234D01*
X135050782Y-95582913D01*
X129973431Y-95582913D01*
X130012749Y-95524070D01*
X130056365Y-95418772D01*
X130078600Y-95306987D01*
X130078600Y-95193013D01*
X130056365Y-95081228D01*
X130012749Y-94975930D01*
X129949428Y-94881164D01*
X129868836Y-94800572D01*
X129774070Y-94737251D01*
X129668772Y-94693635D01*
X129556987Y-94671400D01*
X129443013Y-94671400D01*
X129331228Y-94693635D01*
X129225930Y-94737251D01*
X129131164Y-94800572D01*
X129050572Y-94881164D01*
X128987251Y-94975930D01*
X128943635Y-95081228D01*
X128921400Y-95193013D01*
X119990755Y-95193013D01*
X119949428Y-95131164D01*
X119868836Y-95050572D01*
X119774070Y-94987251D01*
X119668772Y-94943635D01*
X119556987Y-94921400D01*
X119443013Y-94921400D01*
X119331228Y-94943635D01*
X119225930Y-94987251D01*
X119131164Y-95050572D01*
X119050572Y-95131164D01*
X118987251Y-95225930D01*
X118943635Y-95331228D01*
X118921400Y-95443013D01*
X118921400Y-95556987D01*
X118943635Y-95668772D01*
X118944724Y-95671400D01*
X118943013Y-95671400D01*
X118831228Y-95693635D01*
X118725930Y-95737251D01*
X118631164Y-95800572D01*
X118550572Y-95881164D01*
X118487251Y-95975930D01*
X118443635Y-96081228D01*
X118421400Y-96193013D01*
X112075736Y-96193013D01*
X112056365Y-96095630D01*
X112012749Y-95990332D01*
X111949428Y-95895566D01*
X111868836Y-95814974D01*
X111774070Y-95751653D01*
X111668772Y-95708037D01*
X111556987Y-95685802D01*
X111443013Y-95685802D01*
X111331228Y-95708037D01*
X111225930Y-95751653D01*
X111131164Y-95814974D01*
X111050572Y-95895566D01*
X110987251Y-95990332D01*
X110943635Y-96095630D01*
X110921400Y-96207415D01*
X110253600Y-96207415D01*
X110253600Y-93693013D01*
X116171400Y-93693013D01*
X116171400Y-93806987D01*
X116193635Y-93918772D01*
X116237251Y-94024070D01*
X116300572Y-94118836D01*
X116381164Y-94199428D01*
X116475930Y-94262749D01*
X116581228Y-94306365D01*
X116693013Y-94328600D01*
X116806987Y-94328600D01*
X116918772Y-94306365D01*
X117024070Y-94262749D01*
X117118836Y-94199428D01*
X117199428Y-94118836D01*
X117262749Y-94024070D01*
X117296324Y-93943013D01*
X117671400Y-93943013D01*
X117671400Y-94056987D01*
X117693635Y-94168772D01*
X117737251Y-94274070D01*
X117800572Y-94368836D01*
X117881164Y-94449428D01*
X117975930Y-94512749D01*
X118081228Y-94556365D01*
X118193013Y-94578600D01*
X118306987Y-94578600D01*
X118418772Y-94556365D01*
X118524070Y-94512749D01*
X118618836Y-94449428D01*
X118699428Y-94368836D01*
X118750000Y-94293150D01*
X118800572Y-94368836D01*
X118881164Y-94449428D01*
X118975930Y-94512749D01*
X119081228Y-94556365D01*
X119193013Y-94578600D01*
X119306987Y-94578600D01*
X119418772Y-94556365D01*
X119524070Y-94512749D01*
X119618836Y-94449428D01*
X119699428Y-94368836D01*
X119762749Y-94274070D01*
X119796324Y-94193013D01*
X125921400Y-94193013D01*
X125921400Y-94306987D01*
X125943635Y-94418772D01*
X125987251Y-94524070D01*
X126050572Y-94618836D01*
X126131164Y-94699428D01*
X126225930Y-94762749D01*
X126331228Y-94806365D01*
X126443013Y-94828600D01*
X126556987Y-94828600D01*
X126668772Y-94806365D01*
X126774070Y-94762749D01*
X126868836Y-94699428D01*
X126949428Y-94618836D01*
X127012749Y-94524070D01*
X127056365Y-94418772D01*
X127078600Y-94306987D01*
X127078600Y-94193013D01*
X127056365Y-94081228D01*
X127012749Y-93975930D01*
X126949428Y-93881164D01*
X126868836Y-93800572D01*
X126774070Y-93737251D01*
X126668772Y-93693635D01*
X126665645Y-93693013D01*
X129171400Y-93693013D01*
X129171400Y-93806987D01*
X129193635Y-93918772D01*
X129237251Y-94024070D01*
X129300572Y-94118836D01*
X129381164Y-94199428D01*
X129475930Y-94262749D01*
X129581228Y-94306365D01*
X129693013Y-94328600D01*
X129806987Y-94328600D01*
X129883082Y-94313464D01*
X134194299Y-94313464D01*
X134296569Y-94460190D01*
X134495488Y-94559464D01*
X134709952Y-94618023D01*
X134931719Y-94633617D01*
X135152267Y-94605647D01*
X135363121Y-94535187D01*
X135503431Y-94460190D01*
X135605701Y-94313464D01*
X134900000Y-93607763D01*
X134194299Y-94313464D01*
X129883082Y-94313464D01*
X129918772Y-94306365D01*
X130024070Y-94262749D01*
X130118836Y-94199428D01*
X130199428Y-94118836D01*
X130262749Y-94024070D01*
X130306365Y-93918772D01*
X130328600Y-93806987D01*
X130328600Y-93693013D01*
X130306365Y-93581228D01*
X130285858Y-93531719D01*
X133766383Y-93531719D01*
X133794353Y-93752267D01*
X133864813Y-93963121D01*
X133939810Y-94103431D01*
X134086536Y-94205701D01*
X134792237Y-93500000D01*
X135007763Y-93500000D01*
X135713464Y-94205701D01*
X135860190Y-94103431D01*
X135959464Y-93904512D01*
X136018023Y-93690048D01*
X136033617Y-93468281D01*
X136006679Y-93255870D01*
X136151893Y-93255870D01*
X136278216Y-93423090D01*
X136511188Y-93542323D01*
X136762946Y-93613815D01*
X137023813Y-93634817D01*
X137283765Y-93604524D01*
X137532813Y-93524097D01*
X137721784Y-93423090D01*
X137848107Y-93255870D01*
X137000000Y-92407763D01*
X136151893Y-93255870D01*
X136006679Y-93255870D01*
X136005647Y-93247733D01*
X135948119Y-93075577D01*
X136044130Y-93148107D01*
X136892237Y-92300000D01*
X137107763Y-92300000D01*
X137955870Y-93148107D01*
X138123090Y-93021784D01*
X138242323Y-92788812D01*
X138313815Y-92537054D01*
X138334817Y-92276187D01*
X138304524Y-92016235D01*
X138224097Y-91767187D01*
X138123090Y-91578216D01*
X137955870Y-91451893D01*
X137107763Y-92300000D01*
X136892237Y-92300000D01*
X136044130Y-91451893D01*
X135876910Y-91578216D01*
X135757677Y-91811188D01*
X135686185Y-92062946D01*
X135665183Y-92323813D01*
X135695476Y-92583765D01*
X135775903Y-92832813D01*
X135780168Y-92840793D01*
X135713464Y-92794299D01*
X135007763Y-93500000D01*
X134792237Y-93500000D01*
X134086536Y-92794299D01*
X133939810Y-92896569D01*
X133840536Y-93095488D01*
X133781977Y-93309952D01*
X133766383Y-93531719D01*
X130285858Y-93531719D01*
X130262749Y-93475930D01*
X130199428Y-93381164D01*
X130118836Y-93300572D01*
X130024070Y-93237251D01*
X129918772Y-93193635D01*
X129806987Y-93171400D01*
X129693013Y-93171400D01*
X129581228Y-93193635D01*
X129475930Y-93237251D01*
X129381164Y-93300572D01*
X129300572Y-93381164D01*
X129237251Y-93475930D01*
X129193635Y-93581228D01*
X129171400Y-93693013D01*
X126665645Y-93693013D01*
X126556987Y-93671400D01*
X126443013Y-93671400D01*
X126331228Y-93693635D01*
X126225930Y-93737251D01*
X126131164Y-93800572D01*
X126050572Y-93881164D01*
X125987251Y-93975930D01*
X125943635Y-94081228D01*
X125921400Y-94193013D01*
X119796324Y-94193013D01*
X119806365Y-94168772D01*
X119828600Y-94056987D01*
X119828600Y-93943013D01*
X119806365Y-93831228D01*
X119762749Y-93725930D01*
X119699428Y-93631164D01*
X119618836Y-93550572D01*
X119524070Y-93487251D01*
X119418772Y-93443635D01*
X119306987Y-93421400D01*
X119193013Y-93421400D01*
X119081228Y-93443635D01*
X118975930Y-93487251D01*
X118881164Y-93550572D01*
X118800572Y-93631164D01*
X118750000Y-93706850D01*
X118699428Y-93631164D01*
X118618836Y-93550572D01*
X118524070Y-93487251D01*
X118418772Y-93443635D01*
X118306987Y-93421400D01*
X118193013Y-93421400D01*
X118081228Y-93443635D01*
X117975930Y-93487251D01*
X117881164Y-93550572D01*
X117800572Y-93631164D01*
X117737251Y-93725930D01*
X117693635Y-93831228D01*
X117671400Y-93943013D01*
X117296324Y-93943013D01*
X117306365Y-93918772D01*
X117328600Y-93806987D01*
X117328600Y-93693013D01*
X117306365Y-93581228D01*
X117262749Y-93475930D01*
X117199428Y-93381164D01*
X117118836Y-93300572D01*
X117024070Y-93237251D01*
X116918772Y-93193635D01*
X116806987Y-93171400D01*
X116693013Y-93171400D01*
X116581228Y-93193635D01*
X116475930Y-93237251D01*
X116381164Y-93300572D01*
X116300572Y-93381164D01*
X116237251Y-93475930D01*
X116193635Y-93581228D01*
X116171400Y-93693013D01*
X110253600Y-93693013D01*
X110253600Y-92643013D01*
X112721400Y-92643013D01*
X112721400Y-92756987D01*
X112743635Y-92868772D01*
X112787251Y-92974070D01*
X112850572Y-93068836D01*
X112931164Y-93149428D01*
X113025930Y-93212749D01*
X113131228Y-93256365D01*
X113243013Y-93278600D01*
X113356987Y-93278600D01*
X113468772Y-93256365D01*
X113574070Y-93212749D01*
X113668836Y-93149428D01*
X113749428Y-93068836D01*
X113812749Y-92974070D01*
X113856365Y-92868772D01*
X113878600Y-92756987D01*
X113878600Y-92743013D01*
X120421400Y-92743013D01*
X120421400Y-92856987D01*
X120443635Y-92968772D01*
X120487251Y-93074070D01*
X120550572Y-93168836D01*
X120631164Y-93249428D01*
X120725930Y-93312749D01*
X120831228Y-93356365D01*
X120943013Y-93378600D01*
X121056987Y-93378600D01*
X121168772Y-93356365D01*
X121274070Y-93312749D01*
X121368836Y-93249428D01*
X121449428Y-93168836D01*
X121512749Y-93074070D01*
X121556365Y-92968772D01*
X121578600Y-92856987D01*
X121578600Y-92743013D01*
X121921400Y-92743013D01*
X121921400Y-92856987D01*
X121943635Y-92968772D01*
X121987251Y-93074070D01*
X122050572Y-93168836D01*
X122131164Y-93249428D01*
X122225930Y-93312749D01*
X122331228Y-93356365D01*
X122443013Y-93378600D01*
X122556987Y-93378600D01*
X122668772Y-93356365D01*
X122774070Y-93312749D01*
X122868836Y-93249428D01*
X122949428Y-93168836D01*
X123012749Y-93074070D01*
X123050000Y-92984138D01*
X123087251Y-93074070D01*
X123150572Y-93168836D01*
X123231164Y-93249428D01*
X123325930Y-93312749D01*
X123431228Y-93356365D01*
X123543013Y-93378600D01*
X123656987Y-93378600D01*
X123768772Y-93356365D01*
X123874070Y-93312749D01*
X123968836Y-93249428D01*
X124049428Y-93168836D01*
X124112749Y-93074070D01*
X124156365Y-92968772D01*
X124178600Y-92856987D01*
X124178600Y-92743013D01*
X124156365Y-92631228D01*
X124112749Y-92525930D01*
X124049428Y-92431164D01*
X123968836Y-92350572D01*
X123874070Y-92287251D01*
X123768772Y-92243635D01*
X123656987Y-92221400D01*
X123543013Y-92221400D01*
X123431228Y-92243635D01*
X123325930Y-92287251D01*
X123231164Y-92350572D01*
X123150572Y-92431164D01*
X123087251Y-92525930D01*
X123050000Y-92615862D01*
X123012749Y-92525930D01*
X122949428Y-92431164D01*
X122868836Y-92350572D01*
X122774070Y-92287251D01*
X122668772Y-92243635D01*
X122556987Y-92221400D01*
X122443013Y-92221400D01*
X122331228Y-92243635D01*
X122225930Y-92287251D01*
X122131164Y-92350572D01*
X122050572Y-92431164D01*
X121987251Y-92525930D01*
X121943635Y-92631228D01*
X121921400Y-92743013D01*
X121578600Y-92743013D01*
X121556365Y-92631228D01*
X121512749Y-92525930D01*
X121449428Y-92431164D01*
X121368836Y-92350572D01*
X121274070Y-92287251D01*
X121168772Y-92243635D01*
X121056987Y-92221400D01*
X120943013Y-92221400D01*
X120831228Y-92243635D01*
X120725930Y-92287251D01*
X120631164Y-92350572D01*
X120550572Y-92431164D01*
X120487251Y-92525930D01*
X120443635Y-92631228D01*
X120421400Y-92743013D01*
X113878600Y-92743013D01*
X113878600Y-92643013D01*
X113864970Y-92574490D01*
X113955394Y-92556504D01*
X114060692Y-92512888D01*
X114155458Y-92449567D01*
X114236050Y-92368975D01*
X114299371Y-92274209D01*
X114342987Y-92168911D01*
X114365222Y-92057126D01*
X114365222Y-91943152D01*
X114342987Y-91831367D01*
X114299371Y-91726069D01*
X114236050Y-91631303D01*
X114155458Y-91550711D01*
X114060692Y-91487390D01*
X113955394Y-91443774D01*
X113951569Y-91443013D01*
X124421400Y-91443013D01*
X124421400Y-91556987D01*
X124443635Y-91668772D01*
X124487251Y-91774070D01*
X124550572Y-91868836D01*
X124631164Y-91949428D01*
X124725930Y-92012749D01*
X124831228Y-92056365D01*
X124943013Y-92078600D01*
X125056987Y-92078600D01*
X125168772Y-92056365D01*
X125211216Y-92038784D01*
X125193635Y-92081228D01*
X125171400Y-92193013D01*
X125171400Y-92306987D01*
X125193635Y-92418772D01*
X125237251Y-92524070D01*
X125300572Y-92618836D01*
X125381164Y-92699428D01*
X125475930Y-92762749D01*
X125581228Y-92806365D01*
X125693013Y-92828600D01*
X125806987Y-92828600D01*
X125918772Y-92806365D01*
X126024070Y-92762749D01*
X126118836Y-92699428D01*
X126131728Y-92686536D01*
X134194299Y-92686536D01*
X134900000Y-93392237D01*
X135605701Y-92686536D01*
X135503431Y-92539810D01*
X135304512Y-92440536D01*
X135090048Y-92381977D01*
X134868281Y-92366383D01*
X134647733Y-92394353D01*
X134436879Y-92464813D01*
X134296569Y-92539810D01*
X134194299Y-92686536D01*
X126131728Y-92686536D01*
X126199428Y-92618836D01*
X126262749Y-92524070D01*
X126306365Y-92418772D01*
X126328600Y-92306987D01*
X126328600Y-92193013D01*
X126306365Y-92081228D01*
X126262749Y-91975930D01*
X126199428Y-91881164D01*
X126118836Y-91800572D01*
X126024070Y-91737251D01*
X125918772Y-91693635D01*
X125806987Y-91671400D01*
X125693013Y-91671400D01*
X125581228Y-91693635D01*
X125538784Y-91711216D01*
X125556365Y-91668772D01*
X125578600Y-91556987D01*
X125578600Y-91443013D01*
X125556365Y-91331228D01*
X125512749Y-91225930D01*
X125449428Y-91131164D01*
X125368836Y-91050572D01*
X125274070Y-90987251D01*
X125168772Y-90943635D01*
X125056987Y-90921400D01*
X124943013Y-90921400D01*
X124831228Y-90943635D01*
X124725930Y-90987251D01*
X124631164Y-91050572D01*
X124550572Y-91131164D01*
X124487251Y-91225930D01*
X124443635Y-91331228D01*
X124421400Y-91443013D01*
X113951569Y-91443013D01*
X113843609Y-91421539D01*
X113729635Y-91421539D01*
X113617850Y-91443774D01*
X113512552Y-91487390D01*
X113417786Y-91550711D01*
X113337194Y-91631303D01*
X113273873Y-91726069D01*
X113230257Y-91831367D01*
X113208022Y-91943152D01*
X113208022Y-92057126D01*
X113221652Y-92125649D01*
X113131228Y-92143635D01*
X113025930Y-92187251D01*
X112931164Y-92250572D01*
X112850572Y-92331164D01*
X112787251Y-92425930D01*
X112743635Y-92531228D01*
X112721400Y-92643013D01*
X110253600Y-92643013D01*
X110253600Y-90743013D01*
X120121400Y-90743013D01*
X120121400Y-90856987D01*
X120143635Y-90968772D01*
X120187251Y-91074070D01*
X120250572Y-91168836D01*
X120331164Y-91249428D01*
X120425930Y-91312749D01*
X120531228Y-91356365D01*
X120643013Y-91378600D01*
X120756987Y-91378600D01*
X120868772Y-91356365D01*
X120974070Y-91312749D01*
X121068836Y-91249428D01*
X121149428Y-91168836D01*
X121212749Y-91074070D01*
X121256365Y-90968772D01*
X121278600Y-90856987D01*
X121278600Y-90743013D01*
X121521400Y-90743013D01*
X121521400Y-90856987D01*
X121543635Y-90968772D01*
X121587251Y-91074070D01*
X121650572Y-91168836D01*
X121731164Y-91249428D01*
X121825930Y-91312749D01*
X121931228Y-91356365D01*
X122043013Y-91378600D01*
X122156987Y-91378600D01*
X122268772Y-91356365D01*
X122374070Y-91312749D01*
X122468836Y-91249428D01*
X122549428Y-91168836D01*
X122612749Y-91074070D01*
X122656365Y-90968772D01*
X122678600Y-90856987D01*
X122678600Y-90743013D01*
X122656365Y-90631228D01*
X122612749Y-90525930D01*
X122549428Y-90431164D01*
X122468836Y-90350572D01*
X122374070Y-90287251D01*
X122268772Y-90243635D01*
X122156987Y-90221400D01*
X122043013Y-90221400D01*
X121931228Y-90243635D01*
X121825930Y-90287251D01*
X121731164Y-90350572D01*
X121650572Y-90431164D01*
X121587251Y-90525930D01*
X121543635Y-90631228D01*
X121521400Y-90743013D01*
X121278600Y-90743013D01*
X121256365Y-90631228D01*
X121212749Y-90525930D01*
X121149428Y-90431164D01*
X121068836Y-90350572D01*
X120974070Y-90287251D01*
X120868772Y-90243635D01*
X120756987Y-90221400D01*
X120643013Y-90221400D01*
X120531228Y-90243635D01*
X120425930Y-90287251D01*
X120331164Y-90350572D01*
X120250572Y-90431164D01*
X120187251Y-90525930D01*
X120143635Y-90631228D01*
X120121400Y-90743013D01*
X110253600Y-90743013D01*
X110253600Y-89193013D01*
X112693802Y-89193013D01*
X112693802Y-89306987D01*
X112716037Y-89418772D01*
X112759653Y-89524070D01*
X112822974Y-89618836D01*
X112903566Y-89699428D01*
X112998332Y-89762749D01*
X113103630Y-89806365D01*
X113215415Y-89828600D01*
X113329389Y-89828600D01*
X113441174Y-89806365D01*
X113546472Y-89762749D01*
X113641238Y-89699428D01*
X113721830Y-89618836D01*
X113785151Y-89524070D01*
X113828767Y-89418772D01*
X113851002Y-89306987D01*
X113851002Y-89264687D01*
X128176763Y-89264687D01*
X128176763Y-89378661D01*
X128198998Y-89490446D01*
X128242614Y-89595744D01*
X128305935Y-89690510D01*
X128386527Y-89771102D01*
X128481293Y-89834423D01*
X128586591Y-89878039D01*
X128698376Y-89900274D01*
X128812350Y-89900274D01*
X128924135Y-89878039D01*
X129029433Y-89834423D01*
X129124199Y-89771102D01*
X129204791Y-89690510D01*
X129268112Y-89595744D01*
X129274629Y-89580010D01*
X129300572Y-89618836D01*
X129381164Y-89699428D01*
X129475930Y-89762749D01*
X129581228Y-89806365D01*
X129693013Y-89828600D01*
X129806987Y-89828600D01*
X129918772Y-89806365D01*
X130024070Y-89762749D01*
X130118836Y-89699428D01*
X130199428Y-89618836D01*
X130262749Y-89524070D01*
X130306365Y-89418772D01*
X130328600Y-89306987D01*
X130328600Y-89193013D01*
X130306365Y-89081228D01*
X130262749Y-88975930D01*
X130204559Y-88888843D01*
X133771400Y-88888843D01*
X133771400Y-89111157D01*
X133814771Y-89329201D01*
X133899847Y-89534593D01*
X134023359Y-89719441D01*
X134180559Y-89876641D01*
X134365178Y-90000000D01*
X134180559Y-90123359D01*
X134023359Y-90280559D01*
X133899847Y-90465407D01*
X133814771Y-90670799D01*
X133771400Y-90888843D01*
X133771400Y-91111157D01*
X133814771Y-91329201D01*
X133899847Y-91534593D01*
X134023359Y-91719441D01*
X134180559Y-91876641D01*
X134365407Y-92000153D01*
X134570799Y-92085229D01*
X134788843Y-92128600D01*
X135011157Y-92128600D01*
X135229201Y-92085229D01*
X135434593Y-92000153D01*
X135619441Y-91876641D01*
X135776641Y-91719441D01*
X135900153Y-91534593D01*
X135979045Y-91344130D01*
X136151893Y-91344130D01*
X137000000Y-92192237D01*
X137848107Y-91344130D01*
X137721784Y-91176910D01*
X137488812Y-91057677D01*
X137237054Y-90986185D01*
X136976187Y-90965183D01*
X136716235Y-90995476D01*
X136467187Y-91075903D01*
X136278216Y-91176910D01*
X136151893Y-91344130D01*
X135979045Y-91344130D01*
X135985229Y-91329201D01*
X136028600Y-91111157D01*
X136028600Y-90888843D01*
X135985229Y-90670799D01*
X135900153Y-90465407D01*
X135776641Y-90280559D01*
X135619441Y-90123359D01*
X135434822Y-90000000D01*
X135619441Y-89876641D01*
X135776641Y-89719441D01*
X135900153Y-89534593D01*
X135985229Y-89329201D01*
X136028600Y-89111157D01*
X136028600Y-88888843D01*
X135985229Y-88670799D01*
X135979046Y-88655870D01*
X136151893Y-88655870D01*
X136278216Y-88823090D01*
X136511188Y-88942323D01*
X136762946Y-89013815D01*
X137023813Y-89034817D01*
X137283765Y-89004524D01*
X137532813Y-88924097D01*
X137721784Y-88823090D01*
X137848107Y-88655870D01*
X137000000Y-87807763D01*
X136151893Y-88655870D01*
X135979046Y-88655870D01*
X135900153Y-88465407D01*
X135776641Y-88280559D01*
X135619441Y-88123359D01*
X135434593Y-87999847D01*
X135229201Y-87914771D01*
X135011157Y-87871400D01*
X134788843Y-87871400D01*
X134570799Y-87914771D01*
X134365407Y-87999847D01*
X134180559Y-88123359D01*
X134023359Y-88280559D01*
X133899847Y-88465407D01*
X133814771Y-88670799D01*
X133771400Y-88888843D01*
X130204559Y-88888843D01*
X130199428Y-88881164D01*
X130118836Y-88800572D01*
X130024070Y-88737251D01*
X129918772Y-88693635D01*
X129806987Y-88671400D01*
X129693013Y-88671400D01*
X129581228Y-88693635D01*
X129475930Y-88737251D01*
X129381164Y-88800572D01*
X129300572Y-88881164D01*
X129237251Y-88975930D01*
X129230734Y-88991664D01*
X129204791Y-88952838D01*
X129124199Y-88872246D01*
X129029433Y-88808925D01*
X128924135Y-88765309D01*
X128812350Y-88743074D01*
X128698376Y-88743074D01*
X128586591Y-88765309D01*
X128481293Y-88808925D01*
X128386527Y-88872246D01*
X128305935Y-88952838D01*
X128242614Y-89047604D01*
X128198998Y-89152902D01*
X128176763Y-89264687D01*
X113851002Y-89264687D01*
X113851002Y-89193013D01*
X113828767Y-89081228D01*
X113785151Y-88975930D01*
X113721830Y-88881164D01*
X113641238Y-88800572D01*
X113546472Y-88737251D01*
X113441174Y-88693635D01*
X113329389Y-88671400D01*
X113215415Y-88671400D01*
X113103630Y-88693635D01*
X112998332Y-88737251D01*
X112903566Y-88800572D01*
X112822974Y-88881164D01*
X112759653Y-88975930D01*
X112716037Y-89081228D01*
X112693802Y-89193013D01*
X110253600Y-89193013D01*
X110253600Y-87343013D01*
X123221400Y-87343013D01*
X123221400Y-87456987D01*
X123243635Y-87568772D01*
X123287251Y-87674070D01*
X123350572Y-87768836D01*
X123431164Y-87849428D01*
X123525930Y-87912749D01*
X123631228Y-87956365D01*
X123743013Y-87978600D01*
X123856987Y-87978600D01*
X123968772Y-87956365D01*
X124001006Y-87943013D01*
X124821400Y-87943013D01*
X124821400Y-88056987D01*
X124843635Y-88168772D01*
X124887251Y-88274070D01*
X124950572Y-88368836D01*
X125031164Y-88449428D01*
X125125930Y-88512749D01*
X125231228Y-88556365D01*
X125343013Y-88578600D01*
X125456987Y-88578600D01*
X125568772Y-88556365D01*
X125674070Y-88512749D01*
X125768836Y-88449428D01*
X125849428Y-88368836D01*
X125912749Y-88274070D01*
X125956365Y-88168772D01*
X125978600Y-88056987D01*
X125978600Y-87943013D01*
X125956365Y-87831228D01*
X125912749Y-87725930D01*
X125849428Y-87631164D01*
X125768836Y-87550572D01*
X125674070Y-87487251D01*
X125568772Y-87443635D01*
X125456987Y-87421400D01*
X125343013Y-87421400D01*
X125231228Y-87443635D01*
X125125930Y-87487251D01*
X125031164Y-87550572D01*
X124950572Y-87631164D01*
X124887251Y-87725930D01*
X124843635Y-87831228D01*
X124821400Y-87943013D01*
X124001006Y-87943013D01*
X124074070Y-87912749D01*
X124168836Y-87849428D01*
X124249428Y-87768836D01*
X124312749Y-87674070D01*
X124356365Y-87568772D01*
X124378600Y-87456987D01*
X124378600Y-87343013D01*
X124356365Y-87231228D01*
X124312749Y-87125930D01*
X124249428Y-87031164D01*
X124168836Y-86950572D01*
X124157524Y-86943013D01*
X130421400Y-86943013D01*
X130421400Y-87056987D01*
X130443635Y-87168772D01*
X130487251Y-87274070D01*
X130550572Y-87368836D01*
X130631164Y-87449428D01*
X130725930Y-87512749D01*
X130831228Y-87556365D01*
X130943013Y-87578600D01*
X131056987Y-87578600D01*
X131168772Y-87556365D01*
X131274070Y-87512749D01*
X131368836Y-87449428D01*
X131449428Y-87368836D01*
X131500000Y-87293150D01*
X131550572Y-87368836D01*
X131631164Y-87449428D01*
X131706850Y-87500000D01*
X131631164Y-87550572D01*
X131550572Y-87631164D01*
X131487251Y-87725930D01*
X131443635Y-87831228D01*
X131421400Y-87943013D01*
X131421400Y-88056987D01*
X131443635Y-88168772D01*
X131487251Y-88274070D01*
X131550572Y-88368836D01*
X131631164Y-88449428D01*
X131725930Y-88512749D01*
X131831228Y-88556365D01*
X131943013Y-88578600D01*
X132056987Y-88578600D01*
X132168772Y-88556365D01*
X132274070Y-88512749D01*
X132368836Y-88449428D01*
X132449428Y-88368836D01*
X132512749Y-88274070D01*
X132556365Y-88168772D01*
X132578600Y-88056987D01*
X132578600Y-87943013D01*
X132556365Y-87831228D01*
X132512749Y-87725930D01*
X132449428Y-87631164D01*
X132368836Y-87550572D01*
X132293150Y-87500000D01*
X132368836Y-87449428D01*
X132449428Y-87368836D01*
X132512749Y-87274070D01*
X132556365Y-87168772D01*
X132578600Y-87056987D01*
X132578600Y-86943013D01*
X132556365Y-86831228D01*
X132512749Y-86725930D01*
X132449428Y-86631164D01*
X132368836Y-86550572D01*
X132274070Y-86487251D01*
X132168772Y-86443635D01*
X132056987Y-86421400D01*
X131943013Y-86421400D01*
X131831228Y-86443635D01*
X131725930Y-86487251D01*
X131631164Y-86550572D01*
X131550572Y-86631164D01*
X131500000Y-86706850D01*
X131449428Y-86631164D01*
X131368836Y-86550572D01*
X131274070Y-86487251D01*
X131168772Y-86443635D01*
X131056987Y-86421400D01*
X130943013Y-86421400D01*
X130831228Y-86443635D01*
X130725930Y-86487251D01*
X130631164Y-86550572D01*
X130550572Y-86631164D01*
X130487251Y-86725930D01*
X130443635Y-86831228D01*
X130421400Y-86943013D01*
X124157524Y-86943013D01*
X124074070Y-86887251D01*
X123968772Y-86843635D01*
X123856987Y-86821400D01*
X123743013Y-86821400D01*
X123631228Y-86843635D01*
X123525930Y-86887251D01*
X123431164Y-86950572D01*
X123350572Y-87031164D01*
X123287251Y-87125930D01*
X123243635Y-87231228D01*
X123221400Y-87343013D01*
X110253600Y-87343013D01*
X110253600Y-86443013D01*
X118921400Y-86443013D01*
X118921400Y-86556987D01*
X118943635Y-86668772D01*
X118987251Y-86774070D01*
X119050572Y-86868836D01*
X119131164Y-86949428D01*
X119225930Y-87012749D01*
X119331228Y-87056365D01*
X119443013Y-87078600D01*
X119556987Y-87078600D01*
X119668772Y-87056365D01*
X119774070Y-87012749D01*
X119868836Y-86949428D01*
X119949428Y-86868836D01*
X120012749Y-86774070D01*
X120056365Y-86668772D01*
X120078600Y-86556987D01*
X120078600Y-86443013D01*
X120067826Y-86388843D01*
X133771400Y-86388843D01*
X133771400Y-86611157D01*
X133814771Y-86829201D01*
X133899847Y-87034593D01*
X134023359Y-87219441D01*
X134180559Y-87376641D01*
X134365407Y-87500153D01*
X134570799Y-87585229D01*
X134788843Y-87628600D01*
X135011157Y-87628600D01*
X135229201Y-87585229D01*
X135434593Y-87500153D01*
X135619441Y-87376641D01*
X135746883Y-87249199D01*
X135686185Y-87462946D01*
X135665183Y-87723813D01*
X135695476Y-87983765D01*
X135775903Y-88232813D01*
X135876910Y-88421784D01*
X136044130Y-88548107D01*
X136892237Y-87700000D01*
X137107763Y-87700000D01*
X137955870Y-88548107D01*
X138123090Y-88421784D01*
X138242323Y-88188812D01*
X138313815Y-87937054D01*
X138334817Y-87676187D01*
X138304524Y-87416235D01*
X138224097Y-87167187D01*
X138123090Y-86978216D01*
X137955870Y-86851893D01*
X137107763Y-87700000D01*
X136892237Y-87700000D01*
X136044130Y-86851893D01*
X135944725Y-86926987D01*
X135985229Y-86829201D01*
X136002150Y-86744130D01*
X136151893Y-86744130D01*
X137000000Y-87592237D01*
X137848107Y-86744130D01*
X137721784Y-86576910D01*
X137488812Y-86457677D01*
X137237054Y-86386185D01*
X136976187Y-86365183D01*
X136716235Y-86395476D01*
X136467187Y-86475903D01*
X136278216Y-86576910D01*
X136151893Y-86744130D01*
X136002150Y-86744130D01*
X136028600Y-86611157D01*
X136028600Y-86388843D01*
X135985229Y-86170799D01*
X135900153Y-85965407D01*
X135776641Y-85780559D01*
X135619441Y-85623359D01*
X135434593Y-85499847D01*
X135229201Y-85414771D01*
X135011157Y-85371400D01*
X134788843Y-85371400D01*
X134570799Y-85414771D01*
X134365407Y-85499847D01*
X134180559Y-85623359D01*
X134023359Y-85780559D01*
X133899847Y-85965407D01*
X133814771Y-86170799D01*
X133771400Y-86388843D01*
X120067826Y-86388843D01*
X120056365Y-86331228D01*
X120012749Y-86225930D01*
X119949428Y-86131164D01*
X119868836Y-86050572D01*
X119774070Y-85987251D01*
X119668772Y-85943635D01*
X119556987Y-85921400D01*
X119443013Y-85921400D01*
X119331228Y-85943635D01*
X119225930Y-85987251D01*
X119131164Y-86050572D01*
X119050572Y-86131164D01*
X118987251Y-86225930D01*
X118943635Y-86331228D01*
X118921400Y-86443013D01*
X110253600Y-86443013D01*
X110253600Y-84693013D01*
X112921400Y-84693013D01*
X112921400Y-84806987D01*
X112943635Y-84918772D01*
X112987251Y-85024070D01*
X113050572Y-85118836D01*
X113131164Y-85199428D01*
X113206850Y-85250000D01*
X113131164Y-85300572D01*
X113050572Y-85381164D01*
X112987251Y-85475930D01*
X112943635Y-85581228D01*
X112921400Y-85693013D01*
X112921400Y-85806987D01*
X112943635Y-85918772D01*
X112987251Y-86024070D01*
X113050572Y-86118836D01*
X113131164Y-86199428D01*
X113225930Y-86262749D01*
X113331228Y-86306365D01*
X113443013Y-86328600D01*
X113556987Y-86328600D01*
X113668772Y-86306365D01*
X113774070Y-86262749D01*
X113868836Y-86199428D01*
X113949428Y-86118836D01*
X114012749Y-86024070D01*
X114056365Y-85918772D01*
X114078600Y-85806987D01*
X114078600Y-85693013D01*
X114056365Y-85581228D01*
X114012749Y-85475930D01*
X113949428Y-85381164D01*
X113868836Y-85300572D01*
X113793150Y-85250000D01*
X113868836Y-85199428D01*
X113949428Y-85118836D01*
X114012749Y-85024070D01*
X114056365Y-84918772D01*
X114078600Y-84806987D01*
X114078600Y-84693013D01*
X114056365Y-84581228D01*
X114012749Y-84475930D01*
X113990755Y-84443013D01*
X121921400Y-84443013D01*
X121921400Y-84556987D01*
X121943635Y-84668772D01*
X121987251Y-84774070D01*
X122050572Y-84868836D01*
X122131164Y-84949428D01*
X122225930Y-85012749D01*
X122331228Y-85056365D01*
X122443013Y-85078600D01*
X122556987Y-85078600D01*
X122668772Y-85056365D01*
X122774070Y-85012749D01*
X122868836Y-84949428D01*
X122949428Y-84868836D01*
X123012749Y-84774070D01*
X123056365Y-84668772D01*
X123078600Y-84556987D01*
X123078600Y-84443013D01*
X125421400Y-84443013D01*
X125421400Y-84556987D01*
X125443635Y-84668772D01*
X125487251Y-84774070D01*
X125550572Y-84868836D01*
X125631164Y-84949428D01*
X125725930Y-85012749D01*
X125831228Y-85056365D01*
X125943013Y-85078600D01*
X126056987Y-85078600D01*
X126168772Y-85056365D01*
X126274070Y-85012749D01*
X126368836Y-84949428D01*
X126449428Y-84868836D01*
X126512749Y-84774070D01*
X126556365Y-84668772D01*
X126578600Y-84556987D01*
X126578600Y-84443013D01*
X127421400Y-84443013D01*
X127421400Y-84556987D01*
X127443635Y-84668772D01*
X127487251Y-84774070D01*
X127550572Y-84868836D01*
X127631164Y-84949428D01*
X127725930Y-85012749D01*
X127831228Y-85056365D01*
X127943013Y-85078600D01*
X128056987Y-85078600D01*
X128168772Y-85056365D01*
X128274070Y-85012749D01*
X128368836Y-84949428D01*
X128449428Y-84868836D01*
X128512749Y-84774070D01*
X128556365Y-84668772D01*
X128578600Y-84556987D01*
X128578600Y-84443013D01*
X128573444Y-84417087D01*
X135050782Y-84417087D01*
X135085761Y-84549766D01*
X135186122Y-84769216D01*
X135327367Y-84964870D01*
X135504068Y-85129209D01*
X135709435Y-85255918D01*
X135935576Y-85340127D01*
X136173800Y-85378600D01*
X136923800Y-85378600D01*
X136923800Y-84226200D01*
X137076200Y-84226200D01*
X137076200Y-85378600D01*
X137826200Y-85378600D01*
X138064424Y-85340127D01*
X138290565Y-85255918D01*
X138495932Y-85129209D01*
X138672633Y-84964870D01*
X138813878Y-84769216D01*
X138914239Y-84549766D01*
X138949218Y-84417087D01*
X138918969Y-84226200D01*
X137076200Y-84226200D01*
X136923800Y-84226200D01*
X135081031Y-84226200D01*
X135050782Y-84417087D01*
X128573444Y-84417087D01*
X128556365Y-84331228D01*
X128512749Y-84225930D01*
X128449428Y-84131164D01*
X128368836Y-84050572D01*
X128274070Y-83987251D01*
X128168772Y-83943635D01*
X128056987Y-83921400D01*
X127943013Y-83921400D01*
X127831228Y-83943635D01*
X127725930Y-83987251D01*
X127631164Y-84050572D01*
X127550572Y-84131164D01*
X127487251Y-84225930D01*
X127443635Y-84331228D01*
X127421400Y-84443013D01*
X126578600Y-84443013D01*
X126556365Y-84331228D01*
X126512749Y-84225930D01*
X126449428Y-84131164D01*
X126368836Y-84050572D01*
X126274070Y-83987251D01*
X126168772Y-83943635D01*
X126056987Y-83921400D01*
X125943013Y-83921400D01*
X125831228Y-83943635D01*
X125725930Y-83987251D01*
X125631164Y-84050572D01*
X125550572Y-84131164D01*
X125487251Y-84225930D01*
X125443635Y-84331228D01*
X125421400Y-84443013D01*
X123078600Y-84443013D01*
X123056365Y-84331228D01*
X123012749Y-84225930D01*
X122949428Y-84131164D01*
X122868836Y-84050572D01*
X122774070Y-83987251D01*
X122668772Y-83943635D01*
X122556987Y-83921400D01*
X122443013Y-83921400D01*
X122331228Y-83943635D01*
X122225930Y-83987251D01*
X122131164Y-84050572D01*
X122050572Y-84131164D01*
X121987251Y-84225930D01*
X121943635Y-84331228D01*
X121921400Y-84443013D01*
X113990755Y-84443013D01*
X113949428Y-84381164D01*
X113868836Y-84300572D01*
X113774070Y-84237251D01*
X113668772Y-84193635D01*
X113556987Y-84171400D01*
X113443013Y-84171400D01*
X113331228Y-84193635D01*
X113225930Y-84237251D01*
X113131164Y-84300572D01*
X113050572Y-84381164D01*
X112987251Y-84475930D01*
X112943635Y-84581228D01*
X112921400Y-84693013D01*
X110253600Y-84693013D01*
X110253600Y-83443013D01*
X110921400Y-83443013D01*
X110921400Y-83556987D01*
X110943635Y-83668772D01*
X110987251Y-83774070D01*
X111050572Y-83868836D01*
X111131164Y-83949428D01*
X111225930Y-84012749D01*
X111331228Y-84056365D01*
X111443013Y-84078600D01*
X111556987Y-84078600D01*
X111668772Y-84056365D01*
X111774070Y-84012749D01*
X111868836Y-83949428D01*
X111949428Y-83868836D01*
X112012749Y-83774070D01*
X112056365Y-83668772D01*
X112078600Y-83556987D01*
X112078600Y-83443013D01*
X112056365Y-83331228D01*
X112012749Y-83225930D01*
X111949428Y-83131164D01*
X111868836Y-83050572D01*
X111774070Y-82987251D01*
X111668772Y-82943635D01*
X111556987Y-82921400D01*
X111443013Y-82921400D01*
X111331228Y-82943635D01*
X111225930Y-82987251D01*
X111131164Y-83050572D01*
X111050572Y-83131164D01*
X110987251Y-83225930D01*
X110943635Y-83331228D01*
X110921400Y-83443013D01*
X110253600Y-83443013D01*
X110253600Y-82753600D01*
X115371400Y-82753600D01*
X115371400Y-82797138D01*
G37*
G04 #@! TD.AperFunction*
G04 #@! TD*
M02*
