%TF.GenerationSoftware,KiCad,Pcbnew,5.1.9+dfsg1-1*%
%TF.CreationDate,2021-07-11T15:28:01+08:00*%
%TF.ProjectId,stlink,73746c69-6e6b-42e6-9b69-6361645f7063,a*%
%TF.SameCoordinates,Original*%
%TF.FileFunction,Profile,NP*%
%FSLAX46Y46*%
G04 Gerber Fmt 4.6, Leading zero omitted, Abs format (unit mm)*
G04 Created by KiCad (PCBNEW 5.1.9+dfsg1-1) date 2021-07-11 15:28:01*
%MOMM*%
%LPD*%
G01*
G04 APERTURE LIST*
%TA.AperFunction,Profile*%
%ADD10C,0.050000*%
%TD*%
G04 APERTURE END LIST*
D10*
X139000000Y-82500000D02*
G75*
G02*
X140000000Y-83500000I0J-1000000D01*
G01*
X140000000Y-96500000D02*
G75*
G02*
X139000000Y-97500000I-1000000J0D01*
G01*
X118500000Y-98500000D02*
X133000000Y-98500000D01*
X133000000Y-97500000D02*
X118500000Y-97500000D01*
X133000000Y-97500000D02*
G75*
G02*
X133000000Y-98500000I0J-500000D01*
G01*
X118500000Y-98500000D02*
G75*
G02*
X118500000Y-97500000I0J500000D01*
G01*
X136000000Y-98500000D02*
G75*
G02*
X136000000Y-97500000I0J500000D01*
G01*
X136000000Y-82500000D02*
G75*
G02*
X136000000Y-81500000I0J500000D01*
G01*
X141000000Y-81500000D02*
X136000000Y-81500000D01*
X141000000Y-98500000D02*
X141000000Y-81500000D01*
X136000000Y-98500000D02*
X141000000Y-98500000D01*
X139000000Y-97500000D02*
X136000000Y-97500000D01*
X140000000Y-83500000D02*
X140000000Y-96500000D01*
X136000000Y-82500000D02*
X139000000Y-82500000D01*
X133000000Y-81500000D02*
G75*
G02*
X133000000Y-82500000I0J-500000D01*
G01*
X118500000Y-82500000D02*
G75*
G02*
X118500000Y-81500000I0J500000D01*
G01*
X133000000Y-82500000D02*
X118500000Y-82500000D01*
X118500000Y-81500000D02*
X133000000Y-81500000D01*
X115500000Y-97500000D02*
G75*
G02*
X115500000Y-98500000I0J-500000D01*
G01*
X115500000Y-81500000D02*
G75*
G02*
X115500000Y-82500000I0J-500000D01*
G01*
X109000000Y-81500000D02*
X115500000Y-81500000D01*
X109000000Y-98500000D02*
X109000000Y-81500000D01*
X115500000Y-98500000D02*
X109000000Y-98500000D01*
X110000000Y-97500000D02*
X115500000Y-97500000D01*
X110000000Y-82500000D02*
X110000000Y-97500000D01*
X115500000Y-82500000D02*
X110000000Y-82500000D01*
X107500000Y-80000000D02*
X143000000Y-80000000D01*
X107500000Y-100000000D02*
X107500000Y-80000000D01*
X143000000Y-100000000D02*
X107500000Y-100000000D01*
X143000000Y-80000000D02*
X143000000Y-100000000D01*
M02*
