%TF.GenerationSoftware,KiCad,Pcbnew,5.1.9+dfsg1-1*%
%TF.CreationDate,2021-07-11T15:28:01+08:00*%
%TF.ProjectId,stlink,73746c69-6e6b-42e6-9b69-6361645f7063,a*%
%TF.SameCoordinates,Original*%
%TF.FileFunction,Copper,L3,Inr*%
%TF.FilePolarity,Positive*%
%FSLAX46Y46*%
G04 Gerber Fmt 4.6, Leading zero omitted, Abs format (unit mm)*
G04 Created by KiCad (PCBNEW 5.1.9+dfsg1-1) date 2021-07-11 15:28:01*
%MOMM*%
%LPD*%
G01*
G04 APERTURE LIST*
%TA.AperFunction,ComponentPad*%
%ADD10C,1.800000*%
%TD*%
%TA.AperFunction,ComponentPad*%
%ADD11C,2.200000*%
%TD*%
%TA.AperFunction,ComponentPad*%
%ADD12O,3.500000X2.000000*%
%TD*%
%TA.AperFunction,ViaPad*%
%ADD13C,0.700000*%
%TD*%
%TA.AperFunction,Conductor*%
%ADD14C,0.152400*%
%TD*%
%TA.AperFunction,Conductor*%
%ADD15C,0.100000*%
%TD*%
G04 APERTURE END LIST*
D10*
%TO.N,VBUS*%
%TO.C,J1*%
X134900000Y-86500000D03*
%TO.N,D-*%
X134900000Y-89000000D03*
%TO.N,D+*%
X134900000Y-91000000D03*
%TO.N,GND*%
X134900000Y-93500000D03*
D11*
%TO.N,Net-(J1-Pad5)*%
X137000000Y-87700000D03*
X137000000Y-92300000D03*
D12*
X137000000Y-84150000D03*
X137000000Y-95850000D03*
%TD*%
D13*
%TO.N,GND*%
X115750000Y-87500000D03*
X132000000Y-86000000D03*
%TO.N,+3V3*%
X131000000Y-87000000D03*
X132000000Y-88000000D03*
%TD*%
D14*
%TO.N,GND*%
X115371400Y-82797138D02*
X115389792Y-82889603D01*
X115425870Y-82976702D01*
X115478247Y-83055090D01*
X115544910Y-83121753D01*
X115623298Y-83174130D01*
X115710397Y-83210208D01*
X115802862Y-83228600D01*
X115897138Y-83228600D01*
X115989603Y-83210208D01*
X116076702Y-83174130D01*
X116155090Y-83121753D01*
X116181073Y-83095770D01*
X116189792Y-83139603D01*
X116225870Y-83226702D01*
X116278247Y-83305090D01*
X116344910Y-83371753D01*
X116423298Y-83424130D01*
X116510397Y-83460208D01*
X116602862Y-83478600D01*
X116697138Y-83478600D01*
X116789603Y-83460208D01*
X116876702Y-83424130D01*
X116955090Y-83371753D01*
X117000000Y-83326843D01*
X117044910Y-83371753D01*
X117123298Y-83424130D01*
X117210397Y-83460208D01*
X117302862Y-83478600D01*
X117397138Y-83478600D01*
X117489603Y-83460208D01*
X117576702Y-83424130D01*
X117655090Y-83371753D01*
X117721753Y-83305090D01*
X117774130Y-83226702D01*
X117810208Y-83139603D01*
X117818927Y-83095770D01*
X117844910Y-83121753D01*
X117923298Y-83174130D01*
X118010397Y-83210208D01*
X118102862Y-83228600D01*
X118197138Y-83228600D01*
X118289603Y-83210208D01*
X118376702Y-83174130D01*
X118455090Y-83121753D01*
X118521753Y-83055090D01*
X118574130Y-82976702D01*
X118610208Y-82889603D01*
X118628600Y-82797138D01*
X118628600Y-82753600D01*
X132871400Y-82753600D01*
X132871400Y-82797138D01*
X132889792Y-82889603D01*
X132925870Y-82976702D01*
X132978247Y-83055090D01*
X133044910Y-83121753D01*
X133123298Y-83174130D01*
X133210397Y-83210208D01*
X133302862Y-83228600D01*
X133397138Y-83228600D01*
X133489603Y-83210208D01*
X133576702Y-83174130D01*
X133655090Y-83121753D01*
X133681073Y-83095770D01*
X133689792Y-83139603D01*
X133725870Y-83226702D01*
X133778247Y-83305090D01*
X133844910Y-83371753D01*
X133923298Y-83424130D01*
X134010397Y-83460208D01*
X134102862Y-83478600D01*
X134197138Y-83478600D01*
X134289603Y-83460208D01*
X134376702Y-83424130D01*
X134455090Y-83371753D01*
X134500000Y-83326843D01*
X134544910Y-83371753D01*
X134623298Y-83424130D01*
X134710397Y-83460208D01*
X134802862Y-83478600D01*
X134897138Y-83478600D01*
X134989603Y-83460208D01*
X135076702Y-83424130D01*
X135155090Y-83371753D01*
X135221753Y-83305090D01*
X135274130Y-83226702D01*
X135310208Y-83139603D01*
X135318927Y-83095770D01*
X135344910Y-83121753D01*
X135423298Y-83174130D01*
X135475899Y-83195918D01*
X135377046Y-83277046D01*
X135223514Y-83464124D01*
X135109430Y-83677560D01*
X135039177Y-83909152D01*
X135015456Y-84150000D01*
X135039177Y-84390848D01*
X135109430Y-84622440D01*
X135223514Y-84835876D01*
X135377046Y-85022954D01*
X135564124Y-85176486D01*
X135777560Y-85290570D01*
X136009152Y-85360823D01*
X136189648Y-85378600D01*
X137810352Y-85378600D01*
X137990848Y-85360823D01*
X138222440Y-85290570D01*
X138435876Y-85176486D01*
X138622954Y-85022954D01*
X138776486Y-84835876D01*
X138890570Y-84622440D01*
X138960823Y-84390848D01*
X138984544Y-84150000D01*
X138960823Y-83909152D01*
X138890570Y-83677560D01*
X138776486Y-83464124D01*
X138622954Y-83277046D01*
X138435876Y-83123514D01*
X138222440Y-83009430D01*
X137990848Y-82939177D01*
X137810352Y-82921400D01*
X136189648Y-82921400D01*
X136093098Y-82930909D01*
X136110208Y-82889603D01*
X136128600Y-82797138D01*
X136128600Y-82753600D01*
X138987593Y-82753600D01*
X139144744Y-82769009D01*
X139283964Y-82811042D01*
X139412378Y-82879320D01*
X139525083Y-82971240D01*
X139617786Y-83083299D01*
X139686957Y-83211228D01*
X139729963Y-83350160D01*
X139746400Y-83506541D01*
X139746401Y-96487583D01*
X139730991Y-96644742D01*
X139688957Y-96783968D01*
X139620679Y-96912379D01*
X139528760Y-97025083D01*
X139416701Y-97117786D01*
X139288772Y-97186957D01*
X139149840Y-97229963D01*
X138993459Y-97246400D01*
X136128600Y-97246400D01*
X136128600Y-97202862D01*
X136110208Y-97110397D01*
X136093098Y-97069091D01*
X136189648Y-97078600D01*
X137810352Y-97078600D01*
X137990848Y-97060823D01*
X138222440Y-96990570D01*
X138435876Y-96876486D01*
X138622954Y-96722954D01*
X138776486Y-96535876D01*
X138890570Y-96322440D01*
X138960823Y-96090848D01*
X138984544Y-95850000D01*
X138960823Y-95609152D01*
X138890570Y-95377560D01*
X138776486Y-95164124D01*
X138622954Y-94977046D01*
X138435876Y-94823514D01*
X138222440Y-94709430D01*
X137990848Y-94639177D01*
X137810352Y-94621400D01*
X136189648Y-94621400D01*
X136009152Y-94639177D01*
X135777560Y-94709430D01*
X135564124Y-94823514D01*
X135377046Y-94977046D01*
X135223514Y-95164124D01*
X135109430Y-95377560D01*
X135039177Y-95609152D01*
X135015456Y-95850000D01*
X135039177Y-96090848D01*
X135109430Y-96322440D01*
X135223514Y-96535876D01*
X135377046Y-96722954D01*
X135475899Y-96804082D01*
X135423298Y-96825870D01*
X135344910Y-96878247D01*
X135318927Y-96904230D01*
X135310208Y-96860397D01*
X135274130Y-96773298D01*
X135221753Y-96694910D01*
X135155090Y-96628247D01*
X135076702Y-96575870D01*
X134989603Y-96539792D01*
X134897138Y-96521400D01*
X134802862Y-96521400D01*
X134710397Y-96539792D01*
X134623298Y-96575870D01*
X134544910Y-96628247D01*
X134500000Y-96673157D01*
X134455090Y-96628247D01*
X134376702Y-96575870D01*
X134289603Y-96539792D01*
X134197138Y-96521400D01*
X134102862Y-96521400D01*
X134010397Y-96539792D01*
X133923298Y-96575870D01*
X133844910Y-96628247D01*
X133778247Y-96694910D01*
X133725870Y-96773298D01*
X133689792Y-96860397D01*
X133681073Y-96904230D01*
X133655090Y-96878247D01*
X133576702Y-96825870D01*
X133489603Y-96789792D01*
X133397138Y-96771400D01*
X133302862Y-96771400D01*
X133210397Y-96789792D01*
X133123298Y-96825870D01*
X133044910Y-96878247D01*
X132978247Y-96944910D01*
X132925870Y-97023298D01*
X132889792Y-97110397D01*
X132871400Y-97202862D01*
X132871400Y-97246400D01*
X118628600Y-97246400D01*
X118628600Y-97202862D01*
X118610208Y-97110397D01*
X118574130Y-97023298D01*
X118521753Y-96944910D01*
X118455090Y-96878247D01*
X118376702Y-96825870D01*
X118289603Y-96789792D01*
X118197138Y-96771400D01*
X118102862Y-96771400D01*
X118010397Y-96789792D01*
X117923298Y-96825870D01*
X117844910Y-96878247D01*
X117818927Y-96904230D01*
X117810208Y-96860397D01*
X117774130Y-96773298D01*
X117721753Y-96694910D01*
X117655090Y-96628247D01*
X117576702Y-96575870D01*
X117489603Y-96539792D01*
X117397138Y-96521400D01*
X117302862Y-96521400D01*
X117210397Y-96539792D01*
X117123298Y-96575870D01*
X117044910Y-96628247D01*
X117000000Y-96673157D01*
X116955090Y-96628247D01*
X116876702Y-96575870D01*
X116789603Y-96539792D01*
X116697138Y-96521400D01*
X116602862Y-96521400D01*
X116510397Y-96539792D01*
X116423298Y-96575870D01*
X116344910Y-96628247D01*
X116278247Y-96694910D01*
X116225870Y-96773298D01*
X116189792Y-96860397D01*
X116181073Y-96904230D01*
X116155090Y-96878247D01*
X116076702Y-96825870D01*
X115989603Y-96789792D01*
X115897138Y-96771400D01*
X115802862Y-96771400D01*
X115710397Y-96789792D01*
X115623298Y-96825870D01*
X115544910Y-96878247D01*
X115478247Y-96944910D01*
X115425870Y-97023298D01*
X115389792Y-97110397D01*
X115371400Y-97202862D01*
X115371400Y-97246400D01*
X110253600Y-97246400D01*
X110253600Y-94313464D01*
X134194299Y-94313464D01*
X134296569Y-94460190D01*
X134495488Y-94559464D01*
X134709952Y-94618023D01*
X134931719Y-94633617D01*
X135152267Y-94605647D01*
X135363121Y-94535187D01*
X135503431Y-94460190D01*
X135605701Y-94313464D01*
X134900000Y-93607763D01*
X134194299Y-94313464D01*
X110253600Y-94313464D01*
X110253600Y-93531719D01*
X133766383Y-93531719D01*
X133794353Y-93752267D01*
X133864813Y-93963121D01*
X133939810Y-94103431D01*
X134086536Y-94205701D01*
X134792237Y-93500000D01*
X135007763Y-93500000D01*
X135713464Y-94205701D01*
X135860190Y-94103431D01*
X135959464Y-93904512D01*
X136018023Y-93690048D01*
X136033617Y-93468281D01*
X136005647Y-93247733D01*
X135973948Y-93152872D01*
X136153067Y-93331991D01*
X136370672Y-93477390D01*
X136612462Y-93577543D01*
X136869144Y-93628600D01*
X137130856Y-93628600D01*
X137387538Y-93577543D01*
X137629328Y-93477390D01*
X137846933Y-93331991D01*
X138031991Y-93146933D01*
X138177390Y-92929328D01*
X138277543Y-92687538D01*
X138328600Y-92430856D01*
X138328600Y-92169144D01*
X138277543Y-91912462D01*
X138177390Y-91670672D01*
X138031991Y-91453067D01*
X137846933Y-91268009D01*
X137629328Y-91122610D01*
X137387538Y-91022457D01*
X137130856Y-90971400D01*
X136869144Y-90971400D01*
X136612462Y-91022457D01*
X136370672Y-91122610D01*
X136153067Y-91268009D01*
X135968009Y-91453067D01*
X135822610Y-91670672D01*
X135722457Y-91912462D01*
X135671400Y-92169144D01*
X135671400Y-92430856D01*
X135722457Y-92687538D01*
X135788279Y-92846446D01*
X135713464Y-92794299D01*
X135007763Y-93500000D01*
X134792237Y-93500000D01*
X134086536Y-92794299D01*
X133939810Y-92896569D01*
X133840536Y-93095488D01*
X133781977Y-93309952D01*
X133766383Y-93531719D01*
X110253600Y-93531719D01*
X110253600Y-92686536D01*
X134194299Y-92686536D01*
X134900000Y-93392237D01*
X135605701Y-92686536D01*
X135503431Y-92539810D01*
X135304512Y-92440536D01*
X135090048Y-92381977D01*
X134868281Y-92366383D01*
X134647733Y-92394353D01*
X134436879Y-92464813D01*
X134296569Y-92539810D01*
X134194299Y-92686536D01*
X110253600Y-92686536D01*
X110253600Y-88888843D01*
X133771400Y-88888843D01*
X133771400Y-89111157D01*
X133814771Y-89329201D01*
X133899847Y-89534593D01*
X134023359Y-89719441D01*
X134180559Y-89876641D01*
X134365178Y-90000000D01*
X134180559Y-90123359D01*
X134023359Y-90280559D01*
X133899847Y-90465407D01*
X133814771Y-90670799D01*
X133771400Y-90888843D01*
X133771400Y-91111157D01*
X133814771Y-91329201D01*
X133899847Y-91534593D01*
X134023359Y-91719441D01*
X134180559Y-91876641D01*
X134365407Y-92000153D01*
X134570799Y-92085229D01*
X134788843Y-92128600D01*
X135011157Y-92128600D01*
X135229201Y-92085229D01*
X135434593Y-92000153D01*
X135619441Y-91876641D01*
X135776641Y-91719441D01*
X135900153Y-91534593D01*
X135985229Y-91329201D01*
X136028600Y-91111157D01*
X136028600Y-90888843D01*
X135985229Y-90670799D01*
X135900153Y-90465407D01*
X135776641Y-90280559D01*
X135619441Y-90123359D01*
X135434822Y-90000000D01*
X135619441Y-89876641D01*
X135776641Y-89719441D01*
X135900153Y-89534593D01*
X135985229Y-89329201D01*
X136028600Y-89111157D01*
X136028600Y-88888843D01*
X135985229Y-88670799D01*
X135900153Y-88465407D01*
X135776641Y-88280559D01*
X135619441Y-88123359D01*
X135434593Y-87999847D01*
X135229201Y-87914771D01*
X135011157Y-87871400D01*
X134788843Y-87871400D01*
X134570799Y-87914771D01*
X134365407Y-87999847D01*
X134180559Y-88123359D01*
X134023359Y-88280559D01*
X133899847Y-88465407D01*
X133814771Y-88670799D01*
X133771400Y-88888843D01*
X110253600Y-88888843D01*
X110253600Y-87943013D01*
X131421400Y-87943013D01*
X131421400Y-88056987D01*
X131443635Y-88168772D01*
X131487251Y-88274070D01*
X131550572Y-88368836D01*
X131631164Y-88449428D01*
X131725930Y-88512749D01*
X131831228Y-88556365D01*
X131943013Y-88578600D01*
X132056987Y-88578600D01*
X132168772Y-88556365D01*
X132274070Y-88512749D01*
X132368836Y-88449428D01*
X132449428Y-88368836D01*
X132512749Y-88274070D01*
X132556365Y-88168772D01*
X132578600Y-88056987D01*
X132578600Y-87943013D01*
X132556365Y-87831228D01*
X132512749Y-87725930D01*
X132449428Y-87631164D01*
X132368836Y-87550572D01*
X132274070Y-87487251D01*
X132168772Y-87443635D01*
X132056987Y-87421400D01*
X131943013Y-87421400D01*
X131831228Y-87443635D01*
X131725930Y-87487251D01*
X131631164Y-87550572D01*
X131550572Y-87631164D01*
X131487251Y-87725930D01*
X131443635Y-87831228D01*
X131421400Y-87943013D01*
X110253600Y-87943013D01*
X110253600Y-86943013D01*
X130421400Y-86943013D01*
X130421400Y-87056987D01*
X130443635Y-87168772D01*
X130487251Y-87274070D01*
X130550572Y-87368836D01*
X130631164Y-87449428D01*
X130725930Y-87512749D01*
X130831228Y-87556365D01*
X130943013Y-87578600D01*
X131056987Y-87578600D01*
X131168772Y-87556365D01*
X131274070Y-87512749D01*
X131368836Y-87449428D01*
X131449428Y-87368836D01*
X131512749Y-87274070D01*
X131556365Y-87168772D01*
X131578600Y-87056987D01*
X131578600Y-86943013D01*
X131556365Y-86831228D01*
X131512749Y-86725930D01*
X131449428Y-86631164D01*
X131368836Y-86550572D01*
X131274070Y-86487251D01*
X131168772Y-86443635D01*
X131056987Y-86421400D01*
X130943013Y-86421400D01*
X130831228Y-86443635D01*
X130725930Y-86487251D01*
X130631164Y-86550572D01*
X130550572Y-86631164D01*
X130487251Y-86725930D01*
X130443635Y-86831228D01*
X130421400Y-86943013D01*
X110253600Y-86943013D01*
X110253600Y-86388843D01*
X133771400Y-86388843D01*
X133771400Y-86611157D01*
X133814771Y-86829201D01*
X133899847Y-87034593D01*
X134023359Y-87219441D01*
X134180559Y-87376641D01*
X134365407Y-87500153D01*
X134570799Y-87585229D01*
X134788843Y-87628600D01*
X135011157Y-87628600D01*
X135229201Y-87585229D01*
X135434593Y-87500153D01*
X135619441Y-87376641D01*
X135749919Y-87246163D01*
X135722457Y-87312462D01*
X135671400Y-87569144D01*
X135671400Y-87830856D01*
X135722457Y-88087538D01*
X135822610Y-88329328D01*
X135968009Y-88546933D01*
X136153067Y-88731991D01*
X136370672Y-88877390D01*
X136612462Y-88977543D01*
X136869144Y-89028600D01*
X137130856Y-89028600D01*
X137387538Y-88977543D01*
X137629328Y-88877390D01*
X137846933Y-88731991D01*
X138031991Y-88546933D01*
X138177390Y-88329328D01*
X138277543Y-88087538D01*
X138328600Y-87830856D01*
X138328600Y-87569144D01*
X138277543Y-87312462D01*
X138177390Y-87070672D01*
X138031991Y-86853067D01*
X137846933Y-86668009D01*
X137629328Y-86522610D01*
X137387538Y-86422457D01*
X137130856Y-86371400D01*
X136869144Y-86371400D01*
X136612462Y-86422457D01*
X136370672Y-86522610D01*
X136153067Y-86668009D01*
X135980530Y-86840546D01*
X135985229Y-86829201D01*
X136028600Y-86611157D01*
X136028600Y-86388843D01*
X135985229Y-86170799D01*
X135900153Y-85965407D01*
X135776641Y-85780559D01*
X135619441Y-85623359D01*
X135434593Y-85499847D01*
X135229201Y-85414771D01*
X135011157Y-85371400D01*
X134788843Y-85371400D01*
X134570799Y-85414771D01*
X134365407Y-85499847D01*
X134180559Y-85623359D01*
X134023359Y-85780559D01*
X133899847Y-85965407D01*
X133814771Y-86170799D01*
X133771400Y-86388843D01*
X110253600Y-86388843D01*
X110253600Y-82753600D01*
X115371400Y-82753600D01*
X115371400Y-82797138D01*
%TA.AperFunction,Conductor*%
D15*
G36*
X115371400Y-82797138D02*
G01*
X115389792Y-82889603D01*
X115425870Y-82976702D01*
X115478247Y-83055090D01*
X115544910Y-83121753D01*
X115623298Y-83174130D01*
X115710397Y-83210208D01*
X115802862Y-83228600D01*
X115897138Y-83228600D01*
X115989603Y-83210208D01*
X116076702Y-83174130D01*
X116155090Y-83121753D01*
X116181073Y-83095770D01*
X116189792Y-83139603D01*
X116225870Y-83226702D01*
X116278247Y-83305090D01*
X116344910Y-83371753D01*
X116423298Y-83424130D01*
X116510397Y-83460208D01*
X116602862Y-83478600D01*
X116697138Y-83478600D01*
X116789603Y-83460208D01*
X116876702Y-83424130D01*
X116955090Y-83371753D01*
X117000000Y-83326843D01*
X117044910Y-83371753D01*
X117123298Y-83424130D01*
X117210397Y-83460208D01*
X117302862Y-83478600D01*
X117397138Y-83478600D01*
X117489603Y-83460208D01*
X117576702Y-83424130D01*
X117655090Y-83371753D01*
X117721753Y-83305090D01*
X117774130Y-83226702D01*
X117810208Y-83139603D01*
X117818927Y-83095770D01*
X117844910Y-83121753D01*
X117923298Y-83174130D01*
X118010397Y-83210208D01*
X118102862Y-83228600D01*
X118197138Y-83228600D01*
X118289603Y-83210208D01*
X118376702Y-83174130D01*
X118455090Y-83121753D01*
X118521753Y-83055090D01*
X118574130Y-82976702D01*
X118610208Y-82889603D01*
X118628600Y-82797138D01*
X118628600Y-82753600D01*
X132871400Y-82753600D01*
X132871400Y-82797138D01*
X132889792Y-82889603D01*
X132925870Y-82976702D01*
X132978247Y-83055090D01*
X133044910Y-83121753D01*
X133123298Y-83174130D01*
X133210397Y-83210208D01*
X133302862Y-83228600D01*
X133397138Y-83228600D01*
X133489603Y-83210208D01*
X133576702Y-83174130D01*
X133655090Y-83121753D01*
X133681073Y-83095770D01*
X133689792Y-83139603D01*
X133725870Y-83226702D01*
X133778247Y-83305090D01*
X133844910Y-83371753D01*
X133923298Y-83424130D01*
X134010397Y-83460208D01*
X134102862Y-83478600D01*
X134197138Y-83478600D01*
X134289603Y-83460208D01*
X134376702Y-83424130D01*
X134455090Y-83371753D01*
X134500000Y-83326843D01*
X134544910Y-83371753D01*
X134623298Y-83424130D01*
X134710397Y-83460208D01*
X134802862Y-83478600D01*
X134897138Y-83478600D01*
X134989603Y-83460208D01*
X135076702Y-83424130D01*
X135155090Y-83371753D01*
X135221753Y-83305090D01*
X135274130Y-83226702D01*
X135310208Y-83139603D01*
X135318927Y-83095770D01*
X135344910Y-83121753D01*
X135423298Y-83174130D01*
X135475899Y-83195918D01*
X135377046Y-83277046D01*
X135223514Y-83464124D01*
X135109430Y-83677560D01*
X135039177Y-83909152D01*
X135015456Y-84150000D01*
X135039177Y-84390848D01*
X135109430Y-84622440D01*
X135223514Y-84835876D01*
X135377046Y-85022954D01*
X135564124Y-85176486D01*
X135777560Y-85290570D01*
X136009152Y-85360823D01*
X136189648Y-85378600D01*
X137810352Y-85378600D01*
X137990848Y-85360823D01*
X138222440Y-85290570D01*
X138435876Y-85176486D01*
X138622954Y-85022954D01*
X138776486Y-84835876D01*
X138890570Y-84622440D01*
X138960823Y-84390848D01*
X138984544Y-84150000D01*
X138960823Y-83909152D01*
X138890570Y-83677560D01*
X138776486Y-83464124D01*
X138622954Y-83277046D01*
X138435876Y-83123514D01*
X138222440Y-83009430D01*
X137990848Y-82939177D01*
X137810352Y-82921400D01*
X136189648Y-82921400D01*
X136093098Y-82930909D01*
X136110208Y-82889603D01*
X136128600Y-82797138D01*
X136128600Y-82753600D01*
X138987593Y-82753600D01*
X139144744Y-82769009D01*
X139283964Y-82811042D01*
X139412378Y-82879320D01*
X139525083Y-82971240D01*
X139617786Y-83083299D01*
X139686957Y-83211228D01*
X139729963Y-83350160D01*
X139746400Y-83506541D01*
X139746401Y-96487583D01*
X139730991Y-96644742D01*
X139688957Y-96783968D01*
X139620679Y-96912379D01*
X139528760Y-97025083D01*
X139416701Y-97117786D01*
X139288772Y-97186957D01*
X139149840Y-97229963D01*
X138993459Y-97246400D01*
X136128600Y-97246400D01*
X136128600Y-97202862D01*
X136110208Y-97110397D01*
X136093098Y-97069091D01*
X136189648Y-97078600D01*
X137810352Y-97078600D01*
X137990848Y-97060823D01*
X138222440Y-96990570D01*
X138435876Y-96876486D01*
X138622954Y-96722954D01*
X138776486Y-96535876D01*
X138890570Y-96322440D01*
X138960823Y-96090848D01*
X138984544Y-95850000D01*
X138960823Y-95609152D01*
X138890570Y-95377560D01*
X138776486Y-95164124D01*
X138622954Y-94977046D01*
X138435876Y-94823514D01*
X138222440Y-94709430D01*
X137990848Y-94639177D01*
X137810352Y-94621400D01*
X136189648Y-94621400D01*
X136009152Y-94639177D01*
X135777560Y-94709430D01*
X135564124Y-94823514D01*
X135377046Y-94977046D01*
X135223514Y-95164124D01*
X135109430Y-95377560D01*
X135039177Y-95609152D01*
X135015456Y-95850000D01*
X135039177Y-96090848D01*
X135109430Y-96322440D01*
X135223514Y-96535876D01*
X135377046Y-96722954D01*
X135475899Y-96804082D01*
X135423298Y-96825870D01*
X135344910Y-96878247D01*
X135318927Y-96904230D01*
X135310208Y-96860397D01*
X135274130Y-96773298D01*
X135221753Y-96694910D01*
X135155090Y-96628247D01*
X135076702Y-96575870D01*
X134989603Y-96539792D01*
X134897138Y-96521400D01*
X134802862Y-96521400D01*
X134710397Y-96539792D01*
X134623298Y-96575870D01*
X134544910Y-96628247D01*
X134500000Y-96673157D01*
X134455090Y-96628247D01*
X134376702Y-96575870D01*
X134289603Y-96539792D01*
X134197138Y-96521400D01*
X134102862Y-96521400D01*
X134010397Y-96539792D01*
X133923298Y-96575870D01*
X133844910Y-96628247D01*
X133778247Y-96694910D01*
X133725870Y-96773298D01*
X133689792Y-96860397D01*
X133681073Y-96904230D01*
X133655090Y-96878247D01*
X133576702Y-96825870D01*
X133489603Y-96789792D01*
X133397138Y-96771400D01*
X133302862Y-96771400D01*
X133210397Y-96789792D01*
X133123298Y-96825870D01*
X133044910Y-96878247D01*
X132978247Y-96944910D01*
X132925870Y-97023298D01*
X132889792Y-97110397D01*
X132871400Y-97202862D01*
X132871400Y-97246400D01*
X118628600Y-97246400D01*
X118628600Y-97202862D01*
X118610208Y-97110397D01*
X118574130Y-97023298D01*
X118521753Y-96944910D01*
X118455090Y-96878247D01*
X118376702Y-96825870D01*
X118289603Y-96789792D01*
X118197138Y-96771400D01*
X118102862Y-96771400D01*
X118010397Y-96789792D01*
X117923298Y-96825870D01*
X117844910Y-96878247D01*
X117818927Y-96904230D01*
X117810208Y-96860397D01*
X117774130Y-96773298D01*
X117721753Y-96694910D01*
X117655090Y-96628247D01*
X117576702Y-96575870D01*
X117489603Y-96539792D01*
X117397138Y-96521400D01*
X117302862Y-96521400D01*
X117210397Y-96539792D01*
X117123298Y-96575870D01*
X117044910Y-96628247D01*
X117000000Y-96673157D01*
X116955090Y-96628247D01*
X116876702Y-96575870D01*
X116789603Y-96539792D01*
X116697138Y-96521400D01*
X116602862Y-96521400D01*
X116510397Y-96539792D01*
X116423298Y-96575870D01*
X116344910Y-96628247D01*
X116278247Y-96694910D01*
X116225870Y-96773298D01*
X116189792Y-96860397D01*
X116181073Y-96904230D01*
X116155090Y-96878247D01*
X116076702Y-96825870D01*
X115989603Y-96789792D01*
X115897138Y-96771400D01*
X115802862Y-96771400D01*
X115710397Y-96789792D01*
X115623298Y-96825870D01*
X115544910Y-96878247D01*
X115478247Y-96944910D01*
X115425870Y-97023298D01*
X115389792Y-97110397D01*
X115371400Y-97202862D01*
X115371400Y-97246400D01*
X110253600Y-97246400D01*
X110253600Y-94313464D01*
X134194299Y-94313464D01*
X134296569Y-94460190D01*
X134495488Y-94559464D01*
X134709952Y-94618023D01*
X134931719Y-94633617D01*
X135152267Y-94605647D01*
X135363121Y-94535187D01*
X135503431Y-94460190D01*
X135605701Y-94313464D01*
X134900000Y-93607763D01*
X134194299Y-94313464D01*
X110253600Y-94313464D01*
X110253600Y-93531719D01*
X133766383Y-93531719D01*
X133794353Y-93752267D01*
X133864813Y-93963121D01*
X133939810Y-94103431D01*
X134086536Y-94205701D01*
X134792237Y-93500000D01*
X135007763Y-93500000D01*
X135713464Y-94205701D01*
X135860190Y-94103431D01*
X135959464Y-93904512D01*
X136018023Y-93690048D01*
X136033617Y-93468281D01*
X136005647Y-93247733D01*
X135973948Y-93152872D01*
X136153067Y-93331991D01*
X136370672Y-93477390D01*
X136612462Y-93577543D01*
X136869144Y-93628600D01*
X137130856Y-93628600D01*
X137387538Y-93577543D01*
X137629328Y-93477390D01*
X137846933Y-93331991D01*
X138031991Y-93146933D01*
X138177390Y-92929328D01*
X138277543Y-92687538D01*
X138328600Y-92430856D01*
X138328600Y-92169144D01*
X138277543Y-91912462D01*
X138177390Y-91670672D01*
X138031991Y-91453067D01*
X137846933Y-91268009D01*
X137629328Y-91122610D01*
X137387538Y-91022457D01*
X137130856Y-90971400D01*
X136869144Y-90971400D01*
X136612462Y-91022457D01*
X136370672Y-91122610D01*
X136153067Y-91268009D01*
X135968009Y-91453067D01*
X135822610Y-91670672D01*
X135722457Y-91912462D01*
X135671400Y-92169144D01*
X135671400Y-92430856D01*
X135722457Y-92687538D01*
X135788279Y-92846446D01*
X135713464Y-92794299D01*
X135007763Y-93500000D01*
X134792237Y-93500000D01*
X134086536Y-92794299D01*
X133939810Y-92896569D01*
X133840536Y-93095488D01*
X133781977Y-93309952D01*
X133766383Y-93531719D01*
X110253600Y-93531719D01*
X110253600Y-92686536D01*
X134194299Y-92686536D01*
X134900000Y-93392237D01*
X135605701Y-92686536D01*
X135503431Y-92539810D01*
X135304512Y-92440536D01*
X135090048Y-92381977D01*
X134868281Y-92366383D01*
X134647733Y-92394353D01*
X134436879Y-92464813D01*
X134296569Y-92539810D01*
X134194299Y-92686536D01*
X110253600Y-92686536D01*
X110253600Y-88888843D01*
X133771400Y-88888843D01*
X133771400Y-89111157D01*
X133814771Y-89329201D01*
X133899847Y-89534593D01*
X134023359Y-89719441D01*
X134180559Y-89876641D01*
X134365178Y-90000000D01*
X134180559Y-90123359D01*
X134023359Y-90280559D01*
X133899847Y-90465407D01*
X133814771Y-90670799D01*
X133771400Y-90888843D01*
X133771400Y-91111157D01*
X133814771Y-91329201D01*
X133899847Y-91534593D01*
X134023359Y-91719441D01*
X134180559Y-91876641D01*
X134365407Y-92000153D01*
X134570799Y-92085229D01*
X134788843Y-92128600D01*
X135011157Y-92128600D01*
X135229201Y-92085229D01*
X135434593Y-92000153D01*
X135619441Y-91876641D01*
X135776641Y-91719441D01*
X135900153Y-91534593D01*
X135985229Y-91329201D01*
X136028600Y-91111157D01*
X136028600Y-90888843D01*
X135985229Y-90670799D01*
X135900153Y-90465407D01*
X135776641Y-90280559D01*
X135619441Y-90123359D01*
X135434822Y-90000000D01*
X135619441Y-89876641D01*
X135776641Y-89719441D01*
X135900153Y-89534593D01*
X135985229Y-89329201D01*
X136028600Y-89111157D01*
X136028600Y-88888843D01*
X135985229Y-88670799D01*
X135900153Y-88465407D01*
X135776641Y-88280559D01*
X135619441Y-88123359D01*
X135434593Y-87999847D01*
X135229201Y-87914771D01*
X135011157Y-87871400D01*
X134788843Y-87871400D01*
X134570799Y-87914771D01*
X134365407Y-87999847D01*
X134180559Y-88123359D01*
X134023359Y-88280559D01*
X133899847Y-88465407D01*
X133814771Y-88670799D01*
X133771400Y-88888843D01*
X110253600Y-88888843D01*
X110253600Y-87943013D01*
X131421400Y-87943013D01*
X131421400Y-88056987D01*
X131443635Y-88168772D01*
X131487251Y-88274070D01*
X131550572Y-88368836D01*
X131631164Y-88449428D01*
X131725930Y-88512749D01*
X131831228Y-88556365D01*
X131943013Y-88578600D01*
X132056987Y-88578600D01*
X132168772Y-88556365D01*
X132274070Y-88512749D01*
X132368836Y-88449428D01*
X132449428Y-88368836D01*
X132512749Y-88274070D01*
X132556365Y-88168772D01*
X132578600Y-88056987D01*
X132578600Y-87943013D01*
X132556365Y-87831228D01*
X132512749Y-87725930D01*
X132449428Y-87631164D01*
X132368836Y-87550572D01*
X132274070Y-87487251D01*
X132168772Y-87443635D01*
X132056987Y-87421400D01*
X131943013Y-87421400D01*
X131831228Y-87443635D01*
X131725930Y-87487251D01*
X131631164Y-87550572D01*
X131550572Y-87631164D01*
X131487251Y-87725930D01*
X131443635Y-87831228D01*
X131421400Y-87943013D01*
X110253600Y-87943013D01*
X110253600Y-86943013D01*
X130421400Y-86943013D01*
X130421400Y-87056987D01*
X130443635Y-87168772D01*
X130487251Y-87274070D01*
X130550572Y-87368836D01*
X130631164Y-87449428D01*
X130725930Y-87512749D01*
X130831228Y-87556365D01*
X130943013Y-87578600D01*
X131056987Y-87578600D01*
X131168772Y-87556365D01*
X131274070Y-87512749D01*
X131368836Y-87449428D01*
X131449428Y-87368836D01*
X131512749Y-87274070D01*
X131556365Y-87168772D01*
X131578600Y-87056987D01*
X131578600Y-86943013D01*
X131556365Y-86831228D01*
X131512749Y-86725930D01*
X131449428Y-86631164D01*
X131368836Y-86550572D01*
X131274070Y-86487251D01*
X131168772Y-86443635D01*
X131056987Y-86421400D01*
X130943013Y-86421400D01*
X130831228Y-86443635D01*
X130725930Y-86487251D01*
X130631164Y-86550572D01*
X130550572Y-86631164D01*
X130487251Y-86725930D01*
X130443635Y-86831228D01*
X130421400Y-86943013D01*
X110253600Y-86943013D01*
X110253600Y-86388843D01*
X133771400Y-86388843D01*
X133771400Y-86611157D01*
X133814771Y-86829201D01*
X133899847Y-87034593D01*
X134023359Y-87219441D01*
X134180559Y-87376641D01*
X134365407Y-87500153D01*
X134570799Y-87585229D01*
X134788843Y-87628600D01*
X135011157Y-87628600D01*
X135229201Y-87585229D01*
X135434593Y-87500153D01*
X135619441Y-87376641D01*
X135749919Y-87246163D01*
X135722457Y-87312462D01*
X135671400Y-87569144D01*
X135671400Y-87830856D01*
X135722457Y-88087538D01*
X135822610Y-88329328D01*
X135968009Y-88546933D01*
X136153067Y-88731991D01*
X136370672Y-88877390D01*
X136612462Y-88977543D01*
X136869144Y-89028600D01*
X137130856Y-89028600D01*
X137387538Y-88977543D01*
X137629328Y-88877390D01*
X137846933Y-88731991D01*
X138031991Y-88546933D01*
X138177390Y-88329328D01*
X138277543Y-88087538D01*
X138328600Y-87830856D01*
X138328600Y-87569144D01*
X138277543Y-87312462D01*
X138177390Y-87070672D01*
X138031991Y-86853067D01*
X137846933Y-86668009D01*
X137629328Y-86522610D01*
X137387538Y-86422457D01*
X137130856Y-86371400D01*
X136869144Y-86371400D01*
X136612462Y-86422457D01*
X136370672Y-86522610D01*
X136153067Y-86668009D01*
X135980530Y-86840546D01*
X135985229Y-86829201D01*
X136028600Y-86611157D01*
X136028600Y-86388843D01*
X135985229Y-86170799D01*
X135900153Y-85965407D01*
X135776641Y-85780559D01*
X135619441Y-85623359D01*
X135434593Y-85499847D01*
X135229201Y-85414771D01*
X135011157Y-85371400D01*
X134788843Y-85371400D01*
X134570799Y-85414771D01*
X134365407Y-85499847D01*
X134180559Y-85623359D01*
X134023359Y-85780559D01*
X133899847Y-85965407D01*
X133814771Y-86170799D01*
X133771400Y-86388843D01*
X110253600Y-86388843D01*
X110253600Y-82753600D01*
X115371400Y-82753600D01*
X115371400Y-82797138D01*
G37*
%TD.AperFunction*%
%TD*%
M02*
