%TF.GenerationSoftware,KiCad,Pcbnew,5.1.9+dfsg1-1*%
%TF.CreationDate,2021-07-11T15:28:01+08:00*%
%TF.ProjectId,stlink,73746c69-6e6b-42e6-9b69-6361645f7063,a*%
%TF.SameCoordinates,Original*%
%TF.FileFunction,Soldermask,Top*%
%TF.FilePolarity,Negative*%
%FSLAX46Y46*%
G04 Gerber Fmt 4.6, Leading zero omitted, Abs format (unit mm)*
G04 Created by KiCad (PCBNEW 5.1.9+dfsg1-1) date 2021-07-11 15:28:01*
%MOMM*%
%LPD*%
G01*
G04 APERTURE LIST*
%ADD10C,0.600000*%
%ADD11C,1.900000*%
%ADD12C,2.300000*%
%ADD13O,3.600000X2.100000*%
G04 APERTURE END LIST*
%TO.C,R11*%
G36*
G01*
X123200000Y-96960000D02*
X123200000Y-96540000D01*
G75*
G02*
X123360000Y-96380000I160000J0D01*
G01*
X123680000Y-96380000D01*
G75*
G02*
X123840000Y-96540000I0J-160000D01*
G01*
X123840000Y-96960000D01*
G75*
G02*
X123680000Y-97120000I-160000J0D01*
G01*
X123360000Y-97120000D01*
G75*
G02*
X123200000Y-96960000I0J160000D01*
G01*
G37*
G36*
G01*
X122180000Y-96960000D02*
X122180000Y-96540000D01*
G75*
G02*
X122340000Y-96380000I160000J0D01*
G01*
X122660000Y-96380000D01*
G75*
G02*
X122820000Y-96540000I0J-160000D01*
G01*
X122820000Y-96960000D01*
G75*
G02*
X122660000Y-97120000I-160000J0D01*
G01*
X122340000Y-97120000D01*
G75*
G02*
X122180000Y-96960000I0J160000D01*
G01*
G37*
%TD*%
%TO.C,R10*%
G36*
G01*
X121190000Y-96960000D02*
X121190000Y-96540000D01*
G75*
G02*
X121350000Y-96380000I160000J0D01*
G01*
X121670000Y-96380000D01*
G75*
G02*
X121830000Y-96540000I0J-160000D01*
G01*
X121830000Y-96960000D01*
G75*
G02*
X121670000Y-97120000I-160000J0D01*
G01*
X121350000Y-97120000D01*
G75*
G02*
X121190000Y-96960000I0J160000D01*
G01*
G37*
G36*
G01*
X120170000Y-96960000D02*
X120170000Y-96540000D01*
G75*
G02*
X120330000Y-96380000I160000J0D01*
G01*
X120650000Y-96380000D01*
G75*
G02*
X120810000Y-96540000I0J-160000D01*
G01*
X120810000Y-96960000D01*
G75*
G02*
X120650000Y-97120000I-160000J0D01*
G01*
X120330000Y-97120000D01*
G75*
G02*
X120170000Y-96960000I0J160000D01*
G01*
G37*
%TD*%
%TO.C,R8*%
G36*
G01*
X123440000Y-95960000D02*
X123440000Y-95540000D01*
G75*
G02*
X123600000Y-95380000I160000J0D01*
G01*
X123920000Y-95380000D01*
G75*
G02*
X124080000Y-95540000I0J-160000D01*
G01*
X124080000Y-95960000D01*
G75*
G02*
X123920000Y-96120000I-160000J0D01*
G01*
X123600000Y-96120000D01*
G75*
G02*
X123440000Y-95960000I0J160000D01*
G01*
G37*
G36*
G01*
X122420000Y-95960000D02*
X122420000Y-95540000D01*
G75*
G02*
X122580000Y-95380000I160000J0D01*
G01*
X122900000Y-95380000D01*
G75*
G02*
X123060000Y-95540000I0J-160000D01*
G01*
X123060000Y-95960000D01*
G75*
G02*
X122900000Y-96120000I-160000J0D01*
G01*
X122580000Y-96120000D01*
G75*
G02*
X122420000Y-95960000I0J160000D01*
G01*
G37*
%TD*%
%TO.C,R7*%
G36*
G01*
X121190000Y-95960000D02*
X121190000Y-95540000D01*
G75*
G02*
X121350000Y-95380000I160000J0D01*
G01*
X121670000Y-95380000D01*
G75*
G02*
X121830000Y-95540000I0J-160000D01*
G01*
X121830000Y-95960000D01*
G75*
G02*
X121670000Y-96120000I-160000J0D01*
G01*
X121350000Y-96120000D01*
G75*
G02*
X121190000Y-95960000I0J160000D01*
G01*
G37*
G36*
G01*
X120170000Y-95960000D02*
X120170000Y-95540000D01*
G75*
G02*
X120330000Y-95380000I160000J0D01*
G01*
X120650000Y-95380000D01*
G75*
G02*
X120810000Y-95540000I0J-160000D01*
G01*
X120810000Y-95960000D01*
G75*
G02*
X120650000Y-96120000I-160000J0D01*
G01*
X120330000Y-96120000D01*
G75*
G02*
X120170000Y-95960000I0J160000D01*
G01*
G37*
%TD*%
%TO.C,R6*%
G36*
G01*
X131190000Y-95460000D02*
X131190000Y-95040000D01*
G75*
G02*
X131350000Y-94880000I160000J0D01*
G01*
X131670000Y-94880000D01*
G75*
G02*
X131830000Y-95040000I0J-160000D01*
G01*
X131830000Y-95460000D01*
G75*
G02*
X131670000Y-95620000I-160000J0D01*
G01*
X131350000Y-95620000D01*
G75*
G02*
X131190000Y-95460000I0J160000D01*
G01*
G37*
G36*
G01*
X130170000Y-95460000D02*
X130170000Y-95040000D01*
G75*
G02*
X130330000Y-94880000I160000J0D01*
G01*
X130650000Y-94880000D01*
G75*
G02*
X130810000Y-95040000I0J-160000D01*
G01*
X130810000Y-95460000D01*
G75*
G02*
X130650000Y-95620000I-160000J0D01*
G01*
X130330000Y-95620000D01*
G75*
G02*
X130170000Y-95460000I0J160000D01*
G01*
G37*
%TD*%
%TO.C,R5*%
G36*
G01*
X132960000Y-93810000D02*
X132540000Y-93810000D01*
G75*
G02*
X132380000Y-93650000I0J160000D01*
G01*
X132380000Y-93330000D01*
G75*
G02*
X132540000Y-93170000I160000J0D01*
G01*
X132960000Y-93170000D01*
G75*
G02*
X133120000Y-93330000I0J-160000D01*
G01*
X133120000Y-93650000D01*
G75*
G02*
X132960000Y-93810000I-160000J0D01*
G01*
G37*
G36*
G01*
X132960000Y-94830000D02*
X132540000Y-94830000D01*
G75*
G02*
X132380000Y-94670000I0J160000D01*
G01*
X132380000Y-94350000D01*
G75*
G02*
X132540000Y-94190000I160000J0D01*
G01*
X132960000Y-94190000D01*
G75*
G02*
X133120000Y-94350000I0J-160000D01*
G01*
X133120000Y-94670000D01*
G75*
G02*
X132960000Y-94830000I-160000J0D01*
G01*
G37*
%TD*%
%TO.C,R4*%
G36*
G01*
X133210000Y-91810000D02*
X132790000Y-91810000D01*
G75*
G02*
X132630000Y-91650000I0J160000D01*
G01*
X132630000Y-91330000D01*
G75*
G02*
X132790000Y-91170000I160000J0D01*
G01*
X133210000Y-91170000D01*
G75*
G02*
X133370000Y-91330000I0J-160000D01*
G01*
X133370000Y-91650000D01*
G75*
G02*
X133210000Y-91810000I-160000J0D01*
G01*
G37*
G36*
G01*
X133210000Y-92830000D02*
X132790000Y-92830000D01*
G75*
G02*
X132630000Y-92670000I0J160000D01*
G01*
X132630000Y-92350000D01*
G75*
G02*
X132790000Y-92190000I160000J0D01*
G01*
X133210000Y-92190000D01*
G75*
G02*
X133370000Y-92350000I0J-160000D01*
G01*
X133370000Y-92670000D01*
G75*
G02*
X133210000Y-92830000I-160000J0D01*
G01*
G37*
%TD*%
%TO.C,Q1*%
G36*
G01*
X129750000Y-92350000D02*
X129750000Y-93150000D01*
G75*
G02*
X129700000Y-93200000I-50000J0D01*
G01*
X128800000Y-93200000D01*
G75*
G02*
X128750000Y-93150000I0J50000D01*
G01*
X128750000Y-92350000D01*
G75*
G02*
X128800000Y-92300000I50000J0D01*
G01*
X129700000Y-92300000D01*
G75*
G02*
X129750000Y-92350000I0J-50000D01*
G01*
G37*
G36*
G01*
X131750000Y-91400000D02*
X131750000Y-92200000D01*
G75*
G02*
X131700000Y-92250000I-50000J0D01*
G01*
X130800000Y-92250000D01*
G75*
G02*
X130750000Y-92200000I0J50000D01*
G01*
X130750000Y-91400000D01*
G75*
G02*
X130800000Y-91350000I50000J0D01*
G01*
X131700000Y-91350000D01*
G75*
G02*
X131750000Y-91400000I0J-50000D01*
G01*
G37*
G36*
G01*
X131750000Y-93300000D02*
X131750000Y-94100000D01*
G75*
G02*
X131700000Y-94150000I-50000J0D01*
G01*
X130800000Y-94150000D01*
G75*
G02*
X130750000Y-94100000I0J50000D01*
G01*
X130750000Y-93300000D01*
G75*
G02*
X130800000Y-93250000I50000J0D01*
G01*
X131700000Y-93250000D01*
G75*
G02*
X131750000Y-93300000I0J-50000D01*
G01*
G37*
%TD*%
D10*
%TO.C,H4*%
X134850000Y-99000000D03*
X134150000Y-99000000D03*
X135650000Y-97250000D03*
X134150000Y-97000000D03*
X133350000Y-97250000D03*
X135650000Y-98750000D03*
X133350000Y-98750000D03*
X134850000Y-97000000D03*
%TD*%
%TO.C,H3*%
X134850000Y-83000000D03*
X134150000Y-83000000D03*
X135650000Y-81250000D03*
X134150000Y-81000000D03*
X133350000Y-81250000D03*
X135650000Y-82750000D03*
X133350000Y-82750000D03*
X134850000Y-81000000D03*
%TD*%
%TO.C,H2*%
X117350000Y-99000000D03*
X116650000Y-99000000D03*
X118150000Y-97250000D03*
X116650000Y-97000000D03*
X115850000Y-97250000D03*
X118150000Y-98750000D03*
X115850000Y-98750000D03*
X117350000Y-97000000D03*
%TD*%
%TO.C,H1*%
X117350000Y-83000000D03*
X116650000Y-83000000D03*
X118150000Y-81250000D03*
X116650000Y-81000000D03*
X115850000Y-81250000D03*
X118150000Y-82750000D03*
X115850000Y-82750000D03*
X117350000Y-81000000D03*
%TD*%
%TO.C,R9*%
G36*
G01*
X129060000Y-90290000D02*
X129060000Y-90710000D01*
G75*
G02*
X128900000Y-90870000I-160000J0D01*
G01*
X128580000Y-90870000D01*
G75*
G02*
X128420000Y-90710000I0J160000D01*
G01*
X128420000Y-90290000D01*
G75*
G02*
X128580000Y-90130000I160000J0D01*
G01*
X128900000Y-90130000D01*
G75*
G02*
X129060000Y-90290000I0J-160000D01*
G01*
G37*
G36*
G01*
X130080000Y-90290000D02*
X130080000Y-90710000D01*
G75*
G02*
X129920000Y-90870000I-160000J0D01*
G01*
X129600000Y-90870000D01*
G75*
G02*
X129440000Y-90710000I0J160000D01*
G01*
X129440000Y-90290000D01*
G75*
G02*
X129600000Y-90130000I160000J0D01*
G01*
X129920000Y-90130000D01*
G75*
G02*
X130080000Y-90290000I0J-160000D01*
G01*
G37*
%TD*%
%TO.C,R2*%
G36*
G01*
X121940000Y-83710000D02*
X121940000Y-83290000D01*
G75*
G02*
X122100000Y-83130000I160000J0D01*
G01*
X122420000Y-83130000D01*
G75*
G02*
X122580000Y-83290000I0J-160000D01*
G01*
X122580000Y-83710000D01*
G75*
G02*
X122420000Y-83870000I-160000J0D01*
G01*
X122100000Y-83870000D01*
G75*
G02*
X121940000Y-83710000I0J160000D01*
G01*
G37*
G36*
G01*
X120920000Y-83710000D02*
X120920000Y-83290000D01*
G75*
G02*
X121080000Y-83130000I160000J0D01*
G01*
X121400000Y-83130000D01*
G75*
G02*
X121560000Y-83290000I0J-160000D01*
G01*
X121560000Y-83710000D01*
G75*
G02*
X121400000Y-83870000I-160000J0D01*
G01*
X121080000Y-83870000D01*
G75*
G02*
X120920000Y-83710000I0J160000D01*
G01*
G37*
%TD*%
%TO.C,R1*%
G36*
G01*
X114560000Y-92290000D02*
X114560000Y-92710000D01*
G75*
G02*
X114400000Y-92870000I-160000J0D01*
G01*
X114080000Y-92870000D01*
G75*
G02*
X113920000Y-92710000I0J160000D01*
G01*
X113920000Y-92290000D01*
G75*
G02*
X114080000Y-92130000I160000J0D01*
G01*
X114400000Y-92130000D01*
G75*
G02*
X114560000Y-92290000I0J-160000D01*
G01*
G37*
G36*
G01*
X115580000Y-92290000D02*
X115580000Y-92710000D01*
G75*
G02*
X115420000Y-92870000I-160000J0D01*
G01*
X115100000Y-92870000D01*
G75*
G02*
X114940000Y-92710000I0J160000D01*
G01*
X114940000Y-92290000D01*
G75*
G02*
X115100000Y-92130000I160000J0D01*
G01*
X115420000Y-92130000D01*
G75*
G02*
X115580000Y-92290000I0J-160000D01*
G01*
G37*
%TD*%
%TO.C,C1*%
G36*
G01*
X116600000Y-91055000D02*
X116600000Y-91445000D01*
G75*
G02*
X116435000Y-91610000I-165000J0D01*
G01*
X116105000Y-91610000D01*
G75*
G02*
X115940000Y-91445000I0J165000D01*
G01*
X115940000Y-91055000D01*
G75*
G02*
X116105000Y-90890000I165000J0D01*
G01*
X116435000Y-90890000D01*
G75*
G02*
X116600000Y-91055000I0J-165000D01*
G01*
G37*
G36*
G01*
X117560000Y-91055000D02*
X117560000Y-91445000D01*
G75*
G02*
X117395000Y-91610000I-165000J0D01*
G01*
X117065000Y-91610000D01*
G75*
G02*
X116900000Y-91445000I0J165000D01*
G01*
X116900000Y-91055000D01*
G75*
G02*
X117065000Y-90890000I165000J0D01*
G01*
X117395000Y-90890000D01*
G75*
G02*
X117560000Y-91055000I0J-165000D01*
G01*
G37*
%TD*%
D11*
%TO.C,J1*%
X134900000Y-86500000D03*
X134900000Y-89000000D03*
X134900000Y-91000000D03*
X134900000Y-93500000D03*
D12*
X137000000Y-87700000D03*
X137000000Y-92300000D03*
D13*
X137000000Y-84150000D03*
X137000000Y-95850000D03*
%TD*%
%TO.C,R13*%
G36*
G01*
X114110000Y-96552500D02*
X114110000Y-96947500D01*
G75*
G02*
X113937500Y-97120000I-172500J0D01*
G01*
X113592500Y-97120000D01*
G75*
G02*
X113420000Y-96947500I0J172500D01*
G01*
X113420000Y-96552500D01*
G75*
G02*
X113592500Y-96380000I172500J0D01*
G01*
X113937500Y-96380000D01*
G75*
G02*
X114110000Y-96552500I0J-172500D01*
G01*
G37*
G36*
G01*
X115080000Y-96552500D02*
X115080000Y-96947500D01*
G75*
G02*
X114907500Y-97120000I-172500J0D01*
G01*
X114562500Y-97120000D01*
G75*
G02*
X114390000Y-96947500I0J172500D01*
G01*
X114390000Y-96552500D01*
G75*
G02*
X114562500Y-96380000I172500J0D01*
G01*
X114907500Y-96380000D01*
G75*
G02*
X115080000Y-96552500I0J-172500D01*
G01*
G37*
%TD*%
%TO.C,R12*%
G36*
G01*
X118140000Y-95447500D02*
X118140000Y-95052500D01*
G75*
G02*
X118312500Y-94880000I172500J0D01*
G01*
X118657500Y-94880000D01*
G75*
G02*
X118830000Y-95052500I0J-172500D01*
G01*
X118830000Y-95447500D01*
G75*
G02*
X118657500Y-95620000I-172500J0D01*
G01*
X118312500Y-95620000D01*
G75*
G02*
X118140000Y-95447500I0J172500D01*
G01*
G37*
G36*
G01*
X117170000Y-95447500D02*
X117170000Y-95052500D01*
G75*
G02*
X117342500Y-94880000I172500J0D01*
G01*
X117687500Y-94880000D01*
G75*
G02*
X117860000Y-95052500I0J-172500D01*
G01*
X117860000Y-95447500D01*
G75*
G02*
X117687500Y-95620000I-172500J0D01*
G01*
X117342500Y-95620000D01*
G75*
G02*
X117170000Y-95447500I0J172500D01*
G01*
G37*
%TD*%
%TO.C,D3*%
G36*
G01*
X115300000Y-94031250D02*
X115300000Y-93468750D01*
G75*
G02*
X115543750Y-93225000I243750J0D01*
G01*
X116031250Y-93225000D01*
G75*
G02*
X116275000Y-93468750I0J-243750D01*
G01*
X116275000Y-94031250D01*
G75*
G02*
X116031250Y-94275000I-243750J0D01*
G01*
X115543750Y-94275000D01*
G75*
G02*
X115300000Y-94031250I0J243750D01*
G01*
G37*
G36*
G01*
X113725000Y-94031250D02*
X113725000Y-93468750D01*
G75*
G02*
X113968750Y-93225000I243750J0D01*
G01*
X114456250Y-93225000D01*
G75*
G02*
X114700000Y-93468750I0J-243750D01*
G01*
X114700000Y-94031250D01*
G75*
G02*
X114456250Y-94275000I-243750J0D01*
G01*
X113968750Y-94275000D01*
G75*
G02*
X113725000Y-94031250I0J243750D01*
G01*
G37*
%TD*%
%TO.C,D2*%
G36*
G01*
X115300000Y-95531250D02*
X115300000Y-94968750D01*
G75*
G02*
X115543750Y-94725000I243750J0D01*
G01*
X116031250Y-94725000D01*
G75*
G02*
X116275000Y-94968750I0J-243750D01*
G01*
X116275000Y-95531250D01*
G75*
G02*
X116031250Y-95775000I-243750J0D01*
G01*
X115543750Y-95775000D01*
G75*
G02*
X115300000Y-95531250I0J243750D01*
G01*
G37*
G36*
G01*
X113725000Y-95531250D02*
X113725000Y-94968750D01*
G75*
G02*
X113968750Y-94725000I243750J0D01*
G01*
X114456250Y-94725000D01*
G75*
G02*
X114700000Y-94968750I0J-243750D01*
G01*
X114700000Y-95531250D01*
G75*
G02*
X114456250Y-95775000I-243750J0D01*
G01*
X113968750Y-95775000D01*
G75*
G02*
X113725000Y-95531250I0J243750D01*
G01*
G37*
%TD*%
%TO.C,Y1*%
G36*
G01*
X114550000Y-88300000D02*
X116950000Y-88300000D01*
G75*
G02*
X117000000Y-88350000I0J-50000D01*
G01*
X117000000Y-90350000D01*
G75*
G02*
X116950000Y-90400000I-50000J0D01*
G01*
X114550000Y-90400000D01*
G75*
G02*
X114500000Y-90350000I0J50000D01*
G01*
X114500000Y-88350000D01*
G75*
G02*
X114550000Y-88300000I50000J0D01*
G01*
G37*
G36*
G01*
X114550000Y-84600000D02*
X116950000Y-84600000D01*
G75*
G02*
X117000000Y-84650000I0J-50000D01*
G01*
X117000000Y-86650000D01*
G75*
G02*
X116950000Y-86700000I-50000J0D01*
G01*
X114550000Y-86700000D01*
G75*
G02*
X114500000Y-86650000I0J50000D01*
G01*
X114500000Y-84650000D01*
G75*
G02*
X114550000Y-84600000I50000J0D01*
G01*
G37*
%TD*%
%TO.C,C3*%
G36*
G01*
X114890000Y-91447500D02*
X114890000Y-91052500D01*
G75*
G02*
X115062500Y-90880000I172500J0D01*
G01*
X115407500Y-90880000D01*
G75*
G02*
X115580000Y-91052500I0J-172500D01*
G01*
X115580000Y-91447500D01*
G75*
G02*
X115407500Y-91620000I-172500J0D01*
G01*
X115062500Y-91620000D01*
G75*
G02*
X114890000Y-91447500I0J172500D01*
G01*
G37*
G36*
G01*
X113920000Y-91447500D02*
X113920000Y-91052500D01*
G75*
G02*
X114092500Y-90880000I172500J0D01*
G01*
X114437500Y-90880000D01*
G75*
G02*
X114610000Y-91052500I0J-172500D01*
G01*
X114610000Y-91447500D01*
G75*
G02*
X114437500Y-91620000I-172500J0D01*
G01*
X114092500Y-91620000D01*
G75*
G02*
X113920000Y-91447500I0J172500D01*
G01*
G37*
%TD*%
%TO.C,C2*%
G36*
G01*
X114610000Y-83552500D02*
X114610000Y-83947500D01*
G75*
G02*
X114437500Y-84120000I-172500J0D01*
G01*
X114092500Y-84120000D01*
G75*
G02*
X113920000Y-83947500I0J172500D01*
G01*
X113920000Y-83552500D01*
G75*
G02*
X114092500Y-83380000I172500J0D01*
G01*
X114437500Y-83380000D01*
G75*
G02*
X114610000Y-83552500I0J-172500D01*
G01*
G37*
G36*
G01*
X115580000Y-83552500D02*
X115580000Y-83947500D01*
G75*
G02*
X115407500Y-84120000I-172500J0D01*
G01*
X115062500Y-84120000D01*
G75*
G02*
X114890000Y-83947500I0J172500D01*
G01*
X114890000Y-83552500D01*
G75*
G02*
X115062500Y-83380000I172500J0D01*
G01*
X115407500Y-83380000D01*
G75*
G02*
X115580000Y-83552500I0J-172500D01*
G01*
G37*
%TD*%
%TO.C,J2*%
G36*
G01*
X112820000Y-94238000D02*
X112820000Y-95762000D01*
G75*
G02*
X112770000Y-95812000I-50000J0D01*
G01*
X110230000Y-95812000D01*
G75*
G02*
X110180000Y-95762000I0J50000D01*
G01*
X110180000Y-94238000D01*
G75*
G02*
X110230000Y-94188000I50000J0D01*
G01*
X112770000Y-94188000D01*
G75*
G02*
X112820000Y-94238000I0J-50000D01*
G01*
G37*
G36*
G01*
X112820000Y-91698000D02*
X112820000Y-93222000D01*
G75*
G02*
X112770000Y-93272000I-50000J0D01*
G01*
X110230000Y-93272000D01*
G75*
G02*
X110180000Y-93222000I0J50000D01*
G01*
X110180000Y-91698000D01*
G75*
G02*
X110230000Y-91648000I50000J0D01*
G01*
X112770000Y-91648000D01*
G75*
G02*
X112820000Y-91698000I0J-50000D01*
G01*
G37*
G36*
G01*
X112820000Y-89158000D02*
X112820000Y-90682000D01*
G75*
G02*
X112770000Y-90732000I-50000J0D01*
G01*
X110230000Y-90732000D01*
G75*
G02*
X110180000Y-90682000I0J50000D01*
G01*
X110180000Y-89158000D01*
G75*
G02*
X110230000Y-89108000I50000J0D01*
G01*
X112770000Y-89108000D01*
G75*
G02*
X112820000Y-89158000I0J-50000D01*
G01*
G37*
G36*
G01*
X112820000Y-86618000D02*
X112820000Y-88142000D01*
G75*
G02*
X112770000Y-88192000I-50000J0D01*
G01*
X110230000Y-88192000D01*
G75*
G02*
X110180000Y-88142000I0J50000D01*
G01*
X110180000Y-86618000D01*
G75*
G02*
X110230000Y-86568000I50000J0D01*
G01*
X112770000Y-86568000D01*
G75*
G02*
X112820000Y-86618000I0J-50000D01*
G01*
G37*
G36*
G01*
X112820000Y-84078000D02*
X112820000Y-85602000D01*
G75*
G02*
X112770000Y-85652000I-50000J0D01*
G01*
X110230000Y-85652000D01*
G75*
G02*
X110180000Y-85602000I0J50000D01*
G01*
X110180000Y-84078000D01*
G75*
G02*
X110230000Y-84028000I50000J0D01*
G01*
X112770000Y-84028000D01*
G75*
G02*
X112820000Y-84078000I0J-50000D01*
G01*
G37*
%TD*%
%TO.C,C9*%
G36*
G01*
X116610000Y-92302500D02*
X116610000Y-92697500D01*
G75*
G02*
X116437500Y-92870000I-172500J0D01*
G01*
X116092500Y-92870000D01*
G75*
G02*
X115920000Y-92697500I0J172500D01*
G01*
X115920000Y-92302500D01*
G75*
G02*
X116092500Y-92130000I172500J0D01*
G01*
X116437500Y-92130000D01*
G75*
G02*
X116610000Y-92302500I0J-172500D01*
G01*
G37*
G36*
G01*
X117580000Y-92302500D02*
X117580000Y-92697500D01*
G75*
G02*
X117407500Y-92870000I-172500J0D01*
G01*
X117062500Y-92870000D01*
G75*
G02*
X116890000Y-92697500I0J172500D01*
G01*
X116890000Y-92302500D01*
G75*
G02*
X117062500Y-92130000I172500J0D01*
G01*
X117407500Y-92130000D01*
G75*
G02*
X117580000Y-92302500I0J-172500D01*
G01*
G37*
%TD*%
%TO.C,C8*%
G36*
G01*
X127052500Y-94390000D02*
X127447500Y-94390000D01*
G75*
G02*
X127620000Y-94562500I0J-172500D01*
G01*
X127620000Y-94907500D01*
G75*
G02*
X127447500Y-95080000I-172500J0D01*
G01*
X127052500Y-95080000D01*
G75*
G02*
X126880000Y-94907500I0J172500D01*
G01*
X126880000Y-94562500D01*
G75*
G02*
X127052500Y-94390000I172500J0D01*
G01*
G37*
G36*
G01*
X127052500Y-93420000D02*
X127447500Y-93420000D01*
G75*
G02*
X127620000Y-93592500I0J-172500D01*
G01*
X127620000Y-93937500D01*
G75*
G02*
X127447500Y-94110000I-172500J0D01*
G01*
X127052500Y-94110000D01*
G75*
G02*
X126880000Y-93937500I0J172500D01*
G01*
X126880000Y-93592500D01*
G75*
G02*
X127052500Y-93420000I172500J0D01*
G01*
G37*
%TD*%
%TO.C,C7*%
G36*
G01*
X127447500Y-85610000D02*
X127052500Y-85610000D01*
G75*
G02*
X126880000Y-85437500I0J172500D01*
G01*
X126880000Y-85092500D01*
G75*
G02*
X127052500Y-84920000I172500J0D01*
G01*
X127447500Y-84920000D01*
G75*
G02*
X127620000Y-85092500I0J-172500D01*
G01*
X127620000Y-85437500D01*
G75*
G02*
X127447500Y-85610000I-172500J0D01*
G01*
G37*
G36*
G01*
X127447500Y-86580000D02*
X127052500Y-86580000D01*
G75*
G02*
X126880000Y-86407500I0J172500D01*
G01*
X126880000Y-86062500D01*
G75*
G02*
X127052500Y-85890000I172500J0D01*
G01*
X127447500Y-85890000D01*
G75*
G02*
X127620000Y-86062500I0J-172500D01*
G01*
X127620000Y-86407500D01*
G75*
G02*
X127447500Y-86580000I-172500J0D01*
G01*
G37*
%TD*%
%TO.C,C6*%
G36*
G01*
X118947500Y-85610000D02*
X118552500Y-85610000D01*
G75*
G02*
X118380000Y-85437500I0J172500D01*
G01*
X118380000Y-85092500D01*
G75*
G02*
X118552500Y-84920000I172500J0D01*
G01*
X118947500Y-84920000D01*
G75*
G02*
X119120000Y-85092500I0J-172500D01*
G01*
X119120000Y-85437500D01*
G75*
G02*
X118947500Y-85610000I-172500J0D01*
G01*
G37*
G36*
G01*
X118947500Y-86580000D02*
X118552500Y-86580000D01*
G75*
G02*
X118380000Y-86407500I0J172500D01*
G01*
X118380000Y-86062500D01*
G75*
G02*
X118552500Y-85890000I172500J0D01*
G01*
X118947500Y-85890000D01*
G75*
G02*
X119120000Y-86062500I0J-172500D01*
G01*
X119120000Y-86407500D01*
G75*
G02*
X118947500Y-86580000I-172500J0D01*
G01*
G37*
%TD*%
%TO.C,R3*%
G36*
G01*
X129390000Y-89447500D02*
X129390000Y-89052500D01*
G75*
G02*
X129562500Y-88880000I172500J0D01*
G01*
X129907500Y-88880000D01*
G75*
G02*
X130080000Y-89052500I0J-172500D01*
G01*
X130080000Y-89447500D01*
G75*
G02*
X129907500Y-89620000I-172500J0D01*
G01*
X129562500Y-89620000D01*
G75*
G02*
X129390000Y-89447500I0J172500D01*
G01*
G37*
G36*
G01*
X128420000Y-89447500D02*
X128420000Y-89052500D01*
G75*
G02*
X128592500Y-88880000I172500J0D01*
G01*
X128937500Y-88880000D01*
G75*
G02*
X129110000Y-89052500I0J-172500D01*
G01*
X129110000Y-89447500D01*
G75*
G02*
X128937500Y-89620000I-172500J0D01*
G01*
X128592500Y-89620000D01*
G75*
G02*
X128420000Y-89447500I0J172500D01*
G01*
G37*
%TD*%
%TO.C,D1*%
G36*
G01*
X132400000Y-84600000D02*
X132400000Y-83400000D01*
G75*
G02*
X132450000Y-83350000I50000J0D01*
G01*
X133350000Y-83350000D01*
G75*
G02*
X133400000Y-83400000I0J-50000D01*
G01*
X133400000Y-84600000D01*
G75*
G02*
X133350000Y-84650000I-50000J0D01*
G01*
X132450000Y-84650000D01*
G75*
G02*
X132400000Y-84600000I0J50000D01*
G01*
G37*
G36*
G01*
X129100000Y-84600000D02*
X129100000Y-83400000D01*
G75*
G02*
X129150000Y-83350000I50000J0D01*
G01*
X130050000Y-83350000D01*
G75*
G02*
X130100000Y-83400000I0J-50000D01*
G01*
X130100000Y-84600000D01*
G75*
G02*
X130050000Y-84650000I-50000J0D01*
G01*
X129150000Y-84650000D01*
G75*
G02*
X129100000Y-84600000I0J50000D01*
G01*
G37*
%TD*%
%TO.C,C5*%
G36*
G01*
X129731250Y-86600000D02*
X128768750Y-86600000D01*
G75*
G02*
X128500000Y-86331250I0J268750D01*
G01*
X128500000Y-85793750D01*
G75*
G02*
X128768750Y-85525000I268750J0D01*
G01*
X129731250Y-85525000D01*
G75*
G02*
X130000000Y-85793750I0J-268750D01*
G01*
X130000000Y-86331250D01*
G75*
G02*
X129731250Y-86600000I-268750J0D01*
G01*
G37*
G36*
G01*
X129731250Y-88475000D02*
X128768750Y-88475000D01*
G75*
G02*
X128500000Y-88206250I0J268750D01*
G01*
X128500000Y-87668750D01*
G75*
G02*
X128768750Y-87400000I268750J0D01*
G01*
X129731250Y-87400000D01*
G75*
G02*
X130000000Y-87668750I0J-268750D01*
G01*
X130000000Y-88206250D01*
G75*
G02*
X129731250Y-88475000I-268750J0D01*
G01*
G37*
%TD*%
%TO.C,C4*%
G36*
G01*
X131600000Y-89268750D02*
X131600000Y-90231250D01*
G75*
G02*
X131331250Y-90500000I-268750J0D01*
G01*
X130793750Y-90500000D01*
G75*
G02*
X130525000Y-90231250I0J268750D01*
G01*
X130525000Y-89268750D01*
G75*
G02*
X130793750Y-89000000I268750J0D01*
G01*
X131331250Y-89000000D01*
G75*
G02*
X131600000Y-89268750I0J-268750D01*
G01*
G37*
G36*
G01*
X133475000Y-89268750D02*
X133475000Y-90231250D01*
G75*
G02*
X133206250Y-90500000I-268750J0D01*
G01*
X132668750Y-90500000D01*
G75*
G02*
X132400000Y-90231250I0J268750D01*
G01*
X132400000Y-89268750D01*
G75*
G02*
X132668750Y-89000000I268750J0D01*
G01*
X133206250Y-89000000D01*
G75*
G02*
X133475000Y-89268750I0J-268750D01*
G01*
G37*
%TD*%
%TO.C,U1*%
G36*
G01*
X132500000Y-87400000D02*
X132500000Y-86600000D01*
G75*
G02*
X132550000Y-86550000I50000J0D01*
G01*
X133450000Y-86550000D01*
G75*
G02*
X133500000Y-86600000I0J-50000D01*
G01*
X133500000Y-87400000D01*
G75*
G02*
X133450000Y-87450000I-50000J0D01*
G01*
X132550000Y-87450000D01*
G75*
G02*
X132500000Y-87400000I0J50000D01*
G01*
G37*
G36*
G01*
X130500000Y-88350000D02*
X130500000Y-87550000D01*
G75*
G02*
X130550000Y-87500000I50000J0D01*
G01*
X131450000Y-87500000D01*
G75*
G02*
X131500000Y-87550000I0J-50000D01*
G01*
X131500000Y-88350000D01*
G75*
G02*
X131450000Y-88400000I-50000J0D01*
G01*
X130550000Y-88400000D01*
G75*
G02*
X130500000Y-88350000I0J50000D01*
G01*
G37*
G36*
G01*
X130500000Y-86450000D02*
X130500000Y-85650000D01*
G75*
G02*
X130550000Y-85600000I50000J0D01*
G01*
X131450000Y-85600000D01*
G75*
G02*
X131500000Y-85650000I0J-50000D01*
G01*
X131500000Y-86450000D01*
G75*
G02*
X131450000Y-86500000I-50000J0D01*
G01*
X130550000Y-86500000D01*
G75*
G02*
X130500000Y-86450000I0J50000D01*
G01*
G37*
%TD*%
%TO.C,U2*%
G36*
G01*
X120050000Y-86525000D02*
X120050000Y-85150000D01*
G75*
G02*
X120150000Y-85050000I100000J0D01*
G01*
X120350000Y-85050000D01*
G75*
G02*
X120450000Y-85150000I0J-100000D01*
G01*
X120450000Y-86525000D01*
G75*
G02*
X120350000Y-86625000I-100000J0D01*
G01*
X120150000Y-86625000D01*
G75*
G02*
X120050000Y-86525000I0J100000D01*
G01*
G37*
G36*
G01*
X120550000Y-86525000D02*
X120550000Y-85150000D01*
G75*
G02*
X120650000Y-85050000I100000J0D01*
G01*
X120850000Y-85050000D01*
G75*
G02*
X120950000Y-85150000I0J-100000D01*
G01*
X120950000Y-86525000D01*
G75*
G02*
X120850000Y-86625000I-100000J0D01*
G01*
X120650000Y-86625000D01*
G75*
G02*
X120550000Y-86525000I0J100000D01*
G01*
G37*
G36*
G01*
X121050000Y-86525000D02*
X121050000Y-85150000D01*
G75*
G02*
X121150000Y-85050000I100000J0D01*
G01*
X121350000Y-85050000D01*
G75*
G02*
X121450000Y-85150000I0J-100000D01*
G01*
X121450000Y-86525000D01*
G75*
G02*
X121350000Y-86625000I-100000J0D01*
G01*
X121150000Y-86625000D01*
G75*
G02*
X121050000Y-86525000I0J100000D01*
G01*
G37*
G36*
G01*
X121550000Y-86525000D02*
X121550000Y-85150000D01*
G75*
G02*
X121650000Y-85050000I100000J0D01*
G01*
X121850000Y-85050000D01*
G75*
G02*
X121950000Y-85150000I0J-100000D01*
G01*
X121950000Y-86525000D01*
G75*
G02*
X121850000Y-86625000I-100000J0D01*
G01*
X121650000Y-86625000D01*
G75*
G02*
X121550000Y-86525000I0J100000D01*
G01*
G37*
G36*
G01*
X122050000Y-86525000D02*
X122050000Y-85150000D01*
G75*
G02*
X122150000Y-85050000I100000J0D01*
G01*
X122350000Y-85050000D01*
G75*
G02*
X122450000Y-85150000I0J-100000D01*
G01*
X122450000Y-86525000D01*
G75*
G02*
X122350000Y-86625000I-100000J0D01*
G01*
X122150000Y-86625000D01*
G75*
G02*
X122050000Y-86525000I0J100000D01*
G01*
G37*
G36*
G01*
X122550000Y-86525000D02*
X122550000Y-85150000D01*
G75*
G02*
X122650000Y-85050000I100000J0D01*
G01*
X122850000Y-85050000D01*
G75*
G02*
X122950000Y-85150000I0J-100000D01*
G01*
X122950000Y-86525000D01*
G75*
G02*
X122850000Y-86625000I-100000J0D01*
G01*
X122650000Y-86625000D01*
G75*
G02*
X122550000Y-86525000I0J100000D01*
G01*
G37*
G36*
G01*
X123050000Y-86525000D02*
X123050000Y-85150000D01*
G75*
G02*
X123150000Y-85050000I100000J0D01*
G01*
X123350000Y-85050000D01*
G75*
G02*
X123450000Y-85150000I0J-100000D01*
G01*
X123450000Y-86525000D01*
G75*
G02*
X123350000Y-86625000I-100000J0D01*
G01*
X123150000Y-86625000D01*
G75*
G02*
X123050000Y-86525000I0J100000D01*
G01*
G37*
G36*
G01*
X123550000Y-86525000D02*
X123550000Y-85150000D01*
G75*
G02*
X123650000Y-85050000I100000J0D01*
G01*
X123850000Y-85050000D01*
G75*
G02*
X123950000Y-85150000I0J-100000D01*
G01*
X123950000Y-86525000D01*
G75*
G02*
X123850000Y-86625000I-100000J0D01*
G01*
X123650000Y-86625000D01*
G75*
G02*
X123550000Y-86525000I0J100000D01*
G01*
G37*
G36*
G01*
X124050000Y-86525000D02*
X124050000Y-85150000D01*
G75*
G02*
X124150000Y-85050000I100000J0D01*
G01*
X124350000Y-85050000D01*
G75*
G02*
X124450000Y-85150000I0J-100000D01*
G01*
X124450000Y-86525000D01*
G75*
G02*
X124350000Y-86625000I-100000J0D01*
G01*
X124150000Y-86625000D01*
G75*
G02*
X124050000Y-86525000I0J100000D01*
G01*
G37*
G36*
G01*
X124550000Y-86525000D02*
X124550000Y-85150000D01*
G75*
G02*
X124650000Y-85050000I100000J0D01*
G01*
X124850000Y-85050000D01*
G75*
G02*
X124950000Y-85150000I0J-100000D01*
G01*
X124950000Y-86525000D01*
G75*
G02*
X124850000Y-86625000I-100000J0D01*
G01*
X124650000Y-86625000D01*
G75*
G02*
X124550000Y-86525000I0J100000D01*
G01*
G37*
G36*
G01*
X125050000Y-86525000D02*
X125050000Y-85150000D01*
G75*
G02*
X125150000Y-85050000I100000J0D01*
G01*
X125350000Y-85050000D01*
G75*
G02*
X125450000Y-85150000I0J-100000D01*
G01*
X125450000Y-86525000D01*
G75*
G02*
X125350000Y-86625000I-100000J0D01*
G01*
X125150000Y-86625000D01*
G75*
G02*
X125050000Y-86525000I0J100000D01*
G01*
G37*
G36*
G01*
X125550000Y-86525000D02*
X125550000Y-85150000D01*
G75*
G02*
X125650000Y-85050000I100000J0D01*
G01*
X125850000Y-85050000D01*
G75*
G02*
X125950000Y-85150000I0J-100000D01*
G01*
X125950000Y-86525000D01*
G75*
G02*
X125850000Y-86625000I-100000J0D01*
G01*
X125650000Y-86625000D01*
G75*
G02*
X125550000Y-86525000I0J100000D01*
G01*
G37*
G36*
G01*
X126375000Y-87350000D02*
X126375000Y-87150000D01*
G75*
G02*
X126475000Y-87050000I100000J0D01*
G01*
X127850000Y-87050000D01*
G75*
G02*
X127950000Y-87150000I0J-100000D01*
G01*
X127950000Y-87350000D01*
G75*
G02*
X127850000Y-87450000I-100000J0D01*
G01*
X126475000Y-87450000D01*
G75*
G02*
X126375000Y-87350000I0J100000D01*
G01*
G37*
G36*
G01*
X126375000Y-87850000D02*
X126375000Y-87650000D01*
G75*
G02*
X126475000Y-87550000I100000J0D01*
G01*
X127850000Y-87550000D01*
G75*
G02*
X127950000Y-87650000I0J-100000D01*
G01*
X127950000Y-87850000D01*
G75*
G02*
X127850000Y-87950000I-100000J0D01*
G01*
X126475000Y-87950000D01*
G75*
G02*
X126375000Y-87850000I0J100000D01*
G01*
G37*
G36*
G01*
X126375000Y-88350000D02*
X126375000Y-88150000D01*
G75*
G02*
X126475000Y-88050000I100000J0D01*
G01*
X127850000Y-88050000D01*
G75*
G02*
X127950000Y-88150000I0J-100000D01*
G01*
X127950000Y-88350000D01*
G75*
G02*
X127850000Y-88450000I-100000J0D01*
G01*
X126475000Y-88450000D01*
G75*
G02*
X126375000Y-88350000I0J100000D01*
G01*
G37*
G36*
G01*
X126375000Y-88850000D02*
X126375000Y-88650000D01*
G75*
G02*
X126475000Y-88550000I100000J0D01*
G01*
X127850000Y-88550000D01*
G75*
G02*
X127950000Y-88650000I0J-100000D01*
G01*
X127950000Y-88850000D01*
G75*
G02*
X127850000Y-88950000I-100000J0D01*
G01*
X126475000Y-88950000D01*
G75*
G02*
X126375000Y-88850000I0J100000D01*
G01*
G37*
G36*
G01*
X126375000Y-89350000D02*
X126375000Y-89150000D01*
G75*
G02*
X126475000Y-89050000I100000J0D01*
G01*
X127850000Y-89050000D01*
G75*
G02*
X127950000Y-89150000I0J-100000D01*
G01*
X127950000Y-89350000D01*
G75*
G02*
X127850000Y-89450000I-100000J0D01*
G01*
X126475000Y-89450000D01*
G75*
G02*
X126375000Y-89350000I0J100000D01*
G01*
G37*
G36*
G01*
X126375000Y-89850000D02*
X126375000Y-89650000D01*
G75*
G02*
X126475000Y-89550000I100000J0D01*
G01*
X127850000Y-89550000D01*
G75*
G02*
X127950000Y-89650000I0J-100000D01*
G01*
X127950000Y-89850000D01*
G75*
G02*
X127850000Y-89950000I-100000J0D01*
G01*
X126475000Y-89950000D01*
G75*
G02*
X126375000Y-89850000I0J100000D01*
G01*
G37*
G36*
G01*
X126375000Y-90350000D02*
X126375000Y-90150000D01*
G75*
G02*
X126475000Y-90050000I100000J0D01*
G01*
X127850000Y-90050000D01*
G75*
G02*
X127950000Y-90150000I0J-100000D01*
G01*
X127950000Y-90350000D01*
G75*
G02*
X127850000Y-90450000I-100000J0D01*
G01*
X126475000Y-90450000D01*
G75*
G02*
X126375000Y-90350000I0J100000D01*
G01*
G37*
G36*
G01*
X126375000Y-90850000D02*
X126375000Y-90650000D01*
G75*
G02*
X126475000Y-90550000I100000J0D01*
G01*
X127850000Y-90550000D01*
G75*
G02*
X127950000Y-90650000I0J-100000D01*
G01*
X127950000Y-90850000D01*
G75*
G02*
X127850000Y-90950000I-100000J0D01*
G01*
X126475000Y-90950000D01*
G75*
G02*
X126375000Y-90850000I0J100000D01*
G01*
G37*
G36*
G01*
X126375000Y-91350000D02*
X126375000Y-91150000D01*
G75*
G02*
X126475000Y-91050000I100000J0D01*
G01*
X127850000Y-91050000D01*
G75*
G02*
X127950000Y-91150000I0J-100000D01*
G01*
X127950000Y-91350000D01*
G75*
G02*
X127850000Y-91450000I-100000J0D01*
G01*
X126475000Y-91450000D01*
G75*
G02*
X126375000Y-91350000I0J100000D01*
G01*
G37*
G36*
G01*
X126375000Y-91850000D02*
X126375000Y-91650000D01*
G75*
G02*
X126475000Y-91550000I100000J0D01*
G01*
X127850000Y-91550000D01*
G75*
G02*
X127950000Y-91650000I0J-100000D01*
G01*
X127950000Y-91850000D01*
G75*
G02*
X127850000Y-91950000I-100000J0D01*
G01*
X126475000Y-91950000D01*
G75*
G02*
X126375000Y-91850000I0J100000D01*
G01*
G37*
G36*
G01*
X126375000Y-92350000D02*
X126375000Y-92150000D01*
G75*
G02*
X126475000Y-92050000I100000J0D01*
G01*
X127850000Y-92050000D01*
G75*
G02*
X127950000Y-92150000I0J-100000D01*
G01*
X127950000Y-92350000D01*
G75*
G02*
X127850000Y-92450000I-100000J0D01*
G01*
X126475000Y-92450000D01*
G75*
G02*
X126375000Y-92350000I0J100000D01*
G01*
G37*
G36*
G01*
X126375000Y-92850000D02*
X126375000Y-92650000D01*
G75*
G02*
X126475000Y-92550000I100000J0D01*
G01*
X127850000Y-92550000D01*
G75*
G02*
X127950000Y-92650000I0J-100000D01*
G01*
X127950000Y-92850000D01*
G75*
G02*
X127850000Y-92950000I-100000J0D01*
G01*
X126475000Y-92950000D01*
G75*
G02*
X126375000Y-92850000I0J100000D01*
G01*
G37*
G36*
G01*
X125550000Y-94850000D02*
X125550000Y-93475000D01*
G75*
G02*
X125650000Y-93375000I100000J0D01*
G01*
X125850000Y-93375000D01*
G75*
G02*
X125950000Y-93475000I0J-100000D01*
G01*
X125950000Y-94850000D01*
G75*
G02*
X125850000Y-94950000I-100000J0D01*
G01*
X125650000Y-94950000D01*
G75*
G02*
X125550000Y-94850000I0J100000D01*
G01*
G37*
G36*
G01*
X125050000Y-94850000D02*
X125050000Y-93475000D01*
G75*
G02*
X125150000Y-93375000I100000J0D01*
G01*
X125350000Y-93375000D01*
G75*
G02*
X125450000Y-93475000I0J-100000D01*
G01*
X125450000Y-94850000D01*
G75*
G02*
X125350000Y-94950000I-100000J0D01*
G01*
X125150000Y-94950000D01*
G75*
G02*
X125050000Y-94850000I0J100000D01*
G01*
G37*
G36*
G01*
X124550000Y-94850000D02*
X124550000Y-93475000D01*
G75*
G02*
X124650000Y-93375000I100000J0D01*
G01*
X124850000Y-93375000D01*
G75*
G02*
X124950000Y-93475000I0J-100000D01*
G01*
X124950000Y-94850000D01*
G75*
G02*
X124850000Y-94950000I-100000J0D01*
G01*
X124650000Y-94950000D01*
G75*
G02*
X124550000Y-94850000I0J100000D01*
G01*
G37*
G36*
G01*
X124050000Y-94850000D02*
X124050000Y-93475000D01*
G75*
G02*
X124150000Y-93375000I100000J0D01*
G01*
X124350000Y-93375000D01*
G75*
G02*
X124450000Y-93475000I0J-100000D01*
G01*
X124450000Y-94850000D01*
G75*
G02*
X124350000Y-94950000I-100000J0D01*
G01*
X124150000Y-94950000D01*
G75*
G02*
X124050000Y-94850000I0J100000D01*
G01*
G37*
G36*
G01*
X123550000Y-94850000D02*
X123550000Y-93475000D01*
G75*
G02*
X123650000Y-93375000I100000J0D01*
G01*
X123850000Y-93375000D01*
G75*
G02*
X123950000Y-93475000I0J-100000D01*
G01*
X123950000Y-94850000D01*
G75*
G02*
X123850000Y-94950000I-100000J0D01*
G01*
X123650000Y-94950000D01*
G75*
G02*
X123550000Y-94850000I0J100000D01*
G01*
G37*
G36*
G01*
X123050000Y-94850000D02*
X123050000Y-93475000D01*
G75*
G02*
X123150000Y-93375000I100000J0D01*
G01*
X123350000Y-93375000D01*
G75*
G02*
X123450000Y-93475000I0J-100000D01*
G01*
X123450000Y-94850000D01*
G75*
G02*
X123350000Y-94950000I-100000J0D01*
G01*
X123150000Y-94950000D01*
G75*
G02*
X123050000Y-94850000I0J100000D01*
G01*
G37*
G36*
G01*
X122550000Y-94850000D02*
X122550000Y-93475000D01*
G75*
G02*
X122650000Y-93375000I100000J0D01*
G01*
X122850000Y-93375000D01*
G75*
G02*
X122950000Y-93475000I0J-100000D01*
G01*
X122950000Y-94850000D01*
G75*
G02*
X122850000Y-94950000I-100000J0D01*
G01*
X122650000Y-94950000D01*
G75*
G02*
X122550000Y-94850000I0J100000D01*
G01*
G37*
G36*
G01*
X122050000Y-94850000D02*
X122050000Y-93475000D01*
G75*
G02*
X122150000Y-93375000I100000J0D01*
G01*
X122350000Y-93375000D01*
G75*
G02*
X122450000Y-93475000I0J-100000D01*
G01*
X122450000Y-94850000D01*
G75*
G02*
X122350000Y-94950000I-100000J0D01*
G01*
X122150000Y-94950000D01*
G75*
G02*
X122050000Y-94850000I0J100000D01*
G01*
G37*
G36*
G01*
X121550000Y-94850000D02*
X121550000Y-93475000D01*
G75*
G02*
X121650000Y-93375000I100000J0D01*
G01*
X121850000Y-93375000D01*
G75*
G02*
X121950000Y-93475000I0J-100000D01*
G01*
X121950000Y-94850000D01*
G75*
G02*
X121850000Y-94950000I-100000J0D01*
G01*
X121650000Y-94950000D01*
G75*
G02*
X121550000Y-94850000I0J100000D01*
G01*
G37*
G36*
G01*
X121050000Y-94850000D02*
X121050000Y-93475000D01*
G75*
G02*
X121150000Y-93375000I100000J0D01*
G01*
X121350000Y-93375000D01*
G75*
G02*
X121450000Y-93475000I0J-100000D01*
G01*
X121450000Y-94850000D01*
G75*
G02*
X121350000Y-94950000I-100000J0D01*
G01*
X121150000Y-94950000D01*
G75*
G02*
X121050000Y-94850000I0J100000D01*
G01*
G37*
G36*
G01*
X120550000Y-94850000D02*
X120550000Y-93475000D01*
G75*
G02*
X120650000Y-93375000I100000J0D01*
G01*
X120850000Y-93375000D01*
G75*
G02*
X120950000Y-93475000I0J-100000D01*
G01*
X120950000Y-94850000D01*
G75*
G02*
X120850000Y-94950000I-100000J0D01*
G01*
X120650000Y-94950000D01*
G75*
G02*
X120550000Y-94850000I0J100000D01*
G01*
G37*
G36*
G01*
X120050000Y-94850000D02*
X120050000Y-93475000D01*
G75*
G02*
X120150000Y-93375000I100000J0D01*
G01*
X120350000Y-93375000D01*
G75*
G02*
X120450000Y-93475000I0J-100000D01*
G01*
X120450000Y-94850000D01*
G75*
G02*
X120350000Y-94950000I-100000J0D01*
G01*
X120150000Y-94950000D01*
G75*
G02*
X120050000Y-94850000I0J100000D01*
G01*
G37*
G36*
G01*
X118050000Y-92850000D02*
X118050000Y-92650000D01*
G75*
G02*
X118150000Y-92550000I100000J0D01*
G01*
X119525000Y-92550000D01*
G75*
G02*
X119625000Y-92650000I0J-100000D01*
G01*
X119625000Y-92850000D01*
G75*
G02*
X119525000Y-92950000I-100000J0D01*
G01*
X118150000Y-92950000D01*
G75*
G02*
X118050000Y-92850000I0J100000D01*
G01*
G37*
G36*
G01*
X118050000Y-92350000D02*
X118050000Y-92150000D01*
G75*
G02*
X118150000Y-92050000I100000J0D01*
G01*
X119525000Y-92050000D01*
G75*
G02*
X119625000Y-92150000I0J-100000D01*
G01*
X119625000Y-92350000D01*
G75*
G02*
X119525000Y-92450000I-100000J0D01*
G01*
X118150000Y-92450000D01*
G75*
G02*
X118050000Y-92350000I0J100000D01*
G01*
G37*
G36*
G01*
X118050000Y-91850000D02*
X118050000Y-91650000D01*
G75*
G02*
X118150000Y-91550000I100000J0D01*
G01*
X119525000Y-91550000D01*
G75*
G02*
X119625000Y-91650000I0J-100000D01*
G01*
X119625000Y-91850000D01*
G75*
G02*
X119525000Y-91950000I-100000J0D01*
G01*
X118150000Y-91950000D01*
G75*
G02*
X118050000Y-91850000I0J100000D01*
G01*
G37*
G36*
G01*
X118050000Y-91350000D02*
X118050000Y-91150000D01*
G75*
G02*
X118150000Y-91050000I100000J0D01*
G01*
X119525000Y-91050000D01*
G75*
G02*
X119625000Y-91150000I0J-100000D01*
G01*
X119625000Y-91350000D01*
G75*
G02*
X119525000Y-91450000I-100000J0D01*
G01*
X118150000Y-91450000D01*
G75*
G02*
X118050000Y-91350000I0J100000D01*
G01*
G37*
G36*
G01*
X118050000Y-90850000D02*
X118050000Y-90650000D01*
G75*
G02*
X118150000Y-90550000I100000J0D01*
G01*
X119525000Y-90550000D01*
G75*
G02*
X119625000Y-90650000I0J-100000D01*
G01*
X119625000Y-90850000D01*
G75*
G02*
X119525000Y-90950000I-100000J0D01*
G01*
X118150000Y-90950000D01*
G75*
G02*
X118050000Y-90850000I0J100000D01*
G01*
G37*
G36*
G01*
X118050000Y-90350000D02*
X118050000Y-90150000D01*
G75*
G02*
X118150000Y-90050000I100000J0D01*
G01*
X119525000Y-90050000D01*
G75*
G02*
X119625000Y-90150000I0J-100000D01*
G01*
X119625000Y-90350000D01*
G75*
G02*
X119525000Y-90450000I-100000J0D01*
G01*
X118150000Y-90450000D01*
G75*
G02*
X118050000Y-90350000I0J100000D01*
G01*
G37*
G36*
G01*
X118050000Y-89850000D02*
X118050000Y-89650000D01*
G75*
G02*
X118150000Y-89550000I100000J0D01*
G01*
X119525000Y-89550000D01*
G75*
G02*
X119625000Y-89650000I0J-100000D01*
G01*
X119625000Y-89850000D01*
G75*
G02*
X119525000Y-89950000I-100000J0D01*
G01*
X118150000Y-89950000D01*
G75*
G02*
X118050000Y-89850000I0J100000D01*
G01*
G37*
G36*
G01*
X118050000Y-89350000D02*
X118050000Y-89150000D01*
G75*
G02*
X118150000Y-89050000I100000J0D01*
G01*
X119525000Y-89050000D01*
G75*
G02*
X119625000Y-89150000I0J-100000D01*
G01*
X119625000Y-89350000D01*
G75*
G02*
X119525000Y-89450000I-100000J0D01*
G01*
X118150000Y-89450000D01*
G75*
G02*
X118050000Y-89350000I0J100000D01*
G01*
G37*
G36*
G01*
X118050000Y-88850000D02*
X118050000Y-88650000D01*
G75*
G02*
X118150000Y-88550000I100000J0D01*
G01*
X119525000Y-88550000D01*
G75*
G02*
X119625000Y-88650000I0J-100000D01*
G01*
X119625000Y-88850000D01*
G75*
G02*
X119525000Y-88950000I-100000J0D01*
G01*
X118150000Y-88950000D01*
G75*
G02*
X118050000Y-88850000I0J100000D01*
G01*
G37*
G36*
G01*
X118050000Y-88350000D02*
X118050000Y-88150000D01*
G75*
G02*
X118150000Y-88050000I100000J0D01*
G01*
X119525000Y-88050000D01*
G75*
G02*
X119625000Y-88150000I0J-100000D01*
G01*
X119625000Y-88350000D01*
G75*
G02*
X119525000Y-88450000I-100000J0D01*
G01*
X118150000Y-88450000D01*
G75*
G02*
X118050000Y-88350000I0J100000D01*
G01*
G37*
G36*
G01*
X118050000Y-87850000D02*
X118050000Y-87650000D01*
G75*
G02*
X118150000Y-87550000I100000J0D01*
G01*
X119525000Y-87550000D01*
G75*
G02*
X119625000Y-87650000I0J-100000D01*
G01*
X119625000Y-87850000D01*
G75*
G02*
X119525000Y-87950000I-100000J0D01*
G01*
X118150000Y-87950000D01*
G75*
G02*
X118050000Y-87850000I0J100000D01*
G01*
G37*
G36*
G01*
X118050000Y-87350000D02*
X118050000Y-87150000D01*
G75*
G02*
X118150000Y-87050000I100000J0D01*
G01*
X119525000Y-87050000D01*
G75*
G02*
X119625000Y-87150000I0J-100000D01*
G01*
X119625000Y-87350000D01*
G75*
G02*
X119525000Y-87450000I-100000J0D01*
G01*
X118150000Y-87450000D01*
G75*
G02*
X118050000Y-87350000I0J100000D01*
G01*
G37*
%TD*%
M02*
