G04 #@! TF.GenerationSoftware,KiCad,Pcbnew,5.1.9+dfsg1-1*
G04 #@! TF.CreationDate,2021-07-12T18:29:50+08:00*
G04 #@! TF.ProjectId,stlink,73746c69-6e6b-42e6-9b69-6361645f7063,a*
G04 #@! TF.SameCoordinates,Original*
G04 #@! TF.FileFunction,Copper,L4,Bot*
G04 #@! TF.FilePolarity,Positive*
%FSLAX46Y46*%
G04 Gerber Fmt 4.6, Leading zero omitted, Abs format (unit mm)*
G04 Created by KiCad (PCBNEW 5.1.9+dfsg1-1) date 2021-07-12 18:29:50*
%MOMM*%
%LPD*%
G01*
G04 APERTURE LIST*
G04 #@! TA.AperFunction,EtchedComponent*
%ADD10C,0.100000*%
G04 #@! TD*
G04 #@! TA.AperFunction,SMDPad,CuDef*
%ADD11R,1.000000X1.500000*%
G04 #@! TD*
G04 #@! TA.AperFunction,SMDPad,CuDef*
%ADD12C,1.000000*%
G04 #@! TD*
G04 #@! TA.AperFunction,ComponentPad*
%ADD13C,1.800000*%
G04 #@! TD*
G04 #@! TA.AperFunction,ComponentPad*
%ADD14C,2.200000*%
G04 #@! TD*
G04 #@! TA.AperFunction,ComponentPad*
%ADD15O,3.500000X2.000000*%
G04 #@! TD*
G04 #@! TA.AperFunction,SMDPad,CuDef*
%ADD16R,2.540000X1.524000*%
G04 #@! TD*
G04 #@! TA.AperFunction,ViaPad*
%ADD17C,0.700000*%
G04 #@! TD*
G04 #@! TA.AperFunction,Conductor*
%ADD18C,0.228600*%
G04 #@! TD*
G04 #@! TA.AperFunction,Conductor*
%ADD19C,0.152400*%
G04 #@! TD*
G04 #@! TA.AperFunction,Conductor*
%ADD20C,0.100000*%
G04 #@! TD*
G04 APERTURE END LIST*
D10*
G04 #@! TO.C,JP1*
G36*
X121550000Y-95050000D02*
G01*
X122050000Y-95050000D01*
X122050000Y-94450000D01*
X121550000Y-94450000D01*
X121550000Y-95050000D01*
G37*
G04 #@! TD*
D11*
G04 #@! TO.P,JP1,2*
G04 #@! TO.N,Net-(JP1-Pad2)*
X122450000Y-94750000D03*
G04 #@! TO.P,JP1,3*
G04 #@! TO.N,T_PWR*
X123750000Y-94750000D03*
G04 #@! TO.P,JP1,1*
G04 #@! TO.N,+3V3*
X121150000Y-94750000D03*
G04 #@! TD*
D12*
G04 #@! TO.P,TP5,1*
G04 #@! TO.N,GND*
X122936000Y-83500000D03*
G04 #@! TD*
G04 #@! TO.P,TP4,1*
G04 #@! TO.N,B0*
X124968000Y-83500000D03*
G04 #@! TD*
G04 #@! TO.P,TP1,1*
G04 #@! TO.N,+3V3*
X131064000Y-83500000D03*
G04 #@! TD*
G04 #@! TO.P,TP3,1*
G04 #@! TO.N,CLK*
X127000000Y-83500000D03*
G04 #@! TD*
G04 #@! TO.P,TP2,1*
G04 #@! TO.N,DIO*
X129000000Y-83500000D03*
G04 #@! TD*
D13*
G04 #@! TO.P,J1,1*
G04 #@! TO.N,VBUS*
X134900000Y-86500000D03*
G04 #@! TO.P,J1,2*
G04 #@! TO.N,D-*
X134900000Y-89000000D03*
G04 #@! TO.P,J1,3*
G04 #@! TO.N,D+*
X134900000Y-91000000D03*
G04 #@! TO.P,J1,4*
G04 #@! TO.N,GND*
X134900000Y-93500000D03*
D14*
G04 #@! TO.P,J1,5*
X137000000Y-87700000D03*
X137000000Y-92300000D03*
D15*
X137000000Y-84150000D03*
X137000000Y-95850000D03*
G04 #@! TD*
D16*
G04 #@! TO.P,J2,9*
G04 #@! TO.N,T_TX*
X111500000Y-95000000D03*
G04 #@! TO.P,J2,7*
G04 #@! TO.N,T_SWO*
X111500000Y-92460000D03*
G04 #@! TO.P,J2,5*
G04 #@! TO.N,T_CLK*
X111500000Y-89920000D03*
G04 #@! TO.P,J2,3*
G04 #@! TO.N,T_PWR*
X111500000Y-87380000D03*
G04 #@! TO.P,J2,1*
G04 #@! TO.N,+5V*
X111500000Y-84840000D03*
G04 #@! TD*
D17*
G04 #@! TO.N,GND*
X115750000Y-87500000D03*
X132000000Y-86000000D03*
X133500000Y-85250000D03*
X139000000Y-86000000D03*
X139000000Y-90000000D03*
X134500000Y-84000000D03*
X115750000Y-91250000D03*
X121400000Y-90100000D03*
X139000000Y-94200000D03*
X113100000Y-93700000D03*
X119500000Y-85250000D03*
X115000000Y-96750000D03*
X121250000Y-87750000D03*
X122500000Y-87750000D03*
X124000000Y-96750000D03*
X125000000Y-96750000D03*
G04 #@! TO.N,+5V*
X128000000Y-84500000D03*
X111500000Y-83500000D03*
G04 #@! TO.N,+3V3*
X131000000Y-87000000D03*
X132000000Y-88000000D03*
X119500000Y-86500000D03*
X129750000Y-93750000D03*
X120700000Y-90800000D03*
X119500000Y-95500000D03*
X113786622Y-92000139D03*
X126500000Y-94250000D03*
X132000000Y-87000000D03*
X113500000Y-84750000D03*
X113500000Y-85750000D03*
G04 #@! TO.N,D-*
X128755363Y-89321674D03*
G04 #@! TO.N,D+*
X129750000Y-89250000D03*
G04 #@! TO.N,LED*
X123600000Y-92800000D03*
X116750000Y-93750000D03*
G04 #@! TO.N,T_DIO*
X113272402Y-89250000D03*
X125000000Y-91500000D03*
G04 #@! TO.N,T_CLK*
X125750000Y-92250000D03*
G04 #@! TO.N,CLK*
X126000000Y-84500000D03*
G04 #@! TO.N,T_RX*
X111500000Y-96264402D03*
X119250000Y-94000000D03*
G04 #@! TO.N,T_TX*
X118250000Y-94000000D03*
G04 #@! TO.N,T_RST*
X122500000Y-92800000D03*
X113300000Y-92700000D03*
G04 #@! TO.N,T_SWO*
X122100000Y-90800000D03*
G04 #@! TO.N,DIO*
X125400000Y-88000000D03*
G04 #@! TO.N,B0*
X122500000Y-84500000D03*
G04 #@! TO.N,RENUM*
X123800000Y-87400000D03*
X129500000Y-95250000D03*
G04 #@! TO.N,Net-(R10-Pad1)*
X121000000Y-92800000D03*
X119000000Y-96250000D03*
G04 #@! TO.N,Net-(JP1-Pad2)*
X123000000Y-96000000D03*
G04 #@! TD*
D18*
G04 #@! TO.N,+5V*
X111500000Y-84840000D02*
X111500000Y-83500000D01*
G04 #@! TO.N,+3V3*
X131064000Y-86936000D02*
X131000000Y-87000000D01*
X131064000Y-83500000D02*
X131064000Y-86936000D01*
X120250000Y-94750000D02*
X119500000Y-95500000D01*
X121150000Y-94750000D02*
X120250000Y-94750000D01*
G04 #@! TO.N,D-*
X134533298Y-88633298D02*
X129443739Y-88633298D01*
X134900000Y-89000000D02*
X134533298Y-88633298D01*
X129443739Y-88633298D02*
X128755363Y-89321674D01*
G04 #@! TO.N,D+*
X131500000Y-91000000D02*
X129750000Y-89250000D01*
X134900000Y-91000000D02*
X131500000Y-91000000D01*
G04 #@! TO.N,LED*
X117497713Y-93002287D02*
X116750000Y-93750000D01*
X117858881Y-93002287D02*
X117497713Y-93002287D01*
X123600000Y-92800000D02*
X122602288Y-91802288D01*
X119058876Y-91802289D02*
X117858881Y-93002287D01*
X122602288Y-91802288D02*
X119058876Y-91802289D01*
G04 #@! TO.N,T_DIO*
X113622401Y-88900001D02*
X122894975Y-88900001D01*
X125000000Y-91005026D02*
X125000000Y-91500000D01*
X113272402Y-89250000D02*
X113622401Y-88900001D01*
X122894975Y-88900001D02*
X125000000Y-91005026D01*
G04 #@! TO.N,T_CLK*
X124662718Y-92250000D02*
X125750000Y-92250000D01*
X123406359Y-90993641D02*
X124662718Y-92250000D01*
X123406359Y-90993641D02*
X123406359Y-90406359D01*
X123406359Y-90406359D02*
X122400000Y-89400000D01*
X119540000Y-89400000D02*
X119020000Y-89920000D01*
X122400000Y-89400000D02*
X119540000Y-89400000D01*
X111500000Y-89920000D02*
X119020000Y-89920000D01*
G04 #@! TO.N,CLK*
X127000000Y-83500000D02*
X126000000Y-84500000D01*
G04 #@! TO.N,T_RX*
X117116701Y-96133299D02*
X119250000Y-94000000D01*
X114703983Y-96133299D02*
X117116701Y-96133299D01*
X114572880Y-96264402D02*
X114703983Y-96133299D01*
X111500000Y-96264402D02*
X114572880Y-96264402D01*
G04 #@! TO.N,T_TX*
X117250000Y-95000000D02*
X111500000Y-95000000D01*
X118250000Y-94000000D02*
X117250000Y-95000000D01*
G04 #@! TO.N,T_RST*
X117366701Y-94046017D02*
X117012718Y-94400000D01*
X117655530Y-93383298D02*
X117366701Y-93672127D01*
X117366701Y-93672127D02*
X117366701Y-94046017D01*
X118016701Y-93383298D02*
X117655530Y-93383298D01*
X122500000Y-92800000D02*
X121883299Y-92183299D01*
X121883299Y-92183299D02*
X119216697Y-92183299D01*
X119216697Y-92183299D02*
X118016701Y-93383298D01*
X117012718Y-94400000D02*
X114800000Y-94400000D01*
X113300000Y-92900000D02*
X113300000Y-92700000D01*
X114800000Y-94400000D02*
X113300000Y-92900000D01*
G04 #@! TO.N,T_SWO*
X122100000Y-90800000D02*
X121478723Y-91421277D01*
X121478723Y-91421277D02*
X118901063Y-91421277D01*
X118901063Y-91421277D02*
X118455639Y-91866701D01*
X118455639Y-91866701D02*
X114565902Y-91866701D01*
X114565902Y-91866701D02*
X114082639Y-91383438D01*
X114082639Y-91383438D02*
X112576562Y-91383438D01*
X112576562Y-91383438D02*
X111500000Y-92460000D01*
G04 #@! TO.N,T_PWR*
X123750000Y-93771400D02*
X124271400Y-93250000D01*
X123750000Y-94750000D02*
X123750000Y-93771400D01*
X124271400Y-93250000D02*
X126250000Y-93250000D01*
X126250000Y-93250000D02*
X126750000Y-92750000D01*
X126750000Y-92750000D02*
X126750000Y-91750000D01*
X123366701Y-88366701D02*
X115116701Y-88366701D01*
X126750000Y-91750000D02*
X123366701Y-88366701D01*
X114130000Y-87380000D02*
X111500000Y-87380000D01*
X115116701Y-88366701D02*
X114130000Y-87380000D01*
G04 #@! TO.N,DIO*
X126000000Y-88000000D02*
X129000000Y-85000000D01*
X129000000Y-85000000D02*
X129000000Y-83500000D01*
X125400000Y-88000000D02*
X126000000Y-88000000D01*
G04 #@! TO.N,B0*
X123968000Y-84500000D02*
X124968000Y-83500000D01*
X122500000Y-84500000D02*
X123968000Y-84500000D01*
G04 #@! TO.N,RENUM*
X123800000Y-87400000D02*
X128500000Y-92100000D01*
X128500000Y-92100000D02*
X128500000Y-94250000D01*
X128500000Y-94250000D02*
X129500000Y-95250000D01*
G04 #@! TO.N,Net-(R10-Pad1)*
X119203983Y-94883299D02*
X118883299Y-95203983D01*
X120383299Y-94077872D02*
X119577872Y-94883299D01*
X119577872Y-94883299D02*
X119203983Y-94883299D01*
X120383299Y-93416701D02*
X120383299Y-94077872D01*
X121000000Y-92800000D02*
X120383299Y-93416701D01*
X118883299Y-95203983D02*
X118883299Y-95883299D01*
X119000000Y-96000000D02*
X118883299Y-95883299D01*
X119000000Y-96250000D02*
X119000000Y-96000000D01*
G04 #@! TO.N,Net-(JP1-Pad2)*
X122450000Y-95450000D02*
X122450000Y-94750000D01*
X123000000Y-96000000D02*
X122450000Y-95450000D01*
G04 #@! TD*
D19*
G04 #@! TO.N,GND*
X115371400Y-82797138D02*
X115389792Y-82889603D01*
X115425870Y-82976702D01*
X115478247Y-83055090D01*
X115544910Y-83121753D01*
X115623298Y-83174130D01*
X115710397Y-83210208D01*
X115802862Y-83228600D01*
X115897138Y-83228600D01*
X115989603Y-83210208D01*
X116076702Y-83174130D01*
X116155090Y-83121753D01*
X116181073Y-83095770D01*
X116189792Y-83139603D01*
X116225870Y-83226702D01*
X116278247Y-83305090D01*
X116344910Y-83371753D01*
X116423298Y-83424130D01*
X116510397Y-83460208D01*
X116602862Y-83478600D01*
X116697138Y-83478600D01*
X116789603Y-83460208D01*
X116876702Y-83424130D01*
X116955090Y-83371753D01*
X117000000Y-83326843D01*
X117044910Y-83371753D01*
X117123298Y-83424130D01*
X117210397Y-83460208D01*
X117302862Y-83478600D01*
X117397138Y-83478600D01*
X117489603Y-83460208D01*
X117576702Y-83424130D01*
X117655090Y-83371753D01*
X117721753Y-83305090D01*
X117774130Y-83226702D01*
X117810208Y-83139603D01*
X117818927Y-83095770D01*
X117844910Y-83121753D01*
X117923298Y-83174130D01*
X118010397Y-83210208D01*
X118102862Y-83228600D01*
X118197138Y-83228600D01*
X118289603Y-83210208D01*
X118376702Y-83174130D01*
X118455090Y-83121753D01*
X118521753Y-83055090D01*
X118574130Y-82976702D01*
X118576123Y-82971890D01*
X122515653Y-82971890D01*
X122936000Y-83392237D01*
X123356347Y-82971890D01*
X123302348Y-82866126D01*
X123171646Y-82806835D01*
X123031889Y-82774181D01*
X122888446Y-82769420D01*
X122746830Y-82792736D01*
X122612485Y-82843231D01*
X122569652Y-82866126D01*
X122515653Y-82971890D01*
X118576123Y-82971890D01*
X118610208Y-82889603D01*
X118628600Y-82797138D01*
X118628600Y-82753600D01*
X132871400Y-82753600D01*
X132871400Y-82797138D01*
X132889792Y-82889603D01*
X132925870Y-82976702D01*
X132978247Y-83055090D01*
X133044910Y-83121753D01*
X133123298Y-83174130D01*
X133210397Y-83210208D01*
X133302862Y-83228600D01*
X133397138Y-83228600D01*
X133489603Y-83210208D01*
X133576702Y-83174130D01*
X133655090Y-83121753D01*
X133681073Y-83095770D01*
X133689792Y-83139603D01*
X133725870Y-83226702D01*
X133778247Y-83305090D01*
X133844910Y-83371753D01*
X133923298Y-83424130D01*
X134010397Y-83460208D01*
X134102862Y-83478600D01*
X134197138Y-83478600D01*
X134289603Y-83460208D01*
X134376702Y-83424130D01*
X134455090Y-83371753D01*
X134500000Y-83326843D01*
X134544910Y-83371753D01*
X134623298Y-83424130D01*
X134710397Y-83460208D01*
X134802862Y-83478600D01*
X134897138Y-83478600D01*
X134989603Y-83460208D01*
X135076702Y-83424130D01*
X135155090Y-83371753D01*
X135221753Y-83305090D01*
X135274130Y-83226702D01*
X135310208Y-83139603D01*
X135318927Y-83095770D01*
X135344910Y-83121753D01*
X135423298Y-83174130D01*
X135476696Y-83196248D01*
X135327367Y-83335130D01*
X135186122Y-83530784D01*
X135085761Y-83750234D01*
X135050782Y-83882913D01*
X135081031Y-84073800D01*
X136923800Y-84073800D01*
X136923800Y-82921400D01*
X137076200Y-82921400D01*
X137076200Y-84073800D01*
X138918969Y-84073800D01*
X138949218Y-83882913D01*
X138914239Y-83750234D01*
X138813878Y-83530784D01*
X138672633Y-83335130D01*
X138495932Y-83170791D01*
X138290565Y-83044082D01*
X138064424Y-82959873D01*
X137826200Y-82921400D01*
X137076200Y-82921400D01*
X136923800Y-82921400D01*
X136173800Y-82921400D01*
X136091534Y-82934686D01*
X136110208Y-82889603D01*
X136128600Y-82797138D01*
X136128600Y-82753600D01*
X138987593Y-82753600D01*
X139144744Y-82769009D01*
X139283964Y-82811042D01*
X139412378Y-82879320D01*
X139525083Y-82971240D01*
X139617786Y-83083299D01*
X139686957Y-83211228D01*
X139729963Y-83350160D01*
X139746400Y-83506541D01*
X139746401Y-96487583D01*
X139730991Y-96644742D01*
X139688957Y-96783968D01*
X139620679Y-96912379D01*
X139528760Y-97025083D01*
X139416701Y-97117786D01*
X139288772Y-97186957D01*
X139149840Y-97229963D01*
X138993459Y-97246400D01*
X136128600Y-97246400D01*
X136128600Y-97202862D01*
X136110208Y-97110397D01*
X136091534Y-97065314D01*
X136173800Y-97078600D01*
X136923800Y-97078600D01*
X136923800Y-95926200D01*
X137076200Y-95926200D01*
X137076200Y-97078600D01*
X137826200Y-97078600D01*
X138064424Y-97040127D01*
X138290565Y-96955918D01*
X138495932Y-96829209D01*
X138672633Y-96664870D01*
X138813878Y-96469216D01*
X138914239Y-96249766D01*
X138949218Y-96117087D01*
X138918969Y-95926200D01*
X137076200Y-95926200D01*
X136923800Y-95926200D01*
X135081031Y-95926200D01*
X135050782Y-96117087D01*
X135085761Y-96249766D01*
X135186122Y-96469216D01*
X135327367Y-96664870D01*
X135476696Y-96803752D01*
X135423298Y-96825870D01*
X135344910Y-96878247D01*
X135318927Y-96904230D01*
X135310208Y-96860397D01*
X135274130Y-96773298D01*
X135221753Y-96694910D01*
X135155090Y-96628247D01*
X135076702Y-96575870D01*
X134989603Y-96539792D01*
X134897138Y-96521400D01*
X134802862Y-96521400D01*
X134710397Y-96539792D01*
X134623298Y-96575870D01*
X134544910Y-96628247D01*
X134500000Y-96673157D01*
X134455090Y-96628247D01*
X134376702Y-96575870D01*
X134289603Y-96539792D01*
X134197138Y-96521400D01*
X134102862Y-96521400D01*
X134010397Y-96539792D01*
X133923298Y-96575870D01*
X133844910Y-96628247D01*
X133778247Y-96694910D01*
X133725870Y-96773298D01*
X133689792Y-96860397D01*
X133681073Y-96904230D01*
X133655090Y-96878247D01*
X133576702Y-96825870D01*
X133489603Y-96789792D01*
X133397138Y-96771400D01*
X133302862Y-96771400D01*
X133210397Y-96789792D01*
X133123298Y-96825870D01*
X133044910Y-96878247D01*
X132978247Y-96944910D01*
X132925870Y-97023298D01*
X132889792Y-97110397D01*
X132871400Y-97202862D01*
X132871400Y-97246400D01*
X118628600Y-97246400D01*
X118628600Y-97202862D01*
X118610208Y-97110397D01*
X118574130Y-97023298D01*
X118521753Y-96944910D01*
X118455090Y-96878247D01*
X118376702Y-96825870D01*
X118289603Y-96789792D01*
X118197138Y-96771400D01*
X118102862Y-96771400D01*
X118010397Y-96789792D01*
X117923298Y-96825870D01*
X117844910Y-96878247D01*
X117818927Y-96904230D01*
X117810208Y-96860397D01*
X117774130Y-96773298D01*
X117721753Y-96694910D01*
X117655090Y-96628247D01*
X117576702Y-96575870D01*
X117489603Y-96539792D01*
X117397138Y-96521400D01*
X117302862Y-96521400D01*
X117210397Y-96539792D01*
X117123298Y-96575870D01*
X117044910Y-96628247D01*
X117000000Y-96673157D01*
X116955090Y-96628247D01*
X116876702Y-96575870D01*
X116789603Y-96539792D01*
X116697138Y-96521400D01*
X116602862Y-96521400D01*
X116510397Y-96539792D01*
X116423298Y-96575870D01*
X116344910Y-96628247D01*
X116278247Y-96694910D01*
X116225870Y-96773298D01*
X116189792Y-96860397D01*
X116181073Y-96904230D01*
X116155090Y-96878247D01*
X116076702Y-96825870D01*
X115989603Y-96789792D01*
X115897138Y-96771400D01*
X115802862Y-96771400D01*
X115710397Y-96789792D01*
X115623298Y-96825870D01*
X115544910Y-96878247D01*
X115478247Y-96944910D01*
X115425870Y-97023298D01*
X115389792Y-97110397D01*
X115371400Y-97202862D01*
X115371400Y-97246400D01*
X110253600Y-97246400D01*
X110253600Y-95991706D01*
X110986682Y-95991706D01*
X110943635Y-96095630D01*
X110921400Y-96207415D01*
X110921400Y-96321389D01*
X110943635Y-96433174D01*
X110987251Y-96538472D01*
X111050572Y-96633238D01*
X111131164Y-96713830D01*
X111225930Y-96777151D01*
X111331228Y-96820767D01*
X111443013Y-96843002D01*
X111556987Y-96843002D01*
X111668772Y-96820767D01*
X111774070Y-96777151D01*
X111868836Y-96713830D01*
X111949428Y-96633238D01*
X111966758Y-96607302D01*
X114556045Y-96607302D01*
X114572880Y-96608960D01*
X114589715Y-96607302D01*
X114589723Y-96607302D01*
X114640100Y-96602340D01*
X114704737Y-96582733D01*
X114764307Y-96550892D01*
X114816520Y-96508042D01*
X114827262Y-96494953D01*
X114846016Y-96476199D01*
X117099866Y-96476199D01*
X117116701Y-96477857D01*
X117133536Y-96476199D01*
X117133544Y-96476199D01*
X117183921Y-96471237D01*
X117248558Y-96451630D01*
X117308128Y-96419789D01*
X117360341Y-96376939D01*
X117371082Y-96363851D01*
X118539592Y-95195342D01*
X118538741Y-95203983D01*
X118540399Y-95220819D01*
X118540400Y-95866454D01*
X118538741Y-95883299D01*
X118540078Y-95896870D01*
X118487251Y-95975930D01*
X118443635Y-96081228D01*
X118421400Y-96193013D01*
X118421400Y-96306987D01*
X118443635Y-96418772D01*
X118487251Y-96524070D01*
X118550572Y-96618836D01*
X118631164Y-96699428D01*
X118725930Y-96762749D01*
X118831228Y-96806365D01*
X118943013Y-96828600D01*
X119056987Y-96828600D01*
X119168772Y-96806365D01*
X119274070Y-96762749D01*
X119368836Y-96699428D01*
X119449428Y-96618836D01*
X119512749Y-96524070D01*
X119556365Y-96418772D01*
X119578600Y-96306987D01*
X119578600Y-96193013D01*
X119556365Y-96081228D01*
X119555276Y-96078600D01*
X119556987Y-96078600D01*
X119668772Y-96056365D01*
X119774070Y-96012749D01*
X119868836Y-95949428D01*
X119949428Y-95868836D01*
X120012749Y-95774070D01*
X120056365Y-95668772D01*
X120078600Y-95556987D01*
X120078600Y-95443013D01*
X120072515Y-95412419D01*
X120392034Y-95092900D01*
X120420294Y-95092900D01*
X120420294Y-95500000D01*
X120424708Y-95544813D01*
X120437779Y-95587905D01*
X120459006Y-95627618D01*
X120487573Y-95662427D01*
X120522382Y-95690994D01*
X120562095Y-95712221D01*
X120605187Y-95725292D01*
X120650000Y-95729706D01*
X121650000Y-95729706D01*
X121694813Y-95725292D01*
X121737905Y-95712221D01*
X121777618Y-95690994D01*
X121800000Y-95672626D01*
X121822382Y-95690994D01*
X121862095Y-95712221D01*
X121905187Y-95725292D01*
X121950000Y-95729706D01*
X122244773Y-95729706D01*
X122427485Y-95912419D01*
X122421400Y-95943013D01*
X122421400Y-96056987D01*
X122443635Y-96168772D01*
X122487251Y-96274070D01*
X122550572Y-96368836D01*
X122631164Y-96449428D01*
X122725930Y-96512749D01*
X122831228Y-96556365D01*
X122943013Y-96578600D01*
X123056987Y-96578600D01*
X123168772Y-96556365D01*
X123274070Y-96512749D01*
X123368836Y-96449428D01*
X123449428Y-96368836D01*
X123512749Y-96274070D01*
X123556365Y-96168772D01*
X123578600Y-96056987D01*
X123578600Y-95943013D01*
X123556365Y-95831228D01*
X123514313Y-95729706D01*
X124250000Y-95729706D01*
X124294813Y-95725292D01*
X124337905Y-95712221D01*
X124377618Y-95690994D01*
X124412427Y-95662427D01*
X124440994Y-95627618D01*
X124462221Y-95587905D01*
X124475292Y-95544813D01*
X124479706Y-95500000D01*
X124479706Y-94193013D01*
X125921400Y-94193013D01*
X125921400Y-94306987D01*
X125943635Y-94418772D01*
X125987251Y-94524070D01*
X126050572Y-94618836D01*
X126131164Y-94699428D01*
X126225930Y-94762749D01*
X126331228Y-94806365D01*
X126443013Y-94828600D01*
X126556987Y-94828600D01*
X126668772Y-94806365D01*
X126774070Y-94762749D01*
X126868836Y-94699428D01*
X126949428Y-94618836D01*
X127012749Y-94524070D01*
X127056365Y-94418772D01*
X127078600Y-94306987D01*
X127078600Y-94193013D01*
X127056365Y-94081228D01*
X127012749Y-93975930D01*
X126949428Y-93881164D01*
X126868836Y-93800572D01*
X126774070Y-93737251D01*
X126668772Y-93693635D01*
X126556987Y-93671400D01*
X126443013Y-93671400D01*
X126331228Y-93693635D01*
X126225930Y-93737251D01*
X126131164Y-93800572D01*
X126050572Y-93881164D01*
X125987251Y-93975930D01*
X125943635Y-94081228D01*
X125921400Y-94193013D01*
X124479706Y-94193013D01*
X124479706Y-94000000D01*
X124475292Y-93955187D01*
X124462221Y-93912095D01*
X124440994Y-93872382D01*
X124412427Y-93837573D01*
X124377618Y-93809006D01*
X124337905Y-93787779D01*
X124294813Y-93774708D01*
X124250000Y-93770294D01*
X124236039Y-93770294D01*
X124413434Y-93592900D01*
X126233165Y-93592900D01*
X126250000Y-93594558D01*
X126266835Y-93592900D01*
X126266843Y-93592900D01*
X126317220Y-93587938D01*
X126381857Y-93568331D01*
X126441427Y-93536490D01*
X126493640Y-93493640D01*
X126504381Y-93480552D01*
X126980556Y-93004377D01*
X126993639Y-92993640D01*
X127036490Y-92941427D01*
X127068331Y-92881857D01*
X127087938Y-92817220D01*
X127092900Y-92766843D01*
X127092900Y-92766842D01*
X127094559Y-92750000D01*
X127092900Y-92733157D01*
X127092900Y-91766834D01*
X127094558Y-91749999D01*
X127092900Y-91733164D01*
X127092900Y-91733157D01*
X127087938Y-91682780D01*
X127068331Y-91618143D01*
X127036490Y-91558573D01*
X126993640Y-91506360D01*
X126980557Y-91495623D01*
X123621082Y-88136149D01*
X123610341Y-88123061D01*
X123558128Y-88080211D01*
X123498558Y-88048370D01*
X123433921Y-88028763D01*
X123383544Y-88023801D01*
X123383536Y-88023801D01*
X123366701Y-88022143D01*
X123349866Y-88023801D01*
X115258735Y-88023801D01*
X114577947Y-87343013D01*
X123221400Y-87343013D01*
X123221400Y-87456987D01*
X123243635Y-87568772D01*
X123287251Y-87674070D01*
X123350572Y-87768836D01*
X123431164Y-87849428D01*
X123525930Y-87912749D01*
X123631228Y-87956365D01*
X123743013Y-87978600D01*
X123856987Y-87978600D01*
X123887581Y-87972514D01*
X128157100Y-92242033D01*
X128157101Y-94233155D01*
X128155442Y-94250000D01*
X128162062Y-94317219D01*
X128176359Y-94364348D01*
X128181670Y-94381857D01*
X128213511Y-94441427D01*
X128256361Y-94493640D01*
X128269443Y-94504376D01*
X128927485Y-95162419D01*
X128921400Y-95193013D01*
X128921400Y-95306987D01*
X128943635Y-95418772D01*
X128987251Y-95524070D01*
X129050572Y-95618836D01*
X129131164Y-95699428D01*
X129225930Y-95762749D01*
X129331228Y-95806365D01*
X129443013Y-95828600D01*
X129556987Y-95828600D01*
X129668772Y-95806365D01*
X129774070Y-95762749D01*
X129868836Y-95699428D01*
X129949428Y-95618836D01*
X129973431Y-95582913D01*
X135050782Y-95582913D01*
X135081031Y-95773800D01*
X136923800Y-95773800D01*
X136923800Y-94621400D01*
X137076200Y-94621400D01*
X137076200Y-95773800D01*
X138918969Y-95773800D01*
X138949218Y-95582913D01*
X138914239Y-95450234D01*
X138813878Y-95230784D01*
X138672633Y-95035130D01*
X138495932Y-94870791D01*
X138290565Y-94744082D01*
X138064424Y-94659873D01*
X137826200Y-94621400D01*
X137076200Y-94621400D01*
X136923800Y-94621400D01*
X136173800Y-94621400D01*
X135935576Y-94659873D01*
X135709435Y-94744082D01*
X135504068Y-94870791D01*
X135327367Y-95035130D01*
X135186122Y-95230784D01*
X135085761Y-95450234D01*
X135050782Y-95582913D01*
X129973431Y-95582913D01*
X130012749Y-95524070D01*
X130056365Y-95418772D01*
X130078600Y-95306987D01*
X130078600Y-95193013D01*
X130056365Y-95081228D01*
X130012749Y-94975930D01*
X129949428Y-94881164D01*
X129868836Y-94800572D01*
X129774070Y-94737251D01*
X129668772Y-94693635D01*
X129556987Y-94671400D01*
X129443013Y-94671400D01*
X129412419Y-94677485D01*
X128842900Y-94107967D01*
X128842900Y-93693013D01*
X129171400Y-93693013D01*
X129171400Y-93806987D01*
X129193635Y-93918772D01*
X129237251Y-94024070D01*
X129300572Y-94118836D01*
X129381164Y-94199428D01*
X129475930Y-94262749D01*
X129581228Y-94306365D01*
X129693013Y-94328600D01*
X129806987Y-94328600D01*
X129883082Y-94313464D01*
X134194299Y-94313464D01*
X134296569Y-94460190D01*
X134495488Y-94559464D01*
X134709952Y-94618023D01*
X134931719Y-94633617D01*
X135152267Y-94605647D01*
X135363121Y-94535187D01*
X135503431Y-94460190D01*
X135605701Y-94313464D01*
X134900000Y-93607763D01*
X134194299Y-94313464D01*
X129883082Y-94313464D01*
X129918772Y-94306365D01*
X130024070Y-94262749D01*
X130118836Y-94199428D01*
X130199428Y-94118836D01*
X130262749Y-94024070D01*
X130306365Y-93918772D01*
X130328600Y-93806987D01*
X130328600Y-93693013D01*
X130306365Y-93581228D01*
X130285858Y-93531719D01*
X133766383Y-93531719D01*
X133794353Y-93752267D01*
X133864813Y-93963121D01*
X133939810Y-94103431D01*
X134086536Y-94205701D01*
X134792237Y-93500000D01*
X135007763Y-93500000D01*
X135713464Y-94205701D01*
X135860190Y-94103431D01*
X135959464Y-93904512D01*
X136018023Y-93690048D01*
X136033617Y-93468281D01*
X136006679Y-93255870D01*
X136151893Y-93255870D01*
X136278216Y-93423090D01*
X136511188Y-93542323D01*
X136762946Y-93613815D01*
X137023813Y-93634817D01*
X137283765Y-93604524D01*
X137532813Y-93524097D01*
X137721784Y-93423090D01*
X137848107Y-93255870D01*
X137000000Y-92407763D01*
X136151893Y-93255870D01*
X136006679Y-93255870D01*
X136005647Y-93247733D01*
X135948119Y-93075577D01*
X136044130Y-93148107D01*
X136892237Y-92300000D01*
X137107763Y-92300000D01*
X137955870Y-93148107D01*
X138123090Y-93021784D01*
X138242323Y-92788812D01*
X138313815Y-92537054D01*
X138334817Y-92276187D01*
X138304524Y-92016235D01*
X138224097Y-91767187D01*
X138123090Y-91578216D01*
X137955870Y-91451893D01*
X137107763Y-92300000D01*
X136892237Y-92300000D01*
X136044130Y-91451893D01*
X135876910Y-91578216D01*
X135757677Y-91811188D01*
X135686185Y-92062946D01*
X135665183Y-92323813D01*
X135695476Y-92583765D01*
X135775903Y-92832813D01*
X135780168Y-92840793D01*
X135713464Y-92794299D01*
X135007763Y-93500000D01*
X134792237Y-93500000D01*
X134086536Y-92794299D01*
X133939810Y-92896569D01*
X133840536Y-93095488D01*
X133781977Y-93309952D01*
X133766383Y-93531719D01*
X130285858Y-93531719D01*
X130262749Y-93475930D01*
X130199428Y-93381164D01*
X130118836Y-93300572D01*
X130024070Y-93237251D01*
X129918772Y-93193635D01*
X129806987Y-93171400D01*
X129693013Y-93171400D01*
X129581228Y-93193635D01*
X129475930Y-93237251D01*
X129381164Y-93300572D01*
X129300572Y-93381164D01*
X129237251Y-93475930D01*
X129193635Y-93581228D01*
X129171400Y-93693013D01*
X128842900Y-93693013D01*
X128842900Y-92686536D01*
X134194299Y-92686536D01*
X134900000Y-93392237D01*
X135605701Y-92686536D01*
X135503431Y-92539810D01*
X135304512Y-92440536D01*
X135090048Y-92381977D01*
X134868281Y-92366383D01*
X134647733Y-92394353D01*
X134436879Y-92464813D01*
X134296569Y-92539810D01*
X134194299Y-92686536D01*
X128842900Y-92686536D01*
X128842900Y-92116843D01*
X128844559Y-92100000D01*
X128837938Y-92032780D01*
X128818331Y-91968143D01*
X128786490Y-91908573D01*
X128764563Y-91881856D01*
X128743639Y-91856360D01*
X128730556Y-91845623D01*
X126149620Y-89264687D01*
X128176763Y-89264687D01*
X128176763Y-89378661D01*
X128198998Y-89490446D01*
X128242614Y-89595744D01*
X128305935Y-89690510D01*
X128386527Y-89771102D01*
X128481293Y-89834423D01*
X128586591Y-89878039D01*
X128698376Y-89900274D01*
X128812350Y-89900274D01*
X128924135Y-89878039D01*
X129029433Y-89834423D01*
X129124199Y-89771102D01*
X129204791Y-89690510D01*
X129268112Y-89595744D01*
X129274629Y-89580010D01*
X129300572Y-89618836D01*
X129381164Y-89699428D01*
X129475930Y-89762749D01*
X129581228Y-89806365D01*
X129693013Y-89828600D01*
X129806987Y-89828600D01*
X129837581Y-89822514D01*
X131245619Y-91230552D01*
X131256360Y-91243640D01*
X131300825Y-91280131D01*
X131308573Y-91286490D01*
X131368143Y-91318331D01*
X131432780Y-91337938D01*
X131500000Y-91344559D01*
X131516843Y-91342900D01*
X133820445Y-91342900D01*
X133899847Y-91534593D01*
X134023359Y-91719441D01*
X134180559Y-91876641D01*
X134365407Y-92000153D01*
X134570799Y-92085229D01*
X134788843Y-92128600D01*
X135011157Y-92128600D01*
X135229201Y-92085229D01*
X135434593Y-92000153D01*
X135619441Y-91876641D01*
X135776641Y-91719441D01*
X135900153Y-91534593D01*
X135979045Y-91344130D01*
X136151893Y-91344130D01*
X137000000Y-92192237D01*
X137848107Y-91344130D01*
X137721784Y-91176910D01*
X137488812Y-91057677D01*
X137237054Y-90986185D01*
X136976187Y-90965183D01*
X136716235Y-90995476D01*
X136467187Y-91075903D01*
X136278216Y-91176910D01*
X136151893Y-91344130D01*
X135979045Y-91344130D01*
X135985229Y-91329201D01*
X136028600Y-91111157D01*
X136028600Y-90888843D01*
X135985229Y-90670799D01*
X135900153Y-90465407D01*
X135776641Y-90280559D01*
X135619441Y-90123359D01*
X135434822Y-90000000D01*
X135619441Y-89876641D01*
X135776641Y-89719441D01*
X135900153Y-89534593D01*
X135985229Y-89329201D01*
X136028600Y-89111157D01*
X136028600Y-88888843D01*
X135985229Y-88670799D01*
X135979046Y-88655870D01*
X136151893Y-88655870D01*
X136278216Y-88823090D01*
X136511188Y-88942323D01*
X136762946Y-89013815D01*
X137023813Y-89034817D01*
X137283765Y-89004524D01*
X137532813Y-88924097D01*
X137721784Y-88823090D01*
X137848107Y-88655870D01*
X137000000Y-87807763D01*
X136151893Y-88655870D01*
X135979046Y-88655870D01*
X135900153Y-88465407D01*
X135776641Y-88280559D01*
X135619441Y-88123359D01*
X135434593Y-87999847D01*
X135229201Y-87914771D01*
X135011157Y-87871400D01*
X134788843Y-87871400D01*
X134570799Y-87914771D01*
X134365407Y-87999847D01*
X134180559Y-88123359D01*
X134023359Y-88280559D01*
X134016785Y-88290398D01*
X132501839Y-88290398D01*
X132512749Y-88274070D01*
X132556365Y-88168772D01*
X132578600Y-88056987D01*
X132578600Y-87943013D01*
X132556365Y-87831228D01*
X132512749Y-87725930D01*
X132449428Y-87631164D01*
X132368836Y-87550572D01*
X132293150Y-87500000D01*
X132368836Y-87449428D01*
X132449428Y-87368836D01*
X132512749Y-87274070D01*
X132556365Y-87168772D01*
X132578600Y-87056987D01*
X132578600Y-86943013D01*
X132556365Y-86831228D01*
X132512749Y-86725930D01*
X132449428Y-86631164D01*
X132368836Y-86550572D01*
X132274070Y-86487251D01*
X132168772Y-86443635D01*
X132056987Y-86421400D01*
X131943013Y-86421400D01*
X131831228Y-86443635D01*
X131725930Y-86487251D01*
X131631164Y-86550572D01*
X131550572Y-86631164D01*
X131500000Y-86706850D01*
X131449428Y-86631164D01*
X131406900Y-86588636D01*
X131406900Y-86388843D01*
X133771400Y-86388843D01*
X133771400Y-86611157D01*
X133814771Y-86829201D01*
X133899847Y-87034593D01*
X134023359Y-87219441D01*
X134180559Y-87376641D01*
X134365407Y-87500153D01*
X134570799Y-87585229D01*
X134788843Y-87628600D01*
X135011157Y-87628600D01*
X135229201Y-87585229D01*
X135434593Y-87500153D01*
X135619441Y-87376641D01*
X135746883Y-87249199D01*
X135686185Y-87462946D01*
X135665183Y-87723813D01*
X135695476Y-87983765D01*
X135775903Y-88232813D01*
X135876910Y-88421784D01*
X136044130Y-88548107D01*
X136892237Y-87700000D01*
X137107763Y-87700000D01*
X137955870Y-88548107D01*
X138123090Y-88421784D01*
X138242323Y-88188812D01*
X138313815Y-87937054D01*
X138334817Y-87676187D01*
X138304524Y-87416235D01*
X138224097Y-87167187D01*
X138123090Y-86978216D01*
X137955870Y-86851893D01*
X137107763Y-87700000D01*
X136892237Y-87700000D01*
X136044130Y-86851893D01*
X135944725Y-86926987D01*
X135985229Y-86829201D01*
X136002150Y-86744130D01*
X136151893Y-86744130D01*
X137000000Y-87592237D01*
X137848107Y-86744130D01*
X137721784Y-86576910D01*
X137488812Y-86457677D01*
X137237054Y-86386185D01*
X136976187Y-86365183D01*
X136716235Y-86395476D01*
X136467187Y-86475903D01*
X136278216Y-86576910D01*
X136151893Y-86744130D01*
X136002150Y-86744130D01*
X136028600Y-86611157D01*
X136028600Y-86388843D01*
X135985229Y-86170799D01*
X135900153Y-85965407D01*
X135776641Y-85780559D01*
X135619441Y-85623359D01*
X135434593Y-85499847D01*
X135229201Y-85414771D01*
X135011157Y-85371400D01*
X134788843Y-85371400D01*
X134570799Y-85414771D01*
X134365407Y-85499847D01*
X134180559Y-85623359D01*
X134023359Y-85780559D01*
X133899847Y-85965407D01*
X133814771Y-86170799D01*
X133771400Y-86388843D01*
X131406900Y-86388843D01*
X131406900Y-84417087D01*
X135050782Y-84417087D01*
X135085761Y-84549766D01*
X135186122Y-84769216D01*
X135327367Y-84964870D01*
X135504068Y-85129209D01*
X135709435Y-85255918D01*
X135935576Y-85340127D01*
X136173800Y-85378600D01*
X136923800Y-85378600D01*
X136923800Y-84226200D01*
X137076200Y-84226200D01*
X137076200Y-85378600D01*
X137826200Y-85378600D01*
X138064424Y-85340127D01*
X138290565Y-85255918D01*
X138495932Y-85129209D01*
X138672633Y-84964870D01*
X138813878Y-84769216D01*
X138914239Y-84549766D01*
X138949218Y-84417087D01*
X138918969Y-84226200D01*
X137076200Y-84226200D01*
X136923800Y-84226200D01*
X135081031Y-84226200D01*
X135050782Y-84417087D01*
X131406900Y-84417087D01*
X131406900Y-84146597D01*
X131409121Y-84145677D01*
X131528455Y-84065940D01*
X131629940Y-83964455D01*
X131709677Y-83845121D01*
X131764600Y-83712525D01*
X131792600Y-83571761D01*
X131792600Y-83428239D01*
X131764600Y-83287475D01*
X131709677Y-83154879D01*
X131629940Y-83035545D01*
X131528455Y-82934060D01*
X131409121Y-82854323D01*
X131276525Y-82799400D01*
X131135761Y-82771400D01*
X130992239Y-82771400D01*
X130851475Y-82799400D01*
X130718879Y-82854323D01*
X130599545Y-82934060D01*
X130498060Y-83035545D01*
X130418323Y-83154879D01*
X130363400Y-83287475D01*
X130335400Y-83428239D01*
X130335400Y-83571761D01*
X130363400Y-83712525D01*
X130418323Y-83845121D01*
X130498060Y-83964455D01*
X130599545Y-84065940D01*
X130718879Y-84145677D01*
X130721100Y-84146597D01*
X130721101Y-86490478D01*
X130631164Y-86550572D01*
X130550572Y-86631164D01*
X130487251Y-86725930D01*
X130443635Y-86831228D01*
X130421400Y-86943013D01*
X130421400Y-87056987D01*
X130443635Y-87168772D01*
X130487251Y-87274070D01*
X130550572Y-87368836D01*
X130631164Y-87449428D01*
X130725930Y-87512749D01*
X130831228Y-87556365D01*
X130943013Y-87578600D01*
X131056987Y-87578600D01*
X131168772Y-87556365D01*
X131274070Y-87512749D01*
X131368836Y-87449428D01*
X131449428Y-87368836D01*
X131500000Y-87293150D01*
X131550572Y-87368836D01*
X131631164Y-87449428D01*
X131706850Y-87500000D01*
X131631164Y-87550572D01*
X131550572Y-87631164D01*
X131487251Y-87725930D01*
X131443635Y-87831228D01*
X131421400Y-87943013D01*
X131421400Y-88056987D01*
X131443635Y-88168772D01*
X131487251Y-88274070D01*
X131498161Y-88290398D01*
X129460582Y-88290398D01*
X129443739Y-88288739D01*
X129426896Y-88290398D01*
X129376519Y-88295360D01*
X129311882Y-88314967D01*
X129252312Y-88346808D01*
X129200099Y-88389658D01*
X129189358Y-88402746D01*
X128842944Y-88749160D01*
X128812350Y-88743074D01*
X128698376Y-88743074D01*
X128586591Y-88765309D01*
X128481293Y-88808925D01*
X128386527Y-88872246D01*
X128305935Y-88952838D01*
X128242614Y-89047604D01*
X128198998Y-89152902D01*
X128176763Y-89264687D01*
X126149620Y-89264687D01*
X125462447Y-88577514D01*
X125568772Y-88556365D01*
X125674070Y-88512749D01*
X125768836Y-88449428D01*
X125849428Y-88368836D01*
X125866758Y-88342900D01*
X125983165Y-88342900D01*
X126000000Y-88344558D01*
X126016835Y-88342900D01*
X126016843Y-88342900D01*
X126067220Y-88337938D01*
X126131857Y-88318331D01*
X126191427Y-88286490D01*
X126243640Y-88243640D01*
X126254381Y-88230552D01*
X129230556Y-85254377D01*
X129243639Y-85243640D01*
X129286490Y-85191427D01*
X129318331Y-85131857D01*
X129337938Y-85067220D01*
X129342900Y-85016843D01*
X129342900Y-85016842D01*
X129344559Y-85000000D01*
X129342900Y-84983157D01*
X129342900Y-84146597D01*
X129345121Y-84145677D01*
X129464455Y-84065940D01*
X129565940Y-83964455D01*
X129645677Y-83845121D01*
X129700600Y-83712525D01*
X129728600Y-83571761D01*
X129728600Y-83428239D01*
X129700600Y-83287475D01*
X129645677Y-83154879D01*
X129565940Y-83035545D01*
X129464455Y-82934060D01*
X129345121Y-82854323D01*
X129212525Y-82799400D01*
X129071761Y-82771400D01*
X128928239Y-82771400D01*
X128787475Y-82799400D01*
X128654879Y-82854323D01*
X128535545Y-82934060D01*
X128434060Y-83035545D01*
X128354323Y-83154879D01*
X128299400Y-83287475D01*
X128271400Y-83428239D01*
X128271400Y-83571761D01*
X128299400Y-83712525D01*
X128354323Y-83845121D01*
X128434060Y-83964455D01*
X128535545Y-84065940D01*
X128654879Y-84145677D01*
X128657101Y-84146597D01*
X128657100Y-84857967D01*
X125863237Y-87651830D01*
X125849428Y-87631164D01*
X125768836Y-87550572D01*
X125674070Y-87487251D01*
X125568772Y-87443635D01*
X125456987Y-87421400D01*
X125343013Y-87421400D01*
X125231228Y-87443635D01*
X125125930Y-87487251D01*
X125031164Y-87550572D01*
X124950572Y-87631164D01*
X124887251Y-87725930D01*
X124843635Y-87831228D01*
X124822486Y-87937553D01*
X124372514Y-87487581D01*
X124378600Y-87456987D01*
X124378600Y-87343013D01*
X124356365Y-87231228D01*
X124312749Y-87125930D01*
X124249428Y-87031164D01*
X124168836Y-86950572D01*
X124074070Y-86887251D01*
X123968772Y-86843635D01*
X123856987Y-86821400D01*
X123743013Y-86821400D01*
X123631228Y-86843635D01*
X123525930Y-86887251D01*
X123431164Y-86950572D01*
X123350572Y-87031164D01*
X123287251Y-87125930D01*
X123243635Y-87231228D01*
X123221400Y-87343013D01*
X114577947Y-87343013D01*
X114384381Y-87149448D01*
X114373640Y-87136360D01*
X114321427Y-87093510D01*
X114261857Y-87061669D01*
X114197220Y-87042062D01*
X114146843Y-87037100D01*
X114146835Y-87037100D01*
X114130000Y-87035442D01*
X114113165Y-87037100D01*
X112999706Y-87037100D01*
X112999706Y-86618000D01*
X112995292Y-86573187D01*
X112982221Y-86530095D01*
X112960994Y-86490382D01*
X112932427Y-86455573D01*
X112917123Y-86443013D01*
X118921400Y-86443013D01*
X118921400Y-86556987D01*
X118943635Y-86668772D01*
X118987251Y-86774070D01*
X119050572Y-86868836D01*
X119131164Y-86949428D01*
X119225930Y-87012749D01*
X119331228Y-87056365D01*
X119443013Y-87078600D01*
X119556987Y-87078600D01*
X119668772Y-87056365D01*
X119774070Y-87012749D01*
X119868836Y-86949428D01*
X119949428Y-86868836D01*
X120012749Y-86774070D01*
X120056365Y-86668772D01*
X120078600Y-86556987D01*
X120078600Y-86443013D01*
X120056365Y-86331228D01*
X120012749Y-86225930D01*
X119949428Y-86131164D01*
X119868836Y-86050572D01*
X119774070Y-85987251D01*
X119668772Y-85943635D01*
X119556987Y-85921400D01*
X119443013Y-85921400D01*
X119331228Y-85943635D01*
X119225930Y-85987251D01*
X119131164Y-86050572D01*
X119050572Y-86131164D01*
X118987251Y-86225930D01*
X118943635Y-86331228D01*
X118921400Y-86443013D01*
X112917123Y-86443013D01*
X112897618Y-86427006D01*
X112857905Y-86405779D01*
X112814813Y-86392708D01*
X112770000Y-86388294D01*
X110253600Y-86388294D01*
X110253600Y-85831706D01*
X112770000Y-85831706D01*
X112814813Y-85827292D01*
X112857905Y-85814221D01*
X112897618Y-85792994D01*
X112921400Y-85773477D01*
X112921400Y-85806987D01*
X112943635Y-85918772D01*
X112987251Y-86024070D01*
X113050572Y-86118836D01*
X113131164Y-86199428D01*
X113225930Y-86262749D01*
X113331228Y-86306365D01*
X113443013Y-86328600D01*
X113556987Y-86328600D01*
X113668772Y-86306365D01*
X113774070Y-86262749D01*
X113868836Y-86199428D01*
X113949428Y-86118836D01*
X114012749Y-86024070D01*
X114056365Y-85918772D01*
X114078600Y-85806987D01*
X114078600Y-85693013D01*
X114056365Y-85581228D01*
X114012749Y-85475930D01*
X113949428Y-85381164D01*
X113868836Y-85300572D01*
X113793150Y-85250000D01*
X113868836Y-85199428D01*
X113949428Y-85118836D01*
X114012749Y-85024070D01*
X114056365Y-84918772D01*
X114078600Y-84806987D01*
X114078600Y-84693013D01*
X114056365Y-84581228D01*
X114012749Y-84475930D01*
X113990755Y-84443013D01*
X121921400Y-84443013D01*
X121921400Y-84556987D01*
X121943635Y-84668772D01*
X121987251Y-84774070D01*
X122050572Y-84868836D01*
X122131164Y-84949428D01*
X122225930Y-85012749D01*
X122331228Y-85056365D01*
X122443013Y-85078600D01*
X122556987Y-85078600D01*
X122668772Y-85056365D01*
X122774070Y-85012749D01*
X122868836Y-84949428D01*
X122949428Y-84868836D01*
X122966758Y-84842900D01*
X123951165Y-84842900D01*
X123968000Y-84844558D01*
X123984835Y-84842900D01*
X123984843Y-84842900D01*
X124035220Y-84837938D01*
X124099857Y-84818331D01*
X124159427Y-84786490D01*
X124211640Y-84743640D01*
X124222381Y-84730552D01*
X124509920Y-84443013D01*
X125421400Y-84443013D01*
X125421400Y-84556987D01*
X125443635Y-84668772D01*
X125487251Y-84774070D01*
X125550572Y-84868836D01*
X125631164Y-84949428D01*
X125725930Y-85012749D01*
X125831228Y-85056365D01*
X125943013Y-85078600D01*
X126056987Y-85078600D01*
X126168772Y-85056365D01*
X126274070Y-85012749D01*
X126368836Y-84949428D01*
X126449428Y-84868836D01*
X126512749Y-84774070D01*
X126556365Y-84668772D01*
X126578600Y-84556987D01*
X126578600Y-84443013D01*
X127421400Y-84443013D01*
X127421400Y-84556987D01*
X127443635Y-84668772D01*
X127487251Y-84774070D01*
X127550572Y-84868836D01*
X127631164Y-84949428D01*
X127725930Y-85012749D01*
X127831228Y-85056365D01*
X127943013Y-85078600D01*
X128056987Y-85078600D01*
X128168772Y-85056365D01*
X128274070Y-85012749D01*
X128368836Y-84949428D01*
X128449428Y-84868836D01*
X128512749Y-84774070D01*
X128556365Y-84668772D01*
X128578600Y-84556987D01*
X128578600Y-84443013D01*
X128556365Y-84331228D01*
X128512749Y-84225930D01*
X128449428Y-84131164D01*
X128368836Y-84050572D01*
X128274070Y-83987251D01*
X128168772Y-83943635D01*
X128056987Y-83921400D01*
X127943013Y-83921400D01*
X127831228Y-83943635D01*
X127725930Y-83987251D01*
X127631164Y-84050572D01*
X127550572Y-84131164D01*
X127487251Y-84225930D01*
X127443635Y-84331228D01*
X127421400Y-84443013D01*
X126578600Y-84443013D01*
X126572515Y-84412419D01*
X126785254Y-84199680D01*
X126787475Y-84200600D01*
X126928239Y-84228600D01*
X127071761Y-84228600D01*
X127212525Y-84200600D01*
X127345121Y-84145677D01*
X127464455Y-84065940D01*
X127565940Y-83964455D01*
X127645677Y-83845121D01*
X127700600Y-83712525D01*
X127728600Y-83571761D01*
X127728600Y-83428239D01*
X127700600Y-83287475D01*
X127645677Y-83154879D01*
X127565940Y-83035545D01*
X127464455Y-82934060D01*
X127345121Y-82854323D01*
X127212525Y-82799400D01*
X127071761Y-82771400D01*
X126928239Y-82771400D01*
X126787475Y-82799400D01*
X126654879Y-82854323D01*
X126535545Y-82934060D01*
X126434060Y-83035545D01*
X126354323Y-83154879D01*
X126299400Y-83287475D01*
X126271400Y-83428239D01*
X126271400Y-83571761D01*
X126299400Y-83712525D01*
X126300320Y-83714746D01*
X126087581Y-83927485D01*
X126056987Y-83921400D01*
X125943013Y-83921400D01*
X125831228Y-83943635D01*
X125725930Y-83987251D01*
X125631164Y-84050572D01*
X125550572Y-84131164D01*
X125487251Y-84225930D01*
X125443635Y-84331228D01*
X125421400Y-84443013D01*
X124509920Y-84443013D01*
X124753254Y-84199680D01*
X124755475Y-84200600D01*
X124896239Y-84228600D01*
X125039761Y-84228600D01*
X125180525Y-84200600D01*
X125313121Y-84145677D01*
X125432455Y-84065940D01*
X125533940Y-83964455D01*
X125613677Y-83845121D01*
X125668600Y-83712525D01*
X125696600Y-83571761D01*
X125696600Y-83428239D01*
X125668600Y-83287475D01*
X125613677Y-83154879D01*
X125533940Y-83035545D01*
X125432455Y-82934060D01*
X125313121Y-82854323D01*
X125180525Y-82799400D01*
X125039761Y-82771400D01*
X124896239Y-82771400D01*
X124755475Y-82799400D01*
X124622879Y-82854323D01*
X124503545Y-82934060D01*
X124402060Y-83035545D01*
X124322323Y-83154879D01*
X124267400Y-83287475D01*
X124239400Y-83428239D01*
X124239400Y-83571761D01*
X124267400Y-83712525D01*
X124268320Y-83714746D01*
X123825967Y-84157100D01*
X123258634Y-84157100D01*
X123259515Y-84156769D01*
X123302348Y-84133874D01*
X123356347Y-84028110D01*
X122936000Y-83607763D01*
X122921858Y-83621906D01*
X122814095Y-83514143D01*
X122828237Y-83500000D01*
X123043763Y-83500000D01*
X123464110Y-83920347D01*
X123569874Y-83866348D01*
X123629165Y-83735646D01*
X123661819Y-83595889D01*
X123666580Y-83452446D01*
X123643264Y-83310830D01*
X123592769Y-83176485D01*
X123569874Y-83133652D01*
X123464110Y-83079653D01*
X123043763Y-83500000D01*
X122828237Y-83500000D01*
X122407890Y-83079653D01*
X122302126Y-83133652D01*
X122242835Y-83264354D01*
X122210181Y-83404111D01*
X122205420Y-83547554D01*
X122228736Y-83689170D01*
X122279231Y-83823515D01*
X122302126Y-83866348D01*
X122407888Y-83920346D01*
X122397851Y-83930383D01*
X122331228Y-83943635D01*
X122225930Y-83987251D01*
X122131164Y-84050572D01*
X122050572Y-84131164D01*
X121987251Y-84225930D01*
X121943635Y-84331228D01*
X121921400Y-84443013D01*
X113990755Y-84443013D01*
X113949428Y-84381164D01*
X113868836Y-84300572D01*
X113774070Y-84237251D01*
X113668772Y-84193635D01*
X113556987Y-84171400D01*
X113443013Y-84171400D01*
X113331228Y-84193635D01*
X113225930Y-84237251D01*
X113131164Y-84300572D01*
X113050572Y-84381164D01*
X112999706Y-84457290D01*
X112999706Y-84078000D01*
X112995292Y-84033187D01*
X112982221Y-83990095D01*
X112960994Y-83950382D01*
X112932427Y-83915573D01*
X112897618Y-83887006D01*
X112857905Y-83865779D01*
X112814813Y-83852708D01*
X112770000Y-83848294D01*
X111963154Y-83848294D01*
X112012749Y-83774070D01*
X112056365Y-83668772D01*
X112078600Y-83556987D01*
X112078600Y-83443013D01*
X112056365Y-83331228D01*
X112012749Y-83225930D01*
X111949428Y-83131164D01*
X111868836Y-83050572D01*
X111774070Y-82987251D01*
X111668772Y-82943635D01*
X111556987Y-82921400D01*
X111443013Y-82921400D01*
X111331228Y-82943635D01*
X111225930Y-82987251D01*
X111131164Y-83050572D01*
X111050572Y-83131164D01*
X110987251Y-83225930D01*
X110943635Y-83331228D01*
X110921400Y-83443013D01*
X110921400Y-83556987D01*
X110943635Y-83668772D01*
X110987251Y-83774070D01*
X111036846Y-83848294D01*
X110253600Y-83848294D01*
X110253600Y-82753600D01*
X115371400Y-82753600D01*
X115371400Y-82797138D01*
G04 #@! TA.AperFunction,Conductor*
D20*
G36*
X115371400Y-82797138D02*
G01*
X115389792Y-82889603D01*
X115425870Y-82976702D01*
X115478247Y-83055090D01*
X115544910Y-83121753D01*
X115623298Y-83174130D01*
X115710397Y-83210208D01*
X115802862Y-83228600D01*
X115897138Y-83228600D01*
X115989603Y-83210208D01*
X116076702Y-83174130D01*
X116155090Y-83121753D01*
X116181073Y-83095770D01*
X116189792Y-83139603D01*
X116225870Y-83226702D01*
X116278247Y-83305090D01*
X116344910Y-83371753D01*
X116423298Y-83424130D01*
X116510397Y-83460208D01*
X116602862Y-83478600D01*
X116697138Y-83478600D01*
X116789603Y-83460208D01*
X116876702Y-83424130D01*
X116955090Y-83371753D01*
X117000000Y-83326843D01*
X117044910Y-83371753D01*
X117123298Y-83424130D01*
X117210397Y-83460208D01*
X117302862Y-83478600D01*
X117397138Y-83478600D01*
X117489603Y-83460208D01*
X117576702Y-83424130D01*
X117655090Y-83371753D01*
X117721753Y-83305090D01*
X117774130Y-83226702D01*
X117810208Y-83139603D01*
X117818927Y-83095770D01*
X117844910Y-83121753D01*
X117923298Y-83174130D01*
X118010397Y-83210208D01*
X118102862Y-83228600D01*
X118197138Y-83228600D01*
X118289603Y-83210208D01*
X118376702Y-83174130D01*
X118455090Y-83121753D01*
X118521753Y-83055090D01*
X118574130Y-82976702D01*
X118576123Y-82971890D01*
X122515653Y-82971890D01*
X122936000Y-83392237D01*
X123356347Y-82971890D01*
X123302348Y-82866126D01*
X123171646Y-82806835D01*
X123031889Y-82774181D01*
X122888446Y-82769420D01*
X122746830Y-82792736D01*
X122612485Y-82843231D01*
X122569652Y-82866126D01*
X122515653Y-82971890D01*
X118576123Y-82971890D01*
X118610208Y-82889603D01*
X118628600Y-82797138D01*
X118628600Y-82753600D01*
X132871400Y-82753600D01*
X132871400Y-82797138D01*
X132889792Y-82889603D01*
X132925870Y-82976702D01*
X132978247Y-83055090D01*
X133044910Y-83121753D01*
X133123298Y-83174130D01*
X133210397Y-83210208D01*
X133302862Y-83228600D01*
X133397138Y-83228600D01*
X133489603Y-83210208D01*
X133576702Y-83174130D01*
X133655090Y-83121753D01*
X133681073Y-83095770D01*
X133689792Y-83139603D01*
X133725870Y-83226702D01*
X133778247Y-83305090D01*
X133844910Y-83371753D01*
X133923298Y-83424130D01*
X134010397Y-83460208D01*
X134102862Y-83478600D01*
X134197138Y-83478600D01*
X134289603Y-83460208D01*
X134376702Y-83424130D01*
X134455090Y-83371753D01*
X134500000Y-83326843D01*
X134544910Y-83371753D01*
X134623298Y-83424130D01*
X134710397Y-83460208D01*
X134802862Y-83478600D01*
X134897138Y-83478600D01*
X134989603Y-83460208D01*
X135076702Y-83424130D01*
X135155090Y-83371753D01*
X135221753Y-83305090D01*
X135274130Y-83226702D01*
X135310208Y-83139603D01*
X135318927Y-83095770D01*
X135344910Y-83121753D01*
X135423298Y-83174130D01*
X135476696Y-83196248D01*
X135327367Y-83335130D01*
X135186122Y-83530784D01*
X135085761Y-83750234D01*
X135050782Y-83882913D01*
X135081031Y-84073800D01*
X136923800Y-84073800D01*
X136923800Y-82921400D01*
X137076200Y-82921400D01*
X137076200Y-84073800D01*
X138918969Y-84073800D01*
X138949218Y-83882913D01*
X138914239Y-83750234D01*
X138813878Y-83530784D01*
X138672633Y-83335130D01*
X138495932Y-83170791D01*
X138290565Y-83044082D01*
X138064424Y-82959873D01*
X137826200Y-82921400D01*
X137076200Y-82921400D01*
X136923800Y-82921400D01*
X136173800Y-82921400D01*
X136091534Y-82934686D01*
X136110208Y-82889603D01*
X136128600Y-82797138D01*
X136128600Y-82753600D01*
X138987593Y-82753600D01*
X139144744Y-82769009D01*
X139283964Y-82811042D01*
X139412378Y-82879320D01*
X139525083Y-82971240D01*
X139617786Y-83083299D01*
X139686957Y-83211228D01*
X139729963Y-83350160D01*
X139746400Y-83506541D01*
X139746401Y-96487583D01*
X139730991Y-96644742D01*
X139688957Y-96783968D01*
X139620679Y-96912379D01*
X139528760Y-97025083D01*
X139416701Y-97117786D01*
X139288772Y-97186957D01*
X139149840Y-97229963D01*
X138993459Y-97246400D01*
X136128600Y-97246400D01*
X136128600Y-97202862D01*
X136110208Y-97110397D01*
X136091534Y-97065314D01*
X136173800Y-97078600D01*
X136923800Y-97078600D01*
X136923800Y-95926200D01*
X137076200Y-95926200D01*
X137076200Y-97078600D01*
X137826200Y-97078600D01*
X138064424Y-97040127D01*
X138290565Y-96955918D01*
X138495932Y-96829209D01*
X138672633Y-96664870D01*
X138813878Y-96469216D01*
X138914239Y-96249766D01*
X138949218Y-96117087D01*
X138918969Y-95926200D01*
X137076200Y-95926200D01*
X136923800Y-95926200D01*
X135081031Y-95926200D01*
X135050782Y-96117087D01*
X135085761Y-96249766D01*
X135186122Y-96469216D01*
X135327367Y-96664870D01*
X135476696Y-96803752D01*
X135423298Y-96825870D01*
X135344910Y-96878247D01*
X135318927Y-96904230D01*
X135310208Y-96860397D01*
X135274130Y-96773298D01*
X135221753Y-96694910D01*
X135155090Y-96628247D01*
X135076702Y-96575870D01*
X134989603Y-96539792D01*
X134897138Y-96521400D01*
X134802862Y-96521400D01*
X134710397Y-96539792D01*
X134623298Y-96575870D01*
X134544910Y-96628247D01*
X134500000Y-96673157D01*
X134455090Y-96628247D01*
X134376702Y-96575870D01*
X134289603Y-96539792D01*
X134197138Y-96521400D01*
X134102862Y-96521400D01*
X134010397Y-96539792D01*
X133923298Y-96575870D01*
X133844910Y-96628247D01*
X133778247Y-96694910D01*
X133725870Y-96773298D01*
X133689792Y-96860397D01*
X133681073Y-96904230D01*
X133655090Y-96878247D01*
X133576702Y-96825870D01*
X133489603Y-96789792D01*
X133397138Y-96771400D01*
X133302862Y-96771400D01*
X133210397Y-96789792D01*
X133123298Y-96825870D01*
X133044910Y-96878247D01*
X132978247Y-96944910D01*
X132925870Y-97023298D01*
X132889792Y-97110397D01*
X132871400Y-97202862D01*
X132871400Y-97246400D01*
X118628600Y-97246400D01*
X118628600Y-97202862D01*
X118610208Y-97110397D01*
X118574130Y-97023298D01*
X118521753Y-96944910D01*
X118455090Y-96878247D01*
X118376702Y-96825870D01*
X118289603Y-96789792D01*
X118197138Y-96771400D01*
X118102862Y-96771400D01*
X118010397Y-96789792D01*
X117923298Y-96825870D01*
X117844910Y-96878247D01*
X117818927Y-96904230D01*
X117810208Y-96860397D01*
X117774130Y-96773298D01*
X117721753Y-96694910D01*
X117655090Y-96628247D01*
X117576702Y-96575870D01*
X117489603Y-96539792D01*
X117397138Y-96521400D01*
X117302862Y-96521400D01*
X117210397Y-96539792D01*
X117123298Y-96575870D01*
X117044910Y-96628247D01*
X117000000Y-96673157D01*
X116955090Y-96628247D01*
X116876702Y-96575870D01*
X116789603Y-96539792D01*
X116697138Y-96521400D01*
X116602862Y-96521400D01*
X116510397Y-96539792D01*
X116423298Y-96575870D01*
X116344910Y-96628247D01*
X116278247Y-96694910D01*
X116225870Y-96773298D01*
X116189792Y-96860397D01*
X116181073Y-96904230D01*
X116155090Y-96878247D01*
X116076702Y-96825870D01*
X115989603Y-96789792D01*
X115897138Y-96771400D01*
X115802862Y-96771400D01*
X115710397Y-96789792D01*
X115623298Y-96825870D01*
X115544910Y-96878247D01*
X115478247Y-96944910D01*
X115425870Y-97023298D01*
X115389792Y-97110397D01*
X115371400Y-97202862D01*
X115371400Y-97246400D01*
X110253600Y-97246400D01*
X110253600Y-95991706D01*
X110986682Y-95991706D01*
X110943635Y-96095630D01*
X110921400Y-96207415D01*
X110921400Y-96321389D01*
X110943635Y-96433174D01*
X110987251Y-96538472D01*
X111050572Y-96633238D01*
X111131164Y-96713830D01*
X111225930Y-96777151D01*
X111331228Y-96820767D01*
X111443013Y-96843002D01*
X111556987Y-96843002D01*
X111668772Y-96820767D01*
X111774070Y-96777151D01*
X111868836Y-96713830D01*
X111949428Y-96633238D01*
X111966758Y-96607302D01*
X114556045Y-96607302D01*
X114572880Y-96608960D01*
X114589715Y-96607302D01*
X114589723Y-96607302D01*
X114640100Y-96602340D01*
X114704737Y-96582733D01*
X114764307Y-96550892D01*
X114816520Y-96508042D01*
X114827262Y-96494953D01*
X114846016Y-96476199D01*
X117099866Y-96476199D01*
X117116701Y-96477857D01*
X117133536Y-96476199D01*
X117133544Y-96476199D01*
X117183921Y-96471237D01*
X117248558Y-96451630D01*
X117308128Y-96419789D01*
X117360341Y-96376939D01*
X117371082Y-96363851D01*
X118539592Y-95195342D01*
X118538741Y-95203983D01*
X118540399Y-95220819D01*
X118540400Y-95866454D01*
X118538741Y-95883299D01*
X118540078Y-95896870D01*
X118487251Y-95975930D01*
X118443635Y-96081228D01*
X118421400Y-96193013D01*
X118421400Y-96306987D01*
X118443635Y-96418772D01*
X118487251Y-96524070D01*
X118550572Y-96618836D01*
X118631164Y-96699428D01*
X118725930Y-96762749D01*
X118831228Y-96806365D01*
X118943013Y-96828600D01*
X119056987Y-96828600D01*
X119168772Y-96806365D01*
X119274070Y-96762749D01*
X119368836Y-96699428D01*
X119449428Y-96618836D01*
X119512749Y-96524070D01*
X119556365Y-96418772D01*
X119578600Y-96306987D01*
X119578600Y-96193013D01*
X119556365Y-96081228D01*
X119555276Y-96078600D01*
X119556987Y-96078600D01*
X119668772Y-96056365D01*
X119774070Y-96012749D01*
X119868836Y-95949428D01*
X119949428Y-95868836D01*
X120012749Y-95774070D01*
X120056365Y-95668772D01*
X120078600Y-95556987D01*
X120078600Y-95443013D01*
X120072515Y-95412419D01*
X120392034Y-95092900D01*
X120420294Y-95092900D01*
X120420294Y-95500000D01*
X120424708Y-95544813D01*
X120437779Y-95587905D01*
X120459006Y-95627618D01*
X120487573Y-95662427D01*
X120522382Y-95690994D01*
X120562095Y-95712221D01*
X120605187Y-95725292D01*
X120650000Y-95729706D01*
X121650000Y-95729706D01*
X121694813Y-95725292D01*
X121737905Y-95712221D01*
X121777618Y-95690994D01*
X121800000Y-95672626D01*
X121822382Y-95690994D01*
X121862095Y-95712221D01*
X121905187Y-95725292D01*
X121950000Y-95729706D01*
X122244773Y-95729706D01*
X122427485Y-95912419D01*
X122421400Y-95943013D01*
X122421400Y-96056987D01*
X122443635Y-96168772D01*
X122487251Y-96274070D01*
X122550572Y-96368836D01*
X122631164Y-96449428D01*
X122725930Y-96512749D01*
X122831228Y-96556365D01*
X122943013Y-96578600D01*
X123056987Y-96578600D01*
X123168772Y-96556365D01*
X123274070Y-96512749D01*
X123368836Y-96449428D01*
X123449428Y-96368836D01*
X123512749Y-96274070D01*
X123556365Y-96168772D01*
X123578600Y-96056987D01*
X123578600Y-95943013D01*
X123556365Y-95831228D01*
X123514313Y-95729706D01*
X124250000Y-95729706D01*
X124294813Y-95725292D01*
X124337905Y-95712221D01*
X124377618Y-95690994D01*
X124412427Y-95662427D01*
X124440994Y-95627618D01*
X124462221Y-95587905D01*
X124475292Y-95544813D01*
X124479706Y-95500000D01*
X124479706Y-94193013D01*
X125921400Y-94193013D01*
X125921400Y-94306987D01*
X125943635Y-94418772D01*
X125987251Y-94524070D01*
X126050572Y-94618836D01*
X126131164Y-94699428D01*
X126225930Y-94762749D01*
X126331228Y-94806365D01*
X126443013Y-94828600D01*
X126556987Y-94828600D01*
X126668772Y-94806365D01*
X126774070Y-94762749D01*
X126868836Y-94699428D01*
X126949428Y-94618836D01*
X127012749Y-94524070D01*
X127056365Y-94418772D01*
X127078600Y-94306987D01*
X127078600Y-94193013D01*
X127056365Y-94081228D01*
X127012749Y-93975930D01*
X126949428Y-93881164D01*
X126868836Y-93800572D01*
X126774070Y-93737251D01*
X126668772Y-93693635D01*
X126556987Y-93671400D01*
X126443013Y-93671400D01*
X126331228Y-93693635D01*
X126225930Y-93737251D01*
X126131164Y-93800572D01*
X126050572Y-93881164D01*
X125987251Y-93975930D01*
X125943635Y-94081228D01*
X125921400Y-94193013D01*
X124479706Y-94193013D01*
X124479706Y-94000000D01*
X124475292Y-93955187D01*
X124462221Y-93912095D01*
X124440994Y-93872382D01*
X124412427Y-93837573D01*
X124377618Y-93809006D01*
X124337905Y-93787779D01*
X124294813Y-93774708D01*
X124250000Y-93770294D01*
X124236039Y-93770294D01*
X124413434Y-93592900D01*
X126233165Y-93592900D01*
X126250000Y-93594558D01*
X126266835Y-93592900D01*
X126266843Y-93592900D01*
X126317220Y-93587938D01*
X126381857Y-93568331D01*
X126441427Y-93536490D01*
X126493640Y-93493640D01*
X126504381Y-93480552D01*
X126980556Y-93004377D01*
X126993639Y-92993640D01*
X127036490Y-92941427D01*
X127068331Y-92881857D01*
X127087938Y-92817220D01*
X127092900Y-92766843D01*
X127092900Y-92766842D01*
X127094559Y-92750000D01*
X127092900Y-92733157D01*
X127092900Y-91766834D01*
X127094558Y-91749999D01*
X127092900Y-91733164D01*
X127092900Y-91733157D01*
X127087938Y-91682780D01*
X127068331Y-91618143D01*
X127036490Y-91558573D01*
X126993640Y-91506360D01*
X126980557Y-91495623D01*
X123621082Y-88136149D01*
X123610341Y-88123061D01*
X123558128Y-88080211D01*
X123498558Y-88048370D01*
X123433921Y-88028763D01*
X123383544Y-88023801D01*
X123383536Y-88023801D01*
X123366701Y-88022143D01*
X123349866Y-88023801D01*
X115258735Y-88023801D01*
X114577947Y-87343013D01*
X123221400Y-87343013D01*
X123221400Y-87456987D01*
X123243635Y-87568772D01*
X123287251Y-87674070D01*
X123350572Y-87768836D01*
X123431164Y-87849428D01*
X123525930Y-87912749D01*
X123631228Y-87956365D01*
X123743013Y-87978600D01*
X123856987Y-87978600D01*
X123887581Y-87972514D01*
X128157100Y-92242033D01*
X128157101Y-94233155D01*
X128155442Y-94250000D01*
X128162062Y-94317219D01*
X128176359Y-94364348D01*
X128181670Y-94381857D01*
X128213511Y-94441427D01*
X128256361Y-94493640D01*
X128269443Y-94504376D01*
X128927485Y-95162419D01*
X128921400Y-95193013D01*
X128921400Y-95306987D01*
X128943635Y-95418772D01*
X128987251Y-95524070D01*
X129050572Y-95618836D01*
X129131164Y-95699428D01*
X129225930Y-95762749D01*
X129331228Y-95806365D01*
X129443013Y-95828600D01*
X129556987Y-95828600D01*
X129668772Y-95806365D01*
X129774070Y-95762749D01*
X129868836Y-95699428D01*
X129949428Y-95618836D01*
X129973431Y-95582913D01*
X135050782Y-95582913D01*
X135081031Y-95773800D01*
X136923800Y-95773800D01*
X136923800Y-94621400D01*
X137076200Y-94621400D01*
X137076200Y-95773800D01*
X138918969Y-95773800D01*
X138949218Y-95582913D01*
X138914239Y-95450234D01*
X138813878Y-95230784D01*
X138672633Y-95035130D01*
X138495932Y-94870791D01*
X138290565Y-94744082D01*
X138064424Y-94659873D01*
X137826200Y-94621400D01*
X137076200Y-94621400D01*
X136923800Y-94621400D01*
X136173800Y-94621400D01*
X135935576Y-94659873D01*
X135709435Y-94744082D01*
X135504068Y-94870791D01*
X135327367Y-95035130D01*
X135186122Y-95230784D01*
X135085761Y-95450234D01*
X135050782Y-95582913D01*
X129973431Y-95582913D01*
X130012749Y-95524070D01*
X130056365Y-95418772D01*
X130078600Y-95306987D01*
X130078600Y-95193013D01*
X130056365Y-95081228D01*
X130012749Y-94975930D01*
X129949428Y-94881164D01*
X129868836Y-94800572D01*
X129774070Y-94737251D01*
X129668772Y-94693635D01*
X129556987Y-94671400D01*
X129443013Y-94671400D01*
X129412419Y-94677485D01*
X128842900Y-94107967D01*
X128842900Y-93693013D01*
X129171400Y-93693013D01*
X129171400Y-93806987D01*
X129193635Y-93918772D01*
X129237251Y-94024070D01*
X129300572Y-94118836D01*
X129381164Y-94199428D01*
X129475930Y-94262749D01*
X129581228Y-94306365D01*
X129693013Y-94328600D01*
X129806987Y-94328600D01*
X129883082Y-94313464D01*
X134194299Y-94313464D01*
X134296569Y-94460190D01*
X134495488Y-94559464D01*
X134709952Y-94618023D01*
X134931719Y-94633617D01*
X135152267Y-94605647D01*
X135363121Y-94535187D01*
X135503431Y-94460190D01*
X135605701Y-94313464D01*
X134900000Y-93607763D01*
X134194299Y-94313464D01*
X129883082Y-94313464D01*
X129918772Y-94306365D01*
X130024070Y-94262749D01*
X130118836Y-94199428D01*
X130199428Y-94118836D01*
X130262749Y-94024070D01*
X130306365Y-93918772D01*
X130328600Y-93806987D01*
X130328600Y-93693013D01*
X130306365Y-93581228D01*
X130285858Y-93531719D01*
X133766383Y-93531719D01*
X133794353Y-93752267D01*
X133864813Y-93963121D01*
X133939810Y-94103431D01*
X134086536Y-94205701D01*
X134792237Y-93500000D01*
X135007763Y-93500000D01*
X135713464Y-94205701D01*
X135860190Y-94103431D01*
X135959464Y-93904512D01*
X136018023Y-93690048D01*
X136033617Y-93468281D01*
X136006679Y-93255870D01*
X136151893Y-93255870D01*
X136278216Y-93423090D01*
X136511188Y-93542323D01*
X136762946Y-93613815D01*
X137023813Y-93634817D01*
X137283765Y-93604524D01*
X137532813Y-93524097D01*
X137721784Y-93423090D01*
X137848107Y-93255870D01*
X137000000Y-92407763D01*
X136151893Y-93255870D01*
X136006679Y-93255870D01*
X136005647Y-93247733D01*
X135948119Y-93075577D01*
X136044130Y-93148107D01*
X136892237Y-92300000D01*
X137107763Y-92300000D01*
X137955870Y-93148107D01*
X138123090Y-93021784D01*
X138242323Y-92788812D01*
X138313815Y-92537054D01*
X138334817Y-92276187D01*
X138304524Y-92016235D01*
X138224097Y-91767187D01*
X138123090Y-91578216D01*
X137955870Y-91451893D01*
X137107763Y-92300000D01*
X136892237Y-92300000D01*
X136044130Y-91451893D01*
X135876910Y-91578216D01*
X135757677Y-91811188D01*
X135686185Y-92062946D01*
X135665183Y-92323813D01*
X135695476Y-92583765D01*
X135775903Y-92832813D01*
X135780168Y-92840793D01*
X135713464Y-92794299D01*
X135007763Y-93500000D01*
X134792237Y-93500000D01*
X134086536Y-92794299D01*
X133939810Y-92896569D01*
X133840536Y-93095488D01*
X133781977Y-93309952D01*
X133766383Y-93531719D01*
X130285858Y-93531719D01*
X130262749Y-93475930D01*
X130199428Y-93381164D01*
X130118836Y-93300572D01*
X130024070Y-93237251D01*
X129918772Y-93193635D01*
X129806987Y-93171400D01*
X129693013Y-93171400D01*
X129581228Y-93193635D01*
X129475930Y-93237251D01*
X129381164Y-93300572D01*
X129300572Y-93381164D01*
X129237251Y-93475930D01*
X129193635Y-93581228D01*
X129171400Y-93693013D01*
X128842900Y-93693013D01*
X128842900Y-92686536D01*
X134194299Y-92686536D01*
X134900000Y-93392237D01*
X135605701Y-92686536D01*
X135503431Y-92539810D01*
X135304512Y-92440536D01*
X135090048Y-92381977D01*
X134868281Y-92366383D01*
X134647733Y-92394353D01*
X134436879Y-92464813D01*
X134296569Y-92539810D01*
X134194299Y-92686536D01*
X128842900Y-92686536D01*
X128842900Y-92116843D01*
X128844559Y-92100000D01*
X128837938Y-92032780D01*
X128818331Y-91968143D01*
X128786490Y-91908573D01*
X128764563Y-91881856D01*
X128743639Y-91856360D01*
X128730556Y-91845623D01*
X126149620Y-89264687D01*
X128176763Y-89264687D01*
X128176763Y-89378661D01*
X128198998Y-89490446D01*
X128242614Y-89595744D01*
X128305935Y-89690510D01*
X128386527Y-89771102D01*
X128481293Y-89834423D01*
X128586591Y-89878039D01*
X128698376Y-89900274D01*
X128812350Y-89900274D01*
X128924135Y-89878039D01*
X129029433Y-89834423D01*
X129124199Y-89771102D01*
X129204791Y-89690510D01*
X129268112Y-89595744D01*
X129274629Y-89580010D01*
X129300572Y-89618836D01*
X129381164Y-89699428D01*
X129475930Y-89762749D01*
X129581228Y-89806365D01*
X129693013Y-89828600D01*
X129806987Y-89828600D01*
X129837581Y-89822514D01*
X131245619Y-91230552D01*
X131256360Y-91243640D01*
X131300825Y-91280131D01*
X131308573Y-91286490D01*
X131368143Y-91318331D01*
X131432780Y-91337938D01*
X131500000Y-91344559D01*
X131516843Y-91342900D01*
X133820445Y-91342900D01*
X133899847Y-91534593D01*
X134023359Y-91719441D01*
X134180559Y-91876641D01*
X134365407Y-92000153D01*
X134570799Y-92085229D01*
X134788843Y-92128600D01*
X135011157Y-92128600D01*
X135229201Y-92085229D01*
X135434593Y-92000153D01*
X135619441Y-91876641D01*
X135776641Y-91719441D01*
X135900153Y-91534593D01*
X135979045Y-91344130D01*
X136151893Y-91344130D01*
X137000000Y-92192237D01*
X137848107Y-91344130D01*
X137721784Y-91176910D01*
X137488812Y-91057677D01*
X137237054Y-90986185D01*
X136976187Y-90965183D01*
X136716235Y-90995476D01*
X136467187Y-91075903D01*
X136278216Y-91176910D01*
X136151893Y-91344130D01*
X135979045Y-91344130D01*
X135985229Y-91329201D01*
X136028600Y-91111157D01*
X136028600Y-90888843D01*
X135985229Y-90670799D01*
X135900153Y-90465407D01*
X135776641Y-90280559D01*
X135619441Y-90123359D01*
X135434822Y-90000000D01*
X135619441Y-89876641D01*
X135776641Y-89719441D01*
X135900153Y-89534593D01*
X135985229Y-89329201D01*
X136028600Y-89111157D01*
X136028600Y-88888843D01*
X135985229Y-88670799D01*
X135979046Y-88655870D01*
X136151893Y-88655870D01*
X136278216Y-88823090D01*
X136511188Y-88942323D01*
X136762946Y-89013815D01*
X137023813Y-89034817D01*
X137283765Y-89004524D01*
X137532813Y-88924097D01*
X137721784Y-88823090D01*
X137848107Y-88655870D01*
X137000000Y-87807763D01*
X136151893Y-88655870D01*
X135979046Y-88655870D01*
X135900153Y-88465407D01*
X135776641Y-88280559D01*
X135619441Y-88123359D01*
X135434593Y-87999847D01*
X135229201Y-87914771D01*
X135011157Y-87871400D01*
X134788843Y-87871400D01*
X134570799Y-87914771D01*
X134365407Y-87999847D01*
X134180559Y-88123359D01*
X134023359Y-88280559D01*
X134016785Y-88290398D01*
X132501839Y-88290398D01*
X132512749Y-88274070D01*
X132556365Y-88168772D01*
X132578600Y-88056987D01*
X132578600Y-87943013D01*
X132556365Y-87831228D01*
X132512749Y-87725930D01*
X132449428Y-87631164D01*
X132368836Y-87550572D01*
X132293150Y-87500000D01*
X132368836Y-87449428D01*
X132449428Y-87368836D01*
X132512749Y-87274070D01*
X132556365Y-87168772D01*
X132578600Y-87056987D01*
X132578600Y-86943013D01*
X132556365Y-86831228D01*
X132512749Y-86725930D01*
X132449428Y-86631164D01*
X132368836Y-86550572D01*
X132274070Y-86487251D01*
X132168772Y-86443635D01*
X132056987Y-86421400D01*
X131943013Y-86421400D01*
X131831228Y-86443635D01*
X131725930Y-86487251D01*
X131631164Y-86550572D01*
X131550572Y-86631164D01*
X131500000Y-86706850D01*
X131449428Y-86631164D01*
X131406900Y-86588636D01*
X131406900Y-86388843D01*
X133771400Y-86388843D01*
X133771400Y-86611157D01*
X133814771Y-86829201D01*
X133899847Y-87034593D01*
X134023359Y-87219441D01*
X134180559Y-87376641D01*
X134365407Y-87500153D01*
X134570799Y-87585229D01*
X134788843Y-87628600D01*
X135011157Y-87628600D01*
X135229201Y-87585229D01*
X135434593Y-87500153D01*
X135619441Y-87376641D01*
X135746883Y-87249199D01*
X135686185Y-87462946D01*
X135665183Y-87723813D01*
X135695476Y-87983765D01*
X135775903Y-88232813D01*
X135876910Y-88421784D01*
X136044130Y-88548107D01*
X136892237Y-87700000D01*
X137107763Y-87700000D01*
X137955870Y-88548107D01*
X138123090Y-88421784D01*
X138242323Y-88188812D01*
X138313815Y-87937054D01*
X138334817Y-87676187D01*
X138304524Y-87416235D01*
X138224097Y-87167187D01*
X138123090Y-86978216D01*
X137955870Y-86851893D01*
X137107763Y-87700000D01*
X136892237Y-87700000D01*
X136044130Y-86851893D01*
X135944725Y-86926987D01*
X135985229Y-86829201D01*
X136002150Y-86744130D01*
X136151893Y-86744130D01*
X137000000Y-87592237D01*
X137848107Y-86744130D01*
X137721784Y-86576910D01*
X137488812Y-86457677D01*
X137237054Y-86386185D01*
X136976187Y-86365183D01*
X136716235Y-86395476D01*
X136467187Y-86475903D01*
X136278216Y-86576910D01*
X136151893Y-86744130D01*
X136002150Y-86744130D01*
X136028600Y-86611157D01*
X136028600Y-86388843D01*
X135985229Y-86170799D01*
X135900153Y-85965407D01*
X135776641Y-85780559D01*
X135619441Y-85623359D01*
X135434593Y-85499847D01*
X135229201Y-85414771D01*
X135011157Y-85371400D01*
X134788843Y-85371400D01*
X134570799Y-85414771D01*
X134365407Y-85499847D01*
X134180559Y-85623359D01*
X134023359Y-85780559D01*
X133899847Y-85965407D01*
X133814771Y-86170799D01*
X133771400Y-86388843D01*
X131406900Y-86388843D01*
X131406900Y-84417087D01*
X135050782Y-84417087D01*
X135085761Y-84549766D01*
X135186122Y-84769216D01*
X135327367Y-84964870D01*
X135504068Y-85129209D01*
X135709435Y-85255918D01*
X135935576Y-85340127D01*
X136173800Y-85378600D01*
X136923800Y-85378600D01*
X136923800Y-84226200D01*
X137076200Y-84226200D01*
X137076200Y-85378600D01*
X137826200Y-85378600D01*
X138064424Y-85340127D01*
X138290565Y-85255918D01*
X138495932Y-85129209D01*
X138672633Y-84964870D01*
X138813878Y-84769216D01*
X138914239Y-84549766D01*
X138949218Y-84417087D01*
X138918969Y-84226200D01*
X137076200Y-84226200D01*
X136923800Y-84226200D01*
X135081031Y-84226200D01*
X135050782Y-84417087D01*
X131406900Y-84417087D01*
X131406900Y-84146597D01*
X131409121Y-84145677D01*
X131528455Y-84065940D01*
X131629940Y-83964455D01*
X131709677Y-83845121D01*
X131764600Y-83712525D01*
X131792600Y-83571761D01*
X131792600Y-83428239D01*
X131764600Y-83287475D01*
X131709677Y-83154879D01*
X131629940Y-83035545D01*
X131528455Y-82934060D01*
X131409121Y-82854323D01*
X131276525Y-82799400D01*
X131135761Y-82771400D01*
X130992239Y-82771400D01*
X130851475Y-82799400D01*
X130718879Y-82854323D01*
X130599545Y-82934060D01*
X130498060Y-83035545D01*
X130418323Y-83154879D01*
X130363400Y-83287475D01*
X130335400Y-83428239D01*
X130335400Y-83571761D01*
X130363400Y-83712525D01*
X130418323Y-83845121D01*
X130498060Y-83964455D01*
X130599545Y-84065940D01*
X130718879Y-84145677D01*
X130721100Y-84146597D01*
X130721101Y-86490478D01*
X130631164Y-86550572D01*
X130550572Y-86631164D01*
X130487251Y-86725930D01*
X130443635Y-86831228D01*
X130421400Y-86943013D01*
X130421400Y-87056987D01*
X130443635Y-87168772D01*
X130487251Y-87274070D01*
X130550572Y-87368836D01*
X130631164Y-87449428D01*
X130725930Y-87512749D01*
X130831228Y-87556365D01*
X130943013Y-87578600D01*
X131056987Y-87578600D01*
X131168772Y-87556365D01*
X131274070Y-87512749D01*
X131368836Y-87449428D01*
X131449428Y-87368836D01*
X131500000Y-87293150D01*
X131550572Y-87368836D01*
X131631164Y-87449428D01*
X131706850Y-87500000D01*
X131631164Y-87550572D01*
X131550572Y-87631164D01*
X131487251Y-87725930D01*
X131443635Y-87831228D01*
X131421400Y-87943013D01*
X131421400Y-88056987D01*
X131443635Y-88168772D01*
X131487251Y-88274070D01*
X131498161Y-88290398D01*
X129460582Y-88290398D01*
X129443739Y-88288739D01*
X129426896Y-88290398D01*
X129376519Y-88295360D01*
X129311882Y-88314967D01*
X129252312Y-88346808D01*
X129200099Y-88389658D01*
X129189358Y-88402746D01*
X128842944Y-88749160D01*
X128812350Y-88743074D01*
X128698376Y-88743074D01*
X128586591Y-88765309D01*
X128481293Y-88808925D01*
X128386527Y-88872246D01*
X128305935Y-88952838D01*
X128242614Y-89047604D01*
X128198998Y-89152902D01*
X128176763Y-89264687D01*
X126149620Y-89264687D01*
X125462447Y-88577514D01*
X125568772Y-88556365D01*
X125674070Y-88512749D01*
X125768836Y-88449428D01*
X125849428Y-88368836D01*
X125866758Y-88342900D01*
X125983165Y-88342900D01*
X126000000Y-88344558D01*
X126016835Y-88342900D01*
X126016843Y-88342900D01*
X126067220Y-88337938D01*
X126131857Y-88318331D01*
X126191427Y-88286490D01*
X126243640Y-88243640D01*
X126254381Y-88230552D01*
X129230556Y-85254377D01*
X129243639Y-85243640D01*
X129286490Y-85191427D01*
X129318331Y-85131857D01*
X129337938Y-85067220D01*
X129342900Y-85016843D01*
X129342900Y-85016842D01*
X129344559Y-85000000D01*
X129342900Y-84983157D01*
X129342900Y-84146597D01*
X129345121Y-84145677D01*
X129464455Y-84065940D01*
X129565940Y-83964455D01*
X129645677Y-83845121D01*
X129700600Y-83712525D01*
X129728600Y-83571761D01*
X129728600Y-83428239D01*
X129700600Y-83287475D01*
X129645677Y-83154879D01*
X129565940Y-83035545D01*
X129464455Y-82934060D01*
X129345121Y-82854323D01*
X129212525Y-82799400D01*
X129071761Y-82771400D01*
X128928239Y-82771400D01*
X128787475Y-82799400D01*
X128654879Y-82854323D01*
X128535545Y-82934060D01*
X128434060Y-83035545D01*
X128354323Y-83154879D01*
X128299400Y-83287475D01*
X128271400Y-83428239D01*
X128271400Y-83571761D01*
X128299400Y-83712525D01*
X128354323Y-83845121D01*
X128434060Y-83964455D01*
X128535545Y-84065940D01*
X128654879Y-84145677D01*
X128657101Y-84146597D01*
X128657100Y-84857967D01*
X125863237Y-87651830D01*
X125849428Y-87631164D01*
X125768836Y-87550572D01*
X125674070Y-87487251D01*
X125568772Y-87443635D01*
X125456987Y-87421400D01*
X125343013Y-87421400D01*
X125231228Y-87443635D01*
X125125930Y-87487251D01*
X125031164Y-87550572D01*
X124950572Y-87631164D01*
X124887251Y-87725930D01*
X124843635Y-87831228D01*
X124822486Y-87937553D01*
X124372514Y-87487581D01*
X124378600Y-87456987D01*
X124378600Y-87343013D01*
X124356365Y-87231228D01*
X124312749Y-87125930D01*
X124249428Y-87031164D01*
X124168836Y-86950572D01*
X124074070Y-86887251D01*
X123968772Y-86843635D01*
X123856987Y-86821400D01*
X123743013Y-86821400D01*
X123631228Y-86843635D01*
X123525930Y-86887251D01*
X123431164Y-86950572D01*
X123350572Y-87031164D01*
X123287251Y-87125930D01*
X123243635Y-87231228D01*
X123221400Y-87343013D01*
X114577947Y-87343013D01*
X114384381Y-87149448D01*
X114373640Y-87136360D01*
X114321427Y-87093510D01*
X114261857Y-87061669D01*
X114197220Y-87042062D01*
X114146843Y-87037100D01*
X114146835Y-87037100D01*
X114130000Y-87035442D01*
X114113165Y-87037100D01*
X112999706Y-87037100D01*
X112999706Y-86618000D01*
X112995292Y-86573187D01*
X112982221Y-86530095D01*
X112960994Y-86490382D01*
X112932427Y-86455573D01*
X112917123Y-86443013D01*
X118921400Y-86443013D01*
X118921400Y-86556987D01*
X118943635Y-86668772D01*
X118987251Y-86774070D01*
X119050572Y-86868836D01*
X119131164Y-86949428D01*
X119225930Y-87012749D01*
X119331228Y-87056365D01*
X119443013Y-87078600D01*
X119556987Y-87078600D01*
X119668772Y-87056365D01*
X119774070Y-87012749D01*
X119868836Y-86949428D01*
X119949428Y-86868836D01*
X120012749Y-86774070D01*
X120056365Y-86668772D01*
X120078600Y-86556987D01*
X120078600Y-86443013D01*
X120056365Y-86331228D01*
X120012749Y-86225930D01*
X119949428Y-86131164D01*
X119868836Y-86050572D01*
X119774070Y-85987251D01*
X119668772Y-85943635D01*
X119556987Y-85921400D01*
X119443013Y-85921400D01*
X119331228Y-85943635D01*
X119225930Y-85987251D01*
X119131164Y-86050572D01*
X119050572Y-86131164D01*
X118987251Y-86225930D01*
X118943635Y-86331228D01*
X118921400Y-86443013D01*
X112917123Y-86443013D01*
X112897618Y-86427006D01*
X112857905Y-86405779D01*
X112814813Y-86392708D01*
X112770000Y-86388294D01*
X110253600Y-86388294D01*
X110253600Y-85831706D01*
X112770000Y-85831706D01*
X112814813Y-85827292D01*
X112857905Y-85814221D01*
X112897618Y-85792994D01*
X112921400Y-85773477D01*
X112921400Y-85806987D01*
X112943635Y-85918772D01*
X112987251Y-86024070D01*
X113050572Y-86118836D01*
X113131164Y-86199428D01*
X113225930Y-86262749D01*
X113331228Y-86306365D01*
X113443013Y-86328600D01*
X113556987Y-86328600D01*
X113668772Y-86306365D01*
X113774070Y-86262749D01*
X113868836Y-86199428D01*
X113949428Y-86118836D01*
X114012749Y-86024070D01*
X114056365Y-85918772D01*
X114078600Y-85806987D01*
X114078600Y-85693013D01*
X114056365Y-85581228D01*
X114012749Y-85475930D01*
X113949428Y-85381164D01*
X113868836Y-85300572D01*
X113793150Y-85250000D01*
X113868836Y-85199428D01*
X113949428Y-85118836D01*
X114012749Y-85024070D01*
X114056365Y-84918772D01*
X114078600Y-84806987D01*
X114078600Y-84693013D01*
X114056365Y-84581228D01*
X114012749Y-84475930D01*
X113990755Y-84443013D01*
X121921400Y-84443013D01*
X121921400Y-84556987D01*
X121943635Y-84668772D01*
X121987251Y-84774070D01*
X122050572Y-84868836D01*
X122131164Y-84949428D01*
X122225930Y-85012749D01*
X122331228Y-85056365D01*
X122443013Y-85078600D01*
X122556987Y-85078600D01*
X122668772Y-85056365D01*
X122774070Y-85012749D01*
X122868836Y-84949428D01*
X122949428Y-84868836D01*
X122966758Y-84842900D01*
X123951165Y-84842900D01*
X123968000Y-84844558D01*
X123984835Y-84842900D01*
X123984843Y-84842900D01*
X124035220Y-84837938D01*
X124099857Y-84818331D01*
X124159427Y-84786490D01*
X124211640Y-84743640D01*
X124222381Y-84730552D01*
X124509920Y-84443013D01*
X125421400Y-84443013D01*
X125421400Y-84556987D01*
X125443635Y-84668772D01*
X125487251Y-84774070D01*
X125550572Y-84868836D01*
X125631164Y-84949428D01*
X125725930Y-85012749D01*
X125831228Y-85056365D01*
X125943013Y-85078600D01*
X126056987Y-85078600D01*
X126168772Y-85056365D01*
X126274070Y-85012749D01*
X126368836Y-84949428D01*
X126449428Y-84868836D01*
X126512749Y-84774070D01*
X126556365Y-84668772D01*
X126578600Y-84556987D01*
X126578600Y-84443013D01*
X127421400Y-84443013D01*
X127421400Y-84556987D01*
X127443635Y-84668772D01*
X127487251Y-84774070D01*
X127550572Y-84868836D01*
X127631164Y-84949428D01*
X127725930Y-85012749D01*
X127831228Y-85056365D01*
X127943013Y-85078600D01*
X128056987Y-85078600D01*
X128168772Y-85056365D01*
X128274070Y-85012749D01*
X128368836Y-84949428D01*
X128449428Y-84868836D01*
X128512749Y-84774070D01*
X128556365Y-84668772D01*
X128578600Y-84556987D01*
X128578600Y-84443013D01*
X128556365Y-84331228D01*
X128512749Y-84225930D01*
X128449428Y-84131164D01*
X128368836Y-84050572D01*
X128274070Y-83987251D01*
X128168772Y-83943635D01*
X128056987Y-83921400D01*
X127943013Y-83921400D01*
X127831228Y-83943635D01*
X127725930Y-83987251D01*
X127631164Y-84050572D01*
X127550572Y-84131164D01*
X127487251Y-84225930D01*
X127443635Y-84331228D01*
X127421400Y-84443013D01*
X126578600Y-84443013D01*
X126572515Y-84412419D01*
X126785254Y-84199680D01*
X126787475Y-84200600D01*
X126928239Y-84228600D01*
X127071761Y-84228600D01*
X127212525Y-84200600D01*
X127345121Y-84145677D01*
X127464455Y-84065940D01*
X127565940Y-83964455D01*
X127645677Y-83845121D01*
X127700600Y-83712525D01*
X127728600Y-83571761D01*
X127728600Y-83428239D01*
X127700600Y-83287475D01*
X127645677Y-83154879D01*
X127565940Y-83035545D01*
X127464455Y-82934060D01*
X127345121Y-82854323D01*
X127212525Y-82799400D01*
X127071761Y-82771400D01*
X126928239Y-82771400D01*
X126787475Y-82799400D01*
X126654879Y-82854323D01*
X126535545Y-82934060D01*
X126434060Y-83035545D01*
X126354323Y-83154879D01*
X126299400Y-83287475D01*
X126271400Y-83428239D01*
X126271400Y-83571761D01*
X126299400Y-83712525D01*
X126300320Y-83714746D01*
X126087581Y-83927485D01*
X126056987Y-83921400D01*
X125943013Y-83921400D01*
X125831228Y-83943635D01*
X125725930Y-83987251D01*
X125631164Y-84050572D01*
X125550572Y-84131164D01*
X125487251Y-84225930D01*
X125443635Y-84331228D01*
X125421400Y-84443013D01*
X124509920Y-84443013D01*
X124753254Y-84199680D01*
X124755475Y-84200600D01*
X124896239Y-84228600D01*
X125039761Y-84228600D01*
X125180525Y-84200600D01*
X125313121Y-84145677D01*
X125432455Y-84065940D01*
X125533940Y-83964455D01*
X125613677Y-83845121D01*
X125668600Y-83712525D01*
X125696600Y-83571761D01*
X125696600Y-83428239D01*
X125668600Y-83287475D01*
X125613677Y-83154879D01*
X125533940Y-83035545D01*
X125432455Y-82934060D01*
X125313121Y-82854323D01*
X125180525Y-82799400D01*
X125039761Y-82771400D01*
X124896239Y-82771400D01*
X124755475Y-82799400D01*
X124622879Y-82854323D01*
X124503545Y-82934060D01*
X124402060Y-83035545D01*
X124322323Y-83154879D01*
X124267400Y-83287475D01*
X124239400Y-83428239D01*
X124239400Y-83571761D01*
X124267400Y-83712525D01*
X124268320Y-83714746D01*
X123825967Y-84157100D01*
X123258634Y-84157100D01*
X123259515Y-84156769D01*
X123302348Y-84133874D01*
X123356347Y-84028110D01*
X122936000Y-83607763D01*
X122921858Y-83621906D01*
X122814095Y-83514143D01*
X122828237Y-83500000D01*
X123043763Y-83500000D01*
X123464110Y-83920347D01*
X123569874Y-83866348D01*
X123629165Y-83735646D01*
X123661819Y-83595889D01*
X123666580Y-83452446D01*
X123643264Y-83310830D01*
X123592769Y-83176485D01*
X123569874Y-83133652D01*
X123464110Y-83079653D01*
X123043763Y-83500000D01*
X122828237Y-83500000D01*
X122407890Y-83079653D01*
X122302126Y-83133652D01*
X122242835Y-83264354D01*
X122210181Y-83404111D01*
X122205420Y-83547554D01*
X122228736Y-83689170D01*
X122279231Y-83823515D01*
X122302126Y-83866348D01*
X122407888Y-83920346D01*
X122397851Y-83930383D01*
X122331228Y-83943635D01*
X122225930Y-83987251D01*
X122131164Y-84050572D01*
X122050572Y-84131164D01*
X121987251Y-84225930D01*
X121943635Y-84331228D01*
X121921400Y-84443013D01*
X113990755Y-84443013D01*
X113949428Y-84381164D01*
X113868836Y-84300572D01*
X113774070Y-84237251D01*
X113668772Y-84193635D01*
X113556987Y-84171400D01*
X113443013Y-84171400D01*
X113331228Y-84193635D01*
X113225930Y-84237251D01*
X113131164Y-84300572D01*
X113050572Y-84381164D01*
X112999706Y-84457290D01*
X112999706Y-84078000D01*
X112995292Y-84033187D01*
X112982221Y-83990095D01*
X112960994Y-83950382D01*
X112932427Y-83915573D01*
X112897618Y-83887006D01*
X112857905Y-83865779D01*
X112814813Y-83852708D01*
X112770000Y-83848294D01*
X111963154Y-83848294D01*
X112012749Y-83774070D01*
X112056365Y-83668772D01*
X112078600Y-83556987D01*
X112078600Y-83443013D01*
X112056365Y-83331228D01*
X112012749Y-83225930D01*
X111949428Y-83131164D01*
X111868836Y-83050572D01*
X111774070Y-82987251D01*
X111668772Y-82943635D01*
X111556987Y-82921400D01*
X111443013Y-82921400D01*
X111331228Y-82943635D01*
X111225930Y-82987251D01*
X111131164Y-83050572D01*
X111050572Y-83131164D01*
X110987251Y-83225930D01*
X110943635Y-83331228D01*
X110921400Y-83443013D01*
X110921400Y-83556987D01*
X110943635Y-83668772D01*
X110987251Y-83774070D01*
X111036846Y-83848294D01*
X110253600Y-83848294D01*
X110253600Y-82753600D01*
X115371400Y-82753600D01*
X115371400Y-82797138D01*
G37*
G04 #@! TD.AperFunction*
D19*
X113025930Y-93212749D02*
X113131228Y-93256365D01*
X113181414Y-93266348D01*
X114545623Y-94630557D01*
X114556360Y-94643640D01*
X114572761Y-94657100D01*
X112999706Y-94657100D01*
X112999706Y-94238000D01*
X112995292Y-94193187D01*
X112982221Y-94150095D01*
X112960994Y-94110382D01*
X112932427Y-94075573D01*
X112897618Y-94047006D01*
X112857905Y-94025779D01*
X112814813Y-94012708D01*
X112770000Y-94008294D01*
X110253600Y-94008294D01*
X110253600Y-93451706D01*
X112770000Y-93451706D01*
X112814813Y-93447292D01*
X112857905Y-93434221D01*
X112897618Y-93412994D01*
X112932427Y-93384427D01*
X112960994Y-93349618D01*
X112982221Y-93309905D01*
X112995292Y-93266813D01*
X112999706Y-93222000D01*
X112999706Y-93195227D01*
X113025930Y-93212749D01*
G04 #@! TA.AperFunction,Conductor*
D20*
G36*
X113025930Y-93212749D02*
G01*
X113131228Y-93256365D01*
X113181414Y-93266348D01*
X114545623Y-94630557D01*
X114556360Y-94643640D01*
X114572761Y-94657100D01*
X112999706Y-94657100D01*
X112999706Y-94238000D01*
X112995292Y-94193187D01*
X112982221Y-94150095D01*
X112960994Y-94110382D01*
X112932427Y-94075573D01*
X112897618Y-94047006D01*
X112857905Y-94025779D01*
X112814813Y-94012708D01*
X112770000Y-94008294D01*
X110253600Y-94008294D01*
X110253600Y-93451706D01*
X112770000Y-93451706D01*
X112814813Y-93447292D01*
X112857905Y-93434221D01*
X112897618Y-93412994D01*
X112932427Y-93384427D01*
X112960994Y-93349618D01*
X112982221Y-93309905D01*
X112995292Y-93266813D01*
X112999706Y-93222000D01*
X112999706Y-93195227D01*
X113025930Y-93212749D01*
G37*
G04 #@! TD.AperFunction*
D19*
X126407101Y-91892035D02*
X126407100Y-92607967D01*
X126107967Y-92907100D01*
X124288243Y-92907100D01*
X124271400Y-92905441D01*
X124254557Y-92907100D01*
X124204180Y-92912062D01*
X124165299Y-92923856D01*
X124178600Y-92856987D01*
X124178600Y-92743013D01*
X124156365Y-92631228D01*
X124112749Y-92525930D01*
X124049428Y-92431164D01*
X123968836Y-92350572D01*
X123874070Y-92287251D01*
X123768772Y-92243635D01*
X123656987Y-92221400D01*
X123543013Y-92221400D01*
X123512419Y-92227485D01*
X122856663Y-91571730D01*
X122845927Y-91558648D01*
X122793714Y-91515798D01*
X122734144Y-91483957D01*
X122669507Y-91464350D01*
X122619130Y-91459388D01*
X122619123Y-91459388D01*
X122602288Y-91457730D01*
X122585453Y-91459388D01*
X121925545Y-91459388D01*
X122012419Y-91372515D01*
X122043013Y-91378600D01*
X122156987Y-91378600D01*
X122268772Y-91356365D01*
X122374070Y-91312749D01*
X122468836Y-91249428D01*
X122549428Y-91168836D01*
X122612749Y-91074070D01*
X122656365Y-90968772D01*
X122678600Y-90856987D01*
X122678600Y-90743013D01*
X122656365Y-90631228D01*
X122612749Y-90525930D01*
X122549428Y-90431164D01*
X122468836Y-90350572D01*
X122374070Y-90287251D01*
X122268772Y-90243635D01*
X122156987Y-90221400D01*
X122043013Y-90221400D01*
X121931228Y-90243635D01*
X121825930Y-90287251D01*
X121731164Y-90350572D01*
X121650572Y-90431164D01*
X121587251Y-90525930D01*
X121543635Y-90631228D01*
X121521400Y-90743013D01*
X121521400Y-90856987D01*
X121527485Y-90887581D01*
X121336690Y-91078377D01*
X121209871Y-91078377D01*
X121212749Y-91074070D01*
X121256365Y-90968772D01*
X121278600Y-90856987D01*
X121278600Y-90743013D01*
X121256365Y-90631228D01*
X121212749Y-90525930D01*
X121149428Y-90431164D01*
X121068836Y-90350572D01*
X120974070Y-90287251D01*
X120868772Y-90243635D01*
X120756987Y-90221400D01*
X120643013Y-90221400D01*
X120531228Y-90243635D01*
X120425930Y-90287251D01*
X120331164Y-90350572D01*
X120250572Y-90431164D01*
X120187251Y-90525930D01*
X120143635Y-90631228D01*
X120121400Y-90743013D01*
X120121400Y-90856987D01*
X120143635Y-90968772D01*
X120187251Y-91074070D01*
X120190129Y-91078377D01*
X118917906Y-91078377D01*
X118901063Y-91076718D01*
X118884220Y-91078377D01*
X118833843Y-91083339D01*
X118769206Y-91102946D01*
X118709636Y-91134787D01*
X118657423Y-91177637D01*
X118646682Y-91190725D01*
X118313606Y-91523801D01*
X114707936Y-91523801D01*
X114337020Y-91152886D01*
X114326279Y-91139798D01*
X114274066Y-91096948D01*
X114214496Y-91065107D01*
X114149859Y-91045500D01*
X114099482Y-91040538D01*
X114099474Y-91040538D01*
X114082639Y-91038880D01*
X114065804Y-91040538D01*
X112593405Y-91040538D01*
X112576562Y-91038879D01*
X112559719Y-91040538D01*
X112509342Y-91045500D01*
X112444705Y-91065107D01*
X112385135Y-91096948D01*
X112332922Y-91139798D01*
X112322185Y-91152881D01*
X112006772Y-91468294D01*
X110253600Y-91468294D01*
X110253600Y-90911706D01*
X112770000Y-90911706D01*
X112814813Y-90907292D01*
X112857905Y-90894221D01*
X112897618Y-90872994D01*
X112932427Y-90844427D01*
X112960994Y-90809618D01*
X112982221Y-90769905D01*
X112995292Y-90726813D01*
X112999706Y-90682000D01*
X112999706Y-90262900D01*
X119003165Y-90262900D01*
X119020000Y-90264558D01*
X119036835Y-90262900D01*
X119036843Y-90262900D01*
X119087220Y-90257938D01*
X119151857Y-90238331D01*
X119211427Y-90206490D01*
X119263640Y-90163640D01*
X119274381Y-90150552D01*
X119682034Y-89742900D01*
X122257967Y-89742900D01*
X123063460Y-90548394D01*
X123063459Y-90976805D01*
X123061801Y-90993641D01*
X123063459Y-91010476D01*
X123063459Y-91010483D01*
X123068421Y-91060860D01*
X123088028Y-91125497D01*
X123119869Y-91185067D01*
X123162719Y-91237280D01*
X123175803Y-91248018D01*
X124408341Y-92480557D01*
X124419078Y-92493640D01*
X124437274Y-92508573D01*
X124471291Y-92536490D01*
X124530861Y-92568331D01*
X124595498Y-92587938D01*
X124662718Y-92594559D01*
X124679561Y-92592900D01*
X125283242Y-92592900D01*
X125300572Y-92618836D01*
X125381164Y-92699428D01*
X125475930Y-92762749D01*
X125581228Y-92806365D01*
X125693013Y-92828600D01*
X125806987Y-92828600D01*
X125918772Y-92806365D01*
X126024070Y-92762749D01*
X126118836Y-92699428D01*
X126199428Y-92618836D01*
X126262749Y-92524070D01*
X126306365Y-92418772D01*
X126328600Y-92306987D01*
X126328600Y-92193013D01*
X126306365Y-92081228D01*
X126262749Y-91975930D01*
X126199428Y-91881164D01*
X126118836Y-91800572D01*
X126024070Y-91737251D01*
X125918772Y-91693635D01*
X125806987Y-91671400D01*
X125693013Y-91671400D01*
X125581228Y-91693635D01*
X125538784Y-91711216D01*
X125556365Y-91668772D01*
X125578600Y-91556987D01*
X125578600Y-91443013D01*
X125556365Y-91331228D01*
X125512749Y-91225930D01*
X125449428Y-91131164D01*
X125368836Y-91050572D01*
X125342900Y-91033242D01*
X125342900Y-91021869D01*
X125344559Y-91005026D01*
X125337938Y-90937806D01*
X125318331Y-90873169D01*
X125286490Y-90813599D01*
X125254376Y-90774468D01*
X125254372Y-90774464D01*
X125243639Y-90761386D01*
X125230562Y-90750654D01*
X123189508Y-88709601D01*
X123224668Y-88709601D01*
X126407101Y-91892035D01*
G04 #@! TA.AperFunction,Conductor*
D20*
G36*
X126407101Y-91892035D02*
G01*
X126407100Y-92607967D01*
X126107967Y-92907100D01*
X124288243Y-92907100D01*
X124271400Y-92905441D01*
X124254557Y-92907100D01*
X124204180Y-92912062D01*
X124165299Y-92923856D01*
X124178600Y-92856987D01*
X124178600Y-92743013D01*
X124156365Y-92631228D01*
X124112749Y-92525930D01*
X124049428Y-92431164D01*
X123968836Y-92350572D01*
X123874070Y-92287251D01*
X123768772Y-92243635D01*
X123656987Y-92221400D01*
X123543013Y-92221400D01*
X123512419Y-92227485D01*
X122856663Y-91571730D01*
X122845927Y-91558648D01*
X122793714Y-91515798D01*
X122734144Y-91483957D01*
X122669507Y-91464350D01*
X122619130Y-91459388D01*
X122619123Y-91459388D01*
X122602288Y-91457730D01*
X122585453Y-91459388D01*
X121925545Y-91459388D01*
X122012419Y-91372515D01*
X122043013Y-91378600D01*
X122156987Y-91378600D01*
X122268772Y-91356365D01*
X122374070Y-91312749D01*
X122468836Y-91249428D01*
X122549428Y-91168836D01*
X122612749Y-91074070D01*
X122656365Y-90968772D01*
X122678600Y-90856987D01*
X122678600Y-90743013D01*
X122656365Y-90631228D01*
X122612749Y-90525930D01*
X122549428Y-90431164D01*
X122468836Y-90350572D01*
X122374070Y-90287251D01*
X122268772Y-90243635D01*
X122156987Y-90221400D01*
X122043013Y-90221400D01*
X121931228Y-90243635D01*
X121825930Y-90287251D01*
X121731164Y-90350572D01*
X121650572Y-90431164D01*
X121587251Y-90525930D01*
X121543635Y-90631228D01*
X121521400Y-90743013D01*
X121521400Y-90856987D01*
X121527485Y-90887581D01*
X121336690Y-91078377D01*
X121209871Y-91078377D01*
X121212749Y-91074070D01*
X121256365Y-90968772D01*
X121278600Y-90856987D01*
X121278600Y-90743013D01*
X121256365Y-90631228D01*
X121212749Y-90525930D01*
X121149428Y-90431164D01*
X121068836Y-90350572D01*
X120974070Y-90287251D01*
X120868772Y-90243635D01*
X120756987Y-90221400D01*
X120643013Y-90221400D01*
X120531228Y-90243635D01*
X120425930Y-90287251D01*
X120331164Y-90350572D01*
X120250572Y-90431164D01*
X120187251Y-90525930D01*
X120143635Y-90631228D01*
X120121400Y-90743013D01*
X120121400Y-90856987D01*
X120143635Y-90968772D01*
X120187251Y-91074070D01*
X120190129Y-91078377D01*
X118917906Y-91078377D01*
X118901063Y-91076718D01*
X118884220Y-91078377D01*
X118833843Y-91083339D01*
X118769206Y-91102946D01*
X118709636Y-91134787D01*
X118657423Y-91177637D01*
X118646682Y-91190725D01*
X118313606Y-91523801D01*
X114707936Y-91523801D01*
X114337020Y-91152886D01*
X114326279Y-91139798D01*
X114274066Y-91096948D01*
X114214496Y-91065107D01*
X114149859Y-91045500D01*
X114099482Y-91040538D01*
X114099474Y-91040538D01*
X114082639Y-91038880D01*
X114065804Y-91040538D01*
X112593405Y-91040538D01*
X112576562Y-91038879D01*
X112559719Y-91040538D01*
X112509342Y-91045500D01*
X112444705Y-91065107D01*
X112385135Y-91096948D01*
X112332922Y-91139798D01*
X112322185Y-91152881D01*
X112006772Y-91468294D01*
X110253600Y-91468294D01*
X110253600Y-90911706D01*
X112770000Y-90911706D01*
X112814813Y-90907292D01*
X112857905Y-90894221D01*
X112897618Y-90872994D01*
X112932427Y-90844427D01*
X112960994Y-90809618D01*
X112982221Y-90769905D01*
X112995292Y-90726813D01*
X112999706Y-90682000D01*
X112999706Y-90262900D01*
X119003165Y-90262900D01*
X119020000Y-90264558D01*
X119036835Y-90262900D01*
X119036843Y-90262900D01*
X119087220Y-90257938D01*
X119151857Y-90238331D01*
X119211427Y-90206490D01*
X119263640Y-90163640D01*
X119274381Y-90150552D01*
X119682034Y-89742900D01*
X122257967Y-89742900D01*
X123063460Y-90548394D01*
X123063459Y-90976805D01*
X123061801Y-90993641D01*
X123063459Y-91010476D01*
X123063459Y-91010483D01*
X123068421Y-91060860D01*
X123088028Y-91125497D01*
X123119869Y-91185067D01*
X123162719Y-91237280D01*
X123175803Y-91248018D01*
X124408341Y-92480557D01*
X124419078Y-92493640D01*
X124437274Y-92508573D01*
X124471291Y-92536490D01*
X124530861Y-92568331D01*
X124595498Y-92587938D01*
X124662718Y-92594559D01*
X124679561Y-92592900D01*
X125283242Y-92592900D01*
X125300572Y-92618836D01*
X125381164Y-92699428D01*
X125475930Y-92762749D01*
X125581228Y-92806365D01*
X125693013Y-92828600D01*
X125806987Y-92828600D01*
X125918772Y-92806365D01*
X126024070Y-92762749D01*
X126118836Y-92699428D01*
X126199428Y-92618836D01*
X126262749Y-92524070D01*
X126306365Y-92418772D01*
X126328600Y-92306987D01*
X126328600Y-92193013D01*
X126306365Y-92081228D01*
X126262749Y-91975930D01*
X126199428Y-91881164D01*
X126118836Y-91800572D01*
X126024070Y-91737251D01*
X125918772Y-91693635D01*
X125806987Y-91671400D01*
X125693013Y-91671400D01*
X125581228Y-91693635D01*
X125538784Y-91711216D01*
X125556365Y-91668772D01*
X125578600Y-91556987D01*
X125578600Y-91443013D01*
X125556365Y-91331228D01*
X125512749Y-91225930D01*
X125449428Y-91131164D01*
X125368836Y-91050572D01*
X125342900Y-91033242D01*
X125342900Y-91021869D01*
X125344559Y-91005026D01*
X125337938Y-90937806D01*
X125318331Y-90873169D01*
X125286490Y-90813599D01*
X125254376Y-90774468D01*
X125254372Y-90774464D01*
X125243639Y-90761386D01*
X125230562Y-90750654D01*
X123189508Y-88709601D01*
X123224668Y-88709601D01*
X126407101Y-91892035D01*
G37*
G04 #@! TD.AperFunction*
G04 #@! TD*
M02*
