G04 #@! TF.GenerationSoftware,KiCad,Pcbnew,5.1.9+dfsg1-1*
G04 #@! TF.CreationDate,2021-07-12T18:29:50+08:00*
G04 #@! TF.ProjectId,stlink,73746c69-6e6b-42e6-9b69-6361645f7063,a*
G04 #@! TF.SameCoordinates,Original*
G04 #@! TF.FileFunction,Soldermask,Bot*
G04 #@! TF.FilePolarity,Negative*
%FSLAX46Y46*%
G04 Gerber Fmt 4.6, Leading zero omitted, Abs format (unit mm)*
G04 Created by KiCad (PCBNEW 5.1.9+dfsg1-1) date 2021-07-12 18:29:50*
%MOMM*%
%LPD*%
G01*
G04 APERTURE LIST*
%ADD10C,0.600000*%
%ADD11C,1.100000*%
%ADD12C,1.900000*%
%ADD13C,2.300000*%
%ADD14O,3.600000X2.100000*%
G04 APERTURE END LIST*
G04 #@! TO.C,JP1*
G36*
G01*
X121900000Y-95500000D02*
X121900000Y-94000000D01*
G75*
G02*
X121950000Y-93950000I50000J0D01*
G01*
X122950000Y-93950000D01*
G75*
G02*
X123000000Y-94000000I0J-50000D01*
G01*
X123000000Y-95500000D01*
G75*
G02*
X122950000Y-95550000I-50000J0D01*
G01*
X121950000Y-95550000D01*
G75*
G02*
X121900000Y-95500000I0J50000D01*
G01*
G37*
G36*
G01*
X123200000Y-95500000D02*
X123200000Y-94000000D01*
G75*
G02*
X123250000Y-93950000I50000J0D01*
G01*
X124250000Y-93950000D01*
G75*
G02*
X124300000Y-94000000I0J-50000D01*
G01*
X124300000Y-95500000D01*
G75*
G02*
X124250000Y-95550000I-50000J0D01*
G01*
X123250000Y-95550000D01*
G75*
G02*
X123200000Y-95500000I0J50000D01*
G01*
G37*
G36*
G01*
X120600000Y-95500000D02*
X120600000Y-94000000D01*
G75*
G02*
X120650000Y-93950000I50000J0D01*
G01*
X121650000Y-93950000D01*
G75*
G02*
X121700000Y-94000000I0J-50000D01*
G01*
X121700000Y-95500000D01*
G75*
G02*
X121650000Y-95550000I-50000J0D01*
G01*
X120650000Y-95550000D01*
G75*
G02*
X120600000Y-95500000I0J50000D01*
G01*
G37*
G04 #@! TD*
D10*
G04 #@! TO.C,H4*
X134850000Y-99000000D03*
X134150000Y-99000000D03*
X135650000Y-97250000D03*
X134150000Y-97000000D03*
X133350000Y-97250000D03*
X135650000Y-98750000D03*
X133350000Y-98750000D03*
X134850000Y-97000000D03*
G04 #@! TD*
G04 #@! TO.C,H3*
X134850000Y-83000000D03*
X134150000Y-83000000D03*
X135650000Y-81250000D03*
X134150000Y-81000000D03*
X133350000Y-81250000D03*
X135650000Y-82750000D03*
X133350000Y-82750000D03*
X134850000Y-81000000D03*
G04 #@! TD*
G04 #@! TO.C,H2*
X117350000Y-99000000D03*
X116650000Y-99000000D03*
X118150000Y-97250000D03*
X116650000Y-97000000D03*
X115850000Y-97250000D03*
X118150000Y-98750000D03*
X115850000Y-98750000D03*
X117350000Y-97000000D03*
G04 #@! TD*
G04 #@! TO.C,H1*
X117350000Y-83000000D03*
X116650000Y-83000000D03*
X118150000Y-81250000D03*
X116650000Y-81000000D03*
X115850000Y-81250000D03*
X118150000Y-82750000D03*
X115850000Y-82750000D03*
X117350000Y-81000000D03*
G04 #@! TD*
D11*
G04 #@! TO.C,TP5*
X122936000Y-83500000D03*
G04 #@! TD*
G04 #@! TO.C,TP4*
X124968000Y-83500000D03*
G04 #@! TD*
G04 #@! TO.C,TP1*
X131064000Y-83500000D03*
G04 #@! TD*
G04 #@! TO.C,TP3*
X127000000Y-83500000D03*
G04 #@! TD*
G04 #@! TO.C,TP2*
X129000000Y-83500000D03*
G04 #@! TD*
D12*
G04 #@! TO.C,J1*
X134900000Y-86500000D03*
X134900000Y-89000000D03*
X134900000Y-91000000D03*
X134900000Y-93500000D03*
D13*
X137000000Y-87700000D03*
X137000000Y-92300000D03*
D14*
X137000000Y-84150000D03*
X137000000Y-95850000D03*
G04 #@! TD*
G04 #@! TO.C,J2*
G36*
G01*
X112820000Y-94238000D02*
X112820000Y-95762000D01*
G75*
G02*
X112770000Y-95812000I-50000J0D01*
G01*
X110230000Y-95812000D01*
G75*
G02*
X110180000Y-95762000I0J50000D01*
G01*
X110180000Y-94238000D01*
G75*
G02*
X110230000Y-94188000I50000J0D01*
G01*
X112770000Y-94188000D01*
G75*
G02*
X112820000Y-94238000I0J-50000D01*
G01*
G37*
G36*
G01*
X112820000Y-91698000D02*
X112820000Y-93222000D01*
G75*
G02*
X112770000Y-93272000I-50000J0D01*
G01*
X110230000Y-93272000D01*
G75*
G02*
X110180000Y-93222000I0J50000D01*
G01*
X110180000Y-91698000D01*
G75*
G02*
X110230000Y-91648000I50000J0D01*
G01*
X112770000Y-91648000D01*
G75*
G02*
X112820000Y-91698000I0J-50000D01*
G01*
G37*
G36*
G01*
X112820000Y-89158000D02*
X112820000Y-90682000D01*
G75*
G02*
X112770000Y-90732000I-50000J0D01*
G01*
X110230000Y-90732000D01*
G75*
G02*
X110180000Y-90682000I0J50000D01*
G01*
X110180000Y-89158000D01*
G75*
G02*
X110230000Y-89108000I50000J0D01*
G01*
X112770000Y-89108000D01*
G75*
G02*
X112820000Y-89158000I0J-50000D01*
G01*
G37*
G36*
G01*
X112820000Y-86618000D02*
X112820000Y-88142000D01*
G75*
G02*
X112770000Y-88192000I-50000J0D01*
G01*
X110230000Y-88192000D01*
G75*
G02*
X110180000Y-88142000I0J50000D01*
G01*
X110180000Y-86618000D01*
G75*
G02*
X110230000Y-86568000I50000J0D01*
G01*
X112770000Y-86568000D01*
G75*
G02*
X112820000Y-86618000I0J-50000D01*
G01*
G37*
G36*
G01*
X112820000Y-84078000D02*
X112820000Y-85602000D01*
G75*
G02*
X112770000Y-85652000I-50000J0D01*
G01*
X110230000Y-85652000D01*
G75*
G02*
X110180000Y-85602000I0J50000D01*
G01*
X110180000Y-84078000D01*
G75*
G02*
X110230000Y-84028000I50000J0D01*
G01*
X112770000Y-84028000D01*
G75*
G02*
X112820000Y-84078000I0J-50000D01*
G01*
G37*
G04 #@! TD*
M02*
