G04 #@! TF.GenerationSoftware,KiCad,Pcbnew,5.1.9+dfsg1-1*
G04 #@! TF.CreationDate,2021-07-12T18:29:50+08:00*
G04 #@! TF.ProjectId,stlink,73746c69-6e6b-42e6-9b69-6361645f7063,a*
G04 #@! TF.SameCoordinates,Original*
G04 #@! TF.FileFunction,Copper,L2,Inr*
G04 #@! TF.FilePolarity,Positive*
%FSLAX46Y46*%
G04 Gerber Fmt 4.6, Leading zero omitted, Abs format (unit mm)*
G04 Created by KiCad (PCBNEW 5.1.9+dfsg1-1) date 2021-07-12 18:29:50*
%MOMM*%
%LPD*%
G01*
G04 APERTURE LIST*
G04 #@! TA.AperFunction,ComponentPad*
%ADD10C,1.800000*%
G04 #@! TD*
G04 #@! TA.AperFunction,ComponentPad*
%ADD11C,2.200000*%
G04 #@! TD*
G04 #@! TA.AperFunction,ComponentPad*
%ADD12O,3.500000X2.000000*%
G04 #@! TD*
G04 #@! TA.AperFunction,ViaPad*
%ADD13C,0.700000*%
G04 #@! TD*
G04 #@! TA.AperFunction,Conductor*
%ADD14C,0.228600*%
G04 #@! TD*
G04 #@! TA.AperFunction,Conductor*
%ADD15C,0.381000*%
G04 #@! TD*
G04 #@! TA.AperFunction,Conductor*
%ADD16C,0.152400*%
G04 #@! TD*
G04 #@! TA.AperFunction,Conductor*
%ADD17C,0.100000*%
G04 #@! TD*
G04 APERTURE END LIST*
D10*
G04 #@! TO.N,VBUS*
G04 #@! TO.C,J1*
X134900000Y-86500000D03*
G04 #@! TO.N,D-*
X134900000Y-89000000D03*
G04 #@! TO.N,D+*
X134900000Y-91000000D03*
G04 #@! TO.N,GND*
X134900000Y-93500000D03*
D11*
X137000000Y-87700000D03*
X137000000Y-92300000D03*
D12*
X137000000Y-84150000D03*
X137000000Y-95850000D03*
G04 #@! TD*
D13*
G04 #@! TO.N,GND*
X115750000Y-87500000D03*
X132000000Y-86000000D03*
X133500000Y-85250000D03*
X139000000Y-86000000D03*
X139000000Y-90000000D03*
X134500000Y-84000000D03*
X115750000Y-91250000D03*
X121400000Y-90100000D03*
X139000000Y-94200000D03*
X113100000Y-93700000D03*
X119500000Y-85250000D03*
X115000000Y-96750000D03*
X121250000Y-87750000D03*
X122500000Y-87750000D03*
X124000000Y-96750000D03*
X125000000Y-96750000D03*
G04 #@! TO.N,+5V*
X128000000Y-84500000D03*
X111500000Y-83500000D03*
G04 #@! TO.N,+3V3*
X131000000Y-87000000D03*
X132000000Y-88000000D03*
X119500000Y-86500000D03*
X129750000Y-93750000D03*
X120700000Y-90800000D03*
X119500000Y-95500000D03*
X113786622Y-92000139D03*
X126500000Y-94250000D03*
X132000000Y-87000000D03*
X113500000Y-84750000D03*
X113500000Y-85750000D03*
G04 #@! TO.N,D-*
X128755363Y-89321674D03*
G04 #@! TO.N,D+*
X129750000Y-89250000D03*
G04 #@! TO.N,LED*
X123600000Y-92800000D03*
X116750000Y-93750000D03*
G04 #@! TO.N,T_DIO*
X113272402Y-89250000D03*
X125000000Y-91500000D03*
G04 #@! TO.N,T_CLK*
X125750000Y-92250000D03*
G04 #@! TO.N,CLK*
X126000000Y-84500000D03*
G04 #@! TO.N,T_RX*
X111500000Y-96264402D03*
X119250000Y-94000000D03*
G04 #@! TO.N,T_TX*
X118250000Y-94000000D03*
G04 #@! TO.N,T_RST*
X122500000Y-92800000D03*
X113300000Y-92700000D03*
G04 #@! TO.N,T_SWO*
X122100000Y-90800000D03*
G04 #@! TO.N,DIO*
X125400000Y-88000000D03*
G04 #@! TO.N,B0*
X122500000Y-84500000D03*
G04 #@! TO.N,RENUM*
X123800000Y-87400000D03*
X129500000Y-95250000D03*
G04 #@! TO.N,Net-(R10-Pad1)*
X121000000Y-92800000D03*
X119000000Y-96250000D03*
G04 #@! TO.N,Net-(JP1-Pad2)*
X123000000Y-96000000D03*
G04 #@! TD*
D14*
G04 #@! TO.N,+5V*
X111500000Y-83500000D02*
X111849999Y-83849999D01*
D15*
X111849999Y-83849999D02*
X119400001Y-83849999D01*
X119400001Y-83849999D02*
X120000000Y-83250000D01*
X126750000Y-83250000D02*
X128000000Y-84500000D01*
X120000000Y-83250000D02*
X126750000Y-83250000D01*
G04 #@! TD*
D16*
G04 #@! TO.N,+3V3*
X115371400Y-82797138D02*
X115389792Y-82889603D01*
X115425870Y-82976702D01*
X115478247Y-83055090D01*
X115544910Y-83121753D01*
X115623298Y-83174130D01*
X115710397Y-83210208D01*
X115802862Y-83228600D01*
X115897138Y-83228600D01*
X115989603Y-83210208D01*
X116076702Y-83174130D01*
X116155090Y-83121753D01*
X116181073Y-83095770D01*
X116189792Y-83139603D01*
X116225870Y-83226702D01*
X116278247Y-83305090D01*
X116344910Y-83371753D01*
X116423298Y-83424130D01*
X116439640Y-83430899D01*
X112076190Y-83430899D01*
X112056365Y-83331228D01*
X112012749Y-83225930D01*
X111949428Y-83131164D01*
X111868836Y-83050572D01*
X111774070Y-82987251D01*
X111668772Y-82943635D01*
X111556987Y-82921400D01*
X111443013Y-82921400D01*
X111331228Y-82943635D01*
X111225930Y-82987251D01*
X111131164Y-83050572D01*
X111050572Y-83131164D01*
X110987251Y-83225930D01*
X110943635Y-83331228D01*
X110921400Y-83443013D01*
X110921400Y-83556987D01*
X110943635Y-83668772D01*
X110987251Y-83774070D01*
X111050572Y-83868836D01*
X111131164Y-83949428D01*
X111225930Y-84012749D01*
X111331228Y-84056365D01*
X111443013Y-84078600D01*
X111496977Y-84078600D01*
X111499845Y-84083965D01*
X111552217Y-84147781D01*
X111616033Y-84200153D01*
X111688841Y-84239070D01*
X111767841Y-84263034D01*
X111829419Y-84269099D01*
X119379421Y-84269099D01*
X119400001Y-84271126D01*
X119420581Y-84269099D01*
X119482159Y-84263034D01*
X119561159Y-84239070D01*
X119633967Y-84200153D01*
X119697783Y-84147781D01*
X119710908Y-84131788D01*
X120173596Y-83669100D01*
X126576404Y-83669100D01*
X127421400Y-84514097D01*
X127421400Y-84556987D01*
X127443635Y-84668772D01*
X127487251Y-84774070D01*
X127550572Y-84868836D01*
X127631164Y-84949428D01*
X127725930Y-85012749D01*
X127831228Y-85056365D01*
X127943013Y-85078600D01*
X128056987Y-85078600D01*
X128168772Y-85056365D01*
X128274070Y-85012749D01*
X128368836Y-84949428D01*
X128449428Y-84868836D01*
X128512749Y-84774070D01*
X128556365Y-84668772D01*
X128578600Y-84556987D01*
X128578600Y-84443013D01*
X128556365Y-84331228D01*
X128512749Y-84225930D01*
X128449428Y-84131164D01*
X128368836Y-84050572D01*
X128274070Y-83987251D01*
X128168772Y-83943635D01*
X128056987Y-83921400D01*
X128014097Y-83921400D01*
X127060907Y-82968211D01*
X127047782Y-82952218D01*
X126983966Y-82899846D01*
X126911158Y-82860929D01*
X126832158Y-82836965D01*
X126770580Y-82830900D01*
X126750000Y-82828873D01*
X126729420Y-82830900D01*
X120020580Y-82830900D01*
X120000000Y-82828873D01*
X119979420Y-82830900D01*
X119917842Y-82836965D01*
X119838842Y-82860929D01*
X119766034Y-82899846D01*
X119702218Y-82952218D01*
X119689093Y-82968211D01*
X119226405Y-83430899D01*
X117560360Y-83430899D01*
X117576702Y-83424130D01*
X117655090Y-83371753D01*
X117721753Y-83305090D01*
X117774130Y-83226702D01*
X117810208Y-83139603D01*
X117818927Y-83095770D01*
X117844910Y-83121753D01*
X117923298Y-83174130D01*
X118010397Y-83210208D01*
X118102862Y-83228600D01*
X118197138Y-83228600D01*
X118289603Y-83210208D01*
X118376702Y-83174130D01*
X118455090Y-83121753D01*
X118521753Y-83055090D01*
X118574130Y-82976702D01*
X118610208Y-82889603D01*
X118628600Y-82797138D01*
X118628600Y-82753600D01*
X132871400Y-82753600D01*
X132871400Y-82797138D01*
X132889792Y-82889603D01*
X132925870Y-82976702D01*
X132978247Y-83055090D01*
X133044910Y-83121753D01*
X133123298Y-83174130D01*
X133210397Y-83210208D01*
X133302862Y-83228600D01*
X133397138Y-83228600D01*
X133489603Y-83210208D01*
X133576702Y-83174130D01*
X133655090Y-83121753D01*
X133681073Y-83095770D01*
X133689792Y-83139603D01*
X133725870Y-83226702D01*
X133778247Y-83305090D01*
X133844910Y-83371753D01*
X133923298Y-83424130D01*
X134010397Y-83460208D01*
X134102862Y-83478600D01*
X134197138Y-83478600D01*
X134289603Y-83460208D01*
X134376702Y-83424130D01*
X134455090Y-83371753D01*
X134500000Y-83326843D01*
X134544910Y-83371753D01*
X134623298Y-83424130D01*
X134710397Y-83460208D01*
X134802862Y-83478600D01*
X134897138Y-83478600D01*
X134989603Y-83460208D01*
X135076702Y-83424130D01*
X135155090Y-83371753D01*
X135221753Y-83305090D01*
X135274130Y-83226702D01*
X135310208Y-83139603D01*
X135318927Y-83095770D01*
X135344910Y-83121753D01*
X135423298Y-83174130D01*
X135475899Y-83195918D01*
X135377046Y-83277046D01*
X135223514Y-83464124D01*
X135109430Y-83677560D01*
X135058919Y-83844070D01*
X135056365Y-83831228D01*
X135012749Y-83725930D01*
X134949428Y-83631164D01*
X134868836Y-83550572D01*
X134774070Y-83487251D01*
X134668772Y-83443635D01*
X134556987Y-83421400D01*
X134443013Y-83421400D01*
X134331228Y-83443635D01*
X134225930Y-83487251D01*
X134131164Y-83550572D01*
X134050572Y-83631164D01*
X133987251Y-83725930D01*
X133943635Y-83831228D01*
X133921400Y-83943013D01*
X133921400Y-84056987D01*
X133943635Y-84168772D01*
X133987251Y-84274070D01*
X134050572Y-84368836D01*
X134131164Y-84449428D01*
X134225930Y-84512749D01*
X134331228Y-84556365D01*
X134443013Y-84578600D01*
X134556987Y-84578600D01*
X134668772Y-84556365D01*
X134774070Y-84512749D01*
X134868836Y-84449428D01*
X134949428Y-84368836D01*
X135012749Y-84274070D01*
X135024808Y-84244957D01*
X135039177Y-84390848D01*
X135109430Y-84622440D01*
X135223514Y-84835876D01*
X135377046Y-85022954D01*
X135564124Y-85176486D01*
X135777560Y-85290570D01*
X136009152Y-85360823D01*
X136189648Y-85378600D01*
X137810352Y-85378600D01*
X137990848Y-85360823D01*
X138222440Y-85290570D01*
X138435876Y-85176486D01*
X138622954Y-85022954D01*
X138776486Y-84835876D01*
X138890570Y-84622440D01*
X138960823Y-84390848D01*
X138984544Y-84150000D01*
X138960823Y-83909152D01*
X138890570Y-83677560D01*
X138776486Y-83464124D01*
X138622954Y-83277046D01*
X138435876Y-83123514D01*
X138222440Y-83009430D01*
X137990848Y-82939177D01*
X137810352Y-82921400D01*
X136189648Y-82921400D01*
X136093098Y-82930909D01*
X136110208Y-82889603D01*
X136128600Y-82797138D01*
X136128600Y-82753600D01*
X138987593Y-82753600D01*
X139144744Y-82769009D01*
X139283964Y-82811042D01*
X139412378Y-82879320D01*
X139525083Y-82971240D01*
X139617786Y-83083299D01*
X139686957Y-83211228D01*
X139729963Y-83350160D01*
X139746400Y-83506541D01*
X139746401Y-96487583D01*
X139730991Y-96644742D01*
X139688957Y-96783968D01*
X139620679Y-96912379D01*
X139528760Y-97025083D01*
X139416701Y-97117786D01*
X139288772Y-97186957D01*
X139149840Y-97229963D01*
X138993459Y-97246400D01*
X136128600Y-97246400D01*
X136128600Y-97202862D01*
X136110208Y-97110397D01*
X136093098Y-97069091D01*
X136189648Y-97078600D01*
X137810352Y-97078600D01*
X137990848Y-97060823D01*
X138222440Y-96990570D01*
X138435876Y-96876486D01*
X138622954Y-96722954D01*
X138776486Y-96535876D01*
X138890570Y-96322440D01*
X138960823Y-96090848D01*
X138984544Y-95850000D01*
X138960823Y-95609152D01*
X138890570Y-95377560D01*
X138776486Y-95164124D01*
X138622954Y-94977046D01*
X138435876Y-94823514D01*
X138222440Y-94709430D01*
X137990848Y-94639177D01*
X137810352Y-94621400D01*
X136189648Y-94621400D01*
X136009152Y-94639177D01*
X135777560Y-94709430D01*
X135564124Y-94823514D01*
X135377046Y-94977046D01*
X135223514Y-95164124D01*
X135109430Y-95377560D01*
X135039177Y-95609152D01*
X135015456Y-95850000D01*
X135039177Y-96090848D01*
X135109430Y-96322440D01*
X135223514Y-96535876D01*
X135377046Y-96722954D01*
X135475899Y-96804082D01*
X135423298Y-96825870D01*
X135344910Y-96878247D01*
X135318927Y-96904230D01*
X135310208Y-96860397D01*
X135274130Y-96773298D01*
X135221753Y-96694910D01*
X135155090Y-96628247D01*
X135076702Y-96575870D01*
X134989603Y-96539792D01*
X134897138Y-96521400D01*
X134802862Y-96521400D01*
X134710397Y-96539792D01*
X134623298Y-96575870D01*
X134544910Y-96628247D01*
X134500000Y-96673157D01*
X134455090Y-96628247D01*
X134376702Y-96575870D01*
X134289603Y-96539792D01*
X134197138Y-96521400D01*
X134102862Y-96521400D01*
X134010397Y-96539792D01*
X133923298Y-96575870D01*
X133844910Y-96628247D01*
X133778247Y-96694910D01*
X133725870Y-96773298D01*
X133689792Y-96860397D01*
X133681073Y-96904230D01*
X133655090Y-96878247D01*
X133576702Y-96825870D01*
X133489603Y-96789792D01*
X133397138Y-96771400D01*
X133302862Y-96771400D01*
X133210397Y-96789792D01*
X133123298Y-96825870D01*
X133044910Y-96878247D01*
X132978247Y-96944910D01*
X132925870Y-97023298D01*
X132889792Y-97110397D01*
X132871400Y-97202862D01*
X132871400Y-97246400D01*
X125298538Y-97246400D01*
X125368836Y-97199428D01*
X125449428Y-97118836D01*
X125512749Y-97024070D01*
X125556365Y-96918772D01*
X125578600Y-96806987D01*
X125578600Y-96693013D01*
X125556365Y-96581228D01*
X125512749Y-96475930D01*
X125449428Y-96381164D01*
X125368836Y-96300572D01*
X125274070Y-96237251D01*
X125168772Y-96193635D01*
X125056987Y-96171400D01*
X124943013Y-96171400D01*
X124831228Y-96193635D01*
X124725930Y-96237251D01*
X124631164Y-96300572D01*
X124550572Y-96381164D01*
X124500000Y-96456850D01*
X124449428Y-96381164D01*
X124368836Y-96300572D01*
X124274070Y-96237251D01*
X124168772Y-96193635D01*
X124056987Y-96171400D01*
X123943013Y-96171400D01*
X123831228Y-96193635D01*
X123725930Y-96237251D01*
X123631164Y-96300572D01*
X123550572Y-96381164D01*
X123487251Y-96475930D01*
X123443635Y-96581228D01*
X123421400Y-96693013D01*
X123421400Y-96806987D01*
X123443635Y-96918772D01*
X123487251Y-97024070D01*
X123550572Y-97118836D01*
X123631164Y-97199428D01*
X123701462Y-97246400D01*
X118628600Y-97246400D01*
X118628600Y-97202862D01*
X118610208Y-97110397D01*
X118574130Y-97023298D01*
X118521753Y-96944910D01*
X118455090Y-96878247D01*
X118376702Y-96825870D01*
X118289603Y-96789792D01*
X118197138Y-96771400D01*
X118102862Y-96771400D01*
X118010397Y-96789792D01*
X117923298Y-96825870D01*
X117844910Y-96878247D01*
X117818927Y-96904230D01*
X117810208Y-96860397D01*
X117774130Y-96773298D01*
X117721753Y-96694910D01*
X117655090Y-96628247D01*
X117576702Y-96575870D01*
X117489603Y-96539792D01*
X117397138Y-96521400D01*
X117302862Y-96521400D01*
X117210397Y-96539792D01*
X117123298Y-96575870D01*
X117044910Y-96628247D01*
X117000000Y-96673157D01*
X116955090Y-96628247D01*
X116876702Y-96575870D01*
X116789603Y-96539792D01*
X116697138Y-96521400D01*
X116602862Y-96521400D01*
X116510397Y-96539792D01*
X116423298Y-96575870D01*
X116344910Y-96628247D01*
X116278247Y-96694910D01*
X116225870Y-96773298D01*
X116189792Y-96860397D01*
X116181073Y-96904230D01*
X116155090Y-96878247D01*
X116076702Y-96825870D01*
X115989603Y-96789792D01*
X115897138Y-96771400D01*
X115802862Y-96771400D01*
X115710397Y-96789792D01*
X115623298Y-96825870D01*
X115567417Y-96863208D01*
X115578600Y-96806987D01*
X115578600Y-96693013D01*
X115556365Y-96581228D01*
X115512749Y-96475930D01*
X115449428Y-96381164D01*
X115368836Y-96300572D01*
X115274070Y-96237251D01*
X115168772Y-96193635D01*
X115165645Y-96193013D01*
X118421400Y-96193013D01*
X118421400Y-96306987D01*
X118443635Y-96418772D01*
X118487251Y-96524070D01*
X118550572Y-96618836D01*
X118631164Y-96699428D01*
X118725930Y-96762749D01*
X118831228Y-96806365D01*
X118943013Y-96828600D01*
X119056987Y-96828600D01*
X119168772Y-96806365D01*
X119274070Y-96762749D01*
X119368836Y-96699428D01*
X119449428Y-96618836D01*
X119512749Y-96524070D01*
X119556365Y-96418772D01*
X119578600Y-96306987D01*
X119578600Y-96193013D01*
X119556365Y-96081228D01*
X119512749Y-95975930D01*
X119490755Y-95943013D01*
X122421400Y-95943013D01*
X122421400Y-96056987D01*
X122443635Y-96168772D01*
X122487251Y-96274070D01*
X122550572Y-96368836D01*
X122631164Y-96449428D01*
X122725930Y-96512749D01*
X122831228Y-96556365D01*
X122943013Y-96578600D01*
X123056987Y-96578600D01*
X123168772Y-96556365D01*
X123274070Y-96512749D01*
X123368836Y-96449428D01*
X123449428Y-96368836D01*
X123512749Y-96274070D01*
X123556365Y-96168772D01*
X123578600Y-96056987D01*
X123578600Y-95943013D01*
X123556365Y-95831228D01*
X123512749Y-95725930D01*
X123449428Y-95631164D01*
X123368836Y-95550572D01*
X123274070Y-95487251D01*
X123168772Y-95443635D01*
X123056987Y-95421400D01*
X122943013Y-95421400D01*
X122831228Y-95443635D01*
X122725930Y-95487251D01*
X122631164Y-95550572D01*
X122550572Y-95631164D01*
X122487251Y-95725930D01*
X122443635Y-95831228D01*
X122421400Y-95943013D01*
X119490755Y-95943013D01*
X119449428Y-95881164D01*
X119368836Y-95800572D01*
X119274070Y-95737251D01*
X119168772Y-95693635D01*
X119056987Y-95671400D01*
X118943013Y-95671400D01*
X118831228Y-95693635D01*
X118725930Y-95737251D01*
X118631164Y-95800572D01*
X118550572Y-95881164D01*
X118487251Y-95975930D01*
X118443635Y-96081228D01*
X118421400Y-96193013D01*
X115165645Y-96193013D01*
X115056987Y-96171400D01*
X114943013Y-96171400D01*
X114831228Y-96193635D01*
X114725930Y-96237251D01*
X114631164Y-96300572D01*
X114550572Y-96381164D01*
X114487251Y-96475930D01*
X114443635Y-96581228D01*
X114421400Y-96693013D01*
X114421400Y-96806987D01*
X114443635Y-96918772D01*
X114487251Y-97024070D01*
X114550572Y-97118836D01*
X114631164Y-97199428D01*
X114701462Y-97246400D01*
X110253600Y-97246400D01*
X110253600Y-96207415D01*
X110921400Y-96207415D01*
X110921400Y-96321389D01*
X110943635Y-96433174D01*
X110987251Y-96538472D01*
X111050572Y-96633238D01*
X111131164Y-96713830D01*
X111225930Y-96777151D01*
X111331228Y-96820767D01*
X111443013Y-96843002D01*
X111556987Y-96843002D01*
X111668772Y-96820767D01*
X111774070Y-96777151D01*
X111868836Y-96713830D01*
X111949428Y-96633238D01*
X112012749Y-96538472D01*
X112056365Y-96433174D01*
X112078600Y-96321389D01*
X112078600Y-96207415D01*
X112056365Y-96095630D01*
X112012749Y-95990332D01*
X111949428Y-95895566D01*
X111868836Y-95814974D01*
X111774070Y-95751653D01*
X111668772Y-95708037D01*
X111556987Y-95685802D01*
X111443013Y-95685802D01*
X111331228Y-95708037D01*
X111225930Y-95751653D01*
X111131164Y-95814974D01*
X111050572Y-95895566D01*
X110987251Y-95990332D01*
X110943635Y-96095630D01*
X110921400Y-96207415D01*
X110253600Y-96207415D01*
X110253600Y-95193013D01*
X128921400Y-95193013D01*
X128921400Y-95306987D01*
X128943635Y-95418772D01*
X128987251Y-95524070D01*
X129050572Y-95618836D01*
X129131164Y-95699428D01*
X129225930Y-95762749D01*
X129331228Y-95806365D01*
X129443013Y-95828600D01*
X129556987Y-95828600D01*
X129668772Y-95806365D01*
X129774070Y-95762749D01*
X129868836Y-95699428D01*
X129949428Y-95618836D01*
X130012749Y-95524070D01*
X130056365Y-95418772D01*
X130078600Y-95306987D01*
X130078600Y-95193013D01*
X130056365Y-95081228D01*
X130012749Y-94975930D01*
X129949428Y-94881164D01*
X129868836Y-94800572D01*
X129774070Y-94737251D01*
X129668772Y-94693635D01*
X129556987Y-94671400D01*
X129443013Y-94671400D01*
X129331228Y-94693635D01*
X129225930Y-94737251D01*
X129131164Y-94800572D01*
X129050572Y-94881164D01*
X128987251Y-94975930D01*
X128943635Y-95081228D01*
X128921400Y-95193013D01*
X110253600Y-95193013D01*
X110253600Y-93643013D01*
X112521400Y-93643013D01*
X112521400Y-93756987D01*
X112543635Y-93868772D01*
X112587251Y-93974070D01*
X112650572Y-94068836D01*
X112731164Y-94149428D01*
X112825930Y-94212749D01*
X112931228Y-94256365D01*
X113043013Y-94278600D01*
X113156987Y-94278600D01*
X113268772Y-94256365D01*
X113374070Y-94212749D01*
X113468836Y-94149428D01*
X113549428Y-94068836D01*
X113612749Y-93974070D01*
X113656365Y-93868772D01*
X113678600Y-93756987D01*
X113678600Y-93693013D01*
X116171400Y-93693013D01*
X116171400Y-93806987D01*
X116193635Y-93918772D01*
X116237251Y-94024070D01*
X116300572Y-94118836D01*
X116381164Y-94199428D01*
X116475930Y-94262749D01*
X116581228Y-94306365D01*
X116693013Y-94328600D01*
X116806987Y-94328600D01*
X116918772Y-94306365D01*
X117024070Y-94262749D01*
X117118836Y-94199428D01*
X117199428Y-94118836D01*
X117262749Y-94024070D01*
X117296324Y-93943013D01*
X117671400Y-93943013D01*
X117671400Y-94056987D01*
X117693635Y-94168772D01*
X117737251Y-94274070D01*
X117800572Y-94368836D01*
X117881164Y-94449428D01*
X117975930Y-94512749D01*
X118081228Y-94556365D01*
X118193013Y-94578600D01*
X118306987Y-94578600D01*
X118418772Y-94556365D01*
X118524070Y-94512749D01*
X118618836Y-94449428D01*
X118699428Y-94368836D01*
X118750000Y-94293150D01*
X118800572Y-94368836D01*
X118881164Y-94449428D01*
X118975930Y-94512749D01*
X119081228Y-94556365D01*
X119193013Y-94578600D01*
X119306987Y-94578600D01*
X119418772Y-94556365D01*
X119524070Y-94512749D01*
X119618836Y-94449428D01*
X119699428Y-94368836D01*
X119762749Y-94274070D01*
X119806365Y-94168772D01*
X119828600Y-94056987D01*
X119828600Y-93943013D01*
X119806365Y-93831228D01*
X119762749Y-93725930D01*
X119699428Y-93631164D01*
X119618836Y-93550572D01*
X119524070Y-93487251D01*
X119418772Y-93443635D01*
X119306987Y-93421400D01*
X119193013Y-93421400D01*
X119081228Y-93443635D01*
X118975930Y-93487251D01*
X118881164Y-93550572D01*
X118800572Y-93631164D01*
X118750000Y-93706850D01*
X118699428Y-93631164D01*
X118618836Y-93550572D01*
X118524070Y-93487251D01*
X118418772Y-93443635D01*
X118306987Y-93421400D01*
X118193013Y-93421400D01*
X118081228Y-93443635D01*
X117975930Y-93487251D01*
X117881164Y-93550572D01*
X117800572Y-93631164D01*
X117737251Y-93725930D01*
X117693635Y-93831228D01*
X117671400Y-93943013D01*
X117296324Y-93943013D01*
X117306365Y-93918772D01*
X117328600Y-93806987D01*
X117328600Y-93693013D01*
X117306365Y-93581228D01*
X117262749Y-93475930D01*
X117204559Y-93388843D01*
X133771400Y-93388843D01*
X133771400Y-93611157D01*
X133814771Y-93829201D01*
X133899847Y-94034593D01*
X134023359Y-94219441D01*
X134180559Y-94376641D01*
X134365407Y-94500153D01*
X134570799Y-94585229D01*
X134788843Y-94628600D01*
X135011157Y-94628600D01*
X135229201Y-94585229D01*
X135434593Y-94500153D01*
X135619441Y-94376641D01*
X135776641Y-94219441D01*
X135827708Y-94143013D01*
X138421400Y-94143013D01*
X138421400Y-94256987D01*
X138443635Y-94368772D01*
X138487251Y-94474070D01*
X138550572Y-94568836D01*
X138631164Y-94649428D01*
X138725930Y-94712749D01*
X138831228Y-94756365D01*
X138943013Y-94778600D01*
X139056987Y-94778600D01*
X139168772Y-94756365D01*
X139274070Y-94712749D01*
X139368836Y-94649428D01*
X139449428Y-94568836D01*
X139512749Y-94474070D01*
X139556365Y-94368772D01*
X139578600Y-94256987D01*
X139578600Y-94143013D01*
X139556365Y-94031228D01*
X139512749Y-93925930D01*
X139449428Y-93831164D01*
X139368836Y-93750572D01*
X139274070Y-93687251D01*
X139168772Y-93643635D01*
X139056987Y-93621400D01*
X138943013Y-93621400D01*
X138831228Y-93643635D01*
X138725930Y-93687251D01*
X138631164Y-93750572D01*
X138550572Y-93831164D01*
X138487251Y-93925930D01*
X138443635Y-94031228D01*
X138421400Y-94143013D01*
X135827708Y-94143013D01*
X135900153Y-94034593D01*
X135985229Y-93829201D01*
X136028600Y-93611157D01*
X136028600Y-93388843D01*
X135985229Y-93170799D01*
X135980530Y-93159454D01*
X136153067Y-93331991D01*
X136370672Y-93477390D01*
X136612462Y-93577543D01*
X136869144Y-93628600D01*
X137130856Y-93628600D01*
X137387538Y-93577543D01*
X137629328Y-93477390D01*
X137846933Y-93331991D01*
X138031991Y-93146933D01*
X138177390Y-92929328D01*
X138277543Y-92687538D01*
X138328600Y-92430856D01*
X138328600Y-92169144D01*
X138277543Y-91912462D01*
X138177390Y-91670672D01*
X138031991Y-91453067D01*
X137846933Y-91268009D01*
X137629328Y-91122610D01*
X137387538Y-91022457D01*
X137130856Y-90971400D01*
X136869144Y-90971400D01*
X136612462Y-91022457D01*
X136370672Y-91122610D01*
X136153067Y-91268009D01*
X135968009Y-91453067D01*
X135822610Y-91670672D01*
X135722457Y-91912462D01*
X135671400Y-92169144D01*
X135671400Y-92430856D01*
X135722457Y-92687538D01*
X135749919Y-92753837D01*
X135619441Y-92623359D01*
X135434593Y-92499847D01*
X135229201Y-92414771D01*
X135011157Y-92371400D01*
X134788843Y-92371400D01*
X134570799Y-92414771D01*
X134365407Y-92499847D01*
X134180559Y-92623359D01*
X134023359Y-92780559D01*
X133899847Y-92965407D01*
X133814771Y-93170799D01*
X133771400Y-93388843D01*
X117204559Y-93388843D01*
X117199428Y-93381164D01*
X117118836Y-93300572D01*
X117024070Y-93237251D01*
X116918772Y-93193635D01*
X116806987Y-93171400D01*
X116693013Y-93171400D01*
X116581228Y-93193635D01*
X116475930Y-93237251D01*
X116381164Y-93300572D01*
X116300572Y-93381164D01*
X116237251Y-93475930D01*
X116193635Y-93581228D01*
X116171400Y-93693013D01*
X113678600Y-93693013D01*
X113678600Y-93643013D01*
X113656365Y-93531228D01*
X113612749Y-93425930D01*
X113549428Y-93331164D01*
X113472914Y-93254650D01*
X113574070Y-93212749D01*
X113668836Y-93149428D01*
X113749428Y-93068836D01*
X113812749Y-92974070D01*
X113856365Y-92868772D01*
X113878600Y-92756987D01*
X113878600Y-92743013D01*
X120421400Y-92743013D01*
X120421400Y-92856987D01*
X120443635Y-92968772D01*
X120487251Y-93074070D01*
X120550572Y-93168836D01*
X120631164Y-93249428D01*
X120725930Y-93312749D01*
X120831228Y-93356365D01*
X120943013Y-93378600D01*
X121056987Y-93378600D01*
X121168772Y-93356365D01*
X121274070Y-93312749D01*
X121368836Y-93249428D01*
X121449428Y-93168836D01*
X121512749Y-93074070D01*
X121556365Y-92968772D01*
X121578600Y-92856987D01*
X121578600Y-92743013D01*
X121921400Y-92743013D01*
X121921400Y-92856987D01*
X121943635Y-92968772D01*
X121987251Y-93074070D01*
X122050572Y-93168836D01*
X122131164Y-93249428D01*
X122225930Y-93312749D01*
X122331228Y-93356365D01*
X122443013Y-93378600D01*
X122556987Y-93378600D01*
X122668772Y-93356365D01*
X122774070Y-93312749D01*
X122868836Y-93249428D01*
X122949428Y-93168836D01*
X123012749Y-93074070D01*
X123050000Y-92984138D01*
X123087251Y-93074070D01*
X123150572Y-93168836D01*
X123231164Y-93249428D01*
X123325930Y-93312749D01*
X123431228Y-93356365D01*
X123543013Y-93378600D01*
X123656987Y-93378600D01*
X123768772Y-93356365D01*
X123874070Y-93312749D01*
X123968836Y-93249428D01*
X124049428Y-93168836D01*
X124112749Y-93074070D01*
X124156365Y-92968772D01*
X124178600Y-92856987D01*
X124178600Y-92743013D01*
X124156365Y-92631228D01*
X124112749Y-92525930D01*
X124049428Y-92431164D01*
X123968836Y-92350572D01*
X123874070Y-92287251D01*
X123768772Y-92243635D01*
X123656987Y-92221400D01*
X123543013Y-92221400D01*
X123431228Y-92243635D01*
X123325930Y-92287251D01*
X123231164Y-92350572D01*
X123150572Y-92431164D01*
X123087251Y-92525930D01*
X123050000Y-92615862D01*
X123012749Y-92525930D01*
X122949428Y-92431164D01*
X122868836Y-92350572D01*
X122774070Y-92287251D01*
X122668772Y-92243635D01*
X122556987Y-92221400D01*
X122443013Y-92221400D01*
X122331228Y-92243635D01*
X122225930Y-92287251D01*
X122131164Y-92350572D01*
X122050572Y-92431164D01*
X121987251Y-92525930D01*
X121943635Y-92631228D01*
X121921400Y-92743013D01*
X121578600Y-92743013D01*
X121556365Y-92631228D01*
X121512749Y-92525930D01*
X121449428Y-92431164D01*
X121368836Y-92350572D01*
X121274070Y-92287251D01*
X121168772Y-92243635D01*
X121056987Y-92221400D01*
X120943013Y-92221400D01*
X120831228Y-92243635D01*
X120725930Y-92287251D01*
X120631164Y-92350572D01*
X120550572Y-92431164D01*
X120487251Y-92525930D01*
X120443635Y-92631228D01*
X120421400Y-92743013D01*
X113878600Y-92743013D01*
X113878600Y-92643013D01*
X113856365Y-92531228D01*
X113812749Y-92425930D01*
X113749428Y-92331164D01*
X113668836Y-92250572D01*
X113574070Y-92187251D01*
X113468772Y-92143635D01*
X113356987Y-92121400D01*
X113243013Y-92121400D01*
X113131228Y-92143635D01*
X113025930Y-92187251D01*
X112931164Y-92250572D01*
X112850572Y-92331164D01*
X112787251Y-92425930D01*
X112743635Y-92531228D01*
X112721400Y-92643013D01*
X112721400Y-92756987D01*
X112743635Y-92868772D01*
X112787251Y-92974070D01*
X112850572Y-93068836D01*
X112927086Y-93145350D01*
X112825930Y-93187251D01*
X112731164Y-93250572D01*
X112650572Y-93331164D01*
X112587251Y-93425930D01*
X112543635Y-93531228D01*
X112521400Y-93643013D01*
X110253600Y-93643013D01*
X110253600Y-91193013D01*
X115171400Y-91193013D01*
X115171400Y-91306987D01*
X115193635Y-91418772D01*
X115237251Y-91524070D01*
X115300572Y-91618836D01*
X115381164Y-91699428D01*
X115475930Y-91762749D01*
X115581228Y-91806365D01*
X115693013Y-91828600D01*
X115806987Y-91828600D01*
X115918772Y-91806365D01*
X116024070Y-91762749D01*
X116118836Y-91699428D01*
X116199428Y-91618836D01*
X116262749Y-91524070D01*
X116296324Y-91443013D01*
X124421400Y-91443013D01*
X124421400Y-91556987D01*
X124443635Y-91668772D01*
X124487251Y-91774070D01*
X124550572Y-91868836D01*
X124631164Y-91949428D01*
X124725930Y-92012749D01*
X124831228Y-92056365D01*
X124943013Y-92078600D01*
X125056987Y-92078600D01*
X125168772Y-92056365D01*
X125211216Y-92038784D01*
X125193635Y-92081228D01*
X125171400Y-92193013D01*
X125171400Y-92306987D01*
X125193635Y-92418772D01*
X125237251Y-92524070D01*
X125300572Y-92618836D01*
X125381164Y-92699428D01*
X125475930Y-92762749D01*
X125581228Y-92806365D01*
X125693013Y-92828600D01*
X125806987Y-92828600D01*
X125918772Y-92806365D01*
X126024070Y-92762749D01*
X126118836Y-92699428D01*
X126199428Y-92618836D01*
X126262749Y-92524070D01*
X126306365Y-92418772D01*
X126328600Y-92306987D01*
X126328600Y-92193013D01*
X126306365Y-92081228D01*
X126262749Y-91975930D01*
X126199428Y-91881164D01*
X126118836Y-91800572D01*
X126024070Y-91737251D01*
X125918772Y-91693635D01*
X125806987Y-91671400D01*
X125693013Y-91671400D01*
X125581228Y-91693635D01*
X125538784Y-91711216D01*
X125556365Y-91668772D01*
X125578600Y-91556987D01*
X125578600Y-91443013D01*
X125556365Y-91331228D01*
X125512749Y-91225930D01*
X125449428Y-91131164D01*
X125368836Y-91050572D01*
X125274070Y-90987251D01*
X125168772Y-90943635D01*
X125056987Y-90921400D01*
X124943013Y-90921400D01*
X124831228Y-90943635D01*
X124725930Y-90987251D01*
X124631164Y-91050572D01*
X124550572Y-91131164D01*
X124487251Y-91225930D01*
X124443635Y-91331228D01*
X124421400Y-91443013D01*
X116296324Y-91443013D01*
X116306365Y-91418772D01*
X116328600Y-91306987D01*
X116328600Y-91193013D01*
X116306365Y-91081228D01*
X116262749Y-90975930D01*
X116199428Y-90881164D01*
X116118836Y-90800572D01*
X116024070Y-90737251D01*
X115918772Y-90693635D01*
X115806987Y-90671400D01*
X115693013Y-90671400D01*
X115581228Y-90693635D01*
X115475930Y-90737251D01*
X115381164Y-90800572D01*
X115300572Y-90881164D01*
X115237251Y-90975930D01*
X115193635Y-91081228D01*
X115171400Y-91193013D01*
X110253600Y-91193013D01*
X110253600Y-90043013D01*
X120821400Y-90043013D01*
X120821400Y-90156987D01*
X120843635Y-90268772D01*
X120887251Y-90374070D01*
X120950572Y-90468836D01*
X121031164Y-90549428D01*
X121125930Y-90612749D01*
X121231228Y-90656365D01*
X121343013Y-90678600D01*
X121456987Y-90678600D01*
X121537394Y-90662606D01*
X121521400Y-90743013D01*
X121521400Y-90856987D01*
X121543635Y-90968772D01*
X121587251Y-91074070D01*
X121650572Y-91168836D01*
X121731164Y-91249428D01*
X121825930Y-91312749D01*
X121931228Y-91356365D01*
X122043013Y-91378600D01*
X122156987Y-91378600D01*
X122268772Y-91356365D01*
X122374070Y-91312749D01*
X122468836Y-91249428D01*
X122549428Y-91168836D01*
X122612749Y-91074070D01*
X122656365Y-90968772D01*
X122678600Y-90856987D01*
X122678600Y-90743013D01*
X122656365Y-90631228D01*
X122612749Y-90525930D01*
X122549428Y-90431164D01*
X122468836Y-90350572D01*
X122374070Y-90287251D01*
X122268772Y-90243635D01*
X122156987Y-90221400D01*
X122043013Y-90221400D01*
X121962606Y-90237394D01*
X121978600Y-90156987D01*
X121978600Y-90043013D01*
X121956365Y-89931228D01*
X121912749Y-89825930D01*
X121849428Y-89731164D01*
X121768836Y-89650572D01*
X121674070Y-89587251D01*
X121568772Y-89543635D01*
X121456987Y-89521400D01*
X121343013Y-89521400D01*
X121231228Y-89543635D01*
X121125930Y-89587251D01*
X121031164Y-89650572D01*
X120950572Y-89731164D01*
X120887251Y-89825930D01*
X120843635Y-89931228D01*
X120821400Y-90043013D01*
X110253600Y-90043013D01*
X110253600Y-89193013D01*
X112693802Y-89193013D01*
X112693802Y-89306987D01*
X112716037Y-89418772D01*
X112759653Y-89524070D01*
X112822974Y-89618836D01*
X112903566Y-89699428D01*
X112998332Y-89762749D01*
X113103630Y-89806365D01*
X113215415Y-89828600D01*
X113329389Y-89828600D01*
X113441174Y-89806365D01*
X113546472Y-89762749D01*
X113641238Y-89699428D01*
X113721830Y-89618836D01*
X113785151Y-89524070D01*
X113828767Y-89418772D01*
X113851002Y-89306987D01*
X113851002Y-89264687D01*
X128176763Y-89264687D01*
X128176763Y-89378661D01*
X128198998Y-89490446D01*
X128242614Y-89595744D01*
X128305935Y-89690510D01*
X128386527Y-89771102D01*
X128481293Y-89834423D01*
X128586591Y-89878039D01*
X128698376Y-89900274D01*
X128812350Y-89900274D01*
X128924135Y-89878039D01*
X129029433Y-89834423D01*
X129124199Y-89771102D01*
X129204791Y-89690510D01*
X129268112Y-89595744D01*
X129274629Y-89580010D01*
X129300572Y-89618836D01*
X129381164Y-89699428D01*
X129475930Y-89762749D01*
X129581228Y-89806365D01*
X129693013Y-89828600D01*
X129806987Y-89828600D01*
X129918772Y-89806365D01*
X130024070Y-89762749D01*
X130118836Y-89699428D01*
X130199428Y-89618836D01*
X130262749Y-89524070D01*
X130306365Y-89418772D01*
X130328600Y-89306987D01*
X130328600Y-89193013D01*
X130306365Y-89081228D01*
X130262749Y-88975930D01*
X130204559Y-88888843D01*
X133771400Y-88888843D01*
X133771400Y-89111157D01*
X133814771Y-89329201D01*
X133899847Y-89534593D01*
X134023359Y-89719441D01*
X134180559Y-89876641D01*
X134365178Y-90000000D01*
X134180559Y-90123359D01*
X134023359Y-90280559D01*
X133899847Y-90465407D01*
X133814771Y-90670799D01*
X133771400Y-90888843D01*
X133771400Y-91111157D01*
X133814771Y-91329201D01*
X133899847Y-91534593D01*
X134023359Y-91719441D01*
X134180559Y-91876641D01*
X134365407Y-92000153D01*
X134570799Y-92085229D01*
X134788843Y-92128600D01*
X135011157Y-92128600D01*
X135229201Y-92085229D01*
X135434593Y-92000153D01*
X135619441Y-91876641D01*
X135776641Y-91719441D01*
X135900153Y-91534593D01*
X135985229Y-91329201D01*
X136028600Y-91111157D01*
X136028600Y-90888843D01*
X135985229Y-90670799D01*
X135900153Y-90465407D01*
X135776641Y-90280559D01*
X135619441Y-90123359D01*
X135434822Y-90000000D01*
X135520108Y-89943013D01*
X138421400Y-89943013D01*
X138421400Y-90056987D01*
X138443635Y-90168772D01*
X138487251Y-90274070D01*
X138550572Y-90368836D01*
X138631164Y-90449428D01*
X138725930Y-90512749D01*
X138831228Y-90556365D01*
X138943013Y-90578600D01*
X139056987Y-90578600D01*
X139168772Y-90556365D01*
X139274070Y-90512749D01*
X139368836Y-90449428D01*
X139449428Y-90368836D01*
X139512749Y-90274070D01*
X139556365Y-90168772D01*
X139578600Y-90056987D01*
X139578600Y-89943013D01*
X139556365Y-89831228D01*
X139512749Y-89725930D01*
X139449428Y-89631164D01*
X139368836Y-89550572D01*
X139274070Y-89487251D01*
X139168772Y-89443635D01*
X139056987Y-89421400D01*
X138943013Y-89421400D01*
X138831228Y-89443635D01*
X138725930Y-89487251D01*
X138631164Y-89550572D01*
X138550572Y-89631164D01*
X138487251Y-89725930D01*
X138443635Y-89831228D01*
X138421400Y-89943013D01*
X135520108Y-89943013D01*
X135619441Y-89876641D01*
X135776641Y-89719441D01*
X135900153Y-89534593D01*
X135985229Y-89329201D01*
X136028600Y-89111157D01*
X136028600Y-88888843D01*
X135985229Y-88670799D01*
X135900153Y-88465407D01*
X135776641Y-88280559D01*
X135619441Y-88123359D01*
X135434593Y-87999847D01*
X135229201Y-87914771D01*
X135011157Y-87871400D01*
X134788843Y-87871400D01*
X134570799Y-87914771D01*
X134365407Y-87999847D01*
X134180559Y-88123359D01*
X134023359Y-88280559D01*
X133899847Y-88465407D01*
X133814771Y-88670799D01*
X133771400Y-88888843D01*
X130204559Y-88888843D01*
X130199428Y-88881164D01*
X130118836Y-88800572D01*
X130024070Y-88737251D01*
X129918772Y-88693635D01*
X129806987Y-88671400D01*
X129693013Y-88671400D01*
X129581228Y-88693635D01*
X129475930Y-88737251D01*
X129381164Y-88800572D01*
X129300572Y-88881164D01*
X129237251Y-88975930D01*
X129230734Y-88991664D01*
X129204791Y-88952838D01*
X129124199Y-88872246D01*
X129029433Y-88808925D01*
X128924135Y-88765309D01*
X128812350Y-88743074D01*
X128698376Y-88743074D01*
X128586591Y-88765309D01*
X128481293Y-88808925D01*
X128386527Y-88872246D01*
X128305935Y-88952838D01*
X128242614Y-89047604D01*
X128198998Y-89152902D01*
X128176763Y-89264687D01*
X113851002Y-89264687D01*
X113851002Y-89193013D01*
X113828767Y-89081228D01*
X113785151Y-88975930D01*
X113721830Y-88881164D01*
X113641238Y-88800572D01*
X113546472Y-88737251D01*
X113441174Y-88693635D01*
X113329389Y-88671400D01*
X113215415Y-88671400D01*
X113103630Y-88693635D01*
X112998332Y-88737251D01*
X112903566Y-88800572D01*
X112822974Y-88881164D01*
X112759653Y-88975930D01*
X112716037Y-89081228D01*
X112693802Y-89193013D01*
X110253600Y-89193013D01*
X110253600Y-87443013D01*
X115171400Y-87443013D01*
X115171400Y-87556987D01*
X115193635Y-87668772D01*
X115237251Y-87774070D01*
X115300572Y-87868836D01*
X115381164Y-87949428D01*
X115475930Y-88012749D01*
X115581228Y-88056365D01*
X115693013Y-88078600D01*
X115806987Y-88078600D01*
X115918772Y-88056365D01*
X116024070Y-88012749D01*
X116118836Y-87949428D01*
X116199428Y-87868836D01*
X116262749Y-87774070D01*
X116296324Y-87693013D01*
X120671400Y-87693013D01*
X120671400Y-87806987D01*
X120693635Y-87918772D01*
X120737251Y-88024070D01*
X120800572Y-88118836D01*
X120881164Y-88199428D01*
X120975930Y-88262749D01*
X121081228Y-88306365D01*
X121193013Y-88328600D01*
X121306987Y-88328600D01*
X121418772Y-88306365D01*
X121524070Y-88262749D01*
X121618836Y-88199428D01*
X121699428Y-88118836D01*
X121762749Y-88024070D01*
X121806365Y-87918772D01*
X121828600Y-87806987D01*
X121828600Y-87693013D01*
X121921400Y-87693013D01*
X121921400Y-87806987D01*
X121943635Y-87918772D01*
X121987251Y-88024070D01*
X122050572Y-88118836D01*
X122131164Y-88199428D01*
X122225930Y-88262749D01*
X122331228Y-88306365D01*
X122443013Y-88328600D01*
X122556987Y-88328600D01*
X122668772Y-88306365D01*
X122774070Y-88262749D01*
X122868836Y-88199428D01*
X122949428Y-88118836D01*
X123012749Y-88024070D01*
X123056365Y-87918772D01*
X123078600Y-87806987D01*
X123078600Y-87693013D01*
X123056365Y-87581228D01*
X123012749Y-87475930D01*
X122949428Y-87381164D01*
X122911277Y-87343013D01*
X123221400Y-87343013D01*
X123221400Y-87456987D01*
X123243635Y-87568772D01*
X123287251Y-87674070D01*
X123350572Y-87768836D01*
X123431164Y-87849428D01*
X123525930Y-87912749D01*
X123631228Y-87956365D01*
X123743013Y-87978600D01*
X123856987Y-87978600D01*
X123968772Y-87956365D01*
X124001006Y-87943013D01*
X124821400Y-87943013D01*
X124821400Y-88056987D01*
X124843635Y-88168772D01*
X124887251Y-88274070D01*
X124950572Y-88368836D01*
X125031164Y-88449428D01*
X125125930Y-88512749D01*
X125231228Y-88556365D01*
X125343013Y-88578600D01*
X125456987Y-88578600D01*
X125568772Y-88556365D01*
X125674070Y-88512749D01*
X125768836Y-88449428D01*
X125849428Y-88368836D01*
X125912749Y-88274070D01*
X125956365Y-88168772D01*
X125978600Y-88056987D01*
X125978600Y-87943013D01*
X125956365Y-87831228D01*
X125912749Y-87725930D01*
X125849428Y-87631164D01*
X125768836Y-87550572D01*
X125674070Y-87487251D01*
X125568772Y-87443635D01*
X125456987Y-87421400D01*
X125343013Y-87421400D01*
X125231228Y-87443635D01*
X125125930Y-87487251D01*
X125031164Y-87550572D01*
X124950572Y-87631164D01*
X124887251Y-87725930D01*
X124843635Y-87831228D01*
X124821400Y-87943013D01*
X124001006Y-87943013D01*
X124074070Y-87912749D01*
X124168836Y-87849428D01*
X124249428Y-87768836D01*
X124312749Y-87674070D01*
X124356365Y-87568772D01*
X124378600Y-87456987D01*
X124378600Y-87343013D01*
X124356365Y-87231228D01*
X124312749Y-87125930D01*
X124249428Y-87031164D01*
X124168836Y-86950572D01*
X124074070Y-86887251D01*
X123968772Y-86843635D01*
X123856987Y-86821400D01*
X123743013Y-86821400D01*
X123631228Y-86843635D01*
X123525930Y-86887251D01*
X123431164Y-86950572D01*
X123350572Y-87031164D01*
X123287251Y-87125930D01*
X123243635Y-87231228D01*
X123221400Y-87343013D01*
X122911277Y-87343013D01*
X122868836Y-87300572D01*
X122774070Y-87237251D01*
X122668772Y-87193635D01*
X122556987Y-87171400D01*
X122443013Y-87171400D01*
X122331228Y-87193635D01*
X122225930Y-87237251D01*
X122131164Y-87300572D01*
X122050572Y-87381164D01*
X121987251Y-87475930D01*
X121943635Y-87581228D01*
X121921400Y-87693013D01*
X121828600Y-87693013D01*
X121806365Y-87581228D01*
X121762749Y-87475930D01*
X121699428Y-87381164D01*
X121618836Y-87300572D01*
X121524070Y-87237251D01*
X121418772Y-87193635D01*
X121306987Y-87171400D01*
X121193013Y-87171400D01*
X121081228Y-87193635D01*
X120975930Y-87237251D01*
X120881164Y-87300572D01*
X120800572Y-87381164D01*
X120737251Y-87475930D01*
X120693635Y-87581228D01*
X120671400Y-87693013D01*
X116296324Y-87693013D01*
X116306365Y-87668772D01*
X116328600Y-87556987D01*
X116328600Y-87443013D01*
X116306365Y-87331228D01*
X116262749Y-87225930D01*
X116199428Y-87131164D01*
X116118836Y-87050572D01*
X116024070Y-86987251D01*
X115918772Y-86943635D01*
X115806987Y-86921400D01*
X115693013Y-86921400D01*
X115581228Y-86943635D01*
X115475930Y-86987251D01*
X115381164Y-87050572D01*
X115300572Y-87131164D01*
X115237251Y-87225930D01*
X115193635Y-87331228D01*
X115171400Y-87443013D01*
X110253600Y-87443013D01*
X110253600Y-85943013D01*
X131421400Y-85943013D01*
X131421400Y-86056987D01*
X131443635Y-86168772D01*
X131487251Y-86274070D01*
X131550572Y-86368836D01*
X131631164Y-86449428D01*
X131725930Y-86512749D01*
X131831228Y-86556365D01*
X131943013Y-86578600D01*
X132056987Y-86578600D01*
X132168772Y-86556365D01*
X132274070Y-86512749D01*
X132368836Y-86449428D01*
X132429421Y-86388843D01*
X133771400Y-86388843D01*
X133771400Y-86611157D01*
X133814771Y-86829201D01*
X133899847Y-87034593D01*
X134023359Y-87219441D01*
X134180559Y-87376641D01*
X134365407Y-87500153D01*
X134570799Y-87585229D01*
X134788843Y-87628600D01*
X135011157Y-87628600D01*
X135229201Y-87585229D01*
X135434593Y-87500153D01*
X135619441Y-87376641D01*
X135749919Y-87246163D01*
X135722457Y-87312462D01*
X135671400Y-87569144D01*
X135671400Y-87830856D01*
X135722457Y-88087538D01*
X135822610Y-88329328D01*
X135968009Y-88546933D01*
X136153067Y-88731991D01*
X136370672Y-88877390D01*
X136612462Y-88977543D01*
X136869144Y-89028600D01*
X137130856Y-89028600D01*
X137387538Y-88977543D01*
X137629328Y-88877390D01*
X137846933Y-88731991D01*
X138031991Y-88546933D01*
X138177390Y-88329328D01*
X138277543Y-88087538D01*
X138328600Y-87830856D01*
X138328600Y-87569144D01*
X138277543Y-87312462D01*
X138177390Y-87070672D01*
X138031991Y-86853067D01*
X137846933Y-86668009D01*
X137629328Y-86522610D01*
X137387538Y-86422457D01*
X137130856Y-86371400D01*
X136869144Y-86371400D01*
X136612462Y-86422457D01*
X136370672Y-86522610D01*
X136153067Y-86668009D01*
X135980530Y-86840546D01*
X135985229Y-86829201D01*
X136028600Y-86611157D01*
X136028600Y-86388843D01*
X135985229Y-86170799D01*
X135900153Y-85965407D01*
X135885190Y-85943013D01*
X138421400Y-85943013D01*
X138421400Y-86056987D01*
X138443635Y-86168772D01*
X138487251Y-86274070D01*
X138550572Y-86368836D01*
X138631164Y-86449428D01*
X138725930Y-86512749D01*
X138831228Y-86556365D01*
X138943013Y-86578600D01*
X139056987Y-86578600D01*
X139168772Y-86556365D01*
X139274070Y-86512749D01*
X139368836Y-86449428D01*
X139449428Y-86368836D01*
X139512749Y-86274070D01*
X139556365Y-86168772D01*
X139578600Y-86056987D01*
X139578600Y-85943013D01*
X139556365Y-85831228D01*
X139512749Y-85725930D01*
X139449428Y-85631164D01*
X139368836Y-85550572D01*
X139274070Y-85487251D01*
X139168772Y-85443635D01*
X139056987Y-85421400D01*
X138943013Y-85421400D01*
X138831228Y-85443635D01*
X138725930Y-85487251D01*
X138631164Y-85550572D01*
X138550572Y-85631164D01*
X138487251Y-85725930D01*
X138443635Y-85831228D01*
X138421400Y-85943013D01*
X135885190Y-85943013D01*
X135776641Y-85780559D01*
X135619441Y-85623359D01*
X135434593Y-85499847D01*
X135229201Y-85414771D01*
X135011157Y-85371400D01*
X134788843Y-85371400D01*
X134570799Y-85414771D01*
X134365407Y-85499847D01*
X134180559Y-85623359D01*
X134023359Y-85780559D01*
X133899847Y-85965407D01*
X133814771Y-86170799D01*
X133771400Y-86388843D01*
X132429421Y-86388843D01*
X132449428Y-86368836D01*
X132512749Y-86274070D01*
X132556365Y-86168772D01*
X132578600Y-86056987D01*
X132578600Y-85943013D01*
X132556365Y-85831228D01*
X132512749Y-85725930D01*
X132449428Y-85631164D01*
X132368836Y-85550572D01*
X132274070Y-85487251D01*
X132168772Y-85443635D01*
X132056987Y-85421400D01*
X131943013Y-85421400D01*
X131831228Y-85443635D01*
X131725930Y-85487251D01*
X131631164Y-85550572D01*
X131550572Y-85631164D01*
X131487251Y-85725930D01*
X131443635Y-85831228D01*
X131421400Y-85943013D01*
X110253600Y-85943013D01*
X110253600Y-85193013D01*
X118921400Y-85193013D01*
X118921400Y-85306987D01*
X118943635Y-85418772D01*
X118987251Y-85524070D01*
X119050572Y-85618836D01*
X119131164Y-85699428D01*
X119225930Y-85762749D01*
X119331228Y-85806365D01*
X119443013Y-85828600D01*
X119556987Y-85828600D01*
X119668772Y-85806365D01*
X119774070Y-85762749D01*
X119868836Y-85699428D01*
X119949428Y-85618836D01*
X120012749Y-85524070D01*
X120056365Y-85418772D01*
X120078600Y-85306987D01*
X120078600Y-85193013D01*
X132921400Y-85193013D01*
X132921400Y-85306987D01*
X132943635Y-85418772D01*
X132987251Y-85524070D01*
X133050572Y-85618836D01*
X133131164Y-85699428D01*
X133225930Y-85762749D01*
X133331228Y-85806365D01*
X133443013Y-85828600D01*
X133556987Y-85828600D01*
X133668772Y-85806365D01*
X133774070Y-85762749D01*
X133868836Y-85699428D01*
X133949428Y-85618836D01*
X134012749Y-85524070D01*
X134056365Y-85418772D01*
X134078600Y-85306987D01*
X134078600Y-85193013D01*
X134056365Y-85081228D01*
X134012749Y-84975930D01*
X133949428Y-84881164D01*
X133868836Y-84800572D01*
X133774070Y-84737251D01*
X133668772Y-84693635D01*
X133556987Y-84671400D01*
X133443013Y-84671400D01*
X133331228Y-84693635D01*
X133225930Y-84737251D01*
X133131164Y-84800572D01*
X133050572Y-84881164D01*
X132987251Y-84975930D01*
X132943635Y-85081228D01*
X132921400Y-85193013D01*
X120078600Y-85193013D01*
X120056365Y-85081228D01*
X120012749Y-84975930D01*
X119949428Y-84881164D01*
X119868836Y-84800572D01*
X119774070Y-84737251D01*
X119668772Y-84693635D01*
X119556987Y-84671400D01*
X119443013Y-84671400D01*
X119331228Y-84693635D01*
X119225930Y-84737251D01*
X119131164Y-84800572D01*
X119050572Y-84881164D01*
X118987251Y-84975930D01*
X118943635Y-85081228D01*
X118921400Y-85193013D01*
X110253600Y-85193013D01*
X110253600Y-84443013D01*
X121921400Y-84443013D01*
X121921400Y-84556987D01*
X121943635Y-84668772D01*
X121987251Y-84774070D01*
X122050572Y-84868836D01*
X122131164Y-84949428D01*
X122225930Y-85012749D01*
X122331228Y-85056365D01*
X122443013Y-85078600D01*
X122556987Y-85078600D01*
X122668772Y-85056365D01*
X122774070Y-85012749D01*
X122868836Y-84949428D01*
X122949428Y-84868836D01*
X123012749Y-84774070D01*
X123056365Y-84668772D01*
X123078600Y-84556987D01*
X123078600Y-84443013D01*
X125421400Y-84443013D01*
X125421400Y-84556987D01*
X125443635Y-84668772D01*
X125487251Y-84774070D01*
X125550572Y-84868836D01*
X125631164Y-84949428D01*
X125725930Y-85012749D01*
X125831228Y-85056365D01*
X125943013Y-85078600D01*
X126056987Y-85078600D01*
X126168772Y-85056365D01*
X126274070Y-85012749D01*
X126368836Y-84949428D01*
X126449428Y-84868836D01*
X126512749Y-84774070D01*
X126556365Y-84668772D01*
X126578600Y-84556987D01*
X126578600Y-84443013D01*
X126556365Y-84331228D01*
X126512749Y-84225930D01*
X126449428Y-84131164D01*
X126368836Y-84050572D01*
X126274070Y-83987251D01*
X126168772Y-83943635D01*
X126056987Y-83921400D01*
X125943013Y-83921400D01*
X125831228Y-83943635D01*
X125725930Y-83987251D01*
X125631164Y-84050572D01*
X125550572Y-84131164D01*
X125487251Y-84225930D01*
X125443635Y-84331228D01*
X125421400Y-84443013D01*
X123078600Y-84443013D01*
X123056365Y-84331228D01*
X123012749Y-84225930D01*
X122949428Y-84131164D01*
X122868836Y-84050572D01*
X122774070Y-83987251D01*
X122668772Y-83943635D01*
X122556987Y-83921400D01*
X122443013Y-83921400D01*
X122331228Y-83943635D01*
X122225930Y-83987251D01*
X122131164Y-84050572D01*
X122050572Y-84131164D01*
X121987251Y-84225930D01*
X121943635Y-84331228D01*
X121921400Y-84443013D01*
X110253600Y-84443013D01*
X110253600Y-82753600D01*
X115371400Y-82753600D01*
X115371400Y-82797138D01*
G04 #@! TA.AperFunction,Conductor*
D17*
G36*
X115371400Y-82797138D02*
G01*
X115389792Y-82889603D01*
X115425870Y-82976702D01*
X115478247Y-83055090D01*
X115544910Y-83121753D01*
X115623298Y-83174130D01*
X115710397Y-83210208D01*
X115802862Y-83228600D01*
X115897138Y-83228600D01*
X115989603Y-83210208D01*
X116076702Y-83174130D01*
X116155090Y-83121753D01*
X116181073Y-83095770D01*
X116189792Y-83139603D01*
X116225870Y-83226702D01*
X116278247Y-83305090D01*
X116344910Y-83371753D01*
X116423298Y-83424130D01*
X116439640Y-83430899D01*
X112076190Y-83430899D01*
X112056365Y-83331228D01*
X112012749Y-83225930D01*
X111949428Y-83131164D01*
X111868836Y-83050572D01*
X111774070Y-82987251D01*
X111668772Y-82943635D01*
X111556987Y-82921400D01*
X111443013Y-82921400D01*
X111331228Y-82943635D01*
X111225930Y-82987251D01*
X111131164Y-83050572D01*
X111050572Y-83131164D01*
X110987251Y-83225930D01*
X110943635Y-83331228D01*
X110921400Y-83443013D01*
X110921400Y-83556987D01*
X110943635Y-83668772D01*
X110987251Y-83774070D01*
X111050572Y-83868836D01*
X111131164Y-83949428D01*
X111225930Y-84012749D01*
X111331228Y-84056365D01*
X111443013Y-84078600D01*
X111496977Y-84078600D01*
X111499845Y-84083965D01*
X111552217Y-84147781D01*
X111616033Y-84200153D01*
X111688841Y-84239070D01*
X111767841Y-84263034D01*
X111829419Y-84269099D01*
X119379421Y-84269099D01*
X119400001Y-84271126D01*
X119420581Y-84269099D01*
X119482159Y-84263034D01*
X119561159Y-84239070D01*
X119633967Y-84200153D01*
X119697783Y-84147781D01*
X119710908Y-84131788D01*
X120173596Y-83669100D01*
X126576404Y-83669100D01*
X127421400Y-84514097D01*
X127421400Y-84556987D01*
X127443635Y-84668772D01*
X127487251Y-84774070D01*
X127550572Y-84868836D01*
X127631164Y-84949428D01*
X127725930Y-85012749D01*
X127831228Y-85056365D01*
X127943013Y-85078600D01*
X128056987Y-85078600D01*
X128168772Y-85056365D01*
X128274070Y-85012749D01*
X128368836Y-84949428D01*
X128449428Y-84868836D01*
X128512749Y-84774070D01*
X128556365Y-84668772D01*
X128578600Y-84556987D01*
X128578600Y-84443013D01*
X128556365Y-84331228D01*
X128512749Y-84225930D01*
X128449428Y-84131164D01*
X128368836Y-84050572D01*
X128274070Y-83987251D01*
X128168772Y-83943635D01*
X128056987Y-83921400D01*
X128014097Y-83921400D01*
X127060907Y-82968211D01*
X127047782Y-82952218D01*
X126983966Y-82899846D01*
X126911158Y-82860929D01*
X126832158Y-82836965D01*
X126770580Y-82830900D01*
X126750000Y-82828873D01*
X126729420Y-82830900D01*
X120020580Y-82830900D01*
X120000000Y-82828873D01*
X119979420Y-82830900D01*
X119917842Y-82836965D01*
X119838842Y-82860929D01*
X119766034Y-82899846D01*
X119702218Y-82952218D01*
X119689093Y-82968211D01*
X119226405Y-83430899D01*
X117560360Y-83430899D01*
X117576702Y-83424130D01*
X117655090Y-83371753D01*
X117721753Y-83305090D01*
X117774130Y-83226702D01*
X117810208Y-83139603D01*
X117818927Y-83095770D01*
X117844910Y-83121753D01*
X117923298Y-83174130D01*
X118010397Y-83210208D01*
X118102862Y-83228600D01*
X118197138Y-83228600D01*
X118289603Y-83210208D01*
X118376702Y-83174130D01*
X118455090Y-83121753D01*
X118521753Y-83055090D01*
X118574130Y-82976702D01*
X118610208Y-82889603D01*
X118628600Y-82797138D01*
X118628600Y-82753600D01*
X132871400Y-82753600D01*
X132871400Y-82797138D01*
X132889792Y-82889603D01*
X132925870Y-82976702D01*
X132978247Y-83055090D01*
X133044910Y-83121753D01*
X133123298Y-83174130D01*
X133210397Y-83210208D01*
X133302862Y-83228600D01*
X133397138Y-83228600D01*
X133489603Y-83210208D01*
X133576702Y-83174130D01*
X133655090Y-83121753D01*
X133681073Y-83095770D01*
X133689792Y-83139603D01*
X133725870Y-83226702D01*
X133778247Y-83305090D01*
X133844910Y-83371753D01*
X133923298Y-83424130D01*
X134010397Y-83460208D01*
X134102862Y-83478600D01*
X134197138Y-83478600D01*
X134289603Y-83460208D01*
X134376702Y-83424130D01*
X134455090Y-83371753D01*
X134500000Y-83326843D01*
X134544910Y-83371753D01*
X134623298Y-83424130D01*
X134710397Y-83460208D01*
X134802862Y-83478600D01*
X134897138Y-83478600D01*
X134989603Y-83460208D01*
X135076702Y-83424130D01*
X135155090Y-83371753D01*
X135221753Y-83305090D01*
X135274130Y-83226702D01*
X135310208Y-83139603D01*
X135318927Y-83095770D01*
X135344910Y-83121753D01*
X135423298Y-83174130D01*
X135475899Y-83195918D01*
X135377046Y-83277046D01*
X135223514Y-83464124D01*
X135109430Y-83677560D01*
X135058919Y-83844070D01*
X135056365Y-83831228D01*
X135012749Y-83725930D01*
X134949428Y-83631164D01*
X134868836Y-83550572D01*
X134774070Y-83487251D01*
X134668772Y-83443635D01*
X134556987Y-83421400D01*
X134443013Y-83421400D01*
X134331228Y-83443635D01*
X134225930Y-83487251D01*
X134131164Y-83550572D01*
X134050572Y-83631164D01*
X133987251Y-83725930D01*
X133943635Y-83831228D01*
X133921400Y-83943013D01*
X133921400Y-84056987D01*
X133943635Y-84168772D01*
X133987251Y-84274070D01*
X134050572Y-84368836D01*
X134131164Y-84449428D01*
X134225930Y-84512749D01*
X134331228Y-84556365D01*
X134443013Y-84578600D01*
X134556987Y-84578600D01*
X134668772Y-84556365D01*
X134774070Y-84512749D01*
X134868836Y-84449428D01*
X134949428Y-84368836D01*
X135012749Y-84274070D01*
X135024808Y-84244957D01*
X135039177Y-84390848D01*
X135109430Y-84622440D01*
X135223514Y-84835876D01*
X135377046Y-85022954D01*
X135564124Y-85176486D01*
X135777560Y-85290570D01*
X136009152Y-85360823D01*
X136189648Y-85378600D01*
X137810352Y-85378600D01*
X137990848Y-85360823D01*
X138222440Y-85290570D01*
X138435876Y-85176486D01*
X138622954Y-85022954D01*
X138776486Y-84835876D01*
X138890570Y-84622440D01*
X138960823Y-84390848D01*
X138984544Y-84150000D01*
X138960823Y-83909152D01*
X138890570Y-83677560D01*
X138776486Y-83464124D01*
X138622954Y-83277046D01*
X138435876Y-83123514D01*
X138222440Y-83009430D01*
X137990848Y-82939177D01*
X137810352Y-82921400D01*
X136189648Y-82921400D01*
X136093098Y-82930909D01*
X136110208Y-82889603D01*
X136128600Y-82797138D01*
X136128600Y-82753600D01*
X138987593Y-82753600D01*
X139144744Y-82769009D01*
X139283964Y-82811042D01*
X139412378Y-82879320D01*
X139525083Y-82971240D01*
X139617786Y-83083299D01*
X139686957Y-83211228D01*
X139729963Y-83350160D01*
X139746400Y-83506541D01*
X139746401Y-96487583D01*
X139730991Y-96644742D01*
X139688957Y-96783968D01*
X139620679Y-96912379D01*
X139528760Y-97025083D01*
X139416701Y-97117786D01*
X139288772Y-97186957D01*
X139149840Y-97229963D01*
X138993459Y-97246400D01*
X136128600Y-97246400D01*
X136128600Y-97202862D01*
X136110208Y-97110397D01*
X136093098Y-97069091D01*
X136189648Y-97078600D01*
X137810352Y-97078600D01*
X137990848Y-97060823D01*
X138222440Y-96990570D01*
X138435876Y-96876486D01*
X138622954Y-96722954D01*
X138776486Y-96535876D01*
X138890570Y-96322440D01*
X138960823Y-96090848D01*
X138984544Y-95850000D01*
X138960823Y-95609152D01*
X138890570Y-95377560D01*
X138776486Y-95164124D01*
X138622954Y-94977046D01*
X138435876Y-94823514D01*
X138222440Y-94709430D01*
X137990848Y-94639177D01*
X137810352Y-94621400D01*
X136189648Y-94621400D01*
X136009152Y-94639177D01*
X135777560Y-94709430D01*
X135564124Y-94823514D01*
X135377046Y-94977046D01*
X135223514Y-95164124D01*
X135109430Y-95377560D01*
X135039177Y-95609152D01*
X135015456Y-95850000D01*
X135039177Y-96090848D01*
X135109430Y-96322440D01*
X135223514Y-96535876D01*
X135377046Y-96722954D01*
X135475899Y-96804082D01*
X135423298Y-96825870D01*
X135344910Y-96878247D01*
X135318927Y-96904230D01*
X135310208Y-96860397D01*
X135274130Y-96773298D01*
X135221753Y-96694910D01*
X135155090Y-96628247D01*
X135076702Y-96575870D01*
X134989603Y-96539792D01*
X134897138Y-96521400D01*
X134802862Y-96521400D01*
X134710397Y-96539792D01*
X134623298Y-96575870D01*
X134544910Y-96628247D01*
X134500000Y-96673157D01*
X134455090Y-96628247D01*
X134376702Y-96575870D01*
X134289603Y-96539792D01*
X134197138Y-96521400D01*
X134102862Y-96521400D01*
X134010397Y-96539792D01*
X133923298Y-96575870D01*
X133844910Y-96628247D01*
X133778247Y-96694910D01*
X133725870Y-96773298D01*
X133689792Y-96860397D01*
X133681073Y-96904230D01*
X133655090Y-96878247D01*
X133576702Y-96825870D01*
X133489603Y-96789792D01*
X133397138Y-96771400D01*
X133302862Y-96771400D01*
X133210397Y-96789792D01*
X133123298Y-96825870D01*
X133044910Y-96878247D01*
X132978247Y-96944910D01*
X132925870Y-97023298D01*
X132889792Y-97110397D01*
X132871400Y-97202862D01*
X132871400Y-97246400D01*
X125298538Y-97246400D01*
X125368836Y-97199428D01*
X125449428Y-97118836D01*
X125512749Y-97024070D01*
X125556365Y-96918772D01*
X125578600Y-96806987D01*
X125578600Y-96693013D01*
X125556365Y-96581228D01*
X125512749Y-96475930D01*
X125449428Y-96381164D01*
X125368836Y-96300572D01*
X125274070Y-96237251D01*
X125168772Y-96193635D01*
X125056987Y-96171400D01*
X124943013Y-96171400D01*
X124831228Y-96193635D01*
X124725930Y-96237251D01*
X124631164Y-96300572D01*
X124550572Y-96381164D01*
X124500000Y-96456850D01*
X124449428Y-96381164D01*
X124368836Y-96300572D01*
X124274070Y-96237251D01*
X124168772Y-96193635D01*
X124056987Y-96171400D01*
X123943013Y-96171400D01*
X123831228Y-96193635D01*
X123725930Y-96237251D01*
X123631164Y-96300572D01*
X123550572Y-96381164D01*
X123487251Y-96475930D01*
X123443635Y-96581228D01*
X123421400Y-96693013D01*
X123421400Y-96806987D01*
X123443635Y-96918772D01*
X123487251Y-97024070D01*
X123550572Y-97118836D01*
X123631164Y-97199428D01*
X123701462Y-97246400D01*
X118628600Y-97246400D01*
X118628600Y-97202862D01*
X118610208Y-97110397D01*
X118574130Y-97023298D01*
X118521753Y-96944910D01*
X118455090Y-96878247D01*
X118376702Y-96825870D01*
X118289603Y-96789792D01*
X118197138Y-96771400D01*
X118102862Y-96771400D01*
X118010397Y-96789792D01*
X117923298Y-96825870D01*
X117844910Y-96878247D01*
X117818927Y-96904230D01*
X117810208Y-96860397D01*
X117774130Y-96773298D01*
X117721753Y-96694910D01*
X117655090Y-96628247D01*
X117576702Y-96575870D01*
X117489603Y-96539792D01*
X117397138Y-96521400D01*
X117302862Y-96521400D01*
X117210397Y-96539792D01*
X117123298Y-96575870D01*
X117044910Y-96628247D01*
X117000000Y-96673157D01*
X116955090Y-96628247D01*
X116876702Y-96575870D01*
X116789603Y-96539792D01*
X116697138Y-96521400D01*
X116602862Y-96521400D01*
X116510397Y-96539792D01*
X116423298Y-96575870D01*
X116344910Y-96628247D01*
X116278247Y-96694910D01*
X116225870Y-96773298D01*
X116189792Y-96860397D01*
X116181073Y-96904230D01*
X116155090Y-96878247D01*
X116076702Y-96825870D01*
X115989603Y-96789792D01*
X115897138Y-96771400D01*
X115802862Y-96771400D01*
X115710397Y-96789792D01*
X115623298Y-96825870D01*
X115567417Y-96863208D01*
X115578600Y-96806987D01*
X115578600Y-96693013D01*
X115556365Y-96581228D01*
X115512749Y-96475930D01*
X115449428Y-96381164D01*
X115368836Y-96300572D01*
X115274070Y-96237251D01*
X115168772Y-96193635D01*
X115165645Y-96193013D01*
X118421400Y-96193013D01*
X118421400Y-96306987D01*
X118443635Y-96418772D01*
X118487251Y-96524070D01*
X118550572Y-96618836D01*
X118631164Y-96699428D01*
X118725930Y-96762749D01*
X118831228Y-96806365D01*
X118943013Y-96828600D01*
X119056987Y-96828600D01*
X119168772Y-96806365D01*
X119274070Y-96762749D01*
X119368836Y-96699428D01*
X119449428Y-96618836D01*
X119512749Y-96524070D01*
X119556365Y-96418772D01*
X119578600Y-96306987D01*
X119578600Y-96193013D01*
X119556365Y-96081228D01*
X119512749Y-95975930D01*
X119490755Y-95943013D01*
X122421400Y-95943013D01*
X122421400Y-96056987D01*
X122443635Y-96168772D01*
X122487251Y-96274070D01*
X122550572Y-96368836D01*
X122631164Y-96449428D01*
X122725930Y-96512749D01*
X122831228Y-96556365D01*
X122943013Y-96578600D01*
X123056987Y-96578600D01*
X123168772Y-96556365D01*
X123274070Y-96512749D01*
X123368836Y-96449428D01*
X123449428Y-96368836D01*
X123512749Y-96274070D01*
X123556365Y-96168772D01*
X123578600Y-96056987D01*
X123578600Y-95943013D01*
X123556365Y-95831228D01*
X123512749Y-95725930D01*
X123449428Y-95631164D01*
X123368836Y-95550572D01*
X123274070Y-95487251D01*
X123168772Y-95443635D01*
X123056987Y-95421400D01*
X122943013Y-95421400D01*
X122831228Y-95443635D01*
X122725930Y-95487251D01*
X122631164Y-95550572D01*
X122550572Y-95631164D01*
X122487251Y-95725930D01*
X122443635Y-95831228D01*
X122421400Y-95943013D01*
X119490755Y-95943013D01*
X119449428Y-95881164D01*
X119368836Y-95800572D01*
X119274070Y-95737251D01*
X119168772Y-95693635D01*
X119056987Y-95671400D01*
X118943013Y-95671400D01*
X118831228Y-95693635D01*
X118725930Y-95737251D01*
X118631164Y-95800572D01*
X118550572Y-95881164D01*
X118487251Y-95975930D01*
X118443635Y-96081228D01*
X118421400Y-96193013D01*
X115165645Y-96193013D01*
X115056987Y-96171400D01*
X114943013Y-96171400D01*
X114831228Y-96193635D01*
X114725930Y-96237251D01*
X114631164Y-96300572D01*
X114550572Y-96381164D01*
X114487251Y-96475930D01*
X114443635Y-96581228D01*
X114421400Y-96693013D01*
X114421400Y-96806987D01*
X114443635Y-96918772D01*
X114487251Y-97024070D01*
X114550572Y-97118836D01*
X114631164Y-97199428D01*
X114701462Y-97246400D01*
X110253600Y-97246400D01*
X110253600Y-96207415D01*
X110921400Y-96207415D01*
X110921400Y-96321389D01*
X110943635Y-96433174D01*
X110987251Y-96538472D01*
X111050572Y-96633238D01*
X111131164Y-96713830D01*
X111225930Y-96777151D01*
X111331228Y-96820767D01*
X111443013Y-96843002D01*
X111556987Y-96843002D01*
X111668772Y-96820767D01*
X111774070Y-96777151D01*
X111868836Y-96713830D01*
X111949428Y-96633238D01*
X112012749Y-96538472D01*
X112056365Y-96433174D01*
X112078600Y-96321389D01*
X112078600Y-96207415D01*
X112056365Y-96095630D01*
X112012749Y-95990332D01*
X111949428Y-95895566D01*
X111868836Y-95814974D01*
X111774070Y-95751653D01*
X111668772Y-95708037D01*
X111556987Y-95685802D01*
X111443013Y-95685802D01*
X111331228Y-95708037D01*
X111225930Y-95751653D01*
X111131164Y-95814974D01*
X111050572Y-95895566D01*
X110987251Y-95990332D01*
X110943635Y-96095630D01*
X110921400Y-96207415D01*
X110253600Y-96207415D01*
X110253600Y-95193013D01*
X128921400Y-95193013D01*
X128921400Y-95306987D01*
X128943635Y-95418772D01*
X128987251Y-95524070D01*
X129050572Y-95618836D01*
X129131164Y-95699428D01*
X129225930Y-95762749D01*
X129331228Y-95806365D01*
X129443013Y-95828600D01*
X129556987Y-95828600D01*
X129668772Y-95806365D01*
X129774070Y-95762749D01*
X129868836Y-95699428D01*
X129949428Y-95618836D01*
X130012749Y-95524070D01*
X130056365Y-95418772D01*
X130078600Y-95306987D01*
X130078600Y-95193013D01*
X130056365Y-95081228D01*
X130012749Y-94975930D01*
X129949428Y-94881164D01*
X129868836Y-94800572D01*
X129774070Y-94737251D01*
X129668772Y-94693635D01*
X129556987Y-94671400D01*
X129443013Y-94671400D01*
X129331228Y-94693635D01*
X129225930Y-94737251D01*
X129131164Y-94800572D01*
X129050572Y-94881164D01*
X128987251Y-94975930D01*
X128943635Y-95081228D01*
X128921400Y-95193013D01*
X110253600Y-95193013D01*
X110253600Y-93643013D01*
X112521400Y-93643013D01*
X112521400Y-93756987D01*
X112543635Y-93868772D01*
X112587251Y-93974070D01*
X112650572Y-94068836D01*
X112731164Y-94149428D01*
X112825930Y-94212749D01*
X112931228Y-94256365D01*
X113043013Y-94278600D01*
X113156987Y-94278600D01*
X113268772Y-94256365D01*
X113374070Y-94212749D01*
X113468836Y-94149428D01*
X113549428Y-94068836D01*
X113612749Y-93974070D01*
X113656365Y-93868772D01*
X113678600Y-93756987D01*
X113678600Y-93693013D01*
X116171400Y-93693013D01*
X116171400Y-93806987D01*
X116193635Y-93918772D01*
X116237251Y-94024070D01*
X116300572Y-94118836D01*
X116381164Y-94199428D01*
X116475930Y-94262749D01*
X116581228Y-94306365D01*
X116693013Y-94328600D01*
X116806987Y-94328600D01*
X116918772Y-94306365D01*
X117024070Y-94262749D01*
X117118836Y-94199428D01*
X117199428Y-94118836D01*
X117262749Y-94024070D01*
X117296324Y-93943013D01*
X117671400Y-93943013D01*
X117671400Y-94056987D01*
X117693635Y-94168772D01*
X117737251Y-94274070D01*
X117800572Y-94368836D01*
X117881164Y-94449428D01*
X117975930Y-94512749D01*
X118081228Y-94556365D01*
X118193013Y-94578600D01*
X118306987Y-94578600D01*
X118418772Y-94556365D01*
X118524070Y-94512749D01*
X118618836Y-94449428D01*
X118699428Y-94368836D01*
X118750000Y-94293150D01*
X118800572Y-94368836D01*
X118881164Y-94449428D01*
X118975930Y-94512749D01*
X119081228Y-94556365D01*
X119193013Y-94578600D01*
X119306987Y-94578600D01*
X119418772Y-94556365D01*
X119524070Y-94512749D01*
X119618836Y-94449428D01*
X119699428Y-94368836D01*
X119762749Y-94274070D01*
X119806365Y-94168772D01*
X119828600Y-94056987D01*
X119828600Y-93943013D01*
X119806365Y-93831228D01*
X119762749Y-93725930D01*
X119699428Y-93631164D01*
X119618836Y-93550572D01*
X119524070Y-93487251D01*
X119418772Y-93443635D01*
X119306987Y-93421400D01*
X119193013Y-93421400D01*
X119081228Y-93443635D01*
X118975930Y-93487251D01*
X118881164Y-93550572D01*
X118800572Y-93631164D01*
X118750000Y-93706850D01*
X118699428Y-93631164D01*
X118618836Y-93550572D01*
X118524070Y-93487251D01*
X118418772Y-93443635D01*
X118306987Y-93421400D01*
X118193013Y-93421400D01*
X118081228Y-93443635D01*
X117975930Y-93487251D01*
X117881164Y-93550572D01*
X117800572Y-93631164D01*
X117737251Y-93725930D01*
X117693635Y-93831228D01*
X117671400Y-93943013D01*
X117296324Y-93943013D01*
X117306365Y-93918772D01*
X117328600Y-93806987D01*
X117328600Y-93693013D01*
X117306365Y-93581228D01*
X117262749Y-93475930D01*
X117204559Y-93388843D01*
X133771400Y-93388843D01*
X133771400Y-93611157D01*
X133814771Y-93829201D01*
X133899847Y-94034593D01*
X134023359Y-94219441D01*
X134180559Y-94376641D01*
X134365407Y-94500153D01*
X134570799Y-94585229D01*
X134788843Y-94628600D01*
X135011157Y-94628600D01*
X135229201Y-94585229D01*
X135434593Y-94500153D01*
X135619441Y-94376641D01*
X135776641Y-94219441D01*
X135827708Y-94143013D01*
X138421400Y-94143013D01*
X138421400Y-94256987D01*
X138443635Y-94368772D01*
X138487251Y-94474070D01*
X138550572Y-94568836D01*
X138631164Y-94649428D01*
X138725930Y-94712749D01*
X138831228Y-94756365D01*
X138943013Y-94778600D01*
X139056987Y-94778600D01*
X139168772Y-94756365D01*
X139274070Y-94712749D01*
X139368836Y-94649428D01*
X139449428Y-94568836D01*
X139512749Y-94474070D01*
X139556365Y-94368772D01*
X139578600Y-94256987D01*
X139578600Y-94143013D01*
X139556365Y-94031228D01*
X139512749Y-93925930D01*
X139449428Y-93831164D01*
X139368836Y-93750572D01*
X139274070Y-93687251D01*
X139168772Y-93643635D01*
X139056987Y-93621400D01*
X138943013Y-93621400D01*
X138831228Y-93643635D01*
X138725930Y-93687251D01*
X138631164Y-93750572D01*
X138550572Y-93831164D01*
X138487251Y-93925930D01*
X138443635Y-94031228D01*
X138421400Y-94143013D01*
X135827708Y-94143013D01*
X135900153Y-94034593D01*
X135985229Y-93829201D01*
X136028600Y-93611157D01*
X136028600Y-93388843D01*
X135985229Y-93170799D01*
X135980530Y-93159454D01*
X136153067Y-93331991D01*
X136370672Y-93477390D01*
X136612462Y-93577543D01*
X136869144Y-93628600D01*
X137130856Y-93628600D01*
X137387538Y-93577543D01*
X137629328Y-93477390D01*
X137846933Y-93331991D01*
X138031991Y-93146933D01*
X138177390Y-92929328D01*
X138277543Y-92687538D01*
X138328600Y-92430856D01*
X138328600Y-92169144D01*
X138277543Y-91912462D01*
X138177390Y-91670672D01*
X138031991Y-91453067D01*
X137846933Y-91268009D01*
X137629328Y-91122610D01*
X137387538Y-91022457D01*
X137130856Y-90971400D01*
X136869144Y-90971400D01*
X136612462Y-91022457D01*
X136370672Y-91122610D01*
X136153067Y-91268009D01*
X135968009Y-91453067D01*
X135822610Y-91670672D01*
X135722457Y-91912462D01*
X135671400Y-92169144D01*
X135671400Y-92430856D01*
X135722457Y-92687538D01*
X135749919Y-92753837D01*
X135619441Y-92623359D01*
X135434593Y-92499847D01*
X135229201Y-92414771D01*
X135011157Y-92371400D01*
X134788843Y-92371400D01*
X134570799Y-92414771D01*
X134365407Y-92499847D01*
X134180559Y-92623359D01*
X134023359Y-92780559D01*
X133899847Y-92965407D01*
X133814771Y-93170799D01*
X133771400Y-93388843D01*
X117204559Y-93388843D01*
X117199428Y-93381164D01*
X117118836Y-93300572D01*
X117024070Y-93237251D01*
X116918772Y-93193635D01*
X116806987Y-93171400D01*
X116693013Y-93171400D01*
X116581228Y-93193635D01*
X116475930Y-93237251D01*
X116381164Y-93300572D01*
X116300572Y-93381164D01*
X116237251Y-93475930D01*
X116193635Y-93581228D01*
X116171400Y-93693013D01*
X113678600Y-93693013D01*
X113678600Y-93643013D01*
X113656365Y-93531228D01*
X113612749Y-93425930D01*
X113549428Y-93331164D01*
X113472914Y-93254650D01*
X113574070Y-93212749D01*
X113668836Y-93149428D01*
X113749428Y-93068836D01*
X113812749Y-92974070D01*
X113856365Y-92868772D01*
X113878600Y-92756987D01*
X113878600Y-92743013D01*
X120421400Y-92743013D01*
X120421400Y-92856987D01*
X120443635Y-92968772D01*
X120487251Y-93074070D01*
X120550572Y-93168836D01*
X120631164Y-93249428D01*
X120725930Y-93312749D01*
X120831228Y-93356365D01*
X120943013Y-93378600D01*
X121056987Y-93378600D01*
X121168772Y-93356365D01*
X121274070Y-93312749D01*
X121368836Y-93249428D01*
X121449428Y-93168836D01*
X121512749Y-93074070D01*
X121556365Y-92968772D01*
X121578600Y-92856987D01*
X121578600Y-92743013D01*
X121921400Y-92743013D01*
X121921400Y-92856987D01*
X121943635Y-92968772D01*
X121987251Y-93074070D01*
X122050572Y-93168836D01*
X122131164Y-93249428D01*
X122225930Y-93312749D01*
X122331228Y-93356365D01*
X122443013Y-93378600D01*
X122556987Y-93378600D01*
X122668772Y-93356365D01*
X122774070Y-93312749D01*
X122868836Y-93249428D01*
X122949428Y-93168836D01*
X123012749Y-93074070D01*
X123050000Y-92984138D01*
X123087251Y-93074070D01*
X123150572Y-93168836D01*
X123231164Y-93249428D01*
X123325930Y-93312749D01*
X123431228Y-93356365D01*
X123543013Y-93378600D01*
X123656987Y-93378600D01*
X123768772Y-93356365D01*
X123874070Y-93312749D01*
X123968836Y-93249428D01*
X124049428Y-93168836D01*
X124112749Y-93074070D01*
X124156365Y-92968772D01*
X124178600Y-92856987D01*
X124178600Y-92743013D01*
X124156365Y-92631228D01*
X124112749Y-92525930D01*
X124049428Y-92431164D01*
X123968836Y-92350572D01*
X123874070Y-92287251D01*
X123768772Y-92243635D01*
X123656987Y-92221400D01*
X123543013Y-92221400D01*
X123431228Y-92243635D01*
X123325930Y-92287251D01*
X123231164Y-92350572D01*
X123150572Y-92431164D01*
X123087251Y-92525930D01*
X123050000Y-92615862D01*
X123012749Y-92525930D01*
X122949428Y-92431164D01*
X122868836Y-92350572D01*
X122774070Y-92287251D01*
X122668772Y-92243635D01*
X122556987Y-92221400D01*
X122443013Y-92221400D01*
X122331228Y-92243635D01*
X122225930Y-92287251D01*
X122131164Y-92350572D01*
X122050572Y-92431164D01*
X121987251Y-92525930D01*
X121943635Y-92631228D01*
X121921400Y-92743013D01*
X121578600Y-92743013D01*
X121556365Y-92631228D01*
X121512749Y-92525930D01*
X121449428Y-92431164D01*
X121368836Y-92350572D01*
X121274070Y-92287251D01*
X121168772Y-92243635D01*
X121056987Y-92221400D01*
X120943013Y-92221400D01*
X120831228Y-92243635D01*
X120725930Y-92287251D01*
X120631164Y-92350572D01*
X120550572Y-92431164D01*
X120487251Y-92525930D01*
X120443635Y-92631228D01*
X120421400Y-92743013D01*
X113878600Y-92743013D01*
X113878600Y-92643013D01*
X113856365Y-92531228D01*
X113812749Y-92425930D01*
X113749428Y-92331164D01*
X113668836Y-92250572D01*
X113574070Y-92187251D01*
X113468772Y-92143635D01*
X113356987Y-92121400D01*
X113243013Y-92121400D01*
X113131228Y-92143635D01*
X113025930Y-92187251D01*
X112931164Y-92250572D01*
X112850572Y-92331164D01*
X112787251Y-92425930D01*
X112743635Y-92531228D01*
X112721400Y-92643013D01*
X112721400Y-92756987D01*
X112743635Y-92868772D01*
X112787251Y-92974070D01*
X112850572Y-93068836D01*
X112927086Y-93145350D01*
X112825930Y-93187251D01*
X112731164Y-93250572D01*
X112650572Y-93331164D01*
X112587251Y-93425930D01*
X112543635Y-93531228D01*
X112521400Y-93643013D01*
X110253600Y-93643013D01*
X110253600Y-91193013D01*
X115171400Y-91193013D01*
X115171400Y-91306987D01*
X115193635Y-91418772D01*
X115237251Y-91524070D01*
X115300572Y-91618836D01*
X115381164Y-91699428D01*
X115475930Y-91762749D01*
X115581228Y-91806365D01*
X115693013Y-91828600D01*
X115806987Y-91828600D01*
X115918772Y-91806365D01*
X116024070Y-91762749D01*
X116118836Y-91699428D01*
X116199428Y-91618836D01*
X116262749Y-91524070D01*
X116296324Y-91443013D01*
X124421400Y-91443013D01*
X124421400Y-91556987D01*
X124443635Y-91668772D01*
X124487251Y-91774070D01*
X124550572Y-91868836D01*
X124631164Y-91949428D01*
X124725930Y-92012749D01*
X124831228Y-92056365D01*
X124943013Y-92078600D01*
X125056987Y-92078600D01*
X125168772Y-92056365D01*
X125211216Y-92038784D01*
X125193635Y-92081228D01*
X125171400Y-92193013D01*
X125171400Y-92306987D01*
X125193635Y-92418772D01*
X125237251Y-92524070D01*
X125300572Y-92618836D01*
X125381164Y-92699428D01*
X125475930Y-92762749D01*
X125581228Y-92806365D01*
X125693013Y-92828600D01*
X125806987Y-92828600D01*
X125918772Y-92806365D01*
X126024070Y-92762749D01*
X126118836Y-92699428D01*
X126199428Y-92618836D01*
X126262749Y-92524070D01*
X126306365Y-92418772D01*
X126328600Y-92306987D01*
X126328600Y-92193013D01*
X126306365Y-92081228D01*
X126262749Y-91975930D01*
X126199428Y-91881164D01*
X126118836Y-91800572D01*
X126024070Y-91737251D01*
X125918772Y-91693635D01*
X125806987Y-91671400D01*
X125693013Y-91671400D01*
X125581228Y-91693635D01*
X125538784Y-91711216D01*
X125556365Y-91668772D01*
X125578600Y-91556987D01*
X125578600Y-91443013D01*
X125556365Y-91331228D01*
X125512749Y-91225930D01*
X125449428Y-91131164D01*
X125368836Y-91050572D01*
X125274070Y-90987251D01*
X125168772Y-90943635D01*
X125056987Y-90921400D01*
X124943013Y-90921400D01*
X124831228Y-90943635D01*
X124725930Y-90987251D01*
X124631164Y-91050572D01*
X124550572Y-91131164D01*
X124487251Y-91225930D01*
X124443635Y-91331228D01*
X124421400Y-91443013D01*
X116296324Y-91443013D01*
X116306365Y-91418772D01*
X116328600Y-91306987D01*
X116328600Y-91193013D01*
X116306365Y-91081228D01*
X116262749Y-90975930D01*
X116199428Y-90881164D01*
X116118836Y-90800572D01*
X116024070Y-90737251D01*
X115918772Y-90693635D01*
X115806987Y-90671400D01*
X115693013Y-90671400D01*
X115581228Y-90693635D01*
X115475930Y-90737251D01*
X115381164Y-90800572D01*
X115300572Y-90881164D01*
X115237251Y-90975930D01*
X115193635Y-91081228D01*
X115171400Y-91193013D01*
X110253600Y-91193013D01*
X110253600Y-90043013D01*
X120821400Y-90043013D01*
X120821400Y-90156987D01*
X120843635Y-90268772D01*
X120887251Y-90374070D01*
X120950572Y-90468836D01*
X121031164Y-90549428D01*
X121125930Y-90612749D01*
X121231228Y-90656365D01*
X121343013Y-90678600D01*
X121456987Y-90678600D01*
X121537394Y-90662606D01*
X121521400Y-90743013D01*
X121521400Y-90856987D01*
X121543635Y-90968772D01*
X121587251Y-91074070D01*
X121650572Y-91168836D01*
X121731164Y-91249428D01*
X121825930Y-91312749D01*
X121931228Y-91356365D01*
X122043013Y-91378600D01*
X122156987Y-91378600D01*
X122268772Y-91356365D01*
X122374070Y-91312749D01*
X122468836Y-91249428D01*
X122549428Y-91168836D01*
X122612749Y-91074070D01*
X122656365Y-90968772D01*
X122678600Y-90856987D01*
X122678600Y-90743013D01*
X122656365Y-90631228D01*
X122612749Y-90525930D01*
X122549428Y-90431164D01*
X122468836Y-90350572D01*
X122374070Y-90287251D01*
X122268772Y-90243635D01*
X122156987Y-90221400D01*
X122043013Y-90221400D01*
X121962606Y-90237394D01*
X121978600Y-90156987D01*
X121978600Y-90043013D01*
X121956365Y-89931228D01*
X121912749Y-89825930D01*
X121849428Y-89731164D01*
X121768836Y-89650572D01*
X121674070Y-89587251D01*
X121568772Y-89543635D01*
X121456987Y-89521400D01*
X121343013Y-89521400D01*
X121231228Y-89543635D01*
X121125930Y-89587251D01*
X121031164Y-89650572D01*
X120950572Y-89731164D01*
X120887251Y-89825930D01*
X120843635Y-89931228D01*
X120821400Y-90043013D01*
X110253600Y-90043013D01*
X110253600Y-89193013D01*
X112693802Y-89193013D01*
X112693802Y-89306987D01*
X112716037Y-89418772D01*
X112759653Y-89524070D01*
X112822974Y-89618836D01*
X112903566Y-89699428D01*
X112998332Y-89762749D01*
X113103630Y-89806365D01*
X113215415Y-89828600D01*
X113329389Y-89828600D01*
X113441174Y-89806365D01*
X113546472Y-89762749D01*
X113641238Y-89699428D01*
X113721830Y-89618836D01*
X113785151Y-89524070D01*
X113828767Y-89418772D01*
X113851002Y-89306987D01*
X113851002Y-89264687D01*
X128176763Y-89264687D01*
X128176763Y-89378661D01*
X128198998Y-89490446D01*
X128242614Y-89595744D01*
X128305935Y-89690510D01*
X128386527Y-89771102D01*
X128481293Y-89834423D01*
X128586591Y-89878039D01*
X128698376Y-89900274D01*
X128812350Y-89900274D01*
X128924135Y-89878039D01*
X129029433Y-89834423D01*
X129124199Y-89771102D01*
X129204791Y-89690510D01*
X129268112Y-89595744D01*
X129274629Y-89580010D01*
X129300572Y-89618836D01*
X129381164Y-89699428D01*
X129475930Y-89762749D01*
X129581228Y-89806365D01*
X129693013Y-89828600D01*
X129806987Y-89828600D01*
X129918772Y-89806365D01*
X130024070Y-89762749D01*
X130118836Y-89699428D01*
X130199428Y-89618836D01*
X130262749Y-89524070D01*
X130306365Y-89418772D01*
X130328600Y-89306987D01*
X130328600Y-89193013D01*
X130306365Y-89081228D01*
X130262749Y-88975930D01*
X130204559Y-88888843D01*
X133771400Y-88888843D01*
X133771400Y-89111157D01*
X133814771Y-89329201D01*
X133899847Y-89534593D01*
X134023359Y-89719441D01*
X134180559Y-89876641D01*
X134365178Y-90000000D01*
X134180559Y-90123359D01*
X134023359Y-90280559D01*
X133899847Y-90465407D01*
X133814771Y-90670799D01*
X133771400Y-90888843D01*
X133771400Y-91111157D01*
X133814771Y-91329201D01*
X133899847Y-91534593D01*
X134023359Y-91719441D01*
X134180559Y-91876641D01*
X134365407Y-92000153D01*
X134570799Y-92085229D01*
X134788843Y-92128600D01*
X135011157Y-92128600D01*
X135229201Y-92085229D01*
X135434593Y-92000153D01*
X135619441Y-91876641D01*
X135776641Y-91719441D01*
X135900153Y-91534593D01*
X135985229Y-91329201D01*
X136028600Y-91111157D01*
X136028600Y-90888843D01*
X135985229Y-90670799D01*
X135900153Y-90465407D01*
X135776641Y-90280559D01*
X135619441Y-90123359D01*
X135434822Y-90000000D01*
X135520108Y-89943013D01*
X138421400Y-89943013D01*
X138421400Y-90056987D01*
X138443635Y-90168772D01*
X138487251Y-90274070D01*
X138550572Y-90368836D01*
X138631164Y-90449428D01*
X138725930Y-90512749D01*
X138831228Y-90556365D01*
X138943013Y-90578600D01*
X139056987Y-90578600D01*
X139168772Y-90556365D01*
X139274070Y-90512749D01*
X139368836Y-90449428D01*
X139449428Y-90368836D01*
X139512749Y-90274070D01*
X139556365Y-90168772D01*
X139578600Y-90056987D01*
X139578600Y-89943013D01*
X139556365Y-89831228D01*
X139512749Y-89725930D01*
X139449428Y-89631164D01*
X139368836Y-89550572D01*
X139274070Y-89487251D01*
X139168772Y-89443635D01*
X139056987Y-89421400D01*
X138943013Y-89421400D01*
X138831228Y-89443635D01*
X138725930Y-89487251D01*
X138631164Y-89550572D01*
X138550572Y-89631164D01*
X138487251Y-89725930D01*
X138443635Y-89831228D01*
X138421400Y-89943013D01*
X135520108Y-89943013D01*
X135619441Y-89876641D01*
X135776641Y-89719441D01*
X135900153Y-89534593D01*
X135985229Y-89329201D01*
X136028600Y-89111157D01*
X136028600Y-88888843D01*
X135985229Y-88670799D01*
X135900153Y-88465407D01*
X135776641Y-88280559D01*
X135619441Y-88123359D01*
X135434593Y-87999847D01*
X135229201Y-87914771D01*
X135011157Y-87871400D01*
X134788843Y-87871400D01*
X134570799Y-87914771D01*
X134365407Y-87999847D01*
X134180559Y-88123359D01*
X134023359Y-88280559D01*
X133899847Y-88465407D01*
X133814771Y-88670799D01*
X133771400Y-88888843D01*
X130204559Y-88888843D01*
X130199428Y-88881164D01*
X130118836Y-88800572D01*
X130024070Y-88737251D01*
X129918772Y-88693635D01*
X129806987Y-88671400D01*
X129693013Y-88671400D01*
X129581228Y-88693635D01*
X129475930Y-88737251D01*
X129381164Y-88800572D01*
X129300572Y-88881164D01*
X129237251Y-88975930D01*
X129230734Y-88991664D01*
X129204791Y-88952838D01*
X129124199Y-88872246D01*
X129029433Y-88808925D01*
X128924135Y-88765309D01*
X128812350Y-88743074D01*
X128698376Y-88743074D01*
X128586591Y-88765309D01*
X128481293Y-88808925D01*
X128386527Y-88872246D01*
X128305935Y-88952838D01*
X128242614Y-89047604D01*
X128198998Y-89152902D01*
X128176763Y-89264687D01*
X113851002Y-89264687D01*
X113851002Y-89193013D01*
X113828767Y-89081228D01*
X113785151Y-88975930D01*
X113721830Y-88881164D01*
X113641238Y-88800572D01*
X113546472Y-88737251D01*
X113441174Y-88693635D01*
X113329389Y-88671400D01*
X113215415Y-88671400D01*
X113103630Y-88693635D01*
X112998332Y-88737251D01*
X112903566Y-88800572D01*
X112822974Y-88881164D01*
X112759653Y-88975930D01*
X112716037Y-89081228D01*
X112693802Y-89193013D01*
X110253600Y-89193013D01*
X110253600Y-87443013D01*
X115171400Y-87443013D01*
X115171400Y-87556987D01*
X115193635Y-87668772D01*
X115237251Y-87774070D01*
X115300572Y-87868836D01*
X115381164Y-87949428D01*
X115475930Y-88012749D01*
X115581228Y-88056365D01*
X115693013Y-88078600D01*
X115806987Y-88078600D01*
X115918772Y-88056365D01*
X116024070Y-88012749D01*
X116118836Y-87949428D01*
X116199428Y-87868836D01*
X116262749Y-87774070D01*
X116296324Y-87693013D01*
X120671400Y-87693013D01*
X120671400Y-87806987D01*
X120693635Y-87918772D01*
X120737251Y-88024070D01*
X120800572Y-88118836D01*
X120881164Y-88199428D01*
X120975930Y-88262749D01*
X121081228Y-88306365D01*
X121193013Y-88328600D01*
X121306987Y-88328600D01*
X121418772Y-88306365D01*
X121524070Y-88262749D01*
X121618836Y-88199428D01*
X121699428Y-88118836D01*
X121762749Y-88024070D01*
X121806365Y-87918772D01*
X121828600Y-87806987D01*
X121828600Y-87693013D01*
X121921400Y-87693013D01*
X121921400Y-87806987D01*
X121943635Y-87918772D01*
X121987251Y-88024070D01*
X122050572Y-88118836D01*
X122131164Y-88199428D01*
X122225930Y-88262749D01*
X122331228Y-88306365D01*
X122443013Y-88328600D01*
X122556987Y-88328600D01*
X122668772Y-88306365D01*
X122774070Y-88262749D01*
X122868836Y-88199428D01*
X122949428Y-88118836D01*
X123012749Y-88024070D01*
X123056365Y-87918772D01*
X123078600Y-87806987D01*
X123078600Y-87693013D01*
X123056365Y-87581228D01*
X123012749Y-87475930D01*
X122949428Y-87381164D01*
X122911277Y-87343013D01*
X123221400Y-87343013D01*
X123221400Y-87456987D01*
X123243635Y-87568772D01*
X123287251Y-87674070D01*
X123350572Y-87768836D01*
X123431164Y-87849428D01*
X123525930Y-87912749D01*
X123631228Y-87956365D01*
X123743013Y-87978600D01*
X123856987Y-87978600D01*
X123968772Y-87956365D01*
X124001006Y-87943013D01*
X124821400Y-87943013D01*
X124821400Y-88056987D01*
X124843635Y-88168772D01*
X124887251Y-88274070D01*
X124950572Y-88368836D01*
X125031164Y-88449428D01*
X125125930Y-88512749D01*
X125231228Y-88556365D01*
X125343013Y-88578600D01*
X125456987Y-88578600D01*
X125568772Y-88556365D01*
X125674070Y-88512749D01*
X125768836Y-88449428D01*
X125849428Y-88368836D01*
X125912749Y-88274070D01*
X125956365Y-88168772D01*
X125978600Y-88056987D01*
X125978600Y-87943013D01*
X125956365Y-87831228D01*
X125912749Y-87725930D01*
X125849428Y-87631164D01*
X125768836Y-87550572D01*
X125674070Y-87487251D01*
X125568772Y-87443635D01*
X125456987Y-87421400D01*
X125343013Y-87421400D01*
X125231228Y-87443635D01*
X125125930Y-87487251D01*
X125031164Y-87550572D01*
X124950572Y-87631164D01*
X124887251Y-87725930D01*
X124843635Y-87831228D01*
X124821400Y-87943013D01*
X124001006Y-87943013D01*
X124074070Y-87912749D01*
X124168836Y-87849428D01*
X124249428Y-87768836D01*
X124312749Y-87674070D01*
X124356365Y-87568772D01*
X124378600Y-87456987D01*
X124378600Y-87343013D01*
X124356365Y-87231228D01*
X124312749Y-87125930D01*
X124249428Y-87031164D01*
X124168836Y-86950572D01*
X124074070Y-86887251D01*
X123968772Y-86843635D01*
X123856987Y-86821400D01*
X123743013Y-86821400D01*
X123631228Y-86843635D01*
X123525930Y-86887251D01*
X123431164Y-86950572D01*
X123350572Y-87031164D01*
X123287251Y-87125930D01*
X123243635Y-87231228D01*
X123221400Y-87343013D01*
X122911277Y-87343013D01*
X122868836Y-87300572D01*
X122774070Y-87237251D01*
X122668772Y-87193635D01*
X122556987Y-87171400D01*
X122443013Y-87171400D01*
X122331228Y-87193635D01*
X122225930Y-87237251D01*
X122131164Y-87300572D01*
X122050572Y-87381164D01*
X121987251Y-87475930D01*
X121943635Y-87581228D01*
X121921400Y-87693013D01*
X121828600Y-87693013D01*
X121806365Y-87581228D01*
X121762749Y-87475930D01*
X121699428Y-87381164D01*
X121618836Y-87300572D01*
X121524070Y-87237251D01*
X121418772Y-87193635D01*
X121306987Y-87171400D01*
X121193013Y-87171400D01*
X121081228Y-87193635D01*
X120975930Y-87237251D01*
X120881164Y-87300572D01*
X120800572Y-87381164D01*
X120737251Y-87475930D01*
X120693635Y-87581228D01*
X120671400Y-87693013D01*
X116296324Y-87693013D01*
X116306365Y-87668772D01*
X116328600Y-87556987D01*
X116328600Y-87443013D01*
X116306365Y-87331228D01*
X116262749Y-87225930D01*
X116199428Y-87131164D01*
X116118836Y-87050572D01*
X116024070Y-86987251D01*
X115918772Y-86943635D01*
X115806987Y-86921400D01*
X115693013Y-86921400D01*
X115581228Y-86943635D01*
X115475930Y-86987251D01*
X115381164Y-87050572D01*
X115300572Y-87131164D01*
X115237251Y-87225930D01*
X115193635Y-87331228D01*
X115171400Y-87443013D01*
X110253600Y-87443013D01*
X110253600Y-85943013D01*
X131421400Y-85943013D01*
X131421400Y-86056987D01*
X131443635Y-86168772D01*
X131487251Y-86274070D01*
X131550572Y-86368836D01*
X131631164Y-86449428D01*
X131725930Y-86512749D01*
X131831228Y-86556365D01*
X131943013Y-86578600D01*
X132056987Y-86578600D01*
X132168772Y-86556365D01*
X132274070Y-86512749D01*
X132368836Y-86449428D01*
X132429421Y-86388843D01*
X133771400Y-86388843D01*
X133771400Y-86611157D01*
X133814771Y-86829201D01*
X133899847Y-87034593D01*
X134023359Y-87219441D01*
X134180559Y-87376641D01*
X134365407Y-87500153D01*
X134570799Y-87585229D01*
X134788843Y-87628600D01*
X135011157Y-87628600D01*
X135229201Y-87585229D01*
X135434593Y-87500153D01*
X135619441Y-87376641D01*
X135749919Y-87246163D01*
X135722457Y-87312462D01*
X135671400Y-87569144D01*
X135671400Y-87830856D01*
X135722457Y-88087538D01*
X135822610Y-88329328D01*
X135968009Y-88546933D01*
X136153067Y-88731991D01*
X136370672Y-88877390D01*
X136612462Y-88977543D01*
X136869144Y-89028600D01*
X137130856Y-89028600D01*
X137387538Y-88977543D01*
X137629328Y-88877390D01*
X137846933Y-88731991D01*
X138031991Y-88546933D01*
X138177390Y-88329328D01*
X138277543Y-88087538D01*
X138328600Y-87830856D01*
X138328600Y-87569144D01*
X138277543Y-87312462D01*
X138177390Y-87070672D01*
X138031991Y-86853067D01*
X137846933Y-86668009D01*
X137629328Y-86522610D01*
X137387538Y-86422457D01*
X137130856Y-86371400D01*
X136869144Y-86371400D01*
X136612462Y-86422457D01*
X136370672Y-86522610D01*
X136153067Y-86668009D01*
X135980530Y-86840546D01*
X135985229Y-86829201D01*
X136028600Y-86611157D01*
X136028600Y-86388843D01*
X135985229Y-86170799D01*
X135900153Y-85965407D01*
X135885190Y-85943013D01*
X138421400Y-85943013D01*
X138421400Y-86056987D01*
X138443635Y-86168772D01*
X138487251Y-86274070D01*
X138550572Y-86368836D01*
X138631164Y-86449428D01*
X138725930Y-86512749D01*
X138831228Y-86556365D01*
X138943013Y-86578600D01*
X139056987Y-86578600D01*
X139168772Y-86556365D01*
X139274070Y-86512749D01*
X139368836Y-86449428D01*
X139449428Y-86368836D01*
X139512749Y-86274070D01*
X139556365Y-86168772D01*
X139578600Y-86056987D01*
X139578600Y-85943013D01*
X139556365Y-85831228D01*
X139512749Y-85725930D01*
X139449428Y-85631164D01*
X139368836Y-85550572D01*
X139274070Y-85487251D01*
X139168772Y-85443635D01*
X139056987Y-85421400D01*
X138943013Y-85421400D01*
X138831228Y-85443635D01*
X138725930Y-85487251D01*
X138631164Y-85550572D01*
X138550572Y-85631164D01*
X138487251Y-85725930D01*
X138443635Y-85831228D01*
X138421400Y-85943013D01*
X135885190Y-85943013D01*
X135776641Y-85780559D01*
X135619441Y-85623359D01*
X135434593Y-85499847D01*
X135229201Y-85414771D01*
X135011157Y-85371400D01*
X134788843Y-85371400D01*
X134570799Y-85414771D01*
X134365407Y-85499847D01*
X134180559Y-85623359D01*
X134023359Y-85780559D01*
X133899847Y-85965407D01*
X133814771Y-86170799D01*
X133771400Y-86388843D01*
X132429421Y-86388843D01*
X132449428Y-86368836D01*
X132512749Y-86274070D01*
X132556365Y-86168772D01*
X132578600Y-86056987D01*
X132578600Y-85943013D01*
X132556365Y-85831228D01*
X132512749Y-85725930D01*
X132449428Y-85631164D01*
X132368836Y-85550572D01*
X132274070Y-85487251D01*
X132168772Y-85443635D01*
X132056987Y-85421400D01*
X131943013Y-85421400D01*
X131831228Y-85443635D01*
X131725930Y-85487251D01*
X131631164Y-85550572D01*
X131550572Y-85631164D01*
X131487251Y-85725930D01*
X131443635Y-85831228D01*
X131421400Y-85943013D01*
X110253600Y-85943013D01*
X110253600Y-85193013D01*
X118921400Y-85193013D01*
X118921400Y-85306987D01*
X118943635Y-85418772D01*
X118987251Y-85524070D01*
X119050572Y-85618836D01*
X119131164Y-85699428D01*
X119225930Y-85762749D01*
X119331228Y-85806365D01*
X119443013Y-85828600D01*
X119556987Y-85828600D01*
X119668772Y-85806365D01*
X119774070Y-85762749D01*
X119868836Y-85699428D01*
X119949428Y-85618836D01*
X120012749Y-85524070D01*
X120056365Y-85418772D01*
X120078600Y-85306987D01*
X120078600Y-85193013D01*
X132921400Y-85193013D01*
X132921400Y-85306987D01*
X132943635Y-85418772D01*
X132987251Y-85524070D01*
X133050572Y-85618836D01*
X133131164Y-85699428D01*
X133225930Y-85762749D01*
X133331228Y-85806365D01*
X133443013Y-85828600D01*
X133556987Y-85828600D01*
X133668772Y-85806365D01*
X133774070Y-85762749D01*
X133868836Y-85699428D01*
X133949428Y-85618836D01*
X134012749Y-85524070D01*
X134056365Y-85418772D01*
X134078600Y-85306987D01*
X134078600Y-85193013D01*
X134056365Y-85081228D01*
X134012749Y-84975930D01*
X133949428Y-84881164D01*
X133868836Y-84800572D01*
X133774070Y-84737251D01*
X133668772Y-84693635D01*
X133556987Y-84671400D01*
X133443013Y-84671400D01*
X133331228Y-84693635D01*
X133225930Y-84737251D01*
X133131164Y-84800572D01*
X133050572Y-84881164D01*
X132987251Y-84975930D01*
X132943635Y-85081228D01*
X132921400Y-85193013D01*
X120078600Y-85193013D01*
X120056365Y-85081228D01*
X120012749Y-84975930D01*
X119949428Y-84881164D01*
X119868836Y-84800572D01*
X119774070Y-84737251D01*
X119668772Y-84693635D01*
X119556987Y-84671400D01*
X119443013Y-84671400D01*
X119331228Y-84693635D01*
X119225930Y-84737251D01*
X119131164Y-84800572D01*
X119050572Y-84881164D01*
X118987251Y-84975930D01*
X118943635Y-85081228D01*
X118921400Y-85193013D01*
X110253600Y-85193013D01*
X110253600Y-84443013D01*
X121921400Y-84443013D01*
X121921400Y-84556987D01*
X121943635Y-84668772D01*
X121987251Y-84774070D01*
X122050572Y-84868836D01*
X122131164Y-84949428D01*
X122225930Y-85012749D01*
X122331228Y-85056365D01*
X122443013Y-85078600D01*
X122556987Y-85078600D01*
X122668772Y-85056365D01*
X122774070Y-85012749D01*
X122868836Y-84949428D01*
X122949428Y-84868836D01*
X123012749Y-84774070D01*
X123056365Y-84668772D01*
X123078600Y-84556987D01*
X123078600Y-84443013D01*
X125421400Y-84443013D01*
X125421400Y-84556987D01*
X125443635Y-84668772D01*
X125487251Y-84774070D01*
X125550572Y-84868836D01*
X125631164Y-84949428D01*
X125725930Y-85012749D01*
X125831228Y-85056365D01*
X125943013Y-85078600D01*
X126056987Y-85078600D01*
X126168772Y-85056365D01*
X126274070Y-85012749D01*
X126368836Y-84949428D01*
X126449428Y-84868836D01*
X126512749Y-84774070D01*
X126556365Y-84668772D01*
X126578600Y-84556987D01*
X126578600Y-84443013D01*
X126556365Y-84331228D01*
X126512749Y-84225930D01*
X126449428Y-84131164D01*
X126368836Y-84050572D01*
X126274070Y-83987251D01*
X126168772Y-83943635D01*
X126056987Y-83921400D01*
X125943013Y-83921400D01*
X125831228Y-83943635D01*
X125725930Y-83987251D01*
X125631164Y-84050572D01*
X125550572Y-84131164D01*
X125487251Y-84225930D01*
X125443635Y-84331228D01*
X125421400Y-84443013D01*
X123078600Y-84443013D01*
X123056365Y-84331228D01*
X123012749Y-84225930D01*
X122949428Y-84131164D01*
X122868836Y-84050572D01*
X122774070Y-83987251D01*
X122668772Y-83943635D01*
X122556987Y-83921400D01*
X122443013Y-83921400D01*
X122331228Y-83943635D01*
X122225930Y-83987251D01*
X122131164Y-84050572D01*
X122050572Y-84131164D01*
X121987251Y-84225930D01*
X121943635Y-84331228D01*
X121921400Y-84443013D01*
X110253600Y-84443013D01*
X110253600Y-82753600D01*
X115371400Y-82753600D01*
X115371400Y-82797138D01*
G37*
G04 #@! TD.AperFunction*
G04 #@! TD*
M02*
