%TF.GenerationSoftware,KiCad,Pcbnew,5.1.6+dfsg1-1*%
%TF.CreationDate,2020-06-28T19:58:20+08:00*%
%TF.ProjectId,stlink,73746c69-6e6b-42e6-9b69-6361645f7063,rev?*%
%TF.SameCoordinates,Original*%
%TF.FileFunction,Soldermask,Top*%
%TF.FilePolarity,Negative*%
%FSLAX46Y46*%
G04 Gerber Fmt 4.6, Leading zero omitted, Abs format (unit mm)*
G04 Created by KiCad (PCBNEW 5.1.6+dfsg1-1) date 2020-06-28 19:58:20*
%MOMM*%
%LPD*%
G01*
G04 APERTURE LIST*
%ADD10R,2.500000X2.100000*%
%ADD11R,2.640000X1.624000*%
%ADD12R,1.000000X1.300000*%
%ADD13R,1.000000X0.900000*%
%ADD14R,1.550000X0.700000*%
%ADD15R,1.550000X0.400000*%
%ADD16O,2.200000X1.100000*%
%ADD17C,0.750000*%
%ADD18O,1.700000X1.100000*%
G04 APERTURE END LIST*
%TO.C,R7*%
G36*
G01*
X135140000Y-83697500D02*
X135140000Y-83302500D01*
G75*
G02*
X135312500Y-83130000I172500J0D01*
G01*
X135657500Y-83130000D01*
G75*
G02*
X135830000Y-83302500I0J-172500D01*
G01*
X135830000Y-83697500D01*
G75*
G02*
X135657500Y-83870000I-172500J0D01*
G01*
X135312500Y-83870000D01*
G75*
G02*
X135140000Y-83697500I0J172500D01*
G01*
G37*
G36*
G01*
X134170000Y-83697500D02*
X134170000Y-83302500D01*
G75*
G02*
X134342500Y-83130000I172500J0D01*
G01*
X134687500Y-83130000D01*
G75*
G02*
X134860000Y-83302500I0J-172500D01*
G01*
X134860000Y-83697500D01*
G75*
G02*
X134687500Y-83870000I-172500J0D01*
G01*
X134342500Y-83870000D01*
G75*
G02*
X134170000Y-83697500I0J172500D01*
G01*
G37*
%TD*%
%TO.C,R6*%
G36*
G01*
X134860000Y-96302500D02*
X134860000Y-96697500D01*
G75*
G02*
X134687500Y-96870000I-172500J0D01*
G01*
X134342500Y-96870000D01*
G75*
G02*
X134170000Y-96697500I0J172500D01*
G01*
X134170000Y-96302500D01*
G75*
G02*
X134342500Y-96130000I172500J0D01*
G01*
X134687500Y-96130000D01*
G75*
G02*
X134860000Y-96302500I0J-172500D01*
G01*
G37*
G36*
G01*
X135830000Y-96302500D02*
X135830000Y-96697500D01*
G75*
G02*
X135657500Y-96870000I-172500J0D01*
G01*
X135312500Y-96870000D01*
G75*
G02*
X135140000Y-96697500I0J172500D01*
G01*
X135140000Y-96302500D01*
G75*
G02*
X135312500Y-96130000I172500J0D01*
G01*
X135657500Y-96130000D01*
G75*
G02*
X135830000Y-96302500I0J-172500D01*
G01*
G37*
%TD*%
%TO.C,D3*%
G36*
G01*
X138300000Y-83781250D02*
X138300000Y-83218750D01*
G75*
G02*
X138543750Y-82975000I243750J0D01*
G01*
X139031250Y-82975000D01*
G75*
G02*
X139275000Y-83218750I0J-243750D01*
G01*
X139275000Y-83781250D01*
G75*
G02*
X139031250Y-84025000I-243750J0D01*
G01*
X138543750Y-84025000D01*
G75*
G02*
X138300000Y-83781250I0J243750D01*
G01*
G37*
G36*
G01*
X136725000Y-83781250D02*
X136725000Y-83218750D01*
G75*
G02*
X136968750Y-82975000I243750J0D01*
G01*
X137456250Y-82975000D01*
G75*
G02*
X137700000Y-83218750I0J-243750D01*
G01*
X137700000Y-83781250D01*
G75*
G02*
X137456250Y-84025000I-243750J0D01*
G01*
X136968750Y-84025000D01*
G75*
G02*
X136725000Y-83781250I0J243750D01*
G01*
G37*
%TD*%
%TO.C,D2*%
G36*
G01*
X137700000Y-96218750D02*
X137700000Y-96781250D01*
G75*
G02*
X137456250Y-97025000I-243750J0D01*
G01*
X136968750Y-97025000D01*
G75*
G02*
X136725000Y-96781250I0J243750D01*
G01*
X136725000Y-96218750D01*
G75*
G02*
X136968750Y-95975000I243750J0D01*
G01*
X137456250Y-95975000D01*
G75*
G02*
X137700000Y-96218750I0J-243750D01*
G01*
G37*
G36*
G01*
X139275000Y-96218750D02*
X139275000Y-96781250D01*
G75*
G02*
X139031250Y-97025000I-243750J0D01*
G01*
X138543750Y-97025000D01*
G75*
G02*
X138300000Y-96781250I0J243750D01*
G01*
X138300000Y-96218750D01*
G75*
G02*
X138543750Y-95975000I243750J0D01*
G01*
X139031250Y-95975000D01*
G75*
G02*
X139275000Y-96218750I0J-243750D01*
G01*
G37*
%TD*%
D10*
%TO.C,Y1*%
X116500000Y-89850000D03*
X116500000Y-86150000D03*
%TD*%
%TO.C,C8*%
G36*
G01*
X116360000Y-91802500D02*
X116360000Y-92197500D01*
G75*
G02*
X116187500Y-92370000I-172500J0D01*
G01*
X115842500Y-92370000D01*
G75*
G02*
X115670000Y-92197500I0J172500D01*
G01*
X115670000Y-91802500D01*
G75*
G02*
X115842500Y-91630000I172500J0D01*
G01*
X116187500Y-91630000D01*
G75*
G02*
X116360000Y-91802500I0J-172500D01*
G01*
G37*
G36*
G01*
X117330000Y-91802500D02*
X117330000Y-92197500D01*
G75*
G02*
X117157500Y-92370000I-172500J0D01*
G01*
X116812500Y-92370000D01*
G75*
G02*
X116640000Y-92197500I0J172500D01*
G01*
X116640000Y-91802500D01*
G75*
G02*
X116812500Y-91630000I172500J0D01*
G01*
X117157500Y-91630000D01*
G75*
G02*
X117330000Y-91802500I0J-172500D01*
G01*
G37*
%TD*%
%TO.C,C7*%
G36*
G01*
X116360000Y-83802500D02*
X116360000Y-84197500D01*
G75*
G02*
X116187500Y-84370000I-172500J0D01*
G01*
X115842500Y-84370000D01*
G75*
G02*
X115670000Y-84197500I0J172500D01*
G01*
X115670000Y-83802500D01*
G75*
G02*
X115842500Y-83630000I172500J0D01*
G01*
X116187500Y-83630000D01*
G75*
G02*
X116360000Y-83802500I0J-172500D01*
G01*
G37*
G36*
G01*
X117330000Y-83802500D02*
X117330000Y-84197500D01*
G75*
G02*
X117157500Y-84370000I-172500J0D01*
G01*
X116812500Y-84370000D01*
G75*
G02*
X116640000Y-84197500I0J172500D01*
G01*
X116640000Y-83802500D01*
G75*
G02*
X116812500Y-83630000I172500J0D01*
G01*
X117157500Y-83630000D01*
G75*
G02*
X117330000Y-83802500I0J-172500D01*
G01*
G37*
%TD*%
D11*
%TO.C,J2*%
X111500000Y-84840000D03*
X111500000Y-87380000D03*
X111500000Y-89920000D03*
X111500000Y-92460000D03*
X111500000Y-95000000D03*
%TD*%
%TO.C,R5*%
G36*
G01*
X131140000Y-87192500D02*
X131140000Y-86797500D01*
G75*
G02*
X131312500Y-86625000I172500J0D01*
G01*
X131657500Y-86625000D01*
G75*
G02*
X131830000Y-86797500I0J-172500D01*
G01*
X131830000Y-87192500D01*
G75*
G02*
X131657500Y-87365000I-172500J0D01*
G01*
X131312500Y-87365000D01*
G75*
G02*
X131140000Y-87192500I0J172500D01*
G01*
G37*
G36*
G01*
X130170000Y-87192500D02*
X130170000Y-86797500D01*
G75*
G02*
X130342500Y-86625000I172500J0D01*
G01*
X130687500Y-86625000D01*
G75*
G02*
X130860000Y-86797500I0J-172500D01*
G01*
X130860000Y-87192500D01*
G75*
G02*
X130687500Y-87365000I-172500J0D01*
G01*
X130342500Y-87365000D01*
G75*
G02*
X130170000Y-87192500I0J172500D01*
G01*
G37*
%TD*%
%TO.C,R4*%
G36*
G01*
X131140000Y-93197500D02*
X131140000Y-92802500D01*
G75*
G02*
X131312500Y-92630000I172500J0D01*
G01*
X131657500Y-92630000D01*
G75*
G02*
X131830000Y-92802500I0J-172500D01*
G01*
X131830000Y-93197500D01*
G75*
G02*
X131657500Y-93370000I-172500J0D01*
G01*
X131312500Y-93370000D01*
G75*
G02*
X131140000Y-93197500I0J172500D01*
G01*
G37*
G36*
G01*
X130170000Y-93197500D02*
X130170000Y-92802500D01*
G75*
G02*
X130342500Y-92630000I172500J0D01*
G01*
X130687500Y-92630000D01*
G75*
G02*
X130860000Y-92802500I0J-172500D01*
G01*
X130860000Y-93197500D01*
G75*
G02*
X130687500Y-93370000I-172500J0D01*
G01*
X130342500Y-93370000D01*
G75*
G02*
X130170000Y-93197500I0J172500D01*
G01*
G37*
%TD*%
%TO.C,C6*%
G36*
G01*
X119640000Y-92697500D02*
X119640000Y-92302500D01*
G75*
G02*
X119812500Y-92130000I172500J0D01*
G01*
X120157500Y-92130000D01*
G75*
G02*
X120330000Y-92302500I0J-172500D01*
G01*
X120330000Y-92697500D01*
G75*
G02*
X120157500Y-92870000I-172500J0D01*
G01*
X119812500Y-92870000D01*
G75*
G02*
X119640000Y-92697500I0J172500D01*
G01*
G37*
G36*
G01*
X118670000Y-92697500D02*
X118670000Y-92302500D01*
G75*
G02*
X118842500Y-92130000I172500J0D01*
G01*
X119187500Y-92130000D01*
G75*
G02*
X119360000Y-92302500I0J-172500D01*
G01*
X119360000Y-92697500D01*
G75*
G02*
X119187500Y-92870000I-172500J0D01*
G01*
X118842500Y-92870000D01*
G75*
G02*
X118670000Y-92697500I0J172500D01*
G01*
G37*
%TD*%
%TO.C,C5*%
G36*
G01*
X128640000Y-92697500D02*
X128640000Y-92302500D01*
G75*
G02*
X128812500Y-92130000I172500J0D01*
G01*
X129157500Y-92130000D01*
G75*
G02*
X129330000Y-92302500I0J-172500D01*
G01*
X129330000Y-92697500D01*
G75*
G02*
X129157500Y-92870000I-172500J0D01*
G01*
X128812500Y-92870000D01*
G75*
G02*
X128640000Y-92697500I0J172500D01*
G01*
G37*
G36*
G01*
X127670000Y-92697500D02*
X127670000Y-92302500D01*
G75*
G02*
X127842500Y-92130000I172500J0D01*
G01*
X128187500Y-92130000D01*
G75*
G02*
X128360000Y-92302500I0J-172500D01*
G01*
X128360000Y-92697500D01*
G75*
G02*
X128187500Y-92870000I-172500J0D01*
G01*
X127842500Y-92870000D01*
G75*
G02*
X127670000Y-92697500I0J172500D01*
G01*
G37*
%TD*%
%TO.C,C4*%
G36*
G01*
X128655000Y-83697500D02*
X128655000Y-83302500D01*
G75*
G02*
X128827500Y-83130000I172500J0D01*
G01*
X129172500Y-83130000D01*
G75*
G02*
X129345000Y-83302500I0J-172500D01*
G01*
X129345000Y-83697500D01*
G75*
G02*
X129172500Y-83870000I-172500J0D01*
G01*
X128827500Y-83870000D01*
G75*
G02*
X128655000Y-83697500I0J172500D01*
G01*
G37*
G36*
G01*
X127685000Y-83697500D02*
X127685000Y-83302500D01*
G75*
G02*
X127857500Y-83130000I172500J0D01*
G01*
X128202500Y-83130000D01*
G75*
G02*
X128375000Y-83302500I0J-172500D01*
G01*
X128375000Y-83697500D01*
G75*
G02*
X128202500Y-83870000I-172500J0D01*
G01*
X127857500Y-83870000D01*
G75*
G02*
X127685000Y-83697500I0J172500D01*
G01*
G37*
%TD*%
%TO.C,C3*%
G36*
G01*
X119360000Y-83302500D02*
X119360000Y-83697500D01*
G75*
G02*
X119187500Y-83870000I-172500J0D01*
G01*
X118842500Y-83870000D01*
G75*
G02*
X118670000Y-83697500I0J172500D01*
G01*
X118670000Y-83302500D01*
G75*
G02*
X118842500Y-83130000I172500J0D01*
G01*
X119187500Y-83130000D01*
G75*
G02*
X119360000Y-83302500I0J-172500D01*
G01*
G37*
G36*
G01*
X120330000Y-83302500D02*
X120330000Y-83697500D01*
G75*
G02*
X120157500Y-83870000I-172500J0D01*
G01*
X119812500Y-83870000D01*
G75*
G02*
X119640000Y-83697500I0J172500D01*
G01*
X119640000Y-83302500D01*
G75*
G02*
X119812500Y-83130000I172500J0D01*
G01*
X120157500Y-83130000D01*
G75*
G02*
X120330000Y-83302500I0J-172500D01*
G01*
G37*
%TD*%
%TO.C,R3*%
G36*
G01*
X131140000Y-91697500D02*
X131140000Y-91302500D01*
G75*
G02*
X131312500Y-91130000I172500J0D01*
G01*
X131657500Y-91130000D01*
G75*
G02*
X131830000Y-91302500I0J-172500D01*
G01*
X131830000Y-91697500D01*
G75*
G02*
X131657500Y-91870000I-172500J0D01*
G01*
X131312500Y-91870000D01*
G75*
G02*
X131140000Y-91697500I0J172500D01*
G01*
G37*
G36*
G01*
X130170000Y-91697500D02*
X130170000Y-91302500D01*
G75*
G02*
X130342500Y-91130000I172500J0D01*
G01*
X130687500Y-91130000D01*
G75*
G02*
X130860000Y-91302500I0J-172500D01*
G01*
X130860000Y-91697500D01*
G75*
G02*
X130687500Y-91870000I-172500J0D01*
G01*
X130342500Y-91870000D01*
G75*
G02*
X130170000Y-91697500I0J172500D01*
G01*
G37*
%TD*%
%TO.C,R2*%
G36*
G01*
X131140000Y-88697500D02*
X131140000Y-88302500D01*
G75*
G02*
X131312500Y-88130000I172500J0D01*
G01*
X131657500Y-88130000D01*
G75*
G02*
X131830000Y-88302500I0J-172500D01*
G01*
X131830000Y-88697500D01*
G75*
G02*
X131657500Y-88870000I-172500J0D01*
G01*
X131312500Y-88870000D01*
G75*
G02*
X131140000Y-88697500I0J172500D01*
G01*
G37*
G36*
G01*
X130170000Y-88697500D02*
X130170000Y-88302500D01*
G75*
G02*
X130342500Y-88130000I172500J0D01*
G01*
X130687500Y-88130000D01*
G75*
G02*
X130860000Y-88302500I0J-172500D01*
G01*
X130860000Y-88697500D01*
G75*
G02*
X130687500Y-88870000I-172500J0D01*
G01*
X130342500Y-88870000D01*
G75*
G02*
X130170000Y-88697500I0J172500D01*
G01*
G37*
%TD*%
%TO.C,R1*%
G36*
G01*
X131140000Y-90197500D02*
X131140000Y-89802500D01*
G75*
G02*
X131312500Y-89630000I172500J0D01*
G01*
X131657500Y-89630000D01*
G75*
G02*
X131830000Y-89802500I0J-172500D01*
G01*
X131830000Y-90197500D01*
G75*
G02*
X131657500Y-90370000I-172500J0D01*
G01*
X131312500Y-90370000D01*
G75*
G02*
X131140000Y-90197500I0J172500D01*
G01*
G37*
G36*
G01*
X130170000Y-90197500D02*
X130170000Y-89802500D01*
G75*
G02*
X130342500Y-89630000I172500J0D01*
G01*
X130687500Y-89630000D01*
G75*
G02*
X130860000Y-89802500I0J-172500D01*
G01*
X130860000Y-90197500D01*
G75*
G02*
X130687500Y-90370000I-172500J0D01*
G01*
X130342500Y-90370000D01*
G75*
G02*
X130170000Y-90197500I0J172500D01*
G01*
G37*
%TD*%
D12*
%TO.C,D1*%
X131150000Y-96000000D03*
X127850000Y-96000000D03*
%TD*%
%TO.C,C2*%
G36*
G01*
X120481250Y-95100000D02*
X119518750Y-95100000D01*
G75*
G02*
X119250000Y-94831250I0J268750D01*
G01*
X119250000Y-94293750D01*
G75*
G02*
X119518750Y-94025000I268750J0D01*
G01*
X120481250Y-94025000D01*
G75*
G02*
X120750000Y-94293750I0J-268750D01*
G01*
X120750000Y-94831250D01*
G75*
G02*
X120481250Y-95100000I-268750J0D01*
G01*
G37*
G36*
G01*
X120481250Y-96975000D02*
X119518750Y-96975000D01*
G75*
G02*
X119250000Y-96706250I0J268750D01*
G01*
X119250000Y-96168750D01*
G75*
G02*
X119518750Y-95900000I268750J0D01*
G01*
X120481250Y-95900000D01*
G75*
G02*
X120750000Y-96168750I0J-268750D01*
G01*
X120750000Y-96706250D01*
G75*
G02*
X120481250Y-96975000I-268750J0D01*
G01*
G37*
%TD*%
%TO.C,C1*%
G36*
G01*
X125518750Y-95900000D02*
X126481250Y-95900000D01*
G75*
G02*
X126750000Y-96168750I0J-268750D01*
G01*
X126750000Y-96706250D01*
G75*
G02*
X126481250Y-96975000I-268750J0D01*
G01*
X125518750Y-96975000D01*
G75*
G02*
X125250000Y-96706250I0J268750D01*
G01*
X125250000Y-96168750D01*
G75*
G02*
X125518750Y-95900000I268750J0D01*
G01*
G37*
G36*
G01*
X125518750Y-94025000D02*
X126481250Y-94025000D01*
G75*
G02*
X126750000Y-94293750I0J-268750D01*
G01*
X126750000Y-94831250D01*
G75*
G02*
X126481250Y-95100000I-268750J0D01*
G01*
X125518750Y-95100000D01*
G75*
G02*
X125250000Y-94831250I0J268750D01*
G01*
X125250000Y-94293750D01*
G75*
G02*
X125518750Y-94025000I268750J0D01*
G01*
G37*
%TD*%
D13*
%TO.C,U2*%
X124000000Y-95500000D03*
X122000000Y-96450000D03*
X122000000Y-94550000D03*
%TD*%
%TO.C,U1*%
G36*
G01*
X121050000Y-84525000D02*
X121050000Y-83150000D01*
G75*
G02*
X121150000Y-83050000I100000J0D01*
G01*
X121350000Y-83050000D01*
G75*
G02*
X121450000Y-83150000I0J-100000D01*
G01*
X121450000Y-84525000D01*
G75*
G02*
X121350000Y-84625000I-100000J0D01*
G01*
X121150000Y-84625000D01*
G75*
G02*
X121050000Y-84525000I0J100000D01*
G01*
G37*
G36*
G01*
X121550000Y-84525000D02*
X121550000Y-83150000D01*
G75*
G02*
X121650000Y-83050000I100000J0D01*
G01*
X121850000Y-83050000D01*
G75*
G02*
X121950000Y-83150000I0J-100000D01*
G01*
X121950000Y-84525000D01*
G75*
G02*
X121850000Y-84625000I-100000J0D01*
G01*
X121650000Y-84625000D01*
G75*
G02*
X121550000Y-84525000I0J100000D01*
G01*
G37*
G36*
G01*
X122050000Y-84525000D02*
X122050000Y-83150000D01*
G75*
G02*
X122150000Y-83050000I100000J0D01*
G01*
X122350000Y-83050000D01*
G75*
G02*
X122450000Y-83150000I0J-100000D01*
G01*
X122450000Y-84525000D01*
G75*
G02*
X122350000Y-84625000I-100000J0D01*
G01*
X122150000Y-84625000D01*
G75*
G02*
X122050000Y-84525000I0J100000D01*
G01*
G37*
G36*
G01*
X122550000Y-84525000D02*
X122550000Y-83150000D01*
G75*
G02*
X122650000Y-83050000I100000J0D01*
G01*
X122850000Y-83050000D01*
G75*
G02*
X122950000Y-83150000I0J-100000D01*
G01*
X122950000Y-84525000D01*
G75*
G02*
X122850000Y-84625000I-100000J0D01*
G01*
X122650000Y-84625000D01*
G75*
G02*
X122550000Y-84525000I0J100000D01*
G01*
G37*
G36*
G01*
X123050000Y-84525000D02*
X123050000Y-83150000D01*
G75*
G02*
X123150000Y-83050000I100000J0D01*
G01*
X123350000Y-83050000D01*
G75*
G02*
X123450000Y-83150000I0J-100000D01*
G01*
X123450000Y-84525000D01*
G75*
G02*
X123350000Y-84625000I-100000J0D01*
G01*
X123150000Y-84625000D01*
G75*
G02*
X123050000Y-84525000I0J100000D01*
G01*
G37*
G36*
G01*
X123550000Y-84525000D02*
X123550000Y-83150000D01*
G75*
G02*
X123650000Y-83050000I100000J0D01*
G01*
X123850000Y-83050000D01*
G75*
G02*
X123950000Y-83150000I0J-100000D01*
G01*
X123950000Y-84525000D01*
G75*
G02*
X123850000Y-84625000I-100000J0D01*
G01*
X123650000Y-84625000D01*
G75*
G02*
X123550000Y-84525000I0J100000D01*
G01*
G37*
G36*
G01*
X124050000Y-84525000D02*
X124050000Y-83150000D01*
G75*
G02*
X124150000Y-83050000I100000J0D01*
G01*
X124350000Y-83050000D01*
G75*
G02*
X124450000Y-83150000I0J-100000D01*
G01*
X124450000Y-84525000D01*
G75*
G02*
X124350000Y-84625000I-100000J0D01*
G01*
X124150000Y-84625000D01*
G75*
G02*
X124050000Y-84525000I0J100000D01*
G01*
G37*
G36*
G01*
X124550000Y-84525000D02*
X124550000Y-83150000D01*
G75*
G02*
X124650000Y-83050000I100000J0D01*
G01*
X124850000Y-83050000D01*
G75*
G02*
X124950000Y-83150000I0J-100000D01*
G01*
X124950000Y-84525000D01*
G75*
G02*
X124850000Y-84625000I-100000J0D01*
G01*
X124650000Y-84625000D01*
G75*
G02*
X124550000Y-84525000I0J100000D01*
G01*
G37*
G36*
G01*
X125050000Y-84525000D02*
X125050000Y-83150000D01*
G75*
G02*
X125150000Y-83050000I100000J0D01*
G01*
X125350000Y-83050000D01*
G75*
G02*
X125450000Y-83150000I0J-100000D01*
G01*
X125450000Y-84525000D01*
G75*
G02*
X125350000Y-84625000I-100000J0D01*
G01*
X125150000Y-84625000D01*
G75*
G02*
X125050000Y-84525000I0J100000D01*
G01*
G37*
G36*
G01*
X125550000Y-84525000D02*
X125550000Y-83150000D01*
G75*
G02*
X125650000Y-83050000I100000J0D01*
G01*
X125850000Y-83050000D01*
G75*
G02*
X125950000Y-83150000I0J-100000D01*
G01*
X125950000Y-84525000D01*
G75*
G02*
X125850000Y-84625000I-100000J0D01*
G01*
X125650000Y-84625000D01*
G75*
G02*
X125550000Y-84525000I0J100000D01*
G01*
G37*
G36*
G01*
X126050000Y-84525000D02*
X126050000Y-83150000D01*
G75*
G02*
X126150000Y-83050000I100000J0D01*
G01*
X126350000Y-83050000D01*
G75*
G02*
X126450000Y-83150000I0J-100000D01*
G01*
X126450000Y-84525000D01*
G75*
G02*
X126350000Y-84625000I-100000J0D01*
G01*
X126150000Y-84625000D01*
G75*
G02*
X126050000Y-84525000I0J100000D01*
G01*
G37*
G36*
G01*
X126550000Y-84525000D02*
X126550000Y-83150000D01*
G75*
G02*
X126650000Y-83050000I100000J0D01*
G01*
X126850000Y-83050000D01*
G75*
G02*
X126950000Y-83150000I0J-100000D01*
G01*
X126950000Y-84525000D01*
G75*
G02*
X126850000Y-84625000I-100000J0D01*
G01*
X126650000Y-84625000D01*
G75*
G02*
X126550000Y-84525000I0J100000D01*
G01*
G37*
G36*
G01*
X127375000Y-85350000D02*
X127375000Y-85150000D01*
G75*
G02*
X127475000Y-85050000I100000J0D01*
G01*
X128850000Y-85050000D01*
G75*
G02*
X128950000Y-85150000I0J-100000D01*
G01*
X128950000Y-85350000D01*
G75*
G02*
X128850000Y-85450000I-100000J0D01*
G01*
X127475000Y-85450000D01*
G75*
G02*
X127375000Y-85350000I0J100000D01*
G01*
G37*
G36*
G01*
X127375000Y-85850000D02*
X127375000Y-85650000D01*
G75*
G02*
X127475000Y-85550000I100000J0D01*
G01*
X128850000Y-85550000D01*
G75*
G02*
X128950000Y-85650000I0J-100000D01*
G01*
X128950000Y-85850000D01*
G75*
G02*
X128850000Y-85950000I-100000J0D01*
G01*
X127475000Y-85950000D01*
G75*
G02*
X127375000Y-85850000I0J100000D01*
G01*
G37*
G36*
G01*
X127375000Y-86350000D02*
X127375000Y-86150000D01*
G75*
G02*
X127475000Y-86050000I100000J0D01*
G01*
X128850000Y-86050000D01*
G75*
G02*
X128950000Y-86150000I0J-100000D01*
G01*
X128950000Y-86350000D01*
G75*
G02*
X128850000Y-86450000I-100000J0D01*
G01*
X127475000Y-86450000D01*
G75*
G02*
X127375000Y-86350000I0J100000D01*
G01*
G37*
G36*
G01*
X127375000Y-86850000D02*
X127375000Y-86650000D01*
G75*
G02*
X127475000Y-86550000I100000J0D01*
G01*
X128850000Y-86550000D01*
G75*
G02*
X128950000Y-86650000I0J-100000D01*
G01*
X128950000Y-86850000D01*
G75*
G02*
X128850000Y-86950000I-100000J0D01*
G01*
X127475000Y-86950000D01*
G75*
G02*
X127375000Y-86850000I0J100000D01*
G01*
G37*
G36*
G01*
X127375000Y-87350000D02*
X127375000Y-87150000D01*
G75*
G02*
X127475000Y-87050000I100000J0D01*
G01*
X128850000Y-87050000D01*
G75*
G02*
X128950000Y-87150000I0J-100000D01*
G01*
X128950000Y-87350000D01*
G75*
G02*
X128850000Y-87450000I-100000J0D01*
G01*
X127475000Y-87450000D01*
G75*
G02*
X127375000Y-87350000I0J100000D01*
G01*
G37*
G36*
G01*
X127375000Y-87850000D02*
X127375000Y-87650000D01*
G75*
G02*
X127475000Y-87550000I100000J0D01*
G01*
X128850000Y-87550000D01*
G75*
G02*
X128950000Y-87650000I0J-100000D01*
G01*
X128950000Y-87850000D01*
G75*
G02*
X128850000Y-87950000I-100000J0D01*
G01*
X127475000Y-87950000D01*
G75*
G02*
X127375000Y-87850000I0J100000D01*
G01*
G37*
G36*
G01*
X127375000Y-88350000D02*
X127375000Y-88150000D01*
G75*
G02*
X127475000Y-88050000I100000J0D01*
G01*
X128850000Y-88050000D01*
G75*
G02*
X128950000Y-88150000I0J-100000D01*
G01*
X128950000Y-88350000D01*
G75*
G02*
X128850000Y-88450000I-100000J0D01*
G01*
X127475000Y-88450000D01*
G75*
G02*
X127375000Y-88350000I0J100000D01*
G01*
G37*
G36*
G01*
X127375000Y-88850000D02*
X127375000Y-88650000D01*
G75*
G02*
X127475000Y-88550000I100000J0D01*
G01*
X128850000Y-88550000D01*
G75*
G02*
X128950000Y-88650000I0J-100000D01*
G01*
X128950000Y-88850000D01*
G75*
G02*
X128850000Y-88950000I-100000J0D01*
G01*
X127475000Y-88950000D01*
G75*
G02*
X127375000Y-88850000I0J100000D01*
G01*
G37*
G36*
G01*
X127375000Y-89350000D02*
X127375000Y-89150000D01*
G75*
G02*
X127475000Y-89050000I100000J0D01*
G01*
X128850000Y-89050000D01*
G75*
G02*
X128950000Y-89150000I0J-100000D01*
G01*
X128950000Y-89350000D01*
G75*
G02*
X128850000Y-89450000I-100000J0D01*
G01*
X127475000Y-89450000D01*
G75*
G02*
X127375000Y-89350000I0J100000D01*
G01*
G37*
G36*
G01*
X127375000Y-89850000D02*
X127375000Y-89650000D01*
G75*
G02*
X127475000Y-89550000I100000J0D01*
G01*
X128850000Y-89550000D01*
G75*
G02*
X128950000Y-89650000I0J-100000D01*
G01*
X128950000Y-89850000D01*
G75*
G02*
X128850000Y-89950000I-100000J0D01*
G01*
X127475000Y-89950000D01*
G75*
G02*
X127375000Y-89850000I0J100000D01*
G01*
G37*
G36*
G01*
X127375000Y-90350000D02*
X127375000Y-90150000D01*
G75*
G02*
X127475000Y-90050000I100000J0D01*
G01*
X128850000Y-90050000D01*
G75*
G02*
X128950000Y-90150000I0J-100000D01*
G01*
X128950000Y-90350000D01*
G75*
G02*
X128850000Y-90450000I-100000J0D01*
G01*
X127475000Y-90450000D01*
G75*
G02*
X127375000Y-90350000I0J100000D01*
G01*
G37*
G36*
G01*
X127375000Y-90850000D02*
X127375000Y-90650000D01*
G75*
G02*
X127475000Y-90550000I100000J0D01*
G01*
X128850000Y-90550000D01*
G75*
G02*
X128950000Y-90650000I0J-100000D01*
G01*
X128950000Y-90850000D01*
G75*
G02*
X128850000Y-90950000I-100000J0D01*
G01*
X127475000Y-90950000D01*
G75*
G02*
X127375000Y-90850000I0J100000D01*
G01*
G37*
G36*
G01*
X126550000Y-92850000D02*
X126550000Y-91475000D01*
G75*
G02*
X126650000Y-91375000I100000J0D01*
G01*
X126850000Y-91375000D01*
G75*
G02*
X126950000Y-91475000I0J-100000D01*
G01*
X126950000Y-92850000D01*
G75*
G02*
X126850000Y-92950000I-100000J0D01*
G01*
X126650000Y-92950000D01*
G75*
G02*
X126550000Y-92850000I0J100000D01*
G01*
G37*
G36*
G01*
X126050000Y-92850000D02*
X126050000Y-91475000D01*
G75*
G02*
X126150000Y-91375000I100000J0D01*
G01*
X126350000Y-91375000D01*
G75*
G02*
X126450000Y-91475000I0J-100000D01*
G01*
X126450000Y-92850000D01*
G75*
G02*
X126350000Y-92950000I-100000J0D01*
G01*
X126150000Y-92950000D01*
G75*
G02*
X126050000Y-92850000I0J100000D01*
G01*
G37*
G36*
G01*
X125550000Y-92850000D02*
X125550000Y-91475000D01*
G75*
G02*
X125650000Y-91375000I100000J0D01*
G01*
X125850000Y-91375000D01*
G75*
G02*
X125950000Y-91475000I0J-100000D01*
G01*
X125950000Y-92850000D01*
G75*
G02*
X125850000Y-92950000I-100000J0D01*
G01*
X125650000Y-92950000D01*
G75*
G02*
X125550000Y-92850000I0J100000D01*
G01*
G37*
G36*
G01*
X125050000Y-92850000D02*
X125050000Y-91475000D01*
G75*
G02*
X125150000Y-91375000I100000J0D01*
G01*
X125350000Y-91375000D01*
G75*
G02*
X125450000Y-91475000I0J-100000D01*
G01*
X125450000Y-92850000D01*
G75*
G02*
X125350000Y-92950000I-100000J0D01*
G01*
X125150000Y-92950000D01*
G75*
G02*
X125050000Y-92850000I0J100000D01*
G01*
G37*
G36*
G01*
X124550000Y-92850000D02*
X124550000Y-91475000D01*
G75*
G02*
X124650000Y-91375000I100000J0D01*
G01*
X124850000Y-91375000D01*
G75*
G02*
X124950000Y-91475000I0J-100000D01*
G01*
X124950000Y-92850000D01*
G75*
G02*
X124850000Y-92950000I-100000J0D01*
G01*
X124650000Y-92950000D01*
G75*
G02*
X124550000Y-92850000I0J100000D01*
G01*
G37*
G36*
G01*
X124050000Y-92850000D02*
X124050000Y-91475000D01*
G75*
G02*
X124150000Y-91375000I100000J0D01*
G01*
X124350000Y-91375000D01*
G75*
G02*
X124450000Y-91475000I0J-100000D01*
G01*
X124450000Y-92850000D01*
G75*
G02*
X124350000Y-92950000I-100000J0D01*
G01*
X124150000Y-92950000D01*
G75*
G02*
X124050000Y-92850000I0J100000D01*
G01*
G37*
G36*
G01*
X123550000Y-92850000D02*
X123550000Y-91475000D01*
G75*
G02*
X123650000Y-91375000I100000J0D01*
G01*
X123850000Y-91375000D01*
G75*
G02*
X123950000Y-91475000I0J-100000D01*
G01*
X123950000Y-92850000D01*
G75*
G02*
X123850000Y-92950000I-100000J0D01*
G01*
X123650000Y-92950000D01*
G75*
G02*
X123550000Y-92850000I0J100000D01*
G01*
G37*
G36*
G01*
X123050000Y-92850000D02*
X123050000Y-91475000D01*
G75*
G02*
X123150000Y-91375000I100000J0D01*
G01*
X123350000Y-91375000D01*
G75*
G02*
X123450000Y-91475000I0J-100000D01*
G01*
X123450000Y-92850000D01*
G75*
G02*
X123350000Y-92950000I-100000J0D01*
G01*
X123150000Y-92950000D01*
G75*
G02*
X123050000Y-92850000I0J100000D01*
G01*
G37*
G36*
G01*
X122550000Y-92850000D02*
X122550000Y-91475000D01*
G75*
G02*
X122650000Y-91375000I100000J0D01*
G01*
X122850000Y-91375000D01*
G75*
G02*
X122950000Y-91475000I0J-100000D01*
G01*
X122950000Y-92850000D01*
G75*
G02*
X122850000Y-92950000I-100000J0D01*
G01*
X122650000Y-92950000D01*
G75*
G02*
X122550000Y-92850000I0J100000D01*
G01*
G37*
G36*
G01*
X122050000Y-92850000D02*
X122050000Y-91475000D01*
G75*
G02*
X122150000Y-91375000I100000J0D01*
G01*
X122350000Y-91375000D01*
G75*
G02*
X122450000Y-91475000I0J-100000D01*
G01*
X122450000Y-92850000D01*
G75*
G02*
X122350000Y-92950000I-100000J0D01*
G01*
X122150000Y-92950000D01*
G75*
G02*
X122050000Y-92850000I0J100000D01*
G01*
G37*
G36*
G01*
X121550000Y-92850000D02*
X121550000Y-91475000D01*
G75*
G02*
X121650000Y-91375000I100000J0D01*
G01*
X121850000Y-91375000D01*
G75*
G02*
X121950000Y-91475000I0J-100000D01*
G01*
X121950000Y-92850000D01*
G75*
G02*
X121850000Y-92950000I-100000J0D01*
G01*
X121650000Y-92950000D01*
G75*
G02*
X121550000Y-92850000I0J100000D01*
G01*
G37*
G36*
G01*
X121050000Y-92850000D02*
X121050000Y-91475000D01*
G75*
G02*
X121150000Y-91375000I100000J0D01*
G01*
X121350000Y-91375000D01*
G75*
G02*
X121450000Y-91475000I0J-100000D01*
G01*
X121450000Y-92850000D01*
G75*
G02*
X121350000Y-92950000I-100000J0D01*
G01*
X121150000Y-92950000D01*
G75*
G02*
X121050000Y-92850000I0J100000D01*
G01*
G37*
G36*
G01*
X119050000Y-90850000D02*
X119050000Y-90650000D01*
G75*
G02*
X119150000Y-90550000I100000J0D01*
G01*
X120525000Y-90550000D01*
G75*
G02*
X120625000Y-90650000I0J-100000D01*
G01*
X120625000Y-90850000D01*
G75*
G02*
X120525000Y-90950000I-100000J0D01*
G01*
X119150000Y-90950000D01*
G75*
G02*
X119050000Y-90850000I0J100000D01*
G01*
G37*
G36*
G01*
X119050000Y-90350000D02*
X119050000Y-90150000D01*
G75*
G02*
X119150000Y-90050000I100000J0D01*
G01*
X120525000Y-90050000D01*
G75*
G02*
X120625000Y-90150000I0J-100000D01*
G01*
X120625000Y-90350000D01*
G75*
G02*
X120525000Y-90450000I-100000J0D01*
G01*
X119150000Y-90450000D01*
G75*
G02*
X119050000Y-90350000I0J100000D01*
G01*
G37*
G36*
G01*
X119050000Y-89850000D02*
X119050000Y-89650000D01*
G75*
G02*
X119150000Y-89550000I100000J0D01*
G01*
X120525000Y-89550000D01*
G75*
G02*
X120625000Y-89650000I0J-100000D01*
G01*
X120625000Y-89850000D01*
G75*
G02*
X120525000Y-89950000I-100000J0D01*
G01*
X119150000Y-89950000D01*
G75*
G02*
X119050000Y-89850000I0J100000D01*
G01*
G37*
G36*
G01*
X119050000Y-89350000D02*
X119050000Y-89150000D01*
G75*
G02*
X119150000Y-89050000I100000J0D01*
G01*
X120525000Y-89050000D01*
G75*
G02*
X120625000Y-89150000I0J-100000D01*
G01*
X120625000Y-89350000D01*
G75*
G02*
X120525000Y-89450000I-100000J0D01*
G01*
X119150000Y-89450000D01*
G75*
G02*
X119050000Y-89350000I0J100000D01*
G01*
G37*
G36*
G01*
X119050000Y-88850000D02*
X119050000Y-88650000D01*
G75*
G02*
X119150000Y-88550000I100000J0D01*
G01*
X120525000Y-88550000D01*
G75*
G02*
X120625000Y-88650000I0J-100000D01*
G01*
X120625000Y-88850000D01*
G75*
G02*
X120525000Y-88950000I-100000J0D01*
G01*
X119150000Y-88950000D01*
G75*
G02*
X119050000Y-88850000I0J100000D01*
G01*
G37*
G36*
G01*
X119050000Y-88350000D02*
X119050000Y-88150000D01*
G75*
G02*
X119150000Y-88050000I100000J0D01*
G01*
X120525000Y-88050000D01*
G75*
G02*
X120625000Y-88150000I0J-100000D01*
G01*
X120625000Y-88350000D01*
G75*
G02*
X120525000Y-88450000I-100000J0D01*
G01*
X119150000Y-88450000D01*
G75*
G02*
X119050000Y-88350000I0J100000D01*
G01*
G37*
G36*
G01*
X119050000Y-87850000D02*
X119050000Y-87650000D01*
G75*
G02*
X119150000Y-87550000I100000J0D01*
G01*
X120525000Y-87550000D01*
G75*
G02*
X120625000Y-87650000I0J-100000D01*
G01*
X120625000Y-87850000D01*
G75*
G02*
X120525000Y-87950000I-100000J0D01*
G01*
X119150000Y-87950000D01*
G75*
G02*
X119050000Y-87850000I0J100000D01*
G01*
G37*
G36*
G01*
X119050000Y-87350000D02*
X119050000Y-87150000D01*
G75*
G02*
X119150000Y-87050000I100000J0D01*
G01*
X120525000Y-87050000D01*
G75*
G02*
X120625000Y-87150000I0J-100000D01*
G01*
X120625000Y-87350000D01*
G75*
G02*
X120525000Y-87450000I-100000J0D01*
G01*
X119150000Y-87450000D01*
G75*
G02*
X119050000Y-87350000I0J100000D01*
G01*
G37*
G36*
G01*
X119050000Y-86850000D02*
X119050000Y-86650000D01*
G75*
G02*
X119150000Y-86550000I100000J0D01*
G01*
X120525000Y-86550000D01*
G75*
G02*
X120625000Y-86650000I0J-100000D01*
G01*
X120625000Y-86850000D01*
G75*
G02*
X120525000Y-86950000I-100000J0D01*
G01*
X119150000Y-86950000D01*
G75*
G02*
X119050000Y-86850000I0J100000D01*
G01*
G37*
G36*
G01*
X119050000Y-86350000D02*
X119050000Y-86150000D01*
G75*
G02*
X119150000Y-86050000I100000J0D01*
G01*
X120525000Y-86050000D01*
G75*
G02*
X120625000Y-86150000I0J-100000D01*
G01*
X120625000Y-86350000D01*
G75*
G02*
X120525000Y-86450000I-100000J0D01*
G01*
X119150000Y-86450000D01*
G75*
G02*
X119050000Y-86350000I0J100000D01*
G01*
G37*
G36*
G01*
X119050000Y-85850000D02*
X119050000Y-85650000D01*
G75*
G02*
X119150000Y-85550000I100000J0D01*
G01*
X120525000Y-85550000D01*
G75*
G02*
X120625000Y-85650000I0J-100000D01*
G01*
X120625000Y-85850000D01*
G75*
G02*
X120525000Y-85950000I-100000J0D01*
G01*
X119150000Y-85950000D01*
G75*
G02*
X119050000Y-85850000I0J100000D01*
G01*
G37*
G36*
G01*
X119050000Y-85350000D02*
X119050000Y-85150000D01*
G75*
G02*
X119150000Y-85050000I100000J0D01*
G01*
X120525000Y-85050000D01*
G75*
G02*
X120625000Y-85150000I0J-100000D01*
G01*
X120625000Y-85350000D01*
G75*
G02*
X120525000Y-85450000I-100000J0D01*
G01*
X119150000Y-85450000D01*
G75*
G02*
X119050000Y-85350000I0J100000D01*
G01*
G37*
%TD*%
D14*
%TO.C,J1*%
X133455000Y-86750000D03*
X133455000Y-87550000D03*
X133455000Y-92450000D03*
X133455000Y-93250000D03*
X133455000Y-93250000D03*
X133455000Y-92450000D03*
X133455000Y-87550000D03*
X133455000Y-86750000D03*
D15*
X133455000Y-91750000D03*
X133455000Y-91250000D03*
X133455000Y-90750000D03*
X133455000Y-89750000D03*
X133455000Y-89250000D03*
X133455000Y-88750000D03*
X133455000Y-88250000D03*
X133455000Y-90250000D03*
D16*
X134370000Y-85680000D03*
X134370000Y-94320000D03*
D17*
X134900000Y-92890000D03*
D18*
X138550000Y-94320000D03*
D17*
X134900000Y-87110000D03*
D18*
X138550000Y-85680000D03*
%TD*%
M02*
