%TF.GenerationSoftware,KiCad,Pcbnew,5.1.6+dfsg1-1*%
%TF.CreationDate,2020-06-28T19:58:20+08:00*%
%TF.ProjectId,stlink,73746c69-6e6b-42e6-9b69-6361645f7063,rev?*%
%TF.SameCoordinates,Original*%
%TF.FileFunction,Paste,Top*%
%TF.FilePolarity,Positive*%
%FSLAX46Y46*%
G04 Gerber Fmt 4.6, Leading zero omitted, Abs format (unit mm)*
G04 Created by KiCad (PCBNEW 5.1.6+dfsg1-1) date 2020-06-28 19:58:20*
%MOMM*%
%LPD*%
G01*
G04 APERTURE LIST*
%ADD10R,2.400000X2.000000*%
%ADD11R,2.540000X1.524000*%
%ADD12R,0.900000X1.200000*%
%ADD13R,0.900000X0.800000*%
%ADD14R,1.450000X0.600000*%
%ADD15R,1.450000X0.300000*%
G04 APERTURE END LIST*
%TO.C,R7*%
G36*
G01*
X135190000Y-83672500D02*
X135190000Y-83327500D01*
G75*
G02*
X135337500Y-83180000I147500J0D01*
G01*
X135632500Y-83180000D01*
G75*
G02*
X135780000Y-83327500I0J-147500D01*
G01*
X135780000Y-83672500D01*
G75*
G02*
X135632500Y-83820000I-147500J0D01*
G01*
X135337500Y-83820000D01*
G75*
G02*
X135190000Y-83672500I0J147500D01*
G01*
G37*
G36*
G01*
X134220000Y-83672500D02*
X134220000Y-83327500D01*
G75*
G02*
X134367500Y-83180000I147500J0D01*
G01*
X134662500Y-83180000D01*
G75*
G02*
X134810000Y-83327500I0J-147500D01*
G01*
X134810000Y-83672500D01*
G75*
G02*
X134662500Y-83820000I-147500J0D01*
G01*
X134367500Y-83820000D01*
G75*
G02*
X134220000Y-83672500I0J147500D01*
G01*
G37*
%TD*%
%TO.C,R6*%
G36*
G01*
X134810000Y-96327500D02*
X134810000Y-96672500D01*
G75*
G02*
X134662500Y-96820000I-147500J0D01*
G01*
X134367500Y-96820000D01*
G75*
G02*
X134220000Y-96672500I0J147500D01*
G01*
X134220000Y-96327500D01*
G75*
G02*
X134367500Y-96180000I147500J0D01*
G01*
X134662500Y-96180000D01*
G75*
G02*
X134810000Y-96327500I0J-147500D01*
G01*
G37*
G36*
G01*
X135780000Y-96327500D02*
X135780000Y-96672500D01*
G75*
G02*
X135632500Y-96820000I-147500J0D01*
G01*
X135337500Y-96820000D01*
G75*
G02*
X135190000Y-96672500I0J147500D01*
G01*
X135190000Y-96327500D01*
G75*
G02*
X135337500Y-96180000I147500J0D01*
G01*
X135632500Y-96180000D01*
G75*
G02*
X135780000Y-96327500I0J-147500D01*
G01*
G37*
%TD*%
%TO.C,D3*%
G36*
G01*
X138350000Y-83756250D02*
X138350000Y-83243750D01*
G75*
G02*
X138568750Y-83025000I218750J0D01*
G01*
X139006250Y-83025000D01*
G75*
G02*
X139225000Y-83243750I0J-218750D01*
G01*
X139225000Y-83756250D01*
G75*
G02*
X139006250Y-83975000I-218750J0D01*
G01*
X138568750Y-83975000D01*
G75*
G02*
X138350000Y-83756250I0J218750D01*
G01*
G37*
G36*
G01*
X136775000Y-83756250D02*
X136775000Y-83243750D01*
G75*
G02*
X136993750Y-83025000I218750J0D01*
G01*
X137431250Y-83025000D01*
G75*
G02*
X137650000Y-83243750I0J-218750D01*
G01*
X137650000Y-83756250D01*
G75*
G02*
X137431250Y-83975000I-218750J0D01*
G01*
X136993750Y-83975000D01*
G75*
G02*
X136775000Y-83756250I0J218750D01*
G01*
G37*
%TD*%
%TO.C,D2*%
G36*
G01*
X137650000Y-96243750D02*
X137650000Y-96756250D01*
G75*
G02*
X137431250Y-96975000I-218750J0D01*
G01*
X136993750Y-96975000D01*
G75*
G02*
X136775000Y-96756250I0J218750D01*
G01*
X136775000Y-96243750D01*
G75*
G02*
X136993750Y-96025000I218750J0D01*
G01*
X137431250Y-96025000D01*
G75*
G02*
X137650000Y-96243750I0J-218750D01*
G01*
G37*
G36*
G01*
X139225000Y-96243750D02*
X139225000Y-96756250D01*
G75*
G02*
X139006250Y-96975000I-218750J0D01*
G01*
X138568750Y-96975000D01*
G75*
G02*
X138350000Y-96756250I0J218750D01*
G01*
X138350000Y-96243750D01*
G75*
G02*
X138568750Y-96025000I218750J0D01*
G01*
X139006250Y-96025000D01*
G75*
G02*
X139225000Y-96243750I0J-218750D01*
G01*
G37*
%TD*%
D10*
%TO.C,Y1*%
X116500000Y-89850000D03*
X116500000Y-86150000D03*
%TD*%
%TO.C,C8*%
G36*
G01*
X116310000Y-91827500D02*
X116310000Y-92172500D01*
G75*
G02*
X116162500Y-92320000I-147500J0D01*
G01*
X115867500Y-92320000D01*
G75*
G02*
X115720000Y-92172500I0J147500D01*
G01*
X115720000Y-91827500D01*
G75*
G02*
X115867500Y-91680000I147500J0D01*
G01*
X116162500Y-91680000D01*
G75*
G02*
X116310000Y-91827500I0J-147500D01*
G01*
G37*
G36*
G01*
X117280000Y-91827500D02*
X117280000Y-92172500D01*
G75*
G02*
X117132500Y-92320000I-147500J0D01*
G01*
X116837500Y-92320000D01*
G75*
G02*
X116690000Y-92172500I0J147500D01*
G01*
X116690000Y-91827500D01*
G75*
G02*
X116837500Y-91680000I147500J0D01*
G01*
X117132500Y-91680000D01*
G75*
G02*
X117280000Y-91827500I0J-147500D01*
G01*
G37*
%TD*%
%TO.C,C7*%
G36*
G01*
X116310000Y-83827500D02*
X116310000Y-84172500D01*
G75*
G02*
X116162500Y-84320000I-147500J0D01*
G01*
X115867500Y-84320000D01*
G75*
G02*
X115720000Y-84172500I0J147500D01*
G01*
X115720000Y-83827500D01*
G75*
G02*
X115867500Y-83680000I147500J0D01*
G01*
X116162500Y-83680000D01*
G75*
G02*
X116310000Y-83827500I0J-147500D01*
G01*
G37*
G36*
G01*
X117280000Y-83827500D02*
X117280000Y-84172500D01*
G75*
G02*
X117132500Y-84320000I-147500J0D01*
G01*
X116837500Y-84320000D01*
G75*
G02*
X116690000Y-84172500I0J147500D01*
G01*
X116690000Y-83827500D01*
G75*
G02*
X116837500Y-83680000I147500J0D01*
G01*
X117132500Y-83680000D01*
G75*
G02*
X117280000Y-83827500I0J-147500D01*
G01*
G37*
%TD*%
D11*
%TO.C,J2*%
X111500000Y-84840000D03*
X111500000Y-87380000D03*
X111500000Y-89920000D03*
X111500000Y-92460000D03*
X111500000Y-95000000D03*
%TD*%
%TO.C,R5*%
G36*
G01*
X131190000Y-87167500D02*
X131190000Y-86822500D01*
G75*
G02*
X131337500Y-86675000I147500J0D01*
G01*
X131632500Y-86675000D01*
G75*
G02*
X131780000Y-86822500I0J-147500D01*
G01*
X131780000Y-87167500D01*
G75*
G02*
X131632500Y-87315000I-147500J0D01*
G01*
X131337500Y-87315000D01*
G75*
G02*
X131190000Y-87167500I0J147500D01*
G01*
G37*
G36*
G01*
X130220000Y-87167500D02*
X130220000Y-86822500D01*
G75*
G02*
X130367500Y-86675000I147500J0D01*
G01*
X130662500Y-86675000D01*
G75*
G02*
X130810000Y-86822500I0J-147500D01*
G01*
X130810000Y-87167500D01*
G75*
G02*
X130662500Y-87315000I-147500J0D01*
G01*
X130367500Y-87315000D01*
G75*
G02*
X130220000Y-87167500I0J147500D01*
G01*
G37*
%TD*%
%TO.C,R4*%
G36*
G01*
X131190000Y-93172500D02*
X131190000Y-92827500D01*
G75*
G02*
X131337500Y-92680000I147500J0D01*
G01*
X131632500Y-92680000D01*
G75*
G02*
X131780000Y-92827500I0J-147500D01*
G01*
X131780000Y-93172500D01*
G75*
G02*
X131632500Y-93320000I-147500J0D01*
G01*
X131337500Y-93320000D01*
G75*
G02*
X131190000Y-93172500I0J147500D01*
G01*
G37*
G36*
G01*
X130220000Y-93172500D02*
X130220000Y-92827500D01*
G75*
G02*
X130367500Y-92680000I147500J0D01*
G01*
X130662500Y-92680000D01*
G75*
G02*
X130810000Y-92827500I0J-147500D01*
G01*
X130810000Y-93172500D01*
G75*
G02*
X130662500Y-93320000I-147500J0D01*
G01*
X130367500Y-93320000D01*
G75*
G02*
X130220000Y-93172500I0J147500D01*
G01*
G37*
%TD*%
%TO.C,C6*%
G36*
G01*
X119690000Y-92672500D02*
X119690000Y-92327500D01*
G75*
G02*
X119837500Y-92180000I147500J0D01*
G01*
X120132500Y-92180000D01*
G75*
G02*
X120280000Y-92327500I0J-147500D01*
G01*
X120280000Y-92672500D01*
G75*
G02*
X120132500Y-92820000I-147500J0D01*
G01*
X119837500Y-92820000D01*
G75*
G02*
X119690000Y-92672500I0J147500D01*
G01*
G37*
G36*
G01*
X118720000Y-92672500D02*
X118720000Y-92327500D01*
G75*
G02*
X118867500Y-92180000I147500J0D01*
G01*
X119162500Y-92180000D01*
G75*
G02*
X119310000Y-92327500I0J-147500D01*
G01*
X119310000Y-92672500D01*
G75*
G02*
X119162500Y-92820000I-147500J0D01*
G01*
X118867500Y-92820000D01*
G75*
G02*
X118720000Y-92672500I0J147500D01*
G01*
G37*
%TD*%
%TO.C,C5*%
G36*
G01*
X128690000Y-92672500D02*
X128690000Y-92327500D01*
G75*
G02*
X128837500Y-92180000I147500J0D01*
G01*
X129132500Y-92180000D01*
G75*
G02*
X129280000Y-92327500I0J-147500D01*
G01*
X129280000Y-92672500D01*
G75*
G02*
X129132500Y-92820000I-147500J0D01*
G01*
X128837500Y-92820000D01*
G75*
G02*
X128690000Y-92672500I0J147500D01*
G01*
G37*
G36*
G01*
X127720000Y-92672500D02*
X127720000Y-92327500D01*
G75*
G02*
X127867500Y-92180000I147500J0D01*
G01*
X128162500Y-92180000D01*
G75*
G02*
X128310000Y-92327500I0J-147500D01*
G01*
X128310000Y-92672500D01*
G75*
G02*
X128162500Y-92820000I-147500J0D01*
G01*
X127867500Y-92820000D01*
G75*
G02*
X127720000Y-92672500I0J147500D01*
G01*
G37*
%TD*%
%TO.C,C4*%
G36*
G01*
X128705000Y-83672500D02*
X128705000Y-83327500D01*
G75*
G02*
X128852500Y-83180000I147500J0D01*
G01*
X129147500Y-83180000D01*
G75*
G02*
X129295000Y-83327500I0J-147500D01*
G01*
X129295000Y-83672500D01*
G75*
G02*
X129147500Y-83820000I-147500J0D01*
G01*
X128852500Y-83820000D01*
G75*
G02*
X128705000Y-83672500I0J147500D01*
G01*
G37*
G36*
G01*
X127735000Y-83672500D02*
X127735000Y-83327500D01*
G75*
G02*
X127882500Y-83180000I147500J0D01*
G01*
X128177500Y-83180000D01*
G75*
G02*
X128325000Y-83327500I0J-147500D01*
G01*
X128325000Y-83672500D01*
G75*
G02*
X128177500Y-83820000I-147500J0D01*
G01*
X127882500Y-83820000D01*
G75*
G02*
X127735000Y-83672500I0J147500D01*
G01*
G37*
%TD*%
%TO.C,C3*%
G36*
G01*
X119310000Y-83327500D02*
X119310000Y-83672500D01*
G75*
G02*
X119162500Y-83820000I-147500J0D01*
G01*
X118867500Y-83820000D01*
G75*
G02*
X118720000Y-83672500I0J147500D01*
G01*
X118720000Y-83327500D01*
G75*
G02*
X118867500Y-83180000I147500J0D01*
G01*
X119162500Y-83180000D01*
G75*
G02*
X119310000Y-83327500I0J-147500D01*
G01*
G37*
G36*
G01*
X120280000Y-83327500D02*
X120280000Y-83672500D01*
G75*
G02*
X120132500Y-83820000I-147500J0D01*
G01*
X119837500Y-83820000D01*
G75*
G02*
X119690000Y-83672500I0J147500D01*
G01*
X119690000Y-83327500D01*
G75*
G02*
X119837500Y-83180000I147500J0D01*
G01*
X120132500Y-83180000D01*
G75*
G02*
X120280000Y-83327500I0J-147500D01*
G01*
G37*
%TD*%
%TO.C,R3*%
G36*
G01*
X131190000Y-91672500D02*
X131190000Y-91327500D01*
G75*
G02*
X131337500Y-91180000I147500J0D01*
G01*
X131632500Y-91180000D01*
G75*
G02*
X131780000Y-91327500I0J-147500D01*
G01*
X131780000Y-91672500D01*
G75*
G02*
X131632500Y-91820000I-147500J0D01*
G01*
X131337500Y-91820000D01*
G75*
G02*
X131190000Y-91672500I0J147500D01*
G01*
G37*
G36*
G01*
X130220000Y-91672500D02*
X130220000Y-91327500D01*
G75*
G02*
X130367500Y-91180000I147500J0D01*
G01*
X130662500Y-91180000D01*
G75*
G02*
X130810000Y-91327500I0J-147500D01*
G01*
X130810000Y-91672500D01*
G75*
G02*
X130662500Y-91820000I-147500J0D01*
G01*
X130367500Y-91820000D01*
G75*
G02*
X130220000Y-91672500I0J147500D01*
G01*
G37*
%TD*%
%TO.C,R2*%
G36*
G01*
X131190000Y-88672500D02*
X131190000Y-88327500D01*
G75*
G02*
X131337500Y-88180000I147500J0D01*
G01*
X131632500Y-88180000D01*
G75*
G02*
X131780000Y-88327500I0J-147500D01*
G01*
X131780000Y-88672500D01*
G75*
G02*
X131632500Y-88820000I-147500J0D01*
G01*
X131337500Y-88820000D01*
G75*
G02*
X131190000Y-88672500I0J147500D01*
G01*
G37*
G36*
G01*
X130220000Y-88672500D02*
X130220000Y-88327500D01*
G75*
G02*
X130367500Y-88180000I147500J0D01*
G01*
X130662500Y-88180000D01*
G75*
G02*
X130810000Y-88327500I0J-147500D01*
G01*
X130810000Y-88672500D01*
G75*
G02*
X130662500Y-88820000I-147500J0D01*
G01*
X130367500Y-88820000D01*
G75*
G02*
X130220000Y-88672500I0J147500D01*
G01*
G37*
%TD*%
%TO.C,R1*%
G36*
G01*
X131190000Y-90172500D02*
X131190000Y-89827500D01*
G75*
G02*
X131337500Y-89680000I147500J0D01*
G01*
X131632500Y-89680000D01*
G75*
G02*
X131780000Y-89827500I0J-147500D01*
G01*
X131780000Y-90172500D01*
G75*
G02*
X131632500Y-90320000I-147500J0D01*
G01*
X131337500Y-90320000D01*
G75*
G02*
X131190000Y-90172500I0J147500D01*
G01*
G37*
G36*
G01*
X130220000Y-90172500D02*
X130220000Y-89827500D01*
G75*
G02*
X130367500Y-89680000I147500J0D01*
G01*
X130662500Y-89680000D01*
G75*
G02*
X130810000Y-89827500I0J-147500D01*
G01*
X130810000Y-90172500D01*
G75*
G02*
X130662500Y-90320000I-147500J0D01*
G01*
X130367500Y-90320000D01*
G75*
G02*
X130220000Y-90172500I0J147500D01*
G01*
G37*
%TD*%
D12*
%TO.C,D1*%
X131150000Y-96000000D03*
X127850000Y-96000000D03*
%TD*%
%TO.C,C2*%
G36*
G01*
X120456250Y-95050000D02*
X119543750Y-95050000D01*
G75*
G02*
X119300000Y-94806250I0J243750D01*
G01*
X119300000Y-94318750D01*
G75*
G02*
X119543750Y-94075000I243750J0D01*
G01*
X120456250Y-94075000D01*
G75*
G02*
X120700000Y-94318750I0J-243750D01*
G01*
X120700000Y-94806250D01*
G75*
G02*
X120456250Y-95050000I-243750J0D01*
G01*
G37*
G36*
G01*
X120456250Y-96925000D02*
X119543750Y-96925000D01*
G75*
G02*
X119300000Y-96681250I0J243750D01*
G01*
X119300000Y-96193750D01*
G75*
G02*
X119543750Y-95950000I243750J0D01*
G01*
X120456250Y-95950000D01*
G75*
G02*
X120700000Y-96193750I0J-243750D01*
G01*
X120700000Y-96681250D01*
G75*
G02*
X120456250Y-96925000I-243750J0D01*
G01*
G37*
%TD*%
%TO.C,C1*%
G36*
G01*
X125543750Y-95950000D02*
X126456250Y-95950000D01*
G75*
G02*
X126700000Y-96193750I0J-243750D01*
G01*
X126700000Y-96681250D01*
G75*
G02*
X126456250Y-96925000I-243750J0D01*
G01*
X125543750Y-96925000D01*
G75*
G02*
X125300000Y-96681250I0J243750D01*
G01*
X125300000Y-96193750D01*
G75*
G02*
X125543750Y-95950000I243750J0D01*
G01*
G37*
G36*
G01*
X125543750Y-94075000D02*
X126456250Y-94075000D01*
G75*
G02*
X126700000Y-94318750I0J-243750D01*
G01*
X126700000Y-94806250D01*
G75*
G02*
X126456250Y-95050000I-243750J0D01*
G01*
X125543750Y-95050000D01*
G75*
G02*
X125300000Y-94806250I0J243750D01*
G01*
X125300000Y-94318750D01*
G75*
G02*
X125543750Y-94075000I243750J0D01*
G01*
G37*
%TD*%
D13*
%TO.C,U2*%
X124000000Y-95500000D03*
X122000000Y-96450000D03*
X122000000Y-94550000D03*
%TD*%
%TO.C,U1*%
G36*
G01*
X121100000Y-84500000D02*
X121100000Y-83175000D01*
G75*
G02*
X121175000Y-83100000I75000J0D01*
G01*
X121325000Y-83100000D01*
G75*
G02*
X121400000Y-83175000I0J-75000D01*
G01*
X121400000Y-84500000D01*
G75*
G02*
X121325000Y-84575000I-75000J0D01*
G01*
X121175000Y-84575000D01*
G75*
G02*
X121100000Y-84500000I0J75000D01*
G01*
G37*
G36*
G01*
X121600000Y-84500000D02*
X121600000Y-83175000D01*
G75*
G02*
X121675000Y-83100000I75000J0D01*
G01*
X121825000Y-83100000D01*
G75*
G02*
X121900000Y-83175000I0J-75000D01*
G01*
X121900000Y-84500000D01*
G75*
G02*
X121825000Y-84575000I-75000J0D01*
G01*
X121675000Y-84575000D01*
G75*
G02*
X121600000Y-84500000I0J75000D01*
G01*
G37*
G36*
G01*
X122100000Y-84500000D02*
X122100000Y-83175000D01*
G75*
G02*
X122175000Y-83100000I75000J0D01*
G01*
X122325000Y-83100000D01*
G75*
G02*
X122400000Y-83175000I0J-75000D01*
G01*
X122400000Y-84500000D01*
G75*
G02*
X122325000Y-84575000I-75000J0D01*
G01*
X122175000Y-84575000D01*
G75*
G02*
X122100000Y-84500000I0J75000D01*
G01*
G37*
G36*
G01*
X122600000Y-84500000D02*
X122600000Y-83175000D01*
G75*
G02*
X122675000Y-83100000I75000J0D01*
G01*
X122825000Y-83100000D01*
G75*
G02*
X122900000Y-83175000I0J-75000D01*
G01*
X122900000Y-84500000D01*
G75*
G02*
X122825000Y-84575000I-75000J0D01*
G01*
X122675000Y-84575000D01*
G75*
G02*
X122600000Y-84500000I0J75000D01*
G01*
G37*
G36*
G01*
X123100000Y-84500000D02*
X123100000Y-83175000D01*
G75*
G02*
X123175000Y-83100000I75000J0D01*
G01*
X123325000Y-83100000D01*
G75*
G02*
X123400000Y-83175000I0J-75000D01*
G01*
X123400000Y-84500000D01*
G75*
G02*
X123325000Y-84575000I-75000J0D01*
G01*
X123175000Y-84575000D01*
G75*
G02*
X123100000Y-84500000I0J75000D01*
G01*
G37*
G36*
G01*
X123600000Y-84500000D02*
X123600000Y-83175000D01*
G75*
G02*
X123675000Y-83100000I75000J0D01*
G01*
X123825000Y-83100000D01*
G75*
G02*
X123900000Y-83175000I0J-75000D01*
G01*
X123900000Y-84500000D01*
G75*
G02*
X123825000Y-84575000I-75000J0D01*
G01*
X123675000Y-84575000D01*
G75*
G02*
X123600000Y-84500000I0J75000D01*
G01*
G37*
G36*
G01*
X124100000Y-84500000D02*
X124100000Y-83175000D01*
G75*
G02*
X124175000Y-83100000I75000J0D01*
G01*
X124325000Y-83100000D01*
G75*
G02*
X124400000Y-83175000I0J-75000D01*
G01*
X124400000Y-84500000D01*
G75*
G02*
X124325000Y-84575000I-75000J0D01*
G01*
X124175000Y-84575000D01*
G75*
G02*
X124100000Y-84500000I0J75000D01*
G01*
G37*
G36*
G01*
X124600000Y-84500000D02*
X124600000Y-83175000D01*
G75*
G02*
X124675000Y-83100000I75000J0D01*
G01*
X124825000Y-83100000D01*
G75*
G02*
X124900000Y-83175000I0J-75000D01*
G01*
X124900000Y-84500000D01*
G75*
G02*
X124825000Y-84575000I-75000J0D01*
G01*
X124675000Y-84575000D01*
G75*
G02*
X124600000Y-84500000I0J75000D01*
G01*
G37*
G36*
G01*
X125100000Y-84500000D02*
X125100000Y-83175000D01*
G75*
G02*
X125175000Y-83100000I75000J0D01*
G01*
X125325000Y-83100000D01*
G75*
G02*
X125400000Y-83175000I0J-75000D01*
G01*
X125400000Y-84500000D01*
G75*
G02*
X125325000Y-84575000I-75000J0D01*
G01*
X125175000Y-84575000D01*
G75*
G02*
X125100000Y-84500000I0J75000D01*
G01*
G37*
G36*
G01*
X125600000Y-84500000D02*
X125600000Y-83175000D01*
G75*
G02*
X125675000Y-83100000I75000J0D01*
G01*
X125825000Y-83100000D01*
G75*
G02*
X125900000Y-83175000I0J-75000D01*
G01*
X125900000Y-84500000D01*
G75*
G02*
X125825000Y-84575000I-75000J0D01*
G01*
X125675000Y-84575000D01*
G75*
G02*
X125600000Y-84500000I0J75000D01*
G01*
G37*
G36*
G01*
X126100000Y-84500000D02*
X126100000Y-83175000D01*
G75*
G02*
X126175000Y-83100000I75000J0D01*
G01*
X126325000Y-83100000D01*
G75*
G02*
X126400000Y-83175000I0J-75000D01*
G01*
X126400000Y-84500000D01*
G75*
G02*
X126325000Y-84575000I-75000J0D01*
G01*
X126175000Y-84575000D01*
G75*
G02*
X126100000Y-84500000I0J75000D01*
G01*
G37*
G36*
G01*
X126600000Y-84500000D02*
X126600000Y-83175000D01*
G75*
G02*
X126675000Y-83100000I75000J0D01*
G01*
X126825000Y-83100000D01*
G75*
G02*
X126900000Y-83175000I0J-75000D01*
G01*
X126900000Y-84500000D01*
G75*
G02*
X126825000Y-84575000I-75000J0D01*
G01*
X126675000Y-84575000D01*
G75*
G02*
X126600000Y-84500000I0J75000D01*
G01*
G37*
G36*
G01*
X127425000Y-85325000D02*
X127425000Y-85175000D01*
G75*
G02*
X127500000Y-85100000I75000J0D01*
G01*
X128825000Y-85100000D01*
G75*
G02*
X128900000Y-85175000I0J-75000D01*
G01*
X128900000Y-85325000D01*
G75*
G02*
X128825000Y-85400000I-75000J0D01*
G01*
X127500000Y-85400000D01*
G75*
G02*
X127425000Y-85325000I0J75000D01*
G01*
G37*
G36*
G01*
X127425000Y-85825000D02*
X127425000Y-85675000D01*
G75*
G02*
X127500000Y-85600000I75000J0D01*
G01*
X128825000Y-85600000D01*
G75*
G02*
X128900000Y-85675000I0J-75000D01*
G01*
X128900000Y-85825000D01*
G75*
G02*
X128825000Y-85900000I-75000J0D01*
G01*
X127500000Y-85900000D01*
G75*
G02*
X127425000Y-85825000I0J75000D01*
G01*
G37*
G36*
G01*
X127425000Y-86325000D02*
X127425000Y-86175000D01*
G75*
G02*
X127500000Y-86100000I75000J0D01*
G01*
X128825000Y-86100000D01*
G75*
G02*
X128900000Y-86175000I0J-75000D01*
G01*
X128900000Y-86325000D01*
G75*
G02*
X128825000Y-86400000I-75000J0D01*
G01*
X127500000Y-86400000D01*
G75*
G02*
X127425000Y-86325000I0J75000D01*
G01*
G37*
G36*
G01*
X127425000Y-86825000D02*
X127425000Y-86675000D01*
G75*
G02*
X127500000Y-86600000I75000J0D01*
G01*
X128825000Y-86600000D01*
G75*
G02*
X128900000Y-86675000I0J-75000D01*
G01*
X128900000Y-86825000D01*
G75*
G02*
X128825000Y-86900000I-75000J0D01*
G01*
X127500000Y-86900000D01*
G75*
G02*
X127425000Y-86825000I0J75000D01*
G01*
G37*
G36*
G01*
X127425000Y-87325000D02*
X127425000Y-87175000D01*
G75*
G02*
X127500000Y-87100000I75000J0D01*
G01*
X128825000Y-87100000D01*
G75*
G02*
X128900000Y-87175000I0J-75000D01*
G01*
X128900000Y-87325000D01*
G75*
G02*
X128825000Y-87400000I-75000J0D01*
G01*
X127500000Y-87400000D01*
G75*
G02*
X127425000Y-87325000I0J75000D01*
G01*
G37*
G36*
G01*
X127425000Y-87825000D02*
X127425000Y-87675000D01*
G75*
G02*
X127500000Y-87600000I75000J0D01*
G01*
X128825000Y-87600000D01*
G75*
G02*
X128900000Y-87675000I0J-75000D01*
G01*
X128900000Y-87825000D01*
G75*
G02*
X128825000Y-87900000I-75000J0D01*
G01*
X127500000Y-87900000D01*
G75*
G02*
X127425000Y-87825000I0J75000D01*
G01*
G37*
G36*
G01*
X127425000Y-88325000D02*
X127425000Y-88175000D01*
G75*
G02*
X127500000Y-88100000I75000J0D01*
G01*
X128825000Y-88100000D01*
G75*
G02*
X128900000Y-88175000I0J-75000D01*
G01*
X128900000Y-88325000D01*
G75*
G02*
X128825000Y-88400000I-75000J0D01*
G01*
X127500000Y-88400000D01*
G75*
G02*
X127425000Y-88325000I0J75000D01*
G01*
G37*
G36*
G01*
X127425000Y-88825000D02*
X127425000Y-88675000D01*
G75*
G02*
X127500000Y-88600000I75000J0D01*
G01*
X128825000Y-88600000D01*
G75*
G02*
X128900000Y-88675000I0J-75000D01*
G01*
X128900000Y-88825000D01*
G75*
G02*
X128825000Y-88900000I-75000J0D01*
G01*
X127500000Y-88900000D01*
G75*
G02*
X127425000Y-88825000I0J75000D01*
G01*
G37*
G36*
G01*
X127425000Y-89325000D02*
X127425000Y-89175000D01*
G75*
G02*
X127500000Y-89100000I75000J0D01*
G01*
X128825000Y-89100000D01*
G75*
G02*
X128900000Y-89175000I0J-75000D01*
G01*
X128900000Y-89325000D01*
G75*
G02*
X128825000Y-89400000I-75000J0D01*
G01*
X127500000Y-89400000D01*
G75*
G02*
X127425000Y-89325000I0J75000D01*
G01*
G37*
G36*
G01*
X127425000Y-89825000D02*
X127425000Y-89675000D01*
G75*
G02*
X127500000Y-89600000I75000J0D01*
G01*
X128825000Y-89600000D01*
G75*
G02*
X128900000Y-89675000I0J-75000D01*
G01*
X128900000Y-89825000D01*
G75*
G02*
X128825000Y-89900000I-75000J0D01*
G01*
X127500000Y-89900000D01*
G75*
G02*
X127425000Y-89825000I0J75000D01*
G01*
G37*
G36*
G01*
X127425000Y-90325000D02*
X127425000Y-90175000D01*
G75*
G02*
X127500000Y-90100000I75000J0D01*
G01*
X128825000Y-90100000D01*
G75*
G02*
X128900000Y-90175000I0J-75000D01*
G01*
X128900000Y-90325000D01*
G75*
G02*
X128825000Y-90400000I-75000J0D01*
G01*
X127500000Y-90400000D01*
G75*
G02*
X127425000Y-90325000I0J75000D01*
G01*
G37*
G36*
G01*
X127425000Y-90825000D02*
X127425000Y-90675000D01*
G75*
G02*
X127500000Y-90600000I75000J0D01*
G01*
X128825000Y-90600000D01*
G75*
G02*
X128900000Y-90675000I0J-75000D01*
G01*
X128900000Y-90825000D01*
G75*
G02*
X128825000Y-90900000I-75000J0D01*
G01*
X127500000Y-90900000D01*
G75*
G02*
X127425000Y-90825000I0J75000D01*
G01*
G37*
G36*
G01*
X126600000Y-92825000D02*
X126600000Y-91500000D01*
G75*
G02*
X126675000Y-91425000I75000J0D01*
G01*
X126825000Y-91425000D01*
G75*
G02*
X126900000Y-91500000I0J-75000D01*
G01*
X126900000Y-92825000D01*
G75*
G02*
X126825000Y-92900000I-75000J0D01*
G01*
X126675000Y-92900000D01*
G75*
G02*
X126600000Y-92825000I0J75000D01*
G01*
G37*
G36*
G01*
X126100000Y-92825000D02*
X126100000Y-91500000D01*
G75*
G02*
X126175000Y-91425000I75000J0D01*
G01*
X126325000Y-91425000D01*
G75*
G02*
X126400000Y-91500000I0J-75000D01*
G01*
X126400000Y-92825000D01*
G75*
G02*
X126325000Y-92900000I-75000J0D01*
G01*
X126175000Y-92900000D01*
G75*
G02*
X126100000Y-92825000I0J75000D01*
G01*
G37*
G36*
G01*
X125600000Y-92825000D02*
X125600000Y-91500000D01*
G75*
G02*
X125675000Y-91425000I75000J0D01*
G01*
X125825000Y-91425000D01*
G75*
G02*
X125900000Y-91500000I0J-75000D01*
G01*
X125900000Y-92825000D01*
G75*
G02*
X125825000Y-92900000I-75000J0D01*
G01*
X125675000Y-92900000D01*
G75*
G02*
X125600000Y-92825000I0J75000D01*
G01*
G37*
G36*
G01*
X125100000Y-92825000D02*
X125100000Y-91500000D01*
G75*
G02*
X125175000Y-91425000I75000J0D01*
G01*
X125325000Y-91425000D01*
G75*
G02*
X125400000Y-91500000I0J-75000D01*
G01*
X125400000Y-92825000D01*
G75*
G02*
X125325000Y-92900000I-75000J0D01*
G01*
X125175000Y-92900000D01*
G75*
G02*
X125100000Y-92825000I0J75000D01*
G01*
G37*
G36*
G01*
X124600000Y-92825000D02*
X124600000Y-91500000D01*
G75*
G02*
X124675000Y-91425000I75000J0D01*
G01*
X124825000Y-91425000D01*
G75*
G02*
X124900000Y-91500000I0J-75000D01*
G01*
X124900000Y-92825000D01*
G75*
G02*
X124825000Y-92900000I-75000J0D01*
G01*
X124675000Y-92900000D01*
G75*
G02*
X124600000Y-92825000I0J75000D01*
G01*
G37*
G36*
G01*
X124100000Y-92825000D02*
X124100000Y-91500000D01*
G75*
G02*
X124175000Y-91425000I75000J0D01*
G01*
X124325000Y-91425000D01*
G75*
G02*
X124400000Y-91500000I0J-75000D01*
G01*
X124400000Y-92825000D01*
G75*
G02*
X124325000Y-92900000I-75000J0D01*
G01*
X124175000Y-92900000D01*
G75*
G02*
X124100000Y-92825000I0J75000D01*
G01*
G37*
G36*
G01*
X123600000Y-92825000D02*
X123600000Y-91500000D01*
G75*
G02*
X123675000Y-91425000I75000J0D01*
G01*
X123825000Y-91425000D01*
G75*
G02*
X123900000Y-91500000I0J-75000D01*
G01*
X123900000Y-92825000D01*
G75*
G02*
X123825000Y-92900000I-75000J0D01*
G01*
X123675000Y-92900000D01*
G75*
G02*
X123600000Y-92825000I0J75000D01*
G01*
G37*
G36*
G01*
X123100000Y-92825000D02*
X123100000Y-91500000D01*
G75*
G02*
X123175000Y-91425000I75000J0D01*
G01*
X123325000Y-91425000D01*
G75*
G02*
X123400000Y-91500000I0J-75000D01*
G01*
X123400000Y-92825000D01*
G75*
G02*
X123325000Y-92900000I-75000J0D01*
G01*
X123175000Y-92900000D01*
G75*
G02*
X123100000Y-92825000I0J75000D01*
G01*
G37*
G36*
G01*
X122600000Y-92825000D02*
X122600000Y-91500000D01*
G75*
G02*
X122675000Y-91425000I75000J0D01*
G01*
X122825000Y-91425000D01*
G75*
G02*
X122900000Y-91500000I0J-75000D01*
G01*
X122900000Y-92825000D01*
G75*
G02*
X122825000Y-92900000I-75000J0D01*
G01*
X122675000Y-92900000D01*
G75*
G02*
X122600000Y-92825000I0J75000D01*
G01*
G37*
G36*
G01*
X122100000Y-92825000D02*
X122100000Y-91500000D01*
G75*
G02*
X122175000Y-91425000I75000J0D01*
G01*
X122325000Y-91425000D01*
G75*
G02*
X122400000Y-91500000I0J-75000D01*
G01*
X122400000Y-92825000D01*
G75*
G02*
X122325000Y-92900000I-75000J0D01*
G01*
X122175000Y-92900000D01*
G75*
G02*
X122100000Y-92825000I0J75000D01*
G01*
G37*
G36*
G01*
X121600000Y-92825000D02*
X121600000Y-91500000D01*
G75*
G02*
X121675000Y-91425000I75000J0D01*
G01*
X121825000Y-91425000D01*
G75*
G02*
X121900000Y-91500000I0J-75000D01*
G01*
X121900000Y-92825000D01*
G75*
G02*
X121825000Y-92900000I-75000J0D01*
G01*
X121675000Y-92900000D01*
G75*
G02*
X121600000Y-92825000I0J75000D01*
G01*
G37*
G36*
G01*
X121100000Y-92825000D02*
X121100000Y-91500000D01*
G75*
G02*
X121175000Y-91425000I75000J0D01*
G01*
X121325000Y-91425000D01*
G75*
G02*
X121400000Y-91500000I0J-75000D01*
G01*
X121400000Y-92825000D01*
G75*
G02*
X121325000Y-92900000I-75000J0D01*
G01*
X121175000Y-92900000D01*
G75*
G02*
X121100000Y-92825000I0J75000D01*
G01*
G37*
G36*
G01*
X119100000Y-90825000D02*
X119100000Y-90675000D01*
G75*
G02*
X119175000Y-90600000I75000J0D01*
G01*
X120500000Y-90600000D01*
G75*
G02*
X120575000Y-90675000I0J-75000D01*
G01*
X120575000Y-90825000D01*
G75*
G02*
X120500000Y-90900000I-75000J0D01*
G01*
X119175000Y-90900000D01*
G75*
G02*
X119100000Y-90825000I0J75000D01*
G01*
G37*
G36*
G01*
X119100000Y-90325000D02*
X119100000Y-90175000D01*
G75*
G02*
X119175000Y-90100000I75000J0D01*
G01*
X120500000Y-90100000D01*
G75*
G02*
X120575000Y-90175000I0J-75000D01*
G01*
X120575000Y-90325000D01*
G75*
G02*
X120500000Y-90400000I-75000J0D01*
G01*
X119175000Y-90400000D01*
G75*
G02*
X119100000Y-90325000I0J75000D01*
G01*
G37*
G36*
G01*
X119100000Y-89825000D02*
X119100000Y-89675000D01*
G75*
G02*
X119175000Y-89600000I75000J0D01*
G01*
X120500000Y-89600000D01*
G75*
G02*
X120575000Y-89675000I0J-75000D01*
G01*
X120575000Y-89825000D01*
G75*
G02*
X120500000Y-89900000I-75000J0D01*
G01*
X119175000Y-89900000D01*
G75*
G02*
X119100000Y-89825000I0J75000D01*
G01*
G37*
G36*
G01*
X119100000Y-89325000D02*
X119100000Y-89175000D01*
G75*
G02*
X119175000Y-89100000I75000J0D01*
G01*
X120500000Y-89100000D01*
G75*
G02*
X120575000Y-89175000I0J-75000D01*
G01*
X120575000Y-89325000D01*
G75*
G02*
X120500000Y-89400000I-75000J0D01*
G01*
X119175000Y-89400000D01*
G75*
G02*
X119100000Y-89325000I0J75000D01*
G01*
G37*
G36*
G01*
X119100000Y-88825000D02*
X119100000Y-88675000D01*
G75*
G02*
X119175000Y-88600000I75000J0D01*
G01*
X120500000Y-88600000D01*
G75*
G02*
X120575000Y-88675000I0J-75000D01*
G01*
X120575000Y-88825000D01*
G75*
G02*
X120500000Y-88900000I-75000J0D01*
G01*
X119175000Y-88900000D01*
G75*
G02*
X119100000Y-88825000I0J75000D01*
G01*
G37*
G36*
G01*
X119100000Y-88325000D02*
X119100000Y-88175000D01*
G75*
G02*
X119175000Y-88100000I75000J0D01*
G01*
X120500000Y-88100000D01*
G75*
G02*
X120575000Y-88175000I0J-75000D01*
G01*
X120575000Y-88325000D01*
G75*
G02*
X120500000Y-88400000I-75000J0D01*
G01*
X119175000Y-88400000D01*
G75*
G02*
X119100000Y-88325000I0J75000D01*
G01*
G37*
G36*
G01*
X119100000Y-87825000D02*
X119100000Y-87675000D01*
G75*
G02*
X119175000Y-87600000I75000J0D01*
G01*
X120500000Y-87600000D01*
G75*
G02*
X120575000Y-87675000I0J-75000D01*
G01*
X120575000Y-87825000D01*
G75*
G02*
X120500000Y-87900000I-75000J0D01*
G01*
X119175000Y-87900000D01*
G75*
G02*
X119100000Y-87825000I0J75000D01*
G01*
G37*
G36*
G01*
X119100000Y-87325000D02*
X119100000Y-87175000D01*
G75*
G02*
X119175000Y-87100000I75000J0D01*
G01*
X120500000Y-87100000D01*
G75*
G02*
X120575000Y-87175000I0J-75000D01*
G01*
X120575000Y-87325000D01*
G75*
G02*
X120500000Y-87400000I-75000J0D01*
G01*
X119175000Y-87400000D01*
G75*
G02*
X119100000Y-87325000I0J75000D01*
G01*
G37*
G36*
G01*
X119100000Y-86825000D02*
X119100000Y-86675000D01*
G75*
G02*
X119175000Y-86600000I75000J0D01*
G01*
X120500000Y-86600000D01*
G75*
G02*
X120575000Y-86675000I0J-75000D01*
G01*
X120575000Y-86825000D01*
G75*
G02*
X120500000Y-86900000I-75000J0D01*
G01*
X119175000Y-86900000D01*
G75*
G02*
X119100000Y-86825000I0J75000D01*
G01*
G37*
G36*
G01*
X119100000Y-86325000D02*
X119100000Y-86175000D01*
G75*
G02*
X119175000Y-86100000I75000J0D01*
G01*
X120500000Y-86100000D01*
G75*
G02*
X120575000Y-86175000I0J-75000D01*
G01*
X120575000Y-86325000D01*
G75*
G02*
X120500000Y-86400000I-75000J0D01*
G01*
X119175000Y-86400000D01*
G75*
G02*
X119100000Y-86325000I0J75000D01*
G01*
G37*
G36*
G01*
X119100000Y-85825000D02*
X119100000Y-85675000D01*
G75*
G02*
X119175000Y-85600000I75000J0D01*
G01*
X120500000Y-85600000D01*
G75*
G02*
X120575000Y-85675000I0J-75000D01*
G01*
X120575000Y-85825000D01*
G75*
G02*
X120500000Y-85900000I-75000J0D01*
G01*
X119175000Y-85900000D01*
G75*
G02*
X119100000Y-85825000I0J75000D01*
G01*
G37*
G36*
G01*
X119100000Y-85325000D02*
X119100000Y-85175000D01*
G75*
G02*
X119175000Y-85100000I75000J0D01*
G01*
X120500000Y-85100000D01*
G75*
G02*
X120575000Y-85175000I0J-75000D01*
G01*
X120575000Y-85325000D01*
G75*
G02*
X120500000Y-85400000I-75000J0D01*
G01*
X119175000Y-85400000D01*
G75*
G02*
X119100000Y-85325000I0J75000D01*
G01*
G37*
%TD*%
D14*
%TO.C,J1*%
X133455000Y-86750000D03*
X133455000Y-87550000D03*
X133455000Y-92450000D03*
X133455000Y-93250000D03*
X133455000Y-93250000D03*
X133455000Y-92450000D03*
X133455000Y-87550000D03*
X133455000Y-86750000D03*
D15*
X133455000Y-91750000D03*
X133455000Y-91250000D03*
X133455000Y-90750000D03*
X133455000Y-89750000D03*
X133455000Y-89250000D03*
X133455000Y-88750000D03*
X133455000Y-88250000D03*
X133455000Y-90250000D03*
%TD*%
M02*
