%TF.GenerationSoftware,KiCad,Pcbnew,5.1.6+dfsg1-1*%
%TF.CreationDate,2020-06-28T19:58:20+08:00*%
%TF.ProjectId,stlink,73746c69-6e6b-42e6-9b69-6361645f7063,rev?*%
%TF.SameCoordinates,Original*%
%TF.FileFunction,Copper,L2,Bot*%
%TF.FilePolarity,Positive*%
%FSLAX46Y46*%
G04 Gerber Fmt 4.6, Leading zero omitted, Abs format (unit mm)*
G04 Created by KiCad (PCBNEW 5.1.6+dfsg1-1) date 2020-06-28 19:58:20*
%MOMM*%
%LPD*%
G01*
G04 APERTURE LIST*
%TA.AperFunction,SMDPad,CuDef*%
%ADD10R,2.540000X1.524000*%
%TD*%
%TA.AperFunction,ComponentPad*%
%ADD11O,2.100000X1.000000*%
%TD*%
%TA.AperFunction,ComponentPad*%
%ADD12O,1.600000X1.000000*%
%TD*%
%TA.AperFunction,Conductor*%
%ADD13C,0.152400*%
%TD*%
G04 APERTURE END LIST*
D10*
%TO.P,J2,10*%
%TO.N,JTDI*%
X111500000Y-84840000D03*
%TO.P,J2,8*%
%TO.N,JTDO*%
X111500000Y-87380000D03*
%TO.P,J2,6*%
%TO.N,JTMS*%
X111500000Y-89920000D03*
%TO.P,J2,4*%
%TO.N,JTCK_SWCLK*%
X111500000Y-92460000D03*
%TO.P,J2,2*%
%TO.N,Net-(J2-Pad2)*%
X111500000Y-95000000D03*
%TD*%
D11*
%TO.P,J1,S1*%
%TO.N,GND*%
X134370000Y-85680000D03*
X134370000Y-94320000D03*
D12*
X138550000Y-94320000D03*
X138550000Y-85680000D03*
%TD*%
D13*
%TO.N,GND*%
G36*
X142746401Y-99746400D02*
G01*
X107753600Y-99746400D01*
X107753600Y-81500000D01*
X108745173Y-81500000D01*
X108746401Y-81512469D01*
X108746400Y-98487541D01*
X108745173Y-98500000D01*
X108750069Y-98549714D01*
X108764571Y-98597518D01*
X108785393Y-98636473D01*
X108788119Y-98641574D01*
X108819810Y-98680190D01*
X108858426Y-98711881D01*
X108902482Y-98735429D01*
X108950286Y-98749931D01*
X109000000Y-98754827D01*
X109012459Y-98753600D01*
X115512459Y-98753600D01*
X115525244Y-98752341D01*
X115531727Y-98752341D01*
X115535248Y-98751971D01*
X115632223Y-98741094D01*
X115654733Y-98736309D01*
X115677254Y-98731850D01*
X115680637Y-98730803D01*
X115773652Y-98701297D01*
X115794775Y-98692244D01*
X115816028Y-98683484D01*
X115819143Y-98681800D01*
X115904656Y-98634789D01*
X115923650Y-98621783D01*
X115942767Y-98609082D01*
X115945496Y-98606825D01*
X116020248Y-98544100D01*
X116036343Y-98527665D01*
X116052638Y-98511483D01*
X116054876Y-98508739D01*
X116116022Y-98432689D01*
X116128618Y-98413440D01*
X116141461Y-98394400D01*
X116143123Y-98391274D01*
X116188334Y-98304794D01*
X116196952Y-98283463D01*
X116205850Y-98262296D01*
X116206874Y-98258906D01*
X116234426Y-98165294D01*
X116238732Y-98142722D01*
X116243355Y-98120199D01*
X116243700Y-98116675D01*
X116252544Y-98019492D01*
X116252384Y-97996476D01*
X116252495Y-97980507D01*
X117747456Y-97980507D01*
X117747617Y-98003491D01*
X117747456Y-98026475D01*
X117747801Y-98029999D01*
X117758001Y-98127047D01*
X117762625Y-98149571D01*
X117766930Y-98172140D01*
X117767953Y-98175530D01*
X117796809Y-98268749D01*
X117805736Y-98289985D01*
X117814328Y-98311251D01*
X117815990Y-98314377D01*
X117862403Y-98400215D01*
X117875234Y-98419238D01*
X117887841Y-98438503D01*
X117890079Y-98441247D01*
X117952281Y-98516436D01*
X117968612Y-98532653D01*
X117984671Y-98549052D01*
X117987399Y-98551310D01*
X118063020Y-98612986D01*
X118082163Y-98625704D01*
X118101132Y-98638693D01*
X118104247Y-98640377D01*
X118190408Y-98686189D01*
X118211668Y-98694951D01*
X118232783Y-98704001D01*
X118236165Y-98705049D01*
X118329583Y-98733254D01*
X118352155Y-98737723D01*
X118374615Y-98742497D01*
X118378137Y-98742868D01*
X118475254Y-98752390D01*
X118475255Y-98752390D01*
X118487541Y-98753600D01*
X133012459Y-98753600D01*
X133025244Y-98752341D01*
X133031727Y-98752341D01*
X133035248Y-98751971D01*
X133132223Y-98741094D01*
X133154733Y-98736309D01*
X133177254Y-98731850D01*
X133180637Y-98730803D01*
X133273652Y-98701297D01*
X133294775Y-98692244D01*
X133316028Y-98683484D01*
X133319143Y-98681800D01*
X133404656Y-98634789D01*
X133423650Y-98621783D01*
X133442767Y-98609082D01*
X133445496Y-98606825D01*
X133520248Y-98544100D01*
X133536343Y-98527665D01*
X133552638Y-98511483D01*
X133554876Y-98508739D01*
X133616022Y-98432689D01*
X133628618Y-98413440D01*
X133641461Y-98394400D01*
X133643123Y-98391274D01*
X133688334Y-98304794D01*
X133696952Y-98283463D01*
X133705850Y-98262296D01*
X133706874Y-98258906D01*
X133734426Y-98165294D01*
X133738732Y-98142722D01*
X133743355Y-98120199D01*
X133743700Y-98116675D01*
X133752544Y-98019492D01*
X133752384Y-97996476D01*
X133752544Y-97973526D01*
X133752199Y-97970001D01*
X133741999Y-97872953D01*
X133737378Y-97850442D01*
X133733070Y-97827860D01*
X133732047Y-97824470D01*
X133703191Y-97731251D01*
X133694269Y-97710027D01*
X133685672Y-97688749D01*
X133684010Y-97685622D01*
X133637597Y-97599785D01*
X133624750Y-97580738D01*
X133612159Y-97561497D01*
X133609921Y-97558753D01*
X133547719Y-97483564D01*
X133531388Y-97467347D01*
X133515329Y-97450948D01*
X133512601Y-97448690D01*
X133436980Y-97387014D01*
X133417819Y-97374284D01*
X133398867Y-97361307D01*
X133395753Y-97359623D01*
X133309592Y-97313811D01*
X133288336Y-97305050D01*
X133267217Y-97295998D01*
X133263835Y-97294951D01*
X133170417Y-97266746D01*
X133147845Y-97262277D01*
X133125385Y-97257503D01*
X133121863Y-97257132D01*
X133024746Y-97247610D01*
X133024745Y-97247610D01*
X133012459Y-97246400D01*
X118487541Y-97246400D01*
X118474756Y-97247659D01*
X118468273Y-97247659D01*
X118464752Y-97248029D01*
X118367777Y-97258906D01*
X118345267Y-97263691D01*
X118322746Y-97268150D01*
X118319363Y-97269197D01*
X118226348Y-97298703D01*
X118205218Y-97307760D01*
X118183971Y-97316517D01*
X118180856Y-97318201D01*
X118095344Y-97365211D01*
X118076334Y-97378228D01*
X118057233Y-97390918D01*
X118054504Y-97393175D01*
X117979752Y-97455900D01*
X117963674Y-97472319D01*
X117947362Y-97488517D01*
X117945124Y-97491261D01*
X117883978Y-97567311D01*
X117871382Y-97586560D01*
X117858539Y-97605600D01*
X117856877Y-97608726D01*
X117811667Y-97695205D01*
X117803051Y-97716531D01*
X117794150Y-97737705D01*
X117793126Y-97741094D01*
X117765574Y-97834706D01*
X117761262Y-97857309D01*
X117756646Y-97879801D01*
X117756300Y-97883325D01*
X117747456Y-97980507D01*
X116252495Y-97980507D01*
X116252544Y-97973526D01*
X116252199Y-97970001D01*
X116241999Y-97872953D01*
X116237378Y-97850442D01*
X116233070Y-97827860D01*
X116232047Y-97824470D01*
X116203191Y-97731251D01*
X116194269Y-97710027D01*
X116185672Y-97688749D01*
X116184010Y-97685622D01*
X116137597Y-97599785D01*
X116124750Y-97580738D01*
X116112159Y-97561497D01*
X116109921Y-97558753D01*
X116047719Y-97483564D01*
X116031388Y-97467347D01*
X116015329Y-97450948D01*
X116012601Y-97448690D01*
X115936980Y-97387014D01*
X115917819Y-97374284D01*
X115898867Y-97361307D01*
X115895753Y-97359623D01*
X115809592Y-97313811D01*
X115788336Y-97305050D01*
X115767217Y-97295998D01*
X115763835Y-97294951D01*
X115670417Y-97266746D01*
X115647845Y-97262277D01*
X115625385Y-97257503D01*
X115621863Y-97257132D01*
X115524746Y-97247610D01*
X115524745Y-97247610D01*
X115512459Y-97246400D01*
X110253600Y-97246400D01*
X110253600Y-95991706D01*
X112770000Y-95991706D01*
X112814813Y-95987292D01*
X112857905Y-95974221D01*
X112897618Y-95952994D01*
X112932427Y-95924427D01*
X112960994Y-95889618D01*
X112982221Y-95849905D01*
X112995292Y-95806813D01*
X112999706Y-95762000D01*
X112999706Y-94508615D01*
X133116237Y-94508615D01*
X133117700Y-94528423D01*
X133171856Y-94661430D01*
X133250920Y-94781316D01*
X133351853Y-94883474D01*
X133470777Y-94963978D01*
X133603121Y-95019734D01*
X133743800Y-95048600D01*
X134293800Y-95048600D01*
X134293800Y-94396200D01*
X134446200Y-94396200D01*
X134446200Y-95048600D01*
X134996200Y-95048600D01*
X135136879Y-95019734D01*
X135269223Y-94963978D01*
X135388147Y-94883474D01*
X135489080Y-94781316D01*
X135568144Y-94661430D01*
X135622300Y-94528423D01*
X135623763Y-94508615D01*
X137546237Y-94508615D01*
X137547700Y-94528423D01*
X137601856Y-94661430D01*
X137680920Y-94781316D01*
X137781853Y-94883474D01*
X137900777Y-94963978D01*
X138033121Y-95019734D01*
X138173800Y-95048600D01*
X138473800Y-95048600D01*
X138473800Y-94396200D01*
X138626200Y-94396200D01*
X138626200Y-95048600D01*
X138926200Y-95048600D01*
X139066879Y-95019734D01*
X139199223Y-94963978D01*
X139318147Y-94883474D01*
X139419080Y-94781316D01*
X139498144Y-94661430D01*
X139552300Y-94528423D01*
X139553763Y-94508615D01*
X139517112Y-94396200D01*
X138626200Y-94396200D01*
X138473800Y-94396200D01*
X137582888Y-94396200D01*
X137546237Y-94508615D01*
X135623763Y-94508615D01*
X135587112Y-94396200D01*
X134446200Y-94396200D01*
X134293800Y-94396200D01*
X133152888Y-94396200D01*
X133116237Y-94508615D01*
X112999706Y-94508615D01*
X112999706Y-94238000D01*
X112995292Y-94193187D01*
X112982221Y-94150095D01*
X112972221Y-94131385D01*
X133116237Y-94131385D01*
X133152888Y-94243800D01*
X134293800Y-94243800D01*
X134293800Y-93591400D01*
X134446200Y-93591400D01*
X134446200Y-94243800D01*
X135587112Y-94243800D01*
X135623763Y-94131385D01*
X137546237Y-94131385D01*
X137582888Y-94243800D01*
X138473800Y-94243800D01*
X138473800Y-93591400D01*
X138626200Y-93591400D01*
X138626200Y-94243800D01*
X139517112Y-94243800D01*
X139553763Y-94131385D01*
X139552300Y-94111577D01*
X139498144Y-93978570D01*
X139419080Y-93858684D01*
X139318147Y-93756526D01*
X139199223Y-93676022D01*
X139066879Y-93620266D01*
X138926200Y-93591400D01*
X138626200Y-93591400D01*
X138473800Y-93591400D01*
X138173800Y-93591400D01*
X138033121Y-93620266D01*
X137900777Y-93676022D01*
X137781853Y-93756526D01*
X137680920Y-93858684D01*
X137601856Y-93978570D01*
X137547700Y-94111577D01*
X137546237Y-94131385D01*
X135623763Y-94131385D01*
X135622300Y-94111577D01*
X135568144Y-93978570D01*
X135489080Y-93858684D01*
X135388147Y-93756526D01*
X135269223Y-93676022D01*
X135136879Y-93620266D01*
X134996200Y-93591400D01*
X134446200Y-93591400D01*
X134293800Y-93591400D01*
X133743800Y-93591400D01*
X133603121Y-93620266D01*
X133470777Y-93676022D01*
X133351853Y-93756526D01*
X133250920Y-93858684D01*
X133171856Y-93978570D01*
X133117700Y-94111577D01*
X133116237Y-94131385D01*
X112972221Y-94131385D01*
X112960994Y-94110382D01*
X112932427Y-94075573D01*
X112897618Y-94047006D01*
X112857905Y-94025779D01*
X112814813Y-94012708D01*
X112770000Y-94008294D01*
X110253600Y-94008294D01*
X110253600Y-93451706D01*
X112770000Y-93451706D01*
X112814813Y-93447292D01*
X112857905Y-93434221D01*
X112897618Y-93412994D01*
X112932427Y-93384427D01*
X112960994Y-93349618D01*
X112982221Y-93309905D01*
X112995292Y-93266813D01*
X112999706Y-93222000D01*
X112999706Y-92835475D01*
X134346400Y-92835475D01*
X134346400Y-92944525D01*
X134367674Y-93051479D01*
X134409406Y-93152228D01*
X134469991Y-93242900D01*
X134547100Y-93320009D01*
X134637772Y-93380594D01*
X134738521Y-93422326D01*
X134845475Y-93443600D01*
X134954525Y-93443600D01*
X135061479Y-93422326D01*
X135162228Y-93380594D01*
X135252900Y-93320009D01*
X135330009Y-93242900D01*
X135390594Y-93152228D01*
X135432326Y-93051479D01*
X135453600Y-92944525D01*
X135453600Y-92835475D01*
X135432326Y-92728521D01*
X135390594Y-92627772D01*
X135330009Y-92537100D01*
X135252900Y-92459991D01*
X135162228Y-92399406D01*
X135061479Y-92357674D01*
X134954525Y-92336400D01*
X134845475Y-92336400D01*
X134738521Y-92357674D01*
X134637772Y-92399406D01*
X134547100Y-92459991D01*
X134469991Y-92537100D01*
X134409406Y-92627772D01*
X134367674Y-92728521D01*
X134346400Y-92835475D01*
X112999706Y-92835475D01*
X112999706Y-91698000D01*
X112995292Y-91653187D01*
X112982221Y-91610095D01*
X112960994Y-91570382D01*
X112932427Y-91535573D01*
X112897618Y-91507006D01*
X112857905Y-91485779D01*
X112814813Y-91472708D01*
X112770000Y-91468294D01*
X110253600Y-91468294D01*
X110253600Y-90911706D01*
X112770000Y-90911706D01*
X112814813Y-90907292D01*
X112857905Y-90894221D01*
X112897618Y-90872994D01*
X112932427Y-90844427D01*
X112960994Y-90809618D01*
X112982221Y-90769905D01*
X112995292Y-90726813D01*
X112999706Y-90682000D01*
X112999706Y-89158000D01*
X112995292Y-89113187D01*
X112982221Y-89070095D01*
X112960994Y-89030382D01*
X112932427Y-88995573D01*
X112897618Y-88967006D01*
X112857905Y-88945779D01*
X112814813Y-88932708D01*
X112770000Y-88928294D01*
X110253600Y-88928294D01*
X110253600Y-88371706D01*
X112770000Y-88371706D01*
X112814813Y-88367292D01*
X112857905Y-88354221D01*
X112897618Y-88332994D01*
X112932427Y-88304427D01*
X112960994Y-88269618D01*
X112982221Y-88229905D01*
X112995292Y-88186813D01*
X112999706Y-88142000D01*
X112999706Y-87055475D01*
X134346400Y-87055475D01*
X134346400Y-87164525D01*
X134367674Y-87271479D01*
X134409406Y-87372228D01*
X134469991Y-87462900D01*
X134547100Y-87540009D01*
X134637772Y-87600594D01*
X134738521Y-87642326D01*
X134845475Y-87663600D01*
X134954525Y-87663600D01*
X135061479Y-87642326D01*
X135162228Y-87600594D01*
X135252900Y-87540009D01*
X135330009Y-87462900D01*
X135390594Y-87372228D01*
X135432326Y-87271479D01*
X135453600Y-87164525D01*
X135453600Y-87055475D01*
X135432326Y-86948521D01*
X135390594Y-86847772D01*
X135330009Y-86757100D01*
X135252900Y-86679991D01*
X135162228Y-86619406D01*
X135061479Y-86577674D01*
X134954525Y-86556400D01*
X134845475Y-86556400D01*
X134738521Y-86577674D01*
X134637772Y-86619406D01*
X134547100Y-86679991D01*
X134469991Y-86757100D01*
X134409406Y-86847772D01*
X134367674Y-86948521D01*
X134346400Y-87055475D01*
X112999706Y-87055475D01*
X112999706Y-86618000D01*
X112995292Y-86573187D01*
X112982221Y-86530095D01*
X112960994Y-86490382D01*
X112932427Y-86455573D01*
X112897618Y-86427006D01*
X112857905Y-86405779D01*
X112814813Y-86392708D01*
X112770000Y-86388294D01*
X110253600Y-86388294D01*
X110253600Y-85868615D01*
X133116237Y-85868615D01*
X133117700Y-85888423D01*
X133171856Y-86021430D01*
X133250920Y-86141316D01*
X133351853Y-86243474D01*
X133470777Y-86323978D01*
X133603121Y-86379734D01*
X133743800Y-86408600D01*
X134293800Y-86408600D01*
X134293800Y-85756200D01*
X134446200Y-85756200D01*
X134446200Y-86408600D01*
X134996200Y-86408600D01*
X135136879Y-86379734D01*
X135269223Y-86323978D01*
X135388147Y-86243474D01*
X135489080Y-86141316D01*
X135568144Y-86021430D01*
X135622300Y-85888423D01*
X135623763Y-85868615D01*
X137546237Y-85868615D01*
X137547700Y-85888423D01*
X137601856Y-86021430D01*
X137680920Y-86141316D01*
X137781853Y-86243474D01*
X137900777Y-86323978D01*
X138033121Y-86379734D01*
X138173800Y-86408600D01*
X138473800Y-86408600D01*
X138473800Y-85756200D01*
X138626200Y-85756200D01*
X138626200Y-86408600D01*
X138926200Y-86408600D01*
X139066879Y-86379734D01*
X139199223Y-86323978D01*
X139318147Y-86243474D01*
X139419080Y-86141316D01*
X139498144Y-86021430D01*
X139552300Y-85888423D01*
X139553763Y-85868615D01*
X139517112Y-85756200D01*
X138626200Y-85756200D01*
X138473800Y-85756200D01*
X137582888Y-85756200D01*
X137546237Y-85868615D01*
X135623763Y-85868615D01*
X135587112Y-85756200D01*
X134446200Y-85756200D01*
X134293800Y-85756200D01*
X133152888Y-85756200D01*
X133116237Y-85868615D01*
X110253600Y-85868615D01*
X110253600Y-85831706D01*
X112770000Y-85831706D01*
X112814813Y-85827292D01*
X112857905Y-85814221D01*
X112897618Y-85792994D01*
X112932427Y-85764427D01*
X112960994Y-85729618D01*
X112982221Y-85689905D01*
X112995292Y-85646813D01*
X112999706Y-85602000D01*
X112999706Y-85491385D01*
X133116237Y-85491385D01*
X133152888Y-85603800D01*
X134293800Y-85603800D01*
X134293800Y-84951400D01*
X134446200Y-84951400D01*
X134446200Y-85603800D01*
X135587112Y-85603800D01*
X135623763Y-85491385D01*
X137546237Y-85491385D01*
X137582888Y-85603800D01*
X138473800Y-85603800D01*
X138473800Y-84951400D01*
X138626200Y-84951400D01*
X138626200Y-85603800D01*
X139517112Y-85603800D01*
X139553763Y-85491385D01*
X139552300Y-85471577D01*
X139498144Y-85338570D01*
X139419080Y-85218684D01*
X139318147Y-85116526D01*
X139199223Y-85036022D01*
X139066879Y-84980266D01*
X138926200Y-84951400D01*
X138626200Y-84951400D01*
X138473800Y-84951400D01*
X138173800Y-84951400D01*
X138033121Y-84980266D01*
X137900777Y-85036022D01*
X137781853Y-85116526D01*
X137680920Y-85218684D01*
X137601856Y-85338570D01*
X137547700Y-85471577D01*
X137546237Y-85491385D01*
X135623763Y-85491385D01*
X135622300Y-85471577D01*
X135568144Y-85338570D01*
X135489080Y-85218684D01*
X135388147Y-85116526D01*
X135269223Y-85036022D01*
X135136879Y-84980266D01*
X134996200Y-84951400D01*
X134446200Y-84951400D01*
X134293800Y-84951400D01*
X133743800Y-84951400D01*
X133603121Y-84980266D01*
X133470777Y-85036022D01*
X133351853Y-85116526D01*
X133250920Y-85218684D01*
X133171856Y-85338570D01*
X133117700Y-85471577D01*
X133116237Y-85491385D01*
X112999706Y-85491385D01*
X112999706Y-84078000D01*
X112995292Y-84033187D01*
X112982221Y-83990095D01*
X112960994Y-83950382D01*
X112932427Y-83915573D01*
X112897618Y-83887006D01*
X112857905Y-83865779D01*
X112814813Y-83852708D01*
X112770000Y-83848294D01*
X110253600Y-83848294D01*
X110253600Y-82753600D01*
X115512459Y-82753600D01*
X115525244Y-82752341D01*
X115531727Y-82752341D01*
X115535248Y-82751971D01*
X115632223Y-82741094D01*
X115654733Y-82736309D01*
X115677254Y-82731850D01*
X115680637Y-82730803D01*
X115773652Y-82701297D01*
X115794775Y-82692244D01*
X115816028Y-82683484D01*
X115819143Y-82681800D01*
X115904656Y-82634789D01*
X115923650Y-82621783D01*
X115942767Y-82609082D01*
X115945496Y-82606825D01*
X116020248Y-82544100D01*
X116036343Y-82527665D01*
X116052638Y-82511483D01*
X116054876Y-82508739D01*
X116116022Y-82432689D01*
X116128618Y-82413440D01*
X116141461Y-82394400D01*
X116143123Y-82391274D01*
X116188334Y-82304794D01*
X116196952Y-82283463D01*
X116205850Y-82262296D01*
X116206874Y-82258906D01*
X116234426Y-82165294D01*
X116238732Y-82142722D01*
X116243355Y-82120199D01*
X116243700Y-82116675D01*
X116252544Y-82019492D01*
X116252384Y-81996476D01*
X116252495Y-81980507D01*
X117747456Y-81980507D01*
X117747617Y-82003491D01*
X117747456Y-82026475D01*
X117747801Y-82029999D01*
X117758001Y-82127047D01*
X117762625Y-82149571D01*
X117766930Y-82172140D01*
X117767953Y-82175530D01*
X117796809Y-82268749D01*
X117805736Y-82289985D01*
X117814328Y-82311251D01*
X117815990Y-82314377D01*
X117862403Y-82400215D01*
X117875234Y-82419238D01*
X117887841Y-82438503D01*
X117890079Y-82441247D01*
X117952281Y-82516436D01*
X117968612Y-82532653D01*
X117984671Y-82549052D01*
X117987399Y-82551310D01*
X118063020Y-82612986D01*
X118082163Y-82625704D01*
X118101132Y-82638693D01*
X118104247Y-82640377D01*
X118190408Y-82686189D01*
X118211668Y-82694951D01*
X118232783Y-82704001D01*
X118236165Y-82705049D01*
X118329583Y-82733254D01*
X118352155Y-82737723D01*
X118374615Y-82742497D01*
X118378137Y-82742868D01*
X118475254Y-82752390D01*
X118475255Y-82752390D01*
X118487541Y-82753600D01*
X133012459Y-82753600D01*
X133025244Y-82752341D01*
X133031727Y-82752341D01*
X133035248Y-82751971D01*
X133132223Y-82741094D01*
X133154733Y-82736309D01*
X133177254Y-82731850D01*
X133180637Y-82730803D01*
X133273652Y-82701297D01*
X133294775Y-82692244D01*
X133316028Y-82683484D01*
X133319143Y-82681800D01*
X133404656Y-82634789D01*
X133423650Y-82621783D01*
X133442767Y-82609082D01*
X133445496Y-82606825D01*
X133520248Y-82544100D01*
X133536343Y-82527665D01*
X133552638Y-82511483D01*
X133554876Y-82508739D01*
X133616022Y-82432689D01*
X133628618Y-82413440D01*
X133641461Y-82394400D01*
X133643123Y-82391274D01*
X133688334Y-82304794D01*
X133696952Y-82283463D01*
X133705850Y-82262296D01*
X133706874Y-82258906D01*
X133734426Y-82165294D01*
X133738732Y-82142722D01*
X133743355Y-82120199D01*
X133743700Y-82116675D01*
X133752544Y-82019492D01*
X133752384Y-81996476D01*
X133752495Y-81980507D01*
X135247456Y-81980507D01*
X135247617Y-82003491D01*
X135247456Y-82026475D01*
X135247801Y-82029999D01*
X135258001Y-82127047D01*
X135262625Y-82149571D01*
X135266930Y-82172140D01*
X135267953Y-82175530D01*
X135296809Y-82268749D01*
X135305736Y-82289985D01*
X135314328Y-82311251D01*
X135315990Y-82314377D01*
X135362403Y-82400215D01*
X135375234Y-82419238D01*
X135387841Y-82438503D01*
X135390079Y-82441247D01*
X135452281Y-82516436D01*
X135468612Y-82532653D01*
X135484671Y-82549052D01*
X135487399Y-82551310D01*
X135563020Y-82612986D01*
X135582163Y-82625704D01*
X135601132Y-82638693D01*
X135604247Y-82640377D01*
X135690408Y-82686189D01*
X135711668Y-82694951D01*
X135732783Y-82704001D01*
X135736165Y-82705049D01*
X135829583Y-82733254D01*
X135852155Y-82737723D01*
X135874615Y-82742497D01*
X135878137Y-82742868D01*
X135975254Y-82752390D01*
X135975255Y-82752390D01*
X135987541Y-82753600D01*
X139746400Y-82753600D01*
X139746401Y-97246400D01*
X135987541Y-97246400D01*
X135974756Y-97247659D01*
X135968273Y-97247659D01*
X135964752Y-97248029D01*
X135867777Y-97258906D01*
X135845267Y-97263691D01*
X135822746Y-97268150D01*
X135819363Y-97269197D01*
X135726348Y-97298703D01*
X135705218Y-97307760D01*
X135683971Y-97316517D01*
X135680856Y-97318201D01*
X135595344Y-97365211D01*
X135576334Y-97378228D01*
X135557233Y-97390918D01*
X135554504Y-97393175D01*
X135479752Y-97455900D01*
X135463674Y-97472319D01*
X135447362Y-97488517D01*
X135445124Y-97491261D01*
X135383978Y-97567311D01*
X135371382Y-97586560D01*
X135358539Y-97605600D01*
X135356877Y-97608726D01*
X135311667Y-97695205D01*
X135303051Y-97716531D01*
X135294150Y-97737705D01*
X135293126Y-97741094D01*
X135265574Y-97834706D01*
X135261262Y-97857309D01*
X135256646Y-97879801D01*
X135256300Y-97883325D01*
X135247456Y-97980507D01*
X135247617Y-98003491D01*
X135247456Y-98026475D01*
X135247801Y-98029999D01*
X135258001Y-98127047D01*
X135262625Y-98149571D01*
X135266930Y-98172140D01*
X135267953Y-98175530D01*
X135296809Y-98268749D01*
X135305736Y-98289985D01*
X135314328Y-98311251D01*
X135315990Y-98314377D01*
X135362403Y-98400215D01*
X135375234Y-98419238D01*
X135387841Y-98438503D01*
X135390079Y-98441247D01*
X135452281Y-98516436D01*
X135468612Y-98532653D01*
X135484671Y-98549052D01*
X135487399Y-98551310D01*
X135563020Y-98612986D01*
X135582163Y-98625704D01*
X135601132Y-98638693D01*
X135604247Y-98640377D01*
X135690408Y-98686189D01*
X135711668Y-98694951D01*
X135732783Y-98704001D01*
X135736165Y-98705049D01*
X135829583Y-98733254D01*
X135852155Y-98737723D01*
X135874615Y-98742497D01*
X135878137Y-98742868D01*
X135975254Y-98752390D01*
X135975255Y-98752390D01*
X135987541Y-98753600D01*
X140987541Y-98753600D01*
X141000000Y-98754827D01*
X141012459Y-98753600D01*
X141049714Y-98749931D01*
X141097518Y-98735429D01*
X141141574Y-98711881D01*
X141180190Y-98680190D01*
X141211881Y-98641574D01*
X141235429Y-98597518D01*
X141249931Y-98549714D01*
X141254827Y-98500000D01*
X141253600Y-98487541D01*
X141253600Y-81512459D01*
X141254827Y-81500000D01*
X141249931Y-81450286D01*
X141235429Y-81402482D01*
X141211881Y-81358426D01*
X141180190Y-81319810D01*
X141141574Y-81288119D01*
X141097518Y-81264571D01*
X141049714Y-81250069D01*
X141012459Y-81246400D01*
X141000000Y-81245173D01*
X140987541Y-81246400D01*
X135987541Y-81246400D01*
X135974756Y-81247659D01*
X135968273Y-81247659D01*
X135964752Y-81248029D01*
X135867777Y-81258906D01*
X135845267Y-81263691D01*
X135822746Y-81268150D01*
X135819363Y-81269197D01*
X135726348Y-81298703D01*
X135705218Y-81307760D01*
X135683971Y-81316517D01*
X135680856Y-81318201D01*
X135595344Y-81365211D01*
X135576334Y-81378228D01*
X135557233Y-81390918D01*
X135554504Y-81393175D01*
X135479752Y-81455900D01*
X135463674Y-81472319D01*
X135447362Y-81488517D01*
X135445124Y-81491261D01*
X135383978Y-81567311D01*
X135371382Y-81586560D01*
X135358539Y-81605600D01*
X135356877Y-81608726D01*
X135311667Y-81695205D01*
X135303051Y-81716531D01*
X135294150Y-81737705D01*
X135293126Y-81741094D01*
X135265574Y-81834706D01*
X135261262Y-81857309D01*
X135256646Y-81879801D01*
X135256300Y-81883325D01*
X135247456Y-81980507D01*
X133752495Y-81980507D01*
X133752544Y-81973526D01*
X133752199Y-81970001D01*
X133741999Y-81872953D01*
X133737378Y-81850442D01*
X133733070Y-81827860D01*
X133732047Y-81824470D01*
X133703191Y-81731251D01*
X133694269Y-81710027D01*
X133685672Y-81688749D01*
X133684010Y-81685622D01*
X133637597Y-81599785D01*
X133624750Y-81580738D01*
X133612159Y-81561497D01*
X133609921Y-81558753D01*
X133547719Y-81483564D01*
X133531388Y-81467347D01*
X133515329Y-81450948D01*
X133512601Y-81448690D01*
X133436980Y-81387014D01*
X133417819Y-81374284D01*
X133398867Y-81361307D01*
X133395753Y-81359623D01*
X133309592Y-81313811D01*
X133288336Y-81305050D01*
X133267217Y-81295998D01*
X133263835Y-81294951D01*
X133170417Y-81266746D01*
X133147845Y-81262277D01*
X133125385Y-81257503D01*
X133121863Y-81257132D01*
X133024746Y-81247610D01*
X133024745Y-81247610D01*
X133012459Y-81246400D01*
X118487541Y-81246400D01*
X118474756Y-81247659D01*
X118468273Y-81247659D01*
X118464752Y-81248029D01*
X118367777Y-81258906D01*
X118345267Y-81263691D01*
X118322746Y-81268150D01*
X118319363Y-81269197D01*
X118226348Y-81298703D01*
X118205218Y-81307760D01*
X118183971Y-81316517D01*
X118180856Y-81318201D01*
X118095344Y-81365211D01*
X118076334Y-81378228D01*
X118057233Y-81390918D01*
X118054504Y-81393175D01*
X117979752Y-81455900D01*
X117963674Y-81472319D01*
X117947362Y-81488517D01*
X117945124Y-81491261D01*
X117883978Y-81567311D01*
X117871382Y-81586560D01*
X117858539Y-81605600D01*
X117856877Y-81608726D01*
X117811667Y-81695205D01*
X117803051Y-81716531D01*
X117794150Y-81737705D01*
X117793126Y-81741094D01*
X117765574Y-81834706D01*
X117761262Y-81857309D01*
X117756646Y-81879801D01*
X117756300Y-81883325D01*
X117747456Y-81980507D01*
X116252495Y-81980507D01*
X116252544Y-81973526D01*
X116252199Y-81970001D01*
X116241999Y-81872953D01*
X116237378Y-81850442D01*
X116233070Y-81827860D01*
X116232047Y-81824470D01*
X116203191Y-81731251D01*
X116194269Y-81710027D01*
X116185672Y-81688749D01*
X116184010Y-81685622D01*
X116137597Y-81599785D01*
X116124750Y-81580738D01*
X116112159Y-81561497D01*
X116109921Y-81558753D01*
X116047719Y-81483564D01*
X116031388Y-81467347D01*
X116015329Y-81450948D01*
X116012601Y-81448690D01*
X115936980Y-81387014D01*
X115917819Y-81374284D01*
X115898867Y-81361307D01*
X115895753Y-81359623D01*
X115809592Y-81313811D01*
X115788336Y-81305050D01*
X115767217Y-81295998D01*
X115763835Y-81294951D01*
X115670417Y-81266746D01*
X115647845Y-81262277D01*
X115625385Y-81257503D01*
X115621863Y-81257132D01*
X115524746Y-81247610D01*
X115524745Y-81247610D01*
X115512459Y-81246400D01*
X109012459Y-81246400D01*
X109000000Y-81245173D01*
X108987541Y-81246400D01*
X108950286Y-81250069D01*
X108902482Y-81264571D01*
X108858426Y-81288119D01*
X108819810Y-81319810D01*
X108788119Y-81358426D01*
X108764571Y-81402482D01*
X108750069Y-81450286D01*
X108745173Y-81500000D01*
X107753600Y-81500000D01*
X107753600Y-80253600D01*
X142746400Y-80253600D01*
X142746401Y-99746400D01*
G37*
X142746401Y-99746400D02*
X107753600Y-99746400D01*
X107753600Y-81500000D01*
X108745173Y-81500000D01*
X108746401Y-81512469D01*
X108746400Y-98487541D01*
X108745173Y-98500000D01*
X108750069Y-98549714D01*
X108764571Y-98597518D01*
X108785393Y-98636473D01*
X108788119Y-98641574D01*
X108819810Y-98680190D01*
X108858426Y-98711881D01*
X108902482Y-98735429D01*
X108950286Y-98749931D01*
X109000000Y-98754827D01*
X109012459Y-98753600D01*
X115512459Y-98753600D01*
X115525244Y-98752341D01*
X115531727Y-98752341D01*
X115535248Y-98751971D01*
X115632223Y-98741094D01*
X115654733Y-98736309D01*
X115677254Y-98731850D01*
X115680637Y-98730803D01*
X115773652Y-98701297D01*
X115794775Y-98692244D01*
X115816028Y-98683484D01*
X115819143Y-98681800D01*
X115904656Y-98634789D01*
X115923650Y-98621783D01*
X115942767Y-98609082D01*
X115945496Y-98606825D01*
X116020248Y-98544100D01*
X116036343Y-98527665D01*
X116052638Y-98511483D01*
X116054876Y-98508739D01*
X116116022Y-98432689D01*
X116128618Y-98413440D01*
X116141461Y-98394400D01*
X116143123Y-98391274D01*
X116188334Y-98304794D01*
X116196952Y-98283463D01*
X116205850Y-98262296D01*
X116206874Y-98258906D01*
X116234426Y-98165294D01*
X116238732Y-98142722D01*
X116243355Y-98120199D01*
X116243700Y-98116675D01*
X116252544Y-98019492D01*
X116252384Y-97996476D01*
X116252495Y-97980507D01*
X117747456Y-97980507D01*
X117747617Y-98003491D01*
X117747456Y-98026475D01*
X117747801Y-98029999D01*
X117758001Y-98127047D01*
X117762625Y-98149571D01*
X117766930Y-98172140D01*
X117767953Y-98175530D01*
X117796809Y-98268749D01*
X117805736Y-98289985D01*
X117814328Y-98311251D01*
X117815990Y-98314377D01*
X117862403Y-98400215D01*
X117875234Y-98419238D01*
X117887841Y-98438503D01*
X117890079Y-98441247D01*
X117952281Y-98516436D01*
X117968612Y-98532653D01*
X117984671Y-98549052D01*
X117987399Y-98551310D01*
X118063020Y-98612986D01*
X118082163Y-98625704D01*
X118101132Y-98638693D01*
X118104247Y-98640377D01*
X118190408Y-98686189D01*
X118211668Y-98694951D01*
X118232783Y-98704001D01*
X118236165Y-98705049D01*
X118329583Y-98733254D01*
X118352155Y-98737723D01*
X118374615Y-98742497D01*
X118378137Y-98742868D01*
X118475254Y-98752390D01*
X118475255Y-98752390D01*
X118487541Y-98753600D01*
X133012459Y-98753600D01*
X133025244Y-98752341D01*
X133031727Y-98752341D01*
X133035248Y-98751971D01*
X133132223Y-98741094D01*
X133154733Y-98736309D01*
X133177254Y-98731850D01*
X133180637Y-98730803D01*
X133273652Y-98701297D01*
X133294775Y-98692244D01*
X133316028Y-98683484D01*
X133319143Y-98681800D01*
X133404656Y-98634789D01*
X133423650Y-98621783D01*
X133442767Y-98609082D01*
X133445496Y-98606825D01*
X133520248Y-98544100D01*
X133536343Y-98527665D01*
X133552638Y-98511483D01*
X133554876Y-98508739D01*
X133616022Y-98432689D01*
X133628618Y-98413440D01*
X133641461Y-98394400D01*
X133643123Y-98391274D01*
X133688334Y-98304794D01*
X133696952Y-98283463D01*
X133705850Y-98262296D01*
X133706874Y-98258906D01*
X133734426Y-98165294D01*
X133738732Y-98142722D01*
X133743355Y-98120199D01*
X133743700Y-98116675D01*
X133752544Y-98019492D01*
X133752384Y-97996476D01*
X133752544Y-97973526D01*
X133752199Y-97970001D01*
X133741999Y-97872953D01*
X133737378Y-97850442D01*
X133733070Y-97827860D01*
X133732047Y-97824470D01*
X133703191Y-97731251D01*
X133694269Y-97710027D01*
X133685672Y-97688749D01*
X133684010Y-97685622D01*
X133637597Y-97599785D01*
X133624750Y-97580738D01*
X133612159Y-97561497D01*
X133609921Y-97558753D01*
X133547719Y-97483564D01*
X133531388Y-97467347D01*
X133515329Y-97450948D01*
X133512601Y-97448690D01*
X133436980Y-97387014D01*
X133417819Y-97374284D01*
X133398867Y-97361307D01*
X133395753Y-97359623D01*
X133309592Y-97313811D01*
X133288336Y-97305050D01*
X133267217Y-97295998D01*
X133263835Y-97294951D01*
X133170417Y-97266746D01*
X133147845Y-97262277D01*
X133125385Y-97257503D01*
X133121863Y-97257132D01*
X133024746Y-97247610D01*
X133024745Y-97247610D01*
X133012459Y-97246400D01*
X118487541Y-97246400D01*
X118474756Y-97247659D01*
X118468273Y-97247659D01*
X118464752Y-97248029D01*
X118367777Y-97258906D01*
X118345267Y-97263691D01*
X118322746Y-97268150D01*
X118319363Y-97269197D01*
X118226348Y-97298703D01*
X118205218Y-97307760D01*
X118183971Y-97316517D01*
X118180856Y-97318201D01*
X118095344Y-97365211D01*
X118076334Y-97378228D01*
X118057233Y-97390918D01*
X118054504Y-97393175D01*
X117979752Y-97455900D01*
X117963674Y-97472319D01*
X117947362Y-97488517D01*
X117945124Y-97491261D01*
X117883978Y-97567311D01*
X117871382Y-97586560D01*
X117858539Y-97605600D01*
X117856877Y-97608726D01*
X117811667Y-97695205D01*
X117803051Y-97716531D01*
X117794150Y-97737705D01*
X117793126Y-97741094D01*
X117765574Y-97834706D01*
X117761262Y-97857309D01*
X117756646Y-97879801D01*
X117756300Y-97883325D01*
X117747456Y-97980507D01*
X116252495Y-97980507D01*
X116252544Y-97973526D01*
X116252199Y-97970001D01*
X116241999Y-97872953D01*
X116237378Y-97850442D01*
X116233070Y-97827860D01*
X116232047Y-97824470D01*
X116203191Y-97731251D01*
X116194269Y-97710027D01*
X116185672Y-97688749D01*
X116184010Y-97685622D01*
X116137597Y-97599785D01*
X116124750Y-97580738D01*
X116112159Y-97561497D01*
X116109921Y-97558753D01*
X116047719Y-97483564D01*
X116031388Y-97467347D01*
X116015329Y-97450948D01*
X116012601Y-97448690D01*
X115936980Y-97387014D01*
X115917819Y-97374284D01*
X115898867Y-97361307D01*
X115895753Y-97359623D01*
X115809592Y-97313811D01*
X115788336Y-97305050D01*
X115767217Y-97295998D01*
X115763835Y-97294951D01*
X115670417Y-97266746D01*
X115647845Y-97262277D01*
X115625385Y-97257503D01*
X115621863Y-97257132D01*
X115524746Y-97247610D01*
X115524745Y-97247610D01*
X115512459Y-97246400D01*
X110253600Y-97246400D01*
X110253600Y-95991706D01*
X112770000Y-95991706D01*
X112814813Y-95987292D01*
X112857905Y-95974221D01*
X112897618Y-95952994D01*
X112932427Y-95924427D01*
X112960994Y-95889618D01*
X112982221Y-95849905D01*
X112995292Y-95806813D01*
X112999706Y-95762000D01*
X112999706Y-94508615D01*
X133116237Y-94508615D01*
X133117700Y-94528423D01*
X133171856Y-94661430D01*
X133250920Y-94781316D01*
X133351853Y-94883474D01*
X133470777Y-94963978D01*
X133603121Y-95019734D01*
X133743800Y-95048600D01*
X134293800Y-95048600D01*
X134293800Y-94396200D01*
X134446200Y-94396200D01*
X134446200Y-95048600D01*
X134996200Y-95048600D01*
X135136879Y-95019734D01*
X135269223Y-94963978D01*
X135388147Y-94883474D01*
X135489080Y-94781316D01*
X135568144Y-94661430D01*
X135622300Y-94528423D01*
X135623763Y-94508615D01*
X137546237Y-94508615D01*
X137547700Y-94528423D01*
X137601856Y-94661430D01*
X137680920Y-94781316D01*
X137781853Y-94883474D01*
X137900777Y-94963978D01*
X138033121Y-95019734D01*
X138173800Y-95048600D01*
X138473800Y-95048600D01*
X138473800Y-94396200D01*
X138626200Y-94396200D01*
X138626200Y-95048600D01*
X138926200Y-95048600D01*
X139066879Y-95019734D01*
X139199223Y-94963978D01*
X139318147Y-94883474D01*
X139419080Y-94781316D01*
X139498144Y-94661430D01*
X139552300Y-94528423D01*
X139553763Y-94508615D01*
X139517112Y-94396200D01*
X138626200Y-94396200D01*
X138473800Y-94396200D01*
X137582888Y-94396200D01*
X137546237Y-94508615D01*
X135623763Y-94508615D01*
X135587112Y-94396200D01*
X134446200Y-94396200D01*
X134293800Y-94396200D01*
X133152888Y-94396200D01*
X133116237Y-94508615D01*
X112999706Y-94508615D01*
X112999706Y-94238000D01*
X112995292Y-94193187D01*
X112982221Y-94150095D01*
X112972221Y-94131385D01*
X133116237Y-94131385D01*
X133152888Y-94243800D01*
X134293800Y-94243800D01*
X134293800Y-93591400D01*
X134446200Y-93591400D01*
X134446200Y-94243800D01*
X135587112Y-94243800D01*
X135623763Y-94131385D01*
X137546237Y-94131385D01*
X137582888Y-94243800D01*
X138473800Y-94243800D01*
X138473800Y-93591400D01*
X138626200Y-93591400D01*
X138626200Y-94243800D01*
X139517112Y-94243800D01*
X139553763Y-94131385D01*
X139552300Y-94111577D01*
X139498144Y-93978570D01*
X139419080Y-93858684D01*
X139318147Y-93756526D01*
X139199223Y-93676022D01*
X139066879Y-93620266D01*
X138926200Y-93591400D01*
X138626200Y-93591400D01*
X138473800Y-93591400D01*
X138173800Y-93591400D01*
X138033121Y-93620266D01*
X137900777Y-93676022D01*
X137781853Y-93756526D01*
X137680920Y-93858684D01*
X137601856Y-93978570D01*
X137547700Y-94111577D01*
X137546237Y-94131385D01*
X135623763Y-94131385D01*
X135622300Y-94111577D01*
X135568144Y-93978570D01*
X135489080Y-93858684D01*
X135388147Y-93756526D01*
X135269223Y-93676022D01*
X135136879Y-93620266D01*
X134996200Y-93591400D01*
X134446200Y-93591400D01*
X134293800Y-93591400D01*
X133743800Y-93591400D01*
X133603121Y-93620266D01*
X133470777Y-93676022D01*
X133351853Y-93756526D01*
X133250920Y-93858684D01*
X133171856Y-93978570D01*
X133117700Y-94111577D01*
X133116237Y-94131385D01*
X112972221Y-94131385D01*
X112960994Y-94110382D01*
X112932427Y-94075573D01*
X112897618Y-94047006D01*
X112857905Y-94025779D01*
X112814813Y-94012708D01*
X112770000Y-94008294D01*
X110253600Y-94008294D01*
X110253600Y-93451706D01*
X112770000Y-93451706D01*
X112814813Y-93447292D01*
X112857905Y-93434221D01*
X112897618Y-93412994D01*
X112932427Y-93384427D01*
X112960994Y-93349618D01*
X112982221Y-93309905D01*
X112995292Y-93266813D01*
X112999706Y-93222000D01*
X112999706Y-92835475D01*
X134346400Y-92835475D01*
X134346400Y-92944525D01*
X134367674Y-93051479D01*
X134409406Y-93152228D01*
X134469991Y-93242900D01*
X134547100Y-93320009D01*
X134637772Y-93380594D01*
X134738521Y-93422326D01*
X134845475Y-93443600D01*
X134954525Y-93443600D01*
X135061479Y-93422326D01*
X135162228Y-93380594D01*
X135252900Y-93320009D01*
X135330009Y-93242900D01*
X135390594Y-93152228D01*
X135432326Y-93051479D01*
X135453600Y-92944525D01*
X135453600Y-92835475D01*
X135432326Y-92728521D01*
X135390594Y-92627772D01*
X135330009Y-92537100D01*
X135252900Y-92459991D01*
X135162228Y-92399406D01*
X135061479Y-92357674D01*
X134954525Y-92336400D01*
X134845475Y-92336400D01*
X134738521Y-92357674D01*
X134637772Y-92399406D01*
X134547100Y-92459991D01*
X134469991Y-92537100D01*
X134409406Y-92627772D01*
X134367674Y-92728521D01*
X134346400Y-92835475D01*
X112999706Y-92835475D01*
X112999706Y-91698000D01*
X112995292Y-91653187D01*
X112982221Y-91610095D01*
X112960994Y-91570382D01*
X112932427Y-91535573D01*
X112897618Y-91507006D01*
X112857905Y-91485779D01*
X112814813Y-91472708D01*
X112770000Y-91468294D01*
X110253600Y-91468294D01*
X110253600Y-90911706D01*
X112770000Y-90911706D01*
X112814813Y-90907292D01*
X112857905Y-90894221D01*
X112897618Y-90872994D01*
X112932427Y-90844427D01*
X112960994Y-90809618D01*
X112982221Y-90769905D01*
X112995292Y-90726813D01*
X112999706Y-90682000D01*
X112999706Y-89158000D01*
X112995292Y-89113187D01*
X112982221Y-89070095D01*
X112960994Y-89030382D01*
X112932427Y-88995573D01*
X112897618Y-88967006D01*
X112857905Y-88945779D01*
X112814813Y-88932708D01*
X112770000Y-88928294D01*
X110253600Y-88928294D01*
X110253600Y-88371706D01*
X112770000Y-88371706D01*
X112814813Y-88367292D01*
X112857905Y-88354221D01*
X112897618Y-88332994D01*
X112932427Y-88304427D01*
X112960994Y-88269618D01*
X112982221Y-88229905D01*
X112995292Y-88186813D01*
X112999706Y-88142000D01*
X112999706Y-87055475D01*
X134346400Y-87055475D01*
X134346400Y-87164525D01*
X134367674Y-87271479D01*
X134409406Y-87372228D01*
X134469991Y-87462900D01*
X134547100Y-87540009D01*
X134637772Y-87600594D01*
X134738521Y-87642326D01*
X134845475Y-87663600D01*
X134954525Y-87663600D01*
X135061479Y-87642326D01*
X135162228Y-87600594D01*
X135252900Y-87540009D01*
X135330009Y-87462900D01*
X135390594Y-87372228D01*
X135432326Y-87271479D01*
X135453600Y-87164525D01*
X135453600Y-87055475D01*
X135432326Y-86948521D01*
X135390594Y-86847772D01*
X135330009Y-86757100D01*
X135252900Y-86679991D01*
X135162228Y-86619406D01*
X135061479Y-86577674D01*
X134954525Y-86556400D01*
X134845475Y-86556400D01*
X134738521Y-86577674D01*
X134637772Y-86619406D01*
X134547100Y-86679991D01*
X134469991Y-86757100D01*
X134409406Y-86847772D01*
X134367674Y-86948521D01*
X134346400Y-87055475D01*
X112999706Y-87055475D01*
X112999706Y-86618000D01*
X112995292Y-86573187D01*
X112982221Y-86530095D01*
X112960994Y-86490382D01*
X112932427Y-86455573D01*
X112897618Y-86427006D01*
X112857905Y-86405779D01*
X112814813Y-86392708D01*
X112770000Y-86388294D01*
X110253600Y-86388294D01*
X110253600Y-85868615D01*
X133116237Y-85868615D01*
X133117700Y-85888423D01*
X133171856Y-86021430D01*
X133250920Y-86141316D01*
X133351853Y-86243474D01*
X133470777Y-86323978D01*
X133603121Y-86379734D01*
X133743800Y-86408600D01*
X134293800Y-86408600D01*
X134293800Y-85756200D01*
X134446200Y-85756200D01*
X134446200Y-86408600D01*
X134996200Y-86408600D01*
X135136879Y-86379734D01*
X135269223Y-86323978D01*
X135388147Y-86243474D01*
X135489080Y-86141316D01*
X135568144Y-86021430D01*
X135622300Y-85888423D01*
X135623763Y-85868615D01*
X137546237Y-85868615D01*
X137547700Y-85888423D01*
X137601856Y-86021430D01*
X137680920Y-86141316D01*
X137781853Y-86243474D01*
X137900777Y-86323978D01*
X138033121Y-86379734D01*
X138173800Y-86408600D01*
X138473800Y-86408600D01*
X138473800Y-85756200D01*
X138626200Y-85756200D01*
X138626200Y-86408600D01*
X138926200Y-86408600D01*
X139066879Y-86379734D01*
X139199223Y-86323978D01*
X139318147Y-86243474D01*
X139419080Y-86141316D01*
X139498144Y-86021430D01*
X139552300Y-85888423D01*
X139553763Y-85868615D01*
X139517112Y-85756200D01*
X138626200Y-85756200D01*
X138473800Y-85756200D01*
X137582888Y-85756200D01*
X137546237Y-85868615D01*
X135623763Y-85868615D01*
X135587112Y-85756200D01*
X134446200Y-85756200D01*
X134293800Y-85756200D01*
X133152888Y-85756200D01*
X133116237Y-85868615D01*
X110253600Y-85868615D01*
X110253600Y-85831706D01*
X112770000Y-85831706D01*
X112814813Y-85827292D01*
X112857905Y-85814221D01*
X112897618Y-85792994D01*
X112932427Y-85764427D01*
X112960994Y-85729618D01*
X112982221Y-85689905D01*
X112995292Y-85646813D01*
X112999706Y-85602000D01*
X112999706Y-85491385D01*
X133116237Y-85491385D01*
X133152888Y-85603800D01*
X134293800Y-85603800D01*
X134293800Y-84951400D01*
X134446200Y-84951400D01*
X134446200Y-85603800D01*
X135587112Y-85603800D01*
X135623763Y-85491385D01*
X137546237Y-85491385D01*
X137582888Y-85603800D01*
X138473800Y-85603800D01*
X138473800Y-84951400D01*
X138626200Y-84951400D01*
X138626200Y-85603800D01*
X139517112Y-85603800D01*
X139553763Y-85491385D01*
X139552300Y-85471577D01*
X139498144Y-85338570D01*
X139419080Y-85218684D01*
X139318147Y-85116526D01*
X139199223Y-85036022D01*
X139066879Y-84980266D01*
X138926200Y-84951400D01*
X138626200Y-84951400D01*
X138473800Y-84951400D01*
X138173800Y-84951400D01*
X138033121Y-84980266D01*
X137900777Y-85036022D01*
X137781853Y-85116526D01*
X137680920Y-85218684D01*
X137601856Y-85338570D01*
X137547700Y-85471577D01*
X137546237Y-85491385D01*
X135623763Y-85491385D01*
X135622300Y-85471577D01*
X135568144Y-85338570D01*
X135489080Y-85218684D01*
X135388147Y-85116526D01*
X135269223Y-85036022D01*
X135136879Y-84980266D01*
X134996200Y-84951400D01*
X134446200Y-84951400D01*
X134293800Y-84951400D01*
X133743800Y-84951400D01*
X133603121Y-84980266D01*
X133470777Y-85036022D01*
X133351853Y-85116526D01*
X133250920Y-85218684D01*
X133171856Y-85338570D01*
X133117700Y-85471577D01*
X133116237Y-85491385D01*
X112999706Y-85491385D01*
X112999706Y-84078000D01*
X112995292Y-84033187D01*
X112982221Y-83990095D01*
X112960994Y-83950382D01*
X112932427Y-83915573D01*
X112897618Y-83887006D01*
X112857905Y-83865779D01*
X112814813Y-83852708D01*
X112770000Y-83848294D01*
X110253600Y-83848294D01*
X110253600Y-82753600D01*
X115512459Y-82753600D01*
X115525244Y-82752341D01*
X115531727Y-82752341D01*
X115535248Y-82751971D01*
X115632223Y-82741094D01*
X115654733Y-82736309D01*
X115677254Y-82731850D01*
X115680637Y-82730803D01*
X115773652Y-82701297D01*
X115794775Y-82692244D01*
X115816028Y-82683484D01*
X115819143Y-82681800D01*
X115904656Y-82634789D01*
X115923650Y-82621783D01*
X115942767Y-82609082D01*
X115945496Y-82606825D01*
X116020248Y-82544100D01*
X116036343Y-82527665D01*
X116052638Y-82511483D01*
X116054876Y-82508739D01*
X116116022Y-82432689D01*
X116128618Y-82413440D01*
X116141461Y-82394400D01*
X116143123Y-82391274D01*
X116188334Y-82304794D01*
X116196952Y-82283463D01*
X116205850Y-82262296D01*
X116206874Y-82258906D01*
X116234426Y-82165294D01*
X116238732Y-82142722D01*
X116243355Y-82120199D01*
X116243700Y-82116675D01*
X116252544Y-82019492D01*
X116252384Y-81996476D01*
X116252495Y-81980507D01*
X117747456Y-81980507D01*
X117747617Y-82003491D01*
X117747456Y-82026475D01*
X117747801Y-82029999D01*
X117758001Y-82127047D01*
X117762625Y-82149571D01*
X117766930Y-82172140D01*
X117767953Y-82175530D01*
X117796809Y-82268749D01*
X117805736Y-82289985D01*
X117814328Y-82311251D01*
X117815990Y-82314377D01*
X117862403Y-82400215D01*
X117875234Y-82419238D01*
X117887841Y-82438503D01*
X117890079Y-82441247D01*
X117952281Y-82516436D01*
X117968612Y-82532653D01*
X117984671Y-82549052D01*
X117987399Y-82551310D01*
X118063020Y-82612986D01*
X118082163Y-82625704D01*
X118101132Y-82638693D01*
X118104247Y-82640377D01*
X118190408Y-82686189D01*
X118211668Y-82694951D01*
X118232783Y-82704001D01*
X118236165Y-82705049D01*
X118329583Y-82733254D01*
X118352155Y-82737723D01*
X118374615Y-82742497D01*
X118378137Y-82742868D01*
X118475254Y-82752390D01*
X118475255Y-82752390D01*
X118487541Y-82753600D01*
X133012459Y-82753600D01*
X133025244Y-82752341D01*
X133031727Y-82752341D01*
X133035248Y-82751971D01*
X133132223Y-82741094D01*
X133154733Y-82736309D01*
X133177254Y-82731850D01*
X133180637Y-82730803D01*
X133273652Y-82701297D01*
X133294775Y-82692244D01*
X133316028Y-82683484D01*
X133319143Y-82681800D01*
X133404656Y-82634789D01*
X133423650Y-82621783D01*
X133442767Y-82609082D01*
X133445496Y-82606825D01*
X133520248Y-82544100D01*
X133536343Y-82527665D01*
X133552638Y-82511483D01*
X133554876Y-82508739D01*
X133616022Y-82432689D01*
X133628618Y-82413440D01*
X133641461Y-82394400D01*
X133643123Y-82391274D01*
X133688334Y-82304794D01*
X133696952Y-82283463D01*
X133705850Y-82262296D01*
X133706874Y-82258906D01*
X133734426Y-82165294D01*
X133738732Y-82142722D01*
X133743355Y-82120199D01*
X133743700Y-82116675D01*
X133752544Y-82019492D01*
X133752384Y-81996476D01*
X133752495Y-81980507D01*
X135247456Y-81980507D01*
X135247617Y-82003491D01*
X135247456Y-82026475D01*
X135247801Y-82029999D01*
X135258001Y-82127047D01*
X135262625Y-82149571D01*
X135266930Y-82172140D01*
X135267953Y-82175530D01*
X135296809Y-82268749D01*
X135305736Y-82289985D01*
X135314328Y-82311251D01*
X135315990Y-82314377D01*
X135362403Y-82400215D01*
X135375234Y-82419238D01*
X135387841Y-82438503D01*
X135390079Y-82441247D01*
X135452281Y-82516436D01*
X135468612Y-82532653D01*
X135484671Y-82549052D01*
X135487399Y-82551310D01*
X135563020Y-82612986D01*
X135582163Y-82625704D01*
X135601132Y-82638693D01*
X135604247Y-82640377D01*
X135690408Y-82686189D01*
X135711668Y-82694951D01*
X135732783Y-82704001D01*
X135736165Y-82705049D01*
X135829583Y-82733254D01*
X135852155Y-82737723D01*
X135874615Y-82742497D01*
X135878137Y-82742868D01*
X135975254Y-82752390D01*
X135975255Y-82752390D01*
X135987541Y-82753600D01*
X139746400Y-82753600D01*
X139746401Y-97246400D01*
X135987541Y-97246400D01*
X135974756Y-97247659D01*
X135968273Y-97247659D01*
X135964752Y-97248029D01*
X135867777Y-97258906D01*
X135845267Y-97263691D01*
X135822746Y-97268150D01*
X135819363Y-97269197D01*
X135726348Y-97298703D01*
X135705218Y-97307760D01*
X135683971Y-97316517D01*
X135680856Y-97318201D01*
X135595344Y-97365211D01*
X135576334Y-97378228D01*
X135557233Y-97390918D01*
X135554504Y-97393175D01*
X135479752Y-97455900D01*
X135463674Y-97472319D01*
X135447362Y-97488517D01*
X135445124Y-97491261D01*
X135383978Y-97567311D01*
X135371382Y-97586560D01*
X135358539Y-97605600D01*
X135356877Y-97608726D01*
X135311667Y-97695205D01*
X135303051Y-97716531D01*
X135294150Y-97737705D01*
X135293126Y-97741094D01*
X135265574Y-97834706D01*
X135261262Y-97857309D01*
X135256646Y-97879801D01*
X135256300Y-97883325D01*
X135247456Y-97980507D01*
X135247617Y-98003491D01*
X135247456Y-98026475D01*
X135247801Y-98029999D01*
X135258001Y-98127047D01*
X135262625Y-98149571D01*
X135266930Y-98172140D01*
X135267953Y-98175530D01*
X135296809Y-98268749D01*
X135305736Y-98289985D01*
X135314328Y-98311251D01*
X135315990Y-98314377D01*
X135362403Y-98400215D01*
X135375234Y-98419238D01*
X135387841Y-98438503D01*
X135390079Y-98441247D01*
X135452281Y-98516436D01*
X135468612Y-98532653D01*
X135484671Y-98549052D01*
X135487399Y-98551310D01*
X135563020Y-98612986D01*
X135582163Y-98625704D01*
X135601132Y-98638693D01*
X135604247Y-98640377D01*
X135690408Y-98686189D01*
X135711668Y-98694951D01*
X135732783Y-98704001D01*
X135736165Y-98705049D01*
X135829583Y-98733254D01*
X135852155Y-98737723D01*
X135874615Y-98742497D01*
X135878137Y-98742868D01*
X135975254Y-98752390D01*
X135975255Y-98752390D01*
X135987541Y-98753600D01*
X140987541Y-98753600D01*
X141000000Y-98754827D01*
X141012459Y-98753600D01*
X141049714Y-98749931D01*
X141097518Y-98735429D01*
X141141574Y-98711881D01*
X141180190Y-98680190D01*
X141211881Y-98641574D01*
X141235429Y-98597518D01*
X141249931Y-98549714D01*
X141254827Y-98500000D01*
X141253600Y-98487541D01*
X141253600Y-81512459D01*
X141254827Y-81500000D01*
X141249931Y-81450286D01*
X141235429Y-81402482D01*
X141211881Y-81358426D01*
X141180190Y-81319810D01*
X141141574Y-81288119D01*
X141097518Y-81264571D01*
X141049714Y-81250069D01*
X141012459Y-81246400D01*
X141000000Y-81245173D01*
X140987541Y-81246400D01*
X135987541Y-81246400D01*
X135974756Y-81247659D01*
X135968273Y-81247659D01*
X135964752Y-81248029D01*
X135867777Y-81258906D01*
X135845267Y-81263691D01*
X135822746Y-81268150D01*
X135819363Y-81269197D01*
X135726348Y-81298703D01*
X135705218Y-81307760D01*
X135683971Y-81316517D01*
X135680856Y-81318201D01*
X135595344Y-81365211D01*
X135576334Y-81378228D01*
X135557233Y-81390918D01*
X135554504Y-81393175D01*
X135479752Y-81455900D01*
X135463674Y-81472319D01*
X135447362Y-81488517D01*
X135445124Y-81491261D01*
X135383978Y-81567311D01*
X135371382Y-81586560D01*
X135358539Y-81605600D01*
X135356877Y-81608726D01*
X135311667Y-81695205D01*
X135303051Y-81716531D01*
X135294150Y-81737705D01*
X135293126Y-81741094D01*
X135265574Y-81834706D01*
X135261262Y-81857309D01*
X135256646Y-81879801D01*
X135256300Y-81883325D01*
X135247456Y-81980507D01*
X133752495Y-81980507D01*
X133752544Y-81973526D01*
X133752199Y-81970001D01*
X133741999Y-81872953D01*
X133737378Y-81850442D01*
X133733070Y-81827860D01*
X133732047Y-81824470D01*
X133703191Y-81731251D01*
X133694269Y-81710027D01*
X133685672Y-81688749D01*
X133684010Y-81685622D01*
X133637597Y-81599785D01*
X133624750Y-81580738D01*
X133612159Y-81561497D01*
X133609921Y-81558753D01*
X133547719Y-81483564D01*
X133531388Y-81467347D01*
X133515329Y-81450948D01*
X133512601Y-81448690D01*
X133436980Y-81387014D01*
X133417819Y-81374284D01*
X133398867Y-81361307D01*
X133395753Y-81359623D01*
X133309592Y-81313811D01*
X133288336Y-81305050D01*
X133267217Y-81295998D01*
X133263835Y-81294951D01*
X133170417Y-81266746D01*
X133147845Y-81262277D01*
X133125385Y-81257503D01*
X133121863Y-81257132D01*
X133024746Y-81247610D01*
X133024745Y-81247610D01*
X133012459Y-81246400D01*
X118487541Y-81246400D01*
X118474756Y-81247659D01*
X118468273Y-81247659D01*
X118464752Y-81248029D01*
X118367777Y-81258906D01*
X118345267Y-81263691D01*
X118322746Y-81268150D01*
X118319363Y-81269197D01*
X118226348Y-81298703D01*
X118205218Y-81307760D01*
X118183971Y-81316517D01*
X118180856Y-81318201D01*
X118095344Y-81365211D01*
X118076334Y-81378228D01*
X118057233Y-81390918D01*
X118054504Y-81393175D01*
X117979752Y-81455900D01*
X117963674Y-81472319D01*
X117947362Y-81488517D01*
X117945124Y-81491261D01*
X117883978Y-81567311D01*
X117871382Y-81586560D01*
X117858539Y-81605600D01*
X117856877Y-81608726D01*
X117811667Y-81695205D01*
X117803051Y-81716531D01*
X117794150Y-81737705D01*
X117793126Y-81741094D01*
X117765574Y-81834706D01*
X117761262Y-81857309D01*
X117756646Y-81879801D01*
X117756300Y-81883325D01*
X117747456Y-81980507D01*
X116252495Y-81980507D01*
X116252544Y-81973526D01*
X116252199Y-81970001D01*
X116241999Y-81872953D01*
X116237378Y-81850442D01*
X116233070Y-81827860D01*
X116232047Y-81824470D01*
X116203191Y-81731251D01*
X116194269Y-81710027D01*
X116185672Y-81688749D01*
X116184010Y-81685622D01*
X116137597Y-81599785D01*
X116124750Y-81580738D01*
X116112159Y-81561497D01*
X116109921Y-81558753D01*
X116047719Y-81483564D01*
X116031388Y-81467347D01*
X116015329Y-81450948D01*
X116012601Y-81448690D01*
X115936980Y-81387014D01*
X115917819Y-81374284D01*
X115898867Y-81361307D01*
X115895753Y-81359623D01*
X115809592Y-81313811D01*
X115788336Y-81305050D01*
X115767217Y-81295998D01*
X115763835Y-81294951D01*
X115670417Y-81266746D01*
X115647845Y-81262277D01*
X115625385Y-81257503D01*
X115621863Y-81257132D01*
X115524746Y-81247610D01*
X115524745Y-81247610D01*
X115512459Y-81246400D01*
X109012459Y-81246400D01*
X109000000Y-81245173D01*
X108987541Y-81246400D01*
X108950286Y-81250069D01*
X108902482Y-81264571D01*
X108858426Y-81288119D01*
X108819810Y-81319810D01*
X108788119Y-81358426D01*
X108764571Y-81402482D01*
X108750069Y-81450286D01*
X108745173Y-81500000D01*
X107753600Y-81500000D01*
X107753600Y-80253600D01*
X142746400Y-80253600D01*
X142746401Y-99746400D01*
%TD*%
M02*
