M48
; DRILL file {KiCad 6.0.6+dfsg-1} date Fri 05 Aug 2022 15:04:03 +08
; FORMAT={-:-/ absolute / inch / decimal}
; #@! TF.CreationDate,2022-08-05T15:04:03+08:00
; #@! TF.GenerationSoftware,Kicad,Pcbnew,6.0.6+dfsg-1
; #@! TF.FileFunction,Plated,1,4,PTH
FMAT,2
INCH
; #@! TA.AperFunction,Plated,PTH,ViaDrill
T1C0.0138
; #@! TA.AperFunction,Plated,PTH,ComponentDrill
T2C0.0394
; #@! TA.AperFunction,Plated,PTH,ComponentDrill
T3C0.0472
%
G90
G05
T1
X4.35Y-3.275
X4.3504Y-3.7992
X4.4291Y-3.3366
X4.4291Y-3.376
X4.4528Y-3.689
X4.4595Y-3.5138
X4.4606Y-3.6496
X4.4798Y-3.6221
X4.5276Y-3.8091
X4.5571Y-3.4449
X4.5571Y-3.5925
X4.5965Y-3.6909
X4.6555Y-3.7008
X4.685Y-3.7894
X4.6949Y-3.7008
X4.7047Y-3.3563
X4.7047Y-3.4055
X4.7047Y-3.7598
X4.752Y-3.5748
X4.7638Y-3.6535
X4.7736Y-3.4547
X4.7795Y-3.5472
X4.8071Y-3.5748
X4.8228Y-3.3268
X4.8228Y-3.4547
X4.8228Y-3.6535
X4.8425Y-3.7795
X4.8661Y-3.6535
X4.874Y-3.4409
X4.875Y-3.8091
X4.9213Y-3.6024
X4.937Y-3.4646
X4.9508Y-3.6319
X4.9606Y-3.3268
X4.975Y-3.75
X5.0394Y-3.3268
X5.0681Y-3.5181
X5.0984Y-3.75
X5.1Y-3.8
X5.1083Y-3.6909
X5.1087Y-3.5181
X5.125Y-3.42
X5.175Y-3.42
X5.194Y-3.534
X5.2047Y-3.3851
X5.25Y-3.345
X5.2953Y-3.3071
X5.4724Y-3.3858
X5.4724Y-3.5433
X5.4724Y-3.7087
T2
X5.311Y-3.4055
X5.311Y-3.5039
X5.311Y-3.5827
X5.311Y-3.6811
T3
X5.3937Y-3.4528
X5.3937Y-3.6339
T2
G00X5.3642Y-3.313
M15
G01X5.4232Y-3.313
M16
G05
G00X5.3642Y-3.7736
M15
G01X5.4232Y-3.7736
M16
G05
T0
M30
