G04 #@! TF.GenerationSoftware,KiCad,Pcbnew,6.0.6+dfsg-1*
G04 #@! TF.CreationDate,2022-08-05T15:03:59+08:00*
G04 #@! TF.ProjectId,stlink,73746c69-6e6b-42e6-9b69-6361645f7063,d*
G04 #@! TF.SameCoordinates,Original*
G04 #@! TF.FileFunction,Copper,L3,Inr*
G04 #@! TF.FilePolarity,Positive*
%FSLAX46Y46*%
G04 Gerber Fmt 4.6, Leading zero omitted, Abs format (unit mm)*
G04 Created by KiCad (PCBNEW 6.0.6+dfsg-1) date 2022-08-05 15:03:59*
%MOMM*%
%LPD*%
G01*
G04 APERTURE LIST*
G04 #@! TA.AperFunction,ComponentPad*
%ADD10C,1.800000*%
G04 #@! TD*
G04 #@! TA.AperFunction,ComponentPad*
%ADD11O,3.500000X2.000000*%
G04 #@! TD*
G04 #@! TA.AperFunction,ComponentPad*
%ADD12C,2.200000*%
G04 #@! TD*
G04 #@! TA.AperFunction,ViaPad*
%ADD13C,0.700000*%
G04 #@! TD*
G04 APERTURE END LIST*
D10*
G04 #@! TO.N,VBUS*
G04 #@! TO.C,J1*
X134900000Y-86500000D03*
G04 #@! TO.N,D-*
X134900000Y-89000000D03*
G04 #@! TO.N,D+*
X134900000Y-91000000D03*
G04 #@! TO.N,GND*
X134900000Y-93500000D03*
D11*
X137000000Y-95850000D03*
X137000000Y-84150000D03*
D12*
X137000000Y-92300000D03*
X137000000Y-87700000D03*
G04 #@! TD*
D13*
G04 #@! TO.N,GND*
X133350000Y-84963000D03*
X139000000Y-86000000D03*
X139000000Y-90000000D03*
X134500000Y-84000000D03*
X121400000Y-90100000D03*
X139000000Y-94200000D03*
X113100000Y-93700000D03*
X115000000Y-96750000D03*
X123825000Y-96750000D03*
X122500000Y-87750000D03*
X131927600Y-89763600D03*
X129540000Y-96520000D03*
X115750000Y-91250000D03*
X119500000Y-85250000D03*
X132199941Y-85981394D03*
X121250000Y-87750000D03*
X115750000Y-87500000D03*
G04 #@! TO.N,+5V*
X110490000Y-83185000D03*
X128000000Y-84500000D03*
G04 #@! TO.N,+3V3*
X131445000Y-86868000D03*
X113786622Y-92000139D03*
X129750000Y-93750000D03*
X112500000Y-85750000D03*
X120700000Y-90800000D03*
X119500000Y-86500000D03*
X130175000Y-86868000D03*
X119500000Y-95500000D03*
X126365000Y-95250000D03*
X112500000Y-84750000D03*
G04 #@! TO.N,D-*
X128730000Y-89360000D03*
G04 #@! TO.N,D+*
X129760000Y-89360000D03*
G04 #@! TO.N,LED*
X116750000Y-93750000D03*
X123600000Y-92800000D03*
G04 #@! TO.N,T_DIO*
X113272402Y-89250000D03*
X125000000Y-91500000D03*
G04 #@! TO.N,T_CLK*
X125750000Y-92250000D03*
G04 #@! TO.N,CLK*
X126000000Y-84500000D03*
G04 #@! TO.N,T_RX*
X119250000Y-94000000D03*
X110500000Y-96500000D03*
G04 #@! TO.N,T_TX*
X118250000Y-94000000D03*
G04 #@! TO.N,T_RST*
X113300000Y-92700000D03*
X122500000Y-92800000D03*
G04 #@! TO.N,T_SWO*
X122100000Y-90800000D03*
G04 #@! TO.N,DIO*
X125400000Y-88000000D03*
G04 #@! TO.N,B0*
X122500000Y-84500000D03*
G04 #@! TO.N,RENUM*
X129500000Y-95250000D03*
X123800000Y-87400000D03*
G04 #@! TO.N,Net-(R10-Pad1)*
X121000000Y-92800000D03*
X119000000Y-96250000D03*
G04 #@! TO.N,Net-(JP1-Pad2)*
X123000000Y-96000000D03*
G04 #@! TD*
G04 #@! TA.AperFunction,Conductor*
G04 #@! TO.N,GND*
G36*
X110179039Y-82670493D02*
G01*
X110204759Y-82715042D01*
X110195826Y-82765700D01*
X110170828Y-82791699D01*
X110165239Y-82795225D01*
X110165235Y-82795228D01*
X110160709Y-82798084D01*
X110153550Y-82806190D01*
X110068897Y-82902041D01*
X110068895Y-82902044D01*
X110065351Y-82906057D01*
X110060614Y-82916147D01*
X110022249Y-82997861D01*
X110004129Y-83036454D01*
X110003305Y-83041744D01*
X110003305Y-83041745D01*
X110003203Y-83042401D01*
X109981967Y-83178793D01*
X109982661Y-83184100D01*
X109982661Y-83184103D01*
X109983159Y-83187909D01*
X110000645Y-83321630D01*
X110058662Y-83453484D01*
X110062107Y-83457582D01*
X110062108Y-83457584D01*
X110105799Y-83509561D01*
X110151354Y-83563755D01*
X110271270Y-83643577D01*
X110408769Y-83686535D01*
X110482871Y-83687893D01*
X110547436Y-83689077D01*
X110547438Y-83689077D01*
X110552798Y-83689175D01*
X110557969Y-83687765D01*
X110557971Y-83687765D01*
X110678196Y-83654988D01*
X110691779Y-83651285D01*
X110744871Y-83618686D01*
X110809970Y-83578716D01*
X110809973Y-83578714D01*
X110814539Y-83575910D01*
X110911210Y-83469110D01*
X110916795Y-83457584D01*
X110971682Y-83344296D01*
X110971682Y-83344295D01*
X110974020Y-83339470D01*
X110997919Y-83197413D01*
X110998071Y-83185000D01*
X110997571Y-83181508D01*
X110978409Y-83047704D01*
X110978408Y-83047700D01*
X110977649Y-83042401D01*
X110974697Y-83035907D01*
X110920245Y-82916147D01*
X110918026Y-82911266D01*
X110913538Y-82906057D01*
X110827487Y-82806190D01*
X110827484Y-82806187D01*
X110823993Y-82802136D01*
X110819502Y-82799225D01*
X110807127Y-82791204D01*
X110776134Y-82750149D01*
X110778781Y-82698777D01*
X110813830Y-82661126D01*
X110848029Y-82652900D01*
X115369409Y-82652900D01*
X115417747Y-82670493D01*
X115443467Y-82715042D01*
X115443684Y-82739860D01*
X115442078Y-82750000D01*
X115462043Y-82876055D01*
X115519984Y-82989771D01*
X115610229Y-83080016D01*
X115615505Y-83082704D01*
X115615506Y-83082705D01*
X115657652Y-83104179D01*
X115723945Y-83137957D01*
X115729792Y-83138883D01*
X115815374Y-83152438D01*
X115815376Y-83152438D01*
X115818292Y-83152900D01*
X115881708Y-83152900D01*
X115884624Y-83152438D01*
X115884626Y-83152438D01*
X115970208Y-83138883D01*
X115976055Y-83137957D01*
X116042348Y-83104179D01*
X116084494Y-83082705D01*
X116084495Y-83082704D01*
X116089771Y-83080016D01*
X116127833Y-83041954D01*
X116174453Y-83020214D01*
X116224140Y-83033528D01*
X116253645Y-83075665D01*
X116255281Y-83083363D01*
X116262043Y-83126055D01*
X116268579Y-83138883D01*
X116309421Y-83219039D01*
X116319984Y-83239771D01*
X116410229Y-83330016D01*
X116415505Y-83332704D01*
X116415506Y-83332705D01*
X116433963Y-83342109D01*
X116523945Y-83387957D01*
X116529792Y-83388883D01*
X116615374Y-83402438D01*
X116615376Y-83402438D01*
X116618292Y-83402900D01*
X116681708Y-83402900D01*
X116684624Y-83402438D01*
X116684626Y-83402438D01*
X116770208Y-83388883D01*
X116776055Y-83387957D01*
X116866037Y-83342109D01*
X116884494Y-83332705D01*
X116884495Y-83332704D01*
X116889771Y-83330016D01*
X116946826Y-83272961D01*
X116993446Y-83251221D01*
X117043133Y-83264535D01*
X117053174Y-83272961D01*
X117110229Y-83330016D01*
X117115505Y-83332704D01*
X117115506Y-83332705D01*
X117133963Y-83342109D01*
X117223945Y-83387957D01*
X117229792Y-83388883D01*
X117315374Y-83402438D01*
X117315376Y-83402438D01*
X117318292Y-83402900D01*
X117381708Y-83402900D01*
X117384624Y-83402438D01*
X117384626Y-83402438D01*
X117470208Y-83388883D01*
X117476055Y-83387957D01*
X117566037Y-83342109D01*
X117584494Y-83332705D01*
X117584495Y-83332704D01*
X117589771Y-83330016D01*
X117680016Y-83239771D01*
X117690580Y-83219039D01*
X117731421Y-83138883D01*
X117737957Y-83126055D01*
X117744719Y-83083363D01*
X117769658Y-83038373D01*
X117817681Y-83019939D01*
X117866318Y-83036687D01*
X117872167Y-83041954D01*
X117910229Y-83080016D01*
X117915505Y-83082704D01*
X117915506Y-83082705D01*
X117957652Y-83104179D01*
X118023945Y-83137957D01*
X118029792Y-83138883D01*
X118115374Y-83152438D01*
X118115376Y-83152438D01*
X118118292Y-83152900D01*
X118181708Y-83152900D01*
X118184624Y-83152438D01*
X118184626Y-83152438D01*
X118270208Y-83138883D01*
X118276055Y-83137957D01*
X118342348Y-83104179D01*
X118384494Y-83082705D01*
X118384495Y-83082704D01*
X118389771Y-83080016D01*
X118480016Y-82989771D01*
X118537957Y-82876055D01*
X118557922Y-82750000D01*
X118556316Y-82739861D01*
X118566133Y-82689367D01*
X118606111Y-82656996D01*
X118630591Y-82652900D01*
X132869409Y-82652900D01*
X132917747Y-82670493D01*
X132943467Y-82715042D01*
X132943684Y-82739860D01*
X132942078Y-82750000D01*
X132962043Y-82876055D01*
X133019984Y-82989771D01*
X133110229Y-83080016D01*
X133115505Y-83082704D01*
X133115506Y-83082705D01*
X133157652Y-83104179D01*
X133223945Y-83137957D01*
X133229792Y-83138883D01*
X133315374Y-83152438D01*
X133315376Y-83152438D01*
X133318292Y-83152900D01*
X133381708Y-83152900D01*
X133384624Y-83152438D01*
X133384626Y-83152438D01*
X133470208Y-83138883D01*
X133476055Y-83137957D01*
X133542348Y-83104179D01*
X133584494Y-83082705D01*
X133584495Y-83082704D01*
X133589771Y-83080016D01*
X133627833Y-83041954D01*
X133674453Y-83020214D01*
X133724140Y-83033528D01*
X133753645Y-83075665D01*
X133755281Y-83083363D01*
X133762043Y-83126055D01*
X133768579Y-83138883D01*
X133809421Y-83219039D01*
X133819984Y-83239771D01*
X133910229Y-83330016D01*
X133915505Y-83332704D01*
X133915506Y-83332705D01*
X133933963Y-83342109D01*
X134023945Y-83387957D01*
X134029792Y-83388883D01*
X134115374Y-83402438D01*
X134115376Y-83402438D01*
X134118292Y-83402900D01*
X134181708Y-83402900D01*
X134184624Y-83402438D01*
X134184626Y-83402438D01*
X134270208Y-83388883D01*
X134276055Y-83387957D01*
X134366037Y-83342109D01*
X134384494Y-83332705D01*
X134384495Y-83332704D01*
X134389771Y-83330016D01*
X134446826Y-83272961D01*
X134493446Y-83251221D01*
X134543133Y-83264535D01*
X134553174Y-83272961D01*
X134610229Y-83330016D01*
X134615505Y-83332704D01*
X134615506Y-83332705D01*
X134633963Y-83342109D01*
X134723945Y-83387957D01*
X134729792Y-83388883D01*
X134815374Y-83402438D01*
X134815376Y-83402438D01*
X134818292Y-83402900D01*
X134881708Y-83402900D01*
X134884624Y-83402438D01*
X134884626Y-83402438D01*
X134970208Y-83388883D01*
X134976055Y-83387957D01*
X135066037Y-83342109D01*
X135084494Y-83332705D01*
X135084495Y-83332704D01*
X135089771Y-83330016D01*
X135180016Y-83239771D01*
X135190580Y-83219039D01*
X135231421Y-83138883D01*
X135237957Y-83126055D01*
X135244719Y-83083363D01*
X135269658Y-83038373D01*
X135317681Y-83019939D01*
X135366318Y-83036687D01*
X135372167Y-83041954D01*
X135410229Y-83080016D01*
X135415505Y-83082704D01*
X135415506Y-83082705D01*
X135457652Y-83104179D01*
X135489113Y-83120209D01*
X135508425Y-83130049D01*
X135543507Y-83167670D01*
X135546199Y-83219039D01*
X135519279Y-83257307D01*
X135478354Y-83287867D01*
X135473250Y-83292463D01*
X135334161Y-83442929D01*
X135329986Y-83448369D01*
X135220642Y-83621668D01*
X135217528Y-83627782D01*
X135141602Y-83818090D01*
X135139648Y-83824685D01*
X135107841Y-83984595D01*
X135109485Y-83995279D01*
X135112100Y-83997572D01*
X135112249Y-83997600D01*
X136834341Y-83997600D01*
X136844498Y-83993903D01*
X136847600Y-83988531D01*
X136847600Y-83984341D01*
X137152400Y-83984341D01*
X137156097Y-83994498D01*
X137161469Y-83997600D01*
X138879926Y-83997600D01*
X138890083Y-83993903D01*
X138891984Y-83990611D01*
X138868485Y-83853851D01*
X138866710Y-83847229D01*
X138795788Y-83654988D01*
X138792831Y-83648790D01*
X138688069Y-83472699D01*
X138684031Y-83467141D01*
X138548934Y-83313092D01*
X138543949Y-83308361D01*
X138383036Y-83181508D01*
X138377281Y-83177771D01*
X138195941Y-83082363D01*
X138189609Y-83079740D01*
X137993913Y-83018975D01*
X137987203Y-83017549D01*
X137820856Y-82997861D01*
X137816435Y-82997600D01*
X137165659Y-82997600D01*
X137155502Y-83001297D01*
X137152400Y-83006669D01*
X137152400Y-83984341D01*
X136847600Y-83984341D01*
X136847600Y-83010859D01*
X136843903Y-83000702D01*
X136838531Y-82997600D01*
X136197985Y-82997600D01*
X136194571Y-82997756D01*
X136101002Y-83006354D01*
X136051257Y-82993257D01*
X136021569Y-82951249D01*
X136027118Y-82897328D01*
X136035269Y-82881331D01*
X136035270Y-82881328D01*
X136037957Y-82876055D01*
X136057922Y-82750000D01*
X136056316Y-82739861D01*
X136066133Y-82689367D01*
X136106111Y-82656996D01*
X136130591Y-82652900D01*
X138969968Y-82652900D01*
X138989430Y-82655462D01*
X139000000Y-82658294D01*
X139009562Y-82655732D01*
X139019462Y-82655732D01*
X139019462Y-82656419D01*
X139028336Y-82655691D01*
X139157892Y-82668451D01*
X139172348Y-82671327D01*
X139317083Y-82715232D01*
X139330698Y-82720871D01*
X139462284Y-82791204D01*
X139464093Y-82792171D01*
X139476351Y-82800362D01*
X139593265Y-82896312D01*
X139603688Y-82906735D01*
X139699638Y-83023649D01*
X139707828Y-83035906D01*
X139770363Y-83152900D01*
X139779128Y-83169299D01*
X139784768Y-83182917D01*
X139828119Y-83325826D01*
X139828673Y-83327651D01*
X139831549Y-83342108D01*
X139844058Y-83469110D01*
X139844309Y-83471663D01*
X139843581Y-83480538D01*
X139844268Y-83480538D01*
X139844268Y-83490438D01*
X139841706Y-83500000D01*
X139844268Y-83509561D01*
X139844538Y-83510569D01*
X139847100Y-83530032D01*
X139847100Y-96469968D01*
X139844538Y-96489430D01*
X139841706Y-96500000D01*
X139844268Y-96509562D01*
X139844268Y-96519462D01*
X139843581Y-96519462D01*
X139844309Y-96528336D01*
X139831886Y-96654470D01*
X139831549Y-96657891D01*
X139828673Y-96672348D01*
X139794771Y-96784110D01*
X139784769Y-96817081D01*
X139779129Y-96830698D01*
X139712365Y-96955607D01*
X139707829Y-96964093D01*
X139699638Y-96976351D01*
X139603688Y-97093265D01*
X139593265Y-97103688D01*
X139476351Y-97199638D01*
X139464094Y-97207828D01*
X139330698Y-97279129D01*
X139317083Y-97284768D01*
X139182265Y-97325665D01*
X139172349Y-97328673D01*
X139157892Y-97331549D01*
X139028336Y-97344309D01*
X139019462Y-97343581D01*
X139019462Y-97344268D01*
X139009562Y-97344268D01*
X139000000Y-97341706D01*
X138989431Y-97344538D01*
X138969968Y-97347100D01*
X136130591Y-97347100D01*
X136082253Y-97329507D01*
X136056533Y-97284958D01*
X136056316Y-97260139D01*
X136056996Y-97255845D01*
X136057922Y-97250000D01*
X136037957Y-97123945D01*
X136026722Y-97101895D01*
X136020453Y-97050839D01*
X136048470Y-97007698D01*
X136102564Y-96993076D01*
X136179142Y-97002139D01*
X136183565Y-97002400D01*
X136834341Y-97002400D01*
X136844498Y-96998703D01*
X136847600Y-96993331D01*
X136847600Y-96989141D01*
X137152400Y-96989141D01*
X137156097Y-96999298D01*
X137161469Y-97002400D01*
X137802015Y-97002400D01*
X137805429Y-97002244D01*
X137957475Y-96988272D01*
X137964227Y-96987021D01*
X138161436Y-96931402D01*
X138167843Y-96928943D01*
X138351614Y-96838317D01*
X138357472Y-96834727D01*
X138521646Y-96712133D01*
X138526750Y-96707537D01*
X138665839Y-96557071D01*
X138670014Y-96551631D01*
X138779358Y-96378332D01*
X138782472Y-96372218D01*
X138858398Y-96181910D01*
X138860352Y-96175315D01*
X138892159Y-96015405D01*
X138890515Y-96004721D01*
X138887900Y-96002428D01*
X138887751Y-96002400D01*
X137165659Y-96002400D01*
X137155502Y-96006097D01*
X137152400Y-96011469D01*
X137152400Y-96989141D01*
X136847600Y-96989141D01*
X136847600Y-96015659D01*
X136843903Y-96005502D01*
X136838531Y-96002400D01*
X135120074Y-96002400D01*
X135109917Y-96006097D01*
X135108016Y-96009389D01*
X135131515Y-96146149D01*
X135133290Y-96152771D01*
X135204212Y-96345012D01*
X135207169Y-96351210D01*
X135311931Y-96527301D01*
X135315969Y-96532859D01*
X135451066Y-96686908D01*
X135456051Y-96691639D01*
X135521747Y-96743429D01*
X135548815Y-96787171D01*
X135541434Y-96838079D01*
X135509331Y-96869489D01*
X135416798Y-96916637D01*
X135410229Y-96919984D01*
X135372167Y-96958046D01*
X135325547Y-96979786D01*
X135275860Y-96966472D01*
X135246355Y-96924335D01*
X135244719Y-96916637D01*
X135238883Y-96879791D01*
X135238883Y-96879790D01*
X135237957Y-96873945D01*
X135192184Y-96784110D01*
X135182705Y-96765506D01*
X135182704Y-96765505D01*
X135180016Y-96760229D01*
X135089771Y-96669984D01*
X134976055Y-96612043D01*
X134945040Y-96607131D01*
X134884626Y-96597562D01*
X134884624Y-96597562D01*
X134881708Y-96597100D01*
X134818292Y-96597100D01*
X134815376Y-96597562D01*
X134815374Y-96597562D01*
X134754960Y-96607131D01*
X134723945Y-96612043D01*
X134610229Y-96669984D01*
X134553174Y-96727039D01*
X134506554Y-96748779D01*
X134456867Y-96735465D01*
X134446826Y-96727039D01*
X134389771Y-96669984D01*
X134276055Y-96612043D01*
X134245040Y-96607131D01*
X134184626Y-96597562D01*
X134184624Y-96597562D01*
X134181708Y-96597100D01*
X134118292Y-96597100D01*
X134115376Y-96597562D01*
X134115374Y-96597562D01*
X134054960Y-96607131D01*
X134023945Y-96612043D01*
X133910229Y-96669984D01*
X133819984Y-96760229D01*
X133817296Y-96765505D01*
X133817295Y-96765506D01*
X133807816Y-96784110D01*
X133762043Y-96873945D01*
X133761117Y-96879790D01*
X133761117Y-96879791D01*
X133755281Y-96916637D01*
X133730342Y-96961627D01*
X133682319Y-96980061D01*
X133633682Y-96963313D01*
X133627833Y-96958046D01*
X133589771Y-96919984D01*
X133583203Y-96916637D01*
X133532710Y-96890910D01*
X133476055Y-96862043D01*
X133445040Y-96857131D01*
X133384626Y-96847562D01*
X133384624Y-96847562D01*
X133381708Y-96847100D01*
X133318292Y-96847100D01*
X133315376Y-96847562D01*
X133315374Y-96847562D01*
X133254960Y-96857131D01*
X133223945Y-96862043D01*
X133167290Y-96890910D01*
X133116798Y-96916637D01*
X133110229Y-96919984D01*
X133019984Y-97010229D01*
X132962043Y-97123945D01*
X132942078Y-97250000D01*
X132943004Y-97255845D01*
X132943684Y-97260139D01*
X132933867Y-97310633D01*
X132893889Y-97343004D01*
X132869409Y-97347100D01*
X118630591Y-97347100D01*
X118582253Y-97329507D01*
X118556533Y-97284958D01*
X118556316Y-97260139D01*
X118556996Y-97255845D01*
X118557922Y-97250000D01*
X118537957Y-97123945D01*
X118480016Y-97010229D01*
X118389771Y-96919984D01*
X118383203Y-96916637D01*
X118332710Y-96890910D01*
X118276055Y-96862043D01*
X118245040Y-96857131D01*
X118184626Y-96847562D01*
X118184624Y-96847562D01*
X118181708Y-96847100D01*
X118118292Y-96847100D01*
X118115376Y-96847562D01*
X118115374Y-96847562D01*
X118054960Y-96857131D01*
X118023945Y-96862043D01*
X117967290Y-96890910D01*
X117916798Y-96916637D01*
X117910229Y-96919984D01*
X117872167Y-96958046D01*
X117825547Y-96979786D01*
X117775860Y-96966472D01*
X117746355Y-96924335D01*
X117744719Y-96916637D01*
X117738883Y-96879791D01*
X117738883Y-96879790D01*
X117737957Y-96873945D01*
X117692184Y-96784110D01*
X117682705Y-96765506D01*
X117682704Y-96765505D01*
X117680016Y-96760229D01*
X117589771Y-96669984D01*
X117476055Y-96612043D01*
X117445040Y-96607131D01*
X117384626Y-96597562D01*
X117384624Y-96597562D01*
X117381708Y-96597100D01*
X117318292Y-96597100D01*
X117315376Y-96597562D01*
X117315374Y-96597562D01*
X117254960Y-96607131D01*
X117223945Y-96612043D01*
X117110229Y-96669984D01*
X117053174Y-96727039D01*
X117006554Y-96748779D01*
X116956867Y-96735465D01*
X116946826Y-96727039D01*
X116889771Y-96669984D01*
X116776055Y-96612043D01*
X116745040Y-96607131D01*
X116684626Y-96597562D01*
X116684624Y-96597562D01*
X116681708Y-96597100D01*
X116618292Y-96597100D01*
X116615376Y-96597562D01*
X116615374Y-96597562D01*
X116554960Y-96607131D01*
X116523945Y-96612043D01*
X116410229Y-96669984D01*
X116319984Y-96760229D01*
X116317296Y-96765505D01*
X116317295Y-96765506D01*
X116307816Y-96784110D01*
X116262043Y-96873945D01*
X116261117Y-96879790D01*
X116261117Y-96879791D01*
X116255281Y-96916637D01*
X116230342Y-96961627D01*
X116182319Y-96980061D01*
X116133682Y-96963313D01*
X116127833Y-96958046D01*
X116089771Y-96919984D01*
X116083203Y-96916637D01*
X116032710Y-96890910D01*
X115976055Y-96862043D01*
X115945040Y-96857131D01*
X115884626Y-96847562D01*
X115884624Y-96847562D01*
X115881708Y-96847100D01*
X115818292Y-96847100D01*
X115815376Y-96847562D01*
X115815374Y-96847562D01*
X115754960Y-96857131D01*
X115723945Y-96862043D01*
X115667290Y-96890910D01*
X115616798Y-96916637D01*
X115610229Y-96919984D01*
X115519984Y-97010229D01*
X115462043Y-97123945D01*
X115442078Y-97250000D01*
X115443004Y-97255845D01*
X115443684Y-97260139D01*
X115433867Y-97310633D01*
X115393889Y-97343004D01*
X115369409Y-97347100D01*
X109228100Y-97347100D01*
X109179762Y-97329507D01*
X109154042Y-97284958D01*
X109152900Y-97271900D01*
X109152900Y-96493793D01*
X109991967Y-96493793D01*
X109992661Y-96499100D01*
X109992661Y-96499103D01*
X110000784Y-96561220D01*
X110010645Y-96636630D01*
X110038953Y-96700964D01*
X110057638Y-96743429D01*
X110068662Y-96768484D01*
X110072107Y-96772582D01*
X110072108Y-96772584D01*
X110109512Y-96817081D01*
X110161354Y-96878755D01*
X110281270Y-96958577D01*
X110418769Y-97001535D01*
X110492871Y-97002893D01*
X110557436Y-97004077D01*
X110557438Y-97004077D01*
X110562798Y-97004175D01*
X110567969Y-97002765D01*
X110567971Y-97002765D01*
X110652257Y-96979786D01*
X110701779Y-96966285D01*
X110770101Y-96924335D01*
X110819970Y-96893716D01*
X110819973Y-96893714D01*
X110824539Y-96890910D01*
X110834604Y-96879791D01*
X110917612Y-96788085D01*
X110921210Y-96784110D01*
X110926795Y-96772584D01*
X110981682Y-96659296D01*
X110981682Y-96659295D01*
X110984020Y-96654470D01*
X111007919Y-96512413D01*
X111008071Y-96500000D01*
X111007659Y-96497120D01*
X110988409Y-96362704D01*
X110988408Y-96362700D01*
X110987649Y-96357401D01*
X110984835Y-96351210D01*
X110945766Y-96265283D01*
X110935995Y-96243793D01*
X118491967Y-96243793D01*
X118492661Y-96249100D01*
X118492661Y-96249103D01*
X118495732Y-96272584D01*
X118510645Y-96386630D01*
X118568662Y-96518484D01*
X118572107Y-96522582D01*
X118572108Y-96522584D01*
X118625923Y-96586604D01*
X118661354Y-96628755D01*
X118781270Y-96708577D01*
X118918769Y-96751535D01*
X118992871Y-96752893D01*
X119057436Y-96754077D01*
X119057438Y-96754077D01*
X119062798Y-96754175D01*
X119067969Y-96752765D01*
X119067971Y-96752765D01*
X119162333Y-96727039D01*
X119201779Y-96716285D01*
X119254871Y-96683686D01*
X119319970Y-96643716D01*
X119319973Y-96643714D01*
X119324539Y-96640910D01*
X119421210Y-96534110D01*
X119426795Y-96522584D01*
X119481682Y-96409296D01*
X119481682Y-96409295D01*
X119484020Y-96404470D01*
X119507919Y-96262413D01*
X119508071Y-96250000D01*
X119507183Y-96243793D01*
X119489043Y-96117136D01*
X119487649Y-96107401D01*
X119485430Y-96102521D01*
X119484806Y-96100386D01*
X119488127Y-96049053D01*
X119523666Y-96011865D01*
X119552217Y-96005469D01*
X119552126Y-96004738D01*
X119557437Y-96004077D01*
X119562798Y-96004175D01*
X119567969Y-96002765D01*
X119567971Y-96002765D01*
X119600879Y-95993793D01*
X122491967Y-95993793D01*
X122492661Y-95999100D01*
X122492661Y-95999103D01*
X122493498Y-96005502D01*
X122510645Y-96136630D01*
X122568662Y-96268484D01*
X122661354Y-96378755D01*
X122781270Y-96458577D01*
X122918769Y-96501535D01*
X122992871Y-96502893D01*
X123057436Y-96504077D01*
X123057438Y-96504077D01*
X123062798Y-96504175D01*
X123067969Y-96502765D01*
X123067971Y-96502765D01*
X123151953Y-96479869D01*
X123201779Y-96466285D01*
X123294595Y-96409296D01*
X123319970Y-96393716D01*
X123319973Y-96393714D01*
X123324539Y-96390910D01*
X123421210Y-96284110D01*
X123426795Y-96272584D01*
X123481682Y-96159296D01*
X123481682Y-96159295D01*
X123484020Y-96154470D01*
X123507919Y-96012413D01*
X123508071Y-96000000D01*
X123507659Y-95997120D01*
X123488409Y-95862704D01*
X123488408Y-95862700D01*
X123487649Y-95857401D01*
X123428026Y-95726266D01*
X123420640Y-95717694D01*
X123337487Y-95621190D01*
X123337484Y-95621187D01*
X123333993Y-95617136D01*
X123329502Y-95614225D01*
X123217604Y-95541697D01*
X123217603Y-95541697D01*
X123213111Y-95538785D01*
X123124930Y-95512413D01*
X123080232Y-95499045D01*
X123080229Y-95499045D01*
X123075098Y-95497510D01*
X123069743Y-95497477D01*
X123069741Y-95497477D01*
X123004524Y-95497079D01*
X122931047Y-95496630D01*
X122925897Y-95498102D01*
X122925896Y-95498102D01*
X122886015Y-95509500D01*
X122792539Y-95536215D01*
X122788013Y-95539071D01*
X122788010Y-95539072D01*
X122675237Y-95610227D01*
X122670709Y-95613084D01*
X122663550Y-95621190D01*
X122578897Y-95717041D01*
X122578895Y-95717044D01*
X122575351Y-95721057D01*
X122514129Y-95851454D01*
X122491967Y-95993793D01*
X119600879Y-95993793D01*
X119643695Y-95982120D01*
X119701779Y-95966285D01*
X119754871Y-95933686D01*
X119819970Y-95893716D01*
X119819973Y-95893714D01*
X119824539Y-95890910D01*
X119921210Y-95784110D01*
X119935714Y-95754175D01*
X119981682Y-95659296D01*
X119981682Y-95659295D01*
X119984020Y-95654470D01*
X120007919Y-95512413D01*
X120008071Y-95500000D01*
X120007659Y-95497120D01*
X119988409Y-95362704D01*
X119988408Y-95362700D01*
X119987649Y-95357401D01*
X119971403Y-95321668D01*
X119935995Y-95243793D01*
X125856967Y-95243793D01*
X125857661Y-95249100D01*
X125857661Y-95249103D01*
X125858159Y-95252909D01*
X125875645Y-95386630D01*
X125917580Y-95481935D01*
X125924061Y-95496663D01*
X125933662Y-95518484D01*
X125937107Y-95522582D01*
X125937108Y-95522584D01*
X125963391Y-95553851D01*
X126026354Y-95628755D01*
X126072236Y-95659296D01*
X126126293Y-95695279D01*
X126146270Y-95708577D01*
X126283769Y-95751535D01*
X126357871Y-95752893D01*
X126422436Y-95754077D01*
X126422438Y-95754077D01*
X126427798Y-95754175D01*
X126432969Y-95752765D01*
X126432971Y-95752765D01*
X126512265Y-95731147D01*
X126566779Y-95716285D01*
X126659595Y-95659296D01*
X126684970Y-95643716D01*
X126684973Y-95643714D01*
X126689539Y-95640910D01*
X126786210Y-95534110D01*
X126790777Y-95524685D01*
X126846682Y-95409296D01*
X126846682Y-95409295D01*
X126849020Y-95404470D01*
X126872919Y-95262413D01*
X126873071Y-95250000D01*
X126872659Y-95247120D01*
X126872183Y-95243793D01*
X128991967Y-95243793D01*
X128992661Y-95249100D01*
X128992661Y-95249103D01*
X128993159Y-95252909D01*
X129010645Y-95386630D01*
X129052580Y-95481935D01*
X129059061Y-95496663D01*
X129068662Y-95518484D01*
X129072107Y-95522582D01*
X129072108Y-95522584D01*
X129098391Y-95553851D01*
X129161354Y-95628755D01*
X129207236Y-95659296D01*
X129261293Y-95695279D01*
X129281270Y-95708577D01*
X129418769Y-95751535D01*
X129492871Y-95752893D01*
X129557436Y-95754077D01*
X129557438Y-95754077D01*
X129562798Y-95754175D01*
X129567969Y-95752765D01*
X129567971Y-95752765D01*
X129647265Y-95731147D01*
X129701779Y-95716285D01*
X129753391Y-95684595D01*
X135107841Y-95684595D01*
X135109485Y-95695279D01*
X135112100Y-95697572D01*
X135112249Y-95697600D01*
X136834341Y-95697600D01*
X136844498Y-95693903D01*
X136847600Y-95688531D01*
X136847600Y-95684341D01*
X137152400Y-95684341D01*
X137156097Y-95694498D01*
X137161469Y-95697600D01*
X138879926Y-95697600D01*
X138890083Y-95693903D01*
X138891984Y-95690611D01*
X138868485Y-95553851D01*
X138866710Y-95547229D01*
X138795788Y-95354988D01*
X138792831Y-95348790D01*
X138688069Y-95172699D01*
X138684031Y-95167141D01*
X138548934Y-95013092D01*
X138543949Y-95008361D01*
X138383036Y-94881508D01*
X138377281Y-94877771D01*
X138195941Y-94782363D01*
X138189609Y-94779740D01*
X137993913Y-94718975D01*
X137987203Y-94717549D01*
X137820856Y-94697861D01*
X137816435Y-94697600D01*
X137165659Y-94697600D01*
X137155502Y-94701297D01*
X137152400Y-94706669D01*
X137152400Y-95684341D01*
X136847600Y-95684341D01*
X136847600Y-94710859D01*
X136843903Y-94700702D01*
X136838531Y-94697600D01*
X136197985Y-94697600D01*
X136194571Y-94697756D01*
X136042525Y-94711728D01*
X136035773Y-94712979D01*
X135838564Y-94768598D01*
X135832157Y-94771057D01*
X135648386Y-94861683D01*
X135642528Y-94865273D01*
X135478354Y-94987867D01*
X135473250Y-94992463D01*
X135334161Y-95142929D01*
X135329986Y-95148369D01*
X135220642Y-95321668D01*
X135217528Y-95327782D01*
X135141602Y-95518090D01*
X135139648Y-95524685D01*
X135107841Y-95684595D01*
X129753391Y-95684595D01*
X129794595Y-95659296D01*
X129819970Y-95643716D01*
X129819973Y-95643714D01*
X129824539Y-95640910D01*
X129921210Y-95534110D01*
X129925777Y-95524685D01*
X129981682Y-95409296D01*
X129981682Y-95409295D01*
X129984020Y-95404470D01*
X130007919Y-95262413D01*
X130008071Y-95250000D01*
X130007659Y-95247120D01*
X129988409Y-95112704D01*
X129988408Y-95112700D01*
X129987649Y-95107401D01*
X129957776Y-95041697D01*
X129935390Y-94992463D01*
X129928026Y-94976266D01*
X129923538Y-94971057D01*
X129837487Y-94871190D01*
X129837484Y-94871187D01*
X129833993Y-94867136D01*
X129829502Y-94864225D01*
X129717604Y-94791697D01*
X129717603Y-94791697D01*
X129713111Y-94788785D01*
X129636912Y-94765997D01*
X129580232Y-94749045D01*
X129580229Y-94749045D01*
X129575098Y-94747510D01*
X129569743Y-94747477D01*
X129569741Y-94747477D01*
X129504524Y-94747079D01*
X129431047Y-94746630D01*
X129425897Y-94748102D01*
X129425896Y-94748102D01*
X129361793Y-94766423D01*
X129292539Y-94786215D01*
X129288013Y-94789071D01*
X129288010Y-94789072D01*
X129175237Y-94860227D01*
X129170709Y-94863084D01*
X129163550Y-94871190D01*
X129078897Y-94967041D01*
X129078895Y-94967044D01*
X129075351Y-94971057D01*
X129014129Y-95101454D01*
X129013305Y-95106744D01*
X129013305Y-95106745D01*
X129011693Y-95117097D01*
X128991967Y-95243793D01*
X126872183Y-95243793D01*
X126853409Y-95112704D01*
X126853408Y-95112700D01*
X126852649Y-95107401D01*
X126822776Y-95041697D01*
X126800390Y-94992463D01*
X126793026Y-94976266D01*
X126788538Y-94971057D01*
X126702487Y-94871190D01*
X126702484Y-94871187D01*
X126698993Y-94867136D01*
X126694502Y-94864225D01*
X126582604Y-94791697D01*
X126582603Y-94791697D01*
X126578111Y-94788785D01*
X126501912Y-94765997D01*
X126445232Y-94749045D01*
X126445229Y-94749045D01*
X126440098Y-94747510D01*
X126434743Y-94747477D01*
X126434741Y-94747477D01*
X126369524Y-94747079D01*
X126296047Y-94746630D01*
X126290897Y-94748102D01*
X126290896Y-94748102D01*
X126226793Y-94766423D01*
X126157539Y-94786215D01*
X126153013Y-94789071D01*
X126153010Y-94789072D01*
X126040237Y-94860227D01*
X126035709Y-94863084D01*
X126028550Y-94871190D01*
X125943897Y-94967041D01*
X125943895Y-94967044D01*
X125940351Y-94971057D01*
X125879129Y-95101454D01*
X125878305Y-95106744D01*
X125878305Y-95106745D01*
X125876693Y-95117097D01*
X125856967Y-95243793D01*
X119935995Y-95243793D01*
X119930245Y-95231147D01*
X119928026Y-95226266D01*
X119923538Y-95221057D01*
X119837487Y-95121190D01*
X119837484Y-95121187D01*
X119833993Y-95117136D01*
X119829502Y-95114225D01*
X119717604Y-95041697D01*
X119717603Y-95041697D01*
X119713111Y-95038785D01*
X119627200Y-95013092D01*
X119580232Y-94999045D01*
X119580229Y-94999045D01*
X119575098Y-94997510D01*
X119569743Y-94997477D01*
X119569741Y-94997477D01*
X119504524Y-94997079D01*
X119431047Y-94996630D01*
X119425897Y-94998102D01*
X119425896Y-94998102D01*
X119390000Y-95008361D01*
X119292539Y-95036215D01*
X119288013Y-95039071D01*
X119288010Y-95039072D01*
X119180756Y-95106745D01*
X119170709Y-95113084D01*
X119163550Y-95121190D01*
X119078897Y-95217041D01*
X119078895Y-95217044D01*
X119075351Y-95221057D01*
X119014129Y-95351454D01*
X119013305Y-95356744D01*
X119013305Y-95356745D01*
X119005942Y-95404037D01*
X118991967Y-95493793D01*
X118992661Y-95499100D01*
X118992661Y-95499103D01*
X118999820Y-95553851D01*
X119010645Y-95636630D01*
X119012806Y-95641541D01*
X119014244Y-95646692D01*
X119013044Y-95647027D01*
X119016031Y-95692545D01*
X118985617Y-95734030D01*
X118943377Y-95746705D01*
X118939641Y-95746683D01*
X118931047Y-95746630D01*
X118925897Y-95748102D01*
X118925896Y-95748102D01*
X118904990Y-95754077D01*
X118792539Y-95786215D01*
X118788013Y-95789071D01*
X118788010Y-95789072D01*
X118680756Y-95856745D01*
X118670709Y-95863084D01*
X118667164Y-95867097D01*
X118667165Y-95867097D01*
X118578897Y-95967041D01*
X118578895Y-95967044D01*
X118575351Y-95971057D01*
X118573075Y-95975905D01*
X118538732Y-96049053D01*
X118514129Y-96101454D01*
X118513305Y-96106744D01*
X118513305Y-96106745D01*
X118506139Y-96152771D01*
X118491967Y-96243793D01*
X110935995Y-96243793D01*
X110928026Y-96226266D01*
X110923538Y-96221057D01*
X110837487Y-96121190D01*
X110837484Y-96121187D01*
X110833993Y-96117136D01*
X110829502Y-96114225D01*
X110717604Y-96041697D01*
X110717603Y-96041697D01*
X110713111Y-96038785D01*
X110624930Y-96012413D01*
X110580232Y-95999045D01*
X110580229Y-95999045D01*
X110575098Y-95997510D01*
X110569743Y-95997477D01*
X110569741Y-95997477D01*
X110504524Y-95997079D01*
X110431047Y-95996630D01*
X110425897Y-95998102D01*
X110425896Y-95998102D01*
X110402677Y-96004738D01*
X110292539Y-96036215D01*
X110288013Y-96039071D01*
X110288010Y-96039072D01*
X110196822Y-96096608D01*
X110170709Y-96113084D01*
X110163550Y-96121190D01*
X110078897Y-96217041D01*
X110078895Y-96217044D01*
X110075351Y-96221057D01*
X110070614Y-96231147D01*
X110017154Y-96345012D01*
X110014129Y-96351454D01*
X110013305Y-96356744D01*
X110013305Y-96356745D01*
X110005942Y-96404037D01*
X109991967Y-96493793D01*
X109152900Y-96493793D01*
X109152900Y-93743793D01*
X116241967Y-93743793D01*
X116242661Y-93749100D01*
X116242661Y-93749103D01*
X116243159Y-93752909D01*
X116260645Y-93886630D01*
X116318662Y-94018484D01*
X116411354Y-94128755D01*
X116531270Y-94208577D01*
X116668769Y-94251535D01*
X116742871Y-94252893D01*
X116807436Y-94254077D01*
X116807438Y-94254077D01*
X116812798Y-94254175D01*
X116817969Y-94252765D01*
X116817971Y-94252765D01*
X116909501Y-94227811D01*
X116951779Y-94216285D01*
X117044595Y-94159296D01*
X117069970Y-94143716D01*
X117069973Y-94143714D01*
X117074539Y-94140910D01*
X117171210Y-94034110D01*
X117176795Y-94022584D01*
X117190744Y-93993793D01*
X117741967Y-93993793D01*
X117742661Y-93999100D01*
X117742661Y-93999103D01*
X117745732Y-94022584D01*
X117760645Y-94136630D01*
X117818662Y-94268484D01*
X117822107Y-94272582D01*
X117822108Y-94272584D01*
X117831797Y-94284110D01*
X117911354Y-94378755D01*
X118031270Y-94458577D01*
X118168769Y-94501535D01*
X118242871Y-94502893D01*
X118307436Y-94504077D01*
X118307438Y-94504077D01*
X118312798Y-94504175D01*
X118317969Y-94502765D01*
X118317971Y-94502765D01*
X118437477Y-94470184D01*
X118451779Y-94466285D01*
X118504871Y-94433686D01*
X118569970Y-94393716D01*
X118569973Y-94393714D01*
X118574539Y-94390910D01*
X118671210Y-94284110D01*
X118681127Y-94263641D01*
X118718037Y-94227811D01*
X118769342Y-94224089D01*
X118811036Y-94254216D01*
X118813903Y-94259402D01*
X118816504Y-94263580D01*
X118818662Y-94268484D01*
X118822107Y-94272582D01*
X118822108Y-94272584D01*
X118831797Y-94284110D01*
X118911354Y-94378755D01*
X119031270Y-94458577D01*
X119168769Y-94501535D01*
X119242871Y-94502893D01*
X119307436Y-94504077D01*
X119307438Y-94504077D01*
X119312798Y-94504175D01*
X119317969Y-94502765D01*
X119317971Y-94502765D01*
X119437477Y-94470184D01*
X119451779Y-94466285D01*
X119504871Y-94433686D01*
X119569970Y-94393716D01*
X119569973Y-94393714D01*
X119574539Y-94390910D01*
X119615089Y-94346111D01*
X134274646Y-94346111D01*
X134275920Y-94350865D01*
X134293681Y-94365981D01*
X134299679Y-94370150D01*
X134473423Y-94467251D01*
X134480136Y-94470184D01*
X134669421Y-94531686D01*
X134676569Y-94533258D01*
X134874196Y-94556824D01*
X134881528Y-94556977D01*
X135079964Y-94541708D01*
X135087173Y-94540437D01*
X135278870Y-94486915D01*
X135285703Y-94484264D01*
X135463347Y-94394530D01*
X135469533Y-94390605D01*
X135518335Y-94352476D01*
X135524065Y-94343307D01*
X135523457Y-94338984D01*
X134909377Y-93724903D01*
X134899578Y-93720334D01*
X134893587Y-93721939D01*
X134279215Y-94336312D01*
X134274646Y-94346111D01*
X119615089Y-94346111D01*
X119671210Y-94284110D01*
X119676795Y-94272584D01*
X119731682Y-94159296D01*
X119731682Y-94159295D01*
X119734020Y-94154470D01*
X119757919Y-94012413D01*
X119758071Y-94000000D01*
X119757659Y-93997120D01*
X119738409Y-93862704D01*
X119738408Y-93862700D01*
X119737649Y-93857401D01*
X119685995Y-93743793D01*
X129241967Y-93743793D01*
X129242661Y-93749100D01*
X129242661Y-93749103D01*
X129243159Y-93752909D01*
X129260645Y-93886630D01*
X129318662Y-94018484D01*
X129411354Y-94128755D01*
X129531270Y-94208577D01*
X129668769Y-94251535D01*
X129742871Y-94252893D01*
X129807436Y-94254077D01*
X129807438Y-94254077D01*
X129812798Y-94254175D01*
X129817969Y-94252765D01*
X129817971Y-94252765D01*
X129909501Y-94227811D01*
X129951779Y-94216285D01*
X130044595Y-94159296D01*
X130069970Y-94143716D01*
X130069973Y-94143714D01*
X130074539Y-94140910D01*
X130171210Y-94034110D01*
X130176795Y-94022584D01*
X130231682Y-93909296D01*
X130231682Y-93909295D01*
X130234020Y-93904470D01*
X130257919Y-93762413D01*
X130258071Y-93750000D01*
X130257602Y-93746724D01*
X130238409Y-93612704D01*
X130238408Y-93612700D01*
X130237649Y-93607401D01*
X130207776Y-93541697D01*
X130200242Y-93525128D01*
X130183773Y-93488906D01*
X133842919Y-93488906D01*
X133859573Y-93687231D01*
X133860895Y-93694433D01*
X133915755Y-93885753D01*
X133918451Y-93892562D01*
X134009427Y-94069580D01*
X134013393Y-94075735D01*
X134047313Y-94118532D01*
X134056522Y-94124197D01*
X134060928Y-94123546D01*
X134675097Y-93509377D01*
X134679272Y-93500422D01*
X135120334Y-93500422D01*
X135121939Y-93506413D01*
X135736668Y-94121141D01*
X135746467Y-94125710D01*
X135751317Y-94124411D01*
X135761718Y-94112360D01*
X135765943Y-94106372D01*
X135864249Y-93933322D01*
X135867229Y-93926627D01*
X135930051Y-93737780D01*
X135931674Y-93730635D01*
X135956816Y-93531616D01*
X135957109Y-93527424D01*
X135957463Y-93502099D01*
X135957287Y-93497907D01*
X135937712Y-93298266D01*
X135936288Y-93291079D01*
X135935487Y-93288425D01*
X136232331Y-93288425D01*
X136233302Y-93292050D01*
X136368718Y-93386869D01*
X136374385Y-93390141D01*
X136567039Y-93479978D01*
X136573190Y-93482217D01*
X136778521Y-93537235D01*
X136784963Y-93538371D01*
X136996731Y-93556898D01*
X137003269Y-93556898D01*
X137215037Y-93538371D01*
X137221479Y-93537235D01*
X137426810Y-93482217D01*
X137432961Y-93479978D01*
X137625615Y-93390141D01*
X137631282Y-93386869D01*
X137761615Y-93295608D01*
X137767815Y-93286755D01*
X137767488Y-93283014D01*
X137009377Y-92524903D01*
X136999578Y-92520334D01*
X136993587Y-92521939D01*
X136236900Y-93278626D01*
X136232331Y-93288425D01*
X135935487Y-93288425D01*
X135892948Y-93147527D01*
X135895820Y-93096167D01*
X135931033Y-93058669D01*
X135982111Y-93052579D01*
X136008073Y-93064193D01*
X136013246Y-93067815D01*
X136016986Y-93067488D01*
X136775097Y-92309377D01*
X136779272Y-92300422D01*
X137220334Y-92300422D01*
X137221939Y-92306413D01*
X137978626Y-93063100D01*
X137988425Y-93067669D01*
X137992050Y-93066698D01*
X138086869Y-92931282D01*
X138090141Y-92925615D01*
X138179978Y-92732961D01*
X138182217Y-92726810D01*
X138237235Y-92521479D01*
X138238371Y-92515037D01*
X138256898Y-92303269D01*
X138256898Y-92296731D01*
X138238371Y-92084963D01*
X138237235Y-92078521D01*
X138182217Y-91873190D01*
X138179978Y-91867039D01*
X138090141Y-91674385D01*
X138086869Y-91668718D01*
X137995608Y-91538385D01*
X137986755Y-91532185D01*
X137983014Y-91532512D01*
X137224903Y-92290623D01*
X137220334Y-92300422D01*
X136779272Y-92300422D01*
X136779666Y-92299578D01*
X136778061Y-92293587D01*
X136021374Y-91536900D01*
X136011575Y-91532331D01*
X136007950Y-91533302D01*
X135913131Y-91668718D01*
X135909859Y-91674385D01*
X135820022Y-91867039D01*
X135817783Y-91873190D01*
X135762765Y-92078521D01*
X135761629Y-92084963D01*
X135743102Y-92296731D01*
X135743102Y-92303269D01*
X135761629Y-92515037D01*
X135762765Y-92521479D01*
X135817783Y-92726810D01*
X135820022Y-92732961D01*
X135838022Y-92771561D01*
X135842506Y-92822805D01*
X135813001Y-92864942D01*
X135763314Y-92878256D01*
X135751014Y-92874283D01*
X135739356Y-92876171D01*
X135124903Y-93490623D01*
X135120334Y-93500422D01*
X134679272Y-93500422D01*
X134679666Y-93499578D01*
X134678061Y-93493587D01*
X134064008Y-92879535D01*
X134054209Y-92874966D01*
X134049549Y-92876214D01*
X134029813Y-92899734D01*
X134025677Y-92905775D01*
X133929796Y-93080183D01*
X133926909Y-93086919D01*
X133866730Y-93276628D01*
X133865207Y-93283793D01*
X133843022Y-93481573D01*
X133842919Y-93488906D01*
X130183773Y-93488906D01*
X130178026Y-93476266D01*
X130173538Y-93471057D01*
X130087487Y-93371190D01*
X130087484Y-93371187D01*
X130083993Y-93367136D01*
X130079502Y-93364225D01*
X129967604Y-93291697D01*
X129967603Y-93291697D01*
X129963111Y-93288785D01*
X129867450Y-93260176D01*
X129830232Y-93249045D01*
X129830229Y-93249045D01*
X129825098Y-93247510D01*
X129819743Y-93247477D01*
X129819741Y-93247477D01*
X129754524Y-93247079D01*
X129681047Y-93246630D01*
X129675897Y-93248102D01*
X129675896Y-93248102D01*
X129622085Y-93263481D01*
X129542539Y-93286215D01*
X129538013Y-93289071D01*
X129538010Y-93289072D01*
X129425237Y-93360227D01*
X129420709Y-93363084D01*
X129413550Y-93371190D01*
X129328897Y-93467041D01*
X129328895Y-93467044D01*
X129325351Y-93471057D01*
X129264129Y-93601454D01*
X129263305Y-93606744D01*
X129263305Y-93606745D01*
X129261693Y-93617097D01*
X129241967Y-93743793D01*
X119685995Y-93743793D01*
X119678026Y-93726266D01*
X119672915Y-93720334D01*
X119587487Y-93621190D01*
X119587484Y-93621187D01*
X119583993Y-93617136D01*
X119579502Y-93614225D01*
X119467604Y-93541697D01*
X119467603Y-93541697D01*
X119463111Y-93538785D01*
X119386912Y-93515997D01*
X119330232Y-93499045D01*
X119330229Y-93499045D01*
X119325098Y-93497510D01*
X119319743Y-93497477D01*
X119319741Y-93497477D01*
X119254524Y-93497079D01*
X119181047Y-93496630D01*
X119175897Y-93498102D01*
X119175896Y-93498102D01*
X119161911Y-93502099D01*
X119042539Y-93536215D01*
X119038013Y-93539071D01*
X119038010Y-93539072D01*
X118930756Y-93606745D01*
X118920709Y-93613084D01*
X118913550Y-93621190D01*
X118828897Y-93717041D01*
X118828895Y-93717044D01*
X118825351Y-93721057D01*
X118823075Y-93725904D01*
X118823072Y-93725909D01*
X118818468Y-93735715D01*
X118781998Y-93771992D01*
X118730742Y-93776340D01*
X118688684Y-93746724D01*
X118681946Y-93734888D01*
X118678026Y-93726266D01*
X118672915Y-93720334D01*
X118587487Y-93621190D01*
X118587484Y-93621187D01*
X118583993Y-93617136D01*
X118579502Y-93614225D01*
X118467604Y-93541697D01*
X118467603Y-93541697D01*
X118463111Y-93538785D01*
X118386912Y-93515997D01*
X118330232Y-93499045D01*
X118330229Y-93499045D01*
X118325098Y-93497510D01*
X118319743Y-93497477D01*
X118319741Y-93497477D01*
X118254524Y-93497079D01*
X118181047Y-93496630D01*
X118175897Y-93498102D01*
X118175896Y-93498102D01*
X118161911Y-93502099D01*
X118042539Y-93536215D01*
X118038013Y-93539071D01*
X118038010Y-93539072D01*
X117930756Y-93606745D01*
X117920709Y-93613084D01*
X117913550Y-93621190D01*
X117828897Y-93717041D01*
X117828895Y-93717044D01*
X117825351Y-93721057D01*
X117764129Y-93851454D01*
X117763305Y-93856744D01*
X117763305Y-93856745D01*
X117755942Y-93904037D01*
X117741967Y-93993793D01*
X117190744Y-93993793D01*
X117231682Y-93909296D01*
X117231682Y-93909295D01*
X117234020Y-93904470D01*
X117257919Y-93762413D01*
X117258071Y-93750000D01*
X117257602Y-93746724D01*
X117238409Y-93612704D01*
X117238408Y-93612700D01*
X117237649Y-93607401D01*
X117207776Y-93541697D01*
X117200242Y-93525128D01*
X117178026Y-93476266D01*
X117173538Y-93471057D01*
X117087487Y-93371190D01*
X117087484Y-93371187D01*
X117083993Y-93367136D01*
X117079502Y-93364225D01*
X116967604Y-93291697D01*
X116967603Y-93291697D01*
X116963111Y-93288785D01*
X116867450Y-93260176D01*
X116830232Y-93249045D01*
X116830229Y-93249045D01*
X116825098Y-93247510D01*
X116819743Y-93247477D01*
X116819741Y-93247477D01*
X116754524Y-93247079D01*
X116681047Y-93246630D01*
X116675897Y-93248102D01*
X116675896Y-93248102D01*
X116622085Y-93263481D01*
X116542539Y-93286215D01*
X116538013Y-93289071D01*
X116538010Y-93289072D01*
X116425237Y-93360227D01*
X116420709Y-93363084D01*
X116413550Y-93371190D01*
X116328897Y-93467041D01*
X116328895Y-93467044D01*
X116325351Y-93471057D01*
X116264129Y-93601454D01*
X116263305Y-93606744D01*
X116263305Y-93606745D01*
X116261693Y-93617097D01*
X116241967Y-93743793D01*
X109152900Y-93743793D01*
X109152900Y-92693793D01*
X112791967Y-92693793D01*
X112792661Y-92699100D01*
X112792661Y-92699103D01*
X112793159Y-92702909D01*
X112810645Y-92836630D01*
X112868662Y-92968484D01*
X112961354Y-93078755D01*
X113081270Y-93158577D01*
X113218769Y-93201535D01*
X113292871Y-93202893D01*
X113357436Y-93204077D01*
X113357438Y-93204077D01*
X113362798Y-93204175D01*
X113367969Y-93202765D01*
X113367971Y-93202765D01*
X113471081Y-93174654D01*
X113501779Y-93166285D01*
X113554871Y-93133686D01*
X113619970Y-93093716D01*
X113619973Y-93093714D01*
X113624539Y-93090910D01*
X113628152Y-93086919D01*
X113717612Y-92988085D01*
X113721210Y-92984110D01*
X113726795Y-92972584D01*
X113781682Y-92859296D01*
X113781682Y-92859295D01*
X113784020Y-92854470D01*
X113794228Y-92793793D01*
X120491967Y-92793793D01*
X120492661Y-92799100D01*
X120492661Y-92799103D01*
X120499210Y-92849184D01*
X120510645Y-92936630D01*
X120568662Y-93068484D01*
X120572107Y-93072582D01*
X120572108Y-93072584D01*
X120591932Y-93096167D01*
X120661354Y-93178755D01*
X120697424Y-93202765D01*
X120764595Y-93247477D01*
X120781270Y-93258577D01*
X120918769Y-93301535D01*
X120992871Y-93302893D01*
X121057436Y-93304077D01*
X121057438Y-93304077D01*
X121062798Y-93304175D01*
X121067969Y-93302765D01*
X121067971Y-93302765D01*
X121158584Y-93278061D01*
X121201779Y-93266285D01*
X121254871Y-93233686D01*
X121319970Y-93193716D01*
X121319973Y-93193714D01*
X121324539Y-93190910D01*
X121410297Y-93096167D01*
X121417612Y-93088085D01*
X121421210Y-93084110D01*
X121423805Y-93078755D01*
X121481682Y-92959296D01*
X121481682Y-92959295D01*
X121484020Y-92954470D01*
X121507919Y-92812413D01*
X121508071Y-92800000D01*
X121507659Y-92797120D01*
X121507183Y-92793793D01*
X121991967Y-92793793D01*
X121992661Y-92799100D01*
X121992661Y-92799103D01*
X121999210Y-92849184D01*
X122010645Y-92936630D01*
X122068662Y-93068484D01*
X122072107Y-93072582D01*
X122072108Y-93072584D01*
X122091932Y-93096167D01*
X122161354Y-93178755D01*
X122197424Y-93202765D01*
X122264595Y-93247477D01*
X122281270Y-93258577D01*
X122418769Y-93301535D01*
X122492871Y-93302893D01*
X122557436Y-93304077D01*
X122557438Y-93304077D01*
X122562798Y-93304175D01*
X122567969Y-93302765D01*
X122567971Y-93302765D01*
X122658584Y-93278061D01*
X122701779Y-93266285D01*
X122754871Y-93233686D01*
X122819970Y-93193716D01*
X122819973Y-93193714D01*
X122824539Y-93190910D01*
X122910297Y-93096167D01*
X122917612Y-93088085D01*
X122921210Y-93084110D01*
X122983534Y-92955473D01*
X123020440Y-92919646D01*
X123071745Y-92915923D01*
X123113440Y-92946049D01*
X123120037Y-92957976D01*
X123168662Y-93068484D01*
X123172107Y-93072582D01*
X123172108Y-93072584D01*
X123191932Y-93096167D01*
X123261354Y-93178755D01*
X123297424Y-93202765D01*
X123364595Y-93247477D01*
X123381270Y-93258577D01*
X123518769Y-93301535D01*
X123592871Y-93302893D01*
X123657436Y-93304077D01*
X123657438Y-93304077D01*
X123662798Y-93304175D01*
X123667969Y-93302765D01*
X123667971Y-93302765D01*
X123758584Y-93278061D01*
X123801779Y-93266285D01*
X123854871Y-93233686D01*
X123919970Y-93193716D01*
X123919973Y-93193714D01*
X123924539Y-93190910D01*
X124010297Y-93096167D01*
X124017612Y-93088085D01*
X124021210Y-93084110D01*
X124023805Y-93078755D01*
X124081682Y-92959296D01*
X124081682Y-92959295D01*
X124084020Y-92954470D01*
X124107919Y-92812413D01*
X124108071Y-92800000D01*
X124107659Y-92797120D01*
X124088409Y-92662704D01*
X124088408Y-92662700D01*
X124087649Y-92657401D01*
X124078344Y-92636934D01*
X124030245Y-92531147D01*
X124028026Y-92526266D01*
X124024298Y-92521939D01*
X123937487Y-92421190D01*
X123937484Y-92421187D01*
X123933993Y-92417136D01*
X123929502Y-92414225D01*
X123817604Y-92341697D01*
X123817603Y-92341697D01*
X123813111Y-92338785D01*
X123736912Y-92315997D01*
X123680232Y-92299045D01*
X123680229Y-92299045D01*
X123675098Y-92297510D01*
X123669743Y-92297477D01*
X123669741Y-92297477D01*
X123604524Y-92297079D01*
X123531047Y-92296630D01*
X123525897Y-92298102D01*
X123525896Y-92298102D01*
X123507817Y-92303269D01*
X123392539Y-92336215D01*
X123388013Y-92339071D01*
X123388010Y-92339072D01*
X123312636Y-92386630D01*
X123270709Y-92413084D01*
X123263668Y-92421057D01*
X123178897Y-92517041D01*
X123178895Y-92517044D01*
X123175351Y-92521057D01*
X123173075Y-92525905D01*
X123173073Y-92525908D01*
X123117667Y-92643918D01*
X123081198Y-92680196D01*
X123029942Y-92684545D01*
X122987883Y-92654930D01*
X122981140Y-92643084D01*
X122930245Y-92531147D01*
X122928026Y-92526266D01*
X122924298Y-92521939D01*
X122837487Y-92421190D01*
X122837484Y-92421187D01*
X122833993Y-92417136D01*
X122829502Y-92414225D01*
X122717604Y-92341697D01*
X122717603Y-92341697D01*
X122713111Y-92338785D01*
X122636912Y-92315997D01*
X122580232Y-92299045D01*
X122580229Y-92299045D01*
X122575098Y-92297510D01*
X122569743Y-92297477D01*
X122569741Y-92297477D01*
X122504524Y-92297079D01*
X122431047Y-92296630D01*
X122425897Y-92298102D01*
X122425896Y-92298102D01*
X122407817Y-92303269D01*
X122292539Y-92336215D01*
X122288013Y-92339071D01*
X122288010Y-92339072D01*
X122212636Y-92386630D01*
X122170709Y-92413084D01*
X122163668Y-92421057D01*
X122078897Y-92517041D01*
X122078895Y-92517044D01*
X122075351Y-92521057D01*
X122014129Y-92651454D01*
X122013305Y-92656744D01*
X122013305Y-92656745D01*
X122007537Y-92693793D01*
X121991967Y-92793793D01*
X121507183Y-92793793D01*
X121488409Y-92662704D01*
X121488408Y-92662700D01*
X121487649Y-92657401D01*
X121478344Y-92636934D01*
X121430245Y-92531147D01*
X121428026Y-92526266D01*
X121424298Y-92521939D01*
X121337487Y-92421190D01*
X121337484Y-92421187D01*
X121333993Y-92417136D01*
X121329502Y-92414225D01*
X121217604Y-92341697D01*
X121217603Y-92341697D01*
X121213111Y-92338785D01*
X121136912Y-92315997D01*
X121080232Y-92299045D01*
X121080229Y-92299045D01*
X121075098Y-92297510D01*
X121069743Y-92297477D01*
X121069741Y-92297477D01*
X121004524Y-92297079D01*
X120931047Y-92296630D01*
X120925897Y-92298102D01*
X120925896Y-92298102D01*
X120907817Y-92303269D01*
X120792539Y-92336215D01*
X120788013Y-92339071D01*
X120788010Y-92339072D01*
X120712636Y-92386630D01*
X120670709Y-92413084D01*
X120663668Y-92421057D01*
X120578897Y-92517041D01*
X120578895Y-92517044D01*
X120575351Y-92521057D01*
X120514129Y-92651454D01*
X120513305Y-92656744D01*
X120513305Y-92656745D01*
X120507537Y-92693793D01*
X120491967Y-92793793D01*
X113794228Y-92793793D01*
X113807919Y-92712413D01*
X113808071Y-92700000D01*
X113807183Y-92693793D01*
X113796246Y-92617430D01*
X113792012Y-92587868D01*
X113802574Y-92537525D01*
X113843026Y-92505750D01*
X113849421Y-92504318D01*
X113849420Y-92504314D01*
X113988401Y-92466424D01*
X114062072Y-92421190D01*
X114106592Y-92393855D01*
X114106595Y-92393853D01*
X114111161Y-92391049D01*
X114158209Y-92339072D01*
X114204234Y-92288224D01*
X114207832Y-92284249D01*
X114218412Y-92262413D01*
X114268304Y-92159435D01*
X114268304Y-92159434D01*
X114270642Y-92154609D01*
X114294541Y-92012552D01*
X114294693Y-92000139D01*
X114294281Y-91997259D01*
X114275031Y-91862843D01*
X114275030Y-91862839D01*
X114274271Y-91857540D01*
X114214648Y-91726405D01*
X114210160Y-91721196D01*
X114124109Y-91621329D01*
X114124106Y-91621326D01*
X114120615Y-91617275D01*
X114116124Y-91614364D01*
X114004226Y-91541836D01*
X114004225Y-91541836D01*
X113999733Y-91538924D01*
X113901347Y-91509500D01*
X113866854Y-91499184D01*
X113866851Y-91499184D01*
X113861720Y-91497649D01*
X113856365Y-91497616D01*
X113856363Y-91497616D01*
X113791146Y-91497218D01*
X113717669Y-91496769D01*
X113712519Y-91498241D01*
X113712518Y-91498241D01*
X113696185Y-91502909D01*
X113579161Y-91536354D01*
X113574635Y-91539210D01*
X113574632Y-91539211D01*
X113526068Y-91569853D01*
X113457331Y-91613223D01*
X113450172Y-91621329D01*
X113365519Y-91717180D01*
X113365517Y-91717183D01*
X113361973Y-91721196D01*
X113300751Y-91851593D01*
X113299927Y-91856883D01*
X113299927Y-91856884D01*
X113298346Y-91867039D01*
X113278589Y-91993932D01*
X113279283Y-91999239D01*
X113279283Y-91999242D01*
X113294199Y-92113308D01*
X113283022Y-92163518D01*
X113242184Y-92194797D01*
X113233921Y-92196648D01*
X113231047Y-92196630D01*
X113092539Y-92236215D01*
X113088013Y-92239071D01*
X113088010Y-92239072D01*
X112995392Y-92297510D01*
X112970709Y-92313084D01*
X112967164Y-92317097D01*
X112967165Y-92317097D01*
X112878897Y-92417041D01*
X112878895Y-92417044D01*
X112875351Y-92421057D01*
X112854051Y-92466424D01*
X112827684Y-92522584D01*
X112814129Y-92551454D01*
X112791967Y-92693793D01*
X109152900Y-92693793D01*
X109152900Y-91493793D01*
X124491967Y-91493793D01*
X124492661Y-91499100D01*
X124492661Y-91499103D01*
X124497906Y-91539211D01*
X124510645Y-91636630D01*
X124516169Y-91649184D01*
X124559061Y-91746663D01*
X124568662Y-91768484D01*
X124572107Y-91772582D01*
X124572108Y-91772584D01*
X124588174Y-91791697D01*
X124661354Y-91878755D01*
X124781270Y-91958577D01*
X124918769Y-92001535D01*
X124992871Y-92002893D01*
X125057436Y-92004077D01*
X125057438Y-92004077D01*
X125062798Y-92004175D01*
X125067969Y-92002765D01*
X125067971Y-92002765D01*
X125189041Y-91969758D01*
X125240305Y-91974018D01*
X125276836Y-92010232D01*
X125281543Y-92061456D01*
X125276892Y-92074270D01*
X125271872Y-92084963D01*
X125264129Y-92101454D01*
X125241967Y-92243793D01*
X125242661Y-92249100D01*
X125242661Y-92249103D01*
X125248889Y-92296731D01*
X125260645Y-92386630D01*
X125318662Y-92518484D01*
X125322107Y-92522582D01*
X125322108Y-92522584D01*
X125351375Y-92557401D01*
X125411354Y-92628755D01*
X125531270Y-92708577D01*
X125668769Y-92751535D01*
X125742871Y-92752893D01*
X125807436Y-92754077D01*
X125807438Y-92754077D01*
X125812798Y-92754175D01*
X125817969Y-92752765D01*
X125817971Y-92752765D01*
X125913173Y-92726810D01*
X125951779Y-92716285D01*
X126036458Y-92664292D01*
X126049457Y-92656311D01*
X134275636Y-92656311D01*
X134276331Y-92660804D01*
X134890623Y-93275097D01*
X134900422Y-93279666D01*
X134906413Y-93278061D01*
X135520181Y-92664292D01*
X135524750Y-92654493D01*
X135523526Y-92649925D01*
X135494172Y-92625640D01*
X135488113Y-92621553D01*
X135313027Y-92526885D01*
X135306283Y-92524050D01*
X135116149Y-92465194D01*
X135108982Y-92463723D01*
X134911038Y-92442918D01*
X134903725Y-92442867D01*
X134705504Y-92460906D01*
X134698318Y-92462277D01*
X134507387Y-92518471D01*
X134500600Y-92521213D01*
X134324210Y-92613427D01*
X134318093Y-92617430D01*
X134281235Y-92647065D01*
X134275636Y-92656311D01*
X126049457Y-92656311D01*
X126069970Y-92643716D01*
X126069973Y-92643714D01*
X126074539Y-92640910D01*
X126099416Y-92613427D01*
X126167612Y-92538085D01*
X126171210Y-92534110D01*
X126174711Y-92526885D01*
X126231682Y-92409296D01*
X126231682Y-92409295D01*
X126234020Y-92404470D01*
X126257919Y-92262413D01*
X126258071Y-92250000D01*
X126257659Y-92247120D01*
X126238409Y-92112704D01*
X126238408Y-92112700D01*
X126237649Y-92107401D01*
X126222962Y-92075097D01*
X126190074Y-92002765D01*
X126178026Y-91976266D01*
X126173183Y-91970645D01*
X126087487Y-91871190D01*
X126087484Y-91871187D01*
X126083993Y-91867136D01*
X126079502Y-91864225D01*
X125967604Y-91791697D01*
X125967603Y-91791697D01*
X125963111Y-91788785D01*
X125878180Y-91763385D01*
X125830232Y-91749045D01*
X125830229Y-91749045D01*
X125825098Y-91747510D01*
X125819743Y-91747477D01*
X125819741Y-91747477D01*
X125754524Y-91747079D01*
X125681047Y-91746630D01*
X125675897Y-91748102D01*
X125675896Y-91748102D01*
X125562164Y-91780606D01*
X125510853Y-91776973D01*
X125473882Y-91741207D01*
X125468550Y-91690044D01*
X125473822Y-91675519D01*
X125484020Y-91654470D01*
X125507919Y-91512413D01*
X125508071Y-91500000D01*
X125507613Y-91496802D01*
X125488409Y-91362704D01*
X125488408Y-91362700D01*
X125487649Y-91357401D01*
X125466814Y-91311575D01*
X125446221Y-91266285D01*
X125428026Y-91226266D01*
X125423538Y-91221057D01*
X125337487Y-91121190D01*
X125337484Y-91121187D01*
X125333993Y-91117136D01*
X125329502Y-91114225D01*
X125217604Y-91041697D01*
X125217603Y-91041697D01*
X125213111Y-91038785D01*
X125136912Y-91015997D01*
X125080232Y-90999045D01*
X125080229Y-90999045D01*
X125075098Y-90997510D01*
X125069743Y-90997477D01*
X125069741Y-90997477D01*
X125004524Y-90997079D01*
X124931047Y-90996630D01*
X124925897Y-90998102D01*
X124925896Y-90998102D01*
X124919255Y-91000000D01*
X124792539Y-91036215D01*
X124788013Y-91039071D01*
X124788010Y-91039072D01*
X124724277Y-91079285D01*
X124670709Y-91113084D01*
X124666559Y-91117783D01*
X124578897Y-91217041D01*
X124578895Y-91217044D01*
X124575351Y-91221057D01*
X124514129Y-91351454D01*
X124491967Y-91493793D01*
X109152900Y-91493793D01*
X109152900Y-90793793D01*
X120191967Y-90793793D01*
X120192661Y-90799100D01*
X120192661Y-90799103D01*
X120193159Y-90802909D01*
X120210645Y-90936630D01*
X120239452Y-91002099D01*
X120266146Y-91062765D01*
X120268662Y-91068484D01*
X120361354Y-91178755D01*
X120379732Y-91190988D01*
X120450182Y-91237883D01*
X120481270Y-91258577D01*
X120618769Y-91301535D01*
X120692871Y-91302893D01*
X120757436Y-91304077D01*
X120757438Y-91304077D01*
X120762798Y-91304175D01*
X120767969Y-91302765D01*
X120767971Y-91302765D01*
X120843695Y-91282120D01*
X120901779Y-91266285D01*
X120993678Y-91209859D01*
X121019970Y-91193716D01*
X121019973Y-91193714D01*
X121024539Y-91190910D01*
X121121210Y-91084110D01*
X121126795Y-91072584D01*
X121181682Y-90959296D01*
X121181682Y-90959295D01*
X121184020Y-90954470D01*
X121207919Y-90812413D01*
X121208071Y-90800000D01*
X121207659Y-90797120D01*
X121207183Y-90793793D01*
X121591967Y-90793793D01*
X121592661Y-90799100D01*
X121592661Y-90799103D01*
X121593159Y-90802909D01*
X121610645Y-90936630D01*
X121639452Y-91002099D01*
X121666146Y-91062765D01*
X121668662Y-91068484D01*
X121761354Y-91178755D01*
X121779732Y-91190988D01*
X121850182Y-91237883D01*
X121881270Y-91258577D01*
X122018769Y-91301535D01*
X122092871Y-91302893D01*
X122157436Y-91304077D01*
X122157438Y-91304077D01*
X122162798Y-91304175D01*
X122167969Y-91302765D01*
X122167971Y-91302765D01*
X122243695Y-91282120D01*
X122301779Y-91266285D01*
X122393678Y-91209859D01*
X122419970Y-91193716D01*
X122419973Y-91193714D01*
X122424539Y-91190910D01*
X122521210Y-91084110D01*
X122526795Y-91072584D01*
X122569118Y-90985228D01*
X133842108Y-90985228D01*
X133842416Y-90988896D01*
X133842416Y-90988899D01*
X133853239Y-91117783D01*
X133859386Y-91190988D01*
X133916301Y-91389474D01*
X134010685Y-91573125D01*
X134138942Y-91734945D01*
X134141736Y-91737323D01*
X134141737Y-91737324D01*
X134199184Y-91786215D01*
X134296188Y-91868772D01*
X134299389Y-91870561D01*
X134299392Y-91870563D01*
X134319361Y-91881723D01*
X134476433Y-91969507D01*
X134479934Y-91970644D01*
X134479935Y-91970645D01*
X134490316Y-91974018D01*
X134672811Y-92033314D01*
X134744999Y-92041922D01*
X134874185Y-92057327D01*
X134874187Y-92057327D01*
X134877843Y-92057763D01*
X135083719Y-92041922D01*
X135219264Y-92004077D01*
X135279052Y-91987384D01*
X135279054Y-91987383D01*
X135282597Y-91986394D01*
X135466902Y-91893295D01*
X135615787Y-91776973D01*
X135626715Y-91768435D01*
X135629614Y-91766170D01*
X135764535Y-91609863D01*
X135805140Y-91538385D01*
X135864711Y-91433522D01*
X135864712Y-91433521D01*
X135866527Y-91430325D01*
X135905474Y-91313245D01*
X136232185Y-91313245D01*
X136232512Y-91316986D01*
X136990623Y-92075097D01*
X137000422Y-92079666D01*
X137006413Y-92078061D01*
X137763100Y-91321374D01*
X137767669Y-91311575D01*
X137766698Y-91307950D01*
X137631282Y-91213131D01*
X137625615Y-91209859D01*
X137432961Y-91120022D01*
X137426810Y-91117783D01*
X137221479Y-91062765D01*
X137215037Y-91061629D01*
X137003269Y-91043102D01*
X136996731Y-91043102D01*
X136784963Y-91061629D01*
X136778521Y-91062765D01*
X136573190Y-91117783D01*
X136567039Y-91120022D01*
X136374385Y-91209859D01*
X136368718Y-91213131D01*
X136238385Y-91304392D01*
X136232185Y-91313245D01*
X135905474Y-91313245D01*
X135931703Y-91234397D01*
X135938358Y-91181723D01*
X135957319Y-91031630D01*
X135957583Y-91029541D01*
X135957995Y-91000000D01*
X135939884Y-90815283D01*
X135938206Y-90798168D01*
X135938205Y-90798163D01*
X135937846Y-90794501D01*
X135878165Y-90596829D01*
X135781227Y-90414515D01*
X135687052Y-90299045D01*
X135653045Y-90257349D01*
X135653044Y-90257348D01*
X135650722Y-90254501D01*
X135491623Y-90122882D01*
X135473364Y-90113009D01*
X135445726Y-90098066D01*
X135386689Y-90066144D01*
X135352538Y-90027678D01*
X135351102Y-89976258D01*
X135383053Y-89935945D01*
X135388551Y-89932873D01*
X135463618Y-89894954D01*
X135463619Y-89894953D01*
X135466902Y-89893295D01*
X135629614Y-89766170D01*
X135764535Y-89609863D01*
X135810310Y-89529285D01*
X135864711Y-89433522D01*
X135864712Y-89433521D01*
X135866527Y-89430325D01*
X135931703Y-89234397D01*
X135934602Y-89211454D01*
X135957319Y-89031630D01*
X135957583Y-89029541D01*
X135957995Y-89000000D01*
X135956151Y-88981190D01*
X135938206Y-88798168D01*
X135938205Y-88798163D01*
X135937846Y-88794501D01*
X135905820Y-88688425D01*
X136232331Y-88688425D01*
X136233302Y-88692050D01*
X136368718Y-88786869D01*
X136374385Y-88790141D01*
X136567039Y-88879978D01*
X136573190Y-88882217D01*
X136778521Y-88937235D01*
X136784963Y-88938371D01*
X136996731Y-88956898D01*
X137003269Y-88956898D01*
X137215037Y-88938371D01*
X137221479Y-88937235D01*
X137426810Y-88882217D01*
X137432961Y-88879978D01*
X137625615Y-88790141D01*
X137631282Y-88786869D01*
X137761615Y-88695608D01*
X137767815Y-88686755D01*
X137767488Y-88683014D01*
X137009377Y-87924903D01*
X136999578Y-87920334D01*
X136993587Y-87921939D01*
X136236900Y-88678626D01*
X136232331Y-88688425D01*
X135905820Y-88688425D01*
X135878165Y-88596829D01*
X135781227Y-88414515D01*
X135758733Y-88386934D01*
X135653045Y-88257349D01*
X135653044Y-88257348D01*
X135650722Y-88254501D01*
X135491623Y-88122882D01*
X135309990Y-88024673D01*
X135112739Y-87963614D01*
X134984065Y-87950090D01*
X134911041Y-87942415D01*
X134911039Y-87942415D01*
X134907386Y-87942031D01*
X134701752Y-87960745D01*
X134607438Y-87988503D01*
X134507197Y-88018005D01*
X134507194Y-88018006D01*
X134503668Y-88019044D01*
X134500411Y-88020747D01*
X134500408Y-88020748D01*
X134489557Y-88026421D01*
X134320681Y-88114708D01*
X134317815Y-88117013D01*
X134317814Y-88117013D01*
X134287309Y-88141540D01*
X134159760Y-88244091D01*
X134027034Y-88402268D01*
X133927559Y-88583211D01*
X133865125Y-88780030D01*
X133842108Y-88985228D01*
X133842416Y-88988896D01*
X133842416Y-88988899D01*
X133855036Y-89139187D01*
X133859386Y-89190988D01*
X133916301Y-89389474D01*
X134010685Y-89573125D01*
X134138942Y-89734945D01*
X134141736Y-89737323D01*
X134141737Y-89737324D01*
X134233719Y-89815607D01*
X134296188Y-89868772D01*
X134299389Y-89870561D01*
X134299392Y-89870563D01*
X134413988Y-89934608D01*
X134447600Y-89973548D01*
X134448318Y-90024983D01*
X134412143Y-90066892D01*
X134320681Y-90114708D01*
X134317815Y-90117013D01*
X134317814Y-90117013D01*
X134310515Y-90122882D01*
X134159760Y-90244091D01*
X134027034Y-90402268D01*
X134025263Y-90405490D01*
X134025262Y-90405491D01*
X134020301Y-90414515D01*
X133927559Y-90583211D01*
X133865125Y-90780030D01*
X133842108Y-90985228D01*
X122569118Y-90985228D01*
X122581682Y-90959296D01*
X122581682Y-90959295D01*
X122584020Y-90954470D01*
X122607919Y-90812413D01*
X122608071Y-90800000D01*
X122607659Y-90797120D01*
X122588409Y-90662704D01*
X122588408Y-90662700D01*
X122587649Y-90657401D01*
X122528026Y-90526266D01*
X122523538Y-90521057D01*
X122437487Y-90421190D01*
X122437484Y-90421187D01*
X122433993Y-90417136D01*
X122429502Y-90414225D01*
X122317604Y-90341697D01*
X122317603Y-90341697D01*
X122313111Y-90338785D01*
X122236912Y-90315997D01*
X122180232Y-90299045D01*
X122180229Y-90299045D01*
X122175098Y-90297510D01*
X122169743Y-90297477D01*
X122169741Y-90297477D01*
X122104524Y-90297079D01*
X122031047Y-90296630D01*
X122025897Y-90298102D01*
X122025896Y-90298102D01*
X121961793Y-90316423D01*
X121892539Y-90336215D01*
X121888013Y-90339071D01*
X121888010Y-90339072D01*
X121792313Y-90399453D01*
X121770709Y-90413084D01*
X121766581Y-90417758D01*
X121678897Y-90517041D01*
X121678895Y-90517044D01*
X121675351Y-90521057D01*
X121670614Y-90531147D01*
X121638123Y-90600350D01*
X121614129Y-90651454D01*
X121591967Y-90793793D01*
X121207183Y-90793793D01*
X121188409Y-90662704D01*
X121188408Y-90662700D01*
X121187649Y-90657401D01*
X121128026Y-90526266D01*
X121123538Y-90521057D01*
X121037487Y-90421190D01*
X121037484Y-90421187D01*
X121033993Y-90417136D01*
X121029502Y-90414225D01*
X120917604Y-90341697D01*
X120917603Y-90341697D01*
X120913111Y-90338785D01*
X120836912Y-90315997D01*
X120780232Y-90299045D01*
X120780229Y-90299045D01*
X120775098Y-90297510D01*
X120769743Y-90297477D01*
X120769741Y-90297477D01*
X120704524Y-90297079D01*
X120631047Y-90296630D01*
X120625897Y-90298102D01*
X120625896Y-90298102D01*
X120561793Y-90316423D01*
X120492539Y-90336215D01*
X120488013Y-90339071D01*
X120488010Y-90339072D01*
X120392313Y-90399453D01*
X120370709Y-90413084D01*
X120366581Y-90417758D01*
X120278897Y-90517041D01*
X120278895Y-90517044D01*
X120275351Y-90521057D01*
X120270614Y-90531147D01*
X120238123Y-90600350D01*
X120214129Y-90651454D01*
X120191967Y-90793793D01*
X109152900Y-90793793D01*
X109152900Y-89243793D01*
X112764369Y-89243793D01*
X112765063Y-89249100D01*
X112765063Y-89249103D01*
X112765561Y-89252909D01*
X112783047Y-89386630D01*
X112841064Y-89518484D01*
X112844509Y-89522582D01*
X112844510Y-89522584D01*
X112872063Y-89555362D01*
X112933756Y-89628755D01*
X113053672Y-89708577D01*
X113191171Y-89751535D01*
X113265273Y-89752893D01*
X113329838Y-89754077D01*
X113329840Y-89754077D01*
X113335200Y-89754175D01*
X113340371Y-89752765D01*
X113340373Y-89752765D01*
X113416292Y-89732067D01*
X113474181Y-89716285D01*
X113527273Y-89683686D01*
X113592372Y-89643716D01*
X113592375Y-89643714D01*
X113596941Y-89640910D01*
X113625044Y-89609863D01*
X113690014Y-89538085D01*
X113693612Y-89534110D01*
X113699197Y-89522584D01*
X113754084Y-89409296D01*
X113754084Y-89409295D01*
X113756422Y-89404470D01*
X113764948Y-89353793D01*
X128221967Y-89353793D01*
X128222661Y-89359100D01*
X128222661Y-89359103D01*
X128228594Y-89404470D01*
X128240645Y-89496630D01*
X128266488Y-89555362D01*
X128290469Y-89609863D01*
X128298662Y-89628484D01*
X128302107Y-89632582D01*
X128302108Y-89632584D01*
X128311797Y-89644110D01*
X128391354Y-89738755D01*
X128511270Y-89818577D01*
X128648769Y-89861535D01*
X128722871Y-89862893D01*
X128787436Y-89864077D01*
X128787438Y-89864077D01*
X128792798Y-89864175D01*
X128797969Y-89862765D01*
X128797971Y-89862765D01*
X128873695Y-89842120D01*
X128931779Y-89826285D01*
X129034222Y-89763385D01*
X129049970Y-89753716D01*
X129049973Y-89753714D01*
X129054539Y-89750910D01*
X129066837Y-89737324D01*
X129147612Y-89648085D01*
X129151210Y-89644110D01*
X129176850Y-89591189D01*
X129213756Y-89555362D01*
X129265061Y-89551639D01*
X129306756Y-89581765D01*
X129313352Y-89593690D01*
X129328662Y-89628484D01*
X129332107Y-89632582D01*
X129332108Y-89632584D01*
X129341797Y-89644110D01*
X129421354Y-89738755D01*
X129541270Y-89818577D01*
X129678769Y-89861535D01*
X129752871Y-89862893D01*
X129817436Y-89864077D01*
X129817438Y-89864077D01*
X129822798Y-89864175D01*
X129827969Y-89862765D01*
X129827971Y-89862765D01*
X129903695Y-89842120D01*
X129961779Y-89826285D01*
X130064222Y-89763385D01*
X130079970Y-89753716D01*
X130079973Y-89753714D01*
X130084539Y-89750910D01*
X130096837Y-89737324D01*
X130177612Y-89648085D01*
X130181210Y-89644110D01*
X130186795Y-89632584D01*
X130241682Y-89519296D01*
X130241682Y-89519295D01*
X130244020Y-89514470D01*
X130267919Y-89372413D01*
X130268071Y-89360000D01*
X130267659Y-89357120D01*
X130248409Y-89222704D01*
X130248408Y-89222700D01*
X130247649Y-89217401D01*
X130188026Y-89086266D01*
X130183538Y-89081057D01*
X130097487Y-88981190D01*
X130097484Y-88981187D01*
X130093993Y-88977136D01*
X130089502Y-88974225D01*
X129977604Y-88901697D01*
X129977603Y-88901697D01*
X129973111Y-88898785D01*
X129896912Y-88875997D01*
X129840232Y-88859045D01*
X129840229Y-88859045D01*
X129835098Y-88857510D01*
X129829743Y-88857477D01*
X129829741Y-88857477D01*
X129764524Y-88857079D01*
X129691047Y-88856630D01*
X129685897Y-88858102D01*
X129685896Y-88858102D01*
X129621793Y-88876423D01*
X129552539Y-88896215D01*
X129548013Y-88899071D01*
X129548010Y-88899072D01*
X129435237Y-88970227D01*
X129430709Y-88973084D01*
X129423588Y-88981147D01*
X129338897Y-89077041D01*
X129338895Y-89077044D01*
X129335351Y-89081057D01*
X129333075Y-89085904D01*
X129333074Y-89085906D01*
X129313228Y-89128176D01*
X129276759Y-89164454D01*
X129225503Y-89168802D01*
X129183444Y-89139187D01*
X129176705Y-89127349D01*
X129158026Y-89086266D01*
X129153538Y-89081057D01*
X129067487Y-88981190D01*
X129067484Y-88981187D01*
X129063993Y-88977136D01*
X129059502Y-88974225D01*
X128947604Y-88901697D01*
X128947603Y-88901697D01*
X128943111Y-88898785D01*
X128866912Y-88875997D01*
X128810232Y-88859045D01*
X128810229Y-88859045D01*
X128805098Y-88857510D01*
X128799743Y-88857477D01*
X128799741Y-88857477D01*
X128734524Y-88857079D01*
X128661047Y-88856630D01*
X128655897Y-88858102D01*
X128655896Y-88858102D01*
X128591793Y-88876423D01*
X128522539Y-88896215D01*
X128518013Y-88899071D01*
X128518010Y-88899072D01*
X128405237Y-88970227D01*
X128400709Y-88973084D01*
X128393588Y-88981147D01*
X128308897Y-89077041D01*
X128308895Y-89077044D01*
X128305351Y-89081057D01*
X128300615Y-89091144D01*
X128255460Y-89187321D01*
X128244129Y-89211454D01*
X128243305Y-89216744D01*
X128243305Y-89216745D01*
X128236648Y-89259500D01*
X128221967Y-89353793D01*
X113764948Y-89353793D01*
X113780321Y-89262413D01*
X113780473Y-89250000D01*
X113780061Y-89247120D01*
X113760811Y-89112704D01*
X113760810Y-89112700D01*
X113760051Y-89107401D01*
X113752660Y-89091144D01*
X113702647Y-88981147D01*
X113700428Y-88976266D01*
X113695940Y-88971057D01*
X113609889Y-88871190D01*
X113609886Y-88871187D01*
X113606395Y-88867136D01*
X113601904Y-88864225D01*
X113490006Y-88791697D01*
X113490005Y-88791697D01*
X113485513Y-88788785D01*
X113409314Y-88765997D01*
X113352634Y-88749045D01*
X113352631Y-88749045D01*
X113347500Y-88747510D01*
X113342145Y-88747477D01*
X113342143Y-88747477D01*
X113276926Y-88747079D01*
X113203449Y-88746630D01*
X113198299Y-88748102D01*
X113198298Y-88748102D01*
X113134195Y-88766422D01*
X113064941Y-88786215D01*
X113060415Y-88789071D01*
X113060412Y-88789072D01*
X112951945Y-88857510D01*
X112943111Y-88863084D01*
X112935952Y-88871190D01*
X112851299Y-88967041D01*
X112851297Y-88967044D01*
X112847753Y-88971057D01*
X112844917Y-88977097D01*
X112791372Y-89091144D01*
X112786531Y-89101454D01*
X112785707Y-89106744D01*
X112785707Y-89106745D01*
X112782370Y-89128176D01*
X112764369Y-89243793D01*
X109152900Y-89243793D01*
X109152900Y-87993793D01*
X124891967Y-87993793D01*
X124892661Y-87999100D01*
X124892661Y-87999103D01*
X124900784Y-88061220D01*
X124910645Y-88136630D01*
X124968662Y-88268484D01*
X125061354Y-88378755D01*
X125181270Y-88458577D01*
X125318769Y-88501535D01*
X125392871Y-88502893D01*
X125457436Y-88504077D01*
X125457438Y-88504077D01*
X125462798Y-88504175D01*
X125467969Y-88502765D01*
X125467971Y-88502765D01*
X125543695Y-88482120D01*
X125601779Y-88466285D01*
X125686095Y-88414515D01*
X125719970Y-88393716D01*
X125719973Y-88393714D01*
X125724539Y-88390910D01*
X125821210Y-88284110D01*
X125826795Y-88272584D01*
X125881682Y-88159296D01*
X125881682Y-88159295D01*
X125884020Y-88154470D01*
X125907919Y-88012413D01*
X125908071Y-88000000D01*
X125907659Y-87997120D01*
X125888409Y-87862704D01*
X125888408Y-87862700D01*
X125887649Y-87857401D01*
X125858694Y-87793716D01*
X125830245Y-87731147D01*
X125828026Y-87726266D01*
X125823538Y-87721057D01*
X125737487Y-87621190D01*
X125737484Y-87621187D01*
X125733993Y-87617136D01*
X125729502Y-87614225D01*
X125617604Y-87541697D01*
X125617603Y-87541697D01*
X125613111Y-87538785D01*
X125536912Y-87515997D01*
X125480232Y-87499045D01*
X125480229Y-87499045D01*
X125475098Y-87497510D01*
X125469743Y-87497477D01*
X125469741Y-87497477D01*
X125404524Y-87497079D01*
X125331047Y-87496630D01*
X125325897Y-87498102D01*
X125325896Y-87498102D01*
X125261793Y-87516422D01*
X125192539Y-87536215D01*
X125188013Y-87539071D01*
X125188010Y-87539072D01*
X125075237Y-87610227D01*
X125070709Y-87613084D01*
X125063550Y-87621190D01*
X124978897Y-87717041D01*
X124978895Y-87717044D01*
X124975351Y-87721057D01*
X124914129Y-87851454D01*
X124891967Y-87993793D01*
X109152900Y-87993793D01*
X109152900Y-87393793D01*
X123291967Y-87393793D01*
X123292661Y-87399100D01*
X123292661Y-87399103D01*
X123293159Y-87402909D01*
X123310645Y-87536630D01*
X123368662Y-87668484D01*
X123372107Y-87672582D01*
X123372108Y-87672584D01*
X123400544Y-87706413D01*
X123461354Y-87778755D01*
X123483830Y-87793716D01*
X123572177Y-87852524D01*
X123581270Y-87858577D01*
X123718769Y-87901535D01*
X123792871Y-87902893D01*
X123857436Y-87904077D01*
X123857438Y-87904077D01*
X123862798Y-87904175D01*
X123867969Y-87902765D01*
X123867971Y-87902765D01*
X123943695Y-87882120D01*
X124001779Y-87866285D01*
X124054871Y-87833686D01*
X124119970Y-87793716D01*
X124119973Y-87793714D01*
X124124539Y-87790910D01*
X124221210Y-87684110D01*
X124226795Y-87672584D01*
X124281682Y-87559296D01*
X124281682Y-87559295D01*
X124284020Y-87554470D01*
X124307919Y-87412413D01*
X124308071Y-87400000D01*
X124307659Y-87397120D01*
X124288409Y-87262704D01*
X124288408Y-87262700D01*
X124287649Y-87257401D01*
X124276131Y-87232067D01*
X124230245Y-87131147D01*
X124228026Y-87126266D01*
X124223538Y-87121057D01*
X124137487Y-87021190D01*
X124137484Y-87021187D01*
X124133993Y-87017136D01*
X124129502Y-87014225D01*
X124017604Y-86941697D01*
X124017603Y-86941697D01*
X124013111Y-86938785D01*
X123936912Y-86915997D01*
X123880232Y-86899045D01*
X123880229Y-86899045D01*
X123875098Y-86897510D01*
X123869743Y-86897477D01*
X123869741Y-86897477D01*
X123804524Y-86897079D01*
X123731047Y-86896630D01*
X123725897Y-86898102D01*
X123725896Y-86898102D01*
X123661793Y-86916423D01*
X123592539Y-86936215D01*
X123588013Y-86939071D01*
X123588010Y-86939072D01*
X123484984Y-87004077D01*
X123470709Y-87013084D01*
X123453732Y-87032307D01*
X123378897Y-87117041D01*
X123378895Y-87117044D01*
X123375351Y-87121057D01*
X123358905Y-87156085D01*
X123318261Y-87242654D01*
X123314129Y-87251454D01*
X123291967Y-87393793D01*
X109152900Y-87393793D01*
X109152900Y-86493793D01*
X118991967Y-86493793D01*
X118992661Y-86499100D01*
X118992661Y-86499103D01*
X118996915Y-86531630D01*
X119010645Y-86636630D01*
X119068662Y-86768484D01*
X119161354Y-86878755D01*
X119190419Y-86898102D01*
X119258359Y-86943326D01*
X119281270Y-86958577D01*
X119418769Y-87001535D01*
X119492871Y-87002893D01*
X119557436Y-87004077D01*
X119557438Y-87004077D01*
X119562798Y-87004175D01*
X119567969Y-87002765D01*
X119567971Y-87002765D01*
X119643695Y-86982120D01*
X119701779Y-86966285D01*
X119757316Y-86932185D01*
X119819970Y-86893716D01*
X119819973Y-86893714D01*
X119824539Y-86890910D01*
X119829040Y-86885938D01*
X119850895Y-86861793D01*
X129666967Y-86861793D01*
X129667661Y-86867100D01*
X129667661Y-86867103D01*
X129671715Y-86898102D01*
X129685645Y-87004630D01*
X129716338Y-87074385D01*
X129741314Y-87131147D01*
X129743662Y-87136484D01*
X129836354Y-87246755D01*
X129956270Y-87326577D01*
X130093769Y-87369535D01*
X130167871Y-87370893D01*
X130232436Y-87372077D01*
X130232438Y-87372077D01*
X130237798Y-87372175D01*
X130242969Y-87370765D01*
X130242971Y-87370765D01*
X130318695Y-87350120D01*
X130376779Y-87334285D01*
X130429871Y-87301686D01*
X130494970Y-87261716D01*
X130494973Y-87261714D01*
X130499539Y-87258910D01*
X130596210Y-87152110D01*
X130601795Y-87140584D01*
X130656682Y-87027296D01*
X130656682Y-87027295D01*
X130659020Y-87022470D01*
X130682919Y-86880413D01*
X130683071Y-86868000D01*
X130682659Y-86865120D01*
X130682183Y-86861793D01*
X130936967Y-86861793D01*
X130937661Y-86867100D01*
X130937661Y-86867103D01*
X130941715Y-86898102D01*
X130955645Y-87004630D01*
X130986338Y-87074385D01*
X131011314Y-87131147D01*
X131013662Y-87136484D01*
X131106354Y-87246755D01*
X131226270Y-87326577D01*
X131363769Y-87369535D01*
X131437871Y-87370893D01*
X131502436Y-87372077D01*
X131502438Y-87372077D01*
X131507798Y-87372175D01*
X131512969Y-87370765D01*
X131512971Y-87370765D01*
X131588695Y-87350120D01*
X131646779Y-87334285D01*
X131699871Y-87301686D01*
X131764970Y-87261716D01*
X131764973Y-87261714D01*
X131769539Y-87258910D01*
X131866210Y-87152110D01*
X131871795Y-87140584D01*
X131926682Y-87027296D01*
X131926682Y-87027295D01*
X131929020Y-87022470D01*
X131952919Y-86880413D01*
X131953071Y-86868000D01*
X131952659Y-86865120D01*
X131933409Y-86730704D01*
X131933408Y-86730700D01*
X131932649Y-86725401D01*
X131917003Y-86690988D01*
X131881603Y-86613131D01*
X131873026Y-86594266D01*
X131868538Y-86589057D01*
X131782487Y-86489190D01*
X131782484Y-86489187D01*
X131779072Y-86485228D01*
X133842108Y-86485228D01*
X133842416Y-86488896D01*
X133842416Y-86488899D01*
X133856725Y-86659296D01*
X133859386Y-86690988D01*
X133881608Y-86768484D01*
X133912868Y-86877500D01*
X133916301Y-86889474D01*
X134010685Y-87073125D01*
X134138942Y-87234945D01*
X134141736Y-87237323D01*
X134141737Y-87237324D01*
X134243119Y-87323607D01*
X134296188Y-87368772D01*
X134299389Y-87370561D01*
X134299392Y-87370563D01*
X134374275Y-87412413D01*
X134476433Y-87469507D01*
X134479934Y-87470644D01*
X134479935Y-87470645D01*
X134504175Y-87478521D01*
X134672811Y-87533314D01*
X134744999Y-87541922D01*
X134874185Y-87557327D01*
X134874187Y-87557327D01*
X134877843Y-87557763D01*
X135083719Y-87541922D01*
X135203757Y-87508407D01*
X135279052Y-87487384D01*
X135279054Y-87487383D01*
X135282597Y-87486394D01*
X135429055Y-87412413D01*
X135463618Y-87394954D01*
X135463619Y-87394953D01*
X135466902Y-87393295D01*
X135629614Y-87266170D01*
X135691667Y-87194281D01*
X135736570Y-87169185D01*
X135787099Y-87178824D01*
X135819610Y-87218687D01*
X135819257Y-87269141D01*
X135817783Y-87273190D01*
X135762765Y-87478521D01*
X135761629Y-87484963D01*
X135743102Y-87696731D01*
X135743102Y-87703269D01*
X135761629Y-87915037D01*
X135762765Y-87921479D01*
X135817783Y-88126810D01*
X135820022Y-88132961D01*
X135909859Y-88325615D01*
X135913131Y-88331282D01*
X136004392Y-88461615D01*
X136013245Y-88467815D01*
X136016986Y-88467488D01*
X136775097Y-87709377D01*
X136779272Y-87700422D01*
X137220334Y-87700422D01*
X137221939Y-87706413D01*
X137978626Y-88463100D01*
X137988425Y-88467669D01*
X137992050Y-88466698D01*
X138086869Y-88331282D01*
X138090141Y-88325615D01*
X138179978Y-88132961D01*
X138182217Y-88126810D01*
X138237235Y-87921479D01*
X138238371Y-87915037D01*
X138256898Y-87703269D01*
X138256898Y-87696731D01*
X138238371Y-87484963D01*
X138237235Y-87478521D01*
X138182217Y-87273190D01*
X138179978Y-87267039D01*
X138090141Y-87074385D01*
X138086869Y-87068718D01*
X137995608Y-86938385D01*
X137986755Y-86932185D01*
X137983014Y-86932512D01*
X137224903Y-87690623D01*
X137220334Y-87700422D01*
X136779272Y-87700422D01*
X136779666Y-87699578D01*
X136778061Y-87693587D01*
X136021374Y-86936900D01*
X136011575Y-86932331D01*
X135988328Y-86938560D01*
X135987753Y-86936413D01*
X135972929Y-86943326D01*
X135923242Y-86930012D01*
X135893737Y-86887875D01*
X135895019Y-86844676D01*
X135930543Y-86737886D01*
X135930544Y-86737880D01*
X135931703Y-86734397D01*
X135932840Y-86725401D01*
X135934376Y-86713245D01*
X136232185Y-86713245D01*
X136232512Y-86716986D01*
X136990623Y-87475097D01*
X137000422Y-87479666D01*
X137006413Y-87478061D01*
X137763100Y-86721374D01*
X137767669Y-86711575D01*
X137766698Y-86707950D01*
X137631282Y-86613131D01*
X137625615Y-86609859D01*
X137432961Y-86520022D01*
X137426810Y-86517783D01*
X137221479Y-86462765D01*
X137215037Y-86461629D01*
X137003269Y-86443102D01*
X136996731Y-86443102D01*
X136784963Y-86461629D01*
X136778521Y-86462765D01*
X136573190Y-86517783D01*
X136567039Y-86520022D01*
X136374385Y-86609859D01*
X136368718Y-86613131D01*
X136238385Y-86704392D01*
X136232185Y-86713245D01*
X135934376Y-86713245D01*
X135957319Y-86531630D01*
X135957583Y-86529541D01*
X135957863Y-86509500D01*
X135957966Y-86502099D01*
X135957966Y-86502094D01*
X135957995Y-86500000D01*
X135957713Y-86497120D01*
X135938206Y-86298168D01*
X135938205Y-86298163D01*
X135937846Y-86294501D01*
X135878165Y-86096829D01*
X135781227Y-85914515D01*
X135776971Y-85909296D01*
X135653045Y-85757349D01*
X135653044Y-85757348D01*
X135650722Y-85754501D01*
X135491623Y-85622882D01*
X135472800Y-85612704D01*
X135432740Y-85591044D01*
X135309990Y-85524673D01*
X135112739Y-85463614D01*
X134984065Y-85450090D01*
X134911041Y-85442415D01*
X134911039Y-85442415D01*
X134907386Y-85442031D01*
X134701752Y-85460745D01*
X134632432Y-85481147D01*
X134507197Y-85518005D01*
X134507194Y-85518006D01*
X134503668Y-85519044D01*
X134500411Y-85520747D01*
X134500408Y-85520748D01*
X134324514Y-85612704D01*
X134320681Y-85614708D01*
X134317815Y-85617013D01*
X134317814Y-85617013D01*
X134310515Y-85622882D01*
X134159760Y-85744091D01*
X134027034Y-85902268D01*
X133927559Y-86083211D01*
X133865125Y-86280030D01*
X133842108Y-86485228D01*
X131779072Y-86485228D01*
X131778993Y-86485136D01*
X131773485Y-86481566D01*
X131662604Y-86409697D01*
X131662603Y-86409697D01*
X131658111Y-86406785D01*
X131581912Y-86383997D01*
X131525232Y-86367045D01*
X131525229Y-86367045D01*
X131520098Y-86365510D01*
X131514743Y-86365477D01*
X131514741Y-86365477D01*
X131449524Y-86365079D01*
X131376047Y-86364630D01*
X131370897Y-86366102D01*
X131370896Y-86366102D01*
X131306793Y-86384422D01*
X131237539Y-86404215D01*
X131233013Y-86407071D01*
X131233010Y-86407072D01*
X131146543Y-86461629D01*
X131115709Y-86481084D01*
X131112049Y-86485228D01*
X131023897Y-86585041D01*
X131023895Y-86585044D01*
X131020351Y-86589057D01*
X131015614Y-86599147D01*
X130966201Y-86704392D01*
X130959129Y-86719454D01*
X130936967Y-86861793D01*
X130682183Y-86861793D01*
X130663409Y-86730704D01*
X130663408Y-86730700D01*
X130662649Y-86725401D01*
X130647003Y-86690988D01*
X130611603Y-86613131D01*
X130603026Y-86594266D01*
X130598538Y-86589057D01*
X130512487Y-86489190D01*
X130512484Y-86489187D01*
X130508993Y-86485136D01*
X130503485Y-86481566D01*
X130392604Y-86409697D01*
X130392603Y-86409697D01*
X130388111Y-86406785D01*
X130311912Y-86383997D01*
X130255232Y-86367045D01*
X130255229Y-86367045D01*
X130250098Y-86365510D01*
X130244743Y-86365477D01*
X130244741Y-86365477D01*
X130179524Y-86365079D01*
X130106047Y-86364630D01*
X130100897Y-86366102D01*
X130100896Y-86366102D01*
X130036793Y-86384422D01*
X129967539Y-86404215D01*
X129963013Y-86407071D01*
X129963010Y-86407072D01*
X129876543Y-86461629D01*
X129845709Y-86481084D01*
X129842049Y-86485228D01*
X129753897Y-86585041D01*
X129753895Y-86585044D01*
X129750351Y-86589057D01*
X129745614Y-86599147D01*
X129696201Y-86704392D01*
X129689129Y-86719454D01*
X129666967Y-86861793D01*
X119850895Y-86861793D01*
X119917612Y-86788085D01*
X119921210Y-86784110D01*
X119926795Y-86772584D01*
X119981682Y-86659296D01*
X119981682Y-86659295D01*
X119984020Y-86654470D01*
X120007919Y-86512413D01*
X120008071Y-86500000D01*
X120007659Y-86497120D01*
X119988409Y-86362704D01*
X119988408Y-86362700D01*
X119987649Y-86357401D01*
X119928026Y-86226266D01*
X119920640Y-86217694D01*
X119837487Y-86121190D01*
X119837484Y-86121187D01*
X119833993Y-86117136D01*
X119829502Y-86114225D01*
X119717604Y-86041697D01*
X119717603Y-86041697D01*
X119713111Y-86038785D01*
X119628832Y-86013580D01*
X119580232Y-85999045D01*
X119580229Y-85999045D01*
X119575098Y-85997510D01*
X119569743Y-85997477D01*
X119569741Y-85997477D01*
X119504524Y-85997079D01*
X119431047Y-85996630D01*
X119425897Y-85998102D01*
X119425896Y-85998102D01*
X119371739Y-86013580D01*
X119292539Y-86036215D01*
X119288013Y-86039071D01*
X119288010Y-86039072D01*
X119190891Y-86100350D01*
X119170709Y-86113084D01*
X119163550Y-86121190D01*
X119078897Y-86217041D01*
X119078895Y-86217044D01*
X119075351Y-86221057D01*
X119014129Y-86351454D01*
X119013305Y-86356744D01*
X119013305Y-86356745D01*
X119006143Y-86402743D01*
X118991967Y-86493793D01*
X109152900Y-86493793D01*
X109152900Y-85743793D01*
X111991967Y-85743793D01*
X111992661Y-85749100D01*
X111992661Y-85749103D01*
X111994021Y-85759500D01*
X112010645Y-85886630D01*
X112021663Y-85911670D01*
X112059061Y-85996663D01*
X112068662Y-86018484D01*
X112072107Y-86022582D01*
X112072108Y-86022584D01*
X112085968Y-86039072D01*
X112161354Y-86128755D01*
X112281270Y-86208577D01*
X112418769Y-86251535D01*
X112492871Y-86252893D01*
X112557436Y-86254077D01*
X112557438Y-86254077D01*
X112562798Y-86254175D01*
X112567969Y-86252765D01*
X112567971Y-86252765D01*
X112647265Y-86231147D01*
X112701779Y-86216285D01*
X112754871Y-86183686D01*
X112819970Y-86143716D01*
X112819973Y-86143714D01*
X112824539Y-86140910D01*
X112921210Y-86034110D01*
X112926795Y-86022584D01*
X112981682Y-85909296D01*
X112981682Y-85909295D01*
X112984020Y-85904470D01*
X113007919Y-85762413D01*
X113008071Y-85750000D01*
X113007225Y-85744091D01*
X112988409Y-85612704D01*
X112988408Y-85612700D01*
X112987649Y-85607401D01*
X112928026Y-85476266D01*
X112923538Y-85471057D01*
X112837487Y-85371190D01*
X112837484Y-85371187D01*
X112833993Y-85367136D01*
X112829504Y-85364227D01*
X112829499Y-85364222D01*
X112750172Y-85312806D01*
X112719178Y-85271752D01*
X112721825Y-85220380D01*
X112751725Y-85185618D01*
X112819970Y-85143716D01*
X112819973Y-85143714D01*
X112824539Y-85140910D01*
X112921210Y-85034110D01*
X112926795Y-85022584D01*
X112981682Y-84909296D01*
X112981682Y-84909295D01*
X112984020Y-84904470D01*
X113007919Y-84762413D01*
X113008071Y-84750000D01*
X113007659Y-84747120D01*
X112988409Y-84612704D01*
X112988408Y-84612700D01*
X112987649Y-84607401D01*
X112935995Y-84493793D01*
X121991967Y-84493793D01*
X121992661Y-84499100D01*
X121992661Y-84499103D01*
X121993159Y-84502909D01*
X122010645Y-84636630D01*
X122068662Y-84768484D01*
X122161354Y-84878755D01*
X122281270Y-84958577D01*
X122418769Y-85001535D01*
X122492871Y-85002893D01*
X122557436Y-85004077D01*
X122557438Y-85004077D01*
X122562798Y-85004175D01*
X122567969Y-85002765D01*
X122567971Y-85002765D01*
X122643695Y-84982120D01*
X122701779Y-84966285D01*
X122794595Y-84909296D01*
X122819970Y-84893716D01*
X122819973Y-84893714D01*
X122824539Y-84890910D01*
X122921210Y-84784110D01*
X122926795Y-84772584D01*
X122981682Y-84659296D01*
X122981682Y-84659295D01*
X122984020Y-84654470D01*
X123007919Y-84512413D01*
X123008071Y-84500000D01*
X123007659Y-84497120D01*
X123007183Y-84493793D01*
X125491967Y-84493793D01*
X125492661Y-84499100D01*
X125492661Y-84499103D01*
X125493159Y-84502909D01*
X125510645Y-84636630D01*
X125568662Y-84768484D01*
X125661354Y-84878755D01*
X125781270Y-84958577D01*
X125918769Y-85001535D01*
X125992871Y-85002893D01*
X126057436Y-85004077D01*
X126057438Y-85004077D01*
X126062798Y-85004175D01*
X126067969Y-85002765D01*
X126067971Y-85002765D01*
X126143695Y-84982120D01*
X126201779Y-84966285D01*
X126294595Y-84909296D01*
X126319970Y-84893716D01*
X126319973Y-84893714D01*
X126324539Y-84890910D01*
X126421210Y-84784110D01*
X126426795Y-84772584D01*
X126481682Y-84659296D01*
X126481682Y-84659295D01*
X126484020Y-84654470D01*
X126507919Y-84512413D01*
X126508071Y-84500000D01*
X126507659Y-84497120D01*
X126507183Y-84493793D01*
X127491967Y-84493793D01*
X127492661Y-84499100D01*
X127492661Y-84499103D01*
X127493159Y-84502909D01*
X127510645Y-84636630D01*
X127568662Y-84768484D01*
X127661354Y-84878755D01*
X127781270Y-84958577D01*
X127918769Y-85001535D01*
X127992871Y-85002893D01*
X128057436Y-85004077D01*
X128057438Y-85004077D01*
X128062798Y-85004175D01*
X128067969Y-85002765D01*
X128067971Y-85002765D01*
X128143695Y-84982120D01*
X128201779Y-84966285D01*
X128294595Y-84909296D01*
X128319970Y-84893716D01*
X128319973Y-84893714D01*
X128324539Y-84890910D01*
X128421210Y-84784110D01*
X128426795Y-84772584D01*
X128481682Y-84659296D01*
X128481682Y-84659295D01*
X128484020Y-84654470D01*
X128507919Y-84512413D01*
X128508071Y-84500000D01*
X128507659Y-84497120D01*
X128488409Y-84362704D01*
X128488408Y-84362700D01*
X128487649Y-84357401D01*
X128465820Y-84309389D01*
X135108016Y-84309389D01*
X135131515Y-84446149D01*
X135133290Y-84452771D01*
X135204212Y-84645012D01*
X135207169Y-84651210D01*
X135311931Y-84827301D01*
X135315969Y-84832859D01*
X135451066Y-84986908D01*
X135456051Y-84991639D01*
X135616964Y-85118492D01*
X135622719Y-85122229D01*
X135804059Y-85217637D01*
X135810391Y-85220260D01*
X136006087Y-85281025D01*
X136012797Y-85282451D01*
X136179144Y-85302139D01*
X136183565Y-85302400D01*
X136834341Y-85302400D01*
X136844498Y-85298703D01*
X136847600Y-85293331D01*
X136847600Y-85289141D01*
X137152400Y-85289141D01*
X137156097Y-85299298D01*
X137161469Y-85302400D01*
X137802015Y-85302400D01*
X137805429Y-85302244D01*
X137957475Y-85288272D01*
X137964227Y-85287021D01*
X138161436Y-85231402D01*
X138167843Y-85228943D01*
X138351614Y-85138317D01*
X138357472Y-85134727D01*
X138521646Y-85012133D01*
X138526750Y-85007537D01*
X138665839Y-84857071D01*
X138670014Y-84851631D01*
X138779358Y-84678332D01*
X138782472Y-84672218D01*
X138858398Y-84481910D01*
X138860352Y-84475315D01*
X138892159Y-84315405D01*
X138890515Y-84304721D01*
X138887900Y-84302428D01*
X138887751Y-84302400D01*
X137165659Y-84302400D01*
X137155502Y-84306097D01*
X137152400Y-84311469D01*
X137152400Y-85289141D01*
X136847600Y-85289141D01*
X136847600Y-84315659D01*
X136843903Y-84305502D01*
X136838531Y-84302400D01*
X135120074Y-84302400D01*
X135109917Y-84306097D01*
X135108016Y-84309389D01*
X128465820Y-84309389D01*
X128430245Y-84231147D01*
X128428026Y-84226266D01*
X128423538Y-84221057D01*
X128337487Y-84121190D01*
X128337484Y-84121187D01*
X128333993Y-84117136D01*
X128329502Y-84114225D01*
X128217604Y-84041697D01*
X128217603Y-84041697D01*
X128213111Y-84038785D01*
X128136912Y-84015997D01*
X128080232Y-83999045D01*
X128080229Y-83999045D01*
X128075098Y-83997510D01*
X128069743Y-83997477D01*
X128069741Y-83997477D01*
X128004524Y-83997079D01*
X127931047Y-83996630D01*
X127925897Y-83998102D01*
X127925896Y-83998102D01*
X127861793Y-84016422D01*
X127792539Y-84036215D01*
X127788013Y-84039071D01*
X127788010Y-84039072D01*
X127675237Y-84110227D01*
X127670709Y-84113084D01*
X127663550Y-84121190D01*
X127578897Y-84217041D01*
X127578895Y-84217044D01*
X127575351Y-84221057D01*
X127514129Y-84351454D01*
X127513305Y-84356744D01*
X127513305Y-84356745D01*
X127511693Y-84367097D01*
X127491967Y-84493793D01*
X126507183Y-84493793D01*
X126488409Y-84362704D01*
X126488408Y-84362700D01*
X126487649Y-84357401D01*
X126465820Y-84309389D01*
X126430245Y-84231147D01*
X126428026Y-84226266D01*
X126423538Y-84221057D01*
X126337487Y-84121190D01*
X126337484Y-84121187D01*
X126333993Y-84117136D01*
X126329502Y-84114225D01*
X126217604Y-84041697D01*
X126217603Y-84041697D01*
X126213111Y-84038785D01*
X126136912Y-84015997D01*
X126080232Y-83999045D01*
X126080229Y-83999045D01*
X126075098Y-83997510D01*
X126069743Y-83997477D01*
X126069741Y-83997477D01*
X126004524Y-83997079D01*
X125931047Y-83996630D01*
X125925897Y-83998102D01*
X125925896Y-83998102D01*
X125861793Y-84016422D01*
X125792539Y-84036215D01*
X125788013Y-84039071D01*
X125788010Y-84039072D01*
X125675237Y-84110227D01*
X125670709Y-84113084D01*
X125663550Y-84121190D01*
X125578897Y-84217041D01*
X125578895Y-84217044D01*
X125575351Y-84221057D01*
X125514129Y-84351454D01*
X125513305Y-84356744D01*
X125513305Y-84356745D01*
X125511693Y-84367097D01*
X125491967Y-84493793D01*
X123007183Y-84493793D01*
X122988409Y-84362704D01*
X122988408Y-84362700D01*
X122987649Y-84357401D01*
X122965820Y-84309389D01*
X122930245Y-84231147D01*
X122928026Y-84226266D01*
X122923538Y-84221057D01*
X122837487Y-84121190D01*
X122837484Y-84121187D01*
X122833993Y-84117136D01*
X122829502Y-84114225D01*
X122717604Y-84041697D01*
X122717603Y-84041697D01*
X122713111Y-84038785D01*
X122636912Y-84015997D01*
X122580232Y-83999045D01*
X122580229Y-83999045D01*
X122575098Y-83997510D01*
X122569743Y-83997477D01*
X122569741Y-83997477D01*
X122504524Y-83997079D01*
X122431047Y-83996630D01*
X122425897Y-83998102D01*
X122425896Y-83998102D01*
X122361793Y-84016422D01*
X122292539Y-84036215D01*
X122288013Y-84039071D01*
X122288010Y-84039072D01*
X122175237Y-84110227D01*
X122170709Y-84113084D01*
X122163550Y-84121190D01*
X122078897Y-84217041D01*
X122078895Y-84217044D01*
X122075351Y-84221057D01*
X122014129Y-84351454D01*
X122013305Y-84356744D01*
X122013305Y-84356745D01*
X122011693Y-84367097D01*
X121991967Y-84493793D01*
X112935995Y-84493793D01*
X112928026Y-84476266D01*
X112923538Y-84471057D01*
X112837487Y-84371190D01*
X112837484Y-84371187D01*
X112833993Y-84367136D01*
X112829502Y-84364225D01*
X112717604Y-84291697D01*
X112717603Y-84291697D01*
X112713111Y-84288785D01*
X112636912Y-84265997D01*
X112580232Y-84249045D01*
X112580229Y-84249045D01*
X112575098Y-84247510D01*
X112569743Y-84247477D01*
X112569741Y-84247477D01*
X112504524Y-84247079D01*
X112431047Y-84246630D01*
X112425897Y-84248102D01*
X112425896Y-84248102D01*
X112361793Y-84266423D01*
X112292539Y-84286215D01*
X112288013Y-84289071D01*
X112288010Y-84289072D01*
X112180756Y-84356745D01*
X112170709Y-84363084D01*
X112163550Y-84371190D01*
X112078897Y-84467041D01*
X112078895Y-84467044D01*
X112075351Y-84471057D01*
X112014129Y-84601454D01*
X112013305Y-84606744D01*
X112013305Y-84606745D01*
X112006382Y-84651210D01*
X111991967Y-84743793D01*
X111992661Y-84749100D01*
X111992661Y-84749103D01*
X111995732Y-84772584D01*
X112010645Y-84886630D01*
X112040996Y-84955607D01*
X112065868Y-85012133D01*
X112068662Y-85018484D01*
X112161354Y-85128755D01*
X112183830Y-85143716D01*
X112250051Y-85187796D01*
X112280541Y-85229226D01*
X112277266Y-85280562D01*
X112248510Y-85313995D01*
X112170709Y-85363084D01*
X112163550Y-85371190D01*
X112078897Y-85467041D01*
X112078895Y-85467044D01*
X112075351Y-85471057D01*
X112014129Y-85601454D01*
X111991967Y-85743793D01*
X109152900Y-85743793D01*
X109152900Y-82728100D01*
X109170493Y-82679762D01*
X109215042Y-82654042D01*
X109228100Y-82652900D01*
X110130701Y-82652900D01*
X110179039Y-82670493D01*
G37*
G04 #@! TD.AperFunction*
G04 #@! TD*
M02*
