G04 #@! TF.GenerationSoftware,KiCad,Pcbnew,6.0.6+dfsg-1*
G04 #@! TF.CreationDate,2022-08-05T15:03:59+08:00*
G04 #@! TF.ProjectId,stlink,73746c69-6e6b-42e6-9b69-6361645f7063,d*
G04 #@! TF.SameCoordinates,Original*
G04 #@! TF.FileFunction,Copper,L4,Bot*
G04 #@! TF.FilePolarity,Positive*
%FSLAX46Y46*%
G04 Gerber Fmt 4.6, Leading zero omitted, Abs format (unit mm)*
G04 Created by KiCad (PCBNEW 6.0.6+dfsg-1) date 2022-08-05 15:03:59*
%MOMM*%
%LPD*%
G01*
G04 APERTURE LIST*
G04 #@! TA.AperFunction,ComponentPad*
%ADD10C,1.800000*%
G04 #@! TD*
G04 #@! TA.AperFunction,ComponentPad*
%ADD11O,3.500000X2.000000*%
G04 #@! TD*
G04 #@! TA.AperFunction,ComponentPad*
%ADD12C,2.200000*%
G04 #@! TD*
G04 #@! TA.AperFunction,SMDPad,CuDef*
%ADD13R,2.540000X1.524000*%
G04 #@! TD*
G04 #@! TA.AperFunction,SMDPad,CuDef*
%ADD14C,1.000000*%
G04 #@! TD*
G04 #@! TA.AperFunction,SMDPad,CuDef*
%ADD15R,1.000000X1.500000*%
G04 #@! TD*
G04 #@! TA.AperFunction,ViaPad*
%ADD16C,0.700000*%
G04 #@! TD*
G04 #@! TA.AperFunction,Conductor*
%ADD17C,0.381000*%
G04 #@! TD*
G04 #@! TA.AperFunction,Conductor*
%ADD18C,0.228600*%
G04 #@! TD*
G04 APERTURE END LIST*
G04 #@! TO.C,JP1*
G36*
X122050000Y-95050000D02*
G01*
X121550000Y-95050000D01*
X121550000Y-94450000D01*
X122050000Y-94450000D01*
X122050000Y-95050000D01*
G37*
G04 #@! TD*
D10*
G04 #@! TO.P,J1,1,VBUS*
G04 #@! TO.N,VBUS*
X134900000Y-86500000D03*
G04 #@! TO.P,J1,2,D-*
G04 #@! TO.N,D-*
X134900000Y-89000000D03*
G04 #@! TO.P,J1,3,D+*
G04 #@! TO.N,D+*
X134900000Y-91000000D03*
G04 #@! TO.P,J1,4,GND*
G04 #@! TO.N,GND*
X134900000Y-93500000D03*
D11*
G04 #@! TO.P,J1,5,Shield*
X137000000Y-95850000D03*
X137000000Y-84150000D03*
D12*
X137000000Y-92300000D03*
X137000000Y-87700000D03*
G04 #@! TD*
D13*
G04 #@! TO.P,J2,1,Pin_1*
G04 #@! TO.N,+5V*
X110500000Y-84920000D03*
G04 #@! TO.P,J2,3,Pin_3*
G04 #@! TO.N,T_PWR*
X110500000Y-87460000D03*
G04 #@! TO.P,J2,5,Pin_5*
G04 #@! TO.N,T_CLK*
X110500000Y-90000000D03*
G04 #@! TO.P,J2,7,Pin_7*
G04 #@! TO.N,T_SWO*
X110500000Y-92540000D03*
G04 #@! TO.P,J2,9,Pin_9*
G04 #@! TO.N,T_TX*
X110500000Y-95080000D03*
G04 #@! TD*
D14*
G04 #@! TO.P,TP3,1,1*
G04 #@! TO.N,CLK*
X127000000Y-83500000D03*
G04 #@! TD*
G04 #@! TO.P,TP1,1,1*
G04 #@! TO.N,+3V3*
X131064000Y-83500000D03*
G04 #@! TD*
G04 #@! TO.P,TP4,1,1*
G04 #@! TO.N,B0*
X124968000Y-83500000D03*
G04 #@! TD*
G04 #@! TO.P,TP5,1,1*
G04 #@! TO.N,GND*
X122936000Y-83500000D03*
G04 #@! TD*
G04 #@! TO.P,TP2,1,1*
G04 #@! TO.N,DIO*
X129000000Y-83500000D03*
G04 #@! TD*
D15*
G04 #@! TO.P,JP1,1,A*
G04 #@! TO.N,+3V3*
X121150000Y-94750000D03*
G04 #@! TO.P,JP1,2,C*
G04 #@! TO.N,Net-(JP1-Pad2)*
X122450000Y-94750000D03*
G04 #@! TO.P,JP1,3,B*
G04 #@! TO.N,T_PWR*
X123750000Y-94750000D03*
G04 #@! TD*
D16*
G04 #@! TO.N,GND*
X133350000Y-84963000D03*
X139000000Y-86000000D03*
X139000000Y-90000000D03*
X134500000Y-84000000D03*
X121400000Y-90100000D03*
X139000000Y-94200000D03*
X113100000Y-93700000D03*
X115000000Y-96750000D03*
X123825000Y-96750000D03*
X122500000Y-87750000D03*
X131927600Y-89763600D03*
X129540000Y-96520000D03*
X115750000Y-91250000D03*
X119500000Y-85250000D03*
X132199941Y-85981394D03*
X121250000Y-87750000D03*
X115750000Y-87500000D03*
G04 #@! TO.N,+5V*
X110490000Y-83185000D03*
X128000000Y-84500000D03*
G04 #@! TO.N,+3V3*
X131445000Y-86868000D03*
X113786622Y-92000139D03*
X129750000Y-93750000D03*
X112500000Y-85750000D03*
X120700000Y-90800000D03*
X119500000Y-86500000D03*
X130175000Y-86868000D03*
X119500000Y-95500000D03*
X126365000Y-95250000D03*
X112500000Y-84750000D03*
G04 #@! TO.N,D-*
X128730000Y-89360000D03*
G04 #@! TO.N,D+*
X129760000Y-89360000D03*
G04 #@! TO.N,LED*
X116750000Y-93750000D03*
X123600000Y-92800000D03*
G04 #@! TO.N,T_DIO*
X113272402Y-89250000D03*
X125000000Y-91500000D03*
G04 #@! TO.N,T_CLK*
X125750000Y-92250000D03*
G04 #@! TO.N,CLK*
X126000000Y-84500000D03*
G04 #@! TO.N,T_RX*
X119250000Y-94000000D03*
X110500000Y-96500000D03*
G04 #@! TO.N,T_TX*
X118250000Y-94000000D03*
G04 #@! TO.N,T_RST*
X113300000Y-92700000D03*
X122500000Y-92800000D03*
G04 #@! TO.N,T_SWO*
X122100000Y-90800000D03*
G04 #@! TO.N,DIO*
X125400000Y-88000000D03*
G04 #@! TO.N,B0*
X122500000Y-84500000D03*
G04 #@! TO.N,RENUM*
X129500000Y-95250000D03*
X123800000Y-87400000D03*
G04 #@! TO.N,Net-(R10-Pad1)*
X121000000Y-92800000D03*
X119000000Y-96250000D03*
G04 #@! TO.N,Net-(JP1-Pad2)*
X123000000Y-96000000D03*
G04 #@! TD*
D17*
G04 #@! TO.N,+5V*
X110500000Y-84920000D02*
X110500000Y-83195000D01*
X110500000Y-83195000D02*
X110490000Y-83185000D01*
D18*
G04 #@! TO.N,+3V3*
X120250000Y-94750000D02*
X119500000Y-95500000D01*
X121150000Y-94750000D02*
X120250000Y-94750000D01*
X131064000Y-86487000D02*
X131064000Y-83500000D01*
X131445000Y-86868000D02*
X131064000Y-86487000D01*
G04 #@! TO.N,D-*
X129443739Y-88633298D02*
X129443739Y-88646261D01*
X129443739Y-88646261D02*
X128730000Y-89360000D01*
X134533298Y-88633298D02*
X129443739Y-88633298D01*
G04 #@! TO.N,D+*
X134900000Y-91000000D02*
X130370000Y-91000000D01*
X130370000Y-91000000D02*
X129760000Y-90390000D01*
X129760000Y-90390000D02*
X129760000Y-89360000D01*
G04 #@! TO.N,LED*
X122602288Y-91802288D02*
X119058876Y-91802289D01*
X117497713Y-93002287D02*
X116750000Y-93750000D01*
X117858881Y-93002287D02*
X117497713Y-93002287D01*
X123600000Y-92800000D02*
X122602288Y-91802288D01*
X119058876Y-91802289D02*
X117858881Y-93002287D01*
G04 #@! TO.N,T_DIO*
X125000000Y-91005026D02*
X125000000Y-91500000D01*
X122894975Y-88900001D02*
X125000000Y-91005026D01*
X113272402Y-89250000D02*
X113622401Y-88900001D01*
X113622401Y-88900001D02*
X122894975Y-88900001D01*
G04 #@! TO.N,T_CLK*
X119020000Y-89920000D02*
X110580000Y-89920000D01*
X119540000Y-89400000D02*
X119020000Y-89920000D01*
X123406359Y-90406359D02*
X122400000Y-89400000D01*
X123406359Y-90993641D02*
X124662718Y-92250000D01*
X124662718Y-92250000D02*
X125750000Y-92250000D01*
X122400000Y-89400000D02*
X119540000Y-89400000D01*
X123406359Y-90993641D02*
X123406359Y-90406359D01*
G04 #@! TO.N,CLK*
X127000000Y-83500000D02*
X126000000Y-84500000D01*
G04 #@! TO.N,T_RX*
X114572880Y-96264402D02*
X110735598Y-96264402D01*
X114703983Y-96133299D02*
X114572880Y-96264402D01*
X110735598Y-96264402D02*
X110500000Y-96500000D01*
X117116701Y-96133299D02*
X114703983Y-96133299D01*
X119250000Y-94000000D02*
X117116701Y-96133299D01*
G04 #@! TO.N,T_TX*
X118250000Y-94000000D02*
X117250000Y-95000000D01*
X117250000Y-95000000D02*
X110580000Y-95000000D01*
G04 #@! TO.N,T_RST*
X114800000Y-94400000D02*
X113300000Y-92900000D01*
X122500000Y-92800000D02*
X121883299Y-92183299D01*
X113300000Y-92900000D02*
X113300000Y-92700000D01*
X118016701Y-93383298D02*
X117655530Y-93383298D01*
X117366701Y-94046017D02*
X117012718Y-94400000D01*
X119216697Y-92183299D02*
X118016701Y-93383298D01*
X117366701Y-93672127D02*
X117366701Y-94046017D01*
X117655530Y-93383298D02*
X117366701Y-93672127D01*
X121883299Y-92183299D02*
X119216697Y-92183299D01*
X117012718Y-94400000D02*
X114800000Y-94400000D01*
G04 #@! TO.N,T_SWO*
X114565902Y-91866701D02*
X114082639Y-91383438D01*
X118455639Y-91866701D02*
X114565902Y-91866701D01*
X118901063Y-91421277D02*
X118455639Y-91866701D01*
X114082639Y-91383438D02*
X111656562Y-91383438D01*
X121478723Y-91421277D02*
X118901063Y-91421277D01*
X111656562Y-91383438D02*
X110500000Y-92540000D01*
X122100000Y-90800000D02*
X121478723Y-91421277D01*
G04 #@! TO.N,T_PWR*
X124271400Y-93250000D02*
X126250000Y-93250000D01*
X126250000Y-93250000D02*
X126750000Y-92750000D01*
X126750000Y-91750000D02*
X123366701Y-88366701D01*
X123366701Y-88366701D02*
X113706701Y-88366701D01*
X126750000Y-92750000D02*
X126750000Y-91750000D01*
X123750000Y-93771400D02*
X124271400Y-93250000D01*
X112720000Y-87380000D02*
X110580000Y-87380000D01*
X113706701Y-88366701D02*
X112720000Y-87380000D01*
X123750000Y-94750000D02*
X123750000Y-93771400D01*
G04 #@! TO.N,DIO*
X129000000Y-85000000D02*
X129000000Y-83500000D01*
X126000000Y-88000000D02*
X129000000Y-85000000D01*
X125400000Y-88000000D02*
X126000000Y-88000000D01*
G04 #@! TO.N,B0*
X123968000Y-84500000D02*
X124968000Y-83500000D01*
X122500000Y-84500000D02*
X123968000Y-84500000D01*
G04 #@! TO.N,RENUM*
X128500000Y-92100000D02*
X128500000Y-94250000D01*
X128500000Y-94250000D02*
X129500000Y-95250000D01*
X123800000Y-87400000D02*
X128500000Y-92100000D01*
G04 #@! TO.N,Net-(R10-Pad1)*
X121000000Y-92800000D02*
X120383299Y-93416701D01*
X120383299Y-94077872D02*
X119577872Y-94883299D01*
X119000000Y-96250000D02*
X119000000Y-96000000D01*
X120383299Y-93416701D02*
X120383299Y-94077872D01*
X118883299Y-95203983D02*
X118883299Y-95883299D01*
X119000000Y-96000000D02*
X118883299Y-95883299D01*
X119203983Y-94883299D02*
X118883299Y-95203983D01*
X119577872Y-94883299D02*
X119203983Y-94883299D01*
G04 #@! TO.N,Net-(JP1-Pad2)*
X122450000Y-95450000D02*
X122450000Y-94750000D01*
X123000000Y-96000000D02*
X122450000Y-95450000D01*
G04 #@! TD*
G04 #@! TA.AperFunction,Conductor*
G04 #@! TO.N,GND*
G36*
X115417747Y-82670493D02*
G01*
X115443467Y-82715042D01*
X115443684Y-82739860D01*
X115442078Y-82750000D01*
X115462043Y-82876055D01*
X115477330Y-82906057D01*
X115506319Y-82962951D01*
X115519984Y-82989771D01*
X115610229Y-83080016D01*
X115615505Y-83082704D01*
X115615506Y-83082705D01*
X115657652Y-83104179D01*
X115723945Y-83137957D01*
X115729792Y-83138883D01*
X115815374Y-83152438D01*
X115815376Y-83152438D01*
X115818292Y-83152900D01*
X115881708Y-83152900D01*
X115884624Y-83152438D01*
X115884626Y-83152438D01*
X115970208Y-83138883D01*
X115976055Y-83137957D01*
X116042348Y-83104179D01*
X116084494Y-83082705D01*
X116084495Y-83082704D01*
X116089771Y-83080016D01*
X116127833Y-83041954D01*
X116174453Y-83020214D01*
X116224140Y-83033528D01*
X116253645Y-83075665D01*
X116255281Y-83083363D01*
X116262043Y-83126055D01*
X116286219Y-83173503D01*
X116309421Y-83219039D01*
X116319984Y-83239771D01*
X116410229Y-83330016D01*
X116415505Y-83332704D01*
X116415506Y-83332705D01*
X116431653Y-83340932D01*
X116523945Y-83387957D01*
X116529792Y-83388883D01*
X116615374Y-83402438D01*
X116615376Y-83402438D01*
X116618292Y-83402900D01*
X116681708Y-83402900D01*
X116684624Y-83402438D01*
X116684626Y-83402438D01*
X116770208Y-83388883D01*
X116776055Y-83387957D01*
X116868347Y-83340932D01*
X116884494Y-83332705D01*
X116884495Y-83332704D01*
X116889771Y-83330016D01*
X116946826Y-83272961D01*
X116993446Y-83251221D01*
X117043133Y-83264535D01*
X117053174Y-83272961D01*
X117110229Y-83330016D01*
X117115505Y-83332704D01*
X117115506Y-83332705D01*
X117131653Y-83340932D01*
X117223945Y-83387957D01*
X117229792Y-83388883D01*
X117315374Y-83402438D01*
X117315376Y-83402438D01*
X117318292Y-83402900D01*
X117381708Y-83402900D01*
X117384624Y-83402438D01*
X117384626Y-83402438D01*
X117470208Y-83388883D01*
X117476055Y-83387957D01*
X117568347Y-83340932D01*
X117584494Y-83332705D01*
X117584495Y-83332704D01*
X117589771Y-83330016D01*
X117680016Y-83239771D01*
X117690580Y-83219039D01*
X117713781Y-83173503D01*
X117737957Y-83126055D01*
X117744719Y-83083363D01*
X117769658Y-83038373D01*
X117817681Y-83019939D01*
X117866318Y-83036687D01*
X117872167Y-83041954D01*
X117910229Y-83080016D01*
X117915505Y-83082704D01*
X117915506Y-83082705D01*
X117957652Y-83104179D01*
X118023945Y-83137957D01*
X118029792Y-83138883D01*
X118115374Y-83152438D01*
X118115376Y-83152438D01*
X118118292Y-83152900D01*
X118181708Y-83152900D01*
X118184624Y-83152438D01*
X118184626Y-83152438D01*
X118270208Y-83138883D01*
X118276055Y-83137957D01*
X118342348Y-83104179D01*
X118384494Y-83082705D01*
X118384495Y-83082704D01*
X118389771Y-83080016D01*
X118480016Y-82989771D01*
X118493682Y-82962951D01*
X118502619Y-82945411D01*
X122598288Y-82945411D01*
X122600352Y-82948826D01*
X122926623Y-83275097D01*
X122936422Y-83279666D01*
X122942413Y-83278061D01*
X123268385Y-82952089D01*
X123272954Y-82942290D01*
X123272592Y-82940938D01*
X123269867Y-82938532D01*
X123175523Y-82888579D01*
X123167120Y-82885354D01*
X123022769Y-82849095D01*
X123013832Y-82847966D01*
X122865002Y-82847187D01*
X122856051Y-82848223D01*
X122711332Y-82882967D01*
X122702890Y-82886107D01*
X122605674Y-82936283D01*
X122598344Y-82944227D01*
X122598288Y-82945411D01*
X118502619Y-82945411D01*
X118522670Y-82906057D01*
X118537957Y-82876055D01*
X118557922Y-82750000D01*
X118556316Y-82739861D01*
X118566133Y-82689367D01*
X118606111Y-82656996D01*
X118630591Y-82652900D01*
X132869409Y-82652900D01*
X132917747Y-82670493D01*
X132943467Y-82715042D01*
X132943684Y-82739860D01*
X132942078Y-82750000D01*
X132962043Y-82876055D01*
X132977330Y-82906057D01*
X133006319Y-82962951D01*
X133019984Y-82989771D01*
X133110229Y-83080016D01*
X133115505Y-83082704D01*
X133115506Y-83082705D01*
X133157652Y-83104179D01*
X133223945Y-83137957D01*
X133229792Y-83138883D01*
X133315374Y-83152438D01*
X133315376Y-83152438D01*
X133318292Y-83152900D01*
X133381708Y-83152900D01*
X133384624Y-83152438D01*
X133384626Y-83152438D01*
X133470208Y-83138883D01*
X133476055Y-83137957D01*
X133542348Y-83104179D01*
X133584494Y-83082705D01*
X133584495Y-83082704D01*
X133589771Y-83080016D01*
X133627833Y-83041954D01*
X133674453Y-83020214D01*
X133724140Y-83033528D01*
X133753645Y-83075665D01*
X133755281Y-83083363D01*
X133762043Y-83126055D01*
X133786219Y-83173503D01*
X133809421Y-83219039D01*
X133819984Y-83239771D01*
X133910229Y-83330016D01*
X133915505Y-83332704D01*
X133915506Y-83332705D01*
X133931653Y-83340932D01*
X134023945Y-83387957D01*
X134029792Y-83388883D01*
X134115374Y-83402438D01*
X134115376Y-83402438D01*
X134118292Y-83402900D01*
X134181708Y-83402900D01*
X134184624Y-83402438D01*
X134184626Y-83402438D01*
X134270208Y-83388883D01*
X134276055Y-83387957D01*
X134368347Y-83340932D01*
X134384494Y-83332705D01*
X134384495Y-83332704D01*
X134389771Y-83330016D01*
X134446826Y-83272961D01*
X134493446Y-83251221D01*
X134543133Y-83264535D01*
X134553174Y-83272961D01*
X134610229Y-83330016D01*
X134615505Y-83332704D01*
X134615506Y-83332705D01*
X134631653Y-83340932D01*
X134723945Y-83387957D01*
X134729792Y-83388883D01*
X134815374Y-83402438D01*
X134815376Y-83402438D01*
X134818292Y-83402900D01*
X134881708Y-83402900D01*
X134884624Y-83402438D01*
X134884626Y-83402438D01*
X134970208Y-83388883D01*
X134976055Y-83387957D01*
X135068347Y-83340932D01*
X135084494Y-83332705D01*
X135084495Y-83332704D01*
X135089771Y-83330016D01*
X135180016Y-83239771D01*
X135190580Y-83219039D01*
X135213781Y-83173503D01*
X135237957Y-83126055D01*
X135244719Y-83083363D01*
X135269658Y-83038373D01*
X135317681Y-83019939D01*
X135366318Y-83036687D01*
X135372167Y-83041954D01*
X135410229Y-83080016D01*
X135415505Y-83082704D01*
X135415506Y-83082705D01*
X135457652Y-83104179D01*
X135489113Y-83120209D01*
X135508425Y-83130049D01*
X135543507Y-83167670D01*
X135546199Y-83219039D01*
X135519279Y-83257307D01*
X135478354Y-83287867D01*
X135473250Y-83292463D01*
X135334161Y-83442929D01*
X135329986Y-83448369D01*
X135220642Y-83621668D01*
X135217528Y-83627782D01*
X135141602Y-83818090D01*
X135139648Y-83824685D01*
X135107841Y-83984595D01*
X135109485Y-83995279D01*
X135112100Y-83997572D01*
X135112249Y-83997600D01*
X136834341Y-83997600D01*
X136844498Y-83993903D01*
X136847600Y-83988531D01*
X136847600Y-83984341D01*
X137152400Y-83984341D01*
X137156097Y-83994498D01*
X137161469Y-83997600D01*
X138879926Y-83997600D01*
X138890083Y-83993903D01*
X138891984Y-83990611D01*
X138868485Y-83853851D01*
X138866710Y-83847229D01*
X138795788Y-83654988D01*
X138792831Y-83648790D01*
X138688069Y-83472699D01*
X138684031Y-83467141D01*
X138548934Y-83313092D01*
X138543949Y-83308361D01*
X138383036Y-83181508D01*
X138377281Y-83177771D01*
X138195941Y-83082363D01*
X138189609Y-83079740D01*
X137993913Y-83018975D01*
X137987203Y-83017549D01*
X137820856Y-82997861D01*
X137816435Y-82997600D01*
X137165659Y-82997600D01*
X137155502Y-83001297D01*
X137152400Y-83006669D01*
X137152400Y-83984341D01*
X136847600Y-83984341D01*
X136847600Y-83010859D01*
X136843903Y-83000702D01*
X136838531Y-82997600D01*
X136197985Y-82997600D01*
X136194571Y-82997756D01*
X136101002Y-83006354D01*
X136051257Y-82993257D01*
X136021569Y-82951249D01*
X136027118Y-82897328D01*
X136035269Y-82881331D01*
X136035270Y-82881328D01*
X136037957Y-82876055D01*
X136057922Y-82750000D01*
X136056316Y-82739861D01*
X136066133Y-82689367D01*
X136106111Y-82656996D01*
X136130591Y-82652900D01*
X138969968Y-82652900D01*
X138989430Y-82655462D01*
X139000000Y-82658294D01*
X139009562Y-82655732D01*
X139019462Y-82655732D01*
X139019462Y-82656419D01*
X139028336Y-82655691D01*
X139157892Y-82668451D01*
X139172348Y-82671327D01*
X139317083Y-82715232D01*
X139330698Y-82720871D01*
X139462284Y-82791204D01*
X139464093Y-82792171D01*
X139476351Y-82800362D01*
X139593265Y-82896312D01*
X139603688Y-82906735D01*
X139699638Y-83023649D01*
X139707828Y-83035906D01*
X139778239Y-83167635D01*
X139779128Y-83169299D01*
X139784768Y-83182917D01*
X139828119Y-83325826D01*
X139828673Y-83327651D01*
X139831549Y-83342108D01*
X139844058Y-83469110D01*
X139844309Y-83471663D01*
X139843581Y-83480538D01*
X139844268Y-83480538D01*
X139844268Y-83490438D01*
X139841706Y-83500000D01*
X139844268Y-83509561D01*
X139844538Y-83510569D01*
X139847100Y-83530032D01*
X139847100Y-96469968D01*
X139844538Y-96489430D01*
X139841706Y-96500000D01*
X139844268Y-96509562D01*
X139844268Y-96519462D01*
X139843581Y-96519462D01*
X139844309Y-96528336D01*
X139831886Y-96654470D01*
X139831549Y-96657891D01*
X139828673Y-96672348D01*
X139794771Y-96784110D01*
X139784769Y-96817081D01*
X139779129Y-96830698D01*
X139712365Y-96955607D01*
X139707829Y-96964093D01*
X139699638Y-96976351D01*
X139603688Y-97093265D01*
X139593265Y-97103688D01*
X139476351Y-97199638D01*
X139464094Y-97207828D01*
X139330698Y-97279129D01*
X139317083Y-97284768D01*
X139182265Y-97325665D01*
X139172349Y-97328673D01*
X139157892Y-97331549D01*
X139028336Y-97344309D01*
X139019462Y-97343581D01*
X139019462Y-97344268D01*
X139009562Y-97344268D01*
X139000000Y-97341706D01*
X138989431Y-97344538D01*
X138969968Y-97347100D01*
X136130591Y-97347100D01*
X136082253Y-97329507D01*
X136056533Y-97284958D01*
X136056316Y-97260139D01*
X136056996Y-97255845D01*
X136057922Y-97250000D01*
X136037957Y-97123945D01*
X136026722Y-97101895D01*
X136020453Y-97050839D01*
X136048470Y-97007698D01*
X136102564Y-96993076D01*
X136179142Y-97002139D01*
X136183565Y-97002400D01*
X136834341Y-97002400D01*
X136844498Y-96998703D01*
X136847600Y-96993331D01*
X136847600Y-96989141D01*
X137152400Y-96989141D01*
X137156097Y-96999298D01*
X137161469Y-97002400D01*
X137802015Y-97002400D01*
X137805429Y-97002244D01*
X137957475Y-96988272D01*
X137964227Y-96987021D01*
X138161436Y-96931402D01*
X138167843Y-96928943D01*
X138351614Y-96838317D01*
X138357472Y-96834727D01*
X138521646Y-96712133D01*
X138526750Y-96707537D01*
X138665839Y-96557071D01*
X138670014Y-96551631D01*
X138779358Y-96378332D01*
X138782472Y-96372218D01*
X138858398Y-96181910D01*
X138860352Y-96175315D01*
X138892159Y-96015405D01*
X138890515Y-96004721D01*
X138887900Y-96002428D01*
X138887751Y-96002400D01*
X137165659Y-96002400D01*
X137155502Y-96006097D01*
X137152400Y-96011469D01*
X137152400Y-96989141D01*
X136847600Y-96989141D01*
X136847600Y-96015659D01*
X136843903Y-96005502D01*
X136838531Y-96002400D01*
X135120074Y-96002400D01*
X135109917Y-96006097D01*
X135108016Y-96009389D01*
X135131515Y-96146149D01*
X135133290Y-96152771D01*
X135204212Y-96345012D01*
X135207169Y-96351210D01*
X135311931Y-96527301D01*
X135315969Y-96532859D01*
X135451066Y-96686908D01*
X135456051Y-96691639D01*
X135521747Y-96743429D01*
X135548815Y-96787171D01*
X135541434Y-96838079D01*
X135509331Y-96869489D01*
X135416798Y-96916637D01*
X135410229Y-96919984D01*
X135372167Y-96958046D01*
X135325547Y-96979786D01*
X135275860Y-96966472D01*
X135246355Y-96924335D01*
X135244719Y-96916637D01*
X135238883Y-96879791D01*
X135238883Y-96879790D01*
X135237957Y-96873945D01*
X135192184Y-96784110D01*
X135182705Y-96765506D01*
X135182704Y-96765505D01*
X135180016Y-96760229D01*
X135089771Y-96669984D01*
X134976055Y-96612043D01*
X134945040Y-96607131D01*
X134884626Y-96597562D01*
X134884624Y-96597562D01*
X134881708Y-96597100D01*
X134818292Y-96597100D01*
X134815376Y-96597562D01*
X134815374Y-96597562D01*
X134754960Y-96607131D01*
X134723945Y-96612043D01*
X134610229Y-96669984D01*
X134553174Y-96727039D01*
X134506554Y-96748779D01*
X134456867Y-96735465D01*
X134446826Y-96727039D01*
X134389771Y-96669984D01*
X134276055Y-96612043D01*
X134245040Y-96607131D01*
X134184626Y-96597562D01*
X134184624Y-96597562D01*
X134181708Y-96597100D01*
X134118292Y-96597100D01*
X134115376Y-96597562D01*
X134115374Y-96597562D01*
X134054960Y-96607131D01*
X134023945Y-96612043D01*
X133910229Y-96669984D01*
X133819984Y-96760229D01*
X133817296Y-96765505D01*
X133817295Y-96765506D01*
X133807816Y-96784110D01*
X133762043Y-96873945D01*
X133761117Y-96879790D01*
X133761117Y-96879791D01*
X133755281Y-96916637D01*
X133730342Y-96961627D01*
X133682319Y-96980061D01*
X133633682Y-96963313D01*
X133627833Y-96958046D01*
X133589771Y-96919984D01*
X133583203Y-96916637D01*
X133532710Y-96890910D01*
X133476055Y-96862043D01*
X133445040Y-96857131D01*
X133384626Y-96847562D01*
X133384624Y-96847562D01*
X133381708Y-96847100D01*
X133318292Y-96847100D01*
X133315376Y-96847562D01*
X133315374Y-96847562D01*
X133254960Y-96857131D01*
X133223945Y-96862043D01*
X133167290Y-96890910D01*
X133116798Y-96916637D01*
X133110229Y-96919984D01*
X133019984Y-97010229D01*
X132962043Y-97123945D01*
X132942078Y-97250000D01*
X132943004Y-97255845D01*
X132943684Y-97260139D01*
X132933867Y-97310633D01*
X132893889Y-97343004D01*
X132869409Y-97347100D01*
X118630591Y-97347100D01*
X118582253Y-97329507D01*
X118556533Y-97284958D01*
X118556316Y-97260139D01*
X118556996Y-97255845D01*
X118557922Y-97250000D01*
X118537957Y-97123945D01*
X118480016Y-97010229D01*
X118389771Y-96919984D01*
X118383203Y-96916637D01*
X118332710Y-96890910D01*
X118276055Y-96862043D01*
X118245040Y-96857131D01*
X118184626Y-96847562D01*
X118184624Y-96847562D01*
X118181708Y-96847100D01*
X118118292Y-96847100D01*
X118115376Y-96847562D01*
X118115374Y-96847562D01*
X118054960Y-96857131D01*
X118023945Y-96862043D01*
X117967290Y-96890910D01*
X117916798Y-96916637D01*
X117910229Y-96919984D01*
X117872167Y-96958046D01*
X117825547Y-96979786D01*
X117775860Y-96966472D01*
X117746355Y-96924335D01*
X117744719Y-96916637D01*
X117738883Y-96879791D01*
X117738883Y-96879790D01*
X117737957Y-96873945D01*
X117692184Y-96784110D01*
X117682705Y-96765506D01*
X117682704Y-96765505D01*
X117680016Y-96760229D01*
X117589771Y-96669984D01*
X117476055Y-96612043D01*
X117445040Y-96607131D01*
X117384626Y-96597562D01*
X117384624Y-96597562D01*
X117381708Y-96597100D01*
X117318292Y-96597100D01*
X117315376Y-96597562D01*
X117315374Y-96597562D01*
X117254960Y-96607131D01*
X117223945Y-96612043D01*
X117110229Y-96669984D01*
X117053174Y-96727039D01*
X117006554Y-96748779D01*
X116956867Y-96735465D01*
X116946826Y-96727039D01*
X116889771Y-96669984D01*
X116776055Y-96612043D01*
X116745040Y-96607131D01*
X116684626Y-96597562D01*
X116684624Y-96597562D01*
X116681708Y-96597100D01*
X116618292Y-96597100D01*
X116615376Y-96597562D01*
X116615374Y-96597562D01*
X116554960Y-96607131D01*
X116523945Y-96612043D01*
X116410229Y-96669984D01*
X116319984Y-96760229D01*
X116317296Y-96765505D01*
X116317295Y-96765506D01*
X116307816Y-96784110D01*
X116262043Y-96873945D01*
X116261117Y-96879790D01*
X116261117Y-96879791D01*
X116255281Y-96916637D01*
X116230342Y-96961627D01*
X116182319Y-96980061D01*
X116133682Y-96963313D01*
X116127833Y-96958046D01*
X116089771Y-96919984D01*
X116083203Y-96916637D01*
X116032710Y-96890910D01*
X115976055Y-96862043D01*
X115945040Y-96857131D01*
X115884626Y-96847562D01*
X115884624Y-96847562D01*
X115881708Y-96847100D01*
X115818292Y-96847100D01*
X115815376Y-96847562D01*
X115815374Y-96847562D01*
X115754960Y-96857131D01*
X115723945Y-96862043D01*
X115667290Y-96890910D01*
X115616798Y-96916637D01*
X115610229Y-96919984D01*
X115519984Y-97010229D01*
X115462043Y-97123945D01*
X115442078Y-97250000D01*
X115443004Y-97255845D01*
X115443684Y-97260139D01*
X115433867Y-97310633D01*
X115393889Y-97343004D01*
X115369409Y-97347100D01*
X109228100Y-97347100D01*
X109179762Y-97329507D01*
X109154042Y-97284958D01*
X109152900Y-97271900D01*
X109152900Y-96070100D01*
X109170493Y-96021762D01*
X109215042Y-95996042D01*
X109228100Y-95994900D01*
X109246610Y-95994900D01*
X110108344Y-95994899D01*
X110156681Y-96012492D01*
X110182401Y-96057041D01*
X110173468Y-96107699D01*
X110164708Y-96119879D01*
X110078897Y-96217041D01*
X110078895Y-96217044D01*
X110075351Y-96221057D01*
X110073075Y-96225905D01*
X110017154Y-96345012D01*
X110014129Y-96351454D01*
X110013305Y-96356744D01*
X110013305Y-96356745D01*
X110006493Y-96400499D01*
X109991967Y-96493793D01*
X109992661Y-96499100D01*
X109992661Y-96499103D01*
X110000784Y-96561220D01*
X110010645Y-96636630D01*
X110038953Y-96700964D01*
X110057638Y-96743429D01*
X110068662Y-96768484D01*
X110072107Y-96772582D01*
X110072108Y-96772584D01*
X110109512Y-96817081D01*
X110161354Y-96878755D01*
X110281270Y-96958577D01*
X110418769Y-97001535D01*
X110492871Y-97002893D01*
X110557436Y-97004077D01*
X110557438Y-97004077D01*
X110562798Y-97004175D01*
X110567969Y-97002765D01*
X110567971Y-97002765D01*
X110652257Y-96979786D01*
X110701779Y-96966285D01*
X110770101Y-96924335D01*
X110819970Y-96893716D01*
X110819973Y-96893714D01*
X110824539Y-96890910D01*
X110834604Y-96879791D01*
X110917612Y-96788085D01*
X110921210Y-96784110D01*
X110926795Y-96772584D01*
X110981682Y-96659296D01*
X110981682Y-96659295D01*
X110984020Y-96654470D01*
X110994139Y-96594325D01*
X111019507Y-96549577D01*
X111068296Y-96531602D01*
X114539151Y-96531602D01*
X114553822Y-96533047D01*
X114572880Y-96536838D01*
X114580144Y-96535393D01*
X114669873Y-96517544D01*
X114677137Y-96516099D01*
X114743209Y-96471951D01*
X114765521Y-96457043D01*
X114776316Y-96440887D01*
X114785668Y-96429492D01*
X114792635Y-96422525D01*
X114839255Y-96400785D01*
X114845809Y-96400499D01*
X117082972Y-96400499D01*
X117097643Y-96401944D01*
X117116701Y-96405735D01*
X117123965Y-96404290D01*
X117149634Y-96399184D01*
X117191228Y-96390910D01*
X117213694Y-96386441D01*
X117220958Y-96384996D01*
X117287030Y-96340848D01*
X117309342Y-96325940D01*
X117320137Y-96309784D01*
X117329489Y-96298389D01*
X118483934Y-95143944D01*
X118530554Y-95122204D01*
X118580241Y-95135518D01*
X118609746Y-95177655D01*
X118612276Y-95196878D01*
X118610863Y-95203983D01*
X118612308Y-95211247D01*
X118614654Y-95223041D01*
X118616099Y-95237712D01*
X118616099Y-95849570D01*
X118614654Y-95864241D01*
X118610863Y-95883299D01*
X118612308Y-95890563D01*
X118612308Y-95897971D01*
X118609409Y-95897971D01*
X118603485Y-95936424D01*
X118593926Y-95950024D01*
X118587931Y-95956813D01*
X118575351Y-95971057D01*
X118563344Y-95996630D01*
X118538732Y-96049053D01*
X118514129Y-96101454D01*
X118513305Y-96106744D01*
X118513305Y-96106745D01*
X118506139Y-96152771D01*
X118491967Y-96243793D01*
X118492661Y-96249100D01*
X118492661Y-96249103D01*
X118495732Y-96272584D01*
X118510645Y-96386630D01*
X118568662Y-96518484D01*
X118572107Y-96522582D01*
X118572108Y-96522584D01*
X118625923Y-96586604D01*
X118661354Y-96628755D01*
X118781270Y-96708577D01*
X118918769Y-96751535D01*
X118992871Y-96752893D01*
X119057436Y-96754077D01*
X119057438Y-96754077D01*
X119062798Y-96754175D01*
X119067969Y-96752765D01*
X119067971Y-96752765D01*
X119162333Y-96727039D01*
X119201779Y-96716285D01*
X119254871Y-96683686D01*
X119319970Y-96643716D01*
X119319973Y-96643714D01*
X119324539Y-96640910D01*
X119421210Y-96534110D01*
X119426795Y-96522584D01*
X119481682Y-96409296D01*
X119481682Y-96409295D01*
X119484020Y-96404470D01*
X119507919Y-96262413D01*
X119508071Y-96250000D01*
X119507183Y-96243793D01*
X119488409Y-96112709D01*
X119487649Y-96107401D01*
X119485430Y-96102521D01*
X119484806Y-96100386D01*
X119488127Y-96049053D01*
X119523666Y-96011865D01*
X119552217Y-96005469D01*
X119552126Y-96004738D01*
X119557437Y-96004077D01*
X119562798Y-96004175D01*
X119567969Y-96002765D01*
X119567971Y-96002765D01*
X119652906Y-95979609D01*
X119701779Y-95966285D01*
X119770191Y-95924280D01*
X119819970Y-95893716D01*
X119819973Y-95893714D01*
X119824539Y-95890910D01*
X119921210Y-95784110D01*
X119935714Y-95754175D01*
X119981682Y-95659296D01*
X119981682Y-95659295D01*
X119984020Y-95654470D01*
X120007919Y-95512413D01*
X120008071Y-95500000D01*
X119997094Y-95423352D01*
X120007657Y-95373008D01*
X120018360Y-95359517D01*
X120338651Y-95039226D01*
X120385271Y-95017486D01*
X120391825Y-95017200D01*
X120421901Y-95017200D01*
X120470239Y-95034793D01*
X120495959Y-95079342D01*
X120497101Y-95092400D01*
X120497101Y-95515056D01*
X120505972Y-95559658D01*
X120539766Y-95610234D01*
X120545923Y-95614348D01*
X120584183Y-95639913D01*
X120584184Y-95639914D01*
X120590342Y-95644028D01*
X120634943Y-95652900D01*
X121149930Y-95652900D01*
X121665056Y-95652899D01*
X121709658Y-95644028D01*
X121758221Y-95611579D01*
X121808187Y-95599352D01*
X121841779Y-95611579D01*
X121884183Y-95639913D01*
X121884184Y-95639914D01*
X121890342Y-95644028D01*
X121934943Y-95652900D01*
X122243874Y-95652900D01*
X122292212Y-95670493D01*
X122297048Y-95674926D01*
X122481659Y-95859537D01*
X122503399Y-95906157D01*
X122502790Y-95924280D01*
X122500881Y-95936544D01*
X122491967Y-95993793D01*
X122492661Y-95999100D01*
X122492661Y-95999103D01*
X122493498Y-96005502D01*
X122510645Y-96136630D01*
X122568662Y-96268484D01*
X122572107Y-96272582D01*
X122572108Y-96272584D01*
X122598203Y-96303628D01*
X122661354Y-96378755D01*
X122781270Y-96458577D01*
X122918769Y-96501535D01*
X122992871Y-96502893D01*
X123057436Y-96504077D01*
X123057438Y-96504077D01*
X123062798Y-96504175D01*
X123067969Y-96502765D01*
X123067971Y-96502765D01*
X123151953Y-96479869D01*
X123201779Y-96466285D01*
X123294595Y-96409296D01*
X123319970Y-96393716D01*
X123319973Y-96393714D01*
X123324539Y-96390910D01*
X123421210Y-96284110D01*
X123426795Y-96272584D01*
X123481682Y-96159296D01*
X123481682Y-96159295D01*
X123484020Y-96154470D01*
X123507919Y-96012413D01*
X123508071Y-96000000D01*
X123507659Y-95997120D01*
X123488409Y-95862704D01*
X123488408Y-95862700D01*
X123487649Y-95857401D01*
X123484089Y-95849570D01*
X123443011Y-95759225D01*
X123439020Y-95707940D01*
X123468927Y-95666089D01*
X123511467Y-95652900D01*
X124242920Y-95652899D01*
X124265056Y-95652899D01*
X124309658Y-95644028D01*
X124360234Y-95610234D01*
X124394028Y-95559658D01*
X124402900Y-95515057D01*
X124402900Y-95243793D01*
X125856967Y-95243793D01*
X125857661Y-95249100D01*
X125857661Y-95249103D01*
X125860712Y-95272436D01*
X125875645Y-95386630D01*
X125933662Y-95518484D01*
X125937107Y-95522582D01*
X125937108Y-95522584D01*
X125962166Y-95552394D01*
X126026354Y-95628755D01*
X126069611Y-95657549D01*
X126126293Y-95695279D01*
X126146270Y-95708577D01*
X126283769Y-95751535D01*
X126357871Y-95752893D01*
X126422436Y-95754077D01*
X126422438Y-95754077D01*
X126427798Y-95754175D01*
X126432969Y-95752765D01*
X126432971Y-95752765D01*
X126508695Y-95732120D01*
X126566779Y-95716285D01*
X126634139Y-95674926D01*
X126684970Y-95643716D01*
X126684973Y-95643714D01*
X126689539Y-95640910D01*
X126786210Y-95534110D01*
X126790777Y-95524685D01*
X126846682Y-95409296D01*
X126846682Y-95409295D01*
X126849020Y-95404470D01*
X126872919Y-95262413D01*
X126873071Y-95250000D01*
X126872659Y-95247120D01*
X126853409Y-95112704D01*
X126853408Y-95112700D01*
X126852649Y-95107401D01*
X126849160Y-95099726D01*
X126800390Y-94992463D01*
X126793026Y-94976266D01*
X126788538Y-94971057D01*
X126702487Y-94871190D01*
X126702484Y-94871187D01*
X126698993Y-94867136D01*
X126694502Y-94864225D01*
X126582604Y-94791697D01*
X126582603Y-94791697D01*
X126578111Y-94788785D01*
X126501912Y-94765997D01*
X126445232Y-94749045D01*
X126445229Y-94749045D01*
X126440098Y-94747510D01*
X126434743Y-94747477D01*
X126434741Y-94747477D01*
X126369524Y-94747079D01*
X126296047Y-94746630D01*
X126290897Y-94748102D01*
X126290896Y-94748102D01*
X126252075Y-94759197D01*
X126157539Y-94786215D01*
X126153013Y-94789071D01*
X126153010Y-94789072D01*
X126040237Y-94860227D01*
X126035709Y-94863084D01*
X126028550Y-94871190D01*
X125943897Y-94967041D01*
X125943895Y-94967044D01*
X125940351Y-94971057D01*
X125879129Y-95101454D01*
X125878305Y-95106744D01*
X125878305Y-95106745D01*
X125872671Y-95142929D01*
X125856967Y-95243793D01*
X124402900Y-95243793D01*
X124402899Y-93984944D01*
X124394028Y-93940342D01*
X124360234Y-93889766D01*
X124347582Y-93881312D01*
X124315817Y-93860087D01*
X124315816Y-93860086D01*
X124309658Y-93855972D01*
X124302394Y-93854527D01*
X124268682Y-93847821D01*
X124268681Y-93847821D01*
X124265057Y-93847100D01*
X124233726Y-93847100D01*
X124185388Y-93829507D01*
X124159668Y-93784958D01*
X124168601Y-93734300D01*
X124180552Y-93718726D01*
X124360052Y-93539226D01*
X124406672Y-93517486D01*
X124413226Y-93517200D01*
X126216271Y-93517200D01*
X126230942Y-93518645D01*
X126250000Y-93522436D01*
X126257264Y-93520991D01*
X126346993Y-93503142D01*
X126354257Y-93501697D01*
X126420329Y-93457549D01*
X126442641Y-93442641D01*
X126453436Y-93426485D01*
X126462788Y-93415090D01*
X126915090Y-92962788D01*
X126926486Y-92953435D01*
X126936485Y-92946754D01*
X126942641Y-92942641D01*
X127001697Y-92854256D01*
X127005203Y-92836630D01*
X127020991Y-92757265D01*
X127020991Y-92757264D01*
X127022436Y-92750000D01*
X127019818Y-92736839D01*
X127018645Y-92730942D01*
X127017200Y-92716271D01*
X127017200Y-91783725D01*
X127018645Y-91769054D01*
X127020990Y-91757265D01*
X127020990Y-91757264D01*
X127022435Y-91750000D01*
X127016138Y-91718342D01*
X127003142Y-91653007D01*
X127001697Y-91645743D01*
X126995988Y-91637198D01*
X126967617Y-91594739D01*
X126946755Y-91563516D01*
X126942641Y-91557359D01*
X126926485Y-91546564D01*
X126915090Y-91537212D01*
X123579489Y-88201611D01*
X123570136Y-88190215D01*
X123563455Y-88180216D01*
X123559342Y-88174060D01*
X123545917Y-88165090D01*
X123524449Y-88150746D01*
X123524447Y-88150745D01*
X123470958Y-88115004D01*
X123366701Y-88094265D01*
X123359437Y-88095710D01*
X123347643Y-88098056D01*
X123332972Y-88099501D01*
X113848527Y-88099501D01*
X113800189Y-88081908D01*
X113795353Y-88077475D01*
X113111671Y-87393793D01*
X123291967Y-87393793D01*
X123292661Y-87399100D01*
X123292661Y-87399103D01*
X123293159Y-87402909D01*
X123310645Y-87536630D01*
X123368662Y-87668484D01*
X123372107Y-87672582D01*
X123372108Y-87672584D01*
X123399717Y-87705429D01*
X123461354Y-87778755D01*
X123581270Y-87858577D01*
X123718769Y-87901535D01*
X123792871Y-87902893D01*
X123857436Y-87904077D01*
X123857438Y-87904077D01*
X123862798Y-87904175D01*
X123870024Y-87902205D01*
X123870593Y-87902050D01*
X123872463Y-87902205D01*
X123873284Y-87902103D01*
X123873305Y-87902275D01*
X123921856Y-87906308D01*
X123943549Y-87921427D01*
X128210774Y-92188652D01*
X128232514Y-92235272D01*
X128232800Y-92241826D01*
X128232800Y-94216271D01*
X128231355Y-94230942D01*
X128227564Y-94250000D01*
X128229009Y-94257264D01*
X128246683Y-94346111D01*
X128248303Y-94354257D01*
X128264672Y-94378755D01*
X128307359Y-94442641D01*
X128313518Y-94446756D01*
X128323514Y-94453435D01*
X128334910Y-94462788D01*
X128981659Y-95109537D01*
X129003399Y-95156157D01*
X129002790Y-95174280D01*
X128997610Y-95207549D01*
X128991967Y-95243793D01*
X128992661Y-95249100D01*
X128992661Y-95249103D01*
X128995712Y-95272436D01*
X129010645Y-95386630D01*
X129068662Y-95518484D01*
X129072107Y-95522582D01*
X129072108Y-95522584D01*
X129097166Y-95552394D01*
X129161354Y-95628755D01*
X129204611Y-95657549D01*
X129261293Y-95695279D01*
X129281270Y-95708577D01*
X129418769Y-95751535D01*
X129492871Y-95752893D01*
X129557436Y-95754077D01*
X129557438Y-95754077D01*
X129562798Y-95754175D01*
X129567969Y-95752765D01*
X129567971Y-95752765D01*
X129643695Y-95732120D01*
X129701779Y-95716285D01*
X129753391Y-95684595D01*
X135107841Y-95684595D01*
X135109485Y-95695279D01*
X135112100Y-95697572D01*
X135112249Y-95697600D01*
X136834341Y-95697600D01*
X136844498Y-95693903D01*
X136847600Y-95688531D01*
X136847600Y-95684341D01*
X137152400Y-95684341D01*
X137156097Y-95694498D01*
X137161469Y-95697600D01*
X138879926Y-95697600D01*
X138890083Y-95693903D01*
X138891984Y-95690611D01*
X138868485Y-95553851D01*
X138866710Y-95547229D01*
X138795788Y-95354988D01*
X138792831Y-95348790D01*
X138688069Y-95172699D01*
X138684031Y-95167141D01*
X138548934Y-95013092D01*
X138543949Y-95008361D01*
X138383036Y-94881508D01*
X138377281Y-94877771D01*
X138195941Y-94782363D01*
X138189609Y-94779740D01*
X137993913Y-94718975D01*
X137987203Y-94717549D01*
X137820856Y-94697861D01*
X137816435Y-94697600D01*
X137165659Y-94697600D01*
X137155502Y-94701297D01*
X137152400Y-94706669D01*
X137152400Y-95684341D01*
X136847600Y-95684341D01*
X136847600Y-94710859D01*
X136843903Y-94700702D01*
X136838531Y-94697600D01*
X136197985Y-94697600D01*
X136194571Y-94697756D01*
X136042525Y-94711728D01*
X136035773Y-94712979D01*
X135838564Y-94768598D01*
X135832157Y-94771057D01*
X135648386Y-94861683D01*
X135642528Y-94865273D01*
X135478354Y-94987867D01*
X135473250Y-94992463D01*
X135334161Y-95142929D01*
X135329986Y-95148369D01*
X135220642Y-95321668D01*
X135217528Y-95327782D01*
X135141602Y-95518090D01*
X135139648Y-95524685D01*
X135107841Y-95684595D01*
X129753391Y-95684595D01*
X129769139Y-95674926D01*
X129819970Y-95643716D01*
X129819973Y-95643714D01*
X129824539Y-95640910D01*
X129921210Y-95534110D01*
X129925777Y-95524685D01*
X129981682Y-95409296D01*
X129981682Y-95409295D01*
X129984020Y-95404470D01*
X130007919Y-95262413D01*
X130008071Y-95250000D01*
X130007659Y-95247120D01*
X129988409Y-95112704D01*
X129988408Y-95112700D01*
X129987649Y-95107401D01*
X129984160Y-95099726D01*
X129935390Y-94992463D01*
X129928026Y-94976266D01*
X129923538Y-94971057D01*
X129837487Y-94871190D01*
X129837484Y-94871187D01*
X129833993Y-94867136D01*
X129829502Y-94864225D01*
X129717604Y-94791697D01*
X129717603Y-94791697D01*
X129713111Y-94788785D01*
X129636912Y-94765997D01*
X129580232Y-94749045D01*
X129580229Y-94749045D01*
X129575098Y-94747510D01*
X129569743Y-94747477D01*
X129569741Y-94747477D01*
X129504524Y-94747079D01*
X129431047Y-94746630D01*
X129425895Y-94748102D01*
X129420591Y-94748829D01*
X129420255Y-94746377D01*
X129378300Y-94743399D01*
X129355784Y-94727906D01*
X128973989Y-94346111D01*
X134274646Y-94346111D01*
X134275920Y-94350865D01*
X134293681Y-94365981D01*
X134299679Y-94370150D01*
X134473423Y-94467251D01*
X134480136Y-94470184D01*
X134669421Y-94531686D01*
X134676569Y-94533258D01*
X134874196Y-94556824D01*
X134881528Y-94556977D01*
X135079964Y-94541708D01*
X135087173Y-94540437D01*
X135278870Y-94486915D01*
X135285703Y-94484264D01*
X135463347Y-94394530D01*
X135469533Y-94390605D01*
X135518335Y-94352476D01*
X135524065Y-94343307D01*
X135523457Y-94338984D01*
X134909377Y-93724903D01*
X134899578Y-93720334D01*
X134893587Y-93721939D01*
X134279215Y-94336312D01*
X134274646Y-94346111D01*
X128973989Y-94346111D01*
X128789226Y-94161348D01*
X128767486Y-94114728D01*
X128767200Y-94108174D01*
X128767200Y-93743793D01*
X129241967Y-93743793D01*
X129242661Y-93749100D01*
X129242661Y-93749103D01*
X129245654Y-93771992D01*
X129260645Y-93886630D01*
X129318662Y-94018484D01*
X129411354Y-94128755D01*
X129531270Y-94208577D01*
X129668769Y-94251535D01*
X129742871Y-94252893D01*
X129807436Y-94254077D01*
X129807438Y-94254077D01*
X129812798Y-94254175D01*
X129817969Y-94252765D01*
X129817971Y-94252765D01*
X129927900Y-94222795D01*
X129951779Y-94216285D01*
X130004871Y-94183686D01*
X130069970Y-94143716D01*
X130069973Y-94143714D01*
X130074539Y-94140910D01*
X130098548Y-94114386D01*
X130167612Y-94038085D01*
X130171210Y-94034110D01*
X130176795Y-94022584D01*
X130231682Y-93909296D01*
X130231682Y-93909295D01*
X130234020Y-93904470D01*
X130257919Y-93762413D01*
X130258071Y-93750000D01*
X130257602Y-93746724D01*
X130238409Y-93612704D01*
X130238408Y-93612700D01*
X130237649Y-93607401D01*
X130227427Y-93584917D01*
X130193450Y-93510189D01*
X130183773Y-93488906D01*
X133842919Y-93488906D01*
X133859573Y-93687231D01*
X133860895Y-93694433D01*
X133915755Y-93885753D01*
X133918451Y-93892562D01*
X134009427Y-94069580D01*
X134013393Y-94075735D01*
X134047313Y-94118532D01*
X134056522Y-94124197D01*
X134060928Y-94123546D01*
X134675097Y-93509377D01*
X134679272Y-93500422D01*
X135120334Y-93500422D01*
X135121939Y-93506413D01*
X135736668Y-94121141D01*
X135746467Y-94125710D01*
X135751317Y-94124411D01*
X135761718Y-94112360D01*
X135765943Y-94106372D01*
X135864249Y-93933322D01*
X135867229Y-93926627D01*
X135930051Y-93737780D01*
X135931674Y-93730635D01*
X135956816Y-93531616D01*
X135957109Y-93527424D01*
X135957463Y-93502099D01*
X135957287Y-93497907D01*
X135937712Y-93298266D01*
X135936288Y-93291079D01*
X135935487Y-93288425D01*
X136232331Y-93288425D01*
X136233302Y-93292050D01*
X136368718Y-93386869D01*
X136374385Y-93390141D01*
X136567039Y-93479978D01*
X136573190Y-93482217D01*
X136778521Y-93537235D01*
X136784963Y-93538371D01*
X136996731Y-93556898D01*
X137003269Y-93556898D01*
X137215037Y-93538371D01*
X137221479Y-93537235D01*
X137426810Y-93482217D01*
X137432961Y-93479978D01*
X137625615Y-93390141D01*
X137631282Y-93386869D01*
X137761615Y-93295608D01*
X137767815Y-93286755D01*
X137767488Y-93283014D01*
X137009377Y-92524903D01*
X136999578Y-92520334D01*
X136993587Y-92521939D01*
X136236900Y-93278626D01*
X136232331Y-93288425D01*
X135935487Y-93288425D01*
X135892948Y-93147527D01*
X135895820Y-93096167D01*
X135931033Y-93058669D01*
X135982111Y-93052579D01*
X136008073Y-93064193D01*
X136013246Y-93067815D01*
X136016986Y-93067488D01*
X136775097Y-92309377D01*
X136779272Y-92300422D01*
X137220334Y-92300422D01*
X137221939Y-92306413D01*
X137978626Y-93063100D01*
X137988425Y-93067669D01*
X137992050Y-93066698D01*
X138086869Y-92931282D01*
X138090141Y-92925615D01*
X138179978Y-92732961D01*
X138182217Y-92726810D01*
X138237235Y-92521479D01*
X138238371Y-92515037D01*
X138256898Y-92303269D01*
X138256898Y-92296731D01*
X138238371Y-92084963D01*
X138237235Y-92078521D01*
X138182217Y-91873190D01*
X138179978Y-91867039D01*
X138090141Y-91674385D01*
X138086869Y-91668718D01*
X137995608Y-91538385D01*
X137986755Y-91532185D01*
X137983014Y-91532512D01*
X137224903Y-92290623D01*
X137220334Y-92300422D01*
X136779272Y-92300422D01*
X136779666Y-92299578D01*
X136778061Y-92293587D01*
X136021374Y-91536900D01*
X136011575Y-91532331D01*
X136007950Y-91533302D01*
X135913131Y-91668718D01*
X135909859Y-91674385D01*
X135820022Y-91867039D01*
X135817783Y-91873190D01*
X135762765Y-92078521D01*
X135761629Y-92084963D01*
X135743102Y-92296731D01*
X135743102Y-92303269D01*
X135761629Y-92515037D01*
X135762765Y-92521479D01*
X135817783Y-92726810D01*
X135820022Y-92732961D01*
X135838022Y-92771561D01*
X135842506Y-92822805D01*
X135813001Y-92864942D01*
X135763314Y-92878256D01*
X135751014Y-92874283D01*
X135739356Y-92876171D01*
X135124903Y-93490623D01*
X135120334Y-93500422D01*
X134679272Y-93500422D01*
X134679666Y-93499578D01*
X134678061Y-93493587D01*
X134064008Y-92879535D01*
X134054209Y-92874966D01*
X134049549Y-92876214D01*
X134029813Y-92899734D01*
X134025677Y-92905775D01*
X133929796Y-93080183D01*
X133926909Y-93086919D01*
X133866730Y-93276628D01*
X133865207Y-93283793D01*
X133843022Y-93481573D01*
X133842919Y-93488906D01*
X130183773Y-93488906D01*
X130178026Y-93476266D01*
X130173538Y-93471057D01*
X130087487Y-93371190D01*
X130087484Y-93371187D01*
X130083993Y-93367136D01*
X130079502Y-93364225D01*
X129967604Y-93291697D01*
X129967603Y-93291697D01*
X129963111Y-93288785D01*
X129867450Y-93260176D01*
X129830232Y-93249045D01*
X129830229Y-93249045D01*
X129825098Y-93247510D01*
X129819743Y-93247477D01*
X129819741Y-93247477D01*
X129754524Y-93247079D01*
X129681047Y-93246630D01*
X129675897Y-93248102D01*
X129675896Y-93248102D01*
X129622085Y-93263481D01*
X129542539Y-93286215D01*
X129538013Y-93289071D01*
X129538010Y-93289072D01*
X129484894Y-93322586D01*
X129420709Y-93363084D01*
X129416529Y-93367817D01*
X129328897Y-93467041D01*
X129328895Y-93467044D01*
X129325351Y-93471057D01*
X129314773Y-93493587D01*
X129284244Y-93558612D01*
X129264129Y-93601454D01*
X129263305Y-93606744D01*
X129263305Y-93606745D01*
X129261693Y-93617097D01*
X129241967Y-93743793D01*
X128767200Y-93743793D01*
X128767200Y-92656311D01*
X134275636Y-92656311D01*
X134276331Y-92660804D01*
X134890623Y-93275097D01*
X134900422Y-93279666D01*
X134906413Y-93278061D01*
X135520181Y-92664292D01*
X135524750Y-92654493D01*
X135523526Y-92649925D01*
X135494172Y-92625640D01*
X135488113Y-92621553D01*
X135313027Y-92526885D01*
X135306283Y-92524050D01*
X135116149Y-92465194D01*
X135108982Y-92463723D01*
X134911038Y-92442918D01*
X134903725Y-92442867D01*
X134705504Y-92460906D01*
X134698318Y-92462277D01*
X134507387Y-92518471D01*
X134500600Y-92521213D01*
X134324210Y-92613427D01*
X134318093Y-92617430D01*
X134281235Y-92647065D01*
X134275636Y-92656311D01*
X128767200Y-92656311D01*
X128767200Y-92133729D01*
X128768645Y-92119058D01*
X128770991Y-92107264D01*
X128772436Y-92100000D01*
X128751697Y-91995744D01*
X128732013Y-91966285D01*
X128692641Y-91907359D01*
X128676485Y-91896564D01*
X128665090Y-91887212D01*
X126131671Y-89353793D01*
X128221967Y-89353793D01*
X128222661Y-89359100D01*
X128222661Y-89359103D01*
X128228594Y-89404470D01*
X128240645Y-89496630D01*
X128266488Y-89555362D01*
X128290469Y-89609863D01*
X128298662Y-89628484D01*
X128302107Y-89632582D01*
X128302108Y-89632584D01*
X128331206Y-89667200D01*
X128391354Y-89738755D01*
X128511270Y-89818577D01*
X128648769Y-89861535D01*
X128722871Y-89862893D01*
X128787436Y-89864077D01*
X128787438Y-89864077D01*
X128792798Y-89864175D01*
X128797969Y-89862765D01*
X128797971Y-89862765D01*
X128924802Y-89828187D01*
X128931779Y-89826285D01*
X128997201Y-89786116D01*
X129049970Y-89753716D01*
X129049973Y-89753714D01*
X129054539Y-89750910D01*
X129066837Y-89737324D01*
X129147612Y-89648085D01*
X129151210Y-89644110D01*
X129176850Y-89591189D01*
X129213756Y-89555362D01*
X129265061Y-89551639D01*
X129306756Y-89581765D01*
X129313352Y-89593690D01*
X129328662Y-89628484D01*
X129332107Y-89632582D01*
X129332108Y-89632584D01*
X129361206Y-89667200D01*
X129421354Y-89738755D01*
X129459269Y-89763993D01*
X129489759Y-89805423D01*
X129492800Y-89826593D01*
X129492800Y-90356271D01*
X129491355Y-90370942D01*
X129487564Y-90390000D01*
X129508303Y-90494257D01*
X129529691Y-90526266D01*
X129567359Y-90582641D01*
X129583518Y-90593438D01*
X129594913Y-90602791D01*
X130157210Y-91165087D01*
X130166562Y-91176482D01*
X130177359Y-91192641D01*
X130239852Y-91234397D01*
X130265743Y-91251697D01*
X130273005Y-91253141D01*
X130273006Y-91253142D01*
X130362735Y-91270990D01*
X130370000Y-91272435D01*
X130377264Y-91270990D01*
X130377265Y-91270990D01*
X130389054Y-91268645D01*
X130403725Y-91267200D01*
X133824572Y-91267200D01*
X133872910Y-91284793D01*
X133896859Y-91321671D01*
X133916301Y-91389474D01*
X134010685Y-91573125D01*
X134138942Y-91734945D01*
X134141736Y-91737323D01*
X134141737Y-91737324D01*
X134199184Y-91786215D01*
X134296188Y-91868772D01*
X134299389Y-91870561D01*
X134299392Y-91870563D01*
X134340067Y-91893295D01*
X134476433Y-91969507D01*
X134479934Y-91970644D01*
X134479935Y-91970645D01*
X134497235Y-91976266D01*
X134672811Y-92033314D01*
X134744999Y-92041922D01*
X134874185Y-92057327D01*
X134874187Y-92057327D01*
X134877843Y-92057763D01*
X135083719Y-92041922D01*
X135236581Y-91999242D01*
X135279052Y-91987384D01*
X135279054Y-91987383D01*
X135282597Y-91986394D01*
X135439060Y-91907359D01*
X135463618Y-91894954D01*
X135463619Y-91894953D01*
X135466902Y-91893295D01*
X135629614Y-91766170D01*
X135764535Y-91609863D01*
X135790864Y-91563516D01*
X135864711Y-91433522D01*
X135864712Y-91433521D01*
X135866527Y-91430325D01*
X135905474Y-91313245D01*
X136232185Y-91313245D01*
X136232512Y-91316986D01*
X136990623Y-92075097D01*
X137000422Y-92079666D01*
X137006413Y-92078061D01*
X137763100Y-91321374D01*
X137767669Y-91311575D01*
X137766698Y-91307950D01*
X137631282Y-91213131D01*
X137625615Y-91209859D01*
X137432961Y-91120022D01*
X137426810Y-91117783D01*
X137221479Y-91062765D01*
X137215037Y-91061629D01*
X137003269Y-91043102D01*
X136996731Y-91043102D01*
X136784963Y-91061629D01*
X136778521Y-91062765D01*
X136573190Y-91117783D01*
X136567039Y-91120022D01*
X136374385Y-91209859D01*
X136368718Y-91213131D01*
X136238385Y-91304392D01*
X136232185Y-91313245D01*
X135905474Y-91313245D01*
X135931703Y-91234397D01*
X135936459Y-91196755D01*
X135957319Y-91031630D01*
X135957583Y-91029541D01*
X135957995Y-91000000D01*
X135957372Y-90993641D01*
X135938206Y-90798168D01*
X135938205Y-90798163D01*
X135937846Y-90794501D01*
X135878165Y-90596829D01*
X135781227Y-90414515D01*
X135767158Y-90397264D01*
X135653045Y-90257349D01*
X135653044Y-90257348D01*
X135650722Y-90254501D01*
X135491623Y-90122882D01*
X135473364Y-90113009D01*
X135421728Y-90085090D01*
X135386689Y-90066144D01*
X135352538Y-90027678D01*
X135351102Y-89976258D01*
X135383053Y-89935945D01*
X135388551Y-89932873D01*
X135463618Y-89894954D01*
X135463619Y-89894953D01*
X135466902Y-89893295D01*
X135629614Y-89766170D01*
X135764535Y-89609863D01*
X135810351Y-89529212D01*
X135864711Y-89433522D01*
X135864712Y-89433521D01*
X135866527Y-89430325D01*
X135931703Y-89234397D01*
X135932342Y-89229343D01*
X135951582Y-89077041D01*
X135957583Y-89029541D01*
X135957995Y-89000000D01*
X135955753Y-88977136D01*
X135938206Y-88798168D01*
X135938205Y-88798163D01*
X135937846Y-88794501D01*
X135905820Y-88688425D01*
X136232331Y-88688425D01*
X136233302Y-88692050D01*
X136368718Y-88786869D01*
X136374385Y-88790141D01*
X136567039Y-88879978D01*
X136573190Y-88882217D01*
X136778521Y-88937235D01*
X136784963Y-88938371D01*
X136996731Y-88956898D01*
X137003269Y-88956898D01*
X137215037Y-88938371D01*
X137221479Y-88937235D01*
X137426810Y-88882217D01*
X137432961Y-88879978D01*
X137625615Y-88790141D01*
X137631282Y-88786869D01*
X137761615Y-88695608D01*
X137767815Y-88686755D01*
X137767488Y-88683014D01*
X137009377Y-87924903D01*
X136999578Y-87920334D01*
X136993587Y-87921939D01*
X136236900Y-88678626D01*
X136232331Y-88688425D01*
X135905820Y-88688425D01*
X135878165Y-88596829D01*
X135781227Y-88414515D01*
X135753205Y-88380156D01*
X135653045Y-88257349D01*
X135653044Y-88257348D01*
X135650722Y-88254501D01*
X135491623Y-88122882D01*
X135484666Y-88119120D01*
X135407645Y-88077475D01*
X135309990Y-88024673D01*
X135112739Y-87963614D01*
X134984065Y-87950090D01*
X134911041Y-87942415D01*
X134911039Y-87942415D01*
X134907386Y-87942031D01*
X134701752Y-87960745D01*
X134602710Y-87989894D01*
X134507197Y-88018005D01*
X134507194Y-88018006D01*
X134503668Y-88019044D01*
X134500411Y-88020747D01*
X134500408Y-88020748D01*
X134352533Y-88098056D01*
X134320681Y-88114708D01*
X134317815Y-88117013D01*
X134317814Y-88117013D01*
X134168509Y-88237057D01*
X134159760Y-88244091D01*
X134157398Y-88246906D01*
X134079924Y-88339236D01*
X134035375Y-88364956D01*
X134022317Y-88366098D01*
X129477464Y-88366098D01*
X129462793Y-88364653D01*
X129451004Y-88362308D01*
X129451003Y-88362308D01*
X129443739Y-88360863D01*
X129417421Y-88366098D01*
X129339483Y-88381601D01*
X129251098Y-88440657D01*
X129246984Y-88446814D01*
X129214202Y-88495877D01*
X129204849Y-88507273D01*
X128874309Y-88837813D01*
X128827689Y-88859553D01*
X128810135Y-88859017D01*
X128805098Y-88857510D01*
X128799746Y-88857477D01*
X128799744Y-88857477D01*
X128732370Y-88857066D01*
X128661047Y-88856630D01*
X128655897Y-88858102D01*
X128655896Y-88858102D01*
X128650819Y-88859553D01*
X128522539Y-88896215D01*
X128518013Y-88899071D01*
X128518010Y-88899072D01*
X128405237Y-88970227D01*
X128400709Y-88973084D01*
X128396459Y-88977896D01*
X128308897Y-89077041D01*
X128308895Y-89077044D01*
X128305351Y-89081057D01*
X128300614Y-89091147D01*
X128255460Y-89187321D01*
X128244129Y-89211454D01*
X128243305Y-89216744D01*
X128243305Y-89216745D01*
X128238290Y-89248955D01*
X128221967Y-89353793D01*
X126131671Y-89353793D01*
X125410174Y-88632296D01*
X125388434Y-88585676D01*
X125401748Y-88535989D01*
X125443885Y-88506484D01*
X125454054Y-88504499D01*
X125457444Y-88504077D01*
X125462798Y-88504175D01*
X125467961Y-88502767D01*
X125467964Y-88502767D01*
X125551745Y-88479926D01*
X125601779Y-88466285D01*
X125686095Y-88414515D01*
X125719970Y-88393716D01*
X125719973Y-88393714D01*
X125724539Y-88390910D01*
X125814128Y-88291934D01*
X125859608Y-88267905D01*
X125869879Y-88267200D01*
X125966271Y-88267200D01*
X125980942Y-88268645D01*
X126000000Y-88272436D01*
X126007264Y-88270991D01*
X126096993Y-88253142D01*
X126104257Y-88251697D01*
X126170329Y-88207549D01*
X126192641Y-88192641D01*
X126203436Y-88176485D01*
X126212788Y-88165090D01*
X127516085Y-86861793D01*
X129666967Y-86861793D01*
X129667661Y-86867100D01*
X129667661Y-86867103D01*
X129671715Y-86898102D01*
X129685645Y-87004630D01*
X129716338Y-87074385D01*
X129741314Y-87131147D01*
X129743662Y-87136484D01*
X129747107Y-87140582D01*
X129747108Y-87140584D01*
X129786427Y-87187359D01*
X129836354Y-87246755D01*
X129956270Y-87326577D01*
X130093769Y-87369535D01*
X130167871Y-87370893D01*
X130232436Y-87372077D01*
X130232438Y-87372077D01*
X130237798Y-87372175D01*
X130242969Y-87370765D01*
X130242971Y-87370765D01*
X130318695Y-87350120D01*
X130376779Y-87334285D01*
X130429871Y-87301686D01*
X130494970Y-87261716D01*
X130494973Y-87261714D01*
X130499539Y-87258910D01*
X130596210Y-87152110D01*
X130601795Y-87140584D01*
X130656682Y-87027296D01*
X130656682Y-87027295D01*
X130659020Y-87022470D01*
X130682919Y-86880413D01*
X130683071Y-86868000D01*
X130682659Y-86865120D01*
X130663409Y-86730704D01*
X130663408Y-86730700D01*
X130662649Y-86725401D01*
X130647003Y-86690988D01*
X130611603Y-86613131D01*
X130603026Y-86594266D01*
X130598538Y-86589057D01*
X130512487Y-86489190D01*
X130512484Y-86489187D01*
X130508993Y-86485136D01*
X130503485Y-86481566D01*
X130392604Y-86409697D01*
X130392603Y-86409697D01*
X130388111Y-86406785D01*
X130311912Y-86383997D01*
X130255232Y-86367045D01*
X130255229Y-86367045D01*
X130250098Y-86365510D01*
X130244743Y-86365477D01*
X130244741Y-86365477D01*
X130179524Y-86365079D01*
X130106047Y-86364630D01*
X130100897Y-86366102D01*
X130100896Y-86366102D01*
X130062075Y-86377197D01*
X129967539Y-86404215D01*
X129963013Y-86407071D01*
X129963010Y-86407072D01*
X129876543Y-86461629D01*
X129845709Y-86481084D01*
X129842049Y-86485228D01*
X129753897Y-86585041D01*
X129753895Y-86585044D01*
X129750351Y-86589057D01*
X129746427Y-86597414D01*
X129696201Y-86704392D01*
X129689129Y-86719454D01*
X129688305Y-86724744D01*
X129688305Y-86724745D01*
X129682259Y-86763580D01*
X129666967Y-86861793D01*
X127516085Y-86861793D01*
X129165090Y-85212788D01*
X129176486Y-85203435D01*
X129186485Y-85196754D01*
X129192641Y-85192641D01*
X129251697Y-85104256D01*
X129255528Y-85084997D01*
X129272436Y-85000000D01*
X129268645Y-84980942D01*
X129267200Y-84966271D01*
X129267200Y-84142828D01*
X129284793Y-84094490D01*
X129308606Y-84075650D01*
X129363963Y-84047808D01*
X129413968Y-84005100D01*
X129480678Y-83948124D01*
X129480679Y-83948123D01*
X129484127Y-83945178D01*
X129576343Y-83816847D01*
X129583684Y-83798587D01*
X129633594Y-83674430D01*
X129635285Y-83670224D01*
X129657551Y-83513774D01*
X129657695Y-83500000D01*
X129656862Y-83493113D01*
X130406341Y-83493113D01*
X130406838Y-83497615D01*
X130406838Y-83497619D01*
X130415161Y-83573004D01*
X130423682Y-83650185D01*
X130425238Y-83654437D01*
X130425239Y-83654441D01*
X130432554Y-83674430D01*
X130477989Y-83798587D01*
X130480513Y-83802343D01*
X130480515Y-83802347D01*
X130563602Y-83925993D01*
X130563605Y-83925997D01*
X130566128Y-83929751D01*
X130569480Y-83932801D01*
X130679653Y-84033051D01*
X130679656Y-84033053D01*
X130683010Y-84036105D01*
X130686996Y-84038269D01*
X130686997Y-84038270D01*
X130757482Y-84076540D01*
X130791567Y-84115066D01*
X130796800Y-84142627D01*
X130796800Y-86453271D01*
X130795355Y-86467942D01*
X130791564Y-86487000D01*
X130793009Y-86494264D01*
X130803122Y-86545101D01*
X130812303Y-86591257D01*
X130842620Y-86636630D01*
X130871359Y-86679641D01*
X130877518Y-86683756D01*
X130887514Y-86690435D01*
X130898910Y-86699788D01*
X130926659Y-86727537D01*
X130948399Y-86774157D01*
X130947790Y-86792280D01*
X130936967Y-86861793D01*
X130937661Y-86867100D01*
X130937661Y-86867103D01*
X130941715Y-86898102D01*
X130955645Y-87004630D01*
X130986338Y-87074385D01*
X131011314Y-87131147D01*
X131013662Y-87136484D01*
X131017107Y-87140582D01*
X131017108Y-87140584D01*
X131056427Y-87187359D01*
X131106354Y-87246755D01*
X131226270Y-87326577D01*
X131363769Y-87369535D01*
X131437871Y-87370893D01*
X131502436Y-87372077D01*
X131502438Y-87372077D01*
X131507798Y-87372175D01*
X131512969Y-87370765D01*
X131512971Y-87370765D01*
X131588695Y-87350120D01*
X131646779Y-87334285D01*
X131699871Y-87301686D01*
X131764970Y-87261716D01*
X131764973Y-87261714D01*
X131769539Y-87258910D01*
X131866210Y-87152110D01*
X131871795Y-87140584D01*
X131926682Y-87027296D01*
X131926682Y-87027295D01*
X131929020Y-87022470D01*
X131952919Y-86880413D01*
X131953071Y-86868000D01*
X131952659Y-86865120D01*
X131933409Y-86730704D01*
X131933408Y-86730700D01*
X131932649Y-86725401D01*
X131917003Y-86690988D01*
X131881603Y-86613131D01*
X131873026Y-86594266D01*
X131868538Y-86589057D01*
X131782487Y-86489190D01*
X131782484Y-86489187D01*
X131779072Y-86485228D01*
X133842108Y-86485228D01*
X133842416Y-86488896D01*
X133842416Y-86488899D01*
X133858779Y-86683756D01*
X133859386Y-86690988D01*
X133884705Y-86779285D01*
X133912868Y-86877500D01*
X133916301Y-86889474D01*
X134010685Y-87073125D01*
X134138942Y-87234945D01*
X134141736Y-87237323D01*
X134141737Y-87237324D01*
X134243119Y-87323607D01*
X134296188Y-87368772D01*
X134299389Y-87370561D01*
X134299392Y-87370563D01*
X134374275Y-87412413D01*
X134476433Y-87469507D01*
X134479934Y-87470644D01*
X134479935Y-87470645D01*
X134504175Y-87478521D01*
X134672811Y-87533314D01*
X134744999Y-87541922D01*
X134874185Y-87557327D01*
X134874187Y-87557327D01*
X134877843Y-87557763D01*
X135083719Y-87541922D01*
X135203757Y-87508407D01*
X135279052Y-87487384D01*
X135279054Y-87487383D01*
X135282597Y-87486394D01*
X135429055Y-87412413D01*
X135463618Y-87394954D01*
X135463619Y-87394953D01*
X135466902Y-87393295D01*
X135629614Y-87266170D01*
X135691667Y-87194281D01*
X135736570Y-87169185D01*
X135787099Y-87178824D01*
X135819610Y-87218687D01*
X135819257Y-87269141D01*
X135817783Y-87273190D01*
X135762765Y-87478521D01*
X135761629Y-87484963D01*
X135743102Y-87696731D01*
X135743102Y-87703269D01*
X135761629Y-87915037D01*
X135762765Y-87921479D01*
X135817783Y-88126810D01*
X135820022Y-88132961D01*
X135909859Y-88325615D01*
X135913131Y-88331282D01*
X136004392Y-88461615D01*
X136013245Y-88467815D01*
X136016986Y-88467488D01*
X136775097Y-87709377D01*
X136779272Y-87700422D01*
X137220334Y-87700422D01*
X137221939Y-87706413D01*
X137978626Y-88463100D01*
X137988425Y-88467669D01*
X137992050Y-88466698D01*
X138086869Y-88331282D01*
X138090141Y-88325615D01*
X138179978Y-88132961D01*
X138182217Y-88126810D01*
X138237235Y-87921479D01*
X138238371Y-87915037D01*
X138256898Y-87703269D01*
X138256898Y-87696731D01*
X138238371Y-87484963D01*
X138237235Y-87478521D01*
X138182217Y-87273190D01*
X138179978Y-87267039D01*
X138090141Y-87074385D01*
X138086869Y-87068718D01*
X137995608Y-86938385D01*
X137986755Y-86932185D01*
X137983014Y-86932512D01*
X137224903Y-87690623D01*
X137220334Y-87700422D01*
X136779272Y-87700422D01*
X136779666Y-87699578D01*
X136778061Y-87693587D01*
X136021374Y-86936900D01*
X136011575Y-86932331D01*
X135988328Y-86938560D01*
X135987753Y-86936413D01*
X135972929Y-86943326D01*
X135923242Y-86930012D01*
X135893737Y-86887875D01*
X135895019Y-86844676D01*
X135930543Y-86737886D01*
X135930544Y-86737880D01*
X135931703Y-86734397D01*
X135932840Y-86725401D01*
X135934376Y-86713245D01*
X136232185Y-86713245D01*
X136232512Y-86716986D01*
X136990623Y-87475097D01*
X137000422Y-87479666D01*
X137006413Y-87478061D01*
X137763100Y-86721374D01*
X137767669Y-86711575D01*
X137766698Y-86707950D01*
X137631282Y-86613131D01*
X137625615Y-86609859D01*
X137432961Y-86520022D01*
X137426810Y-86517783D01*
X137221479Y-86462765D01*
X137215037Y-86461629D01*
X137003269Y-86443102D01*
X136996731Y-86443102D01*
X136784963Y-86461629D01*
X136778521Y-86462765D01*
X136573190Y-86517783D01*
X136567039Y-86520022D01*
X136374385Y-86609859D01*
X136368718Y-86613131D01*
X136238385Y-86704392D01*
X136232185Y-86713245D01*
X135934376Y-86713245D01*
X135957319Y-86531630D01*
X135957583Y-86529541D01*
X135957863Y-86509500D01*
X135957966Y-86502099D01*
X135957966Y-86502094D01*
X135957995Y-86500000D01*
X135957433Y-86494264D01*
X135938206Y-86298168D01*
X135938205Y-86298163D01*
X135937846Y-86294501D01*
X135878165Y-86096829D01*
X135781227Y-85914515D01*
X135777627Y-85910100D01*
X135653045Y-85757349D01*
X135653044Y-85757348D01*
X135650722Y-85754501D01*
X135491623Y-85622882D01*
X135472800Y-85612704D01*
X135432740Y-85591044D01*
X135309990Y-85524673D01*
X135112739Y-85463614D01*
X134984065Y-85450090D01*
X134911041Y-85442415D01*
X134911039Y-85442415D01*
X134907386Y-85442031D01*
X134701752Y-85460745D01*
X134632432Y-85481147D01*
X134507197Y-85518005D01*
X134507194Y-85518006D01*
X134503668Y-85519044D01*
X134500411Y-85520747D01*
X134500408Y-85520748D01*
X134324514Y-85612704D01*
X134320681Y-85614708D01*
X134317815Y-85617013D01*
X134317814Y-85617013D01*
X134310515Y-85622882D01*
X134159760Y-85744091D01*
X134157398Y-85746906D01*
X134061023Y-85861762D01*
X134027034Y-85902268D01*
X133927559Y-86083211D01*
X133865125Y-86280030D01*
X133842108Y-86485228D01*
X131779072Y-86485228D01*
X131778993Y-86485136D01*
X131773485Y-86481566D01*
X131662604Y-86409697D01*
X131662603Y-86409697D01*
X131658111Y-86406785D01*
X131581912Y-86383997D01*
X131525232Y-86367045D01*
X131525229Y-86367045D01*
X131520098Y-86365510D01*
X131514743Y-86365477D01*
X131514741Y-86365477D01*
X131469061Y-86365198D01*
X131405940Y-86364813D01*
X131357712Y-86346924D01*
X131332264Y-86302220D01*
X131331200Y-86289614D01*
X131331200Y-84309389D01*
X135108016Y-84309389D01*
X135131515Y-84446149D01*
X135133290Y-84452771D01*
X135204212Y-84645012D01*
X135207169Y-84651210D01*
X135311931Y-84827301D01*
X135315969Y-84832859D01*
X135451066Y-84986908D01*
X135456051Y-84991639D01*
X135616964Y-85118492D01*
X135622719Y-85122229D01*
X135804059Y-85217637D01*
X135810391Y-85220260D01*
X136006087Y-85281025D01*
X136012797Y-85282451D01*
X136179144Y-85302139D01*
X136183565Y-85302400D01*
X136834341Y-85302400D01*
X136844498Y-85298703D01*
X136847600Y-85293331D01*
X136847600Y-85289141D01*
X137152400Y-85289141D01*
X137156097Y-85299298D01*
X137161469Y-85302400D01*
X137802015Y-85302400D01*
X137805429Y-85302244D01*
X137957475Y-85288272D01*
X137964227Y-85287021D01*
X138161436Y-85231402D01*
X138167843Y-85228943D01*
X138351614Y-85138317D01*
X138357472Y-85134727D01*
X138521646Y-85012133D01*
X138526750Y-85007537D01*
X138665839Y-84857071D01*
X138670014Y-84851631D01*
X138779358Y-84678332D01*
X138782472Y-84672218D01*
X138858398Y-84481910D01*
X138860352Y-84475315D01*
X138892159Y-84315405D01*
X138890515Y-84304721D01*
X138887900Y-84302428D01*
X138887751Y-84302400D01*
X137165659Y-84302400D01*
X137155502Y-84306097D01*
X137152400Y-84311469D01*
X137152400Y-85289141D01*
X136847600Y-85289141D01*
X136847600Y-84315659D01*
X136843903Y-84305502D01*
X136838531Y-84302400D01*
X135120074Y-84302400D01*
X135109917Y-84306097D01*
X135108016Y-84309389D01*
X131331200Y-84309389D01*
X131331200Y-84142828D01*
X131348793Y-84094490D01*
X131372606Y-84075650D01*
X131427963Y-84047808D01*
X131477968Y-84005100D01*
X131544678Y-83948124D01*
X131544679Y-83948123D01*
X131548127Y-83945178D01*
X131640343Y-83816847D01*
X131647684Y-83798587D01*
X131697594Y-83674430D01*
X131699285Y-83670224D01*
X131721551Y-83513774D01*
X131721695Y-83500000D01*
X131714789Y-83442929D01*
X131703255Y-83347620D01*
X131703255Y-83347618D01*
X131702710Y-83343118D01*
X131699334Y-83334184D01*
X131648456Y-83199537D01*
X131648455Y-83199535D01*
X131646852Y-83195293D01*
X131638348Y-83182919D01*
X131559912Y-83068794D01*
X131559911Y-83068792D01*
X131557344Y-83065058D01*
X131526441Y-83037524D01*
X131481806Y-82997756D01*
X131439355Y-82959934D01*
X131299697Y-82885989D01*
X131223438Y-82866834D01*
X131150832Y-82848596D01*
X131150828Y-82848596D01*
X131146431Y-82847491D01*
X131141897Y-82847467D01*
X131141895Y-82847467D01*
X131065899Y-82847070D01*
X130988406Y-82846664D01*
X130834746Y-82883554D01*
X130830722Y-82885631D01*
X130830719Y-82885632D01*
X130732586Y-82936283D01*
X130694321Y-82956033D01*
X130655646Y-82989771D01*
X130600906Y-83037524D01*
X130575237Y-83059916D01*
X130484371Y-83189206D01*
X130426968Y-83336438D01*
X130426377Y-83340929D01*
X130426376Y-83340932D01*
X130425933Y-83344296D01*
X130406341Y-83493113D01*
X129656862Y-83493113D01*
X129650789Y-83442929D01*
X129639255Y-83347620D01*
X129639255Y-83347618D01*
X129638710Y-83343118D01*
X129635334Y-83334184D01*
X129584456Y-83199537D01*
X129584455Y-83199535D01*
X129582852Y-83195293D01*
X129574348Y-83182919D01*
X129495912Y-83068794D01*
X129495911Y-83068792D01*
X129493344Y-83065058D01*
X129462441Y-83037524D01*
X129417806Y-82997756D01*
X129375355Y-82959934D01*
X129235697Y-82885989D01*
X129159438Y-82866834D01*
X129086832Y-82848596D01*
X129086828Y-82848596D01*
X129082431Y-82847491D01*
X129077897Y-82847467D01*
X129077895Y-82847467D01*
X129001899Y-82847070D01*
X128924406Y-82846664D01*
X128770746Y-82883554D01*
X128766722Y-82885631D01*
X128766719Y-82885632D01*
X128668586Y-82936283D01*
X128630321Y-82956033D01*
X128591646Y-82989771D01*
X128536906Y-83037524D01*
X128511237Y-83059916D01*
X128420371Y-83189206D01*
X128362968Y-83336438D01*
X128362377Y-83340929D01*
X128362376Y-83340932D01*
X128361933Y-83344296D01*
X128342341Y-83493113D01*
X128342838Y-83497615D01*
X128342838Y-83497619D01*
X128351161Y-83573004D01*
X128359682Y-83650185D01*
X128361238Y-83654437D01*
X128361239Y-83654441D01*
X128368554Y-83674430D01*
X128413989Y-83798587D01*
X128416513Y-83802343D01*
X128416515Y-83802347D01*
X128499602Y-83925993D01*
X128499605Y-83925997D01*
X128502128Y-83929751D01*
X128505480Y-83932801D01*
X128615653Y-84033051D01*
X128615656Y-84033053D01*
X128619010Y-84036105D01*
X128622996Y-84038269D01*
X128622997Y-84038270D01*
X128693482Y-84076540D01*
X128727567Y-84115066D01*
X128732800Y-84142627D01*
X128732800Y-84858174D01*
X128715207Y-84906512D01*
X128710774Y-84911348D01*
X125916693Y-87705429D01*
X125870073Y-87727169D01*
X125820386Y-87713855D01*
X125806550Y-87701342D01*
X125737490Y-87621193D01*
X125737485Y-87621189D01*
X125733993Y-87617136D01*
X125729502Y-87614225D01*
X125617604Y-87541697D01*
X125617603Y-87541697D01*
X125613111Y-87538785D01*
X125527234Y-87513102D01*
X125480232Y-87499045D01*
X125480229Y-87499045D01*
X125475098Y-87497510D01*
X125469743Y-87497477D01*
X125469741Y-87497477D01*
X125404524Y-87497079D01*
X125331047Y-87496630D01*
X125325897Y-87498102D01*
X125325896Y-87498102D01*
X125273411Y-87513102D01*
X125192539Y-87536215D01*
X125188013Y-87539071D01*
X125188010Y-87539072D01*
X125158387Y-87557763D01*
X125070709Y-87613084D01*
X125053732Y-87632307D01*
X124978897Y-87717041D01*
X124978895Y-87717044D01*
X124975351Y-87721057D01*
X124914129Y-87851454D01*
X124899967Y-87942415D01*
X124898540Y-87951578D01*
X124873719Y-87996634D01*
X124825745Y-88015194D01*
X124777064Y-87998574D01*
X124771061Y-87993183D01*
X124318396Y-87540518D01*
X124296656Y-87493898D01*
X124297412Y-87474868D01*
X124307919Y-87412413D01*
X124308071Y-87400000D01*
X124307659Y-87397120D01*
X124288409Y-87262704D01*
X124288408Y-87262700D01*
X124287649Y-87257401D01*
X124276131Y-87232067D01*
X124232672Y-87136484D01*
X124228026Y-87126266D01*
X124223538Y-87121057D01*
X124137487Y-87021190D01*
X124137484Y-87021187D01*
X124133993Y-87017136D01*
X124129502Y-87014225D01*
X124017604Y-86941697D01*
X124017603Y-86941697D01*
X124013111Y-86938785D01*
X123936912Y-86915997D01*
X123880232Y-86899045D01*
X123880229Y-86899045D01*
X123875098Y-86897510D01*
X123869743Y-86897477D01*
X123869741Y-86897477D01*
X123804524Y-86897079D01*
X123731047Y-86896630D01*
X123725897Y-86898102D01*
X123725896Y-86898102D01*
X123661793Y-86916423D01*
X123592539Y-86936215D01*
X123588013Y-86939071D01*
X123588010Y-86939072D01*
X123484984Y-87004077D01*
X123470709Y-87013084D01*
X123453732Y-87032307D01*
X123378897Y-87117041D01*
X123378895Y-87117044D01*
X123375351Y-87121057D01*
X123358905Y-87156085D01*
X123318261Y-87242654D01*
X123314129Y-87251454D01*
X123291967Y-87393793D01*
X113111671Y-87393793D01*
X112932788Y-87214910D01*
X112923435Y-87203514D01*
X112916756Y-87193518D01*
X112912641Y-87187359D01*
X112869115Y-87158276D01*
X112824257Y-87128303D01*
X112816995Y-87126858D01*
X112816994Y-87126858D01*
X112727264Y-87109009D01*
X112720000Y-87107564D01*
X112712736Y-87109009D01*
X112700942Y-87111355D01*
X112686271Y-87112800D01*
X111998099Y-87112800D01*
X111949761Y-87095207D01*
X111924041Y-87050658D01*
X111922899Y-87037600D01*
X111922899Y-86682944D01*
X111914028Y-86638342D01*
X111880234Y-86587766D01*
X111874077Y-86583652D01*
X111835817Y-86558087D01*
X111835816Y-86558086D01*
X111829658Y-86553972D01*
X111785057Y-86545100D01*
X111221377Y-86545100D01*
X109228100Y-86545101D01*
X109179762Y-86527508D01*
X109160297Y-86493793D01*
X118991967Y-86493793D01*
X118992661Y-86499100D01*
X118992661Y-86499103D01*
X118996915Y-86531630D01*
X119010645Y-86636630D01*
X119068662Y-86768484D01*
X119072107Y-86772582D01*
X119072108Y-86772584D01*
X119125923Y-86836604D01*
X119161354Y-86878755D01*
X119190419Y-86898102D01*
X119258359Y-86943326D01*
X119281270Y-86958577D01*
X119418769Y-87001535D01*
X119492871Y-87002893D01*
X119557436Y-87004077D01*
X119557438Y-87004077D01*
X119562798Y-87004175D01*
X119567969Y-87002765D01*
X119567971Y-87002765D01*
X119643695Y-86982120D01*
X119701779Y-86966285D01*
X119757316Y-86932185D01*
X119819970Y-86893716D01*
X119819973Y-86893714D01*
X119824539Y-86890910D01*
X119829040Y-86885938D01*
X119917612Y-86788085D01*
X119921210Y-86784110D01*
X119926795Y-86772584D01*
X119981682Y-86659296D01*
X119981682Y-86659295D01*
X119984020Y-86654470D01*
X120007919Y-86512413D01*
X120008071Y-86500000D01*
X120007250Y-86494264D01*
X119988409Y-86362704D01*
X119988408Y-86362700D01*
X119987649Y-86357401D01*
X119982886Y-86346924D01*
X119940074Y-86252765D01*
X119928026Y-86226266D01*
X119920640Y-86217694D01*
X119837487Y-86121190D01*
X119837484Y-86121187D01*
X119833993Y-86117136D01*
X119829502Y-86114225D01*
X119717604Y-86041697D01*
X119717603Y-86041697D01*
X119713111Y-86038785D01*
X119628832Y-86013580D01*
X119580232Y-85999045D01*
X119580229Y-85999045D01*
X119575098Y-85997510D01*
X119569743Y-85997477D01*
X119569741Y-85997477D01*
X119504524Y-85997079D01*
X119431047Y-85996630D01*
X119425897Y-85998102D01*
X119425896Y-85998102D01*
X119371739Y-86013580D01*
X119292539Y-86036215D01*
X119288013Y-86039071D01*
X119288010Y-86039072D01*
X119190891Y-86100350D01*
X119170709Y-86113084D01*
X119163550Y-86121190D01*
X119078897Y-86217041D01*
X119078895Y-86217044D01*
X119075351Y-86221057D01*
X119014129Y-86351454D01*
X119013305Y-86356744D01*
X119013305Y-86356745D01*
X119010257Y-86376322D01*
X118991967Y-86493793D01*
X109160297Y-86493793D01*
X109154042Y-86482959D01*
X109152900Y-86469901D01*
X109152900Y-85910100D01*
X109170493Y-85861762D01*
X109215042Y-85836042D01*
X109228100Y-85834900D01*
X111221290Y-85834899D01*
X111785056Y-85834899D01*
X111829658Y-85826028D01*
X111880234Y-85792234D01*
X111880265Y-85792187D01*
X111923086Y-85772219D01*
X111972773Y-85785533D01*
X112002278Y-85827670D01*
X112004205Y-85837382D01*
X112010645Y-85886630D01*
X112020972Y-85910100D01*
X112059061Y-85996663D01*
X112068662Y-86018484D01*
X112072107Y-86022582D01*
X112072108Y-86022584D01*
X112085968Y-86039072D01*
X112161354Y-86128755D01*
X112281270Y-86208577D01*
X112418769Y-86251535D01*
X112492871Y-86252893D01*
X112557436Y-86254077D01*
X112557438Y-86254077D01*
X112562798Y-86254175D01*
X112567969Y-86252765D01*
X112567971Y-86252765D01*
X112647265Y-86231147D01*
X112701779Y-86216285D01*
X112754871Y-86183686D01*
X112819970Y-86143716D01*
X112819973Y-86143714D01*
X112824539Y-86140910D01*
X112921210Y-86034110D01*
X112926795Y-86022584D01*
X112981682Y-85909296D01*
X112981682Y-85909295D01*
X112984020Y-85904470D01*
X113007919Y-85762413D01*
X113008071Y-85750000D01*
X113007225Y-85744091D01*
X112988409Y-85612704D01*
X112988408Y-85612700D01*
X112987649Y-85607401D01*
X112928026Y-85476266D01*
X112923538Y-85471057D01*
X112837487Y-85371190D01*
X112837484Y-85371187D01*
X112833993Y-85367136D01*
X112829504Y-85364227D01*
X112829499Y-85364222D01*
X112750172Y-85312806D01*
X112719178Y-85271752D01*
X112721825Y-85220380D01*
X112751725Y-85185618D01*
X112819970Y-85143716D01*
X112819973Y-85143714D01*
X112824539Y-85140910D01*
X112921210Y-85034110D01*
X112926795Y-85022584D01*
X112981682Y-84909296D01*
X112981682Y-84909295D01*
X112984020Y-84904470D01*
X113007919Y-84762413D01*
X113008071Y-84750000D01*
X113007659Y-84747120D01*
X112988409Y-84612704D01*
X112988408Y-84612700D01*
X112987649Y-84607401D01*
X112935995Y-84493793D01*
X121991967Y-84493793D01*
X121992661Y-84499100D01*
X121992661Y-84499103D01*
X121993159Y-84502909D01*
X122010645Y-84636630D01*
X122037100Y-84696753D01*
X122061276Y-84751697D01*
X122068662Y-84768484D01*
X122072107Y-84772582D01*
X122072108Y-84772584D01*
X122118103Y-84827301D01*
X122161354Y-84878755D01*
X122281270Y-84958577D01*
X122418769Y-85001535D01*
X122492871Y-85002893D01*
X122557436Y-85004077D01*
X122557438Y-85004077D01*
X122562798Y-85004175D01*
X122567969Y-85002765D01*
X122567971Y-85002765D01*
X122685302Y-84970777D01*
X122701779Y-84966285D01*
X122799129Y-84906512D01*
X122819970Y-84893716D01*
X122819973Y-84893714D01*
X122824539Y-84890910D01*
X122914128Y-84791934D01*
X122959608Y-84767905D01*
X122969879Y-84767200D01*
X123934271Y-84767200D01*
X123948942Y-84768645D01*
X123968000Y-84772436D01*
X123975264Y-84770991D01*
X124064993Y-84753142D01*
X124072257Y-84751697D01*
X124138329Y-84707549D01*
X124160641Y-84692641D01*
X124171436Y-84676485D01*
X124180788Y-84665090D01*
X124352085Y-84493793D01*
X125491967Y-84493793D01*
X125492661Y-84499100D01*
X125492661Y-84499103D01*
X125493159Y-84502909D01*
X125510645Y-84636630D01*
X125537100Y-84696753D01*
X125561276Y-84751697D01*
X125568662Y-84768484D01*
X125572107Y-84772582D01*
X125572108Y-84772584D01*
X125618103Y-84827301D01*
X125661354Y-84878755D01*
X125781270Y-84958577D01*
X125918769Y-85001535D01*
X125992871Y-85002893D01*
X126057436Y-85004077D01*
X126057438Y-85004077D01*
X126062798Y-85004175D01*
X126067969Y-85002765D01*
X126067971Y-85002765D01*
X126185302Y-84970777D01*
X126201779Y-84966285D01*
X126299129Y-84906512D01*
X126319970Y-84893716D01*
X126319973Y-84893714D01*
X126324539Y-84890910D01*
X126421210Y-84784110D01*
X126426795Y-84772584D01*
X126481682Y-84659296D01*
X126481682Y-84659295D01*
X126484020Y-84654470D01*
X126507919Y-84512413D01*
X126508071Y-84500000D01*
X126507183Y-84493793D01*
X127491967Y-84493793D01*
X127492661Y-84499100D01*
X127492661Y-84499103D01*
X127493159Y-84502909D01*
X127510645Y-84636630D01*
X127537100Y-84696753D01*
X127561276Y-84751697D01*
X127568662Y-84768484D01*
X127572107Y-84772582D01*
X127572108Y-84772584D01*
X127618103Y-84827301D01*
X127661354Y-84878755D01*
X127781270Y-84958577D01*
X127918769Y-85001535D01*
X127992871Y-85002893D01*
X128057436Y-85004077D01*
X128057438Y-85004077D01*
X128062798Y-85004175D01*
X128067969Y-85002765D01*
X128067971Y-85002765D01*
X128185302Y-84970777D01*
X128201779Y-84966285D01*
X128299129Y-84906512D01*
X128319970Y-84893716D01*
X128319973Y-84893714D01*
X128324539Y-84890910D01*
X128421210Y-84784110D01*
X128426795Y-84772584D01*
X128481682Y-84659296D01*
X128481682Y-84659295D01*
X128484020Y-84654470D01*
X128507919Y-84512413D01*
X128508071Y-84500000D01*
X128507659Y-84497120D01*
X128488409Y-84362704D01*
X128488408Y-84362700D01*
X128487649Y-84357401D01*
X128465820Y-84309389D01*
X128430245Y-84231147D01*
X128428026Y-84226266D01*
X128423538Y-84221057D01*
X128337487Y-84121190D01*
X128337484Y-84121187D01*
X128333993Y-84117136D01*
X128328032Y-84113272D01*
X128217604Y-84041697D01*
X128217603Y-84041697D01*
X128213111Y-84038785D01*
X128124987Y-84012430D01*
X128080232Y-83999045D01*
X128080229Y-83999045D01*
X128075098Y-83997510D01*
X128069743Y-83997477D01*
X128069741Y-83997477D01*
X128004524Y-83997079D01*
X127931047Y-83996630D01*
X127925897Y-83998102D01*
X127925896Y-83998102D01*
X127888083Y-84008909D01*
X127792539Y-84036215D01*
X127788013Y-84039071D01*
X127788010Y-84039072D01*
X127682556Y-84105609D01*
X127670709Y-84113084D01*
X127665649Y-84118813D01*
X127578897Y-84217041D01*
X127578895Y-84217044D01*
X127575351Y-84221057D01*
X127514129Y-84351454D01*
X127513305Y-84356744D01*
X127513305Y-84356745D01*
X127511693Y-84367097D01*
X127491967Y-84493793D01*
X126507183Y-84493793D01*
X126497094Y-84423353D01*
X126507657Y-84373009D01*
X126518360Y-84359518D01*
X126734090Y-84143788D01*
X126780710Y-84122048D01*
X126806346Y-84124223D01*
X126906360Y-84150461D01*
X126906363Y-84150461D01*
X126910741Y-84151610D01*
X126970262Y-84152545D01*
X127064216Y-84154021D01*
X127064218Y-84154021D01*
X127068748Y-84154092D01*
X127073166Y-84153080D01*
X127073168Y-84153080D01*
X127218364Y-84119826D01*
X127218366Y-84119825D01*
X127222786Y-84118813D01*
X127363963Y-84047808D01*
X127413968Y-84005100D01*
X127480678Y-83948124D01*
X127480679Y-83948123D01*
X127484127Y-83945178D01*
X127576343Y-83816847D01*
X127583684Y-83798587D01*
X127633594Y-83674430D01*
X127635285Y-83670224D01*
X127657551Y-83513774D01*
X127657695Y-83500000D01*
X127650789Y-83442929D01*
X127639255Y-83347620D01*
X127639255Y-83347618D01*
X127638710Y-83343118D01*
X127635334Y-83334184D01*
X127584456Y-83199537D01*
X127584455Y-83199535D01*
X127582852Y-83195293D01*
X127574348Y-83182919D01*
X127495912Y-83068794D01*
X127495911Y-83068792D01*
X127493344Y-83065058D01*
X127462441Y-83037524D01*
X127417806Y-82997756D01*
X127375355Y-82959934D01*
X127235697Y-82885989D01*
X127159438Y-82866834D01*
X127086832Y-82848596D01*
X127086828Y-82848596D01*
X127082431Y-82847491D01*
X127077897Y-82847467D01*
X127077895Y-82847467D01*
X127001899Y-82847070D01*
X126924406Y-82846664D01*
X126770746Y-82883554D01*
X126766722Y-82885631D01*
X126766719Y-82885632D01*
X126668586Y-82936283D01*
X126630321Y-82956033D01*
X126591646Y-82989771D01*
X126536906Y-83037524D01*
X126511237Y-83059916D01*
X126420371Y-83189206D01*
X126362968Y-83336438D01*
X126362377Y-83340929D01*
X126362376Y-83340932D01*
X126361933Y-83344296D01*
X126342341Y-83493113D01*
X126342838Y-83497615D01*
X126342838Y-83497619D01*
X126351161Y-83573004D01*
X126359682Y-83650185D01*
X126373261Y-83687291D01*
X126373351Y-83738729D01*
X126355815Y-83766307D01*
X126144309Y-83977813D01*
X126097689Y-83999553D01*
X126080135Y-83999017D01*
X126075098Y-83997510D01*
X126069746Y-83997477D01*
X126069744Y-83997477D01*
X126002370Y-83997066D01*
X125931047Y-83996630D01*
X125925897Y-83998102D01*
X125925896Y-83998102D01*
X125888083Y-84008909D01*
X125792539Y-84036215D01*
X125788013Y-84039071D01*
X125788010Y-84039072D01*
X125682556Y-84105609D01*
X125670709Y-84113084D01*
X125665649Y-84118813D01*
X125578897Y-84217041D01*
X125578895Y-84217044D01*
X125575351Y-84221057D01*
X125514129Y-84351454D01*
X125513305Y-84356744D01*
X125513305Y-84356745D01*
X125511693Y-84367097D01*
X125491967Y-84493793D01*
X124352085Y-84493793D01*
X124702090Y-84143788D01*
X124748710Y-84122048D01*
X124774346Y-84124223D01*
X124874360Y-84150461D01*
X124874363Y-84150461D01*
X124878741Y-84151610D01*
X124938262Y-84152545D01*
X125032216Y-84154021D01*
X125032218Y-84154021D01*
X125036748Y-84154092D01*
X125041166Y-84153080D01*
X125041168Y-84153080D01*
X125186364Y-84119826D01*
X125186366Y-84119825D01*
X125190786Y-84118813D01*
X125331963Y-84047808D01*
X125381968Y-84005100D01*
X125448678Y-83948124D01*
X125448679Y-83948123D01*
X125452127Y-83945178D01*
X125544343Y-83816847D01*
X125551684Y-83798587D01*
X125601594Y-83674430D01*
X125603285Y-83670224D01*
X125625551Y-83513774D01*
X125625695Y-83500000D01*
X125618789Y-83442929D01*
X125607255Y-83347620D01*
X125607255Y-83347618D01*
X125606710Y-83343118D01*
X125603334Y-83334184D01*
X125552456Y-83199537D01*
X125552455Y-83199535D01*
X125550852Y-83195293D01*
X125542348Y-83182919D01*
X125463912Y-83068794D01*
X125463911Y-83068792D01*
X125461344Y-83065058D01*
X125430441Y-83037524D01*
X125385806Y-82997756D01*
X125343355Y-82959934D01*
X125203697Y-82885989D01*
X125127438Y-82866834D01*
X125054832Y-82848596D01*
X125054828Y-82848596D01*
X125050431Y-82847491D01*
X125045897Y-82847467D01*
X125045895Y-82847467D01*
X124969899Y-82847070D01*
X124892406Y-82846664D01*
X124738746Y-82883554D01*
X124734722Y-82885631D01*
X124734719Y-82885632D01*
X124636586Y-82936283D01*
X124598321Y-82956033D01*
X124559646Y-82989771D01*
X124504906Y-83037524D01*
X124479237Y-83059916D01*
X124388371Y-83189206D01*
X124330968Y-83336438D01*
X124330377Y-83340929D01*
X124330376Y-83340932D01*
X124329933Y-83344296D01*
X124310341Y-83493113D01*
X124310838Y-83497615D01*
X124310838Y-83497619D01*
X124319161Y-83573004D01*
X124327682Y-83650185D01*
X124341261Y-83687291D01*
X124341351Y-83738729D01*
X124323815Y-83766307D01*
X123879348Y-84210774D01*
X123832728Y-84232514D01*
X123826174Y-84232800D01*
X123247920Y-84232800D01*
X123199582Y-84215207D01*
X123173862Y-84170658D01*
X123182795Y-84120000D01*
X123214131Y-84090418D01*
X123266667Y-84063995D01*
X123274080Y-84056129D01*
X123274135Y-84055161D01*
X123271911Y-84051437D01*
X122720896Y-83500422D01*
X123156334Y-83500422D01*
X123157939Y-83506413D01*
X123484223Y-83832697D01*
X123494022Y-83837266D01*
X123497778Y-83836260D01*
X123509257Y-83820286D01*
X123513593Y-83812399D01*
X123569108Y-83674300D01*
X123571437Y-83665608D01*
X123592702Y-83516191D01*
X123593074Y-83511310D01*
X123593166Y-83502459D01*
X123592896Y-83497555D01*
X123574767Y-83347740D01*
X123572619Y-83338995D01*
X123520010Y-83199770D01*
X123515837Y-83191788D01*
X123500497Y-83169469D01*
X123491695Y-83163191D01*
X123488048Y-83163478D01*
X123160903Y-83490623D01*
X123156334Y-83500422D01*
X122720896Y-83500422D01*
X122388109Y-83167635D01*
X122378310Y-83163066D01*
X122374667Y-83164042D01*
X122359423Y-83185731D01*
X122355166Y-83193670D01*
X122301103Y-83332337D01*
X122298863Y-83341057D01*
X122279436Y-83488625D01*
X122279341Y-83497624D01*
X122295675Y-83645566D01*
X122297729Y-83654326D01*
X122348880Y-83794103D01*
X122352966Y-83802121D01*
X122417517Y-83898183D01*
X122429874Y-83948116D01*
X122407244Y-83994310D01*
X122375765Y-84012429D01*
X122329590Y-84025626D01*
X122297689Y-84034743D01*
X122297688Y-84034743D01*
X122292539Y-84036215D01*
X122288013Y-84039071D01*
X122288010Y-84039072D01*
X122182556Y-84105609D01*
X122170709Y-84113084D01*
X122165649Y-84118813D01*
X122078897Y-84217041D01*
X122078895Y-84217044D01*
X122075351Y-84221057D01*
X122014129Y-84351454D01*
X122013305Y-84356744D01*
X122013305Y-84356745D01*
X122011693Y-84367097D01*
X121991967Y-84493793D01*
X112935995Y-84493793D01*
X112928026Y-84476266D01*
X112923538Y-84471057D01*
X112837487Y-84371190D01*
X112837484Y-84371187D01*
X112833993Y-84367136D01*
X112829502Y-84364225D01*
X112717604Y-84291697D01*
X112717603Y-84291697D01*
X112713111Y-84288785D01*
X112636912Y-84265997D01*
X112580232Y-84249045D01*
X112580229Y-84249045D01*
X112575098Y-84247510D01*
X112569743Y-84247477D01*
X112569741Y-84247477D01*
X112504524Y-84247079D01*
X112431047Y-84246630D01*
X112425897Y-84248102D01*
X112425896Y-84248102D01*
X112361793Y-84266423D01*
X112292539Y-84286215D01*
X112288013Y-84289071D01*
X112288010Y-84289072D01*
X112180756Y-84356745D01*
X112170709Y-84363084D01*
X112163550Y-84371190D01*
X112078897Y-84467041D01*
X112078895Y-84467044D01*
X112075351Y-84471057D01*
X112073075Y-84475906D01*
X112073071Y-84475911D01*
X112066169Y-84490611D01*
X112029700Y-84526889D01*
X111978444Y-84531237D01*
X111936385Y-84501621D01*
X111922899Y-84458651D01*
X111922899Y-84142944D01*
X111914028Y-84098342D01*
X111880234Y-84047766D01*
X111858212Y-84033051D01*
X111835817Y-84018087D01*
X111835816Y-84018086D01*
X111829658Y-84013972D01*
X111821906Y-84012430D01*
X111788682Y-84005821D01*
X111788681Y-84005821D01*
X111785057Y-84005100D01*
X110918600Y-84005100D01*
X110870262Y-83987507D01*
X110844542Y-83942958D01*
X110843400Y-83929900D01*
X110843400Y-83573004D01*
X110862848Y-83522539D01*
X110868572Y-83516216D01*
X110911210Y-83469110D01*
X110916795Y-83457584D01*
X110971682Y-83344296D01*
X110971682Y-83344295D01*
X110974020Y-83339470D01*
X110997919Y-83197413D01*
X110998071Y-83185000D01*
X110997571Y-83181508D01*
X110978409Y-83047704D01*
X110978408Y-83047700D01*
X110977649Y-83042401D01*
X110974697Y-83035907D01*
X110920245Y-82916147D01*
X110918026Y-82911266D01*
X110913538Y-82906057D01*
X110827487Y-82806190D01*
X110827484Y-82806187D01*
X110823993Y-82802136D01*
X110819502Y-82799225D01*
X110807127Y-82791204D01*
X110776134Y-82750149D01*
X110778781Y-82698777D01*
X110813830Y-82661126D01*
X110848029Y-82652900D01*
X115369409Y-82652900D01*
X115417747Y-82670493D01*
G37*
G04 #@! TD.AperFunction*
G04 #@! TA.AperFunction,Conductor*
G36*
X133815844Y-88918091D02*
G01*
X133841564Y-88962640D01*
X133842042Y-88977889D01*
X133842570Y-88977896D01*
X133842519Y-88981567D01*
X133842108Y-88985228D01*
X133842416Y-88988896D01*
X133842416Y-88988899D01*
X133857402Y-89167359D01*
X133859386Y-89190988D01*
X133916301Y-89389474D01*
X134010685Y-89573125D01*
X134012970Y-89576008D01*
X134014232Y-89577600D01*
X134138942Y-89734945D01*
X134141736Y-89737323D01*
X134141737Y-89737324D01*
X134191704Y-89779849D01*
X134296188Y-89868772D01*
X134299389Y-89870561D01*
X134299392Y-89870563D01*
X134413988Y-89934608D01*
X134447600Y-89973548D01*
X134448318Y-90024983D01*
X134412143Y-90066892D01*
X134320681Y-90114708D01*
X134317815Y-90117013D01*
X134317814Y-90117013D01*
X134197109Y-90214062D01*
X134159760Y-90244091D01*
X134027034Y-90402268D01*
X134025263Y-90405490D01*
X134025262Y-90405491D01*
X134020301Y-90414515D01*
X133927559Y-90583211D01*
X133907449Y-90646608D01*
X133896749Y-90680338D01*
X133865363Y-90721093D01*
X133825069Y-90732800D01*
X130511825Y-90732800D01*
X130463487Y-90715207D01*
X130458651Y-90710774D01*
X130049226Y-90301348D01*
X130027486Y-90254728D01*
X130027200Y-90248174D01*
X130027200Y-89828187D01*
X130044793Y-89779849D01*
X130063052Y-89764103D01*
X130079970Y-89753716D01*
X130079973Y-89753714D01*
X130084539Y-89750910D01*
X130096837Y-89737324D01*
X130177612Y-89648085D01*
X130181210Y-89644110D01*
X130185524Y-89635207D01*
X130241682Y-89519296D01*
X130241682Y-89519295D01*
X130244020Y-89514470D01*
X130267919Y-89372413D01*
X130268071Y-89360000D01*
X130267659Y-89357120D01*
X130248409Y-89222704D01*
X130248408Y-89222700D01*
X130247649Y-89217401D01*
X130243084Y-89207359D01*
X130196828Y-89105626D01*
X130188026Y-89086266D01*
X130135051Y-89024786D01*
X130116826Y-88976683D01*
X130133785Y-88928119D01*
X130177993Y-88901818D01*
X130192020Y-88900498D01*
X133767506Y-88900498D01*
X133815844Y-88918091D01*
G37*
G04 #@! TD.AperFunction*
G04 #@! TA.AperFunction,Conductor*
G36*
X113325055Y-91668231D02*
G01*
X113350775Y-91712780D01*
X113344788Y-91757797D01*
X113303027Y-91846744D01*
X113303026Y-91846748D01*
X113300751Y-91851593D01*
X113299927Y-91856883D01*
X113299927Y-91856884D01*
X113298346Y-91867039D01*
X113278589Y-91993932D01*
X113279283Y-91999239D01*
X113279283Y-91999242D01*
X113294199Y-92113308D01*
X113283022Y-92163518D01*
X113242184Y-92194797D01*
X113233921Y-92196648D01*
X113231047Y-92196630D01*
X113092539Y-92236215D01*
X113088013Y-92239071D01*
X113088010Y-92239072D01*
X112976584Y-92309377D01*
X112970709Y-92313084D01*
X112967164Y-92317097D01*
X112967165Y-92317097D01*
X112878897Y-92417041D01*
X112878895Y-92417044D01*
X112875351Y-92421057D01*
X112854051Y-92466424D01*
X112828401Y-92521057D01*
X112814129Y-92551454D01*
X112791967Y-92693793D01*
X112792661Y-92699100D01*
X112792661Y-92699103D01*
X112796284Y-92726810D01*
X112810645Y-92836630D01*
X112842270Y-92908503D01*
X112865270Y-92960774D01*
X112868662Y-92968484D01*
X112872107Y-92972582D01*
X112872108Y-92972584D01*
X112893727Y-92998303D01*
X112961354Y-93078755D01*
X113081270Y-93158577D01*
X113132729Y-93174654D01*
X113208215Y-93198238D01*
X113238964Y-93216842D01*
X114587212Y-94565090D01*
X114596564Y-94576485D01*
X114607359Y-94592641D01*
X114613516Y-94596755D01*
X114618755Y-94601994D01*
X114617208Y-94603541D01*
X114641416Y-94636555D01*
X114638053Y-94687884D01*
X114602483Y-94725044D01*
X114569221Y-94732800D01*
X111998099Y-94732800D01*
X111949761Y-94715207D01*
X111924041Y-94670658D01*
X111922899Y-94657600D01*
X111922899Y-94302944D01*
X111914028Y-94258342D01*
X111880234Y-94207766D01*
X111852275Y-94189084D01*
X111835817Y-94178087D01*
X111835816Y-94178086D01*
X111829658Y-94173972D01*
X111785057Y-94165100D01*
X111221377Y-94165100D01*
X109228100Y-94165101D01*
X109179762Y-94147508D01*
X109154042Y-94102959D01*
X109152900Y-94089901D01*
X109152900Y-93530100D01*
X109170493Y-93481762D01*
X109215042Y-93456042D01*
X109228100Y-93454900D01*
X111221290Y-93454899D01*
X111785056Y-93454899D01*
X111829658Y-93446028D01*
X111858905Y-93426486D01*
X111874077Y-93416348D01*
X111880234Y-93412234D01*
X111894996Y-93390141D01*
X111909913Y-93367817D01*
X111909914Y-93367816D01*
X111914028Y-93361658D01*
X111922900Y-93317057D01*
X111922899Y-91762944D01*
X111918436Y-91740507D01*
X111926261Y-91689668D01*
X111964936Y-91655751D01*
X111992191Y-91650638D01*
X113276717Y-91650638D01*
X113325055Y-91668231D01*
G37*
G04 #@! TD.AperFunction*
G04 #@! TA.AperFunction,Conductor*
G36*
X123273213Y-88651494D02*
G01*
X123278049Y-88655927D01*
X126460774Y-91838652D01*
X126482514Y-91885272D01*
X126482800Y-91891826D01*
X126482800Y-92608174D01*
X126465207Y-92656512D01*
X126460774Y-92661348D01*
X126161348Y-92960774D01*
X126114728Y-92982514D01*
X126108174Y-92982800D01*
X124305129Y-92982800D01*
X124290458Y-92981355D01*
X124278664Y-92979009D01*
X124271400Y-92977564D01*
X124180426Y-92995661D01*
X124129586Y-92987836D01*
X124095668Y-92949162D01*
X124091597Y-92909430D01*
X124092212Y-92905775D01*
X124107919Y-92812413D01*
X124108071Y-92800000D01*
X124107659Y-92797120D01*
X124088409Y-92662704D01*
X124088408Y-92662700D01*
X124087649Y-92657401D01*
X124082741Y-92646605D01*
X124037275Y-92546608D01*
X124028026Y-92526266D01*
X124024298Y-92521939D01*
X123937487Y-92421190D01*
X123937484Y-92421187D01*
X123933993Y-92417136D01*
X123906296Y-92399184D01*
X123817604Y-92341697D01*
X123817603Y-92341697D01*
X123813111Y-92338785D01*
X123736912Y-92315997D01*
X123680232Y-92299045D01*
X123680229Y-92299045D01*
X123675098Y-92297510D01*
X123669743Y-92297477D01*
X123669741Y-92297477D01*
X123604524Y-92297079D01*
X123531047Y-92296630D01*
X123525895Y-92298102D01*
X123520591Y-92298829D01*
X123520255Y-92296377D01*
X123478300Y-92293399D01*
X123455784Y-92277906D01*
X122815076Y-91637198D01*
X122805723Y-91625802D01*
X122799042Y-91615803D01*
X122794929Y-91609647D01*
X122740269Y-91573125D01*
X122706545Y-91550591D01*
X122602288Y-91529852D01*
X122595024Y-91531297D01*
X122583230Y-91533643D01*
X122568559Y-91535088D01*
X121924338Y-91535088D01*
X121876000Y-91517495D01*
X121850280Y-91472946D01*
X121859213Y-91422288D01*
X121871164Y-91406714D01*
X121955708Y-91322170D01*
X122002328Y-91300430D01*
X122016948Y-91300966D01*
X122018769Y-91301535D01*
X122085873Y-91302765D01*
X122157436Y-91304077D01*
X122157438Y-91304077D01*
X122162798Y-91304175D01*
X122167969Y-91302765D01*
X122167971Y-91302765D01*
X122243695Y-91282120D01*
X122301779Y-91266285D01*
X122388349Y-91213131D01*
X122419970Y-91193716D01*
X122419973Y-91193714D01*
X122424539Y-91190910D01*
X122521210Y-91084110D01*
X122526185Y-91073843D01*
X122581682Y-90959296D01*
X122581682Y-90959295D01*
X122584020Y-90954470D01*
X122607919Y-90812413D01*
X122608071Y-90800000D01*
X122607659Y-90797120D01*
X122588409Y-90662704D01*
X122588408Y-90662700D01*
X122587649Y-90657401D01*
X122555529Y-90586755D01*
X122530245Y-90531147D01*
X122528026Y-90526266D01*
X122523538Y-90521057D01*
X122437487Y-90421190D01*
X122437484Y-90421187D01*
X122433993Y-90417136D01*
X122428573Y-90413623D01*
X122317604Y-90341697D01*
X122317603Y-90341697D01*
X122313111Y-90338785D01*
X122214745Y-90309367D01*
X122180232Y-90299045D01*
X122180229Y-90299045D01*
X122175098Y-90297510D01*
X122169743Y-90297477D01*
X122169741Y-90297477D01*
X122104524Y-90297079D01*
X122031047Y-90296630D01*
X122025897Y-90298102D01*
X122025896Y-90298102D01*
X122011897Y-90302103D01*
X121892539Y-90336215D01*
X121888013Y-90339071D01*
X121888010Y-90339072D01*
X121807295Y-90390000D01*
X121770709Y-90413084D01*
X121766581Y-90417758D01*
X121678897Y-90517041D01*
X121678895Y-90517044D01*
X121675351Y-90521057D01*
X121662614Y-90548185D01*
X121636977Y-90602791D01*
X121614129Y-90651454D01*
X121591967Y-90793793D01*
X121592661Y-90799101D01*
X121592661Y-90799103D01*
X121602933Y-90877656D01*
X121591756Y-90927867D01*
X121581542Y-90940580D01*
X121390071Y-91132051D01*
X121343451Y-91153791D01*
X121336897Y-91154077D01*
X121207306Y-91154077D01*
X121158968Y-91136484D01*
X121133248Y-91091935D01*
X121139631Y-91046089D01*
X121181682Y-90959296D01*
X121181682Y-90959295D01*
X121184020Y-90954470D01*
X121207919Y-90812413D01*
X121208071Y-90800000D01*
X121207659Y-90797120D01*
X121188409Y-90662704D01*
X121188408Y-90662700D01*
X121187649Y-90657401D01*
X121155529Y-90586755D01*
X121130245Y-90531147D01*
X121128026Y-90526266D01*
X121123538Y-90521057D01*
X121037487Y-90421190D01*
X121037484Y-90421187D01*
X121033993Y-90417136D01*
X121028573Y-90413623D01*
X120917604Y-90341697D01*
X120917603Y-90341697D01*
X120913111Y-90338785D01*
X120814745Y-90309367D01*
X120780232Y-90299045D01*
X120780229Y-90299045D01*
X120775098Y-90297510D01*
X120769743Y-90297477D01*
X120769741Y-90297477D01*
X120704524Y-90297079D01*
X120631047Y-90296630D01*
X120625897Y-90298102D01*
X120625896Y-90298102D01*
X120611897Y-90302103D01*
X120492539Y-90336215D01*
X120488013Y-90339071D01*
X120488010Y-90339072D01*
X120407295Y-90390000D01*
X120370709Y-90413084D01*
X120366581Y-90417758D01*
X120278897Y-90517041D01*
X120278895Y-90517044D01*
X120275351Y-90521057D01*
X120262614Y-90548185D01*
X120236977Y-90602791D01*
X120214129Y-90651454D01*
X120191967Y-90793793D01*
X120192661Y-90799100D01*
X120192661Y-90799103D01*
X120193159Y-90802909D01*
X120210645Y-90936630D01*
X120259909Y-91048591D01*
X120263274Y-91099920D01*
X120232857Y-91141404D01*
X120191078Y-91154077D01*
X118934792Y-91154077D01*
X118920121Y-91152632D01*
X118908327Y-91150286D01*
X118901063Y-91148841D01*
X118893799Y-91150286D01*
X118804069Y-91168135D01*
X118804067Y-91168136D01*
X118796807Y-91169580D01*
X118708422Y-91228636D01*
X118704309Y-91234792D01*
X118697628Y-91244791D01*
X118688275Y-91256187D01*
X118366987Y-91577475D01*
X118320367Y-91599215D01*
X118313813Y-91599501D01*
X114707728Y-91599501D01*
X114659390Y-91581908D01*
X114654554Y-91577475D01*
X114295427Y-91218348D01*
X114286074Y-91206952D01*
X114279393Y-91196953D01*
X114275280Y-91190797D01*
X114259307Y-91180124D01*
X114217570Y-91152237D01*
X114214650Y-91150286D01*
X114186896Y-91131741D01*
X114082639Y-91111002D01*
X114075375Y-91112447D01*
X114063581Y-91114793D01*
X114048910Y-91116238D01*
X111690291Y-91116238D01*
X111675620Y-91114793D01*
X111663826Y-91112447D01*
X111656562Y-91111002D01*
X111649298Y-91112447D01*
X111559568Y-91130296D01*
X111559566Y-91130297D01*
X111552306Y-91131741D01*
X111537844Y-91141404D01*
X111479895Y-91180124D01*
X111463921Y-91190797D01*
X111459808Y-91196953D01*
X111453127Y-91206952D01*
X111443774Y-91218348D01*
X111059048Y-91603074D01*
X111012428Y-91624814D01*
X111005874Y-91625100D01*
X109756007Y-91625101D01*
X109228100Y-91625101D01*
X109179762Y-91607508D01*
X109154042Y-91562959D01*
X109152900Y-91549901D01*
X109152900Y-90990100D01*
X109170493Y-90941762D01*
X109215042Y-90916042D01*
X109228100Y-90914900D01*
X111221290Y-90914899D01*
X111785056Y-90914899D01*
X111829658Y-90906028D01*
X111880234Y-90872234D01*
X111914028Y-90821658D01*
X111915873Y-90812385D01*
X111922179Y-90780682D01*
X111922179Y-90780681D01*
X111922900Y-90777057D01*
X111922900Y-90262400D01*
X111940493Y-90214062D01*
X111985042Y-90188342D01*
X111998100Y-90187200D01*
X118986271Y-90187200D01*
X119000942Y-90188645D01*
X119020000Y-90192436D01*
X119027264Y-90190991D01*
X119116993Y-90173142D01*
X119124257Y-90171697D01*
X119190329Y-90127549D01*
X119212641Y-90112641D01*
X119223436Y-90096485D01*
X119232788Y-90085090D01*
X119628652Y-89689226D01*
X119675272Y-89667486D01*
X119681826Y-89667200D01*
X122258174Y-89667200D01*
X122306512Y-89684793D01*
X122311348Y-89689226D01*
X123117133Y-90495011D01*
X123138873Y-90541631D01*
X123139159Y-90548185D01*
X123139159Y-90959912D01*
X123137714Y-90974583D01*
X123133923Y-90993641D01*
X123136188Y-91005026D01*
X123144854Y-91048590D01*
X123154662Y-91097898D01*
X123177275Y-91131741D01*
X123213718Y-91186282D01*
X123229689Y-91196953D01*
X123229873Y-91197076D01*
X123241269Y-91206429D01*
X124449930Y-92415090D01*
X124459282Y-92426485D01*
X124470077Y-92442641D01*
X124476234Y-92446755D01*
X124497413Y-92460906D01*
X124522344Y-92477564D01*
X124558462Y-92501697D01*
X124565722Y-92503141D01*
X124565724Y-92503142D01*
X124655454Y-92520991D01*
X124662718Y-92522436D01*
X124669982Y-92520991D01*
X124681776Y-92518645D01*
X124696447Y-92517200D01*
X125282556Y-92517200D01*
X125330894Y-92534793D01*
X125340120Y-92544012D01*
X125350890Y-92556824D01*
X125411354Y-92628755D01*
X125531270Y-92708577D01*
X125668769Y-92751535D01*
X125742871Y-92752893D01*
X125807436Y-92754077D01*
X125807438Y-92754077D01*
X125812798Y-92754175D01*
X125817969Y-92752765D01*
X125817971Y-92752765D01*
X125924661Y-92723678D01*
X125951779Y-92716285D01*
X126036458Y-92664292D01*
X126069970Y-92643716D01*
X126069973Y-92643714D01*
X126074539Y-92640910D01*
X126099416Y-92613427D01*
X126167612Y-92538085D01*
X126171210Y-92534110D01*
X126174711Y-92526885D01*
X126231682Y-92409296D01*
X126231682Y-92409295D01*
X126234020Y-92404470D01*
X126257919Y-92262413D01*
X126258071Y-92250000D01*
X126257599Y-92246701D01*
X126238409Y-92112704D01*
X126238408Y-92112700D01*
X126237649Y-92107401D01*
X126230982Y-92092736D01*
X126182631Y-91986394D01*
X126178026Y-91976266D01*
X126171676Y-91968896D01*
X126087487Y-91871190D01*
X126087484Y-91871187D01*
X126083993Y-91867136D01*
X126079502Y-91864225D01*
X125967604Y-91791697D01*
X125967603Y-91791697D01*
X125963111Y-91788785D01*
X125878180Y-91763385D01*
X125830232Y-91749045D01*
X125830229Y-91749045D01*
X125825098Y-91747510D01*
X125819743Y-91747477D01*
X125819741Y-91747477D01*
X125754524Y-91747079D01*
X125681047Y-91746630D01*
X125675897Y-91748102D01*
X125675896Y-91748102D01*
X125562164Y-91780606D01*
X125510853Y-91776973D01*
X125473882Y-91741207D01*
X125468550Y-91690044D01*
X125473822Y-91675519D01*
X125484020Y-91654470D01*
X125507919Y-91512413D01*
X125508071Y-91500000D01*
X125507659Y-91497120D01*
X125488409Y-91362704D01*
X125488408Y-91362700D01*
X125487649Y-91357401D01*
X125466814Y-91311575D01*
X125446221Y-91266285D01*
X125428026Y-91226266D01*
X125423538Y-91221057D01*
X125337487Y-91121190D01*
X125337484Y-91121187D01*
X125333993Y-91117136D01*
X125324530Y-91111002D01*
X125302518Y-91096735D01*
X125271524Y-91055681D01*
X125269664Y-91018961D01*
X125272436Y-91005026D01*
X125251697Y-90900770D01*
X125207549Y-90834697D01*
X125192641Y-90812385D01*
X125176485Y-90801590D01*
X125165090Y-90792238D01*
X123135127Y-88762275D01*
X123113387Y-88715655D01*
X123126701Y-88665968D01*
X123168838Y-88636463D01*
X123188301Y-88633901D01*
X123224875Y-88633901D01*
X123273213Y-88651494D01*
G37*
G04 #@! TD.AperFunction*
G04 #@! TD*
M02*
