G04 #@! TF.GenerationSoftware,KiCad,Pcbnew,6.0.6+dfsg-1*
G04 #@! TF.CreationDate,2022-07-17T16:52:42+08:00*
G04 #@! TF.ProjectId,stlink,73746c69-6e6b-42e6-9b69-6361645f7063,d*
G04 #@! TF.SameCoordinates,Original*
G04 #@! TF.FileFunction,Legend,Top*
G04 #@! TF.FilePolarity,Positive*
%FSLAX46Y46*%
G04 Gerber Fmt 4.6, Leading zero omitted, Abs format (unit mm)*
G04 Created by KiCad (PCBNEW 6.0.6+dfsg-1) date 2022-07-17 16:52:42*
%MOMM*%
%LPD*%
G01*
G04 APERTURE LIST*
%ADD10C,0.150000*%
%ADD11C,0.120000*%
%ADD12C,0.100000*%
G04 APERTURE END LIST*
D10*
G04 #@! TO.C,U1*
X133375476Y-84016904D02*
X133375476Y-84664523D01*
X133413571Y-84740714D01*
X133451666Y-84778809D01*
X133527857Y-84816904D01*
X133680238Y-84816904D01*
X133756428Y-84778809D01*
X133794523Y-84740714D01*
X133832619Y-84664523D01*
X133832619Y-84016904D01*
X134632619Y-84816904D02*
X134175476Y-84816904D01*
X134404047Y-84816904D02*
X134404047Y-84016904D01*
X134327857Y-84131190D01*
X134251666Y-84207380D01*
X134175476Y-84245476D01*
G04 #@! TO.C,C4*
X129366666Y-89535714D02*
X129328571Y-89573809D01*
X129214285Y-89611904D01*
X129138095Y-89611904D01*
X129023809Y-89573809D01*
X128947619Y-89497619D01*
X128909523Y-89421428D01*
X128871428Y-89269047D01*
X128871428Y-89154761D01*
X128909523Y-89002380D01*
X128947619Y-88926190D01*
X129023809Y-88850000D01*
X129138095Y-88811904D01*
X129214285Y-88811904D01*
X129328571Y-88850000D01*
X129366666Y-88888095D01*
X130052380Y-89078571D02*
X130052380Y-89611904D01*
X129861904Y-88773809D02*
X129671428Y-89345238D01*
X130166666Y-89345238D01*
G04 #@! TO.C,R3*
X128866666Y-91611904D02*
X128600000Y-91230952D01*
X128409523Y-91611904D02*
X128409523Y-90811904D01*
X128714285Y-90811904D01*
X128790476Y-90850000D01*
X128828571Y-90888095D01*
X128866666Y-90964285D01*
X128866666Y-91078571D01*
X128828571Y-91154761D01*
X128790476Y-91192857D01*
X128714285Y-91230952D01*
X128409523Y-91230952D01*
X129133333Y-90811904D02*
X129628571Y-90811904D01*
X129361904Y-91116666D01*
X129476190Y-91116666D01*
X129552380Y-91154761D01*
X129590476Y-91192857D01*
X129628571Y-91269047D01*
X129628571Y-91459523D01*
X129590476Y-91535714D01*
X129552380Y-91573809D01*
X129476190Y-91611904D01*
X129247619Y-91611904D01*
X129171428Y-91573809D01*
X129133333Y-91535714D01*
G04 #@! TO.C,C6*
X118485714Y-84133333D02*
X118523809Y-84171428D01*
X118561904Y-84285714D01*
X118561904Y-84361904D01*
X118523809Y-84476190D01*
X118447619Y-84552380D01*
X118371428Y-84590476D01*
X118219047Y-84628571D01*
X118104761Y-84628571D01*
X117952380Y-84590476D01*
X117876190Y-84552380D01*
X117800000Y-84476190D01*
X117761904Y-84361904D01*
X117761904Y-84285714D01*
X117800000Y-84171428D01*
X117838095Y-84133333D01*
X117761904Y-83447619D02*
X117761904Y-83600000D01*
X117800000Y-83676190D01*
X117838095Y-83714285D01*
X117952380Y-83790476D01*
X118104761Y-83828571D01*
X118409523Y-83828571D01*
X118485714Y-83790476D01*
X118523809Y-83752380D01*
X118561904Y-83676190D01*
X118561904Y-83523809D01*
X118523809Y-83447619D01*
X118485714Y-83409523D01*
X118409523Y-83371428D01*
X118219047Y-83371428D01*
X118142857Y-83409523D01*
X118104761Y-83447619D01*
X118066666Y-83523809D01*
X118066666Y-83676190D01*
X118104761Y-83752380D01*
X118142857Y-83790476D01*
X118219047Y-83828571D01*
G04 #@! TO.C,C7*
X126785714Y-84133333D02*
X126823809Y-84171428D01*
X126861904Y-84285714D01*
X126861904Y-84361904D01*
X126823809Y-84476190D01*
X126747619Y-84552380D01*
X126671428Y-84590476D01*
X126519047Y-84628571D01*
X126404761Y-84628571D01*
X126252380Y-84590476D01*
X126176190Y-84552380D01*
X126100000Y-84476190D01*
X126061904Y-84361904D01*
X126061904Y-84285714D01*
X126100000Y-84171428D01*
X126138095Y-84133333D01*
X126061904Y-83866666D02*
X126061904Y-83333333D01*
X126861904Y-83676190D01*
G04 #@! TO.C,C8*
X125015714Y-96653333D02*
X125053809Y-96691428D01*
X125091904Y-96805714D01*
X125091904Y-96881904D01*
X125053809Y-96996190D01*
X124977619Y-97072380D01*
X124901428Y-97110476D01*
X124749047Y-97148571D01*
X124634761Y-97148571D01*
X124482380Y-97110476D01*
X124406190Y-97072380D01*
X124330000Y-96996190D01*
X124291904Y-96881904D01*
X124291904Y-96805714D01*
X124330000Y-96691428D01*
X124368095Y-96653333D01*
X124634761Y-96196190D02*
X124596666Y-96272380D01*
X124558571Y-96310476D01*
X124482380Y-96348571D01*
X124444285Y-96348571D01*
X124368095Y-96310476D01*
X124330000Y-96272380D01*
X124291904Y-96196190D01*
X124291904Y-96043809D01*
X124330000Y-95967619D01*
X124368095Y-95929523D01*
X124444285Y-95891428D01*
X124482380Y-95891428D01*
X124558571Y-95929523D01*
X124596666Y-95967619D01*
X124634761Y-96043809D01*
X124634761Y-96196190D01*
X124672857Y-96272380D01*
X124710952Y-96310476D01*
X124787142Y-96348571D01*
X124939523Y-96348571D01*
X125015714Y-96310476D01*
X125053809Y-96272380D01*
X125091904Y-96196190D01*
X125091904Y-96043809D01*
X125053809Y-95967619D01*
X125015714Y-95929523D01*
X124939523Y-95891428D01*
X124787142Y-95891428D01*
X124710952Y-95929523D01*
X124672857Y-95967619D01*
X124634761Y-96043809D01*
G04 #@! TO.C,C9*
X117116666Y-93955714D02*
X117078571Y-93993809D01*
X116964285Y-94031904D01*
X116888095Y-94031904D01*
X116773809Y-93993809D01*
X116697619Y-93917619D01*
X116659523Y-93841428D01*
X116621428Y-93689047D01*
X116621428Y-93574761D01*
X116659523Y-93422380D01*
X116697619Y-93346190D01*
X116773809Y-93270000D01*
X116888095Y-93231904D01*
X116964285Y-93231904D01*
X117078571Y-93270000D01*
X117116666Y-93308095D01*
X117497619Y-94031904D02*
X117650000Y-94031904D01*
X117726190Y-93993809D01*
X117764285Y-93955714D01*
X117840476Y-93841428D01*
X117878571Y-93689047D01*
X117878571Y-93384285D01*
X117840476Y-93308095D01*
X117802380Y-93270000D01*
X117726190Y-93231904D01*
X117573809Y-93231904D01*
X117497619Y-93270000D01*
X117459523Y-93308095D01*
X117421428Y-93384285D01*
X117421428Y-93574761D01*
X117459523Y-93650952D01*
X117497619Y-93689047D01*
X117573809Y-93727142D01*
X117726190Y-93727142D01*
X117802380Y-93689047D01*
X117840476Y-93650952D01*
X117878571Y-93574761D01*
G04 #@! TO.C,C2*
X112866666Y-83985714D02*
X112828571Y-84023809D01*
X112714285Y-84061904D01*
X112638095Y-84061904D01*
X112523809Y-84023809D01*
X112447619Y-83947619D01*
X112409523Y-83871428D01*
X112371428Y-83719047D01*
X112371428Y-83604761D01*
X112409523Y-83452380D01*
X112447619Y-83376190D01*
X112523809Y-83300000D01*
X112638095Y-83261904D01*
X112714285Y-83261904D01*
X112828571Y-83300000D01*
X112866666Y-83338095D01*
X113171428Y-83338095D02*
X113209523Y-83300000D01*
X113285714Y-83261904D01*
X113476190Y-83261904D01*
X113552380Y-83300000D01*
X113590476Y-83338095D01*
X113628571Y-83414285D01*
X113628571Y-83490476D01*
X113590476Y-83604761D01*
X113133333Y-84061904D01*
X113628571Y-84061904D01*
G04 #@! TO.C,C3*
X113116666Y-91535714D02*
X113078571Y-91573809D01*
X112964285Y-91611904D01*
X112888095Y-91611904D01*
X112773809Y-91573809D01*
X112697619Y-91497619D01*
X112659523Y-91421428D01*
X112621428Y-91269047D01*
X112621428Y-91154761D01*
X112659523Y-91002380D01*
X112697619Y-90926190D01*
X112773809Y-90850000D01*
X112888095Y-90811904D01*
X112964285Y-90811904D01*
X113078571Y-90850000D01*
X113116666Y-90888095D01*
X113383333Y-90811904D02*
X113878571Y-90811904D01*
X113611904Y-91116666D01*
X113726190Y-91116666D01*
X113802380Y-91154761D01*
X113840476Y-91192857D01*
X113878571Y-91269047D01*
X113878571Y-91459523D01*
X113840476Y-91535714D01*
X113802380Y-91573809D01*
X113726190Y-91611904D01*
X113497619Y-91611904D01*
X113421428Y-91573809D01*
X113383333Y-91535714D01*
G04 #@! TO.C,D2*
X113611904Y-95840476D02*
X112811904Y-95840476D01*
X112811904Y-95650000D01*
X112850000Y-95535714D01*
X112926190Y-95459523D01*
X113002380Y-95421428D01*
X113154761Y-95383333D01*
X113269047Y-95383333D01*
X113421428Y-95421428D01*
X113497619Y-95459523D01*
X113573809Y-95535714D01*
X113611904Y-95650000D01*
X113611904Y-95840476D01*
X112888095Y-95078571D02*
X112850000Y-95040476D01*
X112811904Y-94964285D01*
X112811904Y-94773809D01*
X112850000Y-94697619D01*
X112888095Y-94659523D01*
X112964285Y-94621428D01*
X113040476Y-94621428D01*
X113154761Y-94659523D01*
X113611904Y-95116666D01*
X113611904Y-94621428D01*
G04 #@! TO.C,D3*
X113611904Y-94340476D02*
X112811904Y-94340476D01*
X112811904Y-94150000D01*
X112850000Y-94035714D01*
X112926190Y-93959523D01*
X113002380Y-93921428D01*
X113154761Y-93883333D01*
X113269047Y-93883333D01*
X113421428Y-93921428D01*
X113497619Y-93959523D01*
X113573809Y-94035714D01*
X113611904Y-94150000D01*
X113611904Y-94340476D01*
X112811904Y-93616666D02*
X112811904Y-93121428D01*
X113116666Y-93388095D01*
X113116666Y-93273809D01*
X113154761Y-93197619D01*
X113192857Y-93159523D01*
X113269047Y-93121428D01*
X113459523Y-93121428D01*
X113535714Y-93159523D01*
X113573809Y-93197619D01*
X113611904Y-93273809D01*
X113611904Y-93502380D01*
X113573809Y-93578571D01*
X113535714Y-93616666D01*
G04 #@! TO.C,R12*
X117485714Y-96611904D02*
X117219047Y-96230952D01*
X117028571Y-96611904D02*
X117028571Y-95811904D01*
X117333333Y-95811904D01*
X117409523Y-95850000D01*
X117447619Y-95888095D01*
X117485714Y-95964285D01*
X117485714Y-96078571D01*
X117447619Y-96154761D01*
X117409523Y-96192857D01*
X117333333Y-96230952D01*
X117028571Y-96230952D01*
X118247619Y-96611904D02*
X117790476Y-96611904D01*
X118019047Y-96611904D02*
X118019047Y-95811904D01*
X117942857Y-95926190D01*
X117866666Y-96002380D01*
X117790476Y-96040476D01*
X118552380Y-95888095D02*
X118590476Y-95850000D01*
X118666666Y-95811904D01*
X118857142Y-95811904D01*
X118933333Y-95850000D01*
X118971428Y-95888095D01*
X119009523Y-95964285D01*
X119009523Y-96040476D01*
X118971428Y-96154761D01*
X118514285Y-96611904D01*
X119009523Y-96611904D01*
G04 #@! TO.C,D1*
X127109523Y-83431904D02*
X127109523Y-82631904D01*
X127300000Y-82631904D01*
X127414285Y-82670000D01*
X127490476Y-82746190D01*
X127528571Y-82822380D01*
X127566666Y-82974761D01*
X127566666Y-83089047D01*
X127528571Y-83241428D01*
X127490476Y-83317619D01*
X127414285Y-83393809D01*
X127300000Y-83431904D01*
X127109523Y-83431904D01*
X128328571Y-83431904D02*
X127871428Y-83431904D01*
X128100000Y-83431904D02*
X128100000Y-82631904D01*
X128023809Y-82746190D01*
X127947619Y-82822380D01*
X127871428Y-82860476D01*
G04 #@! TO.C,U2*
X122390476Y-89561904D02*
X122390476Y-90209523D01*
X122428571Y-90285714D01*
X122466666Y-90323809D01*
X122542857Y-90361904D01*
X122695238Y-90361904D01*
X122771428Y-90323809D01*
X122809523Y-90285714D01*
X122847619Y-90209523D01*
X122847619Y-89561904D01*
X123190476Y-89638095D02*
X123228571Y-89600000D01*
X123304761Y-89561904D01*
X123495238Y-89561904D01*
X123571428Y-89600000D01*
X123609523Y-89638095D01*
X123647619Y-89714285D01*
X123647619Y-89790476D01*
X123609523Y-89904761D01*
X123152380Y-90361904D01*
X123647619Y-90361904D01*
G04 #@! TO.C,C1*
X117785714Y-90383333D02*
X117823809Y-90421428D01*
X117861904Y-90535714D01*
X117861904Y-90611904D01*
X117823809Y-90726190D01*
X117747619Y-90802380D01*
X117671428Y-90840476D01*
X117519047Y-90878571D01*
X117404761Y-90878571D01*
X117252380Y-90840476D01*
X117176190Y-90802380D01*
X117100000Y-90726190D01*
X117061904Y-90611904D01*
X117061904Y-90535714D01*
X117100000Y-90421428D01*
X117138095Y-90383333D01*
X117861904Y-89621428D02*
X117861904Y-90078571D01*
X117861904Y-89850000D02*
X117061904Y-89850000D01*
X117176190Y-89926190D01*
X117252380Y-90002380D01*
X117290476Y-90078571D01*
G04 #@! TO.C,R1*
X113861904Y-92633333D02*
X113480952Y-92900000D01*
X113861904Y-93090476D02*
X113061904Y-93090476D01*
X113061904Y-92785714D01*
X113100000Y-92709523D01*
X113138095Y-92671428D01*
X113214285Y-92633333D01*
X113328571Y-92633333D01*
X113404761Y-92671428D01*
X113442857Y-92709523D01*
X113480952Y-92785714D01*
X113480952Y-93090476D01*
X113861904Y-91871428D02*
X113861904Y-92328571D01*
X113861904Y-92100000D02*
X113061904Y-92100000D01*
X113176190Y-92176190D01*
X113252380Y-92252380D01*
X113290476Y-92328571D01*
G04 #@! TO.C,R2*
X125031904Y-83633333D02*
X124650952Y-83900000D01*
X125031904Y-84090476D02*
X124231904Y-84090476D01*
X124231904Y-83785714D01*
X124270000Y-83709523D01*
X124308095Y-83671428D01*
X124384285Y-83633333D01*
X124498571Y-83633333D01*
X124574761Y-83671428D01*
X124612857Y-83709523D01*
X124650952Y-83785714D01*
X124650952Y-84090476D01*
X124308095Y-83328571D02*
X124270000Y-83290476D01*
X124231904Y-83214285D01*
X124231904Y-83023809D01*
X124270000Y-82947619D01*
X124308095Y-82909523D01*
X124384285Y-82871428D01*
X124460476Y-82871428D01*
X124574761Y-82909523D01*
X125031904Y-83366666D01*
X125031904Y-82871428D01*
G04 #@! TO.C,R9*
X126996904Y-96653333D02*
X126615952Y-96920000D01*
X126996904Y-97110476D02*
X126196904Y-97110476D01*
X126196904Y-96805714D01*
X126235000Y-96729523D01*
X126273095Y-96691428D01*
X126349285Y-96653333D01*
X126463571Y-96653333D01*
X126539761Y-96691428D01*
X126577857Y-96729523D01*
X126615952Y-96805714D01*
X126615952Y-97110476D01*
X126996904Y-96272380D02*
X126996904Y-96120000D01*
X126958809Y-96043809D01*
X126920714Y-96005714D01*
X126806428Y-95929523D01*
X126654047Y-95891428D01*
X126349285Y-95891428D01*
X126273095Y-95929523D01*
X126235000Y-95967619D01*
X126196904Y-96043809D01*
X126196904Y-96196190D01*
X126235000Y-96272380D01*
X126273095Y-96310476D01*
X126349285Y-96348571D01*
X126539761Y-96348571D01*
X126615952Y-96310476D01*
X126654047Y-96272380D01*
X126692142Y-96196190D01*
X126692142Y-96043809D01*
X126654047Y-95967619D01*
X126615952Y-95929523D01*
X126539761Y-95891428D01*
G04 #@! TO.C,Q1*
X128598809Y-94398095D02*
X128522619Y-94360000D01*
X128446428Y-94283809D01*
X128332142Y-94169523D01*
X128255952Y-94131428D01*
X128179761Y-94131428D01*
X128217857Y-94321904D02*
X128141666Y-94283809D01*
X128065476Y-94207619D01*
X128027380Y-94055238D01*
X128027380Y-93788571D01*
X128065476Y-93636190D01*
X128141666Y-93560000D01*
X128217857Y-93521904D01*
X128370238Y-93521904D01*
X128446428Y-93560000D01*
X128522619Y-93636190D01*
X128560714Y-93788571D01*
X128560714Y-94055238D01*
X128522619Y-94207619D01*
X128446428Y-94283809D01*
X128370238Y-94321904D01*
X128217857Y-94321904D01*
X129322619Y-94321904D02*
X128865476Y-94321904D01*
X129094047Y-94321904D02*
X129094047Y-93521904D01*
X129017857Y-93636190D01*
X128941666Y-93712380D01*
X128865476Y-93750476D01*
G04 #@! TO.C,R4*
X131963333Y-92388095D02*
X132230000Y-92769047D01*
X132420476Y-92388095D02*
X132420476Y-93188095D01*
X132115714Y-93188095D01*
X132039523Y-93150000D01*
X132001428Y-93111904D01*
X131963333Y-93035714D01*
X131963333Y-92921428D01*
X132001428Y-92845238D01*
X132039523Y-92807142D01*
X132115714Y-92769047D01*
X132420476Y-92769047D01*
X131277619Y-92921428D02*
X131277619Y-92388095D01*
X131468095Y-93226190D02*
X131658571Y-92654761D01*
X131163333Y-92654761D01*
G04 #@! TO.C,R5*
X133361904Y-96383333D02*
X132980952Y-96650000D01*
X133361904Y-96840476D02*
X132561904Y-96840476D01*
X132561904Y-96535714D01*
X132600000Y-96459523D01*
X132638095Y-96421428D01*
X132714285Y-96383333D01*
X132828571Y-96383333D01*
X132904761Y-96421428D01*
X132942857Y-96459523D01*
X132980952Y-96535714D01*
X132980952Y-96840476D01*
X132561904Y-95659523D02*
X132561904Y-96040476D01*
X132942857Y-96078571D01*
X132904761Y-96040476D01*
X132866666Y-95964285D01*
X132866666Y-95773809D01*
X132904761Y-95697619D01*
X132942857Y-95659523D01*
X133019047Y-95621428D01*
X133209523Y-95621428D01*
X133285714Y-95659523D01*
X133323809Y-95697619D01*
X133361904Y-95773809D01*
X133361904Y-95964285D01*
X133323809Y-96040476D01*
X133285714Y-96078571D01*
G04 #@! TO.C,R7*
X122781904Y-83633333D02*
X122400952Y-83900000D01*
X122781904Y-84090476D02*
X121981904Y-84090476D01*
X121981904Y-83785714D01*
X122020000Y-83709523D01*
X122058095Y-83671428D01*
X122134285Y-83633333D01*
X122248571Y-83633333D01*
X122324761Y-83671428D01*
X122362857Y-83709523D01*
X122400952Y-83785714D01*
X122400952Y-84090476D01*
X121981904Y-83366666D02*
X121981904Y-82833333D01*
X122781904Y-83176190D01*
G04 #@! TO.C,R8*
X120661904Y-83633333D02*
X120280952Y-83900000D01*
X120661904Y-84090476D02*
X119861904Y-84090476D01*
X119861904Y-83785714D01*
X119900000Y-83709523D01*
X119938095Y-83671428D01*
X120014285Y-83633333D01*
X120128571Y-83633333D01*
X120204761Y-83671428D01*
X120242857Y-83709523D01*
X120280952Y-83785714D01*
X120280952Y-84090476D01*
X120204761Y-83176190D02*
X120166666Y-83252380D01*
X120128571Y-83290476D01*
X120052380Y-83328571D01*
X120014285Y-83328571D01*
X119938095Y-83290476D01*
X119900000Y-83252380D01*
X119861904Y-83176190D01*
X119861904Y-83023809D01*
X119900000Y-82947619D01*
X119938095Y-82909523D01*
X120014285Y-82871428D01*
X120052380Y-82871428D01*
X120128571Y-82909523D01*
X120166666Y-82947619D01*
X120204761Y-83023809D01*
X120204761Y-83176190D01*
X120242857Y-83252380D01*
X120280952Y-83290476D01*
X120357142Y-83328571D01*
X120509523Y-83328571D01*
X120585714Y-83290476D01*
X120623809Y-83252380D01*
X120661904Y-83176190D01*
X120661904Y-83023809D01*
X120623809Y-82947619D01*
X120585714Y-82909523D01*
X120509523Y-82871428D01*
X120357142Y-82871428D01*
X120280952Y-82909523D01*
X120242857Y-82947619D01*
X120204761Y-83023809D01*
G04 #@! TO.C,R10*
X123611904Y-96764285D02*
X123230952Y-97030952D01*
X123611904Y-97221428D02*
X122811904Y-97221428D01*
X122811904Y-96916666D01*
X122850000Y-96840476D01*
X122888095Y-96802380D01*
X122964285Y-96764285D01*
X123078571Y-96764285D01*
X123154761Y-96802380D01*
X123192857Y-96840476D01*
X123230952Y-96916666D01*
X123230952Y-97221428D01*
X123611904Y-96002380D02*
X123611904Y-96459523D01*
X123611904Y-96230952D02*
X122811904Y-96230952D01*
X122926190Y-96307142D01*
X123002380Y-96383333D01*
X123040476Y-96459523D01*
X122811904Y-95507142D02*
X122811904Y-95430952D01*
X122850000Y-95354761D01*
X122888095Y-95316666D01*
X122964285Y-95278571D01*
X123116666Y-95240476D01*
X123307142Y-95240476D01*
X123459523Y-95278571D01*
X123535714Y-95316666D01*
X123573809Y-95354761D01*
X123611904Y-95430952D01*
X123611904Y-95507142D01*
X123573809Y-95583333D01*
X123535714Y-95621428D01*
X123459523Y-95659523D01*
X123307142Y-95697619D01*
X123116666Y-95697619D01*
X122964285Y-95659523D01*
X122888095Y-95621428D01*
X122850000Y-95583333D01*
X122811904Y-95507142D01*
G04 #@! TO.C,R6*
X130866666Y-96611904D02*
X130600000Y-96230952D01*
X130409523Y-96611904D02*
X130409523Y-95811904D01*
X130714285Y-95811904D01*
X130790476Y-95850000D01*
X130828571Y-95888095D01*
X130866666Y-95964285D01*
X130866666Y-96078571D01*
X130828571Y-96154761D01*
X130790476Y-96192857D01*
X130714285Y-96230952D01*
X130409523Y-96230952D01*
X131552380Y-95811904D02*
X131400000Y-95811904D01*
X131323809Y-95850000D01*
X131285714Y-95888095D01*
X131209523Y-96002380D01*
X131171428Y-96154761D01*
X131171428Y-96459523D01*
X131209523Y-96535714D01*
X131247619Y-96573809D01*
X131323809Y-96611904D01*
X131476190Y-96611904D01*
X131552380Y-96573809D01*
X131590476Y-96535714D01*
X131628571Y-96459523D01*
X131628571Y-96269047D01*
X131590476Y-96192857D01*
X131552380Y-96154761D01*
X131476190Y-96116666D01*
X131323809Y-96116666D01*
X131247619Y-96154761D01*
X131209523Y-96192857D01*
X131171428Y-96269047D01*
G04 #@! TO.C,Y1*
X113180952Y-87880952D02*
X113561904Y-87880952D01*
X112761904Y-88147619D02*
X113180952Y-87880952D01*
X112761904Y-87614285D01*
X113561904Y-86928571D02*
X113561904Y-87385714D01*
X113561904Y-87157142D02*
X112761904Y-87157142D01*
X112876190Y-87233333D01*
X112952380Y-87309523D01*
X112990476Y-87385714D01*
G04 #@! TO.C,R13*
X110735714Y-97161904D02*
X110469047Y-96780952D01*
X110278571Y-97161904D02*
X110278571Y-96361904D01*
X110583333Y-96361904D01*
X110659523Y-96400000D01*
X110697619Y-96438095D01*
X110735714Y-96514285D01*
X110735714Y-96628571D01*
X110697619Y-96704761D01*
X110659523Y-96742857D01*
X110583333Y-96780952D01*
X110278571Y-96780952D01*
X111497619Y-97161904D02*
X111040476Y-97161904D01*
X111269047Y-97161904D02*
X111269047Y-96361904D01*
X111192857Y-96476190D01*
X111116666Y-96552380D01*
X111040476Y-96590476D01*
X111764285Y-96361904D02*
X112259523Y-96361904D01*
X111992857Y-96666666D01*
X112107142Y-96666666D01*
X112183333Y-96704761D01*
X112221428Y-96742857D01*
X112259523Y-96819047D01*
X112259523Y-97009523D01*
X112221428Y-97085714D01*
X112183333Y-97123809D01*
X112107142Y-97161904D01*
X111878571Y-97161904D01*
X111802380Y-97123809D01*
X111764285Y-97085714D01*
G04 #@! TO.C,R11*
X119861904Y-96764285D02*
X119480952Y-97030952D01*
X119861904Y-97221428D02*
X119061904Y-97221428D01*
X119061904Y-96916666D01*
X119100000Y-96840476D01*
X119138095Y-96802380D01*
X119214285Y-96764285D01*
X119328571Y-96764285D01*
X119404761Y-96802380D01*
X119442857Y-96840476D01*
X119480952Y-96916666D01*
X119480952Y-97221428D01*
X119861904Y-96002380D02*
X119861904Y-96459523D01*
X119861904Y-96230952D02*
X119061904Y-96230952D01*
X119176190Y-96307142D01*
X119252380Y-96383333D01*
X119290476Y-96459523D01*
X119861904Y-95240476D02*
X119861904Y-95697619D01*
X119861904Y-95469047D02*
X119061904Y-95469047D01*
X119176190Y-95545238D01*
X119252380Y-95621428D01*
X119290476Y-95697619D01*
D11*
G04 #@! TO.C,U1*
X132080000Y-88428000D02*
X132730000Y-88428000D01*
X132080000Y-85308000D02*
X132730000Y-85308000D01*
X132080000Y-85308000D02*
X130405000Y-85308000D01*
X132080000Y-88428000D02*
X131430000Y-88428000D01*
G04 #@! TO.C,C4*
X132261252Y-89015000D02*
X131738748Y-89015000D01*
X132261252Y-90485000D02*
X131738748Y-90485000D01*
G04 #@! TO.C,C5*
X129935000Y-87129252D02*
X129935000Y-86606748D01*
X128465000Y-87129252D02*
X128465000Y-86606748D01*
G04 #@! TO.C,R3*
X129403641Y-89820000D02*
X129096359Y-89820000D01*
X129403641Y-90580000D02*
X129096359Y-90580000D01*
G04 #@! TO.C,C6*
X118390000Y-85857836D02*
X118390000Y-85642164D01*
X119110000Y-85857836D02*
X119110000Y-85642164D01*
G04 #@! TO.C,C7*
X126890000Y-85857836D02*
X126890000Y-85642164D01*
X127610000Y-85857836D02*
X127610000Y-85642164D01*
G04 #@! TO.C,C8*
X125370000Y-96412164D02*
X125370000Y-96627836D01*
X126090000Y-96412164D02*
X126090000Y-96627836D01*
G04 #@! TO.C,C9*
X116857836Y-92860000D02*
X116642164Y-92860000D01*
X116857836Y-92140000D02*
X116642164Y-92140000D01*
G04 #@! TO.C,C2*
X114857836Y-83390000D02*
X114642164Y-83390000D01*
X114857836Y-84110000D02*
X114642164Y-84110000D01*
G04 #@! TO.C,C3*
X114642164Y-91610000D02*
X114857836Y-91610000D01*
X114642164Y-90890000D02*
X114857836Y-90890000D01*
G04 #@! TO.C,D2*
X113515000Y-94515000D02*
X113515000Y-95985000D01*
X113515000Y-95985000D02*
X115800000Y-95985000D01*
X115800000Y-94515000D02*
X113515000Y-94515000D01*
G04 #@! TO.C,D3*
X113515000Y-94485000D02*
X115800000Y-94485000D01*
X113515000Y-93015000D02*
X113515000Y-94485000D01*
X115800000Y-93015000D02*
X113515000Y-93015000D01*
G04 #@! TO.C,R12*
X117846359Y-94870000D02*
X118153641Y-94870000D01*
X117846359Y-95630000D02*
X118153641Y-95630000D01*
G04 #@! TO.C,D1*
X128500000Y-84820000D02*
X132400000Y-84820000D01*
X128500000Y-82820000D02*
X132400000Y-82820000D01*
X128500000Y-82820000D02*
X128500000Y-84820000D01*
G04 #@! TO.C,U2*
X119390000Y-86840000D02*
X118100000Y-86840000D01*
X126610000Y-86390000D02*
X126610000Y-86840000D01*
X126610000Y-93610000D02*
X126610000Y-93160000D01*
X119840000Y-93610000D02*
X119390000Y-93610000D01*
X126160000Y-86390000D02*
X126610000Y-86390000D01*
X119390000Y-86390000D02*
X119390000Y-86840000D01*
X119840000Y-86390000D02*
X119390000Y-86390000D01*
X126160000Y-93610000D02*
X126610000Y-93610000D01*
X119390000Y-93610000D02*
X119390000Y-93160000D01*
D12*
G04 #@! TO.C,J1*
X154925000Y-96125000D02*
X154375000Y-96125000D01*
X138800000Y-83875000D02*
X139575000Y-83875000D01*
X154925000Y-95425000D02*
X154925000Y-96125000D01*
X154925000Y-84600000D02*
X154925000Y-83875000D01*
X139550000Y-83875000D02*
X140500000Y-83875000D01*
X138800000Y-96125000D02*
X140575000Y-96125000D01*
X154925000Y-83875000D02*
X154325000Y-83875000D01*
D11*
G04 #@! TO.C,C1*
X116857836Y-91610000D02*
X116642164Y-91610000D01*
X116857836Y-90890000D02*
X116642164Y-90890000D01*
G04 #@! TO.C,R1*
X114903641Y-92880000D02*
X114596359Y-92880000D01*
X114903641Y-92120000D02*
X114596359Y-92120000D01*
G04 #@! TO.C,R2*
X123880000Y-83346359D02*
X123880000Y-83653641D01*
X123120000Y-83346359D02*
X123120000Y-83653641D01*
G04 #@! TO.C,R9*
X128015000Y-96673641D02*
X128015000Y-96366359D01*
X127255000Y-96673641D02*
X127255000Y-96366359D01*
D12*
G04 #@! TO.C,H1*
X115500000Y-82500000D02*
G75*
G03*
X115500000Y-81500000I0J500000D01*
G01*
X118500000Y-81500000D02*
G75*
G03*
X118500000Y-82500000I0J-500000D01*
G01*
G04 #@! TO.C,H2*
X118500000Y-97500000D02*
G75*
G03*
X118500000Y-98500000I0J-500000D01*
G01*
X115500000Y-98500000D02*
G75*
G03*
X115500000Y-97500000I0J500000D01*
G01*
G04 #@! TO.C,H3*
X133000000Y-82500000D02*
G75*
G03*
X133000000Y-81500000I0J500000D01*
G01*
X136000000Y-81500000D02*
G75*
G03*
X136000000Y-82500000I0J-500000D01*
G01*
G04 #@! TO.C,H4*
X136000000Y-97500000D02*
G75*
G03*
X136000000Y-98500000I0J-500000D01*
G01*
X133000000Y-98500000D02*
G75*
G03*
X133000000Y-97500000I0J500000D01*
G01*
D11*
G04 #@! TO.C,Q1*
X130175000Y-94270000D02*
X129525000Y-94270000D01*
X130175000Y-91150000D02*
X129525000Y-91150000D01*
X130175000Y-94270000D02*
X131850000Y-94270000D01*
X130175000Y-91150000D02*
X130825000Y-91150000D01*
G04 #@! TO.C,R4*
X132620000Y-92153641D02*
X132620000Y-91846359D01*
X133380000Y-92153641D02*
X133380000Y-91846359D01*
G04 #@! TO.C,R5*
X133380000Y-94653641D02*
X133380000Y-94346359D01*
X132620000Y-94653641D02*
X132620000Y-94346359D01*
G04 #@! TO.C,R7*
X120870000Y-83346359D02*
X120870000Y-83653641D01*
X121630000Y-83346359D02*
X121630000Y-83653641D01*
G04 #@! TO.C,R8*
X118870000Y-83346359D02*
X118870000Y-83653641D01*
X119630000Y-83346359D02*
X119630000Y-83653641D01*
G04 #@! TO.C,R10*
X121620000Y-96096359D02*
X121620000Y-96403641D01*
X122380000Y-96096359D02*
X122380000Y-96403641D01*
G04 #@! TO.C,R6*
X130846359Y-94870000D02*
X131153641Y-94870000D01*
X130846359Y-95630000D02*
X131153641Y-95630000D01*
G04 #@! TO.C,Y1*
X117550000Y-90200000D02*
X117550000Y-84450000D01*
X113950000Y-84450000D02*
X113950000Y-90200000D01*
X117550000Y-84450000D02*
X113950000Y-84450000D01*
G04 #@! TO.C,R13*
X113453641Y-97130000D02*
X113146359Y-97130000D01*
X113453641Y-96370000D02*
X113146359Y-96370000D01*
G04 #@! TO.C,R11*
X120880000Y-96403641D02*
X120880000Y-96096359D01*
X120120000Y-96403641D02*
X120120000Y-96096359D01*
G04 #@! TD*
M02*
