M48
; DRILL file {KiCad 6.0.6+dfsg-1} date Fri 05 Aug 2022 15:04:03 +08
; FORMAT={-:-/ absolute / inch / decimal}
; #@! TF.CreationDate,2022-08-05T15:04:03+08:00
; #@! TF.GenerationSoftware,Kicad,Pcbnew,6.0.6+dfsg-1
; #@! TF.FileFunction,NonPlated,1,4,NPTH
FMAT,2
INCH
; #@! TA.AperFunction,NonPlated,NPTH,ComponentDrill
T1C0.0197
%
G90
G05
T1
X4.561Y-3.1988
X4.561Y-3.2579
X4.561Y-3.8287
X4.561Y-3.8878
X4.5925Y-3.189
X4.5925Y-3.2677
X4.5925Y-3.8189
X4.5925Y-3.8976
X4.6201Y-3.189
X4.6201Y-3.2677
X4.6201Y-3.8189
X4.6201Y-3.8976
X4.6516Y-3.1988
X4.6516Y-3.2579
X4.6516Y-3.8287
X4.6516Y-3.8878
X5.25Y-3.1988
X5.25Y-3.2579
X5.25Y-3.8287
X5.25Y-3.8878
X5.2815Y-3.189
X5.2815Y-3.2677
X5.2815Y-3.8189
X5.2815Y-3.8976
X5.3091Y-3.189
X5.3091Y-3.2677
X5.3091Y-3.8189
X5.3091Y-3.8976
X5.3406Y-3.1988
X5.3406Y-3.2579
X5.3406Y-3.8287
X5.3406Y-3.8878
T0
M30
