G04 #@! TF.GenerationSoftware,KiCad,Pcbnew,6.0.6+dfsg-1*
G04 #@! TF.CreationDate,2022-07-17T16:52:43+08:00*
G04 #@! TF.ProjectId,stlink,73746c69-6e6b-42e6-9b69-6361645f7063,d*
G04 #@! TF.SameCoordinates,Original*
G04 #@! TF.FileFunction,Soldermask,Bot*
G04 #@! TF.FilePolarity,Negative*
%FSLAX46Y46*%
G04 Gerber Fmt 4.6, Leading zero omitted, Abs format (unit mm)*
G04 Created by KiCad (PCBNEW 6.0.6+dfsg-1) date 2022-07-17 16:52:43*
%MOMM*%
%LPD*%
G01*
G04 APERTURE LIST*
G04 Aperture macros list*
%AMRoundRect*
0 Rectangle with rounded corners*
0 $1 Rounding radius*
0 $2 $3 $4 $5 $6 $7 $8 $9 X,Y pos of 4 corners*
0 Add a 4 corners polygon primitive as box body*
4,1,4,$2,$3,$4,$5,$6,$7,$8,$9,$2,$3,0*
0 Add four circle primitives for the rounded corners*
1,1,$1+$1,$2,$3*
1,1,$1+$1,$4,$5*
1,1,$1+$1,$6,$7*
1,1,$1+$1,$8,$9*
0 Add four rect primitives between the rounded corners*
20,1,$1+$1,$2,$3,$4,$5,0*
20,1,$1+$1,$4,$5,$6,$7,0*
20,1,$1+$1,$6,$7,$8,$9,0*
20,1,$1+$1,$8,$9,$2,$3,0*%
G04 Aperture macros list end*
%ADD10C,1.900000*%
%ADD11O,3.600000X2.100000*%
%ADD12C,2.300000*%
%ADD13C,0.600000*%
%ADD14RoundRect,0.050000X1.270000X0.762000X-1.270000X0.762000X-1.270000X-0.762000X1.270000X-0.762000X0*%
%ADD15C,1.100000*%
%ADD16RoundRect,0.050000X-0.500000X-0.750000X0.500000X-0.750000X0.500000X0.750000X-0.500000X0.750000X0*%
G04 APERTURE END LIST*
D10*
G04 #@! TO.C,J1*
X134900000Y-86500000D03*
X134900000Y-89000000D03*
X134900000Y-91000000D03*
X134900000Y-93500000D03*
D11*
X137000000Y-95850000D03*
X137000000Y-84150000D03*
D12*
X137000000Y-92300000D03*
X137000000Y-87700000D03*
G04 #@! TD*
D13*
G04 #@! TO.C,H1*
X118150000Y-81250000D03*
X115850000Y-82750000D03*
X116650000Y-81000000D03*
X117350000Y-81000000D03*
X115850000Y-81250000D03*
X118150000Y-82750000D03*
X116650000Y-83000000D03*
X117350000Y-83000000D03*
G04 #@! TD*
G04 #@! TO.C,H2*
X116650000Y-97000000D03*
X117350000Y-99000000D03*
X115850000Y-97250000D03*
X117350000Y-97000000D03*
X115850000Y-98750000D03*
X118150000Y-97250000D03*
X116650000Y-99000000D03*
X118150000Y-98750000D03*
G04 #@! TD*
G04 #@! TO.C,H3*
X134150000Y-81000000D03*
X133350000Y-81250000D03*
X135650000Y-82750000D03*
X134150000Y-83000000D03*
X135650000Y-81250000D03*
X134850000Y-83000000D03*
X134850000Y-81000000D03*
X133350000Y-82750000D03*
G04 #@! TD*
G04 #@! TO.C,H4*
X135650000Y-98750000D03*
X133350000Y-98750000D03*
X135650000Y-97250000D03*
X134150000Y-97000000D03*
X134850000Y-99000000D03*
X133350000Y-97250000D03*
X134850000Y-97000000D03*
X134150000Y-99000000D03*
G04 #@! TD*
D14*
G04 #@! TO.C,J2*
X110500000Y-84920000D03*
X110500000Y-87460000D03*
X110500000Y-90000000D03*
X110500000Y-92540000D03*
X110500000Y-95080000D03*
G04 #@! TD*
D15*
G04 #@! TO.C,TP3*
X127000000Y-83500000D03*
G04 #@! TD*
G04 #@! TO.C,TP1*
X131064000Y-83500000D03*
G04 #@! TD*
G04 #@! TO.C,TP4*
X124968000Y-83500000D03*
G04 #@! TD*
G04 #@! TO.C,TP5*
X122936000Y-83500000D03*
G04 #@! TD*
G04 #@! TO.C,TP2*
X129000000Y-83500000D03*
G04 #@! TD*
D16*
G04 #@! TO.C,JP1*
X121150000Y-94750000D03*
X122450000Y-94750000D03*
X123750000Y-94750000D03*
G04 #@! TD*
M02*
