G04 #@! TF.GenerationSoftware,KiCad,Pcbnew,6.0.6+dfsg-1*
G04 #@! TF.CreationDate,2022-08-05T15:03:59+08:00*
G04 #@! TF.ProjectId,stlink,73746c69-6e6b-42e6-9b69-6361645f7063,d*
G04 #@! TF.SameCoordinates,Original*
G04 #@! TF.FileFunction,Legend,Bot*
G04 #@! TF.FilePolarity,Positive*
%FSLAX46Y46*%
G04 Gerber Fmt 4.6, Leading zero omitted, Abs format (unit mm)*
G04 Created by KiCad (PCBNEW 6.0.6+dfsg-1) date 2022-08-05 15:03:59*
%MOMM*%
%LPD*%
G01*
G04 APERTURE LIST*
%ADD10C,0.150000*%
%ADD11C,0.120000*%
G04 APERTURE END LIST*
D10*
X118092500Y-87737904D02*
X118092500Y-86937904D01*
X117787738Y-86937904D01*
X117711547Y-86976000D01*
X117673452Y-87014095D01*
X117635357Y-87090285D01*
X117635357Y-87204571D01*
X117673452Y-87280761D01*
X117711547Y-87318857D01*
X117787738Y-87356952D01*
X118092500Y-87356952D01*
X117368690Y-86937904D02*
X117178214Y-87737904D01*
X117025833Y-87166476D01*
X116873452Y-87737904D01*
X116682976Y-86937904D01*
X115921071Y-87737904D02*
X116187738Y-87356952D01*
X116378214Y-87737904D02*
X116378214Y-86937904D01*
X116073452Y-86937904D01*
X115997261Y-86976000D01*
X115959166Y-87014095D01*
X115921071Y-87090285D01*
X115921071Y-87204571D01*
X115959166Y-87280761D01*
X115997261Y-87318857D01*
X116073452Y-87356952D01*
X116378214Y-87356952D01*
X115006785Y-86899809D02*
X115692500Y-87928380D01*
X114321071Y-86976000D02*
X114397261Y-86937904D01*
X114511547Y-86937904D01*
X114625833Y-86976000D01*
X114702023Y-87052190D01*
X114740119Y-87128380D01*
X114778214Y-87280761D01*
X114778214Y-87395047D01*
X114740119Y-87547428D01*
X114702023Y-87623619D01*
X114625833Y-87699809D01*
X114511547Y-87737904D01*
X114435357Y-87737904D01*
X114321071Y-87699809D01*
X114282976Y-87661714D01*
X114282976Y-87395047D01*
X114435357Y-87395047D01*
X113940119Y-87737904D02*
X113940119Y-86937904D01*
X113482976Y-87737904D01*
X113482976Y-86937904D01*
X113102023Y-87737904D02*
X113102023Y-86937904D01*
X112911547Y-86937904D01*
X112797261Y-86976000D01*
X112721071Y-87052190D01*
X112682976Y-87128380D01*
X112644880Y-87280761D01*
X112644880Y-87395047D01*
X112682976Y-87547428D01*
X112721071Y-87623619D01*
X112797261Y-87699809D01*
X112911547Y-87737904D01*
X113102023Y-87737904D01*
X116949642Y-90201714D02*
X116987738Y-90239809D01*
X117102023Y-90277904D01*
X117178214Y-90277904D01*
X117292500Y-90239809D01*
X117368690Y-90163619D01*
X117406785Y-90087428D01*
X117444880Y-89935047D01*
X117444880Y-89820761D01*
X117406785Y-89668380D01*
X117368690Y-89592190D01*
X117292500Y-89516000D01*
X117178214Y-89477904D01*
X117102023Y-89477904D01*
X116987738Y-89516000D01*
X116949642Y-89554095D01*
X116225833Y-90277904D02*
X116606785Y-90277904D01*
X116606785Y-89477904D01*
X115959166Y-90277904D02*
X115959166Y-89477904D01*
X115502023Y-90277904D02*
X115844880Y-89820761D01*
X115502023Y-89477904D02*
X115959166Y-89935047D01*
X114587738Y-89439809D02*
X115273452Y-90468380D01*
X114321071Y-90277904D02*
X114321071Y-89477904D01*
X114130595Y-89477904D01*
X114016309Y-89516000D01*
X113940119Y-89592190D01*
X113902023Y-89668380D01*
X113863928Y-89820761D01*
X113863928Y-89935047D01*
X113902023Y-90087428D01*
X113940119Y-90163619D01*
X114016309Y-90239809D01*
X114130595Y-90277904D01*
X114321071Y-90277904D01*
X113521071Y-90277904D02*
X113521071Y-89477904D01*
X112987738Y-89477904D02*
X112835357Y-89477904D01*
X112759166Y-89516000D01*
X112682976Y-89592190D01*
X112644880Y-89744571D01*
X112644880Y-90011238D01*
X112682976Y-90163619D01*
X112759166Y-90239809D01*
X112835357Y-90277904D01*
X112987738Y-90277904D01*
X113063928Y-90239809D01*
X113140119Y-90163619D01*
X113178214Y-90011238D01*
X113178214Y-89744571D01*
X113140119Y-89592190D01*
X113063928Y-89516000D01*
X112987738Y-89477904D01*
X117863928Y-92779809D02*
X117749642Y-92817904D01*
X117559166Y-92817904D01*
X117482976Y-92779809D01*
X117444880Y-92741714D01*
X117406785Y-92665523D01*
X117406785Y-92589333D01*
X117444880Y-92513142D01*
X117482976Y-92475047D01*
X117559166Y-92436952D01*
X117711547Y-92398857D01*
X117787738Y-92360761D01*
X117825833Y-92322666D01*
X117863928Y-92246476D01*
X117863928Y-92170285D01*
X117825833Y-92094095D01*
X117787738Y-92056000D01*
X117711547Y-92017904D01*
X117521071Y-92017904D01*
X117406785Y-92056000D01*
X117140119Y-92017904D02*
X116949642Y-92817904D01*
X116797261Y-92246476D01*
X116644880Y-92817904D01*
X116454404Y-92017904D01*
X115997261Y-92017904D02*
X115844880Y-92017904D01*
X115768690Y-92056000D01*
X115692500Y-92132190D01*
X115654404Y-92284571D01*
X115654404Y-92551238D01*
X115692500Y-92703619D01*
X115768690Y-92779809D01*
X115844880Y-92817904D01*
X115997261Y-92817904D01*
X116073452Y-92779809D01*
X116149642Y-92703619D01*
X116187738Y-92551238D01*
X116187738Y-92284571D01*
X116149642Y-92132190D01*
X116073452Y-92056000D01*
X115997261Y-92017904D01*
X114740119Y-91979809D02*
X115425833Y-93008380D01*
X114016309Y-92817904D02*
X114282976Y-92436952D01*
X114473452Y-92817904D02*
X114473452Y-92017904D01*
X114168690Y-92017904D01*
X114092500Y-92056000D01*
X114054404Y-92094095D01*
X114016309Y-92170285D01*
X114016309Y-92284571D01*
X114054404Y-92360761D01*
X114092500Y-92398857D01*
X114168690Y-92436952D01*
X114473452Y-92436952D01*
X113711547Y-92779809D02*
X113597261Y-92817904D01*
X113406785Y-92817904D01*
X113330595Y-92779809D01*
X113292500Y-92741714D01*
X113254404Y-92665523D01*
X113254404Y-92589333D01*
X113292500Y-92513142D01*
X113330595Y-92475047D01*
X113406785Y-92436952D01*
X113559166Y-92398857D01*
X113635357Y-92360761D01*
X113673452Y-92322666D01*
X113711547Y-92246476D01*
X113711547Y-92170285D01*
X113673452Y-92094095D01*
X113635357Y-92056000D01*
X113559166Y-92017904D01*
X113368690Y-92017904D01*
X113254404Y-92056000D01*
X113025833Y-92017904D02*
X112568690Y-92017904D01*
X112797261Y-92817904D02*
X112797261Y-92017904D01*
X116187738Y-94557904D02*
X115730595Y-94557904D01*
X115959166Y-95357904D02*
X115959166Y-94557904D01*
X115540119Y-94557904D02*
X115006785Y-95357904D01*
X115006785Y-94557904D02*
X115540119Y-95357904D01*
X114130595Y-94519809D02*
X114816309Y-95548380D01*
X113406785Y-95357904D02*
X113673452Y-94976952D01*
X113863928Y-95357904D02*
X113863928Y-94557904D01*
X113559166Y-94557904D01*
X113482976Y-94596000D01*
X113444880Y-94634095D01*
X113406785Y-94710285D01*
X113406785Y-94824571D01*
X113444880Y-94900761D01*
X113482976Y-94938857D01*
X113559166Y-94976952D01*
X113863928Y-94976952D01*
X113140119Y-94557904D02*
X112606785Y-95357904D01*
X112606785Y-94557904D02*
X113140119Y-95357904D01*
X127285714Y-85073119D02*
X127323809Y-85035023D01*
X127361904Y-84920738D01*
X127361904Y-84844547D01*
X127323809Y-84730261D01*
X127247619Y-84654071D01*
X127171428Y-84615976D01*
X127019047Y-84577880D01*
X126904761Y-84577880D01*
X126752380Y-84615976D01*
X126676190Y-84654071D01*
X126600000Y-84730261D01*
X126561904Y-84844547D01*
X126561904Y-84920738D01*
X126600000Y-85035023D01*
X126638095Y-85073119D01*
X127361904Y-85796928D02*
X127361904Y-85415976D01*
X126561904Y-85415976D01*
X127361904Y-86063595D02*
X126561904Y-86063595D01*
X127361904Y-86520738D02*
X126904761Y-86177880D01*
X126561904Y-86520738D02*
X127019047Y-86063595D01*
X124910857Y-84882642D02*
X124948952Y-84996928D01*
X124987047Y-85035023D01*
X125063238Y-85073119D01*
X125177523Y-85073119D01*
X125253714Y-85035023D01*
X125291809Y-84996928D01*
X125329904Y-84920738D01*
X125329904Y-84615976D01*
X124529904Y-84615976D01*
X124529904Y-84882642D01*
X124568000Y-84958833D01*
X124606095Y-84996928D01*
X124682285Y-85035023D01*
X124758476Y-85035023D01*
X124834666Y-84996928D01*
X124872761Y-84958833D01*
X124910857Y-84882642D01*
X124910857Y-84615976D01*
X124529904Y-85568357D02*
X124529904Y-85644547D01*
X124568000Y-85720738D01*
X124606095Y-85758833D01*
X124682285Y-85796928D01*
X124834666Y-85835023D01*
X125025142Y-85835023D01*
X125177523Y-85796928D01*
X125253714Y-85758833D01*
X125291809Y-85720738D01*
X125329904Y-85644547D01*
X125329904Y-85568357D01*
X125291809Y-85492166D01*
X125253714Y-85454071D01*
X125177523Y-85415976D01*
X125025142Y-85377880D01*
X124834666Y-85377880D01*
X124682285Y-85415976D01*
X124606095Y-85454071D01*
X124568000Y-85492166D01*
X124529904Y-85568357D01*
X122536000Y-85035023D02*
X122497904Y-84958833D01*
X122497904Y-84844547D01*
X122536000Y-84730261D01*
X122612190Y-84654071D01*
X122688380Y-84615976D01*
X122840761Y-84577880D01*
X122955047Y-84577880D01*
X123107428Y-84615976D01*
X123183619Y-84654071D01*
X123259809Y-84730261D01*
X123297904Y-84844547D01*
X123297904Y-84920738D01*
X123259809Y-85035023D01*
X123221714Y-85073119D01*
X122955047Y-85073119D01*
X122955047Y-84920738D01*
X123297904Y-85415976D02*
X122497904Y-85415976D01*
X123297904Y-85873119D01*
X122497904Y-85873119D01*
X123297904Y-86254071D02*
X122497904Y-86254071D01*
X122497904Y-86444547D01*
X122536000Y-86558833D01*
X122612190Y-86635023D01*
X122688380Y-86673119D01*
X122840761Y-86711214D01*
X122955047Y-86711214D01*
X123107428Y-86673119D01*
X123183619Y-86635023D01*
X123259809Y-86558833D01*
X123297904Y-86444547D01*
X123297904Y-86254071D01*
X131792023Y-89134761D02*
X131649166Y-89182380D01*
X131411071Y-89182380D01*
X131315833Y-89134761D01*
X131268214Y-89087142D01*
X131220595Y-88991904D01*
X131220595Y-88896666D01*
X131268214Y-88801428D01*
X131315833Y-88753809D01*
X131411071Y-88706190D01*
X131601547Y-88658571D01*
X131696785Y-88610952D01*
X131744404Y-88563333D01*
X131792023Y-88468095D01*
X131792023Y-88372857D01*
X131744404Y-88277619D01*
X131696785Y-88230000D01*
X131601547Y-88182380D01*
X131363452Y-88182380D01*
X131220595Y-88230000D01*
X130934880Y-88182380D02*
X130363452Y-88182380D01*
X130649166Y-89182380D02*
X130649166Y-88182380D01*
X130030119Y-89182380D02*
X130030119Y-88182380D01*
X129696785Y-88896666D01*
X129363452Y-88182380D01*
X129363452Y-89182380D01*
X128982500Y-88182380D02*
X128363452Y-88182380D01*
X128696785Y-88563333D01*
X128553928Y-88563333D01*
X128458690Y-88610952D01*
X128411071Y-88658571D01*
X128363452Y-88753809D01*
X128363452Y-88991904D01*
X128411071Y-89087142D01*
X128458690Y-89134761D01*
X128553928Y-89182380D01*
X128839642Y-89182380D01*
X128934880Y-89134761D01*
X128982500Y-89087142D01*
X127982500Y-88277619D02*
X127934880Y-88230000D01*
X127839642Y-88182380D01*
X127601547Y-88182380D01*
X127506309Y-88230000D01*
X127458690Y-88277619D01*
X127411071Y-88372857D01*
X127411071Y-88468095D01*
X127458690Y-88610952D01*
X128030119Y-89182380D01*
X127411071Y-89182380D01*
X126220595Y-89182380D02*
X126220595Y-88182380D01*
X125839642Y-88182380D01*
X125744404Y-88230000D01*
X125696785Y-88277619D01*
X125649166Y-88372857D01*
X125649166Y-88515714D01*
X125696785Y-88610952D01*
X125744404Y-88658571D01*
X125839642Y-88706190D01*
X126220595Y-88706190D01*
X125220595Y-89182380D02*
X125220595Y-88515714D01*
X125220595Y-88706190D02*
X125172976Y-88610952D01*
X125125357Y-88563333D01*
X125030119Y-88515714D01*
X124934880Y-88515714D01*
X124458690Y-89182380D02*
X124553928Y-89134761D01*
X124601547Y-89087142D01*
X124649166Y-88991904D01*
X124649166Y-88706190D01*
X124601547Y-88610952D01*
X124553928Y-88563333D01*
X124458690Y-88515714D01*
X124315833Y-88515714D01*
X124220595Y-88563333D01*
X124172976Y-88610952D01*
X124125357Y-88706190D01*
X124125357Y-88991904D01*
X124172976Y-89087142D01*
X124220595Y-89134761D01*
X124315833Y-89182380D01*
X124458690Y-89182380D01*
X123268214Y-88515714D02*
X123268214Y-89325238D01*
X123315833Y-89420476D01*
X123363452Y-89468095D01*
X123458690Y-89515714D01*
X123601547Y-89515714D01*
X123696785Y-89468095D01*
X123268214Y-89134761D02*
X123363452Y-89182380D01*
X123553928Y-89182380D01*
X123649166Y-89134761D01*
X123696785Y-89087142D01*
X123744404Y-88991904D01*
X123744404Y-88706190D01*
X123696785Y-88610952D01*
X123649166Y-88563333D01*
X123553928Y-88515714D01*
X123363452Y-88515714D01*
X123268214Y-88563333D01*
X122792023Y-89182380D02*
X122792023Y-88515714D01*
X122792023Y-88706190D02*
X122744404Y-88610952D01*
X122696785Y-88563333D01*
X122601547Y-88515714D01*
X122506309Y-88515714D01*
X121744404Y-89182380D02*
X121744404Y-88658571D01*
X121792023Y-88563333D01*
X121887261Y-88515714D01*
X122077738Y-88515714D01*
X122172976Y-88563333D01*
X121744404Y-89134761D02*
X121839642Y-89182380D01*
X122077738Y-89182380D01*
X122172976Y-89134761D01*
X122220595Y-89039523D01*
X122220595Y-88944285D01*
X122172976Y-88849047D01*
X122077738Y-88801428D01*
X121839642Y-88801428D01*
X121744404Y-88753809D01*
X121268214Y-89182380D02*
X121268214Y-88515714D01*
X121268214Y-88610952D02*
X121220595Y-88563333D01*
X121125357Y-88515714D01*
X120982500Y-88515714D01*
X120887261Y-88563333D01*
X120839642Y-88658571D01*
X120839642Y-89182380D01*
X120839642Y-88658571D02*
X120792023Y-88563333D01*
X120696785Y-88515714D01*
X120553928Y-88515714D01*
X120458690Y-88563333D01*
X120411071Y-88658571D01*
X120411071Y-89182380D01*
X119934880Y-89182380D02*
X119934880Y-88515714D01*
X119934880Y-88610952D02*
X119887261Y-88563333D01*
X119792023Y-88515714D01*
X119649166Y-88515714D01*
X119553928Y-88563333D01*
X119506309Y-88658571D01*
X119506309Y-89182380D01*
X119506309Y-88658571D02*
X119458690Y-88563333D01*
X119363452Y-88515714D01*
X119220595Y-88515714D01*
X119125357Y-88563333D01*
X119077738Y-88658571D01*
X119077738Y-89182380D01*
X118220595Y-89134761D02*
X118315833Y-89182380D01*
X118506309Y-89182380D01*
X118601547Y-89134761D01*
X118649166Y-89039523D01*
X118649166Y-88658571D01*
X118601547Y-88563333D01*
X118506309Y-88515714D01*
X118315833Y-88515714D01*
X118220595Y-88563333D01*
X118172976Y-88658571D01*
X118172976Y-88753809D01*
X118649166Y-88849047D01*
X117744404Y-89182380D02*
X117744404Y-88515714D01*
X117744404Y-88706190D02*
X117696785Y-88610952D01*
X117649166Y-88563333D01*
X117553928Y-88515714D01*
X117458690Y-88515714D01*
X131744404Y-90792380D02*
X131744404Y-90125714D01*
X131744404Y-90316190D02*
X131696785Y-90220952D01*
X131649166Y-90173333D01*
X131553928Y-90125714D01*
X131458690Y-90125714D01*
X130744404Y-90744761D02*
X130839642Y-90792380D01*
X131030119Y-90792380D01*
X131125357Y-90744761D01*
X131172976Y-90649523D01*
X131172976Y-90268571D01*
X131125357Y-90173333D01*
X131030119Y-90125714D01*
X130839642Y-90125714D01*
X130744404Y-90173333D01*
X130696785Y-90268571D01*
X130696785Y-90363809D01*
X131172976Y-90459047D01*
X130363452Y-90125714D02*
X130125357Y-90792380D01*
X129887261Y-90125714D01*
X129506309Y-90697142D02*
X129458690Y-90744761D01*
X129506309Y-90792380D01*
X129553928Y-90744761D01*
X129506309Y-90697142D01*
X129506309Y-90792380D01*
X127839642Y-90792380D02*
X127839642Y-89792380D01*
X127839642Y-90744761D02*
X127934880Y-90792380D01*
X128125357Y-90792380D01*
X128220595Y-90744761D01*
X128268214Y-90697142D01*
X128315833Y-90601904D01*
X128315833Y-90316190D01*
X128268214Y-90220952D01*
X128220595Y-90173333D01*
X128125357Y-90125714D01*
X127934880Y-90125714D01*
X127839642Y-90173333D01*
X129361904Y-84615976D02*
X128561904Y-84615976D01*
X128561904Y-84806452D01*
X128600000Y-84920738D01*
X128676190Y-84996928D01*
X128752380Y-85035023D01*
X128904761Y-85073119D01*
X129019047Y-85073119D01*
X129171428Y-85035023D01*
X129247619Y-84996928D01*
X129323809Y-84920738D01*
X129361904Y-84806452D01*
X129361904Y-84615976D01*
X129361904Y-85415976D02*
X128561904Y-85415976D01*
X128561904Y-85949309D02*
X128561904Y-86101690D01*
X128600000Y-86177880D01*
X128676190Y-86254071D01*
X128828571Y-86292166D01*
X129095238Y-86292166D01*
X129247619Y-86254071D01*
X129323809Y-86177880D01*
X129361904Y-86101690D01*
X129361904Y-85949309D01*
X129323809Y-85873119D01*
X129247619Y-85796928D01*
X129095238Y-85758833D01*
X128828571Y-85758833D01*
X128676190Y-85796928D01*
X128600000Y-85873119D01*
X128561904Y-85949309D01*
X131733452Y-98811904D02*
X131733452Y-99383333D01*
X131771547Y-99497619D01*
X131847738Y-99573809D01*
X131962023Y-99611904D01*
X132038214Y-99611904D01*
X130971547Y-99611904D02*
X131352500Y-99611904D01*
X131352500Y-98811904D01*
X130247738Y-99535714D02*
X130285833Y-99573809D01*
X130400119Y-99611904D01*
X130476309Y-99611904D01*
X130590595Y-99573809D01*
X130666785Y-99497619D01*
X130704880Y-99421428D01*
X130742976Y-99269047D01*
X130742976Y-99154761D01*
X130704880Y-99002380D01*
X130666785Y-98926190D01*
X130590595Y-98850000D01*
X130476309Y-98811904D01*
X130400119Y-98811904D01*
X130285833Y-98850000D01*
X130247738Y-98888095D01*
X129676309Y-98811904D02*
X129676309Y-99383333D01*
X129714404Y-99497619D01*
X129790595Y-99573809D01*
X129904880Y-99611904D01*
X129981071Y-99611904D01*
X128914404Y-99611904D02*
X129295357Y-99611904D01*
X129295357Y-98811904D01*
X128190595Y-99535714D02*
X128228690Y-99573809D01*
X128342976Y-99611904D01*
X128419166Y-99611904D01*
X128533452Y-99573809D01*
X128609642Y-99497619D01*
X128647738Y-99421428D01*
X128685833Y-99269047D01*
X128685833Y-99154761D01*
X128647738Y-99002380D01*
X128609642Y-98926190D01*
X128533452Y-98850000D01*
X128419166Y-98811904D01*
X128342976Y-98811904D01*
X128228690Y-98850000D01*
X128190595Y-98888095D01*
X127619166Y-98811904D02*
X127619166Y-99383333D01*
X127657261Y-99497619D01*
X127733452Y-99573809D01*
X127847738Y-99611904D01*
X127923928Y-99611904D01*
X126857261Y-99611904D02*
X127238214Y-99611904D01*
X127238214Y-98811904D01*
X126133452Y-99535714D02*
X126171547Y-99573809D01*
X126285833Y-99611904D01*
X126362023Y-99611904D01*
X126476309Y-99573809D01*
X126552500Y-99497619D01*
X126590595Y-99421428D01*
X126628690Y-99269047D01*
X126628690Y-99154761D01*
X126590595Y-99002380D01*
X126552500Y-98926190D01*
X126476309Y-98850000D01*
X126362023Y-98811904D01*
X126285833Y-98811904D01*
X126171547Y-98850000D01*
X126133452Y-98888095D01*
X125562023Y-98811904D02*
X125562023Y-99383333D01*
X125600119Y-99497619D01*
X125676309Y-99573809D01*
X125790595Y-99611904D01*
X125866785Y-99611904D01*
X124800119Y-99611904D02*
X125181071Y-99611904D01*
X125181071Y-98811904D01*
X124076309Y-99535714D02*
X124114404Y-99573809D01*
X124228690Y-99611904D01*
X124304880Y-99611904D01*
X124419166Y-99573809D01*
X124495357Y-99497619D01*
X124533452Y-99421428D01*
X124571547Y-99269047D01*
X124571547Y-99154761D01*
X124533452Y-99002380D01*
X124495357Y-98926190D01*
X124419166Y-98850000D01*
X124304880Y-98811904D01*
X124228690Y-98811904D01*
X124114404Y-98850000D01*
X124076309Y-98888095D01*
X116416309Y-84397904D02*
X116797261Y-84397904D01*
X116835357Y-84778857D01*
X116797261Y-84740761D01*
X116721071Y-84702666D01*
X116530595Y-84702666D01*
X116454404Y-84740761D01*
X116416309Y-84778857D01*
X116378214Y-84855047D01*
X116378214Y-85045523D01*
X116416309Y-85121714D01*
X116454404Y-85159809D01*
X116530595Y-85197904D01*
X116721071Y-85197904D01*
X116797261Y-85159809D01*
X116835357Y-85121714D01*
X116149642Y-84397904D02*
X115882976Y-85197904D01*
X115616309Y-84397904D01*
X114778214Y-84359809D02*
X115463928Y-85388380D01*
X114587738Y-84397904D02*
X114092500Y-84397904D01*
X114359166Y-84702666D01*
X114244880Y-84702666D01*
X114168690Y-84740761D01*
X114130595Y-84778857D01*
X114092500Y-84855047D01*
X114092500Y-85045523D01*
X114130595Y-85121714D01*
X114168690Y-85159809D01*
X114244880Y-85197904D01*
X114473452Y-85197904D01*
X114549642Y-85159809D01*
X114587738Y-85121714D01*
X113863928Y-84397904D02*
X113597261Y-85197904D01*
X113330595Y-84397904D01*
X113140119Y-84397904D02*
X112644880Y-84397904D01*
X112911547Y-84702666D01*
X112797261Y-84702666D01*
X112721071Y-84740761D01*
X112682976Y-84778857D01*
X112644880Y-84855047D01*
X112644880Y-85045523D01*
X112682976Y-85121714D01*
X112721071Y-85159809D01*
X112797261Y-85197904D01*
X113025833Y-85197904D01*
X113102023Y-85159809D01*
X113140119Y-85121714D01*
X130625904Y-84539785D02*
X130625904Y-85035023D01*
X130930666Y-84768357D01*
X130930666Y-84882642D01*
X130968761Y-84958833D01*
X131006857Y-84996928D01*
X131083047Y-85035023D01*
X131273523Y-85035023D01*
X131349714Y-84996928D01*
X131387809Y-84958833D01*
X131425904Y-84882642D01*
X131425904Y-84654071D01*
X131387809Y-84577880D01*
X131349714Y-84539785D01*
X130625904Y-85263595D02*
X131425904Y-85530261D01*
X130625904Y-85796928D01*
X130625904Y-85987404D02*
X130625904Y-86482642D01*
X130930666Y-86215976D01*
X130930666Y-86330261D01*
X130968761Y-86406452D01*
X131006857Y-86444547D01*
X131083047Y-86482642D01*
X131273523Y-86482642D01*
X131349714Y-86444547D01*
X131387809Y-86406452D01*
X131425904Y-86330261D01*
X131425904Y-86101690D01*
X131387809Y-86025500D01*
X131349714Y-85987404D01*
D11*
G04 #@! TO.C,TP3*
X127700000Y-83500000D02*
G75*
G03*
X127700000Y-83500000I-700000J0D01*
G01*
G04 #@! TO.C,TP1*
X131764000Y-83500000D02*
G75*
G03*
X131764000Y-83500000I-700000J0D01*
G01*
G04 #@! TO.C,TP4*
X125668000Y-83500000D02*
G75*
G03*
X125668000Y-83500000I-700000J0D01*
G01*
G04 #@! TO.C,TP5*
X123636000Y-83500000D02*
G75*
G03*
X123636000Y-83500000I-700000J0D01*
G01*
G04 #@! TO.C,TP2*
X129700000Y-83500000D02*
G75*
G03*
X129700000Y-83500000I-700000J0D01*
G01*
G04 #@! TO.C,JP1*
X120400000Y-95750000D02*
X124500000Y-95750000D01*
X121150000Y-93550000D02*
X120850000Y-93250000D01*
X120850000Y-93250000D02*
X121450000Y-93250000D01*
X124500000Y-95750000D02*
X124500000Y-93750000D01*
X121150000Y-93550000D02*
X121450000Y-93250000D01*
X124500000Y-93750000D02*
X120400000Y-93750000D01*
X120400000Y-93750000D02*
X120400000Y-95750000D01*
G04 #@! TD*
M02*
