%TF.GenerationSoftware,KiCad,Pcbnew,9.0.4+dfsg-1*%
%TF.CreationDate,2025-09-17T04:26:07+08:00*%
%TF.ProjectId,cover,636f7665-722e-46b6-9963-61645f706362,a*%
%TF.SameCoordinates,Original*%
%TF.FileFunction,Legend,Top*%
%TF.FilePolarity,Positive*%
%FSLAX45Y45*%
G04 Gerber Fmt 4.5, Leading zero omitted, Abs format (unit mm)*
G04 Created by KiCad (PCBNEW 9.0.4+dfsg-1) date 2025-09-17 04:26:07*
%MOMM*%
%LPD*%
G01*
G04 APERTURE LIST*
%ADD10C,0.120000*%
%ADD11C,0.150000*%
G04 APERTURE END LIST*
D10*
X14579600Y-10033000D02*
X14224000Y-10033000D01*
X14579600Y-7747000D02*
X14579600Y-10033000D01*
X14224000Y-7747000D02*
X14579600Y-7747000D01*
X12979400Y-10033000D02*
X14224000Y-10033000D01*
X12979400Y-7747000D02*
X14224000Y-7747000D01*
X12979400Y-7747000D02*
X12979400Y-10033000D01*
D11*
X10823916Y-7465220D02*
X10838202Y-7469982D01*
X10838202Y-7469982D02*
X10862011Y-7469982D01*
X10862011Y-7469982D02*
X10871535Y-7465220D01*
X10871535Y-7465220D02*
X10876297Y-7460458D01*
X10876297Y-7460458D02*
X10881059Y-7450934D01*
X10881059Y-7450934D02*
X10881059Y-7441410D01*
X10881059Y-7441410D02*
X10876297Y-7431887D01*
X10876297Y-7431887D02*
X10871535Y-7427125D01*
X10871535Y-7427125D02*
X10862011Y-7422363D01*
X10862011Y-7422363D02*
X10842964Y-7417601D01*
X10842964Y-7417601D02*
X10833440Y-7412839D01*
X10833440Y-7412839D02*
X10828678Y-7408077D01*
X10828678Y-7408077D02*
X10823916Y-7398553D01*
X10823916Y-7398553D02*
X10823916Y-7389029D01*
X10823916Y-7389029D02*
X10828678Y-7379506D01*
X10828678Y-7379506D02*
X10833440Y-7374744D01*
X10833440Y-7374744D02*
X10842964Y-7369982D01*
X10842964Y-7369982D02*
X10866773Y-7369982D01*
X10866773Y-7369982D02*
X10881059Y-7374744D01*
X10909630Y-7369982D02*
X10966773Y-7369982D01*
X10938202Y-7469982D02*
X10938202Y-7369982D01*
X11000107Y-7469982D02*
X11000107Y-7369982D01*
X11000107Y-7369982D02*
X11033440Y-7441410D01*
X11033440Y-7441410D02*
X11066773Y-7369982D01*
X11066773Y-7369982D02*
X11066773Y-7469982D01*
X11104868Y-7369982D02*
X11166773Y-7369982D01*
X11166773Y-7369982D02*
X11133440Y-7408077D01*
X11133440Y-7408077D02*
X11147726Y-7408077D01*
X11147726Y-7408077D02*
X11157249Y-7412839D01*
X11157249Y-7412839D02*
X11162011Y-7417601D01*
X11162011Y-7417601D02*
X11166773Y-7427125D01*
X11166773Y-7427125D02*
X11166773Y-7450934D01*
X11166773Y-7450934D02*
X11162011Y-7460458D01*
X11162011Y-7460458D02*
X11157249Y-7465220D01*
X11157249Y-7465220D02*
X11147726Y-7469982D01*
X11147726Y-7469982D02*
X11119154Y-7469982D01*
X11119154Y-7469982D02*
X11109630Y-7465220D01*
X11109630Y-7465220D02*
X11104868Y-7460458D01*
X11204868Y-7379506D02*
X11209630Y-7374744D01*
X11209630Y-7374744D02*
X11219154Y-7369982D01*
X11219154Y-7369982D02*
X11242964Y-7369982D01*
X11242964Y-7369982D02*
X11252487Y-7374744D01*
X11252487Y-7374744D02*
X11257249Y-7379506D01*
X11257249Y-7379506D02*
X11262011Y-7389029D01*
X11262011Y-7389029D02*
X11262011Y-7398553D01*
X11262011Y-7398553D02*
X11257249Y-7412839D01*
X11257249Y-7412839D02*
X11200106Y-7469982D01*
X11200106Y-7469982D02*
X11262011Y-7469982D01*
X11381059Y-7469982D02*
X11381059Y-7369982D01*
X11381059Y-7369982D02*
X11419154Y-7369982D01*
X11419154Y-7369982D02*
X11428678Y-7374744D01*
X11428678Y-7374744D02*
X11433440Y-7379506D01*
X11433440Y-7379506D02*
X11438202Y-7389029D01*
X11438202Y-7389029D02*
X11438202Y-7403315D01*
X11438202Y-7403315D02*
X11433440Y-7412839D01*
X11433440Y-7412839D02*
X11428678Y-7417601D01*
X11428678Y-7417601D02*
X11419154Y-7422363D01*
X11419154Y-7422363D02*
X11381059Y-7422363D01*
X11481059Y-7469982D02*
X11481059Y-7403315D01*
X11481059Y-7422363D02*
X11485821Y-7412839D01*
X11485821Y-7412839D02*
X11490583Y-7408077D01*
X11490583Y-7408077D02*
X11500106Y-7403315D01*
X11500106Y-7403315D02*
X11509630Y-7403315D01*
X11557249Y-7469982D02*
X11547726Y-7465220D01*
X11547726Y-7465220D02*
X11542964Y-7460458D01*
X11542964Y-7460458D02*
X11538202Y-7450934D01*
X11538202Y-7450934D02*
X11538202Y-7422363D01*
X11538202Y-7422363D02*
X11542964Y-7412839D01*
X11542964Y-7412839D02*
X11547726Y-7408077D01*
X11547726Y-7408077D02*
X11557249Y-7403315D01*
X11557249Y-7403315D02*
X11571535Y-7403315D01*
X11571535Y-7403315D02*
X11581059Y-7408077D01*
X11581059Y-7408077D02*
X11585821Y-7412839D01*
X11585821Y-7412839D02*
X11590583Y-7422363D01*
X11590583Y-7422363D02*
X11590583Y-7450934D01*
X11590583Y-7450934D02*
X11585821Y-7460458D01*
X11585821Y-7460458D02*
X11581059Y-7465220D01*
X11581059Y-7465220D02*
X11571535Y-7469982D01*
X11571535Y-7469982D02*
X11557249Y-7469982D01*
X11676297Y-7403315D02*
X11676297Y-7484268D01*
X11676297Y-7484268D02*
X11671535Y-7493791D01*
X11671535Y-7493791D02*
X11666773Y-7498553D01*
X11666773Y-7498553D02*
X11657249Y-7503315D01*
X11657249Y-7503315D02*
X11642964Y-7503315D01*
X11642964Y-7503315D02*
X11633440Y-7498553D01*
X11676297Y-7465220D02*
X11666773Y-7469982D01*
X11666773Y-7469982D02*
X11647726Y-7469982D01*
X11647726Y-7469982D02*
X11638202Y-7465220D01*
X11638202Y-7465220D02*
X11633440Y-7460458D01*
X11633440Y-7460458D02*
X11628678Y-7450934D01*
X11628678Y-7450934D02*
X11628678Y-7422363D01*
X11628678Y-7422363D02*
X11633440Y-7412839D01*
X11633440Y-7412839D02*
X11638202Y-7408077D01*
X11638202Y-7408077D02*
X11647726Y-7403315D01*
X11647726Y-7403315D02*
X11666773Y-7403315D01*
X11666773Y-7403315D02*
X11676297Y-7408077D01*
X11723916Y-7469982D02*
X11723916Y-7403315D01*
X11723916Y-7422363D02*
X11728678Y-7412839D01*
X11728678Y-7412839D02*
X11733440Y-7408077D01*
X11733440Y-7408077D02*
X11742964Y-7403315D01*
X11742964Y-7403315D02*
X11752487Y-7403315D01*
X11828678Y-7469982D02*
X11828678Y-7417601D01*
X11828678Y-7417601D02*
X11823916Y-7408077D01*
X11823916Y-7408077D02*
X11814392Y-7403315D01*
X11814392Y-7403315D02*
X11795345Y-7403315D01*
X11795345Y-7403315D02*
X11785821Y-7408077D01*
X11828678Y-7465220D02*
X11819154Y-7469982D01*
X11819154Y-7469982D02*
X11795345Y-7469982D01*
X11795345Y-7469982D02*
X11785821Y-7465220D01*
X11785821Y-7465220D02*
X11781059Y-7455696D01*
X11781059Y-7455696D02*
X11781059Y-7446172D01*
X11781059Y-7446172D02*
X11785821Y-7436648D01*
X11785821Y-7436648D02*
X11795345Y-7431887D01*
X11795345Y-7431887D02*
X11819154Y-7431887D01*
X11819154Y-7431887D02*
X11828678Y-7427125D01*
X11876297Y-7469982D02*
X11876297Y-7403315D01*
X11876297Y-7412839D02*
X11881059Y-7408077D01*
X11881059Y-7408077D02*
X11890583Y-7403315D01*
X11890583Y-7403315D02*
X11904868Y-7403315D01*
X11904868Y-7403315D02*
X11914392Y-7408077D01*
X11914392Y-7408077D02*
X11919154Y-7417601D01*
X11919154Y-7417601D02*
X11919154Y-7469982D01*
X11919154Y-7417601D02*
X11923916Y-7408077D01*
X11923916Y-7408077D02*
X11933440Y-7403315D01*
X11933440Y-7403315D02*
X11947726Y-7403315D01*
X11947726Y-7403315D02*
X11957249Y-7408077D01*
X11957249Y-7408077D02*
X11962011Y-7417601D01*
X11962011Y-7417601D02*
X11962011Y-7469982D01*
X12009630Y-7469982D02*
X12009630Y-7403315D01*
X12009630Y-7412839D02*
X12014392Y-7408077D01*
X12014392Y-7408077D02*
X12023916Y-7403315D01*
X12023916Y-7403315D02*
X12038202Y-7403315D01*
X12038202Y-7403315D02*
X12047726Y-7408077D01*
X12047726Y-7408077D02*
X12052487Y-7417601D01*
X12052487Y-7417601D02*
X12052487Y-7469982D01*
X12052487Y-7417601D02*
X12057249Y-7408077D01*
X12057249Y-7408077D02*
X12066773Y-7403315D01*
X12066773Y-7403315D02*
X12081059Y-7403315D01*
X12081059Y-7403315D02*
X12090583Y-7408077D01*
X12090583Y-7408077D02*
X12095345Y-7417601D01*
X12095345Y-7417601D02*
X12095345Y-7469982D01*
X12181059Y-7465220D02*
X12171535Y-7469982D01*
X12171535Y-7469982D02*
X12152487Y-7469982D01*
X12152487Y-7469982D02*
X12142964Y-7465220D01*
X12142964Y-7465220D02*
X12138202Y-7455696D01*
X12138202Y-7455696D02*
X12138202Y-7417601D01*
X12138202Y-7417601D02*
X12142964Y-7408077D01*
X12142964Y-7408077D02*
X12152487Y-7403315D01*
X12152487Y-7403315D02*
X12171535Y-7403315D01*
X12171535Y-7403315D02*
X12181059Y-7408077D01*
X12181059Y-7408077D02*
X12185821Y-7417601D01*
X12185821Y-7417601D02*
X12185821Y-7427125D01*
X12185821Y-7427125D02*
X12138202Y-7436648D01*
X12228678Y-7469982D02*
X12228678Y-7403315D01*
X12228678Y-7422363D02*
X12233440Y-7412839D01*
X12233440Y-7412839D02*
X12238202Y-7408077D01*
X12238202Y-7408077D02*
X12247726Y-7403315D01*
X12247726Y-7403315D02*
X12257249Y-7403315D01*
X12362011Y-7379506D02*
X12366773Y-7374744D01*
X12366773Y-7374744D02*
X12376297Y-7369982D01*
X12376297Y-7369982D02*
X12400107Y-7369982D01*
X12400107Y-7369982D02*
X12409630Y-7374744D01*
X12409630Y-7374744D02*
X12414392Y-7379506D01*
X12414392Y-7379506D02*
X12419154Y-7389029D01*
X12419154Y-7389029D02*
X12419154Y-7398553D01*
X12419154Y-7398553D02*
X12414392Y-7412839D01*
X12414392Y-7412839D02*
X12357249Y-7469982D01*
X12357249Y-7469982D02*
X12419154Y-7469982D01*
X13101632Y-8918610D02*
X13097822Y-8922420D01*
X13097822Y-8922420D02*
X13086393Y-8926230D01*
X13086393Y-8926230D02*
X13078774Y-8926230D01*
X13078774Y-8926230D02*
X13067346Y-8922420D01*
X13067346Y-8922420D02*
X13059727Y-8914801D01*
X13059727Y-8914801D02*
X13055917Y-8907182D01*
X13055917Y-8907182D02*
X13052108Y-8891944D01*
X13052108Y-8891944D02*
X13052108Y-8880515D01*
X13052108Y-8880515D02*
X13055917Y-8865277D01*
X13055917Y-8865277D02*
X13059727Y-8857658D01*
X13059727Y-8857658D02*
X13067346Y-8850039D01*
X13067346Y-8850039D02*
X13078774Y-8846230D01*
X13078774Y-8846230D02*
X13086393Y-8846230D01*
X13086393Y-8846230D02*
X13097822Y-8850039D01*
X13097822Y-8850039D02*
X13101632Y-8853849D01*
X13174012Y-8926230D02*
X13135917Y-8926230D01*
X13135917Y-8926230D02*
X13135917Y-8846230D01*
X13200679Y-8926230D02*
X13200679Y-8846230D01*
X13246393Y-8926230D02*
X13212108Y-8880515D01*
X13246393Y-8846230D02*
X13200679Y-8891944D01*
X13025441Y-9176420D02*
X13036870Y-9180230D01*
X13036870Y-9180230D02*
X13055917Y-9180230D01*
X13055917Y-9180230D02*
X13063536Y-9176420D01*
X13063536Y-9176420D02*
X13067346Y-9172610D01*
X13067346Y-9172610D02*
X13071155Y-9164991D01*
X13071155Y-9164991D02*
X13071155Y-9157372D01*
X13071155Y-9157372D02*
X13067346Y-9149753D01*
X13067346Y-9149753D02*
X13063536Y-9145944D01*
X13063536Y-9145944D02*
X13055917Y-9142134D01*
X13055917Y-9142134D02*
X13040679Y-9138325D01*
X13040679Y-9138325D02*
X13033060Y-9134515D01*
X13033060Y-9134515D02*
X13029251Y-9130706D01*
X13029251Y-9130706D02*
X13025441Y-9123087D01*
X13025441Y-9123087D02*
X13025441Y-9115468D01*
X13025441Y-9115468D02*
X13029251Y-9107849D01*
X13029251Y-9107849D02*
X13033060Y-9104039D01*
X13033060Y-9104039D02*
X13040679Y-9100230D01*
X13040679Y-9100230D02*
X13059727Y-9100230D01*
X13059727Y-9100230D02*
X13071155Y-9104039D01*
X13097822Y-9100230D02*
X13116870Y-9180230D01*
X13116870Y-9180230D02*
X13132108Y-9123087D01*
X13132108Y-9123087D02*
X13147346Y-9180230D01*
X13147346Y-9180230D02*
X13166393Y-9100230D01*
X13212108Y-9100230D02*
X13227346Y-9100230D01*
X13227346Y-9100230D02*
X13234965Y-9104039D01*
X13234965Y-9104039D02*
X13242584Y-9111658D01*
X13242584Y-9111658D02*
X13246393Y-9126896D01*
X13246393Y-9126896D02*
X13246393Y-9153563D01*
X13246393Y-9153563D02*
X13242584Y-9168801D01*
X13242584Y-9168801D02*
X13234965Y-9176420D01*
X13234965Y-9176420D02*
X13227346Y-9180230D01*
X13227346Y-9180230D02*
X13212108Y-9180230D01*
X13212108Y-9180230D02*
X13204489Y-9176420D01*
X13204489Y-9176420D02*
X13196870Y-9168801D01*
X13196870Y-9168801D02*
X13193060Y-9153563D01*
X13193060Y-9153563D02*
X13193060Y-9126896D01*
X13193060Y-9126896D02*
X13196870Y-9111658D01*
X13196870Y-9111658D02*
X13204489Y-9104039D01*
X13204489Y-9104039D02*
X13212108Y-9100230D01*
X13174012Y-8338229D02*
X13135917Y-8338229D01*
X13135917Y-8338229D02*
X13132108Y-8376325D01*
X13132108Y-8376325D02*
X13135917Y-8372515D01*
X13135917Y-8372515D02*
X13143536Y-8368706D01*
X13143536Y-8368706D02*
X13162584Y-8368706D01*
X13162584Y-8368706D02*
X13170203Y-8372515D01*
X13170203Y-8372515D02*
X13174012Y-8376325D01*
X13174012Y-8376325D02*
X13177822Y-8383944D01*
X13177822Y-8383944D02*
X13177822Y-8402991D01*
X13177822Y-8402991D02*
X13174012Y-8410610D01*
X13174012Y-8410610D02*
X13170203Y-8414420D01*
X13170203Y-8414420D02*
X13162584Y-8418230D01*
X13162584Y-8418230D02*
X13143536Y-8418230D01*
X13143536Y-8418230D02*
X13135917Y-8414420D01*
X13135917Y-8414420D02*
X13132108Y-8410610D01*
X13200679Y-8338229D02*
X13227346Y-8418230D01*
X13227346Y-8418230D02*
X13254012Y-8338229D01*
X14349430Y-9434230D02*
X14322764Y-9396134D01*
X14303716Y-9434230D02*
X14303716Y-9354230D01*
X14303716Y-9354230D02*
X14334192Y-9354230D01*
X14334192Y-9354230D02*
X14341811Y-9358039D01*
X14341811Y-9358039D02*
X14345621Y-9361849D01*
X14345621Y-9361849D02*
X14349430Y-9369468D01*
X14349430Y-9369468D02*
X14349430Y-9380896D01*
X14349430Y-9380896D02*
X14345621Y-9388515D01*
X14345621Y-9388515D02*
X14341811Y-9392325D01*
X14341811Y-9392325D02*
X14334192Y-9396134D01*
X14334192Y-9396134D02*
X14303716Y-9396134D01*
X14376097Y-9354230D02*
X14429430Y-9434230D01*
X14429430Y-9354230D02*
X14376097Y-9434230D01*
X14349430Y-9180230D02*
X14322764Y-9142134D01*
X14303716Y-9180230D02*
X14303716Y-9100230D01*
X14303716Y-9100230D02*
X14334192Y-9100230D01*
X14334192Y-9100230D02*
X14341811Y-9104039D01*
X14341811Y-9104039D02*
X14345621Y-9107849D01*
X14345621Y-9107849D02*
X14349430Y-9115468D01*
X14349430Y-9115468D02*
X14349430Y-9126896D01*
X14349430Y-9126896D02*
X14345621Y-9134515D01*
X14345621Y-9134515D02*
X14341811Y-9138325D01*
X14341811Y-9138325D02*
X14334192Y-9142134D01*
X14334192Y-9142134D02*
X14303716Y-9142134D01*
X14379906Y-9176420D02*
X14391335Y-9180230D01*
X14391335Y-9180230D02*
X14410383Y-9180230D01*
X14410383Y-9180230D02*
X14418002Y-9176420D01*
X14418002Y-9176420D02*
X14421811Y-9172610D01*
X14421811Y-9172610D02*
X14425621Y-9164991D01*
X14425621Y-9164991D02*
X14425621Y-9157372D01*
X14425621Y-9157372D02*
X14421811Y-9149753D01*
X14421811Y-9149753D02*
X14418002Y-9145944D01*
X14418002Y-9145944D02*
X14410383Y-9142134D01*
X14410383Y-9142134D02*
X14395144Y-9138325D01*
X14395144Y-9138325D02*
X14387525Y-9134515D01*
X14387525Y-9134515D02*
X14383716Y-9130706D01*
X14383716Y-9130706D02*
X14379906Y-9123087D01*
X14379906Y-9123087D02*
X14379906Y-9115468D01*
X14379906Y-9115468D02*
X14383716Y-9107849D01*
X14383716Y-9107849D02*
X14387525Y-9104039D01*
X14387525Y-9104039D02*
X14395144Y-9100230D01*
X14395144Y-9100230D02*
X14414192Y-9100230D01*
X14414192Y-9100230D02*
X14425621Y-9104039D01*
X14448478Y-9100230D02*
X14494192Y-9100230D01*
X14471335Y-9180230D02*
X14471335Y-9100230D01*
X12885420Y-9025714D02*
X12890182Y-9011429D01*
X12890182Y-9011429D02*
X12890182Y-8987619D01*
X12890182Y-8987619D02*
X12885420Y-8978095D01*
X12885420Y-8978095D02*
X12880658Y-8973333D01*
X12880658Y-8973333D02*
X12871134Y-8968571D01*
X12871134Y-8968571D02*
X12861610Y-8968571D01*
X12861610Y-8968571D02*
X12852087Y-8973333D01*
X12852087Y-8973333D02*
X12847325Y-8978095D01*
X12847325Y-8978095D02*
X12842563Y-8987619D01*
X12842563Y-8987619D02*
X12837801Y-9006667D01*
X12837801Y-9006667D02*
X12833039Y-9016190D01*
X12833039Y-9016190D02*
X12828277Y-9020952D01*
X12828277Y-9020952D02*
X12818753Y-9025714D01*
X12818753Y-9025714D02*
X12809229Y-9025714D01*
X12809229Y-9025714D02*
X12799706Y-9020952D01*
X12799706Y-9020952D02*
X12794944Y-9016190D01*
X12794944Y-9016190D02*
X12790182Y-9006667D01*
X12790182Y-9006667D02*
X12790182Y-8982857D01*
X12790182Y-8982857D02*
X12794944Y-8968571D01*
X12790182Y-8935238D02*
X12890182Y-8911429D01*
X12890182Y-8911429D02*
X12818753Y-8892381D01*
X12818753Y-8892381D02*
X12890182Y-8873333D01*
X12890182Y-8873333D02*
X12790182Y-8849524D01*
X12890182Y-8811429D02*
X12790182Y-8811429D01*
X12790182Y-8811429D02*
X12790182Y-8787619D01*
X12790182Y-8787619D02*
X12794944Y-8773333D01*
X12794944Y-8773333D02*
X12804468Y-8763810D01*
X12804468Y-8763810D02*
X12813991Y-8759048D01*
X12813991Y-8759048D02*
X12833039Y-8754286D01*
X12833039Y-8754286D02*
X12847325Y-8754286D01*
X12847325Y-8754286D02*
X12866372Y-8759048D01*
X12866372Y-8759048D02*
X12875896Y-8763810D01*
X12875896Y-8763810D02*
X12885420Y-8773333D01*
X12885420Y-8773333D02*
X12890182Y-8787619D01*
X12890182Y-8787619D02*
X12890182Y-8811429D01*
X10823916Y-10310506D02*
X10828678Y-10305744D01*
X10828678Y-10305744D02*
X10838202Y-10300982D01*
X10838202Y-10300982D02*
X10862011Y-10300982D01*
X10862011Y-10300982D02*
X10871535Y-10305744D01*
X10871535Y-10305744D02*
X10876297Y-10310506D01*
X10876297Y-10310506D02*
X10881059Y-10320030D01*
X10881059Y-10320030D02*
X10881059Y-10329553D01*
X10881059Y-10329553D02*
X10876297Y-10343839D01*
X10876297Y-10343839D02*
X10819154Y-10400982D01*
X10819154Y-10400982D02*
X10881059Y-10400982D01*
X10942964Y-10300982D02*
X10952487Y-10300982D01*
X10952487Y-10300982D02*
X10962011Y-10305744D01*
X10962011Y-10305744D02*
X10966773Y-10310506D01*
X10966773Y-10310506D02*
X10971535Y-10320030D01*
X10971535Y-10320030D02*
X10976297Y-10339077D01*
X10976297Y-10339077D02*
X10976297Y-10362887D01*
X10976297Y-10362887D02*
X10971535Y-10381934D01*
X10971535Y-10381934D02*
X10966773Y-10391458D01*
X10966773Y-10391458D02*
X10962011Y-10396220D01*
X10962011Y-10396220D02*
X10952487Y-10400982D01*
X10952487Y-10400982D02*
X10942964Y-10400982D01*
X10942964Y-10400982D02*
X10933440Y-10396220D01*
X10933440Y-10396220D02*
X10928678Y-10391458D01*
X10928678Y-10391458D02*
X10923916Y-10381934D01*
X10923916Y-10381934D02*
X10919154Y-10362887D01*
X10919154Y-10362887D02*
X10919154Y-10339077D01*
X10919154Y-10339077D02*
X10923916Y-10320030D01*
X10923916Y-10320030D02*
X10928678Y-10310506D01*
X10928678Y-10310506D02*
X10933440Y-10305744D01*
X10933440Y-10305744D02*
X10942964Y-10300982D01*
X11014392Y-10310506D02*
X11019154Y-10305744D01*
X11019154Y-10305744D02*
X11028678Y-10300982D01*
X11028678Y-10300982D02*
X11052487Y-10300982D01*
X11052487Y-10300982D02*
X11062011Y-10305744D01*
X11062011Y-10305744D02*
X11066773Y-10310506D01*
X11066773Y-10310506D02*
X11071535Y-10320030D01*
X11071535Y-10320030D02*
X11071535Y-10329553D01*
X11071535Y-10329553D02*
X11066773Y-10343839D01*
X11066773Y-10343839D02*
X11009630Y-10400982D01*
X11009630Y-10400982D02*
X11071535Y-10400982D01*
X11162011Y-10300982D02*
X11114392Y-10300982D01*
X11114392Y-10300982D02*
X11109630Y-10348601D01*
X11109630Y-10348601D02*
X11114392Y-10343839D01*
X11114392Y-10343839D02*
X11123916Y-10339077D01*
X11123916Y-10339077D02*
X11147726Y-10339077D01*
X11147726Y-10339077D02*
X11157249Y-10343839D01*
X11157249Y-10343839D02*
X11162011Y-10348601D01*
X11162011Y-10348601D02*
X11166773Y-10358125D01*
X11166773Y-10358125D02*
X11166773Y-10381934D01*
X11166773Y-10381934D02*
X11162011Y-10391458D01*
X11162011Y-10391458D02*
X11157249Y-10396220D01*
X11157249Y-10396220D02*
X11147726Y-10400982D01*
X11147726Y-10400982D02*
X11123916Y-10400982D01*
X11123916Y-10400982D02*
X11114392Y-10396220D01*
X11114392Y-10396220D02*
X11109630Y-10391458D01*
X11281059Y-10396220D02*
X11295345Y-10400982D01*
X11295345Y-10400982D02*
X11319154Y-10400982D01*
X11319154Y-10400982D02*
X11328678Y-10396220D01*
X11328678Y-10396220D02*
X11333440Y-10391458D01*
X11333440Y-10391458D02*
X11338202Y-10381934D01*
X11338202Y-10381934D02*
X11338202Y-10372410D01*
X11338202Y-10372410D02*
X11333440Y-10362887D01*
X11333440Y-10362887D02*
X11328678Y-10358125D01*
X11328678Y-10358125D02*
X11319154Y-10353363D01*
X11319154Y-10353363D02*
X11300106Y-10348601D01*
X11300106Y-10348601D02*
X11290583Y-10343839D01*
X11290583Y-10343839D02*
X11285821Y-10339077D01*
X11285821Y-10339077D02*
X11281059Y-10329553D01*
X11281059Y-10329553D02*
X11281059Y-10320030D01*
X11281059Y-10320030D02*
X11285821Y-10310506D01*
X11285821Y-10310506D02*
X11290583Y-10305744D01*
X11290583Y-10305744D02*
X11300106Y-10300982D01*
X11300106Y-10300982D02*
X11323916Y-10300982D01*
X11323916Y-10300982D02*
X11338202Y-10305744D01*
X11366773Y-10300982D02*
X11423916Y-10300982D01*
X11395345Y-10400982D02*
X11395345Y-10300982D01*
X11457249Y-10400982D02*
X11457249Y-10300982D01*
X11457249Y-10300982D02*
X11490583Y-10372410D01*
X11490583Y-10372410D02*
X11523916Y-10300982D01*
X11523916Y-10300982D02*
X11523916Y-10400982D01*
X11562011Y-10300982D02*
X11623916Y-10300982D01*
X11623916Y-10300982D02*
X11590583Y-10339077D01*
X11590583Y-10339077D02*
X11604868Y-10339077D01*
X11604868Y-10339077D02*
X11614392Y-10343839D01*
X11614392Y-10343839D02*
X11619154Y-10348601D01*
X11619154Y-10348601D02*
X11623916Y-10358125D01*
X11623916Y-10358125D02*
X11623916Y-10381934D01*
X11623916Y-10381934D02*
X11619154Y-10391458D01*
X11619154Y-10391458D02*
X11614392Y-10396220D01*
X11614392Y-10396220D02*
X11604868Y-10400982D01*
X11604868Y-10400982D02*
X11576297Y-10400982D01*
X11576297Y-10400982D02*
X11566773Y-10396220D01*
X11566773Y-10396220D02*
X11562011Y-10391458D01*
X11662011Y-10310506D02*
X11666773Y-10305744D01*
X11666773Y-10305744D02*
X11676297Y-10300982D01*
X11676297Y-10300982D02*
X11700106Y-10300982D01*
X11700106Y-10300982D02*
X11709630Y-10305744D01*
X11709630Y-10305744D02*
X11714392Y-10310506D01*
X11714392Y-10310506D02*
X11719154Y-10320030D01*
X11719154Y-10320030D02*
X11719154Y-10329553D01*
X11719154Y-10329553D02*
X11714392Y-10343839D01*
X11714392Y-10343839D02*
X11657249Y-10400982D01*
X11657249Y-10400982D02*
X11719154Y-10400982D01*
X11752487Y-10300982D02*
X11776297Y-10400982D01*
X11776297Y-10400982D02*
X11795345Y-10329553D01*
X11795345Y-10329553D02*
X11814392Y-10400982D01*
X11814392Y-10400982D02*
X11838202Y-10300982D01*
X11890583Y-10400982D02*
X11881059Y-10396220D01*
X11881059Y-10396220D02*
X11876297Y-10391458D01*
X11876297Y-10391458D02*
X11871535Y-10381934D01*
X11871535Y-10381934D02*
X11871535Y-10353363D01*
X11871535Y-10353363D02*
X11876297Y-10343839D01*
X11876297Y-10343839D02*
X11881059Y-10339077D01*
X11881059Y-10339077D02*
X11890583Y-10334315D01*
X11890583Y-10334315D02*
X11904868Y-10334315D01*
X11904868Y-10334315D02*
X11914392Y-10339077D01*
X11914392Y-10339077D02*
X11919154Y-10343839D01*
X11919154Y-10343839D02*
X11923916Y-10353363D01*
X11923916Y-10353363D02*
X11923916Y-10381934D01*
X11923916Y-10381934D02*
X11919154Y-10391458D01*
X11919154Y-10391458D02*
X11914392Y-10396220D01*
X11914392Y-10396220D02*
X11904868Y-10400982D01*
X11904868Y-10400982D02*
X11890583Y-10400982D01*
X11966773Y-10400982D02*
X11966773Y-10334315D01*
X11966773Y-10353363D02*
X11971535Y-10343839D01*
X11971535Y-10343839D02*
X11976297Y-10339077D01*
X11976297Y-10339077D02*
X11985821Y-10334315D01*
X11985821Y-10334315D02*
X11995345Y-10334315D01*
X12042964Y-10400982D02*
X12033440Y-10396220D01*
X12033440Y-10396220D02*
X12028678Y-10386696D01*
X12028678Y-10386696D02*
X12028678Y-10300982D01*
X12123916Y-10400982D02*
X12123916Y-10300982D01*
X12123916Y-10396220D02*
X12114392Y-10400982D01*
X12114392Y-10400982D02*
X12095345Y-10400982D01*
X12095345Y-10400982D02*
X12085821Y-10396220D01*
X12085821Y-10396220D02*
X12081059Y-10391458D01*
X12081059Y-10391458D02*
X12076297Y-10381934D01*
X12076297Y-10381934D02*
X12076297Y-10353363D01*
X12076297Y-10353363D02*
X12081059Y-10343839D01*
X12081059Y-10343839D02*
X12085821Y-10339077D01*
X12085821Y-10339077D02*
X12095345Y-10334315D01*
X12095345Y-10334315D02*
X12114392Y-10334315D01*
X12114392Y-10334315D02*
X12123916Y-10339077D01*
X14358321Y-8596039D02*
X14350702Y-8592230D01*
X14350702Y-8592230D02*
X14339273Y-8592230D01*
X14339273Y-8592230D02*
X14327844Y-8596039D01*
X14327844Y-8596039D02*
X14320225Y-8603658D01*
X14320225Y-8603658D02*
X14316416Y-8611277D01*
X14316416Y-8611277D02*
X14312606Y-8626515D01*
X14312606Y-8626515D02*
X14312606Y-8637944D01*
X14312606Y-8637944D02*
X14316416Y-8653182D01*
X14316416Y-8653182D02*
X14320225Y-8660801D01*
X14320225Y-8660801D02*
X14327844Y-8668420D01*
X14327844Y-8668420D02*
X14339273Y-8672230D01*
X14339273Y-8672230D02*
X14346892Y-8672230D01*
X14346892Y-8672230D02*
X14358321Y-8668420D01*
X14358321Y-8668420D02*
X14362130Y-8664610D01*
X14362130Y-8664610D02*
X14362130Y-8637944D01*
X14362130Y-8637944D02*
X14346892Y-8637944D01*
X14396416Y-8672230D02*
X14396416Y-8592230D01*
X14396416Y-8592230D02*
X14442130Y-8672230D01*
X14442130Y-8672230D02*
X14442130Y-8592230D01*
X14480225Y-8672230D02*
X14480225Y-8592230D01*
X14480225Y-8592230D02*
X14499273Y-8592230D01*
X14499273Y-8592230D02*
X14510702Y-8596039D01*
X14510702Y-8596039D02*
X14518321Y-8603658D01*
X14518321Y-8603658D02*
X14522130Y-8611277D01*
X14522130Y-8611277D02*
X14525940Y-8626515D01*
X14525940Y-8626515D02*
X14525940Y-8637944D01*
X14525940Y-8637944D02*
X14522130Y-8653182D01*
X14522130Y-8653182D02*
X14518321Y-8660801D01*
X14518321Y-8660801D02*
X14510702Y-8668420D01*
X14510702Y-8668420D02*
X14499273Y-8672230D01*
X14499273Y-8672230D02*
X14480225Y-8672230D01*
X14316416Y-8926230D02*
X14316416Y-8846230D01*
X14316416Y-8846230D02*
X14335464Y-8846230D01*
X14335464Y-8846230D02*
X14346892Y-8850039D01*
X14346892Y-8850039D02*
X14354511Y-8857658D01*
X14354511Y-8857658D02*
X14358321Y-8865277D01*
X14358321Y-8865277D02*
X14362130Y-8880515D01*
X14362130Y-8880515D02*
X14362130Y-8891944D01*
X14362130Y-8891944D02*
X14358321Y-8907182D01*
X14358321Y-8907182D02*
X14354511Y-8914801D01*
X14354511Y-8914801D02*
X14346892Y-8922420D01*
X14346892Y-8922420D02*
X14335464Y-8926230D01*
X14335464Y-8926230D02*
X14316416Y-8926230D01*
X14396416Y-8926230D02*
X14396416Y-8846230D01*
X14449749Y-8846230D02*
X14464987Y-8846230D01*
X14464987Y-8846230D02*
X14472606Y-8850039D01*
X14472606Y-8850039D02*
X14480225Y-8857658D01*
X14480225Y-8857658D02*
X14484035Y-8872896D01*
X14484035Y-8872896D02*
X14484035Y-8899563D01*
X14484035Y-8899563D02*
X14480225Y-8914801D01*
X14480225Y-8914801D02*
X14472606Y-8922420D01*
X14472606Y-8922420D02*
X14464987Y-8926230D01*
X14464987Y-8926230D02*
X14449749Y-8926230D01*
X14449749Y-8926230D02*
X14442130Y-8922420D01*
X14442130Y-8922420D02*
X14434511Y-8914801D01*
X14434511Y-8914801D02*
X14430702Y-8899563D01*
X14430702Y-8899563D02*
X14430702Y-8872896D01*
X14430702Y-8872896D02*
X14434511Y-8857658D01*
X14434511Y-8857658D02*
X14442130Y-8850039D01*
X14442130Y-8850039D02*
X14449749Y-8846230D01*
X13029251Y-8672230D02*
X13029251Y-8592230D01*
X13029251Y-8592230D02*
X13059727Y-8592230D01*
X13059727Y-8592230D02*
X13067346Y-8596039D01*
X13067346Y-8596039D02*
X13071155Y-8599849D01*
X13071155Y-8599849D02*
X13074965Y-8607468D01*
X13074965Y-8607468D02*
X13074965Y-8618896D01*
X13074965Y-8618896D02*
X13071155Y-8626515D01*
X13071155Y-8626515D02*
X13067346Y-8630325D01*
X13067346Y-8630325D02*
X13059727Y-8634134D01*
X13059727Y-8634134D02*
X13029251Y-8634134D01*
X13101631Y-8592230D02*
X13120679Y-8672230D01*
X13120679Y-8672230D02*
X13135917Y-8615087D01*
X13135917Y-8615087D02*
X13151155Y-8672230D01*
X13151155Y-8672230D02*
X13170203Y-8592230D01*
X13246393Y-8672230D02*
X13219727Y-8634134D01*
X13200679Y-8672230D02*
X13200679Y-8592230D01*
X13200679Y-8592230D02*
X13231155Y-8592230D01*
X13231155Y-8592230D02*
X13238774Y-8596039D01*
X13238774Y-8596039D02*
X13242584Y-8599849D01*
X13242584Y-8599849D02*
X13246393Y-8607468D01*
X13246393Y-8607468D02*
X13246393Y-8618896D01*
X13246393Y-8618896D02*
X13242584Y-8626515D01*
X13242584Y-8626515D02*
X13238774Y-8630325D01*
X13238774Y-8630325D02*
X13231155Y-8634134D01*
X13231155Y-8634134D02*
X13200679Y-8634134D01*
X14308797Y-8338229D02*
X14358321Y-8338229D01*
X14358321Y-8338229D02*
X14331654Y-8368706D01*
X14331654Y-8368706D02*
X14343083Y-8368706D01*
X14343083Y-8368706D02*
X14350702Y-8372515D01*
X14350702Y-8372515D02*
X14354511Y-8376325D01*
X14354511Y-8376325D02*
X14358321Y-8383944D01*
X14358321Y-8383944D02*
X14358321Y-8402991D01*
X14358321Y-8402991D02*
X14354511Y-8410610D01*
X14354511Y-8410610D02*
X14350702Y-8414420D01*
X14350702Y-8414420D02*
X14343083Y-8418230D01*
X14343083Y-8418230D02*
X14320225Y-8418230D01*
X14320225Y-8418230D02*
X14312606Y-8414420D01*
X14312606Y-8414420D02*
X14308797Y-8410610D01*
X14381178Y-8338229D02*
X14407845Y-8418230D01*
X14407845Y-8418230D02*
X14434511Y-8338229D01*
X14453559Y-8338229D02*
X14503083Y-8338229D01*
X14503083Y-8338229D02*
X14476416Y-8368706D01*
X14476416Y-8368706D02*
X14487844Y-8368706D01*
X14487844Y-8368706D02*
X14495464Y-8372515D01*
X14495464Y-8372515D02*
X14499273Y-8376325D01*
X14499273Y-8376325D02*
X14503083Y-8383944D01*
X14503083Y-8383944D02*
X14503083Y-8402991D01*
X14503083Y-8402991D02*
X14499273Y-8410610D01*
X14499273Y-8410610D02*
X14495464Y-8414420D01*
X14495464Y-8414420D02*
X14487844Y-8418230D01*
X14487844Y-8418230D02*
X14464987Y-8418230D01*
X14464987Y-8418230D02*
X14457368Y-8414420D01*
X14457368Y-8414420D02*
X14453559Y-8410610D01*
X13132108Y-9354230D02*
X13177822Y-9354230D01*
X13154965Y-9434230D02*
X13154965Y-9354230D01*
X13196870Y-9354230D02*
X13250203Y-9434230D01*
X13250203Y-9354230D02*
X13196870Y-9434230D01*
M02*
