%TF.GenerationSoftware,KiCad,Pcbnew,9.0.4+dfsg-1*%
%TF.CreationDate,2025-10-02T09:05:41+08:00*%
%TF.ProjectId,stlink,73746c69-6e6b-42e6-9b69-6361645f7063,b*%
%TF.SameCoordinates,Original*%
%TF.FileFunction,Copper,L2,Inr*%
%TF.FilePolarity,Positive*%
%FSLAX45Y45*%
G04 Gerber Fmt 4.5, Leading zero omitted, Abs format (unit mm)*
G04 Created by KiCad (PCBNEW 9.0.4+dfsg-1) date 2025-10-02 09:05:41*
%MOMM*%
%LPD*%
G01*
G04 APERTURE LIST*
%TA.AperFunction,ComponentPad*%
%ADD10R,1.700000X1.700000*%
%TD*%
%TA.AperFunction,ComponentPad*%
%ADD11C,1.700000*%
%TD*%
%TA.AperFunction,ComponentPad*%
%ADD12O,2.100000X1.000000*%
%TD*%
%TA.AperFunction,ComponentPad*%
%ADD13O,1.600000X1.000000*%
%TD*%
%TA.AperFunction,ViaPad*%
%ADD14C,0.600000*%
%TD*%
G04 APERTURE END LIST*
D10*
%TO.N,GND*%
%TO.C,J3*%
X10858500Y-10350000D03*
D11*
%TO.N,DIO*%
X11112500Y-10350000D03*
%TO.N,CLK*%
X11366500Y-10350000D03*
%TO.N,+3V3*%
X11620500Y-10350000D03*
%TO.N,B0*%
X11874500Y-10350000D03*
%TD*%
D12*
%TO.N,unconnected-(J1-SHIELD-PadS1)*%
%TO.C,J1*%
X10831000Y-8458000D03*
D13*
%TO.N,unconnected-(J1-SHIELD-PadS1)_2*%
X10413000Y-8458000D03*
D12*
%TO.N,unconnected-(J1-SHIELD-PadS1)_3*%
X10831000Y-9322000D03*
D13*
%TO.N,unconnected-(J1-SHIELD-PadS1)_1*%
X10413000Y-9322000D03*
%TD*%
D14*
%TO.N,GND*%
X10731500Y-7620000D03*
X14414500Y-8001000D03*
X10731500Y-9842500D03*
X12319000Y-8636000D03*
X11430000Y-8001000D03*
X10287000Y-8890000D03*
X12890500Y-7493000D03*
X14414500Y-9779000D03*
X12890500Y-8255000D03*
X12547600Y-9601200D03*
X12192000Y-10033000D03*
X10731500Y-7493000D03*
X10287000Y-8191500D03*
X11493500Y-9207500D03*
X11811000Y-9144000D03*
X11684000Y-9334500D03*
X12700000Y-7493000D03*
X12192000Y-10414000D03*
X11430000Y-7620000D03*
X14160500Y-8509000D03*
X14414500Y-8128000D03*
X10731500Y-10096500D03*
X13081000Y-7493000D03*
X10731500Y-8953500D03*
X11049000Y-9588500D03*
X12192000Y-8255000D03*
X10287000Y-7937500D03*
X12192000Y-10223500D03*
X10287000Y-9017000D03*
X12319000Y-9461500D03*
X13208000Y-8128000D03*
X12890500Y-9334500D03*
X11176000Y-8890000D03*
X14414500Y-9652000D03*
X11430000Y-7874000D03*
X13208000Y-8001000D03*
X10287000Y-8763000D03*
X10731500Y-8826500D03*
X11938000Y-8255000D03*
X14160500Y-8763000D03*
X14414500Y-7874000D03*
X11430000Y-7493000D03*
X12890500Y-8572500D03*
X11430000Y-8255000D03*
%TO.N,+5V*%
X11112500Y-8318500D03*
X11239500Y-9842500D03*
%TO.N,+3V3*%
X12636500Y-8191500D03*
X12890500Y-8445500D03*
X11684000Y-7747000D03*
X12446000Y-9271000D03*
X11684000Y-8445500D03*
X11684000Y-7874000D03*
X11607800Y-9245600D03*
X11684000Y-7493000D03*
X10731500Y-9652000D03*
X12636500Y-7683500D03*
X14160500Y-8255000D03*
X11684000Y-7620000D03*
X11049000Y-9715500D03*
X11684000Y-8001000D03*
%TO.N,LED*%
X10261600Y-10007600D03*
X11874500Y-8826500D03*
%TO.N,T_DIO*%
X13843000Y-8890000D03*
X12319000Y-8763000D03*
%TO.N,T_CLK*%
X12192000Y-8636000D03*
X13081000Y-8890000D03*
%TO.N,CLK*%
X11493500Y-10160000D03*
X11747500Y-9525000D03*
%TO.N,T_RX*%
X13779500Y-8382000D03*
X12382500Y-8318500D03*
%TO.N,T_TX*%
X13716000Y-8509000D03*
X12509500Y-8509000D03*
%TO.N,T_RST*%
X13843000Y-9144000D03*
X12065000Y-8255000D03*
%TO.N,T_SWO*%
X11874500Y-8953500D03*
X13081000Y-9144000D03*
%TO.N,DIO*%
X11239500Y-10160000D03*
X11430000Y-9080500D03*
%TD*%
%TA.AperFunction,Conductor*%
%TO.N,+3V3*%
G36*
X14351226Y-7241564D02*
G01*
X14353926Y-7241727D01*
X14380856Y-7243356D01*
X14381756Y-7243465D01*
X14410729Y-7248775D01*
X14411609Y-7248992D01*
X14439731Y-7257755D01*
X14440580Y-7258077D01*
X14467440Y-7270165D01*
X14468244Y-7270587D01*
X14493451Y-7285826D01*
X14494198Y-7286341D01*
X14517384Y-7304507D01*
X14518064Y-7305109D01*
X14538891Y-7325936D01*
X14539493Y-7326616D01*
X14557658Y-7349802D01*
X14558174Y-7350549D01*
X14573413Y-7375756D01*
X14573835Y-7376560D01*
X14585923Y-7403420D01*
X14586245Y-7404269D01*
X14595008Y-7432390D01*
X14595225Y-7433272D01*
X14600534Y-7462243D01*
X14600644Y-7463145D01*
X14602436Y-7492773D01*
X14602450Y-7493228D01*
X14602450Y-10286772D01*
X14602436Y-10287226D01*
X14600644Y-10316855D01*
X14600534Y-10317757D01*
X14595225Y-10346728D01*
X14595008Y-10347610D01*
X14586245Y-10375731D01*
X14585923Y-10376580D01*
X14573835Y-10403440D01*
X14573413Y-10404244D01*
X14558174Y-10429451D01*
X14557658Y-10430198D01*
X14539493Y-10453384D01*
X14538891Y-10454064D01*
X14518064Y-10474891D01*
X14517384Y-10475493D01*
X14494198Y-10493658D01*
X14493451Y-10494174D01*
X14468244Y-10509413D01*
X14467440Y-10509835D01*
X14440580Y-10521923D01*
X14439731Y-10522245D01*
X14411610Y-10531008D01*
X14410728Y-10531225D01*
X14381757Y-10536535D01*
X14380855Y-10536644D01*
X14351226Y-10538436D01*
X14350772Y-10538450D01*
X10414228Y-10538450D01*
X10413774Y-10538436D01*
X10384145Y-10536644D01*
X10383243Y-10536535D01*
X10354272Y-10531225D01*
X10353390Y-10531008D01*
X10325269Y-10522245D01*
X10324420Y-10521923D01*
X10297560Y-10509835D01*
X10296756Y-10509413D01*
X10271549Y-10494174D01*
X10270802Y-10493658D01*
X10247616Y-10475493D01*
X10246936Y-10474891D01*
X10226109Y-10454064D01*
X10225507Y-10453384D01*
X10207342Y-10430198D01*
X10206826Y-10429451D01*
X10201089Y-10419962D01*
X10191587Y-10404243D01*
X10191165Y-10403440D01*
X10188494Y-10397505D01*
X10179077Y-10376580D01*
X10178755Y-10375731D01*
X10178100Y-10373631D01*
X10169992Y-10347609D01*
X10169775Y-10346729D01*
X10164465Y-10317756D01*
X10164356Y-10316856D01*
X10162564Y-10287226D01*
X10162550Y-10286772D01*
X10162550Y-10273991D01*
X10248710Y-10273991D01*
X10248710Y-10300009D01*
X10252780Y-10325705D01*
X10252780Y-10325706D01*
X10260674Y-10350000D01*
X10260820Y-10350449D01*
X10272631Y-10373631D01*
X10284532Y-10390010D01*
X10287924Y-10394679D01*
X10287925Y-10394680D01*
X10306320Y-10413075D01*
X10306321Y-10413076D01*
X10306321Y-10413076D01*
X10327369Y-10428369D01*
X10350551Y-10440180D01*
X10375295Y-10448220D01*
X10400991Y-10452290D01*
X10400992Y-10452290D01*
X10427008Y-10452290D01*
X10427009Y-10452290D01*
X10452706Y-10448220D01*
X10477449Y-10440180D01*
X10500631Y-10428369D01*
X10521679Y-10413076D01*
X10540076Y-10394679D01*
X10555369Y-10373631D01*
X10567180Y-10350449D01*
X10575220Y-10325706D01*
X10579290Y-10300009D01*
X10579290Y-10273991D01*
X10577627Y-10263494D01*
X10758210Y-10263494D01*
X10758210Y-10436506D01*
X10758210Y-10436506D01*
X10759097Y-10440966D01*
X10762476Y-10446023D01*
X10762477Y-10446023D01*
X10762477Y-10446023D01*
X10767534Y-10449403D01*
X10771994Y-10450290D01*
X10945006Y-10450290D01*
X10949466Y-10449403D01*
X10954523Y-10446023D01*
X10957903Y-10440966D01*
X10958790Y-10436506D01*
X10958790Y-10340122D01*
X11012210Y-10340122D01*
X11012210Y-10359878D01*
X11016064Y-10379254D01*
X11016064Y-10379254D01*
X11023624Y-10397505D01*
X11023624Y-10397505D01*
X11034600Y-10413931D01*
X11034600Y-10413931D01*
X11034600Y-10413932D01*
X11048568Y-10427900D01*
X11048569Y-10427900D01*
X11048569Y-10427900D01*
X11064995Y-10438876D01*
X11083246Y-10446436D01*
X11083246Y-10446436D01*
X11083246Y-10446436D01*
X11083247Y-10446436D01*
X11096222Y-10449017D01*
X11102622Y-10450290D01*
X11102622Y-10450290D01*
X11122378Y-10450290D01*
X11127189Y-10449333D01*
X11141754Y-10446436D01*
X11160005Y-10438876D01*
X11176431Y-10427900D01*
X11190400Y-10413931D01*
X11201376Y-10397505D01*
X11208936Y-10379254D01*
X11212790Y-10359878D01*
X11212790Y-10340122D01*
X11212790Y-10340122D01*
X11266210Y-10340122D01*
X11266210Y-10359878D01*
X11270064Y-10379254D01*
X11270064Y-10379254D01*
X11277624Y-10397505D01*
X11277624Y-10397505D01*
X11288600Y-10413931D01*
X11288600Y-10413931D01*
X11288600Y-10413932D01*
X11302568Y-10427900D01*
X11302568Y-10427900D01*
X11302569Y-10427900D01*
X11318995Y-10438876D01*
X11337246Y-10446436D01*
X11337246Y-10446436D01*
X11337246Y-10446436D01*
X11337246Y-10446436D01*
X11350222Y-10449017D01*
X11356622Y-10450290D01*
X11356622Y-10450290D01*
X11376378Y-10450290D01*
X11381189Y-10449333D01*
X11395753Y-10446436D01*
X11414005Y-10438876D01*
X11430431Y-10427900D01*
X11430432Y-10427900D01*
X11435550Y-10422782D01*
X11444400Y-10413932D01*
X11444400Y-10413932D01*
X11444400Y-10413931D01*
X11455376Y-10397505D01*
X11462936Y-10379254D01*
X11466790Y-10359878D01*
X11466790Y-10340127D01*
X11520260Y-10340127D01*
X11520260Y-10359873D01*
X11524112Y-10379239D01*
X11524112Y-10379239D01*
X11531668Y-10397481D01*
X11539598Y-10409349D01*
X11576009Y-10372939D01*
X11580490Y-10380701D01*
X11589799Y-10390010D01*
X11597561Y-10394491D01*
X11561151Y-10430902D01*
X11573019Y-10438832D01*
X11591261Y-10446388D01*
X11591261Y-10446388D01*
X11610627Y-10450240D01*
X11630373Y-10450240D01*
X11649738Y-10446388D01*
X11649739Y-10446388D01*
X11667982Y-10438831D01*
X11679849Y-10430902D01*
X11679849Y-10430902D01*
X11643439Y-10394491D01*
X11651201Y-10390010D01*
X11660510Y-10380701D01*
X11664991Y-10372939D01*
X11701402Y-10409349D01*
X11701402Y-10409349D01*
X11709331Y-10397482D01*
X11716888Y-10379239D01*
X11716888Y-10379239D01*
X11720740Y-10359873D01*
X11720740Y-10340127D01*
X11720739Y-10340122D01*
X11774210Y-10340122D01*
X11774210Y-10359878D01*
X11778064Y-10379254D01*
X11778064Y-10379254D01*
X11785624Y-10397505D01*
X11785624Y-10397505D01*
X11796600Y-10413931D01*
X11796600Y-10413931D01*
X11796600Y-10413932D01*
X11810568Y-10427900D01*
X11810568Y-10427900D01*
X11810569Y-10427900D01*
X11826995Y-10438876D01*
X11845246Y-10446436D01*
X11845246Y-10446436D01*
X11845246Y-10446436D01*
X11845246Y-10446436D01*
X11858222Y-10449017D01*
X11864622Y-10450290D01*
X11864622Y-10450290D01*
X11884378Y-10450290D01*
X11889189Y-10449333D01*
X11903753Y-10446436D01*
X11922005Y-10438876D01*
X11938431Y-10427900D01*
X11952400Y-10413931D01*
X11956338Y-10408038D01*
X12146710Y-10408038D01*
X12146710Y-10419963D01*
X12148962Y-10428369D01*
X12149796Y-10431481D01*
X12149796Y-10431481D01*
X12155759Y-10441809D01*
X12164191Y-10450241D01*
X12167740Y-10452290D01*
X12174519Y-10456204D01*
X12186037Y-10459290D01*
X12186038Y-10459290D01*
X12197962Y-10459290D01*
X12197962Y-10459290D01*
X12209481Y-10456204D01*
X12219809Y-10450241D01*
X12228241Y-10441809D01*
X12234204Y-10431481D01*
X12237290Y-10419963D01*
X12237290Y-10408038D01*
X12234204Y-10396519D01*
X12230446Y-10390010D01*
X12228241Y-10386191D01*
X12219809Y-10377759D01*
X12209481Y-10371796D01*
X12208571Y-10371553D01*
X12197962Y-10368710D01*
X12186037Y-10368710D01*
X12177398Y-10371025D01*
X12174519Y-10371796D01*
X12174518Y-10371796D01*
X12164191Y-10377759D01*
X12155759Y-10386191D01*
X12149796Y-10396519D01*
X12149796Y-10396519D01*
X12149532Y-10397505D01*
X12146710Y-10408038D01*
X11956338Y-10408038D01*
X11957005Y-10407040D01*
X11959459Y-10403367D01*
X11963376Y-10397505D01*
X11963376Y-10397505D01*
X11970936Y-10379254D01*
X11974790Y-10359878D01*
X11974790Y-10340122D01*
X11970936Y-10320747D01*
X11963376Y-10302495D01*
X11952400Y-10286069D01*
X11952400Y-10286069D01*
X11952400Y-10286068D01*
X11940323Y-10273991D01*
X14185710Y-10273991D01*
X14185710Y-10300009D01*
X14189780Y-10325705D01*
X14189780Y-10325706D01*
X14197674Y-10350000D01*
X14197820Y-10350449D01*
X14209631Y-10373631D01*
X14221531Y-10390010D01*
X14224924Y-10394679D01*
X14224925Y-10394680D01*
X14243320Y-10413075D01*
X14243321Y-10413076D01*
X14243321Y-10413076D01*
X14264369Y-10428369D01*
X14287551Y-10440180D01*
X14312294Y-10448220D01*
X14337991Y-10452290D01*
X14337992Y-10452290D01*
X14364008Y-10452290D01*
X14364009Y-10452290D01*
X14389705Y-10448220D01*
X14414449Y-10440180D01*
X14437631Y-10428369D01*
X14458679Y-10413076D01*
X14477076Y-10394679D01*
X14492369Y-10373631D01*
X14504180Y-10350449D01*
X14512220Y-10325706D01*
X14516290Y-10300009D01*
X14516290Y-10273991D01*
X14512220Y-10248295D01*
X14504180Y-10223551D01*
X14492369Y-10200369D01*
X14477076Y-10179321D01*
X14477076Y-10179321D01*
X14477075Y-10179320D01*
X14458680Y-10160925D01*
X14458679Y-10160924D01*
X14449201Y-10154038D01*
X14437631Y-10145631D01*
X14414449Y-10133820D01*
X14414449Y-10133820D01*
X14414448Y-10133819D01*
X14389706Y-10125780D01*
X14389705Y-10125780D01*
X14364009Y-10121710D01*
X14364009Y-10121710D01*
X14337991Y-10121710D01*
X14337991Y-10121710D01*
X14312295Y-10125780D01*
X14312294Y-10125780D01*
X14287552Y-10133819D01*
X14287551Y-10133820D01*
X14287551Y-10133820D01*
X14287550Y-10133820D01*
X14287550Y-10133820D01*
X14264369Y-10145631D01*
X14243321Y-10160924D01*
X14243320Y-10160925D01*
X14224925Y-10179320D01*
X14224924Y-10179321D01*
X14209631Y-10200369D01*
X14197820Y-10223550D01*
X14197819Y-10223552D01*
X14189780Y-10248294D01*
X14189780Y-10248295D01*
X14185710Y-10273991D01*
X11940323Y-10273991D01*
X11938432Y-10272100D01*
X11938431Y-10272100D01*
X11938431Y-10272100D01*
X11922005Y-10261124D01*
X11918666Y-10259741D01*
X11903754Y-10253564D01*
X11903754Y-10253564D01*
X11884378Y-10249710D01*
X11884378Y-10249710D01*
X11864622Y-10249710D01*
X11864622Y-10249710D01*
X11845246Y-10253564D01*
X11845246Y-10253564D01*
X11826995Y-10261124D01*
X11810568Y-10272100D01*
X11796600Y-10286068D01*
X11785624Y-10302495D01*
X11778064Y-10320746D01*
X11778064Y-10320746D01*
X11774210Y-10340122D01*
X11720739Y-10340122D01*
X11716888Y-10320761D01*
X11716888Y-10320761D01*
X11709331Y-10302519D01*
X11701402Y-10290651D01*
X11664991Y-10327061D01*
X11660510Y-10319299D01*
X11651201Y-10309990D01*
X11643439Y-10305509D01*
X11679849Y-10269098D01*
X11667981Y-10261168D01*
X11649739Y-10253612D01*
X11649738Y-10253612D01*
X11630373Y-10249760D01*
X11610627Y-10249760D01*
X11591261Y-10253612D01*
X11591261Y-10253612D01*
X11573018Y-10261169D01*
X11561151Y-10269098D01*
X11561151Y-10269098D01*
X11597561Y-10305509D01*
X11589799Y-10309990D01*
X11580490Y-10319299D01*
X11576009Y-10327061D01*
X11539598Y-10290651D01*
X11539598Y-10290651D01*
X11531668Y-10302518D01*
X11524112Y-10320761D01*
X11524112Y-10320761D01*
X11520260Y-10340127D01*
X11466790Y-10340127D01*
X11466790Y-10340122D01*
X11462936Y-10320747D01*
X11455376Y-10302495D01*
X11444400Y-10286069D01*
X11444400Y-10286069D01*
X11444400Y-10286068D01*
X11430432Y-10272100D01*
X11430431Y-10272100D01*
X11430431Y-10272100D01*
X11414005Y-10261124D01*
X11410666Y-10259741D01*
X11395754Y-10253564D01*
X11395754Y-10253564D01*
X11376378Y-10249710D01*
X11376378Y-10249710D01*
X11356622Y-10249710D01*
X11356622Y-10249710D01*
X11337246Y-10253564D01*
X11337246Y-10253564D01*
X11318995Y-10261124D01*
X11302568Y-10272100D01*
X11288600Y-10286068D01*
X11277624Y-10302495D01*
X11270064Y-10320746D01*
X11270064Y-10320746D01*
X11266210Y-10340122D01*
X11212790Y-10340122D01*
X11208936Y-10320747D01*
X11201376Y-10302495D01*
X11190400Y-10286069D01*
X11190400Y-10286069D01*
X11190400Y-10286068D01*
X11176432Y-10272100D01*
X11176431Y-10272100D01*
X11176431Y-10272100D01*
X11160005Y-10261124D01*
X11156666Y-10259741D01*
X11141754Y-10253564D01*
X11141754Y-10253564D01*
X11122378Y-10249710D01*
X11122378Y-10249710D01*
X11102622Y-10249710D01*
X11102622Y-10249710D01*
X11083246Y-10253564D01*
X11083246Y-10253564D01*
X11064995Y-10261124D01*
X11048568Y-10272100D01*
X11034600Y-10286068D01*
X11023624Y-10302495D01*
X11016064Y-10320746D01*
X11016064Y-10320746D01*
X11012210Y-10340122D01*
X10958790Y-10340122D01*
X10958790Y-10263494D01*
X10957903Y-10259034D01*
X10954523Y-10253977D01*
X10949466Y-10250597D01*
X10949466Y-10250597D01*
X10945006Y-10249710D01*
X10771994Y-10249710D01*
X10771994Y-10249710D01*
X10767534Y-10250597D01*
X10762477Y-10253976D01*
X10759097Y-10259034D01*
X10759097Y-10259034D01*
X10758210Y-10263494D01*
X10577627Y-10263494D01*
X10575220Y-10248295D01*
X10567180Y-10223551D01*
X10564116Y-10217538D01*
X12146710Y-10217538D01*
X12146710Y-10229463D01*
X12149796Y-10240981D01*
X12149796Y-10240981D01*
X12155759Y-10251309D01*
X12164191Y-10259741D01*
X12170154Y-10263183D01*
X12174519Y-10265704D01*
X12186037Y-10268790D01*
X12186038Y-10268790D01*
X12197962Y-10268790D01*
X12197962Y-10268790D01*
X12209481Y-10265704D01*
X12219809Y-10259741D01*
X12228241Y-10251309D01*
X12234204Y-10240981D01*
X12237290Y-10229463D01*
X12237290Y-10217538D01*
X12234204Y-10206019D01*
X12233783Y-10205290D01*
X12228241Y-10195691D01*
X12219809Y-10187259D01*
X12209481Y-10181296D01*
X12197962Y-10178210D01*
X12186037Y-10178210D01*
X12177398Y-10180525D01*
X12174519Y-10181296D01*
X12174518Y-10181296D01*
X12164191Y-10187259D01*
X12155759Y-10195691D01*
X12149796Y-10206019D01*
X12149796Y-10206019D01*
X12149796Y-10206019D01*
X12146710Y-10217538D01*
X10564116Y-10217538D01*
X10555369Y-10200369D01*
X10540076Y-10179321D01*
X10540076Y-10179321D01*
X10540075Y-10179320D01*
X10521680Y-10160925D01*
X10521679Y-10160924D01*
X10519896Y-10159628D01*
X10512201Y-10154038D01*
X11194210Y-10154038D01*
X11194210Y-10165963D01*
X11197296Y-10177481D01*
X11197296Y-10177481D01*
X11203259Y-10187809D01*
X11211691Y-10196241D01*
X11217654Y-10199683D01*
X11222019Y-10202204D01*
X11233537Y-10205290D01*
X11233538Y-10205290D01*
X11245462Y-10205290D01*
X11245462Y-10205290D01*
X11256981Y-10202204D01*
X11267309Y-10196241D01*
X11275741Y-10187809D01*
X11281704Y-10177481D01*
X11284790Y-10165963D01*
X11284790Y-10154038D01*
X11448210Y-10154038D01*
X11448210Y-10165963D01*
X11451296Y-10177481D01*
X11451296Y-10177481D01*
X11457259Y-10187809D01*
X11465691Y-10196241D01*
X11471654Y-10199683D01*
X11476019Y-10202204D01*
X11487537Y-10205290D01*
X11487538Y-10205290D01*
X11499462Y-10205290D01*
X11499462Y-10205290D01*
X11510981Y-10202204D01*
X11521309Y-10196241D01*
X11529741Y-10187809D01*
X11535704Y-10177481D01*
X11538790Y-10165963D01*
X11538790Y-10154038D01*
X11535704Y-10142519D01*
X11535283Y-10141790D01*
X11529741Y-10132191D01*
X11521309Y-10123759D01*
X11510981Y-10117796D01*
X11499462Y-10114710D01*
X11487537Y-10114710D01*
X11478898Y-10117025D01*
X11476019Y-10117796D01*
X11476018Y-10117796D01*
X11465691Y-10123759D01*
X11457259Y-10132191D01*
X11451296Y-10142519D01*
X11451296Y-10142519D01*
X11451296Y-10142519D01*
X11448210Y-10154038D01*
X11284790Y-10154038D01*
X11281704Y-10142519D01*
X11281283Y-10141790D01*
X11275741Y-10132191D01*
X11267309Y-10123759D01*
X11256981Y-10117796D01*
X11245462Y-10114710D01*
X11233537Y-10114710D01*
X11224898Y-10117025D01*
X11222019Y-10117796D01*
X11222018Y-10117796D01*
X11211691Y-10123759D01*
X11203259Y-10132191D01*
X11197296Y-10142519D01*
X11197296Y-10142519D01*
X11197296Y-10142519D01*
X11194210Y-10154038D01*
X10512201Y-10154038D01*
X10500631Y-10145631D01*
X10477449Y-10133820D01*
X10477449Y-10133820D01*
X10477448Y-10133819D01*
X10452706Y-10125780D01*
X10452705Y-10125780D01*
X10427009Y-10121710D01*
X10427009Y-10121710D01*
X10400991Y-10121710D01*
X10400991Y-10121710D01*
X10375295Y-10125780D01*
X10375294Y-10125780D01*
X10350552Y-10133819D01*
X10350551Y-10133820D01*
X10350551Y-10133820D01*
X10350550Y-10133820D01*
X10350550Y-10133820D01*
X10327369Y-10145631D01*
X10306321Y-10160924D01*
X10306320Y-10160925D01*
X10287925Y-10179320D01*
X10287924Y-10179321D01*
X10272631Y-10200369D01*
X10260820Y-10223550D01*
X10260819Y-10223552D01*
X10252780Y-10248294D01*
X10252780Y-10248295D01*
X10248710Y-10273991D01*
X10162550Y-10273991D01*
X10162550Y-10090538D01*
X10686210Y-10090538D01*
X10686210Y-10102463D01*
X10689296Y-10113981D01*
X10689296Y-10113981D01*
X10695259Y-10124309D01*
X10703691Y-10132741D01*
X10709654Y-10136183D01*
X10714019Y-10138704D01*
X10725538Y-10141790D01*
X10725538Y-10141790D01*
X10737462Y-10141790D01*
X10737463Y-10141790D01*
X10748981Y-10138704D01*
X10759309Y-10132741D01*
X10767741Y-10124309D01*
X10773704Y-10113981D01*
X10776790Y-10102463D01*
X10776790Y-10090538D01*
X10773704Y-10079019D01*
X10773283Y-10078290D01*
X10767741Y-10068691D01*
X10759309Y-10060259D01*
X10748981Y-10054296D01*
X10737463Y-10051210D01*
X10725538Y-10051210D01*
X10716898Y-10053525D01*
X10714019Y-10054296D01*
X10714019Y-10054296D01*
X10703691Y-10060259D01*
X10695259Y-10068691D01*
X10689296Y-10079019D01*
X10689296Y-10079019D01*
X10689296Y-10079019D01*
X10686210Y-10090538D01*
X10162550Y-10090538D01*
X10162550Y-10001638D01*
X10216310Y-10001638D01*
X10216310Y-10013563D01*
X10216834Y-10015519D01*
X10219396Y-10025081D01*
X10219396Y-10025081D01*
X10225359Y-10035409D01*
X10233791Y-10043841D01*
X10239754Y-10047283D01*
X10244119Y-10049804D01*
X10255638Y-10052890D01*
X10255638Y-10052890D01*
X10267562Y-10052890D01*
X10267563Y-10052890D01*
X10279081Y-10049804D01*
X10289409Y-10043841D01*
X10297841Y-10035409D01*
X10302674Y-10027038D01*
X12146710Y-10027038D01*
X12146710Y-10038963D01*
X12148017Y-10043841D01*
X12149796Y-10050481D01*
X12149796Y-10050481D01*
X12155759Y-10060809D01*
X12164191Y-10069241D01*
X12170154Y-10072683D01*
X12174519Y-10075204D01*
X12186037Y-10078290D01*
X12186038Y-10078290D01*
X12197962Y-10078290D01*
X12197962Y-10078290D01*
X12209481Y-10075204D01*
X12219809Y-10069241D01*
X12228241Y-10060809D01*
X12234204Y-10050481D01*
X12237290Y-10038963D01*
X12237290Y-10027038D01*
X12234204Y-10015519D01*
X12233074Y-10013562D01*
X12228241Y-10005191D01*
X12219809Y-9996759D01*
X12209481Y-9990796D01*
X12206952Y-9990119D01*
X12197962Y-9987710D01*
X12186037Y-9987710D01*
X12177398Y-9990025D01*
X12174519Y-9990796D01*
X12174518Y-9990796D01*
X12164191Y-9996759D01*
X12155759Y-10005191D01*
X12149796Y-10015519D01*
X12149796Y-10015519D01*
X12149796Y-10015519D01*
X12146710Y-10027038D01*
X10302674Y-10027038D01*
X10303804Y-10025081D01*
X10306890Y-10013563D01*
X10306890Y-10001638D01*
X10303804Y-9990119D01*
X10302413Y-9987710D01*
X10297841Y-9979791D01*
X10289409Y-9971359D01*
X10279081Y-9965396D01*
X10267563Y-9962310D01*
X10255638Y-9962310D01*
X10246998Y-9964625D01*
X10244119Y-9965396D01*
X10244119Y-9965396D01*
X10233791Y-9971359D01*
X10225359Y-9979791D01*
X10219396Y-9990119D01*
X10219396Y-9990119D01*
X10219396Y-9990119D01*
X10216310Y-10001638D01*
X10162550Y-10001638D01*
X10162550Y-9836538D01*
X10686210Y-9836538D01*
X10686210Y-9848463D01*
X10689296Y-9859981D01*
X10689296Y-9859981D01*
X10695259Y-9870309D01*
X10703691Y-9878741D01*
X10709654Y-9882183D01*
X10714019Y-9884704D01*
X10725538Y-9887790D01*
X10725538Y-9887790D01*
X10737462Y-9887790D01*
X10737463Y-9887790D01*
X10748981Y-9884704D01*
X10759309Y-9878741D01*
X10767741Y-9870309D01*
X10773704Y-9859981D01*
X10776790Y-9848463D01*
X10776790Y-9836538D01*
X11194210Y-9836538D01*
X11194210Y-9848463D01*
X11197296Y-9859981D01*
X11197296Y-9859981D01*
X11203259Y-9870309D01*
X11211691Y-9878741D01*
X11217654Y-9882183D01*
X11222019Y-9884704D01*
X11233537Y-9887790D01*
X11233538Y-9887790D01*
X11245462Y-9887790D01*
X11245462Y-9887790D01*
X11256981Y-9884704D01*
X11267309Y-9878741D01*
X11275741Y-9870309D01*
X11281704Y-9859981D01*
X11284790Y-9848463D01*
X11284790Y-9836538D01*
X11281704Y-9825019D01*
X11281283Y-9824290D01*
X11275741Y-9814691D01*
X11267309Y-9806259D01*
X11256981Y-9800296D01*
X11245462Y-9797210D01*
X11233537Y-9797210D01*
X11224898Y-9799525D01*
X11222019Y-9800296D01*
X11222018Y-9800296D01*
X11211691Y-9806259D01*
X11203259Y-9814691D01*
X11197296Y-9825019D01*
X11197296Y-9825019D01*
X11197296Y-9825019D01*
X11194210Y-9836538D01*
X10776790Y-9836538D01*
X10773704Y-9825019D01*
X10773283Y-9824290D01*
X10767741Y-9814691D01*
X10759309Y-9806259D01*
X10748981Y-9800296D01*
X10737463Y-9797210D01*
X10725538Y-9797210D01*
X10716898Y-9799525D01*
X10714019Y-9800296D01*
X10714019Y-9800296D01*
X10703691Y-9806259D01*
X10695259Y-9814691D01*
X10689296Y-9825019D01*
X10689296Y-9825019D01*
X10689296Y-9825019D01*
X10686210Y-9836538D01*
X10162550Y-9836538D01*
X10162550Y-9773038D01*
X14369210Y-9773038D01*
X14369210Y-9784963D01*
X14372296Y-9796481D01*
X14372296Y-9796481D01*
X14378259Y-9806809D01*
X14386691Y-9815241D01*
X14392654Y-9818683D01*
X14397019Y-9821204D01*
X14408537Y-9824290D01*
X14408538Y-9824290D01*
X14420462Y-9824290D01*
X14420462Y-9824290D01*
X14431981Y-9821204D01*
X14442309Y-9815241D01*
X14450741Y-9806809D01*
X14456704Y-9796481D01*
X14459790Y-9784963D01*
X14459790Y-9773038D01*
X14456704Y-9761519D01*
X14456703Y-9761519D01*
X14450741Y-9751191D01*
X14442309Y-9742759D01*
X14431981Y-9736796D01*
X14420462Y-9733710D01*
X14408537Y-9733710D01*
X14399898Y-9736025D01*
X14397019Y-9736796D01*
X14397018Y-9736796D01*
X14386691Y-9742759D01*
X14378259Y-9751191D01*
X14372296Y-9761519D01*
X14372296Y-9761519D01*
X14372296Y-9761519D01*
X14369210Y-9773038D01*
X10162550Y-9773038D01*
X10162550Y-9582538D01*
X11003710Y-9582538D01*
X11003710Y-9594463D01*
X11006796Y-9605981D01*
X11006796Y-9605981D01*
X11012759Y-9616309D01*
X11021191Y-9624741D01*
X11027154Y-9628183D01*
X11031519Y-9630704D01*
X11043038Y-9633790D01*
X11043038Y-9633790D01*
X11054962Y-9633790D01*
X11054963Y-9633790D01*
X11066481Y-9630704D01*
X11076809Y-9624741D01*
X11085241Y-9616309D01*
X11091204Y-9605981D01*
X11094082Y-9595238D01*
X12502310Y-9595238D01*
X12502310Y-9607163D01*
X12504613Y-9615759D01*
X12505396Y-9618681D01*
X12505396Y-9618681D01*
X12511359Y-9629009D01*
X12519791Y-9637441D01*
X12522547Y-9639032D01*
X12530119Y-9643404D01*
X12541637Y-9646490D01*
X12541638Y-9646490D01*
X12553562Y-9646490D01*
X12553562Y-9646490D01*
X12555251Y-9646038D01*
X14369210Y-9646038D01*
X14369210Y-9657963D01*
X14372296Y-9669481D01*
X14372296Y-9669481D01*
X14378259Y-9679809D01*
X14386691Y-9688241D01*
X14392654Y-9691683D01*
X14397019Y-9694204D01*
X14408537Y-9697290D01*
X14408538Y-9697290D01*
X14420462Y-9697290D01*
X14420462Y-9697290D01*
X14431981Y-9694204D01*
X14442309Y-9688241D01*
X14450741Y-9679809D01*
X14456704Y-9669481D01*
X14459790Y-9657963D01*
X14459790Y-9646038D01*
X14456704Y-9634519D01*
X14456283Y-9633790D01*
X14450741Y-9624191D01*
X14442309Y-9615759D01*
X14431981Y-9609796D01*
X14420462Y-9606710D01*
X14408537Y-9606710D01*
X14399898Y-9609025D01*
X14397019Y-9609796D01*
X14397018Y-9609796D01*
X14386691Y-9615759D01*
X14378259Y-9624191D01*
X14372296Y-9634519D01*
X14372296Y-9634519D01*
X14372296Y-9634519D01*
X14369210Y-9646038D01*
X12555251Y-9646038D01*
X12565081Y-9643404D01*
X12567777Y-9641847D01*
X12572653Y-9639032D01*
X12575409Y-9637441D01*
X12583841Y-9629009D01*
X12586305Y-9624741D01*
X12589804Y-9618681D01*
X12592890Y-9607163D01*
X12592890Y-9595238D01*
X12589804Y-9583719D01*
X12589803Y-9583719D01*
X12583841Y-9573391D01*
X12575409Y-9564959D01*
X12565081Y-9558996D01*
X12553562Y-9555910D01*
X12541637Y-9555910D01*
X12532998Y-9558225D01*
X12530119Y-9558996D01*
X12530118Y-9558996D01*
X12519791Y-9564959D01*
X12511359Y-9573391D01*
X12505396Y-9583719D01*
X12505396Y-9583719D01*
X12505396Y-9583719D01*
X12502310Y-9595238D01*
X11094082Y-9595238D01*
X11094290Y-9594463D01*
X11094290Y-9582538D01*
X11091204Y-9571019D01*
X11090783Y-9570290D01*
X11085241Y-9560691D01*
X11076809Y-9552259D01*
X11066481Y-9546296D01*
X11054963Y-9543210D01*
X11043038Y-9543210D01*
X11034398Y-9545525D01*
X11031519Y-9546296D01*
X11031519Y-9546296D01*
X11021191Y-9552259D01*
X11012759Y-9560691D01*
X11006796Y-9571019D01*
X11006796Y-9571019D01*
X11006796Y-9571019D01*
X11003710Y-9582538D01*
X10162550Y-9582538D01*
X10162550Y-9519038D01*
X11702210Y-9519038D01*
X11702210Y-9530963D01*
X11705296Y-9542481D01*
X11705296Y-9542481D01*
X11711259Y-9552809D01*
X11719691Y-9561241D01*
X11725654Y-9564683D01*
X11730019Y-9567204D01*
X11741537Y-9570290D01*
X11741538Y-9570290D01*
X11753462Y-9570290D01*
X11753462Y-9570290D01*
X11764981Y-9567204D01*
X11775309Y-9561241D01*
X11783741Y-9552809D01*
X11789704Y-9542481D01*
X11792790Y-9530963D01*
X11792790Y-9519038D01*
X11789704Y-9507519D01*
X11789283Y-9506790D01*
X11783741Y-9497191D01*
X11775309Y-9488759D01*
X11764981Y-9482796D01*
X11753462Y-9479710D01*
X11741537Y-9479710D01*
X11732898Y-9482025D01*
X11730019Y-9482796D01*
X11730018Y-9482796D01*
X11719691Y-9488759D01*
X11711259Y-9497191D01*
X11705296Y-9507519D01*
X11705296Y-9507519D01*
X11705296Y-9507519D01*
X11702210Y-9519038D01*
X10162550Y-9519038D01*
X10162550Y-9455538D01*
X12273710Y-9455538D01*
X12273710Y-9467463D01*
X12276796Y-9478981D01*
X12276796Y-9478981D01*
X12282759Y-9489309D01*
X12291191Y-9497741D01*
X12297154Y-9501183D01*
X12301519Y-9503704D01*
X12313037Y-9506790D01*
X12313038Y-9506790D01*
X12324962Y-9506790D01*
X12324962Y-9506790D01*
X12336481Y-9503704D01*
X12346809Y-9497741D01*
X12355241Y-9489309D01*
X12361204Y-9478981D01*
X12364290Y-9467463D01*
X12364290Y-9455538D01*
X12361204Y-9444019D01*
X12361203Y-9444019D01*
X12355241Y-9433691D01*
X12346809Y-9425259D01*
X12336481Y-9419296D01*
X12324962Y-9416210D01*
X12313037Y-9416210D01*
X12304398Y-9418525D01*
X12301519Y-9419296D01*
X12301518Y-9419296D01*
X12291191Y-9425259D01*
X12282759Y-9433691D01*
X12276796Y-9444019D01*
X12276796Y-9444019D01*
X12276796Y-9444019D01*
X12273710Y-9455538D01*
X10162550Y-9455538D01*
X10162550Y-9315569D01*
X10317710Y-9315569D01*
X10317710Y-9328431D01*
X10320103Y-9340463D01*
X10320219Y-9341044D01*
X10325141Y-9352926D01*
X10332286Y-9363620D01*
X10332286Y-9363620D01*
X10332286Y-9363620D01*
X10341380Y-9372714D01*
X10341380Y-9372714D01*
X10341380Y-9372714D01*
X10352074Y-9379859D01*
X10363956Y-9384781D01*
X10371524Y-9386286D01*
X10376569Y-9387290D01*
X10376570Y-9387290D01*
X10449431Y-9387290D01*
X10453635Y-9386454D01*
X10462044Y-9384781D01*
X10473926Y-9379859D01*
X10484620Y-9372714D01*
X10493714Y-9363620D01*
X10500859Y-9352926D01*
X10505781Y-9341044D01*
X10508290Y-9328431D01*
X10508290Y-9315570D01*
X10508290Y-9315569D01*
X10710710Y-9315569D01*
X10710710Y-9328431D01*
X10713103Y-9340463D01*
X10713219Y-9341044D01*
X10718141Y-9352926D01*
X10725286Y-9363620D01*
X10725286Y-9363620D01*
X10725286Y-9363620D01*
X10734380Y-9372714D01*
X10734380Y-9372714D01*
X10734380Y-9372714D01*
X10745074Y-9379859D01*
X10756956Y-9384781D01*
X10764524Y-9386286D01*
X10769569Y-9387290D01*
X10769570Y-9387290D01*
X10892431Y-9387290D01*
X10896635Y-9386454D01*
X10905044Y-9384781D01*
X10916926Y-9379859D01*
X10927620Y-9372714D01*
X10936714Y-9363620D01*
X10943859Y-9352926D01*
X10948781Y-9341044D01*
X10951269Y-9328538D01*
X11638710Y-9328538D01*
X11638710Y-9340463D01*
X11641796Y-9351981D01*
X11641796Y-9351981D01*
X11647759Y-9362309D01*
X11656191Y-9370741D01*
X11659609Y-9372714D01*
X11666519Y-9376704D01*
X11678037Y-9379790D01*
X11678038Y-9379790D01*
X11689962Y-9379790D01*
X11689962Y-9379790D01*
X11701481Y-9376704D01*
X11711809Y-9370741D01*
X11720241Y-9362309D01*
X11726204Y-9351981D01*
X11729290Y-9340463D01*
X11729290Y-9328538D01*
X12845210Y-9328538D01*
X12845210Y-9340463D01*
X12848296Y-9351981D01*
X12848296Y-9351981D01*
X12854259Y-9362309D01*
X12862691Y-9370741D01*
X12866109Y-9372714D01*
X12873019Y-9376704D01*
X12884537Y-9379790D01*
X12884538Y-9379790D01*
X12896462Y-9379790D01*
X12896462Y-9379790D01*
X12907981Y-9376704D01*
X12918309Y-9370741D01*
X12926741Y-9362309D01*
X12932704Y-9351981D01*
X12935790Y-9340463D01*
X12935790Y-9328538D01*
X12932704Y-9317019D01*
X12931867Y-9315569D01*
X12926741Y-9306691D01*
X12918309Y-9298259D01*
X12907981Y-9292296D01*
X12896462Y-9289210D01*
X12884537Y-9289210D01*
X12877582Y-9291074D01*
X12873019Y-9292296D01*
X12873018Y-9292296D01*
X12862691Y-9298259D01*
X12854259Y-9306691D01*
X12848296Y-9317019D01*
X12848296Y-9317019D01*
X12848296Y-9317019D01*
X12845210Y-9328538D01*
X11729290Y-9328538D01*
X11726204Y-9317019D01*
X11725367Y-9315569D01*
X11720241Y-9306691D01*
X11711809Y-9298259D01*
X11701481Y-9292296D01*
X11689962Y-9289210D01*
X11678037Y-9289210D01*
X11671082Y-9291074D01*
X11666519Y-9292296D01*
X11666518Y-9292296D01*
X11656191Y-9298259D01*
X11647759Y-9306691D01*
X11641796Y-9317019D01*
X11641796Y-9317019D01*
X11641796Y-9317019D01*
X11638710Y-9328538D01*
X10951269Y-9328538D01*
X10951290Y-9328431D01*
X10951290Y-9315570D01*
X10948781Y-9302956D01*
X10943859Y-9291074D01*
X10936714Y-9280380D01*
X10936714Y-9280380D01*
X10936714Y-9280380D01*
X10927620Y-9271286D01*
X10927620Y-9271286D01*
X10927620Y-9271286D01*
X10916926Y-9264141D01*
X10905044Y-9259219D01*
X10905044Y-9259219D01*
X10905044Y-9259219D01*
X10892431Y-9256710D01*
X10892431Y-9256710D01*
X10769570Y-9256710D01*
X10769569Y-9256710D01*
X10756956Y-9259219D01*
X10756956Y-9259219D01*
X10745074Y-9264141D01*
X10734380Y-9271286D01*
X10734380Y-9271286D01*
X10725286Y-9280380D01*
X10725286Y-9280380D01*
X10718141Y-9291074D01*
X10713219Y-9302956D01*
X10713219Y-9302956D01*
X10710710Y-9315569D01*
X10508290Y-9315569D01*
X10505781Y-9302956D01*
X10500859Y-9291074D01*
X10493714Y-9280380D01*
X10493714Y-9280380D01*
X10493714Y-9280380D01*
X10484620Y-9271286D01*
X10484620Y-9271286D01*
X10484620Y-9271286D01*
X10473926Y-9264141D01*
X10462044Y-9259219D01*
X10462044Y-9259219D01*
X10462044Y-9259219D01*
X10449431Y-9256710D01*
X10449431Y-9256710D01*
X10376570Y-9256710D01*
X10376569Y-9256710D01*
X10363956Y-9259219D01*
X10363956Y-9259219D01*
X10352074Y-9264141D01*
X10341380Y-9271286D01*
X10341380Y-9271286D01*
X10332286Y-9280380D01*
X10332286Y-9280380D01*
X10325141Y-9291074D01*
X10320219Y-9302956D01*
X10320219Y-9302956D01*
X10317710Y-9315569D01*
X10162550Y-9315569D01*
X10162550Y-9172708D01*
X10730210Y-9172708D01*
X10730210Y-9185292D01*
X10731477Y-9190019D01*
X10733467Y-9197446D01*
X10733467Y-9197447D01*
X10739758Y-9208344D01*
X10748656Y-9217242D01*
X10759553Y-9223533D01*
X10759553Y-9223533D01*
X10759554Y-9223533D01*
X10771708Y-9226790D01*
X10771709Y-9226790D01*
X10784291Y-9226790D01*
X10784292Y-9226790D01*
X10796446Y-9223533D01*
X10807344Y-9217242D01*
X10816242Y-9208344D01*
X10820171Y-9201538D01*
X11448210Y-9201538D01*
X11448210Y-9213463D01*
X11449223Y-9217242D01*
X11451296Y-9224981D01*
X11451296Y-9224981D01*
X11457259Y-9235309D01*
X11465691Y-9243741D01*
X11471654Y-9247183D01*
X11476019Y-9249704D01*
X11487537Y-9252790D01*
X11487538Y-9252790D01*
X11499462Y-9252790D01*
X11499462Y-9252790D01*
X11510981Y-9249704D01*
X11521309Y-9243741D01*
X11529741Y-9235309D01*
X11535704Y-9224981D01*
X11538790Y-9213463D01*
X11538790Y-9201538D01*
X11535704Y-9190019D01*
X11535283Y-9189290D01*
X11529741Y-9179691D01*
X11521309Y-9171259D01*
X11510981Y-9165296D01*
X11499462Y-9162210D01*
X11487537Y-9162210D01*
X11478898Y-9164525D01*
X11476019Y-9165296D01*
X11476018Y-9165296D01*
X11465691Y-9171259D01*
X11457259Y-9179691D01*
X11451296Y-9190019D01*
X11451296Y-9190019D01*
X11451296Y-9190019D01*
X11448210Y-9201538D01*
X10820171Y-9201538D01*
X10822533Y-9197446D01*
X10825790Y-9185292D01*
X10825790Y-9172708D01*
X10822533Y-9160554D01*
X10822533Y-9160553D01*
X10822533Y-9160553D01*
X10816242Y-9149656D01*
X10807344Y-9140758D01*
X10802631Y-9138038D01*
X11765710Y-9138038D01*
X11765710Y-9149963D01*
X11768548Y-9160553D01*
X11768796Y-9161481D01*
X11768796Y-9161481D01*
X11774759Y-9171809D01*
X11783191Y-9180241D01*
X11789154Y-9183683D01*
X11793519Y-9186204D01*
X11805037Y-9189290D01*
X11805038Y-9189290D01*
X11816962Y-9189290D01*
X11816962Y-9189290D01*
X11828481Y-9186204D01*
X11838809Y-9180241D01*
X11847241Y-9171809D01*
X11853204Y-9161481D01*
X11856290Y-9149963D01*
X11856290Y-9138038D01*
X13035710Y-9138038D01*
X13035710Y-9149963D01*
X13038548Y-9160553D01*
X13038796Y-9161481D01*
X13038796Y-9161481D01*
X13044759Y-9171809D01*
X13053191Y-9180241D01*
X13059154Y-9183683D01*
X13063519Y-9186204D01*
X13075037Y-9189290D01*
X13075038Y-9189290D01*
X13086962Y-9189290D01*
X13086962Y-9189290D01*
X13098481Y-9186204D01*
X13108809Y-9180241D01*
X13117241Y-9171809D01*
X13123204Y-9161481D01*
X13126290Y-9149963D01*
X13126290Y-9138038D01*
X13797710Y-9138038D01*
X13797710Y-9149963D01*
X13800548Y-9160553D01*
X13800796Y-9161481D01*
X13800796Y-9161481D01*
X13806759Y-9171809D01*
X13815191Y-9180241D01*
X13821154Y-9183683D01*
X13825519Y-9186204D01*
X13837037Y-9189290D01*
X13837038Y-9189290D01*
X13848962Y-9189290D01*
X13848962Y-9189290D01*
X13860481Y-9186204D01*
X13870809Y-9180241D01*
X13879241Y-9171809D01*
X13885204Y-9161481D01*
X13888290Y-9149963D01*
X13888290Y-9138038D01*
X13885204Y-9126519D01*
X13884783Y-9125790D01*
X13879241Y-9116191D01*
X13870809Y-9107759D01*
X13860481Y-9101796D01*
X13848962Y-9098710D01*
X13837037Y-9098710D01*
X13828398Y-9101025D01*
X13825519Y-9101796D01*
X13825518Y-9101796D01*
X13815191Y-9107759D01*
X13806759Y-9116191D01*
X13800796Y-9126519D01*
X13800796Y-9126519D01*
X13800796Y-9126519D01*
X13797710Y-9138038D01*
X13126290Y-9138038D01*
X13123204Y-9126519D01*
X13122783Y-9125790D01*
X13117241Y-9116191D01*
X13108809Y-9107759D01*
X13098481Y-9101796D01*
X13086962Y-9098710D01*
X13075037Y-9098710D01*
X13066398Y-9101025D01*
X13063519Y-9101796D01*
X13063518Y-9101796D01*
X13053191Y-9107759D01*
X13044759Y-9116191D01*
X13038796Y-9126519D01*
X13038796Y-9126519D01*
X13038796Y-9126519D01*
X13035710Y-9138038D01*
X11856290Y-9138038D01*
X11853204Y-9126519D01*
X11852783Y-9125790D01*
X11847241Y-9116191D01*
X11838809Y-9107759D01*
X11828481Y-9101796D01*
X11816962Y-9098710D01*
X11805037Y-9098710D01*
X11796398Y-9101025D01*
X11793519Y-9101796D01*
X11793518Y-9101796D01*
X11783191Y-9107759D01*
X11774759Y-9116191D01*
X11768796Y-9126519D01*
X11768796Y-9126519D01*
X11768796Y-9126519D01*
X11765710Y-9138038D01*
X10802631Y-9138038D01*
X10796447Y-9134467D01*
X10796446Y-9134467D01*
X10796446Y-9134467D01*
X10784292Y-9131210D01*
X10771708Y-9131210D01*
X10759554Y-9134467D01*
X10759553Y-9134467D01*
X10748656Y-9140758D01*
X10739758Y-9149656D01*
X10733467Y-9160553D01*
X10733467Y-9160554D01*
X10730210Y-9172708D01*
X10162550Y-9172708D01*
X10162550Y-9074538D01*
X11384710Y-9074538D01*
X11384710Y-9086463D01*
X11387796Y-9097981D01*
X11387796Y-9097981D01*
X11393759Y-9108309D01*
X11402191Y-9116741D01*
X11408154Y-9120183D01*
X11412519Y-9122704D01*
X11424037Y-9125790D01*
X11424038Y-9125790D01*
X11435962Y-9125790D01*
X11435962Y-9125790D01*
X11447481Y-9122704D01*
X11457809Y-9116741D01*
X11466241Y-9108309D01*
X11472204Y-9097981D01*
X11475290Y-9086463D01*
X11475290Y-9074538D01*
X11472204Y-9063019D01*
X11471783Y-9062290D01*
X11466241Y-9052691D01*
X11457809Y-9044259D01*
X11447481Y-9038296D01*
X11435962Y-9035210D01*
X11424037Y-9035210D01*
X11415398Y-9037525D01*
X11412519Y-9038296D01*
X11412518Y-9038296D01*
X11402191Y-9044259D01*
X11393759Y-9052691D01*
X11387796Y-9063019D01*
X11387796Y-9063019D01*
X11387796Y-9063019D01*
X11384710Y-9074538D01*
X10162550Y-9074538D01*
X10162550Y-9011038D01*
X10241710Y-9011038D01*
X10241710Y-9022963D01*
X10244796Y-9034481D01*
X10244796Y-9034481D01*
X10250759Y-9044809D01*
X10259191Y-9053241D01*
X10265154Y-9056683D01*
X10269519Y-9059204D01*
X10281038Y-9062290D01*
X10281038Y-9062290D01*
X10292962Y-9062290D01*
X10292963Y-9062290D01*
X10304481Y-9059204D01*
X10314809Y-9053241D01*
X10323241Y-9044809D01*
X10329204Y-9034481D01*
X10332290Y-9022963D01*
X10332290Y-9011038D01*
X10329204Y-8999519D01*
X10328783Y-8998790D01*
X10323241Y-8989191D01*
X10314809Y-8980759D01*
X10304481Y-8974796D01*
X10292963Y-8971710D01*
X10281038Y-8971710D01*
X10272398Y-8974025D01*
X10269519Y-8974796D01*
X10269519Y-8974796D01*
X10259191Y-8980759D01*
X10250759Y-8989191D01*
X10244796Y-8999519D01*
X10244796Y-8999519D01*
X10244796Y-8999519D01*
X10241710Y-9011038D01*
X10162550Y-9011038D01*
X10162550Y-8947538D01*
X10686210Y-8947538D01*
X10686210Y-8959463D01*
X10689296Y-8970981D01*
X10689296Y-8970981D01*
X10695259Y-8981309D01*
X10703691Y-8989741D01*
X10709654Y-8993183D01*
X10714019Y-8995704D01*
X10725538Y-8998790D01*
X10725538Y-8998790D01*
X10737462Y-8998790D01*
X10737463Y-8998790D01*
X10748981Y-8995704D01*
X10759309Y-8989741D01*
X10767741Y-8981309D01*
X10773704Y-8970981D01*
X10776790Y-8959463D01*
X10776790Y-8947538D01*
X11829210Y-8947538D01*
X11829210Y-8959463D01*
X11832296Y-8970981D01*
X11832296Y-8970981D01*
X11838259Y-8981309D01*
X11846691Y-8989741D01*
X11852654Y-8993183D01*
X11857019Y-8995704D01*
X11868537Y-8998790D01*
X11868538Y-8998790D01*
X11880462Y-8998790D01*
X11880462Y-8998790D01*
X11891981Y-8995704D01*
X11902309Y-8989741D01*
X11910741Y-8981309D01*
X11916704Y-8970981D01*
X11919790Y-8959463D01*
X11919790Y-8947538D01*
X11916704Y-8936019D01*
X11916283Y-8935290D01*
X11910741Y-8925691D01*
X11902309Y-8917259D01*
X11891981Y-8911296D01*
X11880462Y-8908210D01*
X11868537Y-8908210D01*
X11859898Y-8910525D01*
X11857019Y-8911296D01*
X11857018Y-8911296D01*
X11846691Y-8917259D01*
X11838259Y-8925691D01*
X11832296Y-8936019D01*
X11832296Y-8936019D01*
X11832296Y-8936019D01*
X11829210Y-8947538D01*
X10776790Y-8947538D01*
X10773704Y-8936019D01*
X10773283Y-8935290D01*
X10767741Y-8925691D01*
X10759309Y-8917259D01*
X10748981Y-8911296D01*
X10737463Y-8908210D01*
X10725538Y-8908210D01*
X10716898Y-8910525D01*
X10714019Y-8911296D01*
X10714019Y-8911296D01*
X10703691Y-8917259D01*
X10695259Y-8925691D01*
X10689296Y-8936019D01*
X10689296Y-8936019D01*
X10689296Y-8936019D01*
X10686210Y-8947538D01*
X10162550Y-8947538D01*
X10162550Y-8884038D01*
X10241710Y-8884038D01*
X10241710Y-8895963D01*
X10244796Y-8907481D01*
X10244796Y-8907481D01*
X10250759Y-8917809D01*
X10259191Y-8926241D01*
X10265154Y-8929683D01*
X10269519Y-8932204D01*
X10281038Y-8935290D01*
X10281038Y-8935290D01*
X10292962Y-8935290D01*
X10292963Y-8935290D01*
X10304481Y-8932204D01*
X10314809Y-8926241D01*
X10323241Y-8917809D01*
X10329204Y-8907481D01*
X10332290Y-8895963D01*
X10332290Y-8884038D01*
X11130710Y-8884038D01*
X11130710Y-8895963D01*
X11133796Y-8907481D01*
X11133796Y-8907481D01*
X11139759Y-8917809D01*
X11148191Y-8926241D01*
X11154154Y-8929683D01*
X11158519Y-8932204D01*
X11170038Y-8935290D01*
X11170038Y-8935290D01*
X11181962Y-8935290D01*
X11181963Y-8935290D01*
X11193481Y-8932204D01*
X11203809Y-8926241D01*
X11212241Y-8917809D01*
X11218204Y-8907481D01*
X11221290Y-8895963D01*
X11221290Y-8884038D01*
X13035710Y-8884038D01*
X13035710Y-8895963D01*
X13038796Y-8907481D01*
X13038796Y-8907481D01*
X13044759Y-8917809D01*
X13053191Y-8926241D01*
X13059154Y-8929683D01*
X13063519Y-8932204D01*
X13075037Y-8935290D01*
X13075038Y-8935290D01*
X13086962Y-8935290D01*
X13086962Y-8935290D01*
X13098481Y-8932204D01*
X13108809Y-8926241D01*
X13117241Y-8917809D01*
X13123204Y-8907481D01*
X13126290Y-8895963D01*
X13126290Y-8884038D01*
X13797710Y-8884038D01*
X13797710Y-8895963D01*
X13800796Y-8907481D01*
X13800796Y-8907481D01*
X13806759Y-8917809D01*
X13815191Y-8926241D01*
X13821154Y-8929683D01*
X13825519Y-8932204D01*
X13837037Y-8935290D01*
X13837038Y-8935290D01*
X13848962Y-8935290D01*
X13848962Y-8935290D01*
X13860481Y-8932204D01*
X13870809Y-8926241D01*
X13879241Y-8917809D01*
X13885204Y-8907481D01*
X13888290Y-8895963D01*
X13888290Y-8884038D01*
X13885204Y-8872519D01*
X13884783Y-8871790D01*
X13879241Y-8862191D01*
X13870809Y-8853759D01*
X13860481Y-8847796D01*
X13848962Y-8844710D01*
X13837037Y-8844710D01*
X13828398Y-8847025D01*
X13825519Y-8847796D01*
X13825518Y-8847796D01*
X13815191Y-8853759D01*
X13806759Y-8862191D01*
X13800796Y-8872519D01*
X13800796Y-8872519D01*
X13800796Y-8872519D01*
X13797710Y-8884038D01*
X13126290Y-8884038D01*
X13123204Y-8872519D01*
X13122783Y-8871790D01*
X13117241Y-8862191D01*
X13108809Y-8853759D01*
X13098481Y-8847796D01*
X13086962Y-8844710D01*
X13075037Y-8844710D01*
X13066398Y-8847025D01*
X13063519Y-8847796D01*
X13063518Y-8847796D01*
X13053191Y-8853759D01*
X13044759Y-8862191D01*
X13038796Y-8872519D01*
X13038796Y-8872519D01*
X13038796Y-8872519D01*
X13035710Y-8884038D01*
X11221290Y-8884038D01*
X11218204Y-8872519D01*
X11217783Y-8871790D01*
X11212241Y-8862191D01*
X11203809Y-8853759D01*
X11193481Y-8847796D01*
X11181963Y-8844710D01*
X11170038Y-8844710D01*
X11161398Y-8847025D01*
X11158519Y-8847796D01*
X11158519Y-8847796D01*
X11148191Y-8853759D01*
X11139759Y-8862191D01*
X11133796Y-8872519D01*
X11133796Y-8872519D01*
X11133796Y-8872519D01*
X11130710Y-8884038D01*
X10332290Y-8884038D01*
X10329204Y-8872519D01*
X10328783Y-8871790D01*
X10323241Y-8862191D01*
X10314809Y-8853759D01*
X10304481Y-8847796D01*
X10292963Y-8844710D01*
X10281038Y-8844710D01*
X10272398Y-8847025D01*
X10269519Y-8847796D01*
X10269519Y-8847796D01*
X10259191Y-8853759D01*
X10250759Y-8862191D01*
X10244796Y-8872519D01*
X10244796Y-8872519D01*
X10244796Y-8872519D01*
X10241710Y-8884038D01*
X10162550Y-8884038D01*
X10162550Y-8820538D01*
X10686210Y-8820538D01*
X10686210Y-8832463D01*
X10689296Y-8843981D01*
X10689296Y-8843981D01*
X10695259Y-8854309D01*
X10703691Y-8862741D01*
X10709654Y-8866183D01*
X10714019Y-8868704D01*
X10725538Y-8871790D01*
X10725538Y-8871790D01*
X10737462Y-8871790D01*
X10737463Y-8871790D01*
X10748981Y-8868704D01*
X10759309Y-8862741D01*
X10767741Y-8854309D01*
X10773704Y-8843981D01*
X10776790Y-8832463D01*
X10776790Y-8820538D01*
X11829210Y-8820538D01*
X11829210Y-8832463D01*
X11832296Y-8843981D01*
X11832296Y-8843981D01*
X11838259Y-8854309D01*
X11846691Y-8862741D01*
X11852654Y-8866183D01*
X11857019Y-8868704D01*
X11868537Y-8871790D01*
X11868538Y-8871790D01*
X11880462Y-8871790D01*
X11880462Y-8871790D01*
X11891981Y-8868704D01*
X11902309Y-8862741D01*
X11910741Y-8854309D01*
X11916704Y-8843981D01*
X11919790Y-8832463D01*
X11919790Y-8820538D01*
X11916704Y-8809019D01*
X11916283Y-8808290D01*
X11910741Y-8798691D01*
X11902309Y-8790259D01*
X11891981Y-8784296D01*
X11880462Y-8781210D01*
X11868537Y-8781210D01*
X11859898Y-8783525D01*
X11857019Y-8784296D01*
X11857018Y-8784296D01*
X11846691Y-8790259D01*
X11838259Y-8798691D01*
X11832296Y-8809019D01*
X11832296Y-8809019D01*
X11832296Y-8809019D01*
X11829210Y-8820538D01*
X10776790Y-8820538D01*
X10773704Y-8809019D01*
X10773283Y-8808290D01*
X10767741Y-8798691D01*
X10759309Y-8790259D01*
X10748981Y-8784296D01*
X10737463Y-8781210D01*
X10725538Y-8781210D01*
X10716898Y-8783525D01*
X10714019Y-8784296D01*
X10714019Y-8784296D01*
X10703691Y-8790259D01*
X10695259Y-8798691D01*
X10689296Y-8809019D01*
X10689296Y-8809019D01*
X10689296Y-8809019D01*
X10686210Y-8820538D01*
X10162550Y-8820538D01*
X10162550Y-8757038D01*
X10241710Y-8757038D01*
X10241710Y-8768963D01*
X10244796Y-8780481D01*
X10244796Y-8780481D01*
X10250759Y-8790809D01*
X10259191Y-8799241D01*
X10265154Y-8802683D01*
X10269519Y-8805204D01*
X10281038Y-8808290D01*
X10281038Y-8808290D01*
X10292962Y-8808290D01*
X10292963Y-8808290D01*
X10304481Y-8805204D01*
X10314809Y-8799241D01*
X10323241Y-8790809D01*
X10329204Y-8780481D01*
X10332290Y-8768963D01*
X10332290Y-8757038D01*
X12273710Y-8757038D01*
X12273710Y-8768963D01*
X12276796Y-8780481D01*
X12276796Y-8780481D01*
X12282759Y-8790809D01*
X12291191Y-8799241D01*
X12297154Y-8802683D01*
X12301519Y-8805204D01*
X12313037Y-8808290D01*
X12313038Y-8808290D01*
X12324962Y-8808290D01*
X12324962Y-8808290D01*
X12336481Y-8805204D01*
X12346809Y-8799241D01*
X12355241Y-8790809D01*
X12361204Y-8780481D01*
X12364290Y-8768963D01*
X12364290Y-8757038D01*
X14115210Y-8757038D01*
X14115210Y-8768963D01*
X14118296Y-8780481D01*
X14118296Y-8780481D01*
X14124259Y-8790809D01*
X14132691Y-8799241D01*
X14138654Y-8802683D01*
X14143019Y-8805204D01*
X14154537Y-8808290D01*
X14154538Y-8808290D01*
X14166462Y-8808290D01*
X14166462Y-8808290D01*
X14177981Y-8805204D01*
X14188309Y-8799241D01*
X14196741Y-8790809D01*
X14202704Y-8780481D01*
X14205790Y-8768963D01*
X14205790Y-8757038D01*
X14202704Y-8745519D01*
X14202703Y-8745519D01*
X14196741Y-8735191D01*
X14188309Y-8726759D01*
X14177981Y-8720796D01*
X14166462Y-8717710D01*
X14154537Y-8717710D01*
X14145898Y-8720025D01*
X14143019Y-8720796D01*
X14143018Y-8720796D01*
X14132691Y-8726759D01*
X14124259Y-8735191D01*
X14118296Y-8745519D01*
X14118296Y-8745519D01*
X14118296Y-8745519D01*
X14115210Y-8757038D01*
X12364290Y-8757038D01*
X12361204Y-8745519D01*
X12361203Y-8745519D01*
X12355241Y-8735191D01*
X12346809Y-8726759D01*
X12336481Y-8720796D01*
X12324962Y-8717710D01*
X12313037Y-8717710D01*
X12304398Y-8720025D01*
X12301519Y-8720796D01*
X12301518Y-8720796D01*
X12291191Y-8726759D01*
X12282759Y-8735191D01*
X12276796Y-8745519D01*
X12276796Y-8745519D01*
X12276796Y-8745519D01*
X12273710Y-8757038D01*
X10332290Y-8757038D01*
X10329204Y-8745519D01*
X10329204Y-8745519D01*
X10323241Y-8735191D01*
X10314809Y-8726759D01*
X10304481Y-8720796D01*
X10292963Y-8717710D01*
X10281038Y-8717710D01*
X10272398Y-8720025D01*
X10269519Y-8720796D01*
X10269519Y-8720796D01*
X10259191Y-8726759D01*
X10250759Y-8735191D01*
X10244796Y-8745519D01*
X10244796Y-8745519D01*
X10244796Y-8745519D01*
X10241710Y-8757038D01*
X10162550Y-8757038D01*
X10162550Y-8594708D01*
X10730210Y-8594708D01*
X10730210Y-8607292D01*
X10733218Y-8618519D01*
X10733467Y-8619446D01*
X10733467Y-8619447D01*
X10739758Y-8630344D01*
X10748656Y-8639242D01*
X10759553Y-8645533D01*
X10759553Y-8645533D01*
X10759554Y-8645533D01*
X10771708Y-8648790D01*
X10771709Y-8648790D01*
X10784291Y-8648790D01*
X10784292Y-8648790D01*
X10796446Y-8645533D01*
X10807344Y-8639242D01*
X10816242Y-8630344D01*
X10816418Y-8630038D01*
X12146710Y-8630038D01*
X12146710Y-8641963D01*
X12148539Y-8648790D01*
X12149796Y-8653481D01*
X12149796Y-8653481D01*
X12155759Y-8663809D01*
X12164191Y-8672241D01*
X12170154Y-8675683D01*
X12174519Y-8678204D01*
X12186037Y-8681290D01*
X12186038Y-8681290D01*
X12197962Y-8681290D01*
X12197962Y-8681290D01*
X12209481Y-8678204D01*
X12219809Y-8672241D01*
X12228241Y-8663809D01*
X12234204Y-8653481D01*
X12237290Y-8641963D01*
X12237290Y-8630038D01*
X12273710Y-8630038D01*
X12273710Y-8641963D01*
X12275539Y-8648790D01*
X12276796Y-8653481D01*
X12276796Y-8653481D01*
X12282759Y-8663809D01*
X12291191Y-8672241D01*
X12297154Y-8675683D01*
X12301519Y-8678204D01*
X12313037Y-8681290D01*
X12313038Y-8681290D01*
X12324962Y-8681290D01*
X12324962Y-8681290D01*
X12336481Y-8678204D01*
X12346809Y-8672241D01*
X12355241Y-8663809D01*
X12361204Y-8653481D01*
X12364290Y-8641963D01*
X12364290Y-8630038D01*
X12361204Y-8618519D01*
X12360783Y-8617790D01*
X12355241Y-8608191D01*
X12346809Y-8599759D01*
X12336481Y-8593796D01*
X12324962Y-8590710D01*
X12313037Y-8590710D01*
X12304398Y-8593025D01*
X12301519Y-8593796D01*
X12301518Y-8593796D01*
X12291191Y-8599759D01*
X12282759Y-8608191D01*
X12276796Y-8618519D01*
X12276796Y-8618519D01*
X12275768Y-8622358D01*
X12273710Y-8630038D01*
X12237290Y-8630038D01*
X12234204Y-8618519D01*
X12233783Y-8617790D01*
X12228241Y-8608191D01*
X12219809Y-8599759D01*
X12209481Y-8593796D01*
X12197962Y-8590710D01*
X12186037Y-8590710D01*
X12177398Y-8593025D01*
X12174519Y-8593796D01*
X12174518Y-8593796D01*
X12164191Y-8599759D01*
X12155759Y-8608191D01*
X12149796Y-8618519D01*
X12149796Y-8618519D01*
X12148768Y-8622358D01*
X12146710Y-8630038D01*
X10816418Y-8630038D01*
X10822533Y-8619446D01*
X10825790Y-8607292D01*
X10825790Y-8594708D01*
X10822533Y-8582554D01*
X10822533Y-8582553D01*
X10822533Y-8582553D01*
X10816242Y-8571656D01*
X10811123Y-8566538D01*
X12845210Y-8566538D01*
X12845210Y-8578463D01*
X12848296Y-8589981D01*
X12848296Y-8589981D01*
X12854259Y-8600309D01*
X12862691Y-8608741D01*
X12868654Y-8612183D01*
X12873019Y-8614704D01*
X12884537Y-8617790D01*
X12884538Y-8617790D01*
X12896462Y-8617790D01*
X12896462Y-8617790D01*
X12907981Y-8614704D01*
X12918309Y-8608741D01*
X12926741Y-8600309D01*
X12932704Y-8589981D01*
X12935790Y-8578463D01*
X12935790Y-8566538D01*
X12932704Y-8555019D01*
X12932283Y-8554290D01*
X12926741Y-8544691D01*
X12918309Y-8536259D01*
X12907981Y-8530296D01*
X12896462Y-8527210D01*
X12884537Y-8527210D01*
X12875898Y-8529525D01*
X12873019Y-8530296D01*
X12873018Y-8530296D01*
X12862691Y-8536259D01*
X12854259Y-8544691D01*
X12848296Y-8555019D01*
X12848296Y-8555019D01*
X12848296Y-8555019D01*
X12845210Y-8566538D01*
X10811123Y-8566538D01*
X10807344Y-8562758D01*
X10796447Y-8556467D01*
X10796446Y-8556467D01*
X10796446Y-8556467D01*
X10784292Y-8553210D01*
X10771708Y-8553210D01*
X10759554Y-8556467D01*
X10759553Y-8556467D01*
X10748656Y-8562758D01*
X10739758Y-8571656D01*
X10733467Y-8582553D01*
X10733467Y-8582554D01*
X10730210Y-8594708D01*
X10162550Y-8594708D01*
X10162550Y-8451569D01*
X10317710Y-8451569D01*
X10317710Y-8464431D01*
X10319367Y-8472759D01*
X10320219Y-8477044D01*
X10325141Y-8488926D01*
X10332286Y-8499620D01*
X10332286Y-8499620D01*
X10332286Y-8499620D01*
X10341380Y-8508714D01*
X10341380Y-8508714D01*
X10341380Y-8508714D01*
X10352074Y-8515859D01*
X10363956Y-8520781D01*
X10371524Y-8522286D01*
X10376569Y-8523290D01*
X10376570Y-8523290D01*
X10449431Y-8523290D01*
X10453635Y-8522454D01*
X10462044Y-8520781D01*
X10473926Y-8515859D01*
X10484620Y-8508714D01*
X10493714Y-8499620D01*
X10500859Y-8488926D01*
X10505781Y-8477044D01*
X10508290Y-8464431D01*
X10508290Y-8451570D01*
X10508290Y-8451569D01*
X10710710Y-8451569D01*
X10710710Y-8464431D01*
X10712367Y-8472759D01*
X10713219Y-8477044D01*
X10718141Y-8488926D01*
X10725286Y-8499620D01*
X10725286Y-8499620D01*
X10725286Y-8499620D01*
X10734380Y-8508714D01*
X10734380Y-8508714D01*
X10734380Y-8508714D01*
X10745074Y-8515859D01*
X10756956Y-8520781D01*
X10764524Y-8522286D01*
X10769569Y-8523290D01*
X10769570Y-8523290D01*
X10892431Y-8523290D01*
X10896635Y-8522454D01*
X10905044Y-8520781D01*
X10916926Y-8515859D01*
X10927620Y-8508714D01*
X10933296Y-8503038D01*
X12464210Y-8503038D01*
X12464210Y-8514963D01*
X12464450Y-8515859D01*
X12467296Y-8526481D01*
X12467296Y-8526481D01*
X12473259Y-8536809D01*
X12481691Y-8545241D01*
X12487654Y-8548683D01*
X12492019Y-8551204D01*
X12503537Y-8554290D01*
X12503538Y-8554290D01*
X12515462Y-8554290D01*
X12515462Y-8554290D01*
X12526981Y-8551204D01*
X12537309Y-8545241D01*
X12545741Y-8536809D01*
X12551704Y-8526481D01*
X12554790Y-8514963D01*
X12554790Y-8503038D01*
X13670710Y-8503038D01*
X13670710Y-8514963D01*
X13670950Y-8515859D01*
X13673796Y-8526481D01*
X13673796Y-8526481D01*
X13679759Y-8536809D01*
X13688191Y-8545241D01*
X13694154Y-8548683D01*
X13698519Y-8551204D01*
X13710037Y-8554290D01*
X13710038Y-8554290D01*
X13721962Y-8554290D01*
X13721962Y-8554290D01*
X13733481Y-8551204D01*
X13743809Y-8545241D01*
X13752241Y-8536809D01*
X13758204Y-8526481D01*
X13761290Y-8514963D01*
X13761290Y-8503038D01*
X14115210Y-8503038D01*
X14115210Y-8514963D01*
X14115450Y-8515859D01*
X14118296Y-8526481D01*
X14118296Y-8526481D01*
X14124259Y-8536809D01*
X14132691Y-8545241D01*
X14138654Y-8548683D01*
X14143019Y-8551204D01*
X14154537Y-8554290D01*
X14154538Y-8554290D01*
X14166462Y-8554290D01*
X14166462Y-8554290D01*
X14177981Y-8551204D01*
X14188309Y-8545241D01*
X14196741Y-8536809D01*
X14202704Y-8526481D01*
X14205790Y-8514963D01*
X14205790Y-8503038D01*
X14202704Y-8491519D01*
X14202703Y-8491519D01*
X14196741Y-8481191D01*
X14188309Y-8472759D01*
X14177981Y-8466796D01*
X14166462Y-8463710D01*
X14154537Y-8463710D01*
X14145898Y-8466025D01*
X14143019Y-8466796D01*
X14143018Y-8466796D01*
X14132691Y-8472759D01*
X14124259Y-8481191D01*
X14118296Y-8491519D01*
X14118296Y-8491519D01*
X14118296Y-8491519D01*
X14115210Y-8503038D01*
X13761290Y-8503038D01*
X13758204Y-8491519D01*
X13758203Y-8491519D01*
X13752241Y-8481191D01*
X13743809Y-8472759D01*
X13733481Y-8466796D01*
X13721962Y-8463710D01*
X13710037Y-8463710D01*
X13701398Y-8466025D01*
X13698519Y-8466796D01*
X13698518Y-8466796D01*
X13688191Y-8472759D01*
X13679759Y-8481191D01*
X13673796Y-8491519D01*
X13673796Y-8491519D01*
X13673796Y-8491519D01*
X13670710Y-8503038D01*
X12554790Y-8503038D01*
X12551704Y-8491519D01*
X12551703Y-8491519D01*
X12545741Y-8481191D01*
X12537309Y-8472759D01*
X12526981Y-8466796D01*
X12515462Y-8463710D01*
X12503537Y-8463710D01*
X12494898Y-8466025D01*
X12492019Y-8466796D01*
X12492018Y-8466796D01*
X12481691Y-8472759D01*
X12473259Y-8481191D01*
X12467296Y-8491519D01*
X12467296Y-8491519D01*
X12467296Y-8491519D01*
X12464210Y-8503038D01*
X10933296Y-8503038D01*
X10936714Y-8499620D01*
X10943859Y-8488926D01*
X10948781Y-8477044D01*
X10951290Y-8464431D01*
X10951290Y-8451570D01*
X10948781Y-8438956D01*
X10943859Y-8427074D01*
X10936714Y-8416380D01*
X10936714Y-8416380D01*
X10936714Y-8416380D01*
X10927620Y-8407286D01*
X10927620Y-8407286D01*
X10927620Y-8407286D01*
X10916926Y-8400141D01*
X10915334Y-8399481D01*
X10913446Y-8398699D01*
X10905044Y-8395219D01*
X10905044Y-8395219D01*
X10905044Y-8395219D01*
X10892431Y-8392710D01*
X10892431Y-8392710D01*
X10769570Y-8392710D01*
X10769569Y-8392710D01*
X10756956Y-8395219D01*
X10756956Y-8395219D01*
X10745074Y-8400141D01*
X10734380Y-8407286D01*
X10734380Y-8407286D01*
X10725286Y-8416380D01*
X10725286Y-8416380D01*
X10718141Y-8427074D01*
X10713219Y-8438956D01*
X10713219Y-8438956D01*
X10710710Y-8451569D01*
X10508290Y-8451569D01*
X10505781Y-8438956D01*
X10500859Y-8427074D01*
X10493714Y-8416380D01*
X10493714Y-8416380D01*
X10493714Y-8416380D01*
X10484620Y-8407286D01*
X10484620Y-8407286D01*
X10484620Y-8407286D01*
X10473926Y-8400141D01*
X10472334Y-8399481D01*
X10470446Y-8398699D01*
X10462044Y-8395219D01*
X10462044Y-8395219D01*
X10462044Y-8395219D01*
X10449431Y-8392710D01*
X10449431Y-8392710D01*
X10376570Y-8392710D01*
X10376569Y-8392710D01*
X10363956Y-8395219D01*
X10363956Y-8395219D01*
X10352074Y-8400141D01*
X10341380Y-8407286D01*
X10341380Y-8407286D01*
X10332286Y-8416380D01*
X10332286Y-8416380D01*
X10325141Y-8427074D01*
X10320219Y-8438956D01*
X10320219Y-8438956D01*
X10317710Y-8451569D01*
X10162550Y-8451569D01*
X10162550Y-8376037D01*
X13734210Y-8376037D01*
X13734210Y-8387962D01*
X13736154Y-8395219D01*
X13737296Y-8399481D01*
X13737296Y-8399481D01*
X13743259Y-8409809D01*
X13751691Y-8418241D01*
X13757654Y-8421683D01*
X13762019Y-8424204D01*
X13773537Y-8427290D01*
X13773538Y-8427290D01*
X13785462Y-8427290D01*
X13785462Y-8427290D01*
X13796981Y-8424204D01*
X13807309Y-8418241D01*
X13815741Y-8409809D01*
X13821704Y-8399481D01*
X13824790Y-8387962D01*
X13824790Y-8376037D01*
X13821704Y-8364519D01*
X13821283Y-8363790D01*
X13815741Y-8354191D01*
X13807309Y-8345759D01*
X13796981Y-8339796D01*
X13785462Y-8336710D01*
X13773537Y-8336710D01*
X13764898Y-8339025D01*
X13762019Y-8339796D01*
X13762018Y-8339796D01*
X13751691Y-8345759D01*
X13743259Y-8354191D01*
X13737296Y-8364518D01*
X13737296Y-8364519D01*
X13737296Y-8364519D01*
X13734210Y-8376037D01*
X10162550Y-8376037D01*
X10162550Y-8312537D01*
X11067210Y-8312537D01*
X11067210Y-8324462D01*
X11070296Y-8335981D01*
X11070296Y-8335981D01*
X11076259Y-8346309D01*
X11084691Y-8354741D01*
X11090654Y-8358183D01*
X11095019Y-8360704D01*
X11106538Y-8363790D01*
X11106538Y-8363790D01*
X11118462Y-8363790D01*
X11118463Y-8363790D01*
X11129981Y-8360704D01*
X11140309Y-8354741D01*
X11148741Y-8346309D01*
X11154704Y-8335981D01*
X11157790Y-8324462D01*
X11157790Y-8312537D01*
X12337210Y-8312537D01*
X12337210Y-8324462D01*
X12340296Y-8335981D01*
X12340296Y-8335981D01*
X12346259Y-8346309D01*
X12354691Y-8354741D01*
X12360654Y-8358183D01*
X12365019Y-8360704D01*
X12376537Y-8363790D01*
X12376538Y-8363790D01*
X12388462Y-8363790D01*
X12388462Y-8363790D01*
X12399981Y-8360704D01*
X12410309Y-8354741D01*
X12418741Y-8346309D01*
X12424704Y-8335981D01*
X12427790Y-8324462D01*
X12427790Y-8312537D01*
X12424704Y-8301019D01*
X12424283Y-8300290D01*
X12418741Y-8290691D01*
X12410309Y-8282259D01*
X12399981Y-8276296D01*
X12388462Y-8273210D01*
X12376537Y-8273210D01*
X12367898Y-8275525D01*
X12365019Y-8276296D01*
X12365018Y-8276296D01*
X12354691Y-8282259D01*
X12346259Y-8290691D01*
X12340296Y-8301018D01*
X12340296Y-8301019D01*
X12340296Y-8301019D01*
X12337210Y-8312537D01*
X11157790Y-8312537D01*
X11154704Y-8301019D01*
X11154283Y-8300290D01*
X11148741Y-8290691D01*
X11140309Y-8282259D01*
X11129981Y-8276296D01*
X11118463Y-8273210D01*
X11106538Y-8273210D01*
X11097898Y-8275525D01*
X11095019Y-8276296D01*
X11095019Y-8276296D01*
X11084691Y-8282259D01*
X11076259Y-8290691D01*
X11070296Y-8301018D01*
X11070296Y-8301019D01*
X11070296Y-8301019D01*
X11067210Y-8312537D01*
X10162550Y-8312537D01*
X10162550Y-8249037D01*
X11384710Y-8249037D01*
X11384710Y-8260962D01*
X11387796Y-8272481D01*
X11387796Y-8272481D01*
X11393759Y-8282809D01*
X11402191Y-8291241D01*
X11408154Y-8294683D01*
X11412519Y-8297204D01*
X11424037Y-8300290D01*
X11424038Y-8300290D01*
X11435962Y-8300290D01*
X11435962Y-8300290D01*
X11447481Y-8297204D01*
X11457809Y-8291241D01*
X11466241Y-8282809D01*
X11472204Y-8272481D01*
X11475290Y-8260962D01*
X11475290Y-8249037D01*
X11892710Y-8249037D01*
X11892710Y-8260962D01*
X11895796Y-8272481D01*
X11895796Y-8272481D01*
X11901759Y-8282809D01*
X11910191Y-8291241D01*
X11916154Y-8294683D01*
X11920519Y-8297204D01*
X11932037Y-8300290D01*
X11932038Y-8300290D01*
X11943962Y-8300290D01*
X11943962Y-8300290D01*
X11955481Y-8297204D01*
X11965809Y-8291241D01*
X11974241Y-8282809D01*
X11980204Y-8272481D01*
X11983290Y-8260962D01*
X11983290Y-8249037D01*
X12019710Y-8249037D01*
X12019710Y-8260962D01*
X12022796Y-8272481D01*
X12022796Y-8272481D01*
X12028759Y-8282809D01*
X12037191Y-8291241D01*
X12043154Y-8294683D01*
X12047519Y-8297204D01*
X12059037Y-8300290D01*
X12059038Y-8300290D01*
X12070962Y-8300290D01*
X12070962Y-8300290D01*
X12082481Y-8297204D01*
X12092809Y-8291241D01*
X12101241Y-8282809D01*
X12107204Y-8272481D01*
X12110290Y-8260962D01*
X12110290Y-8249037D01*
X12146710Y-8249037D01*
X12146710Y-8260962D01*
X12149796Y-8272481D01*
X12149796Y-8272481D01*
X12155759Y-8282809D01*
X12164191Y-8291241D01*
X12170154Y-8294683D01*
X12174519Y-8297204D01*
X12186037Y-8300290D01*
X12186038Y-8300290D01*
X12197962Y-8300290D01*
X12197962Y-8300290D01*
X12209481Y-8297204D01*
X12219809Y-8291241D01*
X12228241Y-8282809D01*
X12234204Y-8272481D01*
X12237290Y-8260962D01*
X12237290Y-8249037D01*
X12845210Y-8249037D01*
X12845210Y-8260962D01*
X12848296Y-8272481D01*
X12848296Y-8272481D01*
X12854259Y-8282809D01*
X12862691Y-8291241D01*
X12868654Y-8294683D01*
X12873019Y-8297204D01*
X12884537Y-8300290D01*
X12884538Y-8300290D01*
X12896462Y-8300290D01*
X12896462Y-8300290D01*
X12907981Y-8297204D01*
X12918309Y-8291241D01*
X12926741Y-8282809D01*
X12932704Y-8272481D01*
X12935790Y-8260962D01*
X12935790Y-8249037D01*
X12932704Y-8237519D01*
X12932283Y-8236790D01*
X12926741Y-8227191D01*
X12918309Y-8218759D01*
X12907981Y-8212796D01*
X12896462Y-8209710D01*
X12884537Y-8209710D01*
X12875898Y-8212025D01*
X12873019Y-8212796D01*
X12873018Y-8212796D01*
X12862691Y-8218759D01*
X12854259Y-8227191D01*
X12848296Y-8237518D01*
X12848296Y-8237519D01*
X12848296Y-8237519D01*
X12845210Y-8249037D01*
X12237290Y-8249037D01*
X12234204Y-8237519D01*
X12233783Y-8236790D01*
X12228241Y-8227191D01*
X12219809Y-8218759D01*
X12209481Y-8212796D01*
X12197962Y-8209710D01*
X12186037Y-8209710D01*
X12177398Y-8212025D01*
X12174519Y-8212796D01*
X12174518Y-8212796D01*
X12164191Y-8218759D01*
X12155759Y-8227191D01*
X12149796Y-8237518D01*
X12149796Y-8237519D01*
X12149796Y-8237519D01*
X12146710Y-8249037D01*
X12110290Y-8249037D01*
X12107204Y-8237519D01*
X12106783Y-8236790D01*
X12101241Y-8227191D01*
X12092809Y-8218759D01*
X12082481Y-8212796D01*
X12070962Y-8209710D01*
X12059037Y-8209710D01*
X12050398Y-8212025D01*
X12047519Y-8212796D01*
X12047518Y-8212796D01*
X12037191Y-8218759D01*
X12028759Y-8227191D01*
X12022796Y-8237518D01*
X12022796Y-8237519D01*
X12022796Y-8237519D01*
X12019710Y-8249037D01*
X11983290Y-8249037D01*
X11980204Y-8237519D01*
X11979783Y-8236790D01*
X11974241Y-8227191D01*
X11965809Y-8218759D01*
X11955481Y-8212796D01*
X11943962Y-8209710D01*
X11932037Y-8209710D01*
X11923398Y-8212025D01*
X11920519Y-8212796D01*
X11920518Y-8212796D01*
X11910191Y-8218759D01*
X11901759Y-8227191D01*
X11895796Y-8237518D01*
X11895796Y-8237519D01*
X11895796Y-8237519D01*
X11892710Y-8249037D01*
X11475290Y-8249037D01*
X11472204Y-8237519D01*
X11471783Y-8236790D01*
X11466241Y-8227191D01*
X11457809Y-8218759D01*
X11447481Y-8212796D01*
X11435962Y-8209710D01*
X11424037Y-8209710D01*
X11415398Y-8212025D01*
X11412519Y-8212796D01*
X11412518Y-8212796D01*
X11402191Y-8218759D01*
X11393759Y-8227191D01*
X11387796Y-8237518D01*
X11387796Y-8237519D01*
X11387796Y-8237519D01*
X11384710Y-8249037D01*
X10162550Y-8249037D01*
X10162550Y-8185537D01*
X10241710Y-8185537D01*
X10241710Y-8197462D01*
X10244796Y-8208981D01*
X10244796Y-8208981D01*
X10250759Y-8219309D01*
X10259191Y-8227741D01*
X10265154Y-8231183D01*
X10269519Y-8233704D01*
X10281038Y-8236790D01*
X10281038Y-8236790D01*
X10292962Y-8236790D01*
X10292963Y-8236790D01*
X10304481Y-8233704D01*
X10314809Y-8227741D01*
X10323241Y-8219309D01*
X10329204Y-8208981D01*
X10332290Y-8197462D01*
X10332290Y-8185537D01*
X10329204Y-8174019D01*
X10328783Y-8173290D01*
X10323241Y-8163691D01*
X10314809Y-8155259D01*
X10304481Y-8149296D01*
X10292963Y-8146210D01*
X10281038Y-8146210D01*
X10272398Y-8148525D01*
X10269519Y-8149296D01*
X10269519Y-8149296D01*
X10259191Y-8155259D01*
X10250759Y-8163691D01*
X10244796Y-8174018D01*
X10244796Y-8174019D01*
X10244796Y-8174019D01*
X10241710Y-8185537D01*
X10162550Y-8185537D01*
X10162550Y-8122037D01*
X13162710Y-8122037D01*
X13162710Y-8133962D01*
X13165796Y-8145481D01*
X13165796Y-8145481D01*
X13171759Y-8155809D01*
X13180191Y-8164241D01*
X13186154Y-8167683D01*
X13190519Y-8170204D01*
X13202037Y-8173290D01*
X13202038Y-8173290D01*
X13213962Y-8173290D01*
X13213962Y-8173290D01*
X13225481Y-8170204D01*
X13235809Y-8164241D01*
X13244241Y-8155809D01*
X13250204Y-8145481D01*
X13253290Y-8133962D01*
X13253290Y-8122037D01*
X14369210Y-8122037D01*
X14369210Y-8133962D01*
X14372296Y-8145481D01*
X14372296Y-8145481D01*
X14378259Y-8155809D01*
X14386691Y-8164241D01*
X14392654Y-8167683D01*
X14397019Y-8170204D01*
X14408537Y-8173290D01*
X14408538Y-8173290D01*
X14420462Y-8173290D01*
X14420462Y-8173290D01*
X14431981Y-8170204D01*
X14442309Y-8164241D01*
X14450741Y-8155809D01*
X14456704Y-8145481D01*
X14459790Y-8133962D01*
X14459790Y-8122037D01*
X14456704Y-8110519D01*
X14456703Y-8110518D01*
X14450741Y-8100191D01*
X14442309Y-8091759D01*
X14431981Y-8085796D01*
X14420462Y-8082710D01*
X14408537Y-8082710D01*
X14399898Y-8085025D01*
X14397019Y-8085796D01*
X14397018Y-8085796D01*
X14386691Y-8091759D01*
X14378259Y-8100191D01*
X14372296Y-8110518D01*
X14372296Y-8110519D01*
X14372296Y-8110519D01*
X14369210Y-8122037D01*
X13253290Y-8122037D01*
X13250204Y-8110519D01*
X13250203Y-8110518D01*
X13244241Y-8100191D01*
X13235809Y-8091759D01*
X13225481Y-8085796D01*
X13213962Y-8082710D01*
X13202037Y-8082710D01*
X13193398Y-8085025D01*
X13190519Y-8085796D01*
X13190518Y-8085796D01*
X13180191Y-8091759D01*
X13171759Y-8100191D01*
X13165796Y-8110518D01*
X13165796Y-8110519D01*
X13165796Y-8110519D01*
X13162710Y-8122037D01*
X10162550Y-8122037D01*
X10162550Y-7995037D01*
X11384710Y-7995037D01*
X11384710Y-8006962D01*
X11387796Y-8018481D01*
X11387796Y-8018481D01*
X11393759Y-8028809D01*
X11402191Y-8037241D01*
X11408154Y-8040683D01*
X11412519Y-8043204D01*
X11424037Y-8046290D01*
X11424038Y-8046290D01*
X11435962Y-8046290D01*
X11435962Y-8046290D01*
X11447481Y-8043204D01*
X11457809Y-8037241D01*
X11466241Y-8028809D01*
X11472204Y-8018481D01*
X11475290Y-8006962D01*
X11475290Y-7995037D01*
X13162710Y-7995037D01*
X13162710Y-8006962D01*
X13165796Y-8018481D01*
X13165796Y-8018481D01*
X13171759Y-8028809D01*
X13180191Y-8037241D01*
X13186154Y-8040683D01*
X13190519Y-8043204D01*
X13202037Y-8046290D01*
X13202038Y-8046290D01*
X13213962Y-8046290D01*
X13213962Y-8046290D01*
X13225481Y-8043204D01*
X13235809Y-8037241D01*
X13244241Y-8028809D01*
X13250204Y-8018481D01*
X13253290Y-8006962D01*
X13253290Y-7995037D01*
X14369210Y-7995037D01*
X14369210Y-8006962D01*
X14372296Y-8018481D01*
X14372296Y-8018481D01*
X14378259Y-8028809D01*
X14386691Y-8037241D01*
X14392654Y-8040683D01*
X14397019Y-8043204D01*
X14408537Y-8046290D01*
X14408538Y-8046290D01*
X14420462Y-8046290D01*
X14420462Y-8046290D01*
X14431981Y-8043204D01*
X14442309Y-8037241D01*
X14450741Y-8028809D01*
X14456704Y-8018481D01*
X14459790Y-8006962D01*
X14459790Y-7995037D01*
X14456704Y-7983519D01*
X14456283Y-7982790D01*
X14450741Y-7973191D01*
X14442309Y-7964759D01*
X14431981Y-7958796D01*
X14420462Y-7955710D01*
X14408537Y-7955710D01*
X14399898Y-7958025D01*
X14397019Y-7958796D01*
X14397018Y-7958796D01*
X14386691Y-7964759D01*
X14378259Y-7973191D01*
X14372296Y-7983518D01*
X14372296Y-7983519D01*
X14372296Y-7983519D01*
X14369210Y-7995037D01*
X13253290Y-7995037D01*
X13250204Y-7983519D01*
X13249783Y-7982790D01*
X13244241Y-7973191D01*
X13235809Y-7964759D01*
X13225481Y-7958796D01*
X13213962Y-7955710D01*
X13202037Y-7955710D01*
X13193398Y-7958025D01*
X13190519Y-7958796D01*
X13190518Y-7958796D01*
X13180191Y-7964759D01*
X13171759Y-7973191D01*
X13165796Y-7983518D01*
X13165796Y-7983519D01*
X13165796Y-7983519D01*
X13162710Y-7995037D01*
X11475290Y-7995037D01*
X11472204Y-7983519D01*
X11471783Y-7982790D01*
X11466241Y-7973191D01*
X11457809Y-7964759D01*
X11447481Y-7958796D01*
X11435962Y-7955710D01*
X11424037Y-7955710D01*
X11415398Y-7958025D01*
X11412519Y-7958796D01*
X11412518Y-7958796D01*
X11402191Y-7964759D01*
X11393759Y-7973191D01*
X11387796Y-7983518D01*
X11387796Y-7983519D01*
X11387796Y-7983519D01*
X11384710Y-7995037D01*
X10162550Y-7995037D01*
X10162550Y-7931537D01*
X10241710Y-7931537D01*
X10241710Y-7943462D01*
X10244796Y-7954981D01*
X10244796Y-7954981D01*
X10250759Y-7965309D01*
X10259191Y-7973741D01*
X10265154Y-7977183D01*
X10269519Y-7979704D01*
X10281038Y-7982790D01*
X10281038Y-7982790D01*
X10292962Y-7982790D01*
X10292963Y-7982790D01*
X10304481Y-7979704D01*
X10314809Y-7973741D01*
X10323241Y-7965309D01*
X10329204Y-7954981D01*
X10332290Y-7943462D01*
X10332290Y-7931537D01*
X10329204Y-7920019D01*
X10328783Y-7919290D01*
X10323241Y-7909691D01*
X10314809Y-7901259D01*
X10304481Y-7895296D01*
X10292963Y-7892210D01*
X10281038Y-7892210D01*
X10272398Y-7894525D01*
X10269519Y-7895296D01*
X10269519Y-7895296D01*
X10259191Y-7901259D01*
X10250759Y-7909691D01*
X10244796Y-7920018D01*
X10244796Y-7920019D01*
X10244796Y-7920019D01*
X10241710Y-7931537D01*
X10162550Y-7931537D01*
X10162550Y-7868037D01*
X11384710Y-7868037D01*
X11384710Y-7879962D01*
X11387796Y-7891481D01*
X11387796Y-7891481D01*
X11393759Y-7901809D01*
X11402191Y-7910241D01*
X11408154Y-7913683D01*
X11412519Y-7916204D01*
X11424037Y-7919290D01*
X11424038Y-7919290D01*
X11435962Y-7919290D01*
X11435962Y-7919290D01*
X11447481Y-7916204D01*
X11457809Y-7910241D01*
X11466241Y-7901809D01*
X11472204Y-7891481D01*
X11475290Y-7879962D01*
X11475290Y-7868037D01*
X14369210Y-7868037D01*
X14369210Y-7879962D01*
X14372296Y-7891481D01*
X14372296Y-7891481D01*
X14378259Y-7901809D01*
X14386691Y-7910241D01*
X14392654Y-7913683D01*
X14397019Y-7916204D01*
X14408537Y-7919290D01*
X14408538Y-7919290D01*
X14420462Y-7919290D01*
X14420462Y-7919290D01*
X14431981Y-7916204D01*
X14442309Y-7910241D01*
X14450741Y-7901809D01*
X14456704Y-7891481D01*
X14459790Y-7879962D01*
X14459790Y-7868037D01*
X14456704Y-7856519D01*
X14456703Y-7856518D01*
X14450741Y-7846191D01*
X14442309Y-7837759D01*
X14431981Y-7831796D01*
X14420462Y-7828710D01*
X14408537Y-7828710D01*
X14399898Y-7831025D01*
X14397019Y-7831796D01*
X14397018Y-7831796D01*
X14386691Y-7837759D01*
X14378259Y-7846191D01*
X14372296Y-7856518D01*
X14372296Y-7856519D01*
X14372296Y-7856519D01*
X14369210Y-7868037D01*
X11475290Y-7868037D01*
X11472204Y-7856519D01*
X11472203Y-7856518D01*
X11466241Y-7846191D01*
X11457809Y-7837759D01*
X11447481Y-7831796D01*
X11435962Y-7828710D01*
X11424037Y-7828710D01*
X11415398Y-7831025D01*
X11412519Y-7831796D01*
X11412518Y-7831796D01*
X11402191Y-7837759D01*
X11393759Y-7846191D01*
X11387796Y-7856518D01*
X11387796Y-7856519D01*
X11387796Y-7856519D01*
X11384710Y-7868037D01*
X10162550Y-7868037D01*
X10162550Y-7493228D01*
X10162564Y-7492774D01*
X10163237Y-7481642D01*
X10163337Y-7479991D01*
X10248710Y-7479991D01*
X10248710Y-7506009D01*
X10252780Y-7531705D01*
X10252780Y-7531706D01*
X10253917Y-7535203D01*
X10260820Y-7556449D01*
X10272631Y-7579631D01*
X10275631Y-7583759D01*
X10287924Y-7600679D01*
X10287925Y-7600680D01*
X10306320Y-7619075D01*
X10306321Y-7619076D01*
X10306321Y-7619076D01*
X10327369Y-7634369D01*
X10350551Y-7646180D01*
X10375295Y-7654220D01*
X10400991Y-7658290D01*
X10400992Y-7658290D01*
X10427008Y-7658290D01*
X10427009Y-7658290D01*
X10452706Y-7654220D01*
X10477449Y-7646180D01*
X10500631Y-7634369D01*
X10521679Y-7619076D01*
X10526718Y-7614037D01*
X10686210Y-7614037D01*
X10686210Y-7625962D01*
X10688462Y-7634369D01*
X10689296Y-7637481D01*
X10689296Y-7637481D01*
X10695259Y-7647809D01*
X10703691Y-7656241D01*
X10707240Y-7658290D01*
X10714019Y-7662204D01*
X10725538Y-7665290D01*
X10725538Y-7665290D01*
X10737462Y-7665290D01*
X10737463Y-7665290D01*
X10748981Y-7662204D01*
X10759309Y-7656241D01*
X10767741Y-7647809D01*
X10773704Y-7637481D01*
X10776790Y-7625962D01*
X10776790Y-7614037D01*
X11384710Y-7614037D01*
X11384710Y-7625962D01*
X11386962Y-7634369D01*
X11387796Y-7637481D01*
X11387796Y-7637481D01*
X11393759Y-7647809D01*
X11402191Y-7656241D01*
X11405740Y-7658290D01*
X11412519Y-7662204D01*
X11424037Y-7665290D01*
X11424038Y-7665290D01*
X11435962Y-7665290D01*
X11435962Y-7665290D01*
X11447481Y-7662204D01*
X11457809Y-7656241D01*
X11466241Y-7647809D01*
X11472204Y-7637481D01*
X11475290Y-7625962D01*
X11475290Y-7614037D01*
X11472204Y-7602519D01*
X11471142Y-7600679D01*
X11466241Y-7592191D01*
X11457809Y-7583759D01*
X11447481Y-7577796D01*
X11435962Y-7574710D01*
X11424037Y-7574710D01*
X11415398Y-7577025D01*
X11412519Y-7577796D01*
X11412518Y-7577796D01*
X11402191Y-7583759D01*
X11393759Y-7592191D01*
X11387796Y-7602518D01*
X11387796Y-7602519D01*
X11387796Y-7602519D01*
X11384710Y-7614037D01*
X10776790Y-7614037D01*
X10773704Y-7602519D01*
X10772642Y-7600679D01*
X10767741Y-7592191D01*
X10759309Y-7583759D01*
X10748981Y-7577796D01*
X10737463Y-7574710D01*
X10725538Y-7574710D01*
X10716898Y-7577025D01*
X10714019Y-7577796D01*
X10714019Y-7577796D01*
X10703691Y-7583759D01*
X10695259Y-7592191D01*
X10689296Y-7602518D01*
X10689296Y-7602519D01*
X10689296Y-7602519D01*
X10686210Y-7614037D01*
X10526718Y-7614037D01*
X10532528Y-7608227D01*
X10540075Y-7600680D01*
X10540076Y-7600679D01*
X10555369Y-7579631D01*
X10567180Y-7556449D01*
X10575220Y-7531705D01*
X10579290Y-7506009D01*
X10579290Y-7487037D01*
X10686210Y-7487037D01*
X10686210Y-7498962D01*
X10688098Y-7506009D01*
X10689296Y-7510481D01*
X10689296Y-7510481D01*
X10695259Y-7520809D01*
X10703691Y-7529241D01*
X10707959Y-7531705D01*
X10714019Y-7535204D01*
X10725538Y-7538290D01*
X10725538Y-7538290D01*
X10737462Y-7538290D01*
X10737463Y-7538290D01*
X10748981Y-7535204D01*
X10759309Y-7529241D01*
X10767741Y-7520809D01*
X10773704Y-7510481D01*
X10776790Y-7498962D01*
X10776790Y-7487037D01*
X11384710Y-7487037D01*
X11384710Y-7498962D01*
X11386598Y-7506009D01*
X11387796Y-7510481D01*
X11387796Y-7510481D01*
X11393759Y-7520809D01*
X11402191Y-7529241D01*
X11406458Y-7531705D01*
X11412519Y-7535204D01*
X11424037Y-7538290D01*
X11424038Y-7538290D01*
X11435962Y-7538290D01*
X11435962Y-7538290D01*
X11447481Y-7535204D01*
X11457809Y-7529241D01*
X11466241Y-7520809D01*
X11472204Y-7510481D01*
X11475290Y-7498962D01*
X11475290Y-7487037D01*
X12654710Y-7487037D01*
X12654710Y-7498962D01*
X12656598Y-7506009D01*
X12657796Y-7510481D01*
X12657796Y-7510481D01*
X12663759Y-7520809D01*
X12672191Y-7529241D01*
X12676458Y-7531705D01*
X12682519Y-7535204D01*
X12694037Y-7538290D01*
X12694038Y-7538290D01*
X12705962Y-7538290D01*
X12705962Y-7538290D01*
X12717481Y-7535204D01*
X12727809Y-7529241D01*
X12736241Y-7520809D01*
X12742204Y-7510481D01*
X12745290Y-7498962D01*
X12745290Y-7487037D01*
X12845210Y-7487037D01*
X12845210Y-7498962D01*
X12847098Y-7506009D01*
X12848296Y-7510481D01*
X12848296Y-7510481D01*
X12854259Y-7520809D01*
X12862691Y-7529241D01*
X12866958Y-7531705D01*
X12873019Y-7535204D01*
X12884537Y-7538290D01*
X12884538Y-7538290D01*
X12896462Y-7538290D01*
X12896462Y-7538290D01*
X12907981Y-7535204D01*
X12918309Y-7529241D01*
X12926741Y-7520809D01*
X12932704Y-7510481D01*
X12935790Y-7498962D01*
X12935790Y-7487037D01*
X13035710Y-7487037D01*
X13035710Y-7498962D01*
X13037598Y-7506009D01*
X13038796Y-7510481D01*
X13038796Y-7510481D01*
X13044759Y-7520809D01*
X13053191Y-7529241D01*
X13057458Y-7531705D01*
X13063519Y-7535204D01*
X13075037Y-7538290D01*
X13075038Y-7538290D01*
X13086962Y-7538290D01*
X13086962Y-7538290D01*
X13098481Y-7535204D01*
X13108809Y-7529241D01*
X13117241Y-7520809D01*
X13123204Y-7510481D01*
X13126290Y-7498962D01*
X13126290Y-7487037D01*
X13124402Y-7479991D01*
X14185710Y-7479991D01*
X14185710Y-7506009D01*
X14189780Y-7531705D01*
X14189780Y-7531706D01*
X14190916Y-7535203D01*
X14197820Y-7556449D01*
X14209631Y-7579631D01*
X14212631Y-7583759D01*
X14224924Y-7600679D01*
X14224925Y-7600680D01*
X14243320Y-7619075D01*
X14243321Y-7619076D01*
X14243321Y-7619076D01*
X14264369Y-7634369D01*
X14287551Y-7646180D01*
X14312294Y-7654220D01*
X14337991Y-7658290D01*
X14337992Y-7658290D01*
X14364008Y-7658290D01*
X14364009Y-7658290D01*
X14389705Y-7654220D01*
X14414449Y-7646180D01*
X14437631Y-7634369D01*
X14458679Y-7619076D01*
X14477076Y-7600679D01*
X14492369Y-7579631D01*
X14504180Y-7556449D01*
X14512220Y-7531705D01*
X14516290Y-7506009D01*
X14516290Y-7479991D01*
X14512220Y-7454294D01*
X14504180Y-7429551D01*
X14492369Y-7406369D01*
X14477076Y-7385321D01*
X14477076Y-7385321D01*
X14477075Y-7385320D01*
X14458680Y-7366925D01*
X14458679Y-7366924D01*
X14437631Y-7351631D01*
X14437631Y-7351631D01*
X14437631Y-7351631D01*
X14414449Y-7339820D01*
X14414449Y-7339819D01*
X14414448Y-7339819D01*
X14389706Y-7331780D01*
X14389705Y-7331780D01*
X14364009Y-7327710D01*
X14364009Y-7327710D01*
X14337991Y-7327710D01*
X14337991Y-7327710D01*
X14312295Y-7331780D01*
X14312294Y-7331780D01*
X14287552Y-7339819D01*
X14287551Y-7339820D01*
X14287551Y-7339820D01*
X14287550Y-7339820D01*
X14287550Y-7339820D01*
X14264369Y-7351631D01*
X14243321Y-7366924D01*
X14243320Y-7366925D01*
X14224925Y-7385320D01*
X14224924Y-7385321D01*
X14209631Y-7406369D01*
X14197820Y-7429550D01*
X14197819Y-7429552D01*
X14189780Y-7454294D01*
X14189780Y-7454295D01*
X14185710Y-7479991D01*
X13124402Y-7479991D01*
X13123204Y-7475519D01*
X13123203Y-7475518D01*
X13117241Y-7465191D01*
X13108809Y-7456759D01*
X13098481Y-7450796D01*
X13095354Y-7449959D01*
X13086962Y-7447710D01*
X13075037Y-7447710D01*
X13066645Y-7449959D01*
X13063519Y-7450796D01*
X13063518Y-7450796D01*
X13053191Y-7456759D01*
X13044759Y-7465191D01*
X13038796Y-7475518D01*
X13038796Y-7475519D01*
X13038796Y-7475519D01*
X13035710Y-7487037D01*
X12935790Y-7487037D01*
X12932704Y-7475519D01*
X12932703Y-7475518D01*
X12926741Y-7465191D01*
X12918309Y-7456759D01*
X12907981Y-7450796D01*
X12904854Y-7449959D01*
X12896462Y-7447710D01*
X12884537Y-7447710D01*
X12876145Y-7449959D01*
X12873019Y-7450796D01*
X12873018Y-7450796D01*
X12862691Y-7456759D01*
X12854259Y-7465191D01*
X12848296Y-7475518D01*
X12848296Y-7475519D01*
X12848296Y-7475519D01*
X12845210Y-7487037D01*
X12745290Y-7487037D01*
X12742204Y-7475519D01*
X12742203Y-7475518D01*
X12736241Y-7465191D01*
X12727809Y-7456759D01*
X12717481Y-7450796D01*
X12714354Y-7449959D01*
X12705962Y-7447710D01*
X12694037Y-7447710D01*
X12685645Y-7449959D01*
X12682519Y-7450796D01*
X12682518Y-7450796D01*
X12672191Y-7456759D01*
X12663759Y-7465191D01*
X12657796Y-7475518D01*
X12657796Y-7475519D01*
X12657796Y-7475519D01*
X12654710Y-7487037D01*
X11475290Y-7487037D01*
X11472204Y-7475519D01*
X11472203Y-7475518D01*
X11466241Y-7465191D01*
X11457809Y-7456759D01*
X11447481Y-7450796D01*
X11444354Y-7449959D01*
X11435962Y-7447710D01*
X11424037Y-7447710D01*
X11415645Y-7449959D01*
X11412519Y-7450796D01*
X11412518Y-7450796D01*
X11402191Y-7456759D01*
X11393759Y-7465191D01*
X11387796Y-7475518D01*
X11387796Y-7475519D01*
X11387796Y-7475519D01*
X11384710Y-7487037D01*
X10776790Y-7487037D01*
X10773704Y-7475519D01*
X10773704Y-7475518D01*
X10767741Y-7465191D01*
X10759309Y-7456759D01*
X10748981Y-7450796D01*
X10745855Y-7449959D01*
X10737463Y-7447710D01*
X10725538Y-7447710D01*
X10717146Y-7449959D01*
X10714019Y-7450796D01*
X10714019Y-7450796D01*
X10703691Y-7456759D01*
X10695259Y-7465191D01*
X10689296Y-7475518D01*
X10689296Y-7475519D01*
X10689296Y-7475519D01*
X10686210Y-7487037D01*
X10579290Y-7487037D01*
X10579290Y-7479991D01*
X10575220Y-7454294D01*
X10567180Y-7429551D01*
X10555369Y-7406369D01*
X10540076Y-7385321D01*
X10540076Y-7385321D01*
X10540075Y-7385320D01*
X10521680Y-7366925D01*
X10521679Y-7366924D01*
X10500631Y-7351631D01*
X10500631Y-7351631D01*
X10500631Y-7351631D01*
X10477449Y-7339820D01*
X10477449Y-7339819D01*
X10477448Y-7339819D01*
X10452706Y-7331780D01*
X10452705Y-7331780D01*
X10427009Y-7327710D01*
X10427009Y-7327710D01*
X10400991Y-7327710D01*
X10400991Y-7327710D01*
X10375295Y-7331780D01*
X10375294Y-7331780D01*
X10350552Y-7339819D01*
X10350551Y-7339820D01*
X10350551Y-7339820D01*
X10350550Y-7339820D01*
X10350550Y-7339820D01*
X10327369Y-7351631D01*
X10306321Y-7366924D01*
X10306320Y-7366925D01*
X10287925Y-7385320D01*
X10287924Y-7385321D01*
X10272631Y-7406369D01*
X10260820Y-7429550D01*
X10260819Y-7429552D01*
X10252780Y-7454294D01*
X10252780Y-7454295D01*
X10248710Y-7479991D01*
X10163337Y-7479991D01*
X10164356Y-7463144D01*
X10164465Y-7462244D01*
X10169775Y-7433270D01*
X10169992Y-7432391D01*
X10178755Y-7404268D01*
X10179077Y-7403420D01*
X10191166Y-7376559D01*
X10191587Y-7375757D01*
X10206826Y-7350548D01*
X10207341Y-7349802D01*
X10225507Y-7326615D01*
X10226108Y-7325937D01*
X10246937Y-7305108D01*
X10247615Y-7304507D01*
X10270802Y-7286341D01*
X10271548Y-7285826D01*
X10296757Y-7270587D01*
X10297559Y-7270166D01*
X10324420Y-7258076D01*
X10325268Y-7257755D01*
X10353391Y-7248991D01*
X10354270Y-7248775D01*
X10383244Y-7243465D01*
X10384144Y-7243356D01*
X10411344Y-7241711D01*
X10413774Y-7241564D01*
X10414228Y-7241550D01*
X10414829Y-7241550D01*
X14350171Y-7241550D01*
X14350772Y-7241550D01*
X14351226Y-7241564D01*
G37*
%TD.AperFunction*%
%TD*%
M02*
