%TF.GenerationSoftware,KiCad,Pcbnew,9.0.4+dfsg-1*%
%TF.CreationDate,2025-09-16T15:35:37+08:00*%
%TF.ProjectId,stlink,73746c69-6e6b-42e6-9b69-6361645f7063,a*%
%TF.SameCoordinates,Original*%
%TF.FileFunction,Legend,Top*%
%TF.FilePolarity,Positive*%
%FSLAX45Y45*%
G04 Gerber Fmt 4.5, Leading zero omitted, Abs format (unit mm)*
G04 Created by KiCad (PCBNEW 9.0.4+dfsg-1) date 2025-09-16 15:35:37*
%MOMM*%
%LPD*%
G01*
G04 APERTURE LIST*
%ADD10C,0.150000*%
%ADD11C,0.120000*%
G04 APERTURE END LIST*
D10*
X11395110Y-10148870D02*
X11398920Y-10152679D01*
X11398920Y-10152679D02*
X11402729Y-10164108D01*
X11402729Y-10164108D02*
X11402729Y-10171727D01*
X11402729Y-10171727D02*
X11398920Y-10183155D01*
X11398920Y-10183155D02*
X11391301Y-10190774D01*
X11391301Y-10190774D02*
X11383682Y-10194584D01*
X11383682Y-10194584D02*
X11368444Y-10198394D01*
X11368444Y-10198394D02*
X11357015Y-10198394D01*
X11357015Y-10198394D02*
X11341777Y-10194584D01*
X11341777Y-10194584D02*
X11334158Y-10190774D01*
X11334158Y-10190774D02*
X11326539Y-10183155D01*
X11326539Y-10183155D02*
X11322729Y-10171727D01*
X11322729Y-10171727D02*
X11322729Y-10164108D01*
X11322729Y-10164108D02*
X11326539Y-10152679D01*
X11326539Y-10152679D02*
X11330348Y-10148870D01*
X11402729Y-10076489D02*
X11402729Y-10114584D01*
X11402729Y-10114584D02*
X11322729Y-10114584D01*
X11402729Y-10049822D02*
X11322729Y-10049822D01*
X11402729Y-10004108D02*
X11357015Y-10038394D01*
X11322729Y-10004108D02*
X11368444Y-10049822D01*
X11148730Y-10194584D02*
X11068730Y-10194584D01*
X11068730Y-10194584D02*
X11068730Y-10175536D01*
X11068730Y-10175536D02*
X11072539Y-10164108D01*
X11072539Y-10164108D02*
X11080158Y-10156489D01*
X11080158Y-10156489D02*
X11087777Y-10152679D01*
X11087777Y-10152679D02*
X11103015Y-10148870D01*
X11103015Y-10148870D02*
X11114444Y-10148870D01*
X11114444Y-10148870D02*
X11129682Y-10152679D01*
X11129682Y-10152679D02*
X11137301Y-10156489D01*
X11137301Y-10156489D02*
X11144920Y-10164108D01*
X11144920Y-10164108D02*
X11148730Y-10175536D01*
X11148730Y-10175536D02*
X11148730Y-10194584D01*
X11148730Y-10114584D02*
X11068730Y-10114584D01*
X11068730Y-10061251D02*
X11068730Y-10046013D01*
X11068730Y-10046013D02*
X11072539Y-10038394D01*
X11072539Y-10038394D02*
X11080158Y-10030774D01*
X11080158Y-10030774D02*
X11095396Y-10026965D01*
X11095396Y-10026965D02*
X11122063Y-10026965D01*
X11122063Y-10026965D02*
X11137301Y-10030774D01*
X11137301Y-10030774D02*
X11144920Y-10038394D01*
X11144920Y-10038394D02*
X11148730Y-10046013D01*
X11148730Y-10046013D02*
X11148730Y-10061251D01*
X11148730Y-10061251D02*
X11144920Y-10068870D01*
X11144920Y-10068870D02*
X11137301Y-10076489D01*
X11137301Y-10076489D02*
X11122063Y-10080298D01*
X11122063Y-10080298D02*
X11095396Y-10080298D01*
X11095396Y-10080298D02*
X11080158Y-10076489D01*
X11080158Y-10076489D02*
X11072539Y-10068870D01*
X11072539Y-10068870D02*
X11068730Y-10061251D01*
X11576729Y-10202203D02*
X11576729Y-10152679D01*
X11576729Y-10152679D02*
X11607206Y-10179346D01*
X11607206Y-10179346D02*
X11607206Y-10167917D01*
X11607206Y-10167917D02*
X11611015Y-10160298D01*
X11611015Y-10160298D02*
X11614825Y-10156489D01*
X11614825Y-10156489D02*
X11622444Y-10152679D01*
X11622444Y-10152679D02*
X11641491Y-10152679D01*
X11641491Y-10152679D02*
X11649110Y-10156489D01*
X11649110Y-10156489D02*
X11652920Y-10160298D01*
X11652920Y-10160298D02*
X11656729Y-10167917D01*
X11656729Y-10167917D02*
X11656729Y-10190774D01*
X11656729Y-10190774D02*
X11652920Y-10198394D01*
X11652920Y-10198394D02*
X11649110Y-10202203D01*
X11576729Y-10129822D02*
X11656729Y-10103155D01*
X11656729Y-10103155D02*
X11576729Y-10076489D01*
X11576729Y-10057441D02*
X11576729Y-10007917D01*
X11576729Y-10007917D02*
X11607206Y-10034584D01*
X11607206Y-10034584D02*
X11607206Y-10023155D01*
X11607206Y-10023155D02*
X11611015Y-10015536D01*
X11611015Y-10015536D02*
X11614825Y-10011727D01*
X11614825Y-10011727D02*
X11622444Y-10007917D01*
X11622444Y-10007917D02*
X11641491Y-10007917D01*
X11641491Y-10007917D02*
X11649110Y-10011727D01*
X11649110Y-10011727D02*
X11652920Y-10015536D01*
X11652920Y-10015536D02*
X11656729Y-10023155D01*
X11656729Y-10023155D02*
X11656729Y-10046013D01*
X11656729Y-10046013D02*
X11652920Y-10053632D01*
X11652920Y-10053632D02*
X11649110Y-10057441D01*
X10591167Y-7966110D02*
X10587357Y-7969920D01*
X10587357Y-7969920D02*
X10575929Y-7973729D01*
X10575929Y-7973729D02*
X10568310Y-7973729D01*
X10568310Y-7973729D02*
X10556881Y-7969920D01*
X10556881Y-7969920D02*
X10549262Y-7962301D01*
X10549262Y-7962301D02*
X10545452Y-7954682D01*
X10545452Y-7954682D02*
X10541643Y-7939444D01*
X10541643Y-7939444D02*
X10541643Y-7928015D01*
X10541643Y-7928015D02*
X10545452Y-7912777D01*
X10545452Y-7912777D02*
X10549262Y-7905158D01*
X10549262Y-7905158D02*
X10556881Y-7897539D01*
X10556881Y-7897539D02*
X10568310Y-7893729D01*
X10568310Y-7893729D02*
X10575929Y-7893729D01*
X10575929Y-7893729D02*
X10587357Y-7897539D01*
X10587357Y-7897539D02*
X10591167Y-7901348D01*
X10659738Y-7920396D02*
X10659738Y-7973729D01*
X10640691Y-7889920D02*
X10621643Y-7947063D01*
X10621643Y-7947063D02*
X10671167Y-7947063D01*
X12432667Y-7521610D02*
X12428857Y-7525420D01*
X12428857Y-7525420D02*
X12417429Y-7529229D01*
X12417429Y-7529229D02*
X12409809Y-7529229D01*
X12409809Y-7529229D02*
X12398381Y-7525420D01*
X12398381Y-7525420D02*
X12390762Y-7517801D01*
X12390762Y-7517801D02*
X12386952Y-7510182D01*
X12386952Y-7510182D02*
X12383143Y-7494944D01*
X12383143Y-7494944D02*
X12383143Y-7483515D01*
X12383143Y-7483515D02*
X12386952Y-7468277D01*
X12386952Y-7468277D02*
X12390762Y-7460658D01*
X12390762Y-7460658D02*
X12398381Y-7453039D01*
X12398381Y-7453039D02*
X12409809Y-7449229D01*
X12409809Y-7449229D02*
X12417429Y-7449229D01*
X12417429Y-7449229D02*
X12428857Y-7453039D01*
X12428857Y-7453039D02*
X12432667Y-7456848D01*
X12505048Y-7449229D02*
X12466952Y-7449229D01*
X12466952Y-7449229D02*
X12463143Y-7487325D01*
X12463143Y-7487325D02*
X12466952Y-7483515D01*
X12466952Y-7483515D02*
X12474571Y-7479706D01*
X12474571Y-7479706D02*
X12493619Y-7479706D01*
X12493619Y-7479706D02*
X12501238Y-7483515D01*
X12501238Y-7483515D02*
X12505048Y-7487325D01*
X12505048Y-7487325D02*
X12508857Y-7494944D01*
X12508857Y-7494944D02*
X12508857Y-7513991D01*
X12508857Y-7513991D02*
X12505048Y-7521610D01*
X12505048Y-7521610D02*
X12501238Y-7525420D01*
X12501238Y-7525420D02*
X12493619Y-7529229D01*
X12493619Y-7529229D02*
X12474571Y-7529229D01*
X12474571Y-7529229D02*
X12466952Y-7525420D01*
X12466952Y-7525420D02*
X12463143Y-7521610D01*
X11339229Y-9347833D02*
X11301134Y-9374500D01*
X11339229Y-9393548D02*
X11259229Y-9393548D01*
X11259229Y-9393548D02*
X11259229Y-9363071D01*
X11259229Y-9363071D02*
X11263039Y-9355452D01*
X11263039Y-9355452D02*
X11266848Y-9351643D01*
X11266848Y-9351643D02*
X11274468Y-9347833D01*
X11274468Y-9347833D02*
X11285896Y-9347833D01*
X11285896Y-9347833D02*
X11293515Y-9351643D01*
X11293515Y-9351643D02*
X11297325Y-9355452D01*
X11297325Y-9355452D02*
X11301134Y-9363071D01*
X11301134Y-9363071D02*
X11301134Y-9393548D01*
X11259229Y-9275452D02*
X11259229Y-9313548D01*
X11259229Y-9313548D02*
X11297325Y-9317357D01*
X11297325Y-9317357D02*
X11293515Y-9313548D01*
X11293515Y-9313548D02*
X11289706Y-9305929D01*
X11289706Y-9305929D02*
X11289706Y-9286881D01*
X11289706Y-9286881D02*
X11293515Y-9279262D01*
X11293515Y-9279262D02*
X11297325Y-9275452D01*
X11297325Y-9275452D02*
X11304944Y-9271643D01*
X11304944Y-9271643D02*
X11323991Y-9271643D01*
X11323991Y-9271643D02*
X11331610Y-9275452D01*
X11331610Y-9275452D02*
X11335420Y-9279262D01*
X11335420Y-9279262D02*
X11339229Y-9286881D01*
X11339229Y-9286881D02*
X11339229Y-9305929D01*
X11339229Y-9305929D02*
X11335420Y-9313548D01*
X11335420Y-9313548D02*
X11331610Y-9317357D01*
X12925167Y-9744110D02*
X12921357Y-9747920D01*
X12921357Y-9747920D02*
X12909929Y-9751730D01*
X12909929Y-9751730D02*
X12902309Y-9751730D01*
X12902309Y-9751730D02*
X12890881Y-9747920D01*
X12890881Y-9747920D02*
X12883262Y-9740301D01*
X12883262Y-9740301D02*
X12879452Y-9732682D01*
X12879452Y-9732682D02*
X12875643Y-9717444D01*
X12875643Y-9717444D02*
X12875643Y-9706015D01*
X12875643Y-9706015D02*
X12879452Y-9690777D01*
X12879452Y-9690777D02*
X12883262Y-9683158D01*
X12883262Y-9683158D02*
X12890881Y-9675539D01*
X12890881Y-9675539D02*
X12902309Y-9671730D01*
X12902309Y-9671730D02*
X12909929Y-9671730D01*
X12909929Y-9671730D02*
X12921357Y-9675539D01*
X12921357Y-9675539D02*
X12925167Y-9679349D01*
X12993738Y-9671730D02*
X12978500Y-9671730D01*
X12978500Y-9671730D02*
X12970881Y-9675539D01*
X12970881Y-9675539D02*
X12967071Y-9679349D01*
X12967071Y-9679349D02*
X12959452Y-9690777D01*
X12959452Y-9690777D02*
X12955643Y-9706015D01*
X12955643Y-9706015D02*
X12955643Y-9736491D01*
X12955643Y-9736491D02*
X12959452Y-9744110D01*
X12959452Y-9744110D02*
X12963262Y-9747920D01*
X12963262Y-9747920D02*
X12970881Y-9751730D01*
X12970881Y-9751730D02*
X12986119Y-9751730D01*
X12986119Y-9751730D02*
X12993738Y-9747920D01*
X12993738Y-9747920D02*
X12997548Y-9744110D01*
X12997548Y-9744110D02*
X13001357Y-9736491D01*
X13001357Y-9736491D02*
X13001357Y-9717444D01*
X13001357Y-9717444D02*
X12997548Y-9709825D01*
X12997548Y-9709825D02*
X12993738Y-9706015D01*
X12993738Y-9706015D02*
X12986119Y-9702206D01*
X12986119Y-9702206D02*
X12970881Y-9702206D01*
X12970881Y-9702206D02*
X12963262Y-9706015D01*
X12963262Y-9706015D02*
X12959452Y-9709825D01*
X12959452Y-9709825D02*
X12955643Y-9717444D01*
X12940667Y-8220110D02*
X12936857Y-8223920D01*
X12936857Y-8223920D02*
X12925429Y-8227729D01*
X12925429Y-8227729D02*
X12917809Y-8227729D01*
X12917809Y-8227729D02*
X12906381Y-8223920D01*
X12906381Y-8223920D02*
X12898762Y-8216301D01*
X12898762Y-8216301D02*
X12894952Y-8208682D01*
X12894952Y-8208682D02*
X12891143Y-8193444D01*
X12891143Y-8193444D02*
X12891143Y-8182015D01*
X12891143Y-8182015D02*
X12894952Y-8166777D01*
X12894952Y-8166777D02*
X12898762Y-8159158D01*
X12898762Y-8159158D02*
X12906381Y-8151539D01*
X12906381Y-8151539D02*
X12917809Y-8147729D01*
X12917809Y-8147729D02*
X12925429Y-8147729D01*
X12925429Y-8147729D02*
X12936857Y-8151539D01*
X12936857Y-8151539D02*
X12940667Y-8155348D01*
X12967333Y-8147729D02*
X13020667Y-8147729D01*
X13020667Y-8147729D02*
X12986381Y-8227729D01*
X11416667Y-8474110D02*
X11412857Y-8477920D01*
X11412857Y-8477920D02*
X11401429Y-8481730D01*
X11401429Y-8481730D02*
X11393809Y-8481730D01*
X11393809Y-8481730D02*
X11382381Y-8477920D01*
X11382381Y-8477920D02*
X11374762Y-8470301D01*
X11374762Y-8470301D02*
X11370952Y-8462682D01*
X11370952Y-8462682D02*
X11367143Y-8447444D01*
X11367143Y-8447444D02*
X11367143Y-8436015D01*
X11367143Y-8436015D02*
X11370952Y-8420777D01*
X11370952Y-8420777D02*
X11374762Y-8413158D01*
X11374762Y-8413158D02*
X11382381Y-8405539D01*
X11382381Y-8405539D02*
X11393809Y-8401730D01*
X11393809Y-8401730D02*
X11401429Y-8401730D01*
X11401429Y-8401730D02*
X11412857Y-8405539D01*
X11412857Y-8405539D02*
X11416667Y-8409349D01*
X11462381Y-8436015D02*
X11454762Y-8432206D01*
X11454762Y-8432206D02*
X11450952Y-8428396D01*
X11450952Y-8428396D02*
X11447143Y-8420777D01*
X11447143Y-8420777D02*
X11447143Y-8416968D01*
X11447143Y-8416968D02*
X11450952Y-8409349D01*
X11450952Y-8409349D02*
X11454762Y-8405539D01*
X11454762Y-8405539D02*
X11462381Y-8401730D01*
X11462381Y-8401730D02*
X11477619Y-8401730D01*
X11477619Y-8401730D02*
X11485238Y-8405539D01*
X11485238Y-8405539D02*
X11489048Y-8409349D01*
X11489048Y-8409349D02*
X11492857Y-8416968D01*
X11492857Y-8416968D02*
X11492857Y-8420777D01*
X11492857Y-8420777D02*
X11489048Y-8428396D01*
X11489048Y-8428396D02*
X11485238Y-8432206D01*
X11485238Y-8432206D02*
X11477619Y-8436015D01*
X11477619Y-8436015D02*
X11462381Y-8436015D01*
X11462381Y-8436015D02*
X11454762Y-8439825D01*
X11454762Y-8439825D02*
X11450952Y-8443634D01*
X11450952Y-8443634D02*
X11447143Y-8451253D01*
X11447143Y-8451253D02*
X11447143Y-8466491D01*
X11447143Y-8466491D02*
X11450952Y-8474110D01*
X11450952Y-8474110D02*
X11454762Y-8477920D01*
X11454762Y-8477920D02*
X11462381Y-8481730D01*
X11462381Y-8481730D02*
X11477619Y-8481730D01*
X11477619Y-8481730D02*
X11485238Y-8477920D01*
X11485238Y-8477920D02*
X11489048Y-8474110D01*
X11489048Y-8474110D02*
X11492857Y-8466491D01*
X11492857Y-8466491D02*
X11492857Y-8451253D01*
X11492857Y-8451253D02*
X11489048Y-8443634D01*
X11489048Y-8443634D02*
X11485238Y-8439825D01*
X11485238Y-8439825D02*
X11477619Y-8436015D01*
X11543667Y-9490110D02*
X11539857Y-9493920D01*
X11539857Y-9493920D02*
X11528429Y-9497730D01*
X11528429Y-9497730D02*
X11520809Y-9497730D01*
X11520809Y-9497730D02*
X11509381Y-9493920D01*
X11509381Y-9493920D02*
X11501762Y-9486301D01*
X11501762Y-9486301D02*
X11497952Y-9478682D01*
X11497952Y-9478682D02*
X11494143Y-9463444D01*
X11494143Y-9463444D02*
X11494143Y-9452015D01*
X11494143Y-9452015D02*
X11497952Y-9436777D01*
X11497952Y-9436777D02*
X11501762Y-9429158D01*
X11501762Y-9429158D02*
X11509381Y-9421539D01*
X11509381Y-9421539D02*
X11520809Y-9417730D01*
X11520809Y-9417730D02*
X11528429Y-9417730D01*
X11528429Y-9417730D02*
X11539857Y-9421539D01*
X11539857Y-9421539D02*
X11543667Y-9425349D01*
X11581762Y-9497730D02*
X11597000Y-9497730D01*
X11597000Y-9497730D02*
X11604619Y-9493920D01*
X11604619Y-9493920D02*
X11608429Y-9490110D01*
X11608429Y-9490110D02*
X11616048Y-9478682D01*
X11616048Y-9478682D02*
X11619857Y-9463444D01*
X11619857Y-9463444D02*
X11619857Y-9432968D01*
X11619857Y-9432968D02*
X11616048Y-9425349D01*
X11616048Y-9425349D02*
X11612238Y-9421539D01*
X11612238Y-9421539D02*
X11604619Y-9417730D01*
X11604619Y-9417730D02*
X11589381Y-9417730D01*
X11589381Y-9417730D02*
X11581762Y-9421539D01*
X11581762Y-9421539D02*
X11577952Y-9425349D01*
X11577952Y-9425349D02*
X11574143Y-9432968D01*
X11574143Y-9432968D02*
X11574143Y-9452015D01*
X11574143Y-9452015D02*
X11577952Y-9459634D01*
X11577952Y-9459634D02*
X11581762Y-9463444D01*
X11581762Y-9463444D02*
X11589381Y-9467253D01*
X11589381Y-9467253D02*
X11604619Y-9467253D01*
X11604619Y-9467253D02*
X11612238Y-9463444D01*
X11612238Y-9463444D02*
X11616048Y-9459634D01*
X11616048Y-9459634D02*
X11619857Y-9452015D01*
X13752833Y-7730229D02*
X13752833Y-7787372D01*
X13752833Y-7787372D02*
X13749024Y-7798801D01*
X13749024Y-7798801D02*
X13741405Y-7806420D01*
X13741405Y-7806420D02*
X13729976Y-7810229D01*
X13729976Y-7810229D02*
X13722357Y-7810229D01*
X13787119Y-7737848D02*
X13790929Y-7734039D01*
X13790929Y-7734039D02*
X13798548Y-7730229D01*
X13798548Y-7730229D02*
X13817595Y-7730229D01*
X13817595Y-7730229D02*
X13825214Y-7734039D01*
X13825214Y-7734039D02*
X13829024Y-7737848D01*
X13829024Y-7737848D02*
X13832833Y-7745468D01*
X13832833Y-7745468D02*
X13832833Y-7753087D01*
X13832833Y-7753087D02*
X13829024Y-7764515D01*
X13829024Y-7764515D02*
X13783309Y-7810229D01*
X13783309Y-7810229D02*
X13832833Y-7810229D01*
X12925167Y-9368110D02*
X12921357Y-9371920D01*
X12921357Y-9371920D02*
X12909929Y-9375730D01*
X12909929Y-9375730D02*
X12902309Y-9375730D01*
X12902309Y-9375730D02*
X12890881Y-9371920D01*
X12890881Y-9371920D02*
X12883262Y-9364301D01*
X12883262Y-9364301D02*
X12879452Y-9356682D01*
X12879452Y-9356682D02*
X12875643Y-9341444D01*
X12875643Y-9341444D02*
X12875643Y-9330015D01*
X12875643Y-9330015D02*
X12879452Y-9314777D01*
X12879452Y-9314777D02*
X12883262Y-9307158D01*
X12883262Y-9307158D02*
X12890881Y-9299539D01*
X12890881Y-9299539D02*
X12902309Y-9295730D01*
X12902309Y-9295730D02*
X12909929Y-9295730D01*
X12909929Y-9295730D02*
X12921357Y-9299539D01*
X12921357Y-9299539D02*
X12925167Y-9303349D01*
X12955643Y-9303349D02*
X12959452Y-9299539D01*
X12959452Y-9299539D02*
X12967071Y-9295730D01*
X12967071Y-9295730D02*
X12986119Y-9295730D01*
X12986119Y-9295730D02*
X12993738Y-9299539D01*
X12993738Y-9299539D02*
X12997548Y-9303349D01*
X12997548Y-9303349D02*
X13001357Y-9310968D01*
X13001357Y-9310968D02*
X13001357Y-9318587D01*
X13001357Y-9318587D02*
X12997548Y-9330015D01*
X12997548Y-9330015D02*
X12951833Y-9375730D01*
X12951833Y-9375730D02*
X13001357Y-9375730D01*
X12940667Y-8601110D02*
X12936857Y-8604920D01*
X12936857Y-8604920D02*
X12925429Y-8608730D01*
X12925429Y-8608730D02*
X12917809Y-8608730D01*
X12917809Y-8608730D02*
X12906381Y-8604920D01*
X12906381Y-8604920D02*
X12898762Y-8597301D01*
X12898762Y-8597301D02*
X12894952Y-8589682D01*
X12894952Y-8589682D02*
X12891143Y-8574444D01*
X12891143Y-8574444D02*
X12891143Y-8563015D01*
X12891143Y-8563015D02*
X12894952Y-8547777D01*
X12894952Y-8547777D02*
X12898762Y-8540158D01*
X12898762Y-8540158D02*
X12906381Y-8532539D01*
X12906381Y-8532539D02*
X12917809Y-8528730D01*
X12917809Y-8528730D02*
X12925429Y-8528730D01*
X12925429Y-8528730D02*
X12936857Y-8532539D01*
X12936857Y-8532539D02*
X12940667Y-8536349D01*
X12967333Y-8528730D02*
X13016857Y-8528730D01*
X13016857Y-8528730D02*
X12990190Y-8559206D01*
X12990190Y-8559206D02*
X13001619Y-8559206D01*
X13001619Y-8559206D02*
X13009238Y-8563015D01*
X13009238Y-8563015D02*
X13013048Y-8566825D01*
X13013048Y-8566825D02*
X13016857Y-8574444D01*
X13016857Y-8574444D02*
X13016857Y-8593491D01*
X13016857Y-8593491D02*
X13013048Y-8601110D01*
X13013048Y-8601110D02*
X13009238Y-8604920D01*
X13009238Y-8604920D02*
X13001619Y-8608730D01*
X13001619Y-8608730D02*
X12978762Y-8608730D01*
X12978762Y-8608730D02*
X12971143Y-8604920D01*
X12971143Y-8604920D02*
X12967333Y-8601110D01*
X10291452Y-9561230D02*
X10291452Y-9481230D01*
X10291452Y-9481230D02*
X10310500Y-9481230D01*
X10310500Y-9481230D02*
X10321929Y-9485039D01*
X10321929Y-9485039D02*
X10329548Y-9492658D01*
X10329548Y-9492658D02*
X10333357Y-9500277D01*
X10333357Y-9500277D02*
X10337167Y-9515515D01*
X10337167Y-9515515D02*
X10337167Y-9526944D01*
X10337167Y-9526944D02*
X10333357Y-9542182D01*
X10333357Y-9542182D02*
X10329548Y-9549801D01*
X10329548Y-9549801D02*
X10321929Y-9557420D01*
X10321929Y-9557420D02*
X10310500Y-9561230D01*
X10310500Y-9561230D02*
X10291452Y-9561230D01*
X10367643Y-9488849D02*
X10371452Y-9485039D01*
X10371452Y-9485039D02*
X10379071Y-9481230D01*
X10379071Y-9481230D02*
X10398119Y-9481230D01*
X10398119Y-9481230D02*
X10405738Y-9485039D01*
X10405738Y-9485039D02*
X10409548Y-9488849D01*
X10409548Y-9488849D02*
X10413357Y-9496468D01*
X10413357Y-9496468D02*
X10413357Y-9504087D01*
X10413357Y-9504087D02*
X10409548Y-9515515D01*
X10409548Y-9515515D02*
X10363833Y-9561230D01*
X10363833Y-9561230D02*
X10413357Y-9561230D01*
X10291452Y-10043830D02*
X10291452Y-9963830D01*
X10291452Y-9963830D02*
X10310500Y-9963830D01*
X10310500Y-9963830D02*
X10321929Y-9967639D01*
X10321929Y-9967639D02*
X10329548Y-9975258D01*
X10329548Y-9975258D02*
X10333357Y-9982877D01*
X10333357Y-9982877D02*
X10337167Y-9998115D01*
X10337167Y-9998115D02*
X10337167Y-10009544D01*
X10337167Y-10009544D02*
X10333357Y-10024782D01*
X10333357Y-10024782D02*
X10329548Y-10032401D01*
X10329548Y-10032401D02*
X10321929Y-10040020D01*
X10321929Y-10040020D02*
X10310500Y-10043830D01*
X10310500Y-10043830D02*
X10291452Y-10043830D01*
X10363833Y-9963830D02*
X10413357Y-9963830D01*
X10413357Y-9963830D02*
X10386691Y-9994306D01*
X10386691Y-9994306D02*
X10398119Y-9994306D01*
X10398119Y-9994306D02*
X10405738Y-9998115D01*
X10405738Y-9998115D02*
X10409548Y-10001925D01*
X10409548Y-10001925D02*
X10413357Y-10009544D01*
X10413357Y-10009544D02*
X10413357Y-10028591D01*
X10413357Y-10028591D02*
X10409548Y-10036210D01*
X10409548Y-10036210D02*
X10405738Y-10040020D01*
X10405738Y-10040020D02*
X10398119Y-10043830D01*
X10398119Y-10043830D02*
X10375262Y-10043830D01*
X10375262Y-10043830D02*
X10367643Y-10040020D01*
X10367643Y-10040020D02*
X10363833Y-10036210D01*
X10553071Y-9561230D02*
X10526405Y-9523134D01*
X10507357Y-9561230D02*
X10507357Y-9481230D01*
X10507357Y-9481230D02*
X10537833Y-9481230D01*
X10537833Y-9481230D02*
X10545452Y-9485039D01*
X10545452Y-9485039D02*
X10549262Y-9488849D01*
X10549262Y-9488849D02*
X10553071Y-9496468D01*
X10553071Y-9496468D02*
X10553071Y-9507896D01*
X10553071Y-9507896D02*
X10549262Y-9515515D01*
X10549262Y-9515515D02*
X10545452Y-9519325D01*
X10545452Y-9519325D02*
X10537833Y-9523134D01*
X10537833Y-9523134D02*
X10507357Y-9523134D01*
X10629262Y-9561230D02*
X10583548Y-9561230D01*
X10606405Y-9561230D02*
X10606405Y-9481230D01*
X10606405Y-9481230D02*
X10598786Y-9492658D01*
X10598786Y-9492658D02*
X10591167Y-9500277D01*
X10591167Y-9500277D02*
X10583548Y-9504087D01*
X10697833Y-9507896D02*
X10697833Y-9561230D01*
X10678786Y-9477420D02*
X10659738Y-9534563D01*
X10659738Y-9534563D02*
X10709262Y-9534563D01*
X10418452Y-8227729D02*
X10418452Y-8147729D01*
X10418452Y-8147729D02*
X10437500Y-8147729D01*
X10437500Y-8147729D02*
X10448929Y-8151539D01*
X10448929Y-8151539D02*
X10456548Y-8159158D01*
X10456548Y-8159158D02*
X10460357Y-8166777D01*
X10460357Y-8166777D02*
X10464167Y-8182015D01*
X10464167Y-8182015D02*
X10464167Y-8193444D01*
X10464167Y-8193444D02*
X10460357Y-8208682D01*
X10460357Y-8208682D02*
X10456548Y-8216301D01*
X10456548Y-8216301D02*
X10448929Y-8223920D01*
X10448929Y-8223920D02*
X10437500Y-8227729D01*
X10437500Y-8227729D02*
X10418452Y-8227729D01*
X10540357Y-8227729D02*
X10494643Y-8227729D01*
X10517500Y-8227729D02*
X10517500Y-8147729D01*
X10517500Y-8147729D02*
X10509881Y-8159158D01*
X10509881Y-8159158D02*
X10502262Y-8166777D01*
X10502262Y-8166777D02*
X10494643Y-8170587D01*
X11734809Y-8263982D02*
X11734809Y-8344934D01*
X11734809Y-8344934D02*
X11739571Y-8354458D01*
X11739571Y-8354458D02*
X11744333Y-8359220D01*
X11744333Y-8359220D02*
X11753857Y-8363982D01*
X11753857Y-8363982D02*
X11772905Y-8363982D01*
X11772905Y-8363982D02*
X11782428Y-8359220D01*
X11782428Y-8359220D02*
X11787190Y-8354458D01*
X11787190Y-8354458D02*
X11791952Y-8344934D01*
X11791952Y-8344934D02*
X11791952Y-8263982D01*
X11891952Y-8363982D02*
X11834809Y-8363982D01*
X11863381Y-8363982D02*
X11863381Y-8263982D01*
X11863381Y-8263982D02*
X11853857Y-8278268D01*
X11853857Y-8278268D02*
X11844333Y-8287791D01*
X11844333Y-8287791D02*
X11834809Y-8292553D01*
X12940667Y-8347110D02*
X12936857Y-8350920D01*
X12936857Y-8350920D02*
X12925429Y-8354729D01*
X12925429Y-8354729D02*
X12917809Y-8354729D01*
X12917809Y-8354729D02*
X12906381Y-8350920D01*
X12906381Y-8350920D02*
X12898762Y-8343301D01*
X12898762Y-8343301D02*
X12894952Y-8335682D01*
X12894952Y-8335682D02*
X12891143Y-8320444D01*
X12891143Y-8320444D02*
X12891143Y-8309015D01*
X12891143Y-8309015D02*
X12894952Y-8293777D01*
X12894952Y-8293777D02*
X12898762Y-8286158D01*
X12898762Y-8286158D02*
X12906381Y-8278539D01*
X12906381Y-8278539D02*
X12917809Y-8274729D01*
X12917809Y-8274729D02*
X12925429Y-8274729D01*
X12925429Y-8274729D02*
X12936857Y-8278539D01*
X12936857Y-8278539D02*
X12940667Y-8282348D01*
X13016857Y-8354729D02*
X12971143Y-8354729D01*
X12994000Y-8354729D02*
X12994000Y-8274729D01*
X12994000Y-8274729D02*
X12986381Y-8286158D01*
X12986381Y-8286158D02*
X12978762Y-8293777D01*
X12978762Y-8293777D02*
X12971143Y-8297587D01*
X12940667Y-8481730D02*
X12914000Y-8443634D01*
X12894952Y-8481730D02*
X12894952Y-8401730D01*
X12894952Y-8401730D02*
X12925429Y-8401730D01*
X12925429Y-8401730D02*
X12933048Y-8405539D01*
X12933048Y-8405539D02*
X12936857Y-8409349D01*
X12936857Y-8409349D02*
X12940667Y-8416968D01*
X12940667Y-8416968D02*
X12940667Y-8428396D01*
X12940667Y-8428396D02*
X12936857Y-8436015D01*
X12936857Y-8436015D02*
X12933048Y-8439825D01*
X12933048Y-8439825D02*
X12925429Y-8443634D01*
X12925429Y-8443634D02*
X12894952Y-8443634D01*
X13016857Y-8481730D02*
X12971143Y-8481730D01*
X12994000Y-8481730D02*
X12994000Y-8401730D01*
X12994000Y-8401730D02*
X12986381Y-8413158D01*
X12986381Y-8413158D02*
X12978762Y-8420777D01*
X12978762Y-8420777D02*
X12971143Y-8424587D01*
X12940667Y-9878730D02*
X12914000Y-9840634D01*
X12894952Y-9878730D02*
X12894952Y-9798730D01*
X12894952Y-9798730D02*
X12925429Y-9798730D01*
X12925429Y-9798730D02*
X12933048Y-9802539D01*
X12933048Y-9802539D02*
X12936857Y-9806349D01*
X12936857Y-9806349D02*
X12940667Y-9813968D01*
X12940667Y-9813968D02*
X12940667Y-9825396D01*
X12940667Y-9825396D02*
X12936857Y-9833015D01*
X12936857Y-9833015D02*
X12933048Y-9836825D01*
X12933048Y-9836825D02*
X12925429Y-9840634D01*
X12925429Y-9840634D02*
X12894952Y-9840634D01*
X12971143Y-9806349D02*
X12974952Y-9802539D01*
X12974952Y-9802539D02*
X12982571Y-9798730D01*
X12982571Y-9798730D02*
X13001619Y-9798730D01*
X13001619Y-9798730D02*
X13009238Y-9802539D01*
X13009238Y-9802539D02*
X13013048Y-9806349D01*
X13013048Y-9806349D02*
X13016857Y-9813968D01*
X13016857Y-9813968D02*
X13016857Y-9821587D01*
X13016857Y-9821587D02*
X13013048Y-9833015D01*
X13013048Y-9833015D02*
X12967333Y-9878730D01*
X12967333Y-9878730D02*
X13016857Y-9878730D01*
X11466229Y-8877929D02*
X11428134Y-8904595D01*
X11466229Y-8923643D02*
X11386229Y-8923643D01*
X11386229Y-8923643D02*
X11386229Y-8893167D01*
X11386229Y-8893167D02*
X11390039Y-8885548D01*
X11390039Y-8885548D02*
X11393848Y-8881738D01*
X11393848Y-8881738D02*
X11401468Y-8877929D01*
X11401468Y-8877929D02*
X11412896Y-8877929D01*
X11412896Y-8877929D02*
X11420515Y-8881738D01*
X11420515Y-8881738D02*
X11424325Y-8885548D01*
X11424325Y-8885548D02*
X11428134Y-8893167D01*
X11428134Y-8893167D02*
X11428134Y-8923643D01*
X11466229Y-8801738D02*
X11466229Y-8847452D01*
X11466229Y-8824595D02*
X11386229Y-8824595D01*
X11386229Y-8824595D02*
X11397658Y-8832214D01*
X11397658Y-8832214D02*
X11405277Y-8839833D01*
X11405277Y-8839833D02*
X11409087Y-8847452D01*
X11466229Y-8725548D02*
X11466229Y-8771262D01*
X11466229Y-8748405D02*
X11386229Y-8748405D01*
X11386229Y-8748405D02*
X11397658Y-8756024D01*
X11397658Y-8756024D02*
X11405277Y-8763643D01*
X11405277Y-8763643D02*
X11409087Y-8771262D01*
X10977881Y-9568849D02*
X10970262Y-9565039D01*
X10970262Y-9565039D02*
X10962643Y-9557420D01*
X10962643Y-9557420D02*
X10951214Y-9545991D01*
X10951214Y-9545991D02*
X10943595Y-9542182D01*
X10943595Y-9542182D02*
X10935976Y-9542182D01*
X10939786Y-9561230D02*
X10932167Y-9557420D01*
X10932167Y-9557420D02*
X10924548Y-9549801D01*
X10924548Y-9549801D02*
X10920738Y-9534563D01*
X10920738Y-9534563D02*
X10920738Y-9507896D01*
X10920738Y-9507896D02*
X10924548Y-9492658D01*
X10924548Y-9492658D02*
X10932167Y-9485039D01*
X10932167Y-9485039D02*
X10939786Y-9481230D01*
X10939786Y-9481230D02*
X10955024Y-9481230D01*
X10955024Y-9481230D02*
X10962643Y-9485039D01*
X10962643Y-9485039D02*
X10970262Y-9492658D01*
X10970262Y-9492658D02*
X10974071Y-9507896D01*
X10974071Y-9507896D02*
X10974071Y-9534563D01*
X10974071Y-9534563D02*
X10970262Y-9549801D01*
X10970262Y-9549801D02*
X10962643Y-9557420D01*
X10962643Y-9557420D02*
X10955024Y-9561230D01*
X10955024Y-9561230D02*
X10939786Y-9561230D01*
X11050262Y-9561230D02*
X11004548Y-9561230D01*
X11027405Y-9561230D02*
X11027405Y-9481230D01*
X11027405Y-9481230D02*
X11019786Y-9492658D01*
X11019786Y-9492658D02*
X11012167Y-9500277D01*
X11012167Y-9500277D02*
X11004548Y-9504087D01*
X11543667Y-9942230D02*
X11517000Y-9904134D01*
X11497952Y-9942230D02*
X11497952Y-9862230D01*
X11497952Y-9862230D02*
X11528429Y-9862230D01*
X11528429Y-9862230D02*
X11536048Y-9866039D01*
X11536048Y-9866039D02*
X11539857Y-9869849D01*
X11539857Y-9869849D02*
X11543667Y-9877468D01*
X11543667Y-9877468D02*
X11543667Y-9888896D01*
X11543667Y-9888896D02*
X11539857Y-9896515D01*
X11539857Y-9896515D02*
X11536048Y-9900325D01*
X11536048Y-9900325D02*
X11528429Y-9904134D01*
X11528429Y-9904134D02*
X11497952Y-9904134D01*
X11589381Y-9896515D02*
X11581762Y-9892706D01*
X11581762Y-9892706D02*
X11577952Y-9888896D01*
X11577952Y-9888896D02*
X11574143Y-9881277D01*
X11574143Y-9881277D02*
X11574143Y-9877468D01*
X11574143Y-9877468D02*
X11577952Y-9869849D01*
X11577952Y-9869849D02*
X11581762Y-9866039D01*
X11581762Y-9866039D02*
X11589381Y-9862230D01*
X11589381Y-9862230D02*
X11604619Y-9862230D01*
X11604619Y-9862230D02*
X11612238Y-9866039D01*
X11612238Y-9866039D02*
X11616048Y-9869849D01*
X11616048Y-9869849D02*
X11619857Y-9877468D01*
X11619857Y-9877468D02*
X11619857Y-9881277D01*
X11619857Y-9881277D02*
X11616048Y-9888896D01*
X11616048Y-9888896D02*
X11612238Y-9892706D01*
X11612238Y-9892706D02*
X11604619Y-9896515D01*
X11604619Y-9896515D02*
X11589381Y-9896515D01*
X11589381Y-9896515D02*
X11581762Y-9900325D01*
X11581762Y-9900325D02*
X11577952Y-9904134D01*
X11577952Y-9904134D02*
X11574143Y-9911753D01*
X11574143Y-9911753D02*
X11574143Y-9926991D01*
X11574143Y-9926991D02*
X11577952Y-9934610D01*
X11577952Y-9934610D02*
X11581762Y-9938420D01*
X11581762Y-9938420D02*
X11589381Y-9942230D01*
X11589381Y-9942230D02*
X11604619Y-9942230D01*
X11604619Y-9942230D02*
X11612238Y-9938420D01*
X11612238Y-9938420D02*
X11616048Y-9934610D01*
X11616048Y-9934610D02*
X11619857Y-9926991D01*
X11619857Y-9926991D02*
X11619857Y-9911753D01*
X11619857Y-9911753D02*
X11616048Y-9904134D01*
X11616048Y-9904134D02*
X11612238Y-9900325D01*
X11612238Y-9900325D02*
X11604619Y-9896515D01*
X11353167Y-9624730D02*
X11326500Y-9586634D01*
X11307452Y-9624730D02*
X11307452Y-9544730D01*
X11307452Y-9544730D02*
X11337929Y-9544730D01*
X11337929Y-9544730D02*
X11345548Y-9548539D01*
X11345548Y-9548539D02*
X11349357Y-9552349D01*
X11349357Y-9552349D02*
X11353167Y-9559968D01*
X11353167Y-9559968D02*
X11353167Y-9571396D01*
X11353167Y-9571396D02*
X11349357Y-9579015D01*
X11349357Y-9579015D02*
X11345548Y-9582825D01*
X11345548Y-9582825D02*
X11337929Y-9586634D01*
X11337929Y-9586634D02*
X11307452Y-9586634D01*
X11391262Y-9624730D02*
X11406500Y-9624730D01*
X11406500Y-9624730D02*
X11414119Y-9620920D01*
X11414119Y-9620920D02*
X11417929Y-9617110D01*
X11417929Y-9617110D02*
X11425548Y-9605682D01*
X11425548Y-9605682D02*
X11429357Y-9590444D01*
X11429357Y-9590444D02*
X11429357Y-9559968D01*
X11429357Y-9559968D02*
X11425548Y-9552349D01*
X11425548Y-9552349D02*
X11421738Y-9548539D01*
X11421738Y-9548539D02*
X11414119Y-9544730D01*
X11414119Y-9544730D02*
X11398881Y-9544730D01*
X11398881Y-9544730D02*
X11391262Y-9548539D01*
X11391262Y-9548539D02*
X11387452Y-9552349D01*
X11387452Y-9552349D02*
X11383643Y-9559968D01*
X11383643Y-9559968D02*
X11383643Y-9579015D01*
X11383643Y-9579015D02*
X11387452Y-9586634D01*
X11387452Y-9586634D02*
X11391262Y-9590444D01*
X11391262Y-9590444D02*
X11398881Y-9594253D01*
X11398881Y-9594253D02*
X11414119Y-9594253D01*
X11414119Y-9594253D02*
X11421738Y-9590444D01*
X11421738Y-9590444D02*
X11425548Y-9586634D01*
X11425548Y-9586634D02*
X11429357Y-9579015D01*
X12940667Y-9624730D02*
X12914000Y-9586634D01*
X12894952Y-9624730D02*
X12894952Y-9544730D01*
X12894952Y-9544730D02*
X12925429Y-9544730D01*
X12925429Y-9544730D02*
X12933048Y-9548539D01*
X12933048Y-9548539D02*
X12936857Y-9552349D01*
X12936857Y-9552349D02*
X12940667Y-9559968D01*
X12940667Y-9559968D02*
X12940667Y-9571396D01*
X12940667Y-9571396D02*
X12936857Y-9579015D01*
X12936857Y-9579015D02*
X12933048Y-9582825D01*
X12933048Y-9582825D02*
X12925429Y-9586634D01*
X12925429Y-9586634D02*
X12894952Y-9586634D01*
X13009238Y-9544730D02*
X12994000Y-9544730D01*
X12994000Y-9544730D02*
X12986381Y-9548539D01*
X12986381Y-9548539D02*
X12982571Y-9552349D01*
X12982571Y-9552349D02*
X12974952Y-9563777D01*
X12974952Y-9563777D02*
X12971143Y-9579015D01*
X12971143Y-9579015D02*
X12971143Y-9609491D01*
X12971143Y-9609491D02*
X12974952Y-9617110D01*
X12974952Y-9617110D02*
X12978762Y-9620920D01*
X12978762Y-9620920D02*
X12986381Y-9624730D01*
X12986381Y-9624730D02*
X13001619Y-9624730D01*
X13001619Y-9624730D02*
X13009238Y-9620920D01*
X13009238Y-9620920D02*
X13013048Y-9617110D01*
X13013048Y-9617110D02*
X13016857Y-9609491D01*
X13016857Y-9609491D02*
X13016857Y-9590444D01*
X13016857Y-9590444D02*
X13013048Y-9582825D01*
X13013048Y-9582825D02*
X13009238Y-9579015D01*
X13009238Y-9579015D02*
X13001619Y-9575206D01*
X13001619Y-9575206D02*
X12986381Y-9575206D01*
X12986381Y-9575206D02*
X12978762Y-9579015D01*
X12978762Y-9579015D02*
X12974952Y-9582825D01*
X12974952Y-9582825D02*
X12971143Y-9590444D01*
X12940667Y-9497730D02*
X12914000Y-9459634D01*
X12894952Y-9497730D02*
X12894952Y-9417730D01*
X12894952Y-9417730D02*
X12925429Y-9417730D01*
X12925429Y-9417730D02*
X12933048Y-9421539D01*
X12933048Y-9421539D02*
X12936857Y-9425349D01*
X12936857Y-9425349D02*
X12940667Y-9432968D01*
X12940667Y-9432968D02*
X12940667Y-9444396D01*
X12940667Y-9444396D02*
X12936857Y-9452015D01*
X12936857Y-9452015D02*
X12933048Y-9455825D01*
X12933048Y-9455825D02*
X12925429Y-9459634D01*
X12925429Y-9459634D02*
X12894952Y-9459634D01*
X12967333Y-9417730D02*
X13020667Y-9417730D01*
X13020667Y-9417730D02*
X12986381Y-9497730D01*
X12902571Y-7973729D02*
X12875905Y-7935634D01*
X12856857Y-7973729D02*
X12856857Y-7893729D01*
X12856857Y-7893729D02*
X12887333Y-7893729D01*
X12887333Y-7893729D02*
X12894952Y-7897539D01*
X12894952Y-7897539D02*
X12898762Y-7901348D01*
X12898762Y-7901348D02*
X12902571Y-7908968D01*
X12902571Y-7908968D02*
X12902571Y-7920396D01*
X12902571Y-7920396D02*
X12898762Y-7928015D01*
X12898762Y-7928015D02*
X12894952Y-7931825D01*
X12894952Y-7931825D02*
X12887333Y-7935634D01*
X12887333Y-7935634D02*
X12856857Y-7935634D01*
X12978762Y-7973729D02*
X12933047Y-7973729D01*
X12955905Y-7973729D02*
X12955905Y-7893729D01*
X12955905Y-7893729D02*
X12948286Y-7905158D01*
X12948286Y-7905158D02*
X12940667Y-7912777D01*
X12940667Y-7912777D02*
X12933047Y-7916587D01*
X13009238Y-7901348D02*
X13013048Y-7897539D01*
X13013048Y-7897539D02*
X13020667Y-7893729D01*
X13020667Y-7893729D02*
X13039714Y-7893729D01*
X13039714Y-7893729D02*
X13047333Y-7897539D01*
X13047333Y-7897539D02*
X13051143Y-7901348D01*
X13051143Y-7901348D02*
X13054952Y-7908968D01*
X13054952Y-7908968D02*
X13054952Y-7916587D01*
X13054952Y-7916587D02*
X13051143Y-7928015D01*
X13051143Y-7928015D02*
X13005428Y-7973729D01*
X13005428Y-7973729D02*
X13054952Y-7973729D01*
X11569071Y-9651730D02*
X11542405Y-9613634D01*
X11523357Y-9651730D02*
X11523357Y-9571730D01*
X11523357Y-9571730D02*
X11553833Y-9571730D01*
X11553833Y-9571730D02*
X11561452Y-9575539D01*
X11561452Y-9575539D02*
X11565262Y-9579349D01*
X11565262Y-9579349D02*
X11569071Y-9586968D01*
X11569071Y-9586968D02*
X11569071Y-9598396D01*
X11569071Y-9598396D02*
X11565262Y-9606015D01*
X11565262Y-9606015D02*
X11561452Y-9609825D01*
X11561452Y-9609825D02*
X11553833Y-9613634D01*
X11553833Y-9613634D02*
X11523357Y-9613634D01*
X11645262Y-9651730D02*
X11599547Y-9651730D01*
X11622405Y-9651730D02*
X11622405Y-9571730D01*
X11622405Y-9571730D02*
X11614786Y-9583158D01*
X11614786Y-9583158D02*
X11607167Y-9590777D01*
X11607167Y-9590777D02*
X11599547Y-9594587D01*
X11694786Y-9571730D02*
X11702405Y-9571730D01*
X11702405Y-9571730D02*
X11710024Y-9575539D01*
X11710024Y-9575539D02*
X11713833Y-9579349D01*
X11713833Y-9579349D02*
X11717643Y-9586968D01*
X11717643Y-9586968D02*
X11721452Y-9602206D01*
X11721452Y-9602206D02*
X11721452Y-9621253D01*
X11721452Y-9621253D02*
X11717643Y-9636491D01*
X11717643Y-9636491D02*
X11713833Y-9644110D01*
X11713833Y-9644110D02*
X11710024Y-9647920D01*
X11710024Y-9647920D02*
X11702405Y-9651730D01*
X11702405Y-9651730D02*
X11694786Y-9651730D01*
X11694786Y-9651730D02*
X11687167Y-9647920D01*
X11687167Y-9647920D02*
X11683357Y-9644110D01*
X11683357Y-9644110D02*
X11679548Y-9636491D01*
X11679548Y-9636491D02*
X11675738Y-9621253D01*
X11675738Y-9621253D02*
X11675738Y-9602206D01*
X11675738Y-9602206D02*
X11679548Y-9586968D01*
X11679548Y-9586968D02*
X11683357Y-9579349D01*
X11683357Y-9579349D02*
X11687167Y-9575539D01*
X11687167Y-9575539D02*
X11694786Y-9571730D01*
X13083866Y-8915405D02*
X13045770Y-8915405D01*
X13125770Y-8888738D02*
X13083866Y-8915405D01*
X13083866Y-8915405D02*
X13125770Y-8942071D01*
X13045770Y-9010643D02*
X13045770Y-8964929D01*
X13045770Y-8987786D02*
X13125770Y-8987786D01*
X13125770Y-8987786D02*
X13114342Y-8980167D01*
X13114342Y-8980167D02*
X13106723Y-8972548D01*
X13106723Y-8972548D02*
X13102913Y-8964929D01*
X10553071Y-10043830D02*
X10526405Y-10005734D01*
X10507357Y-10043830D02*
X10507357Y-9963830D01*
X10507357Y-9963830D02*
X10537833Y-9963830D01*
X10537833Y-9963830D02*
X10545452Y-9967639D01*
X10545452Y-9967639D02*
X10549262Y-9971449D01*
X10549262Y-9971449D02*
X10553071Y-9979068D01*
X10553071Y-9979068D02*
X10553071Y-9990496D01*
X10553071Y-9990496D02*
X10549262Y-9998115D01*
X10549262Y-9998115D02*
X10545452Y-10001925D01*
X10545452Y-10001925D02*
X10537833Y-10005734D01*
X10537833Y-10005734D02*
X10507357Y-10005734D01*
X10629262Y-10043830D02*
X10583548Y-10043830D01*
X10606405Y-10043830D02*
X10606405Y-9963830D01*
X10606405Y-9963830D02*
X10598786Y-9975258D01*
X10598786Y-9975258D02*
X10591167Y-9982877D01*
X10591167Y-9982877D02*
X10583548Y-9986687D01*
X10701643Y-9963830D02*
X10663548Y-9963830D01*
X10663548Y-9963830D02*
X10659738Y-10001925D01*
X10659738Y-10001925D02*
X10663548Y-9998115D01*
X10663548Y-9998115D02*
X10671167Y-9994306D01*
X10671167Y-9994306D02*
X10690214Y-9994306D01*
X10690214Y-9994306D02*
X10697833Y-9998115D01*
X10697833Y-9998115D02*
X10701643Y-10001925D01*
X10701643Y-10001925D02*
X10705452Y-10009544D01*
X10705452Y-10009544D02*
X10705452Y-10028591D01*
X10705452Y-10028591D02*
X10701643Y-10036210D01*
X10701643Y-10036210D02*
X10697833Y-10040020D01*
X10697833Y-10040020D02*
X10690214Y-10043830D01*
X10690214Y-10043830D02*
X10671167Y-10043830D01*
X10671167Y-10043830D02*
X10663548Y-10040020D01*
X10663548Y-10040020D02*
X10659738Y-10036210D01*
X12902571Y-8100729D02*
X12875905Y-8062634D01*
X12856857Y-8100729D02*
X12856857Y-8020729D01*
X12856857Y-8020729D02*
X12887333Y-8020729D01*
X12887333Y-8020729D02*
X12894952Y-8024539D01*
X12894952Y-8024539D02*
X12898762Y-8028348D01*
X12898762Y-8028348D02*
X12902571Y-8035968D01*
X12902571Y-8035968D02*
X12902571Y-8047396D01*
X12902571Y-8047396D02*
X12898762Y-8055015D01*
X12898762Y-8055015D02*
X12894952Y-8058825D01*
X12894952Y-8058825D02*
X12887333Y-8062634D01*
X12887333Y-8062634D02*
X12856857Y-8062634D01*
X12978762Y-8100729D02*
X12933047Y-8100729D01*
X12955905Y-8100729D02*
X12955905Y-8020729D01*
X12955905Y-8020729D02*
X12948286Y-8032158D01*
X12948286Y-8032158D02*
X12940667Y-8039777D01*
X12940667Y-8039777D02*
X12933047Y-8043587D01*
X13005428Y-8020729D02*
X13054952Y-8020729D01*
X13054952Y-8020729D02*
X13028286Y-8051206D01*
X13028286Y-8051206D02*
X13039714Y-8051206D01*
X13039714Y-8051206D02*
X13047333Y-8055015D01*
X13047333Y-8055015D02*
X13051143Y-8058825D01*
X13051143Y-8058825D02*
X13054952Y-8066444D01*
X13054952Y-8066444D02*
X13054952Y-8085491D01*
X13054952Y-8085491D02*
X13051143Y-8093110D01*
X13051143Y-8093110D02*
X13047333Y-8096920D01*
X13047333Y-8096920D02*
X13039714Y-8100729D01*
X13039714Y-8100729D02*
X13016857Y-8100729D01*
X13016857Y-8100729D02*
X13009238Y-8096920D01*
X13009238Y-8096920D02*
X13005428Y-8093110D01*
X11212229Y-9347833D02*
X11174134Y-9374500D01*
X11212229Y-9393548D02*
X11132230Y-9393548D01*
X11132230Y-9393548D02*
X11132230Y-9363071D01*
X11132230Y-9363071D02*
X11136039Y-9355452D01*
X11136039Y-9355452D02*
X11139849Y-9351643D01*
X11139849Y-9351643D02*
X11147468Y-9347833D01*
X11147468Y-9347833D02*
X11158896Y-9347833D01*
X11158896Y-9347833D02*
X11166515Y-9351643D01*
X11166515Y-9351643D02*
X11170325Y-9355452D01*
X11170325Y-9355452D02*
X11174134Y-9363071D01*
X11174134Y-9363071D02*
X11174134Y-9393548D01*
X11132230Y-9321167D02*
X11132230Y-9271643D01*
X11132230Y-9271643D02*
X11162706Y-9298309D01*
X11162706Y-9298309D02*
X11162706Y-9286881D01*
X11162706Y-9286881D02*
X11166515Y-9279262D01*
X11166515Y-9279262D02*
X11170325Y-9275452D01*
X11170325Y-9275452D02*
X11177944Y-9271643D01*
X11177944Y-9271643D02*
X11196991Y-9271643D01*
X11196991Y-9271643D02*
X11204610Y-9275452D01*
X11204610Y-9275452D02*
X11208420Y-9279262D01*
X11208420Y-9279262D02*
X11212229Y-9286881D01*
X11212229Y-9286881D02*
X11212229Y-9309738D01*
X11212229Y-9309738D02*
X11208420Y-9317357D01*
X11208420Y-9317357D02*
X11204610Y-9321167D01*
X10443730Y-8916667D02*
X10500872Y-8916667D01*
X10500872Y-8916667D02*
X10512301Y-8920476D01*
X10512301Y-8920476D02*
X10519920Y-8928095D01*
X10519920Y-8928095D02*
X10523730Y-8939524D01*
X10523730Y-8939524D02*
X10523730Y-8947143D01*
X10523730Y-8836667D02*
X10523730Y-8882381D01*
X10523730Y-8859524D02*
X10443730Y-8859524D01*
X10443730Y-8859524D02*
X10455158Y-8867143D01*
X10455158Y-8867143D02*
X10462777Y-8874762D01*
X10462777Y-8874762D02*
X10466587Y-8882381D01*
X12394571Y-7712110D02*
X12390762Y-7715920D01*
X12390762Y-7715920D02*
X12379333Y-7719729D01*
X12379333Y-7719729D02*
X12371714Y-7719729D01*
X12371714Y-7719729D02*
X12360286Y-7715920D01*
X12360286Y-7715920D02*
X12352667Y-7708301D01*
X12352667Y-7708301D02*
X12348857Y-7700682D01*
X12348857Y-7700682D02*
X12345047Y-7685444D01*
X12345047Y-7685444D02*
X12345047Y-7674015D01*
X12345047Y-7674015D02*
X12348857Y-7658777D01*
X12348857Y-7658777D02*
X12352667Y-7651158D01*
X12352667Y-7651158D02*
X12360286Y-7643539D01*
X12360286Y-7643539D02*
X12371714Y-7639729D01*
X12371714Y-7639729D02*
X12379333Y-7639729D01*
X12379333Y-7639729D02*
X12390762Y-7643539D01*
X12390762Y-7643539D02*
X12394571Y-7647348D01*
X12470762Y-7719729D02*
X12425047Y-7719729D01*
X12447905Y-7719729D02*
X12447905Y-7639729D01*
X12447905Y-7639729D02*
X12440286Y-7651158D01*
X12440286Y-7651158D02*
X12432667Y-7658777D01*
X12432667Y-7658777D02*
X12425047Y-7662587D01*
X12520286Y-7639729D02*
X12527905Y-7639729D01*
X12527905Y-7639729D02*
X12535524Y-7643539D01*
X12535524Y-7643539D02*
X12539333Y-7647348D01*
X12539333Y-7647348D02*
X12543143Y-7654968D01*
X12543143Y-7654968D02*
X12546952Y-7670206D01*
X12546952Y-7670206D02*
X12546952Y-7689253D01*
X12546952Y-7689253D02*
X12543143Y-7704491D01*
X12543143Y-7704491D02*
X12539333Y-7712110D01*
X12539333Y-7712110D02*
X12535524Y-7715920D01*
X12535524Y-7715920D02*
X12527905Y-7719729D01*
X12527905Y-7719729D02*
X12520286Y-7719729D01*
X12520286Y-7719729D02*
X12512667Y-7715920D01*
X12512667Y-7715920D02*
X12508857Y-7712110D01*
X12508857Y-7712110D02*
X12505048Y-7704491D01*
X12505048Y-7704491D02*
X12501238Y-7689253D01*
X12501238Y-7689253D02*
X12501238Y-7670206D01*
X12501238Y-7670206D02*
X12505048Y-7654968D01*
X12505048Y-7654968D02*
X12508857Y-7647348D01*
X12508857Y-7647348D02*
X12512667Y-7643539D01*
X12512667Y-7643539D02*
X12520286Y-7639729D01*
X11212229Y-8522333D02*
X11174134Y-8549000D01*
X11212229Y-8568048D02*
X11132230Y-8568048D01*
X11132230Y-8568048D02*
X11132230Y-8537571D01*
X11132230Y-8537571D02*
X11136039Y-8529952D01*
X11136039Y-8529952D02*
X11139849Y-8526143D01*
X11139849Y-8526143D02*
X11147468Y-8522333D01*
X11147468Y-8522333D02*
X11158896Y-8522333D01*
X11158896Y-8522333D02*
X11166515Y-8526143D01*
X11166515Y-8526143D02*
X11170325Y-8529952D01*
X11170325Y-8529952D02*
X11174134Y-8537571D01*
X11174134Y-8537571D02*
X11174134Y-8568048D01*
X11158896Y-8453762D02*
X11212229Y-8453762D01*
X11128420Y-8472809D02*
X11185563Y-8491857D01*
X11185563Y-8491857D02*
X11185563Y-8442333D01*
X11813548Y-8020729D02*
X11813548Y-8085491D01*
X11813548Y-8085491D02*
X11817357Y-8093110D01*
X11817357Y-8093110D02*
X11821167Y-8096920D01*
X11821167Y-8096920D02*
X11828786Y-8100729D01*
X11828786Y-8100729D02*
X11844024Y-8100729D01*
X11844024Y-8100729D02*
X11851643Y-8096920D01*
X11851643Y-8096920D02*
X11855452Y-8093110D01*
X11855452Y-8093110D02*
X11859262Y-8085491D01*
X11859262Y-8085491D02*
X11859262Y-8020729D01*
X11889738Y-8020729D02*
X11939262Y-8020729D01*
X11939262Y-8020729D02*
X11912595Y-8051206D01*
X11912595Y-8051206D02*
X11924024Y-8051206D01*
X11924024Y-8051206D02*
X11931643Y-8055015D01*
X11931643Y-8055015D02*
X11935452Y-8058825D01*
X11935452Y-8058825D02*
X11939262Y-8066444D01*
X11939262Y-8066444D02*
X11939262Y-8085491D01*
X11939262Y-8085491D02*
X11935452Y-8093110D01*
X11935452Y-8093110D02*
X11931643Y-8096920D01*
X11931643Y-8096920D02*
X11924024Y-8100729D01*
X11924024Y-8100729D02*
X11901167Y-8100729D01*
X11901167Y-8100729D02*
X11893547Y-8096920D01*
X11893547Y-8096920D02*
X11889738Y-8093110D01*
D11*
%TO.C,C4*%
X10884625Y-7864000D02*
X10832375Y-7864000D01*
X10884625Y-8011000D02*
X10832375Y-8011000D01*
%TO.C,C5*%
X12165875Y-7419500D02*
X12218125Y-7419500D01*
X12165875Y-7566500D02*
X12218125Y-7566500D01*
%TO.C,R5*%
X11265000Y-9128636D02*
X11265000Y-9159364D01*
X11341000Y-9128636D02*
X11341000Y-9159364D01*
%TO.C,C6*%
X12752716Y-9679500D02*
X12774284Y-9679500D01*
X12752716Y-9751500D02*
X12774284Y-9751500D01*
%TO.C,C7*%
X12752716Y-8155500D02*
X12774284Y-8155500D01*
X12752716Y-8227500D02*
X12774284Y-8227500D01*
%TO.C,C8*%
X11631284Y-8409500D02*
X11609716Y-8409500D01*
X11631284Y-8481500D02*
X11609716Y-8481500D01*
%TO.C,C9*%
X11567784Y-9298500D02*
X11546216Y-9298500D01*
X11567784Y-9370500D02*
X11546216Y-9370500D01*
%TO.C,J2*%
X13321000Y-7863000D02*
X14238000Y-7863000D01*
X13321000Y-8281000D02*
X13171000Y-8281000D01*
X13321000Y-8281000D02*
X13321000Y-7863000D01*
X13321000Y-9499000D02*
X13321000Y-9917000D01*
X13321000Y-9917000D02*
X14238000Y-9917000D01*
X14238000Y-7863000D02*
X14238000Y-8281000D01*
X14238000Y-9917000D02*
X14238000Y-9499000D01*
%TO.C,C2*%
X12752716Y-9298500D02*
X12774284Y-9298500D01*
X12752716Y-9370500D02*
X12774284Y-9370500D01*
%TO.C,C3*%
X12752716Y-8536500D02*
X12774284Y-8536500D01*
X12752716Y-8608500D02*
X12774284Y-8608500D01*
%TO.C,D2*%
X10202000Y-9578500D02*
X10202000Y-9725500D01*
X10202000Y-9725500D02*
X10430500Y-9725500D01*
X10430500Y-9578500D02*
X10202000Y-9578500D01*
%TO.C,D3*%
X10270500Y-9916000D02*
X10499000Y-9916000D01*
X10499000Y-9769000D02*
X10270500Y-9769000D01*
X10499000Y-9916000D02*
X10499000Y-9769000D01*
%TO.C,R14*%
X10589136Y-9614000D02*
X10619864Y-9614000D01*
X10589136Y-9690000D02*
X10619864Y-9690000D01*
%TO.C,TP3*%
X11296500Y-10280500D02*
X11436500Y-10280500D01*
X11296500Y-10420500D02*
X11296500Y-10280500D01*
X11436500Y-10280500D02*
X11436500Y-10420500D01*
X11436500Y-10420500D02*
X11296500Y-10420500D01*
%TO.C,D1*%
X11031000Y-8091500D02*
X10630000Y-8091500D01*
X11031000Y-8291500D02*
X10630000Y-8291500D01*
X11031000Y-8291500D02*
X11031000Y-8091500D01*
%TO.C,U1*%
X11704000Y-8529000D02*
X11704000Y-8574000D01*
X11704000Y-9251000D02*
X11704000Y-9206000D01*
X11749000Y-8529000D02*
X11704000Y-8529000D01*
X11749000Y-9251000D02*
X11704000Y-9251000D01*
X12381000Y-8529000D02*
X12426000Y-8529000D01*
X12381000Y-9251000D02*
X12426000Y-9251000D01*
X12426000Y-8529000D02*
X12426000Y-8574000D01*
X12426000Y-9251000D02*
X12426000Y-9206000D01*
X12519000Y-9253000D02*
X12451000Y-9253000D01*
X12485000Y-9206000D01*
X12519000Y-9253000D01*
G36*
X12519000Y-9253000D02*
G01*
X12451000Y-9253000D01*
X12485000Y-9206000D01*
X12519000Y-9253000D01*
G37*
%TO.C,C1*%
X12752716Y-8282500D02*
X12774284Y-8282500D01*
X12752716Y-8354500D02*
X12774284Y-8354500D01*
%TO.C,R1*%
X12748136Y-8407500D02*
X12778864Y-8407500D01*
X12748136Y-8483500D02*
X12778864Y-8483500D01*
%TO.C,R2*%
X12778864Y-9804500D02*
X12748136Y-9804500D01*
X12778864Y-9880500D02*
X12748136Y-9880500D01*
%TO.C,R11*%
X11392000Y-8620636D02*
X11392000Y-8651364D01*
X11468000Y-8620636D02*
X11468000Y-8651364D01*
%TO.C,Q1*%
X10893000Y-9779000D02*
X10893000Y-9714000D01*
X10893000Y-9779000D02*
X10893000Y-9844000D01*
X11205000Y-9779000D02*
X11205000Y-9714000D01*
X11205000Y-9779000D02*
X11205000Y-9844000D01*
X11233000Y-9686750D02*
X11200000Y-9662750D01*
X11233000Y-9638750D01*
X11233000Y-9686750D01*
G36*
X11233000Y-9686750D02*
G01*
X11200000Y-9662750D01*
X11233000Y-9638750D01*
X11233000Y-9686750D01*
G37*
%TO.C,R8*%
X11381864Y-9868000D02*
X11351136Y-9868000D01*
X11381864Y-9944000D02*
X11351136Y-9944000D01*
%TO.C,R9*%
X11351136Y-9677500D02*
X11381864Y-9677500D01*
X11351136Y-9753500D02*
X11381864Y-9753500D01*
%TO.C,TP1*%
X11550500Y-10280500D02*
X11690500Y-10280500D01*
X11550500Y-10420500D02*
X11550500Y-10280500D01*
X11690500Y-10280500D02*
X11690500Y-10420500D01*
X11690500Y-10420500D02*
X11550500Y-10420500D01*
%TO.C,TP4*%
X11804500Y-10280500D02*
X11944500Y-10280500D01*
X11804500Y-10420500D02*
X11804500Y-10280500D01*
X11944500Y-10280500D02*
X11944500Y-10420500D01*
X11944500Y-10420500D02*
X11804500Y-10420500D01*
%TO.C,TP5*%
X10788500Y-10280500D02*
X10928500Y-10280500D01*
X10788500Y-10420500D02*
X10788500Y-10280500D01*
X10928500Y-10280500D02*
X10928500Y-10420500D01*
X10928500Y-10420500D02*
X10788500Y-10420500D01*
%TO.C,R6*%
X12778864Y-9550500D02*
X12748136Y-9550500D01*
X12778864Y-9626500D02*
X12748136Y-9626500D01*
%TO.C,R7*%
X12778864Y-9423500D02*
X12748136Y-9423500D01*
X12778864Y-9499500D02*
X12748136Y-9499500D01*
%TO.C,R12*%
X12748136Y-7899500D02*
X12778864Y-7899500D01*
X12748136Y-7975500D02*
X12778864Y-7975500D01*
%TO.C,TP2*%
X11042500Y-10280500D02*
X11182500Y-10280500D01*
X11042500Y-10420500D02*
X11042500Y-10280500D01*
X11182500Y-10280500D02*
X11182500Y-10420500D01*
X11182500Y-10420500D02*
X11042500Y-10420500D01*
%TO.C,R10*%
X11635864Y-9677500D02*
X11605136Y-9677500D01*
X11635864Y-9753500D02*
X11605136Y-9753500D01*
%TO.C,Y1*%
X12647000Y-8683500D02*
X12647000Y-9258500D01*
X12647000Y-9258500D02*
X13007000Y-9258500D01*
X13007000Y-9258500D02*
X13007000Y-8683500D01*
%TO.C,R15*%
X10619864Y-9804500D02*
X10589136Y-9804500D01*
X10619864Y-9880500D02*
X10589136Y-9880500D01*
%TO.C,JP1*%
X12688500Y-7583500D02*
X13098500Y-7583500D01*
X12688500Y-7783500D02*
X12688500Y-7583500D01*
X12733500Y-7833500D02*
X12793500Y-7833500D01*
X12763500Y-7803500D02*
X12733500Y-7833500D01*
X12763500Y-7803500D02*
X12793500Y-7833500D01*
X13098500Y-7583500D02*
X13098500Y-7783500D01*
X13098500Y-7783500D02*
X12688500Y-7783500D01*
%TO.C,R13*%
X12778864Y-8026500D02*
X12748136Y-8026500D01*
X12778864Y-8102500D02*
X12748136Y-8102500D01*
%TO.C,R3*%
X11138000Y-9159364D02*
X11138000Y-9128636D01*
X11214000Y-9159364D02*
X11214000Y-9128636D01*
%TO.C,J1*%
X10128000Y-8420000D02*
X10128000Y-9360000D01*
X10318000Y-8420000D02*
X10128000Y-8420000D01*
X10318000Y-9360000D02*
X10128000Y-9360000D01*
X10708000Y-8420000D02*
X10508000Y-8420000D01*
X10708000Y-9360000D02*
X10508000Y-9360000D01*
%TO.C,C10*%
X12181216Y-7647500D02*
X12202784Y-7647500D01*
X12181216Y-7719500D02*
X12202784Y-7719500D01*
%TO.C,R4*%
X11138000Y-8684136D02*
X11138000Y-8714864D01*
X11214000Y-8684136D02*
X11214000Y-8714864D01*
%TO.C,U3*%
X11372000Y-7406000D02*
X11748000Y-7406000D01*
X11372000Y-8088000D02*
X11748000Y-8088000D01*
X11748000Y-7406000D02*
X11748000Y-7532000D01*
X11748000Y-8088000D02*
X11748000Y-7962000D01*
X11244000Y-7416000D02*
X11220000Y-7383000D01*
X11268000Y-7383000D01*
X11244000Y-7416000D01*
G36*
X11244000Y-7416000D02*
G01*
X11220000Y-7383000D01*
X11268000Y-7383000D01*
X11244000Y-7416000D01*
G37*
%TD*%
M02*
