%TF.GenerationSoftware,KiCad,Pcbnew,9.0.4+dfsg-1*%
%TF.CreationDate,2025-09-16T15:35:37+08:00*%
%TF.ProjectId,stlink,73746c69-6e6b-42e6-9b69-6361645f7063,a*%
%TF.SameCoordinates,Original*%
%TF.FileFunction,Copper,L2,Inr*%
%TF.FilePolarity,Positive*%
%FSLAX45Y45*%
G04 Gerber Fmt 4.5, Leading zero omitted, Abs format (unit mm)*
G04 Created by KiCad (PCBNEW 9.0.4+dfsg-1) date 2025-09-16 15:35:37*
%MOMM*%
%LPD*%
G01*
G04 APERTURE LIST*
%TA.AperFunction,ComponentPad*%
%ADD10O,2.100000X1.000000*%
%TD*%
%TA.AperFunction,ComponentPad*%
%ADD11O,1.600000X1.000000*%
%TD*%
%TA.AperFunction,ViaPad*%
%ADD12C,0.600000*%
%TD*%
G04 APERTURE END LIST*
D10*
%TO.N,GND*%
%TO.C,J1*%
X10831000Y-8458000D03*
D11*
X10413000Y-8458000D03*
D10*
X10831000Y-9322000D03*
D11*
X10413000Y-9322000D03*
%TD*%
D12*
%TO.N,GND*%
X10731500Y-7620000D03*
X14414500Y-8001000D03*
X10731500Y-9842500D03*
X11430000Y-8001000D03*
X12890500Y-7493000D03*
X14414500Y-9779000D03*
X12890500Y-8255000D03*
X10731500Y-7493000D03*
X11684000Y-9334500D03*
X12700000Y-7493000D03*
X11430000Y-7620000D03*
X14414500Y-8128000D03*
X10731500Y-10160000D03*
X11874500Y-10223500D03*
X13081000Y-7493000D03*
X10731500Y-8953500D03*
X10858500Y-10160000D03*
X12319000Y-9461500D03*
X13208000Y-8128000D03*
X11529000Y-8788000D03*
X11176000Y-8890000D03*
X14414500Y-9652000D03*
X11430000Y-7874000D03*
X13208000Y-8001000D03*
X10731500Y-8826500D03*
X14414500Y-7874000D03*
X11430000Y-7493000D03*
X11430000Y-8255000D03*
%TO.N,+5V*%
X11112500Y-8318500D03*
X11239500Y-9906000D03*
%TO.N,+3V3*%
X12636500Y-8191500D03*
X12890500Y-8445500D03*
X11684000Y-7747000D03*
X12446000Y-9271000D03*
X11684000Y-8509000D03*
X11620500Y-10223500D03*
X11684000Y-7874000D03*
X11607800Y-9245600D03*
X11684000Y-7493000D03*
X10731500Y-9652000D03*
X12636500Y-7683500D03*
X14160500Y-8255000D03*
X11684000Y-7620000D03*
X11049000Y-9715500D03*
X11684000Y-8001000D03*
%TO.N,LED*%
X10261600Y-10007600D03*
X11874500Y-8826500D03*
%TO.N,T_DIO*%
X13843000Y-8890000D03*
X12255500Y-8763000D03*
%TO.N,T_CLK*%
X12192000Y-8636000D03*
X13081000Y-8890000D03*
%TO.N,CLK*%
X11366500Y-10223500D03*
X11874500Y-9144000D03*
%TO.N,T_RX*%
X13779500Y-8382000D03*
X12382500Y-8318500D03*
%TO.N,T_TX*%
X13716000Y-8509000D03*
X12509500Y-8509000D03*
%TO.N,T_RST*%
X13843000Y-9144000D03*
X12065000Y-8636000D03*
%TO.N,T_SWO*%
X11874500Y-8953500D03*
X13081000Y-9144000D03*
%TO.N,DIO*%
X11112500Y-10223500D03*
X11811000Y-9017000D03*
%TD*%
%TA.AperFunction,Conductor*%
%TO.N,+3V3*%
G36*
X14351226Y-7241564D02*
G01*
X14353926Y-7241727D01*
X14380856Y-7243356D01*
X14381756Y-7243465D01*
X14410729Y-7248775D01*
X14411609Y-7248992D01*
X14439731Y-7257755D01*
X14440580Y-7258077D01*
X14467440Y-7270165D01*
X14468244Y-7270587D01*
X14493451Y-7285826D01*
X14494198Y-7286341D01*
X14517384Y-7304507D01*
X14518064Y-7305109D01*
X14538891Y-7325936D01*
X14539493Y-7326616D01*
X14557658Y-7349802D01*
X14558174Y-7350549D01*
X14573413Y-7375756D01*
X14573835Y-7376560D01*
X14585923Y-7403420D01*
X14586245Y-7404269D01*
X14595008Y-7432390D01*
X14595225Y-7433272D01*
X14600534Y-7462243D01*
X14600644Y-7463145D01*
X14602436Y-7492773D01*
X14602450Y-7493228D01*
X14602450Y-10286772D01*
X14602436Y-10287226D01*
X14600644Y-10316855D01*
X14600534Y-10317757D01*
X14595225Y-10346728D01*
X14595008Y-10347610D01*
X14586245Y-10375731D01*
X14585923Y-10376580D01*
X14573835Y-10403440D01*
X14573413Y-10404244D01*
X14558174Y-10429451D01*
X14557658Y-10430198D01*
X14539493Y-10453384D01*
X14538891Y-10454064D01*
X14518064Y-10474891D01*
X14517384Y-10475493D01*
X14494198Y-10493658D01*
X14493451Y-10494174D01*
X14468244Y-10509413D01*
X14467440Y-10509835D01*
X14440580Y-10521923D01*
X14439731Y-10522245D01*
X14411610Y-10531008D01*
X14410728Y-10531225D01*
X14381757Y-10536535D01*
X14380855Y-10536644D01*
X14351226Y-10538436D01*
X14350772Y-10538450D01*
X10414228Y-10538450D01*
X10413774Y-10538436D01*
X10384145Y-10536644D01*
X10383243Y-10536535D01*
X10354272Y-10531225D01*
X10353390Y-10531008D01*
X10325269Y-10522245D01*
X10324420Y-10521923D01*
X10297560Y-10509835D01*
X10296756Y-10509413D01*
X10271549Y-10494174D01*
X10270802Y-10493658D01*
X10247616Y-10475493D01*
X10246936Y-10474891D01*
X10226109Y-10454064D01*
X10225507Y-10453384D01*
X10207342Y-10430198D01*
X10206826Y-10429451D01*
X10191587Y-10404243D01*
X10191165Y-10403440D01*
X10179077Y-10376580D01*
X10178755Y-10375731D01*
X10176540Y-10368622D01*
X10169992Y-10347609D01*
X10169775Y-10346729D01*
X10164465Y-10317756D01*
X10164356Y-10316856D01*
X10162564Y-10287226D01*
X10162550Y-10286772D01*
X10162550Y-10277139D01*
X10288710Y-10277139D01*
X10288710Y-10296861D01*
X10291795Y-10316339D01*
X10291795Y-10316340D01*
X10297889Y-10335095D01*
X10306842Y-10352666D01*
X10318434Y-10368621D01*
X10318435Y-10368622D01*
X10332378Y-10382565D01*
X10332379Y-10382566D01*
X10332379Y-10382566D01*
X10336187Y-10385332D01*
X10348334Y-10394158D01*
X10365905Y-10403111D01*
X10384660Y-10409205D01*
X10384661Y-10409205D01*
X10384661Y-10409205D01*
X10404140Y-10412290D01*
X10404140Y-10412290D01*
X10423860Y-10412290D01*
X10423861Y-10412290D01*
X10443339Y-10409205D01*
X10443339Y-10409205D01*
X10443340Y-10409205D01*
X10457116Y-10404729D01*
X10462095Y-10403111D01*
X10479666Y-10394158D01*
X10495621Y-10382566D01*
X10509566Y-10368621D01*
X10521158Y-10352666D01*
X10530111Y-10335095D01*
X10531753Y-10330041D01*
X10536205Y-10316340D01*
X10536205Y-10316339D01*
X10536205Y-10316339D01*
X10539290Y-10296861D01*
X10539290Y-10277140D01*
X10539290Y-10277139D01*
X14225710Y-10277139D01*
X14225710Y-10296861D01*
X14228795Y-10316339D01*
X14228795Y-10316340D01*
X14234889Y-10335095D01*
X14243842Y-10352666D01*
X14255434Y-10368621D01*
X14255435Y-10368622D01*
X14269378Y-10382565D01*
X14269379Y-10382566D01*
X14269379Y-10382566D01*
X14273187Y-10385332D01*
X14285333Y-10394158D01*
X14302905Y-10403111D01*
X14321660Y-10409205D01*
X14321661Y-10409205D01*
X14321661Y-10409205D01*
X14341139Y-10412290D01*
X14341140Y-10412290D01*
X14360860Y-10412290D01*
X14360860Y-10412290D01*
X14380339Y-10409205D01*
X14380339Y-10409205D01*
X14380340Y-10409205D01*
X14394116Y-10404729D01*
X14399095Y-10403111D01*
X14416666Y-10394158D01*
X14432621Y-10382566D01*
X14446566Y-10368621D01*
X14458158Y-10352666D01*
X14467111Y-10335095D01*
X14468753Y-10330041D01*
X14473205Y-10316340D01*
X14473205Y-10316339D01*
X14473205Y-10316339D01*
X14476290Y-10296861D01*
X14476290Y-10277140D01*
X14473205Y-10257661D01*
X14473205Y-10257661D01*
X14473205Y-10257660D01*
X14467111Y-10238905D01*
X14458157Y-10221334D01*
X14447030Y-10206019D01*
X14446566Y-10205379D01*
X14446566Y-10205379D01*
X14446565Y-10205378D01*
X14432622Y-10191435D01*
X14432621Y-10191434D01*
X14416666Y-10179842D01*
X14399095Y-10170889D01*
X14380340Y-10164795D01*
X14380338Y-10164795D01*
X14360861Y-10161710D01*
X14360860Y-10161710D01*
X14341139Y-10161710D01*
X14341139Y-10161710D01*
X14321661Y-10164795D01*
X14321660Y-10164795D01*
X14302905Y-10170889D01*
X14285333Y-10179842D01*
X14269379Y-10191434D01*
X14269378Y-10191435D01*
X14255435Y-10205378D01*
X14255434Y-10205379D01*
X14243842Y-10221334D01*
X14234889Y-10238905D01*
X14228795Y-10257660D01*
X14228795Y-10257661D01*
X14225710Y-10277139D01*
X10539290Y-10277139D01*
X10536205Y-10257661D01*
X10536205Y-10257661D01*
X10536205Y-10257660D01*
X10530111Y-10238905D01*
X10525299Y-10229463D01*
X10521158Y-10221334D01*
X10518400Y-10217538D01*
X11067210Y-10217538D01*
X11067210Y-10229463D01*
X11070296Y-10240981D01*
X11070296Y-10240981D01*
X11076259Y-10251309D01*
X11084691Y-10259741D01*
X11090654Y-10263183D01*
X11095019Y-10265704D01*
X11106538Y-10268790D01*
X11106538Y-10268790D01*
X11118462Y-10268790D01*
X11118463Y-10268790D01*
X11129981Y-10265704D01*
X11140309Y-10259741D01*
X11148741Y-10251309D01*
X11154704Y-10240981D01*
X11157790Y-10229463D01*
X11157790Y-10217538D01*
X11321210Y-10217538D01*
X11321210Y-10229463D01*
X11324296Y-10240981D01*
X11324296Y-10240981D01*
X11330259Y-10251309D01*
X11338691Y-10259741D01*
X11344654Y-10263183D01*
X11349019Y-10265704D01*
X11360537Y-10268790D01*
X11360538Y-10268790D01*
X11372462Y-10268790D01*
X11372462Y-10268790D01*
X11383981Y-10265704D01*
X11394309Y-10259741D01*
X11402741Y-10251309D01*
X11408704Y-10240981D01*
X11411790Y-10229463D01*
X11411790Y-10217538D01*
X11829210Y-10217538D01*
X11829210Y-10229463D01*
X11832296Y-10240981D01*
X11832296Y-10240981D01*
X11838259Y-10251309D01*
X11846691Y-10259741D01*
X11852654Y-10263183D01*
X11857019Y-10265704D01*
X11868537Y-10268790D01*
X11868538Y-10268790D01*
X11880462Y-10268790D01*
X11880462Y-10268790D01*
X11891981Y-10265704D01*
X11902309Y-10259741D01*
X11910741Y-10251309D01*
X11916704Y-10240981D01*
X11919790Y-10229463D01*
X11919790Y-10217538D01*
X11916704Y-10206019D01*
X11916334Y-10205379D01*
X11910741Y-10195691D01*
X11902309Y-10187259D01*
X11891981Y-10181296D01*
X11880462Y-10178210D01*
X11868537Y-10178210D01*
X11859898Y-10180525D01*
X11857019Y-10181296D01*
X11857018Y-10181296D01*
X11846691Y-10187259D01*
X11838259Y-10195691D01*
X11832296Y-10206019D01*
X11832296Y-10206019D01*
X11832296Y-10206019D01*
X11829210Y-10217538D01*
X11411790Y-10217538D01*
X11408704Y-10206019D01*
X11408334Y-10205379D01*
X11402741Y-10195691D01*
X11394309Y-10187259D01*
X11383981Y-10181296D01*
X11372462Y-10178210D01*
X11360537Y-10178210D01*
X11351898Y-10180525D01*
X11349019Y-10181296D01*
X11349018Y-10181296D01*
X11338691Y-10187259D01*
X11330259Y-10195691D01*
X11324296Y-10206019D01*
X11324296Y-10206019D01*
X11324296Y-10206019D01*
X11321210Y-10217538D01*
X11157790Y-10217538D01*
X11154704Y-10206019D01*
X11154334Y-10205379D01*
X11148741Y-10195691D01*
X11140309Y-10187259D01*
X11129981Y-10181296D01*
X11118463Y-10178210D01*
X11106538Y-10178210D01*
X11097898Y-10180525D01*
X11095019Y-10181296D01*
X11095019Y-10181296D01*
X11084691Y-10187259D01*
X11076259Y-10195691D01*
X11070296Y-10206019D01*
X11070296Y-10206019D01*
X11070296Y-10206019D01*
X11067210Y-10217538D01*
X10518400Y-10217538D01*
X10509566Y-10205379D01*
X10509566Y-10205379D01*
X10509565Y-10205378D01*
X10495622Y-10191435D01*
X10495621Y-10191434D01*
X10479666Y-10179842D01*
X10462095Y-10170889D01*
X10443340Y-10164795D01*
X10443339Y-10164795D01*
X10423861Y-10161710D01*
X10423861Y-10161710D01*
X10404140Y-10161710D01*
X10404139Y-10161710D01*
X10384661Y-10164795D01*
X10384660Y-10164795D01*
X10365905Y-10170889D01*
X10348334Y-10179842D01*
X10332379Y-10191434D01*
X10332378Y-10191435D01*
X10318435Y-10205378D01*
X10318434Y-10205379D01*
X10306842Y-10221334D01*
X10297889Y-10238905D01*
X10291795Y-10257660D01*
X10291795Y-10257661D01*
X10288710Y-10277139D01*
X10162550Y-10277139D01*
X10162550Y-10154038D01*
X10686210Y-10154038D01*
X10686210Y-10165963D01*
X10687530Y-10170889D01*
X10689296Y-10177481D01*
X10689296Y-10177481D01*
X10695259Y-10187809D01*
X10703691Y-10196241D01*
X10709654Y-10199683D01*
X10714019Y-10202204D01*
X10725538Y-10205290D01*
X10725538Y-10205290D01*
X10737462Y-10205290D01*
X10737463Y-10205290D01*
X10748981Y-10202204D01*
X10759309Y-10196241D01*
X10767741Y-10187809D01*
X10773704Y-10177481D01*
X10776790Y-10165963D01*
X10776790Y-10154038D01*
X10813210Y-10154038D01*
X10813210Y-10165963D01*
X10814530Y-10170889D01*
X10816296Y-10177481D01*
X10816296Y-10177481D01*
X10822259Y-10187809D01*
X10830691Y-10196241D01*
X10836654Y-10199683D01*
X10841019Y-10202204D01*
X10852538Y-10205290D01*
X10852538Y-10205290D01*
X10864462Y-10205290D01*
X10864463Y-10205290D01*
X10875981Y-10202204D01*
X10886309Y-10196241D01*
X10894741Y-10187809D01*
X10900704Y-10177481D01*
X10903790Y-10165963D01*
X10903790Y-10154038D01*
X10900704Y-10142519D01*
X10900704Y-10142519D01*
X10894741Y-10132191D01*
X10886309Y-10123759D01*
X10875981Y-10117796D01*
X10864463Y-10114710D01*
X10852538Y-10114710D01*
X10843898Y-10117025D01*
X10841019Y-10117796D01*
X10841019Y-10117796D01*
X10830691Y-10123759D01*
X10822259Y-10132191D01*
X10816296Y-10142519D01*
X10816296Y-10142519D01*
X10816296Y-10142519D01*
X10813210Y-10154038D01*
X10776790Y-10154038D01*
X10773704Y-10142519D01*
X10773704Y-10142519D01*
X10767741Y-10132191D01*
X10759309Y-10123759D01*
X10748981Y-10117796D01*
X10737463Y-10114710D01*
X10725538Y-10114710D01*
X10716898Y-10117025D01*
X10714019Y-10117796D01*
X10714019Y-10117796D01*
X10703691Y-10123759D01*
X10695259Y-10132191D01*
X10689296Y-10142519D01*
X10689296Y-10142519D01*
X10689296Y-10142519D01*
X10686210Y-10154038D01*
X10162550Y-10154038D01*
X10162550Y-10001638D01*
X10216310Y-10001638D01*
X10216310Y-10013563D01*
X10219396Y-10025081D01*
X10219396Y-10025081D01*
X10225359Y-10035409D01*
X10233791Y-10043841D01*
X10239754Y-10047283D01*
X10244119Y-10049804D01*
X10255638Y-10052890D01*
X10255638Y-10052890D01*
X10267562Y-10052890D01*
X10267563Y-10052890D01*
X10279081Y-10049804D01*
X10289409Y-10043841D01*
X10297841Y-10035409D01*
X10303804Y-10025081D01*
X10306890Y-10013563D01*
X10306890Y-10001638D01*
X10303804Y-9990119D01*
X10303804Y-9990119D01*
X10297841Y-9979791D01*
X10289409Y-9971359D01*
X10279081Y-9965396D01*
X10267563Y-9962310D01*
X10255638Y-9962310D01*
X10246998Y-9964625D01*
X10244119Y-9965396D01*
X10244119Y-9965396D01*
X10233791Y-9971359D01*
X10225359Y-9979791D01*
X10219396Y-9990119D01*
X10219396Y-9990119D01*
X10219396Y-9990119D01*
X10216310Y-10001638D01*
X10162550Y-10001638D01*
X10162550Y-9900038D01*
X11194210Y-9900038D01*
X11194210Y-9911963D01*
X11197296Y-9923481D01*
X11197296Y-9923481D01*
X11203259Y-9933809D01*
X11211691Y-9942241D01*
X11217654Y-9945683D01*
X11222019Y-9948204D01*
X11233537Y-9951290D01*
X11233538Y-9951290D01*
X11245462Y-9951290D01*
X11245462Y-9951290D01*
X11256981Y-9948204D01*
X11267309Y-9942241D01*
X11275741Y-9933809D01*
X11281704Y-9923481D01*
X11284790Y-9911963D01*
X11284790Y-9900038D01*
X11281704Y-9888519D01*
X11281283Y-9887790D01*
X11275741Y-9878191D01*
X11267309Y-9869759D01*
X11256981Y-9863796D01*
X11245462Y-9860710D01*
X11233537Y-9860710D01*
X11224898Y-9863025D01*
X11222019Y-9863796D01*
X11222018Y-9863796D01*
X11211691Y-9869759D01*
X11203259Y-9878191D01*
X11197296Y-9888519D01*
X11197296Y-9888519D01*
X11197296Y-9888519D01*
X11194210Y-9900038D01*
X10162550Y-9900038D01*
X10162550Y-9836538D01*
X10686210Y-9836538D01*
X10686210Y-9848463D01*
X10689296Y-9859981D01*
X10689296Y-9859981D01*
X10695259Y-9870309D01*
X10703691Y-9878741D01*
X10709654Y-9882183D01*
X10714019Y-9884704D01*
X10725538Y-9887790D01*
X10725538Y-9887790D01*
X10737462Y-9887790D01*
X10737463Y-9887790D01*
X10748981Y-9884704D01*
X10759309Y-9878741D01*
X10767741Y-9870309D01*
X10773704Y-9859981D01*
X10776790Y-9848463D01*
X10776790Y-9836538D01*
X10773704Y-9825019D01*
X10773283Y-9824290D01*
X10767741Y-9814691D01*
X10759309Y-9806259D01*
X10748981Y-9800296D01*
X10737463Y-9797210D01*
X10725538Y-9797210D01*
X10716898Y-9799525D01*
X10714019Y-9800296D01*
X10714019Y-9800296D01*
X10703691Y-9806259D01*
X10695259Y-9814691D01*
X10689296Y-9825019D01*
X10689296Y-9825019D01*
X10689296Y-9825019D01*
X10686210Y-9836538D01*
X10162550Y-9836538D01*
X10162550Y-9773038D01*
X14369210Y-9773038D01*
X14369210Y-9784963D01*
X14372296Y-9796481D01*
X14372296Y-9796481D01*
X14378259Y-9806809D01*
X14386691Y-9815241D01*
X14392654Y-9818683D01*
X14397019Y-9821204D01*
X14408537Y-9824290D01*
X14408538Y-9824290D01*
X14420462Y-9824290D01*
X14420462Y-9824290D01*
X14431981Y-9821204D01*
X14442309Y-9815241D01*
X14450741Y-9806809D01*
X14456704Y-9796481D01*
X14459790Y-9784963D01*
X14459790Y-9773038D01*
X14456704Y-9761519D01*
X14456703Y-9761519D01*
X14450741Y-9751191D01*
X14442309Y-9742759D01*
X14431981Y-9736796D01*
X14420462Y-9733710D01*
X14408537Y-9733710D01*
X14399898Y-9736025D01*
X14397019Y-9736796D01*
X14397018Y-9736796D01*
X14386691Y-9742759D01*
X14378259Y-9751191D01*
X14372296Y-9761519D01*
X14372296Y-9761519D01*
X14372296Y-9761519D01*
X14369210Y-9773038D01*
X10162550Y-9773038D01*
X10162550Y-9646038D01*
X14369210Y-9646038D01*
X14369210Y-9657963D01*
X14372296Y-9669481D01*
X14372296Y-9669481D01*
X14378259Y-9679809D01*
X14386691Y-9688241D01*
X14392654Y-9691683D01*
X14397019Y-9694204D01*
X14408537Y-9697290D01*
X14408538Y-9697290D01*
X14420462Y-9697290D01*
X14420462Y-9697290D01*
X14431981Y-9694204D01*
X14442309Y-9688241D01*
X14450741Y-9679809D01*
X14456704Y-9669481D01*
X14459790Y-9657963D01*
X14459790Y-9646038D01*
X14456704Y-9634519D01*
X14456703Y-9634519D01*
X14450741Y-9624191D01*
X14442309Y-9615759D01*
X14431981Y-9609796D01*
X14420462Y-9606710D01*
X14408537Y-9606710D01*
X14399898Y-9609025D01*
X14397019Y-9609796D01*
X14397018Y-9609796D01*
X14386691Y-9615759D01*
X14378259Y-9624191D01*
X14372296Y-9634519D01*
X14372296Y-9634519D01*
X14372296Y-9634519D01*
X14369210Y-9646038D01*
X10162550Y-9646038D01*
X10162550Y-9455538D01*
X12273710Y-9455538D01*
X12273710Y-9467463D01*
X12276796Y-9478981D01*
X12276796Y-9478981D01*
X12282759Y-9489309D01*
X12291191Y-9497741D01*
X12297154Y-9501183D01*
X12301519Y-9503704D01*
X12313037Y-9506790D01*
X12313038Y-9506790D01*
X12324962Y-9506790D01*
X12324962Y-9506790D01*
X12336481Y-9503704D01*
X12346809Y-9497741D01*
X12355241Y-9489309D01*
X12361204Y-9478981D01*
X12364290Y-9467463D01*
X12364290Y-9455538D01*
X12361204Y-9444019D01*
X12361203Y-9444019D01*
X12355241Y-9433691D01*
X12346809Y-9425259D01*
X12336481Y-9419296D01*
X12324962Y-9416210D01*
X12313037Y-9416210D01*
X12304398Y-9418525D01*
X12301519Y-9419296D01*
X12301518Y-9419296D01*
X12291191Y-9425259D01*
X12282759Y-9433691D01*
X12276796Y-9444019D01*
X12276796Y-9444019D01*
X12276796Y-9444019D01*
X12273710Y-9455538D01*
X10162550Y-9455538D01*
X10162550Y-9315570D01*
X10317710Y-9315570D01*
X10317710Y-9328431D01*
X10320219Y-9341044D01*
X10325141Y-9352926D01*
X10332286Y-9363620D01*
X10332286Y-9363620D01*
X10332286Y-9363620D01*
X10341380Y-9372714D01*
X10341380Y-9372714D01*
X10341380Y-9372714D01*
X10352074Y-9379859D01*
X10363956Y-9384781D01*
X10371524Y-9386286D01*
X10376569Y-9387290D01*
X10376570Y-9387290D01*
X10449431Y-9387290D01*
X10453635Y-9386454D01*
X10462044Y-9384781D01*
X10473926Y-9379859D01*
X10484620Y-9372714D01*
X10493714Y-9363620D01*
X10500859Y-9352926D01*
X10505781Y-9341044D01*
X10508290Y-9328431D01*
X10508290Y-9315570D01*
X10710710Y-9315570D01*
X10710710Y-9328431D01*
X10713219Y-9341044D01*
X10718141Y-9352926D01*
X10725286Y-9363620D01*
X10725286Y-9363620D01*
X10725286Y-9363620D01*
X10734380Y-9372714D01*
X10734380Y-9372714D01*
X10734380Y-9372714D01*
X10745074Y-9379859D01*
X10756956Y-9384781D01*
X10764524Y-9386286D01*
X10769569Y-9387290D01*
X10769570Y-9387290D01*
X10892431Y-9387290D01*
X10896635Y-9386454D01*
X10905044Y-9384781D01*
X10916926Y-9379859D01*
X10927620Y-9372714D01*
X10936714Y-9363620D01*
X10943859Y-9352926D01*
X10948781Y-9341044D01*
X10951290Y-9328431D01*
X10951290Y-9315570D01*
X10948781Y-9302956D01*
X10943859Y-9291074D01*
X10936714Y-9280380D01*
X10936714Y-9280380D01*
X10936714Y-9280380D01*
X10927620Y-9271286D01*
X10927620Y-9271286D01*
X10927620Y-9271286D01*
X10916926Y-9264141D01*
X10905044Y-9259219D01*
X10905044Y-9259219D01*
X10905044Y-9259219D01*
X10892431Y-9256710D01*
X10892431Y-9256710D01*
X10769570Y-9256710D01*
X10769569Y-9256710D01*
X10756956Y-9259219D01*
X10756956Y-9259219D01*
X10745074Y-9264141D01*
X10734380Y-9271286D01*
X10734380Y-9271286D01*
X10725286Y-9280380D01*
X10725286Y-9280380D01*
X10718141Y-9291074D01*
X10713219Y-9302956D01*
X10710710Y-9315570D01*
X10508290Y-9315570D01*
X10505781Y-9302956D01*
X10500859Y-9291074D01*
X10493714Y-9280380D01*
X10493714Y-9280380D01*
X10493714Y-9280380D01*
X10484620Y-9271286D01*
X10484620Y-9271286D01*
X10484620Y-9271286D01*
X10473926Y-9264141D01*
X10462044Y-9259219D01*
X10462044Y-9259219D01*
X10462044Y-9259219D01*
X10449431Y-9256710D01*
X10449431Y-9256710D01*
X10376570Y-9256710D01*
X10376569Y-9256710D01*
X10363956Y-9259219D01*
X10363956Y-9259219D01*
X10352074Y-9264141D01*
X10341380Y-9271286D01*
X10341380Y-9271286D01*
X10332286Y-9280380D01*
X10332286Y-9280380D01*
X10325141Y-9291074D01*
X10320219Y-9302956D01*
X10317710Y-9315570D01*
X10162550Y-9315570D01*
X10162550Y-9172708D01*
X10730210Y-9172708D01*
X10730210Y-9185292D01*
X10733467Y-9197446D01*
X10733467Y-9197447D01*
X10739758Y-9208344D01*
X10748656Y-9217242D01*
X10759553Y-9223533D01*
X10759553Y-9223533D01*
X10759554Y-9223533D01*
X10771708Y-9226790D01*
X10771709Y-9226790D01*
X10784291Y-9226790D01*
X10784292Y-9226790D01*
X10796446Y-9223533D01*
X10807344Y-9217242D01*
X10816242Y-9208344D01*
X10822533Y-9197446D01*
X10825790Y-9185292D01*
X10825790Y-9172708D01*
X10822533Y-9160554D01*
X10822533Y-9160553D01*
X10822533Y-9160553D01*
X10816242Y-9149656D01*
X10807344Y-9140758D01*
X10802631Y-9138038D01*
X11829210Y-9138038D01*
X11829210Y-9149963D01*
X11832048Y-9160553D01*
X11832296Y-9161481D01*
X11832296Y-9161481D01*
X11838259Y-9171809D01*
X11846691Y-9180241D01*
X11852654Y-9183683D01*
X11857019Y-9186204D01*
X11868537Y-9189290D01*
X11868538Y-9189290D01*
X11880462Y-9189290D01*
X11880462Y-9189290D01*
X11891981Y-9186204D01*
X11902309Y-9180241D01*
X11910741Y-9171809D01*
X11916704Y-9161481D01*
X11919790Y-9149963D01*
X11919790Y-9138038D01*
X13035710Y-9138038D01*
X13035710Y-9149963D01*
X13038548Y-9160553D01*
X13038796Y-9161481D01*
X13038796Y-9161481D01*
X13044759Y-9171809D01*
X13053191Y-9180241D01*
X13059154Y-9183683D01*
X13063519Y-9186204D01*
X13075037Y-9189290D01*
X13075038Y-9189290D01*
X13086962Y-9189290D01*
X13086962Y-9189290D01*
X13098481Y-9186204D01*
X13108809Y-9180241D01*
X13117241Y-9171809D01*
X13123204Y-9161481D01*
X13126290Y-9149963D01*
X13126290Y-9138038D01*
X13797710Y-9138038D01*
X13797710Y-9149963D01*
X13800548Y-9160553D01*
X13800796Y-9161481D01*
X13800796Y-9161481D01*
X13806759Y-9171809D01*
X13815191Y-9180241D01*
X13821154Y-9183683D01*
X13825519Y-9186204D01*
X13837037Y-9189290D01*
X13837038Y-9189290D01*
X13848962Y-9189290D01*
X13848962Y-9189290D01*
X13860481Y-9186204D01*
X13870809Y-9180241D01*
X13879241Y-9171809D01*
X13885204Y-9161481D01*
X13888290Y-9149963D01*
X13888290Y-9138038D01*
X13885204Y-9126519D01*
X13885203Y-9126519D01*
X13879241Y-9116191D01*
X13870809Y-9107759D01*
X13860481Y-9101796D01*
X13848962Y-9098710D01*
X13837037Y-9098710D01*
X13828398Y-9101025D01*
X13825519Y-9101796D01*
X13825518Y-9101796D01*
X13815191Y-9107759D01*
X13806759Y-9116191D01*
X13800796Y-9126519D01*
X13800796Y-9126519D01*
X13800796Y-9126519D01*
X13797710Y-9138038D01*
X13126290Y-9138038D01*
X13123204Y-9126519D01*
X13123203Y-9126519D01*
X13117241Y-9116191D01*
X13108809Y-9107759D01*
X13098481Y-9101796D01*
X13086962Y-9098710D01*
X13075037Y-9098710D01*
X13066398Y-9101025D01*
X13063519Y-9101796D01*
X13063518Y-9101796D01*
X13053191Y-9107759D01*
X13044759Y-9116191D01*
X13038796Y-9126519D01*
X13038796Y-9126519D01*
X13038796Y-9126519D01*
X13035710Y-9138038D01*
X11919790Y-9138038D01*
X11916704Y-9126519D01*
X11916703Y-9126519D01*
X11910741Y-9116191D01*
X11902309Y-9107759D01*
X11891981Y-9101796D01*
X11880462Y-9098710D01*
X11868537Y-9098710D01*
X11859898Y-9101025D01*
X11857019Y-9101796D01*
X11857018Y-9101796D01*
X11846691Y-9107759D01*
X11838259Y-9116191D01*
X11832296Y-9126519D01*
X11832296Y-9126519D01*
X11832296Y-9126519D01*
X11829210Y-9138038D01*
X10802631Y-9138038D01*
X10796447Y-9134467D01*
X10796446Y-9134467D01*
X10796446Y-9134467D01*
X10784292Y-9131210D01*
X10771708Y-9131210D01*
X10759554Y-9134467D01*
X10759553Y-9134467D01*
X10748656Y-9140758D01*
X10739758Y-9149656D01*
X10733467Y-9160553D01*
X10733467Y-9160554D01*
X10730210Y-9172708D01*
X10162550Y-9172708D01*
X10162550Y-9011038D01*
X11765710Y-9011038D01*
X11765710Y-9022963D01*
X11768796Y-9034481D01*
X11768796Y-9034481D01*
X11774759Y-9044809D01*
X11783191Y-9053241D01*
X11789154Y-9056683D01*
X11793519Y-9059204D01*
X11805037Y-9062290D01*
X11805038Y-9062290D01*
X11816962Y-9062290D01*
X11816962Y-9062290D01*
X11828481Y-9059204D01*
X11838809Y-9053241D01*
X11847241Y-9044809D01*
X11853204Y-9034481D01*
X11856290Y-9022963D01*
X11856290Y-9011038D01*
X11855178Y-9006888D01*
X11855626Y-9001764D01*
X11859264Y-8998127D01*
X11864388Y-8997678D01*
X11868537Y-8998790D01*
X11868538Y-8998790D01*
X11880462Y-8998790D01*
X11880462Y-8998790D01*
X11891981Y-8995704D01*
X11902309Y-8989741D01*
X11910741Y-8981309D01*
X11916704Y-8970981D01*
X11919790Y-8959463D01*
X11919790Y-8947538D01*
X11916704Y-8936019D01*
X11916283Y-8935290D01*
X11910741Y-8925691D01*
X11902309Y-8917259D01*
X11891981Y-8911296D01*
X11880462Y-8908210D01*
X11868537Y-8908210D01*
X11859898Y-8910525D01*
X11857019Y-8911296D01*
X11857018Y-8911296D01*
X11846691Y-8917259D01*
X11838259Y-8925691D01*
X11832296Y-8936019D01*
X11832296Y-8936019D01*
X11832296Y-8936019D01*
X11829210Y-8947538D01*
X11829210Y-8959463D01*
X11830322Y-8963612D01*
X11829873Y-8968736D01*
X11826236Y-8972374D01*
X11821112Y-8972822D01*
X11816962Y-8971710D01*
X11805037Y-8971710D01*
X11796398Y-8974025D01*
X11793519Y-8974796D01*
X11793518Y-8974796D01*
X11783191Y-8980759D01*
X11774759Y-8989191D01*
X11768796Y-8999519D01*
X11768796Y-8999519D01*
X11768796Y-8999519D01*
X11765710Y-9011038D01*
X10162550Y-9011038D01*
X10162550Y-8947538D01*
X10686210Y-8947538D01*
X10686210Y-8959463D01*
X10689296Y-8970981D01*
X10689296Y-8970981D01*
X10695259Y-8981309D01*
X10703691Y-8989741D01*
X10709654Y-8993183D01*
X10714019Y-8995704D01*
X10725538Y-8998790D01*
X10725538Y-8998790D01*
X10737462Y-8998790D01*
X10737463Y-8998790D01*
X10748981Y-8995704D01*
X10759309Y-8989741D01*
X10767741Y-8981309D01*
X10773704Y-8970981D01*
X10776790Y-8959463D01*
X10776790Y-8947538D01*
X10773704Y-8936019D01*
X10773283Y-8935290D01*
X10767741Y-8925691D01*
X10759309Y-8917259D01*
X10748981Y-8911296D01*
X10737463Y-8908210D01*
X10725538Y-8908210D01*
X10716898Y-8910525D01*
X10714019Y-8911296D01*
X10714019Y-8911296D01*
X10703691Y-8917259D01*
X10695259Y-8925691D01*
X10689296Y-8936019D01*
X10689296Y-8936019D01*
X10689296Y-8936019D01*
X10686210Y-8947538D01*
X10162550Y-8947538D01*
X10162550Y-8884038D01*
X11130710Y-8884038D01*
X11130710Y-8895963D01*
X11133796Y-8907481D01*
X11133796Y-8907481D01*
X11139759Y-8917809D01*
X11148191Y-8926241D01*
X11154154Y-8929683D01*
X11158519Y-8932204D01*
X11170038Y-8935290D01*
X11170038Y-8935290D01*
X11181962Y-8935290D01*
X11181963Y-8935290D01*
X11193481Y-8932204D01*
X11203809Y-8926241D01*
X11212241Y-8917809D01*
X11218204Y-8907481D01*
X11221290Y-8895963D01*
X11221290Y-8884038D01*
X13035710Y-8884038D01*
X13035710Y-8895963D01*
X13038796Y-8907481D01*
X13038796Y-8907481D01*
X13044759Y-8917809D01*
X13053191Y-8926241D01*
X13059154Y-8929683D01*
X13063519Y-8932204D01*
X13075037Y-8935290D01*
X13075038Y-8935290D01*
X13086962Y-8935290D01*
X13086962Y-8935290D01*
X13098481Y-8932204D01*
X13108809Y-8926241D01*
X13117241Y-8917809D01*
X13123204Y-8907481D01*
X13126290Y-8895963D01*
X13126290Y-8884038D01*
X13797710Y-8884038D01*
X13797710Y-8895963D01*
X13800796Y-8907481D01*
X13800796Y-8907481D01*
X13806759Y-8917809D01*
X13815191Y-8926241D01*
X13821154Y-8929683D01*
X13825519Y-8932204D01*
X13837037Y-8935290D01*
X13837038Y-8935290D01*
X13848962Y-8935290D01*
X13848962Y-8935290D01*
X13860481Y-8932204D01*
X13870809Y-8926241D01*
X13879241Y-8917809D01*
X13885204Y-8907481D01*
X13888290Y-8895963D01*
X13888290Y-8884038D01*
X13885204Y-8872519D01*
X13884783Y-8871790D01*
X13879241Y-8862191D01*
X13870809Y-8853759D01*
X13860481Y-8847796D01*
X13848962Y-8844710D01*
X13837037Y-8844710D01*
X13828398Y-8847025D01*
X13825519Y-8847796D01*
X13825518Y-8847796D01*
X13815191Y-8853759D01*
X13806759Y-8862191D01*
X13800796Y-8872519D01*
X13800796Y-8872519D01*
X13800796Y-8872519D01*
X13797710Y-8884038D01*
X13126290Y-8884038D01*
X13123204Y-8872519D01*
X13122783Y-8871790D01*
X13117241Y-8862191D01*
X13108809Y-8853759D01*
X13098481Y-8847796D01*
X13086962Y-8844710D01*
X13075037Y-8844710D01*
X13066398Y-8847025D01*
X13063519Y-8847796D01*
X13063518Y-8847796D01*
X13053191Y-8853759D01*
X13044759Y-8862191D01*
X13038796Y-8872519D01*
X13038796Y-8872519D01*
X13038796Y-8872519D01*
X13035710Y-8884038D01*
X11221290Y-8884038D01*
X11218204Y-8872519D01*
X11217783Y-8871790D01*
X11212241Y-8862191D01*
X11203809Y-8853759D01*
X11193481Y-8847796D01*
X11181963Y-8844710D01*
X11170038Y-8844710D01*
X11161398Y-8847025D01*
X11158519Y-8847796D01*
X11158519Y-8847796D01*
X11148191Y-8853759D01*
X11139759Y-8862191D01*
X11133796Y-8872519D01*
X11133796Y-8872519D01*
X11133796Y-8872519D01*
X11130710Y-8884038D01*
X10162550Y-8884038D01*
X10162550Y-8820538D01*
X10686210Y-8820538D01*
X10686210Y-8832463D01*
X10689296Y-8843981D01*
X10689296Y-8843981D01*
X10695259Y-8854309D01*
X10703691Y-8862741D01*
X10709654Y-8866183D01*
X10714019Y-8868704D01*
X10725538Y-8871790D01*
X10725538Y-8871790D01*
X10737462Y-8871790D01*
X10737463Y-8871790D01*
X10748981Y-8868704D01*
X10759309Y-8862741D01*
X10767741Y-8854309D01*
X10773704Y-8843981D01*
X10776790Y-8832463D01*
X10776790Y-8820538D01*
X10773704Y-8809019D01*
X10771661Y-8805481D01*
X10767741Y-8798691D01*
X10759309Y-8790259D01*
X10755495Y-8788057D01*
X10748981Y-8784296D01*
X10740551Y-8782038D01*
X11483710Y-8782038D01*
X11483710Y-8793963D01*
X11486722Y-8805204D01*
X11486796Y-8805481D01*
X11486796Y-8805481D01*
X11492759Y-8815809D01*
X11501191Y-8824241D01*
X11507154Y-8827683D01*
X11511519Y-8830204D01*
X11523037Y-8833290D01*
X11523038Y-8833290D01*
X11534962Y-8833290D01*
X11534962Y-8833290D01*
X11546481Y-8830204D01*
X11556809Y-8824241D01*
X11560512Y-8820538D01*
X11829210Y-8820538D01*
X11829210Y-8832463D01*
X11832296Y-8843981D01*
X11832296Y-8843981D01*
X11838259Y-8854309D01*
X11846691Y-8862741D01*
X11852654Y-8866183D01*
X11857019Y-8868704D01*
X11868537Y-8871790D01*
X11868538Y-8871790D01*
X11880462Y-8871790D01*
X11880462Y-8871790D01*
X11891981Y-8868704D01*
X11902309Y-8862741D01*
X11910741Y-8854309D01*
X11916704Y-8843981D01*
X11919790Y-8832463D01*
X11919790Y-8820538D01*
X11916704Y-8809019D01*
X11914661Y-8805481D01*
X11910741Y-8798691D01*
X11902309Y-8790259D01*
X11891981Y-8784296D01*
X11880462Y-8781210D01*
X11868537Y-8781210D01*
X11859898Y-8783525D01*
X11857019Y-8784296D01*
X11857018Y-8784296D01*
X11846691Y-8790259D01*
X11838259Y-8798691D01*
X11832296Y-8809019D01*
X11832296Y-8809019D01*
X11832296Y-8809019D01*
X11829210Y-8820538D01*
X11560512Y-8820538D01*
X11565241Y-8815809D01*
X11571204Y-8805481D01*
X11574290Y-8793963D01*
X11574290Y-8782038D01*
X11571204Y-8770519D01*
X11570305Y-8768963D01*
X11565306Y-8760305D01*
X11565306Y-8760304D01*
X11565241Y-8760191D01*
X11562087Y-8757038D01*
X12210210Y-8757038D01*
X12210210Y-8768963D01*
X12210627Y-8770519D01*
X12213296Y-8780481D01*
X12213296Y-8780481D01*
X12219259Y-8790809D01*
X12227691Y-8799241D01*
X12233654Y-8802683D01*
X12238019Y-8805204D01*
X12249537Y-8808290D01*
X12249538Y-8808290D01*
X12261462Y-8808290D01*
X12261462Y-8808290D01*
X12272981Y-8805204D01*
X12283309Y-8799241D01*
X12291741Y-8790809D01*
X12297704Y-8780481D01*
X12300790Y-8768963D01*
X12300790Y-8757038D01*
X12297704Y-8745519D01*
X12296082Y-8742710D01*
X12291741Y-8735191D01*
X12283309Y-8726759D01*
X12272981Y-8720796D01*
X12261462Y-8717710D01*
X12249537Y-8717710D01*
X12240898Y-8720025D01*
X12238019Y-8720796D01*
X12238018Y-8720796D01*
X12227691Y-8726759D01*
X12219259Y-8735191D01*
X12213296Y-8745519D01*
X12213296Y-8745519D01*
X12213296Y-8745519D01*
X12210210Y-8757038D01*
X11562087Y-8757038D01*
X11556809Y-8751759D01*
X11546481Y-8745796D01*
X11545444Y-8745519D01*
X11534962Y-8742710D01*
X11523037Y-8742710D01*
X11514398Y-8745025D01*
X11511519Y-8745796D01*
X11511518Y-8745796D01*
X11501191Y-8751759D01*
X11492759Y-8760191D01*
X11486796Y-8770519D01*
X11486796Y-8770519D01*
X11486796Y-8770519D01*
X11483710Y-8782038D01*
X10740551Y-8782038D01*
X10737463Y-8781210D01*
X10725538Y-8781210D01*
X10716898Y-8783525D01*
X10714019Y-8784296D01*
X10714019Y-8784296D01*
X10703691Y-8790259D01*
X10695259Y-8798691D01*
X10689296Y-8809019D01*
X10689296Y-8809019D01*
X10689296Y-8809019D01*
X10686210Y-8820538D01*
X10162550Y-8820538D01*
X10162550Y-8594708D01*
X10730210Y-8594708D01*
X10730210Y-8607292D01*
X10733218Y-8618519D01*
X10733467Y-8619446D01*
X10733467Y-8619447D01*
X10739758Y-8630344D01*
X10748656Y-8639242D01*
X10759553Y-8645533D01*
X10759553Y-8645533D01*
X10759554Y-8645533D01*
X10771708Y-8648790D01*
X10771709Y-8648790D01*
X10784291Y-8648790D01*
X10784292Y-8648790D01*
X10796446Y-8645533D01*
X10807344Y-8639242D01*
X10816242Y-8630344D01*
X10816418Y-8630038D01*
X12019710Y-8630038D01*
X12019710Y-8641963D01*
X12021539Y-8648790D01*
X12022796Y-8653481D01*
X12022796Y-8653481D01*
X12028759Y-8663809D01*
X12037191Y-8672241D01*
X12043154Y-8675683D01*
X12047519Y-8678204D01*
X12059037Y-8681290D01*
X12059038Y-8681290D01*
X12070962Y-8681290D01*
X12070962Y-8681290D01*
X12082481Y-8678204D01*
X12092809Y-8672241D01*
X12101241Y-8663809D01*
X12107204Y-8653481D01*
X12110290Y-8641963D01*
X12110290Y-8630038D01*
X12146710Y-8630038D01*
X12146710Y-8641963D01*
X12148539Y-8648790D01*
X12149796Y-8653481D01*
X12149796Y-8653481D01*
X12155759Y-8663809D01*
X12164191Y-8672241D01*
X12170154Y-8675683D01*
X12174519Y-8678204D01*
X12186037Y-8681290D01*
X12186038Y-8681290D01*
X12197962Y-8681290D01*
X12197962Y-8681290D01*
X12209481Y-8678204D01*
X12219809Y-8672241D01*
X12228241Y-8663809D01*
X12234204Y-8653481D01*
X12237290Y-8641963D01*
X12237290Y-8630038D01*
X12234204Y-8618519D01*
X12234203Y-8618519D01*
X12228241Y-8608191D01*
X12219809Y-8599759D01*
X12209481Y-8593796D01*
X12197962Y-8590710D01*
X12186037Y-8590710D01*
X12177398Y-8593025D01*
X12174519Y-8593796D01*
X12174518Y-8593796D01*
X12164191Y-8599759D01*
X12155759Y-8608191D01*
X12149796Y-8618519D01*
X12149796Y-8618519D01*
X12148768Y-8622358D01*
X12146710Y-8630038D01*
X12110290Y-8630038D01*
X12107204Y-8618519D01*
X12107203Y-8618519D01*
X12101241Y-8608191D01*
X12092809Y-8599759D01*
X12082481Y-8593796D01*
X12070962Y-8590710D01*
X12059037Y-8590710D01*
X12050398Y-8593025D01*
X12047519Y-8593796D01*
X12047518Y-8593796D01*
X12037191Y-8599759D01*
X12028759Y-8608191D01*
X12022796Y-8618519D01*
X12022796Y-8618519D01*
X12021768Y-8622358D01*
X12019710Y-8630038D01*
X10816418Y-8630038D01*
X10822533Y-8619446D01*
X10825790Y-8607292D01*
X10825790Y-8594708D01*
X10822533Y-8582554D01*
X10822533Y-8582553D01*
X10822533Y-8582553D01*
X10816242Y-8571656D01*
X10807344Y-8562758D01*
X10796447Y-8556467D01*
X10796446Y-8556467D01*
X10796446Y-8556467D01*
X10784292Y-8553210D01*
X10771708Y-8553210D01*
X10759554Y-8556467D01*
X10759553Y-8556467D01*
X10748656Y-8562758D01*
X10739758Y-8571656D01*
X10733467Y-8582553D01*
X10733467Y-8582554D01*
X10730210Y-8594708D01*
X10162550Y-8594708D01*
X10162550Y-8451569D01*
X10317710Y-8451569D01*
X10317710Y-8464431D01*
X10319367Y-8472759D01*
X10320219Y-8477044D01*
X10325141Y-8488926D01*
X10332286Y-8499620D01*
X10332286Y-8499620D01*
X10332286Y-8499620D01*
X10341380Y-8508714D01*
X10341380Y-8508714D01*
X10341380Y-8508714D01*
X10352074Y-8515859D01*
X10363956Y-8520781D01*
X10371524Y-8522286D01*
X10376569Y-8523290D01*
X10376570Y-8523290D01*
X10449431Y-8523290D01*
X10453635Y-8522454D01*
X10462044Y-8520781D01*
X10473926Y-8515859D01*
X10484620Y-8508714D01*
X10493714Y-8499620D01*
X10500859Y-8488926D01*
X10505781Y-8477044D01*
X10508290Y-8464431D01*
X10508290Y-8451570D01*
X10508290Y-8451569D01*
X10710710Y-8451569D01*
X10710710Y-8464431D01*
X10712367Y-8472759D01*
X10713219Y-8477044D01*
X10718141Y-8488926D01*
X10725286Y-8499620D01*
X10725286Y-8499620D01*
X10725286Y-8499620D01*
X10734380Y-8508714D01*
X10734380Y-8508714D01*
X10734380Y-8508714D01*
X10745074Y-8515859D01*
X10756956Y-8520781D01*
X10764524Y-8522286D01*
X10769569Y-8523290D01*
X10769570Y-8523290D01*
X10892431Y-8523290D01*
X10896635Y-8522454D01*
X10905044Y-8520781D01*
X10916926Y-8515859D01*
X10927620Y-8508714D01*
X10933296Y-8503038D01*
X12464210Y-8503038D01*
X12464210Y-8514963D01*
X12464450Y-8515859D01*
X12467296Y-8526481D01*
X12467296Y-8526481D01*
X12473259Y-8536809D01*
X12481691Y-8545241D01*
X12487654Y-8548683D01*
X12492019Y-8551204D01*
X12503537Y-8554290D01*
X12503538Y-8554290D01*
X12515462Y-8554290D01*
X12515462Y-8554290D01*
X12526981Y-8551204D01*
X12537309Y-8545241D01*
X12545741Y-8536809D01*
X12551704Y-8526481D01*
X12554790Y-8514963D01*
X12554790Y-8503038D01*
X13670710Y-8503038D01*
X13670710Y-8514963D01*
X13670950Y-8515859D01*
X13673796Y-8526481D01*
X13673796Y-8526481D01*
X13679759Y-8536809D01*
X13688191Y-8545241D01*
X13694154Y-8548683D01*
X13698519Y-8551204D01*
X13710037Y-8554290D01*
X13710038Y-8554290D01*
X13721962Y-8554290D01*
X13721962Y-8554290D01*
X13733481Y-8551204D01*
X13743809Y-8545241D01*
X13752241Y-8536809D01*
X13758204Y-8526481D01*
X13761290Y-8514963D01*
X13761290Y-8503038D01*
X13758204Y-8491519D01*
X13758203Y-8491519D01*
X13752241Y-8481191D01*
X13743809Y-8472759D01*
X13733481Y-8466796D01*
X13721962Y-8463710D01*
X13710037Y-8463710D01*
X13701398Y-8466025D01*
X13698519Y-8466796D01*
X13698518Y-8466796D01*
X13688191Y-8472759D01*
X13679759Y-8481191D01*
X13673796Y-8491519D01*
X13673796Y-8491519D01*
X13673796Y-8491519D01*
X13670710Y-8503038D01*
X12554790Y-8503038D01*
X12551704Y-8491519D01*
X12551703Y-8491519D01*
X12545741Y-8481191D01*
X12537309Y-8472759D01*
X12526981Y-8466796D01*
X12515462Y-8463710D01*
X12503537Y-8463710D01*
X12494898Y-8466025D01*
X12492019Y-8466796D01*
X12492018Y-8466796D01*
X12481691Y-8472759D01*
X12473259Y-8481191D01*
X12467296Y-8491519D01*
X12467296Y-8491519D01*
X12467296Y-8491519D01*
X12464210Y-8503038D01*
X10933296Y-8503038D01*
X10936714Y-8499620D01*
X10943859Y-8488926D01*
X10948781Y-8477044D01*
X10951290Y-8464431D01*
X10951290Y-8451570D01*
X10948781Y-8438956D01*
X10943859Y-8427074D01*
X10936714Y-8416380D01*
X10936714Y-8416380D01*
X10936714Y-8416380D01*
X10927620Y-8407286D01*
X10927620Y-8407286D01*
X10927620Y-8407286D01*
X10916926Y-8400141D01*
X10915334Y-8399481D01*
X10913446Y-8398699D01*
X10905044Y-8395219D01*
X10905044Y-8395219D01*
X10905044Y-8395219D01*
X10892431Y-8392710D01*
X10892431Y-8392710D01*
X10769570Y-8392710D01*
X10769569Y-8392710D01*
X10756956Y-8395219D01*
X10756956Y-8395219D01*
X10745074Y-8400141D01*
X10734380Y-8407286D01*
X10734380Y-8407286D01*
X10725286Y-8416380D01*
X10725286Y-8416380D01*
X10718141Y-8427074D01*
X10713219Y-8438956D01*
X10713219Y-8438956D01*
X10710710Y-8451569D01*
X10508290Y-8451569D01*
X10505781Y-8438956D01*
X10500859Y-8427074D01*
X10493714Y-8416380D01*
X10493714Y-8416380D01*
X10493714Y-8416380D01*
X10484620Y-8407286D01*
X10484620Y-8407286D01*
X10484620Y-8407286D01*
X10473926Y-8400141D01*
X10472334Y-8399481D01*
X10470446Y-8398699D01*
X10462044Y-8395219D01*
X10462044Y-8395219D01*
X10462044Y-8395219D01*
X10449431Y-8392710D01*
X10449431Y-8392710D01*
X10376570Y-8392710D01*
X10376569Y-8392710D01*
X10363956Y-8395219D01*
X10363956Y-8395219D01*
X10352074Y-8400141D01*
X10341380Y-8407286D01*
X10341380Y-8407286D01*
X10332286Y-8416380D01*
X10332286Y-8416380D01*
X10325141Y-8427074D01*
X10320219Y-8438956D01*
X10320219Y-8438956D01*
X10317710Y-8451569D01*
X10162550Y-8451569D01*
X10162550Y-8376037D01*
X13734210Y-8376037D01*
X13734210Y-8387962D01*
X13736154Y-8395219D01*
X13737296Y-8399481D01*
X13737296Y-8399481D01*
X13743259Y-8409809D01*
X13751691Y-8418241D01*
X13757654Y-8421683D01*
X13762019Y-8424204D01*
X13773537Y-8427290D01*
X13773538Y-8427290D01*
X13785462Y-8427290D01*
X13785462Y-8427290D01*
X13796981Y-8424204D01*
X13807309Y-8418241D01*
X13815741Y-8409809D01*
X13821704Y-8399481D01*
X13824790Y-8387962D01*
X13824790Y-8376037D01*
X13821704Y-8364519D01*
X13821283Y-8363790D01*
X13815741Y-8354191D01*
X13807309Y-8345759D01*
X13796981Y-8339796D01*
X13785462Y-8336710D01*
X13773537Y-8336710D01*
X13764898Y-8339025D01*
X13762019Y-8339796D01*
X13762018Y-8339796D01*
X13751691Y-8345759D01*
X13743259Y-8354191D01*
X13737296Y-8364518D01*
X13737296Y-8364519D01*
X13737296Y-8364519D01*
X13734210Y-8376037D01*
X10162550Y-8376037D01*
X10162550Y-8312537D01*
X11067210Y-8312537D01*
X11067210Y-8324462D01*
X11070296Y-8335981D01*
X11070296Y-8335981D01*
X11076259Y-8346309D01*
X11084691Y-8354741D01*
X11090654Y-8358183D01*
X11095019Y-8360704D01*
X11106538Y-8363790D01*
X11106538Y-8363790D01*
X11118462Y-8363790D01*
X11118463Y-8363790D01*
X11129981Y-8360704D01*
X11140309Y-8354741D01*
X11148741Y-8346309D01*
X11154704Y-8335981D01*
X11157790Y-8324462D01*
X11157790Y-8312537D01*
X12337210Y-8312537D01*
X12337210Y-8324462D01*
X12340296Y-8335981D01*
X12340296Y-8335981D01*
X12346259Y-8346309D01*
X12354691Y-8354741D01*
X12360654Y-8358183D01*
X12365019Y-8360704D01*
X12376537Y-8363790D01*
X12376538Y-8363790D01*
X12388462Y-8363790D01*
X12388462Y-8363790D01*
X12399981Y-8360704D01*
X12410309Y-8354741D01*
X12418741Y-8346309D01*
X12424704Y-8335981D01*
X12427790Y-8324462D01*
X12427790Y-8312537D01*
X12424704Y-8301019D01*
X12424283Y-8300290D01*
X12418741Y-8290691D01*
X12410309Y-8282259D01*
X12399981Y-8276296D01*
X12388462Y-8273210D01*
X12376537Y-8273210D01*
X12367898Y-8275525D01*
X12365019Y-8276296D01*
X12365018Y-8276296D01*
X12354691Y-8282259D01*
X12346259Y-8290691D01*
X12340296Y-8301018D01*
X12340296Y-8301019D01*
X12340296Y-8301019D01*
X12337210Y-8312537D01*
X11157790Y-8312537D01*
X11154704Y-8301019D01*
X11154283Y-8300290D01*
X11148741Y-8290691D01*
X11140309Y-8282259D01*
X11129981Y-8276296D01*
X11118463Y-8273210D01*
X11106538Y-8273210D01*
X11097898Y-8275525D01*
X11095019Y-8276296D01*
X11095019Y-8276296D01*
X11084691Y-8282259D01*
X11076259Y-8290691D01*
X11070296Y-8301018D01*
X11070296Y-8301019D01*
X11070296Y-8301019D01*
X11067210Y-8312537D01*
X10162550Y-8312537D01*
X10162550Y-8249037D01*
X11384710Y-8249037D01*
X11384710Y-8260962D01*
X11387796Y-8272481D01*
X11387796Y-8272481D01*
X11393759Y-8282809D01*
X11402191Y-8291241D01*
X11408154Y-8294683D01*
X11412519Y-8297204D01*
X11424037Y-8300290D01*
X11424038Y-8300290D01*
X11435962Y-8300290D01*
X11435962Y-8300290D01*
X11447481Y-8297204D01*
X11457809Y-8291241D01*
X11466241Y-8282809D01*
X11472204Y-8272481D01*
X11475290Y-8260962D01*
X11475290Y-8249037D01*
X12845210Y-8249037D01*
X12845210Y-8260962D01*
X12848296Y-8272481D01*
X12848296Y-8272481D01*
X12854259Y-8282809D01*
X12862691Y-8291241D01*
X12868654Y-8294683D01*
X12873019Y-8297204D01*
X12884537Y-8300290D01*
X12884538Y-8300290D01*
X12896462Y-8300290D01*
X12896462Y-8300290D01*
X12907981Y-8297204D01*
X12918309Y-8291241D01*
X12926741Y-8282809D01*
X12932704Y-8272481D01*
X12935790Y-8260962D01*
X12935790Y-8249037D01*
X12932704Y-8237519D01*
X12932703Y-8237518D01*
X12926741Y-8227191D01*
X12918309Y-8218759D01*
X12907981Y-8212796D01*
X12896462Y-8209710D01*
X12884537Y-8209710D01*
X12875898Y-8212025D01*
X12873019Y-8212796D01*
X12873018Y-8212796D01*
X12862691Y-8218759D01*
X12854259Y-8227191D01*
X12848296Y-8237518D01*
X12848296Y-8237519D01*
X12848296Y-8237519D01*
X12845210Y-8249037D01*
X11475290Y-8249037D01*
X11472204Y-8237519D01*
X11472203Y-8237518D01*
X11466241Y-8227191D01*
X11457809Y-8218759D01*
X11447481Y-8212796D01*
X11435962Y-8209710D01*
X11424037Y-8209710D01*
X11415398Y-8212025D01*
X11412519Y-8212796D01*
X11412518Y-8212796D01*
X11402191Y-8218759D01*
X11393759Y-8227191D01*
X11387796Y-8237518D01*
X11387796Y-8237519D01*
X11387796Y-8237519D01*
X11384710Y-8249037D01*
X10162550Y-8249037D01*
X10162550Y-8122037D01*
X13162710Y-8122037D01*
X13162710Y-8133962D01*
X13165796Y-8145481D01*
X13165796Y-8145481D01*
X13171759Y-8155809D01*
X13180191Y-8164241D01*
X13186154Y-8167683D01*
X13190519Y-8170204D01*
X13202037Y-8173290D01*
X13202038Y-8173290D01*
X13213962Y-8173290D01*
X13213962Y-8173290D01*
X13225481Y-8170204D01*
X13235809Y-8164241D01*
X13244241Y-8155809D01*
X13250204Y-8145481D01*
X13253290Y-8133962D01*
X13253290Y-8122037D01*
X14369210Y-8122037D01*
X14369210Y-8133962D01*
X14372296Y-8145481D01*
X14372296Y-8145481D01*
X14378259Y-8155809D01*
X14386691Y-8164241D01*
X14392654Y-8167683D01*
X14397019Y-8170204D01*
X14408537Y-8173290D01*
X14408538Y-8173290D01*
X14420462Y-8173290D01*
X14420462Y-8173290D01*
X14431981Y-8170204D01*
X14442309Y-8164241D01*
X14450741Y-8155809D01*
X14456704Y-8145481D01*
X14459790Y-8133962D01*
X14459790Y-8122037D01*
X14456704Y-8110519D01*
X14456703Y-8110518D01*
X14450741Y-8100191D01*
X14442309Y-8091759D01*
X14431981Y-8085796D01*
X14420462Y-8082710D01*
X14408537Y-8082710D01*
X14399898Y-8085025D01*
X14397019Y-8085796D01*
X14397018Y-8085796D01*
X14386691Y-8091759D01*
X14378259Y-8100191D01*
X14372296Y-8110518D01*
X14372296Y-8110519D01*
X14372296Y-8110519D01*
X14369210Y-8122037D01*
X13253290Y-8122037D01*
X13250204Y-8110519D01*
X13250203Y-8110518D01*
X13244241Y-8100191D01*
X13235809Y-8091759D01*
X13225481Y-8085796D01*
X13213962Y-8082710D01*
X13202037Y-8082710D01*
X13193398Y-8085025D01*
X13190519Y-8085796D01*
X13190518Y-8085796D01*
X13180191Y-8091759D01*
X13171759Y-8100191D01*
X13165796Y-8110518D01*
X13165796Y-8110519D01*
X13165796Y-8110519D01*
X13162710Y-8122037D01*
X10162550Y-8122037D01*
X10162550Y-7995037D01*
X11384710Y-7995037D01*
X11384710Y-8006962D01*
X11387796Y-8018481D01*
X11387796Y-8018481D01*
X11393759Y-8028809D01*
X11402191Y-8037241D01*
X11408154Y-8040683D01*
X11412519Y-8043204D01*
X11424037Y-8046290D01*
X11424038Y-8046290D01*
X11435962Y-8046290D01*
X11435962Y-8046290D01*
X11447481Y-8043204D01*
X11457809Y-8037241D01*
X11466241Y-8028809D01*
X11472204Y-8018481D01*
X11475290Y-8006962D01*
X11475290Y-7995037D01*
X13162710Y-7995037D01*
X13162710Y-8006962D01*
X13165796Y-8018481D01*
X13165796Y-8018481D01*
X13171759Y-8028809D01*
X13180191Y-8037241D01*
X13186154Y-8040683D01*
X13190519Y-8043204D01*
X13202037Y-8046290D01*
X13202038Y-8046290D01*
X13213962Y-8046290D01*
X13213962Y-8046290D01*
X13225481Y-8043204D01*
X13235809Y-8037241D01*
X13244241Y-8028809D01*
X13250204Y-8018481D01*
X13253290Y-8006962D01*
X13253290Y-7995037D01*
X14369210Y-7995037D01*
X14369210Y-8006962D01*
X14372296Y-8018481D01*
X14372296Y-8018481D01*
X14378259Y-8028809D01*
X14386691Y-8037241D01*
X14392654Y-8040683D01*
X14397019Y-8043204D01*
X14408537Y-8046290D01*
X14408538Y-8046290D01*
X14420462Y-8046290D01*
X14420462Y-8046290D01*
X14431981Y-8043204D01*
X14442309Y-8037241D01*
X14450741Y-8028809D01*
X14456704Y-8018481D01*
X14459790Y-8006962D01*
X14459790Y-7995037D01*
X14456704Y-7983519D01*
X14456703Y-7983518D01*
X14450741Y-7973191D01*
X14442309Y-7964759D01*
X14431981Y-7958796D01*
X14420462Y-7955710D01*
X14408537Y-7955710D01*
X14399898Y-7958025D01*
X14397019Y-7958796D01*
X14397018Y-7958796D01*
X14386691Y-7964759D01*
X14378259Y-7973191D01*
X14372296Y-7983518D01*
X14372296Y-7983519D01*
X14372296Y-7983519D01*
X14369210Y-7995037D01*
X13253290Y-7995037D01*
X13250204Y-7983519D01*
X13250203Y-7983518D01*
X13244241Y-7973191D01*
X13235809Y-7964759D01*
X13225481Y-7958796D01*
X13213962Y-7955710D01*
X13202037Y-7955710D01*
X13193398Y-7958025D01*
X13190519Y-7958796D01*
X13190518Y-7958796D01*
X13180191Y-7964759D01*
X13171759Y-7973191D01*
X13165796Y-7983518D01*
X13165796Y-7983519D01*
X13165796Y-7983519D01*
X13162710Y-7995037D01*
X11475290Y-7995037D01*
X11472204Y-7983519D01*
X11472203Y-7983518D01*
X11466241Y-7973191D01*
X11457809Y-7964759D01*
X11447481Y-7958796D01*
X11435962Y-7955710D01*
X11424037Y-7955710D01*
X11415398Y-7958025D01*
X11412519Y-7958796D01*
X11412518Y-7958796D01*
X11402191Y-7964759D01*
X11393759Y-7973191D01*
X11387796Y-7983518D01*
X11387796Y-7983519D01*
X11387796Y-7983519D01*
X11384710Y-7995037D01*
X10162550Y-7995037D01*
X10162550Y-7868037D01*
X11384710Y-7868037D01*
X11384710Y-7879962D01*
X11387796Y-7891481D01*
X11387796Y-7891481D01*
X11393759Y-7901809D01*
X11402191Y-7910241D01*
X11408154Y-7913683D01*
X11412519Y-7916204D01*
X11424037Y-7919290D01*
X11424038Y-7919290D01*
X11435962Y-7919290D01*
X11435962Y-7919290D01*
X11447481Y-7916204D01*
X11457809Y-7910241D01*
X11466241Y-7901809D01*
X11472204Y-7891481D01*
X11475290Y-7879962D01*
X11475290Y-7868037D01*
X14369210Y-7868037D01*
X14369210Y-7879962D01*
X14372296Y-7891481D01*
X14372296Y-7891481D01*
X14378259Y-7901809D01*
X14386691Y-7910241D01*
X14392654Y-7913683D01*
X14397019Y-7916204D01*
X14408537Y-7919290D01*
X14408538Y-7919290D01*
X14420462Y-7919290D01*
X14420462Y-7919290D01*
X14431981Y-7916204D01*
X14442309Y-7910241D01*
X14450741Y-7901809D01*
X14456704Y-7891481D01*
X14459790Y-7879962D01*
X14459790Y-7868037D01*
X14456704Y-7856519D01*
X14456703Y-7856518D01*
X14450741Y-7846191D01*
X14442309Y-7837759D01*
X14431981Y-7831796D01*
X14420462Y-7828710D01*
X14408537Y-7828710D01*
X14399898Y-7831025D01*
X14397019Y-7831796D01*
X14397018Y-7831796D01*
X14386691Y-7837759D01*
X14378259Y-7846191D01*
X14372296Y-7856518D01*
X14372296Y-7856519D01*
X14372296Y-7856519D01*
X14369210Y-7868037D01*
X11475290Y-7868037D01*
X11472204Y-7856519D01*
X11472203Y-7856518D01*
X11466241Y-7846191D01*
X11457809Y-7837759D01*
X11447481Y-7831796D01*
X11435962Y-7828710D01*
X11424037Y-7828710D01*
X11415398Y-7831025D01*
X11412519Y-7831796D01*
X11412518Y-7831796D01*
X11402191Y-7837759D01*
X11393759Y-7846191D01*
X11387796Y-7856518D01*
X11387796Y-7856519D01*
X11387796Y-7856519D01*
X11384710Y-7868037D01*
X10162550Y-7868037D01*
X10162550Y-7493228D01*
X10162564Y-7492773D01*
X10163147Y-7483139D01*
X10288710Y-7483139D01*
X10288710Y-7502861D01*
X10291795Y-7522338D01*
X10291795Y-7522340D01*
X10297889Y-7541095D01*
X10306842Y-7558666D01*
X10318434Y-7574621D01*
X10318435Y-7574622D01*
X10332378Y-7588565D01*
X10332379Y-7588566D01*
X10332379Y-7588566D01*
X10341105Y-7594905D01*
X10348334Y-7600157D01*
X10365905Y-7609111D01*
X10384660Y-7615205D01*
X10384661Y-7615205D01*
X10384661Y-7615205D01*
X10404140Y-7618290D01*
X10404140Y-7618290D01*
X10423860Y-7618290D01*
X10423861Y-7618290D01*
X10443339Y-7615205D01*
X10443339Y-7615205D01*
X10443340Y-7615205D01*
X10446932Y-7614037D01*
X10686210Y-7614037D01*
X10686210Y-7625962D01*
X10689296Y-7637481D01*
X10689296Y-7637481D01*
X10695259Y-7647809D01*
X10703691Y-7656241D01*
X10709654Y-7659683D01*
X10714019Y-7662204D01*
X10725538Y-7665290D01*
X10725538Y-7665290D01*
X10737462Y-7665290D01*
X10737463Y-7665290D01*
X10748981Y-7662204D01*
X10759309Y-7656241D01*
X10767741Y-7647809D01*
X10773704Y-7637481D01*
X10776790Y-7625962D01*
X10776790Y-7614037D01*
X11384710Y-7614037D01*
X11384710Y-7625962D01*
X11387796Y-7637481D01*
X11387796Y-7637481D01*
X11393759Y-7647809D01*
X11402191Y-7656241D01*
X11408154Y-7659683D01*
X11412519Y-7662204D01*
X11424037Y-7665290D01*
X11424038Y-7665290D01*
X11435962Y-7665290D01*
X11435962Y-7665290D01*
X11447481Y-7662204D01*
X11457809Y-7656241D01*
X11466241Y-7647809D01*
X11472204Y-7637481D01*
X11475290Y-7625962D01*
X11475290Y-7614037D01*
X11472204Y-7602519D01*
X11470840Y-7600158D01*
X11466241Y-7592191D01*
X11457809Y-7583759D01*
X11447481Y-7577796D01*
X11435962Y-7574710D01*
X11424037Y-7574710D01*
X11415398Y-7577025D01*
X11412519Y-7577796D01*
X11412518Y-7577796D01*
X11402191Y-7583759D01*
X11393759Y-7592191D01*
X11387796Y-7602518D01*
X11387796Y-7602519D01*
X11387796Y-7602519D01*
X11384710Y-7614037D01*
X10776790Y-7614037D01*
X10773704Y-7602519D01*
X10772340Y-7600158D01*
X10767741Y-7592191D01*
X10759309Y-7583759D01*
X10748981Y-7577796D01*
X10737463Y-7574710D01*
X10725538Y-7574710D01*
X10716898Y-7577025D01*
X10714019Y-7577796D01*
X10714019Y-7577796D01*
X10703691Y-7583759D01*
X10695259Y-7592191D01*
X10689296Y-7602518D01*
X10689296Y-7602519D01*
X10689296Y-7602519D01*
X10686210Y-7614037D01*
X10446932Y-7614037D01*
X10457116Y-7610728D01*
X10462095Y-7609111D01*
X10479666Y-7600158D01*
X10495621Y-7588566D01*
X10509566Y-7574621D01*
X10521158Y-7558666D01*
X10530111Y-7541095D01*
X10532025Y-7535204D01*
X10536205Y-7522340D01*
X10536205Y-7522339D01*
X10536205Y-7522339D01*
X10539290Y-7502860D01*
X10539290Y-7487037D01*
X10686210Y-7487037D01*
X10686210Y-7498962D01*
X10689296Y-7510481D01*
X10689296Y-7510481D01*
X10695259Y-7520809D01*
X10703691Y-7529241D01*
X10709654Y-7532683D01*
X10714019Y-7535204D01*
X10725538Y-7538290D01*
X10725538Y-7538290D01*
X10737462Y-7538290D01*
X10737463Y-7538290D01*
X10748981Y-7535204D01*
X10759309Y-7529241D01*
X10767741Y-7520809D01*
X10773704Y-7510481D01*
X10776790Y-7498962D01*
X10776790Y-7487037D01*
X11384710Y-7487037D01*
X11384710Y-7498962D01*
X11387796Y-7510481D01*
X11387796Y-7510481D01*
X11393759Y-7520809D01*
X11402191Y-7529241D01*
X11408154Y-7532683D01*
X11412519Y-7535204D01*
X11424037Y-7538290D01*
X11424038Y-7538290D01*
X11435962Y-7538290D01*
X11435962Y-7538290D01*
X11447481Y-7535204D01*
X11457809Y-7529241D01*
X11466241Y-7520809D01*
X11472204Y-7510481D01*
X11475290Y-7498962D01*
X11475290Y-7487037D01*
X12654710Y-7487037D01*
X12654710Y-7498962D01*
X12657796Y-7510481D01*
X12657796Y-7510481D01*
X12663759Y-7520809D01*
X12672191Y-7529241D01*
X12678154Y-7532683D01*
X12682519Y-7535204D01*
X12694037Y-7538290D01*
X12694038Y-7538290D01*
X12705962Y-7538290D01*
X12705962Y-7538290D01*
X12717481Y-7535204D01*
X12727809Y-7529241D01*
X12736241Y-7520809D01*
X12742204Y-7510481D01*
X12745290Y-7498962D01*
X12745290Y-7487037D01*
X12845210Y-7487037D01*
X12845210Y-7498962D01*
X12848296Y-7510481D01*
X12848296Y-7510481D01*
X12854259Y-7520809D01*
X12862691Y-7529241D01*
X12868654Y-7532683D01*
X12873019Y-7535204D01*
X12884537Y-7538290D01*
X12884538Y-7538290D01*
X12896462Y-7538290D01*
X12896462Y-7538290D01*
X12907981Y-7535204D01*
X12918309Y-7529241D01*
X12926741Y-7520809D01*
X12932704Y-7510481D01*
X12935790Y-7498962D01*
X12935790Y-7487037D01*
X13035710Y-7487037D01*
X13035710Y-7498962D01*
X13038796Y-7510481D01*
X13038796Y-7510481D01*
X13044759Y-7520809D01*
X13053191Y-7529241D01*
X13059154Y-7532683D01*
X13063519Y-7535204D01*
X13075037Y-7538290D01*
X13075038Y-7538290D01*
X13086962Y-7538290D01*
X13086962Y-7538290D01*
X13098481Y-7535204D01*
X13108809Y-7529241D01*
X13117241Y-7520809D01*
X13123204Y-7510481D01*
X13126290Y-7498962D01*
X13126290Y-7487037D01*
X13125245Y-7483139D01*
X14225710Y-7483139D01*
X14225710Y-7502861D01*
X14228795Y-7522338D01*
X14228795Y-7522340D01*
X14234889Y-7541095D01*
X14243842Y-7558666D01*
X14255434Y-7574621D01*
X14255435Y-7574622D01*
X14269378Y-7588565D01*
X14269379Y-7588566D01*
X14269379Y-7588566D01*
X14278104Y-7594905D01*
X14285333Y-7600157D01*
X14302905Y-7609111D01*
X14321660Y-7615205D01*
X14321661Y-7615205D01*
X14321661Y-7615205D01*
X14341139Y-7618290D01*
X14341140Y-7618290D01*
X14360860Y-7618290D01*
X14360860Y-7618290D01*
X14380339Y-7615205D01*
X14380339Y-7615205D01*
X14380340Y-7615205D01*
X14394116Y-7610728D01*
X14399095Y-7609111D01*
X14416666Y-7600158D01*
X14432621Y-7588566D01*
X14446566Y-7574621D01*
X14458158Y-7558666D01*
X14467111Y-7541095D01*
X14469025Y-7535204D01*
X14473205Y-7522340D01*
X14473205Y-7522339D01*
X14473205Y-7522339D01*
X14476290Y-7502860D01*
X14476290Y-7483139D01*
X14473205Y-7463661D01*
X14473205Y-7463661D01*
X14473205Y-7463660D01*
X14467111Y-7444905D01*
X14458157Y-7427333D01*
X14452905Y-7420104D01*
X14446566Y-7411379D01*
X14446566Y-7411379D01*
X14446565Y-7411378D01*
X14432622Y-7397435D01*
X14432621Y-7397434D01*
X14416666Y-7385842D01*
X14399095Y-7376889D01*
X14380340Y-7370795D01*
X14380338Y-7370795D01*
X14360861Y-7367710D01*
X14360860Y-7367710D01*
X14341139Y-7367710D01*
X14341139Y-7367710D01*
X14321661Y-7370795D01*
X14321660Y-7370795D01*
X14302905Y-7376889D01*
X14285333Y-7385842D01*
X14269379Y-7397434D01*
X14269378Y-7397435D01*
X14255435Y-7411378D01*
X14255434Y-7411379D01*
X14243842Y-7427333D01*
X14234889Y-7444905D01*
X14228795Y-7463660D01*
X14228795Y-7463661D01*
X14225710Y-7483139D01*
X13125245Y-7483139D01*
X13123204Y-7475519D01*
X13123203Y-7475518D01*
X13117241Y-7465191D01*
X13108809Y-7456759D01*
X13098481Y-7450796D01*
X13095354Y-7449959D01*
X13086962Y-7447710D01*
X13075037Y-7447710D01*
X13066645Y-7449959D01*
X13063519Y-7450796D01*
X13063518Y-7450796D01*
X13053191Y-7456759D01*
X13044759Y-7465191D01*
X13038796Y-7475518D01*
X13038796Y-7475519D01*
X13038796Y-7475519D01*
X13035710Y-7487037D01*
X12935790Y-7487037D01*
X12932704Y-7475519D01*
X12932703Y-7475518D01*
X12926741Y-7465191D01*
X12918309Y-7456759D01*
X12907981Y-7450796D01*
X12904854Y-7449959D01*
X12896462Y-7447710D01*
X12884537Y-7447710D01*
X12876145Y-7449959D01*
X12873019Y-7450796D01*
X12873018Y-7450796D01*
X12862691Y-7456759D01*
X12854259Y-7465191D01*
X12848296Y-7475518D01*
X12848296Y-7475519D01*
X12848296Y-7475519D01*
X12845210Y-7487037D01*
X12745290Y-7487037D01*
X12742204Y-7475519D01*
X12742203Y-7475518D01*
X12736241Y-7465191D01*
X12727809Y-7456759D01*
X12717481Y-7450796D01*
X12714354Y-7449959D01*
X12705962Y-7447710D01*
X12694037Y-7447710D01*
X12685645Y-7449959D01*
X12682519Y-7450796D01*
X12682518Y-7450796D01*
X12672191Y-7456759D01*
X12663759Y-7465191D01*
X12657796Y-7475518D01*
X12657796Y-7475519D01*
X12657796Y-7475519D01*
X12654710Y-7487037D01*
X11475290Y-7487037D01*
X11472204Y-7475519D01*
X11472203Y-7475518D01*
X11466241Y-7465191D01*
X11457809Y-7456759D01*
X11447481Y-7450796D01*
X11444354Y-7449959D01*
X11435962Y-7447710D01*
X11424037Y-7447710D01*
X11415645Y-7449959D01*
X11412519Y-7450796D01*
X11412518Y-7450796D01*
X11402191Y-7456759D01*
X11393759Y-7465191D01*
X11387796Y-7475518D01*
X11387796Y-7475519D01*
X11387796Y-7475519D01*
X11384710Y-7487037D01*
X10776790Y-7487037D01*
X10773704Y-7475519D01*
X10773704Y-7475518D01*
X10767741Y-7465191D01*
X10759309Y-7456759D01*
X10748981Y-7450796D01*
X10745855Y-7449959D01*
X10737463Y-7447710D01*
X10725538Y-7447710D01*
X10717146Y-7449959D01*
X10714019Y-7450796D01*
X10714019Y-7450796D01*
X10703691Y-7456759D01*
X10695259Y-7465191D01*
X10689296Y-7475518D01*
X10689296Y-7475519D01*
X10689296Y-7475519D01*
X10686210Y-7487037D01*
X10539290Y-7487037D01*
X10539290Y-7483139D01*
X10536205Y-7463661D01*
X10536205Y-7463661D01*
X10536205Y-7463660D01*
X10530111Y-7444905D01*
X10521158Y-7427333D01*
X10515905Y-7420104D01*
X10509566Y-7411379D01*
X10509566Y-7411379D01*
X10509565Y-7411378D01*
X10495622Y-7397435D01*
X10495621Y-7397434D01*
X10479666Y-7385842D01*
X10462095Y-7376889D01*
X10443340Y-7370795D01*
X10443339Y-7370795D01*
X10423861Y-7367710D01*
X10423861Y-7367710D01*
X10404140Y-7367710D01*
X10404139Y-7367710D01*
X10384661Y-7370795D01*
X10384660Y-7370795D01*
X10365905Y-7376889D01*
X10348334Y-7385842D01*
X10332379Y-7397434D01*
X10332378Y-7397435D01*
X10318435Y-7411378D01*
X10318434Y-7411379D01*
X10306842Y-7427333D01*
X10297889Y-7444905D01*
X10291795Y-7463660D01*
X10291795Y-7463661D01*
X10288710Y-7483139D01*
X10163147Y-7483139D01*
X10163192Y-7482390D01*
X10163192Y-7482390D01*
X10163422Y-7478592D01*
X10164356Y-7463144D01*
X10164465Y-7462244D01*
X10169775Y-7433270D01*
X10169992Y-7432391D01*
X10178755Y-7404268D01*
X10179077Y-7403420D01*
X10181771Y-7397434D01*
X10191166Y-7376559D01*
X10191587Y-7375757D01*
X10206826Y-7350548D01*
X10207341Y-7349802D01*
X10225507Y-7326615D01*
X10226108Y-7325937D01*
X10246937Y-7305108D01*
X10247615Y-7304507D01*
X10270802Y-7286341D01*
X10271548Y-7285826D01*
X10296757Y-7270587D01*
X10297559Y-7270166D01*
X10324420Y-7258076D01*
X10325268Y-7257755D01*
X10353391Y-7248991D01*
X10354270Y-7248775D01*
X10383244Y-7243465D01*
X10384144Y-7243356D01*
X10411344Y-7241711D01*
X10413774Y-7241564D01*
X10414228Y-7241550D01*
X10414829Y-7241550D01*
X14350171Y-7241550D01*
X14350772Y-7241550D01*
X14351226Y-7241564D01*
G37*
%TD.AperFunction*%
%TD*%
M02*
