M48
; DRILL file {KiCad 9.0.4+dfsg-1} date 2025-09-17T06:09:53+0800
; FORMAT={-:-/ absolute / inch / decimal}
; #@! TF.CreationDate,2025-09-17T06:09:53+08:00
; #@! TF.GenerationSoftware,Kicad,Pcbnew,9.0.4+dfsg-1
; #@! TF.FileFunction,MixedPlating,1,4
FMAT,2
INCH
; #@! TA.AperFunction,Plated,PTH,ViaDrill
T1C0.0118
; #@! TA.AperFunction,Plated,PTH,ComponentDrill
T2C0.0236
; #@! TA.AperFunction,Plated,PTH,ComponentDrill
T3C0.0394
; #@! TA.AperFunction,NonPlated,NPTH,ComponentDrill
T4C0.0256
; #@! TA.AperFunction,NonPlated,NPTH,ComponentDrill
T5C0.0866
%
G90
G05
T1
X4.04Y-3.94
X4.05Y-3.45
X4.05Y-3.5
X4.05Y-3.55
X4.175Y-3.975
X4.225Y-2.95
X4.225Y-3.0
X4.225Y-3.475
X4.225Y-3.525
X4.225Y-3.8
X4.225Y-3.875
X4.35Y-3.825
X4.375Y-3.275
X4.375Y-4.0
X4.4Y-3.5
X4.425Y-3.875
X4.475Y-4.0
X4.5Y-2.95
X4.5Y-3.0
X4.5Y-3.1
X4.5Y-3.15
X4.5Y-3.25
X4.539Y-3.4598
X4.57Y-3.64
X4.6Y-2.95
X4.6Y-3.0
X4.6Y-3.05
X4.6Y-3.1
X4.6Y-3.15
X4.6Y-3.35
X4.6Y-3.675
X4.65Y-3.55
X4.675Y-3.475
X4.675Y-3.525
X4.675Y-3.6
X4.75Y-3.4
X4.8Y-3.4
X4.8Y-4.1
X4.825Y-3.45
X4.85Y-3.725
X4.875Y-3.275
X4.9Y-3.65
X4.925Y-3.35
X4.925Y-3.7
X4.975Y-3.025
X4.975Y-3.225
X5.0Y-2.95
X5.075Y-2.95
X5.075Y-3.25
X5.075Y-3.325
X5.15Y-2.95
X5.15Y-3.5
X5.15Y-3.6
X5.15Y-4.1
X5.2Y-3.15
X5.2Y-3.2
X5.225Y-4.1
X5.3Y-4.1
X5.4Y-3.35
X5.425Y-3.3
X5.45Y-3.5
X5.45Y-3.6
X5.575Y-3.25
X5.575Y-3.35
X5.575Y-3.45
X5.675Y-3.1
X5.675Y-3.15
X5.675Y-3.2
X5.675Y-3.8
X5.675Y-3.85
T3
X4.275Y-4.0748
X4.375Y-4.0748
X4.475Y-4.0748
X4.575Y-4.0748
X4.675Y-4.0748
T4
X4.2433Y-3.3862
X4.2433Y-3.6138
T5
X4.1Y-2.95
X4.1Y-4.05
X5.65Y-2.95
X5.65Y-4.05
T2
X4.1114Y-3.3299G85X4.0878Y-3.3299
G05
X4.1114Y-3.6701G85X4.0878Y-3.6701
G05
X4.2858Y-3.3299G85X4.2425Y-3.3299
G05
X4.2858Y-3.6701G85X4.2425Y-3.6701
G05
M30
