%TF.GenerationSoftware,KiCad,Pcbnew,9.0.4+dfsg-1*%
%TF.CreationDate,2025-09-17T05:32:17+08:00*%
%TF.ProjectId,stlink,73746c69-6e6b-42e6-9b69-6361645f7063,a*%
%TF.SameCoordinates,Original*%
%TF.FileFunction,Legend,Bot*%
%TF.FilePolarity,Positive*%
%FSLAX45Y45*%
G04 Gerber Fmt 4.5, Leading zero omitted, Abs format (unit mm)*
G04 Created by KiCad (PCBNEW 9.0.4+dfsg-1) date 2025-09-17 05:32:17*
%MOMM*%
%LPD*%
G01*
G04 APERTURE LIST*
%ADD10C,0.120000*%
%ADD11C,0.150000*%
G04 APERTURE END LIST*
D10*
X12954000Y-9207500D02*
X13970000Y-9207500D01*
X13970000Y-10223500D01*
X12954000Y-10223500D01*
X12954000Y-9207500D01*
G36*
X12954000Y-9207500D02*
G01*
X13970000Y-9207500D01*
X13970000Y-10223500D01*
X12954000Y-10223500D01*
X12954000Y-9207500D01*
G37*
D11*
X14004584Y-7453223D02*
X13990298Y-7457985D01*
X13990298Y-7457985D02*
X13966489Y-7457985D01*
X13966489Y-7457985D02*
X13956965Y-7453223D01*
X13956965Y-7453223D02*
X13952203Y-7448461D01*
X13952203Y-7448461D02*
X13947441Y-7438937D01*
X13947441Y-7438937D02*
X13947441Y-7429413D01*
X13947441Y-7429413D02*
X13952203Y-7419889D01*
X13952203Y-7419889D02*
X13956965Y-7415127D01*
X13956965Y-7415127D02*
X13966489Y-7410366D01*
X13966489Y-7410366D02*
X13985536Y-7405604D01*
X13985536Y-7405604D02*
X13995060Y-7400842D01*
X13995060Y-7400842D02*
X13999822Y-7396080D01*
X13999822Y-7396080D02*
X14004584Y-7386556D01*
X14004584Y-7386556D02*
X14004584Y-7377032D01*
X14004584Y-7377032D02*
X13999822Y-7367508D01*
X13999822Y-7367508D02*
X13995060Y-7362747D01*
X13995060Y-7362747D02*
X13985536Y-7357985D01*
X13985536Y-7357985D02*
X13961727Y-7357985D01*
X13961727Y-7357985D02*
X13947441Y-7362747D01*
X13918870Y-7357985D02*
X13861727Y-7357985D01*
X13890298Y-7457985D02*
X13890298Y-7357985D01*
X13828393Y-7457985D02*
X13828393Y-7357985D01*
X13828393Y-7357985D02*
X13795060Y-7429413D01*
X13795060Y-7429413D02*
X13761727Y-7357985D01*
X13761727Y-7357985D02*
X13761727Y-7457985D01*
X13723631Y-7357985D02*
X13661727Y-7357985D01*
X13661727Y-7357985D02*
X13695060Y-7396080D01*
X13695060Y-7396080D02*
X13680774Y-7396080D01*
X13680774Y-7396080D02*
X13671251Y-7400842D01*
X13671251Y-7400842D02*
X13666489Y-7405604D01*
X13666489Y-7405604D02*
X13661727Y-7415127D01*
X13661727Y-7415127D02*
X13661727Y-7438937D01*
X13661727Y-7438937D02*
X13666489Y-7448461D01*
X13666489Y-7448461D02*
X13671251Y-7453223D01*
X13671251Y-7453223D02*
X13680774Y-7457985D01*
X13680774Y-7457985D02*
X13709346Y-7457985D01*
X13709346Y-7457985D02*
X13718870Y-7453223D01*
X13718870Y-7453223D02*
X13723631Y-7448461D01*
X13623631Y-7367508D02*
X13618870Y-7362747D01*
X13618870Y-7362747D02*
X13609346Y-7357985D01*
X13609346Y-7357985D02*
X13585536Y-7357985D01*
X13585536Y-7357985D02*
X13576012Y-7362747D01*
X13576012Y-7362747D02*
X13571251Y-7367508D01*
X13571251Y-7367508D02*
X13566489Y-7377032D01*
X13566489Y-7377032D02*
X13566489Y-7386556D01*
X13566489Y-7386556D02*
X13571251Y-7400842D01*
X13571251Y-7400842D02*
X13628393Y-7457985D01*
X13628393Y-7457985D02*
X13566489Y-7457985D01*
X13447441Y-7457985D02*
X13447441Y-7357985D01*
X13447441Y-7357985D02*
X13409346Y-7357985D01*
X13409346Y-7357985D02*
X13399822Y-7362747D01*
X13399822Y-7362747D02*
X13395060Y-7367508D01*
X13395060Y-7367508D02*
X13390298Y-7377032D01*
X13390298Y-7377032D02*
X13390298Y-7391318D01*
X13390298Y-7391318D02*
X13395060Y-7400842D01*
X13395060Y-7400842D02*
X13399822Y-7405604D01*
X13399822Y-7405604D02*
X13409346Y-7410366D01*
X13409346Y-7410366D02*
X13447441Y-7410366D01*
X13347441Y-7457985D02*
X13347441Y-7391318D01*
X13347441Y-7410366D02*
X13342679Y-7400842D01*
X13342679Y-7400842D02*
X13337917Y-7396080D01*
X13337917Y-7396080D02*
X13328393Y-7391318D01*
X13328393Y-7391318D02*
X13318870Y-7391318D01*
X13271250Y-7457985D02*
X13280774Y-7453223D01*
X13280774Y-7453223D02*
X13285536Y-7448461D01*
X13285536Y-7448461D02*
X13290298Y-7438937D01*
X13290298Y-7438937D02*
X13290298Y-7410366D01*
X13290298Y-7410366D02*
X13285536Y-7400842D01*
X13285536Y-7400842D02*
X13280774Y-7396080D01*
X13280774Y-7396080D02*
X13271250Y-7391318D01*
X13271250Y-7391318D02*
X13256965Y-7391318D01*
X13256965Y-7391318D02*
X13247441Y-7396080D01*
X13247441Y-7396080D02*
X13242679Y-7400842D01*
X13242679Y-7400842D02*
X13237917Y-7410366D01*
X13237917Y-7410366D02*
X13237917Y-7438937D01*
X13237917Y-7438937D02*
X13242679Y-7448461D01*
X13242679Y-7448461D02*
X13247441Y-7453223D01*
X13247441Y-7453223D02*
X13256965Y-7457985D01*
X13256965Y-7457985D02*
X13271250Y-7457985D01*
X13152203Y-7391318D02*
X13152203Y-7472270D01*
X13152203Y-7472270D02*
X13156965Y-7481794D01*
X13156965Y-7481794D02*
X13161727Y-7486556D01*
X13161727Y-7486556D02*
X13171250Y-7491318D01*
X13171250Y-7491318D02*
X13185536Y-7491318D01*
X13185536Y-7491318D02*
X13195060Y-7486556D01*
X13152203Y-7453223D02*
X13161727Y-7457985D01*
X13161727Y-7457985D02*
X13180774Y-7457985D01*
X13180774Y-7457985D02*
X13190298Y-7453223D01*
X13190298Y-7453223D02*
X13195060Y-7448461D01*
X13195060Y-7448461D02*
X13199822Y-7438937D01*
X13199822Y-7438937D02*
X13199822Y-7410366D01*
X13199822Y-7410366D02*
X13195060Y-7400842D01*
X13195060Y-7400842D02*
X13190298Y-7396080D01*
X13190298Y-7396080D02*
X13180774Y-7391318D01*
X13180774Y-7391318D02*
X13161727Y-7391318D01*
X13161727Y-7391318D02*
X13152203Y-7396080D01*
X13104584Y-7457985D02*
X13104584Y-7391318D01*
X13104584Y-7410366D02*
X13099822Y-7400842D01*
X13099822Y-7400842D02*
X13095060Y-7396080D01*
X13095060Y-7396080D02*
X13085536Y-7391318D01*
X13085536Y-7391318D02*
X13076012Y-7391318D01*
X12999822Y-7457985D02*
X12999822Y-7405604D01*
X12999822Y-7405604D02*
X13004584Y-7396080D01*
X13004584Y-7396080D02*
X13014108Y-7391318D01*
X13014108Y-7391318D02*
X13033155Y-7391318D01*
X13033155Y-7391318D02*
X13042679Y-7396080D01*
X12999822Y-7453223D02*
X13009346Y-7457985D01*
X13009346Y-7457985D02*
X13033155Y-7457985D01*
X13033155Y-7457985D02*
X13042679Y-7453223D01*
X13042679Y-7453223D02*
X13047441Y-7443699D01*
X13047441Y-7443699D02*
X13047441Y-7434175D01*
X13047441Y-7434175D02*
X13042679Y-7424651D01*
X13042679Y-7424651D02*
X13033155Y-7419889D01*
X13033155Y-7419889D02*
X13009346Y-7419889D01*
X13009346Y-7419889D02*
X12999822Y-7415127D01*
X12952203Y-7457985D02*
X12952203Y-7391318D01*
X12952203Y-7400842D02*
X12947441Y-7396080D01*
X12947441Y-7396080D02*
X12937917Y-7391318D01*
X12937917Y-7391318D02*
X12923631Y-7391318D01*
X12923631Y-7391318D02*
X12914108Y-7396080D01*
X12914108Y-7396080D02*
X12909346Y-7405604D01*
X12909346Y-7405604D02*
X12909346Y-7457985D01*
X12909346Y-7405604D02*
X12904584Y-7396080D01*
X12904584Y-7396080D02*
X12895060Y-7391318D01*
X12895060Y-7391318D02*
X12880774Y-7391318D01*
X12880774Y-7391318D02*
X12871250Y-7396080D01*
X12871250Y-7396080D02*
X12866488Y-7405604D01*
X12866488Y-7405604D02*
X12866488Y-7457985D01*
X12818869Y-7457985D02*
X12818869Y-7391318D01*
X12818869Y-7400842D02*
X12814108Y-7396080D01*
X12814108Y-7396080D02*
X12804584Y-7391318D01*
X12804584Y-7391318D02*
X12790298Y-7391318D01*
X12790298Y-7391318D02*
X12780774Y-7396080D01*
X12780774Y-7396080D02*
X12776012Y-7405604D01*
X12776012Y-7405604D02*
X12776012Y-7457985D01*
X12776012Y-7405604D02*
X12771250Y-7396080D01*
X12771250Y-7396080D02*
X12761727Y-7391318D01*
X12761727Y-7391318D02*
X12747441Y-7391318D01*
X12747441Y-7391318D02*
X12737917Y-7396080D01*
X12737917Y-7396080D02*
X12733155Y-7405604D01*
X12733155Y-7405604D02*
X12733155Y-7457985D01*
X12647441Y-7453223D02*
X12656965Y-7457985D01*
X12656965Y-7457985D02*
X12676012Y-7457985D01*
X12676012Y-7457985D02*
X12685536Y-7453223D01*
X12685536Y-7453223D02*
X12690298Y-7443699D01*
X12690298Y-7443699D02*
X12690298Y-7405604D01*
X12690298Y-7405604D02*
X12685536Y-7396080D01*
X12685536Y-7396080D02*
X12676012Y-7391318D01*
X12676012Y-7391318D02*
X12656965Y-7391318D01*
X12656965Y-7391318D02*
X12647441Y-7396080D01*
X12647441Y-7396080D02*
X12642679Y-7405604D01*
X12642679Y-7405604D02*
X12642679Y-7415127D01*
X12642679Y-7415127D02*
X12690298Y-7424651D01*
X12599822Y-7457985D02*
X12599822Y-7391318D01*
X12599822Y-7410366D02*
X12595060Y-7400842D01*
X12595060Y-7400842D02*
X12590298Y-7396080D01*
X12590298Y-7396080D02*
X12580774Y-7391318D01*
X12580774Y-7391318D02*
X12571250Y-7391318D01*
X12466488Y-7367508D02*
X12461727Y-7362747D01*
X12461727Y-7362747D02*
X12452203Y-7357985D01*
X12452203Y-7357985D02*
X12428393Y-7357985D01*
X12428393Y-7357985D02*
X12418869Y-7362747D01*
X12418869Y-7362747D02*
X12414108Y-7367508D01*
X12414108Y-7367508D02*
X12409346Y-7377032D01*
X12409346Y-7377032D02*
X12409346Y-7386556D01*
X12409346Y-7386556D02*
X12414108Y-7400842D01*
X12414108Y-7400842D02*
X12471250Y-7457985D01*
X12471250Y-7457985D02*
X12409346Y-7457985D01*
X13999822Y-7618979D02*
X13999822Y-7552312D01*
X13999822Y-7571360D02*
X13995060Y-7561836D01*
X13995060Y-7561836D02*
X13990298Y-7557074D01*
X13990298Y-7557074D02*
X13980774Y-7552312D01*
X13980774Y-7552312D02*
X13971251Y-7552312D01*
X13899822Y-7614217D02*
X13909346Y-7618979D01*
X13909346Y-7618979D02*
X13928393Y-7618979D01*
X13928393Y-7618979D02*
X13937917Y-7614217D01*
X13937917Y-7614217D02*
X13942679Y-7604693D01*
X13942679Y-7604693D02*
X13942679Y-7566598D01*
X13942679Y-7566598D02*
X13937917Y-7557074D01*
X13937917Y-7557074D02*
X13928393Y-7552312D01*
X13928393Y-7552312D02*
X13909346Y-7552312D01*
X13909346Y-7552312D02*
X13899822Y-7557074D01*
X13899822Y-7557074D02*
X13895060Y-7566598D01*
X13895060Y-7566598D02*
X13895060Y-7576122D01*
X13895060Y-7576122D02*
X13942679Y-7585646D01*
X13861727Y-7552312D02*
X13837917Y-7618979D01*
X13837917Y-7618979D02*
X13814108Y-7552312D01*
X13776012Y-7609455D02*
X13771250Y-7614217D01*
X13771250Y-7614217D02*
X13776012Y-7618979D01*
X13776012Y-7618979D02*
X13780774Y-7614217D01*
X13780774Y-7614217D02*
X13776012Y-7609455D01*
X13776012Y-7609455D02*
X13776012Y-7618979D01*
X13609346Y-7618979D02*
X13609346Y-7566598D01*
X13609346Y-7566598D02*
X13614108Y-7557074D01*
X13614108Y-7557074D02*
X13623631Y-7552312D01*
X13623631Y-7552312D02*
X13642679Y-7552312D01*
X13642679Y-7552312D02*
X13652203Y-7557074D01*
X13609346Y-7614217D02*
X13618870Y-7618979D01*
X13618870Y-7618979D02*
X13642679Y-7618979D01*
X13642679Y-7618979D02*
X13652203Y-7614217D01*
X13652203Y-7614217D02*
X13656965Y-7604693D01*
X13656965Y-7604693D02*
X13656965Y-7595169D01*
X13656965Y-7595169D02*
X13652203Y-7585646D01*
X13652203Y-7585646D02*
X13642679Y-7580884D01*
X13642679Y-7580884D02*
X13618870Y-7580884D01*
X13618870Y-7580884D02*
X13609346Y-7576122D01*
M02*
