%TF.GenerationSoftware,KiCad,Pcbnew,9.0.4+dfsg-1*%
%TF.CreationDate,2025-09-22T16:07:10+08:00*%
%TF.ProjectId,stlink,73746c69-6e6b-42e6-9b69-6361645f7063,a*%
%TF.SameCoordinates,Original*%
%TF.FileFunction,Legend,Bot*%
%TF.FilePolarity,Positive*%
%FSLAX45Y45*%
G04 Gerber Fmt 4.5, Leading zero omitted, Abs format (unit mm)*
G04 Created by KiCad (PCBNEW 9.0.4+dfsg-1) date 2025-09-22 16:07:10*
%MOMM*%
%LPD*%
G01*
G04 APERTURE LIST*
%ADD10C,0.150000*%
%ADD11C,0.120000*%
G04 APERTURE END LIST*
D10*
X14131584Y-7465220D02*
X14117298Y-7469982D01*
X14117298Y-7469982D02*
X14093489Y-7469982D01*
X14093489Y-7469982D02*
X14083965Y-7465220D01*
X14083965Y-7465220D02*
X14079203Y-7460458D01*
X14079203Y-7460458D02*
X14074441Y-7450934D01*
X14074441Y-7450934D02*
X14074441Y-7441410D01*
X14074441Y-7441410D02*
X14079203Y-7431887D01*
X14079203Y-7431887D02*
X14083965Y-7427125D01*
X14083965Y-7427125D02*
X14093489Y-7422363D01*
X14093489Y-7422363D02*
X14112536Y-7417601D01*
X14112536Y-7417601D02*
X14122060Y-7412839D01*
X14122060Y-7412839D02*
X14126822Y-7408077D01*
X14126822Y-7408077D02*
X14131584Y-7398553D01*
X14131584Y-7398553D02*
X14131584Y-7389029D01*
X14131584Y-7389029D02*
X14126822Y-7379506D01*
X14126822Y-7379506D02*
X14122060Y-7374744D01*
X14122060Y-7374744D02*
X14112536Y-7369982D01*
X14112536Y-7369982D02*
X14088727Y-7369982D01*
X14088727Y-7369982D02*
X14074441Y-7374744D01*
X14045870Y-7369982D02*
X13988727Y-7369982D01*
X14017298Y-7469982D02*
X14017298Y-7369982D01*
X13955393Y-7469982D02*
X13955393Y-7369982D01*
X13955393Y-7369982D02*
X13922060Y-7441410D01*
X13922060Y-7441410D02*
X13888727Y-7369982D01*
X13888727Y-7369982D02*
X13888727Y-7469982D01*
X13850631Y-7369982D02*
X13788727Y-7369982D01*
X13788727Y-7369982D02*
X13822060Y-7408077D01*
X13822060Y-7408077D02*
X13807774Y-7408077D01*
X13807774Y-7408077D02*
X13798251Y-7412839D01*
X13798251Y-7412839D02*
X13793489Y-7417601D01*
X13793489Y-7417601D02*
X13788727Y-7427125D01*
X13788727Y-7427125D02*
X13788727Y-7450934D01*
X13788727Y-7450934D02*
X13793489Y-7460458D01*
X13793489Y-7460458D02*
X13798251Y-7465220D01*
X13798251Y-7465220D02*
X13807774Y-7469982D01*
X13807774Y-7469982D02*
X13836346Y-7469982D01*
X13836346Y-7469982D02*
X13845870Y-7465220D01*
X13845870Y-7465220D02*
X13850631Y-7460458D01*
X13750631Y-7379506D02*
X13745870Y-7374744D01*
X13745870Y-7374744D02*
X13736346Y-7369982D01*
X13736346Y-7369982D02*
X13712536Y-7369982D01*
X13712536Y-7369982D02*
X13703012Y-7374744D01*
X13703012Y-7374744D02*
X13698251Y-7379506D01*
X13698251Y-7379506D02*
X13693489Y-7389029D01*
X13693489Y-7389029D02*
X13693489Y-7398553D01*
X13693489Y-7398553D02*
X13698251Y-7412839D01*
X13698251Y-7412839D02*
X13755393Y-7469982D01*
X13755393Y-7469982D02*
X13693489Y-7469982D01*
X13574441Y-7469982D02*
X13574441Y-7369982D01*
X13574441Y-7369982D02*
X13536346Y-7369982D01*
X13536346Y-7369982D02*
X13526822Y-7374744D01*
X13526822Y-7374744D02*
X13522060Y-7379506D01*
X13522060Y-7379506D02*
X13517298Y-7389029D01*
X13517298Y-7389029D02*
X13517298Y-7403315D01*
X13517298Y-7403315D02*
X13522060Y-7412839D01*
X13522060Y-7412839D02*
X13526822Y-7417601D01*
X13526822Y-7417601D02*
X13536346Y-7422363D01*
X13536346Y-7422363D02*
X13574441Y-7422363D01*
X13474441Y-7469982D02*
X13474441Y-7403315D01*
X13474441Y-7422363D02*
X13469679Y-7412839D01*
X13469679Y-7412839D02*
X13464917Y-7408077D01*
X13464917Y-7408077D02*
X13455393Y-7403315D01*
X13455393Y-7403315D02*
X13445870Y-7403315D01*
X13398250Y-7469982D02*
X13407774Y-7465220D01*
X13407774Y-7465220D02*
X13412536Y-7460458D01*
X13412536Y-7460458D02*
X13417298Y-7450934D01*
X13417298Y-7450934D02*
X13417298Y-7422363D01*
X13417298Y-7422363D02*
X13412536Y-7412839D01*
X13412536Y-7412839D02*
X13407774Y-7408077D01*
X13407774Y-7408077D02*
X13398250Y-7403315D01*
X13398250Y-7403315D02*
X13383965Y-7403315D01*
X13383965Y-7403315D02*
X13374441Y-7408077D01*
X13374441Y-7408077D02*
X13369679Y-7412839D01*
X13369679Y-7412839D02*
X13364917Y-7422363D01*
X13364917Y-7422363D02*
X13364917Y-7450934D01*
X13364917Y-7450934D02*
X13369679Y-7460458D01*
X13369679Y-7460458D02*
X13374441Y-7465220D01*
X13374441Y-7465220D02*
X13383965Y-7469982D01*
X13383965Y-7469982D02*
X13398250Y-7469982D01*
X13279203Y-7403315D02*
X13279203Y-7484268D01*
X13279203Y-7484268D02*
X13283965Y-7493791D01*
X13283965Y-7493791D02*
X13288727Y-7498553D01*
X13288727Y-7498553D02*
X13298250Y-7503315D01*
X13298250Y-7503315D02*
X13312536Y-7503315D01*
X13312536Y-7503315D02*
X13322060Y-7498553D01*
X13279203Y-7465220D02*
X13288727Y-7469982D01*
X13288727Y-7469982D02*
X13307774Y-7469982D01*
X13307774Y-7469982D02*
X13317298Y-7465220D01*
X13317298Y-7465220D02*
X13322060Y-7460458D01*
X13322060Y-7460458D02*
X13326822Y-7450934D01*
X13326822Y-7450934D02*
X13326822Y-7422363D01*
X13326822Y-7422363D02*
X13322060Y-7412839D01*
X13322060Y-7412839D02*
X13317298Y-7408077D01*
X13317298Y-7408077D02*
X13307774Y-7403315D01*
X13307774Y-7403315D02*
X13288727Y-7403315D01*
X13288727Y-7403315D02*
X13279203Y-7408077D01*
X13231584Y-7469982D02*
X13231584Y-7403315D01*
X13231584Y-7422363D02*
X13226822Y-7412839D01*
X13226822Y-7412839D02*
X13222060Y-7408077D01*
X13222060Y-7408077D02*
X13212536Y-7403315D01*
X13212536Y-7403315D02*
X13203012Y-7403315D01*
X13126822Y-7469982D02*
X13126822Y-7417601D01*
X13126822Y-7417601D02*
X13131584Y-7408077D01*
X13131584Y-7408077D02*
X13141108Y-7403315D01*
X13141108Y-7403315D02*
X13160155Y-7403315D01*
X13160155Y-7403315D02*
X13169679Y-7408077D01*
X13126822Y-7465220D02*
X13136346Y-7469982D01*
X13136346Y-7469982D02*
X13160155Y-7469982D01*
X13160155Y-7469982D02*
X13169679Y-7465220D01*
X13169679Y-7465220D02*
X13174441Y-7455696D01*
X13174441Y-7455696D02*
X13174441Y-7446172D01*
X13174441Y-7446172D02*
X13169679Y-7436648D01*
X13169679Y-7436648D02*
X13160155Y-7431887D01*
X13160155Y-7431887D02*
X13136346Y-7431887D01*
X13136346Y-7431887D02*
X13126822Y-7427125D01*
X13079203Y-7469982D02*
X13079203Y-7403315D01*
X13079203Y-7412839D02*
X13074441Y-7408077D01*
X13074441Y-7408077D02*
X13064917Y-7403315D01*
X13064917Y-7403315D02*
X13050631Y-7403315D01*
X13050631Y-7403315D02*
X13041108Y-7408077D01*
X13041108Y-7408077D02*
X13036346Y-7417601D01*
X13036346Y-7417601D02*
X13036346Y-7469982D01*
X13036346Y-7417601D02*
X13031584Y-7408077D01*
X13031584Y-7408077D02*
X13022060Y-7403315D01*
X13022060Y-7403315D02*
X13007774Y-7403315D01*
X13007774Y-7403315D02*
X12998250Y-7408077D01*
X12998250Y-7408077D02*
X12993488Y-7417601D01*
X12993488Y-7417601D02*
X12993488Y-7469982D01*
X12945869Y-7469982D02*
X12945869Y-7403315D01*
X12945869Y-7412839D02*
X12941108Y-7408077D01*
X12941108Y-7408077D02*
X12931584Y-7403315D01*
X12931584Y-7403315D02*
X12917298Y-7403315D01*
X12917298Y-7403315D02*
X12907774Y-7408077D01*
X12907774Y-7408077D02*
X12903012Y-7417601D01*
X12903012Y-7417601D02*
X12903012Y-7469982D01*
X12903012Y-7417601D02*
X12898250Y-7408077D01*
X12898250Y-7408077D02*
X12888727Y-7403315D01*
X12888727Y-7403315D02*
X12874441Y-7403315D01*
X12874441Y-7403315D02*
X12864917Y-7408077D01*
X12864917Y-7408077D02*
X12860155Y-7417601D01*
X12860155Y-7417601D02*
X12860155Y-7469982D01*
X12774441Y-7465220D02*
X12783965Y-7469982D01*
X12783965Y-7469982D02*
X12803012Y-7469982D01*
X12803012Y-7469982D02*
X12812536Y-7465220D01*
X12812536Y-7465220D02*
X12817298Y-7455696D01*
X12817298Y-7455696D02*
X12817298Y-7417601D01*
X12817298Y-7417601D02*
X12812536Y-7408077D01*
X12812536Y-7408077D02*
X12803012Y-7403315D01*
X12803012Y-7403315D02*
X12783965Y-7403315D01*
X12783965Y-7403315D02*
X12774441Y-7408077D01*
X12774441Y-7408077D02*
X12769679Y-7417601D01*
X12769679Y-7417601D02*
X12769679Y-7427125D01*
X12769679Y-7427125D02*
X12817298Y-7436648D01*
X12726822Y-7469982D02*
X12726822Y-7403315D01*
X12726822Y-7422363D02*
X12722060Y-7412839D01*
X12722060Y-7412839D02*
X12717298Y-7408077D01*
X12717298Y-7408077D02*
X12707774Y-7403315D01*
X12707774Y-7403315D02*
X12698250Y-7403315D01*
X12593488Y-7379506D02*
X12588727Y-7374744D01*
X12588727Y-7374744D02*
X12579203Y-7369982D01*
X12579203Y-7369982D02*
X12555393Y-7369982D01*
X12555393Y-7369982D02*
X12545869Y-7374744D01*
X12545869Y-7374744D02*
X12541108Y-7379506D01*
X12541108Y-7379506D02*
X12536346Y-7389029D01*
X12536346Y-7389029D02*
X12536346Y-7398553D01*
X12536346Y-7398553D02*
X12541108Y-7412839D01*
X12541108Y-7412839D02*
X12598250Y-7469982D01*
X12598250Y-7469982D02*
X12536346Y-7469982D01*
X12488727Y-7465220D02*
X12488727Y-7469982D01*
X12488727Y-7469982D02*
X12493488Y-7479506D01*
X12493488Y-7479506D02*
X12498250Y-7484268D01*
X12369679Y-7469982D02*
X12369679Y-7403315D01*
X12369679Y-7422363D02*
X12364917Y-7412839D01*
X12364917Y-7412839D02*
X12360155Y-7408077D01*
X12360155Y-7408077D02*
X12350631Y-7403315D01*
X12350631Y-7403315D02*
X12341108Y-7403315D01*
X12269679Y-7465220D02*
X12279203Y-7469982D01*
X12279203Y-7469982D02*
X12298250Y-7469982D01*
X12298250Y-7469982D02*
X12307774Y-7465220D01*
X12307774Y-7465220D02*
X12312536Y-7455696D01*
X12312536Y-7455696D02*
X12312536Y-7417601D01*
X12312536Y-7417601D02*
X12307774Y-7408077D01*
X12307774Y-7408077D02*
X12298250Y-7403315D01*
X12298250Y-7403315D02*
X12279203Y-7403315D01*
X12279203Y-7403315D02*
X12269679Y-7408077D01*
X12269679Y-7408077D02*
X12264917Y-7417601D01*
X12264917Y-7417601D02*
X12264917Y-7427125D01*
X12264917Y-7427125D02*
X12312536Y-7436648D01*
X12231584Y-7403315D02*
X12207774Y-7469982D01*
X12207774Y-7469982D02*
X12183965Y-7403315D01*
X12145869Y-7460458D02*
X12141107Y-7465220D01*
X12141107Y-7465220D02*
X12145869Y-7469982D01*
X12145869Y-7469982D02*
X12150631Y-7465220D01*
X12150631Y-7465220D02*
X12145869Y-7460458D01*
X12145869Y-7460458D02*
X12145869Y-7469982D01*
X11979203Y-7469982D02*
X11979203Y-7417601D01*
X11979203Y-7417601D02*
X11983965Y-7408077D01*
X11983965Y-7408077D02*
X11993488Y-7403315D01*
X11993488Y-7403315D02*
X12012536Y-7403315D01*
X12012536Y-7403315D02*
X12022060Y-7408077D01*
X11979203Y-7465220D02*
X11988727Y-7469982D01*
X11988727Y-7469982D02*
X12012536Y-7469982D01*
X12012536Y-7469982D02*
X12022060Y-7465220D01*
X12022060Y-7465220D02*
X12026822Y-7455696D01*
X12026822Y-7455696D02*
X12026822Y-7446172D01*
X12026822Y-7446172D02*
X12022060Y-7436648D01*
X12022060Y-7436648D02*
X12012536Y-7431887D01*
X12012536Y-7431887D02*
X11988727Y-7431887D01*
X11988727Y-7431887D02*
X11979203Y-7427125D01*
X14131584Y-7540500D02*
X14126822Y-7535738D01*
X14126822Y-7535738D02*
X14117298Y-7530976D01*
X14117298Y-7530976D02*
X14093489Y-7530976D01*
X14093489Y-7530976D02*
X14083965Y-7535738D01*
X14083965Y-7535738D02*
X14079203Y-7540500D01*
X14079203Y-7540500D02*
X14074441Y-7550024D01*
X14074441Y-7550024D02*
X14074441Y-7559548D01*
X14074441Y-7559548D02*
X14079203Y-7573833D01*
X14079203Y-7573833D02*
X14136346Y-7630976D01*
X14136346Y-7630976D02*
X14074441Y-7630976D01*
X14012536Y-7530976D02*
X14003012Y-7530976D01*
X14003012Y-7530976D02*
X13993489Y-7535738D01*
X13993489Y-7535738D02*
X13988727Y-7540500D01*
X13988727Y-7540500D02*
X13983965Y-7550024D01*
X13983965Y-7550024D02*
X13979203Y-7569071D01*
X13979203Y-7569071D02*
X13979203Y-7592881D01*
X13979203Y-7592881D02*
X13983965Y-7611929D01*
X13983965Y-7611929D02*
X13988727Y-7621452D01*
X13988727Y-7621452D02*
X13993489Y-7626214D01*
X13993489Y-7626214D02*
X14003012Y-7630976D01*
X14003012Y-7630976D02*
X14012536Y-7630976D01*
X14012536Y-7630976D02*
X14022060Y-7626214D01*
X14022060Y-7626214D02*
X14026822Y-7621452D01*
X14026822Y-7621452D02*
X14031584Y-7611929D01*
X14031584Y-7611929D02*
X14036346Y-7592881D01*
X14036346Y-7592881D02*
X14036346Y-7569071D01*
X14036346Y-7569071D02*
X14031584Y-7550024D01*
X14031584Y-7550024D02*
X14026822Y-7540500D01*
X14026822Y-7540500D02*
X14022060Y-7535738D01*
X14022060Y-7535738D02*
X14012536Y-7530976D01*
X13941108Y-7540500D02*
X13936346Y-7535738D01*
X13936346Y-7535738D02*
X13926822Y-7530976D01*
X13926822Y-7530976D02*
X13903012Y-7530976D01*
X13903012Y-7530976D02*
X13893489Y-7535738D01*
X13893489Y-7535738D02*
X13888727Y-7540500D01*
X13888727Y-7540500D02*
X13883965Y-7550024D01*
X13883965Y-7550024D02*
X13883965Y-7559548D01*
X13883965Y-7559548D02*
X13888727Y-7573833D01*
X13888727Y-7573833D02*
X13945870Y-7630976D01*
X13945870Y-7630976D02*
X13883965Y-7630976D01*
X13793489Y-7530976D02*
X13841108Y-7530976D01*
X13841108Y-7530976D02*
X13845870Y-7578595D01*
X13845870Y-7578595D02*
X13841108Y-7573833D01*
X13841108Y-7573833D02*
X13831584Y-7569071D01*
X13831584Y-7569071D02*
X13807774Y-7569071D01*
X13807774Y-7569071D02*
X13798251Y-7573833D01*
X13798251Y-7573833D02*
X13793489Y-7578595D01*
X13793489Y-7578595D02*
X13788727Y-7588119D01*
X13788727Y-7588119D02*
X13788727Y-7611929D01*
X13788727Y-7611929D02*
X13793489Y-7621452D01*
X13793489Y-7621452D02*
X13798251Y-7626214D01*
X13798251Y-7626214D02*
X13807774Y-7630976D01*
X13807774Y-7630976D02*
X13831584Y-7630976D01*
X13831584Y-7630976D02*
X13841108Y-7626214D01*
X13841108Y-7626214D02*
X13845870Y-7621452D01*
X13612536Y-7621452D02*
X13617298Y-7626214D01*
X13617298Y-7626214D02*
X13631584Y-7630976D01*
X13631584Y-7630976D02*
X13641108Y-7630976D01*
X13641108Y-7630976D02*
X13655393Y-7626214D01*
X13655393Y-7626214D02*
X13664917Y-7616690D01*
X13664917Y-7616690D02*
X13669679Y-7607167D01*
X13669679Y-7607167D02*
X13674441Y-7588119D01*
X13674441Y-7588119D02*
X13674441Y-7573833D01*
X13674441Y-7573833D02*
X13669679Y-7554786D01*
X13669679Y-7554786D02*
X13664917Y-7545262D01*
X13664917Y-7545262D02*
X13655393Y-7535738D01*
X13655393Y-7535738D02*
X13641108Y-7530976D01*
X13641108Y-7530976D02*
X13631584Y-7530976D01*
X13631584Y-7530976D02*
X13617298Y-7535738D01*
X13617298Y-7535738D02*
X13612536Y-7540500D01*
X13526822Y-7564310D02*
X13526822Y-7630976D01*
X13569679Y-7564310D02*
X13569679Y-7616690D01*
X13569679Y-7616690D02*
X13564917Y-7626214D01*
X13564917Y-7626214D02*
X13555393Y-7630976D01*
X13555393Y-7630976D02*
X13541108Y-7630976D01*
X13541108Y-7630976D02*
X13531584Y-7626214D01*
X13531584Y-7626214D02*
X13526822Y-7621452D01*
X13479203Y-7630976D02*
X13479203Y-7564310D01*
X13479203Y-7583357D02*
X13474441Y-7573833D01*
X13474441Y-7573833D02*
X13469679Y-7569071D01*
X13469679Y-7569071D02*
X13460155Y-7564310D01*
X13460155Y-7564310D02*
X13450631Y-7564310D01*
X13417298Y-7630976D02*
X13417298Y-7564310D01*
X13417298Y-7583357D02*
X13412536Y-7573833D01*
X13412536Y-7573833D02*
X13407774Y-7569071D01*
X13407774Y-7569071D02*
X13398250Y-7564310D01*
X13398250Y-7564310D02*
X13388727Y-7564310D01*
X13317298Y-7626214D02*
X13326822Y-7630976D01*
X13326822Y-7630976D02*
X13345869Y-7630976D01*
X13345869Y-7630976D02*
X13355393Y-7626214D01*
X13355393Y-7626214D02*
X13360155Y-7616690D01*
X13360155Y-7616690D02*
X13360155Y-7578595D01*
X13360155Y-7578595D02*
X13355393Y-7569071D01*
X13355393Y-7569071D02*
X13345869Y-7564310D01*
X13345869Y-7564310D02*
X13326822Y-7564310D01*
X13326822Y-7564310D02*
X13317298Y-7569071D01*
X13317298Y-7569071D02*
X13312536Y-7578595D01*
X13312536Y-7578595D02*
X13312536Y-7588119D01*
X13312536Y-7588119D02*
X13360155Y-7597643D01*
X13269679Y-7564310D02*
X13269679Y-7630976D01*
X13269679Y-7573833D02*
X13264917Y-7569071D01*
X13264917Y-7569071D02*
X13255393Y-7564310D01*
X13255393Y-7564310D02*
X13241108Y-7564310D01*
X13241108Y-7564310D02*
X13231584Y-7569071D01*
X13231584Y-7569071D02*
X13226822Y-7578595D01*
X13226822Y-7578595D02*
X13226822Y-7630976D01*
X13193488Y-7564310D02*
X13155393Y-7564310D01*
X13179203Y-7530976D02*
X13179203Y-7616690D01*
X13179203Y-7616690D02*
X13174441Y-7626214D01*
X13174441Y-7626214D02*
X13164917Y-7630976D01*
X13164917Y-7630976D02*
X13155393Y-7630976D01*
X13122060Y-7630976D02*
X13122060Y-7530976D01*
X13122060Y-7530976D02*
X13088727Y-7602405D01*
X13088727Y-7602405D02*
X13055393Y-7530976D01*
X13055393Y-7530976D02*
X13055393Y-7630976D01*
X12964917Y-7630976D02*
X12964917Y-7578595D01*
X12964917Y-7578595D02*
X12969679Y-7569071D01*
X12969679Y-7569071D02*
X12979203Y-7564310D01*
X12979203Y-7564310D02*
X12998250Y-7564310D01*
X12998250Y-7564310D02*
X13007774Y-7569071D01*
X12964917Y-7626214D02*
X12974441Y-7630976D01*
X12974441Y-7630976D02*
X12998250Y-7630976D01*
X12998250Y-7630976D02*
X13007774Y-7626214D01*
X13007774Y-7626214D02*
X13012536Y-7616690D01*
X13012536Y-7616690D02*
X13012536Y-7607167D01*
X13012536Y-7607167D02*
X13007774Y-7597643D01*
X13007774Y-7597643D02*
X12998250Y-7592881D01*
X12998250Y-7592881D02*
X12974441Y-7592881D01*
X12974441Y-7592881D02*
X12964917Y-7588119D01*
X12917298Y-7630976D02*
X12917298Y-7530976D01*
X12907774Y-7592881D02*
X12879203Y-7630976D01*
X12879203Y-7564310D02*
X12917298Y-7602405D01*
X12798250Y-7626214D02*
X12807774Y-7630976D01*
X12807774Y-7630976D02*
X12826822Y-7630976D01*
X12826822Y-7630976D02*
X12836346Y-7626214D01*
X12836346Y-7626214D02*
X12841107Y-7616690D01*
X12841107Y-7616690D02*
X12841107Y-7578595D01*
X12841107Y-7578595D02*
X12836346Y-7569071D01*
X12836346Y-7569071D02*
X12826822Y-7564310D01*
X12826822Y-7564310D02*
X12807774Y-7564310D01*
X12807774Y-7564310D02*
X12798250Y-7569071D01*
X12798250Y-7569071D02*
X12793488Y-7578595D01*
X12793488Y-7578595D02*
X12793488Y-7588119D01*
X12793488Y-7588119D02*
X12841107Y-7597643D01*
X12750631Y-7630976D02*
X12750631Y-7564310D01*
X12750631Y-7583357D02*
X12745869Y-7573833D01*
X12745869Y-7573833D02*
X12741107Y-7569071D01*
X12741107Y-7569071D02*
X12731584Y-7564310D01*
X12731584Y-7564310D02*
X12722060Y-7564310D01*
X12693488Y-7626214D02*
X12683965Y-7630976D01*
X12683965Y-7630976D02*
X12664917Y-7630976D01*
X12664917Y-7630976D02*
X12655393Y-7626214D01*
X12655393Y-7626214D02*
X12650631Y-7616690D01*
X12650631Y-7616690D02*
X12650631Y-7611929D01*
X12650631Y-7611929D02*
X12655393Y-7602405D01*
X12655393Y-7602405D02*
X12664917Y-7597643D01*
X12664917Y-7597643D02*
X12679203Y-7597643D01*
X12679203Y-7597643D02*
X12688726Y-7592881D01*
X12688726Y-7592881D02*
X12693488Y-7583357D01*
X12693488Y-7583357D02*
X12693488Y-7578595D01*
X12693488Y-7578595D02*
X12688726Y-7569071D01*
X12688726Y-7569071D02*
X12679203Y-7564310D01*
X12679203Y-7564310D02*
X12664917Y-7564310D01*
X12664917Y-7564310D02*
X12655393Y-7569071D01*
X12607774Y-7621452D02*
X12603012Y-7626214D01*
X12603012Y-7626214D02*
X12607774Y-7630976D01*
X12607774Y-7630976D02*
X12612536Y-7626214D01*
X12612536Y-7626214D02*
X12607774Y-7621452D01*
X12607774Y-7621452D02*
X12607774Y-7630976D01*
X12517298Y-7626214D02*
X12526822Y-7630976D01*
X12526822Y-7630976D02*
X12545869Y-7630976D01*
X12545869Y-7630976D02*
X12555393Y-7626214D01*
X12555393Y-7626214D02*
X12560155Y-7621452D01*
X12560155Y-7621452D02*
X12564917Y-7611929D01*
X12564917Y-7611929D02*
X12564917Y-7583357D01*
X12564917Y-7583357D02*
X12560155Y-7573833D01*
X12560155Y-7573833D02*
X12555393Y-7569071D01*
X12555393Y-7569071D02*
X12545869Y-7564310D01*
X12545869Y-7564310D02*
X12526822Y-7564310D01*
X12526822Y-7564310D02*
X12517298Y-7569071D01*
X12460155Y-7630976D02*
X12469679Y-7626214D01*
X12469679Y-7626214D02*
X12474441Y-7621452D01*
X12474441Y-7621452D02*
X12479203Y-7611929D01*
X12479203Y-7611929D02*
X12479203Y-7583357D01*
X12479203Y-7583357D02*
X12474441Y-7573833D01*
X12474441Y-7573833D02*
X12469679Y-7569071D01*
X12469679Y-7569071D02*
X12460155Y-7564310D01*
X12460155Y-7564310D02*
X12445869Y-7564310D01*
X12445869Y-7564310D02*
X12436346Y-7569071D01*
X12436346Y-7569071D02*
X12431584Y-7573833D01*
X12431584Y-7573833D02*
X12426822Y-7583357D01*
X12426822Y-7583357D02*
X12426822Y-7611929D01*
X12426822Y-7611929D02*
X12431584Y-7621452D01*
X12431584Y-7621452D02*
X12436346Y-7626214D01*
X12436346Y-7626214D02*
X12445869Y-7630976D01*
X12445869Y-7630976D02*
X12460155Y-7630976D01*
X12383965Y-7630976D02*
X12383965Y-7564310D01*
X12383965Y-7573833D02*
X12379203Y-7569071D01*
X12379203Y-7569071D02*
X12369679Y-7564310D01*
X12369679Y-7564310D02*
X12355393Y-7564310D01*
X12355393Y-7564310D02*
X12345869Y-7569071D01*
X12345869Y-7569071D02*
X12341107Y-7578595D01*
X12341107Y-7578595D02*
X12341107Y-7630976D01*
X12341107Y-7578595D02*
X12336346Y-7569071D01*
X12336346Y-7569071D02*
X12326822Y-7564310D01*
X12326822Y-7564310D02*
X12312536Y-7564310D01*
X12312536Y-7564310D02*
X12303012Y-7569071D01*
X12303012Y-7569071D02*
X12298250Y-7578595D01*
X12298250Y-7578595D02*
X12298250Y-7630976D01*
D11*
X12954000Y-9207500D02*
X13970000Y-9207500D01*
X13970000Y-10223500D01*
X12954000Y-10223500D01*
X12954000Y-9207500D01*
G36*
X12954000Y-9207500D02*
G01*
X13970000Y-9207500D01*
X13970000Y-10223500D01*
X12954000Y-10223500D01*
X12954000Y-9207500D01*
G37*
M02*
