%TF.GenerationSoftware,KiCad,Pcbnew,9.0.4+dfsg-1*%
%TF.CreationDate,2025-09-22T10:32:12+08:00*%
%TF.ProjectId,stlink,73746c69-6e6b-42e6-9b69-6361645f7063,a*%
%TF.SameCoordinates,Original*%
%TF.FileFunction,Legend,Bot*%
%TF.FilePolarity,Positive*%
%FSLAX45Y45*%
G04 Gerber Fmt 4.5, Leading zero omitted, Abs format (unit mm)*
G04 Created by KiCad (PCBNEW 9.0.4+dfsg-1) date 2025-09-22 10:32:12*
%MOMM*%
%LPD*%
G01*
G04 APERTURE LIST*
%ADD10C,0.120000*%
%ADD11C,0.150000*%
G04 APERTURE END LIST*
D10*
X12954000Y-9207500D02*
X13970000Y-9207500D01*
X13970000Y-10223500D01*
X12954000Y-10223500D01*
X12954000Y-9207500D01*
G36*
X12954000Y-9207500D02*
G01*
X13970000Y-9207500D01*
X13970000Y-10223500D01*
X12954000Y-10223500D01*
X12954000Y-9207500D01*
G37*
D11*
X14068084Y-7465220D02*
X14053798Y-7469982D01*
X14053798Y-7469982D02*
X14029989Y-7469982D01*
X14029989Y-7469982D02*
X14020465Y-7465220D01*
X14020465Y-7465220D02*
X14015703Y-7460458D01*
X14015703Y-7460458D02*
X14010941Y-7450934D01*
X14010941Y-7450934D02*
X14010941Y-7441410D01*
X14010941Y-7441410D02*
X14015703Y-7431887D01*
X14015703Y-7431887D02*
X14020465Y-7427125D01*
X14020465Y-7427125D02*
X14029989Y-7422363D01*
X14029989Y-7422363D02*
X14049036Y-7417601D01*
X14049036Y-7417601D02*
X14058560Y-7412839D01*
X14058560Y-7412839D02*
X14063322Y-7408077D01*
X14063322Y-7408077D02*
X14068084Y-7398553D01*
X14068084Y-7398553D02*
X14068084Y-7389029D01*
X14068084Y-7389029D02*
X14063322Y-7379506D01*
X14063322Y-7379506D02*
X14058560Y-7374744D01*
X14058560Y-7374744D02*
X14049036Y-7369982D01*
X14049036Y-7369982D02*
X14025227Y-7369982D01*
X14025227Y-7369982D02*
X14010941Y-7374744D01*
X13982370Y-7369982D02*
X13925227Y-7369982D01*
X13953798Y-7469982D02*
X13953798Y-7369982D01*
X13891893Y-7469982D02*
X13891893Y-7369982D01*
X13891893Y-7369982D02*
X13858560Y-7441410D01*
X13858560Y-7441410D02*
X13825227Y-7369982D01*
X13825227Y-7369982D02*
X13825227Y-7469982D01*
X13787131Y-7369982D02*
X13725227Y-7369982D01*
X13725227Y-7369982D02*
X13758560Y-7408077D01*
X13758560Y-7408077D02*
X13744274Y-7408077D01*
X13744274Y-7408077D02*
X13734751Y-7412839D01*
X13734751Y-7412839D02*
X13729989Y-7417601D01*
X13729989Y-7417601D02*
X13725227Y-7427125D01*
X13725227Y-7427125D02*
X13725227Y-7450934D01*
X13725227Y-7450934D02*
X13729989Y-7460458D01*
X13729989Y-7460458D02*
X13734751Y-7465220D01*
X13734751Y-7465220D02*
X13744274Y-7469982D01*
X13744274Y-7469982D02*
X13772846Y-7469982D01*
X13772846Y-7469982D02*
X13782370Y-7465220D01*
X13782370Y-7465220D02*
X13787131Y-7460458D01*
X13687131Y-7379506D02*
X13682370Y-7374744D01*
X13682370Y-7374744D02*
X13672846Y-7369982D01*
X13672846Y-7369982D02*
X13649036Y-7369982D01*
X13649036Y-7369982D02*
X13639512Y-7374744D01*
X13639512Y-7374744D02*
X13634751Y-7379506D01*
X13634751Y-7379506D02*
X13629989Y-7389029D01*
X13629989Y-7389029D02*
X13629989Y-7398553D01*
X13629989Y-7398553D02*
X13634751Y-7412839D01*
X13634751Y-7412839D02*
X13691893Y-7469982D01*
X13691893Y-7469982D02*
X13629989Y-7469982D01*
X13510941Y-7469982D02*
X13510941Y-7369982D01*
X13510941Y-7369982D02*
X13472846Y-7369982D01*
X13472846Y-7369982D02*
X13463322Y-7374744D01*
X13463322Y-7374744D02*
X13458560Y-7379506D01*
X13458560Y-7379506D02*
X13453798Y-7389029D01*
X13453798Y-7389029D02*
X13453798Y-7403315D01*
X13453798Y-7403315D02*
X13458560Y-7412839D01*
X13458560Y-7412839D02*
X13463322Y-7417601D01*
X13463322Y-7417601D02*
X13472846Y-7422363D01*
X13472846Y-7422363D02*
X13510941Y-7422363D01*
X13410941Y-7469982D02*
X13410941Y-7403315D01*
X13410941Y-7422363D02*
X13406179Y-7412839D01*
X13406179Y-7412839D02*
X13401417Y-7408077D01*
X13401417Y-7408077D02*
X13391893Y-7403315D01*
X13391893Y-7403315D02*
X13382370Y-7403315D01*
X13334750Y-7469982D02*
X13344274Y-7465220D01*
X13344274Y-7465220D02*
X13349036Y-7460458D01*
X13349036Y-7460458D02*
X13353798Y-7450934D01*
X13353798Y-7450934D02*
X13353798Y-7422363D01*
X13353798Y-7422363D02*
X13349036Y-7412839D01*
X13349036Y-7412839D02*
X13344274Y-7408077D01*
X13344274Y-7408077D02*
X13334750Y-7403315D01*
X13334750Y-7403315D02*
X13320465Y-7403315D01*
X13320465Y-7403315D02*
X13310941Y-7408077D01*
X13310941Y-7408077D02*
X13306179Y-7412839D01*
X13306179Y-7412839D02*
X13301417Y-7422363D01*
X13301417Y-7422363D02*
X13301417Y-7450934D01*
X13301417Y-7450934D02*
X13306179Y-7460458D01*
X13306179Y-7460458D02*
X13310941Y-7465220D01*
X13310941Y-7465220D02*
X13320465Y-7469982D01*
X13320465Y-7469982D02*
X13334750Y-7469982D01*
X13215703Y-7403315D02*
X13215703Y-7484268D01*
X13215703Y-7484268D02*
X13220465Y-7493791D01*
X13220465Y-7493791D02*
X13225227Y-7498553D01*
X13225227Y-7498553D02*
X13234750Y-7503315D01*
X13234750Y-7503315D02*
X13249036Y-7503315D01*
X13249036Y-7503315D02*
X13258560Y-7498553D01*
X13215703Y-7465220D02*
X13225227Y-7469982D01*
X13225227Y-7469982D02*
X13244274Y-7469982D01*
X13244274Y-7469982D02*
X13253798Y-7465220D01*
X13253798Y-7465220D02*
X13258560Y-7460458D01*
X13258560Y-7460458D02*
X13263322Y-7450934D01*
X13263322Y-7450934D02*
X13263322Y-7422363D01*
X13263322Y-7422363D02*
X13258560Y-7412839D01*
X13258560Y-7412839D02*
X13253798Y-7408077D01*
X13253798Y-7408077D02*
X13244274Y-7403315D01*
X13244274Y-7403315D02*
X13225227Y-7403315D01*
X13225227Y-7403315D02*
X13215703Y-7408077D01*
X13168084Y-7469982D02*
X13168084Y-7403315D01*
X13168084Y-7422363D02*
X13163322Y-7412839D01*
X13163322Y-7412839D02*
X13158560Y-7408077D01*
X13158560Y-7408077D02*
X13149036Y-7403315D01*
X13149036Y-7403315D02*
X13139512Y-7403315D01*
X13063322Y-7469982D02*
X13063322Y-7417601D01*
X13063322Y-7417601D02*
X13068084Y-7408077D01*
X13068084Y-7408077D02*
X13077608Y-7403315D01*
X13077608Y-7403315D02*
X13096655Y-7403315D01*
X13096655Y-7403315D02*
X13106179Y-7408077D01*
X13063322Y-7465220D02*
X13072846Y-7469982D01*
X13072846Y-7469982D02*
X13096655Y-7469982D01*
X13096655Y-7469982D02*
X13106179Y-7465220D01*
X13106179Y-7465220D02*
X13110941Y-7455696D01*
X13110941Y-7455696D02*
X13110941Y-7446172D01*
X13110941Y-7446172D02*
X13106179Y-7436648D01*
X13106179Y-7436648D02*
X13096655Y-7431887D01*
X13096655Y-7431887D02*
X13072846Y-7431887D01*
X13072846Y-7431887D02*
X13063322Y-7427125D01*
X13015703Y-7469982D02*
X13015703Y-7403315D01*
X13015703Y-7412839D02*
X13010941Y-7408077D01*
X13010941Y-7408077D02*
X13001417Y-7403315D01*
X13001417Y-7403315D02*
X12987131Y-7403315D01*
X12987131Y-7403315D02*
X12977608Y-7408077D01*
X12977608Y-7408077D02*
X12972846Y-7417601D01*
X12972846Y-7417601D02*
X12972846Y-7469982D01*
X12972846Y-7417601D02*
X12968084Y-7408077D01*
X12968084Y-7408077D02*
X12958560Y-7403315D01*
X12958560Y-7403315D02*
X12944274Y-7403315D01*
X12944274Y-7403315D02*
X12934750Y-7408077D01*
X12934750Y-7408077D02*
X12929988Y-7417601D01*
X12929988Y-7417601D02*
X12929988Y-7469982D01*
X12882369Y-7469982D02*
X12882369Y-7403315D01*
X12882369Y-7412839D02*
X12877608Y-7408077D01*
X12877608Y-7408077D02*
X12868084Y-7403315D01*
X12868084Y-7403315D02*
X12853798Y-7403315D01*
X12853798Y-7403315D02*
X12844274Y-7408077D01*
X12844274Y-7408077D02*
X12839512Y-7417601D01*
X12839512Y-7417601D02*
X12839512Y-7469982D01*
X12839512Y-7417601D02*
X12834750Y-7408077D01*
X12834750Y-7408077D02*
X12825227Y-7403315D01*
X12825227Y-7403315D02*
X12810941Y-7403315D01*
X12810941Y-7403315D02*
X12801417Y-7408077D01*
X12801417Y-7408077D02*
X12796655Y-7417601D01*
X12796655Y-7417601D02*
X12796655Y-7469982D01*
X12710941Y-7465220D02*
X12720465Y-7469982D01*
X12720465Y-7469982D02*
X12739512Y-7469982D01*
X12739512Y-7469982D02*
X12749036Y-7465220D01*
X12749036Y-7465220D02*
X12753798Y-7455696D01*
X12753798Y-7455696D02*
X12753798Y-7417601D01*
X12753798Y-7417601D02*
X12749036Y-7408077D01*
X12749036Y-7408077D02*
X12739512Y-7403315D01*
X12739512Y-7403315D02*
X12720465Y-7403315D01*
X12720465Y-7403315D02*
X12710941Y-7408077D01*
X12710941Y-7408077D02*
X12706179Y-7417601D01*
X12706179Y-7417601D02*
X12706179Y-7427125D01*
X12706179Y-7427125D02*
X12753798Y-7436648D01*
X12663322Y-7469982D02*
X12663322Y-7403315D01*
X12663322Y-7422363D02*
X12658560Y-7412839D01*
X12658560Y-7412839D02*
X12653798Y-7408077D01*
X12653798Y-7408077D02*
X12644274Y-7403315D01*
X12644274Y-7403315D02*
X12634750Y-7403315D01*
X12529988Y-7379506D02*
X12525227Y-7374744D01*
X12525227Y-7374744D02*
X12515703Y-7369982D01*
X12515703Y-7369982D02*
X12491893Y-7369982D01*
X12491893Y-7369982D02*
X12482369Y-7374744D01*
X12482369Y-7374744D02*
X12477608Y-7379506D01*
X12477608Y-7379506D02*
X12472846Y-7389029D01*
X12472846Y-7389029D02*
X12472846Y-7398553D01*
X12472846Y-7398553D02*
X12477608Y-7412839D01*
X12477608Y-7412839D02*
X12534750Y-7469982D01*
X12534750Y-7469982D02*
X12472846Y-7469982D01*
X12425227Y-7465220D02*
X12425227Y-7469982D01*
X12425227Y-7469982D02*
X12429988Y-7479506D01*
X12429988Y-7479506D02*
X12434750Y-7484268D01*
X12306179Y-7469982D02*
X12306179Y-7403315D01*
X12306179Y-7422363D02*
X12301417Y-7412839D01*
X12301417Y-7412839D02*
X12296655Y-7408077D01*
X12296655Y-7408077D02*
X12287131Y-7403315D01*
X12287131Y-7403315D02*
X12277608Y-7403315D01*
X12206179Y-7465220D02*
X12215703Y-7469982D01*
X12215703Y-7469982D02*
X12234750Y-7469982D01*
X12234750Y-7469982D02*
X12244274Y-7465220D01*
X12244274Y-7465220D02*
X12249036Y-7455696D01*
X12249036Y-7455696D02*
X12249036Y-7417601D01*
X12249036Y-7417601D02*
X12244274Y-7408077D01*
X12244274Y-7408077D02*
X12234750Y-7403315D01*
X12234750Y-7403315D02*
X12215703Y-7403315D01*
X12215703Y-7403315D02*
X12206179Y-7408077D01*
X12206179Y-7408077D02*
X12201417Y-7417601D01*
X12201417Y-7417601D02*
X12201417Y-7427125D01*
X12201417Y-7427125D02*
X12249036Y-7436648D01*
X12168084Y-7403315D02*
X12144274Y-7469982D01*
X12144274Y-7469982D02*
X12120465Y-7403315D01*
X12082369Y-7460458D02*
X12077607Y-7465220D01*
X12077607Y-7465220D02*
X12082369Y-7469982D01*
X12082369Y-7469982D02*
X12087131Y-7465220D01*
X12087131Y-7465220D02*
X12082369Y-7460458D01*
X12082369Y-7460458D02*
X12082369Y-7469982D01*
X11915703Y-7469982D02*
X11915703Y-7417601D01*
X11915703Y-7417601D02*
X11920465Y-7408077D01*
X11920465Y-7408077D02*
X11929988Y-7403315D01*
X11929988Y-7403315D02*
X11949036Y-7403315D01*
X11949036Y-7403315D02*
X11958560Y-7408077D01*
X11915703Y-7465220D02*
X11925227Y-7469982D01*
X11925227Y-7469982D02*
X11949036Y-7469982D01*
X11949036Y-7469982D02*
X11958560Y-7465220D01*
X11958560Y-7465220D02*
X11963322Y-7455696D01*
X11963322Y-7455696D02*
X11963322Y-7446172D01*
X11963322Y-7446172D02*
X11958560Y-7436648D01*
X11958560Y-7436648D02*
X11949036Y-7431887D01*
X11949036Y-7431887D02*
X11925227Y-7431887D01*
X11925227Y-7431887D02*
X11915703Y-7427125D01*
X14068084Y-7540500D02*
X14063322Y-7535738D01*
X14063322Y-7535738D02*
X14053798Y-7530976D01*
X14053798Y-7530976D02*
X14029989Y-7530976D01*
X14029989Y-7530976D02*
X14020465Y-7535738D01*
X14020465Y-7535738D02*
X14015703Y-7540500D01*
X14015703Y-7540500D02*
X14010941Y-7550024D01*
X14010941Y-7550024D02*
X14010941Y-7559548D01*
X14010941Y-7559548D02*
X14015703Y-7573833D01*
X14015703Y-7573833D02*
X14072846Y-7630976D01*
X14072846Y-7630976D02*
X14010941Y-7630976D01*
X13949036Y-7530976D02*
X13939512Y-7530976D01*
X13939512Y-7530976D02*
X13929989Y-7535738D01*
X13929989Y-7535738D02*
X13925227Y-7540500D01*
X13925227Y-7540500D02*
X13920465Y-7550024D01*
X13920465Y-7550024D02*
X13915703Y-7569071D01*
X13915703Y-7569071D02*
X13915703Y-7592881D01*
X13915703Y-7592881D02*
X13920465Y-7611929D01*
X13920465Y-7611929D02*
X13925227Y-7621452D01*
X13925227Y-7621452D02*
X13929989Y-7626214D01*
X13929989Y-7626214D02*
X13939512Y-7630976D01*
X13939512Y-7630976D02*
X13949036Y-7630976D01*
X13949036Y-7630976D02*
X13958560Y-7626214D01*
X13958560Y-7626214D02*
X13963322Y-7621452D01*
X13963322Y-7621452D02*
X13968084Y-7611929D01*
X13968084Y-7611929D02*
X13972846Y-7592881D01*
X13972846Y-7592881D02*
X13972846Y-7569071D01*
X13972846Y-7569071D02*
X13968084Y-7550024D01*
X13968084Y-7550024D02*
X13963322Y-7540500D01*
X13963322Y-7540500D02*
X13958560Y-7535738D01*
X13958560Y-7535738D02*
X13949036Y-7530976D01*
X13877608Y-7540500D02*
X13872846Y-7535738D01*
X13872846Y-7535738D02*
X13863322Y-7530976D01*
X13863322Y-7530976D02*
X13839512Y-7530976D01*
X13839512Y-7530976D02*
X13829989Y-7535738D01*
X13829989Y-7535738D02*
X13825227Y-7540500D01*
X13825227Y-7540500D02*
X13820465Y-7550024D01*
X13820465Y-7550024D02*
X13820465Y-7559548D01*
X13820465Y-7559548D02*
X13825227Y-7573833D01*
X13825227Y-7573833D02*
X13882370Y-7630976D01*
X13882370Y-7630976D02*
X13820465Y-7630976D01*
X13729989Y-7530976D02*
X13777608Y-7530976D01*
X13777608Y-7530976D02*
X13782370Y-7578595D01*
X13782370Y-7578595D02*
X13777608Y-7573833D01*
X13777608Y-7573833D02*
X13768084Y-7569071D01*
X13768084Y-7569071D02*
X13744274Y-7569071D01*
X13744274Y-7569071D02*
X13734751Y-7573833D01*
X13734751Y-7573833D02*
X13729989Y-7578595D01*
X13729989Y-7578595D02*
X13725227Y-7588119D01*
X13725227Y-7588119D02*
X13725227Y-7611929D01*
X13725227Y-7611929D02*
X13729989Y-7621452D01*
X13729989Y-7621452D02*
X13734751Y-7626214D01*
X13734751Y-7626214D02*
X13744274Y-7630976D01*
X13744274Y-7630976D02*
X13768084Y-7630976D01*
X13768084Y-7630976D02*
X13777608Y-7626214D01*
X13777608Y-7626214D02*
X13782370Y-7621452D01*
X13549036Y-7621452D02*
X13553798Y-7626214D01*
X13553798Y-7626214D02*
X13568084Y-7630976D01*
X13568084Y-7630976D02*
X13577608Y-7630976D01*
X13577608Y-7630976D02*
X13591893Y-7626214D01*
X13591893Y-7626214D02*
X13601417Y-7616690D01*
X13601417Y-7616690D02*
X13606179Y-7607167D01*
X13606179Y-7607167D02*
X13610941Y-7588119D01*
X13610941Y-7588119D02*
X13610941Y-7573833D01*
X13610941Y-7573833D02*
X13606179Y-7554786D01*
X13606179Y-7554786D02*
X13601417Y-7545262D01*
X13601417Y-7545262D02*
X13591893Y-7535738D01*
X13591893Y-7535738D02*
X13577608Y-7530976D01*
X13577608Y-7530976D02*
X13568084Y-7530976D01*
X13568084Y-7530976D02*
X13553798Y-7535738D01*
X13553798Y-7535738D02*
X13549036Y-7540500D01*
X13463322Y-7564310D02*
X13463322Y-7630976D01*
X13506179Y-7564310D02*
X13506179Y-7616690D01*
X13506179Y-7616690D02*
X13501417Y-7626214D01*
X13501417Y-7626214D02*
X13491893Y-7630976D01*
X13491893Y-7630976D02*
X13477608Y-7630976D01*
X13477608Y-7630976D02*
X13468084Y-7626214D01*
X13468084Y-7626214D02*
X13463322Y-7621452D01*
X13415703Y-7630976D02*
X13415703Y-7564310D01*
X13415703Y-7583357D02*
X13410941Y-7573833D01*
X13410941Y-7573833D02*
X13406179Y-7569071D01*
X13406179Y-7569071D02*
X13396655Y-7564310D01*
X13396655Y-7564310D02*
X13387131Y-7564310D01*
X13353798Y-7630976D02*
X13353798Y-7564310D01*
X13353798Y-7583357D02*
X13349036Y-7573833D01*
X13349036Y-7573833D02*
X13344274Y-7569071D01*
X13344274Y-7569071D02*
X13334750Y-7564310D01*
X13334750Y-7564310D02*
X13325227Y-7564310D01*
X13253798Y-7626214D02*
X13263322Y-7630976D01*
X13263322Y-7630976D02*
X13282369Y-7630976D01*
X13282369Y-7630976D02*
X13291893Y-7626214D01*
X13291893Y-7626214D02*
X13296655Y-7616690D01*
X13296655Y-7616690D02*
X13296655Y-7578595D01*
X13296655Y-7578595D02*
X13291893Y-7569071D01*
X13291893Y-7569071D02*
X13282369Y-7564310D01*
X13282369Y-7564310D02*
X13263322Y-7564310D01*
X13263322Y-7564310D02*
X13253798Y-7569071D01*
X13253798Y-7569071D02*
X13249036Y-7578595D01*
X13249036Y-7578595D02*
X13249036Y-7588119D01*
X13249036Y-7588119D02*
X13296655Y-7597643D01*
X13206179Y-7564310D02*
X13206179Y-7630976D01*
X13206179Y-7573833D02*
X13201417Y-7569071D01*
X13201417Y-7569071D02*
X13191893Y-7564310D01*
X13191893Y-7564310D02*
X13177608Y-7564310D01*
X13177608Y-7564310D02*
X13168084Y-7569071D01*
X13168084Y-7569071D02*
X13163322Y-7578595D01*
X13163322Y-7578595D02*
X13163322Y-7630976D01*
X13129988Y-7564310D02*
X13091893Y-7564310D01*
X13115703Y-7530976D02*
X13115703Y-7616690D01*
X13115703Y-7616690D02*
X13110941Y-7626214D01*
X13110941Y-7626214D02*
X13101417Y-7630976D01*
X13101417Y-7630976D02*
X13091893Y-7630976D01*
X13058560Y-7630976D02*
X13058560Y-7530976D01*
X13058560Y-7530976D02*
X13025227Y-7602405D01*
X13025227Y-7602405D02*
X12991893Y-7530976D01*
X12991893Y-7530976D02*
X12991893Y-7630976D01*
X12901417Y-7630976D02*
X12901417Y-7578595D01*
X12901417Y-7578595D02*
X12906179Y-7569071D01*
X12906179Y-7569071D02*
X12915703Y-7564310D01*
X12915703Y-7564310D02*
X12934750Y-7564310D01*
X12934750Y-7564310D02*
X12944274Y-7569071D01*
X12901417Y-7626214D02*
X12910941Y-7630976D01*
X12910941Y-7630976D02*
X12934750Y-7630976D01*
X12934750Y-7630976D02*
X12944274Y-7626214D01*
X12944274Y-7626214D02*
X12949036Y-7616690D01*
X12949036Y-7616690D02*
X12949036Y-7607167D01*
X12949036Y-7607167D02*
X12944274Y-7597643D01*
X12944274Y-7597643D02*
X12934750Y-7592881D01*
X12934750Y-7592881D02*
X12910941Y-7592881D01*
X12910941Y-7592881D02*
X12901417Y-7588119D01*
X12853798Y-7630976D02*
X12853798Y-7530976D01*
X12844274Y-7592881D02*
X12815703Y-7630976D01*
X12815703Y-7564310D02*
X12853798Y-7602405D01*
X12734750Y-7626214D02*
X12744274Y-7630976D01*
X12744274Y-7630976D02*
X12763322Y-7630976D01*
X12763322Y-7630976D02*
X12772846Y-7626214D01*
X12772846Y-7626214D02*
X12777607Y-7616690D01*
X12777607Y-7616690D02*
X12777607Y-7578595D01*
X12777607Y-7578595D02*
X12772846Y-7569071D01*
X12772846Y-7569071D02*
X12763322Y-7564310D01*
X12763322Y-7564310D02*
X12744274Y-7564310D01*
X12744274Y-7564310D02*
X12734750Y-7569071D01*
X12734750Y-7569071D02*
X12729988Y-7578595D01*
X12729988Y-7578595D02*
X12729988Y-7588119D01*
X12729988Y-7588119D02*
X12777607Y-7597643D01*
X12687131Y-7630976D02*
X12687131Y-7564310D01*
X12687131Y-7583357D02*
X12682369Y-7573833D01*
X12682369Y-7573833D02*
X12677607Y-7569071D01*
X12677607Y-7569071D02*
X12668084Y-7564310D01*
X12668084Y-7564310D02*
X12658560Y-7564310D01*
X12629988Y-7626214D02*
X12620465Y-7630976D01*
X12620465Y-7630976D02*
X12601417Y-7630976D01*
X12601417Y-7630976D02*
X12591893Y-7626214D01*
X12591893Y-7626214D02*
X12587131Y-7616690D01*
X12587131Y-7616690D02*
X12587131Y-7611929D01*
X12587131Y-7611929D02*
X12591893Y-7602405D01*
X12591893Y-7602405D02*
X12601417Y-7597643D01*
X12601417Y-7597643D02*
X12615703Y-7597643D01*
X12615703Y-7597643D02*
X12625226Y-7592881D01*
X12625226Y-7592881D02*
X12629988Y-7583357D01*
X12629988Y-7583357D02*
X12629988Y-7578595D01*
X12629988Y-7578595D02*
X12625226Y-7569071D01*
X12625226Y-7569071D02*
X12615703Y-7564310D01*
X12615703Y-7564310D02*
X12601417Y-7564310D01*
X12601417Y-7564310D02*
X12591893Y-7569071D01*
X12544274Y-7621452D02*
X12539512Y-7626214D01*
X12539512Y-7626214D02*
X12544274Y-7630976D01*
X12544274Y-7630976D02*
X12549036Y-7626214D01*
X12549036Y-7626214D02*
X12544274Y-7621452D01*
X12544274Y-7621452D02*
X12544274Y-7630976D01*
X12453798Y-7626214D02*
X12463322Y-7630976D01*
X12463322Y-7630976D02*
X12482369Y-7630976D01*
X12482369Y-7630976D02*
X12491893Y-7626214D01*
X12491893Y-7626214D02*
X12496655Y-7621452D01*
X12496655Y-7621452D02*
X12501417Y-7611929D01*
X12501417Y-7611929D02*
X12501417Y-7583357D01*
X12501417Y-7583357D02*
X12496655Y-7573833D01*
X12496655Y-7573833D02*
X12491893Y-7569071D01*
X12491893Y-7569071D02*
X12482369Y-7564310D01*
X12482369Y-7564310D02*
X12463322Y-7564310D01*
X12463322Y-7564310D02*
X12453798Y-7569071D01*
X12396655Y-7630976D02*
X12406179Y-7626214D01*
X12406179Y-7626214D02*
X12410941Y-7621452D01*
X12410941Y-7621452D02*
X12415703Y-7611929D01*
X12415703Y-7611929D02*
X12415703Y-7583357D01*
X12415703Y-7583357D02*
X12410941Y-7573833D01*
X12410941Y-7573833D02*
X12406179Y-7569071D01*
X12406179Y-7569071D02*
X12396655Y-7564310D01*
X12396655Y-7564310D02*
X12382369Y-7564310D01*
X12382369Y-7564310D02*
X12372846Y-7569071D01*
X12372846Y-7569071D02*
X12368084Y-7573833D01*
X12368084Y-7573833D02*
X12363322Y-7583357D01*
X12363322Y-7583357D02*
X12363322Y-7611929D01*
X12363322Y-7611929D02*
X12368084Y-7621452D01*
X12368084Y-7621452D02*
X12372846Y-7626214D01*
X12372846Y-7626214D02*
X12382369Y-7630976D01*
X12382369Y-7630976D02*
X12396655Y-7630976D01*
X12320465Y-7630976D02*
X12320465Y-7564310D01*
X12320465Y-7573833D02*
X12315703Y-7569071D01*
X12315703Y-7569071D02*
X12306179Y-7564310D01*
X12306179Y-7564310D02*
X12291893Y-7564310D01*
X12291893Y-7564310D02*
X12282369Y-7569071D01*
X12282369Y-7569071D02*
X12277607Y-7578595D01*
X12277607Y-7578595D02*
X12277607Y-7630976D01*
X12277607Y-7578595D02*
X12272846Y-7569071D01*
X12272846Y-7569071D02*
X12263322Y-7564310D01*
X12263322Y-7564310D02*
X12249036Y-7564310D01*
X12249036Y-7564310D02*
X12239512Y-7569071D01*
X12239512Y-7569071D02*
X12234750Y-7578595D01*
X12234750Y-7578595D02*
X12234750Y-7630976D01*
M02*
