%TF.GenerationSoftware,KiCad,Pcbnew,9.0.4+dfsg-1*%
%TF.CreationDate,2025-09-23T10:19:51+08:00*%
%TF.ProjectId,stlink,73746c69-6e6b-42e6-9b69-6361645f7063,a*%
%TF.SameCoordinates,Original*%
%TF.FileFunction,Copper,L4,Bot*%
%TF.FilePolarity,Positive*%
%FSLAX45Y45*%
G04 Gerber Fmt 4.5, Leading zero omitted, Abs format (unit mm)*
G04 Created by KiCad (PCBNEW 9.0.4+dfsg-1) date 2025-09-23 10:19:51*
%MOMM*%
%LPD*%
G01*
G04 APERTURE LIST*
%TA.AperFunction,ComponentPad*%
%ADD10R,1.700000X1.700000*%
%TD*%
%TA.AperFunction,ComponentPad*%
%ADD11C,1.700000*%
%TD*%
%TA.AperFunction,ComponentPad*%
%ADD12O,2.100000X1.000000*%
%TD*%
%TA.AperFunction,ComponentPad*%
%ADD13O,1.600000X1.000000*%
%TD*%
%TA.AperFunction,ViaPad*%
%ADD14C,0.600000*%
%TD*%
%TA.AperFunction,Conductor*%
%ADD15C,0.228600*%
%TD*%
G04 APERTURE END LIST*
D10*
%TO.P,J3,1,Pin_1*%
%TO.N,GND*%
X10858500Y-10350000D03*
D11*
%TO.P,J3,2,Pin_2*%
%TO.N,DIO*%
X11112500Y-10350000D03*
%TO.P,J3,3,Pin_3*%
%TO.N,CLK*%
X11366500Y-10350000D03*
%TO.P,J3,4,Pin_4*%
%TO.N,+3V3*%
X11620500Y-10350000D03*
%TO.P,J3,5,Pin_5*%
%TO.N,B0*%
X11874500Y-10350000D03*
%TD*%
D12*
%TO.P,J1,S1,SHIELD*%
%TO.N,unconnected-(J1-SHIELD-PadS1)*%
X10831000Y-8458000D03*
D13*
%TO.N,unconnected-(J1-SHIELD-PadS1)_2*%
X10413000Y-8458000D03*
D12*
%TO.N,unconnected-(J1-SHIELD-PadS1)_3*%
X10831000Y-9322000D03*
D13*
%TO.N,unconnected-(J1-SHIELD-PadS1)_1*%
X10413000Y-9322000D03*
%TD*%
D14*
%TO.N,GND*%
X12065000Y-8255000D03*
X10287000Y-7937500D03*
X10287000Y-8191500D03*
X10731500Y-7620000D03*
X14414500Y-8001000D03*
X10731500Y-9842500D03*
X12319000Y-8636000D03*
X11430000Y-8001000D03*
X10287000Y-8890000D03*
X12890500Y-7493000D03*
X14414500Y-9779000D03*
X12890500Y-8255000D03*
X12547600Y-9601200D03*
X12382500Y-10414000D03*
X10731500Y-7493000D03*
X11493500Y-9207500D03*
X11811000Y-9144000D03*
X11684000Y-9334500D03*
X12700000Y-7493000D03*
X12192000Y-10414000D03*
X11430000Y-7620000D03*
X14160500Y-8509000D03*
X14414500Y-8128000D03*
X10604500Y-10096500D03*
X13081000Y-7493000D03*
X10731500Y-8953500D03*
X11049000Y-9588500D03*
X12573000Y-10414000D03*
X10287000Y-9017000D03*
X12319000Y-9461500D03*
X13208000Y-8128000D03*
X12763500Y-10414000D03*
X12890500Y-9334500D03*
X11176000Y-8890000D03*
X14414500Y-9652000D03*
X11430000Y-7874000D03*
X13208000Y-8001000D03*
X10287000Y-8763000D03*
X10731500Y-8826500D03*
X14160500Y-8763000D03*
X14414500Y-7874000D03*
X11430000Y-7493000D03*
X12890500Y-8572500D03*
X11430000Y-8255000D03*
%TO.N,+5V*%
X11112500Y-8318500D03*
X11239500Y-9842500D03*
%TO.N,+3V3*%
X12636500Y-8191500D03*
X12890500Y-8445500D03*
X11684000Y-7747000D03*
X12446000Y-9271000D03*
X11684000Y-8445500D03*
X11684000Y-7874000D03*
X11607800Y-9245600D03*
X11684000Y-7493000D03*
X10731500Y-9652000D03*
X12636500Y-7683500D03*
X14160500Y-8255000D03*
X11684000Y-7620000D03*
X11049000Y-9715500D03*
X11684000Y-8001000D03*
%TO.N,LED*%
X10261600Y-10007600D03*
X11874500Y-8826500D03*
%TO.N,T_DIO*%
X13843000Y-8890000D03*
X12319000Y-8763000D03*
%TO.N,T_CLK*%
X12192000Y-8636000D03*
X13081000Y-8890000D03*
%TO.N,CLK*%
X11493500Y-10160000D03*
X11747500Y-9525000D03*
%TO.N,T_RX*%
X13779500Y-8382000D03*
X12382500Y-8318500D03*
%TO.N,T_TX*%
X13716000Y-8509000D03*
X12509500Y-8509000D03*
%TO.N,T_RST*%
X13843000Y-9144000D03*
X12065000Y-8636000D03*
%TO.N,T_SWO*%
X11874500Y-8953500D03*
X13081000Y-9144000D03*
%TO.N,DIO*%
X11239500Y-10160000D03*
X11430000Y-9080500D03*
%TD*%
D15*
%TO.N,+5V*%
X11239500Y-8445500D02*
X11112500Y-8318500D01*
X11239500Y-9842500D02*
X11239500Y-8445500D01*
%TO.N,LED*%
X11366500Y-9880600D02*
X11239500Y-10007600D01*
X11874500Y-8826500D02*
X11430000Y-8826500D01*
X11430000Y-8826500D02*
X11323250Y-8933250D01*
X11323250Y-9418250D02*
X11366500Y-9461500D01*
X11239500Y-10007600D02*
X10261600Y-10007600D01*
X11366500Y-9461500D02*
X11366500Y-9880600D01*
X11323250Y-8933250D02*
X11323250Y-9418250D01*
%TO.N,T_DIO*%
X13843000Y-8890000D02*
X13716000Y-8763000D01*
X13716000Y-8763000D02*
X12319000Y-8763000D01*
%TO.N,T_CLK*%
X13081000Y-8890000D02*
X12255500Y-8890000D01*
X12255500Y-8890000D02*
X12192000Y-8826500D01*
X12192000Y-8826500D02*
X12192000Y-8636000D01*
%TO.N,CLK*%
X11493500Y-10160000D02*
X11493500Y-10096500D01*
X11747500Y-9842500D02*
X11747500Y-9525000D01*
X11493500Y-10096500D02*
X11747500Y-9842500D01*
%TO.N,T_RX*%
X12446000Y-8382000D02*
X12382500Y-8318500D01*
X13779500Y-8382000D02*
X12446000Y-8382000D01*
%TO.N,T_TX*%
X13716000Y-8509000D02*
X12509500Y-8509000D01*
%TO.N,T_RST*%
X13112679Y-9048821D02*
X13207859Y-9144000D01*
X12065000Y-8953500D02*
X12160321Y-9048821D01*
X12065000Y-8636000D02*
X12065000Y-8953500D01*
X12160321Y-9048821D02*
X13112679Y-9048821D01*
X13207859Y-9144000D02*
X13843000Y-9144000D01*
%TO.N,T_SWO*%
X12065000Y-9144000D02*
X11874500Y-8953500D01*
X13081000Y-9144000D02*
X12065000Y-9144000D01*
%TO.N,DIO*%
X11557000Y-9842500D02*
X11557000Y-9398000D01*
X11430000Y-9271000D02*
X11430000Y-9080500D01*
X11557000Y-9398000D02*
X11430000Y-9271000D01*
X11239500Y-10160000D02*
X11557000Y-9842500D01*
%TD*%
%TA.AperFunction,Conductor*%
%TO.N,+3V3*%
G36*
X12189314Y-7304259D02*
G01*
X12191886Y-7308714D01*
X12192000Y-7310020D01*
X12192000Y-8120480D01*
X12190241Y-8125314D01*
X12185786Y-8127886D01*
X12184480Y-8128000D01*
X11564520Y-8128000D01*
X11559686Y-8126241D01*
X11557114Y-8121786D01*
X11557000Y-8120480D01*
X11557000Y-7310020D01*
X11558759Y-7305186D01*
X11563214Y-7302614D01*
X11564520Y-7302500D01*
X12184480Y-7302500D01*
X12189314Y-7304259D01*
G37*
%TD.AperFunction*%
%TD*%
%TA.AperFunction,Conductor*%
%TO.N,GND*%
G36*
X14351226Y-7241564D02*
G01*
X14353926Y-7241727D01*
X14380856Y-7243356D01*
X14381756Y-7243465D01*
X14410729Y-7248775D01*
X14411609Y-7248992D01*
X14439731Y-7257755D01*
X14440580Y-7258077D01*
X14467440Y-7270165D01*
X14468244Y-7270587D01*
X14493451Y-7285826D01*
X14494198Y-7286341D01*
X14517384Y-7304507D01*
X14518064Y-7305109D01*
X14538891Y-7325936D01*
X14539493Y-7326616D01*
X14557658Y-7349802D01*
X14558174Y-7350549D01*
X14573413Y-7375756D01*
X14573835Y-7376560D01*
X14585923Y-7403420D01*
X14586245Y-7404269D01*
X14595008Y-7432390D01*
X14595225Y-7433272D01*
X14600534Y-7462243D01*
X14600644Y-7463145D01*
X14602436Y-7492773D01*
X14602450Y-7493228D01*
X14602450Y-10286772D01*
X14602436Y-10287226D01*
X14600644Y-10316855D01*
X14600534Y-10317757D01*
X14595225Y-10346728D01*
X14595008Y-10347610D01*
X14586245Y-10375731D01*
X14585923Y-10376580D01*
X14573835Y-10403440D01*
X14573413Y-10404244D01*
X14558174Y-10429451D01*
X14557658Y-10430198D01*
X14539493Y-10453384D01*
X14538891Y-10454064D01*
X14518064Y-10474891D01*
X14517384Y-10475493D01*
X14494198Y-10493658D01*
X14493451Y-10494174D01*
X14468244Y-10509413D01*
X14467440Y-10509835D01*
X14440580Y-10521923D01*
X14439731Y-10522245D01*
X14411610Y-10531008D01*
X14410728Y-10531225D01*
X14381757Y-10536535D01*
X14380855Y-10536644D01*
X14351226Y-10538436D01*
X14350772Y-10538450D01*
X10414228Y-10538450D01*
X10413774Y-10538436D01*
X10384145Y-10536644D01*
X10383243Y-10536535D01*
X10354272Y-10531225D01*
X10353390Y-10531008D01*
X10325269Y-10522245D01*
X10324420Y-10521923D01*
X10297560Y-10509835D01*
X10296756Y-10509413D01*
X10271549Y-10494174D01*
X10270802Y-10493658D01*
X10247616Y-10475493D01*
X10246936Y-10474891D01*
X10226109Y-10454064D01*
X10225507Y-10453384D01*
X10207342Y-10430198D01*
X10206826Y-10429451D01*
X10197444Y-10413931D01*
X10191587Y-10404243D01*
X10191165Y-10403440D01*
X10179077Y-10376580D01*
X10178755Y-10375731D01*
X10176540Y-10368622D01*
X10169992Y-10347609D01*
X10169775Y-10346729D01*
X10164465Y-10317756D01*
X10164356Y-10316856D01*
X10162564Y-10287226D01*
X10162550Y-10286772D01*
X10162550Y-10277139D01*
X10288710Y-10277139D01*
X10288710Y-10296861D01*
X10291795Y-10316339D01*
X10291795Y-10316340D01*
X10297889Y-10335095D01*
X10306842Y-10352666D01*
X10318434Y-10368621D01*
X10318435Y-10368622D01*
X10332378Y-10382565D01*
X10332379Y-10382566D01*
X10332379Y-10382566D01*
X10336187Y-10385332D01*
X10348334Y-10394158D01*
X10365905Y-10403111D01*
X10384660Y-10409205D01*
X10384661Y-10409205D01*
X10384661Y-10409205D01*
X10404140Y-10412290D01*
X10404140Y-10412290D01*
X10423860Y-10412290D01*
X10423861Y-10412290D01*
X10443339Y-10409205D01*
X10443339Y-10409205D01*
X10443340Y-10409205D01*
X10457116Y-10404729D01*
X10462095Y-10403111D01*
X10479666Y-10394158D01*
X10495621Y-10382566D01*
X10509566Y-10368621D01*
X10521158Y-10352666D01*
X10530111Y-10335095D01*
X10534773Y-10320746D01*
X10536205Y-10316340D01*
X10536205Y-10316339D01*
X10536205Y-10316339D01*
X10539290Y-10296861D01*
X10539290Y-10277140D01*
X10537130Y-10263499D01*
X10758260Y-10263499D01*
X10758260Y-10334760D01*
X10810820Y-10334760D01*
X10808500Y-10343417D01*
X10808500Y-10356583D01*
X10810820Y-10365240D01*
X10758260Y-10365240D01*
X10758260Y-10436501D01*
X10759144Y-10440946D01*
X10759144Y-10440946D01*
X10762513Y-10445987D01*
X10767554Y-10449356D01*
X10767554Y-10449356D01*
X10771999Y-10450240D01*
X10843260Y-10450240D01*
X10843260Y-10397680D01*
X10851917Y-10400000D01*
X10865083Y-10400000D01*
X10873740Y-10397680D01*
X10873740Y-10450240D01*
X10945001Y-10450240D01*
X10949446Y-10449356D01*
X10949446Y-10449356D01*
X10954487Y-10445987D01*
X10957856Y-10440946D01*
X10957856Y-10440946D01*
X10958740Y-10436501D01*
X10958740Y-10365240D01*
X10906180Y-10365240D01*
X10908500Y-10356583D01*
X10908500Y-10343417D01*
X10907617Y-10340122D01*
X11012210Y-10340122D01*
X11012210Y-10359878D01*
X11016064Y-10379254D01*
X11016064Y-10379254D01*
X11023624Y-10397505D01*
X11034600Y-10413931D01*
X11034600Y-10413931D01*
X11034600Y-10413932D01*
X11048568Y-10427900D01*
X11048569Y-10427900D01*
X11048569Y-10427900D01*
X11064995Y-10438876D01*
X11083246Y-10446436D01*
X11083246Y-10446436D01*
X11083246Y-10446436D01*
X11083247Y-10446436D01*
X11096222Y-10449017D01*
X11102622Y-10450290D01*
X11102622Y-10450290D01*
X11122378Y-10450290D01*
X11127189Y-10449333D01*
X11141754Y-10446436D01*
X11160005Y-10438876D01*
X11176431Y-10427900D01*
X11190400Y-10413931D01*
X11201376Y-10397505D01*
X11208936Y-10379254D01*
X11212790Y-10359878D01*
X11212790Y-10340122D01*
X11212790Y-10340122D01*
X11266210Y-10340122D01*
X11266210Y-10359878D01*
X11270064Y-10379254D01*
X11270064Y-10379254D01*
X11277624Y-10397505D01*
X11288600Y-10413931D01*
X11288600Y-10413931D01*
X11288600Y-10413932D01*
X11302568Y-10427900D01*
X11302568Y-10427900D01*
X11302569Y-10427900D01*
X11318995Y-10438876D01*
X11337246Y-10446436D01*
X11337246Y-10446436D01*
X11337246Y-10446436D01*
X11337246Y-10446436D01*
X11350222Y-10449017D01*
X11356622Y-10450290D01*
X11356622Y-10450290D01*
X11376378Y-10450290D01*
X11381189Y-10449333D01*
X11395753Y-10446436D01*
X11414005Y-10438876D01*
X11430431Y-10427900D01*
X11444400Y-10413931D01*
X11455376Y-10397505D01*
X11462936Y-10379254D01*
X11466790Y-10359878D01*
X11466790Y-10340122D01*
X11466790Y-10340122D01*
X11520210Y-10340122D01*
X11520210Y-10359878D01*
X11524064Y-10379254D01*
X11524064Y-10379254D01*
X11531624Y-10397505D01*
X11542600Y-10413931D01*
X11542600Y-10413931D01*
X11542600Y-10413932D01*
X11556568Y-10427900D01*
X11556568Y-10427900D01*
X11556569Y-10427900D01*
X11572995Y-10438876D01*
X11591246Y-10446436D01*
X11591246Y-10446436D01*
X11591246Y-10446436D01*
X11591246Y-10446436D01*
X11604222Y-10449017D01*
X11610622Y-10450290D01*
X11610622Y-10450290D01*
X11630378Y-10450290D01*
X11635189Y-10449333D01*
X11649753Y-10446436D01*
X11668005Y-10438876D01*
X11684431Y-10427900D01*
X11698400Y-10413931D01*
X11709376Y-10397505D01*
X11716936Y-10379254D01*
X11720790Y-10359878D01*
X11720790Y-10340122D01*
X11720790Y-10340122D01*
X11774210Y-10340122D01*
X11774210Y-10359878D01*
X11778064Y-10379254D01*
X11778064Y-10379254D01*
X11785624Y-10397505D01*
X11796600Y-10413931D01*
X11796600Y-10413931D01*
X11796600Y-10413932D01*
X11810568Y-10427900D01*
X11810568Y-10427900D01*
X11810569Y-10427900D01*
X11826995Y-10438876D01*
X11845246Y-10446436D01*
X11845246Y-10446436D01*
X11845246Y-10446436D01*
X11845246Y-10446436D01*
X11858222Y-10449017D01*
X11864622Y-10450290D01*
X11864622Y-10450290D01*
X11884378Y-10450290D01*
X11889189Y-10449333D01*
X11903753Y-10446436D01*
X11922005Y-10438876D01*
X11938431Y-10427900D01*
X11952400Y-10413931D01*
X11963376Y-10397505D01*
X11970936Y-10379254D01*
X11974790Y-10359878D01*
X11974790Y-10340122D01*
X11970936Y-10320747D01*
X11963376Y-10302495D01*
X11952400Y-10286069D01*
X11952400Y-10286069D01*
X11952400Y-10286068D01*
X11943471Y-10277139D01*
X14225710Y-10277139D01*
X14225710Y-10296861D01*
X14228795Y-10316339D01*
X14228795Y-10316340D01*
X14234889Y-10335095D01*
X14243842Y-10352666D01*
X14255434Y-10368621D01*
X14255435Y-10368622D01*
X14269378Y-10382565D01*
X14269379Y-10382566D01*
X14269379Y-10382566D01*
X14273187Y-10385332D01*
X14285333Y-10394158D01*
X14302905Y-10403111D01*
X14321660Y-10409205D01*
X14321661Y-10409205D01*
X14321661Y-10409205D01*
X14341139Y-10412290D01*
X14341140Y-10412290D01*
X14360860Y-10412290D01*
X14360860Y-10412290D01*
X14380339Y-10409205D01*
X14380339Y-10409205D01*
X14380340Y-10409205D01*
X14394116Y-10404729D01*
X14399095Y-10403111D01*
X14416666Y-10394158D01*
X14432621Y-10382566D01*
X14446566Y-10368621D01*
X14458158Y-10352666D01*
X14467111Y-10335095D01*
X14471773Y-10320746D01*
X14473205Y-10316340D01*
X14473205Y-10316339D01*
X14473205Y-10316339D01*
X14476290Y-10296861D01*
X14476290Y-10277140D01*
X14473205Y-10257661D01*
X14473205Y-10257661D01*
X14473205Y-10257660D01*
X14467111Y-10238905D01*
X14458157Y-10221334D01*
X14452905Y-10214105D01*
X14446566Y-10205379D01*
X14446566Y-10205379D01*
X14446565Y-10205378D01*
X14432622Y-10191435D01*
X14432621Y-10191434D01*
X14416666Y-10179842D01*
X14399095Y-10170889D01*
X14380340Y-10164795D01*
X14380338Y-10164795D01*
X14360861Y-10161710D01*
X14360860Y-10161710D01*
X14341139Y-10161710D01*
X14341139Y-10161710D01*
X14321661Y-10164795D01*
X14321660Y-10164795D01*
X14302905Y-10170889D01*
X14285333Y-10179842D01*
X14269379Y-10191434D01*
X14269378Y-10191435D01*
X14255435Y-10205378D01*
X14255434Y-10205379D01*
X14243842Y-10221334D01*
X14234889Y-10238905D01*
X14228795Y-10257660D01*
X14228795Y-10257661D01*
X14225710Y-10277139D01*
X11943471Y-10277139D01*
X11938432Y-10272100D01*
X11938431Y-10272100D01*
X11938431Y-10272100D01*
X11922005Y-10261124D01*
X11917006Y-10259054D01*
X11903754Y-10253564D01*
X11903754Y-10253564D01*
X11884378Y-10249710D01*
X11884378Y-10249710D01*
X11864622Y-10249710D01*
X11864622Y-10249710D01*
X11845246Y-10253564D01*
X11845246Y-10253564D01*
X11826995Y-10261124D01*
X11810568Y-10272100D01*
X11796600Y-10286068D01*
X11785624Y-10302495D01*
X11778064Y-10320746D01*
X11778064Y-10320746D01*
X11774210Y-10340122D01*
X11720790Y-10340122D01*
X11716936Y-10320747D01*
X11709376Y-10302495D01*
X11698400Y-10286069D01*
X11698400Y-10286069D01*
X11698400Y-10286068D01*
X11684432Y-10272100D01*
X11684431Y-10272100D01*
X11684431Y-10272100D01*
X11668005Y-10261124D01*
X11663006Y-10259054D01*
X11649754Y-10253564D01*
X11649754Y-10253564D01*
X11630378Y-10249710D01*
X11630378Y-10249710D01*
X11610622Y-10249710D01*
X11610622Y-10249710D01*
X11591246Y-10253564D01*
X11591246Y-10253564D01*
X11572995Y-10261124D01*
X11556568Y-10272100D01*
X11542600Y-10286068D01*
X11531624Y-10302495D01*
X11524064Y-10320746D01*
X11524064Y-10320746D01*
X11520210Y-10340122D01*
X11466790Y-10340122D01*
X11462936Y-10320747D01*
X11455376Y-10302495D01*
X11444400Y-10286069D01*
X11444400Y-10286069D01*
X11444400Y-10286068D01*
X11430432Y-10272100D01*
X11430431Y-10272100D01*
X11430431Y-10272100D01*
X11414005Y-10261124D01*
X11409006Y-10259054D01*
X11395754Y-10253564D01*
X11395754Y-10253564D01*
X11376378Y-10249710D01*
X11376378Y-10249710D01*
X11356622Y-10249710D01*
X11356622Y-10249710D01*
X11337246Y-10253564D01*
X11337246Y-10253564D01*
X11318995Y-10261124D01*
X11302568Y-10272100D01*
X11288600Y-10286068D01*
X11277624Y-10302495D01*
X11270064Y-10320746D01*
X11270064Y-10320746D01*
X11266210Y-10340122D01*
X11212790Y-10340122D01*
X11208936Y-10320747D01*
X11201376Y-10302495D01*
X11190400Y-10286069D01*
X11190400Y-10286069D01*
X11190400Y-10286068D01*
X11176432Y-10272100D01*
X11176431Y-10272100D01*
X11176431Y-10272100D01*
X11160005Y-10261124D01*
X11155006Y-10259054D01*
X11141754Y-10253564D01*
X11141754Y-10253564D01*
X11122378Y-10249710D01*
X11122378Y-10249710D01*
X11102622Y-10249710D01*
X11102622Y-10249710D01*
X11083246Y-10253564D01*
X11083246Y-10253564D01*
X11064995Y-10261124D01*
X11048568Y-10272100D01*
X11034600Y-10286068D01*
X11023624Y-10302495D01*
X11016064Y-10320746D01*
X11016064Y-10320746D01*
X11012210Y-10340122D01*
X10907617Y-10340122D01*
X10906180Y-10334760D01*
X10958740Y-10334760D01*
X10958740Y-10263499D01*
X10957856Y-10259054D01*
X10957856Y-10259054D01*
X10954487Y-10254013D01*
X10949446Y-10250644D01*
X10949446Y-10250644D01*
X10945001Y-10249760D01*
X10873740Y-10249760D01*
X10873740Y-10302320D01*
X10865083Y-10300000D01*
X10851917Y-10300000D01*
X10843260Y-10302320D01*
X10843260Y-10249760D01*
X10771999Y-10249760D01*
X10767554Y-10250644D01*
X10767554Y-10250644D01*
X10762513Y-10254013D01*
X10759144Y-10259054D01*
X10759144Y-10259054D01*
X10758260Y-10263499D01*
X10537130Y-10263499D01*
X10536205Y-10257661D01*
X10536205Y-10257661D01*
X10536205Y-10257660D01*
X10530111Y-10238905D01*
X10521158Y-10221334D01*
X10515905Y-10214105D01*
X10509566Y-10205379D01*
X10509566Y-10205379D01*
X10509565Y-10205378D01*
X10495622Y-10191435D01*
X10495621Y-10191434D01*
X10479666Y-10179842D01*
X10462095Y-10170889D01*
X10443340Y-10164795D01*
X10443339Y-10164795D01*
X10423861Y-10161710D01*
X10423861Y-10161710D01*
X10404140Y-10161710D01*
X10404139Y-10161710D01*
X10384661Y-10164795D01*
X10384660Y-10164795D01*
X10365905Y-10170889D01*
X10348334Y-10179842D01*
X10332379Y-10191434D01*
X10332378Y-10191435D01*
X10318435Y-10205378D01*
X10318434Y-10205379D01*
X10306842Y-10221334D01*
X10297889Y-10238905D01*
X10291795Y-10257660D01*
X10291795Y-10257661D01*
X10288710Y-10277139D01*
X10162550Y-10277139D01*
X10162550Y-10154038D01*
X11194210Y-10154038D01*
X11194210Y-10165963D01*
X11195530Y-10170889D01*
X11197296Y-10177481D01*
X11197296Y-10177481D01*
X11203259Y-10187809D01*
X11211691Y-10196241D01*
X11217654Y-10199683D01*
X11222019Y-10202204D01*
X11233537Y-10205290D01*
X11233538Y-10205290D01*
X11245462Y-10205290D01*
X11245462Y-10205290D01*
X11256981Y-10202204D01*
X11267309Y-10196241D01*
X11275741Y-10187809D01*
X11281704Y-10177481D01*
X11284790Y-10165963D01*
X11284790Y-10155613D01*
X11285351Y-10154070D01*
X11285354Y-10154038D01*
X11448210Y-10154038D01*
X11448210Y-10165963D01*
X11449530Y-10170889D01*
X11451296Y-10177481D01*
X11451296Y-10177481D01*
X11457259Y-10187809D01*
X11465691Y-10196241D01*
X11471654Y-10199683D01*
X11476019Y-10202204D01*
X11487537Y-10205290D01*
X11487538Y-10205290D01*
X11499462Y-10205290D01*
X11499462Y-10205290D01*
X11510981Y-10202204D01*
X11521309Y-10196241D01*
X11529741Y-10187809D01*
X11535704Y-10177481D01*
X11538790Y-10165963D01*
X11538790Y-10154038D01*
X11535704Y-10142519D01*
X11535703Y-10142519D01*
X11529741Y-10132191D01*
X11522423Y-10124873D01*
X11521729Y-10123385D01*
X11520673Y-10122127D01*
X11520388Y-10120511D01*
X11520249Y-10120211D01*
X11520220Y-10119555D01*
X11520220Y-10110683D01*
X11521979Y-10105849D01*
X11522423Y-10105365D01*
X11770152Y-9857636D01*
X11770152Y-9857636D01*
X11774220Y-9847815D01*
X11774220Y-9837185D01*
X11774220Y-9565445D01*
X11775979Y-9560611D01*
X11776423Y-9560127D01*
X11783741Y-9552809D01*
X11789703Y-9542481D01*
X11789704Y-9542481D01*
X11792790Y-9530963D01*
X11792790Y-9519038D01*
X11789704Y-9507519D01*
X11789703Y-9507519D01*
X11783741Y-9497191D01*
X11775309Y-9488759D01*
X11764981Y-9482796D01*
X11753462Y-9479710D01*
X11741537Y-9479710D01*
X11732898Y-9482025D01*
X11730019Y-9482796D01*
X11730018Y-9482796D01*
X11719691Y-9488759D01*
X11711259Y-9497191D01*
X11705296Y-9507519D01*
X11705296Y-9507519D01*
X11705296Y-9507519D01*
X11702210Y-9519038D01*
X11702210Y-9530963D01*
X11705296Y-9542481D01*
X11705296Y-9542481D01*
X11711259Y-9552809D01*
X11718577Y-9560127D01*
X11720751Y-9564789D01*
X11720780Y-9565445D01*
X11720780Y-9828317D01*
X11719021Y-9833151D01*
X11718577Y-9833635D01*
X11478364Y-10073848D01*
X11474606Y-10077606D01*
X11470848Y-10081364D01*
X11466780Y-10091185D01*
X11466780Y-10119555D01*
X11465021Y-10124389D01*
X11464577Y-10124873D01*
X11457259Y-10132191D01*
X11451296Y-10142519D01*
X11451296Y-10142519D01*
X11451296Y-10142519D01*
X11448210Y-10154038D01*
X11285354Y-10154038D01*
X11285495Y-10152434D01*
X11286436Y-10151090D01*
X11286549Y-10150779D01*
X11286993Y-10150295D01*
X11289060Y-10148227D01*
X11579652Y-9857636D01*
X11579652Y-9857636D01*
X11579652Y-9857636D01*
X11583720Y-9847815D01*
X11583720Y-9837185D01*
X11583720Y-9392685D01*
X11579652Y-9382864D01*
X11572136Y-9375348D01*
X11458923Y-9262135D01*
X11456749Y-9257473D01*
X11456720Y-9256817D01*
X11456720Y-9239638D01*
X11562510Y-9239638D01*
X11562510Y-9251563D01*
X11564753Y-9259932D01*
X11565596Y-9263081D01*
X11565596Y-9263081D01*
X11571559Y-9273409D01*
X11579991Y-9281841D01*
X11585954Y-9285283D01*
X11590319Y-9287804D01*
X11601837Y-9290890D01*
X11601838Y-9290890D01*
X11613762Y-9290890D01*
X11613762Y-9290890D01*
X11625281Y-9287804D01*
X11635609Y-9281841D01*
X11644041Y-9273409D01*
X11648874Y-9265038D01*
X12400710Y-9265038D01*
X12400710Y-9276963D01*
X12402017Y-9281841D01*
X12403796Y-9288481D01*
X12403796Y-9288481D01*
X12409759Y-9298809D01*
X12418191Y-9307241D01*
X12424154Y-9310683D01*
X12428519Y-9313204D01*
X12440037Y-9316290D01*
X12440038Y-9316290D01*
X12451962Y-9316290D01*
X12451962Y-9316290D01*
X12463481Y-9313204D01*
X12473809Y-9307241D01*
X12482241Y-9298809D01*
X12488204Y-9288481D01*
X12491290Y-9276963D01*
X12491290Y-9265038D01*
X12488204Y-9253519D01*
X12487074Y-9251562D01*
X12482241Y-9243191D01*
X12473809Y-9234759D01*
X12463481Y-9228796D01*
X12460952Y-9228119D01*
X12451962Y-9225710D01*
X12440037Y-9225710D01*
X12431398Y-9228025D01*
X12428519Y-9228796D01*
X12428518Y-9228796D01*
X12418191Y-9234759D01*
X12409759Y-9243191D01*
X12403796Y-9253519D01*
X12403796Y-9253519D01*
X12403796Y-9253519D01*
X12400710Y-9265038D01*
X11648874Y-9265038D01*
X11650004Y-9263081D01*
X11653090Y-9251563D01*
X11653090Y-9239638D01*
X11650004Y-9228119D01*
X11648613Y-9225710D01*
X11644041Y-9217791D01*
X11635609Y-9209359D01*
X11625281Y-9203396D01*
X11613762Y-9200310D01*
X11601837Y-9200310D01*
X11593198Y-9202625D01*
X11590319Y-9203396D01*
X11590318Y-9203396D01*
X11579991Y-9209359D01*
X11571559Y-9217791D01*
X11565596Y-9228119D01*
X11565596Y-9228119D01*
X11565596Y-9228119D01*
X11562510Y-9239638D01*
X11456720Y-9239638D01*
X11456720Y-9120945D01*
X11458479Y-9116111D01*
X11458923Y-9115627D01*
X11466241Y-9108309D01*
X11470001Y-9101796D01*
X11472204Y-9097981D01*
X11475290Y-9086463D01*
X11475290Y-9074538D01*
X11472204Y-9063019D01*
X11472203Y-9063019D01*
X11466241Y-9052691D01*
X11457809Y-9044259D01*
X11447481Y-9038296D01*
X11435962Y-9035210D01*
X11424037Y-9035210D01*
X11415398Y-9037525D01*
X11412519Y-9038296D01*
X11412518Y-9038296D01*
X11402191Y-9044259D01*
X11393759Y-9052691D01*
X11387796Y-9063019D01*
X11387796Y-9063019D01*
X11387796Y-9063019D01*
X11384710Y-9074538D01*
X11384710Y-9086463D01*
X11387796Y-9097981D01*
X11387796Y-9097981D01*
X11393759Y-9108309D01*
X11401077Y-9115627D01*
X11403251Y-9120289D01*
X11403280Y-9120945D01*
X11403280Y-9265685D01*
X11403280Y-9276315D01*
X11404964Y-9280380D01*
X11407348Y-9286136D01*
X11528077Y-9406865D01*
X11530251Y-9411527D01*
X11530280Y-9412183D01*
X11530280Y-9828317D01*
X11528521Y-9833151D01*
X11528077Y-9833635D01*
X11249205Y-10112507D01*
X11244543Y-10114681D01*
X11243887Y-10114710D01*
X11233537Y-10114710D01*
X11224898Y-10117025D01*
X11222019Y-10117796D01*
X11222018Y-10117796D01*
X11211691Y-10123759D01*
X11203259Y-10132191D01*
X11197296Y-10142519D01*
X11197296Y-10142519D01*
X11197296Y-10142519D01*
X11194210Y-10154038D01*
X10162550Y-10154038D01*
X10162550Y-10001638D01*
X10216310Y-10001638D01*
X10216310Y-10013563D01*
X10219396Y-10025081D01*
X10219396Y-10025081D01*
X10225359Y-10035409D01*
X10233791Y-10043841D01*
X10239754Y-10047283D01*
X10244119Y-10049804D01*
X10255638Y-10052890D01*
X10255638Y-10052890D01*
X10267562Y-10052890D01*
X10267563Y-10052890D01*
X10279081Y-10049804D01*
X10289409Y-10043841D01*
X10296727Y-10036523D01*
X10301389Y-10034349D01*
X10302045Y-10034320D01*
X11244815Y-10034320D01*
X11244815Y-10034320D01*
X11254636Y-10030252D01*
X11389152Y-9895736D01*
X11393220Y-9885915D01*
X11393220Y-9875285D01*
X11393220Y-9456185D01*
X11389152Y-9446364D01*
X11381636Y-9438848D01*
X11352173Y-9409385D01*
X11349999Y-9404723D01*
X11349970Y-9404067D01*
X11349970Y-8947538D01*
X11829210Y-8947538D01*
X11829210Y-8959463D01*
X11831668Y-8968636D01*
X11832296Y-8970981D01*
X11832296Y-8970981D01*
X11838259Y-8981309D01*
X11846691Y-8989741D01*
X11852654Y-8993183D01*
X11857019Y-8995704D01*
X11868537Y-8998790D01*
X11868538Y-8998790D01*
X11878887Y-8998790D01*
X11883721Y-9000549D01*
X11884205Y-9000993D01*
X12042348Y-9159136D01*
X12049864Y-9166652D01*
X12059685Y-9170720D01*
X13040555Y-9170720D01*
X13045389Y-9172479D01*
X13045873Y-9172923D01*
X13053191Y-9180241D01*
X13059154Y-9183683D01*
X13063519Y-9186204D01*
X13075037Y-9189290D01*
X13075038Y-9189290D01*
X13086962Y-9189290D01*
X13086962Y-9189290D01*
X13098481Y-9186204D01*
X13108809Y-9180241D01*
X13117241Y-9171809D01*
X13123204Y-9161481D01*
X13126290Y-9149963D01*
X13126290Y-9138038D01*
X13123204Y-9126519D01*
X13119607Y-9120289D01*
X13117241Y-9116191D01*
X13108809Y-9107759D01*
X13098481Y-9101796D01*
X13086962Y-9098710D01*
X13075037Y-9098710D01*
X13066398Y-9101025D01*
X13063519Y-9101796D01*
X13063518Y-9101796D01*
X13053191Y-9107759D01*
X13045873Y-9115077D01*
X13041211Y-9117251D01*
X13040555Y-9117280D01*
X12079183Y-9117280D01*
X12074349Y-9115521D01*
X12073865Y-9115077D01*
X11921993Y-8963205D01*
X11919819Y-8958543D01*
X11919790Y-8957887D01*
X11919790Y-8947538D01*
X11919790Y-8947538D01*
X11916704Y-8936019D01*
X11916283Y-8935290D01*
X11910741Y-8925691D01*
X11902309Y-8917259D01*
X11891981Y-8911296D01*
X11880462Y-8908210D01*
X11868537Y-8908210D01*
X11859898Y-8910525D01*
X11857019Y-8911296D01*
X11857018Y-8911296D01*
X11846691Y-8917259D01*
X11838259Y-8925691D01*
X11832296Y-8936019D01*
X11832296Y-8936019D01*
X11832296Y-8936019D01*
X11829210Y-8947538D01*
X11349970Y-8947538D01*
X11349970Y-8947433D01*
X11350531Y-8945890D01*
X11350675Y-8944255D01*
X11351616Y-8942910D01*
X11351729Y-8942599D01*
X11352173Y-8942115D01*
X11438865Y-8855423D01*
X11443527Y-8853249D01*
X11444183Y-8853220D01*
X11834055Y-8853220D01*
X11838889Y-8854979D01*
X11839373Y-8855423D01*
X11846691Y-8862741D01*
X11852654Y-8866183D01*
X11857019Y-8868704D01*
X11868537Y-8871790D01*
X11868538Y-8871790D01*
X11880462Y-8871790D01*
X11880462Y-8871790D01*
X11891981Y-8868704D01*
X11902309Y-8862741D01*
X11910741Y-8854309D01*
X11916704Y-8843981D01*
X11919790Y-8832463D01*
X11919790Y-8820538D01*
X11916704Y-8809019D01*
X11916283Y-8808290D01*
X11910741Y-8798691D01*
X11902309Y-8790259D01*
X11891981Y-8784296D01*
X11880462Y-8781210D01*
X11868537Y-8781210D01*
X11859898Y-8783525D01*
X11857019Y-8784296D01*
X11857018Y-8784296D01*
X11846691Y-8790259D01*
X11839373Y-8797577D01*
X11834711Y-8799751D01*
X11834055Y-8799780D01*
X11435315Y-8799780D01*
X11424685Y-8799780D01*
X11418492Y-8802345D01*
X11414864Y-8803848D01*
X11334675Y-8884038D01*
X11308114Y-8910598D01*
X11306060Y-8912652D01*
X11300598Y-8918114D01*
X11300598Y-8918114D01*
X11296530Y-8927935D01*
X11296530Y-9412935D01*
X11296530Y-9423565D01*
X11300598Y-9433386D01*
X11337577Y-9470365D01*
X11339751Y-9475027D01*
X11339780Y-9475683D01*
X11339780Y-9866417D01*
X11338021Y-9871251D01*
X11337577Y-9871735D01*
X11230635Y-9978677D01*
X11225973Y-9980851D01*
X11225317Y-9980880D01*
X10302045Y-9980880D01*
X10297211Y-9979121D01*
X10296727Y-9978677D01*
X10289409Y-9971359D01*
X10279081Y-9965396D01*
X10267563Y-9962310D01*
X10255638Y-9962310D01*
X10246998Y-9964625D01*
X10244119Y-9965396D01*
X10244119Y-9965396D01*
X10233791Y-9971359D01*
X10225359Y-9979791D01*
X10219396Y-9990119D01*
X10219396Y-9990119D01*
X10219396Y-9990119D01*
X10216310Y-10001638D01*
X10162550Y-10001638D01*
X10162550Y-9709538D01*
X11003710Y-9709538D01*
X11003710Y-9721463D01*
X11006796Y-9732981D01*
X11006796Y-9732981D01*
X11012759Y-9743309D01*
X11021191Y-9751741D01*
X11027154Y-9755183D01*
X11031519Y-9757704D01*
X11043038Y-9760790D01*
X11043038Y-9760790D01*
X11054962Y-9760790D01*
X11054963Y-9760790D01*
X11066481Y-9757704D01*
X11076809Y-9751741D01*
X11085241Y-9743309D01*
X11091204Y-9732981D01*
X11094290Y-9721463D01*
X11094290Y-9709538D01*
X11091204Y-9698019D01*
X11090783Y-9697290D01*
X11085241Y-9687691D01*
X11076809Y-9679259D01*
X11066481Y-9673296D01*
X11054963Y-9670210D01*
X11043038Y-9670210D01*
X11034398Y-9672525D01*
X11031519Y-9673296D01*
X11031519Y-9673296D01*
X11021191Y-9679259D01*
X11012759Y-9687691D01*
X11006796Y-9698019D01*
X11006796Y-9698019D01*
X11006796Y-9698019D01*
X11003710Y-9709538D01*
X10162550Y-9709538D01*
X10162550Y-9646038D01*
X10686210Y-9646038D01*
X10686210Y-9657963D01*
X10689296Y-9669481D01*
X10689296Y-9669481D01*
X10695259Y-9679809D01*
X10703691Y-9688241D01*
X10709654Y-9691683D01*
X10714019Y-9694204D01*
X10725538Y-9697290D01*
X10725538Y-9697290D01*
X10737462Y-9697290D01*
X10737463Y-9697290D01*
X10748981Y-9694204D01*
X10759309Y-9688241D01*
X10767741Y-9679809D01*
X10773704Y-9669481D01*
X10776790Y-9657963D01*
X10776790Y-9646038D01*
X10773704Y-9634519D01*
X10773704Y-9634519D01*
X10767741Y-9624191D01*
X10759309Y-9615759D01*
X10748981Y-9609796D01*
X10737463Y-9606710D01*
X10725538Y-9606710D01*
X10716898Y-9609025D01*
X10714019Y-9609796D01*
X10714019Y-9609796D01*
X10703691Y-9615759D01*
X10695259Y-9624191D01*
X10689296Y-9634519D01*
X10689296Y-9634519D01*
X10689296Y-9634519D01*
X10686210Y-9646038D01*
X10162550Y-9646038D01*
X10162550Y-9315570D01*
X10317710Y-9315570D01*
X10317710Y-9328431D01*
X10320219Y-9341044D01*
X10325141Y-9352926D01*
X10332286Y-9363620D01*
X10332286Y-9363620D01*
X10332286Y-9363620D01*
X10341380Y-9372714D01*
X10341380Y-9372714D01*
X10341380Y-9372714D01*
X10352074Y-9379859D01*
X10363956Y-9384781D01*
X10371524Y-9386286D01*
X10376569Y-9387290D01*
X10376570Y-9387290D01*
X10449431Y-9387290D01*
X10453635Y-9386454D01*
X10462044Y-9384781D01*
X10473926Y-9379859D01*
X10484620Y-9372714D01*
X10493714Y-9363620D01*
X10500859Y-9352926D01*
X10505781Y-9341044D01*
X10508290Y-9328431D01*
X10508290Y-9315570D01*
X10710710Y-9315570D01*
X10710710Y-9328431D01*
X10713219Y-9341044D01*
X10718141Y-9352926D01*
X10725286Y-9363620D01*
X10725286Y-9363620D01*
X10725286Y-9363620D01*
X10734380Y-9372714D01*
X10734380Y-9372714D01*
X10734380Y-9372714D01*
X10745074Y-9379859D01*
X10756956Y-9384781D01*
X10764524Y-9386286D01*
X10769569Y-9387290D01*
X10769570Y-9387290D01*
X10892431Y-9387290D01*
X10896635Y-9386454D01*
X10905044Y-9384781D01*
X10916926Y-9379859D01*
X10927620Y-9372714D01*
X10936714Y-9363620D01*
X10943859Y-9352926D01*
X10948781Y-9341044D01*
X10951290Y-9328431D01*
X10951290Y-9315570D01*
X10948781Y-9302956D01*
X10943859Y-9291074D01*
X10936714Y-9280380D01*
X10936714Y-9280380D01*
X10936714Y-9280380D01*
X10927620Y-9271286D01*
X10927620Y-9271286D01*
X10927620Y-9271286D01*
X10916926Y-9264141D01*
X10914369Y-9263081D01*
X10912084Y-9262135D01*
X10905044Y-9259219D01*
X10905044Y-9259219D01*
X10905044Y-9259219D01*
X10892431Y-9256710D01*
X10892431Y-9256710D01*
X10769570Y-9256710D01*
X10769569Y-9256710D01*
X10756956Y-9259219D01*
X10756956Y-9259219D01*
X10745074Y-9264141D01*
X10734380Y-9271286D01*
X10734380Y-9271286D01*
X10725286Y-9280380D01*
X10725286Y-9280380D01*
X10718141Y-9291074D01*
X10713219Y-9302956D01*
X10713219Y-9302956D01*
X10711181Y-9313204D01*
X10710710Y-9315570D01*
X10508290Y-9315570D01*
X10505781Y-9302956D01*
X10500859Y-9291074D01*
X10493714Y-9280380D01*
X10493714Y-9280380D01*
X10493714Y-9280380D01*
X10484620Y-9271286D01*
X10484620Y-9271286D01*
X10484620Y-9271286D01*
X10473926Y-9264141D01*
X10471369Y-9263081D01*
X10469084Y-9262135D01*
X10462044Y-9259219D01*
X10462044Y-9259219D01*
X10462044Y-9259219D01*
X10449431Y-9256710D01*
X10449431Y-9256710D01*
X10376570Y-9256710D01*
X10376569Y-9256710D01*
X10363956Y-9259219D01*
X10363956Y-9259219D01*
X10352074Y-9264141D01*
X10341380Y-9271286D01*
X10341380Y-9271286D01*
X10332286Y-9280380D01*
X10332286Y-9280380D01*
X10325141Y-9291074D01*
X10320219Y-9302956D01*
X10320219Y-9302956D01*
X10318181Y-9313204D01*
X10317710Y-9315570D01*
X10162550Y-9315570D01*
X10162550Y-9172708D01*
X10730210Y-9172708D01*
X10730210Y-9185292D01*
X10733467Y-9197446D01*
X10733467Y-9197447D01*
X10739758Y-9208344D01*
X10748656Y-9217242D01*
X10759553Y-9223533D01*
X10759553Y-9223533D01*
X10759554Y-9223533D01*
X10771708Y-9226790D01*
X10771709Y-9226790D01*
X10784291Y-9226790D01*
X10784292Y-9226790D01*
X10796446Y-9223533D01*
X10807344Y-9217242D01*
X10816242Y-9208344D01*
X10822533Y-9197446D01*
X10825790Y-9185292D01*
X10825790Y-9172708D01*
X10822533Y-9160554D01*
X10822533Y-9160553D01*
X10822533Y-9160553D01*
X10816242Y-9149656D01*
X10807344Y-9140758D01*
X10796447Y-9134467D01*
X10796446Y-9134467D01*
X10796446Y-9134467D01*
X10784292Y-9131210D01*
X10771708Y-9131210D01*
X10759554Y-9134467D01*
X10759553Y-9134467D01*
X10748656Y-9140758D01*
X10739758Y-9149656D01*
X10733467Y-9160553D01*
X10733467Y-9160554D01*
X10730210Y-9172708D01*
X10162550Y-9172708D01*
X10162550Y-8594708D01*
X10730210Y-8594708D01*
X10730210Y-8607292D01*
X10733218Y-8618519D01*
X10733467Y-8619446D01*
X10733467Y-8619447D01*
X10739758Y-8630344D01*
X10748656Y-8639242D01*
X10759553Y-8645533D01*
X10759553Y-8645533D01*
X10759554Y-8645533D01*
X10771708Y-8648790D01*
X10771709Y-8648790D01*
X10784291Y-8648790D01*
X10784292Y-8648790D01*
X10796446Y-8645533D01*
X10807344Y-8639242D01*
X10816242Y-8630344D01*
X10822533Y-8619446D01*
X10825790Y-8607292D01*
X10825790Y-8594708D01*
X10822533Y-8582554D01*
X10822533Y-8582553D01*
X10822533Y-8582553D01*
X10816242Y-8571656D01*
X10807344Y-8562758D01*
X10796447Y-8556467D01*
X10796446Y-8556467D01*
X10796446Y-8556467D01*
X10784292Y-8553210D01*
X10771708Y-8553210D01*
X10759554Y-8556467D01*
X10759553Y-8556467D01*
X10748656Y-8562758D01*
X10739758Y-8571656D01*
X10733467Y-8582553D01*
X10733467Y-8582554D01*
X10730210Y-8594708D01*
X10162550Y-8594708D01*
X10162550Y-8451569D01*
X10317710Y-8451569D01*
X10317710Y-8464431D01*
X10319367Y-8472759D01*
X10320219Y-8477044D01*
X10321937Y-8481191D01*
X10324634Y-8487704D01*
X10325141Y-8488926D01*
X10332286Y-8499620D01*
X10332286Y-8499620D01*
X10332286Y-8499620D01*
X10341380Y-8508714D01*
X10341380Y-8508714D01*
X10341380Y-8508714D01*
X10352074Y-8515859D01*
X10363956Y-8520781D01*
X10371524Y-8522286D01*
X10376569Y-8523290D01*
X10376570Y-8523290D01*
X10449431Y-8523290D01*
X10453635Y-8522454D01*
X10462044Y-8520781D01*
X10473926Y-8515859D01*
X10484620Y-8508714D01*
X10493714Y-8499620D01*
X10500859Y-8488926D01*
X10505781Y-8477044D01*
X10508290Y-8464431D01*
X10508290Y-8451570D01*
X10508290Y-8451569D01*
X10710710Y-8451569D01*
X10710710Y-8464431D01*
X10712367Y-8472759D01*
X10713219Y-8477044D01*
X10714937Y-8481191D01*
X10717634Y-8487704D01*
X10718141Y-8488926D01*
X10725286Y-8499620D01*
X10725286Y-8499620D01*
X10725286Y-8499620D01*
X10734380Y-8508714D01*
X10734380Y-8508714D01*
X10734380Y-8508714D01*
X10745074Y-8515859D01*
X10756956Y-8520781D01*
X10764524Y-8522286D01*
X10769569Y-8523290D01*
X10769570Y-8523290D01*
X10892431Y-8523290D01*
X10896635Y-8522454D01*
X10905044Y-8520781D01*
X10916926Y-8515859D01*
X10927620Y-8508714D01*
X10936714Y-8499620D01*
X10943859Y-8488926D01*
X10948781Y-8477044D01*
X10951290Y-8464431D01*
X10951290Y-8451570D01*
X10951269Y-8451463D01*
X10950286Y-8446524D01*
X10948781Y-8438956D01*
X10943859Y-8427074D01*
X10936714Y-8416380D01*
X10936714Y-8416380D01*
X10936714Y-8416380D01*
X10927620Y-8407286D01*
X10927620Y-8407286D01*
X10927620Y-8407286D01*
X10916926Y-8400141D01*
X10915334Y-8399481D01*
X10913446Y-8398699D01*
X10905044Y-8395219D01*
X10905044Y-8395219D01*
X10905044Y-8395219D01*
X10892431Y-8392710D01*
X10892431Y-8392710D01*
X10769570Y-8392710D01*
X10769569Y-8392710D01*
X10756956Y-8395219D01*
X10756956Y-8395219D01*
X10745074Y-8400141D01*
X10734380Y-8407286D01*
X10734380Y-8407286D01*
X10725286Y-8416380D01*
X10725286Y-8416380D01*
X10718141Y-8427074D01*
X10713219Y-8438956D01*
X10713219Y-8438956D01*
X10710710Y-8451569D01*
X10508290Y-8451569D01*
X10508269Y-8451463D01*
X10507286Y-8446524D01*
X10505781Y-8438956D01*
X10500859Y-8427074D01*
X10493714Y-8416380D01*
X10493714Y-8416380D01*
X10493714Y-8416380D01*
X10484620Y-8407286D01*
X10484620Y-8407286D01*
X10484620Y-8407286D01*
X10473926Y-8400141D01*
X10472334Y-8399481D01*
X10470446Y-8398699D01*
X10462044Y-8395219D01*
X10462044Y-8395219D01*
X10462044Y-8395219D01*
X10449431Y-8392710D01*
X10449431Y-8392710D01*
X10376570Y-8392710D01*
X10376569Y-8392710D01*
X10363956Y-8395219D01*
X10363956Y-8395219D01*
X10352074Y-8400141D01*
X10341380Y-8407286D01*
X10341380Y-8407286D01*
X10332286Y-8416380D01*
X10332286Y-8416380D01*
X10325141Y-8427074D01*
X10320219Y-8438956D01*
X10320219Y-8438956D01*
X10317710Y-8451569D01*
X10162550Y-8451569D01*
X10162550Y-8312537D01*
X11067210Y-8312537D01*
X11067210Y-8324462D01*
X11070296Y-8335981D01*
X11070296Y-8335981D01*
X11076259Y-8346309D01*
X11084691Y-8354741D01*
X11090654Y-8358183D01*
X11095019Y-8360704D01*
X11106538Y-8363790D01*
X11106538Y-8363790D01*
X11116887Y-8363790D01*
X11121721Y-8365549D01*
X11122205Y-8365993D01*
X11210577Y-8454365D01*
X11212751Y-8459027D01*
X11212780Y-8459683D01*
X11212780Y-9802055D01*
X11211021Y-9806889D01*
X11210577Y-9807373D01*
X11203259Y-9814691D01*
X11197296Y-9825019D01*
X11197296Y-9825019D01*
X11197296Y-9825019D01*
X11194210Y-9836538D01*
X11194210Y-9848463D01*
X11196668Y-9857636D01*
X11197296Y-9859981D01*
X11197296Y-9859981D01*
X11203259Y-9870309D01*
X11211691Y-9878741D01*
X11217654Y-9882183D01*
X11222019Y-9884704D01*
X11233537Y-9887790D01*
X11233538Y-9887790D01*
X11245462Y-9887790D01*
X11245462Y-9887790D01*
X11256981Y-9884704D01*
X11267309Y-9878741D01*
X11275741Y-9870309D01*
X11281704Y-9859981D01*
X11284790Y-9848463D01*
X11284790Y-9836538D01*
X11281704Y-9825019D01*
X11281703Y-9825019D01*
X11275741Y-9814691D01*
X11268423Y-9807373D01*
X11266249Y-9802711D01*
X11266220Y-9802055D01*
X11266220Y-8630038D01*
X12019710Y-8630038D01*
X12019710Y-8641963D01*
X12021539Y-8648790D01*
X12022796Y-8653481D01*
X12022796Y-8653481D01*
X12028759Y-8663809D01*
X12036077Y-8671127D01*
X12038251Y-8675789D01*
X12038280Y-8676445D01*
X12038280Y-8948185D01*
X12038280Y-8958815D01*
X12040098Y-8963205D01*
X12042348Y-8968636D01*
X12137669Y-9063956D01*
X12145185Y-9071473D01*
X12155006Y-9075541D01*
X13098497Y-9075541D01*
X13103330Y-9077300D01*
X13103814Y-9077743D01*
X13185206Y-9159136D01*
X13192723Y-9166652D01*
X13202544Y-9170720D01*
X13802555Y-9170720D01*
X13807389Y-9172479D01*
X13807873Y-9172923D01*
X13815191Y-9180241D01*
X13821154Y-9183683D01*
X13825519Y-9186204D01*
X13837037Y-9189290D01*
X13837038Y-9189290D01*
X13848962Y-9189290D01*
X13848962Y-9189290D01*
X13860481Y-9186204D01*
X13870809Y-9180241D01*
X13879241Y-9171809D01*
X13885204Y-9161481D01*
X13888290Y-9149963D01*
X13888290Y-9138038D01*
X13885204Y-9126519D01*
X13881607Y-9120289D01*
X13879241Y-9116191D01*
X13870809Y-9107759D01*
X13860481Y-9101796D01*
X13848962Y-9098710D01*
X13837037Y-9098710D01*
X13828398Y-9101025D01*
X13825519Y-9101796D01*
X13825518Y-9101796D01*
X13815191Y-9107759D01*
X13807873Y-9115077D01*
X13803211Y-9117251D01*
X13802555Y-9117280D01*
X13222041Y-9117280D01*
X13217207Y-9115521D01*
X13216724Y-9115077D01*
X13127815Y-9026169D01*
X13127815Y-9026169D01*
X13117994Y-9022101D01*
X13117994Y-9022101D01*
X12174503Y-9022101D01*
X12169669Y-9020341D01*
X12169186Y-9019898D01*
X12093923Y-8944635D01*
X12091749Y-8939973D01*
X12091720Y-8939317D01*
X12091720Y-8676445D01*
X12093479Y-8671611D01*
X12093923Y-8671127D01*
X12101241Y-8663809D01*
X12107203Y-8653481D01*
X12107204Y-8653481D01*
X12110290Y-8641963D01*
X12110290Y-8630038D01*
X12146710Y-8630038D01*
X12146710Y-8641963D01*
X12148539Y-8648790D01*
X12149796Y-8653481D01*
X12149796Y-8653481D01*
X12155759Y-8663809D01*
X12163077Y-8671127D01*
X12165251Y-8675789D01*
X12165280Y-8676445D01*
X12165280Y-8821185D01*
X12165280Y-8831815D01*
X12169348Y-8841636D01*
X12169348Y-8841636D01*
X12240364Y-8912652D01*
X12240364Y-8912652D01*
X12240364Y-8912652D01*
X12250185Y-8916720D01*
X12260815Y-8916720D01*
X13040555Y-8916720D01*
X13045389Y-8918479D01*
X13045873Y-8918923D01*
X13053191Y-8926241D01*
X13056125Y-8927935D01*
X13063519Y-8932204D01*
X13075037Y-8935290D01*
X13075038Y-8935290D01*
X13086962Y-8935290D01*
X13086962Y-8935290D01*
X13098481Y-8932204D01*
X13108809Y-8926241D01*
X13117241Y-8917809D01*
X13123204Y-8907481D01*
X13126290Y-8895963D01*
X13126290Y-8884038D01*
X13123204Y-8872519D01*
X13122783Y-8871790D01*
X13117241Y-8862191D01*
X13108809Y-8853759D01*
X13098481Y-8847796D01*
X13086962Y-8844710D01*
X13075037Y-8844710D01*
X13066398Y-8847025D01*
X13063519Y-8847796D01*
X13063518Y-8847796D01*
X13053191Y-8853759D01*
X13045873Y-8861077D01*
X13041211Y-8863251D01*
X13040555Y-8863280D01*
X12269683Y-8863280D01*
X12264849Y-8861521D01*
X12264365Y-8861077D01*
X12220923Y-8817635D01*
X12218749Y-8812973D01*
X12218720Y-8812317D01*
X12218720Y-8757038D01*
X12273710Y-8757038D01*
X12273710Y-8768963D01*
X12276796Y-8780481D01*
X12276796Y-8780481D01*
X12282759Y-8790809D01*
X12291191Y-8799241D01*
X12297154Y-8802683D01*
X12301519Y-8805204D01*
X12313037Y-8808290D01*
X12313038Y-8808290D01*
X12324962Y-8808290D01*
X12324962Y-8808290D01*
X12336481Y-8805204D01*
X12346809Y-8799241D01*
X12348472Y-8797577D01*
X12354127Y-8791923D01*
X12358789Y-8789749D01*
X12359445Y-8789720D01*
X13701817Y-8789720D01*
X13706651Y-8791479D01*
X13707135Y-8791923D01*
X13795507Y-8880295D01*
X13797681Y-8884957D01*
X13797710Y-8885613D01*
X13797710Y-8895963D01*
X13800796Y-8907481D01*
X13800796Y-8907481D01*
X13806759Y-8917809D01*
X13815191Y-8926241D01*
X13818125Y-8927935D01*
X13825519Y-8932204D01*
X13837037Y-8935290D01*
X13837038Y-8935290D01*
X13848962Y-8935290D01*
X13848962Y-8935290D01*
X13860481Y-8932204D01*
X13870809Y-8926241D01*
X13879241Y-8917809D01*
X13885204Y-8907481D01*
X13888290Y-8895963D01*
X13888290Y-8884038D01*
X13885204Y-8872519D01*
X13884783Y-8871790D01*
X13879241Y-8862191D01*
X13870809Y-8853759D01*
X13860481Y-8847796D01*
X13848962Y-8844710D01*
X13838613Y-8844710D01*
X13833779Y-8842951D01*
X13833295Y-8842507D01*
X13731136Y-8740348D01*
X13731136Y-8740348D01*
X13721315Y-8736280D01*
X13721315Y-8736280D01*
X12359445Y-8736280D01*
X12354611Y-8734521D01*
X12354127Y-8734077D01*
X12346809Y-8726759D01*
X12336481Y-8720796D01*
X12324962Y-8717710D01*
X12313037Y-8717710D01*
X12304398Y-8720025D01*
X12301519Y-8720796D01*
X12301518Y-8720796D01*
X12291191Y-8726759D01*
X12282759Y-8735191D01*
X12276796Y-8745519D01*
X12276796Y-8745519D01*
X12276796Y-8745519D01*
X12273710Y-8757038D01*
X12218720Y-8757038D01*
X12218720Y-8676445D01*
X12220479Y-8671611D01*
X12220923Y-8671127D01*
X12228241Y-8663809D01*
X12234203Y-8653481D01*
X12234204Y-8653481D01*
X12237290Y-8641963D01*
X12237290Y-8630038D01*
X12234204Y-8618519D01*
X12234203Y-8618519D01*
X12228241Y-8608191D01*
X12219809Y-8599759D01*
X12209481Y-8593796D01*
X12197962Y-8590710D01*
X12186037Y-8590710D01*
X12177398Y-8593025D01*
X12174519Y-8593796D01*
X12174518Y-8593796D01*
X12164191Y-8599759D01*
X12155759Y-8608191D01*
X12149796Y-8618519D01*
X12149796Y-8618519D01*
X12148768Y-8622358D01*
X12146710Y-8630038D01*
X12110290Y-8630038D01*
X12107204Y-8618519D01*
X12107203Y-8618519D01*
X12101241Y-8608191D01*
X12092809Y-8599759D01*
X12082481Y-8593796D01*
X12070962Y-8590710D01*
X12059037Y-8590710D01*
X12050398Y-8593025D01*
X12047519Y-8593796D01*
X12047518Y-8593796D01*
X12037191Y-8599759D01*
X12028759Y-8608191D01*
X12022796Y-8618519D01*
X12022796Y-8618519D01*
X12021768Y-8622358D01*
X12019710Y-8630038D01*
X11266220Y-8630038D01*
X11266220Y-8440185D01*
X11265952Y-8439538D01*
X11265952Y-8439538D01*
X11638710Y-8439538D01*
X11638710Y-8451463D01*
X11641796Y-8462981D01*
X11641796Y-8462981D01*
X11647759Y-8473309D01*
X11656191Y-8481741D01*
X11662154Y-8485183D01*
X11666519Y-8487704D01*
X11678037Y-8490790D01*
X11678038Y-8490790D01*
X11689962Y-8490790D01*
X11689962Y-8490790D01*
X11701481Y-8487704D01*
X11711809Y-8481741D01*
X11720241Y-8473309D01*
X11726204Y-8462981D01*
X11729290Y-8451463D01*
X11729290Y-8439538D01*
X11726204Y-8428019D01*
X11725658Y-8427074D01*
X11720241Y-8417691D01*
X11711809Y-8409259D01*
X11701481Y-8403296D01*
X11689962Y-8400210D01*
X11678037Y-8400210D01*
X11669398Y-8402525D01*
X11666519Y-8403296D01*
X11666518Y-8403296D01*
X11656191Y-8409259D01*
X11647759Y-8417691D01*
X11641796Y-8428019D01*
X11641796Y-8428019D01*
X11641796Y-8428019D01*
X11638710Y-8439538D01*
X11265952Y-8439538D01*
X11262152Y-8430364D01*
X11254636Y-8422848D01*
X11159993Y-8328205D01*
X11159299Y-8326717D01*
X11158244Y-8325459D01*
X11157958Y-8323843D01*
X11157819Y-8323543D01*
X11157790Y-8322887D01*
X11157790Y-8312538D01*
X11157790Y-8312537D01*
X12337210Y-8312537D01*
X12337210Y-8324462D01*
X12340296Y-8335981D01*
X12340296Y-8335981D01*
X12346259Y-8346309D01*
X12354691Y-8354741D01*
X12360654Y-8358183D01*
X12365019Y-8360704D01*
X12376537Y-8363790D01*
X12376538Y-8363790D01*
X12386887Y-8363790D01*
X12391721Y-8365549D01*
X12392205Y-8365993D01*
X12423348Y-8397136D01*
X12430864Y-8404652D01*
X12440685Y-8408720D01*
X12846413Y-8408720D01*
X12851247Y-8410479D01*
X12853819Y-8414934D01*
X12852926Y-8420000D01*
X12848296Y-8428019D01*
X12848296Y-8428019D01*
X12848296Y-8428019D01*
X12845210Y-8439538D01*
X12845210Y-8451463D01*
X12848296Y-8462981D01*
X12848296Y-8462981D01*
X12852926Y-8471000D01*
X12853819Y-8476066D01*
X12851247Y-8480521D01*
X12846413Y-8482280D01*
X12549945Y-8482280D01*
X12545111Y-8480521D01*
X12544627Y-8480077D01*
X12537309Y-8472759D01*
X12526981Y-8466796D01*
X12515462Y-8463710D01*
X12503537Y-8463710D01*
X12494898Y-8466025D01*
X12492019Y-8466796D01*
X12492018Y-8466796D01*
X12481691Y-8472759D01*
X12473259Y-8481191D01*
X12467296Y-8491519D01*
X12467296Y-8491519D01*
X12467296Y-8491519D01*
X12464210Y-8503038D01*
X12464210Y-8514963D01*
X12464450Y-8515859D01*
X12467296Y-8526481D01*
X12467296Y-8526481D01*
X12473259Y-8536809D01*
X12481691Y-8545241D01*
X12487654Y-8548683D01*
X12492019Y-8551204D01*
X12503537Y-8554290D01*
X12503538Y-8554290D01*
X12515462Y-8554290D01*
X12515462Y-8554290D01*
X12526981Y-8551204D01*
X12537309Y-8545241D01*
X12544627Y-8537923D01*
X12549289Y-8535749D01*
X12549945Y-8535720D01*
X13675555Y-8535720D01*
X13680389Y-8537479D01*
X13680873Y-8537923D01*
X13688191Y-8545241D01*
X13694154Y-8548683D01*
X13698519Y-8551204D01*
X13710037Y-8554290D01*
X13710038Y-8554290D01*
X13721962Y-8554290D01*
X13721962Y-8554290D01*
X13733481Y-8551204D01*
X13743809Y-8545241D01*
X13752241Y-8536809D01*
X13758204Y-8526481D01*
X13761290Y-8514963D01*
X13761290Y-8503038D01*
X13758204Y-8491519D01*
X13756707Y-8488926D01*
X13752241Y-8481191D01*
X13743809Y-8472759D01*
X13733481Y-8466796D01*
X13721962Y-8463710D01*
X13710037Y-8463710D01*
X13701398Y-8466025D01*
X13698519Y-8466796D01*
X13698518Y-8466796D01*
X13688191Y-8472759D01*
X13680873Y-8480077D01*
X13676211Y-8482251D01*
X13675555Y-8482280D01*
X12934586Y-8482280D01*
X12929753Y-8480521D01*
X12927181Y-8476066D01*
X12928074Y-8471000D01*
X12931867Y-8464431D01*
X12932704Y-8462981D01*
X12935790Y-8451463D01*
X12935790Y-8439538D01*
X12932704Y-8428019D01*
X12932158Y-8427074D01*
X12928074Y-8420000D01*
X12927181Y-8414934D01*
X12929753Y-8410479D01*
X12934586Y-8408720D01*
X13739055Y-8408720D01*
X13743889Y-8410479D01*
X13744373Y-8410923D01*
X13751691Y-8418241D01*
X13754738Y-8420000D01*
X13762019Y-8424204D01*
X13773537Y-8427290D01*
X13773538Y-8427290D01*
X13785462Y-8427290D01*
X13785462Y-8427290D01*
X13796981Y-8424204D01*
X13807309Y-8418241D01*
X13815741Y-8409809D01*
X13821704Y-8399481D01*
X13824790Y-8387962D01*
X13824790Y-8376037D01*
X13821704Y-8364519D01*
X13821095Y-8363465D01*
X13815741Y-8354191D01*
X13807309Y-8345759D01*
X13796981Y-8339796D01*
X13785462Y-8336710D01*
X13773537Y-8336710D01*
X13764898Y-8339025D01*
X13762019Y-8339796D01*
X13762018Y-8339796D01*
X13751691Y-8345759D01*
X13744373Y-8353077D01*
X13739711Y-8355251D01*
X13739055Y-8355280D01*
X12460183Y-8355280D01*
X12455349Y-8353521D01*
X12454865Y-8353077D01*
X12429993Y-8328205D01*
X12427819Y-8323543D01*
X12427790Y-8322887D01*
X12427790Y-8312538D01*
X12427790Y-8312537D01*
X12424704Y-8301019D01*
X12424283Y-8300290D01*
X12418741Y-8290691D01*
X12410309Y-8282259D01*
X12399981Y-8276296D01*
X12388462Y-8273210D01*
X12376537Y-8273210D01*
X12367898Y-8275525D01*
X12365019Y-8276296D01*
X12365018Y-8276296D01*
X12354691Y-8282259D01*
X12346259Y-8290691D01*
X12340296Y-8301018D01*
X12340296Y-8301019D01*
X12340296Y-8301019D01*
X12337210Y-8312537D01*
X11157790Y-8312537D01*
X11154704Y-8301019D01*
X11154283Y-8300290D01*
X11148741Y-8290691D01*
X11140309Y-8282259D01*
X11129981Y-8276296D01*
X11118463Y-8273210D01*
X11106538Y-8273210D01*
X11097898Y-8275525D01*
X11095019Y-8276296D01*
X11095019Y-8276296D01*
X11084691Y-8282259D01*
X11076259Y-8290691D01*
X11070296Y-8301018D01*
X11070296Y-8301019D01*
X11070296Y-8301019D01*
X11067210Y-8312537D01*
X10162550Y-8312537D01*
X10162550Y-8249037D01*
X14115210Y-8249037D01*
X14115210Y-8260962D01*
X14118296Y-8272481D01*
X14118296Y-8272481D01*
X14124259Y-8282809D01*
X14132691Y-8291241D01*
X14138654Y-8294683D01*
X14143019Y-8297204D01*
X14154537Y-8300290D01*
X14154538Y-8300290D01*
X14166462Y-8300290D01*
X14166462Y-8300290D01*
X14177981Y-8297204D01*
X14188309Y-8291241D01*
X14196741Y-8282809D01*
X14202704Y-8272481D01*
X14205790Y-8260962D01*
X14205790Y-8249037D01*
X14202704Y-8237519D01*
X14202283Y-8236790D01*
X14196741Y-8227191D01*
X14188309Y-8218759D01*
X14177981Y-8212796D01*
X14166462Y-8209710D01*
X14154537Y-8209710D01*
X14145898Y-8212025D01*
X14143019Y-8212796D01*
X14143018Y-8212796D01*
X14132691Y-8218759D01*
X14124259Y-8227191D01*
X14118296Y-8237518D01*
X14118296Y-8237519D01*
X14118296Y-8237519D01*
X14115210Y-8249037D01*
X10162550Y-8249037D01*
X10162550Y-8185537D01*
X12591210Y-8185537D01*
X12591210Y-8197462D01*
X12594296Y-8208981D01*
X12594296Y-8208981D01*
X12600259Y-8219309D01*
X12608691Y-8227741D01*
X12614654Y-8231183D01*
X12619019Y-8233704D01*
X12630537Y-8236790D01*
X12630538Y-8236790D01*
X12642462Y-8236790D01*
X12642462Y-8236790D01*
X12653981Y-8233704D01*
X12664309Y-8227741D01*
X12672741Y-8219309D01*
X12678704Y-8208981D01*
X12681790Y-8197462D01*
X12681790Y-8185537D01*
X12678704Y-8174019D01*
X12678703Y-8174018D01*
X12672741Y-8163691D01*
X12664309Y-8155259D01*
X12653981Y-8149296D01*
X12642462Y-8146210D01*
X12630537Y-8146210D01*
X12621898Y-8148525D01*
X12619019Y-8149296D01*
X12619018Y-8149296D01*
X12608691Y-8155259D01*
X12600259Y-8163691D01*
X12594296Y-8174018D01*
X12594296Y-8174019D01*
X12594296Y-8174019D01*
X12591210Y-8185537D01*
X10162550Y-8185537D01*
X10162550Y-7493228D01*
X10162564Y-7492773D01*
X10163147Y-7483139D01*
X10288710Y-7483139D01*
X10288710Y-7502861D01*
X10291795Y-7522338D01*
X10291795Y-7522340D01*
X10297889Y-7541095D01*
X10306842Y-7558666D01*
X10318434Y-7574621D01*
X10318435Y-7574622D01*
X10332378Y-7588565D01*
X10332379Y-7588566D01*
X10332379Y-7588566D01*
X10341105Y-7594905D01*
X10348334Y-7600157D01*
X10365905Y-7609111D01*
X10384660Y-7615205D01*
X10384661Y-7615205D01*
X10384661Y-7615205D01*
X10404140Y-7618290D01*
X10404140Y-7618290D01*
X10423860Y-7618290D01*
X10423861Y-7618290D01*
X10443339Y-7615205D01*
X10443339Y-7615205D01*
X10443340Y-7615205D01*
X10457116Y-7610728D01*
X10462095Y-7609111D01*
X10479666Y-7600158D01*
X10495621Y-7588566D01*
X10509566Y-7574621D01*
X10521158Y-7558666D01*
X10530111Y-7541095D01*
X10531729Y-7536116D01*
X10536205Y-7522340D01*
X10536205Y-7522339D01*
X10536205Y-7522339D01*
X10539290Y-7502860D01*
X10539290Y-7483139D01*
X10536205Y-7463661D01*
X10536205Y-7463661D01*
X10536205Y-7463660D01*
X10530111Y-7444905D01*
X10521158Y-7427333D01*
X10515905Y-7420104D01*
X10509566Y-7411379D01*
X10509566Y-7411379D01*
X10509565Y-7411378D01*
X10495622Y-7397435D01*
X10495621Y-7397434D01*
X10479666Y-7385842D01*
X10462095Y-7376889D01*
X10443340Y-7370795D01*
X10443339Y-7370795D01*
X10423861Y-7367710D01*
X10423861Y-7367710D01*
X10404140Y-7367710D01*
X10404139Y-7367710D01*
X10384661Y-7370795D01*
X10384660Y-7370795D01*
X10365905Y-7376889D01*
X10348334Y-7385842D01*
X10332379Y-7397434D01*
X10332378Y-7397435D01*
X10318435Y-7411378D01*
X10318434Y-7411379D01*
X10306842Y-7427333D01*
X10297889Y-7444905D01*
X10291795Y-7463660D01*
X10291795Y-7463661D01*
X10288710Y-7483139D01*
X10163147Y-7483139D01*
X10163192Y-7482390D01*
X10163192Y-7482390D01*
X10164325Y-7463661D01*
X10164356Y-7463144D01*
X10164465Y-7462244D01*
X10169775Y-7433270D01*
X10169992Y-7432391D01*
X10178755Y-7404268D01*
X10179077Y-7403420D01*
X10181771Y-7397434D01*
X10191166Y-7376559D01*
X10191587Y-7375757D01*
X10206826Y-7350548D01*
X10207341Y-7349802D01*
X10225507Y-7326615D01*
X10226108Y-7325937D01*
X10242025Y-7310019D01*
X11541210Y-7310019D01*
X11541210Y-7310020D01*
X11541210Y-8120480D01*
X11541245Y-8121276D01*
X11541270Y-8121856D01*
X11541361Y-8122900D01*
X11541384Y-8123161D01*
X11543440Y-8129681D01*
X11546011Y-8134135D01*
X11546012Y-8134136D01*
X11547590Y-8136390D01*
X11554286Y-8141078D01*
X11554286Y-8141078D01*
X11554286Y-8141078D01*
X11559120Y-8142838D01*
X11564519Y-8143790D01*
X11564520Y-8143790D01*
X11564520Y-8143790D01*
X12184479Y-8143790D01*
X12184480Y-8143790D01*
X12185856Y-8143730D01*
X12187161Y-8143616D01*
X12193681Y-8141560D01*
X12198136Y-8138988D01*
X12200390Y-8137409D01*
X12205078Y-8130714D01*
X12206838Y-8125880D01*
X12207790Y-8120480D01*
X12207790Y-8120480D01*
X12207790Y-7677537D01*
X12591210Y-7677537D01*
X12591210Y-7689462D01*
X12594296Y-7700981D01*
X12594296Y-7700981D01*
X12600259Y-7711309D01*
X12608691Y-7719741D01*
X12614654Y-7723183D01*
X12619019Y-7725704D01*
X12630537Y-7728790D01*
X12630538Y-7728790D01*
X12642462Y-7728790D01*
X12642462Y-7728790D01*
X12653981Y-7725704D01*
X12664309Y-7719741D01*
X12672741Y-7711309D01*
X12678704Y-7700981D01*
X12681790Y-7689462D01*
X12681790Y-7677537D01*
X12678704Y-7666019D01*
X12678703Y-7666018D01*
X12672741Y-7655691D01*
X12664309Y-7647259D01*
X12653981Y-7641296D01*
X12642462Y-7638210D01*
X12630537Y-7638210D01*
X12621898Y-7640525D01*
X12619019Y-7641296D01*
X12619018Y-7641296D01*
X12608691Y-7647259D01*
X12600259Y-7655691D01*
X12594296Y-7666018D01*
X12594296Y-7666019D01*
X12594296Y-7666019D01*
X12591210Y-7677537D01*
X12207790Y-7677537D01*
X12207790Y-7483139D01*
X14225710Y-7483139D01*
X14225710Y-7502861D01*
X14228795Y-7522338D01*
X14228795Y-7522340D01*
X14234889Y-7541095D01*
X14243842Y-7558666D01*
X14255434Y-7574621D01*
X14255435Y-7574622D01*
X14269378Y-7588565D01*
X14269379Y-7588566D01*
X14269379Y-7588566D01*
X14278104Y-7594905D01*
X14285333Y-7600157D01*
X14302905Y-7609111D01*
X14321660Y-7615205D01*
X14321661Y-7615205D01*
X14321661Y-7615205D01*
X14341139Y-7618290D01*
X14341140Y-7618290D01*
X14360860Y-7618290D01*
X14360860Y-7618290D01*
X14380339Y-7615205D01*
X14380339Y-7615205D01*
X14380340Y-7615205D01*
X14394116Y-7610728D01*
X14399095Y-7609111D01*
X14416666Y-7600158D01*
X14432621Y-7588566D01*
X14446566Y-7574621D01*
X14458158Y-7558666D01*
X14467111Y-7541095D01*
X14468728Y-7536116D01*
X14473205Y-7522340D01*
X14473205Y-7522339D01*
X14473205Y-7522339D01*
X14476290Y-7502860D01*
X14476290Y-7483139D01*
X14473205Y-7463661D01*
X14473205Y-7463661D01*
X14473205Y-7463660D01*
X14467111Y-7444905D01*
X14458157Y-7427333D01*
X14452905Y-7420104D01*
X14446566Y-7411379D01*
X14446566Y-7411379D01*
X14446565Y-7411378D01*
X14432622Y-7397435D01*
X14432621Y-7397434D01*
X14416666Y-7385842D01*
X14399095Y-7376889D01*
X14380340Y-7370795D01*
X14380338Y-7370795D01*
X14360861Y-7367710D01*
X14360860Y-7367710D01*
X14341139Y-7367710D01*
X14341139Y-7367710D01*
X14321661Y-7370795D01*
X14321660Y-7370795D01*
X14302905Y-7376889D01*
X14285333Y-7385842D01*
X14269379Y-7397434D01*
X14269378Y-7397435D01*
X14255435Y-7411378D01*
X14255434Y-7411379D01*
X14243842Y-7427333D01*
X14234889Y-7444905D01*
X14228795Y-7463660D01*
X14228795Y-7463661D01*
X14225710Y-7483139D01*
X12207790Y-7483139D01*
X12207790Y-7310021D01*
X12207790Y-7310020D01*
X12207730Y-7308644D01*
X12207616Y-7307338D01*
X12205560Y-7300819D01*
X12202988Y-7296364D01*
X12201409Y-7294110D01*
X12199954Y-7293090D01*
X12194714Y-7289422D01*
X12194714Y-7289422D01*
X12189880Y-7287662D01*
X12184480Y-7286710D01*
X12184480Y-7286710D01*
X11564520Y-7286710D01*
X11563796Y-7286741D01*
X11563143Y-7286770D01*
X11561969Y-7286873D01*
X11561838Y-7286884D01*
X11555319Y-7288940D01*
X11555319Y-7288940D01*
X11550864Y-7291511D01*
X11550864Y-7291512D01*
X11548609Y-7293090D01*
X11543922Y-7299785D01*
X11542162Y-7304620D01*
X11541210Y-7310019D01*
X10242025Y-7310019D01*
X10246937Y-7305108D01*
X10247614Y-7304508D01*
X10270802Y-7286341D01*
X10271548Y-7285826D01*
X10296757Y-7270587D01*
X10297559Y-7270166D01*
X10324420Y-7258076D01*
X10325268Y-7257755D01*
X10353391Y-7248991D01*
X10354270Y-7248775D01*
X10383244Y-7243465D01*
X10384144Y-7243356D01*
X10411344Y-7241711D01*
X10413774Y-7241564D01*
X10414228Y-7241550D01*
X10414829Y-7241550D01*
X14350171Y-7241550D01*
X14350772Y-7241550D01*
X14351226Y-7241564D01*
G37*
%TD.AperFunction*%
%TD*%
M02*
